<svg width="200" height="200" viewBox="0 0 200 200" fill="none" xmlns="http://www.w3.org/2000/svg"><g fill="#fff"><path d="M94.805 142.715c.02.078.039.137.059.176l-.059-.176z"/><path d="M145.078 142.734a14.34 14.34 0 0 1-1.933-1.074c-4.649-6.484-8.867-13.281-12.598-20.332l-.234-.625c-.703-1.992-1.504-3.906-3.457-4.961-1.524-.84-3.34-.586-4.61.586-1.386 1.289-1.894 3.008-2.07 4.824-.059.508-.059 1.035-.078 1.543v.078c-.156-.019-.313-.058-.469-.078l-1.113-.176c-.859-.136-1.719-.292-2.578-.449-1.582-.293-3.164-.644-4.727-1.093-1.797-.508-3.496-1.094-5.351-1.27-1.836-.176-3.672.215-5.489.488-1.699.274-3.398.567-5.078.899-3.125.605-3.789 5.566-.918 6.953 1.934.937 3.848 1.269 5.977 1.426.39.019.781.058 1.172.078l.664.058c.019 0 .058 0 .117.02.137.019.312.058.371.078l.488.117.371.117c-.273.157-.566.293-.839.45-.039.019-.059.019-.079.039-.136.039-.273.097-.39.136-3.418 1.289-8.086 2.754-9.102 6.778-.352 1.367-.059 2.851.703 4.023.195.293.488.957.781.996.059.117.137.215.195.332v-.039c0 .02 0 .039.02.059.039.058.059.117.078.137v.058c0-.019-.02-.019-.02-.039.02.02.02.059.02.078 0 .039 0 .098.019.176 0 .078.02.137.02.176 0 .019 0 .058-.02.078-.215 1.621-.293 3.027.469 4.531.391.781.918 1.465 1.328 2.227-.078-.137-.234-.684 0 .019.078.215.137.43.195.645.176.605.332 1.211.625 1.777 1.426 2.793 4.649 2.559 7.325 2.656 1.464.059 2.871-.937 3.476-2.265 3.477 1.621 7.246 2.676 10.938 3.652l6.894 1.875c1.074.332 2.149.684 3.223 1.074l1.582.606c-1.094-.449 1.308.527 1.035.429.488.176.898.274 1.484.293 1.075.039 2.09-.273 2.95-.898.996.039 1.972-.293 2.636-1.094a8.96 8.96 0 0 0 1.446-2.344c1.25-.078 2.48-.703 3.125-1.855.957-1.699 1.504-3.555 1.562-5.508.215-.195.41-.39.625-.586 1.66-1.445 1.465-4.883-.762-5.879zm-41.152-12.48c0 .019.02.019.02.039.019.019.019.039.039.059v.019c.039.059.097.137.097.137-.078 0-.136-.156-.156-.254zm37.109 25.019v-.019c.079-.137.176-.274.157-.274.058.059-.02.176-.157.293z"/><path d="M132.012 160.684c-.039-.02-.059-.02-.098-.039.039.019.078.039.098.039zm21.074-47.774c0-.019 0-.019-.02-.039v.156c0-.019.02-.039.02-.058v-.059z"/><path d="M185.429 115.333l-1.777-1.563-.82-.898a1.31 1.31 0 0 0-.137-.156l-.098-.176c-.879-1.348-1.66-2.715-2.343-4.18-1.289-2.734-2.344-5.566-4.024-8.105-1.953-2.95-4.414-5.254-7.754-6.524-1.562-.586-3.32.527-3.926 2.031l-2.05-.957c-1.524-.703-3.535-.488-4.414 1.152-.078.156-.137.313-.196.469-1.054-.215-2.148-.371-3.222-.234-1.817.215-3.086 1.309-3.223 3.223-.039.605.039 1.172.215 1.719a102.22 102.22 0 0 0-13.594 1.093c-1.68.235-2.734 2.461-2.246 3.965.586 1.836 2.168 2.5 3.965 2.246 2.91-.41 6.035-.683 9.219-.8-.137.917.156 1.875.879 2.714.507.606 1.171 1.094 1.816 1.543.273.196.566.371.84.567.117.078.644.527.371.254.058.039.098.097.156.136 0 .02 0 .02.02.039v.02.039.039.098-.02c0 .02-.02.059-.02.078-.019.02-.019.059-.039.078-.195.059-.391.098-.586.157-.547.117-1.074.254-1.582.41-1.016 0-2.012.488-2.637 1.543-.117.195-.234.39-.332.605-.8 1.407-.429 3.184.821 4.16a3.13 3.13 0 0 0 1.269.586c1.133.918 2.5 1.582 3.77 2.305 2.168 1.231 4.394 2.402 6.621 3.516 2.187 1.093 4.394 2.129 6.621 3.105 1.211.528 2.441 1.153 3.75 1.406.449.098 1.133.274 1.719.293.39.645.996 1.192 1.621 1.446 1.152.488 2.636.293 3.515-.664.254-.274.508-.567.762-.86 1.133.059 2.422-.508 2.93-1.562l.195-.391c.137-.019.273-.039.41-.097 1.309-.43 2.442-1.661 2.364-3.106v-.078c1.367-1.309 2.636-2.793 3.066-4.707a6.14 6.14 0 0 0-1.895-5.957z"/></g><path d="M94.336 135.937c-.078.118-.117.274-.215.352-1.562 1.211-1.562 1.289-.605 3.047.117.215.215.469.313.703-.371.391-.84.742-1.074 1.191-.371.704-.352 1.446.391 1.954.645.429 1.328.253 1.914-.489.117-.156.313-.273.469-.41-.195.586-.273 1.211-.586 1.719-.254.449-.371.723-.059 1.191.508.723.938 1.524 1.406 2.285l-1.641 2.266c-.371.606-.156 1.211.43 1.602.605.41 1.152.273 1.66-.215l.527-.528c-.391 1.622.605 2.52 1.738 3.36l-.586.312c-.137.078-.332.118-.43.215-.273.352-.488.742-.742 1.133l1.055.645c.215.117.488.156.723.273l2.949 1.484c1.289.664 2.539.508 3.653-.351 1.093-.84 2.109-1.797 3.203-2.735l6.152 1.582c-.332 1.309-1.269 2.11-2.422 2.637l-7.969 3.535c-1.601.703-3.281 1.27-4.785 2.149-2.383 1.406-5.176 1.406-7.656 2.402-2.852 1.133-5.254.02-7.832-.898-4.59-1.641-8.633-4.297-12.793-6.719-4.414-2.559-8.926-4.883-13.379-7.363-1.621-.899-3.203-1.875-4.687-2.969-.664-.508-1.035-1.406-1.523-2.149-.137-.195-.234-.429-.41-.625-1.523-1.718-2.637-3.652-2.5-6.015.098-1.621.273-3.242.645-4.805.43-1.816 1.855-2.715 3.535-3.281l11.914-4.16 13.145-5.078 10.879-3.907c2.168-.839 4.141-2.187 6.328-2.988 4.316-1.582 8.672-3.047 13.067-4.336 6.582-1.933 13.222-3.613 19.824-5.488 1.484-.43 2.871-1.153 4.316-1.758.332-.137.645-.254.977-.371-.293 1.699-.449 3.379.488 5 .84 1.465 1.602 1.894 3.262 1.582 2.578-.469 5.156-.996 7.812-.547 1.524.254 3.047.469 4.415 1.27-1.661 0-2.52.976-3.204 2.304-.605 1.172-.957 2.5-2.168 3.379-.937.684-.8 2.246.098 2.813 1.426.898 2.852 1.777 4.356 2.519l13.984 6.68c-1.992.84-3.731 1.758-5.566 2.305-4.141 1.211-7.95 3.125-11.856 4.882-.293.137-.43.606-.644.899.371.039.781.195 1.074.078l8.73-3.555c3.496-1.308 7.031-2.461 10.547-3.652.332-.117.762-.117 1.113-.039.664.137 1.309.43 1.973.527.352.039.762-.215 1.152-.332-.234-.332-.39-.722-.703-.957-.371-.293-.859-.43-1.308-.625 1.093-.097 2.226.469 2.656 1.367.43.86.332 1.797-.586 2.559-1.035.859-2.188 1.621-3.398 2.168-2.188.976-4.454 1.738-6.68 2.637l-4.844 2.011c-.859.371-1.699.821-2.558 1.192-.879.39-1.778.742-2.735 1.133l.547 1.347c.332.84.195 1.621-.469 2.227-.683.625-1.523.488-2.148 0-.879-.703-1.621-1.563-2.422-2.363l-1.699-1.719c-.352-.352-.742-.645-1.035-1.035-1.758-2.442-3.399-5-5.274-7.344-2.109-2.637-3.125-5.82-4.726-8.692-.293-.527-.391-1.152-.567-1.738l3.848 5.235c1.601 2.304 2.597 5.058 4.961 6.796.273.196.703.176 1.074.254-.078-.371-.078-.781-.254-1.093-.644-1.114-1.445-2.149-2.051-3.282-1.308-2.382-2.48-4.843-3.808-7.226-.782-1.387-1.817-2.598-2.598-3.985-.82-1.445-1.484-3.007-2.187-4.511-.801-1.7-1.68-2.344-3.536-2.051-1.718.273-3.379.84-5.058 1.348-2.988.918-3.789 2.168-3.457 5.214-3.086-.546-6.192-.957-9.239-1.64-3.222-.723-6.425-.879-9.609-.039-1.973.508-3.906 1.191-5.879 1.718-1.348.352-2.383 1.094-2.715 2.383-.371 1.446-.566 2.989-.566 4.492.02 2.657 1.504 3.692 4.102 3.184 1.348-.273 2.715-.371 4.082-.547l.059.274-.918.41c-2.441 1.152-4.414 2.832-6.016 4.98-.43.586-.527 1.211.02 1.758s1.172.606 1.855.137c.332-.215.664-.332.957-.489zm-39.355 5.45c-.059.078-.117.175-.156.254.195.214.371.449.605.625a66.37 66.37 0 0 0 2.383 1.699l6.699 4.355c1.211.743 2.539 1.289 3.75 2.032 1.348.839 2.578 1.855 4.199 2.187.332.059.644.293.957.488l5.84 3.828a6.31 6.31 0 0 0 .508.274l8.574 4.297c.566.273.644.566.586 1.113-.078.645-.117 1.309 0 1.934.039.234.527.449.84.527.098.02.41-.41.449-.664.117-.606.098-1.231.195-1.836.019-.195.156-.469.313-.547.977-.43 1.973-.82 2.969-1.191 1.641-.606 3.32-1.133 4.941-1.797.352-.137.664-.645.801-1.055.059-.215-.293-.762-.488-.801-.391-.039-.82.157-1.211.313-.352.137-.664.371-1.016.527l-5.449 2.344c-.312.137-.781.176-1.055.019l-6.602-3.671c-1.699-.938-3.516-1.7-4.883-3.145-.332-.332-.801-.547-1.23-.762-1.953-.937-3.965-1.738-5.84-2.812-2.305-1.328-4.707-2.442-7.129-3.535-3.008-1.348-5.82-3.145-8.711-4.746-.273-.098-.566-.157-.84-.254zm5.645-1.856c1.309-.39 2.52-.722 3.691-1.152.41-.156.82-.547 1.055-.918.137-.215.059-.742-.117-.957s-.645-.371-.918-.293c-1.152.332-2.266.723-3.379 1.152-.371.137-.723.43-.957.762-.156.195-.176.625-.059.859.117.254.469.391.684.547zm-2.285-2.656l1.113-.352c.801-.253 1.641-.429 2.363-.82.352-.195.586-.781.625-1.23.02-.176-.684-.684-.879-.606-1.211.528-2.363 1.153-3.516 1.797-.156.098-.234.527-.176.762.039.215.332.332.469.449zm7.266 1.68c-.664.468-1.621.996-2.402 1.699-.391.351.137 1.172.723 1.133 1.094-.059 2.09-.449 2.734-1.407.41-.605-.02-1.367-1.055-1.425zm11.27 4.414c.82 0 1.582-.723 1.602-1.524.019-.664-.645-1.347-1.289-1.347-.703 0-1.582.879-1.602 1.582s.566 1.289 1.289 1.289zm10.137.625c.898-.176 1.621-1.172 1.445-2.071-.059-.351-.527-.8-.898-.918-.566-.156-1.406.997-1.289 1.856.059.41.469.762.742 1.133zm59.805-19.434c-.137 0-.273 0-.41-.019-.293.41-.781.8-.781 1.211 0 .351.527.878.898.976.625.176 1.113-.332 1.055-.937-.02-.43-.489-.821-.762-1.231zm-63.262 14.961c0-.156-.019-.312-.019-.469-.41-.254-.859-.722-1.25-.683-.371.039-.977.703-.918.957.098.41.625.957 1.035.996.352.039.762-.508 1.152-.801zm.606 4.395c-.215-.801-.488-1.172-1.133-1.172-.625 0-.996.332-1.016.937-.02.664.43 1.094 1.035 1.016.391-.059.742-.508 1.113-.781zm58.301-18.985c-.411.508-.84.821-.84 1.094.019.293.449.566.703.859.273-.254.742-.468.781-.761.059-.274-.312-.625-.644-1.192zm2.05 9.785c-.488-.41-.781-.859-1.074-.859s-.859.488-.82.684c.058.351.41.8.742.898.234.078.605-.371 1.152-.723z" fill="#1a6ffc"/><path d="M125.996 46.407c-.41-.625-.879-1.113-1.406-1.484-.352-.664-.84-1.289-1.446-1.738a5.99 5.99 0 0 0-.136-2.695c-.352-1.25-1.094-2.48-1.661-3.652s-1.054-2.48-2.011-3.398c-2.598-2.461-6.114-1.699-9.278-.996-2.129.469-4.199 1.133-6.25 1.836L90.703 38.77c-17.031 5.84-34.121 11.582-50.742 18.574l-7.031 3.008c-1.016.449-1.914 1.836-2.207 2.852-.312 1.152-.176 2.676.488 3.691.449.684 1.016 1.309 1.738 1.738-.039.254-.059.527-.059.801 0 3.359 1.523 6.973 4.434 8.789.059.234.137.449.215.664.879 2.07 2.695 2.422 4.961 1.641 4.297-1.484 9.082-2.285 13.125-4.356l3.086-1.25c5.02-2.012 10.078-3.926 15.137-5.801 9.57-3.574 19.141-7.148 28.555-11.133l6.738-2.09c.118 0 .215-.019.332-.019 1.485-.117 2.696-1.055 4.18-1.211 3.652-.371 6.094-1.172 9.453-2.695 2.285-1.055 4.18-3.555 2.891-5.566z" fill="#fff"/><path d="M40.957 92.872c-.293-.898.176-1.367.977-1.699l8.047-3.399c5.449-2.383 11.172-3.906 16.855-5.527l19.473-5.586c6.777-2.148 13.418-4.746 20.175-6.973 4.356-1.445 8.809-2.598 13.204-3.867l9.218-2.598c.645-.176 1.231-.273 1.446.605.039.137.175.332.293.352 1.015.098.976.898 1.23 1.602.723 2.148 1.563 4.258 2.305 6.387l3.457 10.195c.254.723.215 1.172-.645 1.758-3.047 2.07-6.347 3.633-9.668 5.117-2.226.996-4.609 1.68-6.894 2.617l-9.18 3.945-17.012 6.778c-2.266.917-4.473 2.05-6.738 2.988-2.305.957-4.668 1.738-6.953 2.715-6.836 2.949-13.906 5.156-20.996 7.363l-8.34 2.539c-.723.215-1.406.586-2.148.762-.293.058-.859-.157-.977-.41-.937-1.915-1.797-3.868-2.656-5.821l-3.594-8.242c-.781-1.934-1.406-3.945-2.109-5.918-.43-1.25-.781-2.539-1.289-3.75-.352-.859-.117-1.289.703-1.523.547-.156 1.133-.254 1.816-.41zm87.441-25.762l-7.343 2.051-13.672 3.945c-2.5.781-4.883 1.895-7.363 2.734l-12.754 4.219c-3.594 1.113-7.227 2.09-10.859 3.125l-8.535 2.441c-2.637.762-5.332 1.367-7.91 2.285-4.434 1.582-8.809 3.32-13.203 5.039-1.504.586-2.949 1.289-4.414 1.914 1.777 7.05 5.215 13.32 7.754 19.882l12.871-3.906a307.52 307.52 0 0 0 13.711-4.883c3.809-1.445 7.539-3.105 11.309-4.648l14.297-5.84 13.301-5.449c2.637-1.074 5.352-1.973 7.93-3.145 3.3-1.484 6.523-3.164 9.765-4.785.215-.098.41-.547.371-.781a10.53 10.53 0 0 0-.547-1.855L128.4 67.109zm-9.668-30.899l-1.23-2.637c-.195-.508-.469-.605-.957-.488-3.379.703-6.778 1.289-10.137 2.129-2.305.586-4.531 1.484-6.777 2.285-3.75 1.328-7.5 2.578-11.191 4.043-4.863 1.914-9.648 4.043-14.512 5.977-3.457 1.367-6.953 2.617-10.449 3.848L50.079 55.88l-12.852 4.317c-2.031.703-4.023 1.562-6.055 2.363l6.25 12.285 2.852 5.547c.352.684.391 1.172-.449 1.641-1.328.742-2.324.664-3.008-.625l-6.289-12.344-2.754-5.254c-.645-1.23-.508-1.582.82-2.07.449-.176.938-.254 1.387-.371.02-.078.059-.156.059-.195-.234-1.914-.215-1.934 1.563-2.578l10.098-3.73 21.602-7.207c4.609-1.621 9.121-3.516 13.652-5.312l12.988-5.176c4.688-1.758 9.395-3.496 14.199-4.941 3.497-1.055 7.129-1.602 10.684-2.383l2.363-.527c1.446-.332 2.305.078 2.95 1.426l1.738 3.691c-1.133.332-2.149.898-2.969 1.758-.019.02-.117.02-.176.02z" fill="#040404"/><path d="M94.336 135.937c-.312.157-.645.274-.918.469-.664.449-1.289.41-1.855-.137-.547-.546-.449-1.171-.02-1.757 1.582-2.168 3.574-3.848 6.016-4.981l.918-.41-.059-.273-4.082.546c-2.598.508-4.082-.527-4.102-3.183-.019-1.504.195-3.047.566-4.492.332-1.289 1.367-2.032 2.715-2.383l5.879-1.719c3.203-.84 6.386-.684 9.609.039l9.238 1.641c-.332-3.067.45-4.297 3.457-5.215 1.661-.508 3.34-1.074 5.059-1.348 1.856-.293 2.734.352 3.535 2.051l2.188 4.512c.781 1.367 1.836 2.597 2.597 3.984l3.809 7.227c.605 1.132 1.406 2.168 2.051 3.281.176.312.176.723.254 1.094-.352-.078-.801-.059-1.075-.254-2.363-1.739-3.359-4.492-4.96-6.797l-3.848-5.234c-1.231-1.055-1.875-2.403-2.383-3.926-.312-.918-.996-1.739-1.582-2.539-.137-.176-.645-.196-.937-.098l-3.594 1.172c-1.426.469-1.699 1.406-.801 2.656.332.469.508 1.055.801 1.563.136.234.332.488.547.625l4.531 2.851c.469.274.859.567.605 1.133-.312.645-.859.43-1.328.195l-5.429-2.832-1.329-.605-7.187-1.406-7.442-.957c-1.679-.586-3.339.039-4.941.312-1.953.332-3.789 1.231-5.723 1.68-1.133.254-1.484.84-1.465 1.855v1.778c3.457-.586 6.894-.45 10.312.019.938.137 1.895.449 2.774.82.957.391 1.425 1.309 1.269 2.09-.176.899-1.016 1.446-2.051 1.641-1.328.234-2.636.644-3.945.957-2.168.469-4.258 1.113-5.82 2.812l-.762.782c-.234.214-.469.41-.684.625l.02-.02c-.176 0-.312.078-.43.156z" fill="#020404"/><path d="M167.226 128.827c.43.196.918.352 1.309.625.293.235.469.625.703.957-.391.117-.781.371-1.152.332-.664-.078-1.309-.39-1.973-.527-.352-.078-.781-.078-1.113.039l-10.547 3.652-8.731 3.555c-.293.117-.722-.039-1.074-.078.215-.313.352-.781.645-.899 3.886-1.757 7.715-3.671 11.855-4.882 1.836-.547 3.574-1.465 5.567-2.305l-13.985-6.68c-1.504-.742-2.949-1.621-4.355-2.519-.899-.567-1.035-2.11-.098-2.813 1.211-.879 1.543-2.187 2.168-3.379.684-1.328 1.543-2.304 3.203-2.304-1.387-.821-2.89-1.016-4.414-1.27-2.656-.449-5.234.059-7.812.547-1.661.313-2.422-.117-3.262-1.582-.918-1.621-.762-3.281-.488-5 .058-.449.175-.898.195-1.328.059-1.348.762-2.324 2.109-2.539 3.828-.645 7.598-1.719 11.504-1.895 2.09-.098 4.043.371 5.957 1.191.391.176.86.254 1.289.254 1.016 0 1.68.507 1.739 1.425.078.977-.567 1.875-1.504 1.914-.625.039-1.348-.019-1.875-.312-2.637-1.387-5.391-1.504-8.243-.957l-7.246 1.308c-.214.04-.468.313-.527.528-.137.39-.137.82-.195 1.25-.059.547-.137 1.074-.157 1.621-.019.762.333 1.074 1.094.801 3.184-.762 6.387-.723 9.571-.137 2.285.43 4.414 1.23 6.191 2.832 1.152 1.035 2.5 1.875 3.711 2.832.586.469 1.133.977 1.582 1.563.586.742.684 1.601.117 2.441-.566.801-1.348.84-2.168.527l-5.859-2.324c-1.25-.527-1.309-.566-1.895.664-.39.84-.742 1.699-1.152 2.637.371.234.723.488 1.133.703l4.375 2.305 10.429 5.82c1.055.566 2.246.937 3.379 1.406z" fill="#030404"/><path d="M42.09 79.043c.293-.293.566-.742.957-.879l6.523-2.461 14.18-5 13.945-5.02 9.063-3.184c4.258-1.426 8.242-3.437 12.207-5.488 3.945-2.031 8.183-3.183 12.402-4.433l7.52-2.285c.586-.176 1.211-.215 1.816-.332 1.192-.234 1.543-.02 1.914 1.172.039.156.059.313.078.488.313 1.367.098 1.582-1.25 1.914-2.5.605-4.98 1.309-7.441 2.012-2.109.605-4.258 1.133-6.289 1.914-3.067 1.152-6.074 2.461-9.102 3.77s-5.977 2.773-9.023 3.984c-4.433 1.777-8.926 3.398-13.418 5.059l-6.934 2.422-13.34 4.668-8.809 2.949c-.976.332-1.914.801-2.812 1.27-.762.41-1.23.215-1.504-.566-.234-.605-.43-1.191-.684-1.973z" fill="#040404"/><path d="M46.484 69.122c-.742.625-1.328 1.289-2.051 1.641-.937.469-2.168-.078-2.852-1.055-.351-.508-.566-1.113-.957-1.582-.684-.82-.312-1.289.43-1.66.859-.449 1.738-.937 2.617-.312.742-.762 1.348-1.895 2.227-2.129.683-.195 1.66.723 2.52 1.152l.098.508.762-1.094c.527-.723 1.348-.781 2.129-.957.762-.176 1.543-.352 2.266-.664.566-.234 1.035-.664 1.543-1.035 1.289-.918 2.637-1.465 4.277-1.68 1.895-.234 3.75-.957 5.566-1.641 1.934-.723 2.773-1.23 2.871 1.719.02.664-.098.957-.723 1.25-2.578 1.172-5.195 2.109-8.066 2.344-.781.059-1.484.82-2.266 1.23-1.367.723-2.715 1.543-4.16 2.031-.781.254-1.426.508-2.051 1.055-1.211 1.094-2.578 1.758-4.18.879z" fill="#1d71fe"/><path d="M115 156.523l-6.152-1.582-3.203 2.735c-1.114.839-2.364 1.015-3.653.351l-2.949-1.484c-.234-.117-.488-.156-.723-.274l-1.055-.644.742-1.133c.078-.117.273-.156.43-.215l4.219 1.231c.645.215 1.172.293 1.641-.313l1.68-1.504-1.036-1.504c-.429-.644-.429-1.308.039-1.894.489-.625 1.133-.86 1.895-.508.234.117.508.176.703.332 2.266 1.875 5.156 2.129 7.813 3.008 3.671 1.211 7.304 2.578 10.937 3.926.762.293 1.133.976.996 1.816-.136.801-.918 1.367-1.797 1.309-.41-.02-.82-.157-1.211-.313l-6.132-2.422c-1.036-.39-2.129-.625-3.184-.918z" fill="#030404"/><path d="M170.215 92.481c1.602.742 3.242 1.23 4.531 2.207s2.246 2.402 3.34 3.633c2.734 3.047 3.223 6.993 4.297 10.703.566 1.915 1.719 3.457 2.969 4.961.371.45.8.86 1.035 1.368.371.761.058 1.621-.664 2.011-.742.41-1.563.45-2.129-.234-.977-1.152-1.895-2.383-2.793-3.613-1.875-2.559-2.031-5.703-2.91-8.594-1.133-3.731-3.203-6.816-6.309-9.18-.664-.508-1.445-.859-2.09-1.367-.254-.195-.507-.723-.39-.937.175-.352.644-.566 1.113-.957z" fill="#040404"/><path d="M118.731 36.211c.058-.02.136 0 .175-.039.821-.859 1.836-1.426 2.969-1.758.625-.156 1.211-.195 1.66.391.469.625.176 1.211-.156 1.777l-.391.664-2.656 2.949-3.691 4.004c-.508.527-1.074 1.055-1.68 1.465-1.25.859-1.973.82-3.183-.098l-5.625-4.453c-.352-.293-.625-1.016-.508-1.406.117-.371.761-.684 1.25-.82 1.113-.332 2.07.078 2.988.742l2.363 1.543 6.485-4.961z" fill="#1d71fd"/><path d="M90.938 48.712l5.352-1.25 4.394-1.172c1.094-.312 1.797.156 1.855 1.328.02.352.079.723.02 1.074-.059.293-.195.703-.41.801-1.133.469-2.266.938-3.457 1.23l-6.152 1.328c-.137.02-.273.098-.371.078-1.738-.391-2.715.449-3.32 1.973-.273.664-.645.996-1.562.82-.82-.156-1.777.215-2.656.41-2.461.527-2.539-.742-2.187-2.637.098-.508.43-.879 1.094-.898.801-.02 1.602-.176 2.402-.352.254-.059.508-.352.684-.605 1.406-2.227 1.641-2.383 4.316-2.129z" fill="#1e71fe"/><path d="M120.332 40.195l2.656-2.949c1.641 3.535 2.735 7.246 3.516 11.055.254 1.289-.293 1.855-1.641 1.914-.371.02-.742.156-1.152.234-.625-.391-.684-1.055-.84-1.758-.625-2.5-1.406-4.961-2.129-7.441-.117-.352-.273-.703-.41-1.055z" fill="#050506"/><path d="M179.199 71.406c.41.41.899.703 1.094 1.133.293.664.039 1.406-.606 1.66-2.832 1.152-4.804 3.496-7.285 5.156-1.015.684-1.914 1.543-2.91 2.285-.469.352-1.015.391-1.289-.234-.098-.215.02-.683.215-.859l8.926-8.125c.429-.41 1.093-.625 1.855-1.016zM20.078 120.664c.176.117.625.332.957.645.547.527.977 1.211 1.582 1.699l6.816 5.351c.41.313.84.645 1.133 1.055.176.254.234.801.078.996-.176.195-.781.293-.996.156L19.59 123.75c-.43-.293-.801-.781-1.016-1.27-.43-.898.215-1.796 1.504-1.816z" fill="#070707"/><path d="M29.707 140.195c-3.691-.371-7.012-1.328-10.293-2.441-.312-.098-.605-.254-.879-.411-.859-.488-1.191-1.25-.84-1.914.352-.644 1.055-.781 1.973-.351 3.203 1.504 6.523 2.676 10.059 3.125.586.078 1.23.254 1.055.937-.098.43-.684.723-1.074 1.055z" fill="#080808"/><path d="M166.836 68.828c-.097.195-.215.606-.468.918-2.207 2.754-4.122 5.664-5.372 8.984-.214.586-.468 1.172-1.23.938-.82-.254-.645-.937-.449-1.562 1.054-3.477 2.754-6.641 4.824-9.609.293-.41.801-.781 1.289-.937.723-.234 1.367.313 1.406 1.269z" fill="#070707"/><path d="M97.285 150.587l-.527.527c-.488.488-1.055.645-1.66.215-.586-.41-.781-1.016-.43-1.602.488-.8 1.074-1.504 1.641-2.265l4.922-3.262c.976-.566 2.148-.84 3.261-1.113.293-.078.899.293.997.586.195.586-.274.82-.84.879-.254.019-.547.078-.723.234l-5.918 4.648-.723 1.153zm-1.758-8.321c-.156.137-.332.254-.469.41-.586.742-1.27.938-1.914.488-.762-.507-.781-1.25-.391-1.953.254-.449.703-.801 1.074-1.191 1.231-.625 2.441-1.367 3.731-1.836 1.875-.684 3.828-1.192 5.762-1.719.215-.058.527.215.801.352-.156.254-.254.664-.449.722-3.086.996-5.547 2.969-8.145 4.727z" fill="#050606"/><path d="M22.519 150.507h-.879c-.762-.039-1.387-.293-1.602-1.133-.195-.8.215-1.308.781-1.738.645-.508 1.172-.254 1.836.156.547.332 1.348.391 2.031.391l3.984-.117c.234 0 .488-.117.664-.02.352.176.664.469.996.703-.274.313-.488.821-.801.879l-4.687.742c-.762.098-1.543.118-2.324.176v-.039z" fill="#080808"/><path d="M152.461 66.406c.605.664 1.211 1.074 1.406 1.621.137.41-.195 1.035-.41 1.523-.137.332-.528.586-.606.918l-1.25 5.176c-.058.215-.039.508-.176.645-.273.273-.625.605-.937.605-.234 0-.664-.547-.645-.801l1.192-8.34c.097-.449.801-.781 1.426-1.348z" fill="#090909"/><path d="M77.891 56.367c.352.879-.234 1.231-.957 1.484l-2.93.996c-1.094.234-1.328-.02-1.387-1.113-.02-.254-.02-.527-.117-.742-.195-.371-.742-.684-.254-1.172l1.992-1.914c.918.762 1.973.273 2.969.391.332.039.567.938.801 1.465.039.117-.078.352-.117.605z" fill="#1e71fe"/><path d="M156.036 95.41c.761.215 1.562.352 2.285.664 1.074.469 2.09 1.035 3.105 1.582 1.035.547 1.328 1.348.86 2.129s-1.27.899-2.266.313l-5.664-3.36c-.176-.117-.371-.41-.352-.605.039-.195.313-.41.528-.469.468-.117.957-.117 1.445-.176.019 0 .039-.039.059-.078z" fill="#080808"/><path d="M162.793 93.301c.762.332 1.446.527 1.992.898l3.536 2.578c.82.664.898 1.582.293 2.207-.586.605-1.329.547-2.149-.137l-4.16-3.359c-.352-.293-.586-.937-.547-1.367.039-.312.664-.547 1.035-.82z" fill="#050506"/><path d="M93.613 124.219c0-1.015.332-1.601 1.465-1.855 1.934-.45 3.789-1.348 5.723-1.68 1.601-.273 3.262-.898 4.941-.313l-3.457 1.114c-1.328.371-2.676.801-4.043.976-1.68.254-3.144 1.035-4.629 1.758z" fill="#1f75f3"/><path d="M33.301 117.54c-.449.254-.859.684-1.328.723-.723.078-1.934-1.192-1.855-1.817.078-.683.469-1.055 1.172-1.015.723.039 1.895 1.25 2.012 2.109z" fill="#0e0e0e"/><path d="M113.203 121.328l7.188 1.406c-.957.899-2.168.684-3.164.391-1.407-.43-2.696-1.191-4.024-1.797z" fill="#2075f0"/><path d="M181.934 84.082c.293.43.722.84.82 1.309.137.645-1.367 1.855-2.051 1.738-.664-.098-1.054-.508-.976-1.211.039-.606 1.367-1.699 2.207-1.836z" fill="#0c0c0c"/><path d="M104.277 155.176c-.449.605-.996.527-1.64.312l-4.219-1.23.586-.313 5.273 1.231zm-8.144-20.84c1.582-1.699 3.652-2.344 5.82-2.813l-5.82 2.813z" fill="#277ee4"/><path d="M137.773 107.539c-.761.254-1.113-.059-1.094-.801.02-.547.098-1.074.157-1.621 1.015.547.918 1.504.937 2.422z" fill="#2678eb"/><path d="M97.266 150.605l.723-1.152-.723 1.152zm-2.93-14.667l.391-.235-.391.235z" fill="#1a6ffc"/><path d="M54.981 141.387c.273.097.566.156.801.293l8.711 4.746 7.129 3.535c1.875 1.074 3.887 1.875 5.84 2.812.43.215.918.43 1.231.762 1.387 1.445 3.184 2.207 4.883 3.145l6.602 3.672c.273.136.742.097 1.055-.02l5.449-2.344c.352-.156.664-.39 1.016-.527.391-.156.82-.352 1.211-.313.215.02.567.586.488.801-.137.41-.43.918-.801 1.055l-4.941 1.797-2.969 1.191c-.156.059-.293.352-.312.547l-.195 1.836c-.039.254-.371.684-.449.664-.312-.078-.801-.293-.84-.527-.117-.625-.078-1.289 0-1.934.059-.547-.02-.84-.586-1.113l-8.574-4.297c-.176-.078-.352-.176-.508-.273l-5.84-3.829c-.293-.195-.606-.41-.957-.488-1.621-.332-2.852-1.348-4.199-2.187-1.211-.743-2.539-1.289-3.75-2.032l-6.699-4.355-2.383-1.699c-.234-.176-.41-.41-.605-.625.078-.137.137-.215.195-.293z" fill="#020606"/><path d="M60.625 139.532c-.215-.156-.566-.293-.684-.547-.117-.234-.098-.664.059-.859.234-.313.586-.606.957-.762l3.379-1.152c.273-.078.742.078.918.293s.254.742.117.957c-.254.39-.645.762-1.055.918-1.172.449-2.402.762-3.691 1.152zm-2.285-2.657c-.137-.117-.43-.254-.469-.449-.059-.234.02-.664.176-.762l3.516-1.797c.195-.078.899.43.879.606-.059.449-.273 1.035-.625 1.23-.723.391-1.582.547-2.363.821l-1.113.351z" fill="#020707"/><path d="M65.606 138.555c1.055.058 1.465.8 1.055 1.425-.644.957-1.641 1.348-2.734 1.407-.605.039-1.113-.782-.723-1.133.781-.703 1.719-1.231 2.402-1.699z" fill="#020606"/><path d="M76.876 142.969a1.28 1.28 0 0 1-1.289-1.309c.02-.703.898-1.582 1.602-1.582.644 0 1.309.684 1.289 1.348-.02.82-.781 1.543-1.602 1.543zm10.136.625c-.254-.371-.684-.723-.742-1.113-.117-.86.723-2.032 1.289-1.856.371.098.84.547.898.918.176.879-.547 1.875-1.445 2.051z" fill="#030808"/><path d="M146.816 124.159c.274.41.743.82.782 1.25.058.586-.43 1.113-1.055.938-.391-.118-.898-.645-.898-.977 0-.41.507-.801.781-1.211a1.34 1.34 0 0 1 .39 0zm-63.261 14.962c-.391.293-.801.86-1.152.801-.391-.058-.937-.586-1.035-.996-.059-.254.566-.918.918-.957.391-.039.82.43 1.25.684.019.156.019.312.019.468z" fill="#040c0d"/><path d="M84.16 143.516c-.371.273-.723.722-1.113.781-.605.078-1.055-.352-1.035-1.016.02-.605.371-.937 1.016-.937.625 0 .918.371 1.133 1.172z" fill="#030808"/><path d="M142.461 124.531c.332.567.703.918.664 1.192-.059.293-.508.507-.782.761-.253-.293-.683-.566-.703-.859-.019-.273.41-.586.821-1.094z" fill="#061417"/><path d="M144.512 134.316c-.528.352-.918.782-1.153.723-.332-.098-.683-.547-.742-.898-.039-.196.528-.684.82-.684.274.02.567.449 1.075.859z" fill="#040c0d"/><path d="M128.398 67.109l4.766 12.383c.234.606.449 1.231.547 1.856.039.234-.156.683-.371.781-3.242 1.621-6.465 3.301-9.766 4.785-2.597 1.172-5.293 2.07-7.929 3.144l-13.301 5.449-14.297 5.84-11.309 4.648c-4.531 1.719-9.102 3.359-13.711 4.883-4.199 1.387-8.457 2.578-12.871 3.906-2.578-6.582-6.016-12.832-7.793-19.883 1.445-.644 2.91-1.328 4.414-1.914l13.203-5.039c2.578-.918 5.273-1.523 7.91-2.285l8.535-2.441 10.859-3.125c4.277-1.328 8.516-2.773 12.754-4.219 2.481-.859 4.863-1.973 7.363-2.734 4.532-1.406 9.102-2.656 13.672-3.945l7.324-2.09zm-72.773 41.348c-.059-.059-.098-.137-.156-.195-.078-.274-.098-.586-.215-.84l-3.887-9.043c-.059-.156-.137-.293-.234-.43-.547-.898-1.426-1.23-2.227-.859-.859.391-1.191 1.309-.762 2.324l3.652 8.613c.195.469.43 1.055.82 1.289.488.313 1.231.547 1.738.411.508-.157.859-.84 1.27-1.27z" fill="#fdfdfd"/><path d="M55.625 108.456c-.41.449-.762 1.133-1.25 1.27-.508.156-1.25-.098-1.738-.41-.391-.254-.605-.821-.82-1.29l-3.652-8.613c-.43-1.016-.098-1.934.762-2.324.801-.371 1.68-.039 2.227.859l.234.43 3.887 9.043c.117.273.156.566.215.84.02.058.078.117.137.195z" fill="#0a0808"/></svg>