<svg xmlns="http://www.w3.org/2000/svg" width="52" height="64" fill="none"><g clip-path="url(#A)"><path d="M49.468 7.546c-.038.422-.271 1.04-.288 1.482-.019.484.183 1.151.208 1.655.132 2.57-.492 5.035-.399 7.625l.159 8.171c-.132 6.035-.279 12.133-.156 18.145l.076 6.156c.032 1.609.493 6.881-.396 8.017-.06.077-.195.098-.241.172-.124.203-.075.47-.313.739-1 1.134-2.338.918-3.612 1.033-2.032.184-3.47.349-5.561.34l-8.571-.109c-5.096-.078-10.152-.029-15.242.089-3.362.079-7.122-.141-10.444-.559-1.786-.225-2.705-1.135-3.395-2.758-.64-1.505-.95-2.72-1.052-4.347-.268-4.294-.296-8.641-.161-12.946.151-4.819.855-9.626.96-14.443.098-4.506-.617-9.06-.715-13.584C.29 10.83.542 9.732.642 8.224c.129-1.94-.551-2.962.34-4.9C2.238.588 4.385.118 7.186 0 17.341.291 27.543.06 37.68.318c2.137.054 4.041.385 6.111.557 1.813.151 4.746-.628 5.257 1.809.334 1.591.567 3.214.418 4.861h.001zm-34.956.892c-.437.081-.749.486-1.05.774-.046 0-.381-.437-.54-.498-.175-.067-.285.038-.397.01-.102-.026-.16-.174-.271-.21-.421-.136-.988.229-1.254.539-.139-.077-.195-.336-.33-.383-.499-.171-2.286.341-2.252.972.01.168.804 1.636.954 1.833.262.345.601.603 1.015.731.863.267 1.186.121 1.802-.518.656.567 1.671.699 2.371.133.174-.141.26-.442.491-.465.827.303 2.005.531 2.853.236.221-.077.402-.25.622-.33.593-.215 2.833-.037 3.648-.083.226-.013 1.018-.143 1.077-.353a17.63 17.63 0 0 0 .162-1.395 13.61 13.61 0 0 0-.311-.727c-.13-.197-.533-.216-.75-.21-.761.021-1.62.206-2.384.168-.697-.035-.922-.212-1.688-.027-.655.159-1.219.696-1.899.438-.2-.075-.406-.326-.601-.431a1.87 1.87 0 0 0-1.268-.203zm3.331 5.569c-1.189-.008-1.937 1.054-3.076.809-.335-.072-.618-.364-.95-.479-.63-.216-1.024-.067-1.628.114-.699.21-1.635.872-2.315.573-.221-.097-.517-.413-.736-.457-.141-.028-.251.056-.356.042-.124-.017-.206-.132-.327-.155-.298-.056-1.177.233-1.339.48-.33.504-.088 2.071.486 2.449.137.034.503-.257.776-.229.149.015.627.362.912.438.401.107.847.086 1.251.172.684-.014 1.96-.869 2.526-.855.21.006.73.37.988.443.653.185 1.708.171 2.357-.029.379-.117 1.02-.653 1.26-.642s.492.412.765.497c.228.072.829.094 1.058.051s.62-.491.96-.55c.399-.068.825.19 1.231.041.049-.413.418-.909.468-1.283.046-.345-.035-1.055-.393-1.185-.75-.273-1.3-.303-2.07-.083-.206.059-.434.277-.591.277-.24 0-.79-.439-1.257-.442h.001zm13.677 2.825c.017-.719.352-1.583-.114-2.219-.094-.128-.265-.192-.416-.219-.86-.153-1.79.075-2.604-.017-.343-.038-.785-.264-1.179-.238-.533.036-.807.683-1.442.715-.853.044-1.596-.779-2.26.037-.287.353-.882 1.706-.394 1.981.218.123 1.709.478 2.022.518 1.581.204 2.519-.772 4.048-.389l2.337-.17h0zm.426 6.094c-.085-.091-.096-.292-.216-.38-.287-.211-.938.002-1.273.01l-7.864.075c-.42.08-.498 1.128-.434 1.467.051.27.206.263.43.284 1.368.135 2.85-.062 4.214-.083 1.532-.024 3.258.091 4.755-.09.325-.039.372-.24.68-.269.13-.143.318-.596.206-.756-.136-.106-.383-.136-.497-.259v.001zm-12.109-.191c-1.459.074-2.923.26-4.387.297-2.247.056-4.503-.051-6.75-.002-.457.088-.799 1.715-.085 1.748 3.887-.136 7.992.264 11.828-.326.495-.076.432-.797.341-1.204-.137-.614-.452-.539-.948-.514h.001zm-.599 6.944c.152.152 2.121.118 2.485.102 1.415-.067 3-.275 4.444-.399.337-.029.683.031 1.021-.011.334-.468.46-1.648-.306-1.738-.603-.071-1.805.041-2.462.082-1.635.102-3.259.418-4.907.315-.301.274-.545 1.381-.275 1.65h.001zm9.683-1.949c-.238.368-.499 1.257-.18 1.616.247.277 1.053.04 1.391.032 2.779-.064 5.563.064 8.341.004.113 0 .136-.048.182-.136.207-.395.271-1.632-.42-1.613-3.104.047-6.22-.1-9.314.098h.001zm-10.986 1.875c.09-.151-.245-1.289-.416-1.422-.272-.212-1.934.136-2.392.01-1.956-.022-4.264-.395-6.187 0-.491.101-.562 1.337-.283 1.708.253.167 1.42-.102 1.79-.121 2.04-.102 4.344.308 6.354.161.402-.029.802-.104 1.135-.335v-.001zm5.077 3.208c-.159-.162-1.96-.105-2.327-.101-3.101.033-6.249.186-9.369.086-.462-.015-1.916-.272-2.226-.088s-.692 1.396-.212 1.573c2.777.393 5.667.282 8.474.258l1.505.005c1.354-.017 2.699-.107 4.053-.083.211-.013.352-.833.346-.997a4.51 4.51 0 0 0-.245-.653zm1.924 1.57h3.93a1.19 1.19 0 0 0 .183-.096c.117-.626.38-1.578-.498-1.655-.76-.065-2.273-.075-3.025-.002-.788.076-.745 1.178-.591 1.752v.001zm-15.79 4.674c.229.149 2.205-.206 2.646-.231 1.042-.058 2.135.052 3.182 0l.394.067 2.53-.154c.1-.032.291-.903.272-1.043a2 2 0 0 0-.256-.54c-.283-.313-.622-.078-.955-.07-1.728.041-3.532-.095-5.246-.006-.568.029-1.763.125-2.281.26-.572.148-.499 1.281-.285 1.718l-.001-.001z" fill="#196ffe"/><path d="M4.688 60.503c3.322.418 7.082.638 10.444.559 5.089-.118 10.146-.167 15.242-.089l8.571.109c2.091.009 3.529-.157 5.561-.34 1.273-.115 2.611.101 3.612-1.033-.122.644-.201 2.106-.636 2.58-.372.405-.24.315-.484.707-.265.426-1.752.996-2.255 1-3.309.029-6.383-.141-9.685-.397l-17.468-1.365c-3.602-.186-6.885-.464-10.421-1.154-.804-.157-1.794-.108-2.481-.576l.001-.001z" fill="#020203"/><path d="M48.991 44.624c-.124-6.013.024-12.11.156-18.145.062-2.842-.057-5.352-.159-8.171-.093-2.589.531-5.054.399-7.625-.026-.504-.227-1.172-.208-1.655.017-.441.25-1.059.288-1.482 1.171.227 2 .642 2.19 1.906.213 1.417.309 2.796.103 4.237-.148 1.044-.375 1.559-.391 2.712-.039 2.773-.767 5.116-.853 7.778-.132 4.056-.183 8.119-.889 12.148l-.636 8.296z" fill="#030303"/><path d="M14.511 8.437c.453-.084.869-.011 1.268.203.195.105.401.355.601.431.681.257 1.244-.279 1.899-.438.766-.185.99-.008 1.688.027.764.038 1.624-.147 2.384-.168.217-.006.619.014.749.21.021.033.303.688.311.727a17.18 17.18 0 0 1-.162 1.395c-.059.21-.851.34-1.077.353-.815.047-3.054-.132-3.648.083-.22.08-.4.253-.622.33-.848.296-2.025.067-2.853-.236-.231.023-.317.324-.491.465-.699.567-1.715.434-2.371-.133-.616.639-.938.785-1.802.518-.414-.128-.753-.387-1.015-.731-.15-.197-.945-1.665-.954-1.833-.035-.631 1.753-1.143 2.252-.972.135.046.191.305.33.383.267-.31.833-.675 1.255-.539.11.036.169.183.271.21.111.029.221-.077.397-.01.159.061.494.498.54.498.302-.288.613-.693 1.05-.774z" fill="#fcfdfe"/><path d="M17.842 14.006c.467.003 1.016.443 1.257.442.156 0 .384-.218.591-.277.77-.221 1.32-.191 2.07.083.358.13.438.842.393 1.185-.049.374-.418.869-.468 1.283-.406.148-.831-.11-1.231-.041-.34.059-.738.508-.96.55s-.83.021-1.058-.051c-.272-.085-.53-.485-.765-.497s-.881.525-1.26.642c-.649.2-1.704.214-2.356.029-.258-.073-.778-.438-.988-.443-.566-.015-1.842.842-2.526.855-.404-.085-.85-.064-1.251-.171-.284-.076-.763-.423-.912-.438-.274-.028-.639.264-.776.23-.575-.378-.816-1.945-.486-2.449.161-.246 1.041-.535 1.339-.48.121.022.203.138.327.155.106.014.215-.07.356-.042.22.044.516.36.736.457.68.298 1.617-.363 2.315-.573.604-.182.998-.33 1.628-.114.333.114.615.406.95.479 1.139.245 1.886-.817 3.076-.809l-.001-.001z" fill="#fbfcfe"/><path d="M23.01 32.812a4.42 4.42 0 0 1 .245.653c.006.164-.134.984-.346.997-1.354-.025-2.7.066-4.053.083-.494.006-1.011-.009-1.505-.005-2.808.024-5.697.135-8.474-.258-.48-.177-.095-1.389.212-1.573s1.763.073 2.225.088l9.369-.086c.368-.004 2.168-.06 2.327.101z" fill="#010203"/><path d="M31.519 16.831l-2.337.17c-1.529-.382-2.466.594-4.049.389-.314-.041-1.804-.395-2.022-.518-.489-.276.106-1.628.394-1.981.664-.815 1.407.008 2.26-.037.634-.033.909-.68 1.442-.715.394-.026.836.2 1.179.238.813.09 1.744-.136 2.603.017.151.027.322.091.416.219.467.636.132 1.5.114 2.219v-.001z" fill="#fcfcfe"/><path d="M19.836 22.734c.496-.025.811-.1.948.514.091.407.155 1.128-.341 1.204-3.836.59-7.941.19-11.828.326-.715-.034-.372-1.661.085-1.748 2.248-.049 4.503.058 6.75.002 1.463-.037 2.927-.223 4.387-.297l-.001-.001z" fill="#010203"/><path d="M28.919 27.729c3.094-.198 6.21-.051 9.314-.098.691-.018.627 1.219.42 1.613-.046.088-.068.135-.182.136-2.777.06-5.562-.068-8.341-.004-.338.008-1.144.245-1.391-.032-.32-.359-.058-1.247.18-1.616h-.001z" fill="#010204"/><path d="M31.944 22.925c.113.123.361.153.497.259.112.16-.076.614-.206.756-.307.029-.356.23-.68.269-1.497.18-3.223.066-4.755.09-1.363.021-2.845.218-4.214.083-.224-.022-.379-.015-.43-.284-.064-.339.014-1.387.433-1.467l7.864-.075c.335-.008.986-.221 1.274-.009.12.088.131.289.216.38v-.001zm-14.011 6.679c-.333.231-.732.306-1.135.335-2.01.147-4.314-.264-6.354-.161-.37.018-1.537.288-1.79.122-.279-.37-.207-1.607.283-1.708 1.923-.395 4.232-.021 6.187 0 .458.125 2.12-.223 2.392-.01.172.133.506 1.271.416 1.422v.001z" fill="#010203"/><path d="M9.144 39.056c-.214-.438-.287-1.57.285-1.718.518-.134 1.713-.23 2.281-.26 1.715-.088 3.518.048 5.247.006.333-.008.672-.242.955.07.07.077.243.445.256.54.018.14-.172 1.011-.272 1.043l-2.529.154-.394-.067c-1.048.052-2.141-.058-3.182 0-.441.025-2.417.38-2.646.231l.001.001zm10.092-9.377c-.269-.269-.025-1.376.276-1.65 1.648.103 3.273-.214 4.907-.315l2.462-.082c.766.09.64 1.27.306 1.738-.338.042-.684-.018-1.021.011l-4.444.399c-.364.017-2.333.052-2.485-.102h-.001zm5.698 4.703c-.154-.573-.197-1.675.591-1.751.752-.073 2.266-.064 3.025.002.877.075.615 1.029.498 1.655a1.26 1.26 0 0 1-.183.096h-3.93v-.001z" fill="#010204"/></g><defs><clipPath id="A"><path fill="#fff" d="M0 0h51.874v64H0z"/></clipPath></defs></svg>