<svg width="99" height="28" viewBox="0 0 99 28" fill="none" xmlns="http://www.w3.org/2000/svg"><g clip-path="url(#A)"><path d="M80.851 24.075V7.519h4.798l.189 4.053-1.262.343c.273-.832.747-1.601 1.42-2.307.694-.728 1.536-1.31 2.525-1.746 1.01-.457 2.115-.686 3.314-.686 1.515 0 2.777.291 3.787.873a5.65 5.65 0 0 1 2.336 2.463c.547 1.039.821 2.245.821 3.617v9.946h-5.05v-9.136c0-.727-.158-1.361-.474-1.902-.295-.54-.726-.956-1.294-1.247-.547-.291-1.189-.426-1.925-.405-.631 0-1.2.114-1.704.343-.505.208-.947.489-1.326.842-.358.353-.631.738-.821 1.154a3.3 3.3 0 0 0-.252 1.247v9.104h-2.525-1.736-.821zm-8.323.002V7.52h5.082v16.556h-5.082zm2.525-18.932c-.947 0-1.683-.218-2.209-.655-.526-.457-.789-1.102-.789-1.933 0-.748.263-1.361.789-1.84S74.106 0 75.053 0s1.683.229 2.209.686c.547.437.821 1.06.821 1.871 0 .769-.274 1.393-.821 1.871s-1.283.717-2.209.717zM58.088 24.356c-1.725 0-3.24-.364-4.545-1.091a8.1 8.1 0 0 1-3.062-3.055c-.736-1.289-1.105-2.754-1.105-4.396 0-1.684.368-3.17 1.105-4.459a8.04 8.04 0 0 1 3.093-3.056c1.326-.748 2.872-1.122 4.64-1.122.989 0 1.904.125 2.746.374s1.589.582 2.241.998c.652.395 1.178.842 1.578 1.341.421.499.684.998.789 1.497l-1.168.062v-3.93h5.018v16.556h-5.113v-4.334l1.073.218c-.084.541-.337 1.071-.757 1.59s-.957.998-1.61 1.434c-.652.416-1.399.748-2.241.998s-1.736.374-2.683.374zm1.326-4.209c1.052 0 1.946-.177 2.683-.53.758-.374 1.336-.883 1.736-1.528.421-.665.631-1.424.631-2.276 0-.894-.21-1.663-.631-2.307-.4-.644-.978-1.154-1.736-1.528-.736-.374-1.631-.561-2.683-.561-1.01 0-1.894.187-2.651.561-.736.374-1.315.883-1.736 1.528s-.631 1.413-.631 2.307c0 .852.21 1.611.631 2.276.421.644 1 1.154 1.736 1.528.757.353 1.641.53 2.651.53z" fill="#000"/><path d="M0 15.822l.067-2.666C.625 8.257 4.568 4.39 9.564 3.843c.595-.065 1.303-.065 2.719-.065h6.545v24.088h-6.545c-1.416 0-2.123 0-2.719-.065-4.996-.547-8.94-4.414-9.498-9.313C0 17.904 0 17.21 0 15.822zM20.442 3.777h.717c6.025 0 9.038 0 11.34 1.15a10.66 10.66 0 0 1 4.702 4.61c1.173 2.257 1.173 5.211 1.173 11.119v7.209H20.442V3.777z" fill="#ff3b3b"/></g><defs><clipPath id="A"><path fill="#fff" d="M0 0h98.875v28H0z"/></clipPath></defs></svg>