<svg xmlns="http://www.w3.org/2000/svg" width="200" height="212" viewBox="0 0 200 212" fill="none"><g clip-path="url(#A)"><path d="M145.907 28.162c5.59-.258 9.278 3.194 10.946 7.916l23.793 66.918c.658 1.879 1.033 3.758.798 5.731-.822 4.04-3.147 6.788-7.069 8.197L65.226 155.749c-5.943 2.114-11.392-.517-13.506-6.507L32.484 95.173 26.8 78.685c-.282-3.5.846-6.436 3.359-8.878l1.879-1.433c.728-.235 1.48-.446 2.208-.705l109.807-39.107 1.855-.376v-.024zM74.504 70.675c.705.399 1.48.728 2.114 1.221.916.728 1.691.611 2.678-.07-.963-.587-1.808-1.151-2.701-1.597-.658-.329-.799-.705-.517-1.386.352-.916.587-1.856.916-2.912-2.607.329-1.762 2.795-2.912 3.993l-1.738-4.791-1.315.517 2.889 8.197c.517-.164.892-.305 1.268-.446l-.658-2.748-.023.023zM56.183 89.019c-.094.07-.188.117-.282.188-.164.023-.305.023-.47.07l-13.2 4.768c-.869.329-1.221 1.01-.869 1.95l4.58 12.801c.446 1.245.893 1.433 2.114 1.01l12.096-4.369c2.161-.775 2.278-.516 1.433-2.889l-4.439-12.237c-.188-.493-.634-.893-.963-1.315v.023zm-7.916 25.978c.165.517.235.775.329 1.01l1.715 4.839 2.819 7.798c.282.751.587 1.456 1.691 1.056l13.482-4.838c.869-.305 1.033-.846.752-1.621-.305-.798-.587-1.597-.869-2.419l-3.876-10.757c-.282-.799-.728-1.363-1.644-1.034l-13.365 4.862c-.446.165-.752.775-1.034 1.081v.023zm7.046 19.8l1.574 4.393 3.335 9.254c.376 1.033.986 1.386 2.067.916 1.057-.47 2.184-.799 3.288-1.198l9.748-3.523c.564-.212 1.292-.352.963-1.269l-5.003-13.81c-.282-.799-.799-1.01-1.55-.729l-13.271 4.815c-.47.188-.799.799-1.151 1.175v-.024zM34.058 75.396c.071.423.071.54.117.658l4.886 13.482c.258.705.822.916 1.527.658l13.67-4.932c.611-.211.916-.564.658-1.245l-4.885-13.6c-.352-.963-1.01-1.127-1.832-.822l-12.918 4.674c-.517.188-.892.822-1.198 1.127h-.024zm137.429 29.9l-1.269-3.664c-.07-.188-.117-.375-.211-.54-.799-1.785-2.654-2.067-3.946-.564-.188.235-.352.494-.517.705-1.339-.54-2.419-.376-3.312.728-.07.094-.305.094-.469.118-.376.047-.776.047-1.292.094l2.231 6.247 1.339-.493-1.221-3.5c-.306-.822-.376-1.597.587-1.973 1.01-.399 1.503.259 1.808 1.151l1.269 3.524c.493-.212.892-.353 1.291-.517l-1.315-3.711c-.329-.987.165-1.926.987-1.809.516.071 1.174.611 1.409 1.104.564 1.128.892 2.372 1.339 3.617.493-.188.845-.305 1.315-.47l-.023-.047zM78.99 116.007l-1.221-3.523c-.305-.869-.352-1.691.658-2.02.987-.329 1.409.352 1.715 1.151l1.268 3.57 1.315-.517c-.517-1.48-.963-2.912-1.527-4.275-.705-1.691-2.537-1.949-3.805-.61a5.72 5.72 0 0 0-.517.681c-.869 0-1.715-.235-2.278.047-.869.423-1.621 1.104-2.678 1.08-.023 0-.07.118-.117.235l2.114 5.943c.493-.188.892-.306 1.339-.47l-1.221-3.5c-.282-.798-.399-1.597.564-1.973 1.01-.399 1.503.235 1.808 1.104a129.49 129.49 0 0 0 1.268 3.523l1.315-.446zm63.183-22.314c-.47-1.339-1.01-2.513-1.292-3.758-.118-.493.141-1.245.493-1.597.211-.235 1.033-.094 1.433.164.329.211.493.775.657 1.198.4 1.033.752 2.09 1.151 3.171l1.316-.493c-.541-1.503-1.01-3.006-1.621-4.416-.587-1.339-1.856-1.691-3.124-.916-.493.305-.892.728-1.433 1.174-1.503-.446-2.208-.235-3.147.916-.681.07-1.151.094-1.715.141l2.232 6.248 1.339-.517c-.47-1.362-1.01-2.584-1.316-3.852-.117-.446.165-1.198.517-1.48.282-.235 1.057-.094 1.433.164.329.211.493.775.634 1.198.399 1.034.751 2.09 1.127 3.171l1.316-.493v-.023zm-19.237-37.205l-1.245-3.523c-.305-.822-.376-1.597.587-1.973 1.034-.376 1.504.282 1.809 1.151l1.268 3.523c.493-.211.893-.352 1.292-.54l-1.315-3.711c-.329-.986.164-1.926.986-1.809.517.071 1.175.611 1.41 1.104.563 1.127.892 2.372 1.338 3.641l1.292-.54-1.268-3.641c-.071-.188-.118-.376-.212-.54-.798-1.785-2.654-2.067-3.946-.564-.187.235-.352.493-.516.705-1.339-.54-2.42-.376-3.312.728-.071.094-.305.094-.47.117-.376.047-.775.047-1.292.094l2.208 6.248c.493-.164.869-.305 1.339-.47h.047zm4.651 20.294l-1.245-3.57c-.282-.822-.306-1.597.657-1.95s1.433.282 1.738 1.104l1.292 3.594 1.339-.47c-.54-1.503-.986-2.96-1.574-4.345-.704-1.621-2.489-1.879-3.734-.564-.235.258-.423.54-.634.846-1.316-.517-2.467-.399-3.359.775-.071.094-.258.117-.399.117h-1.339l2.231 6.271c.493-.188.916-.329 1.339-.47l-1.245-3.547c-.305-.822-.329-1.597.634-1.926s1.433.258 1.738 1.081l1.269 3.57 1.315-.47-.023-.047zM91.697 133.2c.446-.07.799-.094 1.127-.164 1.926-.353 2.889-2.044 2.325-4.111-.54-2.02-2.325-3.147-4.04-2.536-.963.352-1.879.869-2.889 1.339l3.1 8.784 1.315-.493-.939-2.842v.023zm-8.925-40.728c-.071-.235-.141-.517-.235-.799L80 84.416c-.493.188-.916.329-1.315.47l.634 2.114c-.611.117-1.151.188-1.668.376-1.644.587-2.302 2.302-1.668 4.181.634 1.903 2.302 2.913 3.969 2.302.963-.352 1.856-.893 2.842-1.386h-.023zm17.451-12.754c-.611.117-1.104.164-1.574.329-1.691.564-2.396 2.208-1.785 4.11.587 1.926 2.255 3.006 3.899 2.443.987-.329 1.926-.893 2.983-1.409l-2.842-8.056-1.315.446.658 2.137h-.024zM88.738 61.656c-.493.094-.916.117-1.315.235-1.785.493-2.56 1.903-2.161 3.805.446 2.043 1.973 3.312 3.711 2.865 1.104-.282 2.137-.916 3.265-1.433l-1.409-3.993-1.456-4.11-1.315.493.658 2.114.023.024zm17.71 63.441c-.61-2.185-1.926-3.124-3.734-2.725-1.691.376-2.725 1.879-2.466 3.57.305 2.138 1.691 3.406 3.57 3.242 1.644-.141 2.842-1.316 2.818-2.772-.704-.211-1.151-.047-1.62.658-.282.446-1.104.704-1.715.704-.423 0-.869-.54-1.48-.986l4.604-1.668.023-.023zM84.604 67.082c-.658-2.184-1.95-3.124-3.735-2.725-1.738.399-2.725 1.903-2.419 3.688.352 2.067 1.715 3.265 3.547 3.124 1.644-.141 2.842-1.339 2.795-2.819-.681-.094-1.174-.07-1.621.705-.235.423-1.104.681-1.691.681-.423 0-.845-.54-1.456-.986l4.604-1.668h-.023zm25.038 34.926l4.322-1.597c-.776-2.255-2.044-3.124-3.805-2.701-1.621.399-2.631 1.855-2.42 3.5.282 2.114 1.597 3.358 3.406 3.311 1.691-.07 2.936-1.197 3.03-2.795-.681-.141-1.151-.164-1.597.635-.681 1.221-2.255 1.009-2.936-.376v.023zM89.066 87.281c-.634-2.184-1.95-3.124-3.735-2.725-1.691.376-2.725 1.879-2.466 3.57.329 2.137 1.691 3.406 3.57 3.241 1.644-.141 2.842-1.315 2.795-2.772-.705-.211-1.151-.047-1.597.658-.282.446-1.127.681-1.715.705-.423 0-.845-.54-1.48-.987l4.604-1.668.023-.023zm7.07-2.349c-.705-2.208-1.926-3.077-3.664-2.725-1.621.305-2.748 1.785-2.584 3.406.211 2.09 1.527 3.429 3.312 3.429 1.738 0 3.03-1.127 3.194-2.772-.658-.141-1.174-.211-1.621.611-.681 1.221-2.231 1.034-2.959-.352l4.345-1.574-.023-.023zm43.664 28.421c-.681-2.208-1.973-3.124-3.758-2.725-1.761.4-2.724 1.95-2.396 3.829.376 2.02 1.833 3.218 3.665 2.983 1.597-.212 2.724-1.386 2.63-3.148-.587.4-1.127.635-1.433 1.034-.869 1.104-2.278 1.033-3.053-.352l4.345-1.574v-.047zm17.452-10.076c-1.879.023-3.288 1.409-3.288 3.217 0 2.02 1.526 3.665 3.311 3.665 1.879 0 3.336-1.386 3.359-3.171 0-2.067-1.503-3.735-3.382-3.711zm-71.333 10.17c1.879 0 3.335-1.433 3.312-3.218 0-2.09-1.527-3.711-3.429-3.688-1.879.047-3.288 1.457-3.241 3.265.047 2.02 1.55 3.641 3.359 3.641zm45.754-23.089c-1.902 0-3.311 1.386-3.311 3.194 0 1.997 1.503 3.688 3.288 3.688 1.926 0 3.429-1.433 3.382-3.265-.047-2.067-1.503-3.641-3.359-3.617zm-14.562-16.676c-1.903 0-3.312 1.386-3.312 3.194 0 1.996 1.503 3.688 3.288 3.688 1.926 0 3.43-1.433 3.383-3.265-.047-2.067-1.503-3.641-3.359-3.617zm-.869-21.609c-1.903 0-3.335 1.292-3.382 3.124-.071 1.973 1.432 3.735 3.217 3.758 1.927.047 3.453-1.362 3.453-3.194 0-2.02-1.456-3.688-3.288-3.711v.023zm9.16 69.172l-1.855-5.308c-.071-.188-.165-.353-.259-.588-.422.165-.798.306-1.268.47l1.198 3.617c.258.869 0 1.574-.846 1.926-.869.353-1.526 0-1.949-.798-.212-.423-.376-.869-.54-1.292-.306-.775-.588-1.574-.893-2.419l-1.339.54c.517 1.409.94 2.771 1.527 4.04.658 1.456 1.902 1.949 3.288 1.339.963-.423 1.879-.94 2.96-1.504l-.024-.023zm-32.766-10.264c-.399-1.151-.799-2.114-1.08-3.124-.141-.541-.258-1.222-.047-1.691.164-.4.846-.846 1.268-.823.47 0 1.151.423 1.362.87.587 1.174.986 2.442 1.503 3.734a24.24 24.24 0 0 0 1.315-.517c-.564-1.479-1.01-2.889-1.621-4.204-.564-1.221-1.691-1.715-2.795-1.268-.728.282-1.362.822-1.856 1.127a40.05 40.05 0 0 1-1.597.165l1.973 5.59c.071.188.164.352.258.61l1.315-.422v-.047zM76.031 95.103l-1.08-3.171c-1.081-2.936-3.241-3.335-5.027-1.245l-1.738.188 2.231 6.248 1.315-.517c-.376-1.057-.752-1.996-1.034-2.983-.141-.517-.329-1.151-.141-1.574.188-.446.775-1.01 1.198-1.034.493 0 1.245.399 1.48.846.611 1.151 1.01 2.443 1.503 3.735l1.292-.493zm18.908-35.702l2.231 6.248a23.26 23.26 0 0 1 1.339-.47l-1.104-3.171c-.258-.799-.399-1.621.423-2.231.846-.611 1.785-.329 2.279.775.516 1.151.939 2.372 1.409 3.617l1.292-.564c-.517-1.409-.94-2.772-1.527-4.04-.799-1.691-2.396-2.067-3.899-.986-.352.258-.634.658-.94.986l-.07-.282c-.423.047-.869.07-1.456.117h.023zM72.296 74.433c-.54-1.456-.94-2.818-1.55-4.063-.846-1.785-2.701-2.09-4.181-.775-.258.211-.446.493-.681.752 0-.094-.047-.164-.047-.258l-1.433.141 2.208 6.248 1.315-.47c-.423-1.315-.94-2.513-1.151-3.758-.094-.517.258-1.292.658-1.668.258-.258 1.104-.211 1.48 0 .423.235.681.822.892 1.315.423.986.752 2.02 1.151 3.077l1.339-.517v-.023zm25.508 32.696c0 .164-.047.352-.07.516.564.869 1.386 1.222 2.373 1.034 1.127-.188 2.231-.564 2.748-1.738.493-1.151-.282-2.373-1.527-2.443-.775-.047-1.574.047-2.349 0-.282 0-.54-.305-.799-.47.188-.258.352-.658.611-.751.376-.141.939-.259 1.222-.094.798.493 1.245.094 1.738-.423-1.315-1.433-3.829-1.175-4.745.423-.705 1.221 0 2.513 1.433 2.56.752.023 1.48-.047 2.231 0 .282 0 .775.329.775.446-.023.329-.234.799-.493.916-.423.188-.963.141-1.456.141-.564 0-1.127-.07-1.691-.117zm14.68 13.998c-.822-1.479-2.913-1.362-4.017-.681-1.432.893-1.855 2.631-1.08 4.369.752 1.644 2.208 2.396 3.805 1.95 1.55-.447 2.349-1.527 2.114-3.336-.587.517-1.128.846-1.456 1.292-.611.869-1.762 1.057-2.537.329s-1.057-2.278-.564-3.03c.517-.775 1.386-.846 2.748-.141.329-.235.658-.493.987-.752zm.446-43.899c-.963-1.292-2.443-1.55-3.875-.775-1.457.799-1.973 2.443-1.316 4.181s2.114 2.607 3.758 2.255c1.551-.352 2.443-1.456 2.349-2.983-.728 0-1.292.094-1.621.963-.305.822-1.503.963-2.231.47-.892-.611-1.315-2.349-.798-3.171s1.432-.892 2.724-.164c.305-.235.658-.493.987-.728l.023-.047zm40.165 29.525c-1.104-1.245-2.584-1.456-3.946-.658-1.433.846-1.903 2.49-1.222 4.204.681 1.692 2.067 2.514 3.688 2.185 1.55-.329 2.419-1.386 2.396-3.007-.705.047-1.292.071-1.621.94-.282.775-1.574 1.127-2.091.54a4.76 4.76 0 0 1-1.15-2.302c-.188-1.174 1.08-2.067 2.113-1.479.846.493 1.245.164 1.809-.423h.024zm-40.4-48.479c-.704.047-1.292.07-1.62.939-.282.775-1.551 1.127-2.091.564-.564-.611-1.01-1.48-1.151-2.302-.188-1.174 1.081-2.067 2.091-1.48.916.517 1.291.117 1.808-.423-1.08-1.221-2.536-1.456-3.922-.658-1.386.822-1.879 2.419-1.269 4.11.611 1.715 1.997 2.584 3.618 2.302 1.597-.258 2.536-1.362 2.536-3.03v-.023zm14.774 35.561c-.822-1.456-2.912-1.292-3.993-.611-1.409.916-1.855 2.654-1.057 4.369.775 1.691 2.302 2.42 3.923 1.879 1.503-.493 2.255-1.55 1.949-3.288-.587.54-1.08.869-1.433 1.315-.516.681-1.597 1.127-2.137.54-.564-.611-1.033-1.48-1.151-2.278-.188-1.174 1.057-2.067 2.091-1.503.822.446 1.268.235 1.808-.423zm-45.566 37.558l-1.597 6.153 5.355-1.902c-.188-.47-.329-.775-.47-1.104l-3.077 1.033 1.574-6.153-5.003 1.761c0 .987.305 1.316 1.198.893.564-.259 1.174-.4 1.997-.681h.023zm46.319-19.777l.423 1.433-.823 1.15 1.457.588.822 2.254c.822 2.255 1.761 2.584 3.969 1.316l-.188-.634c-.869-.212-1.855-.141-2.114-.541-.587-.963-.845-2.114-1.244-3.241l1.738-.681-.329-.987-1.785.517-.705-1.574c-.423.141-.775.235-1.245.376l.024.024zm-24.545-9.677c.329.916.634 2.114 1.221 3.147.306.517 1.104.94 1.738 1.034.564.094 1.222-.306 1.903-.517-.188-.47-.305-.775-.446-1.081-.071.118-.118.212-.188.329-.611-.188-1.551-.188-1.809-.61-.564-.94-.798-2.067-1.198-3.148l1.762-.751c-.141-.353-.235-.635-.352-.963l-1.762.54-.728-1.621a16.05 16.05 0 0 0-1.198.47l.47 1.621c-.353.211-.658.422-1.339.845.751.282 1.174.47 1.902.728l.024-.023zM58.767 69.83l-1.292.611 2.959 8.315 1.315-.493-2.959-8.432h-.023zm59.33 26.635c-.164-.399-.305-.728-.516-1.292l-1.574 1.362-1.762-.07 2.232 6.271c.493-.164.869-.305 1.339-.469l-.916-2.584c-.611-1.738-.447-2.255 1.221-3.241l-.024.023zm21.703 12.848l1.128 3.241 1.104 3.124c.493-.164.892-.305 1.339-.47l-.917-2.607c-.61-1.714-.446-2.184 1.198-3.218-.117-.328-.211-.681-.422-1.268l-1.739 1.409-1.691-.188v-.023zm-24.779 9.56l-1.762-.118 2.231 6.295c.494-.165.893-.329 1.151-.399.094-2.091-2.701-4.158.493-5.896l-.493-1.268-1.62 1.386zm-16.278 12.072l-.869-2.513c-.634-1.832-.517-2.231 1.151-3.312-.117-.328-.235-.681-.423-1.268l-1.691 1.409c-.611-.047-1.057-.094-1.738-.164l2.231 6.318 1.339-.446v-.024zM68.561 97.78l-2.184-6.154c-.517.211-.893.352-1.339.517l2.184 6.107 1.315-.47h.023zm58.814 23.089l1.292-.611-2.137-6.06c-.494.165-.893.329-1.339.494l2.208 6.177h-.024zM95.573 66.307l-2.161-6.13c-.493.188-.893.329-1.362.493l2.208 6.13c.493-.188.822-.305 1.315-.47v-.023zM61.515 71.45l2.184 6.154 1.292-.54-2.161-6.083c-.47.164-.869.305-1.339.493l.023-.023zm25.672 63.465l1.315-.517-2.161-6.13-1.339.493 2.184 6.13v.024zm17.522-71.897a23.55 23.55 0 0 0 1.363-.564l-.564-1.292a36.96 36.96 0 0 0-1.292.517c.188.493.305.869.493 1.339zm2.514 21.092l-.494-1.315c-.469.165-.869.282-1.362.446l.493 1.362 1.363-.493zm40.187 29.595l-.54-1.339-1.315.494.47 1.338 1.385-.493zm-26.987-12.401l1.362-.541-.517-1.315c-.493.188-.869.305-1.315.47l.47 1.362v.024zM91.274 58.438l.493 1.198c.47-.188.846-.352 1.292-.517l-.493-1.151-1.292.47zM62.525 69.971l-.493-1.221-1.268.517c.188.446.305.799.446 1.151.446-.141.799-.282 1.315-.446zm23.018 56.065c-.493.188-.869.353-1.315.541l.446 1.174 1.268-.493-.423-1.222h.023zm38.849-13.576l.493 1.198 1.292-.517-.493-1.15-1.292.469zm-58.32-21.843c-.211-.493-.352-.822-.54-1.198-.446.165-.775.305-1.221.493l.399 1.174c.446-.164.846-.282 1.362-.47z" fill="#fff"/><path d="M131.58 190.699c-.869.822-1.598 1.832-2.608 2.395-1.855 1.034-3.875 1.809-5.825 2.678l-6.764 2.936c-1.809.681-3.758.987-5.567 1.691-2.865 1.128-5.402.376-8.127-.657-4.274-1.621-8.079-4.064-12.002-6.319-4.087-2.348-8.291-4.556-12.425-6.835-1.292-.728-2.537-1.526-3.805-2.302-1.057-.657-1.856-1.432-2.302-2.677-.329-.94-1.174-1.715-1.715-2.584-.775-1.221-1.034-2.607-.869-4.04.141-1.268.258-2.56.517-3.828.305-1.597 1.433-2.584 2.889-3.124l23.629-8.714 11.462-4.087c.305-.094.587-.235.846-.376 4.274-2.537 8.925-4.11 13.693-5.402l16.23-4.486c3.453-1.034 6.835-2.326 10.265-3.524-.071.823-.212 1.621-.188 2.443.07 2.748 1.62 4.087 4.274 3.617 2.208-.399 4.369-.798 6.624-.422 1.456.234 2.96.375 4.228 1.244-1.456 0-2.255.846-2.866 1.973-.634 1.175-.986 2.49-2.161 3.406-.845.658-.704 2.02.141 2.56 1.316.822 2.655 1.645 4.04 2.326l13.177 6.318-4.956 2.114-11.274 4.58c-.305.117-.493.587-.728.893.376 0 .775.14 1.104.023l8.244-3.335c2.772-1.034 5.637-1.832 8.409-2.913 1.362-.54 2.607-.657 3.899-.07.798.352 1.339.141 1.644-.658.188.258.376.54.54.799 0 2.067-1.597 2.912-3.1 3.57-3.782 1.644-7.657 3.077-11.462 4.65-1.715.705-3.406 1.504-5.144 2.279.446.916 1.174 1.996.258 3.006-.376.423-1.292.353-1.973.494-1.855-1.88-3.758-3.712-5.52-5.661-.916-1.01-1.597-2.208-2.442-3.288-2.748-3.524-4.909-7.399-6.694-11.486-.188-.423-.235-.893-.376-1.339l5.379 7.798c.892 1.269 1.949 2.419 2.982 3.594.165.188.588.117.893.164-.047-.305 0-.657-.141-.916-.775-1.386-1.621-2.724-2.396-4.11-.869-1.621-1.55-3.359-2.56-4.886-1.926-2.936-3.57-5.989-5.191-9.089-.751-1.41-1.714-2.067-3.335-1.739-1.668.329-3.335.822-4.956 1.363-2.56.869-3.241 1.996-2.959 4.65 0 .047-.094.118-.094.141-2.608-.446-5.191-.798-7.751-1.362-3.312-.752-6.624-1.081-9.959-.211-1.809.469-3.57 1.103-5.379 1.573-1.339.353-2.396 1.081-2.654 2.373-.306 1.667-.493 3.405-.329 5.073.164 1.715 1.55 2.419 3.288 2.114 1.363-.235 2.725-.399 4.111-.587l.07.305c-.235.117-.446.235-.681.329-2.137.916-3.829 2.396-5.308 4.157-.494.564-.987 1.198-.517 1.997.47.822 1.268.563 1.973.469-.705.635-.611 1.386-.235 2.161l.564 1.128c-.329.305-.752.587-.987.963-.422.634-.469 1.362.188 1.879s1.292.329 1.832-.282c.165-.188.4-.305.611-.47l-.869 2.466 1.55 2.443c-.376.446-.775.869-1.127 1.339-.494.634-.94 1.339-.259 2.09.658.729 1.339.282 1.997-.094-.047 1.245.939 1.832 1.691 2.584-.071.141-.165.282-.235.423-.305.188-.658.305-.893.54-.516.517-.399 1.01.235 1.315 1.151.541 2.373.963 3.5 1.527 1.527.775 2.96.658 4.251-.446.893-.752 1.715-1.574 2.561-2.325l3.476.939c.798.235 1.574.54 2.372.822l.071-.07zm-24.545 4.979c-.024.47-.165 1.128-.094 1.785.047.376.422.681.657 1.034.212-.329.47-.634.588-.987.234-.61.187-1.526.634-1.855.751-.564 1.761-.822 2.654-1.151 1.55-.564 3.1-1.057 4.627-1.691.352-.141.634-.635.799-1.034.07-.164-.259-.681-.447-.704-.376-.047-.775.117-1.151.258-.328.117-.61.352-.916.493l-5.167 2.231c-.258.118-.658.235-.869.118-1.362-.658-2.772-1.268-4.04-2.067-2.49-1.527-4.909-3.171-7.352-4.745a10.95 10.95 0 0 0-.705-.399l-8.503-4.369c-.446-.235-.916-.446-1.362-.681l-10.311-5.261a11.35 11.35 0 0 0-.939-.376l-.211.423c10.17 7.164 21.327 12.636 32.108 18.978zm-26.542-21.139c1.339-.47 2.631-.822 3.805-1.362.329-.165.423-.846.634-1.316-.47-.117-.963-.375-1.409-.305-.822.164-1.644.47-2.419.799a3.85 3.85 0 0 0-1.221.822c-.164.164-.164.61-.07.822.117.235.446.352.658.517l.023.023zm-2.114-2.56c1.174-.399 2.255-.681 3.288-1.128.282-.117.47-.751.446-1.151 0-.187-.658-.563-.869-.493-1.104.47-2.161 1.057-3.194 1.644-.164.094-.282.494-.211.705.07.188.376.305.54.423zm5.379 4.486c.775-.493 1.55-.916 2.208-1.48.188-.164.211-.798.047-1.01-.164-.235-.728-.399-.987-.282-.681.282-1.315.705-1.879 1.151-.211.165-.352.635-.282.893s.47.399.893.751v-.023zm13.435-.564c-.282-.211-.681-.681-1.198-.822-.611-.164-1.668.846-1.48 1.456.165.47.681 1.034 1.151 1.151.705.212 1.503-.657 1.503-1.785h.023zm9.842.587c-.588-.469-.893-.869-1.269-.963-.54-.14-1.315.917-1.198 1.715.047.352.517.634.822.94l1.645-1.692zm54.139-16.676c-.399.681-.869 1.104-.798 1.433s.634.751 1.01.798c.235.024.798-.587.775-.869-.024-.375-.493-.728-.963-1.362h-.024zM101.468 176.7c-.423.658-.869 1.033-.869 1.386 0 .305.634.869.845.822.376-.094.823-.564.893-.94.047-.282-.446-.657-.893-1.268h.024zm-.54-4.134c-.493.681-1.01 1.08-.963 1.386.07.376.61.657.939.986.282-.305.799-.587.822-.916.024-.352-.375-.728-.798-1.433v-.023zm56.418-10.053c.305-.47.681-.798.658-1.057-.047-.258-.494-.681-.752-.657-.258 0-.681.469-.681.728s.399.54.775.986zm1.879 7.117c-.423-.376-.681-.775-.94-.775-.281 0-.563.376-.845.587.235.282.446.728.728.822.211.071.564-.329 1.033-.611l.024-.023z" fill="#1a70fb"/><path d="M111.709 174.985l-.564-1.127c-.376-.775-.47-1.503.235-2.161l2.49-2.161 4.768-2.278 4.228-1.175c1.033-.211 1.832-.587 2.02-1.62.187-1.057-.564-1.668-1.433-1.997-.752-.282-1.55-.587-2.349-.634l-9.701-.399v-1.245c2.561-1.597 5.544-1.809 8.362-2.607 1.057-.306 2.091-.752 3.148-1.128l6.928.916c1.269.611 2.514 1.363 3.829 1.762.916.282 2.067.493 2.936-.399l6.271 3.124c.353.164.869-.047 1.316-.094-.235-.376-.4-.893-.752-1.104-2.043-1.245-4.251-2.255-5.332-4.651-.493-1.08-.634-2.043.165-2.349l4.11-1.315c.235-.071.681 0 .799.188.563.798 1.198 1.574 1.503 2.466.47 1.362 1.08 2.56 2.184 3.523.118.447.188.916.376 1.339 1.762 4.087 3.946 7.963 6.694 11.486.846 1.08 1.527 2.278 2.443 3.288 1.785 1.95 3.687 3.782 5.52 5.661-.564 3.64-2.936 6.341-4.956 9.16-1.457 2.043-3.899 2.983-6.107 4.087-2.138 1.057-4.393.775-6.6.892-.541.024-1.128-.516-1.692-.798.87-1.222.752-2.208-.446-2.678-3.382-1.292-6.788-2.584-10.217-3.687-2.513-.799-5.167-1.081-7.328-2.819-.705-.564-1.621-.705-2.326.094-.657.752-.446 1.55.188 2.208.587.657.611 1.198-.094 1.761-.282.212-.493.494-.751.752l-5.215-1.362c-.728-.752-1.714-1.339-1.691-2.584 0-.023.024-.07.047-.094 1.879-2.818 4.322-4.885 7.516-6.083.212-.071.47-.564.4-.705-.118-.258-.517-.587-.752-.564-.869.141-1.809.259-2.56.682-1.809 1.056-3.523 2.278-5.285 3.429l-1.55-2.443.869-2.466c2.278-1.691 4.557-3.382 7.281-4.322.282-.094.423-.517.634-.799-.305-.094-.634-.328-.892-.258-2.185.681-4.369 1.386-6.506 2.161-.752.282-1.433.752-2.161 1.127z" fill="#fff"/><path d="M7.939 184.709c.211-2.654.188-5.285.681-7.821.893-4.369 1.057-8.902 2.912-13.083.352-.775.681-1.574 1.08-2.325 3.735-6.765 8.644-12.449 15.361-16.418 2.043-1.198 3.97-2.772 6.553-2.936 1.574-.094 1.879.07 1.997 1.691.047.869.164 1.785.446 2.607.493 1.409.493 2.631-.728 3.664-.164.141-.352.376-.376.564-.141 1.174-1.033 1.667-1.903 2.208-4.885 3.147-8.949 7.093-11.697 12.237-1.221 2.278-1.855 4.791-2.208 7.352-.211 1.503-.634 2.983-.822 4.486-.305 2.419-.47 4.862-.752 7.586 1.174-.657 2.137-1.08 2.936-1.714 1.527-1.198 3.265-1.574 5.12-1.785.963-.118 1.245.375 1.386 1.151.258 1.315.587 2.63.775 3.946.07.587.023 1.291-.235 1.808-.587 1.104-1.127 2.443-2.09 3.077-2.607 1.738-3.711 4.298-4.768 7.023-1.033 2.678-1.48 5.473-1.785 8.315-.047.446-.376.892-.634 1.315-.164.305-.493.517-.634.822-.752 1.691-1.832 2.419-3.664 2.419-.587 0-1.174 0-1.738.141-1.315.259-2.654-1.198-3.406-2.771-.305-.658-.517-1.386-.728-2.091-.822-2.771-3.077-4.674-4.416-7.14-.916-1.715-2.255-3.194-3.194-4.909-.634-1.127-1.08-2.443-1.362-3.711-.352-1.527.634-2.725 2.161-3.054.611-.141 1.057-.446 1.527-1.01.54-.681 1.621-.986 2.49-1.338.517-.212 1.127-.235 1.715-.353v.047z" fill="#1a6ffe"/><path d="M183.324 166.271l-.541-.798c-.399-.282-.775-.658-1.221-.822-1.48-.611-3.053-.987-4.439-1.715l-14.257-7.775c-.212-.117-.376-.281-.447-.328l1.151-2.584c.329-.869.846-.94 1.644-.587l5.426 2.184c.822.329 1.644.399 2.208-.423.611-.869.399-1.714-.235-2.489a7.62 7.62 0 0 0-1.174-1.128l-3.617-2.795c-1.926-1.691-4.228-2.466-6.695-2.842-2.724-.399-5.449-.352-8.15.212 0-.893.047-1.809-.916-2.302 0-1.104.376-1.691 1.668-1.832 2.09-.212 4.134-.752 6.201-1.081 2.466-.423 4.885-.352 7.187.846.587.305 1.362.423 2.02.376.939-.094 1.456-.799 1.386-1.715-.047-.916-.635-1.362-1.574-1.362a3.74 3.74 0 0 1-1.01-.141l-4.134-1.245 4.721-2.748c0 .352-.094.939.071 1.033l5.59 3.359c.728.423 1.362.211 1.808-.47.494-.751.165-1.433-.493-1.785-2.161-1.174-4.251-2.701-6.952-2.137 2.067-.752 4.11-1.691 6.247-2.161 2.913-.658 5.919-.94 8.879-1.433 1.691-.282 2.701.446 3.288 1.95l-3.335-.94c-.376-.07-.822.352-1.245.564.235.352.423.822.752 1.01 3.852 2.255 6.341 5.613 7.586 9.841.963 3.289 1.386 6.765 3.735 9.489.54.611 1.033 1.269 1.597 1.856.634.658 1.691.658 2.302.023.681-.681.587-1.714-.305-2.583a12.74 12.74 0 0 1-3.712-7.258c2.067 2.231 3.923 4.58 4.534 7.68.352 1.809.892 3.594 1.08 5.403.188 1.926-.047 3.852-1.315 5.496-.846 1.104-1.433 2.419-2.373 3.382-1.479 1.527-3.335 2.466-5.59 2.372-1.221-.047-2.513.306-3.687.024-1.269-.305-2.443-1.104-3.641-1.691l-.023.07zm-6.882-35.161c-.282.188-.846.399-.869.657-.047.423.14 1.01.446 1.269 1.292 1.127 2.654 2.184 3.993 3.241.657.54 1.362.681 1.973 0s.423-1.433-.259-1.949c-1.385-1.01-2.818-1.926-4.251-2.866-.258-.164-.564-.211-1.033-.352z" fill="#fff"/><path d="M26.776 78.661L32.46 95.15l19.237 54.069c2.137 5.966 7.563 8.62 13.506 6.506L174.351 116.9c3.923-1.386 6.224-4.158 7.07-8.198.587 2.936-.446 5.426-2.231 7.681-1.785 2.278-4.44 3.1-7.023 4.016l-12.237 4.322-13.788 4.909-15.197 5.449-17.968 6.318-12.895 4.651-14.774 5.214-11.439 4.134c-3.594 1.245-7.164 2.654-10.851 3.547-4.087.963-7.516-.681-9.841-4.087-1.174-1.715-1.856-3.828-2.584-5.825l-10.476-29.313-8.338-23.605c-1.527-4.298-3.171-8.573-4.557-12.895-.446-1.409-.282-3.03-.399-4.557h-.047z" fill="#d1cdcd"/><path d="M15.878 51.392c-.728-6.013 1.738-9.959 7.493-12.026L131.744.799c6.107-2.161 11.345.235 13.74 6.271.799 1.996 1.692 3.946 2.326 5.989.516 1.691.728 3.476 1.08 5.238l-1.151 3.993c-1.55 2.607-3.828 4.181-6.694 5.191L104.287 40.54l-71.85 25.578c-1.926.681-3.876.846-5.872.446-3.03-.634-5.144-2.49-6.765-5.003l-3.922-10.123v-.047zm.728-1.715c.188.728.352 1.926.775 3.053.846 2.349 1.809 4.651 2.748 6.976 2.02 5.05 6.976 7.281 12.073 5.449l46.06-16.418 63.3-22.525c5.214-1.855 7.61-7.07 5.637-12.237-.892-2.349-1.808-4.674-2.772-6.976-2.113-5.144-6.975-7.258-12.19-5.402L41.644 33.846l-19.401 6.999c-3.688 1.409-5.379 4.439-5.661 8.831h.024z" fill="#1a6ffe"/><path d="M152.977 144.404c2.701-.564 5.426-.634 8.15-.211 2.467.375 4.768 1.15 6.694 2.842 1.151 1.01 2.42 1.855 3.618 2.795.422.329.845.704 1.174 1.127.634.752.846 1.621.235 2.49-.587.822-1.386.751-2.208.423l-5.426-2.185c-.798-.352-1.315-.282-1.644.587l-1.151 2.584c.071.047.235.212.447.329l14.257 7.774c1.385.729 2.959 1.128 4.439 1.715.446.188.822.54 1.221.822-.329.799-.845 1.01-1.644.658-1.315-.587-2.537-.446-3.899.07l-8.409 2.913-8.244 3.335c-.305.118-.728 0-1.104-.023.235-.306.4-.775.728-.893l11.275-4.58 4.956-2.114-13.177-6.318c-1.386-.681-2.725-1.504-4.04-2.326-.846-.54-.987-1.879-.141-2.56 1.151-.916 1.527-2.231 2.161-3.406.611-1.15 1.409-1.996 2.865-1.973-1.291-.892-2.771-1.009-4.227-1.244-2.255-.376-4.416.023-6.624.422-2.631.47-4.204-.869-4.275-3.617 0-.822.118-1.62.188-2.442.07-.376.164-.752.188-1.151.07-1.48.728-2.302 2.184-2.561l9.63-1.597c.869-.141 1.785-.094 2.678-.117l4.134 1.245a3.74 3.74 0 0 0 1.01.141c.939 0 1.527.446 1.574 1.362.07.939-.447 1.644-1.386 1.715a3.76 3.76 0 0 1-2.02-.376c-2.302-1.198-4.721-1.269-7.188-.846l-6.2 1.081c-1.269.141-1.644.728-1.668 1.832-.047.493-.164.986-.164 1.479 0 .682.258 1.151 1.08.799h-.047zm-31.45 44.838l.751-.751c.705-.564.705-1.104.094-1.762-.61-.681-.845-1.456-.188-2.208.705-.822 1.621-.681 2.326-.094 2.161 1.739 4.838 2.02 7.328 2.819 3.453 1.104 6.835 2.396 10.217 3.688 1.222.469 1.316 1.456.446 2.677-.775 0-1.62.165-2.325-.07-1.902-.634-3.734-1.503-5.613-2.185-.963-.352-2.02-.446-3.007-.657-.799-.282-1.574-.587-2.372-.822-1.151-.353-2.326-.635-3.476-.94-.846.775-1.668 1.597-2.561 2.325-1.291 1.081-2.724 1.198-4.251.447-1.151-.564-2.349-.987-3.5-1.527-.634-.305-.728-.799-.235-1.315.235-.235.588-.376.893-.541 1.245.376 2.537.705 3.758 1.175.658.258 1.198.282 1.691-.235l.024-.024zm72.789-45.684c.47 2.819 1.668 5.238 3.711 7.258.893.869.986 1.903.305 2.584a1.61 1.61 0 0 1-2.301-.024c-.564-.587-1.057-1.244-1.598-1.855-2.348-2.725-2.771-6.201-3.734-9.489-1.222-4.228-3.711-7.587-7.587-9.842-.329-.188-.493-.657-.751-1.01.422-.188.869-.634 1.244-.563 1.128.211 2.208.61 3.336.939v-.023c.094.094.164.188.258.281 2.09 1.621 3.735 3.688 4.979 5.966.987 1.786 1.433 3.829 2.114 5.778h.024z" fill="#040404"/><path d="M15.878 51.392L19.8 61.515c-.047.164-.165.352-.117.493.939 3.899 5.567 7.352 10.053 6.6.752-.118 1.527-.188 2.302-.258l-1.879 1.433c-.399-.094-.799-.258-1.198-.258-4.768 0-8.08-2.231-9.865-6.624-1.198-2.913-2.325-5.849-3.335-8.831-.258-.775.07-1.762.117-2.654v-.024z" fill="#ddd"/><path d="M168.526 133.224c2.701-.564 4.792.986 6.953 2.137.681.352.986 1.034.493 1.785-.446.681-1.104.869-1.809.47l-5.59-3.359c-.164-.117-.047-.681-.07-1.033h.023z" fill="#040404"/><path d="M147.739 22.29l1.151-3.993c-.023 1.597.235 3.265-.164 4.745-.423 1.527-1.503 2.842-2.302 4.251l-.517.869-1.855.376c.117-.258.211-.587.399-.799.775-.869 1.762-1.597 2.372-2.56.517-.846.634-1.926.94-2.912l-.024.023z" fill="#ddd"/><path d="M147.739 22.29c-.305.986-.422 2.067-.939 2.913-.611.963-1.574 1.691-2.372 2.56-.188.211-.259.517-.4.799L34.222 67.669l-2.208.705-2.302.258c-4.463.752-9.113-2.678-10.053-6.6-.047-.141.07-.329.117-.493 1.621 2.513 3.758 4.369 6.764 5.003 1.997.423 3.946.258 5.872-.446l71.85-25.578 36.759-13.059c2.842-1.01 5.144-2.584 6.694-5.191l.023.023z" fill="#cbc7c8"/><path d="M56.183 89.019c.329.446.775.822.963 1.315l4.439 12.237c.869 2.372.752 2.09-1.433 2.889l-12.096 4.369c-1.221.446-1.644.258-2.114-1.01l-4.58-12.801c-.352-.963 0-1.644.869-1.95l13.2-4.768c.141-.047.305-.047.47-.07.094-.07.188-.117.282-.188v-.023zm-3.03 10.241l-1.879 1.198 1.55 4.275c.258.658.775 1.245 1.503.869.352-.165.705-.94.587-1.315-.493-1.715-1.151-3.359-1.762-5.05v.023zm-2.02-.376c.963 0 1.738-.634 1.762-1.48.023-.892-.681-1.785-1.456-1.809-1.01-.047-1.832.728-1.832 1.691 0 .799.775 1.597 1.527 1.597zm-4.134.141c.799-3.594 2.584-5.895 6.718-5.426-1.926-.963-3.194-.893-4.51.211-1.621 1.362-2.231 3.171-2.208 5.214z" fill="#2262f2"/><path d="M48.268 114.997c.305-.329.587-.916 1.033-1.08l13.365-4.862c.892-.329 1.339.234 1.644 1.033l3.876 10.758.869 2.419c.305.798.117 1.315-.752 1.62l-13.482 4.839c-1.104.399-1.409-.305-1.691-1.057l-2.819-7.798-1.715-4.839-.329-1.009v-.024zm10.452 4.298l-5.661-2.489 3.03 8.385 1.808-.681-1.362-4.017 3.124 1.363 1.527-3.148 1.503 4.087 1.855-.705-3.03-8.455-2.772 5.613-.023.047z" fill="#794cbd"/><path d="M55.314 134.797c.352-.375.658-.986 1.151-1.174l13.271-4.815c.752-.258 1.268-.047 1.55.728l5.003 13.811c.329.916-.399 1.057-.963 1.268l-9.748 3.524-3.288 1.197s-1.691.118-2.067-.916l-3.335-9.254-1.574-4.392v.023zm12.237.963l-.916-2.513c-.117-.235-.517-.587-.705-.54l-4.392 1.527 1.174 3.311c-.916.118-1.01.611-.681 1.339.188.423.376.869.47 1.316.211.963.705 1.174 1.621.869 1.104-.376 2.161.164 2.584 1.198-.705.469-1.48.869-2.09 1.456-.282.258-.258.869-.305 1.315 0 .071.329.165.517.258.023-.187.117-.399.07-.563s-.211-.282-.423-.564l2.513-1.339.517 1.715c.188.939.54.751.986.305l-.893-2.255 2.772-.563a19.76 19.76 0 0 0 .141 1.104c.117 0 .235 0 .352.023.047-.282.188-.658.07-.799-.211-.281-.611-.634-.916-.61-.846 0-1.691.188-2.513.282-.305-.916.141-2.255 1.033-2.514 1.315-.399 1.127-1.127.752-2.043-.141-.352-.305-.728-.399-1.104-.188-.775-.634-.892-1.362-.587l.023-.024z" fill="#022325"/><path d="M34.058 75.396c.305-.305.681-.94 1.198-1.127l12.918-4.674c.846-.305 1.503-.141 1.832.822l4.886 13.6c.235.681-.07 1.033-.658 1.245l-13.67 4.932c-.705.258-1.268.047-1.527-.658l-4.885-13.482c-.047-.117-.047-.235-.117-.658h.023zm10.64 10.452l2.325-.846-1.386-3.781c-.305-.869-.211-1.691.752-2.02s1.503.235 1.809 1.151l1.362 3.758 2.325-.869-1.456-4.11c-1.057-2.701-3.194-2.795-4.51-1.855-.47.352-.799.916-1.198 1.386-.446-.846-.916-.799-2.56.235l2.49 6.952h.047zm-6.248-5.802l2.56 7.117 2.349-.869-2.56-7.07-2.372.822h.024zm1.832-3.077c-.329-.211-.799-.775-1.292-.822-.705-.047-1.55.258-1.55 1.221 0 .869.54 1.409 1.409 1.409.846 0 1.339-.564 1.433-1.808z" fill="#046598"/><path d="M171.486 105.296l-1.316.47c-.446-1.245-.775-2.489-1.339-3.617-.234-.493-.892-1.033-1.409-1.104-.845-.117-1.315.799-.986 1.809l1.315 3.711-1.292.517-1.268-3.524c-.305-.869-.775-1.526-1.809-1.151-.963.376-.892 1.151-.587 1.973l1.221 3.5-1.338.493-2.232-6.247 1.292-.094c.165 0 .399 0 .47-.118.892-1.104 1.996-1.268 3.312-.728l.516-.705c1.292-1.503 3.148-1.221 3.946.564l.212.54 1.268 3.665.024.046zM78.99 116.007l-1.315.446-1.268-3.523c-.305-.869-.822-1.503-1.809-1.104-.963.376-.846 1.175-.564 1.973l1.221 3.5-1.339.47-2.114-5.943c.07-.117.094-.235.117-.235 1.057 0 1.809-.634 2.678-1.08.564-.282 1.409-.047 2.278-.047a5.73 5.73 0 0 1 .517-.681c1.268-1.363 3.1-1.104 3.805.61l1.527 4.275-1.315.517-1.268-3.57c-.282-.799-.728-1.48-1.715-1.151-1.033.352-.986 1.174-.658 2.02l1.221 3.523zm63.183-22.314l-1.316.493-1.127-3.171c-.165-.423-.305-.986-.634-1.198-.4-.235-1.151-.376-1.433-.164-.352.282-.634 1.034-.517 1.48.306 1.268.846 2.513 1.316 3.852l-1.339.517-2.232-6.248 1.715-.141c.939-1.127 1.644-1.339 3.147-.916.541-.446.94-.869 1.433-1.174 1.245-.752 2.537-.423 3.124.916.611 1.433 1.08 2.912 1.621 4.416l-1.316.493-1.151-3.171c-.164-.423-.305-.987-.657-1.198-.376-.235-1.198-.376-1.433-.164-.352.352-.611 1.104-.493 1.597.305 1.245.822 2.443 1.292 3.758v.023zm-19.237-37.204l-1.339.47-2.208-6.248 1.292-.094c.165 0 .399 0 .47-.117.892-1.104 1.996-1.268 3.312-.728l.516-.705c1.292-1.503 3.171-1.221 3.946.564l.212.54 1.268 3.641-1.292.54-1.339-3.641c-.234-.493-.892-1.034-1.409-1.104-.845-.117-1.315.799-.986 1.809l1.315 3.711-1.292.54-1.268-3.523c-.305-.869-.775-1.527-1.809-1.151-.963.352-.892 1.151-.587 1.973l1.245 3.523h-.047zm4.651 20.293l-1.316.47-1.268-3.57c-.282-.822-.775-1.433-1.738-1.08s-.94 1.104-.634 1.926l1.245 3.547-1.339.47-2.232-6.271h1.339c.141 0 .329-.023.399-.117.893-1.174 2.044-1.292 3.359-.775l.634-.846c1.245-1.292 3.03-1.057 3.735.564.587 1.386 1.033 2.842 1.574 4.345l-1.339.47-1.292-3.594c-.305-.799-.775-1.456-1.738-1.104s-.94 1.127-.658 1.95l1.245 3.57.024.047z" fill="#0a0000"/><path d="M91.697 133.2l.939 2.842-1.315.493-3.1-8.784 2.889-1.339c1.738-.634 3.5.517 4.04 2.537.564 2.067-.376 3.758-2.325 4.11-.329.071-.681.094-1.127.165v-.024zm2.114-3.03c0-1.386-.963-2.654-1.996-2.63-.94 0-1.55.681-1.574 1.667 0 1.386.939 2.701 1.926 2.701.94 0 1.668-.775 1.644-1.761v.023z" fill="#080000"/><path d="M82.772 92.472l-2.842 1.386c-1.668.611-3.312-.399-3.969-2.302-.634-1.879.023-3.57 1.668-4.181.493-.188 1.057-.235 1.668-.376l-.634-2.114 1.315-.47 2.537 7.258.235.799h.024zm-1.95-1.456c0-1.409-.94-2.701-1.926-2.678-.94 0-1.644.775-1.644 1.785 0 1.386.986 2.654 2.02 2.607.916-.047 1.574-.752 1.55-1.691v-.023zm19.401-11.298l-.657-2.137 1.316-.446 2.842 8.056c-1.057.517-1.973 1.057-2.983 1.409-1.668.564-3.312-.517-3.899-2.443-.587-1.902.117-3.547 1.785-4.11.47-.164.986-.211 1.574-.329h.023zm1.503 3.993c0-1.409-.963-2.701-1.949-2.678-.939.023-1.621.775-1.621 1.785 0 1.315.939 2.56 1.926 2.584.963.023 1.668-.705 1.644-1.715v.023zM88.738 61.656l-.658-2.114 1.315-.493 1.456 4.11 1.409 3.993c-1.127.517-2.161 1.151-3.265 1.433-1.738.446-3.265-.822-3.711-2.865-.423-1.879.376-3.288 2.161-3.805.399-.117.822-.164 1.315-.235l-.023-.023zm1.48 3.969c0-1.409-.963-2.701-1.95-2.654-.94.023-1.621.799-1.621 1.809 0 1.315.94 2.56 1.926 2.584.963 0 1.668-.728 1.644-1.715v-.023z" fill="#0a0000"/><path d="M106.447 125.097l-4.603 1.668c.634.446 1.057.986 1.48.986.587 0 1.432-.258 1.714-.705.446-.704.893-.869 1.621-.657.023 1.456-1.175 2.63-2.819 2.771-1.879.165-3.265-1.104-3.57-3.241-.258-1.691.775-3.194 2.466-3.57 1.785-.399 3.101.564 3.735 2.724l-.024.024zm-1.667-.517c-.47-.963-1.128-1.268-2.02-.916-.846.329-1.268.94-1.01 2.02l3.053-1.104h-.023zM84.604 67.082L80 68.749c.611.446 1.034.986 1.456.986.587 0 1.456-.258 1.691-.681.423-.775.939-.799 1.621-.705.07 1.48-1.151 2.678-2.795 2.819-1.856.164-3.218-1.033-3.547-3.124-.305-1.785.705-3.312 2.419-3.688 1.785-.399 3.1.54 3.734 2.725h.023zm-4.721.587l3.054-1.104c-.47-1.01-1.151-1.245-1.997-.916s-1.315.94-1.033 2.02h-.024zm29.759 34.339c.681 1.386 2.255 1.597 2.936.376.446-.799.939-.775 1.597-.634-.094 1.574-1.339 2.724-3.03 2.795-1.809.07-3.124-1.198-3.406-3.312-.235-1.644.775-3.1 2.42-3.5 1.761-.423 3.053.446 3.805 2.701l-4.322 1.598v-.024zm-.399-.986l3.053-1.104c-.47-1.01-1.151-1.245-1.997-.916s-1.315.939-1.056 2.02zM89.066 87.281l-4.604 1.668c.634.446 1.057.987 1.48.987.587 0 1.433-.258 1.715-.705.446-.705.892-.869 1.597-.658.047 1.456-1.151 2.631-2.795 2.772-1.879.165-3.265-1.08-3.57-3.241-.258-1.715.775-3.194 2.466-3.57 1.785-.399 3.1.54 3.734 2.725l-.023.023zm-1.691-.517c-.446-1.01-1.127-1.268-1.973-.939-.845.305-1.315.916-1.104 2.043l3.077-1.08v-.023zm8.761-1.832l-4.345 1.574c.728 1.386 2.278 1.574 2.96.352.446-.822.939-.728 1.621-.611-.141 1.668-1.456 2.772-3.194 2.772-1.785 0-3.1-1.362-3.312-3.429-.164-1.597.963-3.077 2.584-3.406 1.762-.329 2.96.54 3.664 2.725l.023.023zm-1.715-.517c-.493-1.034-1.174-1.268-2.067-.892-.822.352-1.268.939-.939 1.973l3.006-1.08zm45.379 28.938l-4.345 1.574c.775 1.385 2.184 1.479 3.053.352.306-.399.846-.611 1.433-1.034.118 1.762-1.033 2.96-2.63 3.148-1.856.235-3.312-.94-3.665-2.983-.328-1.879.635-3.406 2.396-3.829 1.785-.399 3.077.517 3.758 2.725v.047zm-4.768.587l3.077-1.127c-.423-.987-1.08-1.245-1.949-.94-.846.306-1.316.916-1.128 2.067z" fill="#080000"/><path d="M74.504 70.675l.658 2.748-1.268.446-2.889-8.197 1.315-.517 1.738 4.792c1.151-1.198.282-3.664 2.912-3.993l-.916 2.912c-.258.681-.141 1.057.517 1.386.893.446 1.738 1.01 2.701 1.597-.987.681-1.762.799-2.678.07-.634-.493-1.409-.822-2.114-1.221-.047-.047-.07-.094-.117-.141v.094h.164l-.023.023z" fill="#0b0000"/><path d="M157.252 103.277c1.879-.024 3.406 1.644 3.382 3.711 0 1.785-1.48 3.171-3.359 3.171-1.808 0-3.311-1.668-3.311-3.665 0-1.808 1.385-3.194 3.288-3.217zm1.879 3.899c.047-1.269-.869-2.584-1.832-2.608-.963-.047-1.785.752-1.809 1.739 0 1.268.799 2.442 1.785 2.513 1.057.07 1.832-.611 1.879-1.621l-.023-.023zm-73.212 6.271c-1.809 0-3.312-1.597-3.359-3.641-.047-1.808 1.362-3.218 3.241-3.265 1.903-.047 3.406 1.598 3.429 3.688 0 1.785-1.433 3.194-3.312 3.218zm1.809-3.007c.023-1.291-.916-2.56-1.879-2.583-.987 0-1.762.775-1.762 1.761 0 1.292.822 2.42 1.809 2.467 1.057.047 1.809-.635 1.832-1.668v.023zm43.945-20.082c1.833 0 3.312 1.574 3.359 3.617.047 1.832-1.456 3.265-3.382 3.265-1.785 0-3.288-1.691-3.288-3.688 0-1.809 1.409-3.194 3.311-3.194zm1.856 3.758c-.023-1.339-.986-2.537-1.973-2.466-1.01.07-1.715.846-1.668 1.855.047 1.339.893 2.372 1.926 2.372 1.057 0 1.762-.728 1.739-1.762h-.024zm-16.418-20.434c1.832 0 3.312 1.574 3.359 3.617.047 1.832-1.456 3.265-3.382 3.265-1.786 0-3.289-1.691-3.289-3.688 0-1.809 1.409-3.194 3.312-3.194zm1.856 3.782c0-1.315-.987-2.537-1.973-2.49-1.01.047-1.715.846-1.668 1.855.047 1.339.892 2.372 1.902 2.372 1.057 0 1.762-.705 1.739-1.738zm-2.725-25.391c1.832 0 3.288 1.668 3.288 3.711 0 1.832-1.526 3.218-3.452 3.194-1.762-.047-3.265-1.809-3.218-3.758.047-1.832 1.479-3.147 3.382-3.124v-.023zm1.785 3.876c.023-1.292-.916-2.56-1.879-2.584-.987 0-1.762.775-1.762 1.762 0 1.292.822 2.419 1.809 2.466 1.057.047 1.809-.634 1.832-1.668v.024zm7.375 65.296l-2.959 1.503c-1.386.587-2.631.118-3.289-1.339-.587-1.268-.986-2.607-1.526-4.04l1.339-.54.892 2.419.54 1.292c.423.799 1.081 1.151 1.95.799.845-.352 1.127-1.057.845-1.926l-1.198-3.617 1.269-.47.258.587 1.856 5.308.023.024zm-32.765-10.264l-1.315.422c-.117-.258-.211-.422-.258-.61l-1.973-5.59 1.597-.165c.493-.305 1.127-.845 1.856-1.127 1.104-.423 2.231.07 2.795 1.268.634 1.339 1.057 2.748 1.621 4.204l-1.315.517-1.503-3.734c-.211-.423-.893-.846-1.362-.869-.423 0-1.081.422-1.268.822-.211.469-.117 1.151.047 1.691.282 1.01.681 1.996 1.08 3.124v.047zM76.031 95.103l-1.292.493-1.503-3.735c-.235-.446-.963-.846-1.48-.846-.423 0-1.01.564-1.198 1.034-.188.446 0 1.08.141 1.574l1.033 2.983-1.315.517-2.231-6.248 1.738-.188c1.785-2.091 3.946-1.691 5.026 1.245l1.08 3.171zm18.907-35.702l1.456-.117.071.282c.305-.329.587-.728.939-.986 1.503-1.057 3.1-.705 3.899.986.587 1.268.986 2.607 1.526 4.04l-1.292.564-1.409-3.617c-.493-1.08-1.433-1.362-2.278-.775-.846.611-.681 1.433-.423 2.231l1.104 3.171-1.339.47-2.231-6.248h-.023zM72.296 74.433l-1.339.517-1.151-3.077c-.211-.493-.47-1.08-.892-1.315-.399-.235-1.221-.282-1.48 0-.399.376-.752 1.151-.658 1.668.235 1.245.728 2.443 1.151 3.758l-1.315.47-2.208-6.248 1.433-.141c0 .094.047.165.047.258.211-.258.423-.517.681-.752 1.48-1.315 3.335-1.01 4.181.775.587 1.268.987 2.607 1.55 4.063v.023z" fill="#0a0000"/><path d="M97.804 107.129l1.691.117c.493 0 1.033.023 1.456-.141.259-.117.47-.587.494-.916 0-.141-.494-.423-.776-.446-.728-.047-1.479 0-2.231 0-1.409-.047-2.137-1.339-1.433-2.56.916-1.598 3.453-1.832 4.745-.423-.493.517-.94.916-1.738.423-.282-.188-.846-.071-1.222.094-.258.093-.399.493-.611.751.258.165.517.446.799.47.775.047 1.574-.047 2.349 0 1.245.094 2.02 1.315 1.527 2.443-.493 1.174-1.621 1.55-2.748 1.738-.987.164-1.832-.188-2.373-1.034 0-.164.047-.352.07-.516z" fill="#080000"/><path d="M112.484 121.127l-.987.752c-1.338-.681-2.207-.634-2.748.141-.493.752-.211 2.278.564 3.03.775.728 1.926.54 2.537-.329.329-.47.845-.775 1.456-1.292.235 1.809-.564 2.889-2.114 3.336-1.597.446-3.053-.306-3.805-1.95-.775-1.715-.352-3.453 1.08-4.369 1.104-.704 3.195-.798 4.017.681zm.446-43.899l-.986.728c-1.292-.728-2.208-.658-2.725.164s-.094 2.537.799 3.171c.728.517 1.926.352 2.231-.47.329-.846.893-.963 1.621-.963.094 1.527-.775 2.631-2.349 2.983-1.644.376-3.101-.493-3.758-2.255-.658-1.715-.141-3.382 1.315-4.181 1.409-.775 2.889-.517 3.876.775l-.024.047zm40.165 29.525c-.564.587-.963.916-1.809.423-1.033-.588-2.302.305-2.114 1.479.141.822.587 1.692 1.151 2.302.517.587 1.809.235 2.09-.54.329-.869.916-.893 1.621-.94 0 1.621-.845 2.702-2.396 3.007-1.62.352-3.006-.493-3.687-2.184-.681-1.715-.212-3.383 1.221-4.205 1.362-.798 2.842-.587 3.946.658h-.023zm-40.4-48.479c0 1.668-.939 2.772-2.536 3.03-1.621.258-2.983-.611-3.618-2.302-.61-1.691-.117-3.288 1.269-4.11 1.362-.799 2.842-.564 3.922.658-.516.564-.892.963-1.808.423-1.034-.587-2.279.305-2.091 1.48a4.76 4.76 0 0 0 1.151 2.302c.54.564 1.785.211 2.091-.564.328-.869.916-.892 1.62-.939v.023zm14.774 35.56c-.54.658-.986.869-1.808.423-1.034-.564-2.279.329-2.091 1.503.141.822.587 1.691 1.151 2.278.54.564 1.621.117 2.137-.54.353-.446.846-.799 1.433-1.315.282 1.738-.446 2.795-1.949 3.288-1.644.54-3.148-.188-3.923-1.879-.798-1.715-.352-3.453 1.057-4.369 1.081-.705 3.171-.845 3.993.611z" fill="#0b0000"/><path d="M81.903 131.392l-1.996.681c-.893.423-1.221.094-1.198-.893l5.003-1.761-1.574 6.154 3.077-1.034.47 1.104-5.355 1.903 1.597-6.154h-.023z" fill="#0a0000"/><path d="M128.221 111.615l1.245-.376.704 1.574 1.785-.517.329.986-1.738.682c.399 1.104.634 2.278 1.245 3.241.258.399 1.221.352 2.114.54l.188.634c-2.208 1.245-3.148.916-3.97-1.315l-.822-2.255-1.456-.587.822-1.151-.423-1.433-.023-.023zm-24.545-9.677l-1.903-.728 1.339-.846-.47-1.621 1.198-.47.728 1.621 1.762-.54.352.963-1.761.752c.376 1.08.61 2.231 1.198 3.147.258.423 1.174.423 1.808.611l.188-.329.446 1.08c-.681.212-1.338.611-1.902.517-.634-.094-1.433-.517-1.738-1.033-.587-1.034-.893-2.232-1.222-3.148l-.023.024z" fill="#0b0000"/><path d="M58.767 69.83l2.959 8.432-1.315.493-2.959-8.315 1.292-.611h.023zm59.33 26.635c-1.667.986-1.832 1.503-1.221 3.241l.916 2.584-1.339.47-2.231-6.272 1.762.07 1.573-1.362.517 1.292.023-.023zm21.703 12.848l1.691.188 1.739-1.409.422 1.268c-1.62 1.01-1.785 1.503-1.198 3.218l.917 2.607-1.339.47-1.104-3.124-1.128-3.242v.024zm-24.779 9.56l1.62-1.386.493 1.268c-3.194 1.762-.375 3.805-.493 5.896l-1.151.399-2.231-6.295 1.762.118zm-16.278 12.072l-1.339.447-2.231-6.319 1.738.165 1.691-1.41.423 1.269c-1.668 1.08-1.808 1.503-1.151 3.312l.869 2.513v.023zM68.561 97.78l-1.315.47-2.184-6.107 1.339-.517 2.184 6.154h-.023zm58.814 23.089l-2.208-6.177 1.339-.494 2.138 6.06-1.292.611h.023zM95.573 66.307l-1.315.47-2.208-6.13 1.362-.493 2.161 6.13v.023zM61.515 71.45l1.339-.493 2.161 6.083-1.292.54-2.184-6.154-.023.023zm25.672 63.465l-2.184-6.13 1.339-.494 2.161 6.131-1.315.516v-.023z" fill="#0a0000"/><path d="M104.709 63.018l-.493-1.339 1.292-.517.564 1.292-1.363.564zm2.514 21.092l-1.363.493-.493-1.362 1.362-.446.494 1.315zm40.187 29.595l-1.385.494-.47-1.339 1.315-.494.54 1.339zm-26.987-12.401l-.47-1.363 1.315-.47.517 1.315-1.362.54v-.023zM91.274 58.438l1.292-.47.493 1.151-1.292.517-.493-1.198zM62.525 69.971l-1.315.446-.446-1.151 1.268-.517.493 1.221zm23.018 56.065l.423 1.222-1.268.493-.446-1.174 1.315-.541h-.023zm38.849-13.576l1.292-.469.493 1.151-1.292.516-.493-1.198zm-58.32-21.843l-1.362.47-.399-1.174 1.221-.493.54 1.198z" fill="#0b0000"/><path d="M111.427 160.164v1.245l9.7.4c.799.047 1.598.352 2.349.634.893.329 1.621.939 1.433 1.996s-.987 1.433-2.02 1.621c-1.433.282-2.819.775-4.228 1.174-1.879.141-3.453.987-4.768 2.279l-2.49 2.161c-.728.093-1.503.352-1.973-.47-.469-.799.047-1.409.517-1.997 1.48-1.738 3.171-3.241 5.308-4.157.235-.094.447-.211.682-.329l-.071-.305-4.11.587c-1.738.305-3.124-.376-3.289-2.114-.164-1.668 0-3.406.329-5.073.259-1.292 1.316-2.02 2.654-2.373l5.379-1.573c3.335-.869 6.624-.541 9.959.211l7.751 1.362s.117-.094.094-.141c-.282-2.654.399-3.781 2.959-4.65 1.621-.54 3.289-1.034 4.956-1.362 1.598-.329 2.584.328 3.336 1.738 1.62 3.1 3.288 6.153 5.191 9.089 1.01 1.527 1.667 3.265 2.56 4.886.751 1.386 1.62 2.725 2.396 4.11.14.259.093.611.14.916-.305-.047-.728 0-.892-.164-1.034-1.151-2.067-2.325-2.983-3.594-1.832-2.56-3.594-5.191-5.379-7.798-1.104-.939-1.714-2.161-2.184-3.523-.306-.892-.94-1.691-1.503-2.466-.118-.188-.564-.258-.799-.188-1.386.399-2.748.846-4.11 1.315-.799.282-.658 1.245-.165 2.349 1.104 2.396 3.289 3.406 5.332 4.651.352.211.517.728.752 1.104-.447.047-.963.258-1.316.094-2.114-.987-4.181-2.067-6.271-3.124l-6.765-1.363-6.929-.916c-.563-.047-1.15-.188-1.714-.141-2.866.306-5.637.94-8.338 1.973-1.01.376-1.48.846-1.457 1.879l-.023.047z" fill="#030404"/><path d="M107.035 195.678c-10.758-6.342-21.938-11.814-32.108-18.978l.211-.423c.305.118.634.235.939.376l10.311 5.261c.446.235.916.446 1.362.681l8.503 4.369c.235.118.47.258.705.399l7.352 4.745c1.292.799 2.678 1.433 4.04 2.067.211.094.611 0 .869-.118l5.167-2.231c.306-.141.588-.376.916-.493.376-.141.775-.282 1.151-.258.188 0 .517.54.447.704-.165.399-.447.893-.799 1.034-1.527.61-3.077 1.104-4.627 1.691-.916.329-1.926.587-2.654 1.151-.423.329-.4 1.221-.634 1.855-.141.353-.4.658-.588.987-.235-.353-.61-.658-.657-1.034-.071-.634.047-1.315.094-1.785z" fill="#020809"/><path d="M114.034 181.961l5.285-3.429c.751-.423 1.691-.54 2.56-.681.235-.047.634.305.752.564.07.14-.188.634-.4.704-3.194 1.198-5.66 3.265-7.516 6.084 0 .023-.023.07-.047.093-.657.376-1.315.823-1.996.094-.681-.751-.235-1.456.258-2.09.352-.47.752-.893 1.128-1.339h-.024zm-2.325-6.976c.728-.375 1.409-.869 2.161-1.127l6.506-2.161c.235-.07.587.164.892.258-.211.282-.375.705-.634.799-2.724.94-5.003 2.631-7.281 4.322-.211.141-.446.282-.611.47-.54.634-1.174.798-1.832.281-.681-.516-.611-1.244-.188-1.879.235-.375.658-.634.987-.963z" fill="#040404"/><path d="M80.493 174.539c-.211-.164-.564-.282-.658-.517-.117-.235-.094-.681.07-.822.329-.352.775-.634 1.221-.822.775-.329 1.597-.634 2.419-.798.423-.071.939.188 1.409.305-.211.446-.282 1.151-.634 1.315-1.198.541-2.466.893-3.805 1.363l-.023-.024zm-2.114-2.56c-.164-.118-.47-.235-.54-.423-.07-.211.047-.611.211-.705l3.194-1.644c.188-.094.869.306.869.493 0 .4-.164 1.01-.446 1.151-1.01.447-2.114.752-3.288 1.128zm5.379 4.486c-.423-.329-.822-.493-.892-.752s.071-.728.282-.892c.587-.446 1.221-.869 1.879-1.151.258-.117.822.047.987.282.164.211.141.869-.047 1.01-.658.54-1.433.963-2.208 1.48v.023zm13.435-.564c0 1.128-.799 1.973-1.503 1.785-.47-.141-.986-.681-1.151-1.15-.188-.588.869-1.621 1.48-1.457.493.141.916.634 1.198.822h-.023zm9.842.588l-1.645 1.691c-.281-.306-.751-.588-.822-.94-.117-.822.658-1.879 1.198-1.715.376.094.681.494 1.269.964zm54.139-16.677c.47.634.94.963.963 1.362 0 .282-.54.916-.775.869-.375-.046-.939-.469-1.01-.798s.4-.775.799-1.433h.023z" fill="#020809"/><path d="M121.527 189.243c-.494.54-1.01.493-1.691.234-1.222-.469-2.514-.798-3.758-1.174l.234-.423 5.215 1.363z" fill="#2473e8"/><path d="M101.468 176.7c.446.611.94 1.01.893 1.268-.071.376-.517.846-.893.94-.211.047-.846-.517-.846-.822 0-.353.423-.752.869-1.386h-.023zm-.54-4.134c.423.705.822 1.081.798 1.433-.023.329-.516.611-.822.916-.329-.329-.869-.611-.939-.987-.047-.305.47-.704.963-1.385v.023z" fill="#0a0a0a"/><path d="M157.346 162.513c-.376-.446-.775-.704-.775-.986 0-.259.423-.728.681-.728s.705.399.752.657-.329.587-.658 1.057z" fill="#022325"/><path d="M159.225 169.63c-.47.305-.846.681-1.034.611-.305-.094-.493-.541-.728-.822.282-.212.564-.588.846-.588.258 0 .517.4.939.776l-.023.023z" fill="#0a0a0a"/><path d="M111.427 160.164c-.047-1.033.446-1.479 1.456-1.879 2.701-1.033 5.473-1.691 8.338-1.973.564-.047 1.128.094 1.715.141l-3.147 1.128c-2.819.798-5.802.986-8.362 2.607v-.024zm18.414-2.795l6.765 1.363c-.869.892-1.997.681-2.936.399-1.339-.399-2.56-1.151-3.829-1.762zm-15.948 12.167c1.339-1.315 2.889-2.137 4.768-2.278l-4.768 2.278z" fill="#2473e8"/><path d="M176.442 131.11c.446.164.775.188 1.033.352l4.251 2.866c.682.493.869 1.245.259 1.949-.611.681-1.316.54-1.973 0l-3.993-3.241c-.306-.282-.493-.869-.446-1.268.023-.259.587-.47.869-.658z" fill="#040404"/><path d="M152.977 144.404c-.822.352-1.057-.117-1.08-.799 0-.493.094-.986.164-1.479.963.493.94 1.409.916 2.301v-.023z" fill="#2473e8"/><path d="M16.606 49.677c.258-4.392 1.949-7.422 5.661-8.832 6.412-2.466 12.942-4.698 19.401-6.999l90.593-32.226c5.214-1.856 10.076.258 12.19 5.402l2.772 6.976c1.973 5.167-.423 10.382-5.638 12.237l-63.3 22.525-46.06 16.418c-5.097 1.809-10.053-.399-12.073-5.449-.939-2.325-1.902-4.627-2.748-6.976-.399-1.127-.587-2.325-.775-3.053l-.023-.023zm12.167 11.673c.54-.071.728-.071.916-.117l13.529-4.909c.587-.211.822-.611.564-1.292l-4.768-13.2c-.517-1.409-.728-1.503-2.184-.986l-12.683 4.51c-.963.352-1.339 1.01-.94 2.043.352.916.658 1.832.986 2.748l3.594 10.006c.188.493.705.893.963 1.198h.023zm59.237-32.155c-.728.07-1.174.094-1.762.141l2.208 6.248 1.339-.493-1.268-3.641c-.282-.775-.258-1.503.634-1.855.94-.352 1.456.188 1.762 1.033l1.292 3.664c.493-.188.916-.376 1.292-.517l-1.174-3.406c-.305-.846-.47-1.668.564-2.067 1.104-.423 1.527.376 1.832 1.245l1.245 3.429 1.315-.517c-.517-1.456-.94-2.866-1.503-4.228-.705-1.762-2.607-2.02-3.852-.611-.235.258-.399.564-.587.846-1.503-.681-2.396-.446-3.312.728h-.023zm23.394-10.757l2.842 8.056c1.104-.235 2.067-.399 3.03-.681 1.01-.282 1.645-1.01 1.903-2.02.352-1.527-.282-3.265-1.55-4.134-1.48-1.01-2.795-.493-4.04.54l-.869-2.208-1.316.47v-.024zm-56.136 19.73l2.842 8.056c1.127-.258 2.114-.399 3.053-.681 1.01-.305 1.668-1.01 1.855-2.067.305-1.621-.141-3.03-1.48-4.04-1.456-1.08-2.819-.54-4.11.47l-.846-2.208-1.315.47zm31.145-3.735c.047-2.02-1.433-3.711-3.241-3.758-1.95-.047-3.429 1.339-3.429 3.218 0 1.973 1.433 3.641 3.171 3.688 1.95.07 3.453-1.315 3.476-3.147h.023zm-33.611 7.07c-1.903 0-3.312 1.339-3.359 3.171-.023 1.996 1.456 3.711 3.241 3.758 1.95.023 3.429-1.386 3.406-3.218 0-2.043-1.48-3.688-3.312-3.688l.023-.023zm59.448-16.301c0-2.043-1.48-3.688-3.288-3.688-1.95 0-3.383 1.409-3.359 3.265.047 2.043 1.527 3.664 3.359 3.641 1.879-.024 3.311-1.409 3.311-3.218h-.023zM64.31 42.231c.587.94 1.409 1.315 2.396 1.174 1.174-.188 2.325-.564 2.819-1.809.47-1.151-.329-2.325-1.574-2.419-.728-.047-1.48.07-2.231 0-.305-.023-.611-.305-.916-.47.235-.282.423-.681.728-.799.329-.141.869-.235 1.127-.047.799.587 1.245.047 1.785-.376-1.292-1.48-3.899-1.221-4.815.423-.658 1.174.023 2.466 1.362 2.513.775.047 1.574-.047 2.349 0 .282 0 .728.282.752.493.047.258-.188.752-.399.846-.47.164-1.198.376-1.527.164-.799-.54-1.245-.094-1.855.305zm15.314-5.684c-.658.446-1.245.634-1.48 1.034-.423.752-1.033 1.127-1.809.986-1.08-.188-1.433-1.104-1.621-2.067-.164-.799 0-1.55.799-1.879.423-.164.986-.07 1.456 0 .235.023.423.258.634.399l1.08-.822c-1.151-1.268-2.631-1.503-4.016-.681s-1.856 2.443-1.221 4.11c.658 1.715 1.996 2.584 3.617 2.278 1.597-.282 2.49-1.339 2.537-3.382l.023.023zM47.869 53.13c1.644-.282 2.443-.963 2.114-1.973-.822-2.584-1.762-5.144-2.678-7.751l-1.315.54 2.208 6.248c.305.846.399 1.55-.728 1.809.164.446.282.799.399 1.151v-.023zm55.902-19.965c1.714-.282 2.443-.963 2.09-2.09-.822-2.537-1.738-5.05-2.654-7.657l-1.315.54 2.208 6.248c.305.846.422 1.55-.728 1.808.164.446.281.799.399 1.151zm-3.735-1.55l-.704-8.972-1.362.47.728 8.996a31.43 31.43 0 0 0 1.316-.517l.023.023zm-28.96 8.644l.517 1.386 1.339-.517-.493-1.315c-.47.164-.869.282-1.362.446zm31.779-17.804a20.71 20.71 0 0 1-.47-1.198l-1.268.47.446 1.174c.446-.164.799-.282 1.292-.446zM46.483 41.221l-1.268.47.446 1.198c.47-.164.846-.329 1.292-.47l-.47-1.174v-.023z" fill="#fcfcfc"/><path d="M53.153 99.26l1.762 5.05c.117.376-.235 1.127-.587 1.315-.728.376-1.245-.211-1.503-.869l-1.55-4.274 1.879-1.198v-.024zm-2.02-.376c-.752 0-1.503-.822-1.527-1.597 0-.963.822-1.738 1.832-1.691.775.047 1.503.916 1.456 1.809-.023.846-.799 1.48-1.762 1.48z" fill="#f7fafb"/><path d="M46.999 99.025c0-2.043.611-3.852 2.208-5.214 1.315-1.104 2.584-1.174 4.51-.211-4.157-.493-5.942 1.809-6.718 5.426z" fill="#f7f7f7"/><path d="M58.72 119.295l2.772-5.613 3.03 8.455-1.855.705-1.503-4.087-1.527 3.148-3.124-1.363 1.362 4.017-1.808.681-3.03-8.385 5.661 2.489.024-.047z" fill="#f7fafb"/><path d="M67.551 135.76c.728-.328 1.174-.188 1.362.588.094.375.258.728.399 1.104.376.916.54 1.667-.752 2.043-.893.258-1.315 1.574-1.034 2.513.846-.094 1.668-.282 2.513-.282.305 0 .705.329.916.611.118.164-.047.54-.07.799-.118 0-.235 0-.352-.024l-.141-1.104-2.772.564.893 2.255c-.446.423-.799.61-.986-.306-.094-.516-.305-1.01-.517-1.714l-2.513 1.339c.211.281.376.422.423.563.047.165-.047.376-.07.564-.188-.094-.54-.188-.517-.258.047-.447 0-1.057.305-1.316.611-.587 1.386-.986 2.09-1.456-.423-1.033-1.456-1.574-2.584-1.198-.916.306-1.409.094-1.621-.869-.094-.446-.282-.892-.47-1.315-.329-.728-.211-1.222.681-1.339l-1.174-3.312 4.392-1.527c.164-.047.587.282.705.541.352.775.587 1.597.916 2.513l-.023.023zm.728.235l-.423.118c.094.892.211 1.761 1.268 2.255l-.869-2.373h.023zm-5.402 1.95l-.517.164.822 2.326.446-.141-.752-2.349z" fill="#44d860"/><path d="M44.698 85.849l-2.49-6.952c1.644-1.034 2.114-1.08 2.56-.235.399-.47.705-1.033 1.198-1.386 1.315-.94 3.429-.846 4.51 1.856l1.456 4.11-2.325.869-1.362-3.758c-.305-.916-.846-1.48-1.809-1.151s-1.057 1.174-.752 2.02l1.386 3.782-2.325.846h-.047zm-6.248-5.802l2.372-.822 2.56 7.07-2.349.869-2.56-7.117h-.023zm1.832-3.077c-.094 1.245-.587 1.809-1.433 1.809s-1.409-.517-1.409-1.409c0-.986.822-1.268 1.55-1.221.493.023.963.587 1.292.822z" fill="#f7fafb"/><path d="M93.811 130.17c0 .987-.705 1.762-1.644 1.762-.987 0-1.926-1.315-1.926-2.701 0-.987.634-1.668 1.574-1.668 1.033 0 1.996 1.245 1.996 2.631v-.024zM80.822 91.016c0 .963-.634 1.644-1.55 1.691-1.034.047-2.02-1.221-2.02-2.607 0-1.01.681-1.762 1.644-1.785.986 0 1.926 1.268 1.926 2.678v.023zm20.904-7.305c0 1.01-.704 1.738-1.644 1.715-.986-.024-1.902-1.268-1.926-2.584 0-1.01.681-1.762 1.621-1.785.986-.023 1.926 1.245 1.949 2.678v-.023zM90.217 65.625c0 1.01-.705 1.738-1.644 1.715-.986 0-1.903-1.268-1.926-2.584 0-1.01.658-1.762 1.621-1.809.987-.023 1.926 1.245 1.95 2.654v.023zm14.563 58.955l-3.054 1.104c-.258-1.08.188-1.668 1.01-2.02.893-.352 1.574-.047 2.02.916h.024zM79.883 67.669c-.258-1.104.211-1.691 1.034-2.02.846-.329 1.527-.094 1.996.916l-3.053 1.104h.023zm29.359 33.353c-.258-1.104.212-1.691 1.057-2.02s1.527-.094 1.997.916l-3.054 1.104zM87.375 86.765l-3.077 1.08c-.211-1.104.258-1.715 1.104-2.043.846-.305 1.527-.07 1.973.94v.023zm7.047-2.349l-3.006 1.081c-.305-1.034.117-1.621.939-1.973.893-.376 1.597-.141 2.067.892zm40.61 29.524c-.188-1.151.282-1.762 1.128-2.067s1.526-.047 1.949.94l-3.077 1.127z" fill="#fff"/><path d="M74.504 70.675h-.164v-.094c.047.047.07.094.118.141l.047-.047z" fill="#fd0000"/><path d="M159.131 107.176c-.047 1.01-.822 1.691-1.879 1.62-.987-.07-1.809-1.221-1.785-2.513 0-.986.845-1.762 1.808-1.738.963.047 1.903 1.362 1.832 2.607l.024.024zm-71.403 3.264c0 1.01-.775 1.715-1.832 1.668-.986-.047-1.809-1.174-1.809-2.466 0-.987.799-1.785 1.762-1.762.986 0 1.903 1.292 1.879 2.584v-.024zm45.801-16.324c0 1.033-.681 1.762-1.738 1.762-1.034 0-1.856-1.033-1.926-2.372-.047-1.033.658-1.808 1.668-1.855.986-.071 1.949 1.151 1.973 2.466h.023zm-14.562-16.653c0 1.033-.682 1.738-1.739 1.738-1.01 0-1.855-1.033-1.902-2.372-.047-1.01.681-1.809 1.668-1.856s1.949 1.151 1.973 2.49zm-.94-21.515c0 1.01-.775 1.715-1.832 1.668-.987-.047-1.809-1.174-1.809-2.466 0-.986.799-1.785 1.762-1.762.986 0 1.902 1.292 1.879 2.584v-.023z" fill="#fff"/><path d="M28.773 61.351c-.258-.305-.775-.681-.963-1.198l-3.594-10.006-.986-2.748c-.399-1.01-.024-1.691.939-2.043l12.684-4.51c1.433-.517 1.668-.423 2.184.986l4.768 13.2c.258.681 0 1.08-.564 1.292l-13.529 4.909c-.188.071-.376.047-.916.117h-.023zM29.9 48.738l-1.456.564c-1.362.493-1.597.939-1.127 2.302l1.832 5.05c.352.986.963 1.339 1.996.963l8.127-2.913c.892-.305 1.174-.916.892-1.738l-2.067-5.707c-.305-.846-.939-1.081-1.785-.752l-1.832.634c-.892-1.832-1.151-2.02-2.325-1.597-2.725.94-2.748.963-2.255 3.241v-.047z" fill="#ddd"/><path d="M88.009 29.196c.916-1.174 1.809-1.409 3.312-.728l.587-.846c1.245-1.409 3.147-1.151 3.852.611.564 1.362.986 2.772 1.503 4.228l-1.315.517-1.245-3.429c-.305-.869-.728-1.691-1.832-1.245-1.01.399-.869 1.221-.564 2.067l1.174 3.406-1.292.517-1.292-3.664c-.305-.846-.822-1.386-1.762-1.033-.892.329-.892 1.057-.634 1.856l1.268 3.641-1.339.493-2.208-6.248 1.762-.141h.023zm23.394-10.758l1.316-.47.869 2.208c1.245-1.033 2.583-1.527 4.04-.54 1.268.846 1.902 2.607 1.55 4.134-.235 1.034-.893 1.738-1.903 2.02l-3.03.681-2.842-8.056v.023zm2.795 3.617c-.023 1.362.893 2.725 1.856 2.748.916.023 1.691-.728 1.715-1.691 0-1.339-.94-2.654-1.95-2.678-.939 0-1.597.658-1.621 1.621zM55.267 38.168l1.315-.47.845 2.208c1.292-1.01 2.654-1.55 4.11-.47 1.339 1.01 1.785 2.419 1.48 4.04-.188 1.033-.846 1.762-1.856 2.067-.939.282-1.926.446-3.053.681l-2.842-8.056zm6.365 4.604c-.023-1.386-1.01-2.631-2.043-2.584-.94.047-1.55.728-1.527 1.715 0 1.409.963 2.701 1.95 2.654.94-.023 1.644-.799 1.621-1.785zm24.78-8.339c-.023 1.855-1.55 3.218-3.476 3.147-1.738-.047-3.171-1.715-3.171-3.688 0-1.856 1.48-3.241 3.429-3.218 1.809.023 3.265 1.738 3.241 3.758h-.023zm-3.453-2.443c-.987.024-1.738.846-1.715 1.832.047 1.386.963 2.466 2.02 2.396.987-.047 1.668-.752 1.668-1.738 0-1.315-.987-2.537-1.973-2.513v.023zm-30.158 9.513c1.832 0 3.288 1.644 3.312 3.688 0 1.856-1.48 3.241-3.406 3.218-1.785-.024-3.265-1.738-3.241-3.758.023-1.809 1.456-3.171 3.359-3.171l-.023.023zm1.808 3.876c.024-1.268-.916-2.56-1.902-2.584-.916 0-1.738.752-1.785 1.644-.07 1.292.822 2.537 1.832 2.607 1.034.047 1.832-.658 1.855-1.668zm57.64-20.176c0 1.809-1.409 3.194-3.312 3.218-1.808.023-3.312-1.597-3.359-3.641-.047-1.856 1.41-3.288 3.359-3.265 1.832 0 3.288 1.644 3.288 3.688h.024zm-1.503.141c0-1.315-.987-2.537-1.973-2.513-.94.023-1.691.798-1.715 1.715 0 1.339.869 2.513 1.903 2.513s1.785-.728 1.761-1.738l.024.023zM64.31 42.231c.611-.399 1.057-.845 1.855-.305.329.235 1.057 0 1.527-.164.235-.071.446-.587.399-.846-.047-.211-.47-.47-.752-.493-.775-.047-1.55.023-2.349 0-1.339-.071-2.02-1.339-1.362-2.513.892-1.644 3.5-1.903 4.815-.423-.54.423-.986.939-1.785.376-.235-.188-.799-.094-1.127.047-.305.141-.493.54-.728.799.305.164.587.446.916.47.728.07 1.48-.047 2.231 0 1.268.094 2.043 1.268 1.574 2.419-.493 1.221-1.644 1.621-2.819 1.809-.986.164-1.809-.211-2.396-1.174zm15.314-5.684c-.047 2.02-.939 3.077-2.537 3.382-1.621.282-2.983-.564-3.617-2.278-.634-1.691-.164-3.288 1.221-4.11 1.409-.845 2.866-.611 4.017.681l-1.081.822c-.211-.141-.423-.376-.634-.399-.493-.07-1.034-.141-1.456 0-.799.329-.939 1.08-.799 1.879.188.963.54 1.879 1.621 2.067.775.141 1.362-.235 1.809-.986.235-.399.822-.611 1.48-1.033l-.023-.023zM47.869 53.13l-.399-1.151c1.127-.258 1.057-.963.728-1.809l-2.208-6.248 1.315-.54 2.678 7.751c.329 1.033-.47 1.691-2.114 1.973v.024zm55.901-19.965l-.4-1.151c1.151-.258 1.034-.963.729-1.809l-2.208-6.248 1.315-.54 2.654 7.657c.353 1.127-.376 1.808-2.09 2.09zm-3.735-1.55l-1.315.517-.728-8.996 1.362-.47.705 8.972-.024-.024zm-28.96 8.643l1.362-.446.493 1.315-1.339.517-.517-1.386zm31.779-17.803l-1.292.446-.446-1.174 1.268-.47.47 1.198zM46.483 41.221l.47 1.174-1.292.47-.446-1.198 1.268-.47v.024z" fill="#0a0a0a"/><path d="M68.28 135.995l.869 2.373c-1.057-.494-1.198-1.363-1.268-2.255l.423-.118h-.023zm-5.403 1.95l.752 2.349-.446.141-.822-2.326.517-.164z" fill="#022325"/><path d="M29.9 48.738c-.493-2.278-.493-2.302 2.255-3.241 1.198-.399 1.433-.235 2.325 1.597l1.832-.634c.846-.305 1.48-.07 1.785.752l2.067 5.708c.282.799 0 1.433-.892 1.738l-8.127 2.913c-1.033.376-1.644.023-1.996-.963l-1.832-5.05c-.47-1.339-.258-1.785 1.127-2.302l1.456-.564v.047zm3.053-2.278l-2.184.846.517 1.268c.446-.916 2.231-.211 1.668-2.114z" fill="#7a7a7a"/><path d="M114.198 22.055a1.55 1.55 0 0 1 1.621-1.621c1.01 0 1.973 1.339 1.95 2.678 0 .963-.799 1.738-1.715 1.691-.986-.023-1.903-1.386-1.856-2.748zM61.632 42.772c0 .986-.681 1.762-1.621 1.785-.986.023-1.95-1.245-1.95-2.654 0-.986.587-1.668 1.527-1.715 1.033-.047 2.02 1.198 2.043 2.584zM82.96 31.991c.986-.024 1.95 1.198 1.973 2.513 0 .986-.658 1.691-1.668 1.738-1.057.047-1.973-1.034-2.02-2.396a1.75 1.75 0 0 1 1.715-1.832v-.023zM54.61 45.379c0 1.01-.822 1.715-1.856 1.668-1.01-.047-1.903-1.315-1.832-2.607.047-.916.869-1.668 1.785-1.644.986 0 1.926 1.315 1.902 2.584zm56.136-20.035c0 1.01-.728 1.738-1.762 1.738s-1.926-1.198-1.902-2.513c0-.939.775-1.691 1.714-1.715.987-.023 1.95 1.198 1.973 2.513l-.023-.024z" fill="#f7f7f7"/><path d="M32.954 46.459c.54 1.879-1.245 1.174-1.668 2.114l-.517-1.268 2.184-.846z" fill="#ddd"/></g><defs><clipPath id="A"><path fill="#fff" d="M0 0h200v211.086H0z"/></clipPath></defs></svg>