<svg width="280" height="280" viewBox="0 0 280 280" fill="none" xmlns="http://www.w3.org/2000/svg"><path d="M199.445 81.675c-2.488-2.543-5.523-4.785-7.383-7.738-2.816-4.43-6.043-8.777-7.164-14.137-1.094-5.141-2.269-10.254-2.023-15.531.273-6.371 2.051-12.168 5.797-17.445 3.718-5.25 8.121-9.844 13.261-13.535 3.063-2.187 7-3.227 10.528-4.758 4.785-2.078 9.953-2.27 14.957-3.281 1.668-.328 3.363-.656 5.086-.793 4.265-.301 8.34.684 12.277 2.242 1.066.438 2.215.766 3.336 1.012 2.352.52 4.074 2.105 5.961 3.391 2.762 1.859 4.922 4.348 7.246 6.727 4.184 4.238 6.918 9.379 9.734 14.437.793 1.395.957 3.145 1.395 4.758.055.219 0 .465.082.684 1.996 5.988 2.16 12.223 1.148 18.266-1.093 6.48-2.625 13.043-7 18.348-1.504 1.805-3.363 3.309-5.058 4.949-.492.465-.903 1.012-1.422 1.422-1.285 1.039-2.625 1.969-3.883 3.008-2.652 2.188-5.961 2.68-9.133 3.527-.82.219-1.668.355-2.488.52.027-1.969-1.094-3.117-2.844-3.691-1.312-.437-2.679-.766-4.156-1.176l3.063-10.582c.273-.957.792-1.394 1.667-1.695 1.696-.602 3.391-1.23 5.004-2.023 1.586-.766 2.625-2.187 2.981-3.883.301-1.586.465-3.254.328-4.867-.191-2.215-1.395-4.047-3.582-4.73-2.16-.684-3.582.766-4.731 2.406-1.996 2.871-3.144 6.07-3.773 9.488-4.293.711-7.766.656-10.227-1.613 1.586-3.609 3.063-7.219 3.336-11.238.164-2.461-.711-4.348-2.734-5.277-1.996-.93-4.348-.437-5.988 1.23-2.707 2.789-3.391 6.152-2.653 9.816.383 1.859 1.149 3.637 1.887 5.824-2.707.055-5.414.191-8.121.137-.492 0-1.312-.602-1.422-1.066-1.039-3.773-1.969-7.602-2.898-11.43-.574-2.297-2.543-4.484-4.266-4.676-2.543-.273-5.195 1.285-6.07 3.691-1.231 3.363-.684 6.563 1.312 9.434 1.696 2.434 3.856 4.457 6.481 5.961.383.219.902.82.847 1.148-.41 2.898-.957 5.769-1.476 8.75-1.094-.109-2.215-.383-3.254-.219-1.012.164-2.188.574-2.844 1.285-.656.684-.765 1.914-1.121 2.926z" fill="#186efd"/><path d="M108.527 180.879c1.859-.574 2.214-.52 3.281 1.094l6.262 9.98 7.929 12.195c.684 1.039 1.504 2.024 2.379 3.2l2.543-4.403c.192-.355.383-.738.656-1.039l7-7.957c.301-.328.985-.301 1.504-.437.028.519.274 1.121.055 1.531l-3.281 5.933c-.11.192-.192.438-.328.602-2.297 2.543-3.118 5.961-4.922 8.805-.547.875-.274 2.461 0 3.636.273 1.258.957 2.434 1.558 3.582 1.34 2.543 4.676 2.325 6.645-.218 2.844-3.637 4.101-7.93 5.332-12.223 1.504-5.305 2.844-10.637 4.238-15.969.11-.437.028-.929.219-1.34.191-.464.602-.847.902-1.257.301.41.875.82.903 1.257.109 2.079.273 4.211.027 6.262-.738 6.071-1.504 12.141-3.172 18.047-.957 3.391-2.734 6.316-4.785 9.078-1.367 1.86-3.473 2.707-5.606 3.391-4.046.656-8.23-.356-10.554-7.465-1.914 2.598-4.512 4.129-7.274 5.469-.464.027-.902.082-1.367.109-5.742.52-10.09-2.078-12.469-7.355-1.914-4.239-3.8-8.504-4.293-13.207l-.902-8.504-.738-10.09-8.012.492c-1.531.082-3.09.109-4.621.164-1.777.055-2.707-1.012-3.391-2.598-1.504 1.559-3.227 1.778-5.223 1.45-2.461-.41-4.949-.602-7.437-.821-3.527-.3-4.676-1.804-4.047-5.332l.793-4.402c-.027-.164-.027-.328-.055-.492-.055.109-.109.191-.164.301-.902 1.066-1.832 2.105-2.652 3.226-.383.52-.574 1.203-.82 1.832-.355.875-.602 1.805-1.066 2.598-.629 1.121-1.777 1.476-2.789.957-1.094-.574-1.559-1.504-1.203-2.707l1.34-4.676c-.109-.055-.246-.137-.355-.191-.547.82-1.312 1.558-1.586 2.461-.875 3.035-1.012 3.226-3.883 3.418-1.996-.821-3.992-1.586-6.262-1.504-.957.027-1.969-.301-2.871-.684-1.832-.793-2.324-2.57-1.312-4.266.191-.3.383-.601.547-.929.957-1.532 1.969-3.008 2.871-4.594l8.723-15.313c.711-1.257 1.777-2.296 2.57-3.527 1.777-2.789 3.691-5.496 5.168-8.422 4.238-8.422 9.625-15.996 15.695-23.133.465-.546 1.012-1.039 1.531-1.558 4.813-4.649 10.254-8.559 15.668-12.387 3.418-2.433 7.574-3.801 11.348-5.769 2.843-1.476 5.769-2.598 8.996-2.762 2.926-.164 5.824-.027 8.668.984 1.312.465 2.762.52 4.101.848 4.02 1.012 7.793 2.652 11.266 4.894 4.047 2.598 8.066 5.223 11.977 8.012 1.832 1.313 3.363 3.035 4.976 4.621 1.094 1.067 2.024 2.297 3.09 3.418 1.805 1.86 1.203 4.321-1.367 4.813-1.75.355-3.61.246-5.414.301l-6.235.109c-1.859.055-3.746.301-5.578.137-.847-.082-1.777-.766-2.433-1.422-1.887-1.86-3.664-3.828-5.469-5.742a2.84 2.84 0 0 0-.328.273l1.941 4.402c.465 1.039.574 2.078-.437 2.844-1.039.793-2.133.356-2.789-.465-1.86-2.269-3.555-4.703-5.332-7.054-.411-.547-.848-1.067-1.258-1.614-.11.082-.219.164-.356.219.356.684.766 1.367 1.067 2.078.929 2.024-.055 3.746-2.297 3.774-4.485.082-8.723 1.148-12.988 2.488-3.665 1.148-6.918 2.844-9.872 5.168-.492.383-.875 1.176-.929 1.805l-1.094 16.05c-.055 1.094-.383 1.969-1.477 2.352-1.148.383-1.969-.082-2.707-1.012-1.641-2.078-3.91-2.625-6.426-2.515a1.22 1.22 0 0 0-.82.382c-1.859 2.188-3.418 4.594-2.734 7.629.656 2.899 2.871 4.512 5.551 5.524.492.191 1.039.273 1.586.41 2.652.601 4.512 1.941 5.797 4.539 2.05 4.183 4.648 8.066 6.836 12.168.985 1.859 1.559 3.965 2.352 5.961h-.191c.027.054.027.109.054.164-.027.027 0-.027.028-.082zm-3.391 2.871l.438 7.547a292.43 292.43 0 0 0 .902 9.871c.492 4.566 2.269 8.75 4.484 12.715.821 1.476 2.352 2.843 3.883 3.609 1.121.574 3.008.547 4.156 0 2.16-1.012 3.938-2.652 5.414-4.594.875-1.148 1.067-2.023 0-3.144-.793-.848-1.449-1.86-2.078-2.844l-9.16-14.601c-1.394-2.27-2.762-4.567-4.074-6.891-.547-.984-.957-2.051-1.422-3.035-.602.273-1.449.738-2.543 1.367z" fill="#010101"/><path d="M45.172 171.908l-.547.929c-1.012 1.696-.519 3.473 1.313 4.266.902.383 1.914.711 2.871.684 2.242-.055 4.238.683 6.262 1.503 3.855 3.254 7.82 6.344 11.484 9.79 2.379 2.269 4.238 5.058 6.371 7.601l9.133 10.828c2.898 3.555 5.496 7.274 7.465 11.457.875 1.887 1.969 3.637 3.008 5.551.273-.027.519-.082.766-.082 1.258.055 2.324.492 2.789 1.75s.219 2.406-.738 3.363c-5.141 5.114-10.664 9.735-16.816 13.672-6.426 4.129-12.551 8.75-18.649 13.344-1.969 1.476-3.555 3.5-5.25 5.359-1.285 1.395-2.652 2.571-4.676 2.215-1.395-.246-2.187-1.203-2.652-2.598-1.285-4.074-2.543-8.148-4.074-12.14-1.285-3.336-3.445-6.152-5.879-8.723-2.816-2.98-5.332-6.289-8.449-8.887-4.867-4.046-10.09-7.656-15.258-11.347-2.187-1.586-4.566-2.899-6.918-4.293-1.859-1.094-2.352-3.008-1.176-4.567l6.18-8.23c1.039-1.367 2.16-2.68 3.199-4.074 2.981-3.938 4.539-8.586 6.398-13.071 1.422-3.39 2.844-6.808 3.883-10.336.711-2.433.93-5.085.984-7.628.055-2.844 2.078-3.883 4.539-3.036 5.086 1.696 10.008 3.664 14.437 6.7zm-7.191 22.75c-1.613.738-1.969 1.558-1.75 3.308.082.656-.137 1.477-.52 2.051-1.312 2.078-2.707 4.074-4.102 6.07-.437.629-1.012 1.149-1.477 1.75-.355.465-.602.985-.902 1.504 4.813-2.379 7.684-6.316 10.117-10.965 1.969-.246 2.652-1.285 2.297-3.992 2.789-.82 3.5-2.734 1.969-5.277l-.574-.93c-.383-.683-.902-1.422-1.668-.875-.492.356-.602 1.258-.793 1.914-.055.219.109.52.191.766-3.445.519-3.691.93-2.789 4.676zm-1.477 24.089c.738-.246 1.258-.328 1.641-.601 2.488-1.559 5.086-2.981 6.453-5.824.492-1.012 1.176-1.942 1.832-2.844l5.688-8.121c.246-.383 0-1.094-.027-1.641-.492.055-1.148-.054-1.395.219-2.133 2.406-4.348 4.785-6.262 7.355-2.461 3.336-4.648 6.891-8.75 8.614-.383.164-.684 1.23-.52 1.722.164.465.93.766 1.34 1.121zm10.391 8.75c.547-.3.984-.464 1.34-.71 5.906-4.239 9.188-10.61 13.098-16.434.137-.219-.055-.93-.328-1.121s-.902-.137-1.176.055c-.465.328-.82.847-1.148 1.312-3.691 5.113-7.191 10.363-12.496 14.027-.191.11-.383.329-.41.52-.082.465-.219 1.012-.055 1.367.191.41.738.656 1.176.984zm10.746 5.907c.82-.438 1.449-.629 1.887-1.067 2.598-2.488 5.141-5.031 7.656-7.574.191-.191.164-.629.246-.93-.356.028-.793-.054-1.039.137-1.039.793-1.969 1.777-3.035 2.516-2.024 1.422-4.156 2.679-6.18 4.101-.383.274-.793.985-.711 1.395.109.492.711.902 1.176 1.422z" fill="#186efd"/><path d="M243.687 158.728h4.156c3.254.082 4.266.875 4.348 4.047l.219 25.649c-.055 3.937-.93 7.82-1.313 11.758l-1.066 11.812c-1.778 14.93-5.059 29.395-13.207 42.383-3.746 5.961-8.477 10.582-15.012 13.289-2.762 1.148-5.469 2.406-8.258 3.418-3.637 1.312-7.383.547-11.074.301-.93-.055-1.449-.739-1.367-1.723.082-1.121.793-1.613 1.804-1.641 1.504-.054 3.036.164 4.512-.054 2.133-.301 4.348-.575 6.289-1.395 3.008-1.258 5.852-2.871 8.696-4.457 4.457-2.516 7.109-6.644 9.707-10.855 5.879-9.489 9.515-19.77 11.046-30.789.93-6.645 1.504-13.344 2.27-19.989l1.449-12.031c.11-.957.164-1.914.164-2.844l-.027-17.883c0-1.121-.109-2.242-.191-3.445-.957 0-1.805-.027-2.68 0-6.809.137-13.645.301-20.426-.793-.984-.164-1.996 0-3.008-.027l-8.258-.328-8.968-.438c-1.313-.054-2.625 0-4.075 0-.136.903-.41 1.832-.382 2.762.082 4.84-1.368 9.379-2.352 14.027-1.695 7.739-3.363 15.504-3.445 23.516 0 1.121-.055 2.297-.328 3.391-.274 1.066.054 1.886.519 2.816 1.34 2.762 2.625 5.523 3.801 8.367.93 2.242-.52 5.387-2.953 6.07-1.613.438-3.418.493-5.086.301-1.777-.191-2.899-1.832-3.063-3.664-.246-2.433.356-4.703 1.258-6.89 1.067-2.543.793-4.704-1.176-6.672-.574-.575-1.039-1.285-1.421-1.996-2.571-4.786-6.043-8.914-9.297-13.207-2.078-2.735-4.075-5.524-6.098-8.286-.301-.41-.738-.683-1.012-1.093-1.23-1.805-2.953-1.532-4.73-1.176l-13.262 2.707c-.383.082-.82.355-1.012.683-1.449 2.297-2.816 4.622-4.211 6.946-.191.301-.246.656-.382.984-.438.985-1.203 1.531-2.27 1.367-1.121-.191-1.996-.929-1.941-2.105.027-.902.355-1.859.793-2.652l5.359-9.106c1.203-2.16 2.352-4.375 3.309-6.672 1.066-2.515 1.886-5.14 2.816-7.738.711-1.996 1.613-3.938 2.078-6.016.629-2.761 1.121-5.605 1.367-8.422.493-5.714.766-11.429 1.176-17.144.082-1.176.301-2.324.52-3.5.054-.219.383-.547.574-.547.219 0 .629.246.684.465.273 1.039.574 2.105.683 3.172.328 3.472.383 7 .875 10.445.328 2.242 1.367 4.375 1.942 6.617 2.105 8.231 4.21 16.461 5.386 24.91.055.465.383 1.039.766 1.258 2.734 1.531 4.758 3.801 6.59 6.235 1.941 2.57 3.582 5.359 5.633 7.82 2.816 3.391 5.386 6.945 7.546 10.801.055.082.192.136.356.246.109-2.106.082-4.129.383-6.125l3.39-21.055c.547-3.609.848-7.273 1.285-10.91.165-1.258.274-2.543.602-3.746.492-1.86 1.559-2.57 3.5-2.598.875 0 1.723.055 2.598.055h2.57c-.656-2.106-1.176-4.211-1.941-6.207-1.532-4.047-1.805-8.231-1.668-12.469.109-3.664.382-7.355.683-11.019.246-3.036 1.86-4.184 4.922-3.965 2.707.191 5.441.218 8.176.273 2.051.055 3.117.656 3.828 2.598.465 1.258.684 2.57 1.121 4.265.602-1.121 1.148-1.941 1.531-2.871 1.778-4.429 1.723-9.023 1.094-13.644-.273-1.942.875-3.61 2.981-3.692 1.996-.082 3.992-.109 5.988 0 2.051.11 3.062 1.778 3.527 3.364 1.012 3.5 1.996 7.109 1.285 10.828-.246 1.23-.492 2.488-.902 3.664-.137.383-.984.957-1.148.848-.493-.329-1.094-.875-1.176-1.422-.219-1.696-.055-3.473-.383-5.168-.438-2.243-1.176-4.43-1.859-6.645-.082-.246-.575-.519-.875-.519-.575-.055-1.176.082-1.969.164.82 8.121-.246 15.695-6.863 21.246 1.449 1.668 2.898 3.09 4.019 4.703 1.066 1.586 1.859 3.391 2.652 5.168.356.793.164 1.613-.765 2.051-.957.437-1.668.027-2.024-.766-.765-1.723-2.187-2.734-3.609-3.801l-4.977-3.828c-1.503-1.176-2.105-2.816-2.214-4.621-.11-1.668-.055-3.363-.11-5.059-.027-.957-.437-1.449-1.504-1.394-1.64.082-3.281.027-5.004.027-.136 1.094-.382 2.106-.382 3.145.027 4.183-.301 8.422.3 12.523.52 3.61 2.078 7.082 3.254 10.582.328.957 1.012 1.477 2.188 1.696 3.254.574 6.453.738 9.761.546 2.379-.136 4.786.383 7.192.493 3.5.164 7 .246 10.5.3.301 0 .82-.382.902-.683 1.367-4.403 3.828-8.176 6.399-11.922 1.34-1.941 2.543-3.965 3.965-5.852 2.871-3.855 3.664-8.285 3.828-12.961a15.75 15.75 0 0 1 .601-3.746c.356-1.148 1.094-2.187 2.516-2.078 1.394.11 1.75 1.285 1.969 2.434 1.558 7.793.218 14.957-4.758 21.301l-10.719 13.507zm-52.91 56.657l-.93 4.648 2.789-.492c0-.328.055-.492 0-.574-.519-1.067-1.094-2.133-1.859-3.582z" fill="#020202"/><path d="M119.984 222.633c2.762-1.34 5.387-2.871 7.274-5.469 2.324 7.109 6.508 8.121 10.555 7.465l15.066 16.789c.137.164.164.41.246.602-.273-.11-.574-.165-.793-.329l-4.539-3.226c-.82-.574-1.668-.602-2.297.191-.656.821-.492 1.668.274 2.434 3.336 3.39 7.054 6.234 11.375 8.23 3.965 1.832 8.011 2.188 12.004.055.847-.438 1.121.055 1.503.574-3.882 5.469-8.394 10.336-13.289 14.875-3.171 2.953-7.082 4.676-10.691 6.891-2.953 1.805-6.535 2.625-10.09 2.762-3.144.136-6.316 0-9.433-.274-1.395-.109-2.762-.766-4.047-1.367-4.895-2.27-9.653-4.785-13.481-8.695l-9.187-9.407c-2.653-2.734-4.348-6.097-6.043-9.433-1.039-2.078-.082-3.227 2.023-4.239 2.625-1.257 5.141-2.871 7.492-4.621s4.375-3.937 6.645-5.851c2.844-2.379 5.797-4.649 8.668-6.973.246-.246.492-.629.765-.984zm6.891 18.402c1.86.684 3.445-.793 3.418-3.09 0-.765-.41-1.476.574-1.914.11-.054.164-.656.055-.711-.766-.492-1.559-1.312-2.352-1.285-1.093.028-1.394 1.121-1.339 2.16.027.465.136.93.218 1.532-2.406-1.504-3.035-1.34-4.129 1.121-1.203-.219-2.105.246-2.789 1.23-.218.301-.492.52-.765.766l-8.395 7.547c-.164.164-.437.328-.437.519-.028.547-.137 1.258.164 1.586.273.328 1.039.383 1.531.301.41-.055.766-.465 1.094-.766 1.996-1.777 3.937-3.636 5.988-5.332 1.012-.82 2.242-1.859 3.418-1.914 1.641-.055 2.871-.273 3.746-1.75zm4.402 23.652c.137-.054.411-.136.629-.3 2.489-2.106 5.141-4.02 7.356-6.371 1.832-1.914 3.144-4.348 4.676-6.563.109-.137.082-.492-.028-.601-.164-.164-.547-.356-.711-.274-.464.246-.875.602-1.257.957-2.188 2.024-4.321 4.129-6.563 6.07-1.613 1.422-3.418 2.625-5.113 3.965-.301.246-.492.657-.602 1.039-.246 1.012.574 2.106 1.613 2.078zm4.622-21.054c-.137-.082-.247-.164-.383-.274-.274.192-.574.356-.821.575l-7.875 6.808-5.277 4.43c-.465.41-1.039.957-1.094 1.476-.082.602.164 1.504.575 1.86.574.465 1.367.273 1.804-.547.219-.383.574-.684.903-.984 1.804-1.641 3.691-3.227 5.441-4.895.875-.848 1.559-1.887 2.324-2.816l3.938-4.621c.273-.274.328-.657.465-1.012zm9.406 19.988c.383-.437.93-.82 1.121-1.34.219-.629-1.066-1.668-2.051-1.504-.437.082-1.066.766-1.066 1.176-.055 1.039.738 1.449 1.996 1.668z" fill="#186efc"/><path d="M199.445 81.676c.355-1.012.464-2.242 1.148-2.953.656-.711 1.832-1.121 2.844-1.285 1.039-.164 2.16.137 3.254.219l1.476-8.75c.055-.356-.465-.93-.847-1.148-2.598-1.504-4.758-3.5-6.481-5.961-1.996-2.871-2.516-6.098-1.312-9.434.875-2.406 3.527-3.965 6.07-3.691 1.723.191 3.691 2.352 4.266 4.676l2.898 11.43c.137.465.93 1.039 1.422 1.066l8.121-.137-1.887-5.824c-.738-3.664-.054-7.027 2.653-9.816 1.64-1.668 3.992-2.16 5.988-1.23 2.023.93 2.898 2.816 2.734 5.277-.273 4.02-1.75 7.629-3.336 11.238 2.461 2.242 5.934 2.297 10.227 1.613.629-3.391 1.75-6.617 3.773-9.488 1.149-1.641 2.571-3.09 4.731-2.406s3.363 2.516 3.582 4.73c.137 1.613-.028 3.281-.328 4.867-.328 1.695-1.368 3.117-2.981 3.883-1.613.793-3.308 1.422-5.004 2.023-.902.301-1.422.738-1.668 1.695l-3.062 10.582c1.476.41 2.844.738 4.156 1.176 1.75.574 2.844 1.723 2.844 3.691-1.012 2.023-.82 4.238-.957 6.398-.11 1.449-.11 2.926-.438 4.32-.738 3.144-2.816 5.251-5.933 5.879-4.321.875-8.723 1.723-13.125 1.942-7.821.383-15.203-1.723-22.395-4.676-2.406-.984-3.472-2.762-3.527-5.414-.055-3.527.437-6.945 1.012-10.418.218-1.34.054-2.734.082-4.074zm27.754-11.867l-1.122 9.734c-.027.219.329.656.547.738l9.215 2.16 2.242-10.937c-3.855.41-7.519.383-10.882-1.695zm-14.575.602l-1.23 7.547 10.883 1.23 2.214-9.488-11.867.711zm-4.84-7.328l-2.433-8.777c-.11-.383-.52-.656-.793-.984-.356.301-.875.574-1.012.957-.246.711-.328 1.504-.301 2.242.11 2.98 2.434 4.457 4.539 6.563zm17.5-1.887l.547.082 1.641-7.082c.082-.437-.219-.957-.328-1.449-.438.246-1.012.41-1.285.766-1.969 2.434-1.395 5.059-.575 7.684zm17.227 4.402c3.637-.793 4.922-3.145 3.445-6.234l-3.445 6.234z" fill="#010201"/><path d="M139.699 165.619l-1.832-6.316c-1.039-2.98.875-5.715 4.32-6.016l3.364-.355-.957-1.723-9.844-20.371c-.985-2.051-.219-3.91 1.941-4.566 2.106-.629 4.321-.957 6.508-1.313 4.102-.656 8.23-.765 12.277.41.821.247 1.668.575 2.27 1.149.383.355.601 1.34.383 1.75s-1.231.82-1.668.656c-3.227-1.394-6.508-.82-9.789-.437-2.078.218-4.102.683-6.153 1.039-.3.054-.574.218-.847.3.027.165.027.274.082.329.601 1.121.984 2.625 1.914 3.199.82.492 2.269-.164 3.445-.246 2.352-.137 4.703-.52 6.891.875.601.383 1.504.437 1.23 1.422-.273 1.039-1.094 1.093-1.969.765a1.69 1.69 0 0 0-.464-.082c-.055 1.039-.028 2.078-.219 3.035-.246 1.203-1.203 1.395-1.969.465-.684-.82-1.285-1.722-2.051-2.707l-2.953.957 5.77 10.61c1.011 1.996 2.05 4.046 2.597 6.207.629 2.433-.929 3.91-3.527 3.855-1.094-.027-2.16-.055-3.254 0-.383 0-.793.191-1.121.273l1.121 7.821c.109.957 0 1.996-.219 2.953-.464 1.996-1.886 2.926-3.855 2.461-8.231-2.024-15.668-5.578-21.82-11.567-.329-.328-.875-.546-1.34-.656-1.176-.273-1.75-1.203-1.258-2.187l1.422-2.871c.629-1.231 2.16-2.051 3.144-1.477.739.438 1.532 1.231 1.778 2.023.765 2.434 2.789 3.774 4.675 4.868 3.528 2.05 7.356 3.609 11.047 5.359.164.109.356.055.93.109z" fill="#020202"/><path d="M170.597 249.975c-.383-.52-.656-1.012-1.504-.575-3.992 2.133-8.039 1.778-12.004-.054-4.32-1.996-8.039-4.84-11.375-8.231-.738-.765-.902-1.613-.273-2.433.629-.793 1.476-.766 2.297-.192l4.539 3.227c.246.164.547.219.793.328l2.023 1.449 3.172 1.832c1.258.438 2.488 1.067 3.773 1.285 1.532.274 3.118.301 4.457-.82-.109-.383-.136-.82-.382-1.121-3.911-5.359-5.469-11.375-4.868-17.938.192-1.996.903-3.718 2.872-4.593 2.023-.93 3.828-.492 5.578.847 4.183 3.2 6.562 7.411 7.218 12.606.301 2.406-.328 4.676-1.64 6.726-1.039 1.641-2.215 3.2-3.364 4.84 4.239 5.032 8.997 9.571 14 13.864 1.286 1.093 2.571 2.16 3.774 3.335.355.356.437 1.012.656 1.532-.574-.082-1.285.054-1.668-.246l-16.543-14.219c-.492-.438-1.011-.957-1.531-1.449zm-1.313-6.262c.93-1.395 1.915-2.57 2.516-3.938.52-1.203 1.012-2.652.848-3.882-.52-3.938-2.379-7.192-5.66-9.516-.93-.656-1.395-.492-1.586.629-1.039 5.988.273 11.457 3.882 16.707z" fill="#030403"/><path d="M75.031 36.258c1.613.137 3.008 1.422 3.965 3.09 1.969 3.473 3.773 7.027 5.633 10.555l3.418 6.481c.492.93.574 1.777-.328 2.57s-1.695.438-2.57-.082c-2.926-1.695-4.73-4.457-6.562-7.109-1.805-2.598-3.473-5.277-5.25-7.875-.383-.547-.93-.984-1.394-1.449-1.094-1.121-1.395-2.461-.793-3.883.574-1.477 1.723-2.269 3.883-2.297zm53.485 18.537l1.777-13.973c.191-1.449 1.75-3.363 3.828-3.117 1.805.191 3.336 1.504 3.391 3.418.027.984-.137 1.996-.383 2.926l-2.734 10.226-2.215 7.41c-.328 1.039-1.121 1.477-2.106 1.285-1.039-.191-1.394-.957-1.367-2.023l.027-6.098c-.054-.027-.136-.027-.218-.055zm-16.38-.927c-.355.793-.683 1.887-1.258 2.789-.711 1.066-1.804.957-2.351-.219l-2.406-5.469c-2.051-4.184-3.391-8.586-4.375-13.125-.411-1.941.355-3.527 2.023-4.211 1.668-.656 3.5-.055 4.32 1.723.438.957.41 2.105.657 3.145l2.515 10.855c.328 1.395.547 2.762.875 4.512z" fill="#060606"/><path d="M127.149 122.993c2.761-.028 4.019.984 4.156 2.652.137 1.559-.903 2.789-2.488 3.008l-4.622.656c-2.132.41-4.32.711-6.316 1.449-2.516.93-4.894 2.27-7.328 3.418-.328.164-.656.547-.93.493-.656-.11-1.476-.274-1.804-.739-.247-.328 0-1.394.382-1.722 4.184-3.664 8.668-6.809 14.274-7.903 1.832-.383 3.609-1.011 4.676-1.312zm116.456.492l-1.449 5.961c-.219.957-.766 1.641-1.805 1.394-1.148-.3-1.339-1.257-1.121-2.296.739-3.664.356-7.301-.574-10.883-.273-1.067-.766-2.106-1.285-3.09-.902-1.668-.684-3.199.656-3.883 1.285-.656 2.406-.082 3.363 1.531 1.832 3.172 1.914 6.7 2.215 11.266zm8.122.352l-1.86 5.25c-.328.875-.875 1.668-1.258 2.543-.355.793-.902 1.149-1.722.848-.903-.328-.766-1.094-.575-1.832l.985-3.773c.683-3.774-.465-7.356-1.504-10.911-.465-1.613-.164-2.871 1.039-3.336 1.367-.546 2.844.137 3.227 1.805.683 3.008 1.093 6.043 1.668 9.406z" fill="#040404"/><path d="M58.078 70.384c-.492.519-.93 1.34-1.586 1.559-.711.219-1.914.164-2.352-.301-2.406-2.516-5.168-4.512-8.121-6.344-1.613-1.012-1.914-2.27-1.176-3.555.656-1.148 2.023-1.504 3.609-.711 3.664 1.777 6.508 4.539 8.996 7.711.328.356.383.902.629 1.641z" fill="#070707"/><path d="M128.488 138.359c0 .957.11 1.86-.054 2.735-.082.437-.493 1.011-.903 1.176-.301.109-.929-.247-1.203-.575-.683-.765-1.258-1.613-1.996-2.597-.93.328-1.996.847-3.117 1.039-1.012.164-2.188.246-3.09-.137-.574-.246-1.094-1.449-.984-2.105.109-.684.929-1.641 1.558-1.75 2.489-.465 5.004-.848 7.52-.848 1.449 0 2.926.738 4.32 1.285.246.082.465.793.383 1.148-.082.329-.547.711-.902.793-.438.082-.957-.109-1.532-.164z" fill="#030303"/><path d="M100.925 155.037c-.383.41-.738 1.094-1.203 1.203-.547.109-1.34-.109-1.805-.438l-4.977-3.882c-.082-.055-.164-.11-.246-.11-.738.082-1.777.137-1.34-.875.301-.683 1.641-1.504 2.324-1.34 2.598.602 4.84 1.969 6.59 4.02.301.328.383.793.656 1.422z" fill="#040404"/><path d="M166.523 245.793c-1.339 1.094-2.925 1.066-4.457.82-1.285-.218-2.515-.847-3.773-1.285l5.852.684c.765.054 1.558-.137 2.378-.219z" fill="#2e86e0"/><path d="M68.059 172.348l.164-.301c.027.164.027.328.055.492-.082-.055-.137-.137-.219-.191zm40.468 8.531c-.027.055-.054.137-.109.191-.027-.054-.027-.109-.055-.164h.192l-.028-.027z" fill="#fefefe"/><path d="M37.981 194.659c-.93-3.746-.684-4.156 2.816-4.621-.082-.274-.246-.547-.191-.766.191-.683.301-1.586.793-1.914.766-.547 1.285.192 1.668.875.164.328.383.629.574.93 1.531 2.543.82 4.457-1.969 5.277.383 2.68-.301 3.719-2.297 3.992-2.434 4.649-5.305 8.586-10.117 10.965.301-.492.547-1.039.902-1.504.465-.601 1.039-1.148 1.477-1.75 1.394-1.996 2.789-4.019 4.102-6.07.355-.574.574-1.394.52-2.051-.219-1.804.109-2.625 1.723-3.363z" fill="#020604"/><path d="M36.504 218.75c-.437-.328-1.176-.656-1.34-1.148-.137-.493.137-1.559.52-1.723 4.102-1.695 6.289-5.25 8.75-8.613 1.914-2.598 4.129-4.95 6.262-7.356.246-.273.93-.164 1.395-.219.027.547.274 1.258.027 1.641-1.832 2.734-3.801 5.414-5.687 8.121-.656.93-1.34 1.832-1.832 2.844-1.367 2.844-3.965 4.266-6.453 5.824-.383.274-.902.356-1.641.629z" fill="#020504"/><path d="M46.894 227.498c-.41-.328-.957-.574-1.176-.984-.191-.356-.027-.903.055-1.368.027-.191.246-.382.41-.519 5.305-3.664 8.805-8.914 12.496-14.027.355-.465.684-.985 1.148-1.313.301-.191.93-.246 1.176-.055s.465.903.328 1.121c-3.91 5.852-7.191 12.196-13.098 16.434-.383.274-.793.41-1.34.711z" fill="#020604"/><path d="M57.64 233.406c-.465-.519-1.066-.929-1.203-1.449-.109-.383.301-1.121.711-1.394l6.18-4.102c1.066-.738 1.996-1.723 3.035-2.516.246-.191.684-.082 1.039-.136-.082.328-.055.738-.246.929l-7.656 7.574c-.41.465-1.066.657-1.859 1.094z" fill="#030806"/><path d="M126.875 241.035c-.902 1.477-2.106 1.695-3.719 1.75-1.176.055-2.406 1.067-3.418 1.914l-5.988 5.332c-.328.301-.711.711-1.094.766-.519.082-1.258.027-1.531-.301-.301-.328-.191-1.039-.164-1.586 0-.164.273-.355.437-.519l8.395-7.547c.273-.246.547-.492.766-.766.683-.984 1.585-1.449 2.789-1.23 1.093-2.434 1.722-2.625 4.128-1.121l-.218-1.532c-.055-1.039.246-2.16 1.34-2.16.793 0 1.586.793 2.351 1.285.11.082.055.684-.055.711-1.011.438-.601 1.149-.574 1.914 0 2.297-1.586 3.774-3.445 3.09zm4.402 23.653c-1.039.027-1.86-1.067-1.586-2.024.109-.383.301-.82.601-1.039l5.114-3.965 6.562-6.07c.383-.356.793-.711 1.258-.957.137-.082.52.109.711.273.109.11.137.465.027.602-1.531 2.215-2.843 4.621-4.676 6.562-2.214 2.352-4.894 4.266-7.355 6.371-.219.137-.52.192-.656.247z" fill="#020604"/><path d="M135.898 243.633c-.137.328-.191.738-.438 1.012l-3.937 4.621c-.793.929-1.449 1.996-2.324 2.816l-5.442 4.895c-.328.3-.711.601-.902.984-.438.848-1.23 1.012-1.805.547-.437-.356-.683-1.258-.574-1.86.082-.546.629-1.093 1.094-1.476l5.277-4.43 7.875-6.808c.246-.219.547-.383.82-.575.11.11.247.192.356.274zm9.406 19.986c-1.257-.219-2.05-.602-1.996-1.641.028-.437.657-1.121 1.067-1.176.957-.164 2.242.875 2.051 1.504-.192.465-.739.875-1.122 1.313z" fill="#030806"/><path d="M227.199 69.809c3.391 2.078 7.027 2.106 10.883 1.695l-2.243 10.938-9.214-2.16c-.246-.055-.575-.492-.547-.738l1.121-9.734z" fill="#196ff9"/><path d="M212.625 70.41l11.867-.711-2.215 9.488-10.882-1.231 1.23-7.547z" fill="#186ffb"/><path d="M207.785 63.082c-2.078-2.105-4.402-3.582-4.539-6.562a6.94 6.94 0 0 1 .301-2.242c.137-.383.656-.629 1.012-.957.273.328.683.629.793.984l2.433 8.777z" fill="#1970f8"/><path d="M225.285 61.195c-.793-2.625-1.395-5.223.574-7.656.301-.355.848-.52 1.285-.766.109.492.41 1.012.328 1.449l-1.64 7.082c-.192-.055-.356-.082-.547-.109z" fill="#1970f5"/><path d="M242.512 65.598l3.445-6.234c1.477 3.09.191 5.441-3.445 6.234z" fill="#1a72f3"/></svg>