<svg xmlns="http://www.w3.org/2000/svg" width="114.805" height="114.805" viewBox="0 0 114.805 114.805"><path d="M0,77.247,9.363,54.619,0,31.991l22.628-9.363L31.991,0,54.619,9.363,77.247,0,86.61,22.628l22.628,9.363L99.875,54.619l9.363,22.628L86.61,86.61l-9.363,22.628L54.619,99.875l-22.628,9.363L22.628,86.61Z" transform="rotate(93 54.69 57.332)" fill="#e0f2ff"/><path d="M11.342,3A8.34,8.34,0,0,0,3,11.342v58.4a8.342,8.342,0,0,0,8.342,8.342h58.4a8.342,8.342,0,0,0,8.342-8.342v-9.51a8.345,8.345,0,0,0,4.171-7.174V28.027a8.345,8.345,0,0,0-4.171-7.174v-9.51A8.342,8.342,0,0,0,69.738,3h-58.4m0,8.342h58.4v8.342H44.711a8.342,8.342,0,0,0-8.342,8.342V53.053A8.342,8.342,0,0,0,44.711,61.4H69.738v8.342h-58.4v-58.4M44.711,28.027h29.2V53.053h-29.2V28.027m12.513,6.257a6.257,6.257,0,1,0,6.257,6.257A6.257,6.257,0,0,0,57.224,34.283Z" transform="matrix(-.998 -.07 .07 -.998 85.569 103.262)" fill="#fd9500"/><g transform="rotate(2 9733.05 -21066.618)"><ellipse cx="26.073" cy="25.984" rx="26.073" ry="25.984" transform="rotate(9 -1688.778 5283.527)" fill="#5d9cfa"/><path d="M11.467,30.382A13.171,13.171,0,0,1,6.361,29.5,9.191,9.191,0,0,1,2.9,27.048,10.461,10.461,0,0,1,.876,23.44a16.8,16.8,0,0,1-.8-4.367Q.032,17.934.011,16.562t0-2.764q.021-1.392.063-2.574a14.748,14.748,0,0,1,.8-4.367A10.377,10.377,0,0,1,2.964,3.291,9.628,9.628,0,0,1,6.446.886,12.924,12.924,0,0,1,11.467,0a13.047,13.047,0,0,1,5.064.886,9.628,9.628,0,0,1,3.481,2.405,10.113,10.113,0,0,1,2.068,3.566,15.2,15.2,0,0,1,.781,4.367q.084,1.182.084,2.574v2.764q0,1.371-.084,2.511a15.693,15.693,0,0,1-.76,4.367,10.461,10.461,0,0,1-2.025,3.608A9.16,9.16,0,0,1,16.594,29.5,13.331,13.331,0,0,1,11.467,30.382Zm0-4.853a4.623,4.623,0,0,0,4.03-1.793,8.416,8.416,0,0,0,1.329-4.874q.084-1.224.084-2.469V13.883q0-1.266-.084-2.405A8.465,8.465,0,0,0,15.5,6.646a4.581,4.581,0,0,0-4.03-1.836A4.536,4.536,0,0,0,7.479,6.646a8.692,8.692,0,0,0-1.371,4.832q0,1.139-.021,2.405t0,2.511q.021,1.245.021,2.469A8.523,8.523,0,0,0,7.5,23.736,4.587,4.587,0,0,0,11.467,25.529Z" transform="rotate(8 -2038.673 6024.248)" fill="#fff"/></g></svg>