<svg xmlns="http://www.w3.org/2000/svg" width="307.743" height="303.332" viewBox="0 0 307.743 303.332"><path d="M0,192.477l23.331-56.382L0,79.713,56.382,56.382,79.713,0l56.382,23.331L192.477,0l23.331,56.382,56.382,23.331-23.33,56.382,23.331,56.382-56.382,23.33-23.33,56.382-56.382-23.33L79.713,272.19,56.382,215.808Z" transform="rotate(7 18.791 307.23)" fill="#e0f2ff"/><path d="M94.418,2A74.757,74.757,0,1,1,31.846,117.35l11.812-9.345A59.691,59.691,0,1,0,35.21,69.281H55.843L27.884,97.166,0,69.281H20.11A74.729,74.729,0,0,1,94.418,2" transform="translate(0 25.125)" fill="#5d9cfa"/><path d="M113.594,66.468a16.212,16.212,0,0,1,16,16.177v81.063a16.248,16.248,0,0,1-16.177,16.177H16.177A16.248,16.248,0,0,1,0,163.708V82.646A16.212,16.212,0,0,1,16,66.468V48.708a48.8,48.8,0,0,1,97.592,0v17.76M64.71,24.618a24.127,24.127,0,0,0-24.09,24.09v17.76H88.976V48.708A24.165,24.165,0,0,0,64.71,24.618Z" transform="rotate(10.02 -103.487 674.944)" fill="#fdaa33"/></svg>