<svg xmlns="http://www.w3.org/2000/svg" width="150" height="31.596" viewBox="0 0 150 31.596"><g transform="translate(-1427.573 -452.92)" fill="#4c72ef"><path id="Контур_3" data-name="Контур 3" d="M1432.568,481.287a7.724,7.724,0,0,1-1.812-5.478V465.6h-3.183v-4.246h3.183v-6.365h5.571v6.365h5.083V465.6h-5.083v9.5a4.4,4.4,0,0,0,.749,2.893,3.522,3.522,0,0,0,2.743.862,6.263,6.263,0,0,0,2.694-.619v4.245a12.634,12.634,0,0,1-4.639.749A6.9,6.9,0,0,1,1432.568,481.287Z" transform="translate(0 1.284)"/><path id="Контур_4" data-name="Контур 4" d="M1437.081,477.842a6.664,6.664,0,0,1-2.433-5.414,6.919,6.919,0,0,1,2.3-5.525,9.557,9.557,0,0,1,6.455-1.991,13.987,13.987,0,0,1,6.937,1.635v-.572a3.772,3.772,0,0,0-1.39-3.271,7.712,7.712,0,0,0-4.486-1.017,19.986,19.986,0,0,0-3.848.373,15.255,15.255,0,0,0-3.357,1.041v-4.376a14.577,14.577,0,0,1,3.555-1.017,24.365,24.365,0,0,1,4.31-.4q5.525,0,8.177,2.362a8.338,8.338,0,0,1,2.652,6.563V479.19h-5.257v-2.08a9.6,9.6,0,0,1-3.118,2.033,11.326,11.326,0,0,1-4.262.707A9.447,9.447,0,0,1,1437.081,477.842Zm10.962-2.787a5.389,5.389,0,0,0,2.3-2.008V470.7a9.385,9.385,0,0,0-5.566-1.726q-4.464,0-4.467,3.45a2.933,2.933,0,0,0,1.127,2.517,5.359,5.359,0,0,0,3.249.84A7.613,7.613,0,0,0,1448.042,475.055Z" transform="translate(10.296 4.665)"/><path id="Контур_5" data-name="Контур 5" d="M1445.394,452.92h5.566v30.935h-5.566Z" transform="translate(23.72)"/><path id="Контур_6" data-name="Контур 6" d="M1452.908,476.889a10.308,10.308,0,0,1-3.447-8.262,11.169,11.169,0,0,1,3.049-8.265q3.05-3.05,8.707-3.05a13.224,13.224,0,0,1,6.343,1.414,9.435,9.435,0,0,1,3.955,3.867,11.563,11.563,0,0,1,1.326,5.589v2.564h-18.078q.571,4.729,8.221,4.729a25,25,0,0,0,4.155-.354,18.68,18.68,0,0,0,3.712-.97v4.285a18.071,18.071,0,0,1-3.867,1.016,28.106,28.106,0,0,1-4.707.4Q1456.356,479.851,1452.908,476.889Zm14.674-9.945a4.955,4.955,0,0,0-1.79-3.889,7.239,7.239,0,0,0-4.663-1.368,6.9,6.9,0,0,0-4.6,1.414,5.015,5.015,0,0,0-1.768,3.843Z" transform="translate(28.232 4.665)"/><path id="Контур_7" data-name="Контур 7" d="M1460.783,457.973h5.392v2.873a9.2,9.2,0,0,1,3.58-2.674,11.349,11.349,0,0,1,4.376-.859q4.288,0,6.408,2.32a8.781,8.781,0,0,1,2.122,6.166V479.19h-5.569V466.326q0-4.637-4.332-4.638a7.426,7.426,0,0,0-3.579.906,7.629,7.629,0,0,0-2.829,2.716V479.19h-5.569Z" transform="translate(42.896 4.665)"/><path id="Контур_8" data-name="Контур 8" d="M1476.038,481.287a7.725,7.725,0,0,1-1.813-5.478V465.6h-3.182v-4.246h3.182v-6.365h5.567v6.365h5.085V465.6h-5.085v9.5a4.4,4.4,0,0,0,.754,2.893,3.517,3.517,0,0,0,2.74.862,6.288,6.288,0,0,0,2.7-.619v4.245a12.673,12.673,0,0,1-4.641.749A6.885,6.885,0,0,1,1476.038,481.287Z" transform="translate(56.491 1.284)"/><path id="Контур_9" data-name="Контур 9" d="M1479.652,458.583a2.713,2.713,0,0,1-.906-2.085,2.787,2.787,0,0,1,.906-2.111,3.127,3.127,0,0,1,2.232-.856,3.2,3.2,0,0,1,2.254.856,2.756,2.756,0,0,1,.928,2.111,2.683,2.683,0,0,1-.928,2.085,3.251,3.251,0,0,1-2.254.835A3.171,3.171,0,0,1,1479.652,458.583Zm-.6,4.342h5.658v20.041h-5.658Z" transform="translate(66.951 .889)"/><path id="Контур_10" data-name="Контур 10" d="M1483.48,457.973h5.393v2.873a9.189,9.189,0,0,1,3.58-2.674,11.348,11.348,0,0,1,4.376-.859q4.287,0,6.409,2.32a8.773,8.773,0,0,1,2.124,6.166V479.19h-5.572V466.326q0-4.637-4.331-4.638a7.428,7.428,0,0,0-3.581.906,7.652,7.652,0,0,0-2.829,2.716V479.19h-5.569Z" transform="translate(72.212 4.665)"/></g></svg>