<svg xmlns="http://www.w3.org/2000/svg" width="150" height="31.596" viewBox="0 0 150 31.596"><g id="Сгруппировать_2521" data-name="Сгруппировать 2521" transform="translate(-1427.573 -452.92)" fill="#fff"><path id="Контур_3" data-name="Контур 3" d="M1432.309,479.924a7.324,7.324,0,0,1-1.718-5.194v-9.681h-3.018v-4.025h3.018v-6.035h5.282v6.035h4.819v4.025h-4.819v9.01a4.174,4.174,0,0,0,.71,2.743,3.339,3.339,0,0,0,2.6.817,5.938,5.938,0,0,0,2.554-.587v4.025a11.98,11.98,0,0,1-4.4.71A6.538,6.538,0,0,1,1432.309,479.924Z" transform="translate(0 2.748)"/><path id="Контур_4" data-name="Контур 4" d="M1436.954,476.778a6.319,6.319,0,0,1-2.307-5.134,6.56,6.56,0,0,1,2.179-5.238,9.062,9.062,0,0,1,6.121-1.888,13.261,13.261,0,0,1,6.577,1.551v-.542a3.577,3.577,0,0,0-1.318-3.1,7.312,7.312,0,0,0-4.253-.964,18.95,18.95,0,0,0-3.648.354,14.464,14.464,0,0,0-3.183.987v-4.149a13.821,13.821,0,0,1,3.371-.964,23.1,23.1,0,0,1,4.086-.377q5.238,0,7.753,2.24a7.906,7.906,0,0,1,2.515,6.223v12.281h-4.985v-1.972a9.1,9.1,0,0,1-2.957,1.928,10.739,10.739,0,0,1-4.042.671A8.957,8.957,0,0,1,1436.954,476.778Zm10.393-2.642a5.109,5.109,0,0,0,2.176-1.9V470.01a8.9,8.9,0,0,0-5.278-1.637q-4.233,0-4.235,3.271a2.781,2.781,0,0,0,1.069,2.386,5.082,5.082,0,0,0,3.08.8A7.219,7.219,0,0,0,1447.348,474.135Z" transform="translate(9.395 5.833)"/><path id="Контур_5" data-name="Контур 5" d="M1445.394,452.92h5.278v30.969h-5.278Z" transform="translate(23.411)"/><path id="Контур_6" data-name="Контур 6" d="M1452.73,475.874a9.774,9.774,0,0,1-3.268-7.834,10.591,10.591,0,0,1,2.891-7.837q2.892-2.892,8.256-2.892a12.539,12.539,0,0,1,6.014,1.341,8.947,8.947,0,0,1,3.75,3.667,10.965,10.965,0,0,1,1.257,5.3v2.431h-17.14q.542,4.484,7.795,4.484a23.71,23.71,0,0,0,3.94-.335,17.711,17.711,0,0,0,3.52-.92v4.063a17.128,17.128,0,0,1-3.667.964,26.642,26.642,0,0,1-4.463.377Q1456,478.682,1452.73,475.874Zm13.913-9.429a4.7,4.7,0,0,0-1.7-3.688,6.864,6.864,0,0,0-4.422-1.3,6.542,6.542,0,0,0-4.358,1.341,4.755,4.755,0,0,0-1.677,3.643Z" transform="translate(28.712 5.833)"/><path id="Контур_7" data-name="Контур 7" d="M1460.783,457.938h5.113v2.724a8.723,8.723,0,0,1,3.395-2.535,10.759,10.759,0,0,1,4.149-.815q4.065,0,6.076,2.2a8.326,8.326,0,0,1,2.012,5.846v12.7h-5.28v-12.2q0-4.4-4.107-4.4a7.041,7.041,0,0,0-3.394.859,7.234,7.234,0,0,0-2.682,2.575v13.161h-5.281Z" transform="translate(43.569 5.833)"/><path id="Контур_8" data-name="Контур 8" d="M1475.779,479.924a7.325,7.325,0,0,1-1.719-5.194v-9.681h-3.017v-4.025h3.017v-6.035h5.278v6.035h4.822v4.025h-4.822v9.01a4.172,4.172,0,0,0,.715,2.743,3.334,3.334,0,0,0,2.6.817,5.962,5.962,0,0,0,2.556-.587v4.025a12.018,12.018,0,0,1-4.4.71A6.528,6.528,0,0,1,1475.779,479.924Z" transform="translate(57.064 2.748)"/><path id="Контур_9" data-name="Контур 9" d="M1479.605,458.6a2.8,2.8,0,0,1-.859-2.093,2.935,2.935,0,0,1,2.976-2.978,2.946,2.946,0,0,1,2.137.859,2.842,2.842,0,0,1,.88,2.119,2.765,2.765,0,0,1-.88,2.093,2.985,2.985,0,0,1-2.137.838A2.913,2.913,0,0,1,1479.605,458.6Zm-.566,4.358h5.365v20.118h-5.365Z" transform="translate(67.22 .811)"/><path id="Контур_10" data-name="Контур 10" d="M1483.48,457.938h5.113v2.724a8.713,8.713,0,0,1,3.394-2.535,10.758,10.758,0,0,1,4.149-.815q4.065,0,6.077,2.2a8.318,8.318,0,0,1,2.014,5.846v12.7h-5.283v-12.2q0-4.4-4.106-4.4a7.043,7.043,0,0,0-3.395.859,7.254,7.254,0,0,0-2.682,2.575v13.161h-5.28Z" transform="translate(73.346 5.833)"/></g></svg>