<svg xmlns="http://www.w3.org/2000/svg" width="205.58" height="191.842" viewBox="0 0 205.58 191.842"><g id="Group_2560" data-name="Group 2560" transform="translate(-137 -4091)"><circle id="Ellipse_48" data-name="Ellipse 48" cx="92.5" cy="92.5" r="92.5" transform="translate(137 4091)" fill="#fd9500" opacity=".5"/><path id="message-text-outline" d="M152.87,0a16.986,16.986,0,0,1,16.986,16.986V118.9a16.986,16.986,0,0,1-16.986,16.986H33.971L0,169.856V16.986A16.981,16.981,0,0,1,16.986,0H152.87M16.986,16.986v111.85l9.937-9.937H152.87V16.986H16.986M33.971,42.464H135.885V59.45H33.971V42.464m0,33.971h76.435V93.421H33.971Z" transform="rotate(8 -29164.824 3292.354)" fill="#fff"/></g></svg>