<svg width="32" height="32" viewBox="0 0 32 32" fill="none" xmlns="http://www.w3.org/2000/svg"><path d="M16 22.6668C16.7072 22.6668 17.3855 22.3859 17.8856 21.8858C18.3857 21.3857 18.6666 20.7074 18.6666 20.0002C18.6666 18.5202 17.4666 17.3335 16 17.3335C15.2927 17.3335 14.6145 17.6144 14.1144 18.1145C13.6143 18.6146 13.3333 19.2929 13.3333 20.0002C13.3333 20.7074 13.6143 21.3857 14.1144 21.8858C14.6145 22.3859 15.2927 22.6668 16 22.6668ZM24 10.6668C24.7072 10.6668 25.3855 10.9478 25.8856 11.4479C26.3857 11.948 26.6666 12.6263 26.6666 13.3335V26.6668C26.6666 27.3741 26.3857 28.0524 25.8856 28.5524C25.3855 29.0525 24.7072 29.3335 24 29.3335H7.99998C7.29274 29.3335 6.61446 29.0525 6.11436 28.5524C5.61426 28.0524 5.33331 27.3741 5.33331 26.6668V13.3335C5.33331 11.8535 6.53331 10.6668 7.99998 10.6668H9.33331V8.00016C9.33331 6.23205 10.0357 4.53636 11.2859 3.28612C12.5362 2.03588 14.2319 1.3335 16 1.3335C16.8755 1.3335 17.7424 1.50593 18.5512 1.84097C19.36 2.176 20.095 2.66706 20.714 3.28612C21.3331 3.90517 21.8241 4.6401 22.1592 5.44894C22.4942 6.25778 22.6666 7.12468 22.6666 8.00016V10.6668H24ZM16 4.00016C14.9391 4.00016 13.9217 4.42159 13.1716 5.17174C12.4214 5.92188 12 6.9393 12 8.00016V10.6668H20V8.00016C20 6.9393 19.5786 5.92188 18.8284 5.17174C18.0783 4.42159 17.0608 4.00016 16 4.00016Z" fill="#EBBE1D"/></svg>