<svg xmlns="http://www.w3.org/2000/svg" width="200" height="200" fill="none"><path d="M111.484 120.723c-.683-.664-1.699-.743-2.597-.625-1.192.156-2.305.586-3.438.976l-3.691 1.27-7.598 2.832-7.246 2.949c-2.246.879-4.57 1.641-7.012 1.621-.742 0-1.465-.098-2.168-.254.098-1.035-.117-2.09-.82-2.91-.234-.273-.508-.527-.781-.742.019-.039.059-.078.078-.098.352-.527 1.016-1.758.84-2.578.781-.098 1.582-1.172 1.895-1.738.195-.352.449-.879.566-1.406.684-.293 1.387-1.25 1.602-1.68.371-.684.977-1.973.43-2.715l-3.301-4.609c-.84-1.153-2.617.664-3.203 2.343-.527.313-.996.899-1.23 1.25-.215.332-.449.723-.586 1.133-.625.039-1.426.879-1.66 1.192-.352.468-.664 1.015-.84 1.601-.566.195-1.191.86-1.406 1.133a4.81 4.81 0 0 0-.606 1.016c-.508.175-1.016.664-1.309 1.054-.469.625-.898 1.426-.977 2.227-.078 0-.176 0-.254.019-1.543.215-2.812 1.504-3.535 2.832s-1.035 2.793-.684 4.239a2.48 2.48 0 0 0-.293.195c-1.582 1.094-2.676 3.379-2.344 5.352l-.176.117c-1.445 1.015-2.461 3.086-2.246 4.863.02.234.078.449.156.645-.82 1.054-1.387 2.656-.957 3.418 2.031 3.71 3.613 7.636 5.02 11.64l1.992 5.938c.078.215.117.429.195.644-.781 1.074-1.27 2.188-1.484 3.516-.117.722.41 1.484 1.191 1.172 6.543-2.676 13.301-4.805 20.195-6.309 5.996-1.308 12.852-2.109 17.324-6.816 1.504-1.582 2.774-3.653 2.93-5.879.059-.918-.078-1.875-.488-2.696 1.015-1.113 1.855-2.343 2.324-3.769.41-1.27.606-2.871.039-4.102.606-.898 1.094-1.894 1.328-2.968.371-1.602.117-3.477-1.25-4.532-1.445-1.093-3.222-.078-4.375.899-.625.527-.976.976-1.425 1.211-.41.215-.957.293-1.465.254 0-.078-.019-.157-.039-.254a14.01 14.01 0 0 0 1.113-.528c2.168-1.074 4.101-2.597 6.308-3.613.997-.469 2.09-.723 3.067-1.211 1.523-.762 2.695-2.109 3.281-3.711.43-1.269.625-2.832-.391-3.808z" fill="#fff"/><path d="M111.035 118.125c-.644-.43-1.348-.606-2.129-.449-2.324.449-4.511 1.211-6.484 2.578-.84.586-1.777 1.035-2.676 1.543-.039-.059-.098-.117-.137-.176l2.09-5.41c.645-1.836 1.895-3.594 1.055-5.723v-.078c.195-1.641-.645-2.695-1.973-3.457-.703-.41-1.465-.684-2.148-.996l.859-1.621 1.094-2.559c.176-.449.371-.644.898-.488.586.176 1.192.254 1.797.371-.156-.801 0-1.738-.859-2.285-1.113-.684-2.52-.547-3.653.371-.352.273-.644.645-.957.957l.644.176-.332.957-1.289 3.437c-.176.45-.488.625-1.016.508-1.895-.43-3.731-.078-5.488.547-.586.195-1.211.684-1.504 1.211l-3.242 5.957-1.035 1.934-1.289-1.758-3.594-4.844c-1.27-1.934-3.633-2.168-4.727-.351-.742 1.23-1.465 2.519-2.363 3.632l-5.918 6.856-4.375 5.547c-1.426 2.07-1.738 4.609-2.539 6.953l-3.77 10.859-2.637-1.758c-.469-.351-.898-.566-1.465-.312-.703.312-1.367.84-2.09.937-1.543.215-3.125.215-4.707.293-.664.039-1.348-.058-1.992.059-1.27.234-1.875 1.25-2.52 2.207l-.469 1.484c-.332 1.075-.41 1.758-.234 2.91l.176 1.133 1.113 3.692 1.895 7.324c.469 2.793.449 5.391.078 8.183l-.469 4.825c.078.078.176.156.273.234-.039-.039.391.234.449.254.02 0 .566.117.762.176.879.254 1.699.664 2.324 1.347a4.45 4.45 0 0 1 .957 1.661c2.305 0 4.57-.332 6.797-.899l6.328-1.562c1.133-.274 1.992-.879 2.5-1.934.879-1.797.879-1.816 2.48-2.988 1.836-1.348 3.887-2.266 6.055-2.852l7.129-1.719 5.059-.996c3.262-.468 6.523-.898 9.629-2.07 2.363-.898 4.707-1.816 6.289-3.926.957-1.269 1.7-2.715 2.969-3.75.117-.097.235-.273.215-.41-.019-.293-.098-.586-.156-.898-.293.078-.625.097-.879.254-.391.253-.723.586-1.074.878-.41.333-.918.586-1.231.997-1.66 2.207-3.984 3.261-6.465 4.218-4.004 1.524-8.281 1.563-12.363 2.618-3.203.82-6.484 1.308-9.707 2.07-2.441.566-4.687 1.68-6.895 3.086.039-.547.098-.996.117-1.446.098-1.894.43-3.828.254-5.683-.156-1.66-.801-3.301-1.309-4.922-1.23-3.887-2.871-7.559-5.547-10.703-.176-.195-.215-.645-.117-.899.293-.761.625-1.523 1.035-2.246 1.777-3.086 3.34-6.23 4.434-9.629.586-1.816 1.152-3.73 2.227-5.253 1.875-2.657 4.063-5.098 6.269-7.52 1.504-1.641 3.106-3.184 4.258-5.098.449-.742.996-1.425 1.445-2.089l4.102 5.039-1.719 2.285c-.879 1.113-1.797 2.187-2.695 3.281-.801.977-1.191 2.09-1.113 3.359l.352 4.336c-1.074.625-2.305.762-2.988 2.051.371.039.645.137.918.098.391-.039.781-.176 1.172-.235 3.633-.625 7.266-1.015 10.781-2.363 3.945-1.523 8.066-2.539 12.109-3.848 2.187-.703 4.394-1.406 6.309-2.773 1.347-.977 2.871-1.582 4.531-1.836.234-.039.566-.039.742.098.977.742 1.269 1.836 1.328 2.988.039.918-.762 1.309-1.387 1.738l-5.254 3.711c-1.699 1.25-3.457 2.305-5.527 2.832-.625.156-1.231.508-1.777.86-.84.546-1.055 1.367-.625 2.05.469.723 1.563.899 2.363.43.586-.332 1.211-.586 1.836-.879 1.23-.566 2.5-1.035 3.691-1.68.996-.527 1.895-1.23 2.813-1.855 1.699-1.172 3.476-2.246 5.078-3.535.781-.625 1.602-1.563 1.797-2.481.488-2.48-.41-5.449-2.969-7.148zm-31.992 8.828c-.723-2.48 1.289-3.457 2.188-4.98.078.058.176.117.254.175l-2.441 4.805zm9.961-1.25c-.371.43-.664 0-1.016-.215-.996-.605-2.031-1.172-3.047-1.758-.215-.117-.469-.214-.684-.332 1.68-.175 3.144.274 4.434 1.211.371.293.684.664.313 1.094zm6.719-4.941c-.059.097-.371.117-.547.097a.88.88 0 0 1-.488-.234c-1.406-1.25-3.203-1.563-4.922-2.031-1.231-.332-2.481-.567-3.711-.86.02-.097.02-.175.039-.273 1.035.058 2.07 0 3.086.176 1.582.273 3.145.625 4.668 1.132.684.235 1.231.918 1.816 1.426a.65.65 0 0 1 .059.567zm1.367 1.699c-.195-.274-.391-.547-.566-.84-.098-.156-.137-.352-.293-.742.391.156.664.176.781.332.215.273.352.625.469.957.039.039-.254.195-.391.293zm.996-8.477c-.293-.273-.664-.468-.996-.683-.547-.352-1.074-.918-1.68-1.016-1.894-.312-3.691-1.152-5.664-.976-.449.039-.898 0-1.348 0-.019-.059-.019-.137-.039-.196.254-.097.508-.234.781-.273 2.715-.528 5.293.039 7.695 1.269 1.055.547 1.953 1.446 2.891 2.207.156.137.273.43.273.645 0 .293-.117.586-.195.879-.176-.215-.332-.469-.527-.664-.391-.43-.781-.821-1.191-1.192z" fill="#020202"/><path d="M85.352 78.34c-.723-.703-1.289-1.406-1.074-2.578.156-.918.039-1.895.039-2.891l-2.754-.527c-.918-.195-1.777-.527-1.856-1.66-.019-.254.137-.547.293-.762.254-.293.586-.508.879-.742l-.059-.273 3.867.645c.391-1.055.644-2.207 1.25-3.145.625-.957 1.543-1.758 2.422-2.52.293-.234.879-.195 1.328-.156l5.254.644 1.426-4.902c.215-.801.43-1.621.508-2.441l.879-8.477c.137-1.543.156-3.105.137-4.648l-.195-6.973-.586-8.652c-.02-.332.293-.684.43-1.016.195-.43.488-.84.566-1.289.098-.625.449-.742.957-.664l5.254.801 8.379 1.035c4.102.586 8.262.703 12.266 1.855 2.051.586 4.16.996 6.269 1.367l10.547 1.797 10.293 1.758c1.524.273 3.028.703 4.571.938.742.098 1.562 0 2.265-.254.586-.215.801 0 1.113.391.254.293.586.566.938.742.684.352.703.84.527 1.484-.117.391-.195.859-.078 1.211.957 2.891.918 5.82.645 8.789-.371 4.121-.586 8.262-.938 12.383-.156 1.836-.488 3.672-.644 5.508-.157 1.641-.117 3.281-.293 4.922-.176 1.602-.508 3.164-.821 4.746-.253 1.269-.546 2.519-.839 3.769-.137.547-.274 1.074-.469 1.602l-4.219 11.68c-1.68 4.668-3.652 9.219-6.016 13.594-.859 1.601-1.777 3.164-2.519 4.804-.391.879-.938.938-1.66.742l-9.512-2.363c-1.719-.41-3.457-.722-5.176-1.094l-4.824-1.152c-1.172-.273-2.363-.469-3.535-.742l-6.699-1.602 2.207-3.242 8.828 2.012 9.004 2.109 10.859 2.617c.449.118.645.079.82-.41.567-1.523 1.211-3.027 1.797-4.55l4.746-12.403c1.172-3.047 1.719-6.23 2.168-9.434.176-1.231.45-2.441.684-3.652.41-2.109.937-4.199 1.23-6.309.313-2.266.372-4.551.586-6.816l.899-8.516c.273-3.242.547-6.465.664-9.707.058-1.719-.117-3.457-.293-5.195-.117-1.113-.567-1.875-1.934-2.09-3.789-.586-7.539-1.426-11.308-2.09l-12.09-1.973c-2.871-.508-5.703-1.23-8.574-1.777-3.047-.586-6.114-1.152-9.2-1.582-3.261-.449-6.562-.703-9.843-1.094-1.328-.156-2.637-.41-4.121-.645l.214 4.238.567 8.457c.058 1.309-.117 2.637-.156 3.945-.02 1.289.117 2.598 0 3.867-.293 2.852-.645 5.703-1.075 8.555-.214 1.445-.586 2.871-.957 4.297-.195.781-.566 1.504-.84 2.246l8.477 1.484 7.91 1.426 6.25 1.113c1.113.176 2.246.195 3.36.234 1.796.059 3.359.605 4.199 2.305.762 1.523 1.113 3.164.703 4.902-.098.43-.234.879-.371 1.348 1.23.488 1.836 1.387 1.972 2.637.157 1.328.372 2.656.586 3.984.332 2.012-.156 3.711-1.738 5.078-.488.41-.918.918-1.367 1.367-1.602 1.66-3.516 2.363-5.801 1.914-.586-.117-1.191-.137-1.777-.215l1.074-2.949c.254.078.508.195.762.215.957.078 1.953.371 2.812-.352.352-.293.684-.605 1.055-.859 1.309-.918 2.109-2.187 2.207-3.75.059-.898-.254-1.816-.391-2.715-.078-.508-.136-1.016-.195-1.504-1.133 1.914-2.539 3.418-4.473 4.375-.488.137-.976.254-1.484.391-1.914.488-3.711-.293-5.566-.43-1.016-.078-2.012-.293-3.008-.508l-6.66-1.465-6.446-1.367-9.199-1.914-6.309-1.289zm33.985-6.875l-5.391-1.035-5.957-1.016-7.441-1.387c-3.457-.527-6.914-.918-10.371-1.406-.586-.078-.957.059-1.328.469-1.152 1.309-1.367 2.949-1.621 4.551-.195 1.25-.078 2.559-.059 3.828 0 .195.234.547.41.586l7.285 1.309 4.102.781L107.09 80l5.508 1.191c1.308.273 2.597.508 4.023.762-.449-1.934-.332-3.711.117-5.508.489-1.836 1.309-3.437 2.598-4.98zm7.012 5.684c.664-1.367.566-2.676.273-3.984-.137-.566-.449-.977-1.074-1.016-1.524-.078-2.988-.176-4.141 1.289-1.738 2.246-2.558 4.688-2.07 7.5.273 1.563.625 1.699 2.207 1.621 1.816-.098 2.832-1.25 3.887-2.656l-2.286-.742c-1.015-.332-1.328-.84-1.21-1.914.117-1.055.644-1.367 1.64-.996.938.332 1.875.606 2.774.898z" fill="#040404"/><path d="M122.207 89.531l-1.074 2.949-1.231 1.934-3.867 6.367-2.207 3.242-2.383 2.5c-1.074 1.036-2.441 1.582-3.867 1.836-1.015.176-1.933-.254-2.636-1.074-1.075-1.25-1.543-2.734-1.602-4.375l-.078-1.289c-.156-.801 0-1.738-.86-2.285-1.113-.684-2.519-.547-3.652.371-.352.274-.645.645-.957.957-1.172.938-2.344 1.895-3.887 2.188-.664.117-1.406.273-2.051.117-1.68-.41-3.223-1.172-4.375-2.539l-.742-.84-3.359 2.773c-1.504 1.328-3.164 2.305-5.137 2.657-2.871.527-5.312-1.934-4.785-4.942.137-.82.469-1.66.859-2.402l4.961-9.043 4.922-7.852c.469-.762.762-1.641 1.152-2.461l6.289 1.269 9.199 1.914 6.445 1.367 6.66 1.465 3.008.508c1.856.137 3.672.938 5.567.43l1.484-.391-1.797 4.648zM29.609 58.184c-.937-.059-1.055-.645-.937-1.367.059-.312.059-.645.137-.957.332-1.465.41-1.621 1.856-1.68 2.227-.078 4.141-1.016 5.977-2.09l5.801-3.789c.684-.469 1.406-.957 1.523-1.934.02-.195.332-.449.547-.488.449-.098.938-.137 1.387-.078 1.699.254 1.797.391 1.934 2.188.137 1.973.859 3.789 1.992 5.352l5.586 6.992c.371.469.918.801 1.27 1.27.156.195.039.625 0 .938-.02.137-.195.234-.215.371-.273 1.426-1.211 1.777-2.578 1.856-2.52.156-5.039.273-7.5 1.074-1.875.625-3.203 1.758-4.258 3.301-.742 1.074-1.348 2.246-1.992 3.379-.352.625-1.152.781-1.816.508-1.348-.547-1.836-1.484-2.148-2.91-.879-4.023-2.871-7.5-5.859-10.371-.371-.371-.605-.898-.898-1.348.059-.059.117-.137.195-.215z" fill="#196efd"/><path d="M59.336 83.867c0 1.25-.195 1.309-1.152 1.543-1.074.273-2.187.644-3.086 1.269-1.309.898-2.461 2.07-3.691 3.106-.156.137-.488.273-.605.195-.43-.254-.957-.527-1.133-.937-.234-.508-.195-1.152-.195-1.738-.02-2.676-1.152-4.629-3.613-5.781-.293-.137-.742-.625-.684-.742.234-.469.566-1.133.977-1.211 2.363-.508 4.375-1.562 6.055-3.301.293-.293.645-.527 1.016-.742.566-.312 1.602.313 1.777.938.313 1.094.644 2.207 1.133 3.223.469.977 1.133 1.875 1.777 2.773.273.371.723.605 1.055.937.215.156.332.41.371.469z" fill="#020202"/><path d="M71.445 50.312c-2.52.566-3.516 2.52-4.824 4.121-.176.215-.43.469-.664.488-.41.02-.859-.059-.957-.645-.059-.371-.254-.703-.332-1.074-.43-1.816-1.445-3.008-3.301-3.457-.293-.078-.762-.449-.723-.547.137-.391.352-.879.684-1.035a9.13 9.13 0 0 0 3.437-2.949c.371-.527.684-1.269 1.563-1.055.234.059.508.273.606.488.84 1.895 2.188 3.301 3.984 4.355.293.176.332.801.527 1.309z" fill="#030303"/><path d="M98.496 143.301c-.664-.078-1.094-.332-1.25-.938-.176-.664.059-1.172.664-1.484l4.102-1.973c.84-.429 1.64-.957 2.441-1.465l1.387-.957c.215-.117.508-.078.762-.117-.02.293.058.625-.059.86-.977 1.855-2.422 3.222-4.297 4.16l-2.5 1.406c-.391.234-.84.352-1.25.508z" fill="#080808"/><path d="M96.699 150.488c-.332-.312-.859-.605-1.055-1.035-.254-.566 0-1.211.586-1.504s1.23-.605 1.855-.664c2.109-.234 3.789-1.348 5.488-2.441.254-.157.723-.313.938-.176.468.273.215.664-.059.996-1.445 1.758-3.125 3.145-5.332 3.809-.527.156-1.016.449-1.523.683-.254.078-.469.156-.898.332z" fill="#070707"/><path d="M88.359 111.113c.254-.097.508-.234.781-.273 2.715-.528 5.293.039 7.695 1.269 1.055.547 1.953 1.446 2.891 2.207.156.137.273.43.273.645 0 .293-.117.586-.195.879-.176-.215-.332-.469-.527-.664l-1.191-1.172c-.293-.274-.664-.469-.996-.684-.547-.351-1.074-.918-1.68-1.015-1.895-.313-3.691-1.153-5.664-.977-.449.039-.898 0-1.348 0-.019-.098-.019-.156-.039-.215z" fill="#1a71ef"/><path d="M86.094 117.48c1.035.059 2.07 0 3.086.176 1.582.274 3.145.625 4.668 1.133.683.234 1.23.918 1.816 1.426a.59.59 0 0 1 .078.566c-.059.098-.371.117-.547.098a.89.89 0 0 1-.488-.234c-1.406-1.25-3.203-1.563-4.922-2.032l-3.711-.859c0-.098 0-.176.019-.274z" fill="#1a70f2"/><path d="M84.258 123.418c1.68-.176 3.144.274 4.434 1.211.371.273.664.645.313 1.074-.371.43-.664 0-1.016-.215l-3.047-1.757c-.215-.118-.449-.215-.684-.313z" fill="#1970f2"/><path d="M96.25 120.879c.391.156.664.176.781.332.215.273.352.625.469.957.019.059-.254.195-.391.312l-.566-.839c-.098-.176-.137-.371-.293-.762z" fill="#1a71ed"/><path d="M116.035 100.781l3.867-6.367 1.231-1.934 1.777.215c2.305.43 4.219-.254 5.801-1.914l1.367-1.367c1.602-1.348 2.07-3.066 1.738-5.078l-.586-3.984c-.136-1.27-.742-2.148-1.972-2.637l.371-1.348c.41-1.719.039-3.359-.703-4.902-.84-1.699-2.403-2.246-4.199-2.305l-3.36-.234-6.25-1.113-7.91-1.426-8.476-1.484c.273-.742.644-1.465.84-2.246l.957-4.297 1.075-8.555c.136-1.269-.02-2.578 0-3.867l.156-3.945-.567-8.457-.214-4.238 4.121.645 9.843 1.094 9.2 1.582 8.574 1.777c4.023.723 8.066 1.27 12.09 1.973l11.308 2.09c1.367.215 1.817.977 1.934 2.09.176 1.719.371 3.457.293 5.195-.117 3.242-.391 6.484-.664 9.707-.254 2.852-.625 5.664-.899 8.516-.214 2.266-.273 4.57-.586 6.816-.293 2.129-.82 4.219-1.23 6.309-.234 1.211-.508 2.422-.684 3.652-.449 3.203-.976 6.387-2.168 9.434l-4.746 12.402-1.797 4.551c-.175.488-.39.527-.82.41l-10.859-2.617-9.004-2.109-8.848-2.032zm-3.828-61.543c-.84-1.016-1.484-1.855-2.207-2.617-.488-.527-1.387-.391-1.836.234-.684.957-.898 2.051-.723 3.203.079.488.254.918.957.82.235-.039.547.176.743.371.234.215.371.527.566.762 1.133 1.348 2.461 1.699 3.77.82.449-.312.742-.879 1.132-1.367.957 1.406 1.719 2.617 3.164 3.008 1.524.43 2.637-.391 3.633-1.445 1.524 1.152 3.008 1.25 4.512.059a.69.69 0 0 1 .645-.039c.917.547 1.914.645 2.949.508.175-.019.371-.039.508.039.918.527 1.835.371 2.773.098.098-.566.312-1.113.254-1.621-.078-.566-.254-1.289-.664-1.582-.508-.391-1.289-.566-1.953-.566-1.172-.02-2.227-.039-3.34-.625-1.231-.645-2.442-.02-3.438.977-1.933-2.305-3.593-1.426-5.156.605-.469-.762-.859-1.367-1.211-1.992-.371-.684-.683-1.445-1.68-1.289-.078.019-.234-.059-.273-.137-.527-.82-1.074-.391-1.523.039-.586.508-1.055 1.133-1.602 1.738zm9.902 13.984c.821-.137 1.621-.312 2.442-.371 1.621-.137 1.621-.098 1.933-1.68.02-.078.098-.176.079-.215-.254-.527-.411-1.348-.821-1.484-.703-.234-1.582-.176-2.344-.02-1.152.234-2.265.234-3.242-.43-1.308-.879-2.578-.879-3.984-.273-1.914.84-1.934.801-3.047-1.016-.566-.937-1.543-1.406-2.539-.996-1.172.488-2.305 1.133-3.379 1.797-.293.176-.547.801-.469 1.133.176.703.547 1.367.918 2.012.235.41.625.43 1.035.117.45-.332.938-.605 1.387-.937.41-.312.625-.098.938.176.644.566 1.289 1.211 2.05 1.563 1.407.625 2.832.254 4.122-.449.566-.312.976-.234 1.445.059a6.91 6.91 0 0 0 3.476 1.016zm20.45 1.094l.214-1.387c.215-1.289-.253-1.855-1.543-1.894-.156 0-.332-.02-.488-.039-1.777-.312-3.535-.703-5.312-.039-.117.039-.371.02-.43-.059-.703-1.074-1.953-1.133-2.988-1.562-.274-.117-.801.02-1.055.234-.371.332-.645.781-.859 1.25-.528 1.113-.391 1.406.761 1.855.508.195 1.172.273 1.524.645 1.055 1.133 2.246 1.465 3.73 1.152.762-.156 1.563-.234 2.344-.176 1.348.078 2.676.547 4.102.02z" fill="#fdfdfd"/><path d="M119.336 71.465c-1.289 1.523-2.11 3.144-2.578 4.961-.469 1.797-.567 3.574-.117 5.508l-4.024-.762-5.508-1.191-8.125-1.855-4.102-.781-7.285-1.309c-.176-.039-.41-.371-.41-.586-.019-1.289-.137-2.578.059-3.828.254-1.582.469-3.242 1.621-4.551.371-.43.723-.547 1.328-.469l10.371 1.406 7.442 1.387 5.957 1.016 5.371 1.055zm7.012 5.683l-2.754-.898c-1.016-.352-1.524-.059-1.641.996-.117 1.094.195 1.582 1.211 1.914l2.285.742c-1.055 1.406-2.07 2.559-3.887 2.656-1.582.078-1.933-.059-2.207-1.621-.488-2.812.332-5.254 2.071-7.5 1.132-1.465 2.597-1.367 4.14-1.289.625.039.938.43 1.075 1.016.273 1.309.371 2.617-.293 3.984z" fill="#196efd"/><path d="M122.207 89.531l1.777-4.609c1.934-.957 3.34-2.461 4.473-4.375l.195 1.504c.137.898.45 1.816.391 2.715-.098 1.563-.898 2.832-2.207 3.75-.371.254-.703.566-1.055.859-.859.723-1.855.449-2.812.352-.254 0-.508-.117-.762-.195z" fill="#f9fafa"/><path d="M112.207 39.238l1.602-1.758c.449-.41.996-.859 1.523-.039.039.078.195.137.274.137 1.015-.137 1.308.605 1.679 1.289l1.211 1.992c1.563-2.031 3.242-2.891 5.156-.605 1.016-1.016 2.207-1.621 3.438-.977 1.113.586 2.168.605 3.34.625.664 0 1.445.176 1.953.566.41.293.586 1.016.664 1.582.059.508-.156 1.055-.254 1.621-.937.273-1.855.43-2.773-.098-.137-.078-.352-.059-.508-.039-1.035.137-2.031.039-2.949-.508a.69.69 0 0 0-.645.039c-1.504 1.191-2.988 1.113-4.512-.059-.976 1.055-2.109 1.875-3.632 1.445-1.446-.391-2.207-1.602-3.165-3.008-.41.508-.683 1.055-1.132 1.367-1.289.879-2.637.527-3.77-.82-.195-.254-.332-.566-.566-.762-.196-.176-.528-.41-.742-.371-.704.098-.879-.332-.957-.82-.176-1.152.039-2.246.722-3.203.449-.625 1.348-.762 1.836-.234l2.207 2.637zm9.902 13.985c-1.25-.039-2.402-.352-3.437-.996-.469-.293-.879-.371-1.446-.059-1.289.703-2.714 1.074-4.121.449-.761-.332-1.425-.977-2.05-1.562-.313-.293-.528-.488-.938-.176l-1.387.938c-.41.313-.8.293-1.035-.117-.371-.645-.742-1.309-.918-2.012-.078-.332.176-.957.469-1.133 1.074-.684 2.207-1.309 3.379-1.797.996-.41 1.953.059 2.539.996 1.113 1.816 1.133 1.855 3.047 1.016 1.406-.625 2.676-.605 3.984.273.977.664 2.09.664 3.242.43.762-.156 1.641-.215 2.344.02.391.137.567.957.82 1.484.02.059-.058.137-.078.215-.332 1.582-.332 1.543-1.933 1.68-.86.039-1.66.215-2.481.352z" fill="#1a6ffd"/><path d="M142.559 54.317c-1.426.527-2.754.059-4.102-.039-.762-.059-1.582.02-2.344.176-1.484.313-2.675-.02-3.73-1.152-.352-.371-.996-.449-1.524-.645-1.152-.449-1.289-.762-.761-1.855.215-.449.488-.918.859-1.25.254-.215.781-.352 1.055-.234 1.035.43 2.285.488 2.988 1.563.059.078.293.098.43.059 1.777-.664 3.554-.274 5.312.039l.488.039c1.29.039 1.758.605 1.543 1.895l-.214 1.406z" fill="#1b6ffd"/><path d="M154.766 144.922c-.625.273-1.133.664-1.68.684-.84.019-1.523-.567-1.523-1.368-.02-3.535-1.68-6.66-2.403-10.039-.293-1.386-.84-2.715-1.191-4.101-.176-.664.019-1.25.801-1.289.273-.02.722.312.82.605l4.883 13.086c.254.625.195 1.426.293 2.422zm8.086-12.168c-.176-.195-.567-.488-.782-.899-2.011-3.554-4.297-6.855-7.324-9.629-.527-.488-1.055-1.015-.469-1.718.625-.762 1.289-.293 1.875.195 3.282 2.637 5.938 5.82 8.243 9.316.312.489.488 1.192.449 1.797-.078.86-.938 1.309-1.992.938z" fill="#070707"/><path d="M171.641 118.359c-.977.371-1.68.84-2.344.821-.508-.039-1.035-.664-1.465-1.094-.293-.293-.41-.82-.723-1.055l-5.019-3.574c-.215-.156-.528-.254-.625-.469-.176-.41-.391-.937-.254-1.269.097-.254.879-.469 1.133-.352l8.437 4.863c.469.332.527 1.231.86 2.129z" fill="#090909"/><path d="M139.981 142.402c-.586.137-1.211.41-1.758.313-.742-.137-1.406-2.266-.977-2.95.391-.664.996-.917 1.719-.527.625.293 1.23 2.188 1.016 3.164z" fill="#0c0c0c"/></svg>