<svg width="91" height="31" viewBox="0 0 91 31" fill="none" xmlns="http://www.w3.org/2000/svg"><path d="M30.112 24.36C29.296 24.36 28.572 24.204 27.94 23.892C27.308 23.58 26.812 23.14 26.452 22.572C26.092 21.996 25.912 21.316 25.912 20.532C25.912 19.86 26.08 19.26 26.416 18.732C26.752 18.204 27.268 17.768 27.964 17.424C28.66 17.072 29.548 16.836 30.628 16.716C31.716 16.596 33.004 16.612 34.492 16.764L34.54 18.792C33.564 18.64 32.712 18.572 31.984 18.588C31.256 18.604 30.652 18.688 30.172 18.84C29.7 18.992 29.344 19.2 29.104 19.464C28.872 19.728 28.756 20.036 28.756 20.388C28.756 20.916 28.948 21.324 29.332 21.612C29.716 21.892 30.24 22.032 30.904 22.032C31.472 22.032 31.98 21.928 32.428 21.72C32.884 21.512 33.244 21.22 33.508 20.844C33.772 20.46 33.904 20.008 33.904 19.488V16.452C33.904 15.948 33.796 15.512 33.58 15.144C33.372 14.768 33.052 14.48 32.62 14.28C32.188 14.072 31.632 13.968 30.952 13.968C30.328 13.968 29.708 14.064 29.092 14.256C28.484 14.44 27.912 14.728 27.376 15.12L26.548 12.924C27.308 12.42 28.108 12.06 28.948 11.844C29.788 11.628 30.6 11.52 31.384 11.52C32.504 11.52 33.472 11.696 34.288 12.048C35.112 12.4 35.744 12.94 36.184 13.668C36.632 14.388 36.856 15.304 36.856 16.416V24H34.144V22.632C33.744 23.184 33.192 23.612 32.488 23.916C31.784 24.212 30.992 24.36 30.112 24.36ZM45.6526 24.348C44.6206 24.348 43.6606 24.208 42.7726 23.928C41.8926 23.648 41.1446 23.264 40.5286 22.776L41.5966 20.592C42.1886 21.016 42.8406 21.352 43.5526 21.6C44.2646 21.848 44.9606 21.972 45.6406 21.972C46.3606 21.972 46.9206 21.852 47.3206 21.612C47.7206 21.372 47.9206 21.036 47.9206 20.604C47.9206 20.196 47.7446 19.896 47.3926 19.704C47.0406 19.512 46.3766 19.312 45.4006 19.104C43.8486 18.8 42.7206 18.352 42.0166 17.76C41.3126 17.16 40.9606 16.336 40.9606 15.288C40.9606 14.544 41.1646 13.888 41.5726 13.32C41.9886 12.752 42.5566 12.312 43.2766 12C44.0046 11.68 44.8406 11.52 45.7846 11.52C46.7046 11.52 47.5726 11.648 48.3886 11.904C49.2126 12.16 49.9206 12.52 50.5126 12.984L49.4926 15.18C49.1806 14.916 48.8246 14.688 48.4246 14.496C48.0246 14.304 47.6006 14.156 47.1526 14.052C46.7126 13.948 46.2766 13.896 45.8446 13.896C45.2126 13.896 44.7006 14.008 44.3086 14.232C43.9246 14.456 43.7326 14.772 43.7326 15.18C43.7326 15.588 43.9126 15.892 44.2726 16.092C44.6326 16.284 45.2846 16.488 46.2286 16.704C47.8286 17.048 48.9726 17.504 49.6606 18.072C50.3486 18.64 50.6926 19.436 50.6926 20.46C50.6926 21.244 50.4806 21.928 50.0566 22.512C49.6326 23.088 49.0406 23.54 48.2806 23.868C47.5286 24.188 46.6526 24.348 45.6526 24.348ZM59.8703 24.36C58.6383 24.36 57.6623 24.008 56.9423 23.304C56.2223 22.6 55.8623 21.536 55.8623 20.112V8.52H58.9343V12H62.0903V14.496H58.9343V19.5C58.9343 20.268 59.0863 20.812 59.3903 21.132C59.6943 21.444 60.1143 21.6 60.6503 21.6C60.9223 21.6 61.1783 21.568 61.4183 21.504C61.6663 21.44 61.8943 21.356 62.1023 21.252L62.5823 23.7C62.2303 23.884 61.8183 24.04 61.3463 24.168C60.8743 24.296 60.3823 24.36 59.8703 24.36ZM53.3303 14.496V12H56.2103V14.496H53.3303ZM66.3994 24V12H69.4714V13.572C69.8874 12.868 70.4074 12.368 71.0314 12.072C71.6634 11.776 72.3434 11.628 73.0714 11.628C73.3274 11.628 73.5634 11.64 73.7794 11.664C73.9954 11.688 74.2034 11.724 74.4034 11.772L74.0194 14.94C73.7714 14.852 73.5114 14.788 73.2394 14.748C72.9754 14.7 72.7114 14.676 72.4474 14.676C71.5834 14.676 70.8714 14.936 70.3114 15.456C69.7514 15.968 69.4714 16.688 69.4714 17.616V24H66.3994ZM83.0461 24.36C81.7661 24.36 80.6301 24.072 79.6381 23.496C78.6541 22.912 77.8821 22.14 77.3221 21.18C76.7621 20.212 76.4821 19.152 76.4821 18C76.4821 17.152 76.6421 16.344 76.9621 15.576C77.2821 14.808 77.7341 14.132 78.3181 13.548C78.9101 12.956 79.6061 12.492 80.4061 12.156C81.2061 11.812 82.0861 11.64 83.0461 11.64C84.3181 11.64 85.4461 11.928 86.4301 12.504C87.4221 13.08 88.1981 13.852 88.7581 14.82C89.3261 15.788 89.6101 16.848 89.6101 18C89.6101 18.848 89.4461 19.656 89.1181 20.424C88.7981 21.184 88.3461 21.86 87.7621 22.452C87.1781 23.044 86.4861 23.512 85.6861 23.856C84.8861 24.192 84.0061 24.36 83.0461 24.36ZM83.0341 21.672C83.7141 21.672 84.3181 21.524 84.8461 21.228C85.3821 20.924 85.8021 20.5 86.1061 19.956C86.4101 19.404 86.5621 18.752 86.5621 18C86.5621 17.248 86.4101 16.596 86.1061 16.044C85.8021 15.492 85.3861 15.068 84.8581 14.772C84.3301 14.476 83.7261 14.328 83.0461 14.328C82.3661 14.328 81.7581 14.476 81.2221 14.772C80.6941 15.068 80.2781 15.492 79.9741 16.044C79.6781 16.596 79.5301 17.248 79.5301 18C79.5301 18.752 79.6821 19.404 79.9861 19.956C80.2901 20.5 80.7061 20.924 81.2341 21.228C81.7621 21.524 82.3621 21.672 83.0341 21.672Z" fill="#687DB2"/><path d="M15.9488 14.3365C14.3265 17.8605 10.1549 19.402 6.63094 17.7797C3.36057 16.2738 1.7995 12.5721 2.88851 9.23035C2.06925 10.0245 1.37872 10.9781 0.872674 12.0772C-1.32095 16.8423 0.763439 22.4829 5.52856 24.6766C10.2937 26.8702 15.9343 24.7858 18.128 20.0207C19.8183 16.349 18.9662 12.1585 16.3066 9.4243C16.7675 10.9948 16.6867 12.7326 15.9483 14.3365H15.9488Z" fill="#687DB2"/><path d="M11.1375 9.61704C9.07494 10.1455 8.97122 10.4658 8.44278 13.2341C7.91435 10.4658 7.81062 10.1455 5.74805 9.61704C7.81062 9.0886 7.91435 8.76832 8.44278 6C8.97122 8.76832 9.07494 9.0886 11.1375 9.61704Z" fill="#687DB2"/><path d="M12.9734 14.0043C11.6159 14.3519 11.5472 14.5629 11.1996 16.3851C10.852 14.5629 10.7833 14.3519 9.42578 14.0043C10.7833 13.6567 10.852 13.4458 11.1996 11.6236C11.5472 13.4458 11.6159 13.6567 12.9734 14.0043Z" fill="#687DB2"/></svg>