<svg width="48" height="48" viewBox="0 0 48 48" fill="none" xmlns="http://www.w3.org/2000/svg"><path d="M32.1459 22.5304C30.0966 26.9817 24.8272 28.929 20.3759 26.8796C16.2449 24.9775 14.2731 20.3016 15.6486 16.0805C14.6138 17.0837 13.7415 18.2882 13.1023 19.6765C10.3314 25.6955 12.9643 32.8206 18.9834 35.5915C25.0025 38.3624 32.1276 35.7295 34.8985 29.7104C37.0337 25.0725 35.9573 19.7792 32.5979 16.3255C33.1801 18.3093 33.078 20.5043 32.1452 22.5304H32.1459Z" fill="#687DB2"/><path d="M26.0685 16.5689C23.4631 17.2364 23.3321 17.641 22.6646 21.1378C21.9971 17.641 21.8661 17.2364 19.2607 16.5689C21.8661 15.9014 21.9971 15.4969 22.6646 12C23.3321 15.4969 23.4631 15.9014 26.0685 16.5689Z" fill="#687DB2"/><path d="M28.3875 22.1107C26.6727 22.5498 26.586 22.8163 26.1469 25.118C25.7078 22.8163 25.621 22.5498 23.9062 22.1107C25.621 21.6716 25.7078 21.4052 26.1469 19.1035C26.586 21.4052 26.6727 21.6716 28.3875 22.1107Z" fill="#687DB2"/></svg>