<svg width="64" height="62" viewBox="0 0 64 62" fill="none" xmlns="http://www.w3.org/2000/svg"><g clip-path="url(#clip0_1841_1479)" fill="#fff"><path d="M53.72 23.3977C48.2553 35.2912 34.2039 40.494 22.3339 35.0185C11.3181 29.936 6.05981 17.4425 9.728 6.16402C6.96841 8.84443 4.64247 12.0628 2.9379 15.7721C-4.45104 31.8546 2.56996 50.8922 18.6206 58.2957C34.6713 65.6993 53.6712 58.6644 61.0602 42.5819C66.7539 30.1899 63.8836 16.0468 54.9252 6.8186C56.4777 12.1192 56.2055 17.9842 53.7181 23.3977H53.72Z"/><path d="M36.2858 9.70781C30.761 11.1261 30.4832 11.9857 29.0677 19.4156C27.6523 11.9857 27.3744 11.1261 21.8496 9.70781C27.3744 8.28954 27.6523 7.42992 29.0677 0C30.4832 7.42992 30.761 8.28954 36.2858 9.70781Z"/><path d="M41.2061 21.4828C37.5698 22.4158 37.3859 22.982 36.4547 27.8726C35.5236 22.982 35.3396 22.4158 31.7034 21.4828C35.3396 20.5499 35.5236 19.9837 36.4547 15.0931C37.3859 19.9837 37.5698 20.5499 41.2061 21.4828Z"/></g><defs><clipPath id="clip0_1841_1479"><path fill="#fff" d="M0 0H64V61.241H0z"/></clipPath></defs></svg>