<svg width="158" height="158" viewBox="0 0 158 158" fill="none" xmlns="http://www.w3.org/2000/svg"><g filter="url(#A)"><path d="M131.934 52.881A6.38 6.38 0 0 1 129.4 47.8c0-13.616-11.142-24.788-24.414-25.193a8.51 8.51 0 0 1-6.347-3.163C93.978 13.621 86.818 10 79 10s-14.978 3.621-19.64 9.445c-1.538 1.921-3.885 3.087-6.345 3.161C39.721 23.008 28.6 34.182 28.6 47.8a6.38 6.38 0 0 1-2.534 5.081C19.88 57.527 16 64.913 16 73s3.88 15.473 10.066 20.119c1.59 1.194 2.537 3.093 2.534 5.081 0 13.621 11.125 24.771 24.424 25.187a8.49 8.49 0 0 1 6.33 3.161C64.016 132.376 71.178 136 79 136s14.983-3.624 19.645-9.451a8.5 8.5 0 0 1 6.332-3.163c13.276-.42 24.423-11.567 24.423-25.186a6.38 6.38 0 0 1 2.534-5.081C138.121 88.473 142 81.087 142 73s-3.879-15.473-10.066-20.119z" fill="#fff"/><path d="M29.6 98.2006C29.6029 95.8978 28.5077 93.7023 26.6663 92.3194C20.7244 87.8572 17 80.7641 17 73C17 65.2359 20.7244 58.1428 26.6663 53.6806C28.5091 52.2967 29.6 50.1016 29.6 47.8C29.6 34.7286 40.2846 23.9912 53.0456 23.606C55.7963 23.5229 58.419 22.221 60.1406 20.0701C64.618 14.4764 71.4934 11 79 11C86.5062 11 93.3813 14.476 97.8586 20.0692C99.5809 22.2206 102.204 23.5221 104.955 23.6062C117.695 23.9957 128.4 34.7323 128.4 47.8C128.4 50.1016 129.491 52.2967 131.334 53.6806C137.276 58.1428 141 65.2359 141 73C141 80.7641 137.276 87.8572 131.334 92.3194C129.491 93.7033 128.4 95.8984 128.4 98.2C128.4 111.269 117.691 121.984 104.946 122.387C102.199 122.474 99.5823 123.776 97.8641 125.924C93.3868 131.521 86.5092 135 79 135C71.4904 135 64.6124 131.521 60.1352 125.923C58.4175 123.776 55.8014 122.473 53.0552 122.387C40.2881 121.988 29.6003 111.273 29.6 98.2006ZM29.6 98.2006C29.6 98.2009 29.6 98.2011 29.6 98.2014L28.6 98.2H29.6C29.6 98.2002 29.6 98.2004 29.6 98.2006Z" stroke="url(#B)" stroke-width="2"/></g><defs><linearGradient id="B" x1="35.5" y1="32" x2="121" y2="115.5" gradientUnits="userSpaceOnUse"><stop stop-color="#06f"/><stop offset=".525" stop-color="#ff00f5"/><stop offset="1" stop-color="#ff005c"/></linearGradient><filter id="A" x="0" y="0" width="158" height="158" filterUnits="userSpaceOnUse" color-interpolation-filters="sRGB"><feFlood flood-opacity="0" result="A"/><feColorMatrix in="SourceAlpha" values="0 0 0 0 0 0 0 0 0 0 0 0 0 0 0 0 0 0 127 0" result="B"/><feOffset dy="6"/><feGaussianBlur stdDeviation="8"/><feComposite in2="B" operator="out"/><feColorMatrix values="0 0 0 0 0 0 0 0 0 0 0 0 0 0 0 0 0 0 0.1 0"/><feBlend in2="A"/><feBlend in="SourceGraphic"/></filter></defs></svg>