<svg width="280" height="280" viewBox="0 0 280 280" fill="none" xmlns="http://www.w3.org/2000/svg"><path d="M210.602 91.574c-3.992-.957-8.039-.356-11.731 1.285l-7.601-14.437c-.602-1.176-1.121-2.461-2.078-3.391-1.34-1.312-3.09-.984-4.54 0-1.613 1.067-2.898 2.707-3.882 4.539-1.012-.191-2.27.574-3.118 1.367-1.339 1.285-2.707 2.57-4.101 3.801l-2.133 1.805a11.73 11.73 0 0 0-.656.547c-.301.246-.602.465-.902.711-3.008 2.352-6.125 4.512-9.352 6.535a98.72 98.72 0 0 1-14 7.247c.766-1.313 1.285-2.789 1.449-4.266.684-5.414.766-10.883.356-16.324.136-2.461.355-4.922.574-7.355 2.379-2.953 3.746-7.738.711-8.258a3.85 3.85 0 0 0-.547-1.477c-1.094-1.695-4.02-2.105-5.77-2.68a204.17 204.17 0 0 0-12.879-3.691c-.875-.219-2.378.957-2.871 1.449-.902.902-1.613 1.941-2.187 3.063-.602 1.23-1.395 3.336-.848 4.813-1.558.82-2.679 2.461-3.445 3.992-.629 1.258-1.34 3.172-.875 4.621l-5.879-2.352c-3.281-1.312-5.934 4.047-6.617 6.398-.875 3.063-.028 5.688 2.351 7.711 2.079 1.75 4.868 2.707 7.301 3.855l1.067.492c-5.497.438-9.625 6.016-11.485 10.855-2.105 5.469-2.379 11.512-3.062 17.281l-.246 1.887c-2.325.711-4.512 1.094-7.055.82-3.144-.328-6.152-.847-9.242.137-3.965 1.258-6.973 4.703-8.477 8.504-.656 1.668-1.148 3.801.301 5.168l10.035 9.297 4.922 4.539 2.543 2.379c.711.656 1.395 1.476 2.297 1.859-.246.629-.41 1.258-.519 1.914-.246 1.614.273 4.075 2.516 3.2 8.066-3.172 15.914-6.782 23.598-10.801 3.746-1.969 7.437-4.02 11.074-6.207 1.64-.985 3.144-2.106 4.429-3.5l1.286 2.488c.464.957.957 1.941 1.312 2.926.219.629.328 1.285.438 1.914-2.789 1.668-4.786 4.484-6.153 7.41a7.22 7.22 0 0 0-.273.738l-7.684 4.184c-3.664 2.078-7.273 4.211-10.855 6.398-1.586.985-3.227 1.942-4.703 3.063-2.598 1.996-4.485 4.457-5.852 7.437-.875 1.914-1.285 5.989 1.996 5.196 12.004-2.871 23.106-8.532 33.742-14.684l8.039-4.785c2.79-1.668 5.442-3.391 7.438-6.016.984-1.285 1.996-3.008 2.598-4.812.929.191 2.324-.93 2.871-1.449a10.64 10.64 0 0 0 2.515-3.774c.657-1.75 1.422-4.84-1.066-5.359-1.641-.328-3.719-1.449-5.332-2.707-1.777-1.395-2.899-2.68-4.43-4.43l-3.5-4.074a267.36 267.36 0 0 0 8.914-3.117c7.684-2.871 15.176-6.18 22.504-9.871 8.367-4.239 16.488-8.915 24.309-14.11 1.886-1.258 3.5-3.719 3.965-5.933.355-1.586.41-3.5-1.504-3.965zm-18.758 10.883c.027-.137.082-.274.109-.411.055.082.11.192.137.274-.082.054-.164.082-.246.137zm59.199-36.504c-.574-1.094-1.34-1.422-2.051-1.094 1.067-1.367 1.914-3.008 2.297-4.621.328-1.449.52-3.117-.355-4.402-1.121-1.668-3.172-.219-4.239.684l-5.523 4.703c.219-.41.438-.82.711-1.121a2.8 2.8 0 0 1-.246.273l.465-.574c.082-.137.191-.246.273-.355l2.516-3.035c1.285-1.641 2.926-4.73 1.996-6.863-.875-1.996-3.199-1.066-4.375.246l-.957 1.066-.028.027-2.16 2.625c-.082.082-.136.137-.191.164l-.684.629c.192-.191-.793.547-.929.656a1.91 1.91 0 0 1-.246.164c-.055 0-.11.027-.247.055-.109.055-.218.082-.355.137a3.29 3.29 0 0 1 .055-.52c-.028.383.109-.191.191-.52a1.25 1.25 0 0 1 .137-.273l.027-.027c2.051-2.68 3.801-5.551 4.047-8.996.055-.82-.109-2.051-.93-2.543-.902-.52-1.886.055-2.652.465-2.68 1.367-4.375 4.074-6.016 6.48l-3.609 5.195c-.41-.164-.875-.246-1.395-.246-.82 0-1.421.137-2.023.273-.656-.656-1.422-1.121-2.297-1.121a3.34 3.34 0 0 0-.711.082c.246-1.23.274-2.68-.82-3.391l-2.57-1.75c-.766-.52-2.024.027-2.653.465-1.121.711-2.187 2.023-2.816 3.172-.547.984-1.34 2.68-1.395 4.184a36.36 36.36 0 0 0-3.554 4.621c-1.641 2.516-3.719 5.934-2.571 8.996.821 2.242 2.516 4.375 3.774 6.426l3.664 6.043 1.969 3.254c.628 1.039 1.312 2.023 2.625 2.188 1.066.137 2.296-.41 3.308-.684l3.527-1.012 7.055-2.023c.711-.192 1.367-.602 1.942-1.148a100.23 100.23 0 0 1 9.625-3.363c1.476-.437 2.707-1.805 3.582-3.281.601-.273 1.203-.519 1.777-.82 1.34-.711 2.297-1.723 3.09-3.035.984-1.805.847-4.703-.055-6.453zm17.746 97.589c.028-1.422-.792-3.473-2.625-2.57l-14.683 7.191c-.684.328-1.313.766-1.914 1.285a99.86 99.86 0 0 0-5.496 2.543c-2.051 1.039-3.664 2.899-4.485 5.086-.464 1.231-1.449 4.403.301 5.168l7.875 3.145c1.34.492 2.707 1.176 4.156.656 1.286-.438 2.434-1.586 3.254-2.598l1.121-1.64c.11-.192.192-.301.246-.356l4.485-6.097 2.57-3.118 1.094-1.257.957-1.039c1.531-1.668 3.117-4.02 3.144-6.399zM39.676 196.737c-.055 0-.109-.027-.164-.027v-.137l-.191-2.27c-.137-1.531-.082-3.527-1.504-4.484-1.121-.766-3.117-.629-4.402-.574-1.832.082-3.555.519-5.141 1.449-2.762 1.613-4.348 4.266-6.207 6.754l-.383.574a2.27 2.27 0 0 0-.301.274l-.656.601c-.027.027-.082.055-.137.11l-.875.574-.52.328a13.65 13.65 0 0 1-1.75.683c-2.488.848-4.43 3.993-4.922 6.426-.355 1.75-.164 4.731 2.434 3.828a21.54 21.54 0 0 0 4.32-2.05c.383.164.848.164 1.477-.082 4.102-1.614 8.367-2.133 12.688-1.668 1.121.711 2.57.355 3.855-.383 1.914-1.121 3.527-3.801 3.965-5.934.273-1.558.383-3.664-1.586-3.992zm61.222-97.563c-2.488-.273-4.703-1.367-6.945-2.434l-7.274-3.5c-4.703-2.352-9.516-4.84-13.535-8.258-3.5-2.981-6.289-6.727-9.187-10.281-3.199-3.965-6.781-7.437-10.418-10.965-2.926-2.816-5.387-5.961-7.355-9.461-.547-1.312-1.148-2.598-1.887-3.828-1.312-2.187-4.293.547-5.195 1.75s-1.777 2.734-2.078 4.32c-.629-.027-1.367.301-2.024.766-1.75-1.723-3.445-3.473-5.004-5.359-1.012-1.23-1.996-2.488-2.816-3.855-.437-.711-.82-1.449-1.176-2.187a8.33 8.33 0 0 0 .082-2.844c-.082-.492-.191-1.039-.41-1.586-.055-.273-.164-.492-.273-.82-.109-.246-.109-.356-.219-.52-.109-.191-.328-.574-.492-.738a1.32 1.32 0 0 0-.328-.273c-.055-.027-.219-.219-.328-.273-.219-.109-.52-.164-.738-.219-.246-.055-.437.027-.684.082-.164.055-.328.082-.465.137-.109.055-.273.219-.328.273-.082.055-.246.191-.328.301-.027.027-.027.055-.055.082a7.41 7.41 0 0 0-.492.766c-.328.656-.52 1.422-.629 2.133-.109.656-.082 1.313-.055 1.996.055.656.137 1.23.301 1.859.082.246.219.684.383 1.012a5.64 5.64 0 0 0-.328.957c-.301.082-.574.301-.793.547-1.75.137-2.16 3.227-2.133 4.512.027.766.137 2.27.656 3.309-.547-.301-1.285.164-1.641.52-.602.656-.93 1.832-1.039 2.707-.219 1.887-.027 4.02 1.395 5.387.137.875.355 1.805.793 2.598a4.6 4.6 0 0 0-.437 1.066c-1.148.793-1.449 3.172-1.422 4.266.027 1.23.328 4.211 1.996 4.484.246.465.574.82 1.012.984.93.355 1.34.957 1.969 1.695.793.93 1.723 1.75 2.707 2.516 1.887 1.422 4.074 2.352 6.207 3.254.574.246 1.094.137 1.504-.191.301.191.602.355.902.547l6.234 4.074c.246.164.547.219.875.219-.164 1.203-.137 2.406.137 3.582.82 3.5 3.719 5.578 6.672 7.273A424.77 424.77 0 0 0 66.2 112.248l2.844 1.421c.902.438 1.859 1.067 2.898 1.176 1.504.164 2.789-.875 3.856-1.777.246-.191.465-.41.711-.629.082-.055.602-.437.711-.52 1.695-1.175 2.57-1.64 4.457-2.324 1.668-.601 3.336-1.011 5.086-1.176.848-.082 1.613-.437 2.297-.957 2.379 1.094 4.813 2.051 7.438 2.352 3.938.41 8.887-10.117 4.402-10.637z" fill="#f9f9f9"/><path d="M267.121 164.06c-3.391 1.368-6.809 2.653-10.117 4.157-2.325 1.039-4.649 1.668-7.192 1.777-.437.027-1.094.328-1.203.656-1.914 5.66-5.742 10.145-8.996 14.985a21.78 21.78 0 0 0-1.859 3.308c-1.75 3.883-4.512 4.785-8.532 3.336-4.785-1.722-9.761-2.926-14.601-4.512-2.871-.929-5.578-2.351-8.449-3.226-2.926-.902-5.907-1.695-8.942-2.078-4.758-.629-9.543-1.231-14.383-.957l-13.48.601c-3.254.192-6.508.438-9.735.903-2.187.3-4.292 1.066-6.425 1.558-1.231.301-2.461.629-3.719.739-1.039.082-1.504.492-1.859 1.421-2.079 5.305-3.993 10.664-6.372 15.832-2.898 6.317-6.453 12.223-12.66 15.997-5.742 3.5-11.703 6.343-18.347 7.902-6.098 1.422-12.168 2.297-18.403 2.406-1.039.027-2.078.219-3.117.246-1.859.028-3.719.082-5.551-.027l-12.359-.766c-4.977-.273-9.871-.847-14.574-2.789-2.051-.847-4.43-.875-6.617-1.367-.984-.219-1.914-.711-2.898-1.012-1.422-.41-2.871-.738-4.293-1.148-2.379-.684-4.73-1.477-7.137-2.106-2.816-.738-3.145-3.964-.82-5.824.984-.793 1.832-1.75 2.762-2.625-.082-.164-.137-.301-.219-.465-.465-.109-.902-.328-1.367-.355-4.402-.055-8.777-.137-13.07 1.23-4.566 1.45-9.16 2.707-13.727 4.075-1.613.492-2.871.273-3.555-.766-.656-.984-.246-2.16.738-3.555 5.359-7.601 12.605-13.453 18.84-20.234.164-.164.328-.301.492-.465.601-.574 1.285-.984 1.996-.246.711.711.219 1.312-.273 1.887l-13.18 15.558c-.437.52-.82 1.067-1.476 1.887 2.16-.52 4.047-.766 5.769-1.422 4.457-1.723 8.996-2.68 13.781-2.516 1.887.055 3.801 0 5.824 0l-3.883-11.621c-.164-2.187.875-3.828 2.707-4.812 2.188-1.149 4.457-2.16 6.727-3.117l17.883-7.493c.766-.328 1.477-.41 1.805.465s-.383 1.149-1.012 1.45c-4.812 2.269-9.707 4.457-14.437 6.917-2.871 1.477-5.578 3.364-8.312 5.086-.602.383-.684.903-.437 1.641.848 2.379 1.449 4.84 2.379 7.191 1.395 3.61 2.844 7.219 4.539 10.692.602 1.23 1.805 2.625 3.063 3.035 4.922 1.641 9.406-.027 13.727-2.379.984-.547 1.887-1.23 2.844-1.832l6.234-3.828 14.711-9.27c3.09-1.914 6.234-3.691 9.352-5.523 3.063 2.051 6.125 4.129 9.625 5.086l-3.883-9.488c3.555-2.735 5.988-6.289 7.711-10.364 3.144.164 6.043-.765 8.941-1.859 9.844-3.719 18.512-9.68 27.864-14.328 5.25-2.625 9.515-5.988 13.125-10.5 2.543-3.172 5.222-6.207 7.847-9.324-.082-.11-.191-.192-.273-.301-1.832 0-3.692.164-5.469-.082-.875-.11-1.723-.903-2.434-1.559-.273-.246-.218-1.066 0-1.476.11-.219.821-.192 1.258-.219 1.586-.109 3.172-.055 4.703-.356 1.942-.382 3.801-1.093 5.715-1.64 1.203-.356 2.297-.11 3.063.875.793 1.012.629 2.242-.028 3.199-2.324 3.363-4.757 6.617-7.218 10.035 2.023 0 4.211.164 6.371-.027 3.363-.328 6.699-1.012 10.09-1.367 2.843-.301 5.714-.328 8.558-.52l10.719-.793c3.035-.219 6.07-.547 9.105-.574l25.403-.055c2.98-.027 5.988-.41 8.969-.547 1.203-.054 2.46.082 3.636.329 1.805.355 3.555.902 5.36 1.312 2.953.684 3.91 3.418 2.132 5.824-.82 1.121-1.476 2.352-2.078 3.61-.547 1.093-.902 2.269-1.367 3.39-.437 1.067-.93 2.133-1.558 3.528l3.253-1.176 9.325-3.582c1.832-.739 3.664-1.531 5.441-2.379 1.285-.602 2.516-.985 3.91-.438 1.449.547 2.16 1.969 1.34 3.282-2.434 3.964-4.977 7.875-7.492 11.812-.93 1.449-1.996 2.844-2.68 4.402-1.914 4.266-4.949 7.684-8.012 11.102-1.285 1.449-2.871 1.613-4.593.875-1.45-.602-2.981-1.066-4.403-1.723-.519-.246-.82-.875-1.23-1.312.492-.383.984-1.094 1.476-1.067 1.641.055 3.282.383 4.95.547.41.028 1.011-.027 1.23-.3 2.625-3.172 5.168-6.372 6.973-10.172 1.476-3.09 3.637-5.825 5.496-8.723.273-.41.519-.848.766-1.285.054-.082.082-.192.136-.274h-.355zm-65.926-9.406h.027c0-.984.082-1.996-.054-2.98-.055-.383-.575-.684-.875-1.039-.356.328-1.012.656-1.012 1.011-.109 1.942-.109 3.911 0 5.852.027.383.629.711.957 1.066.301-.355.848-.683.902-1.066.137-.93.055-1.887.055-2.844zm2.598 1.641c.355.355.683.93 1.121 1.039.273.055.929-.574 1.011-.985.329-1.476.52-3.007.657-4.539.027-.382-.328-.793-.52-1.203-.328.246-.847.438-.957.739-.492 1.586-.848 3.144-1.312 4.949zm10.718-3.664c-.793-.547-1.285-1.176-1.695-1.121-.465.054-.848.711-1.258 1.121.41.41.793 1.093 1.258 1.176.41.027.902-.602 1.695-1.176z" fill="#010101"/><path d="M109.156 177.896c-1.75 4.074-4.184 7.629-7.711 10.363l-5.742 4.402-9.352 5.524-14.711 9.269-6.234 3.829c-.957.601-1.859 1.285-2.844 1.832-4.293 2.324-8.805 4.019-13.727 2.378-1.23-.41-2.434-1.804-3.062-3.035-1.695-3.472-3.145-7.082-4.539-10.691-.902-2.352-1.531-4.813-2.379-7.191-.246-.739-.164-1.258.438-1.641 2.762-1.723 5.441-3.609 8.313-5.086 4.73-2.434 9.625-4.621 14.438-6.918.629-.301 1.34-.602 1.012-1.449-.328-.903-1.039-.793-1.805-.465l-17.883 7.492c-2.27.957-4.539 1.969-6.727 3.117-1.832.985-2.871 2.598-2.707 4.813-1.312-2.899-2.734-5.742-3.937-8.696-1.695-4.156-3.254-8.394-4.785-12.605-.793-2.187-1.504-4.402-2.215-6.644-.492-1.532-.875-3.118-1.449-4.649-1.094-2.844-1.75-5.769-2.024-8.805l-.875-8.75c-.191-1.531.109-2.871 1.094-4.046l4.512-5.278c1.367-1.504 3.254-1.887 5.141-2.133 4.348-.574 8.695-.957 13.043-1.504 4.977-.601 9.461-2.433 14.055-4.128 3.336-1.204 6.781-2.079 10.254-2.844 3.336-.711 6.098.847 8.23 3.199 2.078 2.297 3.883 4.867 5.605 7.465 1.996 2.98 4.211 5.687 7.328 7.519 2.871 1.696 5.004 4.129 7.273 6.508 2.215 2.352 4.539 4.594 6.864 6.809.3.273.984.41 1.394.301 14.684-4.157 27.809-11.485 40.196-20.207 2.46-1.723 4.402-4.184 6.589-6.29l5.196-.902 5.55-1.23c-.382 1.011-.519 2.215-1.148 3.035-3.281 4.183-6.59 8.394-10.144 12.359-1.805 2.051-4.157 3.61-6.235 5.414-1.695 1.504-3.281 3.145-5.058 4.567l-12.278 9.625c-4.676 3.582-9.844 6.289-15.012 9.05-.382.192-.71.711-.793 1.149-.492 1.75-.82 3.473-1.148 5.168zm-14.52-15.231c1.449-.273 1.969-.847 1.887-2.132-.055-1.176-.848-1.997-2.297-1.997-1.148 0-2.379.11-3.445.493-2.516.875-5.031 1.804-7.41 2.98-5.277 2.625-10.664 4.977-16.57 5.688-2.461.3-4.84.027-6.426-2.243l-5.852-8.503c-1.23-1.832-2.598-3.61-3.527-5.579-2.051-4.32-3.883-8.75-5.797-13.125-.137-.328-.301-.656-.492-.984-.957-1.613-2.187-3.172-.355-5.223-.793-.082-1.477-.109-1.969.192-1.176.738-1.586 2.051-1.148 3.472.52 1.641 1.121 3.227 1.695 4.868l2.652 7.957c.465 1.312.984 2.625 1.586 3.882 1.066 2.133 2.188 4.239 3.363 6.317.574 1.039 1.258 1.996 1.914 2.98l4.676 7c2.105 2.981 5.414 4.184 8.613 3.582 4.703-.847 9.324-2.433 13.836-4.129 4.238-1.585 8.258-3.718 12.332-5.578.711 1.723 1.367 3.145 1.914 4.649.957 2.679 1.832 5.386 2.734 8.066.328 1.012 1.012 1.559 2.078 1.231 1.012-.301 1.012-1.176.82-2.024-.109-.492-.273-.957-.465-1.422l-4.348-10.418zm7.984-3.144l-.41.246c.136.601.273 1.176.437 1.777l2.68 10.719c.137.465.766 1.23 1.012 1.176.519-.11 1.066-.602 1.339-1.094.219-.383.165-1.012 0-1.449l-4.265-10.473c-.164-.355-.547-.601-.793-.902z" fill="#43bf7c"/><path d="M160.89 127.637l-5.551 1.231-5.195.902c-.383-.629-1.203-1.422-1.039-1.832.246-.683 1.066-1.34 1.805-1.586l13.07-3.992c5.387-1.777 10.363-4.484 15.312-7.191 1.614-.875 3.364-1.559 5.032-2.324 1.039-.465 2.105-.875 3.089-1.422l11.375-6.399c1.04-.574 1.067-1.066.711-2.133-2.707-8.039-7.136-15.312-10.691-22.968-.574-1.23-1.449-2.297-2.242-3.527-2.707 2.105-5.387 4.047-7.903 6.18-2.597 2.215-4.949 4.703-7.574 6.863-2.679 2.215-5.441 4.402-8.394 6.234-4.102 2.57-8.34 4.894-12.633 7.164-4.266 2.269-8.941 3.363-13.699 4.101-.219.028-.547.11-.629.028-.985-1.204-2.242-.493-3.391-.52l-10.199-.437c-.93-.055-1.914-.575-2.762-1.067-1.011-.574-1.258-1.805-.765-2.734.546-1.012 1.804-1.531 2.789-.875 2.734 1.75 5.879 1.668 8.886 2.215 1.75.3 3.5.547 5.25.82.082.027.219 0 .274.055 1.394 1.449 2.652.218 3.937-.246.602-.219 1.121-.602 1.696-.821 3.964-1.422 4.402-4.867 4.785-8.34.164-1.449.437-2.871.519-4.32l.328-10.883c0-.41-.218-.848-.382-1.422-.52 2.324-.957 4.512-1.532 6.644-.984 3.609-3.964 4.512-6.644 1.969-1.586-1.504-2.871-3.309-2.926-5.633 0-.355.438-.738.656-1.121.328.301.903.547.957.902.356 2.106 2.106 3.09 3.5 4.32.957.848 1.805.465 2.297-1.012.793-2.488 1.86-5.004 2.024-7.574.246-3.91 2.379-6.426 5.004-8.805.136-.109.246-.246.601-.629l-7.601-3.172c-1.586-.629-3.254-1.094-4.813-1.805-1.012-.465-1.777-.301-2.625.246-.766.492-1.559.93-2.406 1.23-.301.109-.793-.191-1.176-.301.164-.355.246-.738.465-1.012.711-.82 1.476-1.586 2.351-2.488l-2.515-.766c-.711 1.613-1.586 3.117-2.078 4.73-.903 3.09-3.172 5.25-5.004 7.684-.656.848-1.149 1.449-.574 2.598.519 1.094.82 2.297 1.121 3.473.218.875.382 2.023-.602 2.406-.711.301-2.105.328-2.461-.082-1.996-2.461-4.758-2.297-7.437-2.543-2.489-.219-3.774.684-4.157 3.145-.082.52.11 1.258.465 1.668 2.707 3.063 5.797 5.496 10.145 5.578.191 0 .41.164.601.246l.52 3.035c-1.586.93-3.145 1.914-4.785 2.734l-9.68 4.785-3.609-.219-4.403-2.379c-2.296-1.176-3.882-2.816-4.457-5.469-.574-2.734-1.695-5.359-2.133-8.121-.793-4.977-.766-9.953 1.176-14.738.711-1.723 1.395-3.555 2.488-5.031 2.57-3.527 6.343-5.441 10.418-6.508 4.046-1.066 8.203-1.805 12.359-2.461 2.543-.41 5.141-.41 7.711-.684.355-.027.847-.328 1.012-.656 1.695-3.336 4.375-5.469 7.82-6.809 4.785-1.887 9.351-4.129 13.426-7.328 1.722-1.34 4.129-.328 4.265 1.887.164 2.516.082 5.059-.109 7.574-.192 2.488-.547 4.949-.957 7.41-.492 2.816-1.75 5.359-3.254 8.148 1.449.438 2.98.82 4.457 1.367.766.273 1.75.711 1.996 1.34.274.684.055 1.805-.355 2.461-.602.984-1.477 1.914-2.434 2.543-2.187 1.449-2.98 3.418-2.269 5.852 1.011 3.418.437 6.863.246 10.309-.164 2.926-.793 5.824-1.231 8.723-.082.574-.137 1.148-.246 1.996l2.379-1.504c2.406-1.613 4.758-3.363 7.219-4.84 3.554-2.133 6.48-4.949 9.543-7.656 4.511-3.992 9.242-7.766 13.863-11.676l8.531-7.41c1.504-1.312 3.008-2.598 4.567-3.828 1.312-1.039 2.707-1.039 3.992 0 .957.766 1.777 1.668 2.789 2.652 1.066-1.559 2.351-3.035 3.199-4.758 2.133-4.43 4.074-8.941 6.098-13.453.711-1.613 2.269-2.379 3.91-1.75 2.324.875 4.621 1.805 6.863 2.844 1.887.875 2.434 2.598 1.695 5.414.547-.383.985-.547 1.286-.848 2.925-2.953 6.316-5.496 8.586-9.078.273-.41.683-.738 1.066-1.039.957-.711 2.352-.656 3.09.191.82.93.984 2.023.164 2.953-2.461 2.816-4.43 6.07-7.602 8.34-2.133 1.531-3.91 3.527-5.906 5.195-.656.547-1.559 1.012-2.406 1.148-2.735.492-4.621-1.805-3.965-4.758.246-1.148.656-2.242 1.039-3.5l-3.773-1.695c-1.696 3.172-3.391 6.207-4.922 9.324-1.559 3.199-3.692 5.906-6.453 7.984l12.168 19.578c4.976-1.176 10.363-2.215 15.585-3.719 3.665-1.039 7.137-2.707 10.692-4.129.656-.273 1.258-.766 1.941-.957.41-.109.957.164 1.422.273-.137.438-.164 1.039-.465 1.258-1.968 1.477-3.91 2.953-5.988 4.238-4.019 2.488-8.531 3.856-13.016 5.25-2.843.875-5.742 1.531-8.804 2.324a52.02 52.02 0 0 0 .519 1.477c.739 2.106.164 3.938-1.558 5.305-1.969 1.531-3.91 3.09-5.797 4.73-4.895 4.239-10.254 7.766-16.16 10.446-1.969.902-3.746 2.242-5.688 3.172-3.144 1.503-6.426 2.652-9.515 4.265-4.704 2.434-9.461 4.676-14.52 6.289-1.723.574-3.391 1.039-5.086 1.531zm27.07-52.117l3.938 7.082c1.148 2.16 2.023 4.457 3.336 6.508 2.488 3.91 4.648 7.957 6.234 12.305.164.465.438.93.738 1.558l11.786-9.707c-.438-1.203-.739-2.379-1.258-3.473-.903-1.859-2.133-3.582-2.926-5.496-2.57-6.18-7.219-11.047-10.609-16.68-.219-.383-.547-.711-1.012-1.285L187.96 75.52z" fill="#020202"/><path d="M54.852 66.309l-1.367 3.664c-.793 2.352-2.16 4.348-3.609 6.316-2.68 3.637-5.113 7.465-7.629 11.238-.602.902-1.094 1.887-1.75 2.762-.711.93-.711 1.832-.109 2.762 1.914 2.981 4.02 5.742 7.328 7.274 1.859.875 3.774 1.64 5.66 2.515.656.301 1.258.711 1.859 1.094 1.504.93 3.035 1.805 4.457 2.844.656.465 1.258 1.176 1.559 1.887.246.546.219 1.64-.137 1.941-.52.438-1.531.684-2.16.465-1.832-.629-3.555-1.531-5.305-2.324-1.258-.575-2.516-1.203-3.801-1.723-4.649-1.887-8.75-4.512-11.84-8.586-1.422-1.859-2.762-3.719-3.035-6.125-.082-.711 0-1.422 0-2.434l-5.305-2.023c-2.023-.766-4.266-1.23-6.016-2.406-2.816-1.887-5.523-4.074-6.508-7.602-.109-.383-.082-.793-.109-1.176l.328-.246 1.148 1.066 2.953 2.516c.219.164.52.246.684.438 2.106 2.734 5.414 2.816 8.313 3.773 2.188.711 4.457 1.23 6.836 1.859l6.234-9.406c.602-.902 1.094-1.914 1.859-2.68 2.543-2.652 3.719-5.961 4.758-9.352.082-.301.191-.82.027-.984-2.434-2.379-2.953-5.605-3.91-8.641-.437-1.395-.93-2.789-1.367-4.129l-4.922 2.023c.137 1.285.383 2.516.383 3.746 0 3.035-3.637 4.211-5.879 2.762-.383-.246-.766-.492-1.094-.82-3.09-3.09-6.289-6.098-8.285-10.035-.984-1.941-1.531-4.129-2.27-6.207-.219-.629-.355-1.312-.574-1.941-.492-1.34-.027-2.707 1.094-3.117 1.148-.437 2.543.137 3.008 1.422.465 1.367.738 2.789 1.094 4.184.848 3.391 2.789 6.152 5.168 8.641l2.133 2.242c.055-.055.137-.109.137-.164-.41-3.746.875-4.867 4.375-5.77 1.121-.301 2.16-1.012 3.199-1.613.574-.328 1.067-.875 1.641-1.176 1.723-.848 3.281-.383 3.855 1.422 1.121 3.609 2.023 7.301 2.98 10.938.246.875.41 1.75.656 2.734.219-.109.41-.191.574-.301 1.258-.902 2.598-.848 3.609.355l10.582 12.824c1.313 1.531 2.789 2.953 4.32 4.293 3.336 2.953 6.863 5.688 10.063 8.805 3.145 3.063 6.59 5.551 10.609 7.246.492.219 1.066.355 1.449.711.301.273.383.793.574 1.203-.41.164-.848.547-1.203.465-4.293-1.066-8.422-2.434-11.922-5.277l-10.856-8.695-6.726-5.141c-.027.027-.301.383-.437.766-1.504 4.84-4.621 8.695-7.793 12.469-2.078 2.461-4.375 4.73-6.645 7.055-.355.383-.957.519-1.449.766.219-.547.301-1.176.629-1.613 3.363-4.348 6.918-8.559 10.063-13.043 1.777-2.57 2.926-5.578 4.293-8.422.109-.219-.082-.684-.273-.93l-6.207-7.383z" fill="#030303"/><path d="M107.952 103.688l-.793 21.109c-.054 1.394-.328 2.789-.519 4.183-.219 1.532-1.121 2.598-2.57 3.008-1.122.328-2.297.492-3.446.602l-4.621.273c-1.641.028-2.406-1.066-2.106-2.679l.875-5.879-4.648 5.605c-.437.52-.902 1.121-1.504 1.34-.629.246-1.531.355-2.078.055-.766-.383-.684-1.285-.273-2.024l2.707-4.84a6.69 6.69 0 0 1 .328-.464l.082-.329c-.082.055-.164.11-.246.192l-.41.301-2.488 1.668c-3.527 2.351-5.605 2.023-8.039-1.368-1.969-2.734-3.5-5.632-3.992-9.05-.437-2.981 1.613-6.7 4.566-7.411l17.801-4.128c2.352-.602 4.512-1.914 6.782-2.899 1.777.492 3.472 1.121 4.593 2.735z" fill="#010202"/><path d="M148.422 241.388c3.281 1.066 6.262.82 9.324-.055 7.328-2.078 13.973-5.332 19.305-10.882 1.613-1.696 3.008-3.583 4.511-5.442-4.457-2.762-4.921-7.301-4.128-10.391.492-1.914 1.613-3.417 3.281-4.539 1.476-.984 3.035-1.531 4.73-.738 1.969.957 2.68 2.817 2.543 4.758-.164 2.516-.738 5.004-1.148 7.492-.055.301-.164.602-.301 1.121 1.039-.246 1.941-.41 2.816-.683 5.141-1.559 9.461-4.321 12.825-8.504l11.265-14.055c.465-.602.739-1.367 1.203-1.941.575-.684 1.45-1.067 2.133-.356.356.383.465 1.449.164 1.887-4.593 6.672-9.406 13.152-15.039 18.949-4.129 4.238-9.379 6.563-15.203 7.465-1.148.191-1.859.629-2.516 1.641-4.867 7.519-11.757 12.496-20.097 15.531-2.789 1.012-5.66 1.887-8.559 2.515-3.254.711-6.48.192-9.597-1.066-.383-.164-1.067-.273-1.313-.055-4.539 3.719-10.062 4.676-15.531 6.043-6.262 1.559-12.606 2.133-19.031 2.133-6.098 0-12.168-.164-18.266-.273-.629 0-1.285-.055-1.887-.246-.383-.137-.656-.575-.984-.848.383-.219.766-.629 1.176-.629 1.504-.027 3.008.164 4.512.082 6.618-.301 13.235-.848 19.879-.957 7.192-.109 13.891-2.434 20.727-4.102 2.543-.628 4.84-2.296 7.383-3.554-.985-1.121-1.805-1.914-2.489-2.817-1.996-2.679-1.613-6.781 1.039-8.832 2.625-2.023 5.497-3.746 8.805-4.347 1.203-.219 2.652 0 3.801.437 2.133.821 2.926 2.899 2.269 5.332-1.011 3.692-3.363 6.481-6.234 8.86-.437.328-.82.629-1.367 1.066zm-3.09-1.941c1.148-.93 2.27-1.723 3.281-2.653 1.86-1.722 3.282-3.718 4.02-6.179.383-1.258-.274-1.641-1.231-1.641-.711 0-1.449.137-2.078.437-1.777.848-3.554 1.75-5.277 2.762-1.996 1.203-2.242 3.445-.684 5.195.547.711 1.231 1.34 1.969 2.079zm37.352-17.172c1.148-3.145 2.078-6.153 1.257-9.461-2.461.574-3.472 2.187-3.773 4.293-.301 2.133.328 3.937 2.516 5.168z" fill="#040404"/><path d="M250.769 55.232c-.465.684-.711 1.313-1.176 1.695-3.281 2.707-6.59 5.414-10.609 7-.328.137-.684.328-1.012.328-.355 0-.848-.137-1.039-.41-.164-.246-.109-.793.055-1.066.301-.492.711-.957 1.176-1.312l9.05-7.437c.52-.41 1.532-.574 2.188-.383.547.164.875.984 1.367 1.586zm-4.238-6.344c-.192.246-.492.93-.985 1.34l-5.086 4.047-4.539 3.145c-.464.273-1.558.164-1.859-.191-.519-.629.191-1.094.711-1.586l6.727-6.918c.656-.684 1.285-1.422 2.05-1.941 1.313-.848 2.953.109 2.981 2.106z" fill="#050505"/><path d="M239.886 72.213c-.437-.465-1.148-.902-1.23-1.422-.055-.41.574-1.094 1.039-1.394l4.922-2.871 4.047-2.488c.328-.191.738-.301 1.148-.41.902-.219 1.668.082 2.051.93.41.875.191 1.805-.684 2.242l-10.199 5.031c-.219.109-.547.082-.793.109l-.301.273z" fill="#040404"/><path d="M17.828 50.75c-.027-1.121.465-1.859 1.586-1.996s1.805.465 2.023 1.559c.137.656.137 1.34.328 1.996.301 1.066.52 2.215 1.066 3.172.902 1.613 2.023 3.09 3.008 4.676.137.219.082.711-.055.93-.109.164-.574.219-.82.137-3.391-1.258-7.164-6.863-7.137-10.473z" fill="#050505"/><path d="M107.953 103.686c-1.121-1.586-2.816-2.242-4.621-2.734-.328-.109-.766-.137-.984-.383-.328-.383-.52-.875-.793-1.34.465-.246.929-.629 1.422-.711.546-.082 1.148.082 1.722.164l3.61.219c.218.027.464.082.683.055 1.176-.082 2.297.219 2.571 1.449.191.82.054 1.914-.356 2.625-.629 1.121-1.832 1.121-3.008.711-.054-.027-.164-.055-.246-.055z" fill="#1a70fa"/><path d="M125.836 37.46l1.312-4.703a35.04 35.04 0 0 0 .711-3.691c.164-1.367 1.012-2.215 2.188-2.078 1.121.137 1.449 1.039 1.312 2.488-.3 3.309-2.351 5.934-3.445 8.914-.082.246-.82.547-.93.438-.492-.383-.82-.93-1.148-1.367z" fill="#050505"/><path d="M17.856 57.613c.246.219.93.547 1.148 1.066 1.066 2.543 2.625 4.785 4.238 7 .246.356.137.957.219 1.449-.465.055-.93.219-1.367.137-.52-.109-1.039-.355-1.449-.711-2.078-1.75-3.91-3.719-4.84-6.344-.465-1.312.328-2.598 2.051-2.598zm96.933-22.667l.273 4.895c.055.902-.054 1.723-1.148 1.777-1.039.055-1.203-.684-1.312-1.531l-1.012-7.273a13.78 13.78 0 0 1-.082-1.504c.027-1.066.574-1.723 1.668-1.75 1.23-.027 1.722.766 1.75 1.805.082 1.094-.055 2.187-.137 3.582z" fill="#040404"/><path d="M122.773 91.328l-.519-3.035c.656-1.121 1.558-2.078 2.871-1.805.902.191 1.859.902 2.406 1.641.793 1.121.356 2.324-.601 3.254s-2.051 1.012-3.227.465c-.301-.137-.601-.328-.93-.519z" fill="#196ffc"/><path d="M96.578 36.367c.684.492 1.313.738 1.641 1.203 1.012 1.422 1.969 2.898 2.817 4.457.191.383-.219 1.094-.356 1.668-.547-.137-1.258-.137-1.641-.465a33.74 33.74 0 0 1-3.5-3.637c-.355-.437-.52-1.258-.355-1.805.137-.52.82-.875 1.394-1.422zm36.75 32.184c.274.109.602.164.793.356 1.422 1.422 3.117 1.695 4.977 1.285.82-.164 1.75-.547 2.078.492.355 1.094-.574 1.613-1.422 1.969-1.969.793-5.141-.055-6.371-1.777-.383-.547-.301-1.367-.465-2.078l.41-.246z" fill="#070707"/><path d="M20.726 73.307c-1.723 0-4.129-1.75-4.621-3.008-.356-.957-.164-1.777.793-2.133s1.504.137 1.941 1.121c.438.93 1.34 1.613 2.023 2.434.273.301.492.656.738.984l-.875.602z" fill="#080808"/><path d="M88.074 52.746c-.383-.547-1.012-1.039-1.148-1.613-.191-.902.656-1.367 1.34-1.23.547.109 1.258.766 1.34 1.258.055.465-.602 1.039-.957 1.586-.191-.027-.383-.027-.574 0z" fill="#090909"/><path d="M95.676 192.664l5.742-4.402 3.883 9.488c-3.5-.957-6.535-3.035-9.625-5.086z" fill="#f9f9f9"/><path d="M201.195 154.656c0 .957.082 1.914-.054 2.844-.055.383-.575.711-.903 1.066-.328-.355-.929-.683-.957-1.066-.109-1.941-.109-3.91 0-5.852.028-.355.657-.683 1.012-1.011.301.355.82.656.875 1.039.137.984.055 1.996.055 2.98h-.028z" fill="#186efb"/><path d="M203.793 156.297l1.312-4.922c.11-.328.629-.492.957-.738.192.41.547.82.52 1.203a42.22 42.22 0 0 1-.656 4.539c-.082.41-.738 1.039-1.012.984-.437-.136-.766-.711-1.121-1.066z" fill="#1a71f1"/><path d="M214.512 152.632c-.793.575-1.285 1.231-1.668 1.176-.465-.082-.848-.738-1.258-1.176.41-.41.793-1.066 1.258-1.121.383-.054.875.547 1.668 1.121z" fill="#1b73ed"/><path d="M267.121 164.062h.328c-.054.083-.082.192-.137.274-.054-.082-.109-.191-.191-.274z" fill="#fefefe"/><path d="M94.636 162.668l4.348 10.391c.191.464.356.929.465 1.421.191.848.164 1.723-.82 2.024-1.066.328-1.75-.219-2.078-1.231l-2.734-8.066c-.52-1.477-1.203-2.926-1.914-4.648-4.074 1.859-8.094 3.992-12.332 5.578-4.512 1.695-9.133 3.281-13.836 4.129-3.199.574-6.508-.629-8.613-3.582-1.613-2.297-3.117-4.649-4.676-7-.656-.985-1.34-1.942-1.914-2.981-1.148-2.078-2.297-4.184-3.363-6.316-.629-1.258-1.148-2.571-1.586-3.883-.93-2.625-1.75-5.305-2.652-7.957l-1.695-4.867c-.437-1.422 0-2.735 1.148-3.473.465-.301 1.148-.246 1.969-.191-1.832 2.05-.574 3.609.355 5.222.191.301.328.629.492.985l5.797 13.125c.93 1.968 2.297 3.746 3.527 5.578l5.851 8.504c1.586 2.269 3.992 2.543 6.426 2.242 5.906-.711 11.293-3.063 16.57-5.688 2.379-1.175 4.895-2.105 7.41-2.98 1.066-.383 2.297-.492 3.445-.492 1.422 0 2.242.82 2.297 1.996.055 1.34-.465 1.886-1.887 2.16z" fill="#020503"/><path d="M102.621 159.523c.274.301.629.547.793.903l4.266 10.472c.164.438.218 1.094 0 1.45-.274.492-.821.984-1.34 1.093-.246.055-.875-.711-1.012-1.175l-2.68-10.719a40.7 40.7 0 0 0-.437-1.777c.109-.083.273-.165.41-.247z" fill="#030906"/><path d="M187.961 75.523l10.226-9.187 1.012 1.285c3.391 5.66 8.039 10.5 10.61 16.68.793 1.914 2.023 3.637 2.925 5.496.52 1.094.848 2.27 1.258 3.473l-11.785 9.708c-.301-.629-.547-1.094-.738-1.559-1.586-4.348-3.746-8.395-6.235-12.305-1.312-2.051-2.187-4.348-3.336-6.508l-3.937-7.082z" fill="#fdfdfd"/><g fill="#fefefe"><path d="M89.305 124.004l-.328.465-.246-.328.41-.301.164.164z"/><path d="M89.141 123.84c.082-.055.164-.11.246-.192l-.082.329c-.055-.028-.109-.082-.164-.137z"/></g></svg>