<svg xmlns="http://www.w3.org/2000/svg" width="137" height="120" fill="none"><g clip-path="url(#A)"><path d="M135.55 54.516c-.715.191-1.412.477-2.146.553l-9.791.992-7.193.706c-1.525.057-3.069-.286-4.067-1.907s-.452-3.681 1.186-4.177l5.762-1.45c3.784-.668 7.607-1.221 11.429-1.755 2.015-.286 3.935.324 5.404 2.06 1.506 1.793.753 4.273-.603 4.998h-.037l.056-.019zm-10.62-29.032l-5.705 3.147c-3.634 1.984-7.55 3.376-10.864 5.932-1.167.897-2.561.534-3.333-.591-.678-.992-.433-2.499.64-3.338l12.089-9.194c1.374-1.03 2.711-2.155 4.217-2.918 2.241-1.125 4.444-.095 5.084 2.175.527 1.907-.584 3.224-2.128 4.807v-.019z" fill="#060606"/><path d="M125.307 81.869c.377 1.869-.282 3.529-1.732 4.425-1.488.935-3.559 0-4.689-1.354-1.355-1.641-3.106-3.014-4.839-4.292-1.431-1.068-3.069-1.831-4.613-2.766-.96-.591-1.431-2.422-.885-3.434.81-1.564 2.147-2.155 3.597-1.583 3.69 1.431 7.305 3.014 10.525 5.398 1.243.935 2.335 1.984 2.636 3.624v-.019z" fill="#070707"/><path d="M1.506 49.328c.716-.172 1.431-.439 2.147-.515l9.81-.801 7.193-.572c1.525-.038 3.069.343 4.029 2.003.96 1.641.377 3.701-1.262 4.158l-5.799 1.335c-3.803.591-7.626 1.068-11.467 1.526-2.034.229-3.935-.401-5.366-2.175-1.469-1.831-.659-4.292.697-4.978h.038l-.019.019zm10.055 31.893l5.762-3.033c3.672-1.907 7.607-3.224 10.977-5.703 1.186-.877 2.561-.496 3.314.649.659 1.011.377 2.499-.716 3.319L18.64 85.399c-1.393 1.011-2.749 2.098-4.274 2.823-2.26 1.068-4.444 0-5.046-2.27-.49-1.927.659-3.205 2.222-4.75l.019.019z" fill="#060606"/><path d="M12.239 20.83c-.339-1.869.358-3.51 1.808-4.387 1.506-.916 3.559.057 4.651 1.45 1.318 1.679 3.032 3.071 4.745 4.406 1.412 1.087 3.032 1.907 4.557 2.861.96.61 1.393 2.442.828 3.453-.828 1.545-2.184 2.098-3.634 1.507-3.653-1.507-7.23-3.166-10.412-5.608-1.224-.973-2.297-2.041-2.561-3.681h.019z" fill="#070707"/><path d="M56.401 78.131c-1.229-15.184-.117-35.727.234-51.254.156-6.466 1.522-12.971.722-19.399-.195-1.602-.663-6.466 1.112-7.21 1.093-.458 1.951 1.125 4.39 1.24C65.24 1.622 65.611.21 68.615 0c1.697-.134 1.775.305 4.468.458 3.57.191 4.351-.534 5.288-.191 3.356 1.278 1.112 13.085.39 23.29-.449 6.085.136 15.947.332 27.773.156 9.118 1.424 18.312.195 27.563-.332 2.48-1.268 4.197-3.122 5.15-4.175 2.155-11.668 3.128-16.116 2.251-2.654-.534-3.453-5.379-3.668-8.183l.02.019zm0 39.771c-1.229-3.777-.117-8.889.234-12.742.137-1.45-.449-3.434.722-4.826.527-.63 2.79-1.183 4.624-1.431s6.926-.153 8.995-.057c3.005.153 7.297.801 7.785 1.869s-.078 2.499 0 3.605c.176 2.289.176 4.597.332 6.905s1.424 4.559.195 6.848c-.332.611-1.268 1.049-3.122 1.278-4.175.534-11.668.782-16.116.554-2.654-.134-3.453-1.336-3.668-2.041l.02.038z" fill="#1a6ffe"/></g><defs><clipPath id="A"><path fill="#fff" d="M0 0h137v120H0z"/></clipPath></defs></svg>