<svg width="14" height="14" viewBox="0 0 14 14" fill="none" xmlns="http://www.w3.org/2000/svg"><path d="M13.6663 7.00016C13.6663 8.76827 12.964 10.464 11.7137 11.7142C10.4635 12.9644 8.76778 13.6668 6.99967 13.6668C6.1242 13.6668 5.25729 13.4944 4.44845 13.1594C3.63961 12.8243 2.90469 12.3333 2.28563 11.7142C1.03539 10.464 0.333008 8.76827 0.333008 7.00016C0.333008 5.23205 1.03539 3.53636 2.28563 2.28612C3.53587 1.03587 5.23156 0.333496 6.99967 0.333496C7.87515 0.333496 8.74206 0.505935 9.5509 0.840966C10.3597 1.176 11.0947 1.66706 11.7137 2.28612C12.3328 2.90517 12.8238 3.6401 13.1589 4.44894C13.4939 5.25778 13.6663 6.12468 13.6663 7.00016ZM2.99967 7.66683H8.33301L5.99967 10.0002L6.94634 10.9468L10.893 7.00016L6.94634 3.0535L5.99967 4.00016L8.33301 6.3335H2.99967V7.66683Z" fill="#4B689F"/></svg>