<svg xmlns="http://www.w3.org/2000/svg" xmlns:xlink="http://www.w3.org/1999/xlink" height="228" viewBox="0 0 33 228" width="33"><svg height="24" viewBox="0 0 25 24" width="25" x="4" y="4" fill="none"><path d="M11.6368 13.506L5.48571 9.53927C5.28608 9.41053 5.02641 9.42416 4.84137 9.57308L0.705912 12.901C0.413017 13.1367 0.43679 13.59 0.75276 13.7938L6.90387 17.7604C7.1035 17.8892 7.36318 17.8756 7.54821 17.7266L11.6837 14.3988C11.9766 14.163 11.9528 13.7097 11.6368 13.506Z" fill="#1587EA"/><path d="M13.3162 14.3987L17.4517 17.7266C17.6368 17.8755 17.8964 17.8891 18.096 17.7604L24.2472 13.7937C24.5631 13.5899 24.5869 13.1366 24.294 12.901L20.1585 9.57308C19.9735 9.42416 19.7138 9.41053 19.5142 9.53927L13.3631 13.506C13.0472 13.7097 13.0233 14.163 13.3162 14.3987Z" fill="#1587EA"/><path d="M11.6837 3.98166L7.54821 0.653781C7.36313 0.504865 7.1035 0.491235 6.90387 0.619973L0.75276 4.58666C0.43679 4.79042 0.413017 5.24372 0.705912 5.47941L4.84137 8.80729C5.02646 8.95621 5.28608 8.96984 5.48571 8.8411L11.6368 4.87441C11.9528 4.67065 11.9766 4.21735 11.6837 3.98166Z" fill="#1587EA"/><path d="M24.2472 4.58666L18.0961 0.619973C17.8964 0.491235 17.6368 0.504865 17.4517 0.653781L13.3163 3.98166C13.0234 4.21735 13.0471 4.67065 13.3631 4.87441L19.5143 8.8411C19.7139 8.96984 19.9736 8.95621 20.1586 8.80729L24.2941 5.47941C24.5869 5.24367 24.5631 4.79037 24.2472 4.58666Z" fill="#1587EA"/><path d="M12.1997 14.9827L7.56859 18.677C7.40073 18.8109 7.16617 18.8227 6.98575 18.7063L5.84428 17.9702C5.51151 17.7556 5.07324 17.9945 5.07324 18.3904V18.7884C5.07324 18.9632 5.16458 19.1254 5.31408 19.216L12.2088 23.3956C12.3681 23.4921 12.5679 23.4921 12.7273 23.3956L19.622 19.216C19.7715 19.1254 19.8628 18.9633 19.8628 18.7884V18.4332C19.8628 18.0373 19.4245 17.7984 19.0918 18.013L18.0172 18.7059C17.8365 18.8225 17.6014 18.8104 17.4336 18.6759L12.8243 14.9834C12.6418 14.8373 12.3825 14.837 12.1997 14.9827Z" fill="#1587EA"/></svg><svg height="24" viewBox="0 0 24 24" width="24" x="4" y="32" fill="none"><path d="M21 7L9 19l-5.5-5.5 1.41-1.41L9 16.17 19.59 5.59 21 7z" fill="#000"/></svg><svg height="24" viewBox="0 0 24 24" width="24" x="4" y="60" fill="none"><path d="M16 12C16 11.4696 16.2107 10.9609 16.5858 10.5858C16.9609 10.2107 17.4696 10 18 10C18.5304 10 19.0391 10.2107 19.4142 10.5858C19.7893 10.9609 20 11.4696 20 12C20 12.5304 19.7893 13.0391 19.4142 13.4142C19.0391 13.7893 18.5304 14 18 14C17.4696 14 16.9609 13.7893 16.5858 13.4142C16.2107 13.0391 16 12.5304 16 12ZM10 12C10 11.4696 10.2107 10.9609 10.5858 10.5858C10.9609 10.2107 11.4696 10 12 10C12.5304 10 13.0391 10.2107 13.4142 10.5858C13.7893 10.9609 14 11.4696 14 12C14 12.5304 13.7893 13.0391 13.4142 13.4142C13.0391 13.7893 12.5304 14 12 14C11.4696 14 10.9609 13.7893 10.5858 13.4142C10.2107 13.0391 10 12.5304 10 12ZM4 12C4 11.4696 4.21071 10.9609 4.58579 10.5858C4.96086 10.2107 5.46957 10 6 10C6.53043 10 7.03914 10.2107 7.41421 10.5858C7.78929 10.9609 8 11.4696 8 12C8 12.5304 7.78929 13.0391 7.41421 13.4142C7.03914 13.7893 6.53043 14 6 14C5.46957 14 4.96086 13.7893 4.58579 13.4142C4.21071 13.0391 4 12.5304 4 12Z" fill="#000"/></svg><svg height="24" viewBox="0 0 24 24" width="24" x="4" y="88" fill="none"><path d="M23 12c0-6.075-4.925-11-11-11S1 5.925 1 12c0 5.49 4.023 10.041 9.281 10.866V15.18H7.488V12h2.793V9.577c0-2.757 1.642-4.28 4.155-4.28 1.204 0 2.462.215 2.462.215v2.707h-1.387c-1.367 0-1.793.848-1.793 1.718V12h3.051l-.488 3.18h-2.563v7.687C18.978 22.041 23 17.49 23 12z" fill="#1877f2"/><path d="M16.282 15.18L16.77 12h-3.051V9.937c0-.87.426-1.718 1.793-1.718h1.387V5.512s-1.259-.215-2.462-.215c-2.513 0-4.155 1.523-4.155 4.28V12H7.488v3.18h2.793v7.687c.56.088 1.134.134 1.719.134s1.159-.046 1.719-.134V15.18h2.563z" fill="#fff"/></svg><svg height="22" viewBox="0 0 24 22" width="24" x="4" y="116" fill="none"><path d="M1.81444 18.6563L2.87286 20.4845C3.09279 20.8694 3.40893 21.1718 3.78007 21.3917C4.8431 20.0424 5.58308 19.0068 6 18.2852C6.4231 17.5529 6.94315 16.4074 7.56015 14.8488C5.89742 14.6299 4.63739 14.5205 3.78007 14.5205C2.95736 14.5205 1.69734 14.6299 0 14.8488C0 15.2749 0.109967 15.701 0.329897 16.0859L1.81444 18.6563Z" fill="#0066DA"/><path d="M20.2199 21.3917C20.5911 21.1718 20.9072 20.8694 21.1271 20.4845L21.567 19.7285L23.6701 16.0859C23.89 15.701 24 15.2749 24 14.8488C22.2928 14.6299 21.0351 14.5205 20.2268 14.5205C19.3581 14.5205 18.1004 14.6299 16.4536 14.8488C17.0633 16.4159 17.5765 17.5614 17.9931 18.2852C18.4135 19.0154 19.1557 20.0509 20.2199 21.3917Z" fill="#EA4335"/><path d="M12.0001 7.15121C13.23 5.66569 14.0777 4.52022 14.543 3.71478C14.9177 3.06623 15.3301 2.03072 15.7801 0.608249C15.409 0.388316 14.9829 0.278352 14.543 0.278352H9.4571C9.01723 0.278352 8.59111 0.402062 8.21997 0.608249C8.79242 2.23968 9.27817 3.40074 9.67721 4.09144C10.1182 4.85473 10.8925 5.87465 12.0001 7.15121Z" fill="#00832D"/><path d="M16.4398 14.8488H7.56009L3.78003 21.3917C4.15117 21.6117 4.57728 21.7216 5.01716 21.7216H18.9828C19.4227 21.7216 19.8488 21.5979 20.2199 21.3917L16.4398 14.8488Z" fill="#2684FC"/><path d="M12 7.15117L8.21995 0.608212C7.84881 0.828143 7.53264 1.13054 7.31272 1.51543L0.329897 13.6116C0.109967 13.9965 0 14.4227 0 14.8488H7.56015L12 7.15117Z" fill="#00AC47"/><path d="M20.1787 7.56356L16.6873 1.51543C16.4674 1.13054 16.1512 0.828143 15.7801 0.608212L12 7.15117L16.4399 14.8488H23.9863C23.9863 14.4227 23.8763 13.9965 23.6564 13.6116L20.1787 7.56356Z" fill="#FFBA00"/></svg><svg height="22" viewBox="0 0 23 22" width="23" x="4" y="142" fill="none"><g clip-path="url(#A)" fill-rule="evenodd"><path d="M5.241 11c0-.714.119-1.4.331-2.042L1.864 6.127C1.141 7.594.734 9.247.734 11s.407 3.403 1.128 4.87l3.705-2.836c-.21-.64-.327-1.322-.327-2.033z" fill="#fbbc05"/><path d="M11.75 4.5c1.552 0 2.954.55 4.056 1.45l3.204-3.2C17.058 1.05 14.554 0 11.75 0 7.397 0 3.656 2.489 1.864 6.127l3.707 2.831A6.49 6.49 0 0 1 11.75 4.5z" fill="#ea4335"/><path d="M11.75 17.5a6.49 6.49 0 0 1-6.179-4.458l-3.707 2.83A10.98 10.98 0 0 0 11.75 22c2.687 0 5.252-.954 7.177-2.741l-3.519-2.721c-.993.625-2.243.962-3.658.962z" fill="#34a853"/><path d="M22.265 11c0-.65-.1-1.35-.25-2H11.75v4.25h5.908c-.296 1.449-1.099 2.563-2.25 3.288l3.519 2.721c2.022-1.877 3.338-4.673 3.338-8.258z" fill="#4285f4"/></g><defs><clipPath id="A"><path fill="#fff" transform="translate(.5)" d="M0 0h22v22H0z"/></clipPath></defs></svg><svg height="20" viewBox="0 0 20 20" width="20" x="4" y="168" fill="none"><path d="M10 0C4.5 0 0 4.5 0 10C0 15.5 4.5 20 10 20C15.5 20 20 15.5 20 10C20 4.5 15.5 0 10 0ZM8 15L3 10L4.41 8.59L8 12.17L15.59 4.58L17 6L8 15Z" fill="#000"/></svg><svg height="16" viewBox="0 0 16 16" width="16" x="4" y="192" fill="none"><path d="M0 6.92v2h12l-5.5 5.5 1.42 1.42 7.92-7.92L7.92 0 6.5 1.42l5.5 5.5H0z" fill="#fff"/></svg><svg height="12" viewBox="0 0 12 12" width="12" x="4" y="212" fill="none"><circle cx="6" cy="6" r="6" fill="#000"/></svg></svg>