<svg width="187" height="19" viewBox="0 0 187 19" fill="none" xmlns="http://www.w3.org/2000/svg"><g clip-path="url(#clip0_2461_376)"><path d="M97.6701 9.96281C98.4639 8.87795 98.8659 7.57413 98.8659 6.05134C98.8659 5.0262 98.6907 4.09063 98.3402 3.25459C97.9896 2.41855 97.4432 1.72185 96.7216 1.16449C95.9999 0.607128 95.0721 0.258778 93.9587 0.0895798C93.7113 0.0497684 93.4329 0.0199098 93.1443 0.00995698C92.8453 4.12483e-06 92.6082 -0.00994873 92.4226 -0.00994873H84.4639V18.5919H87.6907V12.0927H92.268L95.5257 18.5919H99.1752L95.6082 11.5254C96.4639 11.1671 97.1752 10.6595 97.6804 9.96281H97.6701ZM87.6701 2.91619H92.268C92.4432 2.91619 92.6494 2.91619 92.8659 2.9361C93.0927 2.94605 93.2989 2.98586 93.4845 3.03562C94.0206 3.16501 94.4432 3.39393 94.7525 3.72237C95.0618 4.05082 95.2783 4.41907 95.4123 4.83709C95.536 5.25511 95.6082 5.66318 95.6082 6.06129C95.6082 6.45941 95.5463 6.85752 95.4123 7.27554C95.2783 7.69356 95.0618 8.06182 94.7525 8.39026C94.4432 8.71871 94.0206 8.94762 93.4845 9.07701C93.2989 9.12677 93.0927 9.16658 92.8659 9.17654C92.6391 9.19644 92.4432 9.2064 92.268 9.2064H87.6701V2.91619Z" fill="#000"/><path d="M112.31 5.27502C111.258 4.59822 109.99 4.25983 108.485 4.25983C107.062 4.25983 105.815 4.56836 104.743 5.18544C103.67 5.80252 102.815 6.67837 102.217 7.80304C101.609 8.92772 101.31 10.2514 101.31 11.7742C101.31 13.1875 101.619 14.4316 102.237 15.5165C102.856 16.6014 103.722 17.4474 104.825 18.0644C105.928 18.6716 107.217 18.9801 108.681 18.9801C110.145 18.9801 111.34 18.6317 112.505 17.935C113.66 17.2383 114.516 16.263 115.072 14.999L111.887 14.0733C111.578 14.7203 111.134 15.208 110.557 15.5563C109.98 15.8947 109.299 16.0639 108.505 16.0639C107.279 16.0639 106.34 15.6758 105.691 14.8994C105.186 14.2923 104.887 13.4861 104.784 12.4809H115.237C115.361 10.8088 115.165 9.35569 114.66 8.13149C114.155 6.90729 113.371 5.94186 112.33 5.26506L112.31 5.27502ZM108.629 6.98691C109.794 6.98691 110.65 7.33526 111.196 8.03196C111.578 8.5296 111.825 9.23625 111.938 10.142H104.856C105 9.34573 105.268 8.67889 105.681 8.1713C106.32 7.38502 107.31 6.98691 108.629 6.98691Z" fill="#000"/><path d="M127.804 11.3264C127.113 10.9581 126.196 10.6396 125.041 10.351C123.917 10.0723 123.072 9.84338 122.505 9.65427C121.938 9.46517 121.557 9.27607 121.371 9.08696C121.185 8.89786 121.093 8.66894 121.093 8.40021C121.093 7.92248 121.319 7.55422 121.783 7.29545C122.247 7.03667 122.856 6.92719 123.618 6.967C124.412 7.00681 125.051 7.20587 125.526 7.54427C126 7.88267 126.278 8.3604 126.361 8.94762L129.649 8.38031C129.526 7.54427 129.196 6.81771 128.66 6.20063C128.124 5.58356 127.423 5.10582 126.557 4.76742C125.691 4.42902 124.691 4.25983 123.567 4.25983C122.443 4.25983 121.412 4.43898 120.567 4.78733C119.721 5.13568 119.062 5.63332 118.587 6.28026C118.113 6.92719 117.876 7.68361 117.876 8.54951C117.876 9.24621 118.031 9.84338 118.34 10.3311C118.649 10.8188 119.165 11.2467 119.876 11.605C120.587 11.9633 121.557 12.2918 122.763 12.6103C123.856 12.889 124.66 13.1179 125.185 13.297C125.711 13.4762 126.051 13.6653 126.206 13.8544C126.361 14.0435 126.443 14.3023 126.443 14.6207C126.443 15.1383 126.227 15.5464 125.804 15.8449C125.381 16.1435 124.783 16.2928 124 16.2928C123.113 16.2928 122.381 16.0938 121.804 15.6957C121.227 15.2975 120.845 14.7601 120.68 14.0634L117.392 14.5511C117.629 15.9544 118.309 17.0393 119.423 17.8156C120.536 18.5919 121.99 18.9801 123.773 18.9801C125.557 18.9801 127.103 18.582 128.154 17.7758C129.206 16.9696 129.742 15.8748 129.742 14.4715C129.742 13.7449 129.587 13.1278 129.278 12.6202C128.969 12.1126 128.474 11.6747 127.783 11.3064L127.804 11.3264Z" fill="#000"/><path d="M142.464 11.824C142.464 12.67 142.36 13.3667 142.165 13.9141C141.969 14.4615 141.711 14.8994 141.381 15.208C141.051 15.5265 140.69 15.7454 140.288 15.8748C139.886 16.0042 139.484 16.0639 139.072 16.0639C138.309 16.0639 137.701 15.9047 137.247 15.5862C136.793 15.2677 136.453 14.8596 136.226 14.362C136 13.8643 135.855 13.3468 135.793 12.8093C135.732 12.2719 135.701 11.7842 135.701 11.3562V4.63803H132.433V12.4311C132.433 12.7695 132.464 13.2074 132.515 13.7449C132.577 14.2823 132.701 14.8497 132.897 15.4568C133.092 16.0639 133.391 16.6312 133.804 17.1587C134.216 17.6962 134.763 18.1341 135.464 18.4725C136.154 18.8208 137.041 18.99 138.113 18.99C139.474 18.99 140.608 18.7014 141.536 18.1341C142.031 17.8256 142.464 17.4573 142.835 17.0293V18.5919H145.68V4.64798H142.443V11.814L142.464 11.824Z" fill="#000"/><path d="M165.082 4.29964C164.123 4.29964 163.247 4.50865 162.464 4.91672C161.721 5.30488 161.123 5.85229 160.68 6.52908C160.319 5.88214 159.824 5.35464 159.185 4.95653C158.453 4.50865 157.556 4.28969 156.474 4.28969C155.494 4.28969 154.608 4.4987 153.814 4.91672C153.206 5.23521 152.701 5.65323 152.278 6.16082V4.64799H149.433V18.6019H152.68V10.0126C152.68 9.14668 152.927 8.44003 153.422 7.89262C153.917 7.34521 154.577 7.07649 155.391 7.07649C156.206 7.07649 156.907 7.34521 157.402 7.89262C157.897 8.43008 158.134 9.19645 158.134 10.1619V18.6019H161.35V10.0126C161.35 9.40546 161.474 8.87795 161.711 8.43008C161.948 7.9822 162.278 7.65375 162.69 7.42484C163.103 7.19592 163.567 7.08644 164.082 7.08644C164.917 7.08644 165.587 7.35517 166.072 7.89262C166.567 8.43008 166.804 9.17654 166.804 10.132V18.6019H170.031V9.33579C170.031 7.8329 169.608 6.6087 168.752 5.68309C167.897 4.75747 166.68 4.28969 165.082 4.28969V4.29964Z" fill="#000"/><path d="M184.814 12.4908H186.392C186.515 10.8188 186.319 9.36564 185.814 8.14144C185.309 6.91724 184.526 5.95181 183.484 5.27502C182.443 4.59822 181.165 4.25983 179.66 4.25983C178.237 4.25983 176.99 4.56836 175.917 5.18544C174.845 5.80252 173.99 6.67837 173.392 7.80304C172.783 8.92772 172.484 10.2514 172.484 11.7742C172.484 13.1875 172.794 14.4316 173.412 15.5165C174.031 16.6014 174.897 17.4474 176 18.0644C177.103 18.6716 178.392 18.9801 179.856 18.9801C181.319 18.9801 182.515 18.6317 183.68 17.935C184.835 17.2383 185.691 16.263 186.247 14.999L183.062 14.0733C182.752 14.7203 182.309 15.208 181.732 15.5563C181.154 15.8947 180.474 16.0639 179.68 16.0639C178.453 16.0639 177.515 15.6758 176.866 14.8994C176.361 14.2923 176.062 13.4861 175.959 12.4809H184.835L184.814 12.4908ZM179.794 6.98691C180.959 6.98691 181.814 7.33526 182.361 8.03196C182.742 8.5296 182.99 9.23625 183.103 10.142H176.02C176.165 9.34573 176.433 8.67889 176.845 8.1713C177.484 7.38502 178.474 6.98691 179.794 6.98691Z" fill="#000"/><path d="M44.5977 6.15086H41.4121V18.4526H50.9688V6.15086H44.5977ZM47.7832 12.3017V15.3772H44.5977V9.2263H47.7832V12.3017Z" fill="#0019D9"/><path d="M60.5357 9.2263V12.3017V15.3772H57.3502V12.3017V9.2263V6.15086H54.1543V9.2263V12.3017V15.3772V18.4526H57.3502H60.5357H63.7213V15.3772V12.3017V9.2263V6.15086H60.5357V9.2263Z" fill="#0019D9"/><path d="M76.4639 9.2263V6.15086H73.2784H70.0928H66.9072V9.2263V12.3017V15.3772V18.4526H70.0928V15.3772V12.3017V9.2263H73.2784V12.3017H76.4639V9.2263Z" fill="#0019D9"/><path d="M31.8555 6.15086V3.07543V0H28.6699V3.07543V6.15086V9.2263V12.3017V15.3772V18.4526H31.8555V15.3772V12.3017V9.2263H35.0411V12.3017V15.3772V18.4526H38.2266V15.3772V12.3017V9.2263V6.15086H35.0411H31.8555Z" fill="#0019D9"/><path d="M19.1133 3.07543V6.15086V9.2263H15.9278V6.15086V3.07543V0H12.7422V3.07543V6.15086V9.2263V12.3017H15.9278H19.1133V15.3772V18.4526H22.2989V15.3772V12.3017V9.2263V6.15086V3.07543V0H19.1133V3.07543Z" fill="#0019D9"/><path d="M3.18557 0H0V3.07543V6.15086H3.18557V3.07543H6.37113V6.15086V9.2263H3.18557H0V12.3017V15.3772V18.4526H3.18557H6.37113H9.5567V15.3772H6.37113H3.18557V12.3017H6.37113H9.5567V9.2263V6.15086V3.07543V0H6.37113H3.18557Z" fill="#0019D9"/></g><defs><clipPath id="clip0_2461_376"><path fill="#fff" d="M0 0H187V19H0z"/></clipPath></defs></svg>