<svg xmlns="http://www.w3.org/2000/svg" width="100" height="19" fill="#6b6b6c"><path d="M88.06.244a.66.66 0 0 0-.465.192c-.124.123-.193.29-.193.464v4.6h12.152L94.021.245 88.06.244zM100 6.891c0-.086-.017-.172-.05-.251s-.081-.152-.142-.213-.134-.109-.213-.142-.165-.05-.251-.049h-4.599v12.152l5.254-5.535.002-5.961zm-6.649 11.938c.174 0 .34-.07.463-.193s.192-.29.192-.464v-4.599H81.854l5.533 5.254 5.964.001zM81.41 12.182c0 .086.017.172.05.251s.081.152.142.213a.66.66 0 0 0 .213.142c.08.033.165.05.251.05h4.6V.686L81.411 6.22l-.001 5.962zm-55.7-9.721v5.612h-7.819V2.461l-2.847-.001v14.15h2.847v-6.079h7.819v6.079h2.852V2.461H25.71zm37.883 0v14.146l12.494-.001-1.583-2.489H66.45v-3.586h7.799V8.132H66.45V4.893h8.041l1.551-2.432H63.593zM4.459 2.459C1.497 2.459 0 4.259 0 6.88v5.282c0 3.032 1.927 4.448 4.444 4.448l8.933-.002-1.655-2.586H4.995c-1.428 0-2.05-.516-2.05-2.116V7.115c0-1.546.523-2.15 2.089-2.15h6.759l1.59-2.506H4.459zm46.637-.004c-1.712 0-3.464 1.028-3.464 3.673v.68c0 2.756 1.687 3.809 3.374 3.816h5.925c.615 0 1.115.102 1.115 1.143l-.001 1.203c-.015.932-.483 1.148-1.136 1.148h-7.794l-1.597 2.489h9.573c2.31 0 3.877-1.148 3.877-3.802v-.975c0-2.566-1.456-3.776-3.714-3.776h-5.657c-.628 0-1.064-.172-1.064-1.101l-.001-.978c0-.791.301-1.08 1.031-1.08l7.423-.003 1.552-2.438-9.443.003zm-14.26.008l-6.709 14.145h3.172l1.307-2.921h7.29l1.302 2.921h3.184L39.657 2.463h-2.821zm1.406 2.936l2.578 5.88h-5.14l2.562-5.88z"/></svg>