<svg xmlns="http://www.w3.org/2000/svg" width="254" height="123" fill="none"><g clip-path="url(#A)"><path d="M169.273 22.797c.235-3.11-.282-3.612-.563-7.994-.282-4.539.094-5.764-.861-8.371-.767-2.089-1.628-2.968-1.972-3.283-1.879-1.743-4.258-1.9-5.166-1.916-6.762-.094-11.646-.283-14.949-.44l-6.073-.267c-2.676-.094-5.353-.157-8.03-.157h-13.414L106.849.196c-8.03-.11-6.793 0-8.03-.063 0 0-6.324-.33-13.039.047-.689.031-2.05.141-3.193 1.099-.344.298-1.08 1.021-1.597 2.89-.595 2.183-.078 3.22-.047 7.083.031 2.576.11 3.864-.063 4.979-.266 1.853-.454 3.754-.454 5.638 0 2.215.235 4.445.376 6.659l.47 7.083c.188 2.749.501 5.497.501 8.246 0 3.754-.235 7.507-.423 11.261-.078 1.822-.266 3.628-.423 5.45l-.673 7.13c-.125 2.136-.11 4.272-.172 6.392-.047 1.366-.157 2.717-.141 4.099.047 4.084.031 7.397.266 11.984.438 8.544.673 4.869 1.002 11.073.094 1.664.141 3.266 1.143 4.994 1.393 2.419 3.694 3.471 4.555 3.848.814.361 1.706.644 8.327.785 4.43.095 7.482.047 9.047 0l3.506-.11c.282.032.486 0 1.534-.047l2.301-.078c2.99-.063 4.978-.047 7.169-.032 8.437.047 7.498-.125 11.192-.015 4.712.141 4.931.377 9.11.392l6.575-.094c4.476-.141 9.47-.141 11.348-.141 3.459 0 5.009.047 7.059-.817 1.002-.424 2.787-1.194 3.945-2.968 1.017-1.571 1.017-3.126.923-6.738l-.25-7.9-.266-12.423c-.031-1.948.078-3.879.11-5.827v-5.12l.125-13.319.266-9.769c.031-3.063-.078-6.094-.125-9.141 0-.942-.063-1.869-.157-2.796-.266-2.372-.078-4.727.172-7.083l.423-4.068.031.016z" fill="#ba6bff"/><path d="M100.946 20.96c-.328.314-.579.612-.892.832-1.08.754-3.303.597-4.148-.534-1.018-1.335-1.816-2.843-2.63-4.319-.11-.204.063-.723.266-.927 1.143-1.084 2.567-1.445 4.085-1.288.329.031.61.456.877.66.501-.299.955-.723 1.519-.895.422-.126.939.063 1.424.141.094 0 .204.188.266.173.971-.361 1.331.456 2.051 1.115.188-.251.328-.55.563-.77 1.299-1.272 3.084-1.429 4.477-.267 1.064.879 2.082 1.021 3.318.345 1.44-.801 2.99-.848 4.618-.644 1.565.188 3.162-.063 4.743-.11l1.315-.031c.595.016.814.393 1.111.911.751 1.303 0 2.529 0 3.769 0 .173-.376.424-.61.456l-4.446.377c-1.174.031-2.316-.126-3.49-.094-.501 0-1.034.188-1.487.424-2.129 1.131-4.258.958-6.371.094-.454-.204-.736-.094-.986.204-1.425 1.838-3.632 1.791-5.526.393l-.047-.016zm-10.721 8.355c-.078-1.759 1.831-2.858 3.491-2.45 1.017.267 1.8.848 2.739 1.131.454.126 1.033.063 1.503-.079l3.944-1.429c1.252-.424 2.442-.188 3.522.534 1.205.801 2.364.754 3.616.047.892-.518 1.894-.864 2.88-1.162 1.064-.33 2.019.173 2.99.613a1.17 1.17 0 0 0 .861 0c1.69-.911 3.412-.801 5.118-.126.204.063.485.251.501.377.063.832.626 1.633.094 2.513-.297.518-.376 1.147-.626 1.665-.11.236-.423.361-.658.518-.047.031-.172 0-.25 0-1.299-.314-2.426.016-3.491.848-.641.503-2.582.126-3.208-.456-.533-.518-1.034-.613-1.738-.141-2.692 1.822-5.447 1.681-8.265.251-.235-.11-.579-.11-.845-.031L98.38 33.32c-1.581.455-3.146.173-4.571-.628-.657-.361-1.205-.424-1.8-.078-.438.251-.798.11-.955-.283l-1.08-2.953c.078-.031.141-.047.235-.078l.031.047-.016-.031z" fill="#fff"/><path d="M120.858 68.549h-4.915c-5.369 0-10.754.031-16.123-.016-1.8-.016-3.569-.314-5.369-.456-.579-.047-.892-.377-.767-.927.172-.738.376-1.492.689-2.152.11-.251.642-.44.939-.408 5.322.628 10.659.346 15.998.346h4.414c2.191-.032 4.383-.032 6.574-.173 1.158-.063 1.675.738 1.503 1.932-.266 1.728-.329 1.696-2.051 1.696h-.908v.173h.016v-.016z" fill="#000"/><path d="M138.42 31.875c-1.596 0-3.208-.016-4.805 0-.407 0-.861.141-1.252.33-1.91.864-3.851.817-5.823.33l-2.52-.707c-.548-.11-.72-.393-.705-.911.047-1.539.627-2.843 1.769-3.832.298-.267.971-.141 1.456-.094s.939.298 1.424.393c1.018.236 2.02.283 2.818-.581.861-.927 1.972-.817 2.927-.487 1.143.393 2.207.189 3.318.189s2.176.094 3.241.204c.203 0 .516.188.532.314.141.817 1.002 1.445.532 2.434-.235.487-.11 1.131-.251 1.665-.062.235-.313.565-.547.597-.689.126-1.393.173-2.114.236v-.063h.016l-.016-.016z" fill="#fff"/><path d="M101.058 44.582l6.261-.016 9.736-.613c1.252-.079 1.878.455 1.847 1.743 0 .251-.031.503.016.738.172.832-.36 1.068-1.002 1.146l-6.058.55-13.195.094c-1.597 0-3.178-.031-4.774 0-.798.016-1.143-.361-1.111-1.068a7.4 7.4 0 0 1 .329-1.853c.141-.503.532-.723 1.127-.723l6.84.016-.015-.016zm45.565 13.224h-7.732c-.924 0-1.847.094-2.771.141-.188 0-.438.031-.563-.063-.72-.66-.486-1.523-.329-2.309.109-.613.25-1.256 1.127-1.272l18.298-.173c1.127-.016 1.659.848 1.487 1.963-.266 1.681-.313 1.681-1.972 1.681h-7.545v.031zm-3.585-12.816c-.063 1.272-.83 2.01-2.192 2.057l-7.419.173-10.347.141c-1.314 0-1.455-.126-1.377-1.492a3.54 3.54 0 0 1 .125-.895c.329-1.194.376-1.241 1.612-1.241h5.197l11.568-.314c.704-.016 1.471-.204 1.8.832.094.314.673.503 1.049.738h-.016zM98.49 54.979l10.158.33c.673.016 1.362-.063 2.051-.126 1.111-.126 1.628.204 1.909 1.272l.204.88c.203.77-.141 1.382-.955 1.461l-4.258.173c-1.549 0-3.114-.094-4.664-.141l-5.15-.126c-1.143 0-2.27.189-3.412.314-.611.063-.939-.236-.939-.738 0-.754.063-1.523.235-2.262.047-.251.485-.565.751-.597l4.101-.377h-.031v-.063zm6.856 18.753h6.543c.845 0 1.597.832 1.44 1.743-.016.126-.078.267-.094.393-.282 1.539-.391 1.633-1.988 1.633-3.569 0-7.153-.031-10.722.031-1.706.031-3.412.283-5.119.487-.579.063-.861-.173-.892-.691-.031-.707-.078-1.445.078-2.105.078-.346.611-.801.955-.832l9.815-.644-.016-.016zm12.992-18.675l7.67-.612 5.244-.236c.845-.031 1.55.832 1.456 1.649 0 .031-.016.047-.016.079-.313 1.869-.313 1.838-2.207 1.869-.939.016-1.878.236-2.833.283l-3.6.11-7.06.393c-1.424.063-1.784-.424-1.534-1.838.047-.251.141-.487.204-.707.172-.801.595-1.194 1.44-1.068.407.047.829 0 1.236 0v.063h.016l-.016.016zm13.211 13.162c-1.158 0-2.301-.016-3.444 0-.579 0-.813-.251-.829-.77 0-.377-.031-.77.015-1.162.188-1.351.611-1.696 1.973-1.712h5.259c1.205 0 1.503.126 1.675 1.304.094.66-.063 1.445-.36 2.058-.11.251-.892.251-1.362.267h-2.958l.031.031v-.016z" fill="#000"/><path d="M249.336 28.943c.188-2.529-.235-2.937-.454-6.471-.235-3.675.078-4.665-.689-6.785-.626-1.696-1.315-2.403-1.596-2.67-1.519-1.413-3.46-1.539-4.195-1.539l-12.116-.361-4.915-.204-6.496-.126h-10.863l-9.235-.141c-6.512-.094-5.51 0-6.512-.047 0 0-5.134-.267-10.565.031-.564.031-1.66.11-2.583.88-.282.236-.877.817-1.299 2.34-.486 1.759-.063 2.607-.032 5.733.032 2.073.094 3.125-.047 4.036-.219 1.508-.375 3.031-.375 4.57 0 1.791.188 3.597.297 5.387l.391 5.748c.157 2.23.407 4.445.407 6.675 0 3.047-.187 6.078-.344 9.125-.063 1.476-.203 2.937-.344 4.413l-.548 5.78c-.11 1.728-.094 3.455-.141 5.183-.031 1.115-.125 2.199-.11 3.314.032 3.314.032 5.984.22 9.706.36 6.911.547 3.942.814 8.968.078 1.351.109 2.654.923 4.052 1.127 1.963 2.99 2.811 3.694 3.125.658.299 1.378.518 6.747.628 3.584.079 6.057.031 7.325 0l2.849-.094c.219.016.391 0 1.252-.032l1.863-.062c2.41-.063 4.023-.032 5.791-.032 6.825.032 6.074-.11 9.064-.016 3.819.11 3.991.315 7.372.315 2.583 0 4.837-.063 5.322-.079 3.632-.126 7.67-.126 9.188-.126 2.802 0 4.054.048 5.729-.675.814-.346 2.254-.958 3.193-2.403.83-1.272.814-2.529.752-5.45l-.204-6.392-.219-10.068c-.015-1.571.063-3.141.094-4.712v-4.146l.11-10.79.219-7.916c.015-2.482-.063-4.932-.11-7.398 0-.754-.047-1.523-.125-2.262-.203-1.932-.063-3.832.141-5.748l.344-3.298.016.032z" fill="#dfdada"/><path d="M194.005 27.467c-.266.251-.47.503-.72.675-.877.613-2.677.487-3.365-.424-.83-1.084-1.472-2.309-2.129-3.502-.094-.157.047-.597.219-.754.923-.88 2.082-1.162 3.303-1.052.266.031.501.377.704.534.407-.236.767-.597 1.221-.723.344-.11.767.047 1.143.126.078 0 .156.141.219.141.782-.298 1.08.377 1.659.895.141-.204.266-.44.454-.628 1.049-1.037 2.489-1.146 3.631-.22.861.707 1.675.832 2.677.283 1.158-.644 2.411-.675 3.741-.518 1.268.141 2.567-.047 3.851-.094l1.064-.031c.485 0 .658.314.892.738.611 1.052 0 2.042 0 3.047 0 .141-.313.346-.501.377l-3.6.314c-.955.031-1.878-.11-2.833-.078-.407 0-.845.141-1.205.345-1.722.911-3.444.77-5.166.079-.375-.157-.594-.079-.798.157-1.143 1.492-2.943 1.445-4.477.314h.016zm-8.704 6.769c-.062-1.413 1.487-2.324 2.833-1.979.83.22 1.456.675 2.223.911.376.11.845.047 1.221-.063l3.193-1.147c1.018-.346 1.972-.141 2.849.424.97.644 1.91.612 2.927.047.72-.408 1.534-.691 2.332-.942.861-.267 1.644.141 2.411.502a.88.88 0 0 0 .689 0c1.377-.738 2.755-.644 4.148-.11.156.047.391.204.407.314.047.675.501 1.319.078 2.042-.235.408-.313.927-.501 1.351-.094.188-.344.298-.532.408-.047.031-.141 0-.204 0-1.048-.251-1.956 0-2.833.675-.516.408-2.097.11-2.598-.377-.423-.408-.846-.503-1.409-.126-2.176 1.476-4.414 1.367-6.699.204-.188-.094-.47-.094-.674-.031l-3.255 1.131c-1.284.377-2.552.141-3.694-.503-.533-.298-.971-.346-1.456-.063-.36.204-.642.094-.767-.22l-.877-2.403c.063-.031.126-.047.188-.063l.031.047-.031-.031z" fill="#fff"/><path d="M210.126 66.009h-3.976-13.07c-1.456 0-2.896-.251-4.351-.377-.47-.047-.72-.314-.626-.754.14-.597.313-1.209.563-1.743.094-.204.517-.361.767-.33 4.305.503 8.64.283 12.961.283h3.584c1.769-.031 3.553-.031 5.322-.141.939-.047 1.362.597 1.221 1.571-.219 1.398-.266 1.382-1.659 1.382h-.736v.141-.031z" fill="#000"/><path d="M224.34 36.293h-3.897c-.329 0-.689.126-1.018.267-1.549.691-3.13.66-4.711.267l-2.035-.581c-.438-.094-.595-.314-.579-.738.047-1.241.501-2.309 1.424-3.11.235-.22.783-.126 1.174-.079s.767.236 1.143.314c.829.189 1.643.22 2.285-.471.689-.754 1.597-.66 2.379-.393.924.314 1.785.141 2.677.141s1.769.078 2.63.157c.156 0 .407.141.422.251.125.66.814 1.162.423 1.963-.188.393-.094.911-.204 1.351-.047.188-.25.456-.438.487-.563.11-1.127.141-1.706.188v-.047l.031.031z" fill="#fff"/><path d="M194.083 46.596h5.071l7.889-.503c1.018-.063 1.519.377 1.487 1.414 0 .204-.031.408 0 .597.141.675-.297.864-.814.927l-4.915.44-10.691.079c-1.299 0-2.582-.031-3.866 0-.642 0-.923-.298-.892-.864a6.75 6.75 0 0 1 .266-1.492c.125-.408.423-.597.908-.597h5.541.016zm36.909 10.712h-6.261c-.752 0-1.487.079-2.239.126-.141 0-.36.031-.454-.047-.594-.534-.391-1.225-.266-1.869.094-.503.204-1.021.908-1.037l14.823-.141c.908 0 1.347.675 1.206 1.586-.219 1.366-.251 1.366-1.597 1.366h-6.12v.016zm-2.911-10.382c-.047 1.037-.673 1.633-1.769 1.665l-6.011.141-8.374.126c-1.065 0-1.174-.11-1.127-1.209 0-.236.047-.487.109-.722.266-.958.313-1.005 1.315-1.005h4.211l9.376-.251c.579 0 1.19-.157 1.456.675.078.251.548.408.861.597l-.047-.016zM192 55.015l8.234.267a14.67 14.67 0 0 0 1.659-.11c.892-.11 1.315.157 1.55 1.037l.156.707c.157.628-.125 1.131-.767 1.178l-3.443.141c-1.253 0-2.52-.079-3.773-.126l-4.179-.11c-.924 0-1.847.141-2.755.251-.501.047-.767-.189-.767-.597 0-.612.047-1.225.188-1.838.047-.204.391-.455.61-.487l3.319-.314H192zm5.557 15.188h5.291c.673 0 1.299.675 1.158 1.413 0 .11-.062.22-.078.314-.219 1.241-.313 1.319-1.612 1.319-2.896 0-5.792-.031-8.688.031-1.393.031-2.754.22-4.148.393-.469.047-.688-.141-.72-.565-.031-.581-.062-1.162.063-1.696.063-.283.501-.644.767-.675l7.952-.518.015-.016zm10.519-15.11l6.214-.503 4.242-.188c.673-.031 1.253.675 1.174 1.335v.063c-.25 1.508-.25 1.492-1.784 1.508-.767 0-1.518.188-2.301.22l-2.927.094-5.713.314c-1.143.047-1.441-.346-1.237-1.492l.156-.581c.141-.644.486-.958 1.159-.864.329.047.673 0 1.002 0v.047l.015.047zm10.707 10.649h-2.786c-.47 0-.658-.204-.674-.628v-.942c.141-1.099.501-1.382 1.597-1.398h4.258c.97 0 1.221.11 1.361 1.052.079.534-.046 1.162-.297 1.665-.094.204-.72.204-1.111.22h-2.395l.031.031h.016z" fill="#000"/><path d="M72.255 28.911c.188-2.513-.235-2.921-.454-6.471-.235-3.675.078-4.665-.689-6.769-.626-1.696-1.315-2.403-1.597-2.654-1.518-1.413-3.444-1.539-4.179-1.539l-12.1-.361-4.915-.204-6.496-.126H30.978l-9.22-.141c-6.496-.094-5.494 0-6.496-.047 0 0-5.118-.267-10.55.031-.564.031-1.659.11-2.583.88-.282.236-.877.817-1.299 2.34-.485 1.759-.063 2.607-.031 5.733.031 2.073.094 3.125-.047 4.036-.219 1.508-.376 3.031-.376 4.555 0 1.79.188 3.597.297 5.387l.376 5.733c.157 2.23.407 4.445.407 6.675 0 3.047-.188 6.078-.344 9.109-.063 1.476-.203 2.937-.344 4.413L.22 65.255C.11 66.983.126 68.71.079 70.438c-.031 1.099-.125 2.199-.11 3.314.031 3.314.031 5.984.219 9.706.36 6.911.548 3.942.814 8.968.078 1.351.11 2.639.924 4.036 1.127 1.948 2.99 2.811 3.678 3.126.657.298 1.377.519 6.731.629 3.585.078 6.058.031 7.326 0l2.833-.095c.219.016.391 0 1.237-.031l1.863-.063c2.395-.063 4.007-.031 5.791-.031 6.825.031 6.073-.11 9.047-.016 3.804.11 3.992.314 7.373.314 2.583 0 4.837-.063 5.322-.078 3.631-.126 7.654-.126 9.188-.126 2.802 0 4.054.047 5.713-.66.814-.346 2.254-.958 3.193-2.403.83-1.272.814-2.529.751-5.45l-.204-6.392-.219-10.052c-.016-1.571.063-3.141.094-4.712v-4.131l.109-10.774.219-7.9c.016-2.466-.063-4.932-.11-7.398a21.92 21.92 0 0 0-.125-2.262c-.204-1.916-.063-3.817.141-5.733l.344-3.282.031-.032z" fill="#dfdada"/><path d="M17.002 27.435c-.266.251-.47.503-.72.675-.877.613-2.661.487-3.365-.424-.83-1.084-1.471-2.293-2.129-3.487-.094-.157.047-.581.219-.754.924-.88 2.082-1.162 3.303-1.037.266.031.501.377.704.534.407-.236.767-.581 1.221-.723.344-.11.767.047 1.143.126.078 0 .157.141.219.141.783-.298 1.08.377 1.659.895.141-.204.266-.44.454-.628 1.049-1.037 2.489-1.146 3.631-.22.861.707 1.675.832 2.677.283 1.158-.644 2.41-.675 3.725-.518 1.268.141 2.551-.047 3.835-.094l1.064-.031c.485 0 .658.314.892.738.61 1.052 0 2.042 0 3.047 0 .141-.313.346-.501.377l-3.6.314c-.939.031-1.878-.11-2.833-.078-.407 0-.845.141-1.205.345-1.722.911-3.444.77-5.165.079-.376-.157-.595-.079-.798.157-1.143 1.492-2.927 1.445-4.461.314l.031-.031zm-8.688 6.769c-.063-1.414 1.487-2.309 2.833-1.979.83.22 1.456.675 2.207.911.376.11.845.047 1.205-.063l3.193-1.147c1.017-.346 1.972-.141 2.849.424.97.644 1.91.612 2.911.047.72-.408 1.534-.691 2.332-.942.861-.267 1.644.141 2.411.503a.88.88 0 0 0 .689 0c1.377-.738 2.755-.644 4.148-.11.157.047.391.204.407.314.047.675.501 1.319.078 2.026-.235.408-.313.927-.501 1.351-.094.188-.344.298-.532.408-.047.031-.141 0-.204 0-1.049-.251-1.957 0-2.833.675-.517.408-2.097.11-2.598-.377-.423-.408-.845-.503-1.393-.126-2.176 1.476-4.414 1.366-6.684.204a.99.99 0 0 0-.673-.031l-3.256 1.131c-1.283.377-2.551.141-3.694-.503-.532-.298-.97-.346-1.456-.063-.36.204-.642.094-.767-.22l-.877-2.387c.063-.031.125-.047.188-.063l.031.047-.016-.031z" fill="#fff"/><path d="M33.092 65.93h-3.976-13.055c-1.456 0-2.896-.251-4.351-.377-.47-.047-.72-.314-.626-.754.141-.597.313-1.209.564-1.743.094-.204.516-.361.767-.33 4.305.503 8.625.283 12.945.283h3.569c1.769-.031 3.553-.031 5.322-.141.939-.047 1.362.597 1.205 1.571-.219 1.398-.266 1.382-1.659 1.382h-.736v.141l.031-.031z" fill="#000"/><path d="M47.306 36.262h-3.898c-.329 0-.689.126-1.017.267-1.55.691-3.115.66-4.712.267l-2.035-.581c-.438-.094-.579-.314-.579-.738.047-1.241.501-2.293 1.424-3.11.235-.22.783-.126 1.174-.078s.767.236 1.143.314c.83.188 1.644.22 2.285-.471.689-.754 1.597-.66 2.379-.393.923.314 1.784.141 2.677.141s1.753.079 2.63.157c.157 0 .407.141.423.251.125.66.814 1.162.423 1.963-.188.393-.094.911-.204 1.351-.047.188-.25.455-.438.487-.563.11-1.127.141-1.706.188v-.047l.031.031z" fill="#fff"/><path d="M17.08 46.549h5.072l7.873-.503c1.018-.063 1.518.377 1.487 1.398 0 .204-.031.408 0 .597.141.675-.297.864-.814.927l-4.899.44-10.675.078c-1.299 0-2.567-.031-3.866 0-.642 0-.924-.298-.892-.864.031-.503.125-1.021.266-1.492.125-.408.423-.581.908-.581h5.525.016zm36.861 10.696h-6.245c-.751 0-1.487.079-2.238.126-.141 0-.36.031-.454-.047-.579-.534-.391-1.225-.266-1.869.094-.503.203-1.021.908-1.037l14.808-.141c.908 0 1.346.675 1.205 1.586-.219 1.366-.25 1.366-1.597 1.366h-6.105l-.016.016zm-2.909-10.366c-.047 1.037-.673 1.634-1.769 1.665l-5.995.141-8.374.126c-1.064 0-1.174-.11-1.127-1.209 0-.236.047-.487.11-.723.266-.958.313-1.005 1.299-1.005h4.195l9.361-.251c.579 0 1.19-.157 1.456.675.078.251.548.408.845.597v-.016zm-36.034 8.073l8.218.267a14.67 14.67 0 0 0 1.659-.11c.892-.11 1.315.157 1.55 1.037l.157.707c.157.628-.125 1.131-.767 1.178l-3.444.141c-1.252 0-2.52-.078-3.772-.126l-4.179-.11c-.924 0-1.847.141-2.755.251-.501.047-.767-.188-.767-.597 0-.613.047-1.225.188-1.838.047-.204.391-.456.611-.487l3.318-.314h-.031H15zm5.556 15.172h5.291c.673 0 1.299.675 1.158 1.398 0 .11-.063.22-.078.314-.219 1.241-.313 1.319-1.612 1.319-2.896 0-5.792-.031-8.672.031-1.393.031-2.755.22-4.148.393-.47.047-.689-.141-.72-.565-.031-.581-.063-1.162.063-1.696.063-.283.501-.644.767-.675l7.952-.518zM31.058 55.03l6.214-.502 4.242-.189c.673-.031 1.252.675 1.174 1.335v.063c-.25 1.508-.25 1.492-1.784 1.508-.767 0-1.518.189-2.285.22l-2.912.094-5.698.314c-1.143.047-1.44-.345-1.237-1.492l.156-.581c.141-.644.485-.958 1.158-.864.329.047.673 0 1.002 0v.047l-.031.047zm10.691 10.633h-2.786c-.47 0-.657-.204-.673-.628v-.942c.141-1.099.501-1.382 1.597-1.398h4.258c.97 0 1.221.11 1.362 1.052.078.534-.047 1.162-.297 1.665-.094.204-.72.204-1.111.22h-2.395l.031.031h.016zm98.668 31.142c3.52 5.344 3.781 9.174 1.509 15.209-1.602 4.26-6.778 9.23-11.192 10.426-7.262 1.962-12.438-1.551-17.801-5.904-1.918-3.307-3.259-7.922-3.501-11.753-.428-6.371 6.554-15.433 13.016-16.012 5.177-.467 10.558.747 14.692 3.961 1.378 1.084 1.322 1.495 2.216 2.765.317.448.801.897 1.061 1.308zm-4.971 1.345c-.298-.187-1.248.486-1.546.673-4.041 2.392-7.15 5.082-10.372 8.445a.82.82 0 0 0-.186.355c-.112.056-1.304-.486-1.527-.579-.801-.355-2.179-1.252-2.942-1.42-.261-.056-.317-.075-.577.037-.094.038-1.565 1.458-1.602 1.57-.056.205.112.43.056.654-.056.261-.372.261-.428.43-.093.28.111.523.074.691-.056.262-.484.205-.242.766.317.729 2.142 1.009 2.849 1.271 1.546.597 3.855 1.999 5.326 2.335 1.117.243 1.21-.915 1.694-1.663.447-.672 1.006-1.513 1.509-2.149 2.551-3.344 5.958-5.624 9.366-7.996.428-.673-.112-1.047-.205-1.476-.056-.225.112-.411.037-.636-.055-.149-.316-.355-.316-.598l-.708.112-.26-.841v.019zm3.035 7.306c.13-.168-.689-2.579-.913-2.915-.074 0-.018.86-.465 1.177-.112.094-.335.075-.484.187-.913.617-1.862 1.289-2.98 1.439-.186.168 0 .224.187.243.54.056 1.229-.225 1.824-.262.261 0 .503.112.727.112.689 0 1.415-.261 2.122.019h-.018zm-17.318-2.205c-2.29-.28-4.599-.486-6.908-.616-.224 1.793.577 1.083 1.75.971 1.155-.112 2.346-.131 3.501-.131l1.639-.243.018.019zm14.897 10.239c-.54.038-1.248.075-1.769.243-.167.056-.205-.075-.167.243.744.168 1.508.299 1.936-.486z" fill="#000"/><path d="M135.445 98.15c-.298-.187-1.247.486-1.545.673-4.041 2.392-7.151 5.082-10.372 8.445-.094.094-.149.224-.187.355-.111.056-1.303-.486-1.527-.579-.8-.355-2.178-1.252-2.942-1.42-.26-.056-.316-.075-.577.037-.093.038-1.564 1.458-1.601 1.57-.056.205.111.43.056.654-.056.261-.373.261-.429.43-.093.28.112.523.075.691-.056.261-.484.205-.242.766.316.729 2.141 1.009 2.849 1.27 1.545.598 3.854 2 5.325 2.336 1.118.243 1.211-.916 1.695-1.663.447-.673 1.005-1.513 1.508-2.149 2.551-3.344 5.959-5.624 9.367-7.996.428-.673-.112-1.047-.205-1.477-.056-.224.112-.411.037-.635-.056-.15-.317-.355-.317-.598l-.707.112-.261-.841v.019z" fill="#fff"/></g><defs><clipPath id="A"><path fill="#fff" d="M0 0h254v123H0z"/></clipPath></defs></svg>