<svg xmlns="http://www.w3.org/2000/svg" width="119" height="56" fill="none"><path d="M113.947 24.978h-.7c.3 0 .5-.1.7 0 3.9-.5 5.1-8.3 3.8-13.2 1-5-.2-11.8-3.7-11.7l-12 .4c-.4-.2-.8-.3-1.3-.3-14.6-.1-29.5-.8-44 1.5l-46.8.4c-3.9 0-5.2 8.2-3.7 13.2-.5 0-1 0-1.5.1-5.3.3-5.6 15.1-1.2 16.7-.5 4.3.4 9.3 2.9 10.3-1.6 5.1-.4 13.3 3.3 12.9 17.4-1.6 34.8-3.1 52.3-3.5l7.8-.1c6 1.3 12.1 1.6 18.3 1.2 4-.3 8-.9 12-1.5 1.8-.3 3.7-.5 5.6-.9l7.3-1c3.4-.6 4.6-6.4 4.1-11.1 1.8-4.8.8-13.2-3.2-13.4z" fill="#7300d8"/></svg>