<svg xmlns="http://www.w3.org/2000/svg" width="189" height="147" fill="none"><g clip-path="url(#A)"><path d="M188.981 15.973v-2.95h.038c-.057-6.326.526-11.595-7.276-13.023H7.52C3.516.427.921 3.172 0 6.92v130.211l.865 3.58.056.186c1.128 3.079 3.44 5.324 6.185 6.01l41.192.093h.414 105.15 27.505l.432-.037c3.742-.761 6.618-4.397 7.145-9.072l.037-116.372v-5.528-.019zm-4.286 121.547c-.376 2.95-2.031 4.842-3.554 5.25H7.953c-.996-.352-2.237-1.335-2.952-3.209l-.714-2.671V17.012h180.409V137.52z" fill="#000"/><path d="M23.651 4.452c3.647-.928 4.55 4.137 1.372 4.731-3.177.612-4.004-4.063-1.372-4.731zm-15.022 0c3.704-.742 4.155 4.174 1.166 4.731-3.158.612-4.098-4.137-1.166-4.731zm7.389 0c4.136-.946 4.324 5.12.62 4.768-2.688-.26-2.933-4.248-.62-4.768z" fill="#21cc65"/><path d="M168.64 47.807c1.297 1.373-1.448 1.54-1.88 1.67-1.448.501-2.35 1.614-4.193 1.67-2.481.056-3.666-1.948-6.429-1.614-1.636.204-2.914 1.781-5.058 1.725-1.936-.037-3.421-1.725-5.339-1.725-2.745 0-3.835 2.616-7.407 1.558-.921-.26-1.749-1.132-2.595-1.261-3.572-.612-4.831 2.541-8.685 1.336-.846-.26-1.636-.983-2.444-1.243-.602-.185-2.012.111-2.106-1.002-.113-1.354 2.237-.742 2.895-.519.752.26 1.673 1.057 2.313 1.187 3.008.649 4.305-1.8 7.106-1.707 2.82.111 3.723 2.505 6.937 1.336.677-.26 1.354-.872 2.012-1.113 3.666-1.317 4.907 1.595 8.028 1.261 1.786-.186 2.952-1.744 5.076-1.725 2.519 0 3.61 1.929 6.26 1.614 1.279-.148 4.419-2.597 5.49-1.466v.037l.019-.019z" fill="#000"/><path d="M133.916 109.304c-2.538 0-4.418-.297-6.468-1.8-1.786-1.317-2.707-2.819-3.214-3.617-1.956-3.135-1.843-5.621-1.58-11.613l.245-7.754.094-12.633v-1.373c-.094-5.213-.151-7.829 1.673-9.814 1.034-1.15 2.406-1.781 5.208-2.43 3.703-.853 6.467-.983 8.911-.983 1.072 0 2.162.037 3.29.056a132.82 132.82 0 0 0 3.967.056h.132c2.049 0 4.079-.074 6.204-.148a161.6 161.6 0 0 1 6.805-.148c3.272 0 6.092.148 8.855.501.978.111 3.065.371 4.606 1.874 1.993 1.948 1.993 4.879 2.012 6.641.038 6.511-.188 11.761-.32 14.897l-.075 1.725c-.094 2.337-.056 4.675-.037 6.938.056 5.714.112 11.112-1.636 14.952-.376.816-.996 2.004-2.256 2.894-1.184.853-2.707 1.299-4.55 1.299-.507 0-.921-.038-1.222-.056h-.207l-19.063.148c-2.877.037-5.189.149-7.219.26-1.58.093-2.914.148-4.118.148h-.037v-.018z" fill="#fff"/><path d="M159.127 57.769c3.233 0 6.035.148 8.761.501.921.111 2.82.334 4.192 1.688 1.786 1.744 1.805 4.508 1.824 6.159.037 6.474-.188 11.743-.32 14.859l-.075 1.725c-.094 2.356-.056 4.712-.038 6.957.057 5.64.113 10.982-1.579 14.656-.338.742-.921 1.818-2.03 2.615-1.072.779-2.463 1.169-4.136 1.169-.47 0-.884-.037-1.185-.056h-.263l-19.064.149c-2.876.037-5.207.148-7.257.26-1.56.092-2.895.148-4.079.148-2.801 0-4.4-.445-6.073-1.67-1.692-1.243-2.575-2.671-3.045-3.432-1.843-2.968-1.749-5.379-1.486-11.223l.245-7.754.094-12.652v-1.373c-.113-5.38-.094-7.643 1.504-9.368.94-1.039 2.162-1.614 4.85-2.226 3.629-.853 6.355-.965 8.761-.965 1.072 0 2.125.037 3.272.056 1.259.037 2.556.056 3.985.056h.151c2.049 0 4.079-.074 6.204-.148 2.181-.093 4.474-.148 6.787-.148m0-1.336c-4.55 0-8.799.297-12.991.315h-.151c-2.707 0-4.982-.111-7.257-.111-2.801 0-5.565.185-9.062 1.002-2.763.649-4.324 1.317-5.546 2.634-2.162 2.375-1.936 5.454-1.842 11.65 0 0 .038 2.912-.094 12.615-.15 11.891-1.335 15.231 1.448 19.72.545.854 1.522 2.431 3.402 3.803 2.106 1.559 4.08 1.948 6.881 1.948s6.204-.371 11.337-.408l19.064-.148h.112c.32.018.79.055 1.335.055 1.373 0 3.29-.222 4.945-1.428 1.297-.946 2.011-2.171 2.463-3.154 2.5-5.472 1.428-13.765 1.71-22.113.094-2.542.433-8.701.395-16.659 0-1.911-.075-5.027-2.218-7.124-1.674-1.633-3.854-1.929-5.001-2.078-3.14-.39-6.092-.501-8.949-.501l.019-.019z" fill="#000"/><use href="#B" fill="#969696"/><use href="#C" fill="#092f9c"/><path d="M148.091 86.449c2.068 0 3.741-1.67 3.741-3.729s-1.673-3.729-3.741-3.729-3.741 1.67-3.741 3.729 1.673 3.729 3.741 3.729z" fill="#23bba4"/><path d="M162.229 86.449c2.068 0 3.741-1.67 3.741-3.729s-1.673-3.729-3.741-3.729-3.742 1.67-3.742 3.729 1.674 3.729 3.742 3.729z" fill="#087c0a"/><use href="#D" fill="#b42c0e"/><path d="M148.072 100.511c2.068 0 3.742-1.67 3.742-3.729s-1.674-3.729-3.742-3.729-3.741 1.67-3.741 3.729 1.673 3.729 3.741 3.729z" fill="#f78e7d"/><path d="M162.229 100.511c2.068 0 3.741-1.67 3.741-3.729s-1.673-3.729-3.741-3.729-3.742 1.67-3.742 3.729 1.674 3.729 3.742 3.729z" fill="#f9ce3f"/><path d="M133.898 86.449c2.068 0 3.741-1.67 3.741-3.729s-1.673-3.729-3.741-3.729-3.742 1.67-3.742 3.729 1.673 3.729 3.742 3.729z" fill="#3398da"/><path d="M162.23 101.772c-2.764 0-5.02-2.245-5.02-4.99s2.256-4.99 5.02-4.99 5.019 2.245 5.019 4.99-2.256 4.99-5.019 4.99zm0-9.331c-2.407 0-4.362 1.948-4.362 4.322s1.955 4.323 4.362 4.323 4.361-1.948 4.361-4.323-1.955-4.322-4.361-4.322z" fill="#000"/><path d="M133.898 72.387c2.068 0 3.741-1.67 3.741-3.729s-1.673-3.729-3.741-3.729-3.742 1.67-3.742 3.729 1.673 3.729 3.742 3.729z" fill="#fff"/><path d="M133.897 72.406c-2.068 0-3.779-1.67-3.779-3.729s1.692-3.729 3.779-3.729 3.779 1.67 3.779 3.729-1.692 3.729-3.779 3.729zm0-7.142c-1.88 0-3.422 1.521-3.422 3.395s1.542 3.395 3.422 3.395 3.422-1.521 3.422-3.395-1.542-3.395-3.422-3.395z" fill="#9fb9dc"/><g fill="#000"><path d="M132.863 70.532l1.636-3.729h.451l-1.635 3.729h-.452zm-32.168 11.409l.207 2.263-2.312.204c.094-.668-.508-1.744-.056-2.3.32-.371 2.012-.334 2.143-.167h.019zm4.136 1.818l.131-2.263-2.275-.13-.131 2.263 2.275.13z"/><use href="#E"/><path d="M109.099 83.666l.132-2.263-2.275-.13-.132 2.263 2.275.13zm7.633-1.855c-.188 1.54.489 2.671-1.448 2.189.188-1.54-.489-2.671 1.448-2.189zM97.613 29.348c-.545.148-.846-.649-.432-1.076l5.659-4.508c.451 0 .677.742.301 1.113l-5.527 4.452v.019zm-1.317-9.146c-.696 1.28-.978 3.636-1.749 4.768-.263.39-1.034.148-1.053-.26-.056-1.057 1.448-3.599 1.617-4.823.32-.538 1.147-.315 1.203.315h-.019zm7.539 13.803c-.094.13-.207.185-.338.241-.226.074-4.324-.724-4.606-.872-.696-.408-.639-1.243.263-1.206.79 0 3.252.519 4.061.761.489.148 1.165.482.658 1.095l-.038-.019z"/></g><path d="M92.93 43.076c.263-1.633.545-4.044.432-6.975-.15-3.636-.207-5.454-1.429-6.771-1.523-1.67-3.91-1.762-8.686-1.929-2.463-.093-4.493.037-5.866.148-.245-.074-.602-.186-.978-.148-.357.037-.714.111-.996.093-.338-.074-.733-.111-1.109-.111h-.132c-4.587-.074-10.303.445-14.683 0-.338-.037-.677-.093-1.015-.148l-3.497.148c-8.629.278-18.142-.185-30.701-.334-4.192-.056-6.542-.037-8.667 1.595-3.271 2.523-3.666 7.068-3.816 9.072-1.504 20.833.545 67.489.395 74.39-.075 3.432.263 6.901-.056 10.333-.038.334-.169 1.967.075 4.081.263 2.19.432 3.711 1.523 4.861 1.147 1.206 2.707 1.41 5.114 1.725.884.111 1.391.111 5.697.037l3.534-.055c44.501-1.095 52.058 0 52.058 0 3.61.519 8.705 1.428 11.355-1.373 1.335-1.41 1.429-3.822 1.617-8.627.244-6.121-.658-9.238.113-16.195.094-.723.207-1.206.207-1.614l-.056-58.826-.132-1.336c0-.037.244-.334.207-.724-.038-.445-.169-.927-.451-1.298l-.038-.037-.019.019z" fill="#ba6bff"/><g fill="#fff"><path d="M25.173 75.671c-.808-3.84.15-8.719 4.305-10.166 2.35-.816 8.705-.668 11.393-.501 3.967.204 6.674 2.523 7.219 6.511.056.445.113 3.766 0 3.914-.113.13-.282.167-.451.204l-22.466.056v-.019zm8.762-27.716c8.554-3.376 12.314 8.775 4.85 11.446-7.708 2.746-11.75-8.7-4.85-11.446zm47.771 15.472c.113.835.432 1.577-.677 1.466L58.788 64.8c-.32-.111-.32-1.299-.132-1.354h23.049v-.019zm-4.643 9.294s.113 1.336.038 1.354l-18.612-.334c-.075-1.02-.038-.983.959-1.076l17.635.056h-.019zm2.18 36.694c.113.074.207 1.206.113 1.317l-43.899-.074c-.376-.705-.301-1.373.62-1.28l43.147.037h.019z"/><path d="M79.337 91.087c.169.13 0 1.057.132 1.317a4960.62 4960.62 0 0 1-43.974-.093c-.169-.148-.244-1.262-.038-1.336l43.88.111zm-.15 9.22c.226.167.432 1.502-.263 1.372l-43.617-.389c-.075-1.02-.038-.983.959-1.076l42.959.093h-.038zm-48.58-9.332c.15.111.244 1.261 0 1.373-.62-.111-4.362.204-4.55.093-.113-.093.038-1.076-.113-1.336l4.663-.111v-.019zm.055 9.128s.169 1.28 0 1.372c-.526.056-4.512.204-4.606 0-.094-.185-.113-1.206 0-1.261.639.185 4.38-.223 4.587-.111h.019zm-.131 9.201c.113.074.207 1.02.32 1.28-.132.204-4.606.241-4.719 0-.169-.334-.038-.853-.094-1.206.62.149 4.305-.204 4.493-.093v.019z"/></g><path d="M20.418 134.589h-3.967c-1.015-.167-2.801-.445-4.023-1.744-1.034-1.094-1.166-2.56-1.41-5.472-.075-.816-.094-1.373-.075-4.805l.038-6.103-.075-5.399-.038-6.678c.188-2.709.79-6.493 1.391-6.493.432 0 .714 1.948 1.09 4.526.47 3.191.959 6.586.696 11.113-.113 1.985-.282 2.356-.282 4.229 0 2.356.226 2.69.226 5.621 0 1.763-.075 2.226.056 3.488.207 1.837.301 2.764.978 3.58 1.128 1.373 3.065 1.503 4.23 1.596 1.861.13 2.388-.371 4.625-.483 1.692-.092 2.275.149 4.268.353 4.569.445 5.396-.427 10.321 0 1.448.13 4.625.389 4.644.965.038.612-3.666 1.447-6.862 1.706-2.463.204-2.312-.13-7.953-.055l-4.606.055h-3.29.019z" fill="#000"/></g><defs><path id="B" d="M148.072 72.387c2.068 0 3.742-1.67 3.742-3.729s-1.674-3.729-3.742-3.729-3.741 1.67-3.741 3.729 1.673 3.729 3.741 3.729z"/><path id="C" d="M162.229 72.387c2.068 0 3.741-1.67 3.741-3.729s-1.673-3.729-3.741-3.729-3.742 1.67-3.742 3.729 1.674 3.729 3.742 3.729z"/><path id="D" d="M133.898 100.511c2.068 0 3.741-1.67 3.741-3.729s-1.673-3.729-3.741-3.729-3.742 1.67-3.742 3.729 1.673 3.729 3.742 3.729z"/><path id="E" d="M113.348 83.889l.132-2.263-2.275-.13-.132 2.263 2.275.13z"/><clipPath id="A"><path fill="#fff" d="M0 0h189v147H0z"/></clipPath></defs></svg>