<svg xmlns="http://www.w3.org/2000/svg" width="119" height="164" fill="none"><g clip-path="url(#A)"><path d="M118.917 30.616c.313-4.175-.375-4.85-.75-10.732-.375-6.094.125-7.738-1.146-11.238-1.022-2.804-2.168-3.985-2.626-4.407-2.501-2.34-5.669-2.551-6.878-2.572-9.003-.127-15.505-.38-19.903-.59L79.528.717C75.965.59 72.401.506 68.837.506h-17.86L35.805.274C25.113.126 26.76.274 25.113.19c0 0-8.42-.443-17.36.063-.917.042-2.73.19-4.251 1.476-.458.401-1.438 1.371-2.126 3.88-.792 2.931-.104 4.322-.063 9.509.042 3.458.146 5.187-.083 6.684-.354 2.488-.604 5.039-.604 7.57 0 2.973.313 5.967.5 8.94l.625 9.509c.25 3.69.667 7.38.667 11.07 0 5.039-.313 10.079-.563 15.118-.104 2.446-.354 4.871-.563 7.316l-.896 9.573C.23 93.765.25 96.633.167 99.48c-.063 1.834-.208 3.647-.188 5.504.063 5.482.042 9.931.354 16.088.584 11.47.896 6.536 1.334 14.865.125 2.235.188 4.385 1.521 6.705 1.855 3.247 4.918 4.66 6.065 5.166 1.084.485 2.272.864 11.087 1.054 5.898.126 9.962.063 12.046 0l4.668-.148c.375.042.646 0 2.042-.063l3.064-.105h.021c3.96-.085 6.606-.064 9.524-.043 11.233.064 9.983-.168 14.901-.021 6.273.19 6.565.506 12.129.527l8.753-.126c5.96-.19 12.609-.19 15.11-.19 4.606 0 6.669.063 9.399-1.096 1.334-.57 3.71-1.603 5.252-3.985 1.354-2.109 1.354-4.196 1.229-9.046l-.333-10.606-.354-16.678c-.042-2.615.104-5.208.146-7.823v-6.874l.166-17.88.355-13.115c.041-4.112-.105-8.181-.167-12.272 0-1.265-.084-2.509-.209-3.753-.354-3.184-.104-6.347.23-9.509l.562-5.461.042.021z" fill="#ba6bff"/><path d="M27.967 28.149c-.438.422-.771.822-1.188 1.118-1.438 1.012-4.397.801-5.523-.717-1.355-1.792-2.418-3.816-3.501-5.798-.146-.274.083-.97.354-1.244 1.521-1.455 3.418-1.94 5.439-1.729.438.042.813.611 1.167.886.667-.401 1.271-.97 2.022-1.202.563-.169 1.25.084 1.896.19.125 0 .271.253.354.232 1.292-.485 1.771.612 2.73 1.497.25-.337.438-.738.75-1.033 1.73-1.708 4.106-1.919 5.96-.358 1.417 1.181 2.772 1.37 4.418.464 1.917-1.075 3.981-1.139 6.148-.864 2.084.253 4.21-.084 6.315-.148l1.751-.042c.792.021 1.084.527 1.48 1.223 1 1.75 0 3.395 0 5.06 0 .232-.5.569-.813.611l-5.919.506c-1.563.042-3.084-.169-4.647-.127-.667 0-1.375.253-1.98.569-2.834 1.518-5.669 1.286-8.482.127-.604-.274-.98-.127-1.313.274-1.896 2.467-4.835 2.404-7.357.527l-.062-.021z" fill="#fcfdfe"/><path d="M13.692 39.366c-.104-2.362 2.438-3.838 4.648-3.289 1.355.358 2.397 1.139 3.647 1.518.604.169 1.375.084 2.001-.105l5.252-1.919c1.667-.569 3.251-.253 4.689.717 1.605 1.075 3.147 1.012 4.814.063 1.188-.696 2.522-1.16 3.835-1.56 1.417-.443 2.688.232 3.98.822.313.148.834.148 1.146 0 2.251-1.223 4.543-1.075 6.815-.169.271.084.646.337.667.506.083 1.117.834 2.193.125 3.374-.396.696-.5 1.539-.834 2.235-.146.316-.563.485-.875.696-.063.042-.229 0-.334 0-1.73-.422-3.23.021-4.647 1.139-.855.675-3.439.169-4.272-.611-.709-.696-1.375-.822-2.313-.19-3.585 2.446-7.252 2.256-11.004.337-.313-.148-.771-.148-1.125-.042-1.792.59-3.522 1.35-5.356 1.856-2.105.611-4.189.232-6.085-.843-.875-.485-1.605-.569-2.397-.105-.584.337-1.063.148-1.271-.38-.521-1.307-.959-2.636-1.438-3.964.104-.042.188-.063.313-.105l.042.063-.021-.042z" fill="#fbfcfe"/><path d="M54.456 92.037h-6.544c-7.148 0-14.318.042-21.466-.021-2.397-.021-4.752-.422-7.148-.612-.771-.063-1.188-.506-1.021-1.244.229-.991.5-2.003.917-2.889.146-.337.855-.59 1.25-.548 7.086.843 14.193.464 21.299.464h5.877c2.918-.042 5.835-.042 8.753-.232 1.542-.084 2.23.991 2.001 2.593-.354 2.319-.438 2.277-2.73 2.277h-1.209v.232h.021v-.021z" fill="#010203"/><path d="M77.839 42.803c-2.126 0-4.272-.021-6.398 0-.542 0-1.146.19-1.667.443-2.543 1.16-5.127 1.096-7.753.443l-3.355-.949c-.729-.148-.959-.527-.938-1.223.063-2.066.834-3.816 2.355-5.145.396-.358 1.292-.19 1.938-.127s1.251.401 1.896.527c1.355.316 2.688.38 3.751-.78 1.146-1.244 2.626-1.096 3.897-.654 1.521.527 2.939.253 4.418.253s2.897.127 4.314.274c.271 0 .688.253.709.422.188 1.096 1.334 1.94.709 3.268-.313.654-.146 1.518-.333 2.235-.083.316-.417.759-.73.801-.917.169-1.855.232-2.813.316v-.084h.021l-.021-.021z" fill="#fcfcfe"/><path d="M28.093 59.861l8.336-.021c4.314-.19 8.649-.506 12.963-.822 1.667-.105 2.501.611 2.459 2.34 0 .337-.042.675.021.991.229 1.117-.479 1.434-1.334 1.539-2.688.295-5.377.696-8.065.738l-17.569.126c-2.126 0-4.231-.042-6.356 0-1.063.021-1.521-.485-1.48-1.434a10.05 10.05 0 0 1 .438-2.488c.188-.675.709-.97 1.5-.97 3.022.063 6.065.021 9.107.021l-.021-.021z" fill="#010203"/><path d="M88.781 77.614H78.486c-1.23 0-2.459.126-3.689.19-.25 0-.584.042-.75-.084-.959-.886-.646-2.045-.438-3.1.146-.822.333-1.687 1.501-1.708l24.363-.232c1.501-.021 2.209 1.139 1.98 2.636-.354 2.256-.417 2.256-2.626 2.256H88.781v.042z" fill="#010204"/><path d="M83.988 60.409c-.083 1.708-1.105 2.699-2.918 2.762l-9.878.232-13.776.19c-1.751 0-1.938-.169-1.834-2.003 0-.401.063-.801.167-1.202.438-1.602.5-1.666 2.147-1.666h6.919l15.401-.422c.938-.021 1.959-.274 2.397 1.117.125.422.896.675 1.396.991h-.021zm-59.313 13.41l13.526.443c.896.021 1.813-.084 2.73-.169 1.48-.169 2.167.274 2.543 1.708l.271 1.181c.271 1.033-.188 1.855-1.271 1.961l-5.669.232c-2.063 0-4.147-.126-6.21-.19l-6.856-.169c-1.521 0-3.022.253-4.543.422-.813.084-1.25-.316-1.25-.991 0-1.012.083-2.045.313-3.036.063-.337.646-.759 1-.801l5.46-.506h-.042v-.084z" fill="#010203"/><path d="M33.823 98.995h8.711c1.125 0 2.126 1.117 1.917 2.34-.021.169-.104.358-.125.527-.375 2.066-.521 2.193-2.647 2.193-4.752 0-9.524-.042-14.276.042-2.272.042-4.543.38-6.815.654-.771.084-1.146-.232-1.188-.928-.042-.949-.104-1.94.104-2.825.104-.464.813-1.076 1.271-1.118 4.418-.358 8.816-.59 13.067-.864l-.021-.021zm17.278-25.071l10.212-.822 6.982-.316c1.125-.042 2.063 1.118 1.938 2.214 0 .042-.021.063-.021.105-.417 2.509-.417 2.467-2.938 2.509-1.251.021-2.501.316-3.772.379l-4.793.148-9.399.527c-1.897.084-2.376-.569-2.042-2.467.063-.337.188-.654.271-.949.229-1.075.792-1.602 1.917-1.434.542.063 1.105 0 1.646 0v.084h.021l-.021.021zm17.589 17.67c-1.542 0-3.064-.021-4.585 0-.771 0-1.084-.337-1.105-1.033 0-.506-.042-1.033.021-1.56.25-1.813.813-2.277 2.626-2.298h7.002c1.605 0 2.001.169 2.23 1.75.125.886-.083 1.94-.479 2.762-.146.337-1.188.337-1.813.358h-3.939l.042.042v-.021z" fill="#010204"/><path d="M79.861 131.761c-.334-.506-.917-1.054-1.313-1.603-1.084-1.581-1-2.087-2.688-3.415-5.064-3.964-11.629-5.44-17.944-4.871-7.878.696-16.402 11.85-15.881 19.715.313 4.723 1.938 10.395 4.293 14.464 6.544 5.356 12.859 9.699 21.737 7.274 5.377-1.476 11.712-7.569 13.671-12.819 2.772-7.444 2.459-12.145-1.834-18.724l-.042-.021z" fill="#000"/><path d="M65.502 139.225l2.105-1.054c.459-.169 1.188-.295 1.667-.211.604.105.146 1.56.834 1.645v.21c-.354 0-.146.338-.271.57-.062.105-.313.168-.438.337s-.104.422-.188.527c-.062.084-1.146.717-1.417.949-1.626 1.392-1.667 2.931-2.814 4.449-.375.506-.417.864-1.209.991-.313.042-1.521.126-1.73 0-.604-.316-.604-.886-.917-1.307-.938-1.308-2.543-3.205-3.647-4.344-.75-.78-1.896-1.328-2.418-2.256-.187-.337-.5-1.054-.417-1.434.208-.738.875-.527 1.313-.78.167-.105.208-.295.354-.422.396-.295 1.876-.506 2.292-.274l2.272 1.982a4.04 4.04 0 0 1-.083-.843 5.56 5.56 0 0 1 .063-.907 42.91 42.91 0 0 0 .396-3.648c.063-1.18-.167-1.728.083-2.719a2.75 2.75 0 0 1 .5-.591c.25-.126.771-.084.959-.211.104-.063.125-.337.354-.464.271-.147 1.855-.485 2.084-.358.292.19.188.801.25 1.075.959 3.648-.479 3.648-.25 7.38.042.548.188 1.16.25 1.708h.021zm-12.609 7.38c.167-.042.229.105.646.147.209.021.584.085.792-.126.146-.127.083-.232.188-.359.188-.189.521-.147 1.313 0 .208.043.563.085 1 .148.354 1.16.313 2.003.188 2.572-.062.253-.167.675.042.97.25.338.813.317 1 .317 1.334-.043 2.668.189 4.001.084 3.501-.295 5.273-.422 6.231-.063.271.105.98.4 1.271.105.167-.169.104-.464 0-1.096-.396-2.193-.229-2.552-.062-2.699.167-.169.417-.19.646-.211.459-.042.604.147 1.084.105.375-.021.354-.168.75-.211.146 0 .709-.084 1.167.275.063.042.313.253.479.759.208.59.125 1.012.104 1.623-.042 1.476.375 1.729.146 2.91-.083.443-.146.738-.396 1.012-.521.611-1.417.59-1.98.59-1.376 0-2.73.275-4.106.253-1.626-.021-3.251 0-4.877 0-1.709 0-3.418-.147-5.106-.063-2.355.106-3.585.401-4.356-.443-.292-.316-.396-.738-.625-1.602-.334-1.35-.229-2.319-.042-3.711.063-.527.188-1.181.5-1.265v-.021z" fill="#fff"/></g><defs><clipPath id="A"><path fill="#fff" d="M0 0h119v164H0z"/></clipPath></defs></svg>