<svg xmlns="http://www.w3.org/2000/svg" width="138" height="133" fill="none"><g clip-path="url(#A)"><path d="M122.184 27.323c.279-3.726-.334-4.328-.668-9.578-.334-5.438.111-6.906-1.021-10.03-.91-2.503-1.931-3.556-2.339-3.933-2.228-2.089-5.049-2.277-6.126-2.296-8.019-.113-13.811-.339-17.728-.527L87.099.64C83.925.527 80.751.452 77.576.452H61.668L48.153.245c-9.523-.132-8.056 0-9.523-.075 0 0-7.5-.395-15.463.056-.817.038-2.432.169-3.787 1.317-.408.358-1.281 1.223-1.893 3.462-.705 2.616-.093 3.858-.056 8.487.037 3.086.13 4.629-.074 5.965-.316 2.22-.538 4.497-.538 6.755 0 2.653.278 5.325.445 7.979l.557 8.487c.223 3.293.594 6.586.594 9.879 0 4.497-.278 8.995-.501 13.492-.093 2.183-.316 4.347-.501 6.53l-.798 8.543c-.148 2.559-.13 5.118-.204 7.659-.056 1.637-.186 3.255-.167 4.911.056 4.892.037 8.863.316 14.357.52 10.237.798 5.834 1.188 13.267.111 1.994.167 3.913 1.355 5.983 1.652 2.898 4.381 4.159 5.402 4.611.965.432 2.023.771 9.876.94 5.253.113 8.873.057 10.73 0l4.158-.131c.334.037.575 0 1.819-.057l2.729-.094c3.546-.075 5.903-.056 8.502-.037 10.006.056 8.892-.151 13.273-.019 5.587.169 5.847.451 10.804.47l7.797-.113c5.309-.169 11.23-.169 13.458-.169 4.102 0 5.94.056 8.372-.979 1.188-.508 3.304-1.43 4.678-3.556 1.207-1.882 1.207-3.745 1.095-8.073l-.297-9.465-.315-14.884c-.037-2.333.092-4.648.13-6.981v-6.134l.148-15.957.316-11.704c.037-3.669-.093-7.301-.149-10.952a33.55 33.55 0 0 0-.185-3.349c-.316-2.841-.093-5.664.204-8.487l.501-4.874.037.019z" fill="#ba6bff"/><path d="M41.433 25.121c-.39.376-.687.734-1.058.997-1.281.903-3.917.715-4.919-.64-1.207-1.599-2.153-3.406-3.119-5.175-.13-.245.074-.866.316-1.11 1.355-1.298 3.044-1.731 4.845-1.543.39.038.724.546 1.04.79.594-.357 1.132-.866 1.801-1.072.501-.151 1.114.075 1.689.169.111 0 .241.226.316.207 1.151-.433 1.578.546 2.432 1.336.223-.301.39-.659.668-.922 1.541-1.524 3.657-1.712 5.309-.32 1.262 1.054 2.469 1.223 3.935.414 1.708-.96 3.546-1.016 5.476-.771 1.856.226 3.75-.075 5.625-.132l1.559-.038c.705.019.965.47 1.318 1.091.891 1.562 0 3.03 0 4.516 0 .207-.446.508-.724.546l-5.272.452c-1.392.038-2.747-.15-4.14-.113-.594 0-1.225.226-1.764.508-2.525 1.355-5.049 1.148-7.555.113-.538-.245-.872-.113-1.169.245-1.689 2.202-4.307 2.145-6.553.471l-.056-.019z" fill="#fcfdfe"/><path d="M28.699 35.132c-.093-2.108 2.172-3.425 4.14-2.936 1.207.32 2.135 1.016 3.249 1.355.538.151 1.225.075 1.782-.094l4.678-1.712c1.485-.508 2.896-.226 4.177.64 1.429.96 2.803.903 4.288.056 1.058-.621 2.246-1.035 3.416-1.392 1.262-.395 2.395.207 3.546.734a1.37 1.37 0 0 0 1.021 0c2.005-1.091 4.047-.96 6.07-.151.241.075.575.301.594.452.074.997.742 1.957.111 3.011-.353.621-.445 1.374-.742 1.995-.13.282-.501.433-.78.621-.056.038-.204 0-.297 0-1.541-.376-2.877.019-4.14 1.016-.761.602-3.063.151-3.805-.546-.631-.621-1.225-.734-2.061-.169-3.193 2.183-6.46 2.013-9.801.301-.279-.132-.687-.132-1.002-.038l-4.771 1.656c-1.875.546-3.731.207-5.42-.753-.78-.433-1.429-.508-2.135-.094-.52.301-.947.132-1.132-.339l-1.281-3.538c.093-.038.167-.056.279-.094l.037.056-.018-.038z" fill="#fbfcfe"/><path d="M85.855 38.199c-1.893 0-3.805-.019-5.699 0-.483 0-1.021.169-1.485.395-2.265 1.035-4.567.979-6.906.395l-2.989-.847c-.65-.132-.854-.47-.835-1.091.056-1.844.743-3.406 2.098-4.591.353-.32 1.151-.169 1.726-.113s1.114.358 1.689.47c1.207.282 2.395.339 3.341-.696 1.021-1.11 2.339-.979 3.471-.583 1.355.47 2.617.226 3.935.226s2.58.113 3.843.245c.241 0 .613.226.631.376.167.979 1.188 1.731.631 2.917-.278.583-.13 1.355-.297 1.995-.074.282-.371.677-.65.715-.817.15-1.652.207-2.506.282v-.075h.019l-.019-.019z" fill="#fcfcfe"/><path d="M.149 81.328l.037 8.11c-.111 4.14-.316 5.137-.037 7.602.093.828.278 2.013.278 3.726a25.27 25.27 0 0 1-.278 3.745l39.299-.772 2.896-.169c3.713-.132 6.497.15 7.166.207 2.803.244 8.057.169 18.563 0 18.823-.32 24.912-.997 30.5-.282.705.094 3.211.451 6.608.451 3.156 0 5.495-.263 6.07-.338 3.249-.358 10.247-.396 26.453.903.186-1.769.242-3.18.279-4.065.111-4.365-.446-5.419-.223-9.051.037-.583.111-1.599.037-3.029-.074-1.28-.223-1.901-.297-2.785-.111-1.073-.148-2.653.241-4.686-14.553-.339-22.517 0-27.139.414-1.541.132-6.572.621-13.329.376-2.859-.094-4.956-.301-5.625-.358-10.395-.903-20.624.772-34.639.583-14.981-.188-27.028-2.409-34.287-1.355-.891.132-3.991.64-8.205.659-2.246 0-3.081-.132-5.625-.188-2.061-.038-5.049-.019-8.743.282v.019z" fill="#fff"/><path d="M27.363 83.247c3.23 0 7.091.301 11.546.659 5.328.414 11.379.903 18.062.978h2.153c5.402 0 10.136-.245 14.721-.489 3.88-.207 7.537-.395 11.064-.395 2.376 0 4.492.094 6.627.282.78.075 2.877.263 5.643.358a93.56 93.56 0 0 0 3.879.075 104.07 104.07 0 0 0 9.616-.433h.204c4.066-.376 9.43-.565 15.946-.565l7.741.075c0 .715 0 1.411.093 2.108a15.23 15.23 0 0 0 .13.978c.056.452.13.941.167 1.675.056 1.129 0 1.976-.019 2.54v.151c-.13 2.07 0 3.444.093 4.761.093 1.185.186 2.427.149 4.385 0 .32-.019.658-.037.978-7.946-.602-14.201-.903-18.62-.903-2.264 0-4.065.075-5.587.245a48.25 48.25 0 0 1-5.439.301h-.204c-3.063 0-5.384-.32-6.256-.433-1.838-.245-3.787-.339-6.33-.339-2.357 0-5.216.094-8.818.207l-15.76.395-13.106.17c-2.413 0-4.047-.038-5.235-.151-.65-.056-2.654-.244-5.383-.244-.65 0-1.336 0-2.06.037-1.522.057-2.673.151-3.044.188-3.137.264-15.203.508-35.902.715v-.771a26.93 26.93 0 0 0-.26-3.745l-.037-.32c-.167-1.486-.13-2.296-.056-4.083l.111-3.105.037-5.438a75.11 75.11 0 0 1 4.102-.113h1.615a65.61 65.61 0 0 1 2.543.094 44.68 44.68 0 0 0 2.989.094h.167a52.68 52.68 0 0 0 8.391-.659l.204-.038c1.169-.169 2.562-.245 4.232-.245m-.074-2.935c-1.708 0-3.267.075-4.641.282-.891.132-3.991.64-8.205.659h-.167c-2.135 0-2.989-.132-5.458-.188H7.221a88.15 88.15 0 0 0-7.073.301c.111 3.444.074 6.21.037 8.11-.111 4.14-.316 5.137-.037 7.602.093.828.278 2.013.278 3.726 0 1.581-.149 2.879-.278 3.744l39.299-.771c.26-.019 1.374-.113 2.896-.169l1.968-.038c2.71 0 4.659.188 5.198.245 1.244.113 2.97.15 5.402.15l13.161-.169 24.541-.602c2.32 0 4.158.094 5.959.32.705.094 3.211.451 6.608.451h.204c3.045 0 5.291-.282 5.866-.339 1.151-.131 2.804-.225 5.161-.225 4.251 0 10.878.282 21.292 1.129.186-1.769.242-3.18.279-4.065.111-4.365-.446-5.419-.223-9.051.037-.583.111-1.6.037-3.03-.074-1.28-.223-1.9-.297-2.785-.111-1.073-.148-2.653.241-4.686l-10.952-.132c-7.889 0-12.883.263-16.187.546-1.244.113-4.734.433-9.56.433a87.98 87.98 0 0 1-3.769-.075c-2.859-.094-4.956-.301-5.625-.358a80.78 80.78 0 0 0-6.757-.282c-7.704 0-15.779.884-25.766.884h-2.116c-12.141-.15-22.332-1.637-29.646-1.637v.019zM8.762 98.866a1.44 1.44 0 0 1-1.429-1.449v-9.221a1.44 1.44 0 0 1 1.429-1.449c.798 0 1.429.64 1.429 1.449v9.221a1.44 1.44 0 0 1-1.429 1.449z" fill="#000"/><path d="M.149 52.124l.037 8.11c-.111 4.14-.316 5.137-.037 7.602.093.828.278 2.014.278 3.726 0 1.581-.149 2.879-.278 3.745l39.299-.772 2.896-.169c3.713-.132 6.497.15 7.166.207 2.803.245 8.057.169 18.563 0 18.823-.32 24.912-.997 30.5-.282.705.094 3.211.452 6.608.452 3.156 0 5.495-.263 6.07-.339 3.249-.358 10.247-.395 26.453.903.186-1.769.242-3.18.279-4.065.111-4.366-.446-5.419-.223-9.051.037-.583.111-1.599.037-3.03-.074-1.28-.223-1.901-.297-2.785-.111-1.072-.148-2.653.241-4.685-14.553-.339-22.517 0-27.139.414-1.541.132-6.572.621-13.329.376-2.859-.094-4.956-.301-5.625-.358-10.395-.903-20.624.772-34.639.583-14.981-.188-27.028-2.409-34.287-1.355-.891.132-3.991.64-8.205.659-2.246 0-3.081-.132-5.625-.188a87.53 87.53 0 0 0-8.743.282v.019z" fill="#fff"/><path d="M27.363 54.024c3.23 0 7.091.301 11.546.659 5.328.414 11.379.903 18.062.979h2.153c5.402 0 10.136-.245 14.721-.489 3.88-.207 7.537-.395 11.064-.395 2.376 0 4.492.094 6.627.282.78.075 2.877.263 5.643.358a93.56 93.56 0 0 0 3.879.075 104.07 104.07 0 0 0 9.616-.433h.204c4.066-.376 9.43-.565 15.946-.565l7.741.075c0 .715 0 1.411.093 2.108a15.23 15.23 0 0 0 .13.978c.056.452.13.941.167 1.675.056 1.129 0 1.976-.019 2.54v.151c-.13 2.07 0 3.444.093 4.761.093 1.185.186 2.427.149 4.384 0 .32-.019.659-.037.978-7.946-.602-14.201-.903-18.62-.903-2.264 0-4.065.075-5.587.245a48.25 48.25 0 0 1-5.439.301h-.204c-3.063 0-5.384-.32-6.256-.433-1.838-.245-3.787-.339-6.33-.339-2.357 0-5.216.094-8.818.207l-15.76.395-13.106.169c-2.413 0-4.047-.038-5.235-.151-.65-.056-2.654-.245-5.383-.245-.65 0-1.336 0-2.06.038a54.88 54.88 0 0 0-3.044.188c-3.137.263-15.203.508-35.902.715v-.771a26.93 26.93 0 0 0-.26-3.745l-.037-.32c-.167-1.487-.13-2.296-.056-4.083l.111-3.105.037-5.438a75.11 75.11 0 0 1 4.102-.113h1.615a65.41 65.41 0 0 1 2.543.094 44.68 44.68 0 0 0 2.989.094h.167c4.121 0 7.221-.47 8.391-.659l.204-.038c1.169-.169 2.562-.245 4.232-.245m-.074-2.917c-1.708 0-3.267.075-4.641.282-.891.132-3.991.64-8.205.659h-.167c-2.135 0-2.989-.132-5.458-.188H7.221a88.15 88.15 0 0 0-7.073.301c.111 3.444.074 6.21.037 8.11-.111 4.14-.316 5.137-.037 7.602.093.828.278 2.013.278 3.726 0 1.581-.149 2.879-.278 3.745l39.299-.771c.26-.019 1.374-.113 2.896-.169l1.968-.038c2.71 0 4.659.188 5.198.245 1.244.113 2.97.151 5.402.151l13.161-.169 24.541-.602c2.32 0 4.158.094 5.959.32.705.094 3.211.452 6.608.452h.204c3.045 0 5.291-.282 5.866-.339 1.151-.132 2.804-.226 5.161-.226 4.251 0 10.878.282 21.292 1.129.186-1.769.242-3.18.279-4.064.111-4.366-.446-5.419-.223-9.051.037-.583.111-1.6.037-3.03-.074-1.279-.223-1.901-.297-2.785-.111-1.073-.148-2.653.241-4.685l-10.952-.132c-7.889 0-12.883.263-16.187.546-1.244.113-4.734.433-9.56.433-1.188 0-2.451-.019-3.769-.075-2.859-.094-4.956-.301-5.625-.358a80.78 80.78 0 0 0-6.757-.282c-7.704 0-15.779.884-25.766.884h-2.116c-12.141-.151-22.332-1.637-29.646-1.637v.019zm101.803 7.36c-.149-.094-.613.245-.761.32-1.968 1.185-3.509 2.521-5.086 4.178-.056.056-.075.113-.093.169-.056.038-.631-.245-.743-.282-.39-.169-1.077-.621-1.448-.715a.35.35 0 0 0-.278 0c-.056.019-.631 1.449-.65 1.487-.037.094.056.207.037.32-.018.132-.185.132-.204.207-.037.132.056.263.037.339-.018.132-.241.094-.111.376.148.358 1.039.489 1.392.64.761.301 1.893.997 2.599 1.148.557.132.594-.452.835-.828l.743-1.054c1.243-1.656 2.914-2.785 4.585-3.952.204-.339-.056-.527-.093-.734-.018-.113.056-.207 0-.32-.018-.075-.148-.169-.148-.301l-.353.056-.13-.414-.149-.715.019.075zM12.698 65.427c-.91.357-1.689.79-2.506.884-1.058.132-2.042-.809-2.358-1.995-.167-.602-.167-1.261-.371-1.844-.371-1.016.13-1.355.965-1.449.965-.132 1.968-.32 2.599.583.965-.489 1.912-1.374 2.84-1.298.724.038 1.337 1.261 2.005 1.976l-.074.527 1.095-.79c.743-.508 1.541-.301 2.339-.207.78.094 1.578.188 2.376.132.613-.038 1.207-.282 1.819-.47 1.541-.452 3.007-.508 4.622-.169 1.875.414 3.88.358 5.847.32 2.079-.038 3.044-.245 2.153 2.635-.204.64-.408.884-1.114.96-2.84.245-5.643.264-8.465-.489-.761-.207-1.689.282-2.562.414-1.541.226-3.1.564-4.641.546-.835-.019-1.522 0-2.302.32-1.522.64-3.044.809-4.27-.583zm49.137-4.553l5.513.621 4.567.358c1.151.075 1.652.772 1.318 1.919-.093.339-.167.715-.334 1.035-.148.264-.427.602-.65.64-1.244.075-2.469.132-3.694 0l-6.293-.809c-.13-.019-.297 0-.371-.056-1.522-.96-2.729-.489-3.824.771-.483.546-.947.734-1.764.264-.724-.433-1.764-.395-2.654-.508-2.525-.339-2.172-1.581-1.188-3.293.26-.452.705-.696 1.337-.489.761.245 1.578.376 2.395.47.26.038.594-.169.854-.358 2.079-1.675 2.358-1.731 4.827-.583l-.037.019zm-14.98 2.935c.037.96-.631 1.11-1.411 1.11-1.04 0-2.098.075-3.119-.038-1.114-.15-1.262-.47-.947-1.543.074-.245.167-.508.13-.753-.056-.433-.483-.903.148-1.223l2.543-1.167c.613 1.054 1.782.941 2.692 1.393.297.15.223 1.091.278 1.694 0 .132-.186.32-.316.546v-.019z" fill="#000"/></g><defs><clipPath id="A"><path fill="#fff" d="M0 0h138v133H0z"/></clipPath></defs></svg>