<svg xmlns="http://www.w3.org/2000/svg" width="281" height="244" fill="none"><g clip-path="url(#A)"><path d="M76.515 9.459c2.076-.424 2.217 2.768.307 2.851-1.345.059-1.911-2.533-.307-2.851zm5.802 10.931c.743 0 1.344-.601 1.344-1.343s-.602-1.343-1.344-1.343-1.344.601-1.344 1.343.602 1.343 1.344 1.343zm.873-4.523c.632 0 1.144-.512 1.144-1.143s-.512-1.143-1.144-1.143-1.144.512-1.144 1.143.512 1.143 1.144 1.143zm39.85 3.663a1.331 1.331 0 1 0 0-2.662c-.736 0-1.333.596-1.333 1.331s.597 1.331 1.333 1.331zm11.84-6.184c.534 0 .967-.432.967-.966s-.433-.966-.967-.966-.967.432-.967.966.433.966.967.966z" fill="#020202"/><path d="M93.603 65.777c.33 2.085.448 3.805.495 4.9a48.72 48.72 0 0 0 13.621 2.627c5.283.247 9.741-.412 12.961-1.143-.566-1.437-1.215-3.734-.72-6.349.095-.483.354-1.637 2.595-5.442 2.771-4.712 3.774-5.289 4.375-7.574.342-1.296.59-3.286-.094-5.972.613-.106 2.158-.448 3.396-1.779.189-.212 1.923-2.085 1.345-3.569-.248-.624-.602-.412-2.595-1.873-1.427-1.048-2.24-1.39-2.5-1.52-.531-.259-.825-.353-1.144-.707-.625-.671-.33-1.213-.755-1.873-.695-1.096-2.005-.448-3.042-1.52-.861-.895-.331-1.72-1.168-2.686-.943-1.084-2.583-1.131-3.078-1.131-.955.024-2.276.365-6.25 4.429a74.97 74.97 0 0 0-3.727 4.123c-1.003-2.862-.908-5.018-.649-6.443.354-1.885 1.415-4.782 2.677-9.317.165-.589.413-1.508-.07-2.085-.472-.565-1.251-.318-3.975-.389-1.981-.059-2.217-.2-2.677.071-1.108.648-1.038 2.321-1.238 4.5-.224 2.356-.33.683-1.698 7.951-.731 3.911-1.097 5.866-1.179 7.362-.153 3.11.212 5.018-.259 5.148-.59.153-1.828-2.544-2.547-4.099-1.675-3.628-1.58-4.818-2.807-5.407-1.168-.565-2.512-.106-4.375.518-1.769.601-2.795.942-3.137 1.826-.484 1.272 1.002 2.262 2.418 5.477.389.884.731 2.167 1.439 4.759.837 3.122.991 4.017 1.698 6.844 1.486 5.937 2.064 6.809 2.63 10.366l.035-.023z" fill="#fcfcfc"/><path d="M92.035 65.4c-.932-5.56-2.429-11.402-4.057-16.797-1.05-3.463-3.562-6.337-4.658-9.447-1.368-3.887 3.42-3.864 5.826-4.947 1.321-.589 1.781-1.578 3.573-1.307 2.182.342 3.338 4.582 4.611 6.055.354-6.502 2.477-12.722 3.75-19.059.46-.766 1.651-.931 2.453-1.072 1.616-.271 6.451-.825 7.406.766s-.2 5.619-.613 7.386c-.224.978-1.993 6.679-1.627 7.079.342.094.389-.141.589-.294 2.206-1.684 4.706-4.547 7.395-5.536 2.276-.836 3.939 1.39 2.394 2.792-.436.401-1.427.565-2.017.931-2.182 1.331-5.908 4.464-7.382 6.526-.92 1.296-1.168 3.381-3.043 3.44-1.51.047-1.946-.907-2.064-2.262-.519-5.89 1.793-11.662 3.113-17.292.118-.2-.117-.636-.259-.636h-3.043c.048.73-.129 1.449-.294 2.156-1.215 5.36-2.666 10.437-3.232 15.961-.212 2.109-.118 4.512-.413 6.632-.212 1.567-1.332 2.921-2.995 2.05-.826-.424-2.158-4.382-2.701-5.525a87.85 87.85 0 0 0-2.901-5.525c-.189-.118-1.545.624-1.97.789-.59.224-1.333.389-1.958.495.885 2.827 2.807 5.324 3.632 8.222s1.816 7.056 2.382 10.142c.531 2.827.826 5.796 1.038 8.646-.908-.047-1.84.023-2.748 0v-.2l-.2-.2.012.035zm26.464 4.111c-.306-2.474-.578-5.183.708-7.421 1.71-2.992 5.661-8.034 5.967-11.461.165-1.767-.684-5.489 1.227-6.408.719-.353 3.278-.412 3.278-1.626 0-.554-2.783-2.368-3.408-2.615-.719.13-4.01 5.772-4.835 6.714-.661.766-1.663 1.92-2.748 1.578-1.899-.589-.024-2.462.436-3.31 1.085-2.014 4.175-8.116 6.157-8.917.577-.236.872-.283 1.497-.177.967.165 5.295 3.31 6.027 4.158 2.594 2.98-.578 6.808-3.703 7.562-.13.153.035 3.322-.048 3.97-.235 1.896-2.806 6.867-3.868 8.67-.578.989-2.771 3.722-2.925 4.511-.33 1.59.142 3.864-.047 5.536-1.297-.094-2.476-.518-3.726-.777l.011.012zm-7.619-25.679c-.507-.801.897-2.662 1.38-3.357 1.262-1.849 6.427-7.28 8.314-8.14 1.298-.589 2.949-.495 3.031 1.249.059 1.508-1.214 1.472-2.158 2.167-2.936 2.191-5.389 5.371-8.067 7.409-.471.353-2.052 1.378-2.5.671z" fill="#020202"/><path d="M92.236 65.588c-.094-.024-.177-.106-.2-.2l.2.2zm-.001.2h2.748c7.123.365 16.464 2.25 23.516 3.722 1.25.259 2.43.683 3.727.778 2.04.153 4.293-.542 5.767 1.378 2.005 2.615-.012 8.422-.283 11.638-.519 6.267-.625 12.557-1.18 18.789-.094 1.083-.235 44.774-.613 45.516-.672 1.319-2.748 1.507-3.597.318-.295-.424-.259-1.119-.306-1.166-.166-.165-4.01-.036-4.612-.012l-27.419.989c-3.125.106-6.274.059-9.388.177-.2.978-1.262 1.673-2.076.895-.672-.648.142-44.821.189-45.928.436-9.647.425-19.153 1.179-28.777.153-1.944-.201-6.738 1.168-8.034s2.559-.377 4.022-.283c2.311.153 4.823-.059 7.159 0zm22.667 14.536l-16.086 8.587c-.861.907-.059 1.732 1.05 1.237l15.484-8.222c.743-.424.472-1.696-.448-1.614v.012zm2.583 8.399c-.106-.165-.979-.236-1.238-.224-3.244.153-14.506 6.467-17.053 8.823-.401.377-1.651 1.743-.413 1.755.389 0 2.665-1.684 3.255-2.038 3.408-2.05 7.96-4.512 11.616-6.019.731-.306 3.68-1.084 3.821-1.472.071-.177.095-.671 0-.825h.012z" fill="#21cc65"/><path d="M117.485 88.723c.094.141.058.648 0 .825-.142.377-3.102 1.166-3.822 1.472-3.655 1.52-8.208 3.97-11.616 6.019-.59.353-2.866 2.05-3.255 2.038-1.238-.012 0-1.39.413-1.755 2.559-2.356 13.81-8.67 17.053-8.823.259-.012 1.132.059 1.238.224h-.011zm-2.583-8.399c.92-.082 1.191 1.19.448 1.614L99.865 90.16c-1.109.483-1.91-.33-1.05-1.237l16.086-8.587v-.012z" fill="#020202"/><path d="M42.184 77.485c3.396 2.591 6.569 3.463 8.409 3.793 4.599.825 11.558.283 13.562-3.451.212-.4.094-.306.743-3.322.979-4.464 1.451-5.619 1.769-7.315.366-2.014.542-5.006-.543-9.011.755-.024 2.229-.177 3.668-1.154.743-.495 1.816-1.237 1.899-2.309.024-.247.012-.931-2.241-3.251-1.922-1.979-2.441-2.026-2.783-3.051-.472-1.449-.342-2.851-.342-2.851.212-1.296.837-1.673.66-2.639-.106-.601-.46-.978-1.168-1.743-.861-.931-1.781-1.932-2.76-1.779-.743.118-1.05.825-1.356.683-.472-.224.295-1.896-.472-2.639-.153-.141-.342-.247-1.356-.342-1.498-.141-2.252-.212-2.783-.071-1.215.342-1.651 1.72-2.76 4.441-1.627 3.993-2.465 5.984-3.09 5.937-1.026-.082-1.616-4.712-1.781-5.937-.436-3.428-.035-4.747-1.073-5.607-1.085-.895-3.125-.777-4.163.189-.602.565-.719 1.272-.696 5.183l.047 6.726c.118 2.65.283 3.97-.33 4.252-.531.247-1.026-.601-2.382-1.119-1.687-.648-4.116-.542-5.236.66-.719.766-.896 1.991-.142 5.466 1.014 4.641 2.547 7.987 2.807 8.552 1.203 2.65 2.724 6.538 3.88 11.709h.012z" fill="#fcfcfc"/><path d="M61.136 38.637c1.427-1.39 3.644-.271 3.031 1.755-.024.094-1.014 1.461-1.132 1.602-.601.695-1.415 1.048-1.922 1.791-1.108 1.59-2.618 4.747-3.597 6.585-.354.66-.212 1.755-1.592 1.284-1.109-.377.024-4.182.366-5.053.436-1.119 2.146-4.818 2.842-5.584.318-.353.802-.542 1.179-.978.33-.389.507-1.072.849-1.402h-.024zM43.234 75.966l19.176-.624c2.182-4.347 2.418-8.787 2.194-13.582-.083-1.791-1.309-5.053.92-6.114.708-.342 3.951-.377 3.974-1.307.012-.554-2.96-4.064-3.467-4.193-.425-.106-2.677 1.178-3.043 1.543-.649.636-1.592 3.298-3.019 2.167-.708-.565.613-3.369 1.097-4.029.955-1.307 3.691-3.334 5.378-3.239 2.264.118 5.626 4.194 6.651 6.09 1.91 3.534-1.875 5.937-4.965 6.455.837 5.395.566 10.908-1.38 16.032 1.604.024 4.328-.236 4.812 1.743.094.389.248 1.496.26 1.897.094 3.534.236 7.185.613 10.743.543 5.159 2.088 50.852 2.04 56.129 0 1.178.767 3.227-1.25 3.439-2.146.224-2.111-1.719-2.382-1.778l-30.639.106c-.637 1.272-1.533 1.178-1.993-.165-1.875-8.87-3.668-59.086-4.953-68.062.118-4.806 4.67-1.873 7.619-2.886.943-.966-3.302-8.788-3.939-10.236-1.415-3.204-4.163-9.129-4.623-12.416-.212-1.508-.142-2.933 1.38-3.605.719-.318 4.411-1.779 4.989-1.873a4.68 4.68 0 0 1 1.981.082c.967.259 1.144.978 1.993 1.237.248-.283-.531-5.501-.59-6.361-.094-1.531.024-3.157 0-4.7-.024-1.885-.873-4.358 1.71-5.124.896-.271 4.269.071 5.189.389.401.141.672.294.944.624.802 1.001.767 4.571 1.002 6.055.153.966.507 1.885.566 2.862 1.026-1.378 1.462-3.228 2.394-4.759.377-.636 2.253-3.275 2.724-3.546 1.085-.624 2.559-.106 2.689 1.202.106 1.084-2.3 3.44-2.937 4.618-1.144 2.156-1.745 4.052-3.066 6.337-.401.683-.602 1.979-1.333 2.391-1.085.612-2.571.141-3.066-1.001-.271-.636-.082-1.296-.2-1.955-.578-3.11-1.686-6.137-1.722-9.341l-1.356-.2v7.939c0 .789.236 1.614.212 2.544-.047 2.097-.908 4.782-.79 6.832.035.565.79 1.378.778 2.061 1.781-.459 3.856-.66 5.614-.035 1.533.542 5.59 3.663 6.25 5.112 1.286 2.827-2.028 4.5-2.948 2.544-.141-.306-.071-.66-.212-.966-.248-.518-3.786-3.086-4.399-3.239-2.229-.589-4.446 1.213-6.545-.318-1.12-.813-1.238-1.944-1.863-3.039-.778-1.366-1.781-2.603-2.205-4.158l-3.102.978c-.2.224 1.309 5.065 1.557 5.772.908 2.65 5.295 12.192 5.295 14.088v2.839h-.012zm22.49 18.246c-2.347.365-5.39 4.7-6.899 6.432-.601.695-3.019 2.403-2.264 3.227.625.672 1.333-.082 1.863-.494 1.804-1.426 3.349-3.64 5-5.183.743-.695 3.408-2.085 3.479-2.768s-.495-1.319-1.179-1.213zm2.146 5.277c-.271.071-3.833 3.663-4.033 4.016-.531.954.519 1.791 1.533 1.131.366-.235 3.349-3.216 3.514-3.534.472-.883-.118-1.861-1.014-1.613z" fill="#020202"/><path d="M65.724 94.212c.672-.106 1.25.565 1.179 1.213-.071.683-2.736 2.073-3.479 2.768-1.663 1.543-3.196 3.757-5 5.183-.531.424-1.238 1.166-1.863.494-.767-.824 1.651-2.532 2.264-3.227 1.51-1.732 4.552-6.067 6.899-6.432zm2.146 5.278c.885-.247 1.474.73 1.014 1.613-.165.318-3.149 3.31-3.514 3.534-1.014.648-2.064-.177-1.533-1.131.201-.353 3.762-3.946 4.033-4.016z" fill="#21cc65"/><path d="M135.246 55.152c1.674 4.641 3.785 8.552 5.035 10.672 1.274 2.179 1.993 3.263 2.677 5.242.885 2.556 1.085 4.83 1.121 6.361a51.49 51.49 0 0 0 7.147.554c5.873.059 10.79.118 13.173-2.898 1.014-1.284.283-1.496 1.674-5.242 1.191-3.216 2.713-5.701 4.47-8.587 2.406-3.946 3.373-4.818 3.125-6.585-.2-1.449-1.155-3.051-2.677-3.793-.295-.141-1.851-.895-3.019-.224-.932.542-.708 1.461-1.781 3.569-.778 1.531-1.403 2.733-2.453 2.898-1.214.188-2.618-1.037-3.019-2.344-.318-1.037.224-1.402.448-3.122.331-2.533-.684-2.886-.672-6.137.012-2.297.436-3.016-.106-3.451-1.038-.836-3.055 1.366-5.484.448-.79-.294-1.12-.73-2.028-.742-.566 0-1.168.247-2.324.742-1.073.459-1.981.931-2.052.966-1.356.707-1.45.895-2.04 1.001-.896.165-1.061-.177-1.899-.035-.908.153-1.509.718-2.134 1.284-1.38 1.272-1.156 1.967-2.135 2.474-.943.483-1.309-.071-2.524.294-1.321.401-2.417 1.508-2.877 2.674-.519 1.355-.118 2.662.365 3.981h-.011z" fill="#fcfcfc"/><path d="M147.252 42.536c.884-.259 1.769.047 2.193.86.566 1.107-.106 1.991-.177 3.098-.212 3.181.72 7.068-.236 10.142-.283.907-1.356.93-1.674 0-.696-2.073-1.569-8.929-1.415-11.108.07-.907.283-2.686 1.309-2.992zm-7.253 3.522c2.288-.507 1.993 1.708 2.229 2.968l1.05 5.018c.294 1.202 1.556 4.123 1.132 5.042-.26.542-.885.73-1.427.554-.602-.188-1.427-2.12-1.734-2.792-.825-1.814-2.913-7.798-2.571-9.565.094-.471.849-1.131 1.309-1.237l.012.012zm23.197 9.541c.083.083.92.059 1.073-.188 1.628-2.957 2.123-9.435 7.065-6.667 2.417 1.355 4.387 3.18 3.998 6.161-.437 3.251-3.833 8.34-5.178 11.473-.448 1.048-.719 2.285-1.132 3.369-.342.895-1.415 2.839-1.521 3.569-.059.4.035.259.295.294 1.733.247 2.877-.66 4.682.224 2.394 1.166 1.875 4.146 1.898 6.349.036 4.488-.707 8.964-.601 13.511.082 3.593.283 48.06-.071 51.653-.141 1.425-1.144 2.756-2.701 2.097-.955-.413-.33-1.261-1.509-1.237-3.444.094-6.958.577-10.39.789l-17.832.978c-.377.023-1.733.129-1.946.176-.129.036-.106.519-.448.801 0 0-.259.201-.566.201-.448 0-1.002-9.659-1.604-43.832.106-5.406-.507-9.624-1.144-12.604-.625-2.945-.424-6.161-.389-10.389 0-1.06.283-2.474 1.321-2.992l6.333-2.12c-.554-4.641-2.889-8.434-4.941-12.486l-3.727-7.244c-.566-1.06-1.227-1.131-1.156-2.591.083-1.496 1.356-2.203 2.772-1.767.672.212 1.615 1.861 1.981 2.521 1.356 2.427 2.5 5.018 3.656 7.515 1.981 4.288 4.316 8.705 4.151 13.57.13.13 3.196-.177 3.585-.247 1.18-.212 2.406-.883 3.515-1.19 3.467-.954 6.899-1.814 10.519-1.92l3.055-8.399c1.981-3.522 3.691-7.15 5.165-10.92.165-.53-1.674-1.826-1.934-1.614-.707 1.685-1.509 4.641-2.83 5.878s-2.217.507-3.644.872c-1.191.306-3.302 2.368-4.104 3.334-.59.707-2.182 3.64-2.442 3.828-.601.436-1.627.153-1.839-.542-.307-1.025 1.686-4.241 2.347-5.206.377-.554 2.677-3.133 2.688-3.345.036-.636-.519-2.262-.577-3.145-.107-1.449.224-2.803.224-4.123 0-1.967-.673-4.135-.413-6.172-1.793-.377-1.71.86-1.934 2.273-.472 2.968-.354 6.926-1.25 9.706-.236.742-1.203 1.119-1.534.624-.094-.141-.53-1.849-.566-2.132-.342-3.11.201-6.479.39-9.6.094-1.567-.578-3.546 1.368-4.123 1.332-.389 4.575-.931 5.837-.518 2.253.73 1.404 3.451 1.404 5.042 0 .848.377 2.073.413 2.945.035 1.048-.142 7.197.2 7.527l-.012.035zm-2.5 29.048a1.085 1.085 0 1 0-2.17 0 1.085 1.085 0 1 0 2.17 0zm-8.739 5.654c-1.262.883-.035 1.355.967 1.508 2.359.353 4.859.141 7.241.212.661.023 1.699.612 1.864-.294.165-.954-.791-1.06-1.498-1.249l-8.562-.177h-.012zm-3.314 7.456c-.778.082-2.972.306-2.63 1.519s1.757.424 2.571.389c3.432-.177 6.192.801 9.411.978 1.616.082 3.963-.412 1.758-1.944-3.668-.082-7.454-1.307-11.11-.931v-.012z" fill="#020202"/><path d="M148.644 97.758c3.655-.377 7.441.836 11.109.931 2.205 1.532-.142 2.026-1.757 1.944-3.22-.165-5.968-1.143-9.411-.978-.814.035-2.229.848-2.571-.389s1.839-1.437 2.63-1.52v.012zm3.313-7.456l8.562.177c.708.189 1.663.294 1.498 1.249s-1.203.306-1.863.294c-2.383-.071-4.871.141-7.242-.212-1.002-.153-2.229-.624-.967-1.508h.012zm7.654-4.571c.6 0 1.085-.485 1.085-1.084s-.485-1.084-1.085-1.084-1.085.485-1.085 1.084.486 1.084 1.085 1.084z" fill="#21cc65"/><path d="M190.238 64.811l-2.383-4.57c-2.677-5.56-4.363-9.329-4.292-15.69.023-1.92 1.521-3.746.412-5.772 2.371-.012 5.378-.2 7.584-1.143.778-.33 1.922-.872 1.155-1.814-.637-.777-.896-.377-1.391-.377h-5.189v-4.606c0-1.331 2.193-4.464 2.37-6.043.401-.247 2.264-1.72 2.524-1.484-.425 1.131.094 2.285.189 3.428.176 2.014.2 3.958.672 5.984.554 2.344 2.665 2.474 4.717 2.332 1.003-.071 2.925-.153 2.842-1.449-.118-1.814-3.266-.613-4.316-1.614.2-1.225-.46-2.332-.578-3.498-.094-.989-.318-4.029-.189-4.877.048-.294 1.274-2.544 1.404-2.615.79-.448 1.427.766 1.769 1.39 1.663 3.063 1.651 5.666 2.759 8.599.059.165.696 1.437.767 1.484.885.53 1.51-.401 1.51-1.237 0-.377-.307-.777-.354-1.19-.507-4.947-1.734-7.48-2.854-12.027-.755-3.039-2.052-9.058-2.076-12.05 0-1.414 2.63-1.461 3.739-1.861.035 1.308.92 2.332 1.379 3.416 2.866 6.832 3.491 14.324 5.095 21.533l-1.215 6.926c-3.585 1.119-7.335 4.476-8.113 8.246-.224 1.072-.531 3.557-.437 4.559.083.931 1.121 1.72 1.911 1.013.436-.401.884-4.146 1.368-5.289.684-1.59 3.019-3.711 4.576-4.429 1.061-.495 3.632-.848 4.222-1.849.519-.86.295-1.838.436-2.697.578-3.322 1.309-6.502 2.335-9.718.319-.271 1.769 1.166 2.17 1.449.507.365 1.427.424 1.345 1.166-.437 2.026-.802 4.076-1.133 6.125-.578 3.546-1.132 6.879-1.934 10.401-1.038 4.582-2.712 8.952-2.606 13.735-5.189.813-11.381 1.92-16.204 4.076-1.368.612-2.559 1.414-3.986 1.991v.047z" fill="#fcfcfc"/><path d="M213.954 57.955l4.458-1.319c2.076-.636 6.321-3.039 7.017.53.601 3.098-.059 8.269.083 11.673.318 7.586 1.651 15.101 1.58 22.711l-.378 51.076c-.023 1.79 1.085 5.984-1.533 6.49-.967.189-1.863-.271-2.311-1.13-.248-.483-.26-1.52-.779-1.579l-32.148 1.59c-.708.047-1.958-.153-2.524-.023-.259.059-.153 1.048-1.014.977-.625-.047-1.345-1.967-1.639-3.828-1.074-6.702-.909-38.766-2.005-51.629-.413-4.771-1.097-10.036-1.097-10.036-.72-5.407-1.51-9.93-2.135-13.228.071-.801.331-1.602.92-2.167 1.062-1.013 5.567-1.944 7.23-2.462.86-.271 1.698-.436 2.547-.777 1.427-.577 2.618-1.378 3.986-1.991 4.823-2.156 11.015-3.263 16.204-4.076 1.333-.212 2.253-.436 3.526-.777l.012-.024zm-1.368 30.898c0-.542-.448-.989-.991-.989s-.99.448-.99.989.448.99.99.99.991-.448.991-.99zm-7.996 1.143a1.46 1.46 0 0 0-1.462-1.461c-.814 0-1.463.648-1.463 1.461s.649 1.461 1.463 1.461 1.462-.648 1.462-1.461zm11.463-.094c-.625.118-2.217 1.991-2.111 2.603.272 1.708 2.76-.66 3.043-1.272.354-.766-.094-1.508-.932-1.343v.012zm-16.263 4.111c-1.002.177-2.193 2.262-.99 2.686 1.804.624 3.408-3.11.99-2.686zm7.831 1.955c-.932.141-3.597 3.051-1.568 3.652 1.238.365 3.16-1.496 3.007-2.591-.071-.518-.896-1.143-1.427-1.06h-.012z" fill="#21cc65"/><path d="M207.621 95.967c.53-.082 1.356.542 1.427 1.06.153 1.096-1.769 2.957-3.008 2.591-2.028-.601.637-3.498 1.569-3.652h.012zm-4.494-4.511a1.461 1.461 0 1 0 0-2.921 1.461 1.461 0 1 0 0 2.921zm12.926-1.555c.838-.165 1.286.577.932 1.343-.283.612-2.771 2.968-3.043 1.272-.094-.613 1.498-2.485 2.111-2.603v-.012zm-16.263 4.111c2.418-.436.814 3.31-.99 2.686-1.203-.412 0-2.497.99-2.686zm11.805-4.17a.99.99 0 1 0-.991-.99.99.99 0 0 0 .991.99zm-23.904-24.254c-2.265-2.627-3.998-5.984-5.461-9.129-1.191-2.568-2.146-4.936-2.382-7.81-.047-.613.142-3.687 0-3.817-.035-.035-.755.012-1.038-.047-1.285-.294-1.828-1.567-2.689-2.403-.979-.966-2.594-1.873-2.901-3.369-.436-2.12 1.58-4.841 2.477-6.632s1.58-4.276 3.455-5.56c.224-.153 2.854-1.072 3.184-1.131.531-.082 1.71.059 1.97-.094.236-.141 1.167-2.815 1.958-3.487.188-.165 3.325-1.873 3.514-1.908 1.05-.224 1.958.353 2.087.33.331-.059 1.51-2.497 3.008-2.874.342-.082.696-.047 1.038-.047-.366-2.933-1.298-5.819-1.746-8.74-.118-.801-.413-2.603-.424-3.31-.024-1.944.978-2.98 2.606-3.852.66-.353 3.727-1.484 4.434-1.637 3.939-.825 3.338 3.923 5.119 6.078 2.134 5.042 2.948 10.401 3.915 15.761.731-.118 1.321-.707 2.076-.777 2.004-.189 3.538 1.932 5.035 2.768 2.017 1.143 4.116.648 3.644 3.958-.082.589-.436 1.048-.554 1.59-.884 3.993-1.238 8.057-2.028 12.062-.932 4.641-2.666 9.141-3.491 13.747-.165.895-.378 1.779-.566 2.662-1.274.353-2.194.577-3.526.778-.107-4.794 1.568-9.165 2.606-13.735.802-3.522 1.356-6.856 1.934-10.401.33-2.05.696-4.099 1.132-6.125.071-.73-.837-.801-1.344-1.166-.401-.283-1.852-1.72-2.17-1.449-1.014 3.204-1.757 6.396-2.335 9.718-.154.86.07 1.838-.437 2.697-.601 1.001-3.16 1.355-4.222 1.849-1.556.73-3.891 2.839-4.575 4.429-.484 1.143-.932 4.888-1.369 5.289-.79.707-1.827-.082-1.91-1.013-.094-1.013.224-3.487.436-4.559.779-3.781 4.529-7.127 8.114-8.246l1.215-6.926c-1.604-7.197-2.229-14.689-5.095-21.533-.46-1.095-1.344-2.12-1.38-3.416-1.108.401-3.75.436-3.738 1.861.012 2.98 1.321 9 2.075 12.05 1.121 4.547 2.359 7.079 2.854 12.027.048.412.354.813.354 1.19 0 .836-.637 1.779-1.509 1.237-.071-.047-.708-1.331-.767-1.484-1.097-2.945-1.085-5.536-2.76-8.599-.342-.624-.967-1.838-1.769-1.39-.129.071-1.356 2.309-1.403 2.615-.13.848.083 3.887.189 4.877.118 1.166.778 2.273.578 3.499 1.049.989 4.198-.2 4.316 1.614.083 1.296-1.84 1.378-2.842 1.449-2.04.141-4.163.012-4.718-2.332-.471-2.014-.495-3.97-.672-5.984-.106-1.143-.625-2.297-.188-3.428-.272-.236-2.123 1.249-2.524 1.484-.177 1.579-2.371 4.712-2.371 6.043v4.606h5.189c.496 0 .743-.401 1.392.377.767.942-.377 1.472-1.156 1.814-2.205.942-5.212 1.131-7.583 1.143 1.12 2.038-.389 3.864-.413 5.772-.07 6.361 1.628 10.13 4.293 15.69.743 1.555 1.616 3.027 2.382 4.57-.849.342-1.686.518-2.547.777h.024zm-5.095-35.821c-2.276.247-2.677 2.921-3.491 4.629-.401.836-2.205 3.228-1.616 4.088.295.424 1.345.907 1.71 1.449 1.203-.813 1.876-2.085 3.597-1.743-.047-.483-.33-.73-.401-1.26-.188-1.614-.07-4.382 0-6.09.012-.377.166-.695.201-1.06v-.012z" fill="#020202"/><path d="M182.596 29.767c-.047.365-.189.683-.201 1.06v6.09c.059.542.342.778.401 1.26-1.721-.33-2.394.942-3.597 1.743-.365-.53-1.415-1.013-1.71-1.449-.589-.86 1.215-3.251 1.616-4.087.814-1.708 1.227-4.394 3.491-4.629v.012z" fill="#fcfcfc"/><path d="M28.563 151.72c-2.618-2.309-.979-1.049-10.402-10.178C3.019 126.888-.802 124.002.129 121.222s5.956-3.522 15.119-4.876c8.987-1.331 10.083.035 15.685-1.638 8.444-2.509 9.27-6.584 13.598-5.901 4.387.683 4.623 5.042 13.067 13.593 5.378 5.454 8.067 8.187 11.18 8.293 8.279.283 11.628-14.383 18.799-13.794 4.517.377 4.647 6.326 12.642 13.229 8.22 7.103 18.988 10.236 21.17 7.633 1.828-2.191-3.102-7.586-1.003-10.095 1.557-1.873 5.401-.177 10.826.754 14.542 2.462 23.446-3.546 26.252.577 1.899 2.803-1.509 6.585.295 8.175 2.548 2.25 11.711-3.251 17.478-7.939 5.378-4.382 5.873-6.467 11.581-10.213 5.024-3.287 7.795-5.113 11.039-4.582 7.076 1.13 8.102 11.979 13.196 11.991 5.083.012 6.428-10.719 13.858-12.003 1.792-.307 4.115.636 8.703 2.556 15.614 6.502 19.082 8.057 24.554 11.202 9.045 5.195 10.118 7.032 10.036 8.576-.118 2.297-2.76 3.286-6.97 8.822-2.948 3.888-3.42 4.312-3.349 5.054.247 2.721 4.623 3.286 11.486 7.692 5.107 3.275 8.173 5.242 8.786 8.363.578 2.945-1.261 5.784-7.76 12.722-8.491 9.07-9.588 8.199-16.215 15.679-5.52 6.231-7.383 10.059-11.098 9.918-3.302-.118-6.911-3.322-7.406-3.758-2.571-2.309-2.571-3.84-4.222-4.405-3.055-1.06-6.817 2.839-9.659 5.43-5.342 4.877-12.206 7.81-18.103 11.992-15.013 10.625-18.775 7.279-28.174 15.678-4.588 4.099-5.165 5.913-9.635 8.564-1.734 1.036-8.02 4.547-19.4 4.876-6.77.201-10.213-.883-35.864-8.033-15.142-4.217-15.319-4.241-16.64-4.912-14.081-7.256-17.843-18.765-25.403-17.516-3.821.624-3.538 3.687-10.496 6.49-2.017.813-6.911 2.721-12.666 2.05-7.253-.848-11.84-5.325-17.796-11.132-6.935-6.761-10.873-10.601-10.001-14.524 1.05-4.735 7.961-4.394 20.367-12.392 7.949-5.124 12.784-8.234 12.784-12.368 0-5.219-7.748-6.526-22.23-19.33h.023z" fill="#fff"/><path d="M160.778 127.607c.413.836-.224 1.673-.212 5.371 0 .778.024 1.591.531 1.897.401.236 1.026.047 1.922-.342 11.475-4.994 14.046-8.434 14.046-8.434 3.927-3.051 2.194-1.425 9.741-7.067l9.966-7.645a42.49 42.49 0 0 1 7.748 6.926c3.102 3.557 3.396 5.101 5.189 5.43.814.153 2.665.201 11.958-8.61 3.479-3.299 4.671-4.677 6.699-4.653 1.722.011 2.288 1.013 6.439 4.158 2.89 2.191 5.72 4.311 9.435 6.09 1.875.895 3.774 1.873 6.533 2.556 2.383.601 4.73 1.284 6.911 2.45 1.392.754 2.43 1.779 2.772 3.381.2.93-.154 1.684-.873 2.238-.672.518-1.557.53-2.111-.024-2.595-2.591-6.109-2.721-9.34-3.581-1.923-.518-3.951-.848-5.531-2.049-4.824-3.64-10.921-5.195-15.226-9.695-3.49 5.654-8.29 9.671-13.397 13.405 6.852 6.856 13.562 13.747 21.794 18.871.083.047.142.13.224.177 4.942 3.074 5.201 4.299.295 7.833-6.97 5.006-14.293 9.506-21.476 14.23-3.313 2.179-3.125 2.026-.566 5.065 2.831 3.345 5.897 6.231 9.624 8.611 3.172 2.002 6.38 3.51 10.059 4.252 1.876.377 4.234.636 4.659 3.027.401 2.274-1.179 3.829-2.831 5.207-.625.53-1.58.695-1.922 1.708 2.689 1.684 5.909 2.391 8.432 4.405.496.401.956.26 1.486-.2.696-.601 1.758-.86 2.347-1.543 4.588-5.277 10.154-9.541 14.942-14.63 4.647-4.947 9.27-9.883 13.268-15.396 1.557-2.144 1.344-4.076-.637-5.795-4.422-3.864-9.199-7.209-14.199-10.26-3.479-2.132-5.897-5.23-8.055-8.611-1.038-1.626-2.135-2.898-3.845-.507-.79 1.096-2.394 1.508-2.689 3.134-.117.671-.695 1.178-1.474.966-.707-.201-1.096-.801-1.049-1.508.035-.636.082-1.425.448-1.873 1.639-2.05 3.278-4.111 5.142-5.949 1.049-1.025 2.476-.612 3.691.13 1.144.707 2.123 1.625 2.83 2.733 2.913 4.605 7.076 7.774 11.747 10.389 4.564 2.545 8.349 6.149 12.394 9.388 2.595 2.074 3.244 5.395 1.133 8.117-3.739 4.817-6.982 9.989-11.405 14.37-5.295 5.254-11.286 9.719-16.333 15.22-1.604 1.743-3.574 3.015-5.921 4.169-.66.554-1.733 1.261-3.078 1.296-1.792.047-1.957-1.154-5.696-3.18-1.674-.907-4.953-2.462-5.448-3.44-.036-.071-.177-.365-.449-.436-.306-.082-.648.201-.919.377-1.192.766-2.406 1.508-3.491 2.415-3.857 3.228-7.973 6.078-12.537 8.199-6.321 2.921-10.92 8.021-15.968 12.533-5.271 4.712-10.85 8.634-17.796 10.672-4.175 1.225-8.043 3.416-11.888 5.572-5.094 2.85-10.932 3.475-16.616 4.346-9.777 1.496-19.188-.612-28.552-3.003-1.002-.259-2.029-.483-3.007-.801-.649-.212-1.71-.177-1.368-1.331.259-.872 1.049-.636 1.674-.448 2.748.766 5.567 1.037 8.362 1.472 11.699 1.85 23.162.707 34.448-2.674 3.526-1.06 4.883-2.721 4.588-6.337-.614-7.633-2.512-15.007-5.248-22.145-.437-1.143-1.074-2.215-1.463-3.369-1.521-4.476-1.521-4.524-5.944-3.617-6.321 1.284-12.63.236-18.94 0l-7.111-.282c1.144 2.155 3.125 2.909 4.658 4.134 3.585 2.886 3.574 4.111.012 6.903-9.305 7.268-18.692 14.43-26.995 22.876-1.781 1.814-3.797 2.379-6.191 1.531-1.062-.377-2.17-.683-3.161-1.213-7.76-4.17-16.522-4.841-24.837-7.032-4.552-1.202-9.199-2.074-13.751-3.299-2.559-.683-4.564-.483-6.144 1.873-.613.931-1.486 1.732-2.382 2.403-1.132.848-2.453 1.296-3.444-.176-.955-1.402-.035-2.25 1.12-2.945.307-.189.554-.46.755-.625 0-.647-.366-.777-.755-.742-4.824.413-8.468-1.92-11.982-4.829-3.267-2.71-6.71-5.207-10.131-7.739-4.918-3.652-7.996-8.753-10.968-13.9-1.474-2.533-.79-5.112 2.241-6.667 4.434-2.274 8.538-5.195 13.326-6.785 7.041-2.344 12.065-7.575 17.431-12.31 1.085-.954.708-1.637-.212-2.485-2.241-2.026-4.458-4.076-7.041-5.69-1.557-.978-2.842-2.203-3.231-4.111-.236-1.178.236-2.05 1.309-2.532 1.191-.531 2.17-.024 2.5 1.071.413 1.355 1.498 1.85 2.465 2.568 1.509 1.131 3.078 2.203 4.458 3.487l15.886 14.878c1.439 1.378 2.429 1.99 4.139.306 2.748-2.709 6.25-4.182 9.965-5.089 5.85-1.437 10.531-4.488 14.848-8.776 6.498-6.443 13.68-12.203 20.52-18.305 1.97-1.755 3.75-3.722 5.59-5.63.425-.448.72-.801.672-1.143-.07-.53-.778-.848-1.12-.99-1.887-.789-2.83-1.189-5.543-1.472-1.132-.118-3.738-1.437-8.927-4.087-3.232-1.638-4.906-2.392-5.213-2.722-3.644-3.828-8.043-6.891-11.298-11.096-.778-1.001-1.168-1.072-2.099-.106-9.647 9.942-20.803 18.105-31.818 26.398-3.055 2.297-6.593 3.958-9.765 6.196-1.804 1.272-4.045 1.531-6.262 1.19-.542-.083-1.168-.212-1.309-.884-.13-.624.094-1.154.778-1.284 5.708-1.013 8.645-6.137 13.044-9.082 5.036-3.369 9.34-7.915 14.6-11.697-8.291-3.439-11.958-11.226-17.619-17.009-1.71-1.744-2.748-3.063-5.932-1.343-5.59 3.039-11.852 4.829-18.209 5.901-2.878.483-4.93-1.001-4.682-3.345.165-1.59 1.191-3.098 2.724-2.485 3.196 1.272 5.991-.212 8.68-1.061 3.986-1.248 8.173-2.202 11.64-4.9 1.757-1.366 3.762-.766 5.519.483 2.335 1.673 4.092 3.899 6.18 6.337 8.078 11.745 13.114 13.853 16.322 13.135 2.571-.566 2.996-2.733 11.416-8.965 3.562-2.626 6.333-4.358 8.774-3.545.684.224 2.264.966 3.609 2.426.613.66.389 1.155 1.392 1.968 3.762 3.074 3.397 4.594 7.618 7.562 1.557 1.095 2.736 1.684 5.107 2.874 3.431 1.72 6.109 2.662 11.475 4.995 5.012 2.167 1.332.765 3.538 1.731 1.085.471 1.568.625 1.993 1.166.625.801.707 1.885.613 3.134-.142 1.708-1.05 3.027-2.17 4.17-2.642 2.697-5.39 5.277-8.055 7.951-.554.553-1.521.813-1.356 1.943.554 3.805-.661 7.445-1.203 11.132-1.604 10.967-.012 21.71 1.922 32.57 2.359-1.036 4.541-1.508 6.793-1.861 8.397-1.296 16.794-.471 25.167.071 5.402.341 10.473-1.025 15.674-1.92 1.096-.189 1.497-.601 1.132-1.92l-5.39-20.449c-2.359-8.859-4.151-17.764-3.349-27.034.389-4.453.401-8.941.589-13.476-2.016.436-3.856.848-5.766.671l-25.356-2.462c-1.191-.117-1.734-.2-1.651 1.237.118 1.991-1.073 2.651-2.901 2.462-2.536-1.673-1.64-4.205-1.51-6.455.083-1.496.413-2.462 1.097-2.933 1.002-.719 2.441-.283 3.196-.059 3.255.919 6.734.813 10.083 1.319 2.736.413 3.232.259 4.871.295 1.663.035 2.807.177 3.644.283 2.807.329 7.371.447 12.359.565 5.119.13 6.864.047 7.407 1.154l-.024-.023.035-.012zM58.86 198.131c.79 1.437 1.863 2.356 2.96 3.227 3.951 3.11 7.63 6.526 10.767 10.425 7.524 9.318 17.938 14.159 28.504 18.812 1.345.589 2.265.554 3.42-.683 2.819-3.051 6.145-5.537 9.447-8.081a520.52 520.52 0 0 1 18.114-13.311c-2.052-1.672-4.009-3.121-5.802-4.747-3.184-2.909-6.345-2.591-9.836-.495-3.384 2.026-5.861.648-6.38-3.274l-1.203-9.542c-.094-.789-.165-1.472-1.002-1.814-2.548-1.036-4.375-3.015-5.968-5.1-2.795-3.675-6.745-5.914-10.236-8.729-.755-.612-1.109-.235-1.639.13-2.996 2.061-6.416 3.157-9.871 4.111-3.42.942-6.451 2.485-9.175 4.829-3.161 2.733-5.543 2.686-8.409-.33A94.54 94.54 0 0 0 51.76 173.9c-5.012 5.855-10.13 11.686-17.383 14.666-4.493 1.849-8.267 4.912-12.784 6.584-.814.307-1.545.707-.731 1.85 2.182 3.063 3.679 6.62 6.604 9.141l14.824 12.733c1.934 1.638 4.234 2.297 6.616 1.39 4.399-1.661 8.751-3.51 11.027-8.092.295-.589.59-1.261 1.085-1.638 1.793-1.389 1.061-2.344-.342-3.416-2.323-1.778-4.588-3.675-6.097-6.254-1.569-2.686-.755-5.549 2.076-6.126 2.736-.553 4.753-2.132 7.041-3.392 1.651-.907 3.385-1.661 5.106-2.427.861-.389 1.946-.836 2.394.424.389 1.096-.637 1.39-1.451 1.661-2.37.836-4.222 2.474-6.109 4.04-1.439 1.19-2.795 2.474-4.764 3.087h-.012zm101.329-57.19c.094 1.803-.625 3.687.92 4.229 2.535.895 3.29 3.028 4.186 4.995 1.203 2.638 2.724 4.971 4.894 6.832 4.222 3.616 8.173 7.727 12.867 10.601 9.222 5.654 16.534 7.245 25.391.825 6.793-4.924 13.999-9.259 21.039-13.841 3.232-2.097 3.255-2.132-.047-4.406-2.63-1.802-5.72-2.98-7.878-5.442-3.231-3.71-6.899-6.973-10.472-10.33-4.682-4.382-9.553-8.635-12.749-14.312-1.238-2.215-2.394-2.015-4.175-.719l-15.26 10.755c-4.918 3.381-10.131 6.219-15.933 7.774-1.946.519-3.279 1.178-2.795 3.028l.012.011zm71.007 52.148c-4.398-.636-7.418-3.039-10.696-4.994-4.069-2.415-7.265-5.655-10.072-9.353-1.887-2.486-3.656-3.251-7.123-1.909-7.89 3.063-14.895-.801-21.593-4.511-1.604-.895-2.807-1.013-3.963.047-3.137 2.886-6.97 4.476-10.826 5.984-1.298.506-1.38 1.06-1.026 2.273 1.191 4.159 2.134 8.387 3.408 12.522.802 2.627.354 4.405-2.347 5.383-.672.248-1.592.377-1.203 1.496.495 1.414.873 2.898 1.522 4.229 3.16 6.42 8.102 11.509 12.748 16.821 1.333 1.52 2.182 1.414 3.632.365 7.218-5.206 15.426-8.752 23.245-12.792 8.515-4.394 15.827-10.296 24.294-15.549v-.012zM77.894 137.172l1.321 1.19 5.047 5.348c1.769 1.943 3.149 4.228 5.519 5.607.79.471 1.474 1.566.767 2.414-.967 1.167-1.403-.176-2.123-.695-4.47-3.157-6.993-8.104-10.956-11.72-.401-.365-.861-.848-.472-1.461.165-.271.542-.424.908-.695l-.012.012zm7.643-5.619l4.883 4.029 8.432 7.009c.472.4 1.109.895.578 1.637-.519.718-1.191.436-1.71-.012-4.139-3.522-8.479-6.832-11.841-11.179-.13-.176-.118-.471-.33-1.496l-.012.012zm-55.641-1.508c2.217-3.486 5.213-6.231 8.574-8.622.495-.354 1.026-.519 1.427.129.271.448.236.943-.153 1.272l-9.281 7.846-.566-.648v.023zm12.666.837c-.153.2-.366.636-.696.93l-5.26 4.653c-.625.554-1.321.848-1.934.071-.554-.695.047-1.225.495-1.673l5.048-4.877c.483-.459 1.038-.824 1.757-.483.483.236.637.648.59 1.379zm203.258 42.83c.92.235 1.828.883 1.356 1.908-.814 1.779-2.005 3.428-3.644 4.547-.743.507-1.675.106-2.005-.895-.377-1.155 2.925-5.537 4.293-5.572v.012zm-179.117-10.79c-1.498-.059-3.208.059-3.125-1.767.083-1.814 1.793-1.578 3.102-1.484 1.274.082 3.007-.177 2.913 1.767-.094 1.967-1.828 1.413-2.889 1.484zm175.178 7.892c-.955 1.213-2.241 2.438-3.998 2.827-.731.165-1.522-.73-1.121-1.508.838-1.613 2.312-2.626 4.105-2.944.66-.118 1.143.53 1.002 1.613l.012.012zm-5.023-43.784c-.578 1.331-1.781 1.814-3.114 1.967-.837.106-1.627-.318-1.415-1.26.389-1.697 2.111-1.614 3.349-2.027.602-.2 1.156.472 1.18 1.32zm.954 8.728c1.026 0 1.58.601 1.639 1.544.059 1.119-.648 1.79-1.71 1.743-.919-.035-1.533-.707-1.486-1.685.048-.954.555-1.543 1.569-1.59l-.012-.012zM70.69 149.116c.873-.224 1.439-.165 1.804.354.908 1.295 3.456 2.356 2.441 3.734-.649.883-1.639-1.85-2.772-2.639-.519-.365-.92-.895-1.462-1.449h-.012zm5.872 50.546c-.436.024-.908-.035-1.073-.589-.142-.483-.035-.978.483-1.178 4.505-1.708 8.02-4.888 11.746-7.774.543-.413 1.238-.495 1.793.094.483.506.425 1.072-.035 1.508-3.691 3.604-7.89 6.408-12.926 7.951l.012-.012zm19.093-4.229c-.248 1.013-.92 1.661-1.675 2.226l-9.057 6.703c-.649.483-1.415 1.308-2.182.401-.613-.731.142-1.379.672-1.885 3.137-2.98 6.286-5.937 10.142-8.01.814-.436 1.781-.978 2.099.553v.012zm-57.539.33c.531.012.66.353.802.707 1.262 3.192 3.998 4.853 6.758 6.467.932.553 2.099 1.095 1.462 2.273-.837 1.532-1.793.106-2.524-.353-2.724-1.72-5.201-3.734-6.722-6.667-.413-.813-.825-1.744.212-2.427h.012zm6.297-.825c1.333.036 5.059 5.019 4.623 6.055-.401.954-1.297 1.296-1.899.271-.955-1.614-2.158-3.027-3.243-4.535-.566-.778-.472-1.578.519-1.791zm48.295 13.947c-.13-.07-.554-.188-.554-.318 0-.33.083-.765.307-.977l4.481-4.229c.26-.248.625-.436 1.002-.165.342.235.46.53.342.954-.224.813-4.682 4.7-5.578 4.724v.011zm32.301-53.691c.259-.176.554-.541.837-.541l11.888.011c.778.012 1.922 0 1.922 1.178 0 1.284-1.167 1.037-1.934 1.002l-11.027-.66c-.66-.035-1.321-.13-1.686-.99zm5.696 9.766c1.592.047 3.196.306 4.776-.201.625-.2 1.357-.306 1.663.554.283.825-.247 1.296-.896 1.472-2.984.825-5.991.448-8.975 0-.448-.07-.884-.447-.825-1.001.071-.648.519-.954 1.167-.942l3.114.118h-.024zm-4.74-16.386c3.679-.329 7.359-.577 10.979-1.295.496-.095 1.026-.012 1.156.518.177.777-.483.883-1.038.942-3.691.377-7.394.636-11.085-.176l-.012.011zm9.434 34.88c-.094.789-.613 1.342-1.462 1.319-.861-.024-1.392-.672-1.38-1.484 0-.837.566-1.379 1.474-1.355s1.344.554 1.38 1.52h-.012zm59.026-38.92c-.106.236-.153.589-.342.73l-7.501 5.395c-.46.318-1.096.095-1.497-.4s-.508-1.19-.107-1.555c2.418-2.191 4.918-4.323 7.996-5.525.838-.329 1.286.53 1.451 1.355zm-.849-11.32c-.248.271-.484.695-.837.931l-7.819 4.959c-.684.424-1.439.624-1.934-.224-.39-.671-.048-1.296.53-1.708 2.607-1.802 5.071-3.84 8.055-5.077 1.097-.448 1.816-.353 2.017 1.107l-.012.012zm3.172 70.512c-.177 1.025-.024 2.379-1.427 2.391-1.262.012-1.227-1.237-1.286-2.144l-1.156-16.609c-.059-.883-.448-2.061.932-2.261 1.58-.236 1.51 1.06 1.592 2.073l1.356 16.55h-.011zm-9.493 4.276l-1.486-11.921.86-.129c1.227 3.84 1.486 7.833 1.652 11.85l-1.026.212v-.012zm21.687-15.361c-.189.801-.602 1.496-1.604 1.473-.967-.024-1.533-.589-1.545-1.579-.012-1.024.684-1.554 1.569-1.566.943-.024 1.486.624 1.58 1.661v.011z" fill="#000"/></g><defs><clipPath id="A"><path fill="#fff" d="M0 0h281v244H0z"/></clipPath></defs></svg>