<svg width="25" height="24" viewBox="0 0 25 24" fill="none" xmlns="http://www.w3.org/2000/svg"><path d="M11.6368 13.506L5.48571 9.53927C5.28608 9.41053 5.02641 9.42416 4.84137 9.57308L0.705912 12.901C0.413017 13.1367 0.43679 13.59 0.75276 13.7938L6.90387 17.7604C7.1035 17.8892 7.36318 17.8756 7.54821 17.7266L11.6837 14.3988C11.9766 14.163 11.9528 13.7097 11.6368 13.506Z" fill="#1587EA"/><path d="M13.3162 14.3987L17.4517 17.7266C17.6368 17.8755 17.8964 17.8891 18.096 17.7604L24.2472 13.7937C24.5631 13.5899 24.5869 13.1366 24.294 12.901L20.1585 9.57308C19.9735 9.42416 19.7138 9.41053 19.5142 9.53927L13.3631 13.506C13.0472 13.7097 13.0233 14.163 13.3162 14.3987Z" fill="#1587EA"/><path d="M11.6837 3.98166L7.54821 0.653781C7.36313 0.504865 7.1035 0.491235 6.90387 0.619973L0.75276 4.58666C0.43679 4.79042 0.413017 5.24372 0.705912 5.47941L4.84137 8.80729C5.02646 8.95621 5.28608 8.96984 5.48571 8.8411L11.6368 4.87441C11.9528 4.67065 11.9766 4.21735 11.6837 3.98166Z" fill="#1587EA"/><path d="M24.2472 4.58666L18.0961 0.619973C17.8964 0.491235 17.6368 0.504865 17.4517 0.653781L13.3163 3.98166C13.0234 4.21735 13.0471 4.67065 13.3631 4.87441L19.5143 8.8411C19.7139 8.96984 19.9736 8.95621 20.1586 8.80729L24.2941 5.47941C24.5869 5.24367 24.5631 4.79037 24.2472 4.58666Z" fill="#1587EA"/><path d="M12.1997 14.9827L7.56859 18.677C7.40073 18.8109 7.16617 18.8227 6.98575 18.7063L5.84428 17.9702C5.51151 17.7556 5.07324 17.9945 5.07324 18.3904V18.7884C5.07324 18.9632 5.16458 19.1254 5.31408 19.216L12.2088 23.3956C12.3681 23.4921 12.5679 23.4921 12.7273 23.3956L19.622 19.216C19.7715 19.1254 19.8628 18.9633 19.8628 18.7884V18.4332C19.8628 18.0373 19.4245 17.7984 19.0918 18.013L18.0172 18.7059C17.8365 18.8225 17.6014 18.8104 17.4336 18.6759L12.8243 14.9834C12.6418 14.8373 12.3825 14.837 12.1997 14.9827Z" fill="#1587EA"/></svg>