<svg xmlns="http://www.w3.org/2000/svg" width="72" height="54" fill="none"><g clip-path="url(#A)"><path d="M-.288 45.911L21.857 24.47l4.294 4.131L39.78 14.881l8.644 8.519 12.745-12.813-3.841-3.55H72v13.086l-3.347-2.844-20.274 20.384-6.935-6.969-13.124 12.805-5.059-4.724L7.479 54-.289 45.911h.001z" fill="#2d2d54"/><path d="M0 26.293v-1.57c0-.887 1.16-2.378 1.875-2.871 1.356-.934 2.301-.711 3.792-.723 2.778-.023 5.807-.575 7.167 2.595.132.306.747 2.569.265 2.569H0zm6.099-13.349c3.399-.496 4.779 4.163 1.835 5.601-4.144 2.024-6.115-4.976-1.835-5.601zm28.913 39.171c-.162-2.542 1.328-4.224 3.833-4.401 2.416-.171 5.901-.35 6.878 2.437.102.293.494 1.964.117 1.964H35.012zm5.012-11.076c2.56-.434 3.991 2.907 1.857 4.418-1.632 1.155-3.906-.036-3.845-2.056.032-1.066.941-2.183 1.989-2.361v-.001zm-26.67-25.275c-.104-1.896.982-3.605 2.957-3.754.953-.072 3.769-.115 4.569.159.844.289 1.549 1.039 1.859 1.873.088.239.476 1.721.102 1.721h-9.486zm4.595-9.704c2.415-.264 3.292 3.223 1.064 4.119-3.073 1.235-4.161-3.78-1.064-4.119zM51.896 10h-9.878c-.186-2.077 1.071-3.735 3.167-3.888.993-.072 2.772-.092 3.747.005 1.945.195 3.179 1.974 2.964 3.882V10zM46.357.053c.789-.163 1.664.049 2.212.659 1.728 1.926-.759 4.915-3.008 3.246-1.412-1.047-.883-3.558.796-3.905z" fill="#99b9ff"/></g><defs><clipPath id="A"><path fill="#fff" d="M0 0h72v54H0z"/></clipPath></defs></svg>