<svg xmlns="http://www.w3.org/2000/svg" width="72" height="70" fill="none"><g clip-path="url(#A)"><g fill="#000"><path d="M49.823 15.427c-.214-.279-.168-.598-.018-.699s.373.023.388.031l.912.834.512.465.649.621.98.898.676.541.625.512 1.212 1.045c.139.166.154.387.059.52-.124.173-.452.21-.668-.011l-1.858-1.602-2.544-2.359-.922-.795h-.002z"/><path d="M52.965 17.241l-4.2 7.706-16.42 14.209-.868.738-.376.358-5.273 4.495L9.613 58.846c-.43.661-1.102 1.1-1.675 1.638-.052.048-.172.029-.179.038-.096.134-.073 1.035.2 1.17l6.192 5.487-.339.572-6.303-5.57-.491-.912c-1.011.618-2.255.863-3.404.531-2.903-.838-3.761-4.649-1.554-6.751L14.769 44.58c6.728-5.685 11.019-9.589 13.762-12.181 1.645-1.554 3.582-3.438 6.559-5.984l5.109-4.346 3.492-3.072 4.582-1.687 2.383-.843a7.96 7.96 0 0 1 .292-.153c.211-.105.318-.159.427-.184.06-.014.056-.008.285-.047l.221-.039 1.093-.448.327-.131c.219-.087.343-.136.514-.165.067-.011.123-.016.159-.018l-1.008 1.957h-.002zm-4.261 6.494l3.065-5.747c.038-.162-.577-.853-.75-.909-.36-.116-5.324 1.966-6.105 2.164l3.79 4.492zM1.862 59.678c1.555 2.73 4.691 1.642 6.376-.349.078-.092.189-.162.184-.303l-4.266-4.929c-1.743 1.359-3.641 3.216-2.295 5.581h.001z"/></g><path d="M44.59 13.467c-1.79 3.29-3.931 6.387-5.739 9.667-.062.054-.248.259-.425.453-.188.207-.344.36-.372.387-.373.383-1.036.864-1.425 1.138l-2.495 2.127a134.72 134.72 0 0 0-3.434 3.108 185.75 185.75 0 0 1-4.531 4.271l-2.075 1.861-1.482 1.331c-2.872 2.562-5.741 5.026-8.604 7.397l10.176-14.674c2.608-3.061 5.064-6.446 7.274-10.193l.398-.683c.148-.055.222-.185.315-.301 2.447-3.087 4.554-6.46 7.068-9.504.055.147.104.249.226.355.97.831 2.786 1.9 3.917 2.656.337.225.804.66 1.207.605h-.001zm8.766-1.312l4.525 3.875c.007.007-.057.129.012.196a1.68 1.68 0 0 0 .419.302c-.015.04.087.271-.045.369l-2.51 2.779-2.848-2.385 1.062-2.005c-.515-.001-1.956.831-2.313.8-.171-.015-1.267-1.109-1.467-1.325l2.458-2.861c.084-.099.233-.133.248-.151.076.226.308.285.456.408l.002-.001z" fill="#807fff"/><path d="M58.312 16.527a1.66 1.66 0 0 1-.42-.302c-.069-.067-.005-.189-.012-.196 1.259-1.652 2.857-3.017 4.533-4.222.135-.229-.15-1.146-.166-1.525-.078-1.826.81-3.624 1.71-5.167l-4.966 5.569c-.16.298.048.653-.376.908-1.053.632-1.646-1.357-.118-1.296 1.292-1.736 3.126-3.295 4.395-5.015.057-.078.216-.236.116-.323-1.742 1.184-3.745 2.491-5.935 1.879-.995 1.927-2.268 3.711-3.718 5.317-.15-.122-.381-.182-.456-.408l2.42-3.187 1.412-2.39c.288-.235.527.073.809.118 1.495.23 3.121-.502 4.338-1.34.328-.226 1.663-1.459 1.773-1.492.317-.097 1.47.925 1.464 1.172-.004.171-.714 1.066-.866 1.33-.945 1.626-1.655 3.379-1.176 5.266.07.273.317.372.169.721-.075.177-2.542 2.033-2.968 2.434-.391.367-1.816 1.754-1.961 2.15h-.004zM39.239 9.852c2.447-2.962 5.266-5.627 7.755-8.555.323-.308.537.112.834.217.205-.602.701-1.058 1.319-.661.74.477-.113 1.379-.044 1.564.042.114.602.162.481.656-1.798 3.388-3.169 7.039-4.995 10.395-.405.056-.871-.38-1.208-.605-1.131-.756-2.945-1.826-3.917-2.656-.124-.105-.172-.207-.226-.355v.001zm9.589-6.822c-.392-.141-1.298-1.135-1.678-.932l-6.977 7.806 4.168 2.733 4.486-9.608h.001z" fill="#000"/><path d="M48.273 17.31l1.55-1.884c.316.264.841.489 1.076.906-.036.145-2.295.858-2.626.978v.001z" fill="#807fff"/><path d="M1.862 59.678c-1.346-2.365.552-4.223 2.295-5.581l4.266 4.929c.003.141-.106.211-.184.302-1.685 1.991-4.822 3.08-6.376.349l-.001.001zm46.843-35.943l-3.79-4.492c.781-.198 5.745-2.28 6.105-2.164.172.056.788.747.75.909l-3.065 5.747z" fill="#fff"/><path d="M52.562 17.873l-3.798 7.075-16.151 13.976-1.137.971-5.647 4.853L9.612 58.846c-.43.661-1.102 1.1-1.675 1.638-.052.048-.172.029-.179.038-.096.134-.073 1.035.2 1.17l6.192 5.487-.339.571-6.303-5.57-.491-.912c-1.011.617-2.255.863-3.404.531-.032.251-.282.428-.239.699.095.602 1.459 1.872 1.975 2.223.264.18 1.174.609 1.254.69.058.059.188.807.289 1.031.323.714 2.494 2.65 3.225 2.911 2.497.892 4.165-1.406 5.524-3.125l-2.318-2.58c-.613-.828-.084-1.045.489-1.625 1.005-1.018 2.154-1.908 3.186-2.894l4.937-4.621 6.23-5.904 2.127-1.854 2.923-2.831.779-.803 1.284-1.233.002.001.19-.177.022-.02 2.959-2.787c.098-.111.169-.32.298-.464l16.398-18.253-2.586-2.31z" fill="#807fff"/><path d="M57.881 16.03l-4.525-3.875c1.45-1.607 2.723-3.39 3.718-5.317 2.19.611 4.193-.695 5.935-1.879.1.088-.059.246-.116.323-1.269 1.72-3.103 3.278-4.395 5.015-1.528-.062-.934 1.928.118 1.296.425-.255.215-.61.376-.908l4.965-5.569c-.899 1.542-1.788 3.34-1.71 5.167.016.379.301 1.297.166 1.525-1.676 1.205-3.273 2.57-4.533 4.222h.001zm-9.053-13l-4.486 9.608-4.168-2.733 6.977-7.806c.379-.203 1.286.791 1.678.932h-.001zM26.232 60.221L22.33 63.88l-4.542-4.705 4.013-3.692" fill="#fff"/><path d="M22.161 64.815c-.689.441-2.247 2.222-3.032 2.904-.564.489-.875 1.069-1.625.507-.479-.359-1.425-1.488-1.901-1.996l-2.331-2.568c-.616-.824-.085-1.04.489-1.616 1.009-1.012 2.163-1.897 3.199-2.876l5.201 5.646z" fill="#fc7aaa"/><path d="M60.793 17.975c-.149-.291-.112-.397.163-.568l10.143-4.098c.301-.072.533.185.431.479-1.698 3.052-2.998 6.459-4.72 9.481-.228.4-.202.607-.723.38-.036-.155-.027-.318.033-.468.842-2.096 2.411-4.319 3.156-6.373.046-.127.108-.175.034-.316a20.87 20.87 0 0 0-1.079-1.155c-.072-.048-.112-.094-.211-.057-2.152.776-4.276 1.838-6.43 2.581-.11.039-.218.16-.24.166-.14.037-.406-.018-.556-.051z" fill="#000"/><path d="M66.235 23.284l-4.774-5.158c-.141.037-.406-.018-.556-.051L38.385 38.912c-.956 1.074-2.137 1.992-3.189 2.97l-.501.439-1.297 1.308-8.5 7.865-3.118 2.953 2.506 2.658 11.18-10.507L62.895 21.08c.59-.491.913.185.337.587L35.535 47.396l-10.596 9.86c-.1.143-.541.106-.33.313l2.471 2.554 1.47-1.333 1.444-1.328 7.902-7.349 2.648-2.54c.089-.082.239-.098.266-.122l25.393-23.699c-.036-.155-.028-.318.032-.468v-.001z" fill="#ffda31"/><path d="M61.353 18.031c.022-.006.13-.128.24-.166l6.429-2.58c.099-.037.139.009.211.057a21.55 21.55 0 0 1 1.079 1.155c.073.142.012.189-.034.316-.745 2.054-2.313 4.276-3.155 6.371l-4.77-5.154z" fill="#fff"/><path d="M63.461 20.967c-.12-.089-.428.067-.536.124-.4.212-6.123 5.365-38.677 35.946-.768-1.046-1.613-1.893-2.445-2.575l-4.965 4.599 5.21 5.654c1.814-1.161 3.47-3.057 5.054-4.576l-1.231-1.281-1.159-1.19 38.549-35.991c.348-.242.367-.586.198-.71l.001-.001zM26.144 60.141l-3.908 3.664-4.549-4.712 4.019-3.697 4.438 4.746zm-17.37 2.547l.32-.414 1.05-1.355.028-.033.847-.996 1.926-2.377 1.104-1.231.838-.946 1.061-1.188 2.439-2.623 3.652-4.245 2.3-2.488c3.239-3.421 6.898-7.668 7.884-8.82a243.9 243.9 0 0 0 9.575-11.931l.509.386a244.78 244.78 0 0 1-9.6 11.964c-2.883 3.366-5.319 6.023-7.9 8.837l-8.38 9.342c-.708.781-2.103 2.314-3.871 4.426l-1.928 2.339-1.484 1.775-.37-.423v.002z" fill="#000"/></g><defs><clipPath id="A"><path fill="#fff" d="M0 0h72v70H0z"/></clipPath></defs></svg>