<svg xmlns="http://www.w3.org/2000/svg" width="72" height="78" fill="none"><g clip-path="url(#A)"><path d="M63.89 60.433c1.69 1.416 2.655 3.534 2.819 5.714 2.128-.18 4.303.982 4.801 3.141.74 3.207-1.891 5.402-4.993 5.097-.526-.052-.471-.462-.125-.561.384-.11 1.214.027 1.697-.034 3.93-.494 4.07-6.733-.484-7.066-.305-.022-1.263.094-1.416-.097-.063-.08-.181-1.463-.245-1.76-.344-1.612-1.184-2.884-2.416-3.933-2.586-2.204-6.154-2.446-9.01-.53-.295.061-.372-.044-.413-.309-.328-2.069-1.31-3.775-2.886-4.666-.108-.061-1.639-1.068-3.261-.646-1.182.307-2.267 1.332-2.396 1.456-.183.176-.809.798-1.712 1.301-.233.13-.502.261-.803.199-.223-.045-.232-.147-.846-.671-.365-.312-.559-.444-.677-.745-.014-.037-.127-.326-.032-.399.076-.058.25.049.338.105.59.374 1.121.839 1.261.931.844.561 2.673-2.37 5.084-2.749 2.391-.375 5.325 1.734 6.161 4.151.063.184.296 1.279.363 1.283 2.845-1.74 6.668-1.326 9.191.788l-.001.001zm-53.235-.68c-1.846 1.703-2.972 3.974-3.243 6.474-.032.294.074.967-.108 1.18-.126.146-1.292.049-1.59.068-6.964.456-6.717 9.62-.144 10.02.554.034 1.164-.088 1.697.069.25.337-.198.401-.216.429-1.074-.014-2.091.098-3.132-.219-3.516-1.071-5.048-5.271-2.998-8.33 1.355-2.023 3.536-2.689 5.913-2.465.02-2.983 1.437-5.912 3.676-7.868 2.896-2.529 6.962-3.333 10.635-2.148.305.098 1.642.613 1.803.785.215.23.157.543-.214.503-.229-.024-1.105-.52-1.447-.644-3.713-1.347-7.764-.499-10.634 2.147zm19.841-.048h2.232v.959h-2.232v1.979c0 .232-.792.191-.992.18v-2.159h-2.232v-.959h2.232v-2.279c.201-.011.992-.052.992.18v2.099z" fill="#000"/><path d="M44.932 35.127c-.397 3.961-1.173 7.883-2.255 11.708-1.611-.312-3.22-.624-4.859-.775l.004-10.463c-.016-.343-.188-.36-.476-.389-.53-.052-2.399-.081-2.869.005-.186.034-.239.151-.284.321l-.019 10.526c-1.64.151-3.243.483-4.859.775-1.05-3.859-1.857-7.805-2.255-11.794-1.226-12.245.216-21.328 6.731-31.758.49-.785 1.481-2.543 2.045-3.137.06-.063.076-.173.202-.142.231.057 2.306 3.49 2.597 3.967 6.218 10.203 7.485 19.289 6.297 31.155h-.001zm-9.389-19.172c-4.906.564-4.032 8.164 1.093 7.368 4.675-.726 3.756-7.926-1.093-7.368z" fill="#ffda31"/><path d="M29.315 46.835L21.421 52c-.156-.807-.059-1.634-.089-2.452-.155-4.256-1.125-7.747 2.127-11.149l3.6-3.358c.4 3.988 1.206 7.934 2.255 11.794h.001zm15.617-11.708c.133.046.241.122.348.213 1.214 1.026 3.72 3.375 4.493 4.668 1.777 2.969.99 6.662.881 9.965-.023.674.024 1.353.004 2.026l-.309-.08-7.673-5.085c1.083-3.824 1.859-7.747 2.255-11.708h.001zM37.817 46.06V52h-3.644v-5.94l.019-10.526c.045-.17.099-.286.284-.321.47-.086 2.339-.056 2.869-.005.288.028.459.045.476.389l-.004 10.463h.001zm-2.274-30.105c4.849-.558 5.767 6.643 1.093 7.368-5.126.796-5.999-6.804-1.093-7.368zm18.383 52.464l-2.102 3.085-.252 3.699-3.02-2.064c-1.264-.207-2.545-.134-3.818-.272-.148-.12 2.044-2.726 2.168-3.132.169-.551.066-3.514.186-3.652l3.106 2.089 3.731.247zM50.9 73.37c.067-.455 0-1.172 0-1.669 0-.657 1.571-2.41 1.458-2.502-.725-.243-1.719.029-2.383-.139-.221-.057-2.024-1.52-2.101-1.418l-.137 2.48-1.434 1.969c.716.183 1.738-.011 2.387.136.479.109 1.528 1.161 2.042 1.422.031.014.163-.247.167-.277h.001z" fill="#000"/></g><defs><clipPath id="A"><path fill="#fff" d="M0 0h72v78H0z"/></clipPath></defs></svg>