<svg width="24" height="22" viewBox="0 0 24 22" fill="none" xmlns="http://www.w3.org/2000/svg"><path d="M1.81444 18.6563L2.87286 20.4845C3.09279 20.8694 3.40893 21.1718 3.78007 21.3917C4.8431 20.0424 5.58308 19.0068 6 18.2852C6.4231 17.5529 6.94315 16.4074 7.56015 14.8488C5.89742 14.6299 4.63739 14.5205 3.78007 14.5205C2.95736 14.5205 1.69734 14.6299 0 14.8488C0 15.2749 0.109967 15.701 0.329897 16.0859L1.81444 18.6563Z" fill="#0066DA"/><path d="M20.2199 21.3917C20.5911 21.1718 20.9072 20.8694 21.1271 20.4845L21.567 19.7285L23.6701 16.0859C23.89 15.701 24 15.2749 24 14.8488C22.2928 14.6299 21.0351 14.5205 20.2268 14.5205C19.3581 14.5205 18.1004 14.6299 16.4536 14.8488C17.0633 16.4159 17.5765 17.5614 17.9931 18.2852C18.4135 19.0154 19.1557 20.0509 20.2199 21.3917Z" fill="#EA4335"/><path d="M12.0001 7.15121C13.23 5.66569 14.0777 4.52022 14.543 3.71478C14.9177 3.06623 15.3301 2.03072 15.7801 0.608249C15.409 0.388316 14.9829 0.278352 14.543 0.278352H9.4571C9.01723 0.278352 8.59111 0.402062 8.21997 0.608249C8.79242 2.23968 9.27817 3.40074 9.67721 4.09144C10.1182 4.85473 10.8925 5.87465 12.0001 7.15121Z" fill="#00832D"/><path d="M16.4398 14.8488H7.56009L3.78003 21.3917C4.15117 21.6117 4.57728 21.7216 5.01716 21.7216H18.9828C19.4227 21.7216 19.8488 21.5979 20.2199 21.3917L16.4398 14.8488Z" fill="#2684FC"/><path d="M12 7.15117L8.21995 0.608212C7.84881 0.828143 7.53264 1.13054 7.31272 1.51543L0.329897 13.6116C0.109967 13.9965 0 14.4227 0 14.8488H7.56015L12 7.15117Z" fill="#00AC47"/><path d="M20.1787 7.56356L16.6873 1.51543C16.4674 1.13054 16.1512 0.828143 15.7801 0.608212L12 7.15117L16.4399 14.8488H23.9863C23.9863 14.4227 23.8763 13.9965 23.6564 13.6116L20.1787 7.56356Z" fill="#FFBA00"/></svg>