<svg width="23" height="22" viewBox="0 0 23 22" fill="none" xmlns="http://www.w3.org/2000/svg"><g clip-path="url(#A)" fill-rule="evenodd"><path d="M5.241 11c0-.714.119-1.4.331-2.042L1.864 6.127C1.141 7.594.734 9.247.734 11s.407 3.403 1.128 4.87l3.705-2.836c-.21-.64-.327-1.322-.327-2.033z" fill="#fbbc05"/><path d="M11.75 4.5c1.552 0 2.954.55 4.056 1.45l3.204-3.2C17.058 1.05 14.554 0 11.75 0 7.397 0 3.656 2.489 1.864 6.127l3.707 2.831A6.49 6.49 0 0 1 11.75 4.5z" fill="#ea4335"/><path d="M11.75 17.5a6.49 6.49 0 0 1-6.179-4.458l-3.707 2.83A10.98 10.98 0 0 0 11.75 22c2.687 0 5.252-.954 7.177-2.741l-3.519-2.721c-.993.625-2.243.962-3.658.962z" fill="#34a853"/><path d="M22.265 11c0-.65-.1-1.35-.25-2H11.75v4.25h5.908c-.296 1.449-1.099 2.563-2.25 3.288l3.519 2.721c2.022-1.877 3.338-4.673 3.338-8.258z" fill="#4285f4"/></g><defs><clipPath id="A"><path fill="#fff" transform="translate(.5)" d="M0 0h22v22H0z"/></clipPath></defs></svg>