<svg width="437" height="317" viewBox="0 0 437 317" fill="none" xmlns="http://www.w3.org/2000/svg"><style>.B{color-interpolation-filters:sRGB}.C{flood-opacity:0}</style><g clip-path="url(#D)"><path d="M162.232 248.649c1.085.548 2.155.866 2.91 1.514 2.166 1.887 1.515 5.797-1.214 7.041-10.59 4.893-21.492 8.737-33.044 10.974-9.824 1.907-19.496 4.733-29.07 7.666-5.322 1.626-10.324 4.321-15.488 6.49-1.085.452-2.22.902-3.391 1.08-3.82.573-6.531-1.969-6.297-5.829.324-5.326.953-10.639.98-15.956.029-7.558-1.648-14.796-4.845-21.711-2.356-5.08-3.7-10.692-6.49-15.488-5.117-8.813-10.882-17.234-16.537-25.717-2.158-3.229-4.79-6.12-7.179-9.196-1.894-2.423-1.316-5.549 1.149-7.1l15.203-9.615c2.125-1.334 4.557-2.294 6.389-3.947 5.135-4.645 10.105-9.49 14.98-14.406 3.568-3.599 7.013-7.331 10.236-11.251 2.573-3.113 4.552-6.658 5.78-10.591.381-1.235 1.101-2.411 1.872-3.447 1.483-2.008 4.654-2.051 7.136.007 8.208 6.793 15.453 14.445 21.634 23.179 5.689 8.029 9.648 16.94 14.414 25.448 3.728 6.651 5.533 14.006 8.038 21.108l6.62 18.381c3.172 8.941 4.554 18.239 5.596 27.615.164 1.252.407 2.482.617 3.751zm-63.193-66.854c3.465.776 3.775.548 6.167-4.41 3.574.351 5.851-1.34 5.895-4.512.019-1.235-.189-2.555-.613-3.715-.318-.845-1.14-1.5-1.738-2.243-.74.634-1.583 1.177-2.195 1.929-.327.41-.275 1.137-.408 1.811-1.725-.411-3.642-1.86-5.005.056-.989 1.385-1.307 3.23-1.985 5.026-2.3.199-3.403 1.385-3.908 3.953-.18.932-.894 1.955-1.662 2.527-3.019 2.238-6.154 4.329-9.279 6.44-.902.608-1.915 1.052-2.817 1.66-.834.564-1.606 1.237-2.397 1.87l.532.873c3.456-1.435 7.162-2.482 10.327-4.424 3.163-1.89 7.301-2.757 9.086-6.841zm-14.765 27.746c.881.178 1.247.351 1.575.303 3.903-.611 7.917-.921 11.296-3.247l15.363-10.813c1.428-.995 3.006-1.795 4.336-2.895.454-.381.695-1.565.44-2.076-.233-.432-1.52-.815-1.979-.558-4.735 2.538-9.583 4.964-14.049 7.93-5.085 3.371-10.086 6.567-16.416 6.984-.655.046-1.642 1.38-1.705 2.184-.087.777.822 1.655 1.138 2.188zm40.871 1.071c-.084-.462.016-1.183-.285-1.435-.405-.343-1.178-.532-1.67-.373-.842.268-1.61.84-2.404 1.298l-19.3 11.377c-1.77.986-4.005 1.107-5.938 1.841-1.166.439-2.657.962-2.187 2.777.463 1.83 1.783 2.26 3.418 1.723 2.462-.811 5.151-1.312 7.282-2.661 6.822-4.318 13.437-8.955 20.129-13.477.337-.252.56-.616.956-1.07zm.986 23.39c-.106-.178-.196-.35-.301-.528-.761.144-1.554.189-2.283.43-5.232 1.799-10.319 4.082-15.999 4.194-1.338.028-2.107 1.514-1.591 2.795.654 1.644 1.977 1.885 3.373 1.292l15.596-6.776c.535-.229.818-.932 1.205-1.407z" fill="#186efd"/><path d="M99.039 181.795c-1.785 4.083-5.917 4.935-9.082 6.877-3.159 1.926-6.865 2.973-10.327 4.423l-.532-.873c.791-.632 1.563-1.306 2.397-1.87.902-.607 1.915-1.052 2.817-1.659 3.126-2.112 6.255-4.187 9.279-6.441.768-.572 1.482-1.595 1.662-2.527.511-2.582 1.614-3.769 3.908-3.953.679-1.795.997-3.641 1.986-5.025 1.362-1.916 3.301-.477 5.004-.057.134-.673.066-1.406.409-1.811.606-.736 1.455-1.295 2.195-1.929.598.743 1.434 1.404 1.738 2.243.424 1.16.622 2.46.613 3.715-.035 3.194-2.327 4.879-5.895 4.513-2.396 4.922-2.711 5.164-6.171 4.374z" fill="#020403"/><path d="M84.275 209.541c-.316-.533-1.231-1.396-1.168-2.2s1.049-2.138 1.705-2.184c6.33-.417 11.331-3.613 16.416-6.984 4.466-2.966 9.314-5.392 14.049-7.93.475-.252 1.761.131 1.979.558.255.511.029 1.701-.44 2.076-1.33 1.1-2.908 1.9-4.336 2.895l-15.363 10.813c-3.379 2.326-7.393 2.636-11.296 3.247-.298.06-.664-.113-1.545-.291z" fill="#020503"/><path d="M125.145 210.611c-.411.448-.634.812-.959 1.034-6.677 4.527-13.298 9.18-20.129 13.477-2.131 1.349-4.826 1.865-7.282 2.661-1.634.537-2.954.107-3.418-1.723-.454-1.81 1.022-2.338 2.188-2.777 1.948-.729 4.183-.85 5.937-1.842 6.505-3.661 12.877-7.563 19.301-11.376.779-.464 1.546-1.036 2.404-1.298.491-.159 1.259.045 1.67.373.305.287.22 1.014.288 1.471z" fill="#020504"/><path d="M126.131 234.002c-.392.49-.69 1.187-1.189 1.412l-15.596 6.777c-1.397.593-2.72.352-3.374-1.292-.516-1.281.253-2.767 1.591-2.795 5.686-.127 10.773-2.411 15.999-4.194.729-.241 1.522-.286 2.283-.43.09.172.196.35.286.522z" fill="#020604"/></g><g clip-path="url(#E)"><path d="M256.053 173.941c-1.072.781-2.167 1.311-2.866 2.141-1.999 2.411-.612 6.504 2.543 7.363 12.255 3.404 24.66 5.625 37.483 6.002 10.906.326 21.81 1.668 32.627 3.141 6.011.815 11.867 2.837 17.804 4.262 1.247.296 2.548.581 3.839.567 4.211-.055 6.682-3.266 5.751-7.378-1.284-5.674-2.895-11.281-3.858-16.997-1.36-8.127-.826-16.209 1.398-24.212 1.642-5.88 2.103-12.154 4.262-17.805 3.957-10.382 8.681-20.455 13.276-30.576 1.755-3.854 4.078-7.427 6.108-11.156 1.613-2.94.442-6.202-2.484-7.437l-18.048-7.674c-2.521-1.063-5.306-1.668-7.567-3.125-6.342-4.096-12.54-8.436-18.65-12.869-4.471-3.246-8.834-6.657-12.99-10.308-3.316-2.898-6.068-6.365-8.08-10.38-.626-1.262-1.608-2.401-2.62-3.381-1.949-1.9-5.368-1.389-7.676 1.262-7.638 8.751-14.089 18.258-19.206 28.741-4.71 9.639-7.405 19.922-11.038 29.915-2.843 7.81-3.494 16.042-4.941 24.123l-3.894 20.942c-1.842 10.177-1.695 20.425-1.169 30.697.043 1.376-.001 2.741-.004 4.143zm56.249-83.036c-3.592 1.443-3.966 1.253-7.41-3.662-3.784 1.006-6.532-.414-7.137-3.82a11.6 11.6 0 0 1 .007-4.105c.195-.965.963-1.814 1.476-2.719.908.552 1.911.989 2.701 1.69.425.384.495 1.176.758 1.877 1.783-.745 3.592-2.641 5.394-.818 1.308 1.316 1.974 3.246 3.02 5.058 2.509-.189 3.905.893 4.9 3.567.357.971 1.305 1.947 2.232 2.427 3.641 1.878 7.382 3.577 11.116 5.299 1.077.495 2.245.796 3.323 1.29.996.46 1.945 1.05 2.907 1.591l-.419 1.033c-3.971-.937-8.143-1.412-11.889-2.945-3.736-1.478-8.341-1.684-10.979-5.765zm20.761 27.261c-.916.346-1.28.596-1.642.602-4.307.029-8.68.4-12.725-1.509l-18.43-8.935c-1.711-.82-3.55-1.403-5.174-2.354-.556-.329-1.023-1.562-.838-2.156.175-.506 1.491-1.144 2.031-.948 5.541 1.899 11.183 3.657 16.51 6.065 6.063 2.733 12.006 5.293 18.891 4.63.712-.066 2.009 1.196 2.217 2.05.23.821-.594 1.926-.84 2.555zm-43.788 8.333c.009-.513-.226-1.271.054-1.595.376-.44 1.175-.779 1.731-.694.954.14 1.88.62 2.815.974l22.766 8.85c2.077.751 4.503.488 6.712.939 1.332.267 3.028.567 2.842 2.603-.177 2.051-1.522 2.745-3.375 2.454-2.791-.44-5.772-.506-8.302-1.584-8.099-3.447-16.032-7.275-24.027-10.964-.406-.212-.711-.564-1.216-.983zm3.048 25.34l.231-.62c.844.02 1.705-.071 2.533.061 5.944 1.016 11.82 2.579 17.951 1.701 1.445-.204 2.533 1.259 2.203 2.728-.415 1.884-1.796 2.376-3.403 1.984l-17.972-4.552c-.615-.152-1.043-.859-1.543-1.302z" fill="#186efd"/><path d="M312.302 90.905c2.638 4.081 7.234 4.271 10.981 5.804 3.738 1.518 7.909 1.993 11.889 2.945l.419-1.033c-.962-.541-1.911-1.13-2.907-1.591-1.077-.495-2.245-.795-3.323-1.29-3.734-1.723-7.466-3.406-11.116-5.3-.926-.48-1.875-1.456-2.232-2.427-1.003-2.689-2.399-3.772-4.9-3.567-1.045-1.812-1.712-3.742-3.019-5.058-1.803-1.822-3.636.067-5.395.818-.262-.701-.318-1.501-.758-1.877-.781-.686-1.793-1.138-2.7-1.69-.513.905-1.297 1.763-1.476 2.719-.252 1.323-.238 2.755-.007 4.104.598 3.43 3.361 4.841 7.136 3.82 3.442 4.875 3.824 5.081 7.408 3.622z" fill="#020403"/><path d="M333.063 118.165c.246-.629 1.079-1.718.87-2.572s-1.504-2.116-2.217-2.05c-6.885.663-12.827-1.897-18.891-4.631-5.327-2.407-10.969-4.166-16.51-6.064-.555-.188-1.872.45-2.031.948-.185.594.267 1.835.838 2.156 1.624.951 3.463 1.534 5.174 2.353l18.43 8.936c4.045 1.909 8.418 1.538 12.725 1.509.332.012.695-.238 1.612-.585z" fill="#020503"/><path d="M289.274 126.498c.521.41.826.762 1.215.944l24.026 10.965c2.53 1.077 5.52 1.159 8.303 1.584 1.852.291 3.197-.404 3.374-2.455.171-2.027-1.51-2.336-2.841-2.603-2.224-.442-4.651-.179-6.713-.938-7.642-2.798-15.183-5.876-22.765-8.85-.92-.363-1.847-.843-2.815-.975-.557-.084-1.347.27-1.731.695-.278.363-.059 1.13-.053 1.633z" fill="#020504"/><path d="M292.323 151.839c.508.458.951 1.156 1.528 1.311l17.972 4.551c1.606.393 2.987-.099 3.402-1.983.33-1.469-.758-2.932-2.203-2.728-6.14.863-12.015-.701-17.951-1.701-.827-.132-1.688-.041-2.532-.062-.067.201-.149.411-.216.612z" fill="#020604"/></g><g filter="url(#A)"><rect x="108" y="62" width="208" height="48" rx="6" fill="#f5f5f9"/><rect x="108.5" y="62.5" width="207" height="47" rx="5.5" stroke="#000"/></g><path d="M130 94h14v-2h-14m14-9h-4v-6h-6v6h-4l7 7 7-7zm16.12 9V80.48h3.672l.568.008.832.056c.912.117 1.683.443 2.312.976.635.528 1.115 1.203 1.44 2.024s.488 1.72.488 2.696-.163 1.875-.488 2.696-.805 1.499-1.44 2.032c-.629.528-1.4.851-2.312.968a7.99 7.99 0 0 1-.824.056l-.576.008h-3.672zm1.96-1.816h1.712l.608-.016a4.52 4.52 0 0 0 .664-.072c.544-.101.987-.344 1.328-.728s.592-.851.752-1.4a6.15 6.15 0 0 0 .248-1.728c0-.624-.083-1.211-.248-1.76s-.421-1.011-.768-1.384c-.341-.373-.779-.611-1.312-.712a3.41 3.41 0 0 0-.664-.072l-.608-.016h-1.712v7.888zm13.059 2.056c-.864 0-1.619-.195-2.264-.584a4.01 4.01 0 0 1-1.504-1.608c-.352-.688-.528-1.477-.528-2.368 0-.907.181-1.701.544-2.384s.867-1.216 1.512-1.6 1.392-.576 2.24-.576c.869 0 1.627.195 2.272.584s1.147.928 1.504 1.616.536 1.469.536 2.36-.181 1.688-.544 2.376a4.01 4.01 0 0 1-1.504 1.608c-.645.384-1.4.576-2.264.576zm0-1.808c.768 0 1.339-.256 1.712-.768s.56-1.173.56-1.984c0-.837-.189-1.504-.568-2-.379-.501-.947-.752-1.704-.752-.517 0-.944.117-1.28.352-.331.229-.576.552-.736.968s-.24.888-.24 1.432c0 .837.189 1.507.568 2.008s.947.744 1.688.744zM182.741 92l-2.64-8.656 1.888.016 1.688 5.544 1.712-5.544h1.624l1.704 5.544 1.696-5.544h1.888l-2.64 8.64h-1.504l-1.96-5.944L184.245 92h-1.504zm16.98 0v-4.16a8.2 8.2 0 0 0-.056-.904c-.037-.331-.125-.648-.264-.952a1.8 1.8 0 0 0-.608-.76c-.267-.197-.629-.296-1.088-.296a2.29 2.29 0 0 0-.728.12 1.67 1.67 0 0 0-.656.416c-.192.192-.347.459-.464.8s-.176.768-.176 1.296l-1.144-.488c0-.736.141-1.403.424-2a3.4 3.4 0 0 1 1.264-1.424c.555-.357 1.237-.536 2.048-.536.64 0 1.168.107 1.584.32s.747.485.992.816a3.56 3.56 0 0 1 .544 1.056c.117.373.192.728.224 1.064l.056.808V92h-1.952zm-5.992 0v-8.64h1.72v2.68h.232V92h-1.952zm10.192 0V80.24h1.928V92h-1.928zm8.14.24c-.864 0-1.619-.195-2.264-.584a4.01 4.01 0 0 1-1.504-1.608c-.352-.688-.528-1.477-.528-2.368 0-.907.181-1.701.544-2.384s.867-1.216 1.512-1.6 1.392-.576 2.24-.576c.869 0 1.627.195 2.272.584s1.147.928 1.504 1.616.536 1.469.536 2.36-.181 1.688-.544 2.376a4.01 4.01 0 0 1-1.504 1.608c-.645.384-1.4.576-2.264.576zm0-1.808c.768 0 1.339-.256 1.712-.768s.56-1.173.56-1.984c0-.837-.189-1.504-.568-2-.379-.501-.947-.752-1.704-.752-.517 0-.944.117-1.28.352-.331.229-.576.552-.736.968s-.24.888-.24 1.432c0 .837.189 1.507.568 2.008s.947.744 1.688.744zm8.491 1.808c-.624 0-1.152-.117-1.584-.352s-.76-.557-.984-.952a2.64 2.64 0 0 1-.328-1.304c0-.416.069-.789.208-1.12a2.2 2.2 0 0 1 .64-.864c.288-.245.661-.445 1.12-.6a10.59 10.59 0 0 1 1.216-.304l1.52-.248 1.72-.256-.688.392c.005-.597-.128-1.037-.4-1.32s-.731-.424-1.376-.424a2.49 2.49 0 0 0-1.128.272c-.363.181-.616.493-.76.936l-1.76-.552c.213-.731.618-1.317 1.216-1.76s1.413-.664 2.432-.664c.768 0 1.442.125 2.024.376a2.53 2.53 0 0 1 1.304 1.232 2.64 2.64 0 0 1 .28.936c.032.315.048.659.048 1.032V92h-1.688v-1.872l.28.304c-.39.624-.846 1.083-1.368 1.376-.518.288-1.166.432-1.944.432zm.384-1.536c.437 0 .81-.077 1.12-.232s.554-.344.736-.568.312-.435.376-.632c.101-.245.157-.525.168-.84l.024-.776.592.176-1.496.24-1.072.2c-.299.059-.563.125-.792.2-.224.08-.414.173-.568.28a1.23 1.23 0 0 0-.36.368.96.96 0 0 0-.12.488 1.02 1.02 0 0 0 .16.568c.106.16.261.288.464.384s.464.144.768.144zm9.882 1.536c-.794 0-1.488-.2-2.08-.6s-1.05-.944-1.376-1.632-.488-1.464-.488-2.328c0-.875.163-1.653.488-2.336.331-.688.798-1.229 1.4-1.624.603-.4 1.312-.6 2.128-.6.822 0 1.51.2 2.064.6.56.395.984.936 1.272 1.624s.432 1.467.432 2.336c0 .859-.144 1.635-.432 2.328a3.67 3.67 0 0 1-1.288 1.632c-.57.4-1.277.6-2.12.6zm.296-1.728c.518 0 .934-.117 1.248-.352.32-.24.552-.573.696-1 .15-.427.224-.92.224-1.48s-.074-1.059-.224-1.48c-.144-.427-.37-.757-.68-.992s-.709-.36-1.2-.36c-.517 0-.944.128-1.28.384a2.19 2.19 0 0 0-.744 1.024c-.16.427-.24.901-.24 1.424s.078 1.008.232 1.44c.16.427.403.765.728 1.016s.739.376 1.24.376zM233.282 92v-6.064h-.24V80.48h1.944V92h-1.704zM291 84l5 5 5-5h-10z" fill="#000"/><g filter="url(#B)"><rect x="108" y="110" width="208" height="144" rx="6" fill="#fff"/></g><path d="M144 125h-14c-1.1 0-2 .9-2 2v14c0 1.1.9 2 2 2h14c1.1 0 2-.9 2-2v-14c0-1.1-.9-2-2-2zm-9.5 8.5a1.54 1.54 0 0 1-1.5 1.5h-1v2h-1.5v-6h2.5a1.54 1.54 0 0 1 1.5 1.5v1zm5 2a1.54 1.54 0 0 1-1.5 1.5h-2.5v-6h2.5a1.54 1.54 0 0 1 1.5 1.5v3zm4-3H142v1h1.5v1.5H142v2h-1.5v-6h3v1.5zm-6.5 0h1v3h-1v-3zm-5 0h1v1h-1v-1zm27.32 7.5l3.968-11.52h1.56l3.968 11.52h-1.224l-3.768-10.864h.464L160.544 140h-1.224zm1.768-2.792v-1.104h5.952v1.104h-5.952zm12.525 3.032c-.806 0-1.494-.2-2.064-.6s-1.008-.952-1.312-1.64-.456-1.464-.456-2.328.149-1.632.448-2.32.738-1.232 1.304-1.632 1.242-.6 2.032-.6c.81 0 1.493.197 2.048.592s.973.936 1.256 1.624c.288.683.432 1.461.432 2.336 0 .859-.142 1.635-.424 2.328-.283.688-.699 1.235-1.248 1.64s-1.222.6-2.016.6zm.12-1.096c.613 0 1.12-.149 1.52-.448s.698-.709.896-1.232.296-1.125.296-1.792c0-.677-.099-1.275-.296-1.792-.198-.523-.496-.931-.896-1.224s-.894-.44-1.496-.44c-.619 0-1.131.152-1.536.456s-.707.717-.904 1.24-.288 1.109-.288 1.76.098 1.248.296 1.776c.202.523.504.936.904 1.24s.901.456 1.504.456zm2.712.856v-6.504h-.128v-5.016h1.184V140h-1.056zm6.908.24c-.859 0-1.592-.195-2.2-.584s-1.075-.928-1.4-1.616-.488-1.477-.488-2.368c0-.907.165-1.701.496-2.384s.8-1.213 1.408-1.592 1.341-.576 2.184-.576c.864 0 1.6.195 2.208.584a3.68 3.68 0 0 1 1.4 1.608c.325.683.488 1.469.488 2.36 0 .907-.163 1.704-.488 2.392s-.795 1.216-1.408 1.6-1.347.576-2.2.576zm0-1.128c.96 0 1.675-.317 2.144-.952s.704-1.469.704-2.488c0-1.045-.237-1.877-.712-2.496-.469-.619-1.181-.928-2.136-.928-.645 0-1.179.147-1.6.44a2.61 2.61 0 0 0-.936 1.208c-.203.512-.304 1.104-.304 1.776 0 1.04.24 1.875.72 2.504s1.187.936 2.12.936zm9.741 1.128c-.795 0-1.467-.2-2.016-.6s-.966-.952-1.248-1.64c-.283-.693-.424-1.469-.424-2.328 0-.875.141-1.653.424-2.336s.709-1.229 1.264-1.624 1.237-.592 2.048-.592c.789 0 1.466.2 2.032.6s.997.944 1.296 1.632.456 1.461.456 2.32-.152 1.64-.456 2.328-.742 1.235-1.312 1.64-1.259.6-2.064.6zm-3.888-.24v-11.52h1.184v5.016h-.128V140h-1.056zm3.768-.856c.602 0 1.104-.152 1.504-.456s.698-.717.896-1.24.304-1.12.304-1.776a4.94 4.94 0 0 0-.296-1.76c-.197-.523-.499-.936-.904-1.24s-.91-.456-1.528-.456c-.603 0-1.104.147-1.504.44s-.691.701-.888 1.224c-.198.517-.296 1.115-.296 1.792 0 .667.098 1.264.296 1.792s.496.933.896 1.232.906.448 1.52.448zm9.365 1.096c-.843 0-1.574-.187-2.192-.56s-1.091-.899-1.432-1.576-.512-1.472-.512-2.384c0-.944.168-1.76.504-2.448s.808-1.219 1.416-1.592 1.336-.56 2.168-.56c.853 0 1.581.197 2.184.592.602.389 1.058.949 1.368 1.68s.45 1.603.424 2.616h-1.2v-.416c-.022-1.12-.264-1.965-.728-2.536s-1.131-.856-2.016-.856c-.928 0-1.64.301-2.136.904s-.736 1.461-.736 2.576c0 1.088.245 1.933.736 2.536.496.597 1.197.896 2.104.896.618 0 1.157-.141 1.616-.424s.829-.701 1.096-1.24l1.096.424c-.342.752-.846 1.336-1.512 1.752s-1.411.616-2.248.616zm-3.304-4.232v-.984h6.6v.984h-6.6zm12.21 3.992v-11.52h4.448l.376.016c.144.005.288.021.432.048.603.091 1.112.301 1.528.632.421.325.739.736.952 1.232.219.496.328 1.045.328 1.648 0 .597-.109 1.144-.328 1.64s-.539.909-.96 1.24c-.416.325-.923.533-1.52.624l-.432.048-.376.016h-3.272V140h-1.176zm1.176-5.496h3.24l.336-.016a2.91 2.91 0 0 0 .376-.056c.395-.085.717-.248.968-.488a2.27 2.27 0 0 0 .568-.856c.128-.331.192-.675.192-1.032s-.064-.701-.192-1.032c-.123-.336-.312-.624-.568-.864s-.573-.403-.968-.488c-.123-.027-.248-.043-.376-.048l-.336-.016h-3.24v4.896zm8.48 5.496v-11.52h3.496l.624.008c.299.005.584.027.856.064.875.123 1.606.448 2.192.976s1.027 1.2 1.32 2.016.44 1.715.44 2.696-.146 1.88-.44 2.696-.733 1.488-1.32 2.016-1.317.853-2.192.976l-.856.064-.624.008h-3.496zm1.216-1.128h2.28l.704-.016c.256-.016.475-.043.656-.08.672-.117 1.214-.389 1.624-.816.416-.427.72-.96.912-1.6.192-.645.288-1.352.288-2.12a7.44 7.44 0 0 0-.288-2.128c-.192-.645-.496-1.179-.912-1.6s-.957-.691-1.624-.808c-.181-.037-.402-.061-.664-.072l-.696-.024h-2.28v9.264zm9.534 1.128v-11.52h6.616v1.176h-5.44v4h4.48v1.168h-4.48V140h-1.176zm-85.481 33.25c.22 0 .417.083.59.25a.79.79 0 0 1 .24.58v15.84a.79.79 0 0 1-.24.58c-.173.167-.37.25-.59.25h-13.34c-.22 0-.417-.083-.59-.25a.79.79 0 0 1-.24-.58V187h-4.17c-.22 0-.417-.08-.59-.24-.16-.173-.24-.37-.24-.59v-8.34c0-.22.08-.417.24-.59.173-.16.37-.24.59-.24H132v-2.92a.79.79 0 0 1 .24-.58c.173-.167.37-.25.59-.25m-.8 8.09l1.2 3.94h1.37l1.31-6.56h-1.38l-.78 3.88-1.11-3.75h-1.14l-1.19 3.77-.78-3.9h-1.44l1.31 6.56h1.37m14.98 4.22V187h-12.5v2.5m12.5-3.75v-3.12H137v3.12m8.75-4.37v-3.13H137v3.13m8.75-4.38v-2.5h-12.5v2.5h12.5zm14.37 11v-11.52h1.08l4.528 9.688 4.504-9.688h1.096v11.512h-1.12v-8.888L166.104 188h-.76l-4.096-8.896V188h-1.128zm17.453.24c-.805 0-1.531-.133-2.176-.4a4.21 4.21 0 0 1-1.592-1.152c-.416-.496-.688-1.085-.816-1.768l1.2-.2a2.96 2.96 0 0 0 1.216 1.76c.619.421 1.357.632 2.216.632.565 0 1.072-.088 1.52-.264s.8-.437 1.056-.768.384-.723.384-1.176c0-.299-.053-.552-.16-.76s-.248-.389-.424-.528-.368-.253-.576-.344a4.61 4.61 0 0 0-.608-.232l-2.92-.872c-.352-.101-.677-.229-.976-.384a3.42 3.42 0 0 1-.784-.568 2.43 2.43 0 0 1-.512-.784c-.123-.299-.184-.64-.184-1.024 0-.651.171-1.213.512-1.688s.808-.84 1.4-1.096 1.267-.381 2.024-.376c.768 0 1.453.136 2.056.408a3.88 3.88 0 0 1 1.504 1.168c.395.501.656 1.096.784 1.784l-1.232.224a2.79 2.79 0 0 0-.552-1.304c-.288-.368-.656-.651-1.104-.848-.443-.203-.931-.307-1.464-.312-.517 0-.979.088-1.384.264-.4.171-.717.405-.952.704a1.61 1.61 0 0 0-.352 1.024c0 .389.107.701.32.936a2.3 2.3 0 0 0 .8.552 8.44 8.44 0 0 0 .928.328l2.256.664a8.33 8.33 0 0 1 .824.28c.32.117.629.288.928.512s.555.507.752.864.296.811.296 1.36a3.13 3.13 0 0 1-.32 1.432c-.208.421-.504.776-.888 1.064s-.824.507-1.336.656c-.507.155-1.061.232-1.664.232zm11.535-.24l-3.328-11.52h1.224l2.696 9.512 2.68-9.504 1.232-.008 2.696 9.512 2.68-9.512h1.232L196.9 188h-1.184l-2.72-9.448-2.704 9.448h-1.184zm15.151.24c-.858 0-1.592-.195-2.2-.584s-1.074-.928-1.4-1.616-.488-1.477-.488-2.368c0-.907.166-1.701.496-2.384s.8-1.213 1.408-1.592c.614-.384 1.342-.576 2.184-.576.864 0 1.6.195 2.208.584.614.384 1.08.92 1.4 1.608.326.683.488 1.469.488 2.36 0 .907-.162 1.704-.488 2.392a3.73 3.73 0 0 1-1.408 1.6c-.613.384-1.346.576-2.2.576zm0-1.128c.96 0 1.675-.317 2.144-.952s.704-1.469.704-2.488c0-1.045-.237-1.877-.712-2.496-.469-.619-1.181-.928-2.136-.928-.645 0-1.178.147-1.6.44a2.61 2.61 0 0 0-.936 1.208c-.202.512-.304 1.104-.304 1.776 0 1.04.24 1.875.72 2.504s1.187.936 2.12.936zm5.861.888v-8.64h1.056v2.08l-.208-.272a2.95 2.95 0 0 1 .376-.704c.155-.219.323-.397.504-.536.224-.197.485-.347.784-.448.299-.107.6-.168.904-.184a2.78 2.78 0 0 1 .832.064v1.104c-.315-.08-.659-.099-1.032-.056a1.97 1.97 0 0 0-1.032.448c-.288.224-.504.493-.648.808-.144.309-.24.64-.288.992s-.072.691-.072 1.032V188h-1.176zm8.961.24c-.805 0-1.493-.2-2.064-.6s-1.008-.952-1.312-1.64-.456-1.464-.456-2.328.15-1.632.448-2.32c.304-.688.739-1.232 1.304-1.632s1.243-.6 2.032-.6c.811 0 1.494.197 2.048.592s.974.936 1.256 1.624c.288.683.432 1.461.432 2.336 0 .859-.141 1.635-.424 2.328-.282.688-.698 1.235-1.248 1.64s-1.221.6-2.016.6zm.12-1.096c.614 0 1.12-.149 1.52-.448s.699-.709.896-1.232.296-1.125.296-1.792c0-.677-.098-1.275-.296-1.792-.197-.523-.496-.931-.896-1.224-.394-.293-.893-.44-1.496-.44-.618 0-1.13.152-1.536.456s-.706.717-.904 1.24c-.192.523-.288 1.109-.288 1.76a5.07 5.07 0 0 0 .296 1.776c.203.523.504.936.904 1.24s.902.456 1.504.456zm2.712.856v-6.504h-.128v-5.016h1.184V188h-1.056z" fill="#000"/><g filter="url(#C)"><path d="M108 206h208v42a6 6 0 0 1-6 6H114a6 6 0 0 1-6-6v-42z" fill="#def3ff"/></g><path d="M130 221c-1.11 0-2 .89-2 2v14c0 1.11.89 2 2 2h14c1.11 0 2-.89 2-2v-14c0-1.11-.89-2-2-2h-14zm0 2h14v14h-14v-14zm2 2v2h10v-2h-10zm0 4v2h10v-2h-10zm0 4v2h7v-2h-7zm28.12 3v-11.52h4.448l.376.016c.144.005.288.021.432.048.603.091 1.112.301 1.528.632.421.325.739.736.952 1.232.219.496.328 1.045.328 1.648 0 .597-.109 1.144-.328 1.64s-.539.909-.96 1.24c-.416.325-.923.533-1.52.624l-.432.048-.376.016h-3.272V236h-1.176zm1.176-5.496h3.24l.336-.016a2.91 2.91 0 0 0 .376-.056c.395-.085.717-.248.968-.488a2.27 2.27 0 0 0 .568-.856c.128-.331.192-.675.192-1.032s-.064-.701-.192-1.032c-.123-.336-.312-.624-.568-.864s-.573-.403-.968-.488c-.123-.027-.248-.043-.376-.048l-.336-.016h-3.24v4.896zm8.64 5.496v-11.76h1.176V236h-1.176zm6.047.24c-.651 0-1.198-.117-1.64-.352s-.766-.547-.984-.936a2.55 2.55 0 0 1-.328-1.272c0-.469.093-.869.28-1.2a2.38 2.38 0 0 1 .776-.824 3.9 3.9 0 0 1 1.144-.488l1.448-.28 1.56-.216 1.344-.184-.416.256c.016-.853-.15-1.485-.496-1.896s-.95-.616-1.808-.616c-.592 0-1.094.133-1.504.4s-.691.688-.856 1.264l-1.144-.336c.197-.773.594-1.373 1.192-1.8s1.373-.64 2.328-.64c.789 0 1.458.149 2.008.448a2.48 2.48 0 0 1 1.176 1.28c.106.251.176.531.208.84s.048.624.048.944V236h-1.048v-2.168l.304.128c-.294.741-.75 1.307-1.368 1.696s-1.36.584-2.224.584zm.136-1.016c.549 0 1.029-.099 1.44-.296s.741-.467.992-.808c.25-.347.413-.736.488-1.168a4.41 4.41 0 0 0 .104-.912l.008-.752.448.232-1.304.16-1.376.184-1.216.248a3.26 3.26 0 0 0-.712.296 1.64 1.64 0 0 0-.568.496c-.144.208-.216.467-.216.776a1.55 1.55 0 0 0 .184.728c.128.235.33.429.608.584s.656.232 1.12.232zm6.442-9.504v-1.32h1.176v1.32h-1.176zm0 10.28v-8.64h1.176V236h-1.176zm9.815 0v-4.408c0-.48-.046-.92-.136-1.32a3.09 3.09 0 0 0-.44-1.056c-.198-.304-.456-.539-.776-.704s-.699-.248-1.152-.248c-.416 0-.784.072-1.104.216s-.582.352-.8.624-.376.592-.488.976-.168.821-.168 1.312l-.832-.184c0-.885.154-1.629.464-2.232s.736-1.059 1.28-1.368 1.168-.464 1.872-.464c.517 0 .968.08 1.352.24a2.91 2.91 0 0 1 .984.648c.272.272.49.584.656.936a4.58 4.58 0 0 1 .36 1.112c.074.389.112.779.112 1.168V236h-1.184zm-6.248 0v-8.64h1.064v2.128h.12V236h-1.184zm15.775 0v-10.392h-4.024v-1.128h9.224v1.128h-4.024V236h-1.176zm8.857.24c-.842 0-1.573-.187-2.192-.56-.613-.373-1.09-.899-1.432-1.576s-.512-1.472-.512-2.384c0-.944.168-1.76.504-2.448s.808-1.219 1.416-1.592c.614-.373 1.336-.56 2.168-.56.854 0 1.582.197 2.184.592.603.389 1.059.949 1.368 1.68s.451 1.603.424 2.616h-1.2v-.416c-.021-1.12-.264-1.965-.728-2.536-.458-.571-1.13-.856-2.016-.856-.928 0-1.64.301-2.136.904-.49.603-.736 1.461-.736 2.576 0 1.088.246 1.933.736 2.536.496.597 1.198.896 2.104.896.619 0 1.158-.141 1.616-.424.464-.288.83-.701 1.096-1.24l1.096.424c-.341.752-.845 1.336-1.512 1.752-.661.411-1.41.616-2.248.616zm-3.304-4.232v-.984h6.6v.984h-6.6zm7.735 3.992l3.376-4.368-3.304-4.272h1.408l2.584 3.368 2.56-3.368h1.408l-3.304 4.272 3.384 4.368h-1.416l-2.632-3.464-2.648 3.464h-1.416zm14.102 0c-.486.101-.966.141-1.44.12a3.19 3.19 0 0 1-1.264-.304c-.368-.181-.648-.464-.84-.848-.155-.32-.24-.643-.256-.968l-.016-1.128v-7.912h1.168v7.864l.008.912c.01.24.066.453.168.64.192.357.496.571.912.64s.941.053 1.56-.048V236zm-5.664-7.632v-1.008h5.664v1.008h-5.664z" fill="#000"/><path d="M291.858 220.91c2.127-1.393 3.152-.744 4.923 1.308l3.618 4.479.435.559 3.207 4.284c.866 1.445 1.569 3.036 2.649 4.297.867 1.003.842 2.648 2.292 3.182.073.023.113.196.14.317.176.697.033 1.337-.527 1.684-.545.335-1.19.346-1.673-.313-.266-.348-.49-.73-.695-1.107l-1.315-2.596c-.352-.647-.813-1.211-1.181-1.855-1.689-2.888-3.878-5.395-5.885-8.035l-3.149-4.024c-.331-.407-.692-.909-1.246-.5l-2.464 2.006 2.774 5.148 4.384 9.033 4.44 9.356c.838 1.81 1.689 3.636 1.587 5.692-.102 1.984-1.081 3.327-2.984 3.498-1.229.101-2.412-.23-3.575-.736l-4.332-1.895c-1.136-.611-1.728-.555-2.099.658-.324 1.006-.53 2.045-.761 3.088-.129.628-.507 1.401-.264 1.869.259.539 1.077.802 1.651 1.192 1.325.918 2.483 2.074 3.985 2.761.868.407 1.586 1.167 2.411 1.682.704.438 1.485.726 2.19 1.164l5.409 3.516 4.082 2.518c.611.473.917.399 1.347.04.566-.465 1.063-1.053 1.714-1.371l4.732-2.109c2.283-1.08 4.273-2.737 6.856-3.25 2.305-.462 4.394-1.686 6.844-1.661.522.012 1.025-.171 1.573-.272l.062-.922-.12-8.676c-.055-1.811-.037-3.635-.341-5.417-.439-2.524-1.055-5.006-2.115-7.415-.954-2.131-1.8-4.274-3.575-5.893-.15-.134-.291-.307-.369-.499a.87.87 0 0 1 .002-.515c.021-.058.298-.037.416.032l2.221 1.374-.02-.014c.064.06.125.103.174.166 1.471 1.783 2.415 3.871 3.288 5.982 1.751 4.21 2.39 8.545 2.336 12.98-.039 2.63.046 5.247.076 7.882.003.162.063.349.092.479.75.186 1.543.265 2.181.598.826.451.679 1.334.636 2.117-.331.755-.012 1.445.219 2.159.432 1.299 1.08 2.532.874 3.985-.137 1.044-.423 1.917-1.285 2.581l.767.714c-.054.885-.038 1.702-.193 2.479-.06.335-.383.674-.682.856-1.017.584-2.112 1.084-3.125 1.686-.578.341-1.122.793-1.595 1.295-.718.773-.943.832-1.911.137-.636.46-1.251 1.015-1.968 1.418-1.887 1.06-3.841 2.016-5.725 3.094-.565.321-.87.107-1.283-.511-.637.532-1.291.987-1.826 1.554-1.344 1.429-3.134 2.021-4.893 2.599-1.117.368-1.928-.464-2.464-1.546-.839-1.738-.037-3.265-.216-4.873-.128-1.157-.088-2.327-.348-3.469-.144-.631-.645-1.26-1.121-1.74-1.25-1.265-1.727-2.682-1.242-4.556l-3.754-1.822c-3.193-1.789-6.475-3.446-9.578-5.441-1.758-1.136-3.786-1.888-5.221-3.588-.331-.407-.952-.554-1.415-.865-.611-.401-1.228-.792-1.761-1.297-.568-.553-.691-1.315-.497-2.035.462-1.744.947-3.465 1.487-5.17.278-.835.617-1.664 1.068-2.414.374-.637.997-.969 1.788-.601.382.182.855.275 1.173.55 1.295 1.085 2.79 1.666 4.338 2.146.757.293 1.483.636 2.24.857 1.394.4 2.142-.017 2.215-1.23.029-.771-.028-1.617-.297-2.351-.555-1.538-1.243-3.025-1.937-4.501-.928-1.938-1.908-3.848-2.882-5.768l-1.517-2.883-2.171-4.332c-.125-.247-.272-.517-.413-.762l-1.426-3.233-1.86-5.281-.035-1.724 2.435-1.983z" fill="#020202"/><path d="M329.388 236.669l-2.234-1.38c-.119-.068-.394-.072-.419-.031-.05.154-.072.357-.002.516.077.185.219.358.372.502 1.789 1.607 2.654 3.747 3.595 5.918 1.075 2.418 1.696 4.911 2.129 7.447.306 1.791.292 3.64.343 5.441l.122 8.714c.006.325-.044.633-.063.926-.55.102-1.057.286-1.582.274-2.468-.043-4.565 1.205-6.883 1.669-2.598.515-4.607 2.181-6.895 3.264l-4.759 2.119c-.639.317-1.138.907-1.724 1.377-.442.353-.751.428-1.354-.04-1.275-.969-2.753-1.664-4.107-2.528l-5.441-3.532c-.708-.439-1.494-.729-2.202-1.168-.831-.526-1.554-1.289-2.425-1.689-1.486-.695-2.669-1.862-4.008-2.773-.578-.392-1.392-.658-1.661-1.196-.228-.474.127-1.246.265-1.878l.766-3.102c.397-1.223.984-1.277 2.11-.661 1.396.747 2.916 1.254 4.358 1.903 1.171.517 2.351.842 3.595.739 1.918-.154 2.907-1.523 3.001-3.514.103-2.065-.753-3.899-1.596-5.717l-4.467-9.396-4.41-9.072-2.791-5.171 2.478-2.014c.565-.412.919.084 1.254.502l3.167 4.041c2.029 2.659 4.219 5.161 5.92 8.07.37.646.834 1.213 1.188 1.863.467.846.868 1.74 1.323 2.607.206.378.435.78.699 1.111.49.643 1.134.651 1.682.314.565-.339.708-.99.531-1.691-.028-.121-.084-.292-.141-.318-1.451-.538-1.434-2.189-2.306-3.195-1.086-1.267-1.789-2.848-2.664-4.316.535.281 1.131.488 1.575.895.654.577 1.243.83 1.969.37.224.457.486.254.746.08.701.033 1.38.678 2.069.134 1.353.936 2.678 1.896 3.325 3.569.376.971.863 1.905 1.264 2.872.268.647.648.885 1.278.606.564-.267.656-.764.431-1.302-.803-1.789-1.371-3.712-2.779-5.191 1.532-.644 3.135-.976 4.828-.728.192.092.5.125.585.273.576 1.025 1.165 2.066 1.67 3.15.474 1.026.812 2.131 1.28 3.167.248.561.758.956 1.306.656.498-.255.595-.807.3-1.423l-2.624-5.418c1.719-.498 3.304.703 4.992.744 1.397.041 2.499 1.151 3.021 2.611z" fill="#fdfdfd"/><path d="M295.227 238.833l1.473 2.851 2.798 5.704 1.88 4.45c.261.726.315 1.562.287 2.325-.049 1.194-.777 1.606-2.157 1.214-.752-.216-1.466-.555-2.178-.849.299-.145.587-.306.897-.4.203-.055.429-.009.647-.032 1.244-.107 1.658-.737 1.253-2.033-.326-1.017-.812-2.004-1.063-3.053-.563-2.229-2.27-3.86-3.049-5.942-.316-.823-.433-1.718-.594-2.588-.123-.547-.147-1.104-.194-1.647z" fill="#f4f6fa"/><path d="M308.906 233.085c-.251.172-.523.367-.744-.08-.171-1.72 1.384-2.098 2.513-1.755 1.484.439 2.702 1.398 3.821 2.519 1.404 1.474 1.962 3.395 2.77 5.178.244.542.15 1.029-.43 1.299-.612.275-1.003.059-1.274-.605l-1.26-2.865c-.638-1.671-1.983-2.624-3.316-3.561-1.118-.895-1.482-.918-2.08-.13zm13.165.071l2.572 5.358c.307.614.19 1.137-.295 1.406-.55.281-1.043-.111-1.282-.648l-1.254-3.132c-.492-1.064-1.066-2.076-1.637-3.116-.083-.145-.377-.18-.574-.269-.239-.537-.199-.956.367-1.169.63-.224 1.352.143 1.694.804l.409.766z" fill="#050506"/><path d="M328.406 221.336a.87.87 0 0 1 .95 1.133l-2.067 4.679c-.079.177-.46.193-.714.276-.093-.253-.358-.593-.283-.787l1.757-4.919c.056-.164.274-.295.357-.382z" fill="#020305"/><path d="M334.269 225.621c.141.084.575.205.646.44.101.292.053.842-.151 1.008-1.042.935-2.169 1.766-3.26 2.637-.28.217-.618.747-.964.215-.184-.277-.214-1.014-.013-1.198 1.068-1.049 2.251-2.011 3.387-2.99.027-.033.093-.045.355-.112z" fill="#020306"/><path d="M335.938 234.32l-.168.031c-.451.01-1.043.436-1.256-.276-.065-.211.53-.702.899-.92a4.97 4.97 0 0 1 1.475-.571c.217-.041.645.195.746.408.098.205-.017.699-.185.805-.453.27-.984.388-1.491.575-.012-.016-.016-.034-.02-.052z" fill="#06152f"/><path d="M289.669 225.673l1.766 5.199c-.062.012-.121.041-.184.053-.858-1.647-1.543-3.362-1.582-5.252z" fill="#cdd8e9"/><path d="M292.279 221.967l-2.527 2.023c.048-1.247.958-1.953 2.527-2.023z" fill="#dde5f2"/><path d="M291.215 230.873c.063-.012.123-.041.187-.053l1.384 3.194c-.17-.164-.411-.279-.506-.484l-1.065-2.657z" fill="#d4deef"/><path d="M330.371 236.339c-.065-.06-.126-.102-.175-.165l.175.165z" fill="#fdfdfd"/><defs><filter id="A" x="101" y="58" width="222" height="62" filterUnits="userSpaceOnUse" class="B"><feFlood result="A" class="C"/><feColorMatrix in="SourceAlpha" values="0 0 0 0 0 0 0 0 0 0 0 0 0 0 0 0 0 0 127 0" result="B"/><feOffset dy="3"/><feGaussianBlur stdDeviation="3.5"/><feComposite in2="B" operator="out"/><feColorMatrix values="0 0 0 0 0 0 0 0 0 0 0 0 0 0 0 0 0 0 0.1 0"/><feBlend in2="A"/><feBlend in="SourceGraphic"/></filter><filter id="B" x="101" y="106" width="222" height="158" filterUnits="userSpaceOnUse" class="B"><feFlood result="A" class="C"/><feColorMatrix in="SourceAlpha" values="0 0 0 0 0 0 0 0 0 0 0 0 0 0 0 0 0 0 127 0" result="B"/><feOffset dy="3"/><feGaussianBlur stdDeviation="3.5"/><feComposite in2="B" operator="out"/><feColorMatrix values="0 0 0 0 0 0 0 0 0 0 0 0 0 0 0 0 0 0 0.1 0"/><feBlend in2="A"/><feBlend in="SourceGraphic"/></filter><filter id="C" x="101" y="202" width="222" height="62" filterUnits="userSpaceOnUse" class="B"><feFlood result="A" class="C"/><feColorMatrix in="SourceAlpha" values="0 0 0 0 0 0 0 0 0 0 0 0 0 0 0 0 0 0 127 0" result="B"/><feOffset dy="3"/><feGaussianBlur stdDeviation="3.5"/><feComposite in2="B" operator="out"/><feColorMatrix values="0 0 0 0 0 0 0 0 0 0 0 0 0 0 0 0 0 0 0.1 0"/><feBlend in2="A"/><feBlend in="SourceGraphic"/></filter><clipPath id="D"><path fill="#fff" transform="rotate(20.708 -255.419 211.81)" d="M0 0h165.145v165.145H0z"/></clipPath><clipPath id="E"><path fill="#fff" transform="scale(-1 1) rotate(29.981 -173.292 -646.724)" d="M0 0h180.048v180.048H0z"/></clipPath></defs></svg>