<svg xmlns="http://www.w3.org/2000/svg" width="193" height="188" fill="none"><g clip-path="url(#A)"><path d="M113.256 80.78l7.568 4.097c1.14.749 2.304 1.915 3.376 2.615 2.981 1.943 8.363 4.622 10.71 7.052 3.253 3.367-1.304 8.061-2.472 11.219-.565 1.535-.775 3.296-1.335 4.861-.87 2.438-2.182 4.101-3.491 6.236s-2.557 4.52-3.858 6.618c-5.654 9.116-12.517 17.737-18.04 26.971-4.345 7.261-7.202 16.716-12.003 23.484-.761 1.072-2.002 2.201-2.716 3.273-1.706 2.562-2.572 6.358-4.257 8.77-1.162 1.661-3.161 2.195-5.101 1.979-4.344-.482-14.439-7.899-18.687-10.42-13.035-7.737-26.491-14.879-39.269-23.011-3.526-2.243-8.357-5.2-11.578-7.681-1.277-.984-2.096-1.445-1.944-3.19.191-2.209 4.735-8.322 6.01-10.883.776-1.561 1.222-3.337 2.133-4.921 1.069-1.86 2.625-3.395 3.824-5.158s2.015-3.781 3.041-5.618c1.228-2.194 2.428-4.696 3.644-6.831 5.268-9.266 11.471-18.418 16.898-27.682 1.689-2.884 3.275-5.828 4.749-8.826 5.808 6.593 14.519 8.279 22.985 7.086 3.757 2.511 7.42 5.476 11.949 6.473 9.388 2.062 20.657.096 27.865-6.514zm-63.528 31.614c-1.114 1.415-2.182 2.028-.371 3.32 3.991 2.843 9.33 5.008 13.524 7.666 1.23.557 1.98-1.181 2.334-2.116l-.797-.698-14.69-8.172zm18.366 3.764c.204.234 5.108 3.029 5.418 3.05 1.048.073 2.649-1.808 1.584-2.66-.448-.356-5.159-3.059-5.472-3.106-1.085-.162-2.18 1.96-1.53 2.716zm22.365.309c-1.027.758-1.509 1.288-1.393 2.598.129.462 1.003.521 1.402.745 2.763 1.555 5.641 3.427 8.453 4.817.714.354 2.779 1.403 3.401 1.537.962.209 1.959-1.366 2.111-2.197l-.174-.38-13.8-7.122v.002zm-11.99 2.127c-.889.26-1.95 2.675-.435 3.14 6.811 3.939 14.002 7.312 20.372 11.962.988.273 2.696-1.42 2.006-2.438-.248-.365-2.413-1.834-2.949-2.186-4.687-3.085-10.62-6.179-15.612-8.788-.72-.375-2.752-1.872-3.38-1.688l-.002-.002zm.641 12.715c.246-.179 1.147-1.652 1.14-1.97-.011-.444-.797-.76-1.145-.987-3.461-2.265-7.885-3.531-11.447-5.698-.859-.124-1.929 1.99-1.509 2.703.309.521 8.295 4.095 9.535 4.697.907.44 2.538 1.902 3.427 1.253l-.002.002zm-8.571 3.333L56.446 126.8c-.744-.39-2.379-.322-2.538.658-.019.117.641 1.319.512 1.787l14.401 8.085c.791-.367 2.499-1.791 1.717-2.686l.002-.002zm26.382 3.61c-.193-.331-2.729-1.185-3.318-1.497-2.902-1.532-5.939-4.116-8.845-5.493-1.725-.817-2.988-1.451-3.217 1.102-.131 1.452 1.901 1.774 3.059 2.472 2.54 1.535 7.544 5.256 10.176 5.886 1.159.278 2.651-1.612 2.148-2.47h-.002zm-4.983 10.113c.412-.487.954-.984.712-1.689-6.042-3.746-12.264-7.457-18.825-10.288l-1.046-.068c-.367.717-1.168 2.171-.465 2.856.3.293 3.438 1.467 4.16 1.834 4.794 2.43 9.407 5.301 14.079 7.981.589.288 1.061-.239 1.387-.626h-.002zm-38.406-2.335c.984.612 1.532.094 2.362.147 1.556.098 2.508 2.327 3.483 2.434 1.093.121 4.019-1.843 3.311-3.045s-3.811-3.478-5.146-3.847c-2.383-.66-2.015-.563-4.109-1.672a66.22 66.22 0 0 0-3.712-1.823c-.504.387-.757 1.008-1.097 1.467-.142.192-.519.258-.63.444-.12.199-.345 1.695-.232 1.915.369.7 3.451 2.067 4.265 2.6.499.327 1.108 1.138 1.502 1.382l.002-.002zm16.795 3.341c-1.042-1.219-2.45-.675-3.592-1.01-.529-.156-1.526-1.243-1.995-1.151-1.093.995-2.13 1.559-2.501 3.081.433 1.168 1.899 2.321 3.161 2.6.463.103 1.247-.06 1.517.094.064.036.529.961.789 1.241 1.914 2.062 4.825.45 6.329 2.235.431.512.519 1.215 1.059 1.721 1.732 1.626 5.51.819 6.584 2.088.679.804.787 2.026 2.274 2.54 1.974.683 3.103-.54 3.489-2.385.502-2.401-.641-1.398-1.562-1.991-.193-.124-.684-1.258-.988-1.578-.217-.229-1.517-1.164-1.807-1.296-.984-.448-4.685-.749-4.93-.961-.094-.081-.101-.482-.261-.692-1.258-1.641-3.148-2.894-5.266-3.11-.529-.053-1.219.324-1.663.028-.371-.25-.324-1.091-.637-1.456v.002zm4.587 14.007c-.191-.141-.561-1.407-1.59-1.941-1.663-.862-2.19.231-2.994.013-.502-.134-.754-.931-1.121-1.249-2.274-1.987-3.354-1.118-5.3-1.979-.405-.179-.587-.557-.952-.76-.934-.521-4.932-2.831-5.712-2.577-.883 1.142-1.841 1.745-1.822 3.301a.9.9 0 0 0 .337.743c.677.66 3.451 1.736 4.492 2.297.72.386 1.114 1.01 2.062 1.362 1.1.41 2.521.237 3.346.724 1.025.604.765 2.152 2.225 2.908 1.211.627 1.935.275 3.148-.043.013.382-.024 1.065.197 1.366.141.195.474.075.602.173.195.152.141.577.322.758.435.442 1.901.203 2.525.263-.469 1.543 3.433 2.113 4.201 1.516.645-.506.375-4.159.081-5.033-.249-.736-1.513-1.919-2.263-2.034-.529-.081-1.545.363-1.779.19l-.004.002z" fill="#196ffe"/><path d="M129.116 29.755c.011 1.533.551 3.781.641 5.446.082 1.522-.081 3.07.002 4.588-3.733-2.728-7.716-5.152-12.009-6.932-1.294-.536-2.647-1.033-4.023-1.33-1.5-.324-6.77-.922-7.878-.288-1.389.794-1.301 2.511-3.222 2.769-2.257.303-1.817-.459-3.084-1.802C87.594 19.541 76.507 9.347 57.704 12.743c-8.209 1.484-12.695 3.856-19.32 8.723-7.495 5.504-11.302 13.392-11.726 22.692-.037.809-.124 3.845.12 4.381.043.094.954 1.025 1.057 1.082 1.417.811 3.339-.762 4.833-.865-.377 1.29 1.078 2.671.534 3.839-.122.263-.613.544-.84.873-.199.29-.189.786-.39 1.001-.422.451-2.546.939-3.238 1.362-.302.184-1.511 1.339-1.595 1.614-.474 1.584.917 3.664 1.192 5.13.118.636-.045 1.281.062 1.859.114.613.6 1.292.617 1.96.024.965-1.252 1.691-1.614 2.624-.502.384-2.34.662-2.876.342-.309-.186-1.307-3.042-1.507-3.623-.675-1.973-.994-6.298-4.22-5.073-1.582.602-8.226 7.517-9.454 9.157-1.395 1.866-3.039 6.817-3.249 9.146-.639 7.101.39 12.718 4.032 18.822 4.334 7.264 10.946 9.932 18.683 12.454-1.215 2.135-2.416 4.637-3.644 6.831-4.325-1.782-9.469-3.134-13.357-5.802C6.211 107.43.533 93.267.092 86.648-.646 75.594 3.043 65.976 11.775 59.007c1.691-1.349 8.138-4.366 8.779-5.773.416-.914.028-6.475.103-8.01.354-7.357 3.346-16.943 8.16-22.615 3.575-4.214 15.83-11.936 21.103-13.779 6.631-2.321 17.502-4.116 24.378-2.927 12.733 2.201 20.171 10.438 29.038 18.898 3.485-.006 6.961-.604 10.467-.393 5.667.341 10.402 2.801 15.317 5.346h-.003z" fill="#010102"/><path d="M143.906 47.688c11.613.04 23.266-.574 34.821-.419 3.017.041 8.519-.158 11.22.779 1.393.483 2.54 2.235 2.775 3.64.491 2.923.283 8.898-.216 11.851-.114.666-1.305 5.122-1.588 5.303-.324.166-.673.175-1.029.205-5.864.495-13.061-.045-19.093-.017-2.289.011-4.618.309-6.957.222-3.294-.124-6.545-.574-9.859-.641-3.022-.06-6.001.201-9.002.214-1.92.009-4.061-.017-6.001 0-1.813.017-5.247.205-6.874-.305-.09-.028-1.526-.912-1.586-.982a29.07 29.07 0 0 1-.863-1.702c-.864-2.18-.011-6.029.115-8.424.14-2.63-.634-6.635 1.376-8.664 1.569-1.584 3.832-1.315 5.903-1.272l6.858.214v-.002zm15.218 4.91c-.804-.863-1.119-.666-2.135.115-.351.269-.306.692-.649.739-.007-.658.236-1.161-.566-1.206-.9-.049-2.158.184-3.198.149-1.991-.064-4.359-.924-5.845.976l.712 1.576h3.108c-.555 1.71-.039 3.525.008 5.22.039 1.364-.521 2.641.163 3.896.62 1.138 1.878.792 2.139-.301.725-3.012-.518-5.858.283-8.792.947-.186 2.195.363 2.87-.455.186-.226.219-.6.309-.717.45-.578.42.256.568.48.634.971 1.791 2.229 2.662 3.017.12.109.188.374.428.427.058.485.305.636.058 1.219-.394.931-2.85 3.258-3.024 3.845-.187.632.212 1.178.426 1.734 1.439.882 3.61-3.179 4.364-4.02l2.463 2.346.429.427c.585 1.736 2.436 1.849 2.571-.214.009-.132.018-.301 0-.427-.177-1.266-1.478-2.15-2.357-2.989-.187-.177-.292-.549-.643-.64-.161-.48-.647-.924-.647-1.17 0-.213.486-.88.647-1.178.075-.137.206-.25.214-.427.36.041.695-.841.858-1.067.117-.162.141-.307.214-.427.675-1.116 1.17-1.008.641-2.775-1.608-.015-2.523 1.283-3.213 2.562-.075.137-.206.25-.214.427-.294.028-.643.542-.648.852h-.42c-.366-1.085-1.442-1.802-2.147-2.56-.118-.126-.217-.414-.429-.64zm17.575-.427h-7.609c-.876 0-1.783.973-1.56 1.979.302 1.366 2.148.619 3.17.794-.214 2.028.366 4.103.441 6.082.028.758-.3 1.447-.225 2.116.18 1.605 1.929 2.047 2.45.544.907-2.62-.446-6.001-.096-8.742 2.428.175 4.098.126 3.431-2.773h-.002zm-40.939 8.755l-2.997-1.924.033 1.035c.833.256 1.506.709 2.37.946.204.056.643.354.594-.058zm32.58 4.481c-1.597-.006-3.228-.064-4.824 0-.29.011-.892-.177-.751.318.078.267 4.945.111 5.575.109 1.458-.006 2.939.058 4.396 0 .289-.011.892.177.75-.318-.071-.246-4.548-.107-5.146-.109z" fill="#f7f191"/><path d="M152.22.141c3.701-.446 7.405.292 11.072.374 8.076.175 16.949-.587 24.879-.017 2.238.16 3.627.89 4.428 3.061.821 2.225.026 4.774-.051 7.079-.142 4.212 1.324 10.707-4.591 11.226-1.37.12-2.626-.216-3.856-.231-11.235-.137-22.436.158-33.667.213-4.968.026-10 .397-14.99.006-4.085-.32-5.804-1.669-6.119-5.86-.38-5.041.122-10.822 2.025-15.506l20.874-.344-.004-.002zm1.331 3.781c.658.006 5.919.179 6.003-.109.144-.495-.461-.307-.75-.318-1.738-.07-3.515-.009-5.253 0-1.64.006-3.29-.006-4.93 0 .081.389.422.397.742.433 1.234.139 2.887-.019 4.188-.009v.002zm17.789 8.967h4.394c.915 0 .956-1.924.746-2.558-1.715-.145-3.428-.436-5.14-.004V7.979c2.358-.094 6.569 1.319 5.568-2.558-.188-.196-4.653.117-5.478.015-.409-.051-.244-.734-1.224-.399-.062.021-1.117.608-1.166.653-.804.717.114 8.736-.066 10.303.338.978.343 2.073 1.562 1.763 1.711-.435.879-3.546.8-4.863l.004-.004zm-13.878 4.217c.304.295 1.134.297 1.558.282.896-.032 3.087-.346 3.972-.538 5.037-1.089 5.433-8.457 1.869-11.063-1.411-1.031-7.202-.698-7.988.909-.191.389-.219 7.786-.112 8.653.045.361.487 1.548.701 1.755v.002zm-8.415-4.216c4.004.359 7.688-1.503 5.89-5.971-.377-.935-.671-1.332-1.729-1.48-1.162-.162-5.59-.038-6.195 1.05-.158 3.405-.818 7.111-.216 10.459l.317.538c2.874.724 1.713-2.867 1.933-4.594v-.002zm40.475-3.597l-2.962-1.097c.098.211.514.566.698.702.553.406 2.812 2.107 2.264.397v-.002z" fill="#f7f192"/><path d="M129.117 29.755c0-.224.198-1.862.264-2.193.026-.126 1.061-2.175 1.14-2.28.521-.666 2.362-1.213 3.207-1.29 7.475-.677 16.524.139 24.223.004l13.915-.213c5.686.021 12.497-.489 18.02-.017.333.028.886.036 1.119.273.341.341 1.402 4.654 1.522 5.423.433 2.786.793 9.951-.081 12.455-1.492 4.268-6.422 3.266-10.078 3.412-12.918.517-26.11-.243-39.107-.205-2.585.008-5.152.181-7.716.213-4.177.051-5.564-1.505-5.787-5.551-.083-1.518.08-3.066-.002-4.588-.09-1.665-.63-3.913-.641-5.446l.002.002zm39.866-2.775c-1.809-.011-3.659-.073-5.468 0-.289.011-.891-.177-.75.318.067.23 4.259.115 4.833.117.478.002.913-.22 1.385-.222 1.056-.006 2.458.265 3.753.213.289-.011.891.177.75-.318-.062-.216-3.957-.105-4.503-.109zm11.102 1.559c-1.104.09-3.474.397-3.599 1.77.174 1.753.333 3.55.436 5.308.064 1.095-.44 5.198.955 5.453.92.166 3.252-.079 4.231-.269 4.645-.897 6.576-4.727 4.411-8.982-1.348-2.652-3.54-3.518-6.436-3.281l.002.002zm-41.775.166c-.332-.237-2.325.722-2.295 1.328l3.279 10.399c.478.416 1.17.292 1.618-.1.521-.459 1.738-3.087 2.105-3.881.343-.741.411-1.77 1.099-2.212.118 1.633 2.748 9.639 4.651 5.378.727-1.627 3.11-7.769 3.352-9.274.099-.611-.083-1.055-.075-1.652-.96-.162-1.742.235-2.329.982l-2.17 6.275c-.548.085-.332-.049-.447-.301-.528-1.157-1.226-3.529-1.589-4.823-.173-.617-.257-1.277-.33-1.913-.846-.179-1.879.235-2.302.995-.827 1.492-1.326 4.054-2.184 5.724-.103.201-.122.506-.433.527-.589-2.5-.902-5.092-1.952-7.455l.002.004zm19.258.034c-2.06.346-4.971 2.498-5.423 4.633-.604 2.855 1.785 7.474 4.932 7.707 3.622.267 6.983-1.334 7.405-5.237.559-5.162-1.415-8.027-6.917-7.103h.003zm15.273 6.996c2.668-.147 2.837-5.613 1.41-6.637-.484-.348-4.79-.489-5.585-.408-3.483.359-2.98 2.622-2.907 5.45.028 1.091.137 2.722.251 3.807.06.566.384 2.541.825 2.805 2.881.73 1.687-3.012 1.505-4.59.364.047.949-.122 1.241.045.598.342 2.407 4.116 3.356 4.663.817.47 1.723-.09 1.831-.991.201-1.693-1.591-2.681-1.927-4.142v-.002zm-37.079-4.056c-.476-.041-2.459.596-2.356 1.17.082.457.485.196.707.07a9.45 9.45 0 0 0 1.649-1.238v-.002z" fill="#f6f091"/><path d="M135.334 163.187l4.117-1.981c.918-.296 2.336-.546 3.277-.369 1.196.224.273 2.995 1.601 3.209l-.019.405c-.677-.04-.264.652-.51 1.087-.114.201-.63.329-.859.641-.243.328-.223.824-.378 1.011-.141.173-2.269 1.356-2.803 1.798-3.2 2.662-3.303 5.611-5.592 8.521-.754.96-.817 1.663-2.388 1.891-.602.088-2.962.205-3.384-.013-1.181-.608-1.179-1.716-1.755-2.525-1.796-2.524-4.889-6.245-7.041-8.467-1.466-1.516-3.674-2.609-4.668-4.422-.36-.655-.975-2.062-.776-2.765.409-1.439 1.725-.984 2.596-1.475.332-.188.409-.581.709-.788.784-.544 3.665-.939 4.488-.465l4.379 3.854c-.249-2.577-.347-5.415-.221-8.015.114-2.336.712-4.774.864-7.039s-.405-6.123.096-8.025c.028-.105.913-1.112.98-1.147.473-.251 1.491-.136 1.869-.384.188-.122.263-.647.716-.888.525-.284 3.65-.905 4.061-.66.585.353.33 1.533.474 2.095 1.811 7.043-.669 14.408-.27 21.618.058 1.044.323 2.246.439 3.301l-.002-.003z" fill="#010101"/><path d="M163.838 69.251c1.541 3.574 2.567 7.84 3.152 11.697 1.921 12.675 2.997 21.544-6.044 31.644-8.554 9.558-15.511 10.999-28.081 11.525-3.136.13-6.034-.107-9.107-.639 1.301-2.098 2.522-4.438 3.858-6.618 1.719.122 3.57.724 5.255.85 2.799.211 12.845-.47 15.323-1.384 1.699-.625 7.971-6.876 9.434-8.535 1.646-1.866 3.132-3.969 3.914-6.349 1.653-5.039.313-16.076-.557-21.557-.8-5.041-3.56-7.805-7.004-11.277 3.313.066 6.564.517 9.859.641l-.002.002zm-20.575-24.125l.643 2.562-6.859-.213-1.5-2.135 7.716-.214z" fill="#020202"/><path d="M28.81 110.242c-7.737-2.522-14.351-5.188-18.683-12.454-3.642-6.104-4.67-11.721-4.032-18.821.21-2.329 1.854-7.282 3.249-9.146 1.226-1.64 7.87-8.555 9.454-9.157 3.224-1.228 3.543 3.098 4.22 5.073.199.583 1.198 3.437 1.507 3.623.536.32 2.375.043 2.876-.342.36-.933 1.637-1.659 1.614-2.624-.017-.668-.504-1.347-.617-1.96-.107-.579.056-1.223-.062-1.859-.274-1.467-1.665-3.546-1.192-5.13.081-.273 1.292-1.428 1.595-1.614.692-.423 2.816-.912 3.238-1.362.201-.216.191-.709.39-1.001.225-.329.716-.611.84-.873.544-1.168-.911-2.549-.534-3.839-1.494.102-3.416 1.676-4.833.865-.103-.058-1.014-.988-1.057-1.082-.244-.536-.157-3.574-.12-4.381.424-9.3 4.231-17.188 11.726-22.692 6.627-4.866 11.113-7.24 19.32-8.723 18.803-3.397 29.891 6.795 41.839 19.462 1.266 1.343.827 2.105 3.084 1.802 1.92-.258 1.832-1.975 3.221-2.769 1.108-.632 6.379-.036 7.879.288 1.376.297 2.726.794 4.023 1.33 4.293 1.781 8.275 4.204 12.009 6.932.223 4.046 1.61 5.602 5.787 5.551l1.5 2.135c-2.07-.043-4.334-.312-5.902 1.272-2.011 2.028-1.237 6.033-1.376 8.664-.127 2.395-.98 6.245-.116 8.424.075.19.804 1.629.864 1.702a21.97 21.97 0 0 0 1.586.982c1.626.512 5.06.322 6.873.305.045 1.371-1.354 4.076-1.282 5.218.011.158.993 2.857 1.083 2.987s.167.26.338.301c4.673.707 4.87-5.322 5.86-8.504 3.001-.013 5.98-.273 9.002-.213 3.444 3.469 6.205 6.236 7.004 11.277.871 5.48 2.21 16.518.558 21.557-.783 2.382-2.268 4.483-3.914 6.349-1.464 1.659-7.735 7.91-9.435 8.535-2.48.912-12.523 1.593-15.322 1.384-1.685-.126-3.535-.73-5.256-.85 1.308-2.135 2.622-3.798 3.492-6.236.557-1.565.767-3.328 1.335-4.861 1.166-3.158 5.725-7.853 2.471-11.219-2.347-2.427-7.728-5.109-10.71-7.052-1.074-.698-2.237-1.866-3.375-2.615-2.354-1.546-5.057-2.822-7.568-4.097.898-.824 1.153-1.477 1.708-2.462.201-.359.765-.858.831-1.11.255-.965-1.007-2.756-.611-3.898-1.811-.088-2.419 1.176-3.57 1.885-.553.342-1.117.346-1.556.585-.645.35-2.114 2.032-2.915 2.647-4.913 3.77-11.437 3.698-17.292 2.504-5.5-1.121-8.953-4.966-13.805-7.146-2.079.538-3.586.892-5.772.813-4.396-.16-9.298-1.842-12.641-4.701-.81-.692-3.899-4.199-4.505-4.281-.452-.06-1.98.327-2.394.579s-.564.833-1.02 1.138c-.525.352-1.856.48-1.993 1.2-.186.98 2.004 4.366 2.741 5.201-1.475 2.997-3.061 5.941-4.75 8.826-5.427 9.263-11.629 18.416-16.898 27.682l-.011-.002z" fill="#fefefe"/><path d="M50.458 73.735c-.737-.837-2.93-4.221-2.741-5.201.137-.719 1.468-.85 1.993-1.2.459-.305.598-.882 1.02-1.138s1.944-.638 2.394-.579c.609.081 3.695 3.589 4.505 4.281 3.346 2.857 8.247 4.539 12.641 4.701 2.186.079 3.693-.275 5.772-.813 4.85 2.18 8.305 6.027 13.805 7.146 5.856 1.194 12.378 1.264 17.293-2.504.801-.615 2.269-2.297 2.914-2.647.44-.239 1.004-.243 1.556-.585 1.151-.711 1.758-1.973 3.571-1.885-.396 1.142.866 2.936.611 3.898-.066.252-.63.751-.832 1.11-.553.986-.81 1.64-1.708 2.462-7.208 6.61-18.477 8.576-27.865 6.514-4.531-.995-8.194-3.962-11.949-6.473-8.464 1.191-17.176-.493-22.985-7.086h.004z" fill="#010203"/><path d="M74.916 163.378c.236.173 1.252-.271 1.779-.19.748.116 2.015 1.296 2.263 2.035.294.873.566 4.526-.081 5.032-.765.598-4.668.028-4.201-1.516-.624-.06-2.09.179-2.525-.263-.18-.181-.126-.606-.322-.757-.126-.099-.459.021-.602-.173-.221-.301-.184-.987-.197-1.367-1.215.318-1.94.669-3.148.043-1.46-.756-1.2-2.304-2.225-2.908-.823-.487-2.246-.316-3.346-.724-.947-.352-1.342-.975-2.062-1.362-1.042-.559-3.815-1.635-4.492-2.297-.238-.233-.332-.401-.337-.743-.019-1.554.939-2.156 1.822-3.3.78-.254 4.777 2.053 5.712 2.576.362.203.547.581.952.761 1.946.858 3.028-.011 5.3 1.979.364.32.619 1.114 1.121 1.249.806.217 1.331-.874 2.994-.013 1.029.533 1.4 1.799 1.59 1.94l.004-.002zm-4.587-14.007c.313.365.266 1.206.636 1.456.442.296 1.132-.081 1.663-.028 2.118.216 4.008 1.469 5.266 3.111.161.209.167.61.261.691.244.212 3.946.513 4.93.961.289.132 1.59 1.067 1.807 1.296.304.32.795 1.454.988 1.578.922.593 2.064-.41 1.563 1.992-.384 1.844-1.515 3.065-3.489 2.384-1.485-.514-1.592-1.735-2.274-2.54-1.074-1.268-4.853-.461-6.584-2.088-.538-.506-.626-1.209-1.059-1.721-1.503-1.785-4.415-.173-6.329-2.235-.259-.28-.724-1.204-.789-1.241-.268-.151-1.052.011-1.517-.094-1.262-.279-2.728-1.432-3.161-2.6.371-1.522 1.408-2.086 2.501-3.081.469-.089 1.466.997 1.995 1.151 1.142.335 2.548-.209 3.592 1.01v-.002z" fill="#fbfcfe"/><path d="M78.47 118.594c.63-.184 2.66 1.311 3.38 1.688 4.992 2.609 10.924 5.703 15.612 8.788.538.354 2.702 1.821 2.949 2.186.692 1.02-1.018 2.713-2.006 2.438-6.37-4.648-13.561-8.023-20.372-11.962-1.515-.468-.454-2.882.435-3.14l.002.002z" fill="#010305"/><path d="M53.534 146.029c-.392-.245-1.003-1.057-1.502-1.381-.815-.532-3.897-1.9-4.265-2.601-.116-.219.109-1.716.231-1.915.114-.185.489-.251.63-.444.341-.456.594-1.078 1.097-1.466l3.712 1.823c2.092 1.11 1.725 1.012 4.109 1.672 1.335.369 4.465 2.69 5.146 3.847s-2.218 3.166-3.311 3.044c-.977-.109-1.929-2.335-3.483-2.434-.83-.053-1.378.466-2.362-.147l-.002.002z" fill="#fafbfe"/><path d="M91.939 148.365c-.326.386-.797.913-1.387.625-4.672-2.679-9.287-5.553-14.079-7.98-.724-.367-3.86-1.542-4.16-1.834-.703-.683.099-2.139.465-2.857l1.046.069c6.561 2.831 12.783 6.541 18.825 10.288.244.704-.3 1.2-.712 1.689h.002zm-42.21-35.971l14.69 8.172.797.698c-.354.935-1.104 2.673-2.334 2.116-4.194-2.658-9.533-4.823-13.524-7.667-1.811-1.291-.744-1.904.371-3.319zm20.811 22.248c.782.896-.926 2.32-1.717 2.685l-14.401-8.084c.129-.468-.532-1.67-.512-1.787.156-.978 1.794-1.049 2.538-.658l14.094 7.842-.002.002zm26.382 3.61c.504.859-.986 2.75-2.148 2.47-2.63-.629-7.634-4.353-10.176-5.886-1.157-.698-3.189-1.02-3.059-2.472.229-2.553 1.492-1.919 3.217-1.101 2.906 1.377 5.941 3.96 8.845 5.493.589.311 3.125 1.165 3.318 1.496h.002zm-6.461-21.785l13.8 7.122.174.38c-.152.83-1.149 2.406-2.111 2.197-.622-.135-2.686-1.185-3.401-1.537-2.812-1.39-5.69-3.263-8.453-4.817-.397-.224-1.271-.284-1.402-.745-.116-1.311.367-1.84 1.393-2.598v-.002zm-11.349 14.842c-.889.649-2.523-.815-3.427-1.253-1.241-.602-9.227-4.176-9.535-4.697-.42-.713.651-2.824 1.509-2.703 3.564 2.165 7.988 3.433 11.447 5.699.347.226 1.134.542 1.145.986.009.318-.894 1.791-1.14 1.97l.002-.002zm-11.017-15.152c-.649-.754.446-2.878 1.53-2.716.313.047 5.022 2.748 5.472 3.107 1.065.849-.534 2.73-1.584 2.66-.311-.021-5.215-2.816-5.418-3.051z" fill="#010305"/><path d="M159.122 52.599l-.212.854h.534l.107-.213c.703.758 1.781 1.477 2.148 2.56h.42c.004-.31.353-.824.647-.852.019 0-.028.307.317.211.455-.359.528-.741-.103-.638.693-1.279 1.606-2.577 3.213-2.562.53 1.768.035 1.659-.641 2.775l-.107-.211h-.533v.638h.428c-.163.226-.497 1.108-.857 1.068-.028-.002.015-.329-.427-.214l.213.641c-.161.299-.648.965-.648 1.178 0 .245.489.69.648 1.17.12.361-.198 1.14.64 1.065v-.425c.879.839 2.182 1.723 2.36 2.989h-.426l-.003.318.431.109c-.135 2.062-1.987 1.949-2.572.213-.051-.152.035-.446 0-.638l-.426.211-2.463-2.346c-.752.843-2.925 4.902-4.364 4.02-.214-.555-.613-1.102-.426-1.734.173-.587 2.63-2.914 3.024-3.845.247-.583 0-.734-.058-1.219-.004-.038.356-.243.112-.427l-.431-.211-.109.211c-.868-.788-2.026-2.045-2.662-3.017-.146-.224-.118-1.059-.568-.48-.093.117-.123.491-.309.717-.675.818-1.92.269-2.87.455-.802 2.933.442 5.779-.283 8.792-.261 1.093-1.519 1.439-2.139.301-.684-1.253-.124-2.53-.163-3.896-.049-1.695-.563-3.51-.008-5.22h-3.108l-.712-1.576c1.486-1.902 3.854-1.042 5.845-.976 1.042.034 2.298-.196 3.198-.149.802.043.559.547.566 1.206.343-.047.298-.47.649-.739 1.016-.779 1.331-.976 2.135-.115h-.007z" fill="#060603"/><path d="M176.698 52.171c.668 2.899-1.004 2.948-3.432 2.773-.349 2.743 1.003 6.123.097 8.743-.521 1.505-2.27 1.063-2.45-.544-.075-.668.255-1.358.225-2.116-.075-1.981-.658-4.056-.442-6.082-1.022-.177-2.867.572-3.17-.794-.223-1.006.686-1.979 1.561-1.979h7.608.003z" fill="#090906"/><path d="M144.977 68.824c-.99 3.181-1.187 9.21-5.86 8.503-.171-.04-.246-.169-.339-.301s-1.071-2.829-1.082-2.987c-.073-1.142 1.327-3.845 1.282-5.218h6.001l-.002.002z" fill="#040404"/><path d="M168.339 65.408v.427c-.63.002-5.498.158-5.575-.109-.144-.495.461-.308.75-.318h4.825z" fill="#fefefe"/><path d="M168.34 65.408l5.146.109c.144.495-.461.308-.75.318-1.458.058-2.939-.006-4.396 0v-.427z" fill="#fbf8c3"/><path d="M135.758 60.927c.047.414-.39.115-.594.058-.863-.239-1.539-.689-2.37-.946l-.032-1.036 2.996 1.924z" fill="#fdfced"/><path d="M164.911 59.643v.425c-.841.075-.523-.705-.643-1.065.351.092.456.463.643.641zm-5.36-6.404l-.107.211h-.534l.212-.852c.213.226.311.515.429.641zm6.002 1.494c-.073.12-.096.265-.214.427h-.429v-.638h.534l.107.211h.002zm-2.573-.213c.63-.1.557.282.103.638-.347.096-.3-.213-.317-.211.008-.177.139-.29.214-.427zm-3.001 3.202c-.24-.053-.308-.318-.428-.427l.109-.211.431.211c.244.184-.116.389-.112.427zm4.502-1.494c-.008.177-.139.29-.214.427l-.212-.64c.443-.115.4.209.426.213zm-.213 6.618l.426-.211c.037.194-.049.487 0 .638l-.428-.427h.002zm2.999-.213c.017.126.008.295 0 .427l-.431-.109v-.316h.431v-.002zm-9.805-45.528c-.214-.207-.656-1.394-.701-1.755-.107-.867-.079-8.264.112-8.653.786-1.608 6.578-1.941 7.988-.909 3.564 2.607 3.17 9.974-1.869 11.063-.887.192-3.078.504-3.972.538-.424.015-1.251.013-1.558-.282v-.002zm1.876-2.295c2.366-.6 5.234.213 5.371-3.094.141-3.399-2.566-4.592-5.577-3.728l.203 6.821h.003z" fill="#050503"/><path d="M149.047 12.888c-.219 1.727.941 5.316-1.934 4.594l-.317-.538c-.602-3.348.056-7.054.217-10.459.604-1.089 5.032-1.213 6.194-1.05 1.059.147 1.352.544 1.729 1.48 1.799 4.468-1.886 6.33-5.889 5.971v.002zm3.607-2.812c1.206-2.462-1.715-2.355-3.361-1.855l-.03 2.105 3.393-.25h-.002z" fill="#040402"/><path d="M171.341 12.888c.079 1.317.911 4.428-.8 4.863-1.219.312-1.224-.786-1.562-1.763.18-1.567-.74-9.586.066-10.303.05-.045 1.102-.632 1.166-.653.982-.335.815.348 1.224.399.825.102 5.288-.211 5.478-.015 1.001 3.877-3.21 2.464-5.57 2.558v2.348c1.712-.431 3.427-.139 5.142.004.21.634.169 2.558-.746 2.558h-4.394l-.004.004z" fill="#070704"/><path d="M153.551 3.495h5.253c.289.011.892-.177.75.318-.083.288-5.343.115-6.003.109v-.427z" fill="#fefefe"/><path d="M153.551 3.495v.427c-1.299-.011-2.954.145-4.188.009-.322-.036-.663-.045-.742-.433h4.93v-.002z" fill="#fbf8c3"/><path d="M189.521 9.291c.546 1.71-1.713.009-2.264-.397-.184-.135-.6-.491-.698-.702l2.962 1.097v.002z" fill="#fdfced"/><path d="M138.309 28.704c1.053 2.363 1.366 4.955 1.953 7.455.308-.021.33-.327.433-.527.855-1.672 1.354-4.231 2.184-5.724.422-.76 1.455-1.174 2.302-.995.073.634.156 1.296.33 1.913l1.588 4.823c.114.252-.101.386.448.301l2.169-6.275c.587-.747 1.37-1.144 2.33-.982-.009.596.173 1.04.075 1.652-.242 1.505-2.626 7.647-3.352 9.274-1.906 4.261-4.536-3.745-4.651-5.378-.691.442-.757 1.471-1.1 2.212-.366.792-1.584 3.422-2.105 3.881-.445.393-1.14.519-1.618.1l-3.279-10.399c-.03-.606 1.963-1.567 2.295-1.328l-.002-.004zm19.258.034c5.502-.924 7.474 1.941 6.917 7.103-.423 3.903-3.783 5.504-7.406 5.237-3.146-.233-5.536-4.851-4.931-7.707.452-2.135 3.36-4.287 5.422-4.633h-.002zm.433 2.566c-1.204.16-3.153 1.108-3.365 2.41-.302 1.853 1.417 4.413 3.299 4.588s3.236.117 3.87-1.928c1.001-3.222-.182-5.553-3.806-5.07H158z" fill="#060603"/><path d="M172.841 35.735c.336 1.46 2.128 2.449 1.927 4.142-.108.901-1.014 1.462-1.831.991-.949-.547-2.758-4.323-3.356-4.663-.292-.167-.877 0-1.241-.045.182 1.578 1.374 5.32-1.505 4.59-.441-.265-.765-2.239-.825-2.805l-.251-3.807c-.075-2.829-.578-5.092 2.907-5.45.797-.081 5.101.06 5.585.408 1.427 1.025 1.258 6.492-1.41 6.637v.002zm-.215-4.272h-4.286v1.921h3.965c.559-.455.261-1.277.321-1.921z" fill="#060604"/><path d="M180.085 28.537c2.895-.237 5.088.63 6.436 3.281 2.163 4.255.234 8.085-4.411 8.982-.979.19-3.313.435-4.231.269-1.395-.254-.891-4.357-.956-5.453a132.92 132.92 0 0 0-.435-5.307c.125-1.375 2.493-1.68 3.599-1.77l-.002-.002zm-.815 3.245c.114 1.996 0 4.172 0 6.191 0 .032.227.529.354.549 1.522-.444 3.89.021 4.835-1.571 1.865-3.143-2.377-6.655-5.403-5.7-.081.222.21.442.214.532z" fill="#050503"/><path d="M168.982 26.979v.213c-.472.002-.907.224-1.385.222-.574-.002-4.767.113-4.833-.117-.144-.495.461-.308.75-.318h5.468z" fill="#fefefe"/><path d="M168.982 26.979l4.504.109c.143.495-.461.307-.751.318-1.294.051-2.696-.22-3.753-.213v-.213z" fill="#fbf8c3"/><path d="M135.762 31.679a9.46 9.46 0 0 1-1.649 1.238c-.225.126-.628.386-.707-.07-.101-.572 1.88-1.208 2.356-1.17v.002z" fill="#fdfced"/><path d="M159.336 14.81l-.203-6.821c3.009-.865 5.718.331 5.577 3.728-.14 3.307-3.005 2.494-5.371 3.094h-.003z" fill="#f2ec8e"/><path d="M152.655 10.076l-3.393.25.03-2.105c1.648-.5 4.567-.608 3.36 1.855h.003z" fill="#efe98c"/><path d="M158 31.305c3.623-.483 4.806 1.849 3.807 5.07-.635 2.045-1.914 2.111-3.871 1.928s-3.601-2.735-3.298-4.588c.212-1.302 2.16-2.25 3.365-2.41H158zm14.626.158c-.06.645.238 1.467-.321 1.921h-3.965v-1.921h4.286z" fill="#f4ee8f"/><path d="M179.27 31.783c-.005-.092-.296-.31-.215-.532 3.027-.952 7.268 2.558 5.404 5.7-.946 1.593-3.314 1.127-4.836 1.571-.126-.019-.353-.517-.353-.549v-6.191z" fill="#f3ed8f"/></g><defs><clipPath id="A"><path fill="#fff" d="M0 0h193v188H0z"/></clipPath></defs></svg>