<svg width="50" height="19" viewBox="0 0 50 19" fill="none" xmlns="http://www.w3.org/2000/svg"><g clip-path="url(#A)"><path d="M26.526.518h-5.147L13.58 18.556h5.147L26.526.518zm-6.048 0h-4.669l-3.74 8.701.478-8.701h-4.72L0 18.556h4.696l3.767-8.673-.478 8.673h4.669L20.478.518zm12.096 0h-5.04l-7.799 18.038h5.04l3.262-7.559v7.559h14.164l1.882-4.349h-4.19l1.194-2.759h3.819l1.751-4.032h-3.819l1.115-2.573h4.191L50 .518h-9.124l-7.559 17.426-.503-8.646L40.37.518h-4.961l-5.783 6.871L32.574.518z" fill="#6b6b6c"/></g><defs><clipPath id="A"><path fill="#fff" transform="translate(0 .518)" d="M0 0h50v18.038H0z"/></clipPath></defs></svg>