<svg version="1.1" id="Layer_1" xmlns="http://www.w3.org/2000/svg" x="0" y="0" viewBox="0 0 308.3 338.2" xml:space="preserve"><g id="Group_2559" transform="translate(-961.708 -2535)"><path d="M6352,2211.9v225.5c-30.4,33-74,53.7-122.5,53.7c-61.1,0-114.5-32.9-143.5-82c-5.6-9.4-10.3-19.5-13.9-30 c-0.1-0.2-0.2-0.4-0.2-0.7c-5.8-16.9-8.9-35-8.9-53.8c0-31.3,8.6-60.5,23.6-85.5c12.8-21.3,30.1-39.4,50.7-53.2 c15.8-10.5,33.5-18.4,52.4-23.1c12.8-3.1,26.1-4.8,39.8-4.8c26,0,50.7,6,72.7,16.7c17.4,8.4,33.1,19.8,46.4,33.5 C6349.7,2209.5,6350.9,2210.7,6352,2211.9z" fill="#fd9500" transform="translate(-5082 382)" id="Mask_Group_6"/><path id="card-account-details-outline" d="M1171.3,2666l-1.5,14.1l56.5,6l1.5-14.1L1171.3,2666z M1174.3,2637.8 l-1.5,14.1l84.8,8.9l1.5-14.1L1174.3,2637.8z M1177.3,2609.5l-1.5,14.1l84.8,9l1.5-14.1L1177.3,2609.5z M1106.6,2602 c-19.5-2.1-37,12.1-39.1,31.6c-2.1,19.5,12.1,37,31.6,39.1s37-12.1,39.1-31.6C1140.3,2621.6,1126.2,2604.1,1106.6,2602z M1097.3,2690.4c-23.5-2.5-71.9,4.4-74.4,27.9l-1.9,17.7l141.3,14.9l1.9-17.7C1166.7,2709.7,1120.8,2692.8,1097.3,2690.4z M1177.3,2609.5l-1.5,14.1l84.8,9l1.5-14.1L1177.3,2609.5z M1174.3,2637.8l-1.5,14.1l84.8,8.9l1.5-14.1L1174.3,2637.8z M1171.3,2666l-1.5,14.1l56.5,6l1.5-14.1L1171.3,2666z M1097.3,2690.4c-23.5-2.5-71.9,4.4-74.4,27.9l-1.9,17.7l141.3,14.9l1.9-17.7 C1166.7,2709.7,1120.8,2692.8,1097.3,2690.4z M1106.6,2602c-19.5-2.1-37,12.1-39.1,31.6c-2.1,19.5,12.1,37,31.6,39.1 s37-12.1,39.1-31.6C1140.3,2621.6,1126.2,2604.1,1106.6,2602z M1106.6,2602c-19.5-2.1-37,12.1-39.1,31.6 c-2.1,19.5,12.1,37,31.6,39.1s37-12.1,39.1-31.6C1140.3,2621.6,1126.2,2604.1,1106.6,2602z M1097.3,2690.4 c-23.5-2.5-71.9,4.4-74.4,27.9l-1.9,17.7l141.3,14.9l1.9-17.7C1166.7,2709.7,1120.8,2692.8,1097.3,2690.4z M1171.3,2666l-1.5,14.1 l56.5,6l1.5-14.1L1171.3,2666z M1174.3,2637.8l-1.5,14.1l84.8,8.9l1.5-14.1L1174.3,2637.8z M1177.3,2609.5l-1.5,14.1l84.8,9 l1.5-14.1L1177.3,2609.5z M1004.6,2621.2l6.1-57.9l44.6,4.7l211.3,22.3l3.4,0.4v-28.6l-49.8-5.3l-112.5-11.9l-94-9.9 c-15.4-1.1-29.1,10-31.2,25.3l-20.9,197.8c-1.1,15.4,10,29.1,25.3,31.2l17.2,1.8l265.5,28c0.2,0,0.3,0,0.5,0v-28.5l-279.9-29.5 l-0.3,0l0.1-0.6L1004.6,2621.2z M1177.3,2609.5l-1.5,14.1l84.8,9l1.5-14.1L1177.3,2609.5z M1174.3,2637.8l-1.5,14.1l84.8,8.9 l1.5-14.1L1174.3,2637.8z M1171.3,2666l-1.5,14.1l56.5,6l1.5-14.1L1171.3,2666z M1097.3,2690.4c-23.5-2.5-71.9,4.4-74.4,27.9 l-1.9,17.7l141.3,14.9l1.9-17.7C1166.7,2709.7,1120.8,2692.8,1097.3,2690.4z M1106.6,2602c-19.5-2.1-37,12.1-39.1,31.6 c-2.1,19.5,12.1,37,31.6,39.1s37-12.1,39.1-31.6C1140.3,2621.6,1126.2,2604.1,1106.6,2602z M1177.3,2609.5l-1.5,14.1l84.8,9 l1.5-14.1L1177.3,2609.5z M1174.3,2637.8l-1.5,14.1l84.8,8.9l1.5-14.1L1174.3,2637.8z M1171.3,2666l-1.5,14.1l56.5,6l1.5-14.1 L1171.3,2666z M1097.3,2690.4c-23.5-2.5-71.9,4.4-74.4,27.9l-1.9,17.7l141.3,14.9l1.9-17.7 C1166.7,2709.7,1120.8,2692.8,1097.3,2690.4z M1106.6,2602c-19.5-2.1-37,12.1-39.1,31.6c-2.1,19.5,12.1,37,31.6,39.1 s37-12.1,39.1-31.6C1140.3,2621.6,1126.2,2604.1,1106.6,2602z" opacity=".8" fill="#fff"/></g></svg>