<svg xmlns="http://www.w3.org/2000/svg" width="286.904" height="253.324" viewBox="0 0 286.904 253.324"><g transform="translate(-888.254 -564.172)"><ellipse cx="121.308" cy="120.744" rx="121.308" ry="120.744" transform="translate(900.11 576.008)" fill="#e0f2ff"/><path d="M80.927,0A40.464,40.464,0,1,1,40.464,40.463,40.452,40.452,0,0,1,80.927,0M121.39,106.621c0,10.723-2.832,35.709-22.154,63.629l-8.194-48.86,9.509-19.018a174.705,174.705,0,0,0-19.625-1.214A174.706,174.706,0,0,0,61.3,102.373l9.509,19.018-8.194,48.86C43.3,142.33,40.464,117.344,40.464,106.621,16.287,113.7,0,126.448,0,141.622l14.27,40.464H149.133l12.721-40.464C161.854,126.448,145.669,113.7,121.39,106.621Z" transform="rotate(-2 18233.835 -25133.498)" fill="#5d9cfa"/><path d="M59.071,0c32.489,0,59.071,21.147,59.071,47.257S91.56,94.514,59.071,94.514A74.728,74.728,0,0,1,38.219,91.56C20.97,106.328,0,106.328,0,106.328,13.764,92.564,15.949,83.29,16.245,79.746,6.2,71.3,0,59.839,0,47.257,0,21.147,26.582,0,59.071,0M88.607,53.164V41.35H76.792V53.164H88.607m-23.628,0V41.35H53.164V53.164H64.978m-23.628,0V41.35H29.536V53.164Z" transform="rotate(12.04 -2149.507 5321.568)" fill="#fd9500"/><path d="M57.264,42.948h9.544a23.86,23.86,0,0,0-23.86-23.86v9.544A14.316,14.316,0,0,1,57.264,42.948m19.088,0H85.9A42.86,42.86,0,0,0,42.948,0V9.544a33.41,33.41,0,0,1,33.4,33.4m4.772,16.7a54.212,54.212,0,0,1-17.036-2.72,4.789,4.789,0,0,0-4.867,1.193l-10.5,10.5A72.042,72.042,0,0,1,17.275,37.174l10.5-10.5a4.789,4.789,0,0,0,1.193-4.867,54.212,54.212,0,0,1-2.72-17.036A4.772,4.772,0,0,0,21.474,0H4.772A4.772,4.772,0,0,0,0,4.772,81.124,81.124,0,0,0,81.124,85.9,4.772,4.772,0,0,0,85.9,81.124v-16.7A4.772,4.772,0,0,0,81.124,59.65Z" transform="rotate(-104 860.404 -19.309)" fill="#fd9500"/></g></svg>