<svg xmlns="http://www.w3.org/2000/svg" width="151.598" height="132.674" viewBox="0 0 151.598 132.674"><g transform="translate(.385 -7.083)"><ellipse cx="66.578" cy="66.337" rx="66.578" ry="66.337" transform="translate(8.437 7.083)" fill="#e0f2ff"/><path d="M40.686,0H6.781A6.772,6.772,0,0,0,.034,6.781L0,61.029,23.733,50.857,47.467,61.029V6.781A6.8,6.8,0,0,0,40.686,0Zm0,50.857L23.733,43.466,6.781,50.857V6.781h33.9Z" transform="rotate(-11 264.63 27.499)" fill="#498ef4"/><path d="M41.025,0H6.837a6.828,6.828,0,0,0-6.8,6.837L0,61.537,23.931,51.281,47.862,61.537V6.837A6.858,6.858,0,0,0,41.025,0Z" transform="rotate(9 -219.771 681.728)" fill="#498ef4"/><path d="M13.974,21.966v7.983L2,17.974,13.974,6v7.983H29.94V6L41.914,17.974,29.94,29.948V21.966Z" transform="translate(53.388 47.695)" fill="#fd9500"/></g></svg>