<svg xmlns="http://www.w3.org/2000/svg" width="227.607" height="217.991" viewBox="0 0 227.607 217.991"><g transform="translate(-862.393 -384.009)"><circle cx="98" cy="98" r="98" transform="translate(894 406)" fill="#e0f2ff"/><path d="M117.443,15.305a14.305,14.305,0,0,1,14.305,14.305V129.748a14.305,14.305,0,0,1-14.305,14.305H17.305A14.305,14.305,0,0,1,3,129.748V29.611A14.305,14.305,0,0,1,17.305,15.305H47.2a21.373,21.373,0,0,1,40.341,0h29.9m-50.069,0a7.153,7.153,0,1,0,7.153,7.153,7.153,7.153,0,0,0-7.153-7.153M31.611,43.916V29.611H17.305V129.748H117.443V29.611H103.137V43.916H31.611M67.374,58.221A14.305,14.305,0,1,1,53.069,72.527,14.305,14.305,0,0,1,67.374,58.221M38.763,115.443V108.29c0-7.868,12.8-14.305,28.611-14.305s28.611,6.437,28.611,14.305v7.153Z" transform="matrix(.998 .07 -.07 .998 934.603 382.802)" fill="#5d9cfa"/><path d="M5,0H30a0,0,0,0,1,0,0V20a0,0,0,0,1,0,0H5a5,5,0,0,1-5-5V5A5,5,0,0,1,5,0Z" transform="matrix(.998 -.07 .07 .998 914.169 562.37)" fill="#e52929"/><path d="M5,0H30a0,0,0,0,1,0,0V20a0,0,0,0,1,0,0H5a5,5,0,0,1-5-5V5A5,5,0,0,1,5,0Z" transform="matrix(-.998 .07 -.07 -.998 1056.287 572.46)" fill="#fff"/><path transform="matrix(.998 -.07 .07 .998 951.095 559.78)" fill="#fff" d="M0 0H30V20H0z"/><path transform="matrix(.998 -.07 .07 .998 988.021 557.19)" fill="#fff" d="M0 0H30V20H0z"/><path d="M45.689,45.689H37.151V20.076h8.538M37.151,54.227h8.538v8.538H37.151M57.343,3H25.5L3,25.5V57.343l22.5,22.5H57.343l22.5-22.5V25.5Z" transform="rotate(-13 2542.253 -3528.044)" fill="#fd9500"/></g></svg>