<svg xmlns="http://www.w3.org/2000/svg" width="289.086" height="241.175" viewBox="0 0 289.086 241.175"><ellipse cx="117.576" cy="117.029" rx="117.576" ry="117.029" transform="translate(16.256 7.117)" fill="#e0f2ff"/><path d="M7.412,7.412H18.53L25.941,0H48.177l7.412,7.412H66.707a7.412,7.412,0,0,1,7.412,7.412V59.295a7.412,7.412,0,0,1-7.412,7.412H7.412A7.412,7.412,0,0,1,0,59.295V14.824A7.412,7.412,0,0,1,7.412,7.412M37.059,18.53a18.53,18.53,0,1,0,18.53,18.53,18.53,18.53,0,0,0-18.53-18.53m0,7.412A11.118,11.118,0,1,1,25.941,37.059,11.118,11.118,0,0,1,37.059,25.941Z" transform="rotate(-7 475.565 -2.529)" fill="#5d9cfa"/><path d="M166.639,3H20.293A18.23,18.23,0,0,0,2,21.293V149.346a18.23,18.23,0,0,0,18.293,18.293H166.639a18.23,18.23,0,0,0,18.293-18.293V21.293A18.23,18.23,0,0,0,166.639,3M29.44,39.587H75.173v54.88H29.44V39.587m128.053,91.466H29.44V112.76H157.493v18.293m0-36.587H93.466V76.173h64.026V94.466m0-36.587H93.466V39.587h64.026Z" transform="translate(104.154 -3)" fill="#fd9500"/><path d="M30.59,87.4a4.37,4.37,0,0,1-4.37-4.37V69.921H8.74A8.74,8.74,0,0,1,0,61.181V8.74A8.738,8.738,0,0,1,8.74,0H78.661A8.74,8.74,0,0,1,87.4,8.74v52.44a8.74,8.74,0,0,1-8.74,8.74H52L35.834,86.133A4.453,4.453,0,0,1,32.775,87.4H30.59m4.37-26.22V74.64l13.46-13.46H78.661V8.74H8.74v52.44Z" transform="rotate(-7 1212.113 74.136)" fill="#5d9cfa"/></svg>