<svg xmlns="http://www.w3.org/2000/svg" width="320.203" height="244.377" viewBox="0 0 320.203 244.377"><path d="M0,172.81l20.76-50.621L0,71.568,50.171,50.621,70.931,0,121.1,20.947,171.273,0l20.76,50.621L242.2,71.568l-20.76,50.621L242.2,172.81l-50.171,20.947-20.76,50.621L121.1,223.431,70.931,244.377l-20.76-50.621Z" transform="translate(41.487)" fill="#e0f2ff"/><path d="M32.275,88.5a4.325,4.325,0,0,1-4.325-4.325V71.2H10.65A8.65,8.65,0,0,1,2,62.549V10.65A8.648,8.648,0,0,1,10.65,2h69.2a8.65,8.65,0,0,1,8.65,8.65v51.9a8.65,8.65,0,0,1-8.65,8.65H53.467l-16,16.046A4.407,4.407,0,0,1,34.437,88.5H32.275M36.6,62.549V75.87L49.921,62.549H79.849V10.65H10.65v51.9Z" transform="rotate(9 -3.438 1490.39)" fill="#fd9500"/><path d="M49.968,0C22.486,0,0,17.889,0,39.975S22.486,79.949,49.968,79.949a63.212,63.212,0,0,0,17.639-2.5C82.2,89.943,99.937,89.943,99.937,89.943,88.294,78.3,86.445,70.455,86.2,67.457c8.495-7.145,13.741-16.839,13.741-27.483C99.937,17.889,77.451,0,49.968,0M24.984,44.971V34.978h9.994v9.994H24.984m19.987,0V34.978h9.994v9.994H44.971m19.987,0V34.978h9.994v9.994Z" transform="rotate(1 -11.362 90)" fill="#fd9500"/><path d="M143.393,83.367h-6.781A47.43,47.43,0,0,0,89.148,35.9H82.367V27.292a13.561,13.561,0,1,0-13.561,0V35.9H62.026A47.43,47.43,0,0,0,14.561,83.367H7.781A6.8,6.8,0,0,0,1,90.148V110.49a6.8,6.8,0,0,0,6.781,6.781h6.781v6.781a13.557,13.557,0,0,0,13.561,13.561h94.929a13.514,13.514,0,0,0,13.561-13.561V117.27h6.781a6.8,6.8,0,0,0,6.781-6.781V90.148a6.8,6.8,0,0,0-6.781-6.781M53.075,103.98l-8-8-8,8-8-8,16-16,16,16-8,8m61.026,0-8-8-8,8-8-8,16-16,16,16Z" transform="rotate(6.02 -266.01 923.616)" fill="#5d9cfa"/></svg>