<svg xmlns="http://www.w3.org/2000/svg" width="346.853" height="316.244" viewBox="0 0 346.853 316.244"><g transform="translate(-838.523 -210.802)"><ellipse cx="141.183" cy="140.527" rx="141.183" ry="140.527" transform="translate(856.053 245.992)" fill="#e0f2ff"/><g transform="rotate(9 -803.867 6908.043)"><ellipse cx="58.023" cy="57.826" rx="58.023" ry="57.826" fill="#5d9cfa"/><path d="M43.414,26.048V0H26.048V26.048H0V43.414H26.048V69.462H43.414V43.414H69.462V26.048" transform="translate(23.292 23.095)" fill="#fff"/></g><path d="M58.108,116.216h69.729v69.729H162.7V81.351l-69.729-52.3-69.729,52.3V185.945H58.108V116.216M0,209.188V69.729L92.973,0l92.973,69.729V209.188Z" transform="translate(952.501 266.101)" fill="#fdaa33"/><path d="M71.314,3A33.657,33.657,0,1,1,37.657,36.657,33.648,33.648,0,0,1,71.314,3m33.657,88.686c0,8.919-2.356,29.7-18.427,52.926l-6.816-40.641,7.909-15.819a145.319,145.319,0,0,0-16.324-1.01,145.319,145.319,0,0,0-16.324,1.01L62.9,103.971l-6.816,40.641c-16.071-23.223-18.427-44.007-18.427-52.926C17.547,97.576,4,108.178,4,120.8l11.87,33.657H128.047L138.628,120.8C138.628,108.178,125.165,97.576,104.971,91.686Z" transform="rotate(-8 2987.653 -5784.662)" fill="#5d9cfa"/></g></svg>