<svg xmlns="http://www.w3.org/2000/svg" width="180" height="37.915" viewBox="0 0 180 37.915"><g id="Сгруппировать_2521" data-name="Сгруппировать 2521" transform="translate(-1427.573 -452.92)" fill="#fff"><path id="Контур_3" data-name="Контур 3" d="M1433.256,484.911a8.79,8.79,0,0,1-2.062-6.233V467.061h-3.621v-4.831h3.621v-7.242h6.339v7.242h5.783v4.831h-5.783v10.812a5.008,5.008,0,0,0,.853,3.291,4.006,4.006,0,0,0,3.121.981,7.125,7.125,0,0,0,3.065-.7v4.831a14.376,14.376,0,0,1-5.278.852A7.846,7.846,0,0,1,1433.256,484.911Z" transform="translate(0 3.711)"/><path id="Контур_4" data-name="Контур 4" d="M1437.416,480.671a7.582,7.582,0,0,1-2.769-6.16,7.872,7.872,0,0,1,2.615-6.286q2.614-2.263,7.345-2.266a15.911,15.911,0,0,1,7.892,1.861v-.651a4.291,4.291,0,0,0-1.581-3.721q-1.584-1.161-5.1-1.157a22.735,22.735,0,0,0-4.378.425,17.362,17.362,0,0,0-3.82,1.185v-4.979a16.584,16.584,0,0,1,4.045-1.157,27.722,27.722,0,0,1,4.9-.453q6.286,0,9.3,2.688a9.487,9.487,0,0,1,3.018,7.468V482.2H1452.9v-2.366a10.923,10.923,0,0,1-3.548,2.313,12.889,12.889,0,0,1-4.85.8A10.748,10.748,0,0,1,1437.416,480.671Zm12.472-3.171a6.129,6.129,0,0,0,2.612-2.285v-2.665a10.678,10.678,0,0,0-6.333-1.964q-5.08,0-5.082,3.925a3.337,3.337,0,0,0,1.282,2.864,6.1,6.1,0,0,0,3.7.955A8.661,8.661,0,0,0,1449.888,477.5Z" transform="translate(12.689 7.878)"/><path id="Контур_5" data-name="Контур 5" d="M1445.394,452.92h6.333v37.163h-6.333Z" transform="translate(31.657)"/><path id="Контур_6" data-name="Контур 6" d="M1453.383,479.587q-3.922-3.369-3.922-9.4,0-5.935,3.469-9.4t9.907-3.47a15.047,15.047,0,0,1,7.217,1.609,10.735,10.735,0,0,1,4.5,4.4,13.157,13.157,0,0,1,1.509,6.359V472.6H1455.5q.65,5.381,9.354,5.381a28.45,28.45,0,0,0,4.728-.4,21.258,21.258,0,0,0,4.224-1.1v4.875a20.548,20.548,0,0,1-4.4,1.157,31.974,31.974,0,0,1-5.356.453Q1457.306,482.956,1453.383,479.587Zm16.7-11.315a5.638,5.638,0,0,0-2.036-4.425,8.237,8.237,0,0,0-5.306-1.556,7.852,7.852,0,0,0-5.23,1.609,5.707,5.707,0,0,0-2.012,4.372Z" transform="translate(38.832 7.878)"/><path id="Контур_7" data-name="Контур 7" d="M1460.783,458.064h6.135v3.269a10.464,10.464,0,0,1,4.073-3.043,12.91,12.91,0,0,1,4.979-.978q4.878,0,7.292,2.64a9.992,9.992,0,0,1,2.414,7.015V482.2h-6.336V467.568q0-5.276-4.929-5.277a8.451,8.451,0,0,0-4.073,1.031,8.683,8.683,0,0,0-3.219,3.09V482.2h-6.337Z" transform="translate(58.925 7.878)"/><path id="Контур_8" data-name="Контур 8" d="M1476.726,484.911a8.79,8.79,0,0,1-2.062-6.233V467.061h-3.62v-4.831h3.62v-7.242H1481v7.242h5.786v4.831H1481v10.812a5,5,0,0,0,.858,3.291,4,4,0,0,0,3.118.981,7.152,7.152,0,0,0,3.067-.7v4.831a14.421,14.421,0,0,1-5.28.852A7.834,7.834,0,0,1,1476.726,484.911Z" transform="translate(77.171 3.711)"/><path id="Контур_9" data-name="Контур 9" d="M1479.777,459.616a3.359,3.359,0,0,1-1.031-2.512,3.521,3.521,0,0,1,3.571-3.573,3.535,3.535,0,0,1,2.564,1.031,3.411,3.411,0,0,1,1.056,2.542,3.318,3.318,0,0,1-1.056,2.512,3.582,3.582,0,0,1-2.564,1.006A3.5,3.5,0,0,1,1479.777,459.616Zm-.679,5.23h6.438v24.141H1479.1Z" transform="translate(90.899 1.096)"/><path id="Контур_10" data-name="Контур 10" d="M1483.48,458.064h6.136v3.269a10.454,10.454,0,0,1,4.073-3.043,12.912,12.912,0,0,1,4.979-.978q4.878,0,7.292,2.64a9.982,9.982,0,0,1,2.416,7.015V482.2h-6.339V467.568q0-5.276-4.928-5.277a8.453,8.453,0,0,0-4.074,1.031,8.707,8.707,0,0,0-3.218,3.09V482.2h-6.336Z" transform="translate(99.197 7.878)"/></g></svg>