<svg version="1.1" id="Layer_1" xmlns="http://www.w3.org/2000/svg" x="0" y="0" viewBox="0 0 210.5 232.9" xml:space="preserve"><g id="Group_2558" transform="translate(-1062.461 -1201.379)"><path d="M1273,1253.9v144.8c-1.8,1.9-3.6,3.8-5.4,5.6c-19.5,18.6-45.9,30-75.1,30c-58.1,0-105.6-45.5-108.4-102.7 c-0.1-1.8-0.1-3.5-0.1-5.3c0-14.9,3.1-29.2,8.6-42.1c16.5-38.7,55-65.9,99.9-65.9c0.3,0,0.7,0,1,0c16.6,0.1,32.4,4,46.4,10.8 C1252.5,1235.2,1263.7,1243.6,1273,1253.9z" fill="#d0e7fd"/><path id="Icon_material-search" d="M1242.7,1336.2h-11.4l-4-3.9c25.4-29.6,29.1-70.4,12.7-103.2 c-5.1-10.2-12.2-19.7-21.2-27.7h-125.3c-3,2.7-5.8,5.6-8.5,8.7c-30.4,35.4-29.8,86.9-0.7,121.5c3.2,3.8,6.8,7.5,10.8,10.9 c35.2,30.2,87.1,30.2,122.2,0l3.9,4v11.4l46.5,46.4l5.4,5.4v-43.1L1242.7,1336.2z M1156.3,1336.2h-0.2 c-31.5,0-57.7-22.4-63.6-52.1c-0.8-4.1-1.3-8.4-1.3-12.8c0-35.8,29-64.9,64.9-64.9c13.9,0,26.8,4.4,37.3,11.8 c16.7,11.7,27.6,31.1,27.6,53.1C1221.1,1307.1,1192.1,1336.2,1156.3,1336.2z" opacity=".8" fill="#fff"/></g></svg>