<svg xmlns="http://www.w3.org/2000/svg" width="18" height="18.261" viewBox="0 0 18 18.261"><g id="skype-3"><path d="M22.827,30.157c-3.678,0-7.857-4.428-7.523-8.1.334-3.509,5.015-6.767,8.484-6.266,3.051.417,5.768,4.261,5.6,7.31C29.222,26.313,26.045,30.157,22.827,30.157Z" transform="translate(-13.575 -13.764)" fill="#fff"/><path d="M22.41,28.452c-.247-.082-.617-.164-.823-.247-.247-.123-.535-.123-1.439-.082a9.265,9.265,0,0,1-1.932-.082,8.687,8.687,0,0,1-6.867-6.249,7.823,7.823,0,0,1-.205-2.426,5.892,5.892,0,0,0-.247-2.385,4.964,4.964,0,0,1,4.687-6.661,5.226,5.226,0,0,1,2.056.452c.329.165.535.205,1.809.205a7.1,7.1,0,0,1,2.179.206,8.684,8.684,0,0,1,5.8,4.687,8.309,8.309,0,0,1,.781,4.6A2.445,2.445,0,0,0,28.33,22a5.039,5.039,0,0,1-1.562,5.469,6.647,6.647,0,0,1-2.1,1.028,5.766,5.766,0,0,1-2.221-.041h-.04ZM21.3,25.286a4.282,4.282,0,0,0,3-2.1,3.163,3.163,0,0,0-.37-3.454c-.658-.74-1.645-1.151-3.988-1.727-1.563-.37-1.933-.535-2.262-.9a.66.66,0,0,1-.082-.946,2.033,2.033,0,0,1,1.686-.7,2.216,2.216,0,0,1,2.426,1.316c.535.823,1.069,1.028,1.769.7.9-.452.822-1.932-.165-2.8a5.248,5.248,0,0,0-3.7-1.11,5.189,5.189,0,0,0-3.865,1.192,2.3,2.3,0,0,0-.781,2.056,2.079,2.079,0,0,0,.822,2.015c.74.7,1.357.946,3.577,1.48,1.563.37,1.974.576,2.344.987a1,1,0,0,1,.247.74.874.874,0,0,1-.37.823,2.792,2.792,0,0,1-2.179.658,2.248,2.248,0,0,1-2.179-1.563c-.411-.781-.74-1.069-1.275-1.069-1.193,0-1.6.987-.987,2.261a4.081,4.081,0,0,0,2.96,2.138,11.855,11.855,0,0,0,3.413,0H21.3Z" transform="translate(-10.589 -10.32)" fill="#00aff0"/></g></svg>