<svg xmlns="http://www.w3.org/2000/svg" width="40" height="40"><path d="M35.898 29.898v.156l-.238.424-7.944 5.498h-.156l-8.142-4.21c-.099-.158-.151-.331-.188-.512-.556-2.64-.466-5.731-1.021-8.411-.08-.386.132-.552.397-.771l7.596-5.263c.366-.068.623.095.945.216 2.238.841 4.998 2.141 7.17 3.195.612.297.863.23.95.998l.552 8.491.081.188-.001-.001zm-2.105-8.962l-7.36-3.197-6.901 4.832 7.443 3.246 6.656-4.616.162-.266h.001zm.623.857L27.49 26.6l.537 8.052 6.923-4.805-.534-8.053h.001zM8.835 4.121l9.18-.022.498.126 4.915 8.183c.012.181-.14.391-.22.552-1.24 2.505-3.18 4.941-4.469 7.455l-.318.305h-9.78l-.241-.226-4.22-8.087 4.368-8.185.287-.102v.002zm13.347 7.852l-4.169-6.936H9.634l4.17 6.936h8.378zM8.779 19.377l4.21-6.97-4.21-6.902-3.646 6.963 3.646 6.91v-.001z"/></svg>