<svg width="260" height="260" viewBox="0 0 260 260" fill="none" xmlns="http://www.w3.org/2000/svg"><path d="M144.93 156.939c-.889-.863-2.209-.964-3.377-.812-1.549.203-2.996.762-4.469 1.269l-4.799 1.651a271.43 271.43 0 0 0-9.877 3.682l-9.42 3.834c-2.92 1.142-5.941 2.132-9.115 2.107-.965 0-1.904-.127-2.818-.33.127-1.346-.153-2.717-1.067-3.783-.305-.356-.66-.686-1.016-.965a.54.54 0 0 1 .102-.127c.457-.686 1.321-2.285 1.092-3.352 1.016-.127 2.057-1.523 2.463-2.259.254-.458.584-1.143.736-1.829.889-.38 1.803-1.625 2.082-2.183.483-.889 1.27-2.565.559-3.529l-4.291-5.993c-1.092-1.498-3.403.864-4.164 3.047-.685.406-1.295 1.168-1.6 1.625-.279.432-.584.94-.762 1.473-.812.051-1.853 1.142-2.158 1.549-.457.609-.863 1.32-1.092 2.082-.736.254-1.549 1.117-1.828 1.472-.305.407-.584.838-.787 1.321-.66.228-1.32.863-1.701 1.371-.609.812-1.168 1.853-1.27 2.894-.102 0-.228 0-.33.026-2.006.279-3.656 1.955-4.596 3.681s-1.346 3.631-.889 5.51l-.381.254c-2.057 1.422-3.478 4.393-3.047 6.957l-.229.152c-1.879 1.321-3.199 4.012-2.92 6.323.025.304.102.584.203.838-1.066 1.371-1.803 3.453-1.244 4.443 2.641 4.824 4.697 9.928 6.525 15.133l2.59 7.718c.102.28.152.559.254.838-1.016 1.397-1.65 2.844-1.93 4.571-.152.939.533 1.929 1.549 1.523 8.506-3.478 17.291-6.246 26.254-8.201 7.795-1.701 16.707-2.742 22.522-8.861 1.955-2.057 3.605-4.748 3.808-7.643.076-1.193-.101-2.437-.635-3.504 1.321-1.447 2.413-3.047 3.022-4.9.533-1.651.787-3.733.051-5.332.787-1.168 1.422-2.463 1.726-3.86.483-2.082.153-4.519-1.625-5.89-1.879-1.422-4.189-.102-5.687 1.168-.813.685-1.27 1.269-1.854 1.574-.533.279-1.244.381-1.904.33 0-.102-.025-.203-.051-.33.483-.203.965-.432 1.447-.686 2.819-1.396 5.332-3.377 8.202-4.697 1.294-.609 2.716-.939 3.986-1.574 1.98-.99 3.504-2.742 4.266-4.824.558-1.651.812-3.682-.508-4.952z" fill="#fff"/><path d="M144.346 153.563c-.838-.559-1.752-.788-2.768-.584-3.021.584-5.865 1.574-8.43 3.351-1.091.762-2.31 1.346-3.478 2.006-.051-.076-.127-.152-.178-.229l2.717-7.033c.838-2.386 2.463-4.672 1.371-7.439v-.102c.254-2.133-.838-3.504-2.564-4.494-.914-.533-1.905-.889-2.793-1.295l1.117-2.107 1.422-3.326c.228-.584.482-.838 1.168-.635.761.228 1.549.33 2.336.482-.203-1.041 0-2.26-1.118-2.97-1.447-.889-3.275-.711-4.748.482-.457.355-.837.838-1.244 1.244l.838.229-.431 1.244-1.676 4.468c-.229.584-.635.813-1.321.661-2.462-.559-4.849-.102-7.134.711-.762.253-1.575.888-1.955 1.574l-4.215 7.744-1.346 2.514-1.676-2.286-4.672-6.296c-1.65-2.514-4.722-2.819-6.144-.457-.965 1.599-1.904 3.275-3.072 4.722-2.488 3.047-5.18 5.916-7.693 8.912-1.98 2.336-3.961 4.672-5.687 7.211-1.853 2.692-2.26 5.992-3.301 9.039l-4.9 14.117c-1.269-.837-2.387-1.498-3.428-2.285-.609-.457-1.168-.736-1.904-.406-.914.406-1.777 1.092-2.717 1.219-2.006.279-4.062.279-6.119.381-.863.05-1.752-.076-2.59.076-1.65.305-2.437 1.625-3.275 2.869-.203.635-.432 1.295-.609 1.93-.432 1.396-.533 2.285-.305 3.783l.229 1.473c.559 1.574.99 3.199 1.447 4.798.863 3.174 1.904 6.272 2.463 9.522.609 3.631.584 7.008.102 10.639-.279 2.056-.609 4.164-.609 6.271.102.102.229.203.355.305-.051-.051.508.304.584.33.025 0 .736.152.99.228 1.143.33 2.209.864 3.021 1.752.584.635.99 1.371 1.244 2.158 2.996 0 5.941-.431 8.836-1.168l8.227-2.031c1.473-.355 2.59-1.142 3.25-2.513 1.143-2.336 1.143-2.362 3.225-3.885 2.387-1.752 5.053-2.946 7.871-3.707 3.072-.838 6.17-1.549 9.267-2.235 2.184-.482 4.367-.99 6.576-1.295 4.241-.609 8.481-1.167 12.518-2.691 3.072-1.168 6.119-2.361 8.176-5.103 1.244-1.651 2.209-3.53 3.859-4.875.152-.127.305-.356.279-.534-.025-.381-.127-.761-.203-1.168-.381.102-.812.127-1.142.33-.508.331-.94.762-1.397 1.143-.533.432-1.193.762-1.599 1.295-2.159 2.869-5.18 4.24-8.405 5.484-5.205 1.981-10.765 2.032-16.072 3.403-4.164 1.066-8.43 1.701-12.619 2.691-3.174.736-6.094 2.184-8.963 4.012.051-.711.127-1.295.152-1.879.127-2.463.559-4.977.33-7.389-.203-2.158-1.041-4.291-1.701-6.398-1.6-5.053-3.732-9.826-7.211-13.914-.228-.254-.279-.838-.152-1.168.381-.99.813-1.981 1.346-2.92 2.311-4.012 4.342-8.1 5.764-12.518.762-2.361 1.498-4.849 2.895-6.83 2.438-3.453 5.281-6.627 8.15-9.775 1.955-2.133 4.037-4.139 5.535-6.627.584-.965 1.295-1.854 1.879-2.717l5.332 6.551-2.234 2.971c-1.143 1.447-2.336 2.843-3.504 4.265-1.041 1.27-1.549 2.717-1.447 4.367l.457 5.637c-1.396.813-2.996.99-3.885 2.666.482.051.838.178 1.193.127.508-.051 1.016-.228 1.523-.305 4.723-.812 9.445-1.32 14.016-3.072 5.128-1.98 10.486-3.301 15.742-5.002 2.843-.914 5.713-1.828 8.201-3.605 1.752-1.27 3.732-2.057 5.891-2.387.304-.051.736-.051.964.127 1.27.965 1.651 2.387 1.727 3.885.051 1.193-.99 1.701-1.803 2.259l-6.83 4.825c-2.209 1.625-4.494 2.996-7.185 3.681-.813.203-1.6.66-2.311 1.117-1.092.711-1.371 1.778-.812 2.666.609.94 2.031 1.168 3.072.559.762-.432 1.574-.762 2.387-1.143 1.599-.736 3.25-1.345 4.798-2.183 1.295-.686 2.463-1.6 3.657-2.412 2.209-1.524 4.519-2.92 6.601-4.596 1.016-.812 2.082-2.031 2.336-3.225.635-3.224-.533-7.084-3.859-9.292zm-41.59 11.476c-.94-3.225 1.676-4.494 2.844-6.475.101.077.228.153.33.229l-3.174 6.246zm12.949-1.625c-.482.559-.863 0-1.32-.279-1.295-.787-2.641-1.524-3.961-2.285-.279-.153-.61-.28-.889-.432 2.184-.229 4.088.355 5.764 1.574.482.381.889.863.406 1.422zm8.734-6.424c-.076.127-.482.153-.71.127a1.14 1.14 0 0 1-.635-.305c-1.828-1.624-4.164-2.031-6.399-2.64-1.599-.432-3.224-.736-4.824-1.117.025-.127.025-.229.051-.356 1.346.076 2.691 0 4.012.229 2.056.355 4.087.812 6.068 1.472.889.305 1.6 1.194 2.361 1.854a.84.84 0 0 1 .076.736zm1.778 2.209c-.254-.355-.508-.711-.737-1.092-.126-.203-.177-.457-.38-.964.507.203.863.228 1.015.431.28.356.457.813.61 1.244.05.051-.33.254-.508.381zm1.295-11.019c-.381-.356-.864-.61-1.295-.889-.711-.457-1.397-1.193-2.184-1.32-2.463-.407-4.799-1.498-7.363-1.27-.584.051-1.168 0-1.752 0-.025-.076-.025-.178-.051-.254.33-.127.66-.304 1.016-.355 3.529-.686 6.881.051 10.004 1.65 1.371.711 2.539 1.879 3.758 2.869.203.178.355.559.355.838 0 .381-.152.762-.254 1.143-.228-.28-.432-.61-.685-.863a22.19 22.19 0 0 0-1.549-1.549z" fill="#020202"/><path d="M110.957 101.842c-.939-.914-1.676-1.828-1.396-3.352.203-1.193.05-2.463.05-3.758l-3.58-.686c-1.193-.254-2.31-.686-2.412-2.158-.025-.33.178-.711.381-.99.33-.381.762-.66 1.143-.965l-.077-.355 5.028.838c.508-1.371.838-2.869 1.625-4.088.812-1.244 2.006-2.285 3.148-3.275.381-.305 1.143-.254 1.727-.203l6.83.838 1.853-6.373c.28-1.041.559-2.107.66-3.174l1.143-11.02c.178-2.006.203-4.037.178-6.043l-.254-9.064-.762-11.248c-.025-.432.381-.889.559-1.32.254-.559.635-1.092.736-1.676.127-.812.584-.965 1.244-.863l6.83 1.041 10.893 1.346c5.332.762 10.74.914 15.945 2.412 2.666.762 5.408 1.295 8.151 1.777l13.711 2.336 13.38 2.285c1.981.356 3.936.914 5.942 1.219.965.127 2.031 0 2.945-.33.762-.279 1.041 0 1.447.508.33.381.762.736 1.219.965.889.457.914 1.092.686 1.93-.153.508-.254 1.117-.102 1.574 1.244 3.758 1.193 7.566.838 11.426-.482 5.357-.762 10.74-1.219 16.098-.203 2.387-.635 4.773-.838 7.16-.203 2.133-.152 4.266-.381 6.398-.228 2.082-.66 4.113-1.066 6.17-.33 1.65-.711 3.275-1.092 4.9-.177.711-.355 1.397-.609 2.082l-5.484 15.184c-2.184 6.068-4.749 11.984-7.821 17.672-1.117 2.082-2.31 4.113-3.275 6.246-.508 1.142-1.219 1.218-2.158.965l-12.366-3.073c-2.234-.533-4.494-.939-6.728-1.422l-6.272-1.498c-1.523-.355-3.072-.609-4.595-.965l-8.709-2.082 2.869-4.214 11.476 2.615 11.705 2.742 14.118 3.402c.584.153.838.102 1.066-.533.736-1.98 1.574-3.935 2.336-5.916l6.17-16.123c1.523-3.961 2.234-8.1 2.818-12.264.229-1.599.584-3.173.889-4.748.533-2.742 1.219-5.459 1.6-8.201.406-2.945.482-5.916.761-8.861l1.168-11.07c.356-4.215.711-8.404.864-12.619.076-2.234-.153-4.494-.381-6.754-.153-1.447-.737-2.437-2.514-2.717-4.926-.762-9.801-1.853-14.701-2.717l-15.717-2.564c-3.732-.66-7.414-1.6-11.146-2.311-3.961-.762-7.948-1.498-11.959-2.057-4.241-.584-8.532-.914-12.797-1.422-1.727-.203-3.428-.533-5.358-.838l.28 5.51.736 10.994c.076 1.701-.152 3.428-.203 5.129-.026 1.676.152 3.377 0 5.027-.381 3.707-.838 7.414-1.397 11.121-.279 1.879-.761 3.732-1.244 5.586-.254 1.016-.736 1.955-1.092 2.92l11.02 1.93 10.283 1.853 8.125 1.447c1.447.228 2.92.254 4.367.305 2.336.076 4.367.787 5.459 2.996.99 1.98 1.448 4.113.914 6.373-.127.559-.304 1.143-.482 1.752 1.6.635 2.387 1.803 2.564 3.428.203 1.726.483 3.453.762 5.179.432 2.616-.203 4.825-2.26 6.602-.634.533-1.193 1.193-1.777 1.777-2.082 2.158-4.57 3.072-7.541 2.489-.762-.153-1.549-.178-2.311-.28l1.397-3.834c.33.102.66.254.99.28 1.244.101 2.539.482 3.656-.458.457-.38.889-.787 1.371-1.117 1.702-1.193 2.743-2.843 2.87-4.875.076-1.168-.33-2.361-.508-3.529-.102-.66-.178-1.32-.254-1.955-1.473 2.488-3.301 4.443-5.815 5.687-.634.178-1.269.33-1.929.508-2.489.635-4.824-.381-7.237-.558-1.32-.102-2.615-.381-3.91-.661l-8.658-1.904-8.379-1.777-11.959-2.488-8.201-1.676zm44.18-8.938l-7.008-1.346-7.744-1.32-9.674-1.803c-4.494-.686-8.988-1.193-13.483-1.828-.761-.102-1.244.076-1.726.609-1.498 1.701-1.777 3.834-2.108 5.916-.253 1.625-.101 3.326-.076 4.977 0 .254.305.711.534.762l9.47 1.701 5.332 1.016L139.217 104l7.16 1.549a178.69 178.69 0 0 0 5.23.99c-.584-2.514-.431-4.824.153-7.16.634-2.387 1.701-4.469 3.377-6.475zm9.115 7.389c.863-1.777.736-3.479.355-5.18-.177-.736-.584-1.27-1.396-1.32-1.981-.102-3.885-.228-5.383 1.676-2.26 2.92-3.326 6.093-2.691 9.75.355 2.031.812 2.209 2.869 2.107 2.361-.127 3.681-1.625 5.053-3.453l-2.971-.965c-1.32-.431-1.727-1.092-1.574-2.488.152-1.371.838-1.777 2.132-1.295 1.219.432 2.438.787 3.606 1.168z" fill="#040404"/><path d="M158.869 116.391l-1.396 3.834-1.6 2.513-5.027 8.278-2.869 4.214-3.098 3.25c-1.397 1.346-3.174 2.057-5.027 2.387-1.321.229-2.514-.33-3.428-1.396-1.397-1.625-2.006-3.555-2.082-5.688l-.102-1.676c-.203-1.041 0-2.259-1.117-2.97-1.447-.889-3.275-.711-4.748.482-.457.356-.838.838-1.244 1.244-1.524 1.219-3.047 2.463-5.053 2.844-.863.152-1.828.356-2.666.152-2.183-.533-4.189-1.523-5.687-3.3l-.965-1.092-4.367 3.605c-1.955 1.727-4.114 2.996-6.678 3.453-3.733.686-6.906-2.513-6.221-6.423.178-1.067.609-2.159 1.117-3.123l6.45-11.756c2.031-3.453 4.291-6.78 6.398-10.207.609-.991.99-2.133 1.498-3.2l8.176 1.651 11.959 2.488 8.379 1.777 8.658 1.905c1.295.279 2.59.558 3.91.66 2.412.178 4.774 1.219 7.236.558.635-.177 1.27-.33 1.93-.507l-2.336 6.043zM38.492 75.639c-1.219-.076-1.371-.838-1.219-1.777.076-.406.076-.838.178-1.244.432-1.904.533-2.107 2.412-2.184 2.895-.102 5.383-1.32 7.77-2.717l7.541-4.926c.889-.609 1.828-1.244 1.98-2.514.025-.254.432-.584.711-.635.584-.127 1.219-.178 1.803-.102 2.209.33 2.336.508 2.514 2.844.178 2.564 1.117 4.926 2.59 6.957 2.285 3.123 4.824 6.094 7.262 9.09.483.609 1.193 1.041 1.65 1.65.203.254.051.813 0 1.219-.025.178-.254.305-.279.482-.355 1.854-1.574 2.311-3.352 2.412-3.275.203-6.551.355-9.75 1.397-2.437.813-4.164 2.285-5.535 4.291-.965 1.397-1.752 2.92-2.59 4.393-.457.813-1.498 1.016-2.361.66-1.752-.711-2.387-1.93-2.793-3.783-1.143-5.231-3.732-9.75-7.617-13.483-.482-.482-.787-1.168-1.168-1.752.076-.076.152-.178.254-.279z" fill="#196efd"/><path d="M77.137 109.027c0 1.625-.254 1.702-1.498 2.006-1.397.356-2.844.838-4.012 1.651-1.701 1.168-3.199 2.691-4.799 4.037-.203.177-.635.355-.787.254-.559-.33-1.244-.686-1.473-1.219-.305-.66-.254-1.498-.254-2.26-.025-3.478-1.498-6.017-4.697-7.516-.381-.177-.965-.812-.889-.964.305-.61.736-1.473 1.27-1.575 3.072-.66 5.687-2.031 7.871-4.291.381-.381.838-.686 1.32-.965.736-.406 2.082.406 2.311 1.219.406 1.422.838 2.869 1.473 4.19.609 1.269 1.473 2.437 2.311 3.605.355.483.939.787 1.371 1.219.279.203.432.533.482.609z" fill="#020202"/><path d="M92.879 65.406c-3.275.736-4.57 3.275-6.272 5.358-.228.279-.559.609-.863.635-.533.025-1.117-.076-1.244-.838-.076-.482-.33-.914-.432-1.396-.559-2.361-1.879-3.91-4.291-4.494-.381-.102-.99-.584-.939-.711.178-.508.457-1.143.889-1.346 1.828-.914 3.301-2.184 4.469-3.834.482-.686.889-1.65 2.031-1.371.305.076.66.355.787.635 1.092 2.463 2.844 4.291 5.18 5.662.381.228.432 1.041.686 1.701z" fill="#030303"/><path d="M128.045 186.291c-.863-.102-1.422-.432-1.625-1.219-.229-.863.076-1.523.863-1.929l5.332-2.565c1.092-.558 2.133-1.244 3.174-1.904l1.803-1.244c.279-.153.66-.102.99-.153-.025.381.076.813-.076 1.118-1.27 2.412-3.149 4.189-5.586 5.408l-3.25 1.828c-.508.305-1.092.457-1.625.66z" fill="#080808"/><path d="M125.709 195.635c-.432-.406-1.117-.787-1.371-1.346-.33-.736 0-1.574.762-1.955s1.599-.787 2.412-.863c2.742-.305 4.926-1.752 7.135-3.174.33-.203.939-.406 1.218-.229.61.356.28.864-.076 1.295-1.879 2.285-4.062 4.088-6.932 4.951-.685.204-1.32.584-1.98.889a12.72 12.72 0 0 0-1.168.432z" fill="#070707"/><path d="M114.867 144.447c.33-.127.66-.304 1.016-.355 3.529-.686 6.881.051 10.004 1.65 1.371.711 2.539 1.879 3.758 2.869.203.178.355.559.355.838 0 .381-.152.762-.254 1.143-.228-.28-.432-.61-.685-.863-.508-.534-.991-1.067-1.549-1.524-.381-.355-.864-.609-1.295-.889-.711-.457-1.397-1.193-2.184-1.32-2.463-.406-4.799-1.498-7.363-1.269-.584.05-1.168 0-1.752 0-.025-.127-.025-.204-.051-.28z" fill="#1a71ef"/><path d="M111.922 152.725c1.346.076 2.691 0 4.012.228 2.056.356 4.087.813 6.068 1.473.889.304 1.6 1.193 2.361 1.853.153.127.203.559.102.737-.076.127-.483.152-.711.127s-.483-.153-.635-.305c-1.828-1.625-4.164-2.031-6.398-2.641l-4.825-1.117c0-.127 0-.228.026-.355z" fill="#1a70f2"/><path d="M109.535 160.443c2.184-.228 4.088.356 5.764 1.575.482.355.863.837.406 1.396-.482.559-.863 0-1.32-.279l-3.961-2.285c-.279-.153-.584-.28-.889-.407z" fill="#1970f2"/><path d="M125.125 157.143c.508.203.863.228 1.016.431.279.356.457.813.609 1.244.025.077-.33.254-.508.407l-.736-1.092c-.127-.229-.178-.483-.381-.99z" fill="#1a71ed"/><path d="M150.846 131.016l5.027-8.278 1.6-2.513 2.31.279c2.996.558 5.485-.33 7.541-2.488l1.778-1.778c2.082-1.752 2.691-3.986 2.259-6.601l-.761-5.18c-.178-1.65-.965-2.793-2.565-3.428l.483-1.752c.533-2.234.05-4.367-.914-6.373-1.092-2.209-3.124-2.92-5.459-2.996l-4.368-.305-8.125-1.447-10.283-1.854-11.019-1.93c.355-.965.837-1.904 1.091-2.92l1.245-5.586c.558-3.707 1.015-7.414 1.396-11.121.178-1.65-.025-3.352 0-5.027.025-1.727.279-3.428.203-5.129-.178-3.656-.508-7.312-.736-10.994-.127-1.777-.178-3.58-.279-5.51 1.929.305 3.63.635 5.357.838 4.266.483 8.557.813 12.797 1.422 4.012.559 7.972 1.295 11.959 2.057 3.732.711 7.414 1.65 11.146 2.311 5.231.939 10.487 1.65 15.717 2.564l14.701 2.717c1.778.279 2.362 1.27 2.514 2.717.228 2.234.482 4.494.381 6.754-.153 4.215-.508 8.43-.863 12.619-.331 3.707-.813 7.363-1.168 11.07-.28 2.945-.356 5.941-.762 8.861-.381 2.768-1.067 5.484-1.6 8.201-.304 1.574-.66 3.148-.888 4.748-.584 4.164-1.27 8.303-2.819 12.264l-6.17 16.123-2.336 5.916c-.228.634-.507.685-1.066.533l-14.117-3.403-11.705-2.742-11.502-2.64zm-4.977-80.006c-1.092-1.32-1.93-2.412-2.869-3.402-.635-.685-1.803-.508-2.387.305-.888 1.244-1.168 2.666-.939 4.164.101.635.33 1.193 1.244 1.066.305-.051.711.228.965.482.304.279.482.685.736.99 1.473 1.752 3.199 2.209 4.901 1.066.584-.406.964-1.143 1.472-1.777 1.244 1.828 2.235 3.402 4.113 3.91 1.981.558 3.428-.508 4.723-1.879 1.981 1.498 3.91 1.625 5.865.076.178-.152.635-.178.838-.051 1.194.711 2.489.838 3.834.66.229-.025.483-.051.66.051 1.194.685 2.387.482 3.606.127.127-.736.406-1.447.33-2.107-.102-.736-.33-1.676-.863-2.057-.661-.508-1.676-.736-2.539-.736-1.524-.025-2.895-.051-4.342-.812-1.6-.838-3.174-.025-4.469 1.27-2.514-2.996-4.672-1.853-6.703.787-.609-.99-1.117-1.777-1.574-2.59-.483-.889-.889-1.879-2.184-1.676-.101.025-.305-.076-.355-.178-.686-1.066-1.397-.508-1.981.051-.762.66-1.371 1.473-2.082 2.26zm12.873 18.18c1.067-.178 2.108-.406 3.174-.483 2.107-.178 2.107-.127 2.514-2.184.025-.102.127-.228.101-.279-.33-.686-.533-1.752-1.066-1.93-.914-.305-2.057-.229-3.047-.025-1.498.305-2.945.305-4.215-.559-1.701-1.143-3.351-1.143-5.18-.355-2.488 1.092-2.513 1.041-3.96-1.32-.737-1.219-2.006-1.828-3.301-1.295-1.524.635-2.996 1.473-4.393 2.336-.381.228-.711 1.041-.609 1.473.228.914.711 1.777 1.193 2.615.305.533.813.559 1.346.152.584-.432 1.219-.787 1.803-1.219.533-.406.812-.127 1.218.228.838.736 1.676 1.574 2.666 2.031 1.828.813 3.682.33 5.358-.584.736-.406 1.269-.305 1.879.076 1.422.863 2.894 1.27 4.519 1.32zm26.584 1.422l.279-1.803c.28-1.676-.33-2.412-2.005-2.463a5.33 5.33 0 0 1-.635-.051c-2.311-.406-4.596-.914-6.906-.051-.153.051-.483.025-.559-.076-.914-1.397-2.539-1.473-3.885-2.031-.355-.152-1.041.025-1.371.305-.482.432-.838 1.016-1.117 1.625-.686 1.447-.508 1.828.99 2.412.66.254 1.524.356 1.981.838 1.371 1.473 2.92 1.904 4.849 1.498.991-.203 2.032-.305 3.047-.229 1.752.102 3.479.711 5.332.025z" fill="#fdfdfd"/><path d="M155.137 92.904c-1.676 1.98-2.742 4.088-3.352 6.449-.609 2.335-.736 4.647-.152 7.16l-5.231-.991-7.16-1.548-10.562-2.413a133.64 133.64 0 0 0-5.332-1.015l-9.471-1.701c-.229-.051-.533-.482-.533-.762-.026-1.676-.178-3.352.076-4.977.33-2.057.609-4.215 2.107-5.916.483-.559.94-.711 1.727-.609l13.482 1.828 9.674 1.803 7.744 1.32 6.983 1.371zm9.115 7.389l-3.58-1.168c-1.32-.457-1.981-.076-2.133 1.295-.152 1.422.254 2.057 1.574 2.488l2.971.965c-1.371 1.828-2.691 3.326-5.053 3.453-2.056.102-2.513-.076-2.869-2.107-.635-3.657.432-6.83 2.692-9.75 1.472-1.904 3.377-1.777 5.382-1.676.813.051 1.219.558 1.397 1.32.355 1.701.482 3.402-.381 5.18z" fill="#196efd"/><path d="M158.869 116.391l2.311-5.993c2.513-1.244 4.341-3.199 5.814-5.687l.254 1.955c.178 1.168.584 2.361.508 3.529-.127 2.032-1.168 3.682-2.869 4.875-.483.33-.914.737-1.371 1.118-1.118.939-2.412.583-3.657.457-.33 0-.66-.153-.99-.254z" fill="#f9fafa"/><path d="M145.869 51.01l2.082-2.285c.584-.533 1.295-1.117 1.981-.051.05.102.254.178.355.178 1.32-.178 1.701.787 2.184 1.676l1.574 2.59c2.031-2.641 4.215-3.758 6.703-.787 1.32-1.32 2.869-2.108 4.469-1.27 1.447.762 2.818.787 4.342.813.863 0 1.878.229 2.539.736.533.381.761 1.32.863 2.057.076.66-.203 1.371-.33 2.107-1.219.355-2.412.559-3.606-.127-.177-.102-.457-.076-.66-.051-1.346.178-2.64.051-3.834-.66-.203-.127-.66-.101-.838.051-1.955 1.549-3.884 1.447-5.865-.076-1.269 1.371-2.742 2.438-4.723 1.879-1.878-.508-2.869-2.082-4.113-3.91-.533.66-.889 1.371-1.473 1.777-1.675 1.143-3.427.686-4.9-1.066-.254-.33-.432-.736-.736-.99-.254-.229-.686-.533-.965-.482-.914.127-1.143-.432-1.244-1.066-.229-1.498.051-2.92.939-4.164.584-.812 1.752-.99 2.387-.305l2.869 3.428zm12.873 18.179c-1.625-.051-3.123-.457-4.469-1.295-.609-.381-1.142-.482-1.878-.076-1.676.914-3.53 1.397-5.358.584-.99-.432-1.853-1.269-2.666-2.031-.406-.381-.685-.635-1.219-.228l-1.802 1.219c-.534.406-1.041.381-1.346-.152-.482-.838-.965-1.701-1.193-2.615-.102-.432.228-1.244.609-1.473 1.396-.889 2.869-1.701 4.393-2.336 1.294-.533 2.539.076 3.3 1.295 1.448 2.361 1.473 2.412 3.961 1.32 1.828-.812 3.479-.787 5.18.355 1.269.863 2.717.863 4.215.559.99-.203 2.133-.279 3.047.025.507.178.736 1.244 1.066 1.93.025.076-.076.178-.101.279-.432 2.057-.432 2.006-2.514 2.184-1.117.051-2.158.279-3.225.457z" fill="#1a6ffd"/><path d="M185.326 70.611c-1.853.686-3.58.076-5.332-.051-.99-.076-2.056.025-3.047.228-1.929.406-3.478-.025-4.849-1.498-.457-.482-1.295-.584-1.981-.838-1.498-.584-1.676-.99-.99-2.412.279-.584.635-1.193 1.117-1.625.33-.279 1.016-.457 1.371-.305 1.346.559 2.971.635 3.885 2.031.076.102.381.127.559.076 2.31-.863 4.621-.355 6.906.051l.635.051c1.675.051 2.285.787 2.005 2.463l-.279 1.828z" fill="#1b6ffd"/><path d="M201.195 188.398c-.812.356-1.472.864-2.183.889-1.092.025-1.981-.736-1.981-1.777-.025-4.596-2.183-8.658-3.123-13.051-.381-1.803-1.092-3.529-1.549-5.332-.228-.863.026-1.625 1.041-1.676.356-.025.94.406 1.067.787l6.348 17.012c.33.812.253 1.853.38 3.148zm10.512-15.818c-.228-.254-.736-.635-1.016-1.168-2.615-4.621-5.585-8.912-9.521-12.517-.686-.635-1.371-1.321-.609-2.235.812-.99 1.675-.381 2.437.254 4.266 3.428 7.719 7.566 10.715 12.111.406.635.635 1.549.584 2.336-.102 1.118-1.219 1.701-2.59 1.219z" fill="#070707"/><path d="M223.133 153.867c-1.27.483-2.184 1.092-3.047 1.067-.66-.051-1.346-.864-1.904-1.422-.381-.381-.534-1.067-.94-1.371l-6.525-4.647c-.28-.203-.686-.33-.813-.609-.228-.533-.508-1.219-.33-1.651.127-.33 1.143-.609 1.473-.457 3.707 2.032 7.414 4.114 10.969 6.323.609.431.685 1.599 1.117 2.767z" fill="#090909"/><path d="M181.975 185.123c-.762.178-1.575.533-2.286.406-.964-.177-1.828-2.945-1.269-3.834.508-.863 1.295-1.193 2.234-.685.813.381 1.6 2.843 1.321 4.113z" fill="#0c0c0c"/></svg>