<svg width="200" height="200" viewBox="0 0 200 200" fill="none" xmlns="http://www.w3.org/2000/svg"><path d="M162.07 98.691c-.527-.293-1.269-.02-1.699.293-1.347.938-2.207 2.442-2.558 4.024-.137.117-.274.215-.352.312l-.019.02c-.176.156-.352.332-.508.527-1.719 1.738-3.535 3.399-5.43 4.942-.176.136-.176.136-.039.019-.137.117-.273.215-.41.313l-.82.625-1.524 1.132-.957.664c-.137-.078-.254-.175-.391-.253.02-.059.059-.118.079-.176l.351-.703 1.074-2.325c.586-1.503 1.153-3.32.703-4.941-.195-.742-.585-1.269-1.171-1.758-.352-.273-.723-.449-.918-.761-1.133-1.739-3.399 1.113-3.887 1.953l-5.137 8.808c-1.699 2.93-3.691 5.879-4.785 9.102-.391 1.191-.918 3.008.684 3.437 4.57 1.211 9.179 2.696 13.203 5.235.976.625 1.914 1.289 2.773 2.05 1.055.899 1.797 1.895 3.321 1.368 2.714-.957 5.058-3.243 6.933-5.332.938-1.055 2.578-4.668.313-5.176.019 0-.176-.176-.254-.313 0-.019 0-.039-.02-.058.039-.078.098-.176.137-.254.41-.742.801-1.504 1.094-2.305.293-.84.722-2.09.175-2.93-.507-.761-1.445-.507-2.07-.078-.254.176-.508.352-.781.508.234-.605.488-1.191.742-1.797l.234-.508c.02-.058.059-.117.098-.195.215-.41.449-.84.684-1.25.527-.957 1.191-2.48.722-3.555-.254-.566-.722-.8-1.23-.742.547-1.23.84-2.519.644-3.73.801-1.406 1.309-2.969 1.543-4.61.118-.488-.039-1.308-.547-1.582zm-58.301 7.716l-2.07-3.73c-.274-.508-.957-.586-1.446-.391-1.601.644-3.261 1.309-4.687 2.285-1.582 1.074-2.93 2.481-4.043 4.043-2.266 3.164-4.102 6.621-5.605 10.195-.312.723-.977 3.594.684 3.438a64.08 64.08 0 0 0 7.715-1.192c.41.196.82.372 1.25.567 1.426.644 2.93-1.25 3.516-2.324.43-.782 1.562-3.321.41-4.102.156-.625.273-1.269.391-1.894a5.03 5.03 0 0 0 .098-.567c.918.137 2.207-1.074 2.617-1.64.84-1.153 1.973-3.243 1.172-4.688z" fill="#fff"/><path d="M133.242 118.008l-6.465-.704-5.722-.624-8.77-.918-9.609-1.133c-.469-.059-.957.136-1.426.215l-.176-1.524c.84-.351 1.719-.586 2.481-1.035 2.968-1.777 3.711-3.359 2.187-6.465l-1.972-4.453c-.372-.742-.997-1.328-1.524-1.992 2.012-4.102 2.695-8.535 3.301-13.008.664-4.863 1.504-9.707 2.207-14.57l1.621-12.07 1.055-7.48c.019-.117.058-.254.078-.371l.39-5.43c.079-.976.274-1.953.391-2.93.156-1.328.195-2.676.488-3.984.586-2.656 2.305-5.605 6.192-5.937 2.343-.195 4.707-.469 7.031-.801 2.168-.312 4.316-.82 6.484-1.191 1.25-.215 2.52-.391 3.789-.488 2.305-.176 4.61-.312 6.915-.371 1.796-.039 3.593.195 5.371.137 2.675-.078 5.351-.332 8.027-.469l6.992-.293c3.242-.117 6.484-.41 9.707-.293 2.461.078 4.961.508 7.363 1.094 2.364.566 4.004 2.91 3.985 5.371 0 1.582-.117 3.203-.41 4.766-1.094 5.664-2.11 11.348-3.477 16.953-.801 3.301-2.109 6.465-3.32 9.668l-5.547 14.258c-1.348 3.477-2.578 6.992-4.082 10.41-.918 2.09-2.012 4.16-3.848 5.664-.273.215-.586.391-.859.586-.098-.293-.156-.645-.332-.898-.488-.742-1.465-.82-1.934-.176-1.367 1.836-2.637 3.77-4.14 5.489-1.426 1.621-3.086 3.007-4.629 4.492.156-.684.41-1.426.488-2.168.098-.977.43-2.168.019-2.93-.996-1.875-2.05-3.789-3.945-5-1.347-.859-2.461-.742-3.301.625-1.093 1.777-2.011 3.633-3.046 5.449a103.8 103.8 0 0 1-2.422 4.004c-.918 1.446-1.993 2.832-2.813 4.336-1.152 1.992-2.422 3.906-2.793 6.192zm12.11-61.426c.195.234.468.84.761.859.723.039 1.582 0 2.168-.352a1.58 1.58 0 0 0 .703-1.914c-.234-.684-.39-1.387-.566-2.09-.234-.977-.586-1.328-1.426-.84-1.953 1.152-4.101.156-6.074.82a.31.31 0 0 1-.254-.078c-1.035-.801-1.973-.234-2.969.117-.332.117-1.035.078-1.132-.117-.665-1.27-1.622-.898-2.54-.527-1.152.449-2.226 1.094-3.398 1.445-.508.156-1.504-.02-1.699-.371-.625-1.113-1.485-1.016-2.442-.82-2.109.41-4.316.41-6.132 1.816-.528.41-.918.723-.665 1.367.254.684.333 1.641 1.446 1.426.996-.176 1.953-.508 2.949-.684.996-.195 1.992-.547 2.852.527.312.391 1.093.469 1.679.527 1.739.215 3.203-.644 4.727-1.269.273-.117.742-.078.957.098.82.605 1.777.898 2.617.508 1.641-.742 3.32-.098 4.961-.43 1.074-.215 2.227-.02 3.477-.02zm-19.864-12.5c-.156-.234-.273-.41-.39-.605-.313-.586-.645-1.172-.938-1.777-.527-1.035-1.23-1.25-2.168-.527-.957.742-1.875 1.543-2.754 2.363-.703.664-.664 1.641.039 2.461.411.488 1.407.508 2.09 0 .176-.117.313-.273.528-.469.234.41.449.723.625 1.055 1.035 2.109 2.656 1.914 4.14.703.449-.371.977-.684 1.426-.996 1.367 1.289 2.285 1.367 3.769.43.215-.137.528-.234.762-.215 1.211.137 2.363.02 3.34-.742 1.172.957 1.465 1.035 2.949.801.84-.137 1.739-.117 2.52-.43 1.484-.586 2.07-2.207 1.426-3.633-.079-.156-.411-.273-.606-.254-.84.137-1.68.391-2.519.488-.411.039-1.016-.039-1.231-.312-.527-.664-1.074-.859-1.836-.547-.527.215-1.055.449-1.582.645-.215.078-.527.176-.644.078-.762-.625-1.504-.332-2.247 0-.429.195-.82.469-1.21.703-1.133-1.191-1.797-1.328-3.243-.566-.781.43-1.484.898-2.246 1.348zm2.344 21.934c0-.117.02-.215.02-.332l5.996.664c.918.078 1.875.117 2.773 0 .332-.039.684-.566.84-.937.059-.137-.332-.703-.566-.723-2.188-.234-4.395-.488-6.582-.547-3.575-.078-7.168.039-10.743.02-.82 0-1.601-.02-1.894.859-.215.645.469 1.016 1.816 1.016l8.34-.02zm31.719-8.281c.019-.059.039-.137.058-.195.313 0 .645-.02.957 0 .938.059 1.719-.293 1.954-1.191.175-.684.078-1.484-.079-2.187-.039-.176-.82-.215-1.25-.273s-1.074.078-1.25-.156c-.449-.586-.918-.547-1.523-.449-.625.117-1.289.039-1.875.234a26.85 26.85 0 0 0-3.379 1.406c-.254.137-.488.742-.41 1.035.391 1.523.566 1.914 2.402 1.445.723-.195 1.504-.41 2.227-.352s1.426.449 2.168.684zm-27.637 27.832v-.059c.606 0 1.25.098 1.816-.039.313-.078.665-.547.743-.898.039-.215-.411-.723-.684-.762-2.617-.254-5.234-.41-7.832-.606l-5.625-.488c-1.094-.098-2.168-.273-3.262-.215-.507.02-1.308.41-1.425.801-.235.781.546.938 1.152.996l4.023.293 11.094.977zm6.797 6.914v-.039h.293c.644.039 1.172-.156 1.23-.898.059-.781-.429-.918-1.093-.937-1.211-.039-2.422-.156-3.633-.273l-8.477-.898c-1.172-.117-2.363-.215-3.554-.234-.86 0-1.446.664-1.114 1.211.157.273.586.488.899.527 2.636.293 5.273.508 7.929.762l7.52.781zm3.066-19.922v.234c.606 0 1.25.098 1.817-.039.312-.078.683-.547.761-.918.098-.449-.156-.801-.781-.82l-6.914-.195c-.312 0-.644-.019-.957-.019l-7.598-.117c-.156 0-.332.019-.468.117-.391.254-1.055.313-.899 1.055.137.644.645.703 1.192.703h13.847zm-13.73 6.836c.019-.059.019-.137.039-.195l5.176-.254c.644-.019 1.054-.312 1.054-.977 0-.742-.488-.82-1.113-.801-1.308.059-2.617-.039-3.906.098-2.481.273-4.902-.019-7.324-.566-.996-.215-2.051-.273-3.047-.215-.41.019-1.094.488-1.153.84-.117.703.489.918 1.153.879.351-.019.703.02 1.054.078l8.067 1.113zm-.781 17.93v-.059c.254.02.507.02.761.039.645.019 1.075-.293 1.075-.957 0-.605-.352-.781-.977-.84l-9.629-1.035c-1.211-.117-2.422-.215-3.613-.137-.371.02-.957.625-.977.996-.058.645.547.762 1.172.762a39.42 39.42 0 0 1 3.731.254l8.457.977zm21.152-10.937v.078c.449 0 .957.117 1.328-.039.352-.156.723-.566.82-.937.157-.527-.214-.742-.781-.762l-9.961-.684c-.449-.02-.976.039-1.367.254-.273.156-.586.664-.508.918.078.273.567.605.879.625l9.59.547zm-2.871-21.191v.059c-.859 0-1.758-.098-2.598.039-.449.078-1.094.547-1.172.918-.136.723.547.762 1.133.781l5.078.176c.957.039 1.914.137 2.871.176.625.02 1.094-.293 1.153-.918.058-.664-.332-.918-.996-.937-1.817-.059-3.633-.195-5.469-.293zm10.391 15.449c.917.039 1.816.137 1.855-.898.059-1.094-.898-.898-1.602-.977-1.425-.117-2.871-.293-4.296-.352-.508-.02-1.075.098-1.543.293-.254.117-.528.605-.469.859.058.273.488.625.781.645 1.816.195 3.633.313 5.274.43zm-15.391-3.105v.059c-.352 0-.762-.117-1.035.02-.43.215-1.055.566-1.094.938-.078.644.527.801 1.133.801.508-.02 1.015.078 1.523.137l3.809.43c.605.059.996-.234 1.074-.84.098-.625-.215-.898-.859-.957l-4.551-.586zm-17.969-5.371c.352 0 .781.117 1.035-.039.332-.195.586-.605.703-.957.059-.176-.312-.664-.527-.684-1.465-.117-2.93-.176-4.394-.195-.333 0-.743.117-.977.332-.254.234-.547.703-.469.938.078.273.567.547.899.566 1.25.078 2.48.039 3.73.039zm25.684-.879c-.254.215-1.016.566-1.075 1.016-.117.879.743.801 1.387.84a72.05 72.05 0 0 1 3.535.313c.645.078 1.114-.117 1.211-.762.098-.566-.058-1.074-.84-1.113-1.269-.039-2.539-.156-4.218-.293zm-29.649 18.008c-.097-.156-.254-.625-.41-.606-1.25.02-2.48.117-3.711.273-.195.02-.508.586-.43.742.137.273.508.566.801.605.84.117 1.719.156 2.559.176.664-.02 1.094-.332 1.191-1.191zm37.793-23.516c-.351.039-.742-.039-.976.117-.313.195-.625.527-.703.859-.039.215.312.684.566.742.801.176 1.641.293 2.441.254.313-.019.782-.469.86-.801.097-.41 0-.957-.723-.977-.508.02-.996-.117-1.465-.195z" fill="#186efd"/><path d="M74.844 66.231c1.68-1.191 3.457-2.109 5.566-2.031 2.422.098 4.727.723 6.953 1.68l5.566 2.285c2.129.801 3.125 1.894 2.891 3.633-.195 1.563-1.016 2.832-2.266 3.769-2.773 2.07-5.996 2.598-9.316 2.148-1.836-.254-3.594-.898-4.453-2.891-.312-.742-.898-1.348-1.484-2.012.391 4.688-1.836 8.672-3.418 12.773-.664 1.719-1.973 3.184-2.93 4.805-.625 1.035-1.172 2.109-1.699 3.203-.293.625-.527 1.25-1.348 1.328-.801.078-1.27-.391-1.582-1.035-.996-2.09-2.832-2.91-4.941-2.949-1.914-.039-3.535.898-4.707 2.481-.117.156-.176.352-.254.527-1.348 2.793-1.348 2.813.566 5.176.215.254.527.508.84.586 1.699.429 3.398.859 5.098 1.191 1.641.313 2.441 1.133 2.363 2.813-.039 1.152-.273 2.285-.391 3.437-.059.567-.117 1.153-.059 1.719.176 1.855-.039 3.633-.859 5.351-.605 1.27-1.035 2.618-1.602 3.907-1.191 2.734-3.066 4.765-6.016 5.683l-9.551 3.184c-1.855.644-3.672.195-5.488-.195-.254-.059-.508-.137-.762-.118-2.871.254-5.41-.82-7.93-1.972-.918-.41-1.758-1.055-2.559-1.68-1.875-1.445-3.828-2.832-5.527-4.473-1.719-1.66-3.203-3.574-4.746-5.39-.43-.508-.664-1.172-1.113-1.68-1.445-1.641-2.012-3.691-2.637-5.703-.137-.41-.156-.898-.117-1.328.156-1.973.352-3.945.566-5.938a3.55 3.55 0 0 1 .273-1.016c1.465-3.125 3.145-6.094 5.899-8.301l5.801-4.746c.723-.567 1.582-.957 2.383-1.406.605-.352 1.23-.684 1.836-1.016 1.152.215 2.305.566 3.457.606 4.277.195 8.516-.137 12.754-.762 2.617-.391 5.234-.84 7.617-2.129.723-.391 1.426-.879 2.168-1.23 3.027-1.426 6.074-2.773 8.613-5.098 2.48-2.246 4.766-4.473 6.543-7.187z" fill="#010101"/><path d="M133.242 118.009c.371-2.305 1.641-4.219 2.715-6.192.82-1.504 1.894-2.871 2.812-4.336l2.422-4.004 3.047-5.449c.84-1.367 1.934-1.484 3.301-.625 1.894 1.211 2.949 3.125 3.945 5 .41.762.078 1.953-.019 2.93-.078.742-.332 1.484-.489 2.168l4.629-4.492c1.504-1.719 2.774-3.653 4.141-5.489.469-.644 1.445-.566 1.934.176.175.254.214.586.332.898l-1.954 2.695c-.82 1.055-1.601 2.187-2.578 3.105-2.793 2.657-5.664 5.235-8.535 7.793-.605.528-1.347.918-2.07 1.289-.234.118-.781 0-.899-.195-.175-.254-.214-.801-.058-1.035 1.855-2.52 2.168-5.723 3.965-8.184l-3.535-3.964-1.27 2.285c-1.465 2.812-2.988 5.586-5.098 8.008-.722.839-1.132 1.933-1.777 2.851-2.012 2.891-2.695 6.406-4.727 9.492 7.774 1.211 14.883 3.574 20.157 9.414l1.406-1.25 1.816-1.543c1.094-.918 2.149-1.894 3.301-2.754.254-.195.781 0 1.172 0-.078.391-.059.86-.254 1.153-.781 1.133-1.621 2.207-2.461 3.281-.879 1.133-1.738 2.305-3.476 2.91.859.703 1.543 1.406 2.343 1.895 1.504.937 2.012 2.109 1.407 3.75l-6.289 16.777c-.665 1.758-1.485 3.477-2.305 5.176l-5.703 11.738c-.176.352-.332.703-.586.996-3.34 3.848-7.071 7.129-12.344 7.93-1.211.176-2.48-.02-3.73-.078-.704-.039-1.407-.156-2.11-.156-2.402 0-4.59-.723-6.699-1.817-2.031-1.074-4.16-1.992-6.094-3.223-2.226-1.445-4.277-3.144-6.367-4.785-.644-.507-1.211-1.132-1.797-1.738l-4.531-4.844-4.414-4.707c-1.094-1.133-2.363-2.09-3.32-3.32-.762-.957-1.289-2.148-1.719-3.32-.234-.664.352-1.153 1.016-1.426.703-.274 1.328-.039 1.563.547.918 2.265 2.969 3.535 4.453 5.312 1.465 1.778 3.106 3.418 4.688 5.098 1.347 1.465 2.675 2.949 4.082 4.355.937.938 1.992 1.778 3.027 2.618.976.781 2.09 1.406 2.988 2.246 1.778 1.679 3.887 2.734 6.035 3.847 3.067 1.563 6.27 2.032 9.629 2.266 3.848.273 6.914-1.172 9.668-3.633.235-.215.469-.449.723-.644 1.543-1.289 2.754-2.774 3.613-4.649 1.875-4.14 3.965-8.164 5.957-12.265.449-.918.821-1.875 1.192-2.833l5.117-13.339c.351-.957.605-1.934.859-2.735l-4.824-5.019c-1.406-1.543-2.891-2.91-4.902-3.614-.508-.175-1.055-.41-1.426-.761-1.543-1.426-3.457-1.875-5.41-2.285-2.442-.508-4.844-1.25-7.325-1.543-1.914-.215-3.886.078-5.839.234-.235.02-.547.527-.606.859l-.918 5.684c-.176.977-.488 1.914-.801 2.852-.293.898-.273 1.64.547 2.285 1.289.996 2.285 2.226 2.774 3.847.293.996.156 1.621-.528 1.875-.683.235-1.386-.254-1.816-1.035-.625-1.172-1.309-2.324-2.051-3.418-.137-.215-.625-.215-.957-.293-.254-.058-.644-.039-.762-.195-.156-.215-.136-.586-.117-.879.039-.391.137-.762.215-1.133.137-.586.156-1.23.43-1.758.761-1.484 1.015-3.046 1.113-4.707.117-1.953.195-3.906 1.113-5.761.625-1.27 1.66-1.387 2.754-1.485 1.641-.136 3.301-.136 4.942-.234.254-.02.664-.156.722-.352.508-1.367 1.407-2.597 1.426-4.14z" fill="#040404"/><path d="M74.844 66.23c-1.777 2.734-4.082 4.961-6.484 7.129-2.539 2.324-5.586 3.672-8.613 5.098-.742.352-1.445.84-2.168 1.231-2.383 1.289-5 1.738-7.617 2.129-4.219.625-8.477.957-12.754.762-1.152-.059-2.305-.391-3.457-.605-.371-.039-.937-.254-1.094-.078-.684.703-1.465.742-2.188.371-.879-.449-.996-1.426-.879-2.285.117-.879.332-1.797.762-2.539 1.328-2.207 2.793-4.356 4.219-6.504.176-.254.43-.469.664-.703.801-.801 1.582-1.621 2.422-2.402.41-.391.898-.723 1.387-1.016 1.426-.82 2.891-1.602 4.336-2.402.547.234 1.094.586 1.68.684.313.039.84-.273.996-.566.098-.176-.273-.898-.488-.937-1.504-.156-1.426-1.211-1.426-2.266 1.328-1.875 3.164-2.461 5.293-1.875 1.211.332 2.324.977 3.496 1.445a1.28 1.28 0 0 0 .762.059c1.387-.371 2.734-.898 4.141-1.133 2.676-.43 5.352-.449 7.988.332l6.231 1.797c1.387.41 2.578 1.074 2.871 2.637.078.547-.039 1.094-.078 1.641zM46.25 76.62c0 .039.02.059.02.098l4.121-.762c.176-.039.293-.293.43-.43-.215-.137-.449-.43-.664-.41-1.738.156-3.496.215-5.195.566-3.516.742-7.031 1.367-10.625.625-.273-.059-.605.176-.918.273.234.215.41.547.684.625 3.066 1.055 6.172.781 9.277.156.957-.215 1.914-.488 2.871-.742zm8.672-3.008c.078.117.137.234.215.352 2.168-1.035 4.375-1.992 6.484-3.125 3.066-1.641 5.742-3.828 8.164-6.309.234-.234.391-.898.234-1.113-.352-.488-.762-.117-1.113.195-1.387 1.23-2.734 2.5-4.18 3.672-1.504 1.23-3.047 2.441-4.668 3.516-1.27.84-2.676 1.465-4.024 2.207-.391.176-.742.391-1.113.605z" fill="#186efc"/><path d="M102.207 99.395c.508.665 1.152 1.27 1.523 1.993.743 1.445 1.27 2.988 1.973 4.453 1.524 3.105.781 4.687-2.187 6.465-.743.449-1.621.683-2.481 1.035l.176 1.523c-.41.508-.195 1.407-1.211 1.582-.977.176-1.387-.058-1.191-1.015.137-.625.156-1.114-.371-1.641-.625-.605-.293-1.387.254-1.875.586-.508 1.348-.82 2.032-1.211l2.558-1.445c.508-.313.567-.781.313-1.348l-2.539-5.625-8.711 6.289c-.488.371-.898.938-1.191 1.504l-4.336 8.555c-.43.879-.606 1.875-.996 3.144 2.949-1.757 6.016-1.074 8.906-1.523 2.461-.371 4.805.215 6.835 1.543 1.954 1.289 4.004 2.461 5.567 4.355 2.715 3.301 5.664 6.446 8.418 9.707 1.015 1.211 1.758 2.637 2.676 3.946.273.39.703.664.957 1.035.254.39.625.957.507 1.289-.136.41-.722.84-1.152.898-1.113.176-1.953-.449-2.637-1.289l-5.214-6.386-6.543-7.676c-.703-.801-1.778-1.27-2.539-2.031-2.188-2.188-4.786-2.598-7.696-2.188-.977.137-1.992-.059-2.969.039-1.231.117-2.5.234-3.652.606-2.461.8-4.824 1.894-7.285 2.675-1.348.43-2.812.489-4.238.625-.254.02-.547-.371-.82-.586.234-.234.449-.566.723-.703l5.234-2.09c.215-.078.41-.371.469-.605.371-1.543.566-3.145 1.074-4.648 1.875-5.567 3.281-11.25 4.082-17.071.117-.898-.039-1.855-.215-2.754-.469-2.285.469-3.711 2.734-4.043.43-.058.879-.156 1.445-.254-.918-1.602-1.719-3.203-2.676-4.687-1.465-2.285-3.047-4.531-4.59-6.758-.137-.215-.567-.352-.84-.312-1.133.156-2.012.742-2.695 1.68-.195.254-.723.273-1.074.41-.098-.371-.352-.781-.293-1.133.332-1.66 1.269-2.852 3.144-3.281-.43-.547-.859-.977-1.113-1.504-.156-.332-.039-.781-.059-1.172.351.098.781.137 1.055.332.801.586 1.582 1.23 2.344 1.875.195.156.43.371.469.586.215 1.582 1.465 2.52 2.285 3.691l5.644 7.91c.449.625.938 1.211 1.426 1.816.586.723 1.348 1.465.82 2.48-.508.938-1.426 1.328-2.519 1.289-.742-.019-1.504 0-2.324 0 1.133 4.121-.508 7.774-.762 11.582.117-.078.293-.156.371-.273 1.484-2.715 3.867-4.512 6.367-6.172 1.523-1.016 2.988-2.11 4.551-3.027.566-.391 1.425-.41 2.187-.586z" fill="#040404"/><path d="M78.828 103.926c.098 1.933-.352 3.847.762 5.566.332.508.391 1.133-.195 1.543s-1.152.234-1.523-.293c-.488-.703-1.133-1.484-1.23-2.285-.273-2.285-.352-4.59-.371-6.895 0-.508.449-1.23.899-1.484.313-.176 1.152.176 1.445.547 1.152 1.406 2.188 2.91 3.223 4.414.117.176-.059.82-.215.879-.312.117-.84.078-1.055-.117-.645-.567-1.172-1.25-1.738-1.875z" fill="#060606"/><path d="M64.805 48.224l.938-8.496c.039-.273.098-.664.273-.801.41-.273.938-.605 1.367-.547.644.059.898.664.801 1.328l-1.406 10.664c-.019.195.02.449-.078.566-.254.293-.547.684-.859.723-.215.039-.683-.43-.723-.703-.137-.879-.137-1.797-.176-2.695-.039-.039-.098-.039-.137-.039z" fill="#080808"/><path d="M154.961 113.398c.118-.215.293-.586.547-.899l4.278-4.921a2.2 2.2 0 0 1 .937-.625c.215-.079.625 0 .762.156s.137.527.058.761c-.722 2.403-2.558 4.083-4.023 5.997-.254.332-.684.605-1.074.781-.762.332-1.524-.254-1.485-1.25z" fill="#060606"/><path d="M57.305 51.739c-.332.117-.664.371-.977.352s-.781-.234-.879-.488l-1.992-5.137a8.5 8.5 0 0 1-.352-1.387c-.098-.742.098-1.406.879-1.582.82-.195 1.133.391 1.289 1.074l1.563 6.406c.039.117.039.254.059.371.137.117.273.254.41.391z" fill="#080808"/><path d="M79.355 46.777l-.586 1.387-1.738 3.398c-.371.664-.781 1.328-1.289 1.875-.195.215-.918.215-1.152 0-.234-.195-.273-.82-.156-1.152.352-.918.82-1.777 1.25-2.676l1.68-3.223c.195-.352.84-.801 1.016-.723.41.215.684.742.977 1.113z" fill="#070707"/><path d="M161.425 115.234c-.117.449-.136.703-.254.937l-1.816 3.575c-.156.293-.371.683-.664.781-.391.137-1.016.234-1.27.019-.273-.195-.429-.918-.273-1.23.566-1.133 1.289-2.207 1.953-3.281.195-.332.391-.664.645-.938.273-.273.664-.703.918-.644.332.058.547.547.761.781z" fill="#060606"/><path d="M44.141 61.367c0 1.055-.059 2.109 1.426 2.266.215.019.586.762.488.938-.176.293-.684.625-.996.566-.586-.078-1.113-.43-1.68-.684-.84-1.016-.547-2.148-.352-3.262.039-.195.313-.352.469-.527l.645.703z" fill="#070c0a"/><path d="M83.906 92.11c.019.215 0 .449.039.664.059.547-.059.996-.684 1.055-.625.039-1.133-.312-1.094-.937.039-.645.293-1.289.566-1.895.098-.195.566-.351.801-.293.195.059.313.469.391.723.059.215.02.449.02.664-.02.02-.02.02-.039.02z" fill="#060606"/><path d="M162.207 121.62c-.234.567-.488 1.328-.859 2.012-.098.176-.605.273-.82.195s-.528-.547-.469-.683c.371-.821.723-1.7 1.328-2.325.391-.41.781.079.82.801z" fill="#090909"/><path d="M145.352 56.583c-1.25 0-2.403-.176-3.496.039-1.641.332-3.321-.293-4.961.43-.84.371-1.817.098-2.617-.508-.215-.176-.684-.195-.957-.098-1.524.625-2.989 1.484-4.727 1.27-.586-.078-1.367-.156-1.68-.527-.859-1.074-1.855-.703-2.851-.527l-2.95.684c-1.113.215-1.191-.762-1.445-1.426-.254-.645.156-.977.664-1.367 1.836-1.426 4.043-1.426 6.133-1.816.957-.176 1.816-.293 2.441.82.196.351 1.192.508 1.7.371 1.172-.352 2.265-.996 3.398-1.445.938-.371 1.875-.742 2.539.527.098.195.801.234 1.133.117.996-.352 1.934-.937 2.969-.117.078.059.195.098.254.078 1.953-.664 4.121.313 6.074-.82.84-.508 1.211-.137 1.426.84l.566 2.09c.273.84-.137 1.563-.703 1.914-.586.352-1.445.41-2.168.352-.293-.039-.547-.645-.742-.879zm-19.864-12.5l2.227-1.328c1.445-.762 2.09-.625 3.242.566.391-.234.781-.508 1.211-.703.742-.332 1.485-.625 2.246 0 .117.098.449 0 .645-.078l1.582-.645c.761-.312 1.308-.117 1.836.547.215.273.82.352 1.23.313.86-.098 1.68-.352 2.52-.488.195-.039.547.098.605.254.645 1.426.078 3.047-1.426 3.633-.781.313-1.679.293-2.519.43-1.485.234-1.777.156-2.949-.801-.977.762-2.129.879-3.34.742-.254-.02-.547.078-.762.215-1.484.938-2.402.859-3.769-.43l-1.426.996c-1.485 1.211-3.106 1.406-4.141-.703l-.625-1.055-.527.469c-.684.508-1.68.488-2.09 0-.684-.84-.742-1.816-.039-2.461l2.754-2.363c.937-.723 1.64-.508 2.168.527l.937 1.777.41.586z" fill="#fbfcfe"/><path d="M127.832 66.015h-8.339c-1.348 0-2.012-.352-1.817-1.016.274-.879 1.074-.879 1.895-.859l10.742-.02c2.207.039 4.394.313 6.582.547.234.019.625.586.566.723-.175.371-.508.898-.84.938-.918.117-1.855.078-2.773 0l-5.996-.664c0 .117-.02.234-.02.352z" fill="#010307"/><path d="M159.55 57.734c-.722-.234-1.445-.625-2.187-.684-.723-.059-1.504.176-2.227.352-1.816.469-2.011.078-2.402-1.445-.078-.312.156-.918.41-1.035a26.85 26.85 0 0 1 3.379-1.406c.586-.195 1.27-.137 1.875-.234.606-.117 1.074-.156 1.524.449.175.234.82.098 1.25.156.449.059 1.21.098 1.25.273.175.703.253 1.504.078 2.188-.235.899-1.016 1.25-1.953 1.191-.313-.02-.645 0-.958 0 0 .059-.019.137-.039.195z" fill="#fbfcfe"/><path d="M131.915 85.566l-11.075-.996-4.023-.293c-.625-.059-1.387-.234-1.152-.996.117-.391.917-.781 1.425-.801 1.075-.058 2.168.137 3.262.215l5.625.488 7.832.605c.273.02.723.547.684.762-.078.352-.43.82-.743.898-.566.156-1.21.039-1.816.039-.019.039-.019.059-.019.078z" fill="#020409"/><path d="M138.711 92.481l-7.52-.781-7.93-.762c-.332-.039-.742-.254-.898-.527-.332-.566.254-1.231 1.113-1.211 1.192.02 2.363.117 3.555.234l8.476.898 3.633.273c.664.019 1.172.176 1.094.938-.059.742-.586.918-1.231.898h-.292v.039z" fill="#020408"/><path d="M141.777 72.559H127.93c-.547 0-1.055-.078-1.192-.703-.156-.723.508-.781.899-1.055.117-.078.312-.117.468-.117l7.598.117.957.02 6.914.195c.625 0 .879.371.781.82-.078.352-.429.82-.761.918-.567.156-1.211.039-1.817.039v-.234z" fill="#02050b"/><path d="M128.047 79.394l-8.067-1.094c-.351-.039-.703-.098-1.054-.078-.664.039-1.27-.195-1.153-.879.059-.352.723-.82 1.153-.84 1.015-.059 2.07 0 3.047.215 2.422.527 4.843.82 7.324.566 1.289-.137 2.598-.039 3.906-.098.606-.019 1.113.059 1.113.801 0 .664-.41.938-1.054.977l-5.176.254c-.02.039-.02.098-.039.176z" fill="#020408"/><path d="M127.266 97.325l-8.457-.957-3.731-.254c-.625-.02-1.23-.117-1.172-.762.039-.371.625-.977.977-.996 1.191-.078 2.422.019 3.613.137l9.629 1.035c.625.059.977.234.977.84 0 .664-.411.957-1.075.957-.254 0-.507-.019-.761-.039v.039z" fill="#020509"/><path d="M148.418 86.387l-9.589-.527c-.332-.02-.801-.352-.879-.625-.078-.254.234-.762.508-.918.39-.215.917-.293 1.367-.254l9.961.684c.566.039.937.234.781.762a1.69 1.69 0 0 1-.82.938c-.372.156-.879.039-1.329.039-.019-.059-.019-.078 0-.098z" fill="#020409"/><path d="M145.547 65.195l5.469.293c.683.02 1.054.273.996.938-.059.625-.528.957-1.153.918l-2.871-.176-5.078-.176c-.586-.019-1.269-.059-1.133-.781.079-.391.723-.84 1.172-.918.84-.156 1.719-.039 2.598-.039v-.059z" fill="#020307"/><path d="M155.938 80.644l-5.274-.43a1.14 1.14 0 0 1-.781-.645c-.059-.234.215-.742.469-.859a3.25 3.25 0 0 1 1.543-.293l4.297.352c.703.059 1.66-.117 1.601.977-.039 1.035-.918.938-1.855.898zm-15.391-3.105l4.55.566c.645.059.957.332.86.957-.078.605-.489.898-1.075.84l-3.808-.43c-.508-.059-1.016-.156-1.524-.137-.625.019-1.23-.137-1.132-.801.039-.352.664-.723 1.093-.937.274-.137.684-.019 1.036-.019v-.039zm-17.969-5.371c-1.23 0-2.48.039-3.711-.02-.332-.019-.82-.312-.898-.566s.215-.723.469-.937c.234-.215.644-.332.976-.332l4.395.195c.195.019.566.508.527.684-.117.371-.391.762-.703.957-.273.156-.703.02-1.055.02zm25.684-.879l4.219.313c.761.039.918.527.839 1.113-.097.645-.566.84-1.211.762l-3.535-.312c-.644-.039-1.504.039-1.386-.84.058-.449.839-.801 1.074-1.035zm-29.649 18.008c-.097.859-.547 1.172-1.191 1.172l-2.559-.176c-.312-.039-.664-.332-.801-.606-.078-.156.254-.723.43-.742 1.231-.156 2.481-.234 3.711-.273.156.02.332.488.41.625z" fill="#02050a"/><path d="M156.406 65.781c.469.078.977.195 1.465.215.723.02.82.566.723.977-.078.332-.547.781-.86.801-.82.039-1.64-.078-2.441-.254-.254-.059-.605-.527-.566-.742.078-.332.39-.664.703-.859.234-.176.605-.098.976-.137z" fill="#02060c"/><path d="M46.25 76.622l-2.871.723c-3.105.625-6.211.898-9.277-.156-.273-.098-.469-.41-.684-.625.313-.098.645-.332.918-.273 3.613.742 7.109.137 10.625-.625 1.699-.352 3.457-.43 5.195-.566.215-.02.43.273.664.41-.137.156-.273.41-.43.43-1.367.273-2.734.508-4.121.762-.02-.02-.02-.039-.02-.078z" fill="#040d09"/><path d="M54.922 73.614l1.094-.625 4.023-2.207c1.621-1.074 3.164-2.285 4.668-3.516l4.18-3.672c.352-.312.762-.703 1.113-.195.156.215 0 .879-.234 1.113-2.422 2.48-5.098 4.668-8.164 6.309-2.109 1.133-4.316 2.09-6.484 3.125-.059-.098-.117-.215-.195-.332z" fill="#050f0a"/></svg>