<svg width="24" height="24" viewBox="0 0 24 24" fill="none" xmlns="http://www.w3.org/2000/svg"><g clip-path="url(#clip0_2130_17)" fill="#000"><path d="M18.3038 12.7532C18.2735 9.71313 20.7799 8.25503 20.892 8.18137C19.4834 6.11934 17.2888 5.8364 16.5078 5.80421C14.6417 5.61445 12.8647 6.90474 11.918 6.90474C10.9733 6.90474 9.5106 5.83201 7.96314 5.85933C5.92747 5.88958 4.05112 7.04474 3.00356 8.86919C0.889446 12.541 2.46273 17.9827 4.52277 20.9628C5.52988 22.4194 6.73092 24.0585 8.30664 23.9985C9.82536 23.9385 10.3983 23.0151 12.2343 23.0151C14.0702 23.0151 14.5857 23.9985 16.1921 23.9678C17.8253 23.938 18.8607 22.4833 19.8595 21.0208C21.0157 19.3286 21.4917 17.69 21.52 17.6071C21.4844 17.5905 18.3364 16.3831 18.3038 12.7532Z"/><path d="M15.2853 3.83184C16.1209 2.8162 16.6871 1.40493 16.5331 0C15.3272 0.0487822 13.8675 0.802467 13.0017 1.81714C12.226 2.71766 11.5477 4.15136 11.7295 5.53092C13.0747 5.63532 14.4468 4.84554 15.2853 3.83184Z"/></g><defs><clipPath id="clip0_2130_17"><path fill="#fff" d="M0 0H24V24H0z"/></clipPath></defs></svg>