<svg width="10" height="14" viewBox="0 0 10 14" fill="none" xmlns="http://www.w3.org/2000/svg"><path d="M4.9 3.15C5.24612 3.15 5.58446 3.25264 5.87225 3.44493C6.16003 3.63722 6.38434 3.91053 6.51679 4.2303C6.64924 4.55007 6.6839 4.90194 6.61637 5.24141C6.54885 5.58087 6.38218 5.89269 6.13744 6.13744C5.89269 6.38218 5.58087 6.54885 5.24141 6.61637C4.90194 6.6839 4.55007 6.64924 4.2303 6.51679C3.91053 6.38434 3.63722 6.16003 3.44493 5.87225C3.25264 5.58446 3.15 5.24612 3.15 4.9C3.15 4.43587 3.33437 3.99075 3.66256 3.66256C3.99075 3.33437 4.43587 3.15 4.9 3.15ZM4.9 0C6.19956 0 7.4459 0.516249 8.36482 1.43518C9.28375 2.3541 9.8 3.60044 9.8 4.9C9.8 8.575 4.9 14 4.9 14C4.9 14 0 8.575 0 4.9C0 3.60044 0.516249 2.3541 1.43518 1.43518C2.3541 0.516249 3.60044 0 4.9 0ZM4.9 1.4C3.97174 1.4 3.0815 1.76875 2.42513 2.42513C1.76875 3.0815 1.4 3.97174 1.4 4.9C1.4 5.6 1.4 7 4.9 11.7C8.4 7 8.4 5.6 8.4 4.9C8.4 3.97174 8.03125 3.0815 7.37487 2.42513C6.7185 1.76875 5.82826 1.4 4.9 1.4Z" fill="#65779B"/></svg>