<svg xmlns="http://www.w3.org/2000/svg" width="165" height="145" fill="none"><g clip-path="url(#A)"><path d="M66.101 71.55c2.785-1.936 5.514-3.925 8.347-5.765 2.758-1.788 5.669-3.332 8.462-5.07 1.98-1.21 3.86-2.591 5.806-3.851l5.945-3.782 4.338-2.831c.98-.607 1.994-1.164 2.973-1.771.17-.1.275-.32.411-.47.297-.077.628-.105.911-.228l4.549-2.184c.96-.502 1.873-1.099 2.799-1.651l2.844-1.055 4.805-1.92c1.48-.604 2.949-1.275 4.415-1.925 1.137-.514 2.256-1.052 3.407-1.52 1.642-.662 3.314-1.253 4.953-1.894a126.77 126.77 0 0 0 3.67-1.537c1.087-.479 2.161-1.004 3.24-1.441l5.524-2.161c1.659-.637 3.295-1.387 4.981-1.932 1.065-.352 2.208-.538 3.324-.577.328-.006.98.72.975 1.111.039 1.356.407 2.575 1.022 3.752.148.266.009.676.033 1.028.025.222.032.55.164.66.153.115.454.016.68-.03 1.047-.138 2.085-.343 3.11-.354.285-.014.792.556.819.887.074 1.406.522 2.661 1.03 3.949.262.721-.203 1.856-.629 2.65s-.819 1.289.037 2.095c.428.403.452 1.235.62 1.874.199.71.28 1.465.525 2.161.449 1.256.395 2.399-.436 3.511-.508.648-.665 1.643-1.277 2.142-.922.77-2.049 1.35-3.161 1.847-1.494.688-3.06 1.168-4.572 1.832-2.032.896-4.034 1.864-6.018 2.855l-7.541 3.822c-2.451 1.169-4.998 2.147-7.467 3.291-1.565.719-3.065 1.559-4.579 2.353l-9.823 5.261c-3.365 1.897-6.765 3.744-9.979 5.885-4.076 2.704-8.028 5.562-11.897 8.564-2.884 2.244-5.591 4.716-8.299 7.188-1.507 1.361-2.804 2.89-4.255 4.304l-8.056 7.775c-1.562 1.547-3.034 3.197-4.428 4.904-.812 1.007-1.398 2.207-2.099 3.321-.966 1.502-2.327 2.171-4.115 2.437-2.3.326-3.813-1.056-5.483-2.053-2.694-1.594-5.315-3.349-7.944-5.062l-5.955-4.03-11.857-7.986c-1.613-1.073-3.214-2.21-4.863-3.203-1.572-.935-3.242-1.693-4.822-2.586l-9.025-5.105c-1.139-.684-2.723-.707-3.396-2.047-.738-1.46-1.469-2.962-1.974-4.511-.277-.877 1.303-2.529 2.266-2.682 1.055-.18 1.486-1.125.835-2.221-.817-1.387-.313-2.493.476-3.613.09-.136.237-.349.371-.368 1.308-.135 1.992-1.034 2.823-1.907.489-.543.753-.8.396-1.474-.65-1.226-.392-2.66.627-3.608.157-.146.383-.192.553-.292.631-.365 1.276-.684 1.869-1.078.622-.432 1.191-.939 1.792-1.375.75-.54 1.471-1.041 2.155-1.701 1.422-1.376 3.19-2.494 4.979-3.369 2.384-1.159 4.501-.104 6.482 1.34l10.535 7.595c1.569 1.196 3.105 2.451 4.732 3.571 1.179.821 2.47 1.51 3.706 2.255l5.897 4.107c.677.47 1.172.015 1.685-.415l3.532-2.824.067-.01.979-.847 2.494-2.01-.021-.004z" fill="#43bf7c"/><path d="M136.337 130.051c-.703-.323-1.464-.568-2.11-.967l-8.622-5.533-6.316-4.073c-1.291-.928-2.311-2.156-2.034-3.934s2.086-2.888 3.746-2.198l5.659 2.65c3.523 1.939 7.007 3.98 10.466 6.038 1.828 1.09 2.989 2.735 3.036 4.897.035 2.226-2.238 3.492-3.808 3.145l-.017-.025zm5.706-23.973l-5.661-2.519c-3.581-1.623-6.891-3.785-10.725-4.845-1.347-.373-1.884-1.623-1.488-2.857.349-1.09 1.621-1.754 2.867-1.421l13.877 3.889c1.572.457 3.183.812 4.621 1.527 2.137 1.059 2.647 3.304 1.325 5.09-1.117 1.496-2.753 1.397-4.816 1.135zm-36.015 27.853c-.318 1.77-1.492 2.973-3.087 3.252-1.64.292-3.145-1.262-3.663-2.856-.613-1.916-1.677-3.74-2.757-5.479-.893-1.444-2.06-2.698-3.099-4.06-.651-.857-.421-2.621.423-3.318 1.26-1.079 2.658-1.11 3.737-.089 2.759 2.563 5.39 5.233 7.398 8.466.772 1.271 1.364 2.574 1.046 4.105l.003-.021zM50.263 6.697c.329.712.753 1.376.99 2.115l2.979 9.804 2.168 7.178c.378 1.526.372 3.135-.995 4.325-1.342 1.173-3.461.857-4.282-.748l-2.592-5.666c-1.434-3.761-2.751-7.566-4.068-11.371-.703-2.019-.519-4.01.851-5.699 1.399-1.728 3.958-1.203 4.949.063zM30.408 21.294l2.675 5.572c1.69 3.546 2.81 7.359 5.046 10.655.77 1.161.388 2.441-.716 3.135-.98.607-2.38.29-3.106-.755l-8.078-11.94c-.909-1.36-1.909-2.693-2.538-4.155-.933-2.191.111-4.244 2.286-4.724 1.815-.413 3.004.715 4.404 2.25l.029-.038zm45.472 2.041c1.398-1.119 3.062-1.299 4.46-.481 1.436.846 1.591 3.006.945 4.543-.77 1.863-1.124 3.953-1.442 5.963-.257 1.673-.177 3.406-.266 5.109-.063 1.077-1.363 2.257-2.472 2.253-1.655.007-2.756-.887-2.927-2.354-.438-3.734-.721-7.483-.155-11.233.219-1.462.621-2.847 1.858-3.8z" fill="#000"/></g><defs><clipPath id="A"><path fill="#fff" transform="rotate(10.197 6.505 120.645)" d="M0 0h145.46v120H0z"/></clipPath></defs></svg>