<svg xmlns="http://www.w3.org/2000/svg" width="184" height="215" fill="none"><g clip-path="url(#A)"><path d="M178.774 142.114c-.466-.706-1.332-1.495-1.877-2.278-1.564-2.242-1.449-2.971-3.882-4.855-7.278-5.636-16.75-7.745-25.839-6.943-11.349 1-23.62 16.866-22.877 28.044.445 6.715 2.805 14.799 6.169 20.587l-20.331-.222c-5.393.819-10.772.262-16.157 0-4.597-.224-9.661-.12-14.203-1.122-4.043-.892-6.065-5.578-7.193-9.109-.13-.405-.328-.936-.426-1.28-.557-1.97-.77-4.645-.86-6.71-.685-15.8.187-31.135 1.285-46.831l.213-3.199c.143-2.108.115-4.098.213-6.186.043-.911.381-2.153.426-3.2.196-4.546-.553-8.991-.851-13.439-.108-1.621-.106-3.283-.213-4.906l-.426-5.973-.213-5.333c-.043-3.876.913-7.72.851-11.412-.019-1.171-.426-2.385-.426-3.733 0-.407-.047-.894 0-1.28.306-2.538 2.473-6.201 4.463-7.792 4.58-3.663 13.532-2.515 19.044-2.438l58.116.41c4.594.151 9.072.921 13.613 1.284 3.639.29 10.098-1.267 11.368 3.537.279 1.05.598 2.782.807 3.884.77 4.083-.262 6.683-.379 10.386-.045 1.393.379 2.72.445 4.053.285 5.761-.99 11.672-.869 17.722.326 16.476.015 32.952-.213 49.471-.04 2.95-.082 5.937.222 8.861l-.002.002zM107.3 65.721c-.379-.41.807-2.773.832-3.5.038-1.111-1.219-5.328-1.915-6.188-.115-.143-1.69-1.133-1.945-1.25-1.973-.904-5.246-1.154-7.225-.245-.63.29-1.375 1.079-1.915 1.28-1.215.452-3.518.491-3.807 2.37-.168 1.086-.296 3.714-.075 4.744s1.011 1.86.924 2.92c-.164.887-1.892.685-1.407 2.685.404 1.672 1.636 1.231 2.198 1.745.224.205.434 1.158.683 1.553.777 1.233 2.132 3.046 3.601 3.323l.032 2.607c-.113.465-7.091 2.907-7.721 4.465-.939 2.321.634 2.779 2.501 2.929 3.305.264 6.714.032 9.991-.006 2.037-.023 4.678.241 6.61.013.798-.094 1.588-.708 1.583-1.574-.01-3.072-5.901-4.753-8.046-6.141l-.251-1.766c1.611-.793 2.728-2.317 3.662-3.814.245-.39.347-1.075.583-1.335.311-.343.822-.26 1.196-.508 1.003-.655 1.211-2.6.854-3.65-.258-.755-.824-.529-.941-.655h-.002zm44.845-.215c-.251-1.005.562-2.398.419-3.225-.087-.512-.796-1.965-1.353-2.073-1.692-.331-4.361.196-6.178.218-.977.011-1.856-.322-2.967-.22-1.425.132-2.943 1.297-4.045 1.297-1.245 0-1.73-.926-2.724-1.342-2.143-.9-3.33.124-4.826 1.536.012-.44-.718-1.06-1.079-1.173-.66-.209-.283.237-1.203-.32-1.198-.725-2.77 1.06-2.936 1.062-.118 0-.535-.751-1.073-.849-1.073-.194-4.388.74-4.573 2.039-.066.463.938 2.504 1.24 3.018.975 1.651 2.16 2.939 4.199 3.052 1.837.102 2.354-1.278 2.75-1.288.429-.011 1.025.638 1.553.806 1.209.388 2.72.226 3.724-.584.379-.305.494-1.026 1.109-1.058 1.96.781 4.218 1.199 6.291.523.681-.222 1.362-.881 2.257-.953.626-.051 1.103.22 1.667.213 1.072-.011 7.508-.281 7.748-.676v-.002zm-9.359 7.519c-1.896-.909-3.175-.943-5.142-.19-1.511.58-1.717 1.412-3.677 1.242-1.626-.141-2.134-1.472-4.456-1.288-1.886.149-4.482 1.996-5.957 1.93-1.036-.045-1.494-.93-2.283-1.16-.353-.102-2.066-.367-2.379-.331-2.863.322-3.058 3.202-1.986 5.365.975 1.967 1.407.476 2.554.631 1.43.194 2.358 1.421 4.728 1.239 1.739-.134 4.406-1.847 5.576-1.873.232-.004 2.152 1.058 2.994 1.18 1.847.267 3.737.145 5.423-.64 1.442-.672.813-.582 2.504-.883 2.214-.392 1.677-3.443 2.101-5.224v.002zm12.087-.192c-1.113.075-2.098 1.521-3.066 1.615-1.184.113-3.756-1.047-4.52-.704-.428.192-1.29 1.568-1.409 2.031-.155.606.138.907.083 1.342-.06.469-.877 1.171-.511 1.657s5.763 1.451 6.584 1.406c1.467-.079 2.822-1.026 3.876-1.192s3.039.006 4.245-.013c1.313-.019 2.645.092 3.948-.094.368-.256.153-1.598.208-2.135.041-.38.407-.725.375-1.045-.019-.192-.807-1.653-.932-2.046-.879-.642-5.248-.122-6.572-.237-.519-.045-1.734-.459-2.313-.584h.004zm-13.698 24.416c-.151-.192-.124-.61-.364-.802-.653-.525-1.817.013-2.569.03l-17.454.209c-1.211.235-1.871 3.723-.23 3.846 6.161-.411 13.088.308 19.161-.228.911-.081.941-.29 1.462-.554.256-.13.583-.062.775-.186.281-.179.587-1.574.398-1.79-.36-.087-.947-.233-1.179-.525zm-25.001-.322c-8.648.599-17.329.685-26.035.604-.917.171-1.768 3.85-.225 3.852 4.873-.23 9.8.212 14.658.12.755-.015 1.619-.331 2.368-.352 3.003-.09 6.138.258 9.113-.467 1.49-.363.74-2.801.119-3.757h.002zm14.886 11.105c-.27-.394-3.809-.292-4.539-.271-2.975.086-5.957.636-8.932.86-1.038.079-2.464-.171-3.398.007-1.062.202-1.841 3.647-.23 3.846 3.218.396 7.384-.397 10.655-.651 2.033-.158 4.103-.169 6.142-.243.287-.098.772-1.894.751-2.221-.004-.07-.411-1.271-.451-1.331l.002.004zm4.029-.215c-1.36.198-1.671 3.778-.475 4.008l20.859-.215c1.139-.207 1.156-3.618.002-3.842l-20.386.049zm-25.531 1.077c-.534-.52-1.343-.053-1.96-.047-4.85.049-12.09-.949-16.591.007-1.485.315-1.83 2.775-.883 3.839.745.529 3.207-.179 4.263-.239 4.324-.245 9.619.869 13.815.41.626-.068 2.035-.297 2.228-.979.175-.608-.434-2.562-.872-2.991zm12.153 13.78c.381-1.005.684-2.869-.27-3.618-.436-.341-4.058-.217-4.922-.202-6.746.123-13.635.467-20.43.23-1.007-.034-4.346-.644-4.995-.328s-1.322 2.585-.958 3.308c.477.949 4.271.442 5.314.86l21.706-.231c1.513-.057 3.043.088 4.554-.019zm13.188-.222c.213-1.12.83-3.402-.755-3.756-.935-.207-6.38-.186-7.361.004-1.241.239-1.739 3.635-.637 3.959 1.149-.047 8.423.307 8.753-.207zm-24.258 9.601c.185-.987.63-3.323-.715-3.585-1.111-.216-3.607-.02-4.899-.013-3.326.015-6.835-.149-10.176.254-.721.087-2.828.264-3.326.503-.953.457-.766 3.626-.285 3.739 1.481.148 2.988-.375 4.424-.443 4.165-.201 8.676.33 12.785.017.362-.028 2.084-.303 2.194-.469l-.002-.003z" fill="#196ffe"/><path d="M178.774 142.114c6.182 9.363 6.636 16.071 2.652 26.656-2.813 7.474-11.926 16.158-19.672 18.251-12.768 3.451-21.877-2.733-31.287-10.35-3.364-5.787-5.722-13.874-6.169-20.587-.743-11.177 11.528-27.043 22.877-28.044 9.089-.802 18.561 1.308 25.839 6.943 2.432 1.884 2.317 2.613 3.881 4.855.545.783 1.411 1.57 1.877 2.279l.002-.003zm-8.752 2.375c-.526-.327-2.186.846-2.72 1.162-7.087 4.187-12.564 8.899-18.225 14.804-.17.177-.253.401-.336.623-.181.104-2.288-.841-2.669-1.009-1.415-.629-3.841-2.199-5.177-2.502-.449-.101-.56-.133-1.007.064-.179.079-2.747 2.564-2.803 2.751-.104.352.181.756.105 1.161-.088.463-.645.461-.741.759-.151.476.202.922.143 1.227-.09.465-.847.365-.432 1.35.54 1.284 3.76 1.751 5.007 2.24 2.707 1.06 6.776 3.513 9.351 4.08 1.966.433 2.126-1.614 2.973-2.913.77-1.182 1.783-2.639 2.639-3.755 4.481-5.855 10.463-9.848 16.452-14.01.753-1.169-.207-1.834-.364-2.6-.085-.408.189-.732.066-1.103-.09-.267-.549-.629-.558-1.054l-1.251.19-.456-1.465h.003zm5.345 12.768c.243-.285-1.211-4.511-1.594-5.121-.114.002-.04 1.501-.81 2.067-.211.155-.594.141-.854.313-1.617 1.065-3.285 2.244-5.252 2.53-.313.29.028.395.322.429.938.113 2.164-.39 3.192-.452.466-.028.893.2 1.276.19 1.203-.028 2.482-.453 3.722.042l-.002.002zm-30.429-3.835c-4.039-.503-8.08-.847-12.128-1.069-.402 3.149 1.03 1.899 3.086 1.709 2.043-.19 4.113-.235 6.167-.218l2.875-.422zm26.175 17.918c-.959.051-2.185.145-3.094.418-.308.092-.37-.119-.311.431 1.318.307 2.661.516 3.405-.849z" fill="#50bf89"/><path d="M72.157 52.737c-.047.386 0 .873 0 1.28l-32.217-.19c-4.02.529-7.093 2.044-8.823 5.875-1.551 3.434-.46 5.87-.66 9.364-.174 3.048-.773 5.484-.658 8.748.266 7.515 1.683 15.337 1.509 22.822-.213 9.083-1.694 18.194-1.932 27.287-.155 5.962.028 11.984.23 17.918.098 2.852-.17 6.095.526 8.859.917 3.65 2.662 8.618 6.825 9.371 10.291 1.864 21.215.627 31.479.7 1.147.008 2.507.345 3.724.17.098.344.296.875.426 1.28-7.274-.298-14.505.393-21.821.222-4.399-.102-9.451-.397-13.798-1.101-3.599-.582-5.627-3.376-6.855-6.604-3.028.263-6.095.559-9.14.452-3.994-.138-9.27-.401-13.16-1.1-5.563-1.001-7.308-8.467-7.578-13.309-.668-11.986.251-23.334 1.06-35.196.675-9.879-.562-18.462-.628-28.164-.019-2.833.313-4.966.426-7.66.126-3.008-.819-4.686.53-7.79 3.428-7.895 13.139-5.894 19.991-5.755 2.613.053 5.235-.064 7.851 0 1.888-4.701 5.467-7.182 10.487-7.664l32.215.188-.006-.002zM29.17 89.854c.343-.275.251-.998.221-1.395-.364-4.964-1.187-10.134-.858-15.132.096-1.463.579-3.166.645-4.686.102-2.402-.547-4.814-.009-7.152-6.027.346-12.419-.702-18.404-.211-3.015.247-5.68 1.348-7.308 3.98-2.158 3.492-.868 5.175-1.094 8.716-.115 1.796-.647 3.914-.664 5.751-.072 7.349 1.383 14.804 1.302 22.193-.047 4.292-.755 8.524-1.07 12.793-.6 8.116-.672 16.373-.419 24.52.155 4.989-.23 16.192 6.325 17.551 4.354.902 9.144.533 13.556 1.131l8.195-.446c-.738-2.381-1.145-4.625-1.279-7.127-.43-8.023-.27-16.399.009-24.433.032-.919-.047-1.855 0-2.773l.213-4.053.213-2.773c.126-1.595.347-3.02.426-4.693.034-.742.496-1.122 0-2.133.639-1.772.538-4.055.639-5.972.047-.901.198-1.961.213-2.773.053-3.076-.119-6.4-.639-9.386-.068-.388-.068-1.175-.213-1.493v-.002z" fill="#d4deee"/><path d="M62.937 1.82c2.675 5.621 6.61 10.736 9.63 16.111.649 1.156 1.139 3.498.813 4.782-.298 1.175-2.073 2.067-3.235 1.854-1.883-.346-1.913-1.63-2.884-2.809-.466-.567-1.539-1.276-2.051-1.95-.962-1.267-1.726-3.142-2.643-4.503-1.668-2.474-5.335-6.771-6.101-9.45-.3-1.052.06-2.026-.485-3.035l.657-.128c.29-.386-.072-.966.011-1.111.04-.068 1.068-1.017 1.166-1.081.683-.45 2.354-.627 3.12-.407.728.209 1.304 1.401 2 1.726l.002.002z" fill="#030303"/><path d="M44.199 20.182c3.494 2.366 7.319 9.622 10.291 12.978.951 1.075 2.743 1.992 2.962 3.492.053.358.102 1.745-.026 1.965-.326.559-1.968.776-2.603.67-1.59-.264-4.95-4.529-6.642-5.395-2.181-2.837-7.108-5.723-9.078-8.511-.326-.461-1.145-1.92-1.207-2.421-.03-.239.392-2.033.47-2.172.034-.058.904-.864.964-.907 1.526-1.113 3.386-.704 4.867.299v.002zM89.526 5.04c.802.54.585.977.879 1.564.251.501.834.674.7 1.414-.028.158-.394.134-.5.395-1.175 2.852-.155 5.612.27 8.392.145.947-.026 2.427.264 3.362.185.597 1.011.38.817 1.096-1.075.685-.666 2.05-2.285 2.419-3.256.74-3.437-2.21-4.207-4.439-.683-1.975-1.543-4.27-1.93-6.384-.117-.638-.375-4.038-.326-4.599.089-1.054 1.605-3.178 2.632-3.564s2.775-.271 3.688.346h-.002z" fill="#040404"/><path d="M72.156 54.017c0 1.35.404 2.562.426 3.733.064 3.692-.894 7.536-.851 11.412-.775-.055-1.513.318-2.026.853-.453.919 1.305 3.897 2.239 4.48.102 1.988.294 3.989.426 5.973-3.967-2.53-7.393-.068-4.467 4.172.4.205.972-.369 1.547-.292.704.094 2.073 1.239 3.135 1.026.298 4.448 1.047 8.893.851 13.439-.977.156-2.913-.407-3.501.437-.389.559-.6 2.316.094 2.656l2.981.106c-.098 2.089-.07 4.079-.213 6.186l-7.727.467c-.832.25-1.528 2.925-.255 3.16.926.17 3.199.042 4.254-.003s2.462-.23 3.513-.424c-1.098 15.695-1.971 31.03-1.285 46.83.089 2.065.302 4.74.86 6.711-1.215.173-2.577-.164-3.724-.17-10.266-.073-21.187 1.166-31.479-.7-4.162-.753-5.907-5.721-6.825-9.371-.696-2.764-.428-6.007-.526-8.859-.202-5.934-.387-11.956-.23-17.918.238-9.093 1.72-18.204 1.932-27.287.177-7.485-1.243-15.307-1.509-22.822-.115-3.262.483-5.7.658-8.748.2-3.494-.892-5.93.66-9.364 1.73-3.831 4.803-5.346 8.823-5.875l32.217.19.002.002zM57.539 64.617c-.43-.51-.685-1.941-1.456-2.078-2.036.365-4.079.917-5.974 1.715-.896-.26-2.281-.284-2.864.578-.104.156-.979 1.611-1.009 1.707-.111.346.04.806-.147 1.133-.155.267-1.43.636-1.713 1.284-.387.885.894 2.282 1.815 2.344-.566.753.06 1.781-.038 2.404-.07.439-.615.706-.619 1.318-.009 1.269 1.104 1.485 1.256 1.962.317 1.009-.566 2.268.055 3.146.523.74 3.394.079 4.252.892l-.228 2.43c-.423.079-.585-.397-.968-.437-.809-.081-1.824 1.346-2.454 1.805-1.121.815-3.084 1.295-2.973 3.001.087 1.329 1.124 1.295 2.249 1.386 2.832.235 5.699.045 8.5-.006 1.57-.028 3.88.233 5.316-.004 1.951-.32 1.107-2.34.126-3.302-.392-.384-.985-.591-1.385-.958-.583-.531-1.879-2.176-2.541-2.133-.451.03-1.079.689-1.62.072l-.183-1.527c.562-.12 1.068-.821 1.587-.887 1.051-.134 2.171.926 3.041-.772.787-1.536-.415-1.252-.421-2.097-.008-1.111.941-1.18 1.081-2.159.162-1.141-.696-2.826-.568-4.008.1-.934.4-2.116.568-3.025.464-2.534-1.736-2.654-2.692-3.786l.006.002zm6.701 34.471c-.849.066-1.766.335-2.609.371-5.401.237-10.977-.196-16.395-.008-.883.1-1.279 2.744-.758 3.106l12.498.226c1.49-.277 9.353-.138 10.079-.874.562-.57.198-2.707-.749-2.886-.579-.109-1.456.017-2.066.066zm-2.343 12.478c.262-.454-.36-2.369-.809-2.619-.653-.36-1.679.122-2.445.124-3.235.006-6.982-.653-10.213-.444-1.049.068-2.19.465-3.273.452-1.479 4.518.992 2.882 3.686 2.735 3.282-.179 7.191.638 10.447.446.519-.03 2.388-.31 2.607-.691v-.003zm9.357 5.856c-.592-.687-4.397-.053-5.367-.045-1.788.017-3.558-.011-5.32 0-4.763.03-9.564.169-14.284-.418l-.421.175c-.581.499-1.128 2.447-.526 2.905 4.952.76 10.187.591 15.229.538l2.973-.011c2.56-.045 5.069-.277 7.635-.198.409-.111.445-2.524.079-2.946h.002zm-25.243 11.436c1.239.215 2.469-.338 3.686-.404 1.711-.096 11.841.346 12.364-.405.157-.843.504-2.133-.223-2.788-.536-.48-1.279-.008-1.909.011-3.358.104-6.912-.224-10.232-.019-.69.042-2.824.264-3.35.482-.849.352-.672 2.382-.336 3.123z" fill="#f4f4f8"/><path d="M107.301 65.721c.117.126.683-.1.94.655.358 1.049.149 2.993-.853 3.65-.375.245-.885.164-1.196.508-.236.262-.338.945-.583 1.335-.934 1.498-2.054 3.02-3.662 3.814l.251 1.766c2.143 1.389 8.035 3.07 8.046 6.141.002.866-.785 1.48-1.583 1.574-1.931.228-4.574-.036-6.61-.013-3.277.038-6.687.271-9.992.006-1.866-.149-3.439-.608-2.501-2.929.63-1.557 7.608-4 7.721-4.465l-.032-2.607c-1.468-.277-2.824-2.09-3.601-3.323-.249-.395-.46-1.348-.683-1.553-.562-.512-1.792-.07-2.198-1.745-.485-2.001 1.243-1.798 1.407-2.686.087-1.058-.704-1.894-.924-2.92s-.091-3.658.075-4.744c.289-1.879 2.592-1.918 3.807-2.37.54-.201 1.285-.99 1.915-1.28 1.979-.911 5.252-.659 7.224.245.256.117 1.831 1.107 1.945 1.25.696.862 1.956 5.077 1.916 6.188-.026.727-1.211 3.091-.832 3.5h.002z" fill="#000102"/><path d="M152.145 65.506c-.241.395-6.678.665-7.748.676-.566.006-1.041-.264-1.667-.213-.898.072-1.577.732-2.258.953-2.07.676-4.328.258-6.29-.523-.615.034-.73.753-1.109 1.058-1.006.811-2.515.971-3.724.584-.528-.168-1.124-.817-1.554-.806-.395.011-.91 1.391-2.749 1.288-2.039-.113-3.224-1.399-4.199-3.052-.302-.512-1.306-2.556-1.24-3.018.183-1.297 3.5-2.233 4.573-2.039.54.098.955.851 1.072.849.166 0 1.739-1.787 2.937-1.062.919.557.541.111 1.203.32.359.113 1.089.734 1.078 1.173 1.497-1.412 2.684-2.436 4.827-1.536.994.418 1.481 1.344 2.724 1.342 1.102 0 2.617-1.165 4.045-1.297 1.111-.102 1.99.23 2.967.22 1.817-.021 4.484-.548 6.178-.218.555.109 1.264 1.561 1.353 2.073.143.828-.67 2.221-.419 3.225v.002zm-9.359 7.519c-.423 1.781.113 4.829-2.1 5.224-1.692.301-1.062.211-2.505.883-1.685.785-3.575.907-5.422.64-.843-.122-2.762-1.184-2.994-1.18-1.169.026-3.837 1.739-5.576 1.873-2.371.181-3.298-1.043-4.728-1.239-1.148-.156-1.58 1.335-2.554-.631-1.073-2.165-.877-5.043 1.985-5.365.313-.036 2.026.228 2.38.331.789.23 1.247 1.116 2.283 1.16 1.475.066 4.073-1.781 5.956-1.93 2.322-.186 2.833 1.145 4.457 1.288 1.957.171 2.166-.661 3.677-1.242 1.964-.753 3.245-.719 5.141.19v-.002z" fill="#fbfcfe"/><path d="M121.711 122.673c-1.511.107-3.041-.038-4.554.019-7.21.273-14.429.243-21.707.231-1.041-.419-4.837.089-5.314-.86-.364-.723.279-2.978.958-3.309s3.986.295 4.995.329c6.795.237 13.683-.107 20.429-.23.866-.015 4.488-.141 4.923.202.953.749.651 2.613.27 3.618zm-5.537-25.746c.619.956 1.368 3.394-.119 3.756-2.975.725-6.11.376-9.113.467-.749.024-1.613.339-2.368.352-4.858.092-9.785-.35-14.658-.119-1.543 0-.692-3.68.226-3.853 8.706.079 17.387-.004 26.035-.604h-.002z" fill="#010305"/><path d="M154.874 72.833l2.313.585c1.324.117 5.693-.405 6.572.237.125.392.913 1.851.932 2.046.032.32-.337.665-.375 1.045-.055.538.158 1.879-.208 2.135-1.303.188-2.635.075-3.948.094-1.207.017-3.226-.149-4.246.013s-2.408 1.114-3.875 1.193c-.821.045-6.235-.941-6.584-1.406s.451-1.188.511-1.657c.055-.435-.239-.736-.083-1.342.117-.463.981-1.839 1.409-2.031.763-.343 3.336.817 4.52.704.968-.092 1.955-1.54 3.066-1.615h-.004z" fill="#fbfcfe"/><path d="M135.089 107.817l20.387-.049c1.154.226 1.134 3.634-.002 3.841l-20.859.216c-1.196-.231-.886-3.81.474-4.008zm6.086-10.568c.229.29.819.437 1.179.525.187.216-.117 1.611-.398 1.79-.192.122-.52.056-.775.186-.521.265-.551.476-1.462.555-6.071.537-13-.184-19.161.228-1.641-.126-.981-3.613.23-3.846l17.454-.209c.751-.017 1.915-.553 2.569-.03.24.194.213.612.364.802z" fill="#010306"/><path d="M109.558 108.893c.438.427 1.047 2.381.872 2.991-.196.682-1.604.911-2.228.979-4.196.456-9.493-.655-13.815-.41-1.055.06-3.518.768-4.263.239-.947-1.064-.602-3.524.883-3.839 4.501-.956 11.743.044 16.591-.007.617-.006 1.426-.473 1.96.047z" fill="#010307"/><path d="M110.642 132.053c-.111.166-1.831.441-2.195.469-4.109.314-8.62-.215-12.785-.017-1.437.068-2.943.591-4.424.444-.481-.113-.668-3.283.285-3.74.498-.238 2.605-.416 3.326-.503 3.341-.403 6.85-.239 10.177-.254 1.291-.006 3.788-.202 4.898.013 1.347.262.903 2.598.715 3.586l.003.002zm20.417-24.021c.041.057.445 1.26.452 1.331.021.326-.464 2.122-.752 2.22l-6.141.243c-3.271.252-7.436 1.046-10.655.651-1.611-.198-.833-3.643.229-3.846.932-.179 2.36.07 3.399-.006 2.975-.224 5.956-.775 8.931-.86.728-.021 4.269-.124 4.54.271l-.003-.004z" fill="#010306"/><path d="M134.899 122.451c-.332.514-7.604.16-8.753.207-1.102-.326-.606-3.72.637-3.959.983-.19 6.426-.211 7.361-.004 1.587.352.968 2.634.755 3.756z" fill="#020409"/><path d="M72.795 108.198l-.213 3.2c-1.051.194-2.458.377-3.514.424s-3.328.173-4.254.003c-1.273-.235-.577-2.91.255-3.16l7.727-.467h-.002z" fill="#9fbadc"/><path d="M72.37 80.468l.213 4.906c-1.06.213-2.43-.934-3.135-1.026-.575-.077-1.145.497-1.547.292-2.926-4.241.5-6.702 4.467-4.172h.002z" fill="#9fbadd"/><path d="M73.434 98.812c-.045 1.047-.383 2.289-.426 3.2l-2.981-.107c-.694-.339-.483-2.097-.094-2.656.587-.845 2.524-.282 3.501-.437zm-1.702-29.65l.213 5.333c-.932-.585-2.692-3.562-2.239-4.48.513-.533 1.251-.909 2.026-.853z" fill="#9cb8df"/><path d="M170.02 144.488l.456 1.466 1.251-.19c.009.425.468.787.558 1.054.123.371-.151.695-.066 1.103.159.765 1.119 1.431.364 2.6-5.989 4.162-11.971 8.155-16.453 14.01-.855 1.116-1.866 2.573-2.638 3.754-.847 1.3-1.007 3.347-2.973 2.914-2.577-.567-6.644-3.018-9.351-4.08-1.247-.489-4.467-.958-5.008-2.24-.415-.986.343-.885.432-1.35.06-.305-.293-.751-.142-1.227.094-.296.653-.294.74-.759.075-.406-.208-.809-.104-1.161.056-.187 2.622-2.673 2.803-2.751.445-.195.557-.165 1.006-.064 1.339.3 3.763 1.87 5.178 2.502.381.168 2.488 1.113 2.669 1.009.085-.222.168-.448.336-.623 5.661-5.905 11.138-10.617 18.225-14.804.536-.316 2.194-1.489 2.719-1.163h-.002z" fill="#fdfefd"/><path d="M175.366 157.257c-1.24-.493-2.521-.07-3.722-.042-.383.008-.81-.22-1.277-.19-1.025.062-2.251.565-3.192.452-.293-.036-.632-.139-.321-.429 1.964-.286 3.635-1.465 5.252-2.53.262-.173.643-.158.853-.313.771-.568.696-2.065.811-2.067.383.61 1.837 4.833 1.594 5.121l.002-.002zm-30.429-3.835l-2.875.423c-2.054-.018-4.125.027-6.168.217-2.055.19-3.49 1.44-3.085-1.708 4.047.221 8.088.565 12.128 1.068z" fill="#1c73f7"/><path d="M171.112 171.341c-.747 1.365-2.088 1.156-3.405.849-.062-.551 0-.339.311-.431.911-.273 2.136-.367 3.094-.418z" fill="#217bec"/><path d="M28.318 125.903c-.279 8.033-.438 16.41-.008 24.433a28.46 28.46 0 0 0 1.279 7.126l-8.195.446c-4.409-.597-9.202-.228-13.556-1.13-6.554-1.359-6.169-12.562-6.325-17.552-.253-8.146-.181-16.403.419-24.52.315-4.268 1.024-8.5 1.07-12.792.079-7.389-1.377-14.844-1.302-22.193.019-1.839.549-3.955.664-5.751.226-3.541-1.064-5.226 1.094-8.716 1.628-2.632 4.29-3.733 7.308-3.98 5.984-.491 12.379.559 18.404.211-.538 2.338.111 4.75.009 7.152-.064 1.523-.547 3.225-.645 4.686-.33 4.998.494 10.169.858 15.132.03.399.121 1.12-.221 1.395-.717-1.589-4.29-2.381-5.537-3.562-.315-1.254 1.294-2.069 2.007-3.07.355-.499.687-1.459.875-1.681.432-.51 1.292-.038 1.541-1.442.351-1.988-.796-2.058-.804-2.498-.006-.329.455-.943.549-1.384.27-1.269-.5-4.313-1.411-5.224-1.094-1.096-3.494-1.561-4.988-1.401-1.385.147-1.845.873-2.886 1.372-.904.435-2.528.35-2.715 1.777-.055.422.153.721.134 1.011-.14 2.157.021 1.839.417 3.678s-1.387 1.124-.923 2.624c.338 1.094 1.149.828 1.564 1.107s1.528 3.863 3.222 3.596l-.23 2.08c-1.07.619-5.129 2.093-5.452 3.172-.802 2.681 3.758 1.935 5.391 1.973 2.675.064 5.816.348 8.493-.008.472-.064.728-.216.968-.623.519 2.986.692 6.31.638 9.386l-15.182.203c-.309.074-.858 2.116-.372 2.483.204.26.457.268.755.309 3.256.429 8.544-.047 11.919-.233.883-.049 1.786.052 2.669.009-.1 1.918 0 4.2-.638 5.973-.528-1.077-1.266-.423-2.224-.416-3.316.019-6.682-.495-10.008-.222-2.143.177-2.841.753-1.883 2.993l14.118-.222c-.079 1.672-.3 3.097-.426 4.693l-12.873-.22c-.628.122-1.326 2.103-.604 2.532 1.088.646 3.592.382 4.867.452.575.032 1.079.222 1.683.233 2.258.04 4.463-.269 6.714-.224l-.213 4.053c-3.577.147-7.397-.293-10.934.239-.377.057-1.292.181-1.536.379-.479.386-.543 1.907-.196 2.372.383.512 3.637-.192 4.465-.226 2.722-.117 5.48.105 8.202.009l-.004.002z" fill="#f4f4f8"/><path d="M29.382 91.347c-.24.407-.496.559-.968.623-2.677.356-5.818.072-8.493.009-1.632-.038-6.195.708-5.39-1.973.324-1.079 4.382-2.553 5.452-3.172l.23-2.08c-1.694.267-2.818-3.326-3.222-3.596s-1.226-.011-1.564-1.107c-.464-1.5 1.304-.858.924-2.624s-.557-1.521-.417-3.678c.019-.29-.189-.589-.134-1.011.187-1.425 1.811-1.342 2.716-1.777 1.041-.499 1.5-1.224 2.886-1.372 1.494-.158 3.892.305 4.988 1.401.911.911 1.681 3.955 1.411 5.224-.094.442-.556 1.056-.549 1.384.008.439 1.158.51.804 2.498-.249 1.404-1.109.932-1.541 1.442-.189.222-.519 1.182-.875 1.681-.713 1-2.322 1.815-2.007 3.069 1.247 1.184 4.822 1.973 5.537 3.562.145.318.145 1.105.213 1.493v.002z" fill="#9fbadc"/><path d="M30.02 100.732c-.015.813-.166 1.873-.213 2.773-.883.043-1.786-.057-2.669-.008-3.375.186-8.663.659-11.919.232-.298-.038-.551-.049-.755-.309-.485-.369.064-2.41.372-2.483l15.182-.202.002-.003z" fill="#a0badd"/><path d="M29.169 109.478c.496 1.011.034 1.391 0 2.133l-14.118.222c-.958-2.24-.26-2.816 1.883-2.993 3.326-.273 6.693.239 10.008.222.96-.006 1.696-.661 2.224.416h.002zm-.425 6.826l-.213 2.773c-2.251-.045-4.454.264-6.714.224-.604-.011-1.109-.201-1.683-.233-1.275-.07-3.782.192-4.867-.452-.721-.429-.023-2.41.604-2.532l12.873.22zm-.427 6.826c-.047.917.032 1.854 0 2.773-2.722.096-5.48-.126-8.202-.009-.826.037-4.082.738-4.465.227-.347-.466-.283-1.986.196-2.373.245-.196 1.16-.322 1.536-.379 3.537-.533 7.355-.092 10.934-.239zm29.222-58.513c.956 1.135 3.156 1.252 2.692 3.786l-.568 3.025c-.128 1.182.73 2.867.568 4.008-.138.979-1.09 1.047-1.081 2.159.006.845 1.209.563.421 2.097-.87 1.698-1.99.638-3.041.772-.519.066-1.024.768-1.588.887l.183 1.527c.541.617 1.168-.043 1.62-.073.662-.043 1.958 1.6 2.541 2.133.4.365.996.574 1.385.958.979.962 1.826 2.98-.125 3.302-1.439.237-3.745-.026-5.316.004l-8.499.006c-1.126-.094-2.162-.058-2.249-1.386-.113-1.706 1.851-2.186 2.973-3.001.63-.459 1.647-1.886 2.454-1.805.383.038.545.514.968.437l.228-2.43c-.858-.813-3.728-.151-4.252-.892-.621-.879.262-2.137-.055-3.146-.149-.478-1.264-.691-1.255-1.963.004-.612.549-.879.619-1.318.098-.623-.53-1.651.038-2.404-.921-.062-2.203-1.459-1.815-2.344.285-.651 1.558-1.018 1.713-1.284.189-.324.036-.787.147-1.133.03-.096.904-1.553 1.009-1.706.583-.862 1.966-.838 2.864-.578 1.894-.798 3.937-1.35 5.974-1.715.77.134 1.026 1.566 1.456 2.078l-.006-.002z" fill="#9fbadc"/><path d="M71.254 117.422c.364.424.33 2.835-.079 2.946-2.567-.079-5.076.153-7.635.198l-2.973.011c-5.041.053-10.279.222-15.229-.538-.602-.458-.057-2.406.526-2.905l.421-.175c4.72.589 9.521.448 14.284.418h5.32c.97-.011 4.775-.644 5.367.045h-.002z" fill="#a0badd"/><path d="M64.241 99.087c.611-.047 1.487-.175 2.066-.066.947.179 1.311 2.317.749 2.886-.726.736-8.589.598-10.079.875l-12.498-.226c-.521-.365-.126-3.008.758-3.106 5.42-.186 10.996.247 16.395.008.841-.036 1.76-.305 2.609-.371zm-2.343 12.48c-.219.381-2.088.661-2.607.691-3.256.192-7.165-.625-10.447-.446-2.694.147-5.165 1.783-3.686-2.735 1.081.013 2.222-.384 3.273-.452 3.23-.209 6.978.45 10.213.444.766 0 1.792-.485 2.445-.124.449.25 1.071 2.165.809 2.619v.003z" fill="#9fbadc"/><path d="M46.012 128.857c-.336-.74-.515-2.771.336-3.123.526-.217 2.66-.439 3.35-.482 3.32-.205 6.876.122 10.232.019.63-.019 1.373-.49 1.909-.01.73.655.383 1.945.224 2.788-.523.751-10.653.309-12.364.405-1.217.068-2.447.621-3.686.403z" fill="#a0badd"/></g><path d="M92.355 137.946c-2.056-1.329-3.009-.771-4.627 1.038l-3.299 3.954-.395.495-2.916 3.79c-.779 1.284-1.399 2.707-2.386 3.818-.793.884-.721 2.377-2.08 2.818-.069.019-.101.174-.124.283-.147.628.008 1.213.549 1.544.527.321 1.138.35 1.576-.233.243-.307.443-.647.627-.983l1.172-2.316c.315-.576.735-1.074 1.065-1.647 1.517-2.57 3.519-4.778 5.345-7.113l2.867-3.556c.302-.36.63-.804 1.167-.416l2.393 1.895-2.48 4.587-3.893 8.064-3.937 8.355c-.742 1.617-1.495 3.248-1.339 5.117.154 1.803 1.121 3.052 2.929 3.265 1.168.129 2.279-.136 3.366-.56l4.051-1.588c1.058-.519 1.621-.451 2.008.661.337.923.562 1.872.811 2.825.141.574.521 1.287.304 1.705-.23.48-.997.694-1.53 1.031-1.229.792-2.293 1.806-3.697 2.384-.811.344-1.469 1.011-2.236 1.453-.655.376-1.387.614-2.042.99l-5.024 3.027-3.796 2.161c-.565.411-.857.334-1.275-.005-.551-.439-1.038-.987-1.665-1.296l-4.545-2.057c-2.195-1.049-4.129-2.613-6.592-3.157-2.198-.489-4.213-1.663-6.534-1.714-.495-.006-.977-.187-1.499-.295l-.086-.839-.137-7.869c0-1.641-.071-3.297.166-4.905.343-2.277.856-4.511 1.791-6.665.843-1.905 1.582-3.823 3.217-5.239.138-.117.267-.269.336-.442.045-.137.037-.333-.017-.466-.021-.054-.284-.043-.393.015l-2.065 1.18.019-.012c-.06.053-.116.09-.16.145-1.343 1.574-2.177 3.44-2.943 5.329-1.538 3.767-2.018 7.681-1.839 11.708.113 2.388.108 4.759.156 7.15.002.146-.049.314-.073.431-.705.146-1.454.194-2.049.477-.77.384-.605 1.19-.541 1.902.335.695.053 1.311-.145 1.952-.372 1.166-.95 2.265-.713 3.59.16.951.457 1.752 1.293 2.381l-.707.625c.077.804.085 1.545.255 2.255.066.306.382.623.671.797.98.561 2.033 1.048 3.01 1.625.558.327 1.087.754 1.55 1.223.703.723.918.784 1.815.182.616.437 1.215.96 1.906 1.347 1.819 1.02 3.699 1.946 5.515 2.982.545.308.828.123 1.201-.425.619.502 1.252.934 1.775 1.465 1.315 1.338 3.028 1.929 4.712 2.507 1.069.368 1.814-.363 2.291-1.328.745-1.552-.059-2.962.064-4.415.087-1.046.016-2.109.229-3.138.118-.568.575-1.123 1.011-1.545 1.149-1.11 1.559-2.381 1.046-4.097l3.505-1.539c2.974-1.527 6.036-2.93 8.92-4.647 1.633-.977 3.533-1.598 4.844-3.097.302-.36.887-.474 1.316-.742.567-.346 1.141-.681 1.631-1.124.523-.485.617-1.172.413-1.832-.489-1.596-.998-3.173-1.559-4.736-.288-.766-.633-1.529-1.082-2.223-.373-.589-.973-.909-1.712-.599-.357.153-.802.223-1.096.463-1.196.946-2.596 1.427-4.05 1.816-.709.242-1.386.532-2.097.71-1.31.321-2.031-.081-2.135-1.183-.05-.701-.02-1.467.214-2.125.481-1.379 1.09-2.707 1.705-4.025.822-1.731 1.696-3.434 2.564-5.147l1.355-2.571 1.932-3.864a12.74 12.74 0 0 1 .369-.679l1.258-2.891 1.609-4.736-.017-1.563-2.365-1.873z" fill="#020202"/><path d="M57.537 151.027l2.065-1.18c.11-.058.369-.053.393-.016.052.141.079.325.017.467-.067.165-.196.317-.336.442-1.639 1.398-2.393 3.306-3.217 5.239-.943 2.152-1.455 4.386-1.79 6.664-.237 1.609-.169 3.28-.166 4.906l.137 7.869c.004.293.06.573.086.838.522.109 1.004.29 1.499.295 2.324.036 4.336 1.226 6.534 1.715 2.463.544 4.404 2.109 6.592 3.156l4.545 2.058c.611.305 1.098.853 1.664 1.296.427.332.719.409 1.275.005 1.173-.837 2.546-1.422 3.796-2.161l5.024-3.027c.655-.376 1.387-.614 2.042-.99.768-.45 1.427-1.117 2.236-1.453 1.38-.583 2.461-1.601 3.697-2.385.533-.336 1.293-.552 1.53-1.031.201-.421-.156-1.129-.304-1.704l-.811-2.825c-.41-1.117-.965-1.184-2.008-.661-1.293.633-2.712 1.045-4.051 1.588-1.089.432-2.191.69-3.366.56-1.811-.197-2.784-1.464-2.929-3.265-.156-1.869.597-3.5 1.339-5.117l3.937-8.355 3.893-8.064 2.48-4.588-2.393-1.894c-.545-.39-.863.048-1.167.416l-2.867 3.556c-1.835 2.341-3.826 4.535-5.345 7.112-.33.573-.751 1.071-1.065 1.648l-1.172 2.316c-.183.335-.387.691-.627.983-.443.566-1.049.554-1.576.233-.542-.324-.695-.916-.549-1.544.023-.109.071-.262.124-.283 1.351-.443 1.287-1.935 2.08-2.818.986-1.111 1.604-2.519 2.386-3.819-.496.238-1.051.407-1.458.762-.6.501-1.147.712-1.845.275-.198.405-.451.215-.701.049-.66.009-1.281.571-1.946.059-1.248.805-2.468 1.632-3.03 3.125l-1.108 2.556c-.234.577-.585.781-1.186.51-.539-.259-.641-.71-.444-1.19.705-1.592 1.184-3.312 2.468-4.606-1.462-.628-2.982-.977-4.57-.803-.178.077-.467.098-.543.229l-1.483 2.796c-.417.912-.704 1.901-1.115 2.823-.217.499-.686.841-1.212.553-.477-.245-.584-.747-.324-1.294l2.317-4.817c-1.634-.502-3.093.536-4.683.523-1.315-.005-2.321.964-2.77 2.268z" fill="#fdfdfd"/><path d="M89.602 153.551l-1.355 2.57-2.564 5.147-1.705 4.025c-.234.659-.263 1.424-.214 2.125.081 1.098.802 1.499 2.135 1.183.727-.174 1.412-.462 2.098-.71-.295-.143-.58-.299-.885-.395-.199-.058-.418-.022-.632-.05-1.214-.138-1.636-.73-1.278-1.906.289-.924.734-1.814.949-2.769.486-2.028 2.102-3.472 2.803-5.357.285-.746.374-1.564.506-2.357.104-.499.112-1.009.142-1.506z" fill="#f4f6fa"/><path d="M77.127 148.32c.242.164.505.348.701-.049.111-1.554-1.368-1.942-2.425-1.666-1.39.353-2.513 1.184-3.537 2.166-1.284 1.293-1.756 3.015-2.468 4.606-.214.484-.111.928.444 1.189.586.268.95.084 1.186-.509l1.108-2.557c.554-1.494 1.797-2.316 3.029-3.124 1.031-.778 1.374-.787 1.962-.056zm-12.189-.071l-2.317 4.817c-.277.551-.15 1.033.324 1.294.536.274.998-.069 1.212-.553l1.115-2.823c.442-.957.964-1.864 1.483-2.796.076-.131.357-.154.543-.229.214-.483.164-.868-.385-1.079-.611-.225-1.294.089-1.604.682l-.37.687z" fill="#050506"/><path d="M59.085 137.39c-.6-.125-1.096.463-.866.998l2.089 4.301c.08.163.44.189.683.272.08-.227.321-.526.244-.705l-1.801-4.51c-.058-.15-.268-.275-.348-.356z" fill="#020305"/><path d="M53.711 141.319c-.128.07-.53.166-.589.373-.086.258-.026.75.17.904l3.115 2.451c.267.202.597.685.905.221.164-.243.171-.899-.022-1.069-1.026-.969-2.157-1.862-3.244-2.77-.026-.03-.089-.043-.335-.11z" fill="#020306"/><path d="M52.284 149.278l.156.032c.418.022.978.415 1.156-.206.054-.184-.51-.634-.858-.837a5.07 5.07 0 0 0-1.381-.547c-.203-.042-.592.154-.68.339-.085.177.035.616.193.714.427.251.922.37 1.397.55.011-.014.014-.029.017-.045z" fill="#06152f"/><path d="M94.779 141.374l-1.609 4.736c.062.013.121.041.184.054.805-1.49 1.438-3.048 1.426-4.79z" fill="#cdd8e9"/><path d="M92.355 137.946l2.4 1.864c-.079-1.106-.943-1.756-2.4-1.864z" fill="#dde5f2"/><path d="M93.37 146.16c-.062-.013-.121-.041-.184-.054l-1.259 2.891c.16-.146.392-.244.479-.429l.963-2.408z" fill="#d4deef"/><path d="M57.379 151.156c.06-.052.116-.089.16-.145l-.16.145z" fill="#fdfdfd"/><defs><clipPath id="A"><path fill="#fff" d="M0 0h184v188H0z"/></clipPath></defs></svg>