<svg xmlns="http://www.w3.org/2000/svg" width="117" height="111" fill="none"><g clip-path="url(#A)"><path d="M59.952 81.59v-.028.028zm57.039-44.253c-.178-2.681-1.211-5.137-2.04-7.639-.659-1.982-1.452-2.233-3.563-1.704a5.41 5.41 0 0 1-1.372.152c-2.61-.018-5.229.036-7.83-.143-2.797-.188-5.702-.161-8.24-1.587-5.505-3.093-11.785-3.362-17.638-5.174-1.773-.547-3.002 1.201-2.361 3.004.151.43.356.825.294 1.336-.57 4.644-1.71 9.047-4.98 12.579-.499.538-.855 1.184-1.042 1.883-.249.923-.695 1.712-1.212 2.502-2.601 3.918-5.167 7.836-6.512 12.472-1.087 3.748-1.612 7.585-2.289 11.405-1.844 1.865-1.853 2.86-1.684 3.371.766 2.259 7.634 1.955 9.514 1.865 2.975-.135 3.26-.556 5.888-.565 1.586 0 3.635.377 7.661 1.139 10.779 2.044 12.16 2.313 13.309 2.761.437.17 1.354.565 2.664.726 1.007.126 1.158-.009 1.96.161 1.532.332 1.978 1.013 2.548.861.775-.215.481-1.533.694-2.358 1.203-4.752 4.036-8.625 6.735-12.49.205-.296 3.848-6.124 6.467-13.162 1.746-4.698 2.593-8.733 3.029-11.378v-.018z" fill="#000"/><path d="M85.715 40.773c1.283.233 2.619.341 3.857.735 3.278 1.04 6.735 1.022 10.04 1.883.819.215 2.298-.009 2.129 1.076-.169 1.121-1.416.224-2.085.081l-12.65-2.878c-.481-.108-.918-.377-1.372-.574 0-.027-.027-.09 0-.161a.26.26 0 0 1 .089-.152l-.009-.009zm-7.893-2.584c.463-.027.65.341.73.664.267 1.094.829.932 1.586.52 2.093-1.139 2.699-.932 3.715 1.157.187.386.009.583-.347.655-.445.09-.953-.045-1.042-.457-.356-1.704-1.176-.834-1.951-.43-1.603.825-2.53.377-2.913-1.372-.107-.511-.062-.681.223-.735zm7.331 6.323c1.88.583 2.254.681 2.806.717.303.018 1.051.045 1.986.251l.748.188 1.327.448c.579.197 1.069.26 2.04.385 1.327.17 1.158.009 1.995.17.668.134.989.278 1.229.09.267-.206.33-.744.151-1.139-.151-.323-.526-.672-3.661-1.076l-2.28-.26-2.503-.377-2.031-.242-2.254-.26-2.646-.403-1.889-.188c-.027.117 1.639.637 4.989 1.677l-.009.018z" fill="#43bf7c"/><path d="M102.943 75.001c1.55-1.435 2.138-5.093 3.483-8.025.722-1.578.873-1.21 2.708-4.088 1.63-2.555 4.65-7.809 6.298-14.373.882-3.533.909-7.182 1.541-10.75.054-.287.107-.646-.329-.726-.998 3.802-1.764 7.675-3.047 11.369-.383 1.112-3.162 8.599-6.467 13.162-.152.215-1.577 2.161-3.278 4.842-.668 1.049-1.016 1.623-1.452 2.421-1.515 2.77-3.163 6.823-2.343 7.379.16.108.427.036.962-.117 0 0 1.087-.314 1.924-1.085v-.009zM83.986 96.96c-1.327.197-2.405-.144-3.447-.314-2.307-.377-4.659-.206-6.966-1.004-1.764-.601-3.742-.646-5.576-1.192-.294-.09-.82-.036-.722-.511.098-.511.597-.224.855-.152 2.414.708 4.953.565 7.394 1.3 1.488.448 3.18.26 4.784.341 1.416.072 2.806.583 4.24.269.33-.072.606.143.668.475.071.412-.178.645-.552.717-.294.054-.597.054-.668.054l-.009.018zm-11.482-6.483c.73-.574 1.577-.699 2.405-.646 1.336.081 2.672.26 4 .475 1.497.242 2.975-.108 4.481.027 1.185.099 2.378.305 3.59.17a1.1 1.1 0 0 1 1.185.708c.116.269.142.529-.071.744-.249.242-.472.135-.668-.108-.142-.17-.276-.368-.543-.341-2.218.188-4.383-.466-6.61-.377a13.01 13.01 0 0 1-3.768-.421 9.18 9.18 0 0 0-4.009-.215l.009-.018zm-3.457.245c-.793-.018-1.39-.224-1.55-.906s.036-1.363.463-1.928c.116-.152.338-.161.508-.036.151.108.098.242.08.395-.178 1.515-.178 1.515 1.318 1.291a3.38 3.38 0 0 1 .677-.036c.196 0 .374.099.41.305.036.233-.151.332-.33.386l-1.586.52.009.009z" fill="#000"/><path d="M64.121 46.813s-.027.054-.053.072h-.053c.036-.018.071-.027.116-.045l-.018-.018.009-.009z" fill="#43bf7c"/><path d="M4.008 30.074c-.053 0-.347-.063-.641-.099-1.096-.152-2.432-.646-2.512-1.551-.071-.807 1.238-1.542 2.12-2.071.962-.592 1.871-.323 2.655.439.552.538.882 1.192.543 1.937-.356.798-.962 1.354-2.156 1.354l-.009-.009zM0 39.012c.704-1.094 1.185-2.242 2.681-2.215.632.009.775.215.641.816-.276 1.174-1.007 1.739-2.182 1.587L0 39.003v.009z" fill="#fff"/><path d="M101.785 14.062c0-.063 0-.125.009-.179.036 0 .071.018.107.027l-.143.143.027.018v-.009zm6.859 55.733c-3.002.251-5.986.179-8.908-.654-.659-.188-1.301-.305-1.995-.233-3.109.323-6.138 0-9.113-1.004-2.209-.744-4.481-.986-6.824-1.201l-8.837-.825c-2.352-.412-4.775-.412-7.171-.601-1.612-.126-3.225-.278-4.695-1.04-.383-.197-.793-.215-1.212-.161-1.203.17-2.432.17-3.581-.17-3.376-.995-6.797-.152-10.182-.43-.508-.045-1.39.323-1.407-.412-.009-.637.855-.296 1.336-.323.971-.063 1.951-.036 2.931-.108 2.69-.206 5.372-.421 8.053.215 1.131.278 2.316-.125 3.483-.179.41-.018.499-.26.535-.583.232-2.188.686-4.358.597-6.59-.062-1.444-.481-2.591-1.791-3.3-2.851.152-5.684-.143-8.516-.395-2.325-.206-4.641-.359-6.957-.099-3.59.412-7.144.502-10.734-.188-2.957-.565-4.356.502-5.3 3.425-.998 3.102-1.791 6.267-2.592 9.423l-4.231 14.642c-1.782 6.195-3.269 12.472-4.873 18.721-.668 2.591-1.675 5.03-2.895 7.397-.606 1.174-1.336 2.322-1.443 3.712.16 1.013.926 1.354 1.746 1.488 3.349.529 6.726.251 10.084.233 2.138-.009 4.312-.726 6.396-.34 4.222.78 8.463.197 12.685.511 2.949.215 5.906-.458 8.881-.18 3.189.296 6.343-.744 9.55-.224 1.229.197 2.477.018 3.715-.054 2.913-.161 5.844.395 8.748-.125.214-.036.445.045.668.098 1.826.449 3.652.305 5.478-.017.944-.162 1.871-.09 2.779.17.65.179 1.292.403 1.951.529 1.8.35 3.056-.377 3.742-2.116.232-.601.401-1.255.748-1.775 1.782-2.681 3.456-5.416 4.383-8.545.125-.421.428-.798.677-1.174.526-.789 1.069-1.578 1.407-2.466 1.024-2.726 2.601-5.182 4.267-7.469 2.859-3.936 4.739-8.473 7.768-12.292 1.167-1.462 1.576-3.371.659-5.281l-.009-.009zM67.96 87.888c.116-.152.33-.161.508-.036.142.099.098.242.08.395-.178 1.515-.178 1.515 1.318 1.291a3.4 3.4 0 0 1 .677-.036c.196 0 .374.099.41.305.036.233-.151.332-.33.386-.57.197-1.14.377-1.586.52-.793-.018-1.39-.224-1.55-.906s.036-1.363.463-1.928l.009.009zm16.694 9.02c-.294.054-.597.054-.668.054-1.327.197-2.405-.143-3.447-.314-2.307-.377-4.659-.206-6.966-1.004-1.764-.61-3.741-.646-5.576-1.192-.294-.09-.811-.036-.722-.502.098-.511.588-.224.855-.152 2.414.708 4.953.565 7.394 1.3 1.488.448 3.189.26 4.784.341 1.416.072 2.806.583 4.24.269.33-.072.606.143.668.475.071.412-.178.645-.552.717l-.009.009zm3.447-4.967c-.249.242-.472.125-.668-.108-.143-.17-.276-.368-.543-.341-2.218.179-4.383-.466-6.61-.386a13.03 13.03 0 0 1-3.768-.421 9.18 9.18 0 0 0-4.009-.215c.721-.574 1.577-.699 2.405-.646 1.336.081 2.672.26 4 .475 1.496.242 2.984-.108 4.481.027 1.185.099 2.378.305 3.59.17.499-.054.953.179 1.185.708.116.269.143.529-.071.744l.009-.009z" fill="#43bf7c"/><path d="M61.538 54.527a6.55 6.55 0 0 1 .116.968c.044 1.022-.036 2.035-.151 3.048.276-1.506.356-2.824.036-4.017zm-.045-.172s-.009-.036-.018-.054c0 .036.018.072.027.099 0-.018 0-.027-.009-.045zm-.525-1.191a2.48 2.48 0 0 0-.748-.744c-.045-.027-.098-.045-.143-.072.374.233.668.502.891.816zm.134.203s.009.018.018.028c0-.009-.009-.018-.018-.028z" fill="#000"/><path d="M109.072 67.644c-.071-.153-.285-.439-1.452-.637-1.131-.197-2.031-.108-2.191-.099-1.417.126-2.005-.161-3.742-.368-3.251-.386-3.501.341-6.494.054-3.314-.323-3.465-1.264-6.895-1.434-.837-.045-1.755-.036-3.243-.242-1.559-.215-1.719-.395-3.082-.547-1.675-.188-2.022 0-3.519-.152-1.452-.152-2.352-.466-3.269-.717-3.795-1.031-4.41-.054-9.87-.888-1.416-.215-4.436-.753-4.579-.269-.027.072.018.197.098.439.071.224.169.529.392.762.214.224.374.188 1.221.493l.57.224c.802.296 1.568.314 1.924.332l4.062.233 2.325.206 4.303.493 7.634.61 4.178.69c.481.126.561.126 1.31.377 2.975 1.004 6.013 1.327 9.113 1.004.695-.072 1.336.045 1.995.233 2.922.834 5.906.906 8.908.655.152-.224.57-.924.312-1.444l-.009-.009z" fill="#43bf7c"/><g fill="#000"><path d="M108.645 69.785h-.009v.009l.009-.009zm-83.533-5.484l-1.826-.215-4.027-.655-.793-.09h-.053l-.721-.054c-1.345-.063-1.871.134-3.278.018-.891-.072-1.702-.242-2.468-.457-2.628-.242-5.247-.457-7.893-.188-1.942.197-2.77 1.112-2.566 3.075.116 1.148.57 2.197 1.016 3.246.374.87.864 1.695.989 2.663.624 4.788 2.842 9.244 2.922 14.148 0 .224.08.457.16.663 1.595 4.044 2.548 8.267 3.528 12.49.766 3.291 2.182 6.42 2.209 9.881.107-1.381.837-2.537 1.443-3.712 1.22-2.367 2.236-4.806 2.895-7.397l4.873-18.721 4.231-14.642c-.258.018-.472 0-.641-.063v.009zm35.83-.491c-.116-.215-.249-.386-.187-.547.089-.233.463-.224.472-.341 0-.108-.321-.251-.722-.305-.766-.108-.998.197-1.906.287-.57.054-1.033 0-1.639-.09l-1.23-.214c-.169-.027-.641-.09-1.506-.134-.463-.027-1.737-.072-3.608.045l-1.835.135-2.067.027c-.882-.045-1.791-.179-1.951.135-.08.161-.062.341-.062.341a.7.7 0 0 0 .107.287c.187.26.757.161 1.452.117.428-.027.855 0 1.283 0l1.666-.018 3.911-.09c1.247.099 2.557.377 3.332.538.713.152 1.078.251 1.693.26l1.889-.09c.276-.009.73-.09 1.212.161l.392.179c-.258-.17-.508-.377-.677-.69l-.018.009z"/><path d="M108.84 68.331c-.071-.153-.285-.439-1.452-.637-1.131-.197-2.031-.108-2.191-.099-1.417.126-2.005-.161-3.742-.368-3.251-.386-3.501.341-6.494.054-3.314-.323-3.465-1.264-6.895-1.434-.837-.045-1.755-.036-3.243-.242-1.559-.215-1.719-.395-3.082-.547-1.675-.188-2.022 0-3.519-.152-1.452-.152-2.352-.466-3.269-.717-3.795-1.031-4.41-.054-9.87-.888-1.416-.215-4.436-.753-4.579-.269-.027.072.018.197.098.439.071.224.169.529.392.762.214.224.374.188 1.22.493l.57.224c.802.296 1.568.314 1.924.332l4.062.233 2.325.206 4.303.493 7.634.61 4.178.69c.481.126.561.126 1.31.377 2.975 1.004 6.013 1.327 9.113 1.004.695-.072 1.336.045 1.995.233 2.922.834 5.906.906 8.908.655.152-.224.57-.924.312-1.444l-.009-.009zM35.036 10.563c-.053.296-.089.52-.33.655-.33.197-.65.134-.864-.126-1.434-1.757-3.1-3.308-4.222-5.326-.276-.493-.214-.941.178-1.309.419-.403.927-.412 1.425-.126.285.161.517.395.624.708.641 1.883 1.764 3.479 2.949 5.039.116.152.178.35.241.493v-.009zm6.601-6.08l.258 3.371c.027.403-.053.762-.499.816-.436.054-.615-.296-.686-.681l-1.265-6.5c-.125-.663-.169-1.381.73-1.479.953-.099 1.051.637 1.096 1.363l.24 3.129h.125v-.009-.009zM49.52.027c.606.045.953.403.82 1.246-.196 1.201-.775 2.268-1.06 3.443l-.454 1.739c-.178.493.08 1.417-.579 1.399-.704-.027-.526-.968-.597-1.506-.258-1.928.472-3.721.873-5.55.089-.403.356-.726 1.007-.771h-.009zm5.791 9.664c-.552-.063-.837-.43-.641-.915l2.12-4.815c.116-.251.392-.421.695-.359a.81.81 0 0 1 .65.628c.098.421-.027.807-.205 1.157l-1.915 3.721c-.151.305-.347.529-.704.574v.009z"/></g><path d="M63.8 46.578l-.053.072h-.053a1.68 1.68 0 0 1 .125-.054l-.018-.018zm39.757-35.056l.009-.197c.036 0 .081.018.116.027l-.151.152.026.018z" fill="#43bf7c"/><path d="M63.8 46.559l-.445-6.07c-.134-1.928-.49-3.81-.909-5.684-.374-1.533-.873-3.013-1.55-4.438-2.209-4.635-4.427-9.271-6.405-14.023-1.123-2.699-3.768-3.775-6.485-2.815-2.067.726-4.089 1.578-6.352 1.39-1.381-.108-2.699.197-3.92.843a11.2 11.2 0 0 1-5.621 1.336c-.784-.018-1.594.143-2.343.385-3.741 1.201-7.59 1.282-11.447 1.175-3.581-.099-7.073.511-10.423 1.703-2.111.744-2.459 2.161-.926 3.802 3.207 3.434 4.882 7.81 7.358 11.683.152.242.321.403-.009.69-2.485 2.179-4.65 4.716-7.331 6.671-.998.726-1.951 1.533-2.735 2.519-.659.825-.579 1.748.205 2.331 1.505 1.121 2.966 2.34 4.588 3.273 3.937 2.259 6.948 5.487 9.63 9.092.802 1.076 1.203 2.34 1.265 3.721.027.637-.098.897-.775.744a18.42 18.42 0 0 0 3.225.287c-.125-.152-.178-.385-.142-.753.062-.547-.009-1.112.107-1.677.579-2.752.071-5.451-.347-8.168-.82-5.263-1.889-10.472-3.332-15.601-.276-.977-.677-1.91-1.238-2.735-1.737-2.564-3.029-5.38-4.427-8.141-.971-1.919-2.298-3.559-3.768-5.397 3.269-.762 6.369-1.309 9.603-1.255 3.804.072 7.643 0 11.331-1.21.971-.323 1.951-.395 2.94-.412 1.906-.036 3.697-.484 5.354-1.453.909-.529 1.871-.915 2.931-.897 2.628.045 4.971-.879 7.296-1.982 1.603-.753 3.456-.09 4.133 1.578 1.033 2.537 2.343 4.931 3.501 7.397.9 1.928 1.826 3.846 2.966 5.64 1.755 2.779 2.69 5.837 2.984 9.092.241 2.609.633 5.209.641 7.845m.837-.439s-.018.027-.027.036h-.054c.027-.009.054-.027.08-.036zM36.906 30.573l-1.327-.78c-.784-.448-1.586-.457-2.272.117s-1.443.834-2.307.897c-.25.018-.49.081-.73.143-.481.116-.802.386-.722.924.071.466.392.699.855.699 1.265-.018 2.512-.152 3.537-.968.454-.359.802-.359 1.229-.036a5.55 5.55 0 0 0 .793.493c1.657.888 2.779.323 3.029-1.497 3.109 1.354 3.643 1.264 4.793-.87l1.586 1.157c.766.502 1.577.771 2.459.269.891-.511 1.149-1.345 1.114-2.313-.036-.762-.294-1.479-.552-2.179-.178-.484-.633-.619-1.087-.457-.419.152-.615.52-.526.986l.365 1.748c.08.592-.196.762-.704.448l-2.067-1.273c-1.238-.601-1.737-.35-2.165.941-.312.942-.552 1.04-1.425.547l-1.826-1.139c-.517-.296-1.105-.583-1.666-.17-.579.43-.526 1.085-.392 1.722.036.17.187.332.018.601l-.009-.009zm10.637 6.959c.383-.099.633-.35.561-.744-.098-.565-.552-.592-1.016-.547l-6.129.574-10.048.762c-.374.027-.739.081-1.114.143-.534.09-.864.43-.802.977.062.565.481.771 1.016.726l4.552-.448c4.133-.287 8.222-.879 12.338-1.327.214-.027.428-.072.641-.108v-.009zm-2.601 6.46c.151-.045.294-.108.445-.134.526-.108.757-.466.668-.959-.098-.52-.499-.663-1.007-.556l-5.496 1.166-4.303.906c-.223.045-.41.081-.623-.045-.606-.35-1.131-.197-1.363.457-.232.646.045 1.175.659 1.471.445.215.918.188 1.372.054l9.648-2.358z" fill="#000"/></g><defs><clipPath id="A"><path fill="#fff" d="M0 0h117v111H0z"/></clipPath></defs></svg>