<svg xmlns="http://www.w3.org/2000/svg" width="176" height="121" fill="none"><path d="M150.99 73.993c-2.059-3.104-4.77-5.485-7.709-7.743-2.974-2.275-6.019-4.445-9.046-6.667-3.098-2.275-6.178-4.604-9.416-6.685-3.221-2.081-6.618-3.863-10.032-5.591-3.344-1.676-6.917-3.827-10.719-3.81a3 3 0 0 0-3.467-.847c-1.32.565-2.182 2.099-1.725 3.545.686 2.222 1.848 4.145 3.344 5.803-7.656-2.24-15.663-3.175-23.601-3.81-1.848-.141-3.766-.441-5.614-.37-2.64.106-5.174 1.693-5.192 4.621 0 2.716 2.077 4.374 4.312 5.415l6.002 2.752 6.635 3.034c.669.317 1.355.67 2.059.935-.158.123-.317.265-.475.406-1.162 1.076-1.918 2.611-2.323 4.11-.37 1.341-.634 2.875-.563 4.269.141 2.505 1.83 3.933 3.978 4.851.334.141.669.282 1.003.406-1.197 1.058-2.024 2.487-1.866 4.216.123 1.288.827 2.275 1.813 2.716-.053.723.088 1.464.44 2.17 1.021 2.064 2.869 2.522 4.805 2.399-.035.318-.053.653-.035.988.106 1.834.968 3.387 2.147 4.745 1.936 2.222 4.699 3.986 7.409 5.08 1.355.547 2.834.865 4.295.865 1.812 0 4.048-.441 5.068-2.099.317-.529.511-1.094.546-1.693 2.271.335 4.541.441 6.829.423 2.605.688 5.28 1.111 7.937 1.464 1.796.229 3.573.405 5.368.582.933.088 1.901.264 2.816 0 1.532-.459 2.676-1.87 2.693-3.493 0-1.005-.334-1.781-.633-2.716l-.159-.582c0-.071-.017-.123-.035-.194v-.053c0-.459-.018-.9 0-1.358v-.124c.053-.3.106-.6.194-.917.088-.406.211-.811.334-1.217.018-.071.053-.159.07-.229 1.373-1.764 2.693-3.545 3.978-5.362.37-.141.739-.317 1.109-.512 2.077-1.164 3.449-3.14 4.505-5.221.599.088 1.232-.035 1.796-.388 1.302-.829 2.006-2.699 1.073-4.11h.053zm-20.117 12.171l.757.282-.792.67c0-.317 0-.635.018-.953h.017zM95.761 56.567c-.141-.053-.264-.088-.405-.141l.51.106c-.035 0-.07 0-.106.018v.018zm17.864 32.772c-.581-.37-1.144-.741-1.689-1.164.052.035-.511-.423-.616-.511l-.423-.37a3 3 0 0 0 .458-.67c.546-.088 1.091-.37 1.531-.847.335-.37.669-.723 1.038-1.058a3.43 3.43 0 0 0 1.972.106l.316 1.764c.388 2.117 3.626 2.999 4.999 1.323.035-.053.07-.088.105-.124v.776c0 1.852 1.778 3.157 3.432 2.963 0 .247.001.494-.017.741l-2.059.088a67.49 67.49 0 0 1-1.919.071c-2.534-.741-4.963-1.729-7.128-3.069v-.018zm-34.9-35.153c-.018.035-.035.053-.07.088-.088-.035-.158-.071-.246-.106.106 0 .194 0 .299.018h.018zm22.263 38.399a9.33 9.33 0 0 1-1.091-1.111l-.035-.035c-.018-.035-.035-.088-.07-.141-.018-.035-.123-.282-.194-.406v-.088-.053c0-.035.035-.088.035-.124 0 0 .035-.053.07-.123a13.52 13.52 0 0 1 .404-.653c.141-.212.3-.423.458-.635a2.96 2.96 0 0 0 .264-.353l.264-.318 1.707-.406c.458.353 1.004.6 1.567.67.105.176.229.353.352.529-1.039.018-2.059.511-2.57 1.464-.405.776-.51 1.729-.211 2.558a.31.31 0 0 1-.088-.071c-.053-.035-.246-.194-.317-.247-.176-.141-.369-.3-.528-.459h-.018z" fill="#fff"/><path d="M133.267 97.929l2.253-7.038 1.672-5.133c.475-1.57 1.496-2.752 2.534-3.969l1.936-2.381 2.992-3.316c.933-.917 2.007-1.658 2.975-2.522 2.129-1.905 4.505-1.676 6.917-.811l4.804 1.887c3.309 1.323 6.372 3.104 9.328 5.062.951.635 1.954 1.199 2.887 1.852.299.212.528.6.633.97.458 1.605.247 3.122-.228 4.745-1.092 3.651-3.045 6.667-5.756 9.331-1.777 1.729-3.66 3.387-4.892 5.627-1.056 1.922-1.338 3.951-1.127 6.12.159 1.535.247 3.087.264 4.639 0 1.182-.862 1.887-1.971 1.499-3.186-1.093-6.371-2.169-9.486-3.457-3.538-1.464-6.917-3.333-10.648-4.339-1.708-.458-2.975-1.605-3.996-3.016-.651-.917-1.425-1.711-2.534-2.011-1.848-.494-3.714-1.023-5.597-1.287-1.197-.159-2.481.299-3.696.194-2.041-.177-4.083-.565-6.125-.882-.95-.159-1.883-.388-2.833-.582-.511-.106-1.039-.159-1.531-.3-.599-.176-.845.018-1.021.6-.387 1.252-.792 2.487-1.267 3.704-.3.74-1.602 1.234-2.517 1.023-1.197-.283-2.429-.494-3.608-.865-1.778-.546-3.503-1.199-5.263-1.816-.81-.3-1.619-.635-2.429-.971-1.126-.476-1.971-1.111-2.2-2.487-.299-1.87-.81-3.686-1.214-5.538-.141-.653.44-1.129 1.162-.917.792.229 1.091.847 1.355 1.57.493 1.305 1.074 2.575 1.672 3.828.141.282.475.547.774.635l7.533 2.258c.229.071.458.071.687.088.756.071 1.144-.194 1.267-1.023.088-.67.369-1.358.721-1.94.37-.6.106-.705-.352-.97-.756-.423-1.531-.847-2.182-1.429-.686-.617-.81-1.64-.458-2.24.511-.847 1.461-1.376 2.394-1.023 1.179.459 2.376 1.023 3.397 1.746 1.566 1.111 2.939 2.311 5.086 2.346 1.567 0 3.115.794 4.699.988 1.461.176 2.957.176 4.418.035 2.165-.229 4.189.229 6.213.829.809.229 1.601.494 2.288.706l.07-.018zm29.427-10.319c1.584-.035 2.588-1.093 2.376-2.205-.228-1.111-.492-2.222-1.848-2.558-.387-.088-.721-.37-1.091-.564-2.939-1.57-5.843-3.175-9.029-4.251-1.724-.582-2.816.194-3.995 1.058a1.01 1.01 0 0 0-.317.688c-.035.688.81 1.887 1.496 2.117 1.232.423 2.535.706 3.714 1.252 2.147 1.005 4.206 2.152 6.318 3.228l2.394 1.217-.018.018z" fill="#030303"/><path d="M78.25 60.835l-7.674-1.887-4.083-1.023c-.51-.123-1.126-1.358-1.179-2.187l-.229-3.651c.018-1.34.106-2.681.387-3.986.123-.564.722-1.129 1.25-1.482 1.549-1.005 3.256-1.023 5.069-.706 3.397.617 6.829 1.058 10.243 1.57.862.123 1.742.194 2.605.406 1.355.318 2.675.758 4.03 1.094 1.408.353 2.816.617 4.224.953 1.162.264 2.306.582 3.485.882l.44-4.18.44-3.545c.07-.688.158-1.376.158-2.064.053-2.487 2.552-4.357 4.858-3.034 1.408.811 2.746 1.817 4.206 2.487 1.848.847 3.837 1.376 5.703 2.17 2.253.952 4.488 1.958 6.635 3.087 4.066 2.134 8.096 4.339 12.074 6.614 1.108.635 2.076 1.623 2.974 2.575l7.885 8.467c.352.388.581.9.933 1.288.827.9 1.689 1.764 2.552 2.628 1.003 1.023 2.147 1.975 2.2 3.545 0 .388-.264.953-.564 1.111-.352.176-1.161.194-1.32-.035-1.126-1.534-2.886-2.293-4.188-3.563-2.852-2.769-5.685-5.574-8.378-8.519-2.675-2.946-5.931-4.974-9.398-6.773l-10.613-5.662c-1.109-.564-2.323-.952-3.52-1.34-2.499-.811-4.999-1.587-7.128-3.175-.141-.106-.299-.159-.546-.282-.229 1.199-.475 2.346-.633 3.51-.159 1.288-.141 2.611-.352 3.881-.194 1.076.352 1.499 1.179 1.905l9.521 4.692c.528.265.986.617 1.514.9 1.901.988 2.341 2.663 2.059 4.586-.264 1.887 0 3.704.423 5.521.563 2.522 1.548 4.868 3.185 6.861.563.705 1.32 1.305 2.095 1.764.88.529 1.355 1.129 1.196 2.011-.158.935-.792 1.499-1.848 1.517-1.636 0-2.992-.688-4.048-1.923-2.64-3.069-4.259-6.614-4.98-10.618-.352-1.94-.528-3.863-.282-5.821.035-.229-.264-.635-.51-.759l-7.445-3.739c-1.443-.706-2.887-1.393-4.365-2.011-.634-.265-1.355-.353-2.024-.511l-9.522-2.258c-1.725-.441-3.52-.353-5.245-.688-2.2-.423-4.382-1.023-6.582-1.446-1.742-.335-3.502-.582-5.28-.758-.915-.088-1.69.953-1.478 2.046.246 1.235.634 2.434 1.056 3.616.088.247.528.459.827.511l13.429 2.275c.862.159 1.707.441 2.534.706l6.899 2.258c.95.335 1.848.847 1.936 2.046.106 1.217-.722 1.923-1.584 2.452-1.32.794-2.746 1.446-4.136 2.152-2.13 1.094-4.101 2.381-5.65 4.233-.141.159-.158.6-.035.776.81 1.217 1.707 2.364 2.499 3.581 1.162 1.799 2.728 1.87 4.611 1.411 2.974-.741 6.002-1.34 9.011-1.975.475-.106.775-.247.845-.811.106-.917.317-1.834.493-2.752.123-.6-.176-.741-.687-.653l-5.192.811c-.95.124-1.954.229-2.869.035-.493-.106-1.056-.776-1.25-1.305-.141-.37.282-.97.51-1.446.088-.176.37-.282.563-.423l1.619-.106c.229 0 .458-.035.686-.053l2.306-.67.334-.053 4.823-.529c.158.035.334.053.492.088l1.25.529 1.426 1.429.369 1.058c0 .176 0 .353-.017.529v.353.529l-.282 1.076c0 .229-.035.459-.053.688l-.651 3.192c-.053.088-.106.176-.141.247-.088.212-.158.423-.246.617-.035.035-.071.071-.088.106-.106.123-.211.264-.317.388l-1.214.776-2.658.335c-.106 0-.211.018-.334.035l-4.946 1.164c-.106.035-.211.053-.317.088l-3.731.811c-.106 0-.229 0-.334.018-1.654.176-3.256-.141-4.805-.706-2.006-1.341-3.274-3.351-4.752-5.168l-.299-.406c0-.053-.035-.088-.07-.123a3.55 3.55 0 0 1-.246-.441c0-.053-.018-.088-.053-.106-.088-.3-.123-.617-.264-.9-.528-1.005-.598-2.081-.458-3.192.07-.106.123-.229.194-.335l.158-.37c.053-.018.07-.053.088-.106l.528-.529.528-.529 2.781-2.505c.123-.106.264-.212.387-.317.053 0 .088-.035.123-.07.141-.088.282-.176.44-.265.088-.088.194-.159.282-.247.141-.106.282-.194.405-.3.053 0 .088-.018.106-.071.141-.088.282-.194.422-.282.088-.053.176-.088.264-.141l.475-.159c.141-.106.299-.194.422-.318.264-.247.51-.511.774-.776l-.862-.653-1.109-.265h-.704l-2.13-.635-.422-.159c-1.302-.494-2.587-.953-4.013-.67l-.088.159z" fill="#060707"/><path d="M43.507 88.175c4.576.564 8.835-.653 13.024-2.258.211-.088.44-.124.669-.176-.176.141-.317.335-.528.423-2.622 1.129-5.227 2.328-7.902 3.334-.827.317-1.848.123-2.763.247-2.059.265-4.118.476-6.16.864-2.024.388-4.013.282-6.002-.141-6.195-1.288-11.774-3.986-16.755-7.796-2.094-1.605-3.696-3.828-5.526-5.768-3.238-3.422-5.456-7.514-7.726-11.588-1.531-2.734-2.042-5.662-2.112-8.696-.07-3.351.053-6.703.088-10.036 0-.212-.123-.441-.141-.653-.053-.582-.106-1.182-.07-1.764.018-.511.088-1.058.264-1.535.317-.864.651-1.746 1.109-2.558l5.685-10.107c.088-.159.229-.317.211-.476-.07-1.146.739-1.693 1.478-2.328 1.162-1.023 2.288-2.099 3.432-3.14.387-.335.81-.635 1.214-.952-.686 1.058-1.285 2.17-2.059 3.14-3.555 4.392-5.245 9.525-6.195 14.975-.07.37-.158.723-.229 1.094-.141.229-.334.459-.405.706-.282 1.041-.616 2.081-.774 3.14-.598 3.845-.422 7.726-.264 11.589 0 .282.141.565.211.847.81 3.104 2.094 5.997 3.661 8.766.563.988 1.338 1.87 1.778 2.91 1.179 2.787 3.256 4.833 5.35 6.861 1.126 1.094 2.394 2.064 3.643 3.034 2.904 2.258 5.861 4.427 9.398 5.68 1.936.688 3.872 1.27 5.931 1.394l7.11.9c.458.053.915 0 1.373 0l-.018.071z" fill="#040404"/><path d="M91.678 90.873l-3.485-.653c-1.021-.229-1.707-.97-2.059-1.905-.51-1.323-.915-2.699-1.302-4.075-.088-.353.053-.811.194-1.182.194-.511.968-.67 1.426-.247.37.335.651.811.898 1.252l1.478 2.663c.211.318.704.582 1.074.6 1.25.035 2.517.106 3.714-.141 1.232-.265 2.376-.917 3.555-1.376l3.132-1.111c.405-.159.757-.423 1.18-.547.932-.282 1.865-.653 2.816-.723.809-.053 1.548.829 1.636 1.587.088.882-.44 1.799-1.249 2.117l-7.568 2.875c-1.76.705-3.555.847-5.456.882l.018-.018z" fill="#080808"/><path d="M131.842 18.168c-.352.494-.616 1.288-1.109 1.482-1.83.67-3.098 2.064-4.506 3.263l-6.846 6.032c-.422.37-.88.688-1.355.988s-.951.282-1.338-.176c-.405-.476-.246-.953.141-1.34l7.85-8.272c1.179-1.199 2.534-2.258 3.854-3.316 1.038-.811 2.147-.706 2.781.194.193.265.281.617.51 1.146h.018z" fill="#070707"/><path d="M114.048 13.635c-.088.212-.211.67-.493 1.041-2.692 3.686-4.963 7.602-6.371 11.977-.07.194-.123.388-.229.582-.281.547-.686.882-1.337.653-.634-.212-.88-.741-.722-1.341.352-1.376.739-2.769 1.197-4.11 1.109-3.193 2.622-6.191 4.418-9.031.369-.6 1.038-1.129 1.689-1.411.915-.388 1.866.423 1.831 1.658l.017-.018z" fill="#090909"/><path d="M92.717 20.919l.792-6.879c.211-1.499.862-2.152 1.954-2.205.845-.035 1.707.635 2.059 1.605.299.847.035 1.464-.669 1.976-.211.159-.422.423-.475.688l-1.355 7.055c-.194 1.252-.528 1.887-1.302 1.834-.651-.053-.95-.688-.933-1.887v-2.187h-.07z" fill="#0a0a0a"/><path d="M134.393 32.331c.229.194.81.459.968.882s0 1.094-.246 1.499a3.32 3.32 0 0 1-1.408 1.146c-.405.176-1.074.159-1.443-.088-.335-.212-.546-.811-.546-1.252-.018-.741 1.637-2.187 2.675-2.205v.018z" fill="#0c0c0c"/><g fill="#aeb1b7"><path d="M85.343 80.855c1.549.565 3.133.882 4.805.706-.387.106-.792.317-1.179.3-1.267-.071-2.57-.088-3.608-1.005h-.018zm9.169-.229l4.946-1.164-3.115.935c-.598.159-1.232.159-1.848.229h.018zm7.428-13.176l-4.823.529c1.549-.723 3.133-1.041 4.823-.529zm-23.69-6.615c1.426-.282 2.728.176 4.013.67l-1.584-.229c-.282-.018-.563.071-.845.123l-1.584-.564zm.915 9.701c-.123 1.111-.07 2.169.458 3.192.141.265.176.6.264.9-.898-1.111-1.144-2.416-1.003-3.792 0-.106.176-.194.282-.282v-.018zm24.903 7.267l.247-.617-.247.617z"/><path d="M79.957 74.734l.246.441-.246-.441zm4.418-9.242l-.44.265.44-.265zm.686-.547l-.405.3.405-.3z"/></g><path d="M35.024 87.258c-2.059-.141-3.995-.723-5.931-1.393-3.538-1.252-6.494-3.422-9.398-5.68-1.25-.97-2.517-1.923-3.643-3.034-2.094-2.028-4.171-4.074-5.35-6.861-.44-1.041-1.214-1.923-1.778-2.91-1.584-2.769-2.869-5.68-3.661-8.766-.07-.282-.194-.564-.211-.847-.158-3.863-.334-7.743.264-11.588.158-1.058.493-2.099.774-3.14.07-.247.264-.476.405-.706l-.141 4.992c0 1.429.141 2.857.194 4.286.018.511-.035 1.041 0 1.552.123 1.182.123 2.416.458 3.545.95 3.334 1.813 6.72 3.115 9.93 2.587 6.332 6.688 11.447 12.901 14.64 2.499 1.288 4.928 2.716 7.427 3.951 1.461.723 3.045 1.199 4.558 1.781v.264l.018-.018z" fill="#f6f7fa"/><path d="M35.024 87.258v-.265l7.938.847c.194.018.37.212.546.335h-1.373l-7.11-.9v-.018z" fill="#e2e7ef"/><path d="M162.694 87.61l-2.393-1.217-6.319-3.228c-1.179-.547-2.481-.829-3.713-1.252-.669-.229-1.532-1.429-1.496-2.117 0-.247.14-.564.316-.688 1.197-.864 2.271-1.64 3.996-1.058 3.185 1.076 6.089 2.681 9.028 4.251.37.194.704.476 1.092.565 1.355.335 1.636 1.446 1.848 2.557.228 1.111-.792 2.17-2.376 2.205l.017-.018z" fill="#f8f8f8"/><g fill="#196ffd"><path fill-rule="evenodd" d="M53.015 29.066a3.94 3.94 0 0 1 2.997-.539c.899.198 1.503.684 1.801.96.324.301.558.61.702.816.224.32.555.904.478.776l1.429 2.526c.794 1.506 1.395 3.089 1.785 4.737a3.28 3.28 0 0 1 1.511.385 3.31 3.31 0 0 1 1.373 4.47l-.907 1.73-2.956 5.476-.726 1.143a5.07 5.07 0 0 1-.497.587l-.002.002c-.134.134-.641.641-1.461.898-.485.152-1.221.258-2.044-.01-.844-.275-1.407-.822-1.738-1.309-.535-.79-.581-1.584-.592-1.769l-.001-.008-.004-.367-.097-.08c-.074-.064-.156-.14-.241-.23-.281.181-.566.309-.846.394a3.31 3.31 0 0 1-1.79.544c-.919 1.483-2.847 2.001-4.392 1.15a3.29 3.29 0 0 1-1.436-1.58l-2.848 3.144c-2.306 2.641-4.391 5.509-6.391 8.516-1.011 1.52-3.06 1.93-4.576.917s-1.926-3.066-.915-4.586c2.093-3.146 4.354-6.27 6.915-9.203 3.987-4.565 8.293-8.79 12.714-12.807l.046-.457c.062-.579.162-1.341.325-2.103.148-.693.41-1.69.923-2.562.262-.445.716-1.078 1.463-1.558zm7.729 20.893s.001-.01.005-.035c-.003.022-.005.035-.005.035z"/><path d="M14.978 23.124l4.294-3.034c.546-.406 1.038-.952 1.426-1.517 1.003-1.411 2.534-2.046 3.995-2.734l7.814-3.334c.88-.353 1.866-.653 2.781-.6 1.795.088 3.432-.6 5.139-.811 1.901-.229 3.854-.229 5.773-.123.95.053 1.866.635 2.816.917l9.205 2.575c1.021.3 2.042.741 2.974 1.288l7.269 4.445c.651.423 1.214 1.023 1.795 1.534l3.978 3.581c.194.176.493.37.493.582.141 1.834 1.443 3.122 2.2 4.639l4.576 8.396c.651 1.358 1.232 2.963.51 4.586-.07.176-.053.406-.035.6l.035 3.351-10.243-1.57c-1.813-.317-3.502-.317-5.069.706-.528.335-1.126.917-1.25 1.482-.282 1.288-.37 2.646-.387 3.986-.018 1.217.158 2.434.229 3.651.053.829.669 2.046 1.179 2.187l4.083 1.023 7.674 1.887 1.584.564.757.353c-1.549 2.663-2.834 5.45-4.646 7.831-2.658 3.51-5.526 6.932-8.642 10.036-1.76 1.764-4.189 2.857-6.354 4.198-1.197.741-2.499 1.305-3.766 1.958-.229.053-.44.088-.669.176-4.189 1.605-8.466 2.822-13.024 2.258-.176-.106-.352-.3-.546-.335l-7.938-.847c-1.531-.582-3.098-1.058-4.558-1.781-2.517-1.235-4.946-2.663-7.427-3.951-6.213-3.192-10.314-8.308-12.901-14.64-1.302-3.193-2.165-6.597-3.115-9.93-.317-1.129-.334-2.346-.458-3.545-.053-.511 0-1.041 0-1.552-.07-1.429-.194-2.857-.194-4.286 0-1.658.088-3.334.141-4.992.07-.37.176-.723.229-1.094.95-5.45 2.658-10.583 6.195-14.975.774-.97 1.373-2.081 2.059-3.14h.018zm40.11 8.713c-.563 0-1.302-.247-1.672 0-.862.617-1.848 1.129-2.358 2.205-.862 1.817-1.866 3.581-2.834 5.362l-1.971 3.633c-1.918 3.651-3.608 7.443-6.283 10.636-2.886-2.134-5.755-4.286-8.008-7.355l-1.478.776c-.317-.106-.669-.335-.968-.3-1.478.229-2.605 1.094-3.45 2.258-.704.988-1.461 1.87-2.499 2.522-.933.582-1.056 1.199-.827 2.258.352 1.605 1.355 2.734 2.358 3.933 2.147 2.575 4.365 5.062 7.357 6.703.563.317 1.074.723 1.619 1.058 1.637 1.041 3.238 2.117 4.91 3.069 1.478.847 3.344.176 3.784-1.235 1.285.37 2.464-.035 3.203-1.094.405-.582.792-1.164 1.232-1.729l13.112-17.233 2.605-3.51c.546-.758.51-1.993-.141-2.628-2.622-2.54-4.664-5.486-6.283-8.749-.317-.653-.722-.864-1.39-.617l-.018.035z"/><path d="M48.332 29.29a8.38 8.38 0 0 1 .786.269l4.95 2.14 1.13.254c.723.156 1.339.539 1.79 1.057l.822.35c1.825.775 3.998 1.697 5.901 2.928.515.333.93.69 1.22.947l.261.232.393.339.021.017c.229.179 1.335 1.046 1.495 2.616.142 1.4-.592 2.445-.738 2.653l-.017.024c-1.374 2.016-3.061 3.99-4.589 5.777l-1.786 2.118-.261.319-1.3 1.621c-.256 2.6-.94 5.319-3.051 7.861-2.04 2.457-4.545 4.574-6.729 6.419l-.837.709-1.335 1.152-3.617 3.028c-.484.376-1.4.96-2.636.942-1.473-.021-2.501-.86-3.043-1.659-.469-.691-.637-1.405-.709-1.837l-.066-.56c-.155.131-.368.299-.608.445l-.004.002c-.208.127-1.772 1.079-3.522.073-.749-.431-1.136-1.029-1.311-1.35a3.86 3.86 0 0 1-.308-.755l-.137-.567-.005-.022c-.14-.64-.274-1.775-.344-2.389-.92.221-2.344.269-3.581-.959a3.99 3.99 0 0 1-.977-1.611c-.213-.08-.428-.184-.64-.318-.966-.608-1.34-1.497-1.468-1.841l-.083-.244c-.44.156-1.067.277-1.805.12-1.639-.348-2.296-1.657-2.488-2.28a3.46 3.46 0 0 1-.146-1.218c.034-.586.225-1.138.279-1.292l.007-.019a12.82 12.82 0 0 1 .627-1.491c.905-1.764 1.717-3.013 2.816-4.549l.934-1.244c.345-.435.933-1.153 1.534-1.647 1.133-.93 2.397-.894 3.103-.752.653.132 1.163.407 1.402.542l.474.292c.74.221 1.35.182 2.166-.146l.02-.011c.093-.049.46-.241.933-.352.453-.106 1.816-.319 3.039.727 1.123.961 1.211 2.229 1.221 2.638a6.32 6.32 0 0 1-.099 1.137l-.023.134.363-.323 3.679-3.294.631-.569c1.355-1.222 3.442-1.111 4.66.247.656.73.927 1.673.826 2.578l1.992-1.975c.851-.839 1.255-1.192 2.171-1.893l.624-.459.171-.168c.141-.132.558-.515 1.194-.769.784-.313 1.851-.402 2.894.132a3.61 3.61 0 0 1 .651.426l2.157-2.592c-1.171-.671-2.432-1.208-3.875-1.824l-1.678-.724-1.952-.878c-1.578-.397-3.233-.914-4.871-1.713-.249-.121-.968-.551-1.408-.863a5.15 5.15 0 0 1-.565-.456l-.005-.004c-.08-.075-.393-.373-.651-.833a3.35 3.35 0 0 1-.429-1.625c-.004-1.034.475-2.042 1.346-2.687.688-.509 1.373-.608 1.641-.636a3.46 3.46 0 0 1 .728.002 4.04 4.04 0 0 1 .646.126zm1.077.696zm11.485 9.402l-.003.004.003-.004zM32.117 63.964l-.017.014.017-.014zm6.691 2.923l-.01.007zm13.409-22.384a.53.53 0 0 1 .009-.01l-.009.01zm-21.879 1.561l-.041-.025.041.025z" fill-rule="evenodd"/></g><path fill-rule="evenodd" d="M39.899 32.664a3.28 3.28 0 0 0-1.559-.392c-1.823 0-3.3 1.481-3.3 3.307L35 37.969l-.019 4.639.038 3.142c-.661.079-1.226.133-1.952.119l-1.127-.022-5.631-.073c-1.823 0-3.3 1.481-3.3 3.307 0 .47.098.918.275 1.323a3.3 3.3 0 0 0-.395 1.57c0 1.827 1.477 3.307 3.3 3.307.673 0 1.328.072 2.195.168l.492.054c2.336.252 4.638.174 6.737.085l.096.809c.075.778.081 1.582.088 2.566v.029l.127 3.137.017.174.168 1.415c.085.524.287 1.666.927 2.628.899 1.351 2.618 1.826 4.054 1.203a3.28 3.28 0 0 0 1.413.071c1.798-.3 3.012-2.004 2.713-3.806-.044-.264-.064-.524-.066-.889l-.113-3.628-.001-.024-.108-3.406-.002-.281 1.384.001c1.665-.008 3.531-.067 5.412-.433 1.109-.216 1.957-.354 2.738-.354 1.823 0 3.3-1.481 3.3-3.307 0-.294-.038-.579-.11-.851a3.33 3.33 0 0 0 .065-.658c0-.687-.209-1.325-.566-1.853l.01-.255c0-1.826-1.477-3.307-3.3-3.307-1.86 0-3.928.076-5.899.337l-3.416.283-.012-.58-.394-9.063c-.158-1.82-1.758-3.166-3.574-3.008a3.31 3.31 0 0 0-.664.127z" fill="#000"/><path fill-rule="evenodd" d="M42.099 30.459a3.28 3.28 0 0 0-1.559-.392c-1.823 0-3.3 1.481-3.3 3.307l-.039 2.389-.019 4.639.038 3.142c-.661.079-1.226.133-1.952.119l-1.127-.022-5.631-.073c-1.823 0-3.3 1.481-3.3 3.307 0 .471.098.918.275 1.323a3.3 3.3 0 0 0-.395 1.57c0 1.827 1.477 3.307 3.3 3.307.673 0 1.328.072 2.195.168l.492.054c2.336.252 4.638.174 6.737.085l.096.809c.075.778.081 1.582.088 2.566v.029l.128 3.137.017.174.168 1.415c.085.524.287 1.666.927 2.628.899 1.351 2.618 1.826 4.054 1.203.446.123.926.152 1.413.071 1.798-.3 3.012-2.004 2.713-3.806-.044-.264-.064-.524-.066-.889l-.113-3.628-.001-.024-.108-3.406-.002-.281 1.384.002c1.665-.008 3.531-.067 5.412-.433 1.109-.216 1.956-.354 2.738-.354 1.823 0 3.3-1.481 3.3-3.307 0-.294-.038-.58-.11-.851a3.33 3.33 0 0 0 .065-.658c0-.687-.209-1.324-.566-1.853l.01-.255c0-1.826-1.477-3.307-3.3-3.307-1.86 0-3.928.076-5.899.337l-3.416.283-.012-.58-.394-9.063c-.158-1.82-1.758-3.167-3.573-3.008a3.31 3.31 0 0 0-.665.127z" fill="#fff"/></svg>