<svg xmlns="http://www.w3.org/2000/svg" width="155" height="121" fill="none"><g clip-path="url(#A)"><path d="M5.051 75.138c.28-7.195 2.731-12.897 7.327-18.341 1.002-1.19 2.196-2.147 3.271-3.254.839-.865 1.541-1.967 2.466-2.74 3.438-2.9 13.014-4.833 17.514-5.079 8.432-.452 16.556 1.456 24.461 4.214 2.109.735 5.317 1.746 7.224 2.738.742.382.25.893.389 1.309a8.56 8.56 0 0 0 .79.735c.367.209.588-.141 1.019-.21.578-.091 1.148.182 1.532.603.604.66.446.553 1.239 1.162.741.568 3.139 5.372 3.59 6.492.589 1.462.245 1.615.194 2.999-.022.584.307 1.456.322 2.19.096 3.992-1.963 10.557-3.909 14.073-3.047 5.521-9.19 10.322-15.454 11.506-.45.087-.904.121-1.358.081.899 1.659 2.057 4.354 3.564 5.518 1.087.847 2.357 1.017 3.036 2.474 1.117 2.382-2.123 2.229-3.561 2.041-3.868-.512-6.692-1.214-10.07-3.147-2.083-1.192-3.985-2.429-5.188-4.574-.86.197-1.695.713-2.599.76-1.38.077-2.963-.164-4.375-.146-7.328.08-11.282-.158-18.202-3.14-.712-.309-2.055-.813-2.654-1.167-.446-.262-1.136-1.044-1.594-1.398-1.897-1.445-2.606-2.208-4.192-3.902-.925-.986-1.937-1.617-2.571-2.894-.407-.821-.484-1.686-.788-2.501-.663-1.797-1.399-2.975-1.465-5.031-.014-.368.015-.988.026-1.374l.014.003zm47.078-8.502s-.393-.229-.615-.237c-.35-.004-1.724.633-2.03.891-2.749 2.302-1.807 6.094 1.197 7.555 1.064.522 4.081 1.845 4.338-.145.159-1.257-1.795-1.103-1.62-1.962.032-.157 1.695-1.697 1.963-2.395.413-1.078.487-2.793-.361-3.681-.565-.592-2.123-1.252-2.717-.494-.111.141-.143.448-.162.466l.007.001zm-12.551.582c-.045.036-.358-.289-1.065-.113-2.18.532-3.895 3.425-2.92 5.517.887 1.902 2.722 3.178 4.76 3.638.94.214 2.485-.053 2.154-1.32-.256-.976-1.657-.941-1.634-1.637.006-.14 1.568-1.551 1.88-2.166.896-1.8.429-4.705-2.014-4.785-.985-.029-.938.726-1.153.868l-.007-.001zm-11.065 7.011c-.32-.587.46-.905.795-1.306.964-1.145 1.458-1.924 1.34-3.506-.104-1.393-1.144-2.544-2.604-2.513-.794.017-.816.751-.878.798-.06.04-.366-.179-.512-.194-.256-.022-1.351.373-1.626.519-1.566.844-2.725 3.388-1.977 5.061.205.459 1.192 1.868 1.572 2.198.964.83 5.459 2.804 5.414.387-.019-1.04-1.249-.933-1.525-1.443z" fill="#196efd"/><path d="M61.814 62.115c-.5.151-.698.901-.795 1.269-.138.531-.131 1.009-.032 1.73.172 1.205.257 1.811.579 2.503.945 2.019 2.835 2.806 3.577 3.114.591.247 1.176.485 1.393.261.334-.357-.665-1.38-1.481-3.343-.929-2.246-.416-3.23-1.614-4.592-.218-.246-.99-1.141-1.634-.944l.007.001z" fill="#fff"/><path d="M84.868 107.094c1.869 1.178 3.527 2.372 5.85 1.944.836-.151 3.407-1.177 4.041-1.689 1.041-.832.854-1.995 1.454-2.566 1.091-1.038 2.081.908 2.778 1.475 1.182.964 2.635 1.371 4.126 1.369.738.001 3.154-.736 3.184.395.039 1.566-2.908 1.763-4.009 1.681-1.852-.131-3.522-.971-4.98-2.08-.126-.004-.89 1.003-1.117 1.203-.823.712-3.607 1.867-4.697 2.129-3.349.817-6.215-1.064-8.672-3.13-4.378 1.956-8.698 1.136-12.969-.695-.398-.171-1.519-.593-1.775-.801-.371-.3-.22-.969.233-.996.656-.038 2.971 1.149 3.795 1.421 3.392 1.13 6.348 1.33 9.742.143-.686-1.169-1.532-2.324-1.61-3.734-.171-3.113 3.009-6.14 5.498-3.211 1.689 1.991 1.375 5.691-.873 7.142zm-1.451-6.892c-.728.023-1.331 1.45-1.428 2.072-.158.996.719 2.949 1.471 3.571 1.041.853 1.824-1.343 1.957-2.105.225-1.289-.381-3.581-1.994-3.53l-.006-.008zM39.578 67.216c.208-.144.161-.899 1.153-.868 2.443.08 2.91 2.985 2.014 4.785-.304.616-1.873 2.026-1.88 2.166-.023.696 1.378.661 1.634 1.637.331 1.267-1.213 1.527-2.155 1.32-2.038-.46-3.867-1.727-4.76-3.638-.975-2.092.739-4.985 2.92-5.517.705-.169 1.021.148 1.065.112l.007.002zm12.551-.583s.05-.318.162-.466c.594-.758 2.145-.1 2.717.494.848.888.774 2.602.361 3.681-.269.698-1.933 2.245-1.963 2.395-.175.859 1.779.705 1.62 1.962-.256 1.99-3.274.667-4.338.145-3.003-1.469-3.945-5.26-1.197-7.555.306-.258 1.68-.895 2.03-.891.223.001.581.26.615.237l-.007-.002zm-23.616 7.594c.283.512 1.512.405 1.525 1.443.037 2.415-4.452.45-5.414-.387-.38-.331-1.36-1.738-1.572-2.198-.756-1.667.412-4.217 1.977-5.061.275-.145 1.37-.541 1.626-.519.139.013.452.234.512.194.069-.046.084-.78.878-.798 1.46-.031 2.501 1.113 2.604 2.513.118 1.582-.375 2.353-1.34 3.506-.334.394-1.115.719-.795 1.306zm47.18-9.229c-3.229.96-6.315 2.426-9.507 3.535.43.632.776 1.201.716 2.009-.652.128-1.208-.179-1.734-.525-.44-.291-2.168-1.873-2.404-2.286-.766-1.326-1.784-4.597-.45-5.771 1.198-1.053 3.051-.34 2.688 1.256-.079.349-.655.582-.441 1.103.261.217 3.642-1.233 4.215-1.445 6.118-2.265 12.429-3.536 18.563-5.619 2.707-.924 5.195-2.378 7.871-3.369s5.242-1.586 7.938-2.088c.565-.213.649-2.529.875-3.273.274-.906.873-2.051 1.7-2.561.478-.298 1.068-.342 1.531-.605 1.002-.564 2.088-1.282 3.052-1.92 2.105-.526 1.675 1.437 2.278 2.759l1.16 2.211c-.108-.827.181-1.767.165-2.568-.022-1.137-.872-2.048.44-3.115.805-.656 2.972-1.892 3.956-2.37 1.372-.66 5.112-2.373 6.428-2.686 1.567-.374 3.161-.005 3.16 1.829-1.172 2.571-2.581 5.102-3.732 7.64.109.492 7.124 3.046 7.954 5.011 1.069 2.543-1.903 2.572-3.392 3.111-.666.237-1.271.792-1.931.956-1.082.264-1.992-.137-3.065-.102.68 2.114-.071 3.608-2.443 3.542-2.016-.053-3.398-1.027-4.798-2.349-.187-.18-1.3-1.852-1.617-1.469.032 1.639 2.653 2.784 2.497 4.138-.092.742-.543 1.09-1.241 1.223-1.737.332-3.847.335-5.601.603-1.347.21-2.023 1.116-3.564.079-.977-.654-2.079-3.517-2.282-4.676-.121-.688.335-2.086-.844-2.005-.96.065-3.122.803-4.156 1.121-4.165 1.276-7.599 3.461-11.619 4.864-4.021 1.41-8.264 2.588-12.348 3.798l-.017.011zm41.697-15.352c-.029 1.79 1.826 2.563 2.993 3.531 1.021.841 1.811 2.195 3.264 2.2.646-.755-4.839-4.935-5.316-5.703l-.941-.028zm.068 4.866c.698-.283.05-1.6-.719-.974-.438.358-.069 1.29.719.974zm-3.382.064c.505-.21.325-1.305-.405-1.051s-.53 1.435.405 1.051zm1.011-1.233c.644.571 1.788-.471.986-1.253-.703-.687-1.864.478-.986 1.253zm-3.949-1.907c-.374-.322-2.083.493-2.515.561-.746.116-2.188-.088-2.89.104-.656.18-1.282.842-.976 1.568.276.66 2.279.412 2.827.21.387-.145.338-.49.623-.678.613-.412 2.417-.745 2.795-1.1.194-.184.244-.576.143-.664l-.007-.001zm37.322-13.523c-2.658 3.759-6.582 7.544-11.46 5-.098.554-.702 1.214-1.144 1.556s-3.579 2.163-4.019 2.312c-.753.257-2.346.431-2.106-.749.139-.68 1.42-.822 1.958-1.122.842-.477 2.098-1.116 2.834-1.584 1.869-1.2.93-2.151.92-3.748s1.295-5.662 2.74-6.389c1.658-.825 3.09.488 3.132 2.151s-2.381 4.151-2.981 5.669c-.092.235-.21.412-.122.676 4.275 1.661 7.032-1.959 9.204-5.012.741-1.042 1.354-2.072 2.015-3.16.501-.815 3.433-6.173 3.787-6.265.868-.233.872.625.635 1.24-.63 1.668-2.265 4.279-3.23 5.871-.655 1.089-1.465 2.542-2.176 3.545l.013.01zm-11.329 1.792l2.436-3.76c.249-.821-.094-1.771-.928-.971-.89.855-1.493 3.49-1.508 4.732z" fill="#000"/><path d="M117.39 49.65l.941.028c.476.775 5.96 4.955 5.316 5.703-1.445-.004-2.243-1.358-3.264-2.2-1.167-.968-3.022-1.741-2.993-3.531zm-6.252 1.788c.101.088.051.48-.143.664-.371.357-2.182.689-2.795 1.1-.277.189-.236.533-.623.678-.548.202-2.558.448-2.826-.21-.3-.724.32-1.388.975-1.568.702-.192 2.144.012 2.891-.104.431-.069 2.14-.883 2.514-.561l.007.001zm6.32 3.074c-.788.317-1.157-.616-.719-.974.77-.633 1.425.693.719.974zm-3.382.063c-.935.383-1.133-.805-.404-1.051s.908.848.404 1.051z" fill="#196efd"/></g><defs><clipPath id="A"><path fill="#fff" transform="rotate(11.51 9.96 98.82)" d="M0 0h136.969v95.565H0z"/></clipPath></defs></svg>