<svg width="240" height="236" viewBox="0 0 240 236" fill="none" xmlns="http://www.w3.org/2000/svg"><path d="M96.2751 109.005C94.8271 107.131 92.2891 106.661 90.2059 107.793C88.9618 108.469 87.6941 109.094 86.4055 109.68C85.7599 109.972 85.1117 110.257 84.4609 110.537C84.3171 110.6 83.9303 110.762 83.8571 110.793C83.6349 110.887 83.4128 110.979 83.1906 111.073C80.2789 112.293 77.3436 113.485 74.5495 114.962C73.4831 115.527 72.4376 116.138 71.4156 116.789C71.1673 114.392 69.3298 112.5 66.8598 112.401C66.7814 112.354 66.7004 112.309 66.6246 112.259C66.5802 112.215 66.5253 112.163 66.4547 112.095C66.1698 111.828 65.898 111.546 65.6314 111.261C64.6146 110.171 63.6841 109.013 62.5236 108.067C60.6208 106.514 58.4671 105.466 55.9526 105.492C54.6483 105.505 53.3336 105.803 52.0842 106.162C51.964 106.196 51.8464 106.232 51.7288 106.266C50.2442 105.811 48.7125 105.479 47.1704 105.307C46.8358 105.252 46.4986 105.221 46.1589 105.218C44.1672 105.09 42.1703 105.247 40.2413 105.78C39.6976 105.824 39.1618 105.932 38.6469 106.109C37.8053 106.399 37.0604 106.828 36.4278 107.361C32.7006 109.395 29.7863 112.495 27.3685 116.057C26.0407 118.015 24.9142 120.101 23.7668 122.168C23.1761 123.229 22.5827 124.291 21.9554 125.331C21.6418 125.848 21.3203 126.363 20.9857 126.868C20.8184 127.121 20.6486 127.372 20.476 127.621C20.4394 127.673 20.1467 128.078 20.0212 128.256C19.9428 128.355 19.8514 128.478 19.8461 128.483C19.5665 128.82 19.2816 129.152 18.9967 129.484C18.568 129.981 18.1315 130.472 17.7159 130.982C16.7436 132.174 15.7843 133.384 15.1466 134.79C13.6959 137.992 13.3849 141.748 15.3478 144.824C16.1633 146.102 17.5669 146.939 19.0254 147.114C18.9104 147.252 18.7954 147.394 18.683 147.543C17.4833 149.121 18.0191 151.96 19.4175 153.243C20.5518 154.286 22.3919 154.921 23.9602 154.519C24.4437 155.013 24.9351 155.504 25.4213 155.995C26.9817 157.572 28.5996 159.093 30.2698 160.554C32.1256 162.174 34.0493 163.706 36.0096 165.199C37.6511 166.448 39.3291 167.825 41.177 168.756C43.8457 170.102 46.3549 169.966 49.2248 169.634C51.6242 169.354 54.0237 169.075 56.4231 168.798C61.222 168.238 66.0208 167.682 70.8197 167.122C72.0089 166.984 73.2296 166.848 74.4031 166.568C75.3258 167.258 76.421 167.601 77.7383 167.423C79.5679 167.177 81.1466 165.865 81.6485 164.054C82.4274 161.241 82.4326 158.421 81.7818 155.585C81.2224 153.149 78.3499 151.591 75.9949 152.3C74.8396 152.647 73.9588 153.243 73.3001 154.009C71.5045 153.301 69.6722 152.948 67.6727 152.624C68.6137 152.775 67.5002 152.561 67.0585 152.47C67.0454 152.438 67.035 152.409 67.0271 152.386C66.9931 152.268 66.9173 152.083 66.8651 151.902C66.8651 151.842 66.8651 151.769 66.8624 151.667C66.8572 151.421 66.8389 151.178 66.8389 150.933C66.8389 150.499 66.8624 150.067 66.8964 149.636C66.9017 149.581 66.9173 149.417 66.9304 149.268C66.9539 149.106 66.9853 148.86 66.9958 148.792C67.1003 148.17 67.2284 147.553 67.38 146.939C67.6283 145.917 67.9393 144.913 68.3 143.925C68.3967 143.661 68.5065 143.402 68.6006 143.138C68.6058 143.123 68.6084 143.115 68.6137 143.102C68.6137 143.102 68.6137 143.099 68.6137 143.097C68.8855 142.522 69.1443 141.944 69.4344 141.379C70.472 139.351 71.7136 137.44 73.0675 135.611C73.0858 135.587 73.1172 135.545 73.1564 135.498C73.1433 135.514 73.1329 135.527 73.1198 135.545C73.3001 135.326 73.4779 135.098 73.6582 134.879C73.9745 134.492 74.2986 134.113 74.6279 133.737C75.433 132.814 76.272 131.923 77.1345 131.055C78.9119 129.27 80.7912 127.589 82.7123 125.963C87.0485 122.299 91.6095 118.909 95.9039 115.195C97.6735 113.663 97.6081 110.749 96.2725 109.018L96.2751 109.005Z" fill="#fff"/><path d="M73.1602 135.492C73.3039 135.312 73.513 135.061 73.1602 135.492V135.492Z" fill="#fff"/><path d="M156.834 167.608C156.646 166.361 156.191 165.216 156.314 163.946C155.337 163.915 154.346 164.03 153.369 163.886C148.099 163.105 141.055 159.194 135.862 157.869C132.027 156.892 129.283 157.119 125.548 154.853C123.671 153.713 120.223 151.003 120.218 148.658C120.213 146.92 122.116 140.825 122.78 138.914C128.535 122.298 148.266 113.621 163.191 106.663C174.825 101.239 182.975 99.8463 188.767 87.0206C193.058 77.5169 193.704 68.2564 190.56 58.2143C187.347 47.9501 178.008 40.1925 167.169 39.5233C160.546 39.113 154.153 39.0947 148.11 41.9175C142.307 44.628 137.584 47.1947 134.144 52.7829C132.456 55.5274 127.741 66.3562 125.989 67.6291C125.252 68.1649 124.191 67.9349 124.155 69.3306C123.961 69.477 121.324 68.3113 120.767 68.1545C111.582 65.559 101.433 65.2453 92.0628 63.1413C89.9822 62.6107 88.9106 60.4282 87.8285 58.724C87.7135 57.8693 88.4506 57.31 88.7459 56.5232C91.5766 48.9799 93.1449 47.5894 97.6118 41.3425C104.361 31.8964 109.721 23.4722 120.004 17.2097C129.696 11.3052 143.021 5.41638 154.61 6.34687C157.106 6.54813 162.692 8.80381 164.511 7.35317C165.049 6.92451 165.149 6.17959 165.238 6.12209C165.841 5.73525 177.695 8.1373 179.362 8.51629C189.279 10.772 205.32 18.0905 212.646 25.1555C217.819 30.1425 225.887 38.5144 229.711 44.4215C231.93 47.8534 232.827 54.3852 233.603 58.5646C234.131 61.3979 234.981 64.8742 235.213 67.6709C235.383 69.7175 234.591 76.6701 236.559 77.564C238.128 78.2775 239.173 76.9602 239.952 75.8703C239.278 94.2162 231.7 102.465 222.063 116.399C219.382 120.278 210.976 125.545 206.671 127.667C198.728 131.585 190.609 135.323 181.95 137.448C176.553 142.098 168.536 145.741 163.622 150.747C158.912 155.54 161.218 158.886 159.197 164.095C158.808 165.096 157.569 166.827 156.834 167.613V167.608Z" fill="#196EFC"/><path d="M112.138 15.7482C127.22 6.8013 138.906 -0.7211 157.498 0.0551869C175.232 0.794881 190.954 5.05792 206.409 13.6128C214.582 18.1372 228.046 32.4292 233.32 40.2836C236.357 44.808 238.153 56.7372 239.083 62.4875C239.847 67.1896 240.126 71.0658 239.949 75.8673C239.167 76.9572 238.124 78.2746 236.556 77.561C234.59 76.6671 235.382 69.7119 235.21 67.6679C234.977 64.8738 234.125 61.3949 233.6 58.5616C232.823 54.3822 231.927 47.8504 229.708 44.4185C225.887 38.5088 217.815 30.1396 212.643 25.1525C205.316 18.0875 189.276 10.769 179.359 8.51332C177.691 8.13432 165.838 5.73227 165.234 6.11911C165.145 6.17661 165.046 6.92154 164.508 7.35019C162.688 8.80083 157.105 6.54254 154.607 6.34389C143.015 5.41601 129.692 11.3048 120.001 17.2067C109.718 23.4692 104.357 31.8934 97.6085 41.3395C93.1442 47.589 91.5733 48.9769 88.7426 56.5203C88.4472 57.307 87.7101 57.8663 87.8252 58.721C88.9073 60.4252 89.9789 62.6077 92.0594 63.1383C101.43 65.2424 111.582 65.556 120.764 68.1515C121.32 68.3083 123.958 69.4767 124.151 69.3277C124.188 67.9319 125.249 68.1619 125.986 67.6261C127.737 66.3558 132.455 55.5244 134.141 52.78C137.578 47.1917 142.304 44.625 148.106 41.9146C154.149 39.0917 160.543 39.11 167.166 39.5204C178.005 40.1895 187.344 47.9471 190.556 58.2114C193.701 68.2534 193.055 77.514 188.763 87.0176C182.971 99.8459 174.822 101.236 163.188 106.66C148.263 113.618 128.532 122.296 122.776 138.911C122.115 140.822 120.212 146.917 120.215 148.655C120.22 150.997 123.665 153.71 125.544 154.85C129.279 157.116 132.024 156.889 135.858 157.866C141.049 159.191 148.093 163.102 153.365 163.883C154.343 164.027 155.331 163.914 156.311 163.943C156.191 165.213 156.645 166.356 156.831 167.605C156.844 167.689 156.826 167.78 156.831 167.866C156.044 168.154 156.013 169.079 155.511 169.552C154.092 170.888 150.182 170.086 148.41 169.623C141.258 167.757 134.426 164.463 127.35 162.453C125.215 161.847 122.207 161.797 120.366 160.551C119.977 160.287 116.984 157.709 116.723 157.398C115.186 155.556 115.291 152.511 114.946 150.289C114.627 148.229 114.059 148.483 114.606 145.906C116.299 137.936 119.998 129.51 125.463 123.435C136.206 111.495 156.967 104.096 171.204 97.0361C179.793 92.7783 182.469 88.7976 185.324 79.6599C187.336 73.2117 186.996 63.3892 183.444 57.4847C177.349 47.3564 165.553 44.4185 154.34 45.8012C153.248 45.9345 150.587 47.1578 149.51 47.6361C147.738 48.4254 145.108 49.6356 143.519 50.6628C138.726 53.7627 135.759 62.8638 132.73 67.8404C131.935 69.1473 130.463 71.5833 129.12 72.2028C127.944 72.7465 125.965 73.1202 124.943 72.2028C123.973 74.5055 119.818 72.0486 117.881 71.5468C109.002 69.244 99.2368 69.0689 90.4258 66.8524C87.867 66.2095 86.7117 64.3955 85.3604 62.247C84.3306 60.6134 82.6447 57.3044 82.9061 55.412C83.7477 49.3298 89.3228 43.1038 92.739 38.305C93.7898 36.8308 94.6288 35.1632 95.7109 33.6969C100.586 27.0945 105.774 20.9783 112.128 15.743L112.138 15.7482Z" fill="#010102"/><path d="M96.1061 103.663C97.8704 104.771 97.9618 106.081 98.8113 107.566C98.908 107.735 99.2374 107.775 99.3262 107.942C100.082 109.359 100.73 110.313 100.097 111.996C99.8986 112.529 98.7146 113.616 98.4192 114.024C90.4316 125.057 78.837 132.362 69.8038 142.577C68.429 144.132 66.8842 144.796 66.6777 147.386C66.534 149.184 67.4959 148.785 68.4159 149.822C72.0307 149.804 75.1751 150.277 78.7873 149.806C79.1924 149.754 79.4799 149.386 79.8746 149.326C80.5647 149.218 82.3106 149.211 83.0111 149.294C83.1052 149.305 84.4958 150.295 84.5559 150.368C84.9061 150.815 85.1832 153.612 85.2302 154.399C85.3975 157.154 85.1858 161.03 84.9532 163.816C84.7467 166.312 83.8292 167.253 81.3645 167.807C80.1203 168.087 78.5442 167.964 77.3576 168.244C76.1709 168.524 74.9764 169.161 73.4056 169.519C67.4253 170.879 59.205 171.788 52.9346 172.311C50.2189 172.538 47.1869 172.442 44.4425 172.575C44.6385 173.751 44.1497 174.742 43.6348 175.764C43.4676 176.096 43.1356 176.914 43.0912 176.969C42.9971 177.086 40.9322 178.359 40.5767 178.563C40.1664 178.801 39.411 178.72 38.7105 179.256C38.4622 179.447 37.4716 180.714 37.3148 181.004C36.6901 182.16 35.4851 185.33 35.1035 186.624C34.8578 187.45 34.5808 190.44 34.1835 190.819C34.0711 190.926 33.6843 190.819 33.5431 190.926C33.4307 191.01 33.0151 191.985 32.4715 192.416C28.7024 195.411 27.223 191.35 24.2982 189.713C20.226 187.432 16.8307 185.74 13.2185 182.497C10.1029 179.7 9.19594 176.804 9.38413 172.609C6.31296 171.796 2.1414 167.977 1.63172 164.799C1.56899 164.412 1.91662 163.866 1.81729 163.722C1.7807 163.667 1.17431 163.469 0.910319 163.181C0.188921 162.397 -0.0306347 161.783 0.00334414 160.693C0.0164129 160.324 0.722128 156.843 0.83452 156.67C0.946911 156.498 1.80945 156.391 2.10219 156.364L1.30761 153.382C1.9898 152.086 2.11003 150.222 2.87587 148.975C3.46396 148.016 5.98363 145.747 6.37308 144.809C6.89583 143.549 6.38353 141.479 8.23146 140.669L12.2854 140.943C12.9284 138.261 14.2562 135.839 15.1736 133.24C15.9394 131.071 16.342 128.774 17.1836 126.625C20.5344 118.102 26.4415 110.621 33.828 105.349L39.3038 104.602C40.0096 105.49 39.6489 106.355 38.6687 106.8C34.8578 108.53 32.6544 110.48 29.7976 113.632C29.1442 114.353 28.5116 115.339 27.8686 116.259C27.4504 116.857 26.7003 116.81 26.8911 117.913L26.1854 117.968C26.4049 118.935 25.2366 119.578 24.8471 120.227C23.718 122.103 23.0175 124.382 21.8936 126.11C19.8627 132.015 17.5783 137.326 15.9368 143.379C16.585 144.529 19.8575 144.966 20.3279 145.457C23.6317 148.892 27.7798 151.283 31.1019 154.943C32.8609 156.879 34.5494 158.986 36.3607 160.907C38.9823 163.688 42.3358 165.894 43.7106 169.637C44.317 169.987 46.4133 169.342 47.2157 169.201C57.3884 167.408 68.4054 165.939 78.7376 163.869C79.1088 163.795 79.9374 163.699 80.1282 163.429C80.2353 161.529 81.8271 155.619 80.4444 154.344C79.8433 153.79 75.9592 154.488 74.8928 154.482C72.002 154.464 68.2355 154.318 65.6192 153.092C62.778 151.762 61.8005 149.762 62.2788 146.626C62.9923 141.939 69.3255 136.751 72.6659 133.489C79.2996 127.007 86.5528 120.195 93.4479 114.029C94.2791 113.287 95.1181 112.333 96.0878 111.946L96.161 111.593C96.1557 111.452 95.5232 109.853 95.4317 109.745C95.2095 109.484 94.7914 109.67 94.6084 109.421C94.415 109.157 93.9184 107.477 93.5498 107.262L92.8127 107.364C90.8864 108.611 88.8346 109.643 86.8507 110.791C81.9212 113.64 77.0021 116.933 72.4803 119.955C70.6324 121.191 69.681 122.49 68.1598 123.768C67.4959 124.325 65.0415 126.06 64.3149 125.93C62.8486 125.668 61.7247 124.304 61.973 122.796C62.3154 120.721 63.3766 121.35 64.6678 120.778C65.959 120.206 66.3406 118.844 67.0123 118.287C67.3338 118.021 68.1467 117.916 68.5387 117.652C72.3104 115.106 75.3659 112.367 79.3911 109.889C82.559 107.942 88.27 104.33 91.6418 103.318C93.4609 102.774 94.4097 102.592 96.1113 103.658L96.1061 103.663Z" fill="#040404"/><path d="M141.938 229.294C141.933 228.601 141.666 226.968 140.963 226.74C138.893 226.074 135.479 226.006 133.25 225.567C123.649 221.905 112.264 221.782 103.252 216.881C101.08 215.7 98.5887 214.539 99.1376 211.708C100.329 205.558 104.281 196.734 106.514 190.597C107.306 188.422 107.585 186.324 108.785 184.243C109.242 183.451 110.594 182.233 110.795 181.269C111.028 180.155 110.094 179.188 110.317 178.061C114.018 177.988 113.296 178.135 116.587 178.979C126.987 181.648 137.238 184.057 147.487 187.285C148.3 187.542 151.753 188.174 152.001 188.522C152.116 190.534 153.467 193.569 152.858 195.383C152.727 195.77 152.254 195.974 152.194 196.256C152.121 196.617 152.466 197.633 152.333 198.517C152.079 200.2 150.979 202.513 150.532 204.293C149.113 209.952 148.044 215.407 145.987 220.919C144.946 223.708 143.663 226.879 141.94 229.289L141.938 229.294Z" fill="#196EFC"/><path d="M110.307 178.066C110.087 179.192 111.018 180.159 110.785 181.273C110.584 182.235 109.233 183.453 108.775 184.247C107.576 186.33 107.296 188.427 106.504 190.601C104.272 196.738 100.32 205.562 99.1279 211.713C98.579 214.543 101.07 215.706 103.242 216.885C112.254 221.783 123.642 221.906 133.24 225.571C135.472 226.007 138.886 226.078 140.953 226.744C141.656 226.972 141.926 228.605 141.928 229.298C141.928 229.51 141.737 230.328 141.667 230.605C140.582 232.994 136.771 232.597 134.484 232.429C130.002 232.103 126.593 230.631 122.44 229.575C114.434 227.536 104.003 226.499 97.2538 221.566C89.9614 216.234 94.0938 207.87 96.4436 200.936C98.1843 195.803 100.184 189.365 102.191 184.467C102.902 182.731 104.152 181.247 105.074 179.639C107.087 178.928 107.275 177.7 109.667 177.796C110.004 177.809 110.265 178.071 110.302 178.071L110.307 178.066Z" fill="#000102"/><path d="M112.139 15.748C105.782 20.9808 100.594 27.097 95.7221 33.702C94.64 35.1683 93.801 36.8359 92.7502 38.31C89.3341 43.1089 83.7589 49.3349 82.9173 55.4171C82.6559 57.3094 84.3418 60.6185 85.3716 62.2521C86.7255 64.4006 87.8782 66.2119 90.4371 66.8575C99.2481 69.0766 109.013 69.2517 117.892 71.5518C119.826 72.0537 123.985 74.5106 124.954 72.2079C125.974 73.1279 127.955 72.7515 129.131 72.2079C128.661 74.0035 125.961 75.6659 124.343 76.4369C121.136 77.9634 119.262 77.323 115.921 77.1636C115.412 77.14 114.918 77.4459 114.424 77.3831C113.391 77.2524 110.244 75.6424 108.744 75.2163C99.499 72.5973 91.7779 72.0667 82.5095 70.6083C78.189 69.9287 76.2496 69.2099 75.1021 64.6855C73.1366 56.9409 79.9428 48.4305 84.2242 42.33C88.6153 36.0674 95.0608 26.8513 101.041 22.2929C104.457 19.6896 108.48 17.9279 112.144 15.7533L112.139 15.748Z" fill="#1A6EFB"/><path d="M105.083 179.628C104.16 181.236 102.911 182.723 102.2 184.456C100.193 189.354 98.1932 195.792 96.4524 200.925C94.1027 207.862 89.9703 216.224 97.2627 221.556C104.009 226.488 114.443 227.525 122.449 229.564C126.602 230.623 130.011 232.094 134.493 232.418C136.783 232.586 140.594 232.983 141.676 230.594C141.025 233.119 139.119 234.225 136.71 234.907C131.291 236.441 119.184 233.093 113.444 231.509C105.337 229.274 97.6626 225.552 89.343 224.049C84.2828 218.751 87.0298 209.726 89.1339 203.534C90.8485 198.479 92.7514 191.97 94.7587 187.203C97.0013 181.881 100.25 181.327 105.083 179.623V179.628Z" fill="#1A6EFB"/><path d="M125.469 123.438C120.003 129.512 116.307 137.936 114.611 145.908C114.062 148.485 114.629 148.234 114.951 150.291C115.296 152.513 115.189 155.561 116.728 157.401C116.987 157.712 119.982 160.292 120.372 160.553C122.212 161.797 125.22 161.847 127.356 162.456C134.431 164.466 141.263 167.759 148.415 169.625C150.184 170.088 154.097 170.893 155.516 169.555C156.018 169.082 156.049 168.156 156.836 167.869C156.839 167.911 157.139 168.06 157.066 168.449C156.844 169.63 155.576 170.498 154.552 170.943C150.788 172.574 146.13 173.538 142.102 173.274C140.417 173.164 136.888 171.097 135.019 170.475C128.307 168.24 120.881 168.12 113.971 166.17C112.964 165.885 109.883 165.106 109.208 164.727C109.117 164.675 107.925 163.297 107.839 163.154C105.57 159.413 106.6 156.306 107.839 152.458C110.651 143.72 115.659 132.797 122.068 126.174C123.095 125.11 124.159 124.135 125.474 123.438H125.469Z" fill="#1A6EFB"/><path d="M171.21 97.0348C172.48 95.4823 173.816 93.9506 174.971 92.3013C177.263 89.0289 177.695 87.9991 178.453 84.0209C179.226 79.9644 180.708 72.0473 180.63 68.1659C180.601 66.7806 178.735 62.2274 178.053 60.7898C175.18 54.7494 168.784 50.7504 162.383 49.2762C158.295 48.3353 153.708 47.7733 149.516 47.6374C150.592 47.1564 153.253 45.9358 154.346 45.8025C165.559 44.4225 177.355 47.3577 183.45 57.486C187.002 63.3905 187.342 73.213 185.329 79.6612C182.478 88.8015 179.799 92.7796 171.21 97.0374V97.0348Z" fill="#1A6EFB"/><path d="M231.753 181.817C233.972 183.299 235.535 186.846 233.162 188.916C230.629 191.125 227.406 188.744 224.78 187.873C220.979 186.613 217.545 185.382 213.802 183.953C211.554 183.095 208.368 182.886 207.411 180.152C206.549 177.69 208.545 175.265 211.052 175.722C215.37 176.509 219.108 177.91 223.277 179.18C225.77 179.941 229.581 180.367 231.753 181.817Z" fill="#050505"/><path d="M16.1528 26.5342C20.455 25.5698 23.6281 28.7769 27.0156 30.6901C31.1113 33.0033 35.3299 34.9767 38.8088 38.2387C40.5365 42.2717 37.2406 44.1249 33.6101 42.9147L15.4993 33.5809C12.3105 31.9918 12.6608 27.3184 16.1528 26.5342Z" fill="#060606"/><path d="M42.1918 20.3483C39.761 18.6728 33.9428 15.1417 32.5157 12.9069C29.5726 8.30406 34.5858 4.55593 38.5639 7.90415L53.0258 22.1936C54.5052 23.8821 52.592 26.4592 50.6107 26.1979C49.228 26.0149 47.733 23.95 46.6221 23.1084C45.2394 22.0629 43.5614 21.2892 42.1944 20.3456L42.1918 20.3483Z" fill="#060606"/><path d="M211.921 154.326L231.862 155.181C234.026 155.779 235.973 156.004 236.261 158.621C236.606 161.741 234.06 163.226 231.195 163.187C226.773 163.124 220.693 160.625 216.226 159.839C214.799 159.588 213.252 159.666 211.916 159.444C208.835 158.934 208.97 155.019 211.921 154.326Z" fill="#060606"/><path d="M30.0082 61.5643C32.8598 61.2663 41.2605 62.7353 43.8455 64.0474C46.5011 65.3961 45.9469 69.3063 43.0143 69.8682C39.1642 69.4997 34.8463 68.5509 31.0015 69.3507C29.7181 69.6173 29.7103 70.4276 28.095 69.8682C23.1027 68.1353 25.327 62.0557 30.0108 61.5669L30.0082 61.5643Z" fill="#080808"/><path d="M185.519 189.631C187.182 189.195 189.38 190.732 190.775 191.565C193.102 192.956 198.91 197.161 199.686 199.645C200.967 203.735 197.587 207.671 193.818 204.99C192.757 204.234 193.097 203.573 192.608 202.802C191.113 200.45 188.465 198.097 186.374 196.228C185.036 195.031 183.711 195.021 183.522 192.799C183.418 191.573 184.272 189.955 185.522 189.629L185.519 189.631Z" fill="#080808"/><path d="M68.9828 113.735C67.0173 114.725 67.046 112.375 65.9953 112.195C64.1474 111.879 59.1185 113.706 57.8743 115.183C57.2575 115.917 57.1817 116.103 56.476 116.824C55.914 117.396 54.4529 119.174 53.8465 119.365C52.1999 119.885 51.0969 118.98 51.2249 117.297C51.3321 115.883 52.0509 116.087 52.6886 115.345C54.6542 113.052 56.5962 110.71 59.5968 109.707C63.5253 108.395 70.1198 107.608 68.9828 113.735Z" fill="#080808"/><path d="M52.4966 106.919C52.2535 107.063 51.6811 106.909 51.2446 107.1C51.0825 107.17 48.7876 109.055 48.4923 109.319C47.1462 110.516 46.1268 112.055 44.9533 113.302C43.7797 114.549 42.9563 115.521 41.2469 114.531C39.7336 113.652 40.7137 112.445 41.477 111.441C42.9224 109.544 45.7008 107.338 47.4755 105.832C47.9303 105.445 48.9758 104.167 49.4123 103.966C50.5101 103.461 53.1657 104.136 53.0716 105.505C53.0585 105.699 52.5724 106.875 52.4966 106.919Z" fill="#0A0A0B"/></svg>