<svg xmlns="http://www.w3.org/2000/svg" width="216" height="72" fill="none"><path d="M198.228 0H17.161l-1.97.004-1.654.023c-1.209.014-2.414.121-3.607.318S7.586.927 6.509 1.473 4.45 2.74 3.595 3.595 2.02 5.433 1.475 6.513.548 8.746.35 9.939a23.39 23.39 0 0 0-.323 3.604L0 15.2v41.606l.027 1.659c.014 1.208.122 2.412.323 3.603a11.86 11.86 0 0 0 1.125 3.428c.545 1.077 1.261 2.058 2.121 2.906a11.29 11.29 0 0 0 2.913 2.122 12.06 12.06 0 0 0 3.421 1.135 24.22 24.22 0 0 0 3.607.318l1.654.019 1.97.004h181.067l1.951-.004 1.659-.019c1.206-.015 2.41-.121 3.6-.318 1.195-.206 2.352-.589 3.434-1.135a11.28 11.28 0 0 0 2.911-2.122 11.51 11.51 0 0 0 2.127-2.906 11.9 11.9 0 0 0 1.114-3.428 24.18 24.18 0 0 0 .334-3.603l.007-1.659.014-1.969V17.165l-.014-1.965-.007-1.658c-.021-1.208-.133-2.412-.334-3.604a11.89 11.89 0 0 0-1.114-3.426 11.64 11.64 0 0 0-5.038-5.04 12.17 12.17 0 0 0-3.434-1.129c-1.19-.198-2.394-.305-3.6-.318l-1.659-.023L198.228 0z" fill="#a6a6a6"/><path d="M15.2 70.425a71.52 71.52 0 0 1-1.628-.019 22.83 22.83 0 0 1-3.364-.294c-1.037-.179-2.042-.511-2.982-.986a9.73 9.73 0 0 1-2.514-1.83 9.58 9.58 0 0 1-1.837-2.514 10.3 10.3 0 0 1-.977-2.983c-.185-1.116-.285-2.244-.3-3.375l-.026-1.644V15.2l.026-1.61a22.27 22.27 0 0 1 .298-3.37 10.36 10.36 0 0 1 .978-2.992 9.67 9.67 0 0 1 1.827-2.516c.74-.742 1.592-1.363 2.524-1.84a10.48 10.48 0 0 1 2.976-.979c1.116-.183 2.245-.281 3.376-.295l1.624-.022h184.97l1.644.023c1.12.013 2.238.111 3.344.293a10.69 10.69 0 0 1 3.008.986 10.06 10.06 0 0 1 4.346 4.356c.469.935.794 1.936.964 2.968a23.44 23.44 0 0 1 .313 3.397l.005 1.602.014 1.965v37.672l-.014 1.935-.007 1.673a22.89 22.89 0 0 1-.308 3.336c-.168 1.046-.496 2.06-.972 3.006-.474.922-1.091 1.764-1.828 2.494-.735.745-1.585 1.366-2.518 1.84a10.56 10.56 0 0 1-3.003.99c-1.112.182-2.237.28-3.364.294l-1.615.019-1.951.004L15.2 70.425z" fill="#000"/><path d="M44.58 36.541a8.91 8.91 0 0 1 4.242-7.474 9.12 9.12 0 0 0-7.184-3.884c-3.022-.317-5.953 1.809-7.493 1.809-1.57 0-3.941-1.777-6.495-1.725-1.652.053-3.261.534-4.672 1.394a9.56 9.56 0 0 0-3.378 3.516c-3.481 6.027-.884 14.885 2.45 19.757 1.668 2.386 3.618 5.05 6.169 4.956 2.497-.104 3.429-1.592 6.442-1.592 2.986 0 3.86 1.592 6.463 1.532 2.679-.044 4.367-2.396 5.976-4.804a19.73 19.73 0 0 0 2.733-5.567 8.61 8.61 0 0 1-5.254-7.918zm-4.916-14.562a8.77 8.77 0 0 0 2.006-6.283 8.92 8.92 0 0 0-5.773 2.987 8.34 8.34 0 0 0-1.631 2.82c-.353 1.038-.498 2.136-.427 3.23a7.38 7.38 0 0 0 3.23-.708 7.37 7.37 0 0 0 2.596-2.047zm36.474 26.873h-8.52l-2.046 6.042h-3.609l8.07-22.352h3.749l8.07 22.352h-3.67l-2.044-6.042zm-7.637-2.788h6.753l-3.329-9.805h-.093l-3.331 9.805zm30.779.682c0 5.064-2.71 8.318-6.8 8.318-1.036.054-2.067-.184-2.973-.689a5.54 5.54 0 0 1-2.154-2.162h-.077v8.072H83.93V38.596h3.238v2.71h.061a5.78 5.78 0 0 1 5.189-2.881c4.136 0 6.862 3.27 6.862 8.32zm-3.438 0c0-3.299-1.705-5.469-4.306-5.469-2.556 0-4.275 2.215-4.275 5.469 0 3.284 1.719 5.483 4.275 5.483 2.601 0 4.306-2.153 4.306-5.483zm21.373 0c0 5.064-2.71 8.318-6.8 8.318-1.036.054-2.067-.184-2.974-.689a5.52 5.52 0 0 1-2.153-2.163h-.078v8.072h-3.345V38.596h3.238v2.71h.061a5.78 5.78 0 0 1 5.189-2.881c4.136 0 6.862 3.27 6.862 8.32zm-3.438 0c0-3.299-1.705-5.469-4.306-5.469-2.556 0-4.275 2.215-4.275 5.469 0 3.284 1.719 5.483 4.275 5.483 2.601 0 4.306-2.153 4.306-5.483zm15.292 1.919c.248 2.217 2.401 3.672 5.343 3.672 2.82 0 4.848-1.455 4.848-3.454 0-1.735-1.223-2.774-4.12-3.486l-2.897-.698c-4.104-.991-6.009-2.911-6.009-6.026 0-3.857 3.361-6.506 8.133-6.506 4.723 0 7.96 2.649 8.069 6.506h-3.376c-.202-2.231-2.046-3.577-4.741-3.577s-4.538 1.362-4.538 3.345c0 1.58 1.178 2.51 4.058 3.222l2.463.605c4.586 1.085 6.491 2.927 6.491 6.196 0 4.182-3.331 6.801-8.628 6.801-4.957 0-8.304-2.558-8.52-6.601h3.424zm20.943-13.926v3.857h3.099v2.649h-3.099v8.984c0 1.396.62 2.046 1.982 2.046a10.47 10.47 0 0 0 1.101-.077v2.633a9.19 9.19 0 0 1-1.858.155c-3.299 0-4.586-1.239-4.586-4.4v-9.341h-2.369v-2.649h2.369v-3.857h3.361zm4.893 12.007c0-5.127 3.02-8.35 7.729-8.35 4.724 0 7.73 3.222 7.73 8.35 0 5.142-2.99 8.35-7.73 8.35s-7.729-3.208-7.729-8.35zm12.051 0c0-3.517-1.612-5.593-4.322-5.593s-4.321 2.092-4.321 5.593c0 3.531 1.61 5.592 4.321 5.592s4.322-2.06 4.322-5.592zm6.166-8.15h3.19v2.774h.078c.216-.866.723-1.632 1.437-2.168s1.59-.81 2.482-.776a5.15 5.15 0 0 1 1.146.125v3.129a4.67 4.67 0 0 0-1.503-.202 3.37 3.37 0 0 0-1.42.251c-.449.185-.854.465-1.185.822a3.38 3.38 0 0 0-.733 1.242 3.37 3.37 0 0 0-.147 1.435v9.666h-3.345V38.596zm23.755 11.51c-.45 2.958-3.331 4.989-7.016 4.989-4.741 0-7.683-3.176-7.683-8.272 0-5.112 2.958-8.427 7.542-8.427 4.508 0 7.344 3.097 7.344 8.038v1.146h-11.51v.202a4.23 4.23 0 0 0 .221 1.772 4.27 4.27 0 0 0 .929 1.525 4.25 4.25 0 0 0 1.475 1.007c.558.227 1.157.334 1.759.311a3.69 3.69 0 0 0 3.763-2.292h3.176zm-11.307-4.864h8.147c.03-.539-.052-1.079-.24-1.585a3.93 3.93 0 0 0-.855-1.356 3.92 3.92 0 0 0-2.902-1.195 4.12 4.12 0 0 0-1.589.308 4.13 4.13 0 0 0-1.348.895c-.386.385-.691.842-.9 1.345s-.314 1.043-.313 1.588zM68.082 15.715a4.75 4.75 0 0 1 5.054 5.336c0 3.431-1.854 5.404-5.053 5.404h-3.879v-10.74h3.879zm-2.211 9.221h2.025a3.38 3.38 0 0 0 1.468-.24c.465-.188.883-.478 1.222-.848a3.38 3.38 0 0 0 .739-1.291c.147-.48.186-.987.113-1.483.068-.495.025-.998-.124-1.475a3.38 3.38 0 0 0-.741-1.281 3.37 3.37 0 0 0-1.217-.842 3.39 3.39 0 0 0-1.46-.243h-2.025v7.704zM75.02 22.4a3.84 3.84 0 0 1 3.822-4.205 3.84 3.84 0 0 1 3.822 4.205 3.84 3.84 0 0 1-3.822 4.213A3.84 3.84 0 0 1 75.02 22.4zm5.999 0c0-1.757-.789-2.784-2.174-2.784s-2.172 1.027-2.172 2.784c0 1.771.782 2.791 2.172 2.791s2.174-1.027 2.174-2.791zm11.806 4.056h-1.659l-1.675-5.97h-.127l-1.668 5.97h-1.643l-2.234-8.105h1.622l1.452 6.185h.12l1.666-6.185h1.534l1.666 6.185h.127l1.445-6.185h1.599l-2.225 8.105zm4.104-8.105h1.54v1.288h.12c.203-.462.545-.85.978-1.109s.937-.376 1.44-.335a2.64 2.64 0 0 1 1.159.174 2.63 2.63 0 0 1 1.556 1.673 2.64 2.64 0 0 1 .09 1.168v5.247h-1.599v-4.845c0-1.303-.566-1.95-1.749-1.95a1.86 1.86 0 0 0-1.936 2.054v4.742h-1.6v-8.105zm9.432-3.164h1.6v11.269h-1.6V15.187zm3.823 7.213a3.84 3.84 0 0 1 .981-2.948 3.85 3.85 0 0 1 1.288-.929 3.83 3.83 0 0 1 1.554-.328 3.84 3.84 0 0 1 2.841 1.257 3.84 3.84 0 0 1 .981 2.948 3.83 3.83 0 0 1-.978 2.953 3.84 3.84 0 0 1-2.844 1.26c-.535 0-1.066-.112-1.556-.329a3.84 3.84 0 0 1-1.289-.931 3.83 3.83 0 0 1-.978-2.953zm5.999 0c0-1.757-.789-2.784-2.174-2.784-1.391 0-2.173 1.027-2.173 2.784 0 1.771.782 2.791 2.173 2.791 1.385 0 2.174-1.027 2.174-2.791zm3.33 1.764c0-1.459 1.086-2.3 3.015-2.42l2.195-.127v-.7c0-.856-.566-1.339-1.659-1.339-.893 0-1.512.328-1.689.901h-1.549c.164-1.392 1.473-2.285 3.312-2.285 2.031 0 3.177 1.012 3.177 2.724v5.538h-1.539v-1.139h-.127c-.257.409-.617.742-1.045.965s-.907.33-1.389.307a2.45 2.45 0 0 1-1.01-.107c-.325-.106-.625-.278-.879-.507s-.459-.508-.599-.82-.212-.65-.214-.992zm5.21-.693v-.678l-1.979.127c-1.116.075-1.623.454-1.623 1.169 0 .73.633 1.154 1.503 1.154.255.026.513 0 .758-.076s.471-.2.667-.365a1.89 1.89 0 0 0 .472-.597 1.9 1.9 0 0 0 .202-.734zm3.694-1.071c0-2.561 1.317-4.184 3.365-4.184a2.67 2.67 0 0 1 1.449.35 2.68 2.68 0 0 1 1.036 1.072h.12v-4.452h1.599v11.269h-1.533v-1.281h-.126c-.255.445-.627.813-1.076 1.062a2.81 2.81 0 0 1-1.469.352c-2.062 0-3.365-1.622-3.365-4.19zm1.653 0c0 1.719.81 2.754 2.165 2.754 1.348 0 2.182-1.049 2.182-2.747 0-1.689-.842-2.754-2.182-2.754-1.346 0-2.165 1.041-2.165 2.747zm12.534 0c-.051-.533.01-1.07.178-1.578a3.84 3.84 0 0 1 .802-1.37 3.85 3.85 0 0 1 1.288-.929 3.84 3.84 0 0 1 1.554-.328c.535 0 1.064.112 1.553.328a3.84 3.84 0 0 1 2.269 3.877 3.85 3.85 0 0 1-.177 1.58 3.83 3.83 0 0 1-.801 1.373 3.84 3.84 0 0 1-2.844 1.26c-.536 0-1.066-.112-1.556-.329s-.928-.534-1.288-.931a3.85 3.85 0 0 1-.978-2.953zm5.998 0c0-1.757-.789-2.784-2.174-2.784s-2.172 1.027-2.172 2.784c0 1.771.782 2.791 2.172 2.791s2.174-1.027 2.174-2.791zm3.792-4.049h1.54v1.288h.119a2.43 2.43 0 0 1 .979-1.109c.434-.259.937-.376 1.44-.335a2.63 2.63 0 0 1 2.127.833c.269.29.47.636.588 1.014a2.64 2.64 0 0 1 .09 1.168v5.247h-1.599v-4.845c0-1.303-.566-1.95-1.749-1.95a1.86 1.86 0 0 0-.784.134c-.249.101-.472.254-.656.449s-.323.428-.409.682-.115.524-.086.79v4.742h-1.6v-8.105zm15.921-2.018v2.055h1.756v1.347h-1.756v4.168c0 .849.35 1.221 1.146 1.221a5.33 5.33 0 0 0 .61-.037v1.332a5.24 5.24 0 0 1-.87.082c-1.779 0-2.487-.626-2.487-2.189v-4.577h-1.287v-1.347h1.287v-2.055h1.601zm3.941-1.146h1.585v4.467h.127a2.49 2.49 0 0 1 2.471-1.451 2.67 2.67 0 0 1 1.149.192c.364.148.691.374.957.662s.466.633.585 1.007a2.65 2.65 0 0 1 .1 1.16v5.233h-1.601v-4.838c0-1.295-.603-1.95-1.733-1.95a1.89 1.89 0 0 0-1.935 1.244c-.094.259-.13.536-.106.811v4.734h-1.599V15.187zm16.3 9.081a3.29 3.29 0 0 1-3.511 2.345 3.68 3.68 0 0 1-2.841-1.225 3.68 3.68 0 0 1-.777-1.38c-.156-.511-.199-1.05-.126-1.579-.071-.531-.028-1.071.128-1.583a3.75 3.75 0 0 1 .774-1.387 3.74 3.74 0 0 1 1.28-.94 3.73 3.73 0 0 1 1.554-.324c2.256 0 3.616 1.541 3.616 4.086v.558h-5.723v.09c-.025.297.012.597.11.879s.252.541.456.759a2.14 2.14 0 0 0 1.592.684 1.94 1.94 0 0 0 1.114-.198c.343-.175.627-.448.815-.785h1.539zm-5.626-2.612h4.094c.02-.272-.017-.545-.109-.802a1.96 1.96 0 0 0-.424-.689c-.188-.198-.415-.354-.667-.459a1.94 1.94 0 0 0-.795-.149 2.05 2.05 0 0 0-.808.153c-.256.105-.489.259-.684.454a2.08 2.08 0 0 0-.455.685 2.07 2.07 0 0 0-.152.808z" fill="#fff"/></svg>