<svg width="24" height="25" viewBox="0 0 24 25" fill="none" xmlns="http://www.w3.org/2000/svg"><path d="M19.7084 10.7747C17.7036 15.1294 12.5487 17.0343 8.19405 15.0295C4.15275 13.1687 2.2237 8.5943 3.56942 4.46484C2.55703 5.44624 1.70373 6.62461 1.07839 7.98273C-1.63234 13.8711 0.943403 20.8415 6.8318 23.5522C12.7202 26.263 19.6905 23.6872 22.4013 17.7988C24.4901 13.2616 23.4371 8.08328 20.1506 4.70451C20.7201 6.64527 20.6203 8.79265 19.7078 10.7747H19.7084Z" fill="#000"/><path d="M13.7761 4.46969C11.2273 5.12269 11.0992 5.51848 10.4462 8.93938C9.79317 5.51848 9.665 5.12269 7.11621 4.46969C9.665 3.81669 9.79317 3.4209 10.4462 0C11.0992 3.4209 11.2273 3.81669 13.7761 4.46969Z" fill="#000"/><path d="M16.0461 9.89119C14.3685 10.3208 14.2836 10.5814 13.8541 12.8332C13.4245 10.5814 13.3396 10.3208 11.6621 9.89119C13.3396 9.46163 13.4245 9.20095 13.8541 6.94922C14.2836 9.20095 14.3685 9.46163 16.0461 9.89119Z" fill="#000"/></svg>