<svg xmlns="http://www.w3.org/2000/svg" width="84" height="16" fill="#6b6b6c"><path d="M73.55.508a.55.55 0 0 0-.548.547v3.832h10.127L78.517.509 73.55.508zm9.95 5.538a.55.55 0 0 0-.041-.209.53.53 0 0 0-.119-.177.55.55 0 0 0-.178-.118.56.56 0 0 0-.209-.041H79.12v10.124l4.378-4.612.002-4.966zm-5.541 9.945c.145 0 .284-.058.386-.161a.55.55 0 0 0 .16-.386v-3.831H68.378l4.611 4.378 4.97.001zm-9.95-5.537c0 .072.014.143.042.209a.55.55 0 0 0 .119.178c.051.051.111.091.177.119a.54.54 0 0 0 .209.042h3.833V.877l-4.379 4.61-.001 4.967zM21.591 2.356v4.675h-6.516V2.356l-2.372-.001v11.788h2.372V9.079h6.516v5.064h2.377V2.356h-2.377zm31.569 0v11.785l10.412-.001-1.319-2.074h-6.712V9.079h6.499V7.08h-6.499V4.382h6.701l1.293-2.026H53.161zM3.883 2.354c-2.469 0-3.716 1.5-3.716 3.683v4.401c0 2.526 1.606 3.706 3.703 3.706l7.444-.001-1.379-2.154H4.33c-1.19 0-1.709-.43-1.709-1.763V6.233c0-1.288.436-1.791 1.74-1.791h5.632l1.325-2.088H3.883zm38.864-.003c-1.426 0-2.886.856-2.886 3.06v.566c0 2.296 1.406 3.173 2.812 3.179h4.938c.513 0 .929.085.929.952l-.001 1.002c-.013.777-.402.956-.947.956h-6.495l-1.331 2.074h7.978c1.925 0 3.231-.956 3.231-3.168v-.812c0-2.137-1.213-3.146-3.095-3.146h-4.714c-.523 0-.887-.143-.887-.917l-.001-.815c0-.659.251-.9.859-.9l6.185-.002 1.293-2.031-7.869.002zm-11.884.007l-5.591 11.784h2.643l1.089-2.434h6.075l1.086 2.434h2.653L33.214 2.357h-2.351zm1.172 2.446l2.149 4.899H29.9l2.135-4.899z"/></svg>