<svg xmlns="http://www.w3.org/2000/svg" width="258.063" height="198.053" viewBox="0 0 258.063 198.053"><defs><filter id="a" x="76.063" y="133.053" width="171" height="65" filterUnits="userSpaceOnUse"><feOffset dy="2"/><feGaussianBlur stdDeviation="1.5" result="b"/><feFlood flood-opacity=".102"/><feComposite operator="in" in2="b"/><feComposite in="SourceGraphic"/></filter><filter id="c" x="44.063" y="43.053" width="214" height="89" filterUnits="userSpaceOnUse"><feOffset dy="2"/><feGaussianBlur stdDeviation="1.5" result="d"/><feFlood flood-opacity=".102"/><feComposite operator="in" in2="d"/><feComposite in="SourceGraphic"/></filter></defs><g transform="translate(-54.661 -4756.447)"><g transform="translate(54.66 4756.45)" filter="url(#a)"><g transform="translate(80.56 135.55)" fill="#fff" stroke="#b3daf5" stroke-width="3"><rect width="162" height="56" rx="10" stroke="none"/><rect x="1.5" y="1.5" width="159" height="53" rx="8.5" fill="none"/></g></g><path d="M0,68.186,8.265,48.212,0,28.239l19.974-8.265L28.238,0,48.212,8.265,68.186,0l8.265,19.974,19.974,8.265L88.159,48.212l8.265,19.974L76.451,76.451,68.186,96.424,48.212,88.159,28.239,96.424,19.974,76.451Z" transform="rotate(11 -24662.265 2757.602)" fill="#e0f2ff"/><g transform="translate(54.66 4756.45)" filter="url(#c)"><g transform="translate(48.56 45.55)" fill="#fff" stroke="#ef9937" stroke-width="3"><rect width="205" height="80" rx="10" stroke="none"/><rect x="1.5" y="1.5" width="202" height="77" rx="8.5" fill="none"/></g></g><rect width="43" height="18" rx="2" transform="translate(118.225 4817)" fill="#fae7cd"/></g></svg>