<svg xmlns="http://www.w3.org/2000/svg" width="233.354" height="185.855" viewBox="0 0 233.354 185.855"><defs><filter id="a" x="48.354" y="36.855" width="185" height="81" filterUnits="userSpaceOnUse"><feOffset dy="2"/><feGaussianBlur stdDeviation="1.5" result="b"/><feFlood flood-opacity=".102"/><feComposite operator="in" in2="b"/><feComposite in="SourceGraphic"/></filter><filter id="c" x="72.354" y="118.855" width="152" height="67" filterUnits="userSpaceOnUse"><feOffset dy="2"/><feGaussianBlur stdDeviation="1.5" result="d"/><feFlood flood-opacity=".102"/><feComposite operator="in" in2="d"/><feComposite in="SourceGraphic"/></filter></defs><g transform="translate(-34.146 -3500.645)"><path d="M83.157,0A82.931,82.931,0,1,1,0,82.93,83.044,83.044,0,0,1,83.157,0Z" transform="translate(50.475 3500.645)" fill="#e0f2ff"/><path d="M40.362,18.586V5L64.138,28.776,40.362,52.552V38.626C23.379,38.626,11.491,44.06,3,55.948,6.4,38.965,16.586,21.983,40.362,18.586Z" transform="rotate(-78 2272.373 1810.93)" fill="#fd9500"/><g transform="translate(34.15 3500.64)" filter="url(#a)"><g transform="translate(52.85 39.36)" fill="#fff" stroke="#498ef4" stroke-width="3"><rect width="176" height="72" rx="10" stroke="none"/><rect x="1.5" y="1.5" width="173" height="69" rx="8.5" fill="none"/></g></g><g transform="translate(34.15 3500.64)" filter="url(#c)"><g transform="translate(76.85 121.36)" fill="#fff" stroke="#b3daf5" stroke-width="3"><rect width="143" height="58" rx="10" stroke="none"/><rect x="1.5" y="1.5" width="140" height="55" rx="8.5" fill="none"/></g></g><rect width="43" height="18" rx="2" transform="translate(101 3553)" fill="#fae7cd"/></g></svg>