<svg xmlns="http://www.w3.org/2000/svg" width="72" height="72" fill="none"><g clip-path="url(#A)"><g fill="#000"><path d="M36.493 62.681c-.093 1.087.125 2.372.002 3.433-.095.823-.989.747-1.096.179-.174-.93.124-2.35-.003-3.337l1.096-.275zM17.974 21.258c.089-.089.347-.132.474-.114 5.757 4.511 11.402 9.201 17.089 13.813l.439.26L61.3 20.514c.744-.424 1.917.214.982.892a26.09 26.09 0 0 1-2.954 1.708c-7.721 3.657-15.119 8.879-22.682 12.96-.376.202-.744.541-1.153.208L18.04 22.11c-.247-.144-.23-.686-.065-.852h-.001zM5.595 35.436c1.214.094 2.827-.197 3.993-.014a.543.543 0 0 1 0 1.086c-.592.093-3.24.096-3.825 0-.632-.104-.71-.786-.168-1.073v.001zm3.799 15.286l3.44-1.998c.645-.204 1.123.429.548.917-.851.723-2.438 1.236-3.372 1.929-.539.227-.971-.415-.615-.847h-.001zM20.76 9.264c.299-.058.444.145.611.359.295.378 1.681 2.73 1.807 3.129.237.746-.35 1.151-.831.65-.175-.182-1.86-3.085-1.951-3.354-.114-.338-.033-.708.364-.785h.001zM9.708 20.335c.193-.037.266.024.425.087.468.186 2.874 1.562 3.248 1.869.567.464.167 1.148-.612.887-.332-.112-2.829-1.568-3.124-1.811-.404-.333-.544-.918.062-1.032zm48.729 28.463c.167-.16.396-.113.591-.048.436.148 2.835 1.553 3.251 1.869.69.524.215 1.165-.49.948-.308-.095-2.815-1.559-3.13-1.804-.33-.256-.599-.604-.221-.965zM51.45 9.455c.124.125.143.456.074.622-.432.517-1.759 3.412-2.218 3.549s-.805-.308-.623-.718l1.925-3.379c.119-.263.68-.235.842-.073zm-2.696 49.039c.244-.245.752-.105.875.224l1.897 3.323c.052.711-.612.901-1.042.304-.265-.368-1.705-2.813-1.802-3.137-.058-.194-.075-.566.072-.714z"/><path d="M35.921 5.24c.428-.066.548.334.577.667.107 1.191-.086 2.543-.006 3.753-.181.602-.926.549-1.007-.084-.153-1.191.122-2.708.006-3.937.017-.185.256-.372.43-.398z"/></g><path d="M71.915 33.197a28.28 28.28 0 0 0-1.108-5.924c-1.282-5.319-3.87-10.32-7.371-14.498-.705-.842-1.592-1.849-2.372-2.61C42.243-8.182 10.489-.607 1.969 24.163c-2.385 6.932-2.62 14.645-.614 21.703.22.776.387 1.35.604 1.831.734 2.292 2.013 5.433 4.296 8.742 2.101 3.047 4.36 5.232 6.127 6.699l.777.111c-.305-.037-.571-.073-.777-.111 1.054.981 2.213 1.865 3.404 2.673a35.95 35.95 0 0 0 38.876.933c9.335-5.71 15.907-15.774 16.962-26.752a28.24 28.24 0 0 0 .292-6.794zM41.807 68.69c-8.064 1.423-15.543-.074-22.604-4.015-.31-.173-.827-.61-1.069-.713-2.037-1.158-4.959-3.15-7.68-6.388a28.27 28.27 0 0 1-4.102-6.512c-4.175-8.308-4.725-18.111-1.438-26.829C11.054 7.941 28.839-.878 45.605 4.194 57.158 7.689 66.161 17.581 68.46 29.47c.365 1.39.688 3.092.797 5.046a25.58 25.58 0 0 1-.576 7.008c-.013.007-.026.016-.038.023-2.265 13.71-13.176 24.731-26.836 27.143z" fill="#99f"/></g><defs><clipPath id="A"><path fill="#fff" d="M0 0h72v72H0z"/></clipPath></defs></svg>