<svg xmlns="http://www.w3.org/2000/svg" width="48" height="48" fill="none"><g clip-path="url(#B)"><path d="M37.115 27.949c.004.578-.172 1.143-.503 1.616a2.78 2.78 0 0 1-1.346 1.026l-9.192 3.381-3.381 9.192c-.2.539-.56 1.004-1.033 1.333S20.627 45 20.051 45a2.82 2.82 0 0 1-2.641-1.837l-3.381-9.192-9.192-3.381A2.82 2.82 0 0 1 3 27.949c0-.575.176-1.136.504-1.609s.793-.833 1.333-1.033l9.192-3.381 3.381-9.192a2.82 2.82 0 0 1 2.641-1.837c.575 0 1.136.176 1.609.505s.833.793 1.033 1.333l3.381 9.192 9.192 3.381a2.78 2.78 0 0 1 1.849 2.641zm-10.02-16.905h2.818v2.818a1.41 1.41 0 0 0 1.409 1.409 1.41 1.41 0 0 0 1.409-1.409v-2.818h2.818a1.41 1.41 0 0 0 1.409-1.409 1.41 1.41 0 0 0-1.409-1.409H32.73V5.409A1.41 1.41 0 0 0 31.321 4a1.41 1.41 0 0 0-1.409 1.409v2.817h-2.818a1.41 1.41 0 0 0-1.409 1.409 1.41 1.41 0 0 0 1.409 1.409zm15.496 5.635h-1.409V15.27a1.41 1.41 0 0 0-1.409-1.409 1.41 1.41 0 0 0-1.409 1.409v1.409h-1.409a1.41 1.41 0 0 0-1.409 1.409 1.41 1.41 0 0 0 1.409 1.409h1.409v1.409a1.41 1.41 0 0 0 1.409 1.409 1.41 1.41 0 0 0 1.409-1.409v-1.409h1.409A1.41 1.41 0 0 0 44 18.087a1.41 1.41 0 0 0-1.409-1.409z" fill="url(#A)"/></g><defs><linearGradient id="A" x1="6.5" y1="16.5" x2="30" y2="42.5" gradientUnits="userSpaceOnUse"><stop stop-color="#6d0e8c"/><stop offset="1" stop-color="#99f0ff"/></linearGradient><clipPath id="B"><path fill="#fff" d="M0 0h48v48H0z"/></clipPath></defs></svg>