<svg xmlns="http://www.w3.org/2000/svg" width="176" height="29" fill="none"><g clip-path="url(#A)"><path d="M12.23 22.481c1.207-.54 2.141-1.304 2.801-2.293s.979-2.181.979-3.552c0-2.091-.729-3.732-2.164-4.923-1.458-1.192-3.439-1.798-5.99-1.798H0v18.884h3.553V23.29H7.88c.251 0 .478-.045.706-.067l3.94 5.575h3.826l-4.418-6.227s.205-.045.296-.09zm-.979-8.61c.797.652 1.184 1.574 1.184 2.765s-.387 2.113-1.184 2.788-1.981.989-3.53.989H3.576v-7.531h4.145c1.571 0 2.756.337 3.53.989zm18.538 1.259c-1.116-.63-2.368-.922-3.803-.922s-2.756.315-3.894.967a7.25 7.25 0 0 0-2.687 2.608c-.638 1.102-.979 2.383-.979 3.822s.342 2.72 1.002 3.822 1.594 1.978 2.824 2.608c1.207.63 2.619.967 4.259.967 1.275 0 2.414-.202 3.393-.584 1.002-.405 1.822-.967 2.505-1.731l-1.867-2.113a5.15 5.15 0 0 1-1.754 1.191c-.66.27-1.389.405-2.209.405-.957 0-1.822-.18-2.551-.562s-1.298-.877-1.685-1.551c-.25-.405-.387-.877-.478-1.371h11.433c0-.135.023-.315.045-.494s0-.337 0-.472c0-1.529-.319-2.855-.956-3.957a6.9 6.9 0 0 0-2.619-2.608l.023-.022zm-7.493 3.844a3.65 3.65 0 0 1 1.48-1.506c.638-.36 1.389-.517 2.209-.517s1.571.18 2.186.517c.615.36 1.116.854 1.458 1.484.25.45.364.944.433 1.461h-8.199a4.53 4.53 0 0 1 .433-1.461v.022zm23.685 2.428c-.547-.27-1.116-.495-1.754-.652l-1.936-.382-1.754-.315c-.524-.112-.956-.292-1.275-.495a1.12 1.12 0 0 1-.501-.967c0-.472.251-.854.774-1.146.501-.292 1.275-.45 2.3-.45.683 0 1.389.067 2.095.225a6.79 6.79 0 0 1 2.072.832l1.344-2.563c-.683-.405-1.526-.697-2.528-.922a13.6 13.6 0 0 0-2.961-.337c-1.321 0-2.437.18-3.393.562s-1.708.899-2.232 1.574-.797 1.461-.797 2.361c0 .854.159 1.529.501 2.023a3.58 3.58 0 0 0 1.275 1.191 7.08 7.08 0 0 0 1.754.674c.638.157 1.298.27 1.936.36l1.754.292c.524.112.956.27 1.275.472a1.03 1.03 0 0 1 .501.899c0 .494-.25.877-.729 1.146s-1.252.427-2.3.427a10.46 10.46 0 0 1-2.756-.382c-.911-.27-1.685-.607-2.346-1.012l-1.321 2.563c.683.45 1.571.832 2.687 1.146s2.277.472 3.53.472c1.366 0 2.528-.18 3.507-.562.979-.36 1.731-.877 2.277-1.529s.797-1.439.797-2.361c0-.809-.159-1.461-.501-1.978-.319-.494-.751-.899-1.298-1.169zm15.464.269c0 .944-.159 1.754-.501 2.405-.319.652-.797 1.124-1.389 1.461-.592.315-1.298.495-2.095.495-1.07 0-1.913-.315-2.505-.967-.592-.63-.911-1.596-.911-2.877v-7.801h-3.439v8.228c0 1.439.273 2.63.797 3.574.547.944 1.275 1.641 2.232 2.113.957.45 2.05.697 3.279.697 1.139 0 2.164-.247 3.12-.764.638-.337 1.139-.832 1.594-1.371v1.933h3.257v-14.41h-3.416v7.284h-.023zm29.402-6.789c-.911-.45-1.936-.674-3.097-.674-1.435 0-2.71.337-3.803.989-.683.405-1.207.944-1.64 1.506-.342-.607-.797-1.124-1.366-1.506-1.002-.674-2.186-.989-3.553-.989-1.23 0-2.3.247-3.234.764-.638.337-1.116.809-1.549 1.326V14.41h-3.257v14.41h3.393v-7.306c0-.944.159-1.753.478-2.383s.774-1.124 1.344-1.439 1.23-.494 1.981-.494c1.048 0 1.868.315 2.437.944s.865 1.574.865 2.855v7.823h3.393v-7.306c0-.944.159-1.753.478-2.383s.774-1.124 1.344-1.439 1.23-.494 1.981-.494c1.048 0 1.868.315 2.437.944s.865 1.574.865 2.855v7.823h3.393v-8.25c0-1.461-.25-2.653-.774-3.597a4.68 4.68 0 0 0-2.118-2.068v-.023zm20.064 2.855a6.75 6.75 0 0 0-2.619-2.608c-1.116-.63-2.369-.922-3.803-.922s-2.756.315-3.895.967-2.027 1.506-2.687 2.608c-.638 1.102-.979 2.383-.979 3.822s.342 2.72 1.002 3.822 1.594 1.978 2.824 2.608c1.207.63 2.619.967 4.258.967 1.276 0 2.414-.202 3.394-.584 1.002-.405 1.822-.967 2.505-1.731l-1.868-2.113a5.15 5.15 0 0 1-1.753 1.191c-.661.27-1.389.405-2.209.405-.957 0-1.822-.18-2.551-.562s-1.298-.877-1.685-1.551c-.251-.405-.387-.877-.479-1.371h11.433a4.37 4.37 0 0 1 .046-.494c.022-.18 0-.337 0-.472 0-1.529-.319-2.855-.957-3.957l.023-.022zm-10.112 1.236c.342-.652.843-1.146 1.48-1.506s1.39-.517 2.21-.517 1.571.18 2.186.517a3.82 3.82 0 0 1 1.457 1.484c.251.45.365.944.433 1.461h-8.199c.069-.517.205-1.012.433-1.461v.022z" fill="#000"/><path d="M133.321 7.553c.455-.135 1.594-.54 2.596-1.911 1.025-1.371 1.321-2.945 1.412-3.552.091.607.387 2.158 1.412 3.552 1.025 1.371 2.164 1.798 2.596 1.911-.455.135-1.594.54-2.596 1.911-1.025 1.371-1.321 2.945-1.412 3.552-.091-.607-.387-2.158-1.412-3.552-1.025-1.371-2.163-1.798-2.596-1.911zm7.698-4.833c.227-.067.797-.27 1.298-.967a4.2 4.2 0 0 0 .706-1.776c.045.292.205 1.079.706 1.776s1.07.899 1.298.967c-.228.067-.797.27-1.298.967s-.661 1.461-.706 1.776c-.046-.292-.205-1.079-.706-1.776s-1.071-.899-1.298-.967z" fill="#f22e3e"/><path d="M121.364 9.914l-8.608 18.884h3.644l1.89-4.361h9.565l1.89 4.361h3.735l-8.631-18.884h-3.507.022zm-1.867 11.757l3.598-8.273 3.576 8.273h-7.174zm19.54-7.283h-3.393v14.41h3.393v-14.41zm15.327 1.753c-.41-.45-.865-.854-1.389-1.147-.956-.54-2.05-.787-3.279-.787-1.412 0-2.665.315-3.781.922a6.75 6.75 0 0 0-2.642 2.585c-.637 1.124-.956 2.406-.956 3.889s.319 2.788.956 3.889 1.526 1.956 2.642 2.585c1.116.607 2.391.922 3.781.922 1.275 0 2.391-.27 3.347-.787.593-.337 1.071-.809 1.526-1.349v1.956h3.257V8.79h-3.439v7.351h-.023zm-.523 7.846a4.21 4.21 0 0 1-1.549 1.596c-.638.36-1.389.562-2.209.562s-1.549-.18-2.209-.562c-.638-.36-1.162-.899-1.549-1.596a4.81 4.81 0 0 1-.592-2.383c0-.899.205-1.709.592-2.383s.911-1.191 1.549-1.574 1.389-.562 2.209-.562 1.548.18 2.209.562 1.161.899 1.549 1.574.592 1.461.592 2.383-.205 1.686-.592 2.383zm21.202-6.25a6.74 6.74 0 0 0-2.619-2.608c-1.116-.63-2.368-.922-3.803-.922s-2.756.315-3.894.967-2.027 1.506-2.688 2.608c-.637 1.102-.979 2.383-.979 3.822s.342 2.72 1.002 3.822 1.594 1.978 2.824 2.608c1.207.63 2.619.967 4.259.967 1.275 0 2.414-.202 3.393-.584 1.002-.405 1.822-.967 2.505-1.731l-1.867-2.113c-.501.517-1.093.922-1.754 1.191s-1.389.405-2.209.405c-.956 0-1.822-.18-2.55-.562s-1.299-.877-1.686-1.551c-.25-.405-.387-.877-.478-1.371h11.433a4.32 4.32 0 0 1 .045-.494c.023-.179 0-.337 0-.472 0-1.529-.319-2.855-.956-3.957l.022-.022zm-10.544 2.698c.068-.517.205-1.012.433-1.461.341-.652.842-1.146 1.48-1.506s1.389-.517 2.209-.517 1.572.18 2.186.517a3.83 3.83 0 0 1 1.458 1.484c.251.45.364.944.433 1.461h-8.199v.022z" fill="#092f9c"/></g><defs><clipPath id="A"><path fill="#fff" d="M0 0h176v29H0z"/></clipPath></defs></svg>