<svg xmlns="http://www.w3.org/2000/svg" width="48" height="48" fill="none"><g clip-path="url(#B)"><path d="M37.5 9h-12V3A1.5 1.5 0 0 0 24 1.5 1.5 1.5 0 0 0 22.5 3v6h-12a6.02 6.02 0 0 0-6 6v21a6.02 6.02 0 0 0 6 6h27a6.02 6.02 0 0 0 6-6V15a6.02 6.02 0 0 0-6-6zm-24 11.25a2.25 2.25 0 0 1 1.389-2.079 2.25 2.25 0 0 1 2.452.488 2.25 2.25 0 0 1 .488 2.452A2.25 2.25 0 0 1 15.75 22.5a2.25 2.25 0 0 1-2.25-2.25zm5.25 14.25h-1.5a3 3 0 0 1-3-3 3 3 0 0 1 3-3h1.5v6zm7.5 0h-4.5v-6h4.5v6zm4.5 0h-1.5v-6h1.5a3 3 0 0 1 3 3 3 3 0 0 1-3 3zm1.5-12a2.25 2.25 0 0 1-2.079-1.389 2.25 2.25 0 0 1 .488-2.452 2.25 2.25 0 0 1 2.452-.488A2.25 2.25 0 0 1 34.5 20.25a2.25 2.25 0 0 1-2.25 2.25z" fill="url(#A)"/></g><defs><linearGradient id="A" x1="4" y1="8" x2="41" y2="41.5" gradientUnits="userSpaceOnUse"><stop stop-color="#6d0e8c"/><stop offset="1" stop-color="#99f0ff"/></linearGradient><clipPath id="B"><path fill="#fff" d="M0 0h48v48H0z"/></clipPath></defs></svg>