<svg xmlns="http://www.w3.org/2000/svg" width="176" height="176" fill="none"><path d="M149.377 51.855c-.155-.327-.361-.619-.688-1.203.224-1.495-1.409-1.409-2.458-2.028l1.152.086c0-.137.034-.275.051-.413l-2.286-.206-1.1-.464c-.928.241-1.839 1.289-2.973-.292l.223 1.495-2.698-.309c-3.317 3.936-1.822 11.877 4.211 12.444-1.048 1.925-3.575 2.149-5.517 1.581-3.077-.894-4.675-3.197-5.483-6.136-.997-3.644-.533-6.944 2.32-9.659.361-.344.825-.602 1.255-.894-.241-.43-.481-.859-1.083-.481-.069.103-.12.223-.189.344-.051-.069-.103-.12-.155-.189l.361-.155c-.12-.258-.172-.584-.361-.756l-5.964-4.967c-.326-.258-.893-.241-1.151-.292-.121-.481-.086-.98-.327-1.203-1.323-1.306-2.715-2.544-4.073-3.816l-1.306 6.067-2.2 12.1c-.19 1.151.189 2.544-.327 3.489-.945 1.719-.773 3.558-1.186 5.328-.619 2.595-1.152 5.191-1.856 7.751-.911 3.266-2.441 3.953-5.208 3.936-2.338 0-4.692-.224-7.047-.224l-11.069.189c-2.991.017-5.964-.12-8.955-.189-.997-.017-2.028-.086-3.025 0-2.269.189-3.902-2.802-3.523-4.709.688-3.437 1.083-6.927 1.702-10.364.481-2.664 1.151-5.277 1.667-7.941l2.526-13.509 1.049-5.62c.275-1.599 1.873-3.317 3.936-3.248 5.483.189 10.948.258 16.431.258s7.167-.172 10.76-.258c-.31-.619-.155-1.684-1.393-1.409-.103.017-.257-.172-.361-.292l-2.045-2.166c-2.458 0-4.933-.206-7.373.017-2.372.224-4.693-.498-7.15.034-1.358.292-3.094.086-4.658-.034-1.702-.12-3.42-.103-5.139-.017-2.767.137-5.087 1.203-6.205 3.901-.55 1.289-.722 2.716-1.031 3.953l1.255 1.031c-1.53-.086-1.805.533-1.805 1.581s-.069 2.595-.309 3.85c-.309 1.495-.945 2.905-1.22 4.4l-2.664 14.884-1.959 10.983c-.756 4.125.756 6.652 4.658 8.044 2.922 1.048 5.981 1.753 8.955 2.681l11.653 3.73c3.197.997 3.146.98 3.146 4.383 0 .756-.224.842-.825.842-3.747 0-7.494.034-11.224-.052-.447-.017-1.048-.516-1.272-.945-.516-1.031-.859-2.148-1.272-3.231-.361-.98-.928-1.513-2.114-1.341-1.083.155-2.183.017-3.283.034l-11.997.223c-2.905.017-5.827.344-8.559-1.255-3.403-1.994-6.497-4.348-9.041-7.356-.825-.963-1.427-2.148-1.994-3.3-.275-.567-.206-1.22.756-1.22h8.267c1.048.017 2.08.275 3.111.206 1.684-.103 2.114-.963 1.375-2.441-2.011-4.073-3.901-8.233-6.136-12.169-.705-1.237-1.066-2.578-1.702-3.816-1.942-3.799-3.437-7.82-4.967-11.825-.447-1.169-.945-1.684-2.217-1.599a158.68 158.68 0 0 1-7.562.275l-13.458.138c-.67 0-1.53.12-1.341 1.134.189.945.447 1.891.842 2.767l3.523 7.58c.155.327.034.98-.223 1.255-1.186 1.272-1.873 2.75-2.355 4.417-.773 2.63.464 7.03 3.3 8.577 1.581.877 1.547.928.894 2.698-.103.258-.12.567-.103.516l1.22 1.427-1.203.258c.687 4.073 4.159 8.697 11.189 7.752.086.155.189.292.275.447 3.163 5.861 7.872 10.003 13.922 12.702.189.086.361.309.447.516.602 1.513 1.22 3.025 1.753 4.572.533 1.513 1.066 3.025 1.426 4.572.275 1.186.292 2.423.43 3.626.034.224.034.43.052.653.155 2.338.378 4.675.447 7.013.034 1.031.413 1.426 1.375 1.392l6.995-.206c1.083-.052 1.495.292 1.495 1.495l.155 18.236c.017 4.245 2.819 6.05 6.394 6.084h7.58c.086 0 .172.035.258.052h-.017l4.967 2.647c1.65.825 3.352 1.581 5.036 2.355v-5.054h10.966 7.923c1.323 0 2.733 2.166 1.873 3.008-1.1 1.083.224 1.049.361 1.513-.154.653-1.254 1.272-.068 1.959 0 0-.155.206-.155.31l-.034 7.27c0 .773-.121 1.444-.963 1.805-.739.326-1.478.721-2.166 1.151-2.767 1.736-5.637 4.761-4.675 9.247h21.983c.017-.206 0-.533.121-.773.051-.104.412-.052.636-.069.068 1.547 1.151.773 1.873.945.172-2.887.223-2.922-1.014-4.984-1.169-1.925-2.561-3.627-4.761-4.538-.55-.223-1.203-.962-1.255-1.529-.172-1.564-.034-3.146-.034-4.727l.051-9.591c0-.326.361-.911.585-.928l8.645-.258c.98-.051 1.942-.361 2.905-.55l-1.547-1.254.962-.55v-.413c-2.664 1.341-4.623.155-6.617-1.375l.378.911c-.257.292-.687.567-.704.86-.052.825-.378 1.203-1.135.859-.395-.172-.653-.688-1.048-1.134-.327-.086-.928-.138-1.427-.396-1.495-.808-2.956-1.701-4.451-2.526-.258-.155-.636-.069-.997-.103.189-1.066-.653-1.221-1.324-1.152-1.014.103-1.443-.223-2.045-1.066-.584-.842-1.77-1.289-2.733-1.839-.498-.275-1.1-.412-1.65-.618-.086.12-.223.257-.24.395-.103 1.151-.155 2.303-.292 3.455-.104.859-2.046 2.526-2.957 2.509-2.011-.034-4.004-.155-6.015-.189-1.478-.035-2.991-.035-4.469.069-.928.068-1.341-.138-1.324-1.169L99 121.224c0-3.644.052-1.1-.172-1.53-.138-.275-.722-.447-1.1-.447s-.791.344-.808.585c-.155 1.34-.361 2.698-.189 4.004.189 1.444-.722 1.582-1.616 1.668-1.289.103-2.612-.035-3.919.068-.309.017-.602.516-.894.808l-.034-.034c.103.017.275.034.275.068.206 1.788 1.616 1.427 2.698 1.444 3.575.052 3.678.121 3.575 3.661-.034 1.599-.292 1.874-1.891 1.753-2.612-.206-5.225.224-7.872-.051-3.008-.31-6.067-.052-9.109-.086-1.461-.017-2.956-1.478-2.956-2.905l.017-17.634c0-.241.086-.499.138-.791h6.737c.275 0 .636.223.825.447 2.87 3.266 6.359 3.833 10.364 2.578.55-.189 1.392-.103 1.856.206 2.973 2.011 6.239 3.421 9.676 4.246 2.819.67 5.689 1.409 8.697.739 1.117-.258.55.997.791 1.547l2.2-2.733c0-.035.034-.086 0-.121-.086-.257-.172-.704-.258-.704-1.581 0-.791-2.561-2.544-2.338-.12.911-.722 1.289-1.547 1.083-.979-.241-.429-.962-.429-1.564 0-.911-.258-1.822-.43-2.853h1.787l.275-2.235 1.839-.206c0-.086.035-.154.052-.24a28.64 28.64 0 0 1-1.048-.447c-3.85.189-7.649.051-11.207-1.667-.498-.241-.997-.499-1.512-.688-1.616-.636-2.836-1.323-3.232-3.42-.601-3.146-3.231-4.572-6.033-5.655-.55-.224-1.152-.756-1.358-1.289-.498-1.323-.791-2.716-1.134-4.091-.326-1.324-.069-1.478 1.289-1.495l13.784-.224h4.606c1.891.052 3.369.602 4.435 2.458.481.859.567 1.736.928 2.561l1.34 1.684-.086-1.581 3.146-1.873c.034.034.206.223.447.464l2.44-4.039 2.217 1.1-.343-1.427 1.753.722c-.017-.052-.052-.12-.069-.189 1.203-.172 2.441-.619 3.592-.447 1.135.172 2.441.464 3.06 1.873.12.275 1.306.172 1.976.103.756-.086 1.564-.687 2.045.378l-.721.859c.343.034.704 0 1.014.103.481.155 1.031.327 1.375.653.911.859.979 3.231.24 4.211.241.516.516.997.671 1.53a.99.99 0 0 1-.258.825c-.619.568-.619.722.258 1.289l-3.644 2.08.378.584 1.289 1.1 2.148 2.063-.515.309c.378.327.825.688 1.255 1.049.498.309.996.653 1.495.997-.327-5.741-.619-11.499-1.788-17.153-.55-2.63-1.529-4.881-5.5-4.933l-11.257-.241c-2.613-.034-5.225 0-7.907 0v-3.747h6.944 10.398c1.169 0 2.407-.206 3.507.086 3.54.98 6.118-1.117 6.737-4.692l2.424-13.939c.24-1.427.653-2.647 2.028-3.609 1.031-.722 1.908-1.994 2.286-3.197.584-1.805.67-3.764.962-5.672-.172-.395-.309-.791-.533-1.186l.018.017zm-93.14 9.127c-.103.12-.223.241-.327.361l.877.602c-.945 1.289.859 2.08.773 3.489h-4.589c-3.506 0-7.012 0-10.519-.052-.533-.017-1.066-.378-1.599-.584.275-.43.464-.98.842-1.272 1.581-1.22 1.684-3.111 1.942-4.761.722-4.589-1.788-8.37-6.205-9.78-.636-.206-1.341-.481-1.977-.412-1.186.12-1.616-.481-2.062-1.444-.791-1.702-1.736-3.317-2.544-4.847 1.616-.189 3.231-.498 4.864-.533 2.252-.052 4.503.137 6.755.172 1.22.017 2.441-.155 3.644-.086.378.017.877.447 1.048.825.688 1.547 1.186 3.163 1.873 4.692 1.392 3.094 2.888 6.153 4.331 9.23.189.43.189.928.413 1.323.636 1.117 1.341 2.2 2.028 3.283a10.17 10.17 0 0 0 .43-.206zm6.755 25.524l18.683-.034c1.22 0 1.874.43 2.217 1.53l1.306 4.073c-5.792-.945-9.419 1.564-10.295 7.047-.602 3.729 1.117 6.84 5.174 8.593-.602.069-.877.121-1.134.121-4.125 0-8.267 0-12.409-.103-.361 0-1.031-.654-1.014-.946.086-1.083.069-2.131-.395-3.145-.069-.155.137-.43.275-.791l-.687.155c.447-3.936-.877-7.528-2.183-11.103-.653-1.77-1.444-3.472-2.251-5.414h2.716v.017zM39.205 57.029c-.086 2.045-1.788 3.833-3.816 3.816-2.062-.017-3.85-1.994-3.816-4.022 0-1.839 1.908-3.678 3.695-3.627 2.234.069 4.022 1.787 3.936 3.833zm43.725 46.75c-2.441-.068-3.627-1.787-3.644-3.678-.034-2.217 1.701-3.884 3.953-3.867 2.131.017 3.42 1.461 3.403 3.85 0 1.908-1.788 3.747-3.713 3.695zm11.12 2.458c.086 2.166-1.822 4.538-4.297 4.727-1.788.137-3.575-1.341-3.558-2.784 3.42-.344 4.056-1.049 4.761-5.294 1.805 0 3.025 1.392 3.094 3.351zm-54.347-36.97c1.426.258 2.922.052 4.555.052-.206 1.461-1.375 1.925-2.303 2.32-1.925.791-4.108-.052-5.277-1.805-.756-1.117-.481-2.819.688-4.142.859 1.169.533 3.248 2.338 3.575zm80.18 91.025c-2.2.052-4.4 0-6.635 0 2.286-3.523 5.861-3.902 8.955-.602-.945.241-1.615.55-2.32.585v.017zm-14.214-46.492c-.017.137-.017.258-.035.395-.189 1.77-.928 2.08-2.423 1.083l.756-3.97c1.788.292 2.097.739 1.702 2.492zm2.251-2.063c.568.499 1.135.791 1.393 1.255.515.962.309 3.163-.327 3.403-.498.206-1.169 0-1.788-.034l.722-4.624zm-6.222 1.96c-.618.945-1.168.979-2.354.103l1.581-3.506c1.358.859 1.65 2.045.773 3.403zm21.519 39.651l-3.54-.756v-1.427c3.575-.12 3.746.121 3.54 2.183zm-3.678-5.672h3.438v1.702h-3.352l-.086-1.702zM47.884 79.114l2.372-1.977c1.203 1.822 1.1 2.166-1.186 3.558l-1.186-1.581zm2.802 2.939l2.08-2.32c.361.533.653.945.894 1.272l-1.736 3.008-1.237-1.959zm68.681 62.133c.774 0 1.633-.172 2.321.069.515.172.842.911 1.409 1.581-3.781.447-3.799.361-3.73-1.65zm-71.414-69.85l.928 1.616-2.338 1.684-.98-1.736 2.389-1.564zm56.049 11.361c.068-.653.137-1.22.223-1.873l3.678 1.667c-.034.069-.051.138-.069.206h-3.832zm-47.764.086a4.81 4.81 0 0 1-.344.275l-2.011-1.22 1.375-2.819c1.048 1.289-1.203 2.974.98 3.764zm63.371 55.138c1.615-.189 1.942 0 2.612 1.375h-2.612v-1.375zm-21.416-31.316c.069-.12.361-.172.55-.155.103 0 .241.224.275.361.189.757-1.117 2.561-2.303 2.802l1.478-3.008z" fill="#020203"/><path d="M139.648 109.381c-.051 0-.085-.034-.137-.052.052-.051.103-.085.155-.137l-1.255-1.048c.069-.052.344-.207.516-.31l-2.149-2.062-.12 1.254-1.753-1.564.584-.79-.378-.585 3.644-2.079c-.894-.568-.894-.722-.258-1.289.189-.172.326-.585.258-.825-.138-.516-.43-1.014-.671-1.53.739-.98.671-3.352-.24-4.211-.361-.326-.894-.498-1.375-.653-.31-.103-.671-.069-1.014-.103l.722-.859c-.499-1.066-1.289-.464-2.046-.378-.67.069-1.856.172-1.976-.103-.619-1.427-1.925-1.719-3.06-1.873-1.151-.155-2.389.275-3.592.447.017.052.052.12.069.189l-1.753-.722.344 1.427-2.218-1.1-2.44 4.039-.447-.464-3.145 1.874.085 1.581-1.34-1.684c-.567.567-.31 1.186-.275 1.873.069 1.323-.275 2.681-.224 4.005.018.498.671.962 1.014 1.409-.859.43-1.22 1.805-.996 3.541.103.859-.052 1.753-.086 2.647l1.048.446c0 .086-.034.155-.051.241l-1.84.206-.275 2.235.619 3.334c1.753-.223.963 2.338 2.544 2.338s.172.464.258.704c.017.035 0 .086 0 .121l-2.2 2.732.154 5.449c.55.189 1.152.326 1.65.619.963.55 2.149.996 2.733 1.839.602.842 1.032 1.168 2.046 1.065.67-.069 1.495.086 1.323 1.152.344.034.739-.035.997.103l4.451 2.526c.482.258 1.1.31 1.427.396.413.447.653.945 1.048 1.134.757.344 1.083-.034 1.135-.859 0-.292.447-.567.705-.86l-.379-.911c1.994 1.513 3.971 2.716 6.618 1.375v.413l-.963.55 1.547 1.255c1.444-1.169 2.819-2.2 2.733-4.503-.224-5.707-.172-11.413-.224-17.119l-1.873-.774c.034-.137.086-.292.12-.429.361-.035.722-.052 1.135-.069-.189-.739-.636-1.599.601-1.874 0-.635-.034-1.289-.051-1.925-.499-.326-.997-.67-1.496-1.014 0 .052 0 .121.052.241h-.035zm-4.142-2.733c-.464.069-.653.103-.842.138-.189 1.615-.55 3.162-2.08 4.4.585-4.417-.996-7.082-4.331-7.391.275-1.169 1.255-1.186 1.994-1.134 2.337.154 3.506 1.186 4.262 3.626l.997.361zm-20.762 5.363c1.254-.533 1.942-.292 2.458 1.031.137.361.206.739.309 1.117.533 1.874.292 2.183-1.598 2.045l-1.169-4.193zm6.325-2.149c1.65-.464 3.833.946 3.729 2.682-.034.532-.91 1.014-1.254 1.357l-2.475-4.039zm-3.025.911c.842.292 1.581.31 1.873.688 1.031 1.34 2.252 2.767.241 4.228l-2.114-4.916zm9.058-1.358c.67.929.515 1.65-.344 2.235l-2.819-3.249c1.134-.79 2.08-.515 3.163 1.014zm-.55-2.818c.756-.43 1.598-.671 2.354-.052.808.653.911 1.564.447 2.595l-2.801-2.543zm3.712 28.634c-.12-.034-.241-.086-.361-.12a21.68 21.68 0 0 1 .292-.997l.464.206c-.137.292-.257.602-.395.911zm.155-1.616c-.103.035-.189.086-.292.138l-.464-.756c.137-.069.257-.138.395-.207l.361.825zm7.631-33.275h-.189v-.79h.12a10.01 10.01 0 0 0 .069.773v.017zm13.338-48.279c.498-.653.996-.842 1.804-1.014.825-.172 1.908-1.031 2.149-1.805.464-1.495.412-3.128.567-4.709-.275.103-.567.344-.808.275-.258-.069-.447-.395-.67-.619l.756-.481c-1.873-.464-1.134-1.839-1.134-3.025l-.963.224-1.083 4.916c-.172.928-1.564 2.492-2.698 2.664-1.203.189-.447-1.083-.928-1.478-.172-.12-.344-.309-.413-.498-.172-.464-.481-.98-.412-1.409l1.134-5.706c.206-1.427.842-3.008-.67-4.211l-.241-1.134c-.292-.086-.636-.086-.894-.241l-2.268-1.495c-.138-.103-.086-.447-.121-.67-.103-.069-.189-.172-.309-.206l-9.419-3.455c-.808-.292-1.134-.67-.842-1.65.378-1.237.447-2.544.636-3.816-.327-.172-.945-.327-.945-.498-.052-1.753-1.118-.962-1.925-.842l-.189 5.603-3.421-1.392c-1.667-.636-3.317-1.684-5.036-1.787-3.97-.258-7.992-.069-11.979-.052l2.045 2.166c.103.12.258.309.361.292 1.237-.275 1.1.791 1.392 1.409 1.65.258 3.18 0 4.331-.98.464.413.757.859 1.152.98 2.062.619 2.664 1.461 2.423 3.575-.12 1.117-.189 2.252-.292 3.369l4.074 3.816c.24.241.206.722.326 1.203.241.052.825 0 1.152.292 2.028 1.616 4.004 3.283 5.964 4.967.189.155.24.498.361.756.601-.395.842 0 1.083.464.55-.241 1.1-.464 1.615-.756.224-.12.344-.378.67-.791 1.943.67 4.143 1.341 6.274 2.2.533.206.808 1.048 1.203 1.598l2.286.206c0 .138-.034.275-.052.413l-1.151-.086c1.048.602 2.681.533 2.458 2.028.326.584.532.877.687 1.203.189.378.344.773.499 1.169.498-.327 1.134-.55 1.478-.98h-.017z" fill="#186efe"/><path d="M93.706 153.329l-.103-1.065-1.237 1.168-.498-.756-2.664-.275c-.636-.687-1.203-1.427-1.925-2.011-.258-.223-.825-.051-1.255-.051l-.017 2.44c-.034.31-.309.739-.602.877-1.014.498-2.131.773-3.077 1.358-3.042 1.873-4.383 5.173-3.678 9.126l1.667-.636c.739.172 1.375.395 2.011.447.98.069 1.977-.017 2.956 0 3.901.12 7.786-.206 11.688 0 1.908.103 3.816 0 5.878 0-.137-1.564.155-3.18-.447-4.348-1.478-2.871-3.523-5.363-6.909-6.239-.086-.035-.12-.275-.189-.43-.498.103-.98.223-1.598.378v.017zm-10.948 7.099c.361-1.668 2.252-3.025 4.263-3.043 2.183 0 4.503 1.427 4.881 3.043h-9.144z" fill="#030303"/><path d="M156.148 43.261l3.49-20.212c.12-.653.326-1.306.653-1.873.309-.533.945-.859 1.254-1.392.928-1.53.516-3.283-.945-4.383-.825-.619-3.059-.395-3.919.395-1.272 1.169-1.409 2.733-.412 4.228.223.327.481.808.412 1.152l-2.784 14.609-.808 5.105.963-.224c0 1.186-.722 2.561 1.134 3.025l-.756.481c.223.223.412.55.67.619.223.052.533-.172.808-.275.103-.413.206-.842.24-1.255z" fill="#040404"/><path d="M95.855 151.817l-.017-9.161-5.036-2.354-4.967-2.664.223 12.684c.43 0 .997-.155 1.255.052.705.584 1.289 1.323 1.925 2.011.224-.258.413-.705.688-.757.636-.103 1.289-.034 1.977-.034v1.066l.498.756 1.237-1.169.103 1.066 1.564-.361c.189-.378.533-.756.55-1.135zm-3.644-2.646c-.034 1.014-.808.807-1.427.79-1.358-.034-1.564-.344-1.444-2.269 2.32-.154 2.922.172 2.87 1.479zm-2.888-3.919c.069-.361.413-.671.636-.997.567.567 1.977 0 1.908 1.272-.017.361-.739.704-1.152 1.048-1.031-.154-1.581-.412-1.392-1.323z" fill="#0711db"/><path d="M135.025 21.295l-.808-.774 1.066-.498.292 1.444.894-1.65-.172-.206-.636.241.361-1.289.619.361c0-1.066-1.272-2.75-2.2-3.025-1.186-.361-2.854.327-3.489 1.426-.619 1.083-.31 2.716.756 3.85.808-.12 1.89-.911 1.925.842 0 .172.619.327.945.498l.447-1.22z" fill="#050506"/><path d="M141.144 112.08c-1.238.258-.791 1.134-.602 1.874l-1.134.068-.12.43 1.873.773-.017-3.145z" fill="#070613"/><path d="M144.513 31.625c.034.241 0 .567.12.67l2.269 1.495c.257.155.584.172.893.241-.601-1.461-1.976-1.873-3.282-2.406z" fill="#0d0d0d"/><path d="M136.469 19.817l.206-.361c-.12.069-.258.12-.378.172l.172.189z" fill="#050506"/><path d="M85.852 137.655c-.086 0-.172-.034-.258-.051l.258.051z" fill="#0711db"/><path d="M104.088 27.672c-5.483 0-10.966-.052-16.432-.258-2.062-.069-3.644 1.65-3.936 3.248l-1.048 5.62-2.527 13.509c-.516 2.647-1.186 5.276-1.667 7.941-.619 3.455-1.014 6.944-1.701 10.364-.378 1.908 1.272 4.898 3.523 4.709.997-.086 2.011-.017 3.025 0l8.955.189 11.068-.189c2.338 0 4.693.206 7.047.224 2.768.017 4.297-.653 5.208-3.936.722-2.561 1.238-5.173 1.856-7.752.43-1.77.258-3.609 1.186-5.328.516-.945.138-2.337.327-3.489l2.2-12.1c.395-2.028.876-4.039 1.306-6.067l.292-3.369c.224-2.114-.361-2.956-2.423-3.575-.378-.12-.67-.567-1.152-.98-1.151.962-2.681 1.238-4.331.98l-10.776.258zm4.864 24.561c-1.221 1.066-2.561 1.77-4.143 1.272-1.632-.516-2.337-2.011-2.543-3.489-.413-2.853.257-5.466 2.612-7.459 2.51-2.114 5.947-.739 6.308 2.338.052.464.189.928.275 1.341-.361 2.252-.739 4.4-2.509 5.998zm-18.254.309c-1.994 1.822-5.466 1.22-6.119-2.131-.584-2.973.034-5.723 2.406-7.941 1.237-1.152 2.698-1.358 4.091-.962 1.272.361 1.925 1.633 2.148 2.991l.327 1.839c-.258 2.458-.98 4.538-2.853 6.205zm1.977 9.917c-1.856-.086-3.661-2.062-3.334-3.884.103-.516.808-1.048 1.358-1.289.447-.189 1.152-.155 1.598.069 1.117.533 2.114 1.392 3.506 1.014.309-.086.705-.017 1.031.069 1.237.361 2.217-.155 3.094-.928.808-.705 2.149-.687 2.733.052.653.842.447 2.337-.12 3.077-1.375 1.805-3.283 1.873-5.243 1.856H95.58v-.017c-.98 0-1.942.034-2.905 0v-.017zm20.694 57.509c-3.008.671-5.878-.069-8.697-.739-3.438-.842-6.703-2.251-9.677-4.245-.464-.31-1.306-.378-1.856-.206-4.005 1.254-7.494.687-10.364-2.579-.189-.223-.55-.446-.825-.446-2.217-.035-4.451 0-6.737 0-.052.292-.138.55-.138.79l-.017 17.635c0 1.426 1.478 2.887 2.956 2.904 3.042.035 6.102-.223 9.109.086 2.647.275 5.242-.154 7.872.052 1.581.12 1.839-.155 1.891-1.753.103-3.541 0-3.61-3.575-3.661-1.083-.017-2.509.343-2.699-1.444 0-.034-.172-.052-.275-.069.011 1.077-.796 1.587-2.423 1.53-.516-.756-.653-1.547.189-2.149.98-.687 1.65-.446 2.269.671.292-.275.584-.791.894-.808 1.289-.086 2.612.052 3.919-.069.894-.069 1.805-.223 1.616-1.667-.172-1.306.052-2.681.189-4.005.017-.24.516-.584.808-.584s.963.172 1.1.447c.223.43.172 1.014.172 1.53l-.052 10.914c0 1.031.395 1.237 1.324 1.168 1.478-.103 2.973-.086 4.468-.068l6.016.189c.911 0 2.853-1.65 2.956-2.51.138-1.151.189-2.303.292-3.454 0-.138.155-.258.241-.396l-.155-5.448c-.24-.533.327-1.788-.79-1.599v-.017zm-36.008 4.194c-.584-1.873.206-3.506 1.272-4.847.859-1.083 2.252-1.426 3.747-1.117 4.211.911 4.916 5.723 2.355 8.319-2.183 2.217-5.105 1.667-6.755-.774-.223-.309-.103-.825-.12-1.151-.241-.172-.481-.258-.498-.43z" fill="#fdfdfd"/><path d="M113.695 93.139c-1.065-1.856-2.543-2.406-4.434-2.458-1.53-.034-3.077 0-4.606 0l-13.785.223c-1.358.017-1.616.189-1.289 1.495l1.134 4.091c.206.533.808 1.083 1.358 1.289 2.802 1.083 5.448 2.509 6.033 5.654.395 2.097 1.598 2.802 3.232 3.421l1.512.687c3.558 1.719 7.356 1.874 11.206 1.667.035-.876.207-1.787.086-2.646-.223-1.736.155-3.111.997-3.541-.344-.464-.997-.928-1.014-1.409-.052-1.324.292-2.682.223-4.005-.034-.687-.292-1.306.275-1.874-.36-.842-.429-1.701-.928-2.595zm-5.482 6.273c-.877 0-2.08-1.238-2.046-2.166.052-1.633 1.358-2.698 2.561-2.612 1.444.12 2.2.859 2.183 2.32 0 1.547-1.083 2.509-2.698 2.458z" fill="#fdfdfe"/><path d="M62.545 91.884c1.306 3.575 2.63 7.167 2.183 11.103.103-.017.309-.069.688-.155-.138.361-.344.636-.275.791.464 1.014.481 2.045.395 3.145-.017.31.653.946 1.014.946l12.409.103c.275 0 .533-.052 1.134-.121-4.056-1.736-5.775-4.864-5.174-8.593.877-5.483 4.486-7.992 10.295-7.047l-1.306-4.074c-.344-1.117-.997-1.547-2.217-1.53l-18.683.034h-2.733c.808 1.942 1.598 3.644 2.269 5.397zm-6.737-30.697l-2.028-3.283c-.223-.395-.223-.911-.413-1.324l-4.331-9.23c-.705-1.53-1.203-3.145-1.873-4.692-.155-.361-.67-.808-1.048-.825-1.203-.069-2.423.103-3.644.086l-6.755-.172c-1.633.034-3.248.344-4.864.533l2.544 4.847c.43.962.877 1.564 2.063 1.444.636-.069 1.323.206 1.977.413 4.417 1.409 6.927 5.208 6.205 9.78-.258 1.65-.361 3.541-1.942 4.761-.378.292-.567.842-.842 1.272.533.206 1.066.567 1.598.584 3.506.069 7.013.052 10.519.052h4.589c.086-1.427-1.736-2.2-.773-3.489l-.877-.601-.103-.155zm78.358-14.42c-2.871 2.716-3.335 6.016-2.321 9.659.808 2.939 2.407 5.242 5.483 6.136 1.942.567 4.486.344 5.517-1.581-6.032-.55-7.528-8.508-4.211-12.444 1.393-2.062 3.988-2.286 5.449-.894l1.1.464c-.395-.55-.67-1.392-1.203-1.598-2.132-.859-4.332-1.53-6.274-2.2-.343.395-.464.67-.67.791-.516.292-1.083.516-1.616.756-.429.292-.893.55-1.254.911zM31.574 56.805c-.017 2.028 1.77 4.005 3.816 4.022 2.028 0 3.73-1.77 3.816-3.816.069-2.028-1.702-3.747-3.936-3.816-1.788-.069-3.661 1.788-3.695 3.609zM83.222 96.25c-2.234 0-3.97 1.633-3.953 3.867.017 1.891 1.203 3.627 3.644 3.678 1.942.035 3.73-1.804 3.73-3.712.017-2.389-1.272-3.833-3.42-3.833zm2.973 11.945c0 1.444 1.77 2.922 3.558 2.784 2.458-.189 4.366-2.561 4.297-4.726-.069-1.977-1.289-3.386-3.094-3.369-.705 4.245-1.341 4.95-4.761 5.311zm-49.517-38.38c1.169 1.753 3.352 2.612 5.277 1.805.945-.378 2.097-.859 2.303-2.32-1.633 0-3.145.206-4.555-.052-1.805-.326-1.478-2.389-2.337-3.558-1.169 1.324-1.444 3.025-.687 4.125zm76.57 90.493h6.635c.705-.035 1.375-.344 2.32-.585-3.094-3.317-6.669-2.922-8.955.602v-.017z" fill="#fdfdfd"/><path d="M103.211 115.277c1.495.997 2.234.687 2.423-1.083.018-.137 0-.275.035-.395.395-1.77.086-2.2-1.702-2.492l-.756 3.97zm5.775 1.117c.636-.24.859-2.44.327-3.403-.258-.481-.825-.773-1.393-1.255l-.722 4.624c.619 0 1.29.223 1.788.034z" fill="#fafafa"/><path d="M111.169 112.338c.172 1.014.429 1.942.429 2.853s-.532 1.323.43 1.564c.808.206 1.427-.155 1.547-1.083l-.619-3.334h-1.787zm-11.825 1.443c1.186.877 1.736.859 2.354-.103.877-1.341.585-2.544-.773-3.386l-1.581 3.489z" fill="#fdfdfd"/><path d="M141.316 48.847l-.224-1.495c1.135 1.581 2.046.533 2.974.292-1.478-1.392-4.057-1.152-5.449.894l2.699.309z" fill="#0711db"/><path d="M119.677 152.591l3.54.756c.224-2.063.052-2.286-3.54-2.183v1.427z" fill="#f8f8f8"/><path d="M122.977 149.376v-1.701h-3.438l.086 1.701h3.352z" fill="#fdfdfd"/><path d="M50.256 77.12l-2.372 1.977 1.186 1.598c2.286-1.392 2.389-1.736 1.186-3.575zm3.403 3.868l-.894-1.272-2.08 2.32 1.237 1.977 1.736-3.025z" fill="#fafafa"/><path d="M121.688 144.255c-.705-.258-1.547-.069-2.321-.069-.069 2.011-.051 2.08 3.73 1.65-.567-.67-.894-1.392-1.409-1.581z" fill="#f8f8f8"/><path d="M46.527 77.636l2.337-1.684-.928-1.616-2.372 1.564.962 1.736zm61.376 7.854l-3.678-1.667-.223 1.874h3.832c0-.069.035-.138.069-.206zm-54.02-.653l2.011 1.22.344-.275c-2.183-.791.069-2.475-.98-3.764l-1.375 2.819z" fill="#fafafa"/><path d="M122.22 142.295c-.67-1.392-.997-1.564-2.612-1.375v1.375h2.612z" fill="#fefefe"/><path d="M99.017 109.811c-.034-.137-.172-.344-.275-.361-.189-.034-.481.035-.55.155l-1.478 3.008c1.186-.241 2.492-2.046 2.303-2.802z" fill="#fafafa"/><path d="M135.438 104.62l-.585.791 1.753 1.564.121-1.255-1.289-1.1z" fill="#050ebd"/><path d="M134.355 45.375l-.361.155.154.189c.069-.103.121-.224.19-.344h.017z" fill="#0710db"/><path d="M55.911 61.359l.326-.361c-.137.052-.292.12-.43.189l.103.172z" fill="#fdfdfd"/><path d="M134.509 106.287c-.756-2.44-1.907-3.489-4.262-3.626-.739-.035-1.736-.035-1.994 1.134 3.335.292 4.916 2.974 4.331 7.391 1.53-1.238 1.891-2.767 2.08-4.4l-.155-.499z" fill="#fafafe"/><path d="M117.494 114.142l-.31-1.117c-.515-1.306-1.186-1.564-2.457-1.031l1.186 4.211c1.89.137 2.131-.155 1.581-2.063z" fill="#fdfdfe"/><path d="M124.798 112.543c.104-1.718-2.079-3.145-3.729-2.681l2.475 4.039c.326-.344 1.203-.825 1.254-1.358zm-4.881-1.082c-.292-.361-1.031-.395-1.873-.688l2.114 4.916c2.011-1.444.808-2.887-.241-4.228zm6.858.189c.842-.584.997-1.306.344-2.234-1.083-1.53-2.028-1.805-3.18-1.015l2.836 3.249zm2.131-5.105c-.756-.636-1.598-.378-2.354.052l2.801 2.543c.481-1.031.361-1.942-.447-2.595z" fill="#fafafe"/><g fill="#020203"><path d="M130.195 134.114l-.292.997.361.12.395-.91-.464-.207z"/><path d="M129.645 132.997l.464.757c.104-.035.189-.086.293-.138l-.344-.825a4.29 4.29 0 0 1-.413.206z"/></g><path d="M135.506 106.648l-.979-.361c.034.172.086.327.137.499l.842-.138z" fill="#050ebd"/><path d="M137.861 99.584v.791h.189l-.069-.791c-.051.017-.086.017-.12 0zm1.736 9.557c-.052.051-.103.086-.155.137.052 0 .086.034.138.052v-.189h.017z" fill="#020203"/><path d="M87.02 157.386c-2.011.017-3.902 1.358-4.263 3.042h9.144c-.378-1.616-2.698-3.059-4.881-3.042z" fill="#f8f8f8"/><path d="M91.902 152.642v-1.065c-.705 0-1.358-.086-1.977.034-.258.052-.464.498-.687.756l2.664.275zm-1.118-2.682c.619.018 1.392.224 1.426-.79.052-1.306-.55-1.633-2.87-1.478-.12 1.925.086 2.234 1.444 2.268z" fill="#fafafe"/><path d="M91.867 145.527c.069-1.289-1.341-.705-1.908-1.272-.224.326-.567.636-.636.997-.172.911.361 1.169 1.392 1.323.395-.344 1.134-.687 1.152-1.048z" fill="#fdfdfe"/><path d="M111.169 44.894c-.361-3.077-3.799-4.452-6.308-2.338-2.355 1.977-3.008 4.606-2.613 7.459.207 1.478.911 2.991 2.544 3.489 1.599.481 2.939-.206 4.142-1.272 1.788-1.598 2.149-3.747 2.527-5.998l-.292-1.341z" fill="#020202"/><path d="M93.242 44.516c-.223-1.358-.877-2.63-2.148-2.991-1.392-.395-2.853-.189-4.091.962-2.372 2.2-2.991 4.967-2.406 7.941.653 3.352 4.125 3.953 6.119 2.131 1.856-1.684 2.561-3.764 2.836-6.222l-.309-1.822z" fill="#030302"/><path d="M95.597 62.511h1.719c1.977.017 3.867-.051 5.242-1.856.567-.739.773-2.234.12-3.077-.601-.756-1.925-.756-2.733-.052-.894.773-1.856 1.272-3.094.928-.327-.086-.722-.155-1.031-.069-1.392.378-2.389-.481-3.506-1.014-.447-.223-1.152-.275-1.599-.069-.55.258-1.272.791-1.358 1.289-.326 1.822 1.461 3.816 3.334 3.884h2.888c0 .011.006.023.017.034z" fill="#060505"/><path d="M77.963 125.761c1.65 2.423 4.572 2.99 6.755.773 2.561-2.612 1.856-7.425-2.355-8.319-1.478-.326-2.888.035-3.747 1.118-1.083 1.34-1.856 2.973-1.272 4.847.052.137.275.223.516.412.017.327-.103.859.103 1.169zm2.595-1.392c-.292-.052-.756-.619-.705-.86.189-.979 1.255-2.647 2.269-2.458.378.069.688.499.859.636-.086 1.393-1.513 2.836-2.424 2.682z" fill="#040404"/><path d="M90.355 126.363c-.636-1.118-1.306-1.358-2.269-.671-.842.602-.687 1.392-.189 2.149 1.627.057 2.435-.453 2.423-1.53 0 0 .034.034.034.052z" fill="#0d0d0d"/><path d="M108.728 94.651c-1.186-.086-2.492.963-2.561 2.613-.034.911 1.169 2.148 2.046 2.166 1.615.034 2.681-.928 2.698-2.475.017-1.461-.739-2.2-2.183-2.303z" fill="#070613"/><path d="M82.122 121.052c-1.014-.189-2.08 1.478-2.269 2.458-.052.24.413.808.705.859.911.172 2.338-1.272 2.424-2.681-.172-.155-.481-.585-.859-.636z" fill="#f8f8f8"/><path d="M31.659 26.555h.12c.034 0 .069-.034.12-.052.928-.292 1.684-1.083 1.908-2.028v-.894c0-.516.361-.791.739-.825.172-.086.378-.12.602-.069.859.206.825.997.894 1.719.069.773.327 1.65.98 2.131.086.069.172.138.223.223h.034c1.083.086 1.1 1.753.034 1.719l-.138.052c-.859.258-1.341 1.255-1.719 2.097v.55c-.034 1.014-1.461 1.1-1.684.258-.172-.137-.275-.361-.258-.653.052-.584-.12-1.134-.619-1.512s-.997-.55-1.392-1.031c-.945-.155-.911-1.702.155-1.702v.017z" fill="#020203"/><path d="M48.039 20.47h.138l.138-.052c1.117-.378 2.028-1.392 2.303-2.612v-1.152c0-.653.43-1.014.894-1.066.206-.12.447-.155.722-.086 1.031.258.997 1.289 1.066 2.2.086 1.014.395 2.114 1.186 2.75.103.086.189.189.258.292h.052c1.306.103 1.323 2.269.052 2.217a.52.52 0 0 1-.172.069c-1.031.327-1.616 1.616-2.062 2.716v.705c-.034 1.306-1.753 1.409-2.028.344-.206-.172-.344-.447-.309-.842.052-.756-.155-1.478-.739-1.942-.602-.481-1.203-.705-1.667-1.341-1.152-.189-1.083-2.2.189-2.2h-.017zm-21.88 63.336h.12c.034 0 .069-.034.12-.052.928-.292 1.684-1.083 1.908-2.028v-.894c0-.516.361-.791.739-.825.172-.086.378-.12.601-.069.859.206.825.997.894 1.719.069.773.327 1.65.98 2.131.086.069.172.137.223.223h.034c1.083.086 1.1 1.753.034 1.719l-.137.051c-.859.258-1.341 1.255-1.719 2.097v.55c-.034 1.014-1.461 1.1-1.684.258-.172-.138-.275-.361-.258-.653.052-.584-.12-1.134-.619-1.513s-.997-.55-1.392-1.031c-.945-.155-.911-1.702.155-1.702v.017z" fill="#186efe"/><path d="M37.142 92.985h.275a.79.79 0 0 1 .292-.155c1.616-.481 2.784-1.822 3.128-3.455.052-.241.172-.413.344-.498v-.309c.034-1.117 1.77-1.117 1.736 0v.361c.309.034.602.241.739.602.481 1.289 1.031 2.733 2.32 3.386a.71.71 0 0 1 .395.447c.722.292.688 1.495-.103 1.65-.103.155-.275.292-.464.309-1.547.223-2.819 1.22-3.334 2.664l-.069 1.134c-.069 1.117-1.805 1.117-1.736 0v-.069c-.309-.017-.584-.206-.705-.619-.361-1.341-.997-2.939-2.389-3.489a.83.83 0 0 1-.378-.258h-.052c-1.117-.069-1.117-1.805 0-1.736v.034z" fill="#020203"/><path d="M58.919 37.83c.911-.687 1.53-1.667 1.874-2.733.172-.533.55-.808.98-.876.034 0 .051-.017.086-.034a1.16 1.16 0 0 1 .842.069c.481 0 .911.292 1.014.928l.103.653a7.16 7.16 0 0 0 1.066 1.341c.069.069.103.12.155.189 1.306.12 1.323 2.114.103 2.509-.498.533-.928 1.117-1.238 1.787 0 .069 0 .138-.017.189-.086.636-.464 1.203-1.134 1.289-.103.069-.206.12-.327.137-.67.189-1.392-.223-1.581-.894-.069-.241-.103-.361-.172-.481l-.172-.309a.73.73 0 0 0-.12-.155c-.309-.361-.481-.481-.928-.705-.275-.138-.464-.395-.567-.67-.722-.447-.67-1.667.069-2.234h-.034zM18.047 49.174c.688-.533 1.186-1.272 1.427-2.097.12-.395.43-.619.739-.67.017 0 .052 0 .069-.017a.93.93 0 0 1 .653.052c.361 0 .705.223.773.705.034.172.052.326.069.498a5.21 5.21 0 0 0 .808 1.031c.052.051.086.103.12.137.997.086 1.014 1.616.069 1.925-.395.413-.722.859-.945 1.375 0 .051 0 .103-.017.155-.069.498-.361.928-.877.98a.58.58 0 0 1-.258.103c-.516.137-1.066-.172-1.22-.687a1.31 1.31 0 0 0-.137-.361c-.052-.069-.086-.155-.137-.223l-.086-.12c-.241-.275-.378-.378-.722-.55-.206-.103-.361-.292-.43-.516-.55-.344-.516-1.272.052-1.702l.052-.017z" fill="#186efe"/></svg>