<svg xmlns="http://www.w3.org/2000/svg" width="187" height="183" fill="none"><g clip-path="url(#A)"><path d="M80.743 13.894c.249.786.112 1.628.241 2.41.18 1.084.828 1.277.255 2.705-.206.511-.571.495-.704.717-.192.32-.114.803-.371 1.153-.292.399-1.073.442-1.385.872h-.392c-.143 0-.182.196-.196.196l-16.607-.075c-5.38-.027-11.501-.526-16.809-.098-.983.079-3.707.54-4.509.984-.681.375-4.292 4.201-4.505 4.916-.194.642-.296 2.426-.335 3.2-.265 5.405.145 10.927.214 16.305.139 10.807-.135 21.616.392 32.409.222 4.557-.418 13.007 4.168 15.664 2.809 1.628 8.575 3.465 11.802 3.699 10.768.78 21.587.265 32.362.393 9.342.112 17.562.206 26.826-1.438 2.659-.471 3.795-1.336 4.609-4.026 1.232-4.074.416-15.676.439-20.577.014-2.915.31-5.883.212-8.839-.139-4.219-.845-8.528-.8-12.767s.745-8.717.804-12.956c.037-2.716.039-5.621-.659-8.389-1.087-4.305-3.246-4.767-6.857-6.492-.284-.135-.475-.426-.736-.54-.643-.984-1.71-3.398-1.265-4.51.422-1.053 1.169-.843 1.891-1.249.587-.33.722-.996 1.397-1.351.821-.432 2.145-.497 3.079-.55 1.116.507 4.211 2.035 5.086 2.665 2.779 1.996 4.705 8.927 5.258 12.215.551 3.278.883 6.165.432 9.367-1.109 7.884-.253 15.892.017 23.769.153 4.435-.176 8.856-.204 13.266v6.678c-.031 2.718.179 5.68.008 8.356-.284 4.488-3.362 10.021-7.461 12.072-1.512.756-4.778 1.654-6.472 1.964-13.771 2.516-27.773 1.08-41.677 1.377-3.181.069-6.406.31-9.62.202-7.677-.259-14.094-.436-21.208-3.51-9.905-4.278-9.03-20.663-9.273-29.8-.192-7.171-.1-14.407-.212-21.59-.094-6.13-.155-12.152.016-18.267.184-6.578-.82-8.418 3.813-13.663s9.836-6.767 16.862-7.077c8.85-.391 18.192.355 27.065.41 1.687.01 3.328-.22 5.011-.206v.006z" fill="#51c089"/><path d="M116.439 104.05c-.1 4.502-.688 9.149-.4 13.659.12 1.887.675 3.794.79 5.69.346 5.643-.176 10.52 1.036 16.248.526 2.486 1.198 3.284 3.536 4.315 6.496 2.86 13.791 1.689 20.642 1.72 9.491.044 18.941.562 28.43-.387 1.28-.127 3.495-.3 4.656-.64 3.758-1.096 4.472-7.88 4.66-11.145.428-.813 1.201-.504 1.754-.897.296-.21.323-.617.853-.912.396-.222 2.191-.66 2.563-.53.359.173.349.621.426.959.235 1.054.498 2.278.484 3.345-.06 4.545-2.075 10.549-5.901 13.24-3.227 2.269-6.041 2.648-9.89 3.06-11.24 1.212-22.822.507-34.135.582-6.804.045-19.5 1.4-22.793-6.421-2.864-6.798-2.175-15.203-2.599-22.343-.116-1.956-.669-3.938-.79-5.886-.241-3.887.267-7.812.204-11.695 1.694-.31 4.96-1.208 6.472-1.964l.002.002z" fill="#1a6ffe"/><path d="M36.809 163.957c.602 1.396 1.538 1.626 2.995 1.33 1.139-.232.987-.766 1.385-1.466.055-.098.345-.133.414-.259.18-.328.008-.766.306-.98.29 2.997.743 4.952 3.24 6.871 3.37 2.586 6.994 1.522 10.791 1.567 7.673.09 18.429 2.63 25.672.583 1.61-.455 2.083-.44 2.799-2.107 1.551-3.622 1.171-13.272 1.246-17.609.1-5.879.559-12.046-.659-17.819-.865-4.099-3.058-4.669-6.902-5.069-2.779-.289-8.532-.562-11.188-.211-.734.099-1.112.849-1.963.981-1.128.174-2.244-.134-3.224-.185.973-.314 3.119-.281 3.815-1.188.057-.075.875-1.574.892-1.666.184-.99-.684-2.139-.39-3.235-1.728-.088-3.04.505-4.821.403-.257-.016-.437-.201-.475-.205.735-.228 1.245-.522 2.052-.597 4.023-.367 10.197-.169 14.334 0 5.184.21 10.342.309 12.196 6.054 2.709 8.403 1.647 17.799 1.42 26.453-.178 6.786 1.404 17.941-6.702 20.787-9.693 3.402-20.488.426-30.448.328-5.596-.055-9.485 1.265-13.633-3.632-2.508-2.962-2.666-5.431-3.144-9.127l-.006-.002zm111.798-87.012l8.917.008c6.733.082 17.016-1.029 22.928 2.18 3.868 2.1 3.646 5.908 4.533 9.603.751 3.131 1.696 5.549 1.879 8.921.653 12.093-1.207 24.236-.801 36.156.014.415.597 1.782-.188 1.662.014-1.067-.249-2.29-.484-3.345-.075-.338-.067-.786-.426-.959-.373-.129-2.167.311-2.563.531-.53.294-.559.701-.854.911-.553.393-1.326.083-1.753.898.22-3.793.031-7.857.188-11.695.33-8.059 1.087-16.25.604-24.356-.129-2.165-.765-3.345-1.21-5.27-.678-2.932-.149-5.358-3.173-6.839-6.11-2.993-21.699-1.939-28.968-1.927 1.069-.436.948-.968 1.399-1.652.223-.338.588-.224.712-.839.212-1.039-.163-1.355-.3-2.17-.106-.619.137-1.391-.438-1.821l-.002.002z" fill="#cfd8ee"/><path d="M139.729 156.747c.529.22.9 2.07.943 2.681.079 1.074-.5 2.651-.433 3.812.109 1.874 2.359 4.885 1.588 6.796-.027.067-.714 1.147-.765 1.196-.476.478-3.124.963-3.228-.277l-.404-.123c-1.924 4.144-4.625 7.34-8.695 9.463-7.884 4.111-14.957 3.105-22.879-.141-2.968-1.216-10.705-4.822-10.611-8.643.029-1.21.985-1.082 1.5-1.457.202-.147.171-.487.526-.66 2.305-1.128 2.444.261 3.778 1.432 3.671 3.221 14.58 7.411 19.419 7.083 1.497-.103 4.035-.849 5.439-1.428 3.748-1.55 6.012-4.695 7.592-8.303-1.065.509-2.098.908-3.322.796-.708-.607-1.316-2.024-1.177-2.941s2.762-2.304 3.623-3.252c.747-.823 2.957-4.614 3.246-4.803.213-.139.568-.096.757-.224.857-.577 1.836-1.534 3.101-1.009l.002.002z" fill="#030303"/><path d="M60.738 123.692c.037.004.218.188.475.204 1.781.104 3.093-.489 4.821-.403-.292 1.096.575 2.246.39 3.235-.018.093-.835 1.591-.892 1.666-.696.908-2.84.874-3.815 1.188-5.527-.282-10.988-1.145-16.524-.54-1.251.316-2.103 3.121-2.405 4.27-1.64 6.256-1.218 11.801-1.265 18.179-.027 3.773.018 7.295.384 11.09-.298.212-.126.65-.306.98-.069.125-.359.161-.414.259-.398.701-.245 1.233-1.385 1.465-1.457.297-2.393.067-2.995-1.33-.751-5.804-.896-11.667-.794-17.587.094-5.395.392-13.643 3.187-18.416 1.157-1.978 4.307-4.296 6.582-4.604 4.725-.64 10.215-.065 14.953.342l.002.002z" fill="#f8181c"/><path d="M143.485 33.361c.112 1.302.955 2.887-.174 3.905 3.289.54 6.868 1.903 9.881 3.365 4.342 2.108 7.977 4.396 9.287 9.359 1.065 4.034 2.505 10.618 2.972 14.702.052.462.196 2.09.137 2.443a21.71 21.71 0 0 1-1.032 1.966c-.516.448-1.793.379-2.475.544-1.789-1.397-1.404-3.889-1.763-5.902-.62-3.473-1.369-8.12-2.307-11.439-1.098-3.887-9.069-7.466-12.684-8.707-.318-.11-2.054-.795-2.02-.141.043.839.572 1.125.216 2.166-.128.371-.338.302-.406.428-.352.633-.273 1.155-1.319 1.391-2.492.564-2.286-1.312-3.916-2.477-.626-.448-1.915-1.033-2.656-1.269-.685-.218-3.081-.483-3.25-.577-.131-.073-.494-.964-.683-1.08-.645-.397-.847.218-1.475-.972-.472-.896-1.006-2.172-.023-2.897 2.261-1.668 5.682-1.711 8.408-2.775 1.407-.548 2.911-1.874 4.249-2.031.341-.039.698-.071 1.035 0h-.002z" fill="#030303"/><path d="M113.301 15.662c-.933.055-2.257.118-3.079.55-.675.355-.81 1.021-1.397 1.351-.721.405-1.469.196-1.89 1.249-.446 1.112.621 3.526 1.265 4.51-4.723-2.062-15.011-1.108-20.504-1.171-2.918-.033-6.043-.236-8.916-.401.31-.43 1.092-.473 1.385-.872.257-.35.18-.831.371-1.153.133-.222.498-.206.704-.717.573-1.428-.075-1.62-.255-2.705-.131-.78.008-1.624-.241-2.41l9.309.204c6.535.053 17.535-1.033 23.25 1.563z" fill="#cfd8ee"/><path d="M148.607 76.945c.574.43.331 1.2.437 1.821.139.815.512 1.131.3 2.17-.125.615-.49.501-.712.839-.451.684-.329 1.218-1.398 1.652l-15.781.204c-2.517.049-5.045-.053-7.559-.008v-6.678c7.7.043 15.349-.214 23.053-.204.536 0 1.046.202 1.66.204z" fill="#1a70fe"/><path d="M20.816 18.52c.802 1.173.694 2.383-.614 3.196-1.4.87-1.979.155-3.301.073-3.346-.21-5.931-.79-9.242-1.391-1.755-.318-3.856-.248-5.511-1.159-2.326-1.283-3.06-4.023-.7-5.734.755.014 1.534-.067 2.287.02 3.546.41 8.414 2.035 12.039 2.872 1.916.442 3.73.21 5.043 2.123z" fill="#030303"/><path d="M1.229 38.118c-.027-.059-.292-.032-.306-.187-.359-4.893 5.06-3.887 8.326-3.61l7.673.959c1.499.057 2.956-.758 4.111.796.938 1.259-.351 2.583-1.634 2.711-4.676.053-9.881 1.178-14.494 1.155-.698-.004-2.538-.334-3.087-.729-.306-.22-.42-.731-.586-1.094H1.23zM22.936 2.447c.52.843 3.734 2.707 4.645 3.304.481.314.887 1.035 1.463 1.283.496.212 1.245.134 1.291.181.029.029-.029.572.053.825.263.799.628 1.008.118 1.998s-1.498 1.29-2.579 1.061c-1.957-.416-8.644-4.296-9.754-5.946-.634-.941-.936-2.508-.39-3.537 1.061-2.005 2.42-1.813 4.325-1.188l.83 2.017v.004z" fill="#040404"/><path d="M78.194 21.948l.196-.196h.392l8.916.401c5.494.063 15.781-.892 20.504 1.171.261.114.449.403.736.54 3.611 1.725 5.77 2.186 6.857 6.492.698 2.768.696 5.673.659 8.389-.059 4.239-.759 8.713-.804 12.956s.661 8.548.8 12.767c.098 2.956-.2 5.924-.212 8.839-.022 4.901.792 16.505-.439 20.577-.814 2.693-1.95 3.555-4.61 4.026-9.263 1.644-17.483 1.548-26.825 1.438-10.776-.128-21.595.387-32.363-.393-3.226-.234-8.993-2.072-11.801-3.699-4.586-2.657-3.946-11.107-4.168-15.664-.528-10.793-.253-21.602-.392-32.409-.069-5.378-.479-10.899-.214-16.305.037-.776.141-2.557.335-3.2.216-.715 3.827-4.541 4.505-4.916.804-.442 3.527-.904 4.509-.984 5.307-.43 11.429.069 16.809.098l16.607.075.002-.002zM61.13 78.319c2.852-5.229 6.516-9.996 9.497-15.14 2.25-3.885 3.607-6.814 3.26-11.483-1.022-13.771-22.063-14.904-25.757-2.601-2.773 9.243 4.221 18.3 13.977 15.57L53.48 78.319h7.649zm25.89-5.696c5.117-5.289 11.448-9.55 15.653-15.652 3.174-6.114 1.306-13.515-5.648-15.676-7.461-2.32-16.854.921-17.066 9.725l6.447.367c.581-4.798 6.955-6.67 10.032-3.025 2.566 3.041.314 6.152-1.865 8.552L79.37 71.545v6.776h24.713v-5.696H87.02v-.002z" fill="#fdfefe"/><path d="M147.233 83.426c7.269-.012 22.86-1.067 28.967 1.927 3.025 1.481 2.495 3.907 3.174 6.839.445 1.925 1.081 3.105 1.21 5.27.482 8.106-.275 16.297-.604 24.356-.157 3.838.031 7.902-.188 11.694-.191 3.265-.903 10.047-4.661 11.145-1.163.34-3.375.511-4.656.64-9.491.949-18.939.431-28.43.387-6.851-.031-14.143 1.14-20.641-1.72-2.34-1.029-3.011-1.829-3.536-4.316-1.213-5.727-.691-10.604-1.036-16.247-.116-1.896-.671-3.803-.791-5.69-.288-4.51.303-9.159.401-13.659 4.101-2.049 7.176-7.582 7.461-12.072.168-2.675-.04-5.637-.008-8.356 2.514-.045 5.042.057 7.559.008l15.781-.204-.002-.002zm-5.296 15.91h-6.178c-2.597 4.437-5.925 8.725-8.369 13.225-1.899 3.494-2.899 6.833-1.72 10.824 2.767 9.359 18.517 9 20.72-.636 1.716-7.507-3.68-14.294-11.514-12.219l7.059-11.196.002.002zm29.028 0h-20.594v4.714h14.71l-12.16 25.534h6.08l11.964-25.436v-4.812z" fill="#fefefe"/><path d="M78.193 21.947c.014 0 .053-.198.196-.196l-.196.196z" fill="#cfd8ee"/><path d="M61.718 129.584c.979.049 2.097.357 3.224.185.849-.132 1.228-.884 1.963-.981 2.656-.351 8.408-.08 11.188.211 3.844.4 6.039.968 6.902 5.069 1.218 5.773.759 11.94.659 17.819-.073 4.337.308 13.989-1.245 17.609-.714 1.668-1.187 1.654-2.799 2.107-7.243 2.047-17.997-.491-25.672-.583-3.795-.045-7.42 1.02-10.791-1.567-2.499-1.919-2.952-3.874-3.24-6.871-.367-3.793-.412-7.316-.384-11.09.047-6.377-.375-11.924 1.265-18.178.302-1.149 1.153-3.954 2.405-4.27 5.537-.605 10.997.257 16.524.54h.002zm10.984 19.84c1.752-.359 2.915-2.172 3.115-3.854.983-8.283-12.445-8.695-13.094-1.526-.171 1.884.426 3.711 1.948 4.873.369.281.983.322 1.163.698-4.98 1.457-4.933 8.65-.465 10.781 7.222 3.445 15.236-3.703 8.883-10.074l-1.551-.898h.002zm-15.495-10.019h-3.432c-1.579 1.746-4.235 3.164-5.794 4.804-.173.181-.375.303-.381.593-.01.427 1.789 2.491 2.03 2.446l3.85-3.522v17.088h3.727v-21.409z" fill="#fefdfd"/><path d="M61.13 78.319h-7.649l8.626-13.653c-9.756 2.73-16.75-6.327-13.977-15.57 3.693-12.304 24.735-11.17 25.757 2.6.347 4.669-1.01 7.598-3.26 11.483-2.979 5.146-6.645 9.911-9.497 15.14zm-1.618-31.771c-8.287 1.122-7.196 14.399 1.887 13.476 8.704-.884 7.449-14.741-1.887-13.476zM87.02 72.624h17.064v5.696H79.371v-6.776l15.203-14.631c2.179-2.398 4.433-5.511 1.865-8.552-3.077-3.645-9.452-1.774-10.032 3.025l-6.447-.367c.212-8.803 9.605-12.044 17.066-9.725 6.955 2.163 8.822 9.562 5.649 15.676-4.205 6.103-10.536 10.363-15.654 15.653v.002z" fill="#51c089"/><path d="M141.938 99.336l-7.059 11.196c7.833-2.074 13.229 4.71 11.513 12.219-2.203 9.636-17.954 9.996-20.72.636-1.181-3.991-.178-7.33 1.72-10.824 2.444-4.5 5.773-8.788 8.369-13.225h6.179l-.002-.002zm-6.916 14.975c-6.616 1.043-5.584 12.119 1.899 11.131 6.976-.921 5.823-12.349-1.899-11.131z" fill="#1b6ffe"/><path d="M170.965 99.336v4.812l-11.964 25.436h-6.08l12.16-25.534h-14.71v-4.714h20.594z" fill="#1a6ffe"/><path d="M72.702 149.424l1.552.898c6.351 6.372-1.661 13.519-8.883 10.074-4.468-2.131-4.515-9.324.465-10.781-.18-.375-.794-.416-1.163-.697-1.522-1.165-2.118-2.992-1.948-4.873.647-7.17 14.075-6.757 13.094 1.526-.2 1.681-1.363 3.494-3.115 3.853h-.002zm-4.172-7.222c-2.999.505-2.87 5.411.167 5.828 4.637.634 4.792-6.661-.167-5.828zm0 8.839c-2.548.428-3.664 3.304-2.191 5.439 1.73 2.506 6.163 1.536 6.539-1.477.326-2.601-1.859-4.38-4.35-3.962h.002z" fill="#f8191d"/><path d="M57.206 139.405v21.41H53.48v-17.089l-3.85 3.522c-.239.043-2.04-2.019-2.03-2.445.008-.291.208-.411.381-.593 1.557-1.64 4.215-3.059 5.794-4.805h3.432z" fill="#f81d21"/><path d="M59.512 46.549c9.336-1.263 10.591 12.594 1.887 13.476-9.083.921-10.172-12.357-1.887-13.476z" fill="#fdfdfd"/><path d="M135.023 114.311c7.719-1.216 8.873 10.21 1.898 11.131-7.482.988-8.512-10.09-1.898-11.131z" fill="#fcfcfe"/><path d="M68.531 151.041c2.491-.418 4.676 1.362 4.35 3.962-.379 3.015-4.811 3.984-6.539 1.477-1.473-2.135-.357-5.01 2.191-5.439h-.002zm-.002-8.839c4.958-.834 4.803 6.463.167 5.828-3.034-.416-3.164-5.323-.167-5.828z" fill="#fefafa"/></g><defs><clipPath id="A"><path fill="#fff" d="M0 0h187v183H0z"/></clipPath></defs></svg>