<svg xmlns="http://www.w3.org/2000/svg" width="546" height="269" fill="none"><g clip-path="url(#A)"><path d="M455.363 89.53c-1.762-2.057-3.949-3.909-5.217-6.248-1.914-3.505-4.147-6.971-4.732-11.101-.577-3.962-1.215-7.908-.767-11.908.524-4.83 2.157-9.15 5.256-12.975 3.076-3.809 6.638-7.085 10.716-9.638 2.43-1.509 5.461-2.11 8.21-3.101 3.729-1.341 7.656-1.234 11.499-1.752 1.283-.168 2.582-.335 3.896-.35 3.251-.015 6.289.929 9.198 2.309.789.389 1.64.693 2.476.937 1.754.51 2.984 1.806 4.351 2.872 2.006 1.547 3.517 3.55 5.157 5.47 2.962 3.428 4.785 7.474 6.669 11.459.531 1.097.569 2.438.82 3.688.03.168-.023.351.03.526 1.216 4.655 1.033 9.402-.03 13.942-1.147 4.876-2.628 9.79-6.205 13.607-1.23 1.295-2.711 2.347-4.078 3.512-.395.328-.737.724-1.147 1.013-1.026.724-2.089 1.364-3.091 2.095-2.119 1.531-4.649 1.745-7.094 2.232-.631.13-1.284.19-1.914.274.114-1.493-.676-2.423-1.975-2.949-.972-.396-1.99-.716-3.091-1.097l2.841-7.893c.25-.716.668-1.021 1.344-1.204 1.314-.373 2.628-.769 3.889-1.288 1.237-.503 2.096-1.531 2.453-2.804.303-1.189.509-2.453.486-3.687-.038-1.691-.858-3.147-2.484-3.771-1.602-.625-2.749.404-3.706 1.592-1.656 2.088-2.681 4.457-3.327 7.025-3.288.328-5.916.114-7.671-1.73 1.383-2.667 2.674-5.341 3.084-8.381.243-1.867-.327-3.337-1.815-4.145-1.466-.808-3.274-.549-4.603.64-2.187 1.989-2.871 4.51-2.491 7.329.198 1.432.691 2.819 1.147 4.518-2.051-.091-4.117-.122-6.16-.297-.372-.023-.964-.526-1.025-.884-.6-2.918-1.116-5.874-1.633-8.83-.319-1.775-1.709-3.535-3-3.764-1.914-.335-4.002.724-4.785 2.507-1.101 2.499-.843 4.952.532 7.238 1.162 1.935 2.704 3.581 4.618 4.853.281.183.645.67.585.914-.456 2.187-1.011 4.343-1.55 6.583-.82-.137-1.663-.404-2.453-.328-.775.076-1.686.328-2.218.838-.531.488-.676 1.417-.995 2.171v-.023z" fill="#ffa800"/><path d="M455.362 89.529c.319-.754.463-1.684 1.018-2.187.532-.51 1.443-.762 2.218-.838.797-.076 1.632.213 2.453.328l1.549-6.583c.061-.267-.304-.731-.585-.914a15.37 15.37 0 0 1-4.617-4.853c-1.375-2.278-1.611-4.762-.532-7.238.782-1.783 2.871-2.842 4.785-2.507 1.298.228 2.681 1.973 3 3.764l1.633 8.83c.083.358.653.838 1.025.884l6.159.297-1.146-4.518c-.38-2.819.303-5.348 2.491-7.329 1.329-1.189 3.129-1.448 4.602-.64 1.489.808 2.059 2.286 1.815 4.145-.402 3.04-1.701 5.714-3.083 8.381 1.754 1.829 4.382 2.042 7.671 1.73.645-2.545 1.656-4.945 3.326-7.025.95-1.189 2.104-2.225 3.707-1.592 1.602.625 2.423 2.08 2.483 3.771.023 1.234-.182 2.491-.486 3.688-.334 1.272-1.192 2.301-2.453 2.804-1.261.526-2.575.914-3.889 1.288-.698.183-1.116.488-1.344 1.204l-2.84 7.893 3.091 1.097c1.299.526 2.073 1.448 1.974 2.948-.865 1.486-.827 3.185-1.04 4.815-.152 1.097-.228 2.217-.547 3.261-.714 2.354-2.392 3.855-4.785 4.175-3.319.449-6.698.876-10.04.83-5.947-.091-11.438-2.057-16.739-4.663-1.778-.868-2.499-2.27-2.408-4.289.129-2.682.676-5.257 1.276-7.87.235-1.006.175-2.08.266-3.093l-.008.008zm21.623-7.649l-1.329 7.345c-.031.168.212.518.38.587l6.881 2.095 2.24-8.205c-2.939.122-5.719-.084-8.165-1.828l-.007.008zm-11.073-.259l-1.307 5.676 8.188 1.47 2.149-7.101-9.03-.046zm-3.312-5.813l-1.413-6.796c-.06-.297-.364-.526-.554-.785-.281.213-.691.396-.813.678-.22.526-.319 1.128-.341 1.691-.061 2.27 1.625 3.512 3.114 5.211h.007zm13.36-.571l.41.091 1.595-5.303c.083-.328-.122-.739-.175-1.12-.342.168-.79.259-1.01.518-1.61 1.752-1.306 3.779-.813 5.813h-.007zm12.835 4.198c2.795-.427 3.889-2.148 2.916-4.571l-2.916 4.571z" fill="#010201"/><path d="M136.951 170.594l.721 9.189c.296 9.295.547 17.279-3.053 21.736-1.58 1.951-3.577 2.53-7.572 3.695-3.585 1.044-5.894.938-10.352 1.113-8.993.358-7.694 1.104-12.456.99-8.681-.206-12.911-2.682-15.934.907-.395.472-1.922 2.24-1.58 3.908.235 1.166 1.033 2.172 2.392 2.415 1.641.343 3.509-.152 5.218-.38 2.81-.48 5.735-.328 8.567-.328 6.236-.137 12.114 0 18.319-1.707 3.433-.944 4.618-.266 6.76-.701 3.524-.701 6.934-1.432 9.881-4.198.646-.609 2.438-2.407 3.509-5.287 1.002-2.674.85-4.838.744-7.367-.387-9.014-.175-13.493-.144-17.547.015-2.811-.19-6.742-1.185-8.997-.258-.587-.653-1.204-1.185-1.288-.896-.137-1.937 1.364-2.658 3.84l.008.007zM23.454 215.692c.122-.686-.608-1.364-.744-1.501-1.154-1.074-2.408-.389-3.433-1.379-.463-.45-.615-.96-.813-1.836-.387-1.699.38-2.933-.775-6.27-.418-1.197-.676-1.387-1.025-2.248-.441-1.097-.357-1.63-.646-6.202-.091-1.455-.144-2.004-.691-2.323-.843-.503-2.423-.191-3.357.51-.372.282-.987.884-1.185 3.893-.106 1.623.046 1.829.19 5.859l.197 3.002a26.49 26.49 0 0 0 .494 2.743c.501 2.141.752 3.215 1.276 4.083 1.413 2.362 4.466 3.513 6.957 3.33 1.276-.092 3.38-.61 3.562-1.669l-.008.008zM11.811 121.85c1.876-1.965 1.154-5.15.554-8.967-.843-5.318-.76-10.75-1.375-16.106l-1.716-15.07c-1.2-7.405-1.952-8.358-2.765-14.971-1.397-11.337.159-13.714 1.435-14.796.691-.587 1.557-1.006 5.582-1.501 6.289-.777 11.165-.609 13.063-.549 0 0 8.446.259 15.57.084 3.63-.084 8.073-.328 13.162-.899 4.177-.64 7.595-.655 10.086-.51 3.403.19 7.2.785 9.144-1.082.258-.251 1.215-1.166.98-1.935-.159-.503-.767-.747-1.139-.861-3.365-.968-6.623.114-10.238-.297-2.59-.312-5.149-.267-7.739.031-3.091.289-5.78-.206-8.598 0-5.013.67-9.752.122-14.825.305-1.868.137-3.767.488-5.628.51-2.787.038-4.124-.32-8.18-.686-3.365-.297-5.043-.45-6.251-.381-1.352.076-8.43.48-11.643 5.173C-.082 51.346-.12 55.048.123 62.454c.099 2.987 0 5.181.759 8.099a66.7 66.7 0 0 1 .63 3.025c.441 2.453.532 4.381 1.162 6.651.395 1.448.995 3.131 1.261 4.64.463 3.086-.114 5.966.425 9.006.82 5.958 2.02 11.382 2.127 17.592.114 6.918-.782 10.559 1.139 11.573 1.246.647 3.144-.092 4.2-1.196l-.015.007zm66.16 87.701l-6.28.451c-.845.06-1.481.797-1.421 1.644l.622 8.732c.06.848.794 1.486 1.64 1.425l6.28-.45a1.54 1.54 0 0 0 1.421-1.645l-.622-8.732c-.06-.847-.795-1.486-1.64-1.425z" fill="#000"/><path d="M139.132 197.818l-2.787-58.733c-1.611-27.382-2.416-41.074-3.79-49.408-.426-2.606-1.497-8.487-1.846-16.601-.213-4.922.03-6.118-.228-11.367-.478-9.645-.721-14.46-2.65-16.967-4.14-5.386-14.514-3.093-25.413-1.516-19.846 2.865-68.544 7.246-85.398 5.928-1.846-.145-7.124-.655-10.063 2.529-2.734 2.964-2.096 7.657-1.914 9.127C6.547 73.25 15.259 187.883 15 204.134c-.023 1.402-.175 5.89 2.727 8.777 3.714 3.695 10.268 2.621 12.851 2.217 0 0 22.117-3.459 57.236-5.333 9.904-.526 19.785-2.141 29.704-1.897 5.947.145 14.202.678 18.858-4.625 1.633-1.859 2.377-3.923 2.757-5.447v-.008z" fill="#196efd"/><path d="M36.479 71.833l.721.023c.061.457.091 1.089.121 1.6l.03.51c0 2.354.327 4.686.638 6.948l.41 3.23c-.805.229-2.24.35-3.008.411l-1.208.107-5.21.198a38.43 38.43 0 0 1-1.656-.031l-.759-.053-.873-.069c-.091-.663-.129-1.623-.167-2.331-.068-1.585-.152-3.375-.577-5.12l-.023-.122-.068-.282c-.646-2.278-.661-3.169-.623-3.482.235-.13.927-.412 2.613-.587 1.291-.061 2.765-.259 4.322-.465l5.317-.511m0-3.787c-3.091 0-7.268.869-9.904.983-6.532.617-6.972 3.322-5.377 8.914l.038.198c.797 3.169.152 7.253 1.291 9.135 1.116 1.348 2.689 1.242 4.564 1.394a49.98 49.98 0 0 0 1.876.03 82.27 82.27 0 0 0 5.544-.213c3-.335 8.263-.175 7.686-4.419-.311-3.329-1.063-6.872-1.056-10.186-.152-2.438-.114-4.358-1.671-5.333-.721-.373-1.777-.51-2.992-.51v.008zm11.444 59.322l.038.373.19 1.707 1.306 9.897.539 4.152c-.228.023-.532.038-.927.038-.608 0-1.352-.038-2.225-.122h-.076l-4.853-.19-4.329.183-2.233.167-2.278.153c-.008-.602.038-1.28.091-1.989.083-1.143.182-2.43.061-3.786l-.061-.419-.972-5.585-.41-3.329c.873.091 1.96.175 3.281.175l2.954-.145 9.889-1.303m1.595-4.182c-.509 0-1.154.121-1.975.388 0 0-2.149.61-9.843 1.333l-2.605.122c-2.506 0-4.071-.358-5.149-.358-.714 0-1.215.153-1.641.671-.304.365-.721 1.104.167 7.199l1.003 5.783c.228 2.583-.6 5.295.144 7.741.554 1.196 1.808 1.501 3.41 1.501 1.413 0 3.106-.244 4.853-.328l4.063-.175 4.572.175 2.575.137c5.263 0 5.233-2.362 4.132-8.662l-1.268-9.646c-.471-3.664-.273-5.889-2.43-5.889l-.008.008z" fill="#000"/><path d="M68.081 109.599l-2.02-.282c-1.154-.297-2.187-.472-3.304.061-.213.107-.98-.046-1.246-.244-1.458-1.021-1.997-2.255-1.838-3.573.106-.731 2.514-1.569 3.934-1.417l4.033.579c.835.061 1.754-.031 2.506-.251l4.929-1.639c1.648-.518 3.319-.457 4.998.039 1.747.518 3.327.441 4.83-.343.813-.427 1.777-.762 2.711-1.097 1.534-.541 3.144-.618 4.861-.214.532.13 1.367.076 1.853-.122 2.073-.83 4.284-.975 6.653-.632 1.041.16 2.021 1.463 1.724 2.248-.159.449-.531.906-.478 1.363.061.922-.858 1.052-1.868.968-1.542-.114-2.628.343-3.684.922-1.177.625-3.471.739-4.8.19-.911-.381-1.625-.381-2.476.107-3.144 1.836-6.866 1.966-10.899 1.272-.532-.091-1.246-.091-1.724.046-1.109.312-2.134.792-3.243 1.059-1.739.427-3.532.754-5.301 1.12l-.144-.175-.008.015zm21.737 16.41c.554.092 1.139.122 1.641.267.942.29 1.785.465 2.696-.076.175-.107.797.038 1.01.236 1.185 1.013 1.618 2.248 1.481 3.558-.091.731-2.058 1.585-3.213 1.44l-3.281-.556a4.96 4.96 0 0 0-2.043.267c-1.375.487-2.673 1.135-4.025 1.66s-2.704.473-4.078-.015c-1.42-.51-2.704-.426-3.942.366-.668.434-1.451.769-2.21 1.112-1.253.549-2.567.633-3.965.236a2.45 2.45 0 0 0-1.511.13c-1.694.838-3.494.998-5.43.663-.843-.153-1.633-1.455-1.397-2.24.129-.45.433-.914.403-1.364-.046-.922.706-1.051 1.527-.975 1.261.107 2.142-.358 3.008-.937.965-.633 2.833-.755 3.911-.214.744.381 1.322.374 2.02-.114 2.575-1.851 5.605-1.996 8.894-1.326.433.084 1.018.084 1.405-.053.904-.312 1.747-.8 2.651-1.082l4.322-1.15.114.175.015-.008z" fill="#fafcfe"/><path d="M76.147 75.29c1.618-1.653 3.866-1.745 5.62-.16.965.884 1.77 1.943 2.529 2.964.182.244.068.838-.167 1.067-.949.93-2.256 1.341-3.661 1.349-.395.008-.813-.29-1.01-.343-.972.32-1.868.838-2.772.868-.881.03-1.792-.472-2.841-.8-.023.038-.235.244-.448.434-1.23 1.211-2.924 1.501-4.504.587-1.268-.716-2.324-.701-3.516-.023-1.261.731-2.689.914-4.246.907-1.625-.008-3.228.267-4.868.427l-.98.114c-1.329.13-2.506-.884-2.4-2.049.015-.191.076-.373.084-.556.091-1.844.418-2.08 2.628-2.202l4.633-.465c1.39-.046 2.537-.358 3.76-.922 1.618-.747 3.463-.701 5.294-.259.365.084.987.053 1.2-.152 1.929-1.707 2.757-1.867 5.347-.899.106.061.167.069.319.122v-.008z" fill="#fbfcfe"/><path d="M100.314 62.552c.494.114 1.018.175 1.473.335.836.328 1.588.533 2.438.031.16-.099.722.076.904.274 1.018 1.059 1.345 2.309 1.162 3.619-.121.724-1.936 1.493-2.977 1.303-.995-.206-1.937-.564-2.939-.693a4.04 4.04 0 0 0-1.861.183c-1.261.434-2.476 1.021-3.721 1.493s-2.468.358-3.684-.183c-1.253-.564-2.423-.541-3.577.206-.623.404-1.352.709-2.058 1.013-1.162.495-2.347.518-3.592.069-.387-.145-1.002-.114-1.367.069-1.572.769-3.205.853-4.937.442-.752-.191-1.405-1.524-1.147-2.293.144-.442.441-.891.433-1.349 0-.922.691-1.021 1.435-.914 1.132.16 1.952-.267 2.765-.808.904-.594 2.597-.632 3.547-.053.653.411 1.177.427 1.83-.03 2.415-1.745 5.165-1.76 8.096-.96.387.107.911.122 1.276 0 .835-.274 1.618-.724 2.446-.968l3.965-.968c.015.038.061.099.099.175l-.008.008z" fill="#fafcfe"/><path d="M50.423 68.854l1.625-.274 4.739-.396c.934-.122 1.876-.389 2.757-.678 1.785-.617 3.623-.785 5.537-.51l2.263.343c.896.069 1.306.472 1.17 1.166a12.49 12.49 0 0 1-.881 2.651c-.311.678-1.056.861-1.899.709l-2.043-.305c-.873-.069-1.656.084-2.233.716-.813.922-2.013.754-3.152.686-.547-.038-1.063-.137-1.595-.099l-4.117.312c-1.17.084-2.37-.937-2.316-1.95l.152-2.37h-.008z" fill="#fafbfe"/><path d="M42.539 97.934c.076.655.076 1.63.076 2.293l.03 1.836c.053 2.522.258 4.747.661 7.398l.114.724.319 2.354-2.195.13-.881.038c-2.446.091-4.785.312-7.344.685l-.98.13-1.732.175c-.114 0-.197 0-.258-.015-.585-.83-.813-2.552-.934-3.566l-.182-2.392c-.235-2.857-.456-5.569.235-7.482.387-.175 1.238-.404 1.937-.602l.418-.114c4.185-.937 7.678-1.463 10.694-1.585h.03m.387-3.84c-.182 0-.38.008-.585.03-3.813.16-7.838.884-11.453 1.699-2.324.648-3.706.945-4.61 2.217l-.061.091c-1.678 3.498-.873 7.916-.615 12.328.236 1.965.577 4.114 1.792 5.661.843 1.089 1.967 1.379 3.182 1.379 1.041 0 2.142-.214 3.205-.336a65.88 65.88 0 0 1 7.002-.655c2.339-.114 4.542-.114 5.59-.785.471-.281.805-.708.98-1.226.433-1.181.03-3.36-.311-5.608a50.48 50.48 0 0 1-.623-6.956c-.152-3.421.646-7.832-3.501-7.832l.008-.008z" fill="#000"/><path d="M48.502 67.101l-18.304 12.19-6.061-4.137c-.638-.457-1.261-.228-1.618.274-.046-.03-.091-.046-.122-.069-.873-.488-1.694.114-1.944.891a1.41 1.41 0 0 0-.729.632c-.387.731-.121 1.539.479 1.996l6.251 4.739 2.954 2.225c.463.343.858.602 1.443.549.668-.046 1.177-.518 1.694-.922 3.934-2.941 7.724-6.133 11.347-9.523a137.02 137.02 0 0 0 3.965-3.878l.82-.549a1.41 1.41 0 0 0 .608-.945c.19-.213.402-.419.608-.632.236-.244.357-.518.387-.808.653-1.135-.509-2.903-1.785-2.027l.008-.008zm2.43 27.236l-16.884 12.19-5.59-4.137c-.592-.457-1.162-.228-1.496.275-.038-.031-.084-.046-.106-.069-.805-.487-1.564.114-1.792.892a1.31 1.31 0 0 0-.668.632c-.357.731-.106 1.539.441 1.996l5.772 4.739 2.727 2.225c.425.343.797.602 1.329.548.615-.045 1.086-.518 1.565-.922 3.63-2.941 7.124-6.133 10.466-9.523a136.56 136.56 0 0 0 3.661-3.878c.243-.175.509-.358.752-.549.327-.244.509-.587.562-.945.175-.213.372-.419.562-.632.22-.244.327-.518.357-.808.6-1.135-.463-2.903-1.648-2.027l-.008-.008z" fill="#43bf7c"/><path d="M127.938 269c-24.182 0-42.304-9.524-49.891-26.301-3.22-7.139-4.17-15.694-4.641-22.346l4.549-.32c.441 6.278 1.322 14.308 4.246 20.784 6.995 15.467 24.319 24.053 47.56 23.596 19.26-.396 37.777-6.819 49.952-16.403-8.119-.976-14.552-4.93-18.418-11.413-4.155-7.154-4.831-15.809-1.77-22.605 3-6.972 10.421-12.213 18.441-13.013 9.068-.945 14.05 2.887 16.633 6.27 5.59 7.322 4.959 18.75 1.86 26.833-1.222 3.033-2.969 5.958-5.149 8.747 10.079-2.217 19.618-8.556 23.81-16.32 1.884-3.512 2.772-7.314 3.707-11.337l.546-2.308c1.572-6.819 4.026-13.051 6.889-17.516 11.377-18.072 33.714-25.119 55.321-31.93 9.957-3.139 20.066-6.324 29.127-10.621-12.106-12.83-15.509-30.414-9.539-50.84l.061-.176c3.144-8.205 8.232-13.089 15.136-14.521 6.957-1.486 14.772.32 20.902 4.83 5.476 4.023 8.81 9.676 9.41 15.916 1.017 9.958-1.907 17.279-5.226 23.702-5.278 9.928-13.359 16.868-22.853 22.194a54.58 54.58 0 0 0 6.137 4.289c15.008 9.074 36.349 12.792 58.549 10.202 22.679-2.651 43.428-11.71 56.917-24.868l.06-.061c10.831-9.783 20.484-24.197 26.492-39.534l4.238 1.668c-6.259 15.962-16.33 30.986-27.654 41.234-14.194 13.828-35.893 23.344-59.536 26.102-23.18 2.704-45.57-1.242-61.428-10.827-2.985-1.805-5.704-3.779-8.142-5.912-9.714 4.785-20.582 8.213-31.291 11.588-21.782 6.865-42.357 13.356-52.846 30.026-2.597 4.053-4.83 9.767-6.296 16.114l-.539 2.293c-1.01 4.328-1.967 8.411-4.132 12.465-5.696 10.552-19.23 18.529-32.711 19.473-12.828 12.084-34.276 20.381-56.567 20.83l-1.914.023V269zm52.747-63.595a21.17 21.17 0 0 0-2.264.122c-6.432.64-12.349 4.785-14.734 10.308-2.476 5.509-1.883 12.556 1.527 18.438 3.706 6.232 10.526 9.569 19.223 9.394h.129c3.41-3.482 6.03-7.276 7.64-11.261 3.114-8.114 2.613-17.333-1.238-22.376-2.347-3.071-5.802-4.625-10.291-4.625h.008zm124.838-102.077c-6.691 22.986-.076 37.866 9.455 47.321 9.449-5.075 17.438-11.642 22.443-21.074 3.441-6.674 5.575-12.83 4.725-21.127-.471-4.937-3.16-9.44-7.565-12.685-5.02-3.695-11.643-5.242-17.271-4.038-5.354 1.112-9.205 4.907-11.787 11.603z" fill="#000"/><path d="M425.484 25.326a37.26 37.26 0 0 1 10.117 3.329c2.848 1.41 5.126 3.002 6.873 4.404m10.997-29.774a30.46 30.46 0 0 1 6.592 7.291c1.838 2.857 2.894 5.547 3.524 7.588m63.615-2.514a37.65 37.65 0 0 1-7.147 7.916c-2.446 2.034-4.815 3.482-6.805 4.503m30.471 17.456a30.23 30.23 0 0 1-9.319 3.07c-3.35.526-6.236.396-8.347.137" stroke="#000" stroke-width="6" stroke-linecap="round" stroke-linejoin="round"/></g><defs><clipPath id="A"><path fill="#fff" d="M0 0h546v269H0z"/></clipPath></defs></svg>