<svg xmlns="http://www.w3.org/2000/svg" width="133" height="120" fill="none"><g clip-path="url(#A)"><path d="M96 0H0V120H96V0Z" fill="#fff"/><g fill="#d9d9d9"><path d="M89.1 4.801H6.9a2.4 2.4 0 0 0-2.4 2.4v5.118a2.4 2.4 0 0 0 2.4 2.4h82.2a2.4 2.4 0 0 0 2.4-2.4V7.201a2.4 2.4 0 0 0-2.4-2.4z"/><use href="#B"/><path d="M31.176 24.625H6.153c-.913 0-1.653.74-1.653 1.653s.74 1.653 1.653 1.653h25.023c.913 0 1.653-.74 1.653-1.653s-.74-1.653-1.653-1.653z"/><use href="#C"/><path d="M20.532 37.836H6.153c-.913 0-1.653.74-1.653 1.653s.74 1.653 1.653 1.653h14.379c.913 0 1.653-.74 1.653-1.653s-.74-1.653-1.653-1.653z"/><use href="#D"/><path d="M47.032 51.047H6.153c-.913 0-1.653.74-1.653 1.653s.74 1.653 1.653 1.653h40.879c.913 0 1.653-.74 1.653-1.653s-.74-1.653-1.653-1.653z"/></g><g fill="#43bf7c"><path d="M89.847 59.156H6.153c-.913 0-1.653.74-1.653 1.653s.74 1.653 1.653 1.653h83.694c.913 0 1.653-.74 1.653-1.653s-.74-1.653-1.653-1.653zm0 5.102H6.153c-.913 0-1.653.74-1.653 1.653s.74 1.653 1.653 1.653h83.694c.913 0 1.653-.74 1.653-1.653s-.74-1.653-1.653-1.653z"/><use href="#E"/></g><path d="M89.847 77.469H6.153c-.913 0-1.653.74-1.653 1.653s.74 1.653 1.653 1.653h83.694c.913 0 1.653-.74 1.653-1.653s-.74-1.653-1.653-1.653zM46.74 82.578H6.153c-.913 0-1.653.74-1.653 1.653s.74 1.653 1.653 1.653H46.74c.913 0 1.653-.74 1.653-1.653s-.74-1.653-1.653-1.653zm-33.6 8.106H6.153c-.913 0-1.653.74-1.653 1.653s.74 1.653 1.653 1.653h6.987c.913 0 1.653-.74 1.653-1.653s-.74-1.653-1.653-1.653zm7.371 5.105H6.153c-.913 0-1.653.74-1.653 1.653s.74 1.653 1.653 1.653h14.358c.913 0 1.653-.74 1.653-1.653s-.74-1.653-1.653-1.653z" fill="#d9d9d9"/><path fill-rule="evenodd" d="M4.8 56.102h86.4a3 3 0 0 1 3 3v13.5a3 3 0 0 1-3 3H4.8a3 3 0 0 1-3-3v-13.5a3 3 0 0 1 3-3zm0 .6a2.4 2.4 0 0 0-2.4 2.4v13.5a2.4 2.4 0 0 0 2.4 2.4h86.4a2.4 2.4 0 0 0 2.4-2.4v-13.5a2.4 2.4 0 0 0-2.4-2.4H4.8z" fill="#0b0de6"/></g><rect x=".5" y=".5" width="95" height="119" rx="7.5" stroke="#9fb9dc"/><path d="M116.847 72.978c-.685-.444-1.231-1.113-1.852-1.647-1.337-1.206-2.988-2.01-4.48-3.052-1.171-.814-2.194-1.826-3.332-2.679-.585-.471-1.283-.834-1.757-1.423-.793-1.018.068-1.842 1.009-2.287l3.244-1.962c2.097-1.19 4.001-2.627 5.565-4.482.345-.405.769-.911 1.299-.995 1.034-.129.946 1.122.905 1.822-.023.592.068 1.199.133 1.777.059.848.472 1.255 1.345 1.187 1.603-.066 3.173-.336 4.747-.612 3.303-.558 7.046-3.909 8.161-7.065.127-.344.451-.877.811-.684.837.517-.065 2.694-.1 3.556-.126 1.008-.246 1.978-.58 2.932-.276 1.052-.578 2.13-1.192 3.05-.488.779-.895 1.668-1.465 2.413-.537.728-1.203 1.353-1.954 1.861-1.858 1.244-3.736 2.511-5.901 3.084-.637.165-1.332.174-1.99.265-.564.059-.965.376-1.002.938-.09 1.192-.032 2.429-.32 3.589-.172.55-.782.734-1.265.426l-.031-.016v.004h.002z" fill="#000"/><path d="M115.733 72.509c-.686-.444-1.231-1.113-1.852-1.647-1.337-1.206-2.988-2.01-4.481-3.052-1.17-.814-2.193-1.826-3.331-2.679-.585-.471-1.283-.834-1.757-1.423-.793-1.018.068-1.842 1.009-2.287l3.244-1.962c2.097-1.19 4.001-2.627 5.564-4.482.346-.404.77-.911 1.3-.995 1.034-.129.946 1.122.905 1.822-.023.592.068 1.199.132 1.777.059.848.473 1.255 1.346 1.187 1.603-.066 3.172-.337 4.747-.612 3.303-.559 7.046-3.909 8.161-7.065.127-.344.451-.877.81-.684.838.517-.064 2.694-.1 3.557-.125 1.008-.245 1.978-.579 2.932-.276 1.052-.578 2.13-1.192 3.05-.489.779-.895 1.668-1.466 2.413-.536.728-1.202 1.353-1.953 1.861-1.858 1.244-3.737 2.511-5.902 3.084-.637.165-1.331.174-1.989.265-.564.059-.965.376-1.002.938-.09 1.192-.033 2.429-.321 3.589-.171.55-.782.734-1.265.424l-.03-.016v.004l.002.002z" fill="#43bf7c"/><defs><path id="B" d="M31.176 19.516H6.153c-.913 0-1.653.74-1.653 1.653s.74 1.653 1.653 1.653h25.023c.913 0 1.653-.74 1.653-1.653s-.74-1.653-1.653-1.653z"/><path id="C" d="M20.532 29.727H6.153c-.913 0-1.653.74-1.653 1.653s.74 1.653 1.653 1.653h14.379c.913 0 1.653-.74 1.653-1.653s-.74-1.653-1.653-1.653z"/><path id="D" d="M89.847 45.945H6.153c-.913 0-1.653.74-1.653 1.653s.74 1.653 1.653 1.653h83.694c.913 0 1.653-.74 1.653-1.653s-.74-1.653-1.653-1.653z"/><path id="E" d="M46.74 69.367H6.153c-.913 0-1.653.74-1.653 1.653s.74 1.653 1.653 1.653H46.74c.913 0 1.653-.74 1.653-1.653s-.74-1.653-1.653-1.653z"/><clipPath id="A"><rect width="96" height="120" rx="8" fill="#fff"/></clipPath></defs></svg>