<svg xmlns="http://www.w3.org/2000/svg" width="130" height="115" fill="none"><g clip-path="url(#A)"><path d="M34.848 111.416c.742-.031 1.611.166 2.196-.156 1.673-.924 2.813-.218 4.079.832 2.039 1.693 4.298 2.202 6.965 1.423 1.767-.52 3.608-.769 5.512.488 2.301 1.517 5.135.852 7.771.925.356 0 .648-.135.648-.541 0-.509-.408-.54-.795-.561l-4.445-.166c-.523-.031-1.046-.145-1.558-.26-.732-.155-1.569-.353-1.935-.976-.429-.738.544-1.112.847-1.673.533-.987.816-1.984.586-3.075-.272-1.257-1.056-2.015-2.343-1.932-1.318.073-2.154.8-2.238 2.234a5.79 5.79 0 0 0 .481 2.659c.261.623.314 1.039-.544.997-1.286-.062-2.5.281-3.744.603-1.391.353-4.675-1.174-5.491-2.389-.397-.593.136-.78.366-1.039.607-.696 1.119-1.423 1.182-2.39.105-1.589-.973-2.399-2.458-1.849-1.537.572-2.51 2.12-1.966 3.719.575 1.683-.502 1.849-1.496 2.047-3.702.727-6.589-.945-8.994-3.522-1.067-1.132-2.05-2.431-2.73-3.895-.199-.437-.512-.759-.983-.447a.79.79 0 0 0-.167 1.153c1.747 1.849 2.793 4.405 5.114 5.63 1.914 1.008 3.608 2.837 6.129 2.182l.011-.021zm17.204-.727c-.481-.654-.575-1.382-.68-2.088-.073-.467-.042-.956.471-1.226.356-.187.701-.249 1.014.031.387.343.492.8.377 1.288-.178.769-.481 1.486-1.192 1.985l.01.01zm-12.414-2.379c-.303-1.246.084-1.787 1.088-2.233-.126.935-.46 1.496-1.088 2.233zm84.746-59.141c-.555-.01-1.339.343-2.144.582-3.546 1.07-6.987 2.389-10.302 4.051-.68.343-1.464.54-1.088 1.735.366 1.163.952.831 1.789.779 2.322-.166 4.591.509 6.881.79 2.479.301 4.968.135 7.426.436.272.031.575.01.586-.332 0-.156-.199-.436-.335-.457-.878-.114-.481-.623-.45-1.132.084-1.496.105-3.002.094-4.498 0-1.423-.836-1.984-2.468-1.953h.011zm-.534 7.085c-3.2-.135-6.243-.654-9.266-1.434 2.5-.758 5.01-1.34 7.488-2.026 1.339-.374 1.799 0 1.653 1.392-.063.623.063 1.267.125 2.078v-.01zM91.565 8.304c.084-.551-.157-.997-.366-1.413l-3.054-5.797c-.429-.758-1.098-1.496-2.05-.821-.92.654-.314 1.361.136 2.057l3.974 6.378c.23.384.324.862.837.738.575-.135.554-.696.533-1.143h-.01zm6.882-3.028c.073-1.236.042-2.462-.22-3.667-.136-.654-.533-1.091-1.213-.966-.669.125-.952.634-.847 1.309.314 2.015.418 4.041.429 6.067 0 .613.22 1.112.858 1.101.648 0 .816-.54.837-1.132l.157-2.722v.01zm-24.38 51.372c-1.454-1.392-3.315-1.371-4.957-1.641-1.632-.27-3.211-.457-4.8-1.029-1.234-.436-2.636-.395-3.786-1.205-.188-.135-.408.021-.523.218-.136.229 0 .405.157.561.502.54 1.234.54 1.841.81 3.075 1.382 6.307 1.974 9.643 2.005.795 0 1.443.976 2.426.28zM60.45 49.335c1.433 1.403 3.305 1.403 4.936 1.693 1.621.291 3.211.488 4.79 1.08 1.224.457 2.625.426 3.776 1.247.188.135.408-.01.523-.208.136-.229 0-.405-.146-.561-.502-.54-1.224-.551-1.83-.831-3.064-1.413-6.286-2.036-9.622-2.109-.795-.01-1.433-.987-2.426-.312zM56.623 75.62c-.816-.073-1.339.249-1.464.977-.136.841.366 1.309 1.151 1.392.941.094 1.883.135 2.803.405.46.135.837-.042 1.035-.499.209-.467-.01-.821-.377-1.091-.962-.717-2.081-.966-3.148-1.195v.01zm15.458-15.242c-.126-.592-.565-.696-.868-.686-2.364.114-4.508-.675-6.631-1.558-.241-.104-.502-.156-.764-.208-.387-.073-.795-.073-.91.395-.126.488.251.602.627.717 2.217.665 4.33 1.911 6.788 1.33.554-.135 1.098.426 1.747.01h.011zM82.048 8.57c-.816.114-1.245.675-.868 1.444.722 1.465 1.935 2.524 3.347 3.303.544.301 1.14-.125.889-.613-.774-1.506-1.736-2.919-3.002-4.062-.063-.062-.199-.042-.366-.073zM57.219 74.318l3.138-.301c.418-.031.722-.166.732-.644 0-.457-.262-.654-.69-.696l-3.138-.353c-.784-.083-1.255.312-1.234 1.07.021.675.502 1.028 1.182.914l.01.01zm43.916-30.24c.041-.987-.293-1.662-1.224-1.579-.91.073-1.255.821-.983 1.641.22.675.293 1.35.397 2.026.052.332.282.602.617.644.356.042.617-.208.722-.519.251-.758.523-1.517.471-2.223v.01zm-5.711-6.953c.167.79.094 1.745 1.213 1.808.722.031 1.088-.426.983-1.132-.115-.79-.199-1.704-1.234-1.787-.711-.062-1.025.436-.962 1.122v-.01z" fill="#000"/><path d="M99.89 27.642l-1.098-3.74c-2.238 1.776-2.092 2.348 1.098 3.74zm-47.838 83.044c.711-.509 1.004-1.215 1.192-1.984.115-.488 0-.946-.377-1.288-.314-.281-.659-.229-1.014-.032-.513.271-.544.759-.471 1.226.104.707.209 1.434.68 2.088l-.011-.01zm-12.414-2.374c.627-.738.962-1.299 1.088-2.234-1.004.447-1.391.997-1.088 2.234zm84.223-52.055c-.052-.81-.188-1.454-.125-2.078.146-1.382-.314-1.766-1.653-1.392l-7.488 2.026c3.022.789 6.066 1.299 9.266 1.434v.01z" fill="#fff"/><path d="M129.028 26.17c-.262-.561-.921-1.808-2.123-3.096-.701-.737-.921-.789-2.176-1.963l-1.893-1.891h-.01c-3.159-2.15-6.61-3.75-10.124-5.215-2.562-1.07-4.068-1.008-5.313-.925-2.468.156-4.78 1.143-5.47 1.444-.973.426-.878.488-1.642.779-2.05.779-3.19.509-4.989.8-1.046.177-2.28.696-4.696 1.86-1.788.862-3.179 1.537-4.759 2.815-1.778 1.434-1.266 1.589-2.573 2.472-1.464.987-1.192 1.299-4.508 2.867-.471.229-1.412.686-1.6 1.538-.094.426-.011.945.272 1.351.22.301.544.519.952.634 1.945.551 2.29 1.61 4.225 2.223 1.663.52 3.075.332 3.566.322 3.305-.125 5.041-1.392 5.428-.852.617.862-2.698 5.506-2.228 6.275.021.031.146.197.115.395-.031.28-.345.447-.492.665-.481.738-.931 1.486-.429 2.369.471.831 1.297 1.184 2.165 1.049 1.412-.218 1.726.416 2.008 1.714 1.014 4.612 2.887 8.83 6.39 12.435-5.825 1.88-6.767 7.272-8.806 11.874-1.642-2.265-3.912-3.864-5.7-5.942-.063-.073-.167-.177-.251-.187-2.259-.208-1.757-1.953-1.883-3.387-.251-3.013 0-6.004.377-8.986.282-2.244-.136-2.722-2.301-3.418-6.265-1.995-12.854-2.556-19.15-4.415-2.636-.779-5.282-1.496-7.938-2.192-1.83-.478-3.002.249-3.002 1.974-.031 7.345-.293 14.71 1.621 21.909.282 1.08.481 2.192.753 3.272.345 1.35 2.081 2.431 3.357 1.943 2.311-.883 4.372-.644 6.432.779 1.527 1.049 3.148 1.922 4.434 3.335.753.821 2.144.779 2.866 1.808.126.187.502.094.69-.156.199-.26.126-.551-.052-.738-1.046-1.091-.952-2.545-1.224-3.875-.282-1.371 0-2.462 1.705-2.888l1.088 3.719c.899 2.971 1.914 5.901 3.849 8.383.439.561.387.883-.178 1.278-1.788 1.247-3.064 2.961-4.11 4.831-1.705 3.065-3.943 5.859-4.696 9.516-1.757-.665-2.949-1.943-3.901-3.387-1.119-1.704-2.562-3.137-3.692-4.81-.533-.79-1.339-1.049-2.228-.914-2.123.312-1.151-1.403-1.401-2.244-.324-1.07.439-1.122 1.203-.987.617.104 1.056-.104 1.161-.758.105-.644-.261-1.018-.837-1.163-.868-.218-1.862-.654-2.636-.27-.554.27-.878.249-1.119.093.031 1.527-.01 3.802 1.537 5.475.879.956 1.579.945 2.782 2.286 1.109 1.236.889 1.652 2.113 3.532.617.945 1.569 2.015 3.462 4.103l2.636 2.846v4.768c-.031 1.226.408 2.244 1.412 2.888 1.767 1.133 3.169 2.67 4.696 4.073 1.59 1.475 3.525 2.358 5.407 3.314.931.467 1.977.342 2.416-.769.408-1.039.209-1.964-1.014-2.462-2.646-1.081-4.842-2.816-6.798-4.904-.105-.114-.209-.27-.345-.332-3.002-1.382-2.28-3.968-2.081-6.431.45-5.423 3.483-9.672 6.181-14.066.858-1.392 2.133-2.358 3.587-3.085.648-.322 1.088-.291 1.579.405.931 1.299 2.019 2.472 3.054 3.698.241.291.565.613.931.332.397-.301.094-.654-.094-.977-1.035-1.735-2.217-3.387-3.117-5.215-.586-1.184-1.767-1.33-2.907-.904-.868.322-1.286.073-1.705-.717-1.841-3.439-2.635-7.199-3.472-10.96-.91-4.062-1.318-4.218-5.062-2.535-1.621.738-2.343 2.015-2.771 3.73-.554-.384-1.056-.675-1.496-1.049-2.186-1.87-4.644-2.784-7.488-2.078-1.192.291-1.391-.312-1.632-1.226-1.862-6.856-2.081-13.858-1.82-21.005 1.307.26 2.636.384 3.87.8 6.296 2.13 12.895 2.878 19.307 4.426 3.221.779 3.2.696 3.106 3.979-.105 3.532-.199 7.075 1.088 10.472.366.977-.24 1.901-.607 2.732-1.014 2.296-.617 4.207 1.286 5.734 1.475 1.174.68 3.158 1.715 4.457.335.426.157 1.361.899 1.351.889-.021.711-.956.837-1.506.241-1.018.01-2.099.512-3.106.241-.488-.125-1.018-.565-1.402-.481-.415-.92-.883-1.37-1.34-1.297-1.309-1.349-2.265-.261-3.667.272-.353.481-.343.753-.073 1.464 1.475 3.451 2.213 4.895 3.771.784.841.899 1.558.575 2.524-.084.249-.136.53-.261.758-2.772 5.153-3.127 10.949-4.34 16.518a4.05 4.05 0 0 0-.105 1.122c.052.862.366 1.61 1.297 1.776.952.177 1.464-.405 1.736-1.257.711-2.244 1.433-4.498 1.621-6.856.23-2.826 1.077-5.443 2.238-7.989.816-1.808 1.381-3.688 1.715-5.662.575-3.314 1.945-6.379 3.619-9.194 2.019-3.397 5.481-4.498 9.246-4.748.711-.052 1.934.374 1.924-.758 0-1.112-1.234-.696-1.945-.748-1.485-.093-3.002-.166-4.424.249-1.098.312-1.527-.177-1.977-.987-2.238-4.062-3.817-8.332-4.225-13.006-.105-1.184-.648-2.015-1.757-2.431-.356-.125-.889.021-.68-.738l2.102-8.072c.356-1.434 1.15-1.745 2.406-1.07.868.478 1.746.945 2.457-.249 1.674 2.504 3.138 5.07 5.23 7.168 1.412 1.413 2.436 1.226 3.263-.561.648-1.402 1.317-2.836 3.033-3.241.669-.156 1.401-.436 1.882.291.502.758.555 1.621.105 2.441l-1.872 3.345c-.827 1.475-.534 2.421.868 3.303 3.169 2.026 6.766 2.639 10.343 3.303.795.146 1.569-.166 1.935-.841 2.562-4.633 5.052-9.298 4.989-14.835-.241-1.288-.649-2.306-.973-2.992l-.01.01zm-30.236-2.254l1.098 3.74c-3.2-1.392-3.347-1.963-1.098-3.74z" fill="#000"/><path d="M63.452 95.616l-3.462-4.103c-1.224-1.88-1.004-2.296-2.113-3.532-1.203-1.34-1.903-1.34-2.782-2.285-1.548-1.662-1.506-3.948-1.538-5.475-.293-.208-.429-.644-.617-1.06-2.395-5.288-3.723-10.897-4.937-16.549-.816-3.802-1.715-7.594-3.42-11.157-1.266-2.649-3.159-4.145-5.993-3.626-5.146.935-10.354.229-15.51.831-1.945.229-3.817.831-5.784.966-4.853.343-9.716.488-14.569.665-2.196.073-3.085.977-2.594 3.158.659 2.93 1.318 5.807 2.887 8.56C5.324 66.05 6.955 70.497 8.66 74.88c2.039 5.257 3.294 10.846 6.306 15.718 1.401 2.265 3.221 4.114 5.229 5.786 1.234 1.018 2.646 1.299 4.299 1.195 2.092-.135 4.215.26 6.327.208 2.97-.073 5.888.53 8.932.166 2.573-.312 5.282-.468 8.011-.021 3.253.53 6.652.166 9.978.27 2.186.073 4.424-.53 6.526.613.596.322 1.213-.177 1.82-.332l-2.636-2.846v-.021zm-8.503-5.277c-1.903.125-3.87.644-5.679.301-4.518-.883-8.911.291-13.324.582-4.8.312-9.465-.592-14.203-.551-.774 0-.952-.603-.837-1.247.125-.706.659-.81 1.213-.551.617.291 1.245.166 1.872.177l6.014.083c2.949.042 5.899.218 8.838.073 2.667-.135 5.302-.665 7.98-.114 1.82.374 3.629.789 5.606.343h2.426c.345 0 .847-.114.837.436 0 .353-.418.426-.753.447l.01.021z" fill="#43bf7c"/><path d="M52.429 89.453c-1.977.447-3.786.021-5.606-.343-2.667-.551-5.313-.021-7.98.114-2.939.145-5.888-.031-8.837-.073l-6.014-.083c-.628 0-1.255.104-1.872-.177-.554-.26-1.088-.156-1.213.551-.125.644.063 1.257.837 1.247 4.738-.052 9.402.862 14.203.551 4.413-.291 8.806-1.465 13.324-.582 1.809.353 3.786-.166 5.679-.301.324-.021.742-.094.753-.447 0-.551-.492-.426-.837-.436-.847-.01-1.694 0-2.426 0l-.011-.021zM5.627 54.394c.481-.592 1.297-.135 3.681-.353 1.977-.177 2.071-.551 4.11-.841 2.249-.322 2.353.104 5.177-.073 1.506-.093 1.37-.208 5.386-.779l5.031-.634c3.451-.239 3.849.187 5.815-.353l2.981-.706c1.537-.291 2.081-.291 2.625-.073 1.004.405 1.495 1.299 1.631 1.548.314.571.282.883.554 2.317l.554 2.472c.324 1.943.042 2.233.418 3.293.408 1.184.816.997 1.38 2.192.91 1.932 0 2.732.826 4.799.45 1.101.659.769 1.653 2.608.627 1.153.837 1.787 1.517 3.563 1.757 4.56 2.416 5.34 1.914 6.088-.22.322-.439.322-2.981.925l-4.34 1.018c-1.757.208-1.747-.073-4.163.083-1.025.062-2.039.218-4.079.509l-4.246.675-2.468.426-3.744.343-3.911.426c-1.6.042-2.405.052-3.357-.301-1.82-.665-2.813-2.109-3.2-2.691-.23-.343-.586-.935-1.516-4.114l-.931-3.387c-.878-2.971-1.328-3.085-2.207-6.036-.763-2.555-.596-2.659-1.245-4.394-.544-1.465-.795-1.745-1.652-3.844-1.642-3.979-1.37-4.509-1.203-4.727l-.01.021z" fill="#000"/><path d="M11.996 57.428c1.914 0 3.765-.374 5.627-.717.523-.093.826-.457.607-.894-.387-.758-1.056-1.195-1.935-.852-.69.27-1.339.53-2.113.686-1.558.312-3.117.301-4.654.571-.314.052-.837.073-.774.602.052.478.492.218.753.26l2.489.353v-.01zm4.466 2.181l-6.296.561c-.523.083-1.203.083-1.025.852.157.654.743.312 1.203.281l8.513-.706c.387-.031.983.114.983-.499s-.596-.467-.993-.478c-.795-.021-1.579 0-2.374 0l-.011-.01zm3.043 9.11l-6.296.561c-.523.083-1.203.083-1.025.852.157.654.742.312 1.203.28l8.513-.706c.387-.031.983.114.983-.499s-.596-.467-.994-.478c-.795-.021-1.579 0-2.374 0l-.01-.01zm-4.852-4.08l-3.106.416c-.471.083-.973.301-.826.935.126.53.533.499 1.004.426 1.652-.249 3.295-.654 4.989-.457.366.042.784-.052.805-.54.021-.405-.366-.457-.669-.54-.722-.197-1.443-.28-2.186-.239h-.011z" fill="#fff"/></g><defs><clipPath id="A"><path fill="#fff" d="M0 0h130v115H0z"/></clipPath></defs></svg>