<svg width="153" height="32" viewBox="0 0 153 32" fill="none" xmlns="http://www.w3.org/2000/svg"><path d="M28.4414 25.9451H20.6836C20.6211 25.9451 20.5898 25.906 20.5898 25.8279L20.6133 9.36304C20.6133 9.28491 20.6523 9.24585 20.7305 9.24585H23.4023C23.4805 9.24585 23.5195 9.28491 23.5195 9.36304L23.4961 22.9919H28.4414C28.5195 22.9919 28.5586 23.031 28.5586 23.1091V25.8279C28.5586 25.906 28.5195 25.9451 28.4414 25.9451Z" fill="#000"/><path d="M18.9023 25.9451H11.1445C11.082 25.9451 11.0508 25.906 11.0508 25.8279L11.0742 9.36304C11.0742 9.28491 11.1133 9.24585 11.1914 9.24585H13.8633C13.9414 9.24585 13.9805 9.28491 13.9805 9.36304L13.957 22.9919H18.9023C18.9805 22.9919 19.0195 23.031 19.0195 23.1091V25.8279C19.0195 25.906 18.9805 25.9451 18.9023 25.9451Z" fill="#000"/><path d="M0 25.8279L2.97656 9.3396C2.99219 9.2771 3.03125 9.24585 3.09375 9.24585H6.57422C6.63672 9.24585 6.67578 9.2771 6.69141 9.3396L9.55078 25.8279C9.55859 25.906 9.52734 25.9451 9.45703 25.9451H6.79688C6.71875 25.9451 6.67578 25.906 6.66797 25.8279L6.41016 24.0701H3.14062L2.88281 25.8279C2.875 25.906 2.83594 25.9451 2.76562 25.9451H0.09375C0.03125 25.9451 0 25.906 0 25.8279ZM4.69922 14.7654L3.62109 21.5037H5.92969L4.94531 14.7654L4.80469 13.8748L4.69922 14.7654Z" fill="#000"/><path d="M148.136 26.1794C147.285 26.1794 146.5 25.9607 145.781 25.5232C145.07 25.0857 144.5 24.5037 144.07 23.7771C143.648 23.0427 143.437 22.238 143.437 21.363V20.2615C143.437 20.1755 143.476 20.1326 143.554 20.1326H146.25C146.312 20.1326 146.344 20.1755 146.344 20.2615V21.363C146.344 21.8865 146.519 22.3396 146.871 22.7224C147.222 23.0974 147.644 23.2849 148.136 23.2849C148.636 23.2849 149.062 23.0935 149.414 22.7107C149.765 22.3201 149.941 21.8708 149.941 21.363C149.941 20.7771 149.558 20.2654 148.793 19.8279C148.668 19.7498 148.504 19.656 148.301 19.5466C148.105 19.4294 147.871 19.2966 147.597 19.1482C147.324 18.9998 147.058 18.8552 146.801 18.7146C146.543 18.5662 146.293 18.4255 146.051 18.2927C145.176 17.7771 144.523 17.1326 144.094 16.3591C143.672 15.5779 143.461 14.7029 143.461 13.7341C143.461 12.8435 143.679 12.0388 144.117 11.3201C144.554 10.6091 145.125 10.0466 145.828 9.63257C146.539 9.21069 147.308 8.99976 148.136 8.99976C148.988 8.99976 149.769 9.21069 150.48 9.63257C151.191 10.0623 151.758 10.6326 152.179 11.3435C152.609 12.0544 152.824 12.8513 152.824 13.7341V15.7029C152.824 15.7654 152.793 15.7966 152.73 15.7966H150.035C149.972 15.7966 149.941 15.7654 149.941 15.7029L149.918 13.7341C149.918 13.1716 149.742 12.7146 149.39 12.363C149.039 12.0115 148.621 11.8357 148.136 11.8357C147.644 11.8357 147.222 12.0232 146.871 12.3982C146.519 12.7732 146.344 13.2185 146.344 13.7341C146.344 14.2576 146.453 14.6951 146.672 15.0466C146.898 15.3982 147.308 15.7341 147.902 16.0544C147.965 16.0857 148.109 16.1638 148.336 16.2888C148.562 16.4138 148.812 16.5544 149.086 16.7107C149.367 16.8591 149.621 16.9958 149.847 17.1208C150.074 17.238 150.211 17.3083 150.258 17.3318C151.054 17.7771 151.683 18.324 152.144 18.9724C152.613 19.6208 152.847 20.4177 152.847 21.363C152.847 22.2771 152.636 23.0974 152.215 23.824C151.785 24.5505 151.215 25.1248 150.504 25.5466C149.793 25.9685 149.004 26.1794 148.136 26.1794Z" fill="#000"/><path d="M137.32 25.9451H133.019C132.957 25.9451 132.926 25.906 132.926 25.8279L132.972 9.3396C132.972 9.2771 133.004 9.24585 133.066 9.24585H137.683C138.582 9.24585 139.398 9.4646 140.133 9.9021C140.851 10.3396 141.418 10.9216 141.832 11.6482C142.246 12.3669 142.453 13.1482 142.453 13.9919C142.453 14.6794 142.297 15.3201 141.984 15.9138C141.672 16.5076 141.301 16.988 140.871 17.3552C141.332 17.8162 141.691 18.3513 141.949 18.9607C142.207 19.5701 142.336 20.2107 142.336 20.8826C142.336 21.8123 142.113 22.6599 141.668 23.4255C141.215 24.1912 140.609 24.8044 139.851 25.2654C139.094 25.7185 138.25 25.9451 137.32 25.9451ZM137.683 12.0935H135.855V15.8669H137.683C138.238 15.8669 138.687 15.6716 139.031 15.281C139.375 14.8826 139.547 14.4529 139.547 13.9919C139.547 13.4841 139.363 13.0427 138.996 12.6677C138.629 12.2849 138.191 12.0935 137.683 12.0935ZM137.32 18.7732H135.855L135.832 23.0154H137.32C137.898 23.0154 138.394 22.8044 138.808 22.3826C139.222 21.9607 139.429 21.4607 139.429 20.8826C139.429 20.3044 139.222 19.8083 138.808 19.3943C138.394 18.9802 137.898 18.7732 137.32 18.7732Z" fill="#000"/><path d="M126.398 26.1794C125.547 26.1794 124.761 25.9607 124.043 25.5232C123.332 25.0857 122.758 24.5037 122.32 23.7771C121.89 23.0427 121.676 22.238 121.676 21.363L121.699 13.7576C121.699 12.8669 121.914 12.0662 122.344 11.3552C122.765 10.6365 123.336 10.0623 124.054 9.63257C124.773 9.19507 125.554 8.97632 126.398 8.97632C127.273 8.97632 128.058 9.19116 128.754 9.62085C129.457 10.0505 130.019 10.6287 130.441 11.3552C130.871 12.074 131.086 12.8748 131.086 13.7576L131.109 21.363C131.109 22.238 130.898 23.0388 130.476 23.7654C130.047 24.4998 129.476 25.0857 128.765 25.5232C128.054 25.9607 127.265 26.1794 126.398 26.1794ZM126.398 23.2849C126.883 23.2849 127.304 23.0896 127.664 22.699C128.023 22.3005 128.203 21.8552 128.203 21.363L128.179 13.7576C128.179 13.2263 128.011 12.7771 127.676 12.4099C127.34 12.0427 126.914 11.8591 126.398 11.8591C125.906 11.8591 125.484 12.0388 125.133 12.3982C124.781 12.7576 124.605 13.2107 124.605 13.7576V21.363C124.605 21.8865 124.781 22.3396 125.133 22.7224C125.484 23.0974 125.906 23.2849 126.398 23.2849Z" fill="#000"/><path d="M115.465 26.1794C114.582 26.1794 113.781 25.9685 113.062 25.5466C112.351 25.1248 111.789 24.5427 111.375 23.8005C110.969 23.0505 110.765 22.2146 110.765 21.2927V20.1794C110.765 20.1169 110.797 20.0857 110.859 20.0857H113.578C113.64 20.0857 113.672 20.1287 113.672 20.2146V21.2927C113.672 21.8787 113.84 22.3591 114.176 22.7341C114.511 23.1013 114.941 23.2849 115.465 23.2849C115.949 23.2849 116.367 23.0857 116.719 22.6873C117.07 22.281 117.246 21.8162 117.246 21.2927V9.36304C117.246 9.30054 117.277 9.26929 117.34 9.26929H120.035C120.097 9.26929 120.129 9.30835 120.129 9.38647L120.152 21.2927C120.152 22.1677 119.941 22.9763 119.519 23.7185C119.09 24.4685 118.523 25.0662 117.82 25.5115C117.117 25.9568 116.332 26.1794 115.465 26.1794Z" fill="#000"/><path d="M105.285 25.9451H97.5273C97.4648 25.9451 97.4336 25.906 97.4336 25.8279L97.457 9.36304C97.457 9.28491 97.4961 9.24585 97.5742 9.24585H100.246C100.324 9.24585 100.363 9.28491 100.363 9.36304L100.34 22.9919H105.285C105.363 22.9919 105.402 23.031 105.402 23.1091V25.8279C105.402 25.906 105.363 25.9451 105.285 25.9451Z" fill="#000"/><path d="M86.3828 25.8279L89.3594 9.3396C89.375 9.2771 89.4141 9.24585 89.4766 9.24585H92.957C93.0195 9.24585 93.0586 9.2771 93.0742 9.3396L95.9336 25.8279C95.9414 25.906 95.9102 25.9451 95.8398 25.9451H93.1797C93.1016 25.9451 93.0586 25.906 93.0508 25.8279L92.793 24.0701H89.5234L89.2656 25.8279C89.2578 25.906 89.2188 25.9451 89.1484 25.9451H86.4766C86.4141 25.9451 86.3828 25.906 86.3828 25.8279ZM91.082 14.7654L90.0039 21.5037H92.3125L91.3281 14.7654L91.1875 13.8748L91.082 14.7654Z" fill="#000"/><path d="M80.7344 26.1794C79.8672 26.1794 79.0742 25.9607 78.3555 25.5232C77.6445 25.0857 77.0781 24.4998 76.6562 23.7654C76.2422 23.0232 76.0352 22.199 76.0352 21.2927L76.0586 13.8044C76.0586 12.9138 76.2617 12.1091 76.668 11.3904C77.0742 10.6638 77.6328 10.0818 78.3438 9.64429C79.0625 9.19897 79.8594 8.97632 80.7344 8.97632C81.625 8.97632 82.418 9.19116 83.1133 9.62085C83.8164 10.0505 84.375 10.6326 84.7891 11.3669C85.2109 12.0935 85.4219 12.906 85.4219 13.8044V14.906C85.4219 14.9685 85.3906 14.9998 85.3281 14.9998H82.6328C82.5703 14.9998 82.5391 14.9685 82.5391 14.906V13.8044C82.5391 13.2732 82.3672 12.8162 82.0234 12.4333C81.6797 12.0505 81.25 11.8591 80.7344 11.8591C80.1641 11.8591 79.7266 12.0544 79.4219 12.4451C79.1172 12.8357 78.9648 13.2888 78.9648 13.8044V21.2927C78.9648 21.8787 79.1367 22.3591 79.4805 22.7341C79.8242 23.1013 80.2422 23.2849 80.7344 23.2849C81.25 23.2849 81.6797 23.0818 82.0234 22.6755C82.3672 22.2615 82.5391 21.8005 82.5391 21.2927V20.1794C82.5391 20.1169 82.5703 20.0857 82.6328 20.0857H85.3516C85.4141 20.0857 85.4453 20.1169 85.4453 20.1794V21.2927C85.4453 22.1912 85.2344 23.0115 84.8125 23.7537C84.3828 24.488 83.8164 25.0779 83.1133 25.5232C82.4102 25.9607 81.6172 26.1794 80.7344 26.1794Z" fill="#000"/><path d="M69.7891 26.1794C68.9375 26.1794 68.1523 25.9607 67.4336 25.5232C66.7227 25.0857 66.1484 24.5037 65.7109 23.7771C65.2812 23.0427 65.0664 22.238 65.0664 21.363L65.0898 13.7576C65.0898 12.8669 65.3047 12.0662 65.7344 11.3552C66.1562 10.6365 66.7266 10.0623 67.4453 9.63257C68.1641 9.19507 68.9453 8.97632 69.7891 8.97632C70.6641 8.97632 71.4492 9.19116 72.1445 9.62085C72.8477 10.0505 73.4102 10.6287 73.832 11.3552C74.2617 12.074 74.4766 12.8748 74.4766 13.7576L74.5 21.363C74.5 22.238 74.2891 23.0388 73.8672 23.7654C73.4375 24.4998 72.8672 25.0857 72.1562 25.5232C71.4453 25.9607 70.6562 26.1794 69.7891 26.1794ZM69.7891 23.2849C70.2734 23.2849 70.6953 23.0896 71.0547 22.699C71.4141 22.3005 71.5938 21.8552 71.5938 21.363L71.5703 13.7576C71.5703 13.2263 71.4023 12.7771 71.0664 12.4099C70.7305 12.0427 70.3047 11.8591 69.7891 11.8591C69.2969 11.8591 68.875 12.0388 68.5234 12.3982C68.1719 12.7576 67.9961 13.2107 67.9961 13.7576V21.363C67.9961 21.8865 68.1719 22.3396 68.5234 22.7224C68.875 23.0974 69.2969 23.2849 69.7891 23.2849Z" fill="#000"/><path d="M63.6602 25.9451H55.9023C55.8398 25.9451 55.8086 25.906 55.8086 25.8279L55.832 9.36304C55.832 9.28491 55.8711 9.24585 55.9492 9.24585H58.6211C58.6992 9.24585 58.7383 9.28491 58.7383 9.36304L58.7148 22.9919H63.6602C63.7383 22.9919 63.7773 23.031 63.7773 23.1091V25.8279C63.7773 25.906 63.7383 25.9451 63.6602 25.9451Z" fill="#000"/><path d="M39.4198 17.7472V31.4286H41.2879V17.7472C45.7934 17.3077 49.255 13.4615 49.255 8.9011C49.255 4.01099 45.244 0 40.3539 0C35.4637 0 31.4528 4.01099 31.4528 8.9011C31.4528 13.4615 34.9692 17.2527 39.4198 17.7472Z" fill="#EB605F"/></svg>