<svg xmlns="http://www.w3.org/2000/svg" width="281.273" height="155.689" viewBox="0 0 281.273 155.689"><defs><linearGradient id="a" x1=".5" x2=".5" y2="1" gradientUnits="objectBoundingBox"><stop offset="0" stop-color="#b3daf5"/><stop offset="1" stop-color="#fff"/></linearGradient></defs><path d="M0,93.9,11.382,66.4,0,38.889,27.507,27.507,38.889,0,66.4,11.382,93.9,0l11.382,27.507,27.507,11.382L121.409,66.4,132.791,93.9l-27.507,11.382L93.9,132.791,66.4,121.409,38.889,132.791,27.507,105.284Z" transform="rotate(-11 194.365 -639.456)" fill="#fdaa33"/><g transform="rotate(180 110.83 74.063)" fill="#fff" stroke="#b3daf5" stroke-width="5"><rect width="188.139" height="91.907" rx="20" stroke="none"/><rect x="2.5" y="2.5" width="183.139" height="86.907" rx="17.5" fill="none"/></g><path transform="rotate(180 30.275 74.063)" fill="#fff" d="M0 0H28.113V86.501H0z"/><path transform="rotate(180 110.83 74.063)" fill="#fff" d="M0 0H221.658V20.544H0z"/><path transform="translate(216.253 95.144)" fill="url(#a)" d="M0 0H5.406V52.982H0z"/><path transform="rotate(90 20.547 76.767)" fill="url(#a)" d="M0 0H5.406V63.794H0z"/><g transform="translate(112.452 88.657)"><rect width="74" height="57" rx="2" fill="#6ac1fd"/><text transform="translate(11 24)" fill="#fff" font-size="19" font-family="Rubik-MediumItalic, Rubik" font-weight="500" font-style="italic"><tspan x="0" y="0">YOUR</tspan><tspan x="0" y="23">LOGO</tspan></text></g></svg>