<svg width="240" height="18" viewBox="0 0 240 18" fill="none" xmlns="http://www.w3.org/2000/svg"><path d="M234.035 15.9949V5.50911H235.567V9.82911H235.486C235.486 8.29748 235.829 7.17821 236.514 6.4713C237.212 5.7513 238.253 5.3913 239.637 5.3913H240V7.08002H239.314C238.24 7.08002 237.414 7.36148 236.836 7.92439C236.258 8.47421 235.97 9.27275 235.97 10.32V15.9949H234.035Z" fill="#000"/><path d="M226.272 16.3483C225.331 16.3483 224.519 16.1912 223.833 15.877C223.148 15.5629 222.591 15.1505 222.161 14.64C221.731 14.1163 221.409 13.5338 221.194 12.8923C220.992 12.2509 220.892 11.5963 220.892 10.9287V10.5752C220.892 9.8945 220.992 9.23341 221.194 8.59196C221.409 7.9505 221.731 7.3745 222.161 6.86396C222.591 6.34032 223.135 5.92796 223.793 5.62687C224.465 5.31269 225.251 5.15559 226.151 5.15559C227.319 5.15559 228.28 5.40432 229.032 5.90178C229.798 6.38614 230.362 7.0145 230.725 7.78687C231.101 8.55923 231.289 9.38396 231.289 10.261V11.1054H221.738V9.6916H229.878L229.435 10.4574C229.435 9.71123 229.314 9.06978 229.072 8.53305C228.831 7.98323 228.468 7.55778 227.984 7.25669C227.501 6.95559 226.89 6.80505 226.151 6.80505C225.385 6.80505 224.747 6.97523 224.236 7.31559C223.739 7.65596 223.363 8.12069 223.108 8.70978C222.866 9.29887 222.745 9.97959 222.745 10.752C222.745 11.4981 222.866 12.1723 223.108 12.7745C223.363 13.3636 223.753 13.8349 224.277 14.1883C224.801 14.5287 225.466 14.6989 226.272 14.6989C227.118 14.6989 227.803 14.5156 228.327 14.149C228.864 13.7825 229.187 13.357 229.294 12.8727H231.108C230.96 13.5927 230.664 14.2145 230.221 14.7381C229.778 15.2618 229.22 15.661 228.549 15.936C227.877 16.2109 227.118 16.3483 226.272 16.3483Z" fill="#000"/><path d="M217.388 16.1128C216.582 16.1128 215.883 16.0015 215.292 15.779C214.715 15.5564 214.265 15.1768 213.942 14.64C213.633 14.0902 213.479 13.3506 213.479 12.4211V2.32805H215.333V12.6568C215.333 13.2197 215.487 13.6582 215.796 13.9724C216.118 14.2735 216.568 14.424 217.146 14.424H219.04V16.1128H217.388ZM211.625 6.92296V5.50914H219.04V6.92296H211.625Z" fill="#000"/><path d="M208.809 16.1128C208.003 16.1128 207.304 16.0015 206.713 15.779C206.136 15.5564 205.686 15.1768 205.363 14.64C205.054 14.0902 204.9 13.3506 204.9 12.4211V2.32805H206.753V12.6568C206.753 13.2197 206.908 13.6582 207.217 13.9724C207.539 14.2735 207.989 14.424 208.567 14.424H210.461V16.1128H208.809ZM203.046 6.92296V5.50914H210.461V6.92296H203.046Z" fill="#000"/><path d="M196.854 16.3483C195.913 16.3483 195.101 16.1912 194.416 15.877C193.73 15.5629 193.173 15.1505 192.743 14.64C192.313 14.1163 191.991 13.5338 191.776 12.8923C191.574 12.2509 191.474 11.5963 191.474 10.9287V10.5752C191.474 9.8945 191.574 9.23341 191.776 8.59196C191.991 7.9505 192.313 7.3745 192.743 6.86396C193.173 6.34032 193.717 5.92796 194.375 5.62687C195.047 5.31269 195.833 5.15559 196.733 5.15559C197.901 5.15559 198.862 5.40432 199.614 5.90178C200.38 6.38614 200.944 7.0145 201.307 7.78687C201.683 8.55923 201.871 9.38396 201.871 10.261V11.1054H192.32V9.6916H200.461L200.017 10.4574C200.017 9.71123 199.896 9.06978 199.655 8.53305C199.413 7.98323 199.05 7.55778 198.566 7.25669C198.083 6.95559 197.472 6.80505 196.733 6.80505C195.967 6.80505 195.329 6.97523 194.819 7.31559C194.321 7.65596 193.945 8.12069 193.69 8.70978C193.448 9.29887 193.327 9.97959 193.327 10.752C193.327 11.4981 193.448 12.1723 193.69 12.7745C193.945 13.3636 194.335 13.8349 194.859 14.1883C195.383 14.5287 196.048 14.6989 196.854 14.6989C197.7 14.6989 198.385 14.5156 198.909 14.149C199.446 13.7825 199.769 13.357 199.876 12.8727H201.69C201.542 13.5927 201.246 14.2145 200.803 14.7381C200.36 15.2618 199.802 15.661 199.131 15.936C198.459 16.2109 197.7 16.3483 196.854 16.3483Z" fill="#000"/><path fill-rule="evenodd" clip-rule="evenodd" d="M184.19 2.07489H182.296V16.0494H190.337V14.3334H184.19V2.07489Z" fill="#000"/><path d="M172.564 15.9949V5.50911H174.096V9.82911H174.015C174.015 8.29748 174.358 7.17821 175.043 6.4713C175.741 5.7513 176.783 5.3913 178.166 5.3913H178.529V7.08002H177.844C176.769 7.08002 175.943 7.36148 175.365 7.92439C174.788 8.47421 174.499 9.27275 174.499 10.32V15.9949H172.564Z" fill="#000"/><path d="M164.801 16.3483C163.861 16.3483 163.048 16.1912 162.363 15.877C161.678 15.5629 161.12 15.1505 160.69 14.6399C160.26 14.1163 159.938 13.5338 159.723 12.8923C159.522 12.2509 159.421 11.5963 159.421 10.9287V10.5752C159.421 9.89449 159.522 9.2334 159.723 8.59194C159.938 7.95049 160.26 7.37449 160.69 6.86394C161.12 6.34031 161.664 5.92794 162.322 5.62685C162.994 5.31267 163.78 5.15558 164.68 5.15558C165.849 5.15558 166.809 5.40431 167.561 5.90176C168.327 6.38612 168.891 7.01449 169.254 7.78685C169.63 8.55922 169.818 9.38394 169.818 10.261V11.1054H160.267V9.69158H168.408L167.964 10.4574C167.964 9.71122 167.844 9.06976 167.602 8.53303C167.36 7.98322 166.997 7.55776 166.514 7.25667C166.03 6.95558 165.419 6.80503 164.68 6.80503C163.914 6.80503 163.276 6.97522 162.766 7.31558C162.269 7.65594 161.893 8.12067 161.637 8.70976C161.396 9.29885 161.275 9.97958 161.275 10.7519C161.275 11.4981 161.396 12.1723 161.637 12.7745C161.893 13.3636 162.282 13.8349 162.806 14.1883C163.33 14.5287 163.995 14.6989 164.801 14.6989C165.647 14.6989 166.332 14.5156 166.856 14.149C167.394 13.7825 167.716 13.357 167.823 12.8727H169.637C169.489 13.5927 169.194 14.2145 168.75 14.7381C168.307 15.2618 167.75 15.661 167.078 15.9359C166.406 16.2109 165.647 16.3483 164.801 16.3483Z" fill="#000"/><path d="M151.465 15.9948L147.798 5.50902H149.813L153.4 15.9948H151.465ZM151.949 15.9948V14.5025H154.286V15.9948H151.949ZM152.876 15.9948L155.999 5.50902H157.893L154.709 15.9948H152.876Z" fill="#000"/><path d="M140.704 16.3483C139.764 16.3483 138.938 16.1912 138.226 15.877C137.514 15.5629 136.909 15.1505 136.412 14.6399C135.929 14.1163 135.559 13.5338 135.304 12.8923C135.062 12.2509 134.941 11.5963 134.941 10.9287V10.5752C134.941 9.90758 135.069 9.25303 135.324 8.61158C135.579 7.95703 135.956 7.37449 136.453 6.86394C136.95 6.34031 137.554 5.92794 138.266 5.62685C138.978 5.31267 139.791 5.15558 140.704 5.15558C141.618 5.15558 142.43 5.31267 143.142 5.62685C143.854 5.92794 144.459 6.34031 144.956 6.86394C145.453 7.37449 145.829 7.95703 146.084 8.61158C146.34 9.25303 146.467 9.90758 146.467 10.5752V10.9287C146.467 11.5963 146.34 12.2509 146.084 12.8923C145.843 13.5338 145.473 14.1163 144.976 14.6399C144.492 15.1505 143.895 15.5629 143.183 15.877C142.471 16.1912 141.645 16.3483 140.704 16.3483ZM140.704 14.6596C141.51 14.6596 142.195 14.4894 142.76 14.149C143.337 13.7956 143.774 13.3243 144.069 12.7352C144.378 12.1461 144.533 11.485 144.533 10.7519C144.533 10.0058 144.378 9.33813 144.069 8.74903C143.76 8.15994 143.317 7.69522 142.739 7.35485C142.175 7.01449 141.497 6.84431 140.704 6.84431C139.925 6.84431 139.247 7.01449 138.669 7.35485C138.092 7.69522 137.648 8.15994 137.339 8.74903C137.03 9.33813 136.876 10.0058 136.876 10.7519C136.876 11.485 137.024 12.1461 137.319 12.7352C137.628 13.3243 138.065 13.7956 138.629 14.149C139.206 14.4894 139.898 14.6596 140.704 14.6596Z" fill="#000"/><path fill-rule="evenodd" clip-rule="evenodd" d="M127.376 3.32719C126.34 3.32719 125.418 3.51358 124.613 3.89019C123.828 4.2495 123.169 4.74251 122.638 5.36922C122.11 5.97771 121.709 6.66424 121.438 7.42795L121.437 7.42953C121.181 8.17664 121.054 8.9472 121.054 9.74065V10.0614C121.054 10.8398 121.182 11.6101 121.437 12.3717L121.438 12.3741C121.709 13.1375 122.109 13.8385 122.636 14.4767L122.637 14.478C123.168 15.1046 123.826 15.6052 124.611 15.9799L124.614 15.9813C125.42 16.3423 126.357 16.5207 127.423 16.5207C128.475 16.5207 129.428 16.3343 130.279 15.9587L130.281 15.9578C131.13 15.5672 131.823 15.0266 132.354 14.3358C132.905 13.6259 133.211 12.7983 133.275 11.8574L133.285 11.7119H131.318L131.304 11.8332C131.244 12.3572 131.043 12.8379 130.697 13.2773L130.696 13.2796C130.366 13.7179 129.922 14.0708 129.361 14.337C128.819 14.586 128.175 14.713 127.423 14.713C126.442 14.713 125.641 14.4966 125.012 14.0734C124.376 13.6304 123.898 13.0476 123.579 12.3219C123.258 11.5762 123.097 10.7698 123.097 9.90101C123.097 9.01636 123.258 8.2182 123.579 7.5044L123.579 7.50346C123.898 6.7771 124.368 6.21027 124.987 5.79835L124.987 5.79795C125.617 5.37412 126.411 5.15774 127.376 5.15774C128.497 5.15774 129.362 5.43419 129.987 5.97137L129.99 5.97357C130.638 6.50255 131.029 7.16824 131.164 7.97576L131.183 8.0901H133.149L133.134 7.94017C133.038 7.00241 132.732 6.18462 132.215 5.49099C131.698 4.79932 131.021 4.26559 130.186 3.88983C129.365 3.51351 128.428 3.32719 127.376 3.32719Z" fill="#000"/><path d="M112.044 16.368C111.103 16.368 110.277 16.2109 109.565 15.8968C108.867 15.5826 108.282 15.1637 107.812 14.64C107.355 14.1033 107.006 13.5077 106.764 12.8531C106.536 12.1986 106.422 11.5309 106.422 10.8502V10.4771C106.422 9.77021 106.536 9.08949 106.764 8.43494C107.006 7.76731 107.355 7.17821 107.812 6.66767C108.282 6.14403 108.86 5.73167 109.545 5.43058C110.23 5.1164 111.023 4.9593 111.923 4.9593C113.105 4.9593 114.092 5.21458 114.885 5.72512C115.691 6.22258 116.295 6.88367 116.698 7.7084C117.101 8.52003 117.303 9.39712 117.303 10.3397V11.3215H107.611V9.6524H115.55L114.683 10.4771C114.683 9.7964 114.583 9.21385 114.381 8.72949C114.18 8.24512 113.871 7.87203 113.454 7.61021C113.051 7.3484 112.541 7.21749 111.923 7.21749C111.305 7.21749 110.781 7.35494 110.351 7.62985C109.921 7.90476 109.592 8.30403 109.364 8.82767C109.149 9.33822 109.041 9.95349 109.041 10.6735C109.041 11.3411 109.149 11.9368 109.364 12.4604C109.579 12.9709 109.908 13.3768 110.351 13.6779C110.794 13.9659 111.359 14.1099 112.044 14.1099C112.729 14.1099 113.286 13.9789 113.716 13.7171C114.146 13.4422 114.421 13.1084 114.542 12.7157H117.122C116.96 13.4488 116.651 14.0902 116.195 14.64C115.738 15.1899 115.154 15.6153 114.442 15.9164C113.743 16.2175 112.944 16.368 112.044 16.368Z" fill="#000"/><path d="M97.8132 15.9949L94.3877 5.33231H97.2691L100.554 15.9949H97.8132ZM98.6393 15.9949V13.7563H101.601V15.9949H98.6393ZM99.7476 15.9949L102.569 5.33231H105.269L102.307 15.9949H99.7476Z" fill="#000"/><path d="M89.588 15.9949V5.33237H92.3889V15.9949H89.588ZM88.0566 7.37455V5.33237H92.3889V7.37455H88.0566ZM90.6157 4.056C90.0649 4.056 89.6552 3.91855 89.3865 3.64364C89.1313 3.35564 89.0037 3.00219 89.0037 2.58328C89.0037 2.13819 89.1313 1.77819 89.3865 1.50328C89.6552 1.22837 90.0649 1.09091 90.6157 1.09091C91.1665 1.09091 91.5695 1.22837 91.8247 1.50328C92.0799 1.77819 92.2075 2.13819 92.2075 2.58328C92.2075 3.00219 92.0799 3.35564 91.8247 3.64364C91.5695 3.91855 91.1665 4.056 90.6157 4.056Z" fill="#000"/><path d="M85.1415 16.1324C84.134 16.1324 83.3011 16.008 82.6429 15.7593C81.9981 15.4975 81.5145 15.0655 81.1921 14.4633C80.8697 13.848 80.7085 13.0233 80.7085 11.9891L80.7286 2.32803H83.3481L83.328 12.1659C83.328 12.6895 83.469 13.0953 83.7511 13.3833C84.0467 13.6582 84.4631 13.7957 85.0004 13.7957H86.7132V16.1324H85.1415ZM78.9756 7.33531V5.3324H86.7132V7.33531H78.9756Z" fill="#000"/><path d="M72.9438 16.368C71.9901 16.368 71.1639 16.2109 70.4654 15.8968C69.7803 15.5826 69.2027 15.1637 68.7325 14.64C68.2758 14.1164 67.9332 13.5273 67.7049 12.8728C67.4765 12.2182 67.3623 11.5506 67.3623 10.8699V10.4968C67.3623 9.77676 67.4765 9.08949 67.7049 8.43494C67.9467 7.76731 68.3026 7.17821 68.7728 6.66767C69.243 6.14403 69.8206 5.73167 70.5057 5.43058C71.2042 5.1164 72.0102 4.9593 72.9237 4.9593C73.8775 4.9593 74.7305 5.14258 75.4827 5.50912C76.235 5.86258 76.8328 6.36003 77.2761 7.00149C77.7328 7.64294 77.988 8.38912 78.0418 9.24003H75.3215C75.2544 8.69021 75.0126 8.23203 74.5961 7.86549C74.1931 7.49894 73.6357 7.31567 72.9237 7.31567C72.3058 7.31567 71.7886 7.45967 71.3721 7.74767C70.9691 8.03567 70.6669 8.43494 70.4654 8.94549C70.2639 9.44294 70.1632 10.0189 70.1632 10.6735C70.1632 11.3019 70.2572 11.8713 70.4452 12.3819C70.6467 12.8924 70.949 13.2917 71.352 13.5797C71.7684 13.8677 72.299 14.0117 72.9438 14.0117C73.4274 14.0117 73.8439 13.9266 74.1931 13.7564C74.5424 13.5862 74.8178 13.3506 75.0193 13.0495C75.2342 12.7484 75.3686 12.408 75.4223 12.0284H78.1425C78.0888 12.8924 77.8268 13.6517 77.3567 14.3062C76.9 14.9477 76.2887 15.4517 75.523 15.8182C74.7708 16.1848 73.911 16.368 72.9438 16.368Z" fill="#000"/><path d="M60.489 16.368C59.5487 16.368 58.7225 16.2109 58.0106 15.8968C57.312 15.5826 56.7277 15.1637 56.2575 14.64C55.8008 14.1033 55.4515 13.5077 55.2097 12.8531C54.9814 12.1986 54.8672 11.5309 54.8672 10.8502V10.4771C54.8672 9.77021 54.9814 9.08949 55.2097 8.43494C55.4515 7.76731 55.8008 7.17821 56.2575 6.66767C56.7277 6.14403 57.3053 5.73167 57.9904 5.43058C58.6755 5.1164 59.4681 4.9593 60.3681 4.9593C61.5503 4.9593 62.5376 5.21458 63.3302 5.72512C64.1362 6.22258 64.7407 6.88367 65.1437 7.7084C65.5467 8.52003 65.7482 9.39712 65.7482 10.3397V11.3215H56.056V9.6524H63.9951L63.1287 10.4771C63.1287 9.7964 63.0279 9.21385 62.8264 8.72949C62.6249 8.24512 62.316 7.87203 61.8995 7.61021C61.4965 7.3484 60.9861 7.21749 60.3681 7.21749C59.7502 7.21749 59.2263 7.35494 58.7964 7.62985C58.3666 7.90476 58.0374 8.30403 57.8091 8.82767C57.5941 9.33822 57.4867 9.95349 57.4867 10.6735C57.4867 11.3411 57.5941 11.9368 57.8091 12.4604C58.024 12.9709 58.3531 13.3768 58.7964 13.6779C59.2397 13.9659 59.8039 14.1099 60.489 14.1099C61.1741 14.1099 61.7316 13.9789 62.1615 13.7171C62.5913 13.4422 62.8667 13.1084 62.9876 12.7157H65.5668C65.4056 13.4488 65.0967 14.0902 64.6399 14.64C64.1832 15.1899 63.5988 15.6153 62.8869 15.9164C62.1883 16.2175 61.3891 16.368 60.489 16.368Z" fill="#000"/><path d="M41.1352 15.9949V4.9593C41.1352 3.74185 41.4778 2.84512 42.1629 2.26912C42.8614 1.68003 43.889 1.38548 45.2458 1.38548H46.2734V3.48657H45.0443C44.6279 3.48657 44.3055 3.59785 44.0771 3.82039C43.8622 4.02985 43.7547 4.33094 43.7547 4.72366V15.9949H41.1352ZM48.2683 15.9949V5.07712C48.2683 3.85966 48.6108 2.96294 49.2959 2.38694C49.9945 1.79785 51.0221 1.5033 52.3789 1.5033H53.7088V3.60439H52.1774C51.761 3.60439 51.4385 3.71566 51.2102 3.93821C50.9953 4.14766 50.8878 4.44875 50.8878 4.84148V15.9949H48.2683ZM39.7852 7.51203V5.50912H53.8901V7.51203H39.7852Z" fill="#000"/><path fill-rule="evenodd" clip-rule="evenodd" d="M28.7643 11.8829C28.5633 11.3816 28.4361 10.8331 28.3843 10.236H38.3251V9.03273C38.3251 7.97849 38.0989 6.98472 37.6459 6.05403C37.2045 5.11472 36.5179 4.35122 35.5922 3.76514C34.6684 3.15493 33.5013 2.85818 32.1066 2.85818C31.0303 2.85818 30.0794 3.04603 29.2601 3.42908C28.4638 3.79348 27.8018 4.29437 27.278 4.93209C26.7589 5.54888 26.3698 6.2446 26.1107 7.01772L26.1095 7.02159C25.8678 7.79096 25.7471 8.58377 25.7471 9.39928V9.81164C25.7471 10.6123 25.8679 11.3975 26.1095 12.1664L26.1108 12.1703C26.3698 12.9434 26.7587 13.6463 27.2771 14.2778L27.2789 14.2799C27.8039 14.9033 28.482 15.4034 29.3078 15.7821C30.1433 16.1653 31.1254 16.3527 32.2477 16.3527C33.26 16.3527 34.1757 16.1882 34.9908 15.8546C35.8063 15.5209 36.4867 15.0343 37.028 14.3949C37.5706 13.7539 37.9302 12.9948 38.1092 12.1224L38.1628 11.8615H35.5933L35.5551 12.0335C35.4448 12.5307 35.1116 12.9844 34.5171 13.39L34.5149 13.3915C33.9521 13.7853 33.2027 13.992 32.2477 13.992C31.3401 13.992 30.6114 13.8007 30.0462 13.4341C29.4726 13.0467 29.0458 12.5314 28.7643 11.8829ZM35.624 8.15019H28.5038C28.569 7.85095 28.6558 7.5696 28.764 7.30586C29.0465 6.65451 29.4592 6.14692 30.0009 5.77566C30.551 5.40926 31.2482 5.21891 32.1066 5.21891C32.938 5.21891 33.6061 5.38825 34.1253 5.7115C34.649 6.03754 35.0438 6.49851 35.3095 7.10268L35.3103 7.10444C35.4515 7.41773 35.5564 7.766 35.624 8.15019Z" fill="#000"/><path fill-rule="evenodd" clip-rule="evenodd" d="M0 3C0 1.34315 1.34315 0 3 0H13.7916C15.4485 0 16.7916 1.34315 16.7916 3V9.27273H7.8361V18H3C1.34315 18 0 16.6569 0 15V3ZM7.8361 18L16.7916 9.27273V12.5455L11.1944 18H7.8361Z" fill="#000"/></svg>