<svg xmlns="http://www.w3.org/2000/svg" xmlns:xlink="http://www.w3.org/1999/xlink" height="180" viewBox="0 0 28 180" width="28"><svg height="20" viewBox="0 0 20 20" width="20" x="4" y="4" fill="none"><path d="M11.2497 6.66667H9.99967V10.8333L13.5663 12.95L14.1663 11.9417L11.2497 10.2083V6.66667ZM10.833 2.5C8.84388 2.5 6.93623 3.29018 5.52971 4.6967C4.12318 6.10322 3.33301 8.01088 3.33301 10H0.833008L4.13301 13.3583L7.49967 10H4.99967C4.99967 8.4529 5.61426 6.96917 6.70822 5.87521C7.80218 4.78125 9.28591 4.16667 10.833 4.16667C12.3801 4.16667 13.8638 4.78125 14.9578 5.87521C16.0518 6.96917 16.6663 8.4529 16.6663 10C16.6663 11.5471 16.0518 13.0308 14.9578 14.1248C13.8638 15.2188 12.3801 15.8333 10.833 15.8333C9.22467 15.8333 7.76634 15.175 6.71634 14.1167L5.53301 15.3C6.89134 16.6667 8.74967 17.5 10.833 17.5C12.8221 17.5 14.7298 16.7098 16.1363 15.3033C17.5428 13.8968 18.333 11.9891 18.333 10C18.333 8.01088 17.5428 6.10322 16.1363 4.6967C14.7298 3.29018 12.8221 2.5 10.833 2.5Z" fill="#000"/></svg><svg height="18" viewBox="0 0 24 24" width="18" x="4" y="28" fill="none"><path d="M21 7L9 19l-5.5-5.5 1.41-1.41L9 16.17 19.59 5.59 21 7z" fill="#4D72E9"/></svg><svg height="18" viewBox="0 0 24 24" width="18" x="4" y="50" fill="none"><path d="M21 7L9 19l-5.5-5.5 1.41-1.41L9 16.17 19.59 5.59 21 7z" fill="#fff"/></svg><svg height="18" viewBox="0 0 24 24" width="18" x="4" y="72" fill="none"><path d="M21 7L9 19l-5.5-5.5 1.41-1.41L9 16.17 19.59 5.59 21 7z" fill="#000"/></svg><svg height="14" viewBox="0 0 14 14" width="14" x="4" y="94" fill="none"><path d="M13.6663 7.00016C13.6663 8.76827 12.964 10.464 11.7137 11.7142C10.4635 12.9644 8.76778 13.6668 6.99967 13.6668C6.1242 13.6668 5.25729 13.4944 4.44845 13.1594C3.63961 12.8243 2.90469 12.3333 2.28563 11.7142C1.03539 10.464 0.333008 8.76827 0.333008 7.00016C0.333008 5.23205 1.03539 3.53636 2.28563 2.28612C3.53587 1.03587 5.23156 0.333496 6.99967 0.333496C7.87515 0.333496 8.74206 0.505935 9.5509 0.840966C10.3597 1.176 11.0947 1.66706 11.7137 2.28612C12.3328 2.90517 12.8238 3.6401 13.1589 4.44894C13.4939 5.25778 13.6663 6.12468 13.6663 7.00016ZM2.99967 7.66683H8.33301L5.99967 10.0002L6.94634 10.9468L10.893 7.00016L6.94634 3.0535L5.99967 4.00016L8.33301 6.3335H2.99967V7.66683Z" fill="#4B689F"/></svg><svg height="14" viewBox="0 0 14 14" width="14" x="4" y="112" fill="none"><path d="M7 12.6C8.10758 12.6 9.19028 12.2716 10.1112 11.6562C11.0321 11.0409 11.7499 10.1663 12.1737 9.14303C12.5976 8.11976 12.7085 6.99379 12.4924 5.90749C12.2763 4.8212 11.743 3.82338 10.9598 3.0402C10.1766 2.25703 9.1788 1.72368 8.09251 1.5076C7.00621 1.29153 5.88024 1.40242 4.85697 1.82627C3.83371 2.25013 2.95911 2.96789 2.34377 3.88881C1.72843 4.80972 1.4 5.89242 1.4 7C1.4 8.48521 1.99 9.90959 3.0402 10.9598C4.09041 12.01 5.51479 12.6 7 12.6ZM7 0C8.38447 0 9.73785 0.410543 10.889 1.17971C12.0401 1.94888 12.9373 3.04213 13.4672 4.32122C13.997 5.6003 14.1356 7.00776 13.8655 8.36563C13.5954 9.7235 12.9287 10.9708 11.9497 11.9497C10.9708 12.9287 9.7235 13.5954 8.36563 13.8655C7.00776 14.1356 5.6003 13.997 4.32122 13.4672C3.04213 12.9373 1.94888 12.0401 1.17971 10.889C0.410543 9.73785 0 8.38447 0 7C0 5.14348 0.737498 3.36301 2.05025 2.05025C3.36301 0.737498 5.14348 0 7 0ZM7.35 3.5V7.175L10.5 9.044L9.975 9.905L6.3 7.7V3.5H7.35Z" fill="#65779B"/></svg><svg height="12" viewBox="0 0 14 12" width="14" x="4" y="130" fill="none"><path d="M5.833 0V1.318L7 2.094V1.167H12.833V9.917H9.917V11.084H14V0H5.833ZM4.375 1.75L0 4.667V11.084H8.75V4.667L4.375 1.75ZM8.167 2.333V2.876L9.106 3.5H9.333V2.333H8.167ZM10.5 2.333V3.5H11.667V2.333H10.5ZM4.375 3.208L7.583 5.25V9.917H5.833V6.417H2.917V9.917H1.167V5.25L4.375 3.208ZM10.5 4.667V5.833H11.667V4.667H10.5ZM10.5 7V8.167H11.667V7H10.5Z" fill="#65779B"/></svg><svg height="14" viewBox="0 0 10 14" width="10" x="4" y="146" fill="none"><path d="M4.9 3.15C5.24612 3.15 5.58446 3.25264 5.87225 3.44493C6.16003 3.63722 6.38434 3.91053 6.51679 4.2303C6.64924 4.55007 6.6839 4.90194 6.61637 5.24141C6.54885 5.58087 6.38218 5.89269 6.13744 6.13744C5.89269 6.38218 5.58087 6.54885 5.24141 6.61637C4.90194 6.6839 4.55007 6.64924 4.2303 6.51679C3.91053 6.38434 3.63722 6.16003 3.44493 5.87225C3.25264 5.58446 3.15 5.24612 3.15 4.9C3.15 4.43587 3.33437 3.99075 3.66256 3.66256C3.99075 3.33437 4.43587 3.15 4.9 3.15ZM4.9 0C6.19956 0 7.4459 0.516249 8.36482 1.43518C9.28375 2.3541 9.8 3.60044 9.8 4.9C9.8 8.575 4.9 14 4.9 14C4.9 14 0 8.575 0 4.9C0 3.60044 0.516249 2.3541 1.43518 1.43518C2.3541 0.516249 3.60044 0 4.9 0ZM4.9 1.4C3.97174 1.4 3.0815 1.76875 2.42513 2.42513C1.76875 3.0815 1.4 3.97174 1.4 4.9C1.4 5.6 1.4 7 4.9 11.7C8.4 7 8.4 5.6 8.4 4.9C8.4 3.97174 8.03125 3.0815 7.37487 2.42513C6.7185 1.76875 5.82826 1.4 4.9 1.4Z" fill="#65779B"/></svg><svg height="12" viewBox="0 0 8 12" width="8" x="4" y="164" fill="none"><path d="M0.580078 10.59L5.17008 6L0.580078 1.41L2.00008 -6.20702e-08L8.00008 6L2.00008 12L0.580078 10.59Z" fill="#4C689C"/></svg></svg>