<svg xmlns="http://www.w3.org/2000/svg" width="239.202" height="158.722" viewBox="0 0 239.202 158.722"><defs><linearGradient id="a" x1=".5" x2=".5" y2="1" gradientUnits="objectBoundingBox"><stop offset="0" stop-color="#b3daf5"/><stop offset="1" stop-color="#fff"/></linearGradient></defs><path d="M66.687,0A66.505,66.505,0,1,1,0,66.505,66.6,66.6,0,0,1,66.687,0Z" fill="#e0f2ff"/><g fill="#fff" stroke="#b3daf5" stroke-width="5" transform="translate(52.556 44.601)"><rect width="185.579" height="114.12" rx="20" stroke="none"/><rect x="2.5" y="2.5" width="180.579" height="109.12" rx="17.5" fill="none"/></g><g transform="translate(79.22 71.265)"><rect width="109" height="34" rx="2" fill="#fae7cd"/><text transform="translate(11 24)" fill="#ff5800" font-size="19" font-family="Rubik-Medium, Rubik" font-weight="500"><tspan x="0" y="0">PREMIUM</tspan></text></g><path transform="translate(211.471 49.934)" fill="#fff" d="M0 0H27.73V88.523H0z"/><path transform="translate(52.556 138.457)" fill="#fff" d="M0 0H186.646V20.264H0z"/><path transform="translate(52.556 91.529)" fill="url(#a)" d="M0 0H5.333V52.261H0z"/><path transform="rotate(-90 117.904 -67.97)" fill="url(#a)" d="M0 0H5.333V52.261H0z"/></svg>