<svg xmlns="http://www.w3.org/2000/svg" width="219.997" height="103.77" viewBox="0 0 219.997 103.77"><path d="M16.432,26.288a9.857,9.857,0,1,1,9.857,9.857,9.988,9.988,0,0,1-9.857-9.857m9.857,29.571,13.143,3.286V49.025a24.774,24.774,0,0,1-13.143,3.549,24.774,24.774,0,0,1-13.143-3.549v10.12M26.289,6.574a18.991,18.991,0,0,0-13.931,5.717,18.991,18.991,0,0,0-5.783,14,18.991,18.991,0,0,0,5.783,13.9A18.991,18.991,0,0,0,26.289,46,18.991,18.991,0,0,0,40.22,40.186,18.991,18.991,0,0,0,46,26.288a18.991,18.991,0,0,0-5.783-14A18.991,18.991,0,0,0,26.289,6.574M52.574,26.288a26.417,26.417,0,0,1-1.873,9.2A25.76,25.76,0,0,1,46,43.636V69L26.289,62.43,6.575,69V43.636A25.957,25.957,0,0,1,0,26.288,25.234,25.234,0,0,1,7.659,7.757,25.4,25.4,0,0,1,26.289,0a25.4,25.4,0,0,1,18.63,7.754,25.234,25.234,0,0,1,7.656,18.531Z" transform="rotate(-25.97 132.233 -294.832)" fill="#5d9cfa"/><path d="M47.109,52.968l-14-8.442-14,8.442,3.708-15.924L10.461,26.352l16.288-1.39,6.356-15.03,6.356,15,16.288,1.39L43.4,37.011l3.708,15.957M33.105,0A33.105,33.105,0,1,0,66.21,33.105,33.138,33.138,0,0,0,33.105,0Z" transform="rotate(17 -25.61 70.038)" fill="#73a9fa"/><path d="M95.393,2H12.377A10.377,10.377,0,0,0,2,12.377V74.639A10.377,10.377,0,0,0,12.377,85.016H33.131L53.885,105.77,74.639,85.016H95.393A10.377,10.377,0,0,0,105.77,74.639V12.377A10.377,10.377,0,0,0,95.393,2M53.885,13.934A14.009,14.009,0,1,1,39.876,27.942,13.951,13.951,0,0,1,53.885,13.934M85.016,69.45H22.754v-4.67C22.754,54.4,43.508,48.7,53.885,48.7S85.016,54.4,85.016,64.781Z" transform="translate(57.019 -2)" fill="#fd9500"/></svg>