<svg id="google-icon" xmlns="http://www.w3.org/2000/svg" width="15.96" height="16.286" viewBox="0 0 15.96 16.286"><path d="M138.367,108.426a6.978,6.978,0,0,0-.172-1.665H130.55v3.022h4.488a3.979,3.979,0,0,1-1.665,2.642l-.015.1,2.417,1.873.167.017a7.962,7.962,0,0,0,2.425-5.99" transform="translate(-122.407 -100.102)" fill="#4285f4"/><path d="M21.2,162.9a7.761,7.761,0,0,0,5.393-1.972l-2.57-1.991a4.82,4.82,0,0,1-2.823.814,4.9,4.9,0,0,1-4.633-3.384l-.1.008-2.514,1.945-.033.091A8.137,8.137,0,0,0,21.2,162.9" transform="translate(-13.056 -146.616)" fill="#34a853"/><path d="M3.511,76.618a5.013,5.013,0,0,1-.271-1.611A5.268,5.268,0,0,1,3.5,73.4l0-.108L.952,71.312l-.083.04a8.126,8.126,0,0,0,0,7.311l2.642-2.045" transform="translate(0 -66.864)" fill="#fbbc05"/><path d="M21.2,3.149a4.513,4.513,0,0,1,3.149,1.212l2.3-2.244A7.824,7.824,0,0,0,21.2,0a8.137,8.137,0,0,0-7.274,4.488l2.633,2.045A4.922,4.922,0,0,1,21.2,3.149" transform="translate(-13.056)" fill="#eb4335"/></svg>