<svg xmlns="http://www.w3.org/2000/svg" viewBox="0 0 720 300"><defs><style>.cls-2{fill:#757575}.cls-3{fill:#e4e4e4}</style></defs><path fill="#fff" d="M0 0H720V300H0z"/><path class="cls-2" d="M7.55,295.66a.3.3,0,0,1-.2-.08.27.27,0,0,1-.07-.2v-6.72l-2,1.54a.25.25,0,0,1-.2.06.29.29,0,0,1-.18-.11l-.31-.4a.29.29,0,0,1-.06-.21.28.28,0,0,1,.12-.18l2.61-2a.43.43,0,0,1,.16-.07h.77a.25.25,0,0,1,.19.07.29.29,0,0,1,.07.2v7.85a.27.27,0,0,1-.07.2.26.26,0,0,1-.19.08Z"/><path class="cls-2" d="M222.1,296.1a.24.24,0,0,1-.27-.27v-6.72l-2,1.53a.25.25,0,0,1-.2.06.24.24,0,0,1-.18-.1l-.31-.4a.3.3,0,0,1-.06-.22.31.31,0,0,1,.12-.18l2.61-2a.31.31,0,0,1,.16-.07l.15,0h.62a.26.26,0,0,1,.19.08.27.27,0,0,1,.07.2v7.85a.29.29,0,0,1-.07.2.25.25,0,0,1-.19.07Z"/><path class="cls-2" d="M227.73,296.22a3.44,3.44,0,0,1-1.4-.25,2.48,2.48,0,0,1-.93-.72,2.91,2.91,0,0,1-.52-1,5.54,5.54,0,0,1-.19-1.25c0-.22,0-.44,0-.68v-.73c0-.24,0-.48,0-.7a4.74,4.74,0,0,1,.19-1.26,2.93,2.93,0,0,1,.53-1,2.31,2.31,0,0,1,.93-.71,3.38,3.38,0,0,1,1.39-.26,3.43,3.43,0,0,1,1.4.26,2.46,2.46,0,0,1,.93.71,3.1,3.1,0,0,1,.53,1,4.74,4.74,0,0,1,.19,1.26c0,.22,0,.46,0,.7s0,.49,0,.73,0,.46,0,.68a4.6,4.6,0,0,1-.19,1.25,3.1,3.1,0,0,1-.53,1,2.37,2.37,0,0,1-.92.72A3.46,3.46,0,0,1,227.73,296.22Zm0-1a1.59,1.59,0,0,0,1.38-.61,2.85,2.85,0,0,0,.47-1.69c0-.23,0-.46,0-.68v-.66c0-.22,0-.44,0-.65a2.84,2.84,0,0,0-.47-1.68,1.83,1.83,0,0,0-2.76,0,3,3,0,0,0-.47,1.68v.65q0,.33,0,.66v.68a3,3,0,0,0,.48,1.69A1.59,1.59,0,0,0,227.73,295.2Z"/><path class="cls-2" d="M463.91,296.24a.24.24,0,0,1-.27-.27v-.39a.6.6,0,0,1,.06-.24,1,1,0,0,1,.24-.29l2.54-2.54c.41-.34.73-.64,1-.88a2.79,2.79,0,0,0,.5-.7,1.73,1.73,0,0,0,.15-.7,1.37,1.37,0,0,0-1.52-1.49,1.67,1.67,0,0,0-.83.2,1.43,1.43,0,0,0-.55.54,2.19,2.19,0,0,0-.26.77.26.26,0,0,1-.12.22.38.38,0,0,1-.19.06H464a.24.24,0,0,1-.18-.07.19.19,0,0,1-.07-.16,2.57,2.57,0,0,1,.19-.92,2.72,2.72,0,0,1,.53-.83,2.64,2.64,0,0,1,.88-.6,2.89,2.89,0,0,1,1.22-.24,3.21,3.21,0,0,1,1.55.34,2.16,2.16,0,0,1,.89.91,2.58,2.58,0,0,1,.29,1.24,2.49,2.49,0,0,1-.18,1,3.19,3.19,0,0,1-.52.85,6.81,6.81,0,0,1-.85.85l-2.3,2.34h3.74a.28.28,0,0,1,.21.07.25.25,0,0,1,.08.21V296a.26.26,0,0,1-.08.2.28.28,0,0,1-.21.07Z"/><path class="cls-2" d="M473.9,296.36a3.41,3.41,0,0,1-1.4-.25,2.48,2.48,0,0,1-.93-.72,2.75,2.75,0,0,1-.52-1,5.54,5.54,0,0,1-.19-1.25c0-.22,0-.44,0-.68v-.73c0-.24,0-.48,0-.7a4.74,4.74,0,0,1,.19-1.26,3.08,3.08,0,0,1,.52-1,2.46,2.46,0,0,1,.93-.71,3.46,3.46,0,0,1,1.4-.26,3.38,3.38,0,0,1,1.39.26,2.46,2.46,0,0,1,.93.71,3.12,3.12,0,0,1,.54,1,4.73,4.73,0,0,1,.18,1.26c0,.22,0,.46,0,.7s0,.48,0,.73,0,.46,0,.68a4.6,4.6,0,0,1-.18,1.25,3.1,3.1,0,0,1-.53,1,2.45,2.45,0,0,1-.92.72A3.46,3.46,0,0,1,473.9,296.36Zm0-1a1.59,1.59,0,0,0,1.38-.61,2.85,2.85,0,0,0,.46-1.69c0-.23,0-.46,0-.68v-.66c0-.22,0-.44,0-.65a2.83,2.83,0,0,0-.46-1.68,1.83,1.83,0,0,0-2.76,0,2.91,2.91,0,0,0-.47,1.68c0,.21,0,.43,0,.65v.66c0,.22,0,.45,0,.68a2.85,2.85,0,0,0,.48,1.69A1.59,1.59,0,0,0,473.9,295.34Z"/><path class="cls-2" d="M706.67,295.36a4.39,4.39,0,0,1-1.32-.18,3,3,0,0,1-1-.5,2.42,2.42,0,0,1-.58-.68,1.81,1.81,0,0,1-.21-.77.21.21,0,0,1,.07-.17.28.28,0,0,1,.18-.06h.59a.38.38,0,0,1,.19.05.36.36,0,0,1,.15.2,1.24,1.24,0,0,0,.41.67,1.66,1.66,0,0,0,.68.33,3.55,3.55,0,0,0,.79.09A2.15,2.15,0,0,0,708,294a1.39,1.39,0,0,0,.52-1.17,1.24,1.24,0,0,0-.47-1.11,2.13,2.13,0,0,0-1.29-.34h-1.14a.27.27,0,0,1-.2-.07.29.29,0,0,1-.08-.21v-.32a.58.58,0,0,1,0-.19l.09-.13,2.33-2.55h-3.54a.24.24,0,0,1-.27-.27v-.46a.26.26,0,0,1,.27-.29h4.79a.27.27,0,0,1,.29.29v.43a.25.25,0,0,1-.05.15.38.38,0,0,1-.09.13l-2.31,2.58h.19a3.69,3.69,0,0,1,1.39.29,2.13,2.13,0,0,1,.92.78,2.44,2.44,0,0,1,.33,1.32,2.29,2.29,0,0,1-.4,1.37,2.44,2.44,0,0,1-1.09.87A3.92,3.92,0,0,1,706.67,295.36Z"/><path class="cls-2" d="M714.11,295.36a3.44,3.44,0,0,1-1.4-.25,2.48,2.48,0,0,1-.93-.72,2.91,2.91,0,0,1-.52-1,5,5,0,0,1-.18-1.25c0-.22,0-.44,0-.68s0-.49,0-.73,0-.48,0-.7a4.36,4.36,0,0,1,.18-1.26,3.1,3.1,0,0,1,.53-1,2.31,2.31,0,0,1,.93-.71,3.87,3.87,0,0,1,2.79,0,2.46,2.46,0,0,1,.93.71,2.93,2.93,0,0,1,.53,1,4.74,4.74,0,0,1,.19,1.26c0,.22,0,.46,0,.7v.73c0,.24,0,.46,0,.68a4.6,4.6,0,0,1-.19,1.25,3.08,3.08,0,0,1-.52,1,2.48,2.48,0,0,1-.93.72A3.46,3.46,0,0,1,714.11,295.36Zm0-1a1.6,1.6,0,0,0,1.39-.61A2.92,2.92,0,0,0,716,292c0-.23,0-.46,0-.68v-.66c0-.22,0-.44,0-.65a2.91,2.91,0,0,0-.46-1.68,1.83,1.83,0,0,0-2.76,0,3,3,0,0,0-.48,1.68v.65q0,.33,0,.66V292a3,3,0,0,0,.48,1.69A1.6,1.6,0,0,0,714.11,294.34Z"/><path class="cls-3" d="M0 65H720V67H0z"/><path class="cls-3" d="M0 15H720V17H0z"/><path class="cls-3" d="M0 115H720V117H0z"/><path class="cls-3" d="M0 165H720V167H0z"/><path class="cls-3" d="M0 215H720V217H0z"/><path class="cls-3" d="M0 265H720V267H0z"/><path d="M.28,25.84S11.8,7.5,21.25,7.5,44.85,41.33,68.46,60s56.65,22.17,67.28,56,46,92.17,46,92.17,16,40.37,71.75,40.37,87.59,5.13,115.92,5.13S483.93,256,504,256H615.78C648,256,720,259.5,720,259.5V263H0Z" fill="#f2d794"/></svg>