<svg xmlns="http://www.w3.org/2000/svg" width="272.485" height="190.84" viewBox="0 0 272.485 190.84"><g transform="translate(-877.033 -1544.37)"><path id="chat-processing" d="M31.652,0C14.243,0,0,11.331,0,25.322S14.243,50.643,31.652,50.643a40.042,40.042,0,0,0,11.173-1.583A34.6,34.6,0,0,0,63.3,56.974C55.929,49.6,54.758,44.629,54.6,42.73c5.381-4.526,8.7-10.667,8.7-17.409C63.3,11.331,49.061,0,31.652,0M15.826,28.487v-6.33h6.33v6.33h-6.33m12.661,0v-6.33h6.33v6.33h-6.33m12.661,0v-6.33h6.33v6.33Z" transform="rotate(1 -93331.743 51124.347)" fill="#fd9500"/><circle id="Эллипс_86" data-name="Эллипс 86" cx="81.386" cy="81.386" r="81.386" transform="rotate(11 -7546.284 5686.181)" fill="#fff"/><path id="chat-processing-2" data-name="chat-processing" d="M39.483,0C61.2,0,78.965,14.135,78.965,31.586S61.2,63.172,39.483,63.172A49.948,49.948,0,0,1,25.545,61.2,43.166,43.166,0,0,1,0,71.069c9.2-9.2,10.66-15.4,10.858-17.767C4.146,47.655,0,40,0,31.586,0,14.135,17.767,0,39.483,0M59.224,35.534v-7.9h-7.9v7.9h7.9m-15.793,0v-7.9h-7.9v7.9h7.9m-15.793,0v-7.9h-7.9v7.9Z" transform="rotate(11 -7688.713 6358.544)" fill="#fd9500"/><path id="account-heart" d="M74.85,54.971c-14.435,0-42.772,7.146-42.772,21.989V87.954h85.543V76.96c0-14.842-28.336-21.989-42.772-21.989m0-10.994c11.811,0,21.386-9.845,21.386-21.989S86.661,0,74.85,0,53.464,9.845,53.464,21.989,63.039,43.977,74.85,43.977M21.386,60.469,18.178,57.72C7.485,47.275,0,40.679,0,32.433A12.037,12.037,0,0,1,11.762,20.339a12.373,12.373,0,0,1,9.624,4.4,12.373,12.373,0,0,1,9.624-4.4A11.692,11.692,0,0,1,42.772,32.433c0,8.246-7.485,14.842-18.178,25.287Z" transform="rotate(6.02 -14613.761 9825.6)" fill="#73a9fa"/></g></svg>