<svg xmlns="http://www.w3.org/2000/svg" width="355.273" height="167.578" viewBox="0 0 355.273 167.578"><g transform="translate(-526.807 -86)"><path id="license" d="M26.536,42.452A15.918,15.918,0,1,1,42.454,58.37,16.13,16.13,0,0,1,26.536,42.452M42.454,90.207l21.224,5.306V79.17A40.008,40.008,0,0,1,42.454,84.9,40.007,40.007,0,0,1,21.23,79.17V95.513m21.224-84.9a30.669,30.669,0,0,0-22.5,9.232,30.669,30.669,0,0,0-9.339,22.6A30.669,30.669,0,0,0,19.956,64.9a30.669,30.669,0,0,0,22.5,9.392,30.669,30.669,0,0,0,22.5-9.392A30.669,30.669,0,0,0,74.29,42.452a30.669,30.669,0,0,0-9.339-22.6,30.669,30.669,0,0,0-22.5-9.232M84.9,42.452a42.66,42.66,0,0,1-3.024,14.857A41.6,41.6,0,0,1,74.29,70.468v40.963L42.454,100.819,10.618,111.431V70.468A41.918,41.918,0,0,1,.006,42.452,40.75,40.75,0,0,1,12.369,12.526,41.016,41.016,0,0,1,42.454,0,41.016,41.016,0,0,1,72.539,12.526,40.75,40.75,0,0,1,84.9,42.452Z" transform="rotate(-25.97 663.32 -1575.163)" fill="#5d9cfa"/><path id="star-circle" d="M76.076,85.538,53.461,71.906,30.847,85.538l5.988-25.715L16.894,42.555,43.2,40.31,53.461,16.038,63.726,40.256l26.3,2.245L70.088,59.77l5.988,25.768M53.461,0a53.461,53.461,0,1,0,53.461,53.461A53.515,53.515,0,0,0,53.461,0Z" transform="rotate(17 -65.671 1918.577)" fill="#73a9fa"/><path id="tooltip-account" d="M152.82,2H18.758A16.758,16.758,0,0,0,2,18.758V119.3a16.758,16.758,0,0,0,16.758,16.758H52.273l33.516,33.516L119.3,136.062H152.82A16.758,16.758,0,0,0,169.578,119.3V18.758A16.758,16.758,0,0,0,152.82,2M85.789,21.271A22.623,22.623,0,1,1,63.166,43.894,22.529,22.529,0,0,1,85.789,21.271m50.273,89.654H35.516v-7.541c0-16.758,33.516-25.975,50.273-25.975s50.273,9.217,50.273,25.975Z" transform="translate(620.117 84)" fill="#fd9500"/></g></svg>