<svg xmlns="http://www.w3.org/2000/svg" width="25.941" height="25.941" viewBox="0 0 25.941 25.941"><path d="M12.97,25.941A12.97,12.97,0,1,0,0,12.97,12.97,12.97,0,0,0,12.97,25.941Z" fill="#34aadf"/><path d="M87.618,151.338s6.485-2.662,8.734-3.6c.862-.375,3.786-1.574,3.786-1.574s1.35-.525,1.237.75c-.038.525-.337,2.362-.637,4.348-.45,2.812-.937,5.885-.937,5.885s-.075.862-.712,1.012a3.083,3.083,0,0,1-1.874-.675c-.15-.112-2.812-1.8-3.786-2.624a.71.71,0,0,1,.037-1.2c1.35-1.237,2.961-2.774,3.936-3.749.45-.45.9-1.5-.975-.225-2.662,1.837-5.286,3.561-5.286,3.561a2.2,2.2,0,0,1-1.724.037c-1.125-.337-2.437-.787-2.437-.787S86.082,151.938,87.618,151.338Z" transform="translate(-82.22 -138.48)" fill="#fff"/></svg>