<svg xmlns="http://www.w3.org/2000/svg" width="257" height="168" fill="none"><g clip-path="url(#A)"><path d="M191.966 118.644c-.319.118-.91.128-1.282.213-5.377 1.245-13.185.682-18.903.855l-28.405 1.071c-8.528.177-17.404-.432-25.865-.017-3.978.196-7.983 1.074-11.956 1.285-4.316.23-8.983.117-13.35.215l-5.981.213c-.782.011-1.568-.011-2.35 0l-30.548.213c-2.974.009-6.135.136-9.087.009-.626-.028-1.339-.167-2.021-.222-.491-.04-1.006.047-1.495 0-.923-.089-2.138-.524-3.123-.613-6.336-.574-12.653-.348-18.995-.657-3.328-.162-9.446-.364-12.042-2.477-6.864-5.588-4.774-21.2-5.138-29.176C1.108 82.545.277 75.526.125 68.485.001 62.626-.753 52.552 3.763 48.229c5.674-5.43 13.778-5.254 21.054-5.633l64.94-2.983c31.667-.884 65.735-3.718 97.186-.432 3.297.345 7.836.703 9.9 3.549 3.052 4.214 3.43 17.961 4.122 23.583 1.214 9.857 3.969 20.368 2.72 30.249-.885 6.994-4.302 19.318-11.719 22.079v.002zm-57.295-77.27c-26.154 1.51-52.307 1.487-78.462 2.919l-31.178 1.715c-4.514.234-8.673.051-13.095 1.427-2.493.776-6.579 3.202-7.419 5.81-.427 1.329-.256 1.996-.85 3.413-.38.91-.162 9.876-.122 11.613l.444 6.161-.017 5.343c1.572 8.858.444 17.951 1.079 26.832.278 3.888 1.805 9.567 6.144 10.49 6.259 1.329 14.75.579 21.3.914 4.074.206 8.105 1.097 12.17 1.284 5.678.262 11.441-.209 17.087-.232 14.37-.062 28.856.279 43.17-.407 4.119-.198 8.257-1.093 12.373-1.295 10.668-.524 21.941.053 32.701-.196l26.275-.852c3.636-.105 12.084.204 14.983-1.249 7.718-3.864 10.051-20.603 9.229-28.242-.921-8.532-2.572-17.058-3.604-25.592-.575-4.751-.489-9.506-1.816-14.167-.831-2.921-1.781-3.466-4.727-4.02-7.68-1.444-17.902-1.314-25.831-1.508-.506-.013-.972-.219-1.478-.23l-28.358.072.002-.002z" fill="#1b70fe"/><path d="M191.965 118.645l2.561 18.855c-.408 8.712-1.717 21.43-12.699 22.056-8.78.503-18.087.394-26.933.622-8.159.211-16.714-.194-24.78.213-3.202.162-6.633.904-9.82 1.072-7.248.383-14.573.194-21.779.207-9.568.017-19.102.732-28.631.006-3.849-.292-7.656-.684-11.529-.859-3.127-.142-10.333.309-12.789-1.306-5.101-3.351-3.552-14.169-3.766-19.465-.126-3.116-.714-6.259-.861-9.367-.128-2.72.258-5.526-.216-8.2.489.047 1.004-.04 1.495 0 .094 2.512-.122 5.06-.009 7.572.147 3.246.746 6.525.872 9.782.164 4.252-1.183 16.768 3.567 18.811 2.685 1.155 9.038.759 12.133.895 4.719.207 9.406.848 14.082 1.082 4.828.243 9.73-.208 14.524-.232 10.73-.053 21.817.373 32.478-.204 3.203-.173 6.629-.904 9.821-1.072 6.583-.349 13.481.271 20.097.017 10.512-1.001 21.554-.187 32.043-.852 9.982-.633 10.954-12.997 11.418-20.778l-2.562-18.642c.372-.086.964-.096 1.282-.213z" fill="#d5deee"/><path d="M64.765 22.661c-.192-.194-.297-.16-.446-.509-.472-1.11-1.228-3.873-1.5-5.117-.367-1.681-.468-3.671-.795-5.386-.387-2.035-1.245-4.201-1.384-6.291-.041-.611.338-3.507.635-3.839.085-.096.44-.055.562-.173 1.208-1.154 1.4-1.708 3.28-1.09 2.512.827 2.01 4.288 2.328 6.41l1.273 9.595c.258 2.018 1.053 2.936.301 5.234-.669 2.043-2.732 2.703-4.26 1.165h.004zM45.566 10.06c2.104 2.503 3.371 10.993 4.396 14.47.436 1.479 1.611 2.706 1.053 4.365-.511 1.519-2.651 1.495-3.424.132L40.343 13.46c.073-.656-.265-1.628-.173-2.201.352-2.19 3.892-2.989 5.396-1.199z" fill="#030303"/><path d="M86.59 13.466c.867.714.651 2.414.933 3.426-.959.232-.756.663-1.075 1.04-1.686 1.992-1.707 3.781-2.239 6.136-.162.722-.683 1.434-.75 2.256-.038.469.209 1.042.169 1.229-.019.083-1.126 1.146-1.203 1.182-1.213.575-3.177.121-3.454-1.387-.162-.884-.026-2.974.055-3.973.207-2.531 1.045-8.332 3.185-9.81 1.218-.841 3.189-1.076 4.379-.098h-.002z" fill="#030304"/><path d="M134.67 41.374l28.358-.072c.504.011.972.217 1.478.23 7.93.194 18.151.064 25.831 1.508 2.946.554 3.896 1.099 4.727 4.02 1.327 4.659 1.241 9.416 1.816 14.167 1.034 8.534 2.685 17.06 3.604 25.592.822 7.637-1.51 24.376-9.228 28.243-2.899 1.453-11.35 1.144-14.984 1.248l-26.275.852c-10.76.249-22.033-.328-32.701.196-4.114.203-8.254 1.1-12.373 1.295-14.314.686-28.8.346-43.17.407-5.646.024-11.409.495-17.087.233-4.065-.188-8.096-1.078-12.17-1.285-6.552-.334-15.041.415-21.3-.914-4.339-.92-5.866-6.602-6.144-10.49-.634-8.881.491-17.974-1.079-26.832l.017-5.343-.444-6.161c-.041-1.736-.258-10.703.122-11.613.592-1.417.421-2.086.85-3.413.84-2.608 4.926-5.034 7.419-5.809 4.422-1.374 8.581-1.193 13.095-1.427l31.178-1.715c26.156-1.432 52.309-1.408 78.462-2.919l-.002.002zm26.696 17.032c-.609-.603-5.221-.055-6.454-.043l-11.323.213c-3.747.062-7.415-.062-11.119-.011-1.079.205-2.288 4.423-.223 4.698 3.602.481 8.261-.386 11.982 0 5.471-1.021 13.508 1.008 18.419-1.229.506-.23.873-1.596.598-1.983-.139-.198-1.038-.403-1.391-.752-.303-.303-.322-.727-.491-.893h.002zm-94.341 5.032c-.664-1.14-.126-3.1-1.444-3.779-.649-.334-4.377-.827-5.306-.886-5.084-.335-9.965.469-14.953.656-5.798.217-12.012-.113-17.735.422-3.108.29-5.862 2.52-7.032 5.343-.656 1.581-.113 2.286-.109 3.707.015 4.31-.782 8.947-.455 13.43.173 2.371.927 5.015 1.075 7.45s-.226 4.636.276 6.968c.449 2.084 2.437 6.421 4.766 6.751 3.975.563 9.333-.13 13.447.224 7.246.302 15.197.907 22.43.443 2.924-.188 4.048-.482 5.4-3.136 3.106-6.089 1.096-12.897 1.102-19.348L66.98 64.014l3.858-.55c.028-.469.081-.394-.323-.432-.782-.077-3.05.69-3.493.405l.002.002zm59.305-4.391c-.739-.722-6.772.3-8.175.371-2.555.126-5.157-.243-7.68.224l-21.539-.013c-1.051.933-2.019 4.438-.056 4.7 11.789-.2 23.62.518 35.292-.846.923-.109 2.129.251 3.071-.584-.222-.601.048-2.086-.044-2.48a20.38 20.38 0 0 0-.872-1.374l.002.002zm21.067 14.146c-.474-.874.077-1.076-1.457-1.214-5.229-.475-12.332.807-17.732 1.084-1.453.075-3.612-.245-4.915-.002-1.494.277-2.015 4.429-.648 4.68 2.418-.083 4.858.109 7.274.011 4.544-.185 9.154-.756 13.663-1.074.782-.055 3.704.275 3.914-.358a23.54 23.54 0 0 0 .388-2.128c.047-.78-.356-.756-.489-.999h.002zm7.78-1.142c-.739.045-2.04.04-2.627.149-1.169.217-1.82 4.435-.427 4.689l30.122-.211c.282-.009.395-.102.491-.362.543-1.453.737-4.129-1.343-4.331-8.641.337-17.615-.46-26.218.068l.002-.002zm-61.308 1.065c-1.068.066-2.912.175-3.905.366-1.576.305-1.867 4.423-.431 4.685s3.764-.366 5.332-.435c5.078-.226 10.309.388 15.381.443 1.292.015 7.681.294 7.974-1.204.113-.579-1.036-3.632-1.989-3.698-1.653.013-3.257.237-4.917.219-5.717-.066-11.745-.726-17.444-.375v-.002zm-3.004 12.115c-1.126.443-2.288 3.747-1.352 4.461.308.234 3.042.556 3.655.616 8.487.831 18.937.322 27.544.226 4.354-.049 8.688-.275 13.041-.222.268-.013.413-.094.498-.356.051-.151.44-2.199.436-2.316-.028-.886-.84-1.909-1.786-2.019-3.499-.407-7.906.251-11.548.226-7.921-.055-15.945 0-23.925 0l-6.564-.614.002-.002zm61.975 4.621c.184-1.691.908-3.449-.976-4.395l-10.621-.034c-1.722.104-2.335 4.393-.861 4.668 1.513-.136 12.129.298 12.461-.239h-.003zm-36.755 7.337c-8.188.313-16.434-.234-24.583.835-1.587.313-1.715 4.632-.233 4.793 2.523-.115 5.159-.675 7.654-.798 5.637-.282 11.279.389 16.893.017.416-.028 1.805-.162 2.091-.258.596-.2.763-2.167.968-2.797-1.092-1.76-.596-1.875-2.79-1.792zm-93.093 4.838c-.56-.049-1.104.036-1.643.183-.365.1-.594-.153-.494.454h2.136v-.637zm167.691 16.831l2.562 18.643c-.462 7.782-1.436 20.146-11.418 20.777-10.489.665-21.531-.149-32.043.852-6.618.254-13.514-.366-20.097-.017-3.192.168-6.618.899-9.82 1.072-10.662.577-21.749.151-32.479.204-4.796.024-9.698.475-14.524.232-4.674-.234-9.363-.875-14.082-1.082-3.095-.136-9.448.262-12.134-.895-4.751-2.043-3.401-14.559-3.567-18.811-.126-3.255-.724-6.536-.872-9.782-.113-2.512.103-5.06.009-7.572.681.056 1.395.194 2.021.222 2.952.128 6.114 0 9.087-.009l-.133 8.166c1.342 5.571.098 11.502 2.482 16.76-1.722.253-4.514.421-6.086 1.067-.427.175-.62.181-.536.743.521-.17.923-.498 1.487-.647 1.624-.424 3.523-.333 5.135-.95 1.63.967 1.54 1.755 3.73 1.926 4.458.345 9.999.351 14.526.426 3.482.057 12.947.541 15.761-.279 3.095-.904 4.255-7.949 4.007-10.701-.436-4.804-1.158-9.668-1.491-14.491-.056-.812.032-1.638 0-2.448 4.366-.098 9.034.015 13.349-.215 3.974-.211 7.979-1.089 11.957-1.285 8.463-.415 17.337.196 25.865.017 9.439-.196 18.956-.786 28.405-1.071 5.718-.173 13.526.39 18.903-.855l-.005.003zm-8.972 7.241c1.575-.428 4.666.062 3.628-2.339l-.643.952-2.985 1.387zm-2.358 1.696c.092-1.053.703-2.244-.096-3.188-.389-.46-4.136-.443-4.924-.432-.504.006-.972.226-1.478.23-4.954.055-11.292-.522-16.034-.008-.295.032-.684.063-.904.268-.498.464-.938 3.198.051 3.353l23.383-.223h.002zm-27.13 0c.199-1.066.853-3.211-.726-3.411-3.772-.48-9.314.451-13.249.66-3.016.16-6.171-1.18-5.361 3.413.151.219.414.183.645.211 4.42.535 11.439-.503 16.034-.861.88-.068 1.779.056 2.66-.012h-.003zm-22.455.615c.271-.439-.524-2.614-.929-2.948-.552-.45-3.279.021-4.279.006-4.123-.062-8.455-.671-12.593-.432-.827.047-3.102.26-3.8.471-1.12.338-1.06 3.133-.37 3.468.814.394 3.484-.273 4.584-.33 4.619-.239 9.993.79 14.546.445.95-.073 1.991-.269 2.841-.68zm56.641 2.591c-1.256.5-2.591.856-3.832 1.395-.263.115-.857.205-.866.518l4.7-.209v-1.704h-.002zm-5.127 1.919h-.425v.209h.425v-.209zm-39.124 5.288c.226-1.344.897-2.944-.917-3.383-9.984-.264-19.973.524-29.913.006-1.324-.068-2.155-.986-3.065.358-2.015 2.974.66 3.117 3.052 3.274 3.954.262 7.909-.014 11.758-.006 5.635.015 12.388.42 17.953.006.393-.029.784-.059 1.13-.259l.002.004zm14.316-.207c.056-1.248.599-2.669-.715-3.383l-8.336.004c-.989.186-1.843 3.366-.427 3.624l9.478-.243v-.002zm-26.728 5.837c-.593-.556-1.506-.055-2.181-.046-5.306.072-12.695-.586-17.724.432-1.967.398-1.55 3.605-.632 3.773 1.876-.081 3.892-.52 5.736-.601s14.344.384 14.968-.411c.444-.567.408-2.606-.167-3.145v-.002z" fill="#f4f4f8"/><path d="M92.205 122.267v2.447c.333 4.824 1.055 9.687 1.491 14.491.25 2.753-.91 9.798-4.007 10.701-2.813.82-12.277.337-15.761.279-4.527-.077-10.068-.083-14.526-.426-2.19-.17-2.102-.956-3.73-1.926v-.213c-2.384-5.258-1.141-11.189-2.482-16.759l.132-8.166 30.548-.213c-5.138 3.355-10.049 7.026-14.031 11.732-1.087.226-4.77-2.474-6.178-2.559a1.38 1.38 0 0 0-.79.19c-.111.068-1.7 1.817-1.752 1.936-.122.279.107.639-.032 1.004-.098.26-.487.249-.511.407-.056.372.299.973.203 1.105-.164.222-1.258.354-.092 1.317.701.577 2.852.935 3.805 1.319 1.421.573 5.977 2.976 7.105 2.948 1.06-.026 1.081-1.05 1.5-1.706.899-1.409 2.038-3.09 3.091-4.374 3.234-3.943 7.724-6.506 11.634-9.704.212-.511-.444-3.121-.743-3.315-.453-.292-.976.535-.857-.302 2.004-.028 3.982-.169 5.981-.213h.002zm-30.55 19.599c-1.788-.307-4.178-.141-1.818 1.702.397-.762.867-.88 1.512-1.257.197-.115.421.109.306-.447v.002zm14.315-.211c-1.982.686-3.928 1.679-5.843 2.586-.37.175-1.136.307-.991.818l1.908-.332 4.928-3.072h-.002z" fill="#a0badc"/><path d="M86.223 122.479c-.122.838.404.011.857.303.299.194.955 2.804.743 3.315-3.909 3.198-8.402 5.76-11.634 9.704-1.053 1.284-2.192 2.965-3.091 4.373-.419.656-.438 1.679-1.5 1.707-1.128.027-5.684-2.378-7.105-2.949-.953-.383-3.104-.741-3.804-1.318-1.166-.961-.071-1.095.092-1.317.098-.132-.258-.735-.203-1.106.023-.157.412-.149.511-.407.139-.364-.09-.726.032-1.003.053-.119 1.641-1.868 1.752-1.936.231-.141.521-.207.79-.19 1.406.085 5.091 2.784 6.178 2.559 3.982-4.706 8.893-8.377 14.031-11.732h2.35l.002-.003z" fill="#fdfdfe"/><path d="M67.025 63.438c.442.285 2.711-.481 3.493-.405.406.04.352-.036.322.432l-3.858.55 1.506 17.669c-.006 6.449 2.004 13.257-1.102 19.348-1.354 2.654-2.478 2.946-5.4 3.136-7.233.464-15.184-.143-22.43-.443-4.114-.354-9.472.338-13.447-.224-2.331-.33-4.317-4.666-4.766-6.751-.502-2.333-.135-4.629-.276-6.968s-.901-5.079-1.075-7.45c-.327-4.482.47-9.12.455-13.43-.004-1.421-.547-2.126.109-3.707 1.171-2.823 3.924-5.053 7.032-5.343 5.723-.535 11.937-.204 17.735-.422 4.988-.185 9.869-.991 14.953-.656.927.062 4.657.552 5.306.886 1.318.68.778 2.637 1.444 3.779l-.002-.002zM53.11 64.961l-2.745.032-.884 1.883 2.14-.952 1.489-.961v-.002zm8.122.424l-2.563-.213.429 1.278c.748-.202 1.299-.586 2.136-.428v-.637h-.002zM44.568 95.637c.882-.545 1.863-.997 2.775-1.493l-.425-.315c1.557-.961-.271-6.421.626-7.045l10.542-.565c.692-.096 2.004-2.118 2.021-2.657.013-.339-.297-.656-.363-1.04-.199-1.17-.205-1.268-.602-2.382-.194-.547.216-1.204-.688-1.462l-10.685.341c-.079-3.43.316-6.877-.534-10.226-.323-.707-1.087-.136-1.173-.211l-.357-1.08c-.421-.102-1.737.183-2.149.39-.555.279-.602.771-.846.914-.35.207-.867.066-1.156.341-.152.145-.72 1.444-.786 1.719l-1.318 8.485c-2.337.341-5.05-.236-7.331.358-.312.081-1.901 1.08-2.288 1.34-1.698 1.146-.282 1.549-.229 2.559.023.456-.265.81-.167 1.425.068.43.985 2.335 1.384 2.471 1.213.413 3.429-.486 4.663-.605 1.461-.141 3.11.107 4.595 0 .558 2.887-.831 8.389 3.418 8.524-1.425.79-2.976 1.434-4.272 2.341 2.247.456 3.582-1.042 5.34-2.128h.004zm18.369-8.524l-.867.356.363 1.357.718-.008-.214-1.707v.002zM30.68 93.934c-.688-.226-1.73.23-2.254.192-.408-.03-.989-.88-1.489.241-.235.524.399 1.888 1.055 1.681l.775-.937 1.914-1.176h-.002z" fill="#1b70fe"/><path d="M90.866 85.232l6.565.614h23.926c3.642.025 8.049-.633 11.548-.226.946.111 1.758 1.133 1.786 2.02a40.44 40.44 0 0 1-.436 2.316c-.088.26-.231.343-.498.356-4.353-.053-8.688.173-13.041.222-8.609.096-19.057.605-27.544-.226-.615-.06-3.35-.381-3.655-.616-.936-.714.226-4.018 1.352-4.461l-.002.002zm35.465-26.185a19.55 19.55 0 0 1 .872 1.374c.091.394-.178 1.879.044 2.48-.942.835-2.149.475-3.071.584-11.673 1.361-23.503.645-35.293.846-1.963-.262-.995-3.766.056-4.7l21.539.013c2.523-.467 5.125-.098 7.68-.224 1.403-.068 7.436-1.093 8.175-.371l-.002-.002z" fill="#030303"/><path d="M155.176 72.052c8.603-.528 17.577.269 26.218-.068 2.081.204 1.886 2.88 1.344 4.331-.097.26-.212.352-.492.362l-30.122.211c-1.393-.254-.741-4.472.427-4.689.587-.109 1.888-.104 2.628-.149l-.003.002z" fill="#040404"/><path d="M161.366 58.407c.169.168.188.59.492.893.35.349 1.249.554 1.39.752.274.388-.094 1.751-.598 1.983-4.911 2.237-12.947.209-18.418 1.229-3.721-.386-8.38.484-11.982 0-2.066-.277-.857-4.493.222-4.698 3.704-.051 7.415.07 11.119.011l11.324-.213c1.232-.013 5.845-.56 6.453.043h-.002z" fill="#030304"/><path d="M93.87 73.116c5.701-.352 11.73.309 17.444.375 1.662.019 3.264-.207 4.917-.219.951.066 2.1 3.119 1.989 3.698-.291 1.498-6.68 1.219-7.974 1.204-5.072-.057-10.303-.669-15.381-.443-1.568.07-3.841.707-5.332.435s-1.145-4.38.431-4.685c.993-.192 2.837-.3 3.905-.366v.002z" fill="#030303"/><path d="M116.085 97.19c2.196-.085 1.699.032 2.79 1.792-.205.629-.372 2.594-.968 2.797-.286.096-1.672.23-2.091.257-5.616.373-11.255-.298-16.893-.017-2.497.124-5.133.686-7.654.799-1.483-.162-1.354-4.48.233-4.793 8.15-1.07 16.395-.52 24.583-.835zm31.312-23.996c.133.243.536.217.489.999a24.2 24.2 0 0 1-.388 2.128c-.212.633-3.132.302-3.914.358-4.509.317-9.119.888-13.663 1.074-2.414.098-4.856-.092-7.274-.011-1.369-.251-.846-4.403.648-4.68 1.303-.243 3.462.077 4.915.002 5.4-.275 12.501-1.559 17.732-1.084 1.534.139.983.341 1.457 1.214h-.002zm5.444 16.659c-.329.537-10.948.102-12.461.239-1.474-.275-.858-4.563.861-4.668l10.621.034c1.887.946 1.16 2.704.977 4.395h.002z" fill="#040404"/><path d="M22.992 102.028v.637h-2.136c-.1-.608.128-.354.494-.454.538-.147 1.083-.232 1.643-.183z" fill="#2b7afd"/><path d="M142.157 138.208c-.346.2-.739.23-1.13.26-5.567.413-12.319.008-17.952-.006-3.85-.011-7.804.266-11.758.006-2.395-.158-5.067-.3-3.053-3.274.91-1.345 1.741-.429 3.066-.358 9.942.517 19.928-.271 29.913-.007 1.814.439 1.143 2.039.916 3.383l-.002-.004z" fill="#a1bbdd"/><path d="M179.352 127.795l-23.383.224c-.989-.156-.549-2.889-.051-3.354.22-.204.609-.236.904-.268 4.74-.511 11.078.064 16.034.009.504-.007.972-.224 1.478-.231.788-.01 4.533-.027 4.924.433.799.944.188 2.135.096 3.187h-.002z" fill="#a0badc"/><path d="M129.767 128.41c-.85.411-1.89.609-2.841.68-4.552.345-9.927-.684-14.545-.446-1.098.058-3.771.725-4.585.331-.692-.335-.749-3.13.37-3.469.699-.213 2.974-.424 3.8-.47 4.138-.239 8.47.37 12.593.432 1.002.015 3.73-.456 4.279-.006.406.332 1.201 2.507.929 2.948z" fill="#a1bbdd"/><path d="M129.746 143.838c.575.537.611 2.578.167 3.145-.624.794-13.041.328-14.968.411s-3.86.52-5.736.601c-.919-.169-1.335-3.375.632-3.773 5.029-1.016 12.418-.36 17.724-.433.673-.008 1.585-.509 2.181.047v.002z" fill="#a2bbdd"/><path d="M152.224 127.795c-.878.068-1.78-.057-2.66.013-4.593.358-11.614 1.395-16.034.861-.229-.028-.492.008-.645-.211-.81-4.593 2.345-3.253 5.361-3.413 3.935-.209 9.477-1.14 13.249-.661 1.579.201.925 2.348.726 3.411h.003z" fill="#a1badd"/><path d="M156.474 138.001l-9.478.243c-1.419-.258-.564-3.436.427-3.624l8.335-.004c1.314.716.769 2.135.716 3.383v.002z" fill="#a2bbdd"/><path d="M186.408 131.001v1.704l-4.697.209c.008-.315.602-.405.865-.518 1.241-.539 2.576-.894 3.832-1.395z" fill="#d5deee"/><path d="M55.676 147.618v.213c-1.613.618-3.512.526-5.135.95-.564.147-.966.478-1.487.648-.083-.56.109-.569.536-.744 1.574-.643 4.366-.813 6.086-1.067z" fill="#dce3f0"/><path d="M181.711 126.099l2.984-1.387.643-.952c1.036 2.401-2.055 1.911-3.627 2.339zm-.428 6.821h-.426v.209h.426v-.209z" fill="#d5deee"/><path d="M75.969 141.655l-4.928 3.072-1.908.333c-.145-.512.622-.644.991-.818l5.843-2.587h.002zm-14.313.211c.115.556-.109.332-.306.447-.645.377-1.115.492-1.512 1.257-2.361-1.843.03-2.009 1.818-1.702v-.002z" fill="#e7ebf4"/><path d="M43.499 95.424c-4.249-.134-2.86-5.637-3.418-8.524-1.485.107-3.134-.141-4.595 0-1.235.119-3.45 1.018-4.663.605-.399-.136-1.316-2.041-1.384-2.471-.096-.614.192-.967.167-1.425-.053-1.012-1.468-1.412.229-2.559.387-.26 1.974-1.259 2.288-1.34 2.279-.594 4.994-.017 7.331-.358l1.318-8.485c.066-.275.632-1.574.786-1.719.286-.273.803-.134 1.156-.341.244-.143.291-.635.846-.914.412-.207 1.728-.492 2.149-.39l.357 1.08c.085.075.85-.494 1.173.211.848 3.349.455 6.796.534 10.226l10.685-.341c.906.258.493.914.688 1.462.397 1.114.402 1.212.602 2.382.066.386.376.701.363 1.04-.019.539-1.331 2.561-2.021 2.656l-10.542.565c-.897.622.931 6.084-.626 7.045l.425.315c-.912.499-1.893.948-2.775 1.493v-.639c-.549-.153-.763.256-1.068.426h-.004z" fill="#fbfcfe"/><path d="M43.499 95.424c.305-.17.519-.579 1.068-.426v.639c-1.756 1.086-3.093 2.584-5.338 2.128 1.297-.907 2.848-1.551 4.272-2.341h-.002z" fill="#d1dffa"/><path d="M30.68 93.934l-1.914 1.176-.775.937c-.656.207-1.29-1.157-1.055-1.681.5-1.121 1.081-.271 1.489-.241.526.038 1.568-.418 2.254-.192h.002z" fill="#e3eaf9"/><path d="M53.11 64.962l-1.489.961-2.14.952.884-1.883 2.745-.03zm8.122.424v.637c-.837-.16-1.389.224-2.136.428l-.429-1.278 2.563.213h.002zm1.704 21.727l.214 1.706-.718.008-.363-1.359.867-.356z" fill="#dde6f9"/></g><path d="M185.243 99.24c2.056-1.329 3.008-.771 4.627 1.038l3.299 3.954.396.494 2.916 3.79c.778 1.285 1.399 2.708 2.385 3.819.793.884.722 2.377 2.081 2.818.068.018.101.174.123.283.147.628-.008 1.213-.548 1.544-.527.321-1.138.35-1.576-.233-.243-.307-.443-.647-.627-.983l-1.172-2.316c-.314-.577-.735-1.074-1.065-1.648-1.517-2.569-3.519-4.777-5.345-7.112l-2.867-3.556c-.302-.36-.63-.804-1.167-.416l-2.393 1.895 2.48 4.587 3.893 8.064 3.937 8.355c.742 1.617 1.496 3.248 1.339 5.117-.153 1.803-1.121 3.052-2.929 3.265-1.168.129-2.279-.136-3.366-.56l-4.051-1.588c-1.059-.519-1.622-.451-2.008.661-.337.923-.562 1.872-.811 2.825-.141.574-.521 1.287-.304 1.705.23.48.997.694 1.53 1.031 1.229.792 2.293 1.806 3.697 2.384.811.344 1.469 1.011 2.235 1.453.655.376 1.387.614 2.042.99l5.025 3.027 3.796 2.161c.565.411.857.334 1.275-.005.55-.439 1.038-.987 1.664-1.296l4.545-2.057c2.195-1.049 4.129-2.613 6.592-3.157 2.198-.489 4.213-1.663 6.534-1.714.495-.006.977-.187 1.499-.295l.086-.839.136-7.869c.001-1.641.071-3.297-.165-4.906-.343-2.276-.856-4.51-1.791-6.664-.842-1.905-1.582-3.823-3.217-5.239-.138-.117-.267-.269-.335-.442a.75.75 0 0 1 .017-.466c.021-.054.283-.043.393.015l2.065 1.18-.019-.012c.06.053.116.09.16.145 1.343 1.574 2.177 3.44 2.943 5.329 1.538 3.767 2.018 7.681 1.839 11.708-.114 2.388-.108 4.759-.156 7.15-.002.146.049.314.073.431.705.146 1.454.194 2.049.476.77.385.605 1.191.541 1.903-.335.695-.052 1.311.146 1.952.372 1.166.95 2.265.713 3.59-.16.951-.457 1.752-1.293 2.381l.707.625c-.077.804-.086 1.545-.255 2.255-.067.306-.382.623-.671.797-.981.561-2.033 1.048-3.01 1.625-.558.327-1.087.753-1.55 1.223-.703.723-.918.784-1.815.182-.616.437-1.214.959-1.906 1.347-1.819 1.02-3.699 1.946-5.515 2.982-.545.308-.827.123-1.201-.425-.619.502-1.252.934-1.776 1.465-1.314 1.338-3.028 1.929-4.712 2.507-1.069.368-1.814-.363-2.29-1.328-.745-1.552.059-2.962-.064-4.415-.088-1.047-.016-2.11-.229-3.138-.119-.568-.575-1.123-1.012-1.545-1.149-1.11-1.559-2.381-1.046-4.097l-3.505-1.539c-2.974-1.527-6.036-2.93-8.919-4.647-1.633-.977-3.533-1.598-4.844-3.097-.302-.36-.887-.474-1.316-.742-.567-.346-1.141-.682-1.631-1.124-.523-.485-.617-1.172-.413-1.832a105.31 105.31 0 0 1 1.56-4.736c.287-.766.633-1.529 1.082-2.223.373-.589.973-.909 1.711-.599.357.153.802.223 1.096.463 1.196.946 2.596 1.427 4.049 1.815.709.243 1.387.533 2.098.71 1.31.322 2.031-.08 2.135-1.182.049-.701.02-1.467-.214-2.125-.481-1.379-1.09-2.707-1.705-4.025-.823-1.731-1.697-3.434-2.564-5.147l-1.355-2.571-1.932-3.864c-.111-.221-.242-.462-.368-.679l-1.259-2.891-1.609-4.736.016-1.563 2.366-1.873z" fill="#020202"/><path d="M220.061 112.321l-2.065-1.18c-.11-.058-.369-.053-.393-.016-.052.141-.079.325-.017.467.066.165.196.317.335.442 1.639 1.398 2.393 3.306 3.217 5.239.943 2.152 1.455 4.386 1.791 6.664.236 1.609.169 3.28.165 4.906l-.137 7.869c-.004.293-.059.573-.085.838-.522.109-1.005.29-1.499.295-2.325.036-4.336 1.226-6.534 1.715-2.463.544-4.404 2.109-6.592 3.156l-4.545 2.058c-.611.305-1.098.853-1.665 1.296-.426.332-.719.409-1.274.005-1.173-.837-2.546-1.422-3.796-2.161l-5.025-3.027c-.655-.376-1.387-.614-2.042-.99-.767-.45-1.426-1.117-2.235-1.453-1.381-.583-2.461-1.601-3.697-2.385-.533-.336-1.292-.552-1.53-1.031-.201-.421.155-1.129.304-1.704l.811-2.825c.41-1.117.965-1.184 2.008-.661 1.293.633 2.711 1.045 4.051 1.588 1.089.432 2.19.69 3.366.56 1.811-.197 2.783-1.464 2.929-3.265.156-1.869-.597-3.5-1.339-5.117l-3.937-8.355-3.893-8.064-2.48-4.588 2.393-1.894c.545-.39.863.048 1.167.415l2.867 3.557c1.835 2.341 3.827 4.535 5.345 7.112.33.573.751 1.071 1.065 1.648l1.172 2.316c.184.335.387.691.627.983.442.566 1.049.554 1.576.233.542-.324.695-.916.548-1.544-.022-.109-.07-.262-.123-.283-1.352-.443-1.288-1.935-2.081-2.818-.986-1.111-1.603-2.519-2.385-3.819.496.238 1.051.407 1.458.762.599.501 1.147.712 1.844.275.198.405.451.215.701.049.66.009 1.281.571 1.946.059 1.248.805 2.468 1.632 3.03 3.124l1.108 2.557c.233.577.584.781 1.186.509.54-.258.641-.709.444-1.189-.705-1.592-1.184-3.312-2.468-4.606 1.462-.628 2.982-.977 4.57-.803.178.077.467.098.543.229l1.483 2.796c.417.912.703 1.901 1.114 2.823.218.499.687.841 1.212.553.477-.246.584-.747.324-1.294l-2.316-4.817c1.634-.502 3.093.536 4.682.523 1.316-.005 2.321.964 2.771 2.268z" fill="#fdfdfd"/><path d="M187.996 114.845l1.355 2.57 2.564 5.147 1.705 4.025c.234.658.263 1.424.214 2.125-.081 1.098-.802 1.499-2.135 1.183-.727-.174-1.412-.462-2.098-.71.296-.143.58-.299.885-.395.199-.058.418-.022.632-.05 1.214-.138 1.636-.73 1.277-1.907-.289-.923-.734-1.813-.948-2.768-.487-2.028-2.103-3.472-2.803-5.357-.285-.746-.374-1.564-.506-2.357-.103-.499-.112-1.009-.142-1.506z" fill="#f4f6fa"/><path d="M200.47 109.614c-.242.164-.504.348-.701-.05-.111-1.553 1.368-1.941 2.425-1.665 1.39.353 2.513 1.184 3.537 2.166 1.285 1.293 1.756 3.015 2.468 4.606.215.484.112.928-.443 1.189-.587.268-.95.084-1.187-.509l-1.108-2.557c-.554-1.494-1.797-2.316-3.029-3.124-1.031-.778-1.374-.788-1.962-.056zm12.19-.071l2.316 4.816c.277.552.15 1.034-.324 1.295-.536.274-.998-.069-1.212-.553l-1.114-2.823c-.443-.957-.964-1.864-1.483-2.796-.076-.131-.357-.154-.543-.229-.214-.483-.164-.868.385-1.079.612-.225 1.294.089 1.604.682l.371.687z" fill="#050506"/><path d="M218.513 98.684c.6-.124 1.096.463.866.998l-2.089 4.301c-.08.163-.44.189-.683.272-.08-.227-.32-.527-.244-.705l1.802-4.51c.058-.15.268-.275.348-.357z" fill="#020305"/><path d="M223.887 102.613c.128.07.53.166.589.373.086.258.026.75-.169.904l-3.115 2.451c-.267.202-.597.685-.905.22-.164-.242-.171-.898.022-1.068 1.025-.969 2.156-1.862 3.243-2.77.026-.03.089-.043.335-.11z" fill="#020306"/><path d="M225.313 110.572l-.155.032c-.418.022-.979.415-1.157-.206-.054-.184.511-.634.859-.837.427-.251.894-.429 1.381-.547.203-.042.592.154.68.339.085.177-.035.616-.193.714-.427.251-.923.37-1.397.55-.011-.014-.014-.029-.018-.045z" fill="#06152f"/><path d="M182.819 102.668l1.609 4.736c-.062.013-.121.041-.184.054-.805-1.49-1.437-3.049-1.425-4.79z" fill="#cdd8e9"/><path d="M185.243 99.24l-2.4 1.864c.079-1.106.943-1.756 2.4-1.864z" fill="#dde5f2"/><path d="M184.228 107.454c.062-.013.121-.041.184-.054l1.258 2.891c-.16-.146-.392-.244-.479-.429l-.963-2.408z" fill="#d4deef"/><path d="M220.219 112.45c-.06-.052-.116-.089-.16-.145l.16.145z" fill="#fdfdfd"/><defs><clipPath id="A"><path fill="#fff" d="M0 0h204v162H0z"/></clipPath></defs></svg>