<svg xmlns="http://www.w3.org/2000/svg" width="123" height="159" fill="none"><path d="M43.696 150.091l-10.134.313c-4.128.137-8.257-.255-12.188-1.31-4.267-1.154-8.553-2.679-11.694-6.043-1.363-1.447-2.41-3.246-3.417-4.967-1.323-2.268-2.548-4.595-3.654-6.961-1.304-2.777-1.738-5.808-2.153-8.839-.77-5.416-.316-10.853-.375-16.269-.02-1.858.138-3.696.198-5.554.079-2.894.059-5.788.237-8.682.217-3.227.632-6.453.928-9.68l.573-7.392c.257-5.104.573-10.188.573-15.292 0-3.735-.435-7.45-.691-11.185l-.652-9.621c-.198-3.011-.514-6.023-.514-9.034 0-2.562.257-5.123.632-7.646.336-2.268.435-4.498.079-6.766C.751 10.726 2.49 7.147 5.453 3.96 7.645 1.594 10.53.694 13.532.459 17.68.127 21.868-.147 26.016.088c8.909.508 17.818.254 26.727.332h18.45c3.674 0 7.368.098 11.042.215l8.356.352c2.726.059 5.432-.059 8.158.059 4.721.196 9.423.665 13.966 2.034 2.943.88 4.859 2.953 6.222 5.593 1.857 3.559 2.707 7.392 3.22 11.322.474 3.598 1.047 7.196.771 10.853-.139 1.838-.376 3.676-.573 5.514-.356 3.207-.593 6.394-.237 9.621.138 1.252.197 2.523.217 3.794l.178 12.397c-.04 4.419-.296 8.839-.375 13.258L121.96 93.5l-.02 6.942c-.04 2.64-.198 5.26-.158 7.9l.375 16.856c.099 3.578.376 7.137.356 10.716-.04 5.26-2.687 9.073-7.151 11.733-3.398 2.014-7.151 2.757-11.082 2.757H87.727c-.316 0-.632-.118-.948-.196.672-1.994 1.482-3.93 1.956-5.964.83-3.559.514-7.137-.711-10.579-.968-2.679-2.153-5.299-3.338-7.9-1.758-3.872-4.622-6.785-8.415-8.76-2.627-1.369-5.334-2.523-8.257-3.168-.593-.137-1.324-.255-1.659-.665-.395-.469-.77-.548-1.264-.489l-10.667 1.31c-3.872.548-7.032 2.64-9.778 5.202-1.422 1.329-2.331 3.246-3.24 5.006-.632 1.212-.849 2.62-.138 3.989.04.078-.02.234-.079.352-1.205 2.581-1.738 5.279-2.114 8.095-.415 3.227.099 6.16 1.699 8.937.909 1.564 1.936 3.05 2.923 4.556v-.039zM30.303 25.47c2.272 1.662 4.919 1.701 6.617-.469.277-.352.612-.469 1.185-.235 2.548 1.017 5.116 1.212 7.645-.117.533-.274 1.185-.489 1.778-.508 1.403-.02 2.805.176 4.188.117 1.778-.059 3.556-.254 5.334-.45.277-.02.711-.352.731-.547.02-1.486.909-2.933 0-4.459-.356-.606-.612-1.056-1.324-1.076-.533-.02-1.047.02-1.58.039-1.896.059-3.832.352-5.689.137-1.975-.235-3.812-.176-5.531.763-1.482.802-2.687.626-3.97-.411-1.679-1.369-3.793-1.193-5.373.313-.277.254-.454.606-.672.919-.849-.763-1.284-1.74-2.449-1.31-.059.02-.198-.176-.316-.196-.573-.078-1.205-.313-1.699-.176-.652.195-1.225.704-1.817 1.056-.296-.235-.652-.743-1.047-.782-1.837-.176-3.536.254-4.899 1.525-.257.235-.454.86-.316 1.095.988 1.74 1.936 3.52 3.161 5.104 1.027 1.33 3.674 1.525 4.978.626.375-.254.672-.606 1.067-.978v.02zm-12.86 9.895c-.099.039-.178.059-.277.098.435 1.173.81 2.347 1.304 3.5.198.469.612.626 1.146.332.731-.411 1.383-.332 2.153.098 1.699.919 3.575 1.271 5.472.743 1.64-.469 3.2-1.115 4.82-1.643.296-.098.731-.098 1.008.039 3.378 1.701 6.697 1.858 9.916-.293.83-.548 1.422-.43 2.074.176.731.704 3.082 1.134 3.852.547 1.264-.978 2.627-1.369 4.188-.997.099.02.217.059.296 0 .276-.176.652-.332.79-.606.316-.626.395-1.388.751-1.975.632-1.056-.039-1.995-.119-2.972 0-.176-.356-.371-.593-.45-2.074-.782-4.109-.919-6.143.156a1.34 1.34 0 0 1-1.027 0c-1.146-.528-2.291-1.115-3.575-.724-1.185.352-2.39.763-3.457 1.369-1.521.841-2.904.88-4.326-.059-1.304-.841-2.726-1.134-4.227-.626-1.58.528-3.121 1.173-4.721 1.682-.553.176-1.244.254-1.798.098-1.126-.313-2.054-1.017-3.279-1.33-1.975-.489-4.286.821-4.188 2.894l-.04-.059zm36.722 46.403v-.195h1.086c2.054 0 2.153 0 2.45-2.014.217-1.408-.415-2.366-1.798-2.288-2.627.156-5.254.156-7.882.195h-5.294c-6.4 0-12.8.332-19.181-.411-.375-.039-.988.196-1.126.489-.395.802-.652 1.682-.83 2.542-.138.645.237 1.036.928 1.095 2.153.195 4.287.528 6.44.547l19.339.02h5.887l-.02.02zm21.057-43.391v.078c.85-.078 1.699-.098 2.528-.274.257-.059.573-.43.652-.704.158-.645.02-1.388.296-1.975.553-1.173-.474-1.916-.632-2.874-.02-.156-.415-.352-.632-.372-1.304-.117-2.608-.235-3.892-.235-1.323 0-2.608.254-3.971-.215-1.146-.391-2.489-.528-3.516.567-.948 1.036-2.153.958-3.378.684-.573-.117-1.126-.411-1.699-.469s-1.383-.195-1.738.117c-1.363 1.173-2.054 2.718-2.114 4.537 0 .606.217.939.849 1.075 1.027.235 2.015.587 3.022.841 2.371.548 4.701.606 6.973-.391.474-.215.988-.371 1.501-.391 1.916-.039 3.832 0 5.768 0h-.02zM30.421 53.413c-2.726 0-5.452.039-8.198-.02-.731 0-1.165.274-1.343.86a9.11 9.11 0 0 0-.395 2.19c-.04.841.356 1.291 1.324 1.271 1.916-.039 3.813 0 5.729 0l15.823-.117c2.43-.059 4.859-.411 7.269-.645.77-.078 1.403-.352 1.205-1.349-.059-.274-.02-.587-.02-.88.04-1.506-.711-2.151-2.212-2.053l-11.674.724c-2.489.117-4.998.02-7.506.02zM85.06 69.057h9.047c1.995 0 2.054 0 2.37-1.995.217-1.33-.435-2.347-1.778-2.327l-21.946.195c-1.047 0-1.205.763-1.343 1.506-.178.939-.474 1.936.395 2.738.138.117.435.078.672.078 1.106-.059 2.212-.176 3.319-.176h9.264v-.02zm-4.306-15.155c-.454-.293-1.146-.489-1.264-.88-.395-1.212-1.304-.997-2.153-.978l-13.867.371c-2.074.039-4.148 0-6.222 0-1.481 0-1.56.059-1.936 1.467-.099.332-.138.704-.158 1.056-.079 1.584.079 1.779 1.659 1.76l12.405-.176 8.889-.196c1.639-.059 2.568-.939 2.627-2.425h.02zM27.34 65.713c-1.205.098-3.062.235-4.919.45-.336.039-.849.411-.909.704a12.22 12.22 0 0 0-.276 2.679c0 .606.415.958 1.126.88 1.363-.157 2.726-.352 4.089-.372 2.054-.02 4.128.098 6.183.156 1.857.059 3.733.176 5.59.176 1.699 0 3.398-.078 5.096-.196.968-.078 1.383-.782 1.146-1.721-.079-.352-.138-.704-.237-1.036-.336-1.291-.948-1.662-2.291-1.506-.81.098-1.64.176-2.45.156L27.3 65.693l.04.02zm8.237 22.175l-11.773.763c-.415.039-1.047.567-1.146.978-.198.782-.138 1.662-.099 2.483.02.606.375.9 1.067.821 2.035-.235 4.089-.528 6.143-.567 4.287-.098 8.573-.039 12.86-.039 1.916 0 2.035-.117 2.39-1.936.039-.156.099-.313.119-.469.197-1.075-.711-2.073-1.719-2.053-2.548.039-5.116 0-7.842 0v.02zm15.566-22.077v-.078c-.494 0-.988.059-1.482 0-1.027-.137-1.541.332-1.718 1.271-.059.293-.178.567-.237.841-.316 1.662.119 2.249 1.837 2.171l8.455-.469c1.442-.078 2.884-.039 4.326-.137 1.126-.059 2.252-.313 3.398-.332 2.272-.059 2.272 0 2.647-2.21 0-.039.02-.059.02-.098.118-.978-.731-1.995-1.738-1.956-2.094.059-4.188.137-6.282.274l-9.205.724h-.02zm15.842 15.565c1.185 0 2.37.039 3.556 0 .573-.019 1.482 0 1.64-.313.356-.724.553-1.642.435-2.425-.217-1.388-.593-1.545-2.015-1.545h-6.301c-1.659 0-2.173.43-2.37 2.034-.059.45-.04.899-.02 1.369 0 .626.296.939.988.919 1.383-.039 2.766 0 4.129 0l-.04-.039z" fill="#196ffe"/><path d="M43.695 150.091l-2.924-4.556c-1.62-2.777-2.133-5.71-1.699-8.937.356-2.816.909-5.514 2.114-8.095.059-.118.118-.274.079-.352-.711-1.35-.494-2.757.138-3.989.928-1.76 1.837-3.677 3.24-5.006 2.726-2.562 5.886-4.654 9.778-5.202 3.556-.508 7.111-.88 10.667-1.31.474-.059.869 0 1.264.489.336.41 1.067.528 1.659.665 2.904.645 5.63 1.799 8.257 3.168 3.793 1.975 6.637 4.888 8.415 8.76 1.185 2.601 2.37 5.221 3.338 7.9 1.225 3.422 1.521 7.001.711 10.579-.474 2.034-1.284 3.989-1.956 5.964-.988 1.408-1.857 2.914-3.003 4.204-1.501 1.702-3.714 2.269-5.748 3.07-2.39.939-4.859 1.271-7.388 1.35l-5.235.195c-2.746.118-5.333-.665-7.941-1.369-3.101-.86-6.183-1.759-8.869-3.539-1.521-1.017-2.864-2.327-4.267-3.5-.197-.157-.395-.333-.593-.509l-.039.02zm37.749.469c2.805-4.126 3.911-8.623 2.963-13.551-.711-3.735-2.37-7.118-4.168-10.423a13.31 13.31 0 0 0-4.859-5.103c-2.943-1.78-6.124-2.992-9.501-3.774-2.114-.489-4.168-.47-6.262.215-2.785.899-5.195 2.444-7.427 4.243-1.679 1.349-3.398 2.699-4.741 4.322-2.45 2.933-3.595 6.433-4.03 10.227-.296 2.483-.059 4.751 1.245 6.922 1.481 2.464 3.042 4.849 5.571 6.414.336.234.652.547 1.008.723 5.768 2.758 11.753 4.478 18.252 3.931 3.101-.254 6.163-.665 8.988-1.995 1.087-.508 1.975-1.408 2.963-2.131v-.02z" fill="#020203"/><path d="M30.302 25.47c-.395.372-.691.724-1.067.978-1.304.899-3.951.704-4.978-.626-1.225-1.584-2.173-3.363-3.161-5.104-.138-.235.079-.86.316-1.095 1.363-1.291 3.082-1.701 4.899-1.525.395.039.731.547 1.047.782.593-.352 1.146-.86 1.817-1.056.514-.156 1.126.078 1.699.176.119 0 .237.215.316.195 1.165-.43 1.6.548 2.45 1.31.217-.293.395-.645.672-.919 1.561-1.506 3.694-1.682 5.373-.313 1.284 1.036 2.489 1.212 3.971.411 1.718-.939 3.575-.997 5.531-.763 1.877.215 3.793-.078 5.689-.137l1.58-.039c.711.02.968.469 1.324 1.076.909 1.545 0 2.992 0 4.458 0 .196-.454.508-.731.548l-5.334.45c-1.402.039-2.785-.156-4.188-.117-.593 0-1.244.215-1.778.508-2.548 1.33-5.096 1.134-7.645.117-.553-.235-.889-.117-1.185.235-1.699 2.171-4.346 2.112-6.618.469v-.02z" fill="#fcfdfe"/><path d="M17.443 35.364c-.099-2.073 2.193-3.383 4.188-2.894 1.225.313 2.153.997 3.279 1.33.553.156 1.244.078 1.798-.098l4.721-1.682c1.501-.508 2.924-.215 4.227.626 1.442.939 2.825.899 4.326.059 1.067-.606 2.272-1.017 3.457-1.369 1.284-.391 2.43.196 3.575.724a1.34 1.34 0 0 0 1.027 0c2.035-1.076 4.089-.939 6.143-.156.237.078.573.293.593.45.079.978.751 1.936.118 2.972-.356.606-.454 1.349-.751 1.975-.138.274-.514.43-.79.606-.059.039-.197 0-.296 0-1.56-.371-2.904.02-4.188.997-.77.587-3.101.156-3.852-.547-.632-.606-1.245-.724-2.074-.176-3.22 2.151-6.538 1.995-9.916.293-.276-.137-.691-.137-1.007-.039l-4.82 1.643c-1.896.547-3.773.196-5.472-.743-.79-.43-1.442-.508-2.153-.098-.533.293-.948.137-1.146-.332l-1.304-3.5.277-.098.04.059z" fill="#fbfcfe"/><path d="M54.165 81.767h-5.887c-6.44 0-12.899.039-19.339-.02-2.153-.02-4.286-.371-6.44-.547-.691-.059-1.067-.45-.928-1.095.197-.88.454-1.76.83-2.542.138-.293.77-.528 1.126-.489 6.38.743 12.781.411 19.181.411h5.294c2.627-.039 5.254-.039 7.882-.196 1.383-.078 2.015.88 1.797 2.288-.316 2.034-.395 2.014-2.449 2.014h-1.087v.195l.02-.019z" fill="#010203"/><path d="M75.222 38.376c-1.916 0-3.852-.02-5.768 0-.494 0-1.027.176-1.501.391-2.291 1.017-4.622.958-6.973.391l-3.022-.841c-.652-.137-.869-.469-.849-1.075.059-1.819.751-3.363 2.114-4.537.356-.313 1.166-.176 1.738-.117s1.126.352 1.699.469c1.225.274 2.43.332 3.378-.684 1.027-1.095 2.37-.958 3.516-.567 1.363.469 2.647.215 3.97.215 1.304 0 2.608.117 3.892.235.237 0 .612.215.632.372.178.958 1.205 1.701.632 2.874-.276.567-.138 1.33-.296 1.975-.079.274-.375.665-.652.704-.83.156-1.679.195-2.528.274v-.078h.02z" fill="#fcfcfe"/><path d="M30.421 53.413l7.506-.02c3.891-.176 7.783-.45 11.674-.724 1.501-.098 2.252.547 2.212 2.053 0 .293-.04.587.02.88.198.978-.434 1.271-1.205 1.349-2.43.254-4.84.606-7.269.645l-15.823.117c-1.916 0-3.812-.039-5.729 0-.948.019-1.363-.43-1.323-1.271a9.11 9.11 0 0 1 .395-2.19c.178-.587.632-.86 1.343-.86 2.726.059 5.452.02 8.198.02z" fill="#010203"/><path d="M85.059 69.057h-9.264c-1.106 0-2.212.117-3.319.176-.217 0-.533.039-.672-.078-.869-.782-.573-1.799-.395-2.738.138-.724.296-1.486 1.343-1.506l21.946-.196c1.343-.02 1.995.997 1.778 2.327-.316 1.995-.375 1.995-2.37 1.995h-9.047v.02z" fill="#010204"/><path d="M80.753 53.902c-.079 1.506-.988 2.386-2.627 2.425l-8.889.196-12.405.176c-1.58 0-1.738-.157-1.659-1.76a3.9 3.9 0 0 1 .158-1.056c.395-1.408.454-1.467 1.936-1.467h6.222l13.867-.371c.849-.02 1.758-.235 2.153.978.119.372.81.587 1.264.88h-.02zM27.34 65.713l12.188.391c.81.02 1.639-.078 2.449-.156 1.323-.156 1.956.235 2.291 1.506l.237 1.036c.237.919-.178 1.643-1.146 1.721l-5.096.196c-1.857 0-3.733-.117-5.59-.176l-6.183-.156c-1.363 0-2.726.215-4.089.372-.731.078-1.126-.274-1.126-.88a12.22 12.22 0 0 1 .276-2.679c.059-.293.573-.665.909-.704l4.919-.45-.04-.02z" fill="#010203"/><path d="M35.577 87.888h7.842c1.008 0 1.916.978 1.719 2.053-.02.156-.099.313-.118.469-.336 1.819-.474 1.936-2.39 1.936-4.287 0-8.573-.039-12.86.039-2.054.039-4.089.332-6.143.567-.691.078-1.027-.195-1.067-.821-.04-.841-.099-1.701.099-2.483.099-.411.731-.939 1.146-.978l11.773-.763v-.019zm15.566-22.077l9.205-.724 6.282-.274c1.007-.039 1.857.978 1.738 1.955 0 .039-.02.059-.02.098-.375 2.21-.375 2.171-2.647 2.21-1.126.019-2.252.274-3.398.332l-4.326.137-8.455.469c-1.699.078-2.133-.508-1.837-2.171.059-.293.178-.567.237-.841.198-.939.711-1.408 1.719-1.271.494.059.988 0 1.481 0v.078h.02zm15.842 15.565c-1.383 0-2.766-.019-4.129 0-.691 0-.968-.293-.988-.919 0-.45-.04-.919.02-1.369.217-1.603.731-2.014 2.371-2.034h6.301c1.442 0 1.798.156 2.015 1.545.119.782-.079 1.701-.434 2.425-.138.293-1.067.293-1.64.313h-3.556l.04.039z" fill="#010204"/><path d="M50.235 150.032c-2.529-1.564-4.089-3.95-5.571-6.414-1.304-2.17-1.521-4.419-1.244-6.922.435-3.794 1.6-7.294 4.03-10.227 1.363-1.623 3.082-2.992 4.741-4.322 2.232-1.799 4.642-3.343 7.427-4.243 2.074-.665 4.148-.704 6.262-.215 3.358.782 6.538 2.014 9.502 3.774 2.094 1.251 3.714 2.992 4.859 5.104 1.798 3.304 3.437 6.687 4.168 10.422.948 4.928-.178 9.426-2.963 13.552l-11.477-.352c-3.378-.059-6.776 0-10.153 0-.494 0-.988-.098-1.462-.098l-8.119-.059zm10.706-15.663c-1.264 0-2.529.039-3.812 0-1.56-.059-2.805.645-4.01 1.467-.257.176-.296.782-.316 1.192 0 .372.217.743.198 1.115-.198 2.014.849 2.875 2.864 2.581 1.837-.274 3.694-.274 5.63-.391l.178 3.715c.099 2.484 1.007 3.247 3.437 2.895h.099c1.58-.235 2.351-1.271 2.252-2.855-.079-1.252 0-2.503 0-3.755l7.822-.45c1.363-.078 2.351-1.427 1.995-2.718-.217-.801-.454-1.623-.533-2.444-.059-.724-.375-.9-1.007-.86l-4.326.293c-1.225.059-2.469 0-3.556 0l-.573-7.47c-.039-.469-1.185-1.623-1.659-1.662-1.027-.098-3.141 1.154-3.358 2.17-.494 2.347-.849 4.713-1.304 7.216l-.02-.039z" fill="#1a6ffe"/><path d="M50.234 150.032l8.119.059c.494 0 .988.098 1.462.098h10.153c3.832.058 7.645.215 11.477.352-.988.723-1.877 1.623-2.963 2.131-2.825 1.33-5.887 1.74-8.988 1.995-6.499.547-12.484-1.174-18.252-3.931-.375-.176-.672-.489-1.007-.723v.019z" fill="#fcfdfd"/><path d="M60.941 134.369l1.304-7.216c.217-1.017 2.351-2.268 3.358-2.17.474.039 1.62 1.193 1.659 1.662l.573 7.47h3.556l4.326-.294c.612-.039.948.157 1.007.861.059.821.296 1.642.533 2.444.356 1.31-.632 2.66-1.995 2.718l-7.822.45v3.754c.099 1.584-.672 2.621-2.252 2.855h-.099c-2.43.352-3.338-.41-3.437-2.894l-.178-3.715-5.63.391c-2.015.293-3.062-.567-2.864-2.581.04-.352-.198-.743-.198-1.115.02-.41.059-1.017.316-1.193 1.185-.821 2.449-1.525 4.01-1.466h3.812l.02.039z" fill="#fcfdfe"/></svg>