<svg width="52" height="23" viewBox="0 0 52 23" fill="none" xmlns="http://www.w3.org/2000/svg"><g clip-path="url(#A)" fill="#0b0de6"><path d="M26.325 17.03c-.859 0-1.687-.006-2.521.012-.073 0-.195.122-.213.198l-.42 2.431c-.128.729-.749 1.189-1.431 1.073-.779-.128-1.224-.717-1.09-1.481l1.431-8.04.987-5.609c.11-.641.597-1.055 1.273-1.067h1.309c.658.012 1.163.42 1.273 1.038l1.413 8.127.987 5.638c.122.7-.347 1.277-1.114 1.393-.664.099-1.315-.373-1.425-1.032l-.414-2.524c-.006-.041-.024-.082-.043-.157zm-.359-2.367l-.932-6.297c-.03 0-.061.006-.091.006l-.932 6.291h1.955zM9.494 10.057c-.804 0-1.602.006-2.405-.006a.4.4 0 0 0-.432.268c-.7 1.393-2.077 2.011-3.337 1.918-1.65-.128-2.838-1.102-3.215-2.53C-.4 7.771.988 5.83 3.052 5.591c1.529-.181 2.954.56 3.605 1.889.104.216.231.274.463.274l6.205-.017c.707-.012 1.37.455 1.352 1.306l-.012 4.279c0 .268.085.356.359.35l1.827-.006c.956-.012 1.443.857 1.206 1.522-.164.455-.609.799-1.121.805H13.44a1.18 1.18 0 0 1-1.194-1.189l.006-4.396c0-.262-.067-.356-.353-.35H9.494zM3.507 7.888c-.591 0-1.072.437-1.084.991-.012.542.487 1.02 1.06 1.026.585.006 1.072-.443 1.084-1.003.012-.542-.475-1.014-1.06-1.014zm39.37-5.026l2.01.006c.237.006.347-.07.457-.274.663-1.224 1.711-1.9 3.166-1.889 1.437.012 2.497.67 3.136 1.895.852 1.638.122 3.621-1.589 4.431-1.717.81-3.8.163-4.647-1.469-.146-.28-.311-.361-.621-.356H41.75a.54.54 0 0 0-.53.286l-2.278 3.411a1.2 1.2 0 0 1-1.181.566c-.469-.052-.816-.291-.993-.717-.146-.35-.134-.711.079-1.032l2.899-4.338c.244-.361.627-.507 1.066-.513l2.064-.006zm6.668 1.178c0-.56-.475-1.026-1.053-1.026-.572 0-1.06.466-1.06 1.02a1.06 1.06 0 0 0 1.053 1.026c.579 0 1.06-.461 1.06-1.02zm-34.9 16.617c-.713 0-1.419-.012-2.131.006a1.39 1.39 0 0 1-.993-.356l-2.217-1.866a.36.36 0 0 0-.426-.07c-2.137.874-4.403-.262-4.878-2.443-.42-1.93 1.206-3.889 3.27-3.935 2.15-.047 3.745 1.504 3.654 3.562a2.8 2.8 0 0 1-.146.74c-.061.181-.012.28.128.396l1.766 1.469a.85.85 0 0 0 .481.175l3.739.012c.615 0 1.102.414 1.2.997.091.531-.28 1.096-.846 1.259-.14.041-.298.052-.451.052h-2.15zm-6.157-5.329c-.006-.554-.493-1.02-1.066-1.014-.579.006-1.06.478-1.054 1.032s.499 1.026 1.072 1.014c.579-.012 1.054-.478 1.047-1.032z"/><path d="M10.206 0c1.084.052 2.131.67 2.777 1.883.116.222.238.292.481.28l1.401-.006c.53.006.932.222 1.187.676l2.515 4.577c.347.635.134 1.323-.475 1.627-.621.309-1.315.093-1.669-.542L14.39 4.792c-.11-.204-.231-.28-.481-.297-.524-.041-.822.093-1.102.577-.719 1.242-2.235 1.819-3.703 1.527-1.382-.274-2.479-1.393-2.698-2.752-.341-2.052 1.291-3.86 3.8-3.848zM8.781 3.329c0 .554.481 1.02 1.06 1.02.572 0 1.06-.478 1.06-1.026 0-.554-.493-1.02-1.066-1.02-.579.006-1.054.466-1.054 1.026zm32.117 15.182l3.008.006c.238 0 .372-.058.487-.286.725-1.457 2.259-2.035 3.526-1.895 1.632.181 2.886 1.353 3.1 2.933.274 1.982-1.431 3.784-3.526 3.726-1.425-.035-2.46-.694-3.1-1.901-.122-.227-.25-.28-.487-.274H37.89c-.585 0-1.09-.396-1.187-.898-.116-.618.183-1.154.773-1.347.164-.053.359-.064.536-.064h2.886zm6.65.146c-.585-.006-1.072.443-1.078.997-.006.542.487 1.02 1.06 1.026.578.006 1.072-.455 1.078-1.009.012-.548-.469-1.009-1.06-1.015zm-8.884-4.914c.84.222 1.322-.204 1.784-.81.335-.437.463-.735.225-1.306-.846-2.029.591-4.209 2.868-4.472 1.876-.216 3.587 1.067 3.836 2.874.256 1.854-1.096 3.551-3.027 3.749-.396.041-.804-.018-1.2-.053-.183-.018-.298 0-.414.146l-1.352 1.65c-.292.362-.658.548-1.151.536-.779-.018-1.559 0-2.338-.006-.706-.006-1.218-.49-1.23-1.143-.006-.659.493-1.149 1.2-1.166h.798zm6.315-3.276c0-.577-.451-1.009-1.047-1.009s-1.06.437-1.06 1.003c0 .56.475 1.015 1.053 1.02.585 0 1.053-.449 1.053-1.014zM34.29 12.651v6.868a1.13 1.13 0 0 1-.761 1.119 1.22 1.22 0 0 1-1.328-.222c-.292-.251-.396-.571-.396-.939v-2.793V6.151l.006-.437c.043-.682.585-1.184 1.254-1.166.682.017 1.224.548 1.224 1.236v3.871 2.997z"/></g><defs><clipPath id="A"><path fill="#fff" d="M0 0h52v23H0z"/></clipPath></defs></svg>