<svg xmlns="http://www.w3.org/2000/svg" width="176" height="464" fill="none"><g clip-path="url(#A)"><path d="M124.738 318.34c-.552-.097-.795.26-.901.73-.065.308-.089.625-.129.941-.885 7.443-2.272 14.765-4.713 21.885-2.515 7.346-5.694 14.408-9.117 21.349-1.882 3.819-3.756 7.671-6.335 11.117-5.411 7.233-9.215 15.179-10.545 24.188-.057.405-.138.729-.543.973-2.498 1.516-4.899 3.178-7.763 4.03-1.549.462-3.082.997-4.607 1.54-.316 1.297-.9 2.287-1.712 3.114-1.582 1.621-8.347 1.954-21.876 2.611-20.238.989-14.446-1.946-22.071-2.263-.714-.032-2.879-.097-3.902-1.54-.316-.446-.414-.868-.495-1.241-.26-1.184-.6-3.057-.844-5.635h-2.425c-2.296.373-3.593 1.962-4.007 4.743-.276 1.841 0 3.633.17 5.449.211 2.173.876 4.249 1.265 6.382.535 2.919.511 5.911.706 8.87.251 3.746.47 7.493.925 11.231.495 4.062-.17 4.07-.041 9.859.114 5.028.292 3.447.373 7.46.081 4.152-.13 5.084.6 5.628 1.695 1.256 4.583-2.425 9.433-2.36 2.953.04 3.609 1.427 7.268 2.814 4.924 1.865 6.538.413 15.704.94 7.836.446 6.968 1.525 13.595 1.638 6.44.114 7.381-.9 13.359-.47 5.694.413 6.473 1.451 10.78 1.638 3.318.146 8.234-.244 14.398-2.992-2.084-25.501-3.958-36.561-5.378-41.775-.43-1.589-1.338-4.541-1.776-8.749-.211-2.044-.6-9.114-.406-12.301.033-.551.049-1.111.008-1.662-.17-2.489-2.352-3.738-4.599-2.643-.292.145-.576.3-1.03.551.138-.511.203-.819.308-1.103 2.231-5.895 4.648-11.684 8.671-16.647.795-.981 1.469-2.067 2.093-3.162 3.456-6.146 6.327-12.568 8.842-19.136 3.552-9.276 6.018-18.836 6.829-28.769l.536-6.276c.04-.494-.122-.875-.641-.973l-.008.016z" fill="#010101"/><path d="M14.211 163.07c-1.793 1.629-.909 4.094-1.217 10.443-.162 3.39-.389 2.23-1.338 10.241-1.038 8.798-1.363 13.201-1.484 15.155-.235 3.827-1.127 7.541-1.768 11.279-.089.47-.511.843-.803 1.265l-1.655 23.952c-.698 7.655-1.963 10.096-2.109 16.712-.13 5.522.178 6.795-.016 15.195-.114 5.036-.357 8.782-.673 13.623-.56 8.651-.949 10.938-1.152 14.279-.105 1.767-.13 3.065-.138 3.584-.454 19.209-.681 28.809-1.249 32.061s-1.282 6.9.608 10.224c1.265 2.23 3.407 3.236 4.323 3.673 2.506 1.176 3.942.665 7.819.933 4.486.308 4.072 1.095 11.186 2.157 3.253.486 3.001.267 8.12.94 3.042.398 6.116.941 9.15 1.371 3.901.527 7.779.875 11.648 1.524 5.994.997 11.842.195 17.829 1.087 8.452 1.256 18.372-1.095 29.355.097l12.07 1.281c3.155.406 8.257 1.354 10.577 1.768l6.424 1.078c6.262-1.354 9.937-14.903 9.977-25.452.025-5.847.69-25.947 1.031-35.759.032-1.013.21-3.413.567-8.206l2.166-26.952c.641-6.682.008-3.876.909-21.025.697-13.371.957-13.169 1.151-20.166.414-15.252-.892-14.279-.081-22.793 1.201-12.682 4.356-17.498 1.201-20.944-1.501-1.638-2.831-1.225-12.54-2.611-11.202-1.598-10.375-2.279-17.067-2.871-7.559-.665-9.644.114-13.035-.04-1.468-.065-2.571-.276-4.209-.576-4.98-.924-8.882-1.849-9.547-2.003-4.632-1.07-5.005-.04-14.527-.405-7.633-.292-13.7-1.2-16.596-1.638-6.741-1.022-5.905-1.354-10.602-1.889-7.187-.811-7.819.113-16.742-.69-.941-.081-4.518-.413-9.32-.648-6.181-.292-7.333-.081-8.241.746z" fill="#196efd"/><path d="M84.172 168.446c-.187.551-1.614.243-4.737-.033-5.848-.518-5.937.106-9.653-.559l-5.435-1.135-3.683-.633c-4.242-.551-5.556.033-10.829-.438-1.549-.137-1.444-.186-2.823-.291-3.504-.26-6.067-.065-7.178 0-.892.048-4.705-.195-12.337-.682-3.309-.21-6.741.852-9.969.009-.365-.098-1.606-.446-2.385.308-.365.348-.584.916-.649 1.743-.17 2.222-.227 4.443-.243 6.69-.041 2.189.333 4.508-.049 6.551-2.596 14.32-4.088 28.988-5.118 43.754-.365 5.002-1.395 9.9-2.182 14.806-.105.616-.6 1.11-.941 1.67-1.273-.462-1.939-1.095-1.849-2.822l2.012-39.05c.47-6.633 1.776-13.128 2.604-19.704.187-1.419.195-2.959-.024-4.419-.633-4.597-.089-8.854 1.054-13.038.284-1.087.698-1.833 1.282-2.287.543-.43 1.387-.754 3.261-.397 2.085.397 2.936 1.151 4.486 1.8 1.257.527 3.342.648 7.463.867 1.898.098 2.36.081 5.37.179l7.763.316c6.53.178 5.524-.357 9.49-.081 3.715.259 9.612 1.078 11.267.64.17-.048.941-.235 1.963-.178a4.12 4.12 0 0 1 .836.146c2.36.681 2.636 1.2 5.102 1.678.892.179 2.271.292 5.013.536 1.452.121 2.969.243 5.078.527 1.874.259 2.588.429 3.407.851 1.33.697 2.847 2.027 2.636 2.652v.024z" fill="#040507"/><path d="M40.638 192.099c-2.758 2.287-6.246 1.784-8.703-1.386-1.355-1.768-2.425-3.779-3.431-5.717-.243-.454.024-1.419.422-1.735 1.614-1.273 3.691-1.581 5.864-1.176.617.106 1.209.722 1.501.868 1.549-.251 3.017-.86 4.413-.632 1.363.21 2.685 1.321 4.267 2.181.041-.057.406-.341.763-.6 2.093-1.663 4.753-1.646 7.049.348 1.841 1.573 3.472 1.865 5.427 1.071 2.068-.86 4.291-.73 6.7-.268 2.506.495 5.029.511 7.584.722l1.525.097c2.068.178 3.731 2.23 3.382 4.143-.049.309-.17.6-.219.909-.438 3.057-.973 3.365-4.404 2.911l-7.219-.592c-2.15-.333-3.967-.154-5.954.438-2.612.77-5.451.154-8.217-1.128-.552-.251-1.509-.381-1.874-.097-3.253 2.287-4.55 2.319-8.395-.073-.154-.138-.252-.17-.479-.292v.008z" fill="#fbfcfe"/><path d="M34.336 209.743c-.754-.333-1.549-.592-2.214-.998-1.233-.794-2.369-1.362-3.764-.778-.268.121-1.103-.333-1.355-.73-1.411-2.076-1.712-4.265-1.217-6.398.3-1.183 3.228-1.937 4.802-1.305l4.429 2.027c.925.324 1.995.422 2.904.243 2.02-.348 3.983-.981 5.978-1.402s3.869.121 5.654 1.394c1.849 1.322 3.658 1.622 5.556.722 1.03-.495 2.198-.787 3.334-1.095 1.866-.494 3.707-.178 5.556.941.576.349 1.533.486 2.125.292 2.555-.819 5.086-.479 7.69.721 1.136.544 1.931 2.96 1.411 4.184-.292.698-.819 1.363-.876 2.125-.154 1.549-1.233 1.508-2.352 1.103-1.72-.6-3.058-.13-4.396.543-1.484.73-4.113.292-5.483-.957-.941-.876-1.752-1.062-2.831-.486-4.007 2.205-8.257 1.427-12.654-.787-.584-.292-1.395-.478-1.971-.381-1.33.219-2.612.738-3.934.9-2.068.243-4.186.308-6.27.446-.024-.073-.073-.178-.122-.324z" fill="#fafcfe"/><path d="M106.024 214.843c-.876-.016-1.72.049-2.555-.024l-7.373-.73c-1.46-.073-2.961.097-4.364.324-2.847.511-5.71.243-8.622-.786l-3.439-1.241c-1.371-.381-1.939-1.184-1.614-2.295.454-1.467 1.038-2.894 1.776-4.184.592-1.037 1.768-1.135 3.042-.624l3.107 1.111c1.338.365 2.571.349 3.561-.543 1.403-1.298 3.228-.665 4.972-.219.835.227 1.622.543 2.45.64l6.4.69c1.825.21 3.512 2.262 3.269 3.948l-.608 3.917v.016z" fill="#fafbfe"/><path d="M27.01 258.863c-.835-.616-2.45-1.362-2.401-1.776.13-1.402.795-2.667 1.363-3.965.073-.178.795-.113 1.209-.056l16.279 2.797c3.52.551 7.081.714 10.577 1.16l15.639 2.108c1.509.194 2.531 1.484 2.401 2.886-.211 2.749-.284 2.757-3.18 2.433l-9.75-1.103-26.508-3.584c-1.849-.267-3.658-.754-5.516-1.151.016.105-.065.178-.122.259l.008-.008zm-3.917-33.746c.349-1.987.949-2.392 3.082-2.101l18.38 2.49c5.548.608 11.088.892 16.604 1.321.868.065 2.093-.243 2.433 1.071.341 1.346.535 2.708.519 4.046 0 .227-1.111.478-1.744.454-5.353-.357-10.691-.6-16.028-1.216-7.227-.827-14.471-1.954-21.738-2.984-1.379-.154-1.849-1.184-1.517-3.073l.008-.008zm99.737 29.189c.122 1.216-.56 1.459-1.939 1.273l-25.907-3.43-3.674-.3c-.308-.032-.917-.178-.933-.284-.17-1.297-.349-2.586-.276-3.876.04-.94.754-1.37 1.857-1.232l28.244 3.551c2.271.268 3.301 1.857 2.62 4.298h.008z" fill="#020307"/><path d="M102.299 233.939c-.381 1.978-1.589 2.781-3.755 2.521l-13.765-1.605-13.765-1.606c-1.273-.162-2.514-.275-2.49-2.067.041-2.603.722-3.568 2.515-3.357l23.693 2.862 2.669.219c1.241.114 2.571-.032 3.196 1.662.284.544 1.095.892 1.703 1.371z" fill="#020306"/><path d="M55.036 247.641c-1.565.081-2.993.365-4.429.154l-19.475-3.016c-1.882-.276-3.772-.163-5.662-.381-.414-.033-1.225-.601-1.217-.828-.024-1.346.032-2.7.308-3.989.057-.308.981-.519 1.533-.454l12.605 1.443c3.537.454 7.073 1.103 10.594 1.654.065.025.105 0 .17.017 2.915.34 4.775 2.138 5.581 5.392l-.008.008z" fill="#020307"/><path d="M55.188 274.262c.122 1.217-.608 1.711-2.052 1.533l-10.699-1.265-15.087-1.322c-1.176-.097-1.582-.576-1.614-1.5-.057-.803 0-1.605.073-2.368.089-1.183.819-1.678 2.093-1.556l16.612 1.654 8.736.859c1.314.106 2.369 1.403 2.198 2.83a10.74 10.74 0 0 0-.252 1.135h-.008z" fill="#020407"/><path d="M85.745 249.337c-.041.738-.211 1.444-1.557 1.322l-18.502-1.314a37.9 37.9 0 0 1-5.378-.754c-.503-.121-1.403-.948-1.395-1.338.024-1.2.316-2.359.697-3.446.089-.3.868-.486 1.355-.47l18.616 1.476 3.026.202c2.888 0 3.707 1.784 3.147 4.322h-.008z" fill="#020307"/><path d="M91.317 265.537c.268 1.525-.762 1.565-2.133 1.379l-10.091-1.338c-1.273-.154-1.655-.73-1.687-1.849-.106-2.943.835-3.771 3.837-3.308l6.903.892c2.831.113 3.772 1.443 3.163 4.232l.008-.008z" fill="#020407"/><path d="M16.263 326.14c2.158-1.37 3.464.219 9.304-.576 5.848-.802 7.511-2.813 9.182-1.654 1.638 1.136.6 3.471 1.273 11.344.422 4.906.852 4.289 1.087 8.417.325 5.757-.479 7.557 1.022 9.243 1.29 1.444 2.823 1.168 6.692 2.044 0 0 3.253.738 9.442 3.43 4.25 1.848 7.535 6.178 13.538 20.433 7.089 16.841 10.561 25.339 7.276 28.996-1.079 1.2-4.688 1.386-11.77 1.881-4.64.324-8.176.292-11.518.251-.592 0-5.629-.081-12.524-.689-7.106-.632-8.444-1.151-9.515-2.254-1.647-1.695-1.233-3.316-2.32-8.076-.243-1.062-.446-1.808-3.691-10.517l-4.948-13.144c-2.458-6.973-3.999-11.36-5.005-17.457-1.022-6.179-.892-10.509-.69-17.206.365-12.098 2.109-13.785 3.163-14.458v-.008z" fill="#fff"/><g fill="#010101"><path d="M55.636 411.644s14.454-.162 23.142-1.638c.738-.121 2.32-.421 2.734-1.484.503-1.289-.99-2.943-1.436-3.413l-4.048.94-2.839.503c-5.621.884-11.899 1.184-11.899 1.184-15.136.721-15.428.851-18.348.738-10.756-.414-11.283-2.295-12.224-2.4-.454-.057-.527-.398-.568-.779-.324-3.203-1.184-6.292-2.093-9.365-2.701-9.138-5.929-18.098-9.052-27.091-3.05-8.789-3.731-17.79-2.912-26.944.397-4.452 1.436-8.838 1.549-13.33.024-.941.698-.755 1.176-.673 3.423.575 6.692-.179 9.969-.998 1.03-.259 2.093-.43 3.147-.576 1.995-.267 2.141-.145 2.198 1.898.073 2.935-.454 5.903.065 8.789.876 4.89.714 9.787.69 14.693 0 .122 0 .235.016.357.195 2.481 1.622 4.014 4.088 4.338.941.121 1.898.219 2.847.219 5.816.008 10.537 2.781 14.43 6.584 4.137 4.038 7.073 9.098 9.45 14.417.243.535.446 1.111.519 1.694.114.811.381 1.387 1.298 1.371.973-.016 1.241-.714 1.355-1.508.211-1.436-.324-2.717-.795-4.03-1.614-4.468-4.185-8.417-6.724-12.374-3.293-5.141-8.322-8.003-13.822-10.135-2.012-.779-4.186-.852-6.335-.795-1.168.032-1.663-.276-1.557-1.589.17-2.328.13-4.671.178-7.014-.625-4.265-1.2-8.53-.917-12.86.081-1.225.049-2.457 0-3.682-.146-3.211-2.182-5.173-5.394-5.27-2.482-.073-4.883.446-7.252 1.062-2.093.543-4.177.843-6.335.633-.86-.081-1.744-.065-2.612 0-2.539.21-4.202 1.921-4.38 4.459-.219 3.154-.276 6.325-.965 9.43-.024.357-.016.714-.073 1.055-1.054 6.349-.811 12.722-.146 19.079.471 4.516 2.036 8.765 3.512 13.03 3.001 8.668 6.765 17.036 9.969 25.623.527 1.411.981 2.838 1.501 4.346.235 2.579.584 4.444.844 5.636.138.632.3.924.495 1.24.722 1.2 2.012 1.906 6.66 3.106 1.647.421 2.466.632 3.188.762 5.597.989 14.552.786 17.699.754l.008.008z"/><path d="M24.318 400.147h2.425c-.909-.123-1.712-.123-2.425 0z"/></g><path d="M129.797 22.551l-2.369 8.473c-.413 1.573-.129 3.008 1.355 3.608 1.476.6 2.669-.17 3.447-1.646l3.521-6.787c1.484-3.024 3.171-5.822 6.132-7.525.916-.527 1.638-1.322 2.214-2.27 1.112-1.824 1.047-3.827-.227-5.238-1.249-1.378-3.196-1.5-4.907-.211-4.015 3.016-7.26 6.698-9.158 11.595h-.008zM84.911 41.937l7.114 3.941c1.306.746 2.044 1.922 1.452 3.414s-1.898 1.841-3.382 1.427l-6.789-1.97c-2.969-.941-5.929-1.573-9.02-.543-.949.316-1.955.316-2.961.105-1.939-.405-3.196-1.8-3.269-3.673-.065-1.841 1.16-3.349 3.147-3.746 4.656-.924 9.231-.835 13.7 1.054l.008-.008zm14.204-21.471c-1.987-4.387-4.015-8.773-7.462-12.276-.56-.576-.982-1.378-1.225-2.157-.706-2.222-.479-4.249 1.776-5.53 1.906-1.078 4.007-.381 5.524 1.703 3.456 4.776 5.905 10.038 7.754 15.609.819 2.457 1.711 4.889 2.604 7.33.697 1.906.543 3.568-1.558 4.346-1.93.714-3.114-.341-3.926-2.068-1.111-2.343-2.319-4.638-3.479-6.949l-.008-.008z" fill="#030403"/><path d="M157.686 91.026l-4.648 8.271c-1.087 1.647-2.068 2.222-3.666 1.955.446-1.006.543-2.068.113-3.057-.527-1.224-.714-2.473-.722-3.779 0-.446-.194-.892-.34-1.33-.414-1.281-.682-2.587-.657-3.941.04-2.278-.901-3.568-3.172-3.73-3.22-.235-6.367-1.07-9.62-.924-.876.041-1.76-.073-2.547-.535-.422-1.97.008-2.878 1.801-3.738 1.695-.819 3.674-.827 5.313-1.841.851-.527 1.744-1.014 2.685-1.338.835-.292 1.176-.689.957-1.541.438.105.811.414 1.297.414 1.242.016 2.036-1.046 1.412-2.1-.446-.746-.511-1.5-.519-2.278 0-2.149-.682-4.111-1.55-6.025.86-.584 1.769-.543 2.637-.105 3.366 1.687 6.586 3.568 8.646 6.884.406.649.811.697 1.444.413l7.154-3.097c.568-.243 1.12-.47 1.623.04.316.316.689.251 1.054.292 1.728.211 2.571 1.395 2.198 3.114-.3 1.395-1.087 2.546-2.011 3.584-1.241 1.395-2.069 3.049-3.091 4.581-.34.503-.211.876.252 1.151 1.776 1.046 2.636 2.903 3.828 4.444 1.347 1.735.503 3.714-1.768 4.654-.657-1.103-1.639-1.581-2.904-1.638-.738-.032-1.484-.008-2.182-.397-1.784-.989-2.879-.389-3.042 1.614l.025-.016z" fill="#45d68d"/><path d="M132.435 83.938c.786.462 1.671.576 2.547.535 3.252-.146 6.408.689 9.62.924 2.271.162 3.212 1.451 3.171 3.73-.024 1.362.243 2.66.657 3.941.138.438.333.884.341 1.33 0 1.314.195 2.554.722 3.779.422.989.324 2.052-.114 3.057-.632.657-1.371.973-2.263.616-.9-.356-1.217-1.078-1.152-2.011.025-.397-.194-.713-.365-1.046-.292-.551-.665-1.119-.64-1.751.097-2.497-1.201-4.776-1.128-7.265.016-.584-.341-.568-.722-.592-3.139-.186-6.027-1.273-8.906-2.408-.836-.333-1.501-.916-2.174-1.452-.787-.624-.43-1.135.422-1.395l-.016.008zm11.411-18.446c.859 1.922 1.541 3.884 1.549 6.025 0 .778.073 1.532.519 2.278.625 1.046-.17 2.108-1.411 2.1-.487 0-.86-.308-1.298-.414-.568-.665-.795-1.435-.811-2.319l-.179-6.535c.016-1.338.479-1.573 1.639-1.135h-.008zm13.84 25.535c.162-2.003 1.257-2.603 3.041-1.614.706.389 1.444.365 2.182.397 1.258.057 2.247.543 2.904 1.638-.097.414-.203.884-.689.933-1.955.195-3.902.892-5.897.097-.747-.3-1.322-.649-1.533-1.46l-.008.008z" fill="#030403"/><path d="M121.68 65.558l-2.782 4.954c-.649.981-1.241 1.33-2.198 1.168.267-.6.324-1.241.073-1.833-.317-.738-.43-1.484-.43-2.27 0-.268-.122-.535-.203-.795-.251-.77-.406-1.549-.389-2.368.024-1.362-.544-2.141-1.898-2.238-1.931-.138-3.821-.641-5.768-.551-.527.024-1.054-.049-1.525-.324-.251-1.184 0-1.727 1.079-2.238 1.022-.486 2.198-.495 3.188-1.103.511-.316 1.046-.608 1.606-.803.503-.17.706-.414.576-.924.268.065.487.243.779.251.746 0 1.224-.624.851-1.257-.267-.446-.308-.9-.308-1.362 0-1.289-.414-2.465-.925-3.616.511-.349 1.063-.324 1.582-.065 2.012 1.014 3.95 2.141 5.183 4.127.244.389.487.413.868.251l4.291-1.857c.341-.146.673-.284.973.024.187.195.414.146.633.178 1.038.122 1.541.835 1.314 1.865-.178.835-.649 1.524-1.2 2.149-.747.835-1.241 1.833-1.85 2.749-.202.3-.129.527.154.689 1.063.633 1.582 1.743 2.296 2.66.803 1.038.3 2.23-1.063 2.789-.389-.657-.981-.949-1.735-.981-.438-.024-.885 0-1.306-.243-1.071-.592-1.728-.235-1.825.973h-.041z" fill="#45d68d"/><path d="M106.543 61.309c.471.276 1.006.349 1.525.324 1.947-.089 3.837.414 5.767.551 1.363.097 1.923.876 1.898 2.238-.016.819.146 1.597.39 2.368.081.26.202.527.202.795 0 .787.114 1.532.43 2.27.252.592.195 1.233-.073 1.833-.381.389-.827.584-1.354.373-.544-.211-.73-.649-.69-1.208.017-.235-.113-.43-.219-.624-.178-.332-.397-.673-.389-1.046.057-1.5-.714-2.862-.673-4.354.008-.349-.203-.341-.43-.357-1.882-.114-3.61-.762-5.337-1.443-.503-.195-.901-.551-1.306-.868-.471-.373-.26-.681.251-.835l.008-.016zm6.837-11.059c.519 1.151.925 2.327.925 3.616 0 .462.04.916.308 1.362.373.624-.106 1.265-.852 1.257-.292 0-.511-.187-.779-.251-.34-.397-.478-.86-.486-1.387l-.106-3.916c.008-.803.284-.941.982-.681h.008zm8.3 15.308c.097-1.2.754-1.565 1.825-.973.422.235.868.219 1.306.243.754.032 1.346.324 1.735.981-.056.243-.121.527-.413.559-1.176.122-2.336.535-3.537.057-.446-.178-.795-.389-.916-.876v.008z" fill="#030403"/><path d="M162.454 176.498c-.446 4.889-.397 9.811-1.127 14.684-.446 3.025-1.46 4.484-3.886 5.149-.032-1.702-.592-3.267-1.833-4.378-1.549-1.379-2.62-3.009-3.488-4.857-.292-.625-.859-1.127-1.346-1.654-1.42-1.541-2.644-3.195-3.504-5.125-1.436-3.235-3.61-4.435-6.911-3.178-4.68 1.775-9.669 2.659-14.154 4.994-1.209.633-2.531 1.046-3.942.909-1.882-2.498-1.866-4.063.081-6.439 1.857-2.262 4.623-3.575 6.278-6.073.852-1.297 1.792-2.578 2.904-3.649.981-.948 1.208-1.743.34-2.797.69-.138 1.412.049 2.101-.26 1.76-.794 2.182-2.813.617-3.875-1.112-.763-1.704-1.776-2.215-2.871-1.411-3.016-3.65-5.335-6.124-7.476.819-1.386 2.134-1.922 3.642-1.873 5.84.17 11.608.714 16.677 4.038.99.649 1.598.446 2.304-.357l8.046-9.041c.633-.713 1.266-1.394 2.312-1.005.649.243 1.127-.097 1.671-.276 2.571-.835 4.526.284 5.126 2.952.487 2.165.138 4.297-.478 6.365-.836 2.773-.909 5.643-1.355 8.473-.146.933.276 1.371 1.111 1.452 3.188.316 5.613 2.359 8.298 3.746 3.026 1.565 3.147 4.897.56 7.719-1.639-1.119-3.342-1.159-5.159-.413-1.062.437-2.093.956-3.334.867-3.155-.227-4.307 1.338-3.22 4.265l.008-.016z" fill="#45d68d"/><path d="M122.263 183.051c1.419.138 2.733-.284 3.942-.908 4.486-2.336 9.474-3.22 14.154-4.995 3.302-1.257 5.475-.057 6.911 3.178.86 1.93 2.085 3.592 3.504 5.125.487.519 1.055 1.03 1.347 1.654.868 1.841 1.946 3.47 3.488 4.857 1.249 1.111 1.8 2.676 1.833 4.378-.463 1.338-1.298 2.271-2.782 2.36-1.509.089-2.418-.73-2.937-2.084-.219-.576-.738-.876-1.208-1.232-.771-.592-1.671-1.144-2.052-2.044-1.501-3.584-4.819-5.943-6.344-9.495-.356-.835-.859-.584-1.411-.365-4.542 1.792-9.32 2.149-14.122 2.441-1.387.081-2.717-.316-4.015-.624-1.517-.357-1.346-1.322-.316-2.238l.008-.008zm3.983-33.449c2.474 2.14 4.713 4.451 6.124 7.476.511 1.095 1.104 2.108 2.215 2.87 1.565 1.071 1.135 3.082-.617 3.876-.689.316-1.411.13-2.101.26-1.241-.568-2.06-1.492-2.66-2.733-1.476-3.049-3.139-6-4.526-9.09-.852-1.897-.357-2.529 1.565-2.667v.008zm36.208 26.895c-1.087-2.927.065-4.492 3.22-4.265 1.241.089 2.279-.43 3.334-.868 1.817-.746 3.52-.705 5.159.414.129.64.3 1.378-.365 1.768-2.628 1.564-4.908 3.811-8.241 3.997-1.25.073-2.288-.049-3.115-1.046h.008z" fill="#030403"/><path d="M104.824 122.567c1.541 5.798 3.658 11.425 4.866 17.32.755 3.657.203 5.757-2.303 7.533-.755-1.938-2.044-3.503-3.942-4.257-2.353-.933-4.275-2.352-6.043-4.103-.6-.592-1.46-.933-2.239-1.33-2.279-1.167-4.372-2.554-6.173-4.411-3.001-3.105-5.994-3.576-9.263-.754-4.623 4.006-9.985 7.103-14.146 11.66-1.119 1.233-2.458 2.262-4.145 2.7-3.204-2.076-3.845-3.876-2.604-7.427 1.184-3.373 3.812-6.041 4.656-9.601.438-1.84.982-3.705 1.801-5.4.73-1.5.657-2.505-.779-3.357.738-.446 1.639-.535 2.304-1.184 1.687-1.654 1.33-4.143-.917-4.711-1.59-.405-2.701-1.321-3.748-2.359-2.888-2.871-6.432-4.59-10.163-6.009.365-1.929 1.647-3.097 3.391-3.673 6.773-2.246 13.619-4.046 20.83-2.359 1.411.332 2.02-.154 2.498-1.379l5.443-13.744c.422-1.087.868-2.133 2.231-2.124.852 0 1.257-.592 1.801-1.022 2.596-2.035 5.313-1.573 7.122 1.241 1.468 2.278 1.963 4.865 2.117 7.5.203 3.527 1.322 6.86 2.003 10.29.227 1.127.892 1.459 1.882 1.2 3.788-.973 7.43.357 11.089.827 4.128.527 5.661 4.306 3.877 8.619-2.353-.6-4.324.073-6.092 1.687-1.038.94-2.003 1.97-3.463 2.392-3.715 1.07-4.381 3.341-1.907 6.243l.017-.008z" fill="#45d68d"/><path d="M61.451 146.917c1.679-.438 3.017-1.468 4.145-2.7 4.161-4.557 9.523-7.663 14.146-11.66 3.261-2.822 6.262-2.352 9.263.754 1.793 1.857 3.894 3.243 6.173 4.411.771.397 1.639.738 2.239 1.33 1.768 1.751 3.691 3.17 6.043 4.103 1.898.754 3.188 2.311 3.942 4.257.024 1.727-.535 3.146-2.206 3.867-1.687.73-3.083.179-4.242-1.159-.495-.568-1.217-.698-1.898-.908-1.136-.349-2.401-.608-3.212-1.484-3.228-3.479-8.014-4.809-11.258-8.238-.763-.811-1.225-.309-1.768.17-4.461 3.957-9.798 6.373-15.184 8.716-1.557.682-3.244.779-4.867.965-1.89.219-2.101-.956-1.298-2.432l-.016.008zm-9.449-40.048c3.731 1.419 7.276 3.138 10.164 6.009 1.046 1.037 2.15 1.954 3.747 2.359 2.239.568 2.596 3.057.917 4.711-.665.649-1.565.738-2.304 1.184-1.663-.13-2.993-.851-4.194-2.019-2.969-2.879-6.116-5.571-9.004-8.53-1.776-1.816-1.468-2.749.681-3.714h-.008zm52.821 15.699c-2.474-2.903-1.809-5.181 1.906-6.243 1.461-.422 2.434-1.452 3.464-2.392 1.768-1.614 3.739-2.287 6.092-1.687.421.681.916 1.451.324 2.181-2.36 2.895-4.031 6.43-7.779 8.044-1.403.608-2.652.9-4.007.097zm12.378 8.853c.073-.227.235-.267.673-.6.958-.73.925-1.135 1.379-1.297.747-.268 2.272.357 2.466 1.678.171 1.152-.77 2.092-1.687 2.287-.811.178-1.476-.252-1.744-.43-.535-.349-1.257-1.078-1.087-1.638zm20.239-65.685c-.454.478-1.314.624-1.76.251-.235-.203-.284-.511-.39-1.127-.073-.438-.105-.665.025-.803.194-.211.632-.081 1.29.114.713.211 1.07.316 1.176.624.146.43-.292.9-.333.949l-.008-.008z" fill="#030403"/></g><defs><clipPath id="A"><path fill="#fff" d="M0 0h176v464H0z"/></clipPath></defs></svg>