<svg xmlns="http://www.w3.org/2000/svg" width="136" height="146" fill="none"><g clip-path="url(#A)"><path d="M98.198 96.256l-4.631 7.317-5.059 7.232c-2.03 3.119-4.201 6.153-5.718 9.591-1.141 2.588-2.431 5.114-3.705 7.644-1.07 2.124-2.14 4.256-3.353 6.301-.765 1.29-1.92 2.352-2.67 3.649-.95 1.643-1.73 3.394-2.464 5.148-.842 2.013-2.819 3.466-5.188 2.614-1.49-.537-2.973-1.17-4.338-1.969l-23.632-13.979-9.268-5.501-10.555-6.58c-2.083-1.319-4.131-2.69-6.178-4.066-.577-.388-1.214-.792-1.592-1.346-.301-.442-.403-1.148-.313-1.692.11-.667.425-1.344.803-1.918 1.961-2.978 3.691-6.065 5.135-9.334.677-1.533 1.884-2.83 2.814-4.26.825-1.266 1.595-2.566 2.389-3.851.278-.483.569-.959.833-1.452l3.552-6.678c.603-.908 1.246-1.791 1.803-2.727l11.28-18.946c.97-1.638 1.868-3.316 2.799-4.976.186.169.388.326.559.51 4.262 4.596 9.71 5.768 15.686 5.396 1.331-.083 2.482.027 3.659.927 2.916 2.232 6.062 4.01 9.885 4.348 3.669.324 7.287.353 10.887-.53 3.886-.954 7.235-2.86 10.149-5.565.576.294 1.182.54 1.722.888l6.331 4.144 7.201 4.686c.525.35 1.052.792 1.384 1.314.921 1.45.423 2.928-.207 4.312-.682 1.504-1.712 2.881-2.205 4.434-.755 2.376-1.364 4.785-2.714 6.921l-5.083 7.993.002.002zm-37.406 30.326c-.09-.14-.152-.232-.208-.328-.786-1.369-1.575-1.682-3.122-1.335-.245.055-.65-.129-.831-.335-1.024-1.155-2.201-1.967-3.818-1.985-.3-.004-.632-.081-.892-.227a143.98 143.98 0 0 1-3.622-2.093c-1.248-.743-1.514-.706-2.369.4-.068.088-.136.177-.21.26-.816.91-.655 1.774.4 2.36l3.945 2.244c.488.264 1.05.556 1.576.554 1.326-.008 2.225.449 2.591 1.773.034.125.166.223.257.331.83.973 1.883.815 2.939.534.376 1.558.965 1.962 2.921 2.031.054.18.066.395.171.545.396.571 2.464 1.032 3.088.677.169-.096.354-.341.357-.518.01-1.027.083-2.074-.081-3.078-.251-1.523-1.585-2.261-3.09-1.809l-.002-.001zm-8.093-12.966c-.32.278-.545.488-.784.679s-.498.352-.73.55c-.389.331-.596 1.508-.318 1.825.782.892 1.693 1.538 2.948 1.579.205.007.496.144.591.309.813 1.434 2.171 1.702 3.627 1.68 1.019-.015 1.636.432 2.208 1.246.425.605 1.072 1.17 1.746 1.454.811.339 1.751.403 2.643.503.745.085 1.19.434 1.588 1.066a4.44 4.44 0 0 0 1.431 1.411c.579.343 1.382.618 1.91-.078.432-.569.75-1.259.957-1.946.156-.52.144-1.132-.718-1.213-.264-.025-.564-.305-.735-.548-.864-1.231-1.979-2.015-3.507-2.189-.64-.072-1.277-.202-1.903-.356-.2-.049-.406-.225-.533-.397-1.241-1.68-2.802-2.742-4.988-2.536-.559.052-.782-.206-.911-.642-.247-.834-.967-1.337-1.658-1.328-1.124.011-2.02-.309-2.863-1.066v-.003zm9.804-20.765c.063.079.2.398.44.539L69.309 97l9.13 5.405c1.084.665 1.49.697 2.252-.333.305-.412.391-.785-.129-1.134-.975-.655-1.886-1.417-2.9-2.001l-13.146-7.458c-1.052-.596-1.937-.115-2.013 1.371zm-21.715 13.675l-.65.75-.606.678c-.395.426-.413 1.67.014 1.944.752.483 1.539.912 2.298 1.384.42.262.815.568 1.216.858.55.4 1.028 1.038 1.812.832 1.111-.292 1.813.276 2.484 1.002.968 1.048 1.258 1.075 2.413.246 1.624-1.165 1.622-1.329.24-2.742-1.211-1.237-2.541-2.19-4.353-2.293-.284-.015-.567-.226-.833-.375l-4.032-2.284h-.002zm17.623.356c.11.112.332.464.652.63.996.513 2.061.895 3.039 1.435l10.208 5.727c1.08.61 1.365.542 2.084-.489.406-.583.352-.995-.306-1.356-4.584-2.526-8.972-5.412-13.825-7.448-1.182-.496-1.847-.123-1.854 1.501h.002zM40.743 86.145l-.66.841c-.628.795-.574 1.214.29 1.737.984.594 1.988 1.157 2.988 1.722l7.621 4.295c.518.296.892.243 1.216-.248.184-.28.4-.542.564-.832.229-.402.185-.728-.298-.942-.586-.262-1.168-.537-1.724-.858l-6.974-4.056c-.989-.571-2.001-1.101-3.022-1.66zm3.293 11.936c.098.184.308.394.286.572-.117.984.615 1.189 1.277 1.483.23.103.45.231.67.354l9.045 5.054c.635.354 1.231.04 1.778-.831.445-.707.034-.999-.51-1.298l-5.885-3.264-4.563-2.501c-.884-.473-1.465-.339-2.098.43zm21.873 4.207c.142.147.411.527.772.772.53.36 1.131.61 1.69.929l7.801 4.452c.657.368 1.253-.04 1.724-.971.384-.761-.132-.976-.643-1.259l-7.018-3.921c-.897-.503-1.758-1.086-2.687-1.52-1.072-.501-1.626-.067-1.637 1.517v.001zm7.078-13.067l-.779.863c-.056.061-.141.101-.188.167-.405.564-.2 1.248.401 1.56 1.268.658 2.513 1.364 3.776 2.033l5.814 3.032c.665.339 1.266-.029 1.688-.888.345-.707.064-1.074-.582-1.347-.979-.414-1.979-.797-2.907-1.307l-7.223-4.113zm-19.48 6.641c.207.284.318.542.516.684a9.22 9.22 0 0 0 1.236.724l7.523 3.742c.786.395 1.173.192 1.819-.853.45-.731.025-.996-.518-1.268l-9.043-4.532c-.144-.071-.45-.084-.516 0-.352.458-.654.954-1.014 1.503h-.002zm7.597-6.082c-.122-.101-.303-.299-.525-.429L56.866 87.2c-.772-.441-.926-.37-1.551.635-.432.696-.342 1.128.349 1.53l3.288 1.888c.816.463 2.167-.371 2.15-1.472h.002z" fill="#196ffe"/><path d="M98.198 96.256l5.083-7.993c1.668.193 3.341.571 5.003.532 2.54-.059 5.077-.375 7.608-.645 1.27-.135 2.557-.361 3.515-1.324l6.229-6.394c1.825-2.109 2.594-4.709 2.516-7.517l-.169-3.872-.112-1.168-.584-5.407c-.23-1.496-.401-3.077-1.023-4.426-1.672-3.639-4.639-6.063-8.225-7.956-.364 1.366-.813 2.653-1.036 3.978-.293 1.729-1.072 3.227-1.912 4.714a1.31 1.31 0 0 1-.323.382c-1.182.919-2.588.767-3.949.785-.145.002-.349-.196-.433-.35-.517-.942-1.101-1.864-1.468-2.864-.212-.579-.188-1.319-.049-1.937.585-2.619 1.258-5.221 1.886-7.83a1.02 1.02 0 0 0-.026-.542c-.286-.81-.636-1.602-.882-2.423-.105-.348-.171-.902.021-1.111.75-.822.531-1.682.345-2.602-.733-3.64-2.685-6.62-5.43-8.961-2.697-2.3-5.731-4.172-8.971-5.712-3.034-1.444-6.118-2.438-9.519-2.31-.66.025-.938.27-1.158.836-.137.353-.413.689-.711.934-.902.74-2.017.594-3.071.593-.369 0-.837-.152-1.087-.403-.709-.713-1.283-1.559-1.995-2.268-1.632-1.633-3.3-3.23-4.98-4.812-1.063-1.001-2.144-1.989-3.268-2.921-3.72-3.081-7.735-5.606-12.621-6.396-1.713-.277-3.435-.655-5.157-.68-1.458-.022-2.939.321-4.379.642-2.399.534-4.888.91-7.13 1.849-2.328.974-4.421 2.518-6.591 3.851-2.282 1.403-4.397 3.034-6.013 5.185-1.734 2.311-2.435 5.087-3.275 7.794-.774 2.492-.814 5.042-.82 7.537l3.678-.873c.665-.155.991.118 1.06.795.069.685.132 1.384.318 2.045.33 1.165.545 2.259-.594 3.139-.137.106-.151.358-.259.518-.237.351-.425.817-.764 1.001-.82.447-1.725.733-2.565 1.145-.23.113-.535.488-.494.674.405 1.832.865 3.652 1.329 5.469.237.93.29 1.785-.566 2.475-.195.157-.264.471-.391.712s-.191.557-.384.716c-1.178.973-2.616.824-4.008.841-.115 0-.274-.115-.34-.223-.496-.795-1.089-1.557-1.429-2.414-.574-1.447-.987-2.96-1.482-4.493-.257.154-.498.247-.674.407l-4.509 4.159c-2.404 2.239-3.571 5.133-3.982 8.272C7.683 61.675 7.835 64 7.8 66.3a1.91 1.91 0 0 0 .139.74c1.011 2.393 1.871 4.868 3.099 7.144 1.377 2.555 3.383 4.608 6.173 5.741l7.843 3.2-3.552 6.678c-.262.491-.554.968-.833 1.452-3.19-1.084-6.358-2.225-9.319-3.856-2.899-1.599-4.86-4.116-6.448-6.909-2.196-3.858-3.62-8.032-4.678-12.329-.179-.728-.249-1.503-.229-2.252.073-2.631-.02-5.293.373-7.88.588-3.868 2.116-7.417 4.787-10.377 1.244-1.38 2.538-2.713 3.823-4.056 1.868-1.949 4.338-3.007 6.595-4.377.499-.304.667-.599.672-1.167.024-2.529.03-5.06.18-7.583.163-2.737 1.053-5.327 1.922-7.907 1.994-5.92 5.735-10.418 11.116-13.602 2.115-1.253 4.165-2.614 6.234-3.943 2.816-1.808 5.931-2.832 9.187-3.463 2.528-.49 5.063-.964 7.611-1.342 3.225-.48 6.399-.089 9.597.528 6.184 1.197 10.923 4.778 15.391 8.859 1.912 1.746 3.722 3.602 5.608 5.376.249.233.682.399 1.023.385 1.681-.061 3.359-.206 5.041-.294 4.226-.221 8.131.829 11.896 2.739 2.953 1.496 5.756 3.222 8.27 5.314 3.877 3.225 6.426 7.389 7.648 12.306.327 1.317.549 2.659.872 3.976.064.265.33.589.581.682 3.263 1.212 6.349 2.767 8.952 5.087 3.12 2.783 5.387 6.124 6.383 10.278 1.033 4.312 1.575 8.696 1.92 13.091.207 2.636.64 5.342-.101 7.963-.497 1.754-1.045 3.542-1.904 5.136-2.504 4.645-6.217 8.247-10.447 11.337-2.731 1.996-5.816 3.058-9.194 3.293l-9.405.677c-2.188.157-4.309-.297-6.438-.696l.012.007zm17.238 30.99l-1.297 1.879c-.138.194-.286.417-.485.53-2.544 1.431-4.15 3.594-5.161 6.292-.496 1.325-1.216 2.568-2.681 3.107-1.451.533-3.168.19-3.813-.784-.289-.437-.418-.991-.746-1.388l-5.759-6.801c-.776-.873-1.841-1.491-2.619-2.361-.557-.623-.941-1.443-1.251-2.233-.268-.683.447-1.503 1.189-1.686.444-.109.821-.461 1.258-.626.703-.267 1.415-.534 2.147-.68s1.409-.141 2.05.542c.874.928 1.95 1.666 2.795 2.367l.024-5.545.601-5.825c.113-1.851.074-3.712.044-5.567-.01-.642.095-1.184.552-1.64.078-.079.132-.226.22-.245 1.705-.366 3.046-1.786 4.93-1.666.541.033.635.339.742.729.725 2.654.628 5.37.491 8.068-.095 1.869-.472 3.723-.599 5.592-.158 2.322-.192 4.652.259 6.877l4.576-1.67c.18-.064.392-.05.588-.06 1.075-.058 1.111.02 1.226 1.068.063.568.306 1.116.469 1.674l.25.054v-.002z" fill="#010101"/><path d="M25.063 83.128l-7.843-3.2c-2.79-1.131-4.797-3.186-6.173-5.741-1.228-2.278-2.089-4.751-3.099-7.144-.097-.226-.144-.493-.139-.74.036-2.3-.115-4.625.181-6.891.411-3.137 1.578-6.033 3.982-8.272l4.509-4.159c.176-.162.416-.255.674-.407l1.482 4.493c.34.86.935 1.619 1.429 2.415.066.106.225.223.34.223 1.392-.017 2.829.132 4.008-.841.193-.16.259-.474.384-.716s.195-.556.391-.712c.855-.691.803-1.545.566-2.475l-1.329-5.469c-.041-.186.264-.561.494-.674l2.565-1.145c.337-.184.526-.65.764-1.001.108-.16.122-.412.259-.518 1.14-.88.925-1.974.594-3.139-.186-.658-.247-1.359-.318-2.045-.069-.677-.396-.951-1.06-.795l-3.678.873c.003-2.496.046-5.045.819-7.537.84-2.708 1.541-5.484 3.275-7.794 1.615-2.153 3.73-3.784 6.013-5.185 2.171-1.334 4.264-2.877 6.592-3.851 2.242-.939 4.731-1.315 7.13-1.849 1.439-.321 2.921-.664 4.379-.642 1.722.025 3.444.404 5.157.68 4.887.79 8.901 3.316 12.621 6.396 1.124.932 2.205 1.92 3.268 2.921l4.98 4.812c.711.711 1.285 1.557 1.995 2.268.251.252.718.404 1.087.404 1.055.002 2.169.147 3.072-.593.296-.243.574-.581.711-.934.22-.566.496-.812 1.158-.836 3.402-.128 6.483.866 9.519 2.31 3.239 1.542 6.273 3.412 8.97 5.712 2.745 2.34 4.697 5.32 5.43 8.961.185.92.405 1.78-.345 2.602-.191.209-.125.763-.02 1.111.247.822.596 1.613.882 2.423a1.01 1.01 0 0 1 .025.542l-1.886 7.829c-.139.618-.164 1.359.049 1.937.367 1 .952 1.922 1.468 2.864.085.155.288.351.434.35 1.363-.019 2.768.133 3.948-.785.129-.101.242-.238.323-.382.84-1.489 1.619-2.985 1.912-4.714.224-1.325.672-2.612 1.036-3.978 3.585 1.893 6.553 4.317 8.226 7.956.619 1.349.79 2.928 1.022 4.426.276 1.79.397 3.603.585 5.407.04.39.091.778.111 1.168l.17 3.872c.078 2.808-.693 5.408-2.516 7.517-1.944 2.246-4.13 4.285-6.23 6.394-.958.962-2.247 1.189-3.515 1.324-2.531.27-5.067.586-7.607.645-1.663.039-3.336-.341-5.004-.532 1.35-2.136 1.961-4.545 2.715-6.921.492-1.553 1.522-2.931 2.204-4.434.63-1.386 1.128-2.862.207-4.312-.332-.522-.859-.966-1.384-1.314l-7.201-4.686-6.331-4.144c-.54-.348-1.146-.594-1.722-.886.699-.927 1.441-1.827 2.072-2.798.208-.321.232-.839.169-1.243a15.08 15.08 0 0 0-.572-2.36c-.108-.334-.413-.865-.63-.865-1.253 0-2.513.083-3.41 1.192-.208.257-.582.382-.884.562-.315.189-.681.324-.94.571-1.407 1.339-2.824 2.605-4.729 3.279-2.552.903-5.137 1.069-7.772.694-1.768-.25-3.603-.328-5.19-1.282l-6.026-3.71c-.435-.262-1.16-.24-1.4-.588-.474-.689-1.013-.471-1.551-.354-.786.17-1.551.604-2.328.613-2.601.027-5.156-.361-7.567-1.391-2.462-1.052-4.465-2.761-6.141-4.783-.826-.998-1.664-1.103-2.704-.75-.589.199-1.136.539-1.683.848-.332.187-.601.547-.948.637-.982.253-1.692 1.19-1.356 2.131.4 1.116.637 2.327 1.608 3.178.438.385.776.885 1.158 1.332l-2.799 4.976-11.28 18.946c-.559.934-1.201 1.819-1.803 2.727l-.01-.003z" fill="#fefefe"/><path d="M40.946 56.478c-.383-.447-.72-.947-1.158-1.332-.974-.853-1.211-2.063-1.609-3.178-.335-.939.374-1.878 1.356-2.131.347-.09.616-.449.948-.637.547-.309 1.094-.648 1.683-.848 1.04-.353 1.878-.247 2.704.75 1.678 2.023 3.681 3.732 6.141 4.783 2.411 1.03 4.966 1.418 7.567 1.391.777-.009 1.542-.442 2.328-.613.538-.117 1.077-.334 1.551.355.241.349.965.326 1.4.588l6.026 3.71c1.588.954 3.422 1.03 5.19 1.282 2.635.373 5.22.208 7.772-.694 1.905-.674 3.322-1.94 4.729-3.279.259-.247.625-.38.94-.571.301-.181.675-.306.884-.562.899-1.109 2.157-1.194 3.41-1.192.215 0 .522.529.63.864a15.18 15.18 0 0 1 .572 2.361c.061.402.039.922-.169 1.243-.631.971-1.373 1.871-2.072 2.798-2.914 2.705-6.263 4.611-10.149 5.565-3.598.883-7.218.854-10.887.53-3.823-.338-6.969-2.116-9.885-4.348-1.177-.9-2.326-1.01-3.659-.927-5.975.371-11.424-.8-15.686-5.396-.171-.184-.371-.341-.559-.51l.002-.002z" fill="#010102"/><path d="M60.792 126.581c1.505-.453 2.84.285 3.09 1.808.166 1.005.093 2.052.081 3.078-.002.179-.188.424-.357.519-.625.354-2.692-.107-3.088-.677-.105-.151-.117-.367-.171-.546-1.956-.069-2.545-.473-2.921-2.031-1.057.282-2.111.439-2.939-.534-.091-.106-.222-.206-.257-.331-.367-1.323-1.265-1.781-2.591-1.773-.527.004-1.089-.288-1.576-.553l-3.945-2.244c-1.055-.586-1.216-1.451-.4-2.361.075-.083.141-.172.21-.26.855-1.106 1.123-1.143 2.369-.4l3.622 2.094c.261.145.593.223.892.226 1.617.02 2.792.831 3.818 1.986.181.204.586.388.831.334 1.547-.346 2.337-.034 3.122 1.335l.208.328.002.002zm-8.093-12.966a3.95 3.95 0 0 0 2.863 1.065c.691-.006 1.409.495 1.658 1.329.13.436.352.696.911.642 2.186-.206 3.747.856 4.988 2.536.127.172.334.348.533.397a15.42 15.42 0 0 0 1.903.356c1.527.174 2.643.957 3.507 2.188.171.243.471.525.735.549.86.081.874.692.718 1.212-.206.686-.525 1.378-.957 1.947-.528.696-1.331.422-1.91.078-.564-.335-1.08-.856-1.431-1.412-.398-.631-.843-.981-1.588-1.065-.892-.102-1.832-.166-2.643-.503-.674-.282-1.321-.85-1.746-1.454-.572-.814-1.187-1.261-2.208-1.246-1.456.02-2.814-.247-3.627-1.68-.093-.166-.386-.303-.591-.309-1.253-.041-2.166-.688-2.948-1.579-.278-.318-.071-1.494.318-1.825.232-.198.493-.36.73-.551l.784-.679v.004z" fill="#fbfcfe"/><path d="M62.502 92.85c.076-1.486.962-1.969 2.013-1.371l13.146 7.458c1.014.584 1.925 1.346 2.9 2.001.52.347.433.721.129 1.134-.762 1.029-1.168.998-2.252.333-3.014-1.849-6.072-3.629-9.13-5.405l-6.366-3.612c-.242-.14-.379-.459-.44-.539z" fill="#010305"/><path d="M40.787 106.525l4.032 2.284c.266.151.549.36.833.375 1.812.102 3.142 1.056 4.353 2.293 1.383 1.413 1.383 1.577-.24 2.742-1.155.829-1.444.802-2.413-.246-.671-.726-1.373-1.294-2.484-1.001-.784.206-1.261-.434-1.812-.833l-1.216-.858-2.298-1.384c-.427-.274-.408-1.518-.014-1.944l.606-.678.65-.75h.002z" fill="#fafbfe"/><path d="M58.41 106.881c.007-1.624.672-1.997 1.854-1.501 4.853 2.036 9.24 4.922 13.825 7.448.659.363.713.773.306 1.356-.72 1.032-1.002 1.099-2.084.49l-10.208-5.728c-.979-.54-2.045-.922-3.039-1.435-.32-.166-.542-.52-.652-.63h-.002zM40.743 86.145l3.022 1.66 6.974 4.056c.555.319 1.138.596 1.724.858.483.214.525.54.298.942-.164.29-.379.552-.564.832-.325.491-.698.544-1.216.248l-7.621-4.296-2.988-1.722c-.864-.523-.918-.942-.29-1.737l.66-.841zm3.293 11.936c.633-.77 1.214-.903 2.098-.431l4.563 2.501 5.886 3.264c.543.298.955.591.51 1.298-.547.871-1.145 1.185-1.778.831l-9.045-5.054-.67-.354c-.66-.292-1.394-.498-1.277-1.483.022-.181-.19-.388-.286-.572zm21.873 4.207c.012-1.583.566-2.017 1.637-1.516.93.434 1.788 1.017 2.687 1.52l7.018 3.92c.511.284 1.028.499.643 1.26-.471.93-1.067 1.339-1.724.971l-7.8-4.453-1.69-.928c-.361-.245-.63-.625-.772-.772v-.002zm7.077-13.067l7.223 4.113c.928.512 1.928.893 2.907 1.307.645.273.928.64.582 1.347-.42.859-1.023 1.228-1.688.888l-5.814-3.033-3.776-2.033c-.601-.312-.806-.996-.401-1.56.047-.066.132-.106.188-.167l.779-.863z" fill="#010305"/><path d="M53.506 95.862l1.014-1.503c.066-.086.373-.073.517 0l9.043 4.532c.544.273.97.537.518 1.268-.645 1.045-1.033 1.248-1.819.853l-7.523-3.742a9.03 9.03 0 0 1-1.236-.724c-.197-.142-.31-.4-.516-.684h.002z" fill="#010306"/><path d="M61.104 89.78c.017 1.101-1.334 1.935-2.15 1.472l-3.288-1.888c-.691-.404-.78-.836-.349-1.53.625-1.005.777-1.076 1.551-.635l3.713 2.151c.22.13.401.328.525.429h-.002z" fill="#010305"/></g><defs><clipPath id="A"><path fill="#fff" d="M0 0h136v146H0z"/></clipPath></defs></svg>