<svg xmlns="http://www.w3.org/2000/svg" xmlns:xlink="http://www.w3.org/1999/xlink" width="86" height="24.621" viewBox="0 0 86 24.621"><defs><linearGradient id="linear-gradient" x1=".5" y1="1" x2=".5" gradientUnits="objectBoundingBox"><stop offset="0" stop-color="#1d1f28"/><stop offset="1" stop-color="#393950"/></linearGradient><linearGradient id="linear-gradient-2" x1=".5" x2=".5" y2="0" xlink:href="#linear-gradient"/><linearGradient id="linear-gradient-4" x1=".5" x2=".5" y2="0" xlink:href="#linear-gradient"/><linearGradient id="linear-gradient-5" x1=".5" y1="1" x2=".5" gradientUnits="objectBoundingBox"><stop offset="0" stop-color="#553981"/><stop offset="1" stop-color="#824aac"/></linearGradient><linearGradient id="linear-gradient-6" x1=".5" y1="1" x2=".5" y2="0" xlink:href="#linear-gradient-5"/><linearGradient id="linear-gradient-7" x1=".5" y1="1" x2=".5" y2="0" xlink:href="#linear-gradient-5"/></defs><g id="jobsora-logo-con" transform="translate(0 -.35)"><path id="Контур_79" data-name="Контур 79" d="M5.637,30.837a6.067,6.067,0,0,1-2.09,1.308,6.939,6.939,0,0,1-2.64.564.722.722,0,0,1-.8-.578A6.353,6.353,0,0,1,0,30.892a.743.743,0,0,1,.66-.8,4.988,4.988,0,0,0,2.2-.8,2.976,2.976,0,0,0,.8-2.424V9.934q0-.744.688-.744H6.187c.421,0,.633.238.633.716V26.76Q6.82,29.625,5.637,30.837Z" transform="translate(0 -7.739)" fill="url(#linear-gradient)"/><path id="Контур_80" data-name="Контур 80" d="M86.711,65.024q-1.485,1.57-4.949,1.57-3.354,0-4.8-1.528T75.52,59.322a12.554,12.554,0,0,1,.453-3.649,4.518,4.518,0,0,1,1.375-2.231,5.439,5.439,0,0,1,2.008-1.06,9.769,9.769,0,0,1,2.6-.3,12.041,12.041,0,0,1,2.792.262,4.421,4.421,0,0,1,1.9,1.005,4.158,4.158,0,0,1,1.2,2.176,15.825,15.825,0,0,1,.358,3.718Q88.2,63.453,86.711,65.024ZM84.47,55.633a3.037,3.037,0,0,0-2.571-.909,3.106,3.106,0,0,0-2.516.937q-.783.936-.784,3.607,0,2.892.7,3.814A2.985,2.985,0,0,0,81.817,64a3.2,3.2,0,0,0,2.585-.894q.742-.9.742-3.732T84.47,55.633Z" transform="translate(-66.113 -45.286)" fill="url(#linear-gradient-2)"/><path id="Контур_81" data-name="Контур 81" d="M198.93,1.121q0-.772.633-.771h1.76q.66,0,.66.771v6.8a7.663,7.663,0,0,1,4.482-1.1,4.134,4.134,0,0,1,3.63,1.638q1.155,1.639,1.155,5.384a14.241,14.241,0,0,1-.412,3.759,4.717,4.717,0,0,1-1.307,2.286A4.81,4.81,0,0,1,207.454,21a12.223,12.223,0,0,1-2.97.3,14.248,14.248,0,0,1-4.427-.578,1.557,1.557,0,0,1-.963-.771,2.9,2.9,0,0,1-.164-1.1Zm3.19,17.1a.853.853,0,0,0,.578.33,7.334,7.334,0,0,0,1.815.193q2.255,0,2.97-.978a6.722,6.722,0,0,0,.715-3.7,8.293,8.293,0,0,0-.536-3.566,2.333,2.333,0,0,0-2.268-1.005,5.82,5.82,0,0,0-3,.578,1.089,1.089,0,0,0-.358.358,2.094,2.094,0,0,0-.055.578v6.5A1.224,1.224,0,0,0,202.12,18.223Z" transform="translate(-174.46)" fill="url(#linear-gradient)"/><path id="Контур_82" data-name="Контур 82" d="M314.555,60.544a4.92,4.92,0,0,1-2.53-1.376,3.867,3.867,0,0,1-.825-2.643q0-4.213,5.363-4.214a13.635,13.635,0,0,1,3.878.441.628.628,0,0,1,.522.661,6.917,6.917,0,0,1-.33,1.487.46.46,0,0,1-.495.414,5.09,5.09,0,0,1-.66-.082,12.173,12.173,0,0,0-3.024-.358,2.863,2.863,0,0,0-1.8.4,1.44,1.44,0,0,0-.453,1.142,1.141,1.141,0,0,0,.358.881,4.372,4.372,0,0,0,1.54.689l1.87.551a5.929,5.929,0,0,1,2.722,1.433,3.766,3.766,0,0,1,.77,2.589q0,4.242-5.472,4.242a12.027,12.027,0,0,1-4.675-.689.642.642,0,0,1-.44-.661,5.34,5.34,0,0,1,.385-1.378.647.647,0,0,1,.605-.5,2.591,2.591,0,0,1,.715.166,12.268,12.268,0,0,0,3.52.468,2.943,2.943,0,0,0,1.925-.455,1.514,1.514,0,0,0,.495-1.17,1.06,1.06,0,0,0-.358-.855,4.623,4.623,0,0,0-1.54-.634Z" transform="translate(-272.619 -45.487)" fill="url(#linear-gradient-4)"/><path id="Контур_83" data-name="Контур 83" d="M420.962,65.024q-1.486,1.57-4.95,1.57-3.354,0-4.8-1.528t-1.444-5.743a12.554,12.554,0,0,1,.453-3.649,4.518,4.518,0,0,1,1.375-2.231,5.444,5.444,0,0,1,2.007-1.06,9.768,9.768,0,0,1,2.6-.3,12.042,12.042,0,0,1,2.792.262,4.422,4.422,0,0,1,1.9,1.005,4.158,4.158,0,0,1,1.2,2.176,15.824,15.824,0,0,1,.358,3.718Q422.448,63.453,420.962,65.024Zm-2.242-9.391a3.037,3.037,0,0,0-2.571-.909,3.106,3.106,0,0,0-2.516.937q-.785.936-.784,3.607,0,2.892.7,3.814a2.985,2.985,0,0,0,2.516.922,3.2,3.2,0,0,0,2.585-.894q.742-.9.742-3.732T418.72,55.633Z" transform="translate(-359.367 -45.286)" fill="url(#linear-gradient-5)"/><path id="Контур_84" data-name="Контур 84" d="M535.573,66.483h-1.76c-.421,0-.633-.239-.633-.716V55.3a2.713,2.713,0,0,1,.151-1.033,1.79,1.79,0,0,1,.592-.675,7.261,7.261,0,0,1,2.227-.881,11.86,11.86,0,0,1,3.025-.414,7.135,7.135,0,0,1,1.623.138.579.579,0,0,1,.44.605,8.29,8.29,0,0,1-.137,1.6q-.082.413-.605.412c-.092,0-.325-.009-.7-.027s-.628-.027-.756-.027a4.719,4.719,0,0,0-2.255.441.784.784,0,0,0-.44.386,2.145,2.145,0,0,0-.11.771v9.171C536.233,66.245,536.014,66.483,535.573,66.483Z" transform="translate(-467.696 -45.479)" fill="url(#linear-gradient-6)"/><path id="Контур_85" data-name="Контур 85" d="M616.225,65.153a1.833,1.833,0,0,1-.879.634,10.6,10.6,0,0,1-2.352.564,20.079,20.079,0,0,1-2.983.234q-2.887,0-3.974-1.185a4.627,4.627,0,0,1-1.086-3.25,3.685,3.685,0,0,1,1.54-3.36,8.549,8.549,0,0,1,4.345-.826,24.872,24.872,0,0,1,2.667.11v-.908a4.669,4.669,0,0,0-.166-1.487q-.357-.936-2.557-.937a14.727,14.727,0,0,0-2.887.3c-.715.11-1.081.166-1.1.166a.53.53,0,0,1-.522-.441,5.486,5.486,0,0,1-.22-1.35.719.719,0,0,1,.551-.716,16.24,16.24,0,0,1,4.619-.634q3.3,0,4.372,1.074.936.908.936,3.635v7.133A1.942,1.942,0,0,1,616.225,65.153Zm-5.033-4.985a5.428,5.428,0,0,0-2.722.468,1.527,1.527,0,0,0-.605,1.433,2.148,2.148,0,0,0,.536,1.583,2.822,2.822,0,0,0,1.994.537,7.141,7.141,0,0,0,2.53-.358.738.738,0,0,0,.467-.468,3.1,3.1,0,0,0,.11-.937V60.279Q612.349,60.169,611.192,60.168Z" transform="translate(-530.526 -45.277)" fill="url(#linear-gradient-7)"/></g></svg>