<svg xmlns="http://www.w3.org/2000/svg" width="151" height="140" fill="none"><g clip-path="url(#A)"><path d="M138.086 72.007c-.009.046-.032.084-.073.109-.577.162-.809.558-.762 1.139l-.047.055-.418-.094-.045.554-.893 1.536-.03-.045-.053.013-.266-.028.198.103-.453 1.297c-1.934 2.974-3.746 6.038-5.842 8.896-1.965 2.68-4.231 5.14-6.366 7.697l-8.775 10.546c-.449.547-.677 1.27-1.063 1.874-1.7 2.664-3.355 5.359-5.153 7.955-1.78 2.569-3.717 5.032-5.577 7.547l-3.257 4.444-7.252 9.678c-.734 1.034-1.814 1.206-2.742 1.764-.269.16-.572.28-.804.481-.832.723-1.807.734-2.842.763-.971.026-1.944.27-2.897.5-2.316.558-4.629 1.224-7.022 1.21-2.004-.012-4.004-.324-6.01-.44-.877-.05-1.767.132-2.644.077-1.254-.077-2.518-.189-3.747-.44-2.106-.428-4.207-.906-6.272-1.49-2.206-.624-4.369-1.393-6.55-2.106-2.031-.663-4.078-1.281-6.081-2.017-2.599-.955-5.165-1.999-7.74-3.018-.702-.278-1.423-.543-2.07-.925-1.794-1.056-3.555-2.17-5.329-3.26-.702-.431-1.422-.836-2.106-1.295-1.976-1.326-4.057-2.486-5.609-4.396-.862-1.062-2.122-1.791-3.066-2.797-1.598-1.709-3.129-3.485-4.613-5.294-1.611-1.963-3.136-3.996-4.698-5.999-1.306-1.671-2.213-3.575-2.931-5.535-1.126-3.075-2.051-6.224-3.088-9.333-.652-1.955-1.472-3.861-2.001-5.848-.42-1.578-.937-3.145-.902-4.852.048-2.403-.289-4.819-.175-7.218.166-3.499.501-6.997.925-10.476.34-2.788.959-5.543 1.383-8.322.381-2.509.681-5.032.98-7.553.089-.755.148-1.409 1.058-1.7.298-.094.494-.661.64-1.048.672-1.766 1.229-3.579 1.976-5.311 1.101-2.559 2.33-5.053 3.93-7.358 1.187-1.711 2.197-3.54 3.367-5.261.886-1.301 1.953-2.475 2.842-3.772.862-1.26 2.07-2.101 3.214-3.049 1.395-1.158 2.612-2.535 4.034-3.656 1.857-1.461 3.816-2.797 5.775-4.123 2.129-1.443 4.324-2.792 6.457-4.23 1.108-.747 2.12-1.637 3.228-2.386.467-.314 1.064-.442 1.611-.627l4.802-1.621c.955-.346 1.865-.812 2.808-1.196.456-.185.932-.342 1.413-.447 1.568-.347 3.132-.729 4.718-.982 1.563-.249 3.143-.412 4.721-.517 1.78-.118 3.567-.214 5.349-.167 3.157.082 6.316.226 9.468.445 2.731.189 5.465.44 8.176.816 1.572.217 3.145.611 4.638 1.149 2.63.948 5.19 2.09 7.798 3.1 1.441.559 2.952.943 4.378 1.539 1.901.796 3.765 1.685 5.614 2.599 1.534.759 3.068 1.538 4.52 2.437 2.169 1.343 4.36 2.682 6.368 4.242a59.4 59.4 0 0 1 6.049 5.408c1.527 1.566 2.822 3.371 4.13 5.137 1.322 1.787 2.578 3.626 3.784 5.495 1.472 2.282 3.022 4.536 4.234 6.956.89 1.778 1.3 3.799 1.906 5.716.609 1.926 1.272 3.84 1.778 5.794.615 2.371 1.801 4.611 1.57 7.191-.08.886.185 1.803.301 2.705l.684 5.308c.013.105-.068.221-.105.333-.114.196-.36.426-.319.579.264.989-.296 1.741-.656 2.553-.151.344-.274.7-.409 1.051l-.013.009c-.818.135-.871.83-1.053 1.434l-.009-.004zm-46.199 29.555l.219-.209c.205-.196.442-.368.611-.591l2.069-2.822c1.105-1.559 2.149-3.164 3.3-4.689 1.921-2.544 3.799-5.133 5.894-7.529 1.987-2.273 4.221-4.329 6.361-6.468 1.154-1.153 2.257-2.38 3.528-3.391 1.623-1.292 3.39-2.404 5.102-3.583.788-.543 1.567-1.108 2.399-1.579.75-.424 1.573-.715 2.35-1.09l3.217-1.6 7.982-2.86-.668-5.482c-.292-2.496-.684-4.955-1.703-7.296-.59-1.356-1.171-2.794-1.336-4.242-.405-3.544-2.099-6.505-3.858-9.457-.819-1.375-1.758-2.678-2.642-4.014-.698-1.055-1.338-2.154-2.108-3.154-1.5-1.946-3.03-3.873-4.634-5.733-.91-1.057-1.922-2.054-3.013-2.922-1.728-1.376-3.558-2.626-5.354-3.916-.732-.526-1.457-1.078-2.246-1.504-1.369-.738-2.862-1.267-4.166-2.099-2.667-1.7-5.66-2.64-8.524-3.875-2.213-.955-4.486-1.775-6.753-2.596-1.718-.624-3.433-1.342-5.215-1.68-2.3-.438-4.659-.595-7-.771-2.908-.219-5.823-.387-8.737-.478-1.68-.052-3.367.098-5.051.15-1.26.039-2.528-.018-3.775.123a26.75 26.75 0 0 0-4 .759c-2.045.558-4.066 1.212-6.079 1.878-.919.305-1.767.923-2.699 1.067-2.15.333-3.69 1.755-5.425 2.806-1.491.903-2.856 2.011-4.294 3.006-2.101 1.456-4.271 2.819-6.309 4.355-1.881 1.418-3.668 2.97-5.424 4.545-1.172 1.053-2.391 2.127-3.285 3.405-2.042 2.913-3.918 5.944-5.819 8.955a27.06 27.06 0 0 0-1.751 3.221c-.88 1.935-1.775 3.873-2.468 5.878-.504 1.457-.673 3.031-1.046 4.538-.1.401-.41.747-.606 1.126-.217.421-.518.832-.604 1.281l-1.258 7.153c-.328 2.015-.661 4.032-.882 6.06-.289 2.664-.527 5.334-.675 8.009-.087 1.582-.059 3.184.102 4.761.18 1.778.403 3.581.894 5.29.939 3.253 2.161 6.426 3.12 9.674.969 3.285 2.248 6.418 4.205 9.222 1.424 2.042 2.995 3.986 4.575 5.914a74.27 74.27 0 0 0 4.009 4.513 61.83 61.83 0 0 0 4.251 4.028c1.482 1.269 3.024 2.485 4.643 3.57 1.194.8 2.557 1.344 3.836 2.017.567.298 1.083.701 1.668.95l7.868 3.253c1.233.492 2.509.875 3.77 1.296.688.228 1.395.401 2.076.646 1.422.514 2.817 1.109 4.253 1.579 1.466.479 2.956.903 4.458 1.252 2.095.487 4.196 1.036 6.325 1.274 2.635.296 5.313.196 7.95.473 1.849.194 3.624.137 5.411-.332l6.5-1.643v-.693l.2-6.439 1.374-7.118c.538-3.262 1.112-6.512 2.193-9.647.476-1.379.944-2.766 1.488-4.118.333-.83.805-1.605 1.213-2.403l-.004-.002zm39.507-29.717l-.819.266c-1.191.385-2.418.684-3.56 1.181-1.263.549-2.45 1.274-3.662 1.935-.322.176-.637.374-.919.606-1.407 1.16-3.207 1.726-4.517 3.04-.466.469-1.051.814-1.56 1.242-.196.166-.298.449-.501.6-.802.599-1.669 1.115-2.432 1.759-.857.723-1.644 1.534-2.427 2.341a47.42 47.42 0 0 0-2.225 2.448c-.495.588-.78 1.47-1.39 1.823-1.527.882-1.972 2.646-3.303 3.679-.602.469-.919 1.311-1.347 1.995-.64 1.023-1.701 1.657-2.27 2.806-.652 1.318-1.782 2.391-2.553 3.662-.807 1.329-1.454 2.76-2.138 4.162-.672 1.375-1.336 2.758-1.942 4.164-.534 1.238-1.103 2.482-1.441 3.777-.437 1.668-.641 3.392-.976 5.087-.335 1.69-.762 3.365-1.049 5.065-.262 1.563-.39 3.148-.577 4.723l.367.123 1.281-1.626c.451-.544.946-1.05 1.392-1.597l3.987-4.937c.519-.647 1.01-1.315 1.511-1.978l1.889-2.517c.549-.72 1.147-1.404 1.655-2.151.754-1.108 1.42-2.277 2.176-3.383 1.126-1.65 2.346-3.236 3.433-4.91 1.062-1.634 1.99-3.354 3.009-5.018.353-.577.798-1.097 1.206-1.639.701-.928 1.363-1.892 2.119-2.772 1.226-1.429 2.523-2.794 3.77-4.203.492-.556.914-1.172 1.391-1.743a55.28 55.28 0 0 1 1.567-1.785c.732-.802 1.526-1.554 2.209-2.395.8-.987 1.5-2.054 2.261-3.075 1.117-1.5 2.316-2.943 3.357-4.493 1.044-1.556 1.979-3.191 2.863-4.845.196-.367.948-.868.174-1.413l-.007-.004z" fill="#040505"/><path d="M143.241 125.962l-3.214-1.543-6.021-3.123-5.632-2.862c-1.258-.655-2.07-2.562-1.616-3.666.553-1.342 1.958-1.803 3.239-1.082.346.194.711.428 1.091.483 2.451.356 4.415 1.858 6.628 2.772l4.712 2.055c1.413.625 2.728 1.494 3.343 2.9.329.757.654 1.855-.025 2.71-.528.666-1.165 1.258-2.507 1.354l.002.002z" fill="#030303"/><path d="M147.116 105.795l-3.865-1.124c-3.727-1.277-7.239-3.163-11.139-3.959-.588-.119-1.445-1.277-1.395-1.778.08-.789 1.017-1.618 1.892-1.539 1.142.102 2.277.289 3.407.492l11.135 2.072c.937.195 1.9.67 2.646 1.271.798.643.739 1.73.449 2.646-.26.819-.796 1.496-1.778 1.607-.435.05-.866.139-1.299.21l-.052.105-.001-.002zm-32.176 18.829c0-.6-.144-1.283.029-1.873.408-1.398 2.188-1.826 3.267-.855l4.57 4.171c1.059 1.073 2.162 2.213 2.83 3.533 1.181 2.334-.146 4.576-2.425 4.663-.741.028-1.55-.549-2.236-.991-.212-.137-.118-.743-.173-1.133-.183-1.313-1.09-2.236-1.828-3.225-.941-1.261-1.994-2.441-3.036-3.622-.255-.289-.656-.445-1-.67l.002.002z" fill="#040404"/><g fill="#595959"><path d="M139.153 70.566l.41-1.051c.36-.814.919-1.564.656-2.553-.041-.155.205-.385.319-.579.237 1.627-.316 2.99-1.385 4.183zm-1.067 1.441c.182-.602.235-1.299 1.053-1.434l-1.053 1.434z"/><path d="M137.253 73.254c-.047-.581.185-.975.762-1.138l-.762 1.138zm-2.009 3.391l.453-1.297.067-.075.054-.013.03.045-.604 1.34zm1.499-2.876l.045-.554.418.094-.461.46h-.002z"/></g><path d="M126.938 68.011l-3.217 1.6-2.35 1.09c-.832.47-1.611 1.035-2.399 1.579l-5.102 3.583c-1.271 1.01-2.374 2.238-3.528 3.391l-6.361 6.467c-2.095 2.396-3.973 4.985-5.894 7.529l-3.3 4.689-2.068 2.822c-.169.224-.406.395-.611.591l-1.801.241c.697.791 1.105.091 1.582-.032l-1.213 2.403-1.488 4.118c-1.082 3.135-1.655 6.385-2.193 9.648l-1.374 7.117-.951.143c-1.293.322-2.566.823-3.877.962-2.322.248-4.668.413-7 .365-2.815-.057-5.637-.276-8.434-.604-2.528-.295-5.058-.712-7.531-1.304-1.662-.397-3.216-1.231-4.841-1.803l-3.943-1.235-7.057-2.968c-1.785-.818-3.537-1.73-5.019-3.068l-3.877-3.458c-.982-.961-1.849-2.039-2.731-3.095l-2.218-2.792-5.602-5.757c-2.355-2.391-3.658-5.371-4.552-8.514-.723-2.541-1.181-5.158-1.721-7.749l-1.22-6.32c-.677-4.239-.488-8.49-.132-12.75.196-2.35.798-4.584 1.454-6.822.347-1.188.814-2.359 1.014-3.572.253-1.527.424-3.036 1.621-4.182.094-.091.109-.265.166-.397l3.898-8.887c.412-.918.875-1.826 1.424-2.667.763-1.167 1.628-2.266 2.45-3.396.916-1.258 1.753-2.583 2.763-3.759 1.249-1.454 2.56-2.881 3.993-4.15 2.085-1.844 4.233-3.633 6.484-5.268 2.006-1.457 4.251-2.512 6.669-3.202 2.293-.654 4.517-1.554 6.815-2.184 1.914-.524 3.879-.886 5.84-1.19 2.348-.364 4.713-.686 7.082-.844 1.81-.121 3.647-.05 5.459.1 1.759.146 3.496.54 5.249.759 2.961.371 5.917.727 8.745 1.773 2.029.75 4.119 1.345 6.12 2.163 1.814.743 3.595 1.6 5.293 2.58 2.013 1.162 3.991 2.411 5.853 3.799 1.702 1.27 3.239 2.762 4.827 4.183 1.477 1.324 2.959 2.644 4.369 4.039.94.932 1.747 1.999 2.631 2.991 1.857 2.085 3.669 4.208 4.827 6.778.899 1.994 1.756 4.011 2.519 6.06.736 1.974 1.404 3.982 1.96 6.013.572 2.092 1.012 4.224 1.439 6.354.401 2.003.711 4.023 1.061 6.035l.001.005zM72.31 106.704l-.014.009-1.265.336c-.004.05-.02.093-.05.132l-.315.025c-.812-.171-1.376.342-1.983.729l-.321-.177c.021-.008.046-.014.064-.026.011-.007.011-.031.014-.045-.023.027-.048.054-.071.079-.522.162-1.056.294-1.561.497-.335.133-.627.368-.941.559-.513.175-1.368-.508-1.568.661l1.575-.31c.285-.044.593-.036.852-.142.763-.318 1.552-.693 2.357-.629.584.046.458-.118.367-.444.648.15 1.293.278 1.784-.36.351-.007.704.002 1.051-.036.053-.005.086-.222.127-.342l1.832-.349.153.05-.162-.039-.009-.221 2.575-.36c.453-.071.914-.151 1.343-.305.738-.263 1.452-.589 2.175-.889.871.089 1.507-.374 2.117-.898.301-.034.64.013.896-.114 1.614-.787 3.366-1.024 5.099-1.345.992-.183 1.295-.354 1.554-.971-1.361.004-1.358.009-2.236.625-.121.086-.326.038-.474.097-.787.319-1.782-.26-2.462.579-.087.107-.39.039-.593.053h-.175l-1.409.396-2.158.748-.536.267-.556.023-1.509.273c-.043.045-.087.087-.13.132-1.374.207-2.724.479-3.865 1.356l-.52-.048-1.055.427.004-.003zm47.724-50.258h-.54l.89 2.452c.197-.242.527-.492.484-.62-.208-.636.018-1.493-.835-1.832l.333-.296-.161-.134-.172.429h.001zm-37.43-35.24l.025.468.347-.376h.8c-1.065-1.06-4.133-1.548-5.096-.825l1.071.584c.372.322.743.604 1.103-.014l.495.025c.2.251.374.613.736.173l.52-.034-.002-.002zm-.852 25.984l.289-1.272c.141-.214.253-.456.429-.634.583-.592 1.046-1.244 1.106-2.099.086-1.212.207-2.425.205-3.636-.002-1.261-.301-2.528-1.315-3.337-2.37-1.89-5.124-2.89-8.151-2.445-4.283.629-7.606 2.646-8.926 7.097-.059.196-.278.344-.422.511-.237.376-.522.73-.702 1.133-.645 1.45-1.021 3.041-.656 4.545.574 2.368 1.516 4.577 4.005 5.739 1.461.682 3.002.93 4.527 1.053 1.374.11 2.762-.488 3.959-1.153 1.707-.946 3.394-2.017 4.26-3.93.069-.153.314-.226.477-.337l.727-.7.187-.536v.002zM53.805 61.319c-2.004.713-2.967 3.025-2.049 4.928.46.953 2.402 1.47 3.439.854 1.196-.711 2.395-.349 3.572-.064.72.175 1.073.811 1.142 1.534.274 2.861.584 5.73-.458 8.517-.663 1.775-1.29 3.569-2.06 5.297-.624 1.4-1.529 2.678-2.143 4.082-.6 1.37-1.032 2.819-1.464 4.255-.609 2.019-1.082 4.084-.816 6.204.303 2.412 1.251 4.595 2.984 6.325.793.791 1.65 1.595 2.904 1.753.777.1 1.571.321 2.282.65 1.894.882 3.882.751 5.847.576 1.256-.112 2.5-.479 3.722-.825 1.172-.331 2.297-.828 3.469-1.16.638-.18 1.333-.166 2.083-.249.198-.146.52-.342.795-.59.641-.579 1.456-1.042 1.472-2.069l1.212-.516c.198 0 .299-.237.476-.328 1.561-.807 2.332-2.216 2.085-3.93-.034-.237-.173-.474-.312-.677-.832-1.201-2.074-.962-3.236-.836-1.306.142-2.594.438-3.898.581-1.27.139-2.078-.647-1.896-1.876.166-1.119.513-2.207.746-3.317l1.13-5.616.834-4.713.982-6.216c.303-1.994.723-3.982.828-5.986.071-1.354-.142-2.785-.55-4.082-.337-1.072-.941-2.247-1.785-2.94-1.823-1.495-4.057-2.329-6.302-3.054-.162-.052-.342-.071-.513-.064-1.051.041-2.108.046-3.153.157-1.55.164-3.093.403-4.64.613-1.101.15-2.199.408-3.301.438-1.726.048-2.836.734-3.424 2.341l-.002.005zm58.994-19.579c-.301-.529-.586-1.162-.991-1.705-.397-.533-.916-.976-1.534-1.616.365 1.776-.753 2.735-1.463 4.053l3.99-.732h-.002zm-7.686-7.642l-2.135-2.243-.189.148.529.982-.701.178.507 1.203 1.989-.269v.002zM29.446 38.86l.315.271c.665-.699 1.352-1.377 1.965-2.119.098-.119-.137-.515-.228-.821l-2.052 2.669zm-9.293 44.37c.42-.565.848-1.165 0-1.841v1.841zm43.728 25.861l-.233-.048-.093.517.216.043.11-.512z" fill="#196efd"/><path d="M126.939 68.011l-1.061-6.035-1.439-6.354-1.96-6.013-2.519-6.06c-1.158-2.569-2.972-4.693-4.827-6.777l-2.631-2.992-4.369-4.039-4.827-4.183c-1.86-1.388-3.839-2.637-5.853-3.799-1.698-.978-3.48-1.837-5.293-2.58l-6.12-2.163c-2.828-1.046-5.783-1.404-8.745-1.773l-5.249-.759c-1.812-.151-3.649-.221-5.459-.1-2.37.159-4.732.481-7.082.844l-5.84 1.19-6.815 2.184c-2.418.69-4.663 1.743-6.669 3.202-2.25 1.636-4.399 3.424-6.484 5.268-1.434 1.269-2.744 2.694-3.993 4.15-1.01 1.176-1.849 2.502-2.763 3.759l-2.45 3.396c-.549.841-1.012 1.748-1.424 2.667l-3.898 8.887c-.059.132-.071.306-.166.397-1.197 1.144-1.368 2.655-1.621 4.182-.201 1.213-.666 2.382-1.014 3.572-.656 2.238-1.258 4.474-1.454 6.822-.356 4.26-.543 8.511.132 12.75.338 2.118.782 4.219 1.22 6.32.54 2.591.998 5.208 1.721 7.749.894 3.143 2.197 6.124 4.552 8.515l5.602 5.756c.809.864 1.456 1.88 2.218 2.792.882 1.057 1.75 2.137 2.731 3.095 1.236 1.21 2.59 2.298 3.877 3.458 1.482 1.337 3.232 2.251 5.019 3.068 2.32 1.062 4.681 2.04 7.057 2.969 1.279.5 2.644.777 3.943 1.234 1.625.572 3.179 1.406 4.841 1.803 2.475.594 5.003 1.009 7.531 1.305 2.797.328 5.619.547 8.435.604 2.332.048 4.679-.118 7-.366 1.311-.139 2.583-.639 3.877-.962.31-.076.634-.096.951-.142l-.2 6.439c-.005.178 0 .356 0 .693l-6.5 1.643c-1.787.466-3.562.525-5.411.331-2.637-.276-5.317-.176-7.95-.472-2.129-.239-4.23-.788-6.325-1.274-1.502-.349-2.992-.773-4.458-1.253-1.436-.468-2.831-1.063-4.253-1.578-.681-.246-1.388-.417-2.076-.647-1.261-.419-2.537-.803-3.77-1.295l-7.868-3.254c-.584-.247-1.103-.65-1.668-.949-1.279-.675-2.642-1.217-3.836-2.017-1.62-1.085-3.161-2.302-4.643-3.571s-2.897-2.624-4.251-4.028c-1.397-1.447-2.733-2.958-4.009-4.513-1.579-1.928-3.15-3.872-4.575-5.913-1.956-2.805-3.236-5.939-4.205-9.222-.959-3.25-2.181-6.421-3.12-9.675-.494-1.709-.714-3.512-.894-5.29-.159-1.575-.189-3.179-.102-4.761.148-2.674.387-5.347.675-8.009.221-2.028.554-4.044.882-6.06l1.258-7.153c.086-.449.387-.861.604-1.281.196-.38.506-.725.606-1.126.372-1.507.542-3.081 1.046-4.538.695-2.004 1.588-3.945 2.468-5.878a27.06 27.06 0 0 1 1.751-3.221c1.901-3.009 3.777-6.042 5.819-8.955.894-1.277 2.111-2.352 3.285-3.405 1.755-1.575 3.542-3.127 5.423-4.545 2.038-1.536 4.208-2.901 6.309-4.354 1.436-.994 2.803-2.102 4.294-3.006 1.737-1.051 3.275-2.473 5.425-2.806.932-.144 1.78-.764 2.699-1.067 2.013-.666 4.034-1.322 6.079-1.878 1.306-.356 2.655-.608 4-.759 1.247-.141 2.518-.084 3.775-.123 1.684-.052 3.371-.201 5.051-.15 2.915.089 5.83.258 8.737.478 2.341.176 4.7.333 7 .771 1.782.339 3.498 1.058 5.215 1.68 2.266.821 4.54 1.641 6.753 2.596 2.863 1.235 5.856 2.175 8.523 3.875 1.305.832 2.798 1.359 4.166 2.099.789.426 1.514.978 2.247 1.504 1.796 1.29 3.625 2.541 5.354 3.916 1.09.868 2.102 1.865 3.013 2.922 1.603 1.86 3.134 3.788 4.634 5.733.769.999 1.409 2.099 2.107 3.154.886 1.336 1.825 2.64 2.643 4.014 1.758 2.952 3.453 5.913 3.857 9.457.166 1.449.747 2.886 1.336 4.242 1.019 2.341 1.411 4.8 1.704 7.296l.668 5.482-7.982 2.86.002-.004z" fill="#fcfcfd"/><path d="M131.394 71.845c.773.545.021 1.046-.175 1.413l-2.863 4.844c-1.04 1.55-2.239 2.995-3.356 4.493l-2.261 3.075c-.683.843-1.477 1.593-2.21 2.395l-1.566 1.785-1.391 1.743-3.77 4.203c-.756.882-1.419 1.844-2.119 2.772l-1.206 1.639-3.009 5.017-3.434 4.91-2.175 3.384c-.508.746-1.108 1.431-1.655 2.15l-1.889 2.518-1.511 1.978-3.987 4.937-1.392 1.596-1.281 1.627-.367-.123.577-4.723 1.049-5.066.976-5.087c.339-1.297.907-2.54 1.441-3.777l1.942-4.164 2.138-4.162c.771-1.27 1.901-2.343 2.553-3.661.568-1.149 1.63-1.784 2.27-2.806.428-.684.745-1.529 1.347-1.995 1.331-1.033 1.776-2.797 3.303-3.679.609-.353.895-1.235 1.39-1.823l2.225-2.448 2.427-2.341c.762-.643 1.63-1.16 2.432-1.758.203-.151.305-.435.5-.6.51-.428 1.094-.775 1.561-1.242 1.31-1.313 3.111-1.88 4.517-3.04.281-.232.598-.431.919-.606l3.662-1.935c1.142-.497 2.369-.795 3.559-1.181l.82-.265.007.004z" fill="#f9f9f9"/><path d="M91.887 101.562c-.477.123-.885.823-1.582.032l1.801-.241-.219.209z" fill="#7dadfd"/><path d="M135.697 75.348l-.198-.103.265.029-.067.075z" fill="#595959"/><path d="M53.805 61.319c.59-1.607 1.7-2.293 3.424-2.341 1.105-.03 2.2-.289 3.301-.438l4.639-.613c1.046-.11 2.102-.116 3.154-.157a1.51 1.51 0 0 1 .513.064c2.245.723 4.479 1.557 6.302 3.054.844.693 1.448 1.865 1.785 2.94.408 1.295.622 2.728.55 4.082-.105 2.004-.526 3.993-.828 5.986l-.982 6.216-.834 4.713-1.13 5.616-.747 3.317c-.182 1.229.625 2.013 1.896 1.876l3.898-.581c1.162-.126 2.404-.367 3.236.836.141.203.278.44.312.677.246 1.714-.524 3.123-2.085 3.93-.176.091-.278.328-.476.328l-1.212.517c-.656.096-1.336.114-1.963.306-.975.3-1.899.758-2.87 1.075-.695.226-1.438.301-2.143.499-1.905.532-3.831.54-5.764.26-.558-.08-1.087-.349-1.634-.519-.999-.306-2.093-.443-2.984-.942-1.331-.745-2.379-1.83-3.191-3.204-.919-1.554-1.488-3.171-1.587-4.939-.057-1.014.029-2.029.164-3.061.394-2.99 1.466-5.751 2.512-8.525.538-1.427 1.334-2.756 1.913-4.171.834-2.033 1.714-4.08 1.662-6.339l-.269-4.926c-.013-1.105-.285-2.061-1.4-2.306-.942-.207-1.953-.526-2.959.016-.483.26-1.076.337-1.629.444-1.133.221-2.168-.453-2.368-1.573-.125-.697-.144-1.409-.212-2.117h.004zm13.258 4.465l.15.987.232.055 1.21-1.479-.068-.134-1.525.57h.002z" fill="#fbfcfd"/><path d="M64.966 41.374c.144-.169.365-.317.424-.513 1.32-4.453 4.641-6.469 8.926-7.096 3.027-.444 5.782.556 8.151 2.444 1.016.809 1.313 2.076 1.315 3.337 0 1.212-.119 2.425-.205 3.636-.061.855-.524 1.507-1.106 2.099-.176.18-.289.421-.429.634l-.722.875-.142.191-.262.381-.262.192-.151.155c-1.212 1.222-2.715 1.946-4.271 2.633-1.536.679-3.09.682-4.629.33-1.172-.269-2.484-.588-3.369-1.324-2.293-1.907-3.496-4.399-2.995-7.503.023-.139-.178-.313-.274-.472h.002z" fill="#fbfbfc"/><path d="M53.805 61.319l.212 2.117c.2 1.121 1.235 1.794 2.368 1.573.552-.109 1.146-.184 1.628-.444 1.007-.542 2.017-.221 2.959-.016 1.115.244 1.386 1.201 1.4 2.306l.269 4.926c.052 2.259-.828 4.305-1.662 6.339l-1.913 4.171c-1.046 2.774-2.118 5.536-2.512 8.525-.135 1.032-.221 2.047-.164 3.061.1 1.767.668 3.385 1.588 4.939.812 1.372 1.86 2.459 3.191 3.204.891.499 1.985.634 2.984.942.547.168 1.076.437 1.634.519 1.931.278 3.859.272 5.764-.26l2.143-.499 2.87-1.075c.627-.192 1.306-.21 1.963-.306-.014 1.026-.83 1.491-1.472 2.069-.274.247-.597.445-.795.589-.75.082-1.443.07-2.083.25l-3.469 1.16c-1.222.345-2.466.712-3.722.825-1.965.174-3.954.308-5.848-.576-.709-.331-1.504-.552-2.282-.65-1.252-.161-2.11-.962-2.904-1.753-1.734-1.73-2.681-3.913-2.984-6.325-.265-2.12.207-4.185.816-6.204l1.465-4.255c.615-1.404 1.52-2.681 2.143-4.082l2.06-5.297c1.042-2.788.732-5.657.458-8.517-.069-.723-.424-1.359-1.142-1.534-1.178-.287-2.377-.647-3.572.064-1.037.616-2.979.1-3.439-.853-.918-1.903.043-4.215 2.049-4.928l-.002-.005z" fill="#05070b"/><path d="M81.179 46.983l.142-.191.431.397-.187.536-.727.7c-.164.11-.408.184-.478.337-.866 1.914-2.553 2.983-4.26 3.93-1.197.665-2.585 1.263-3.959 1.153-1.525-.123-3.066-.371-4.527-1.053-2.491-1.162-3.432-3.371-4.005-5.739-.365-1.504.011-3.095.656-4.545.178-.403.465-.757.7-1.133.096.159.298.335.274.474-.502 3.104.702 5.596 2.995 7.503.885.736 2.197 1.056 3.369 1.324 1.539.353 3.093.349 4.629-.33 1.557-.688 3.059-1.411 4.271-2.633l.151-.155.262-.192.262-.381v-.002z" fill="#05080c"/><path d="M112.799 41.74l-3.989.732c.71-1.318 1.829-2.279 1.462-4.053.619.64 1.137 1.083 1.534 1.616.405.543.69 1.176.991 1.705h.002z" fill="#e6effe"/><path d="M80.32 105.1l-2.175.889c-.429.154-.891.234-1.343.305l-2.575.36-.34-.328c1.138-.875 2.489-1.149 3.864-1.356l.216.013-.086-.143 1.509-.272.066.322.49-.347.536-.268-.159.827-.004-.002z" fill="#a7c8fe"/><path d="M82.637 103.525l1.409-.395-.005-.007.057.228.127-.228-.005.007c.203-.015.506.053.593-.054.681-.839 1.675-.26 2.462-.579.148-.06.353-.012.474-.096.878-.616.873-.624 2.236-.625-.258.616-.563.787-1.554.971-1.732.319-3.485.557-5.099 1.345-.257.125-.595.08-.896.114l.2-.677.002-.004zm3.428-.515c-.053-.025-.118-.076-.148-.062-.048.023-.075.091-.109.139.053.009.111.032.16.021.038-.009.062-.062.098-.098h-.002z" fill="#7dadfd"/><path d="M79.751 21.058l-1.071-.584c.964-.723 4.032-.235 5.096.825h-.8l-.372-.093-.52.034-.736-.171-.495-.025-1.103.014h.002z" fill="#d3e3fe"/><path d="M105.112 34.098l-1.988.269-.508-1.203.702-.178-.529-.982.189-.148 2.134 2.243v-.002z" fill="#619cfd"/><path d="M69.45 107.953c.091.326.216.49-.367.443-.805-.062-1.595.312-2.357.629-.258.107-.567.098-.852.143l-.007-.349c.312-.191.606-.426.941-.56.506-.203 1.039-.335 1.561-.497l-.007-.007.322.176.766.02v.002z" fill="#5393fd"/><path d="M29.445 38.861l2.053-2.669c.093.306.328.702.228.821-.613.741-1.302 1.418-1.965 2.118l-.315-.271z" fill="#98befe"/><path d="M82.637 103.525l-.2.677c-.611.524-1.247.987-2.117.898l.159-.827 2.158-.748z" fill="#5c98fd"/><path d="M120.034 56.446c.854.339.627 1.196.836 1.832.043.128-.289.38-.485.62l-.889-2.452h.54-.002z" fill="#3580fd"/><path d="M69.45 107.953l-.766-.02c.609-.385 1.171-.9 1.983-.727l.568.389c-.49.636-1.135.509-1.784.36l-.002-.002z" fill="#7aabfd"/><path d="M73.885 106.326l.34.328.009.221.009-.009-1.83.349h-.504l.388-.502.014-.009 1.055-.428.52.048-.002.002z" fill="#b3cffe"/><path d="M72.295 106.713l-.388.502h.504c-.043.119-.073.337-.128.342-.347.038-.7.029-1.051.036l-.568-.387.315-.025.422.038.02-.113-.392-.057 1.265-.336h.002z" fill="#98befe"/><path d="M20.152 83.23v-1.84c.848.675.421 1.274 0 1.84z" fill="#498cfd"/><path d="M65.867 108.819l.007.349-1.575.31c.2-1.169 1.055-.487 1.568-.661v.002z" fill="#4b8efd"/><path d="M81.753 47.19l-.431-.397.722-.875-.29 1.272z" fill="#101d32"/><path d="M79.75 21.058l1.103-.014c-.36.618-.731.338-1.103.014zm1.599.011l.736.171c-.362.442-.536.078-.736-.171z" fill="#5091fd"/><path d="M79.943 104.543l-.49.347-.066-.322.554-.023.002-.002z" fill="#9fc2fe"/><path d="M63.881 109.091l-.11.512-.216-.043.093-.517.233.048z" fill="#4b8efd"/><path d="M82.605 21.206l.372.093-.347.376-.025-.469z" fill="#5091fd"/><path d="M120.034 56.446l.173-.429.16.134-.333.296z" fill="#3580fd"/><path d="M71.032 107.048l.392.057-.02.112-.422-.038c.03-.039.046-.083.05-.131z" fill="#7aabfd"/><path d="M74.234 106.875l.162.039-.153-.05-.009.009v.002z" fill="#b3cffe"/><path d="M84.045 103.13h.175l.005-.007h-.185l.005.007z" fill="#7dadfd"/><path d="M68.369 107.762l.071-.078c-.005.016-.004.037-.014.044-.018.015-.043.02-.064.027l.007.007z" fill="#5393fd"/><path d="M67.063 65.784l1.525-.57.068.134-1.21 1.479-.232-.055-.15-.987h-.002z" fill="#3b3b3b"/><path d="M80.655 47.557l-.151.155.151-.155z" fill="#101d32"/><path d="M77.879 104.838l.086.143-.216-.013.13-.13zm8.185-1.828c-.034.038-.061.091-.098.098-.05.011-.107-.012-.16-.021.036-.048.062-.118.109-.139.03-.014.094.037.148.062h.002zm-2.024.113h.185l-.127.228-.057-.228h-.002z" fill="#196efd"/></g><defs><clipPath id="A"><path fill="#fff" d="M0 0h150.442v140H0z"/></clipPath></defs></svg>