<svg xmlns="http://www.w3.org/2000/svg" width="96" height="30.755" viewBox="0 0 96 30.755"><path d="M6.771,3.751,5,3.815A1.2,1.2,0,0,0,3.734,5.086L3.607,6.612a1.007,1.007,0,0,0,1.2,1.208l1.709-.064c.823-.064,1.2-.381,1.266-1.208L7.91,5.023C8.037,4.2,7.594,3.751,6.771,3.751ZM2.088,23.27A7.243,7.243,0,0,1,0,27.785l2.341,1.78A8.049,8.049,0,0,0,6.2,23.27L7.467,9.919l-4.113.191ZM17.276,9.028c-5.063.254-7.088,2.289-7.531,7.5-.506,5.4,1.709,7.375,6.708,7.121s7.024-2.225,7.467-7.5C24.427,10.745,22.276,8.774,17.276,9.028Zm2.341,7.057c-.316,3.433-1.076,4.387-3.291,4.514-2.152.127-2.595-.636-2.341-3.878.316-3.624,1.139-4.451,3.354-4.578C19.491,12.017,20,12.843,19.618,16.086ZM36.261,8.138a8.174,8.174,0,0,0-5.316,2.925,12.21,12.21,0,0,0,.633-3.306l.38-4.832-4.113.127L26.073,22.126a28.646,28.646,0,0,0,7.467.763c4.43-.191,6.392-2.162,6.835-7.5C40.944,9.791,39.488,8.011,36.261,8.138ZM36.2,15.259c-.38,3.815-.949,4.387-3.607,4.578-.443,0-1.266,0-2.152.064l.57-6.1A7.509,7.509,0,0,1,35,11.572C36.2,11.508,36.514,12.017,36.2,15.259ZM50.31,7.439c-5.063.254-7.278,1.78-7.657,7.375-.38,5.023,1.392,7.5,6.835,7.248A16.166,16.166,0,0,0,55.5,20.791l-.443-2.607c-1.645.254-3.924.509-5.316.572-1.709.064-2.721-.254-2.848-2.225l4.05-.509c3.544-.445,5.189-1.4,5.442-4.133C56.7,8.965,55.436,7.185,50.31,7.439Zm-.063,6.231-3.227.445c.316-2.861,1.013-3.5,3.164-3.624,1.709-.127,2.278-.064,2.215,1.272S51.639,13.479,50.247,13.67ZM72.332,6.8l-4.24.191c-.506,2.543-2.974,4.832-5.506,6.358a11.269,11.269,0,0,0,.823-3.5l.759-8.52-4.113.191L58.22,21.363l4.113-.191.443-4.769a19.834,19.834,0,0,0,2.341-1.144l2.721,5.6,4.3-.191-2.784-5.6a7.66,7.66,0,0,0-1.2-1.717A10.974,10.974,0,0,0,72.332,6.8Zm8.353-.763c-4.113.191-6.708.89-7.341,7.439-.506,5.4.7,7.63,4.177,7.375a7.3,7.3,0,0,0,5.506-3.115l.063,2.48,3.227-.127L87.583,6.612A26.379,26.379,0,0,0,80.686,6.04ZM82.774,14.5c-1.329,1.653-2.595,2.734-3.987,2.8-1.329.127-1.582-.445-1.2-4.069.316-3.688,1.076-4.133,3.67-4.2L83.407,8.9ZM91.887.191l-.7,7.63-.063,5.786,3.227-.127L95.3,7.63,96,0ZM92.9,15.45l-.886.064c-.949.064-1.456.445-1.519,1.4l-.127,1.335c-.063,1.017.38,1.526,1.456,1.462l.886-.064c1.013-.064,1.456-.509,1.519-1.462l.127-1.335C94.418,15.9,93.912,15.386,92.9,15.45Z" fill="#ee5c5c"/><path d="M12.7,44.812s54.688-6.123,87.156-4.762l-.7,2.835C99.215,42.884,54.069,41.523,12.7,44.812Z" transform="translate(-5.5 -14.056)" fill="#ee5c5c" fill-rule="evenodd"/></svg>