<svg xmlns="http://www.w3.org/2000/svg" width="52" height="64" fill="none"><g clip-path="url(#A)"><path d="M49.463 7.545c-.041.437-.275 1.013-.287 1.482-.013.498.181 1.143.207 1.655.133 2.568-.493 5.029-.399 7.624l.159 8.171-.237 17.709c.002.134-.051.353.081.436-.09 1.931.04 4.189.076 6.156.029 1.611.495 6.878-.396 8.017-.06.077-.195.098-.241.172-.155.253-.063.501-.392.819-1.101 1.064-2.211.834-3.532.954-.375.034-.796.202-1.192.237-3.721.318-7.418-.095-11.114.167-5.686-.374-11.381-.216-17.066-.083-3.39.079-7.089-.172-10.443-.559-1.776-.205-2.714-1.155-3.395-2.758-.64-1.504-.95-2.72-1.052-4.347-.268-4.293-.296-8.64-.161-12.944.151-4.819.855-9.625.96-14.442.098-4.506-.617-9.059-.715-13.583-.035-1.596.217-2.693.317-4.201.129-1.942-.546-2.953.34-4.9C2.224.59 4.398.117 7.185 0 17.339.291 27.54.06 37.677.318c2.136.054 4.04.385 6.111.557 1.813.151 4.746-.628 5.256 1.809.33 1.577.573 3.23.418 4.861h.001zM16.44 10.638c-.103-.116.369-1.138.396-1.384.068-.625-.433-2.486-.838-2.976-.095-.114-.7-.499-.856-.573-.96-.453-2.343-.557-3.312-.108-.26.121-.661.481-.873.556-.27.095-.53.029-.846.186-.289.143-.84.521-.892.854a14.22 14.22 0 0 0-.084 1.901c.059.553.568 1.203.476 1.666-.048.24-.279.213-.438.356-.37.33-.318.716-.071 1.105.3.472.709.325.869.481.074.073.211.529.322.71.338.556 1.021 1.481 1.7 1.516l-.089 1.258c-.883.427-1.935.821-2.771 1.317-.464.276-.808.515-.797 1.115.004.214.09.561.279.681.048.031 1.023.222 1.125.226 2.224.071 4.509-.013 6.739.013 1.022.012 1.654-.349 1.158-1.401-.477-1.011-2.642-1.55-3.503-2.23l-.042-.742c.709-.386 1.252-1.074 1.648-1.771.086-.152.182-.534.241-.592.107-.106.458-.077.66-.253.422-.37.412-1.25.222-1.731-.079-.201-.387-.143-.421-.18l-.001.002zm11.804.774c.124-.098.198-.427.46-.454s.62.254.89.3c.506.085 1.482.103 1.962-.064.221-.077.402-.25.623-.33.638-.233 1.218.012 1.843 0 .545-.01 1.257-.053 1.805-.083.114-.006.795-.121.882-.151.149-.052.398-1.401.357-1.597-.009-.041-.311-.746-.341-.776-.265-.263-2.562.033-3.102.006-.315-.016-.726-.161-1.02-.154-.83.022-1.803.803-2.513.591-.221-.066-.48-.367-.707-.483-.906-.465-1.667-.145-2.267.598-.046 0-.381-.437-.54-.498-.175-.067-.285.038-.397.01s-.161-.192-.336-.225c-.422-.079-.923.252-1.188.554-.172-.121-.182-.353-.396-.396-.506-.1-2.221.348-2.186.985.022.397 1.142 2.15 1.517 2.382.204.126 1.075.364 1.292.341s.827-.433.846-.69c.637.332 1.152.683 1.905.436a10.05 10.05 0 0 0 .612-.302h-.002zm4.376 2.575c-.777-.439-1.32-.438-2.152-.153-.769.263-.999.735-1.925.619-.402-.051-.691-.384-1.073-.515-.63-.216-1.023-.068-1.628.114-.41.123-1.53.697-1.82.707-.504.018-.939-.553-1.286-.601-.098-.014-.207.065-.301.052-.213-.028-.245-.194-.63-.151-.177.02-.953.351-1.037.474-.254.375-.109 1.484.076 1.902.392.888.669.267 1.189.318.134.014.66.366.916.435.422.115.872.098 1.3.175.642-.05 1.939-.868 2.475-.855.213.006.769.387 1.05.461.8.21 1.928.144 2.679-.217.248-.119.526-.405.75-.448.451-.085.939.241 1.158-.502.058-.196.311-1.738.26-1.818l-.002.001zm9.776 2.607c-.048-.421.198-1.078.16-1.461-.005-.045-.318-.815-.352-.845-.08-.075-.295-.13-.41-.146-.871-.117-1.791.086-2.608-.012-.274-.033-.699-.242-1.038-.236-.523.009-.888.645-1.353.712-.938.135-1.739-.835-2.45.089-.498.648-.141 1.05-.52 1.704-.002.066.029.115.069.164.06.071 1.375.445 1.58.486 1.955.391 2.757-.579 4.582-.287l2.341-.167h-.002zm-10.454 8.392c-.085-.091-.096-.292-.216-.38-.287-.211-.938.002-1.273.01l-7.864.075c-.42.08-.498 1.128-.433 1.467.051.27.206.263.43.284 1.368.135 2.85-.062 4.213-.083 1.532-.024 3.258.09 4.755-.09.325-.039.372-.241.68-.269.13-.143.318-.596.206-.756-.136-.106-.383-.137-.497-.259v.001zm-11.156 1.357c.045-.385.077-1.242-.253-1.499-.26-.203-2.089.139-2.548.165-.844.048-1.705-.088-2.537.083l-6.916.07c-.282.326-.557 1.562.008 1.672 3.985-.031 7.955.146 11.903-.32l.344-.171zm-1.551 5.396c.152.152 2.121.118 2.485.102 1.415-.067 2.999-.275 4.443-.399.337-.029.683.031 1.021-.011.334-.468.46-1.648-.306-1.738-.594-.07-1.736.041-2.383.082-1.662.102-3.312.411-4.986.315-.29.268-.537 1.389-.276 1.65h.001zm9.682-1.949c-.238.368-.499 1.257-.18 1.616.247.277 1.053.04 1.391.032 2.777-.064 5.563.054 8.34.004.114 0 .136-.048.182-.136.208-.395.253-1.629-.42-1.613-3.103.047-6.219-.1-9.313.098h.001zm-10.985 1.874c.081-.137-.253-1.296-.416-1.422-.257-.201-.742.003-1.036.01-1.976.047-4.081-.271-6.04-.165-.243.013-1.566.162-1.67.235-.297.21-.38 1.328-.116 1.637.253.167 1.42-.102 1.79-.121 2.04-.102 4.343.308 6.354.161.402-.029.803-.104 1.134-.335zm5.076 3.208c-.159-.162-1.959-.105-2.327-.101-3.1.033-6.249.186-9.368.086-.462-.015-1.916-.272-2.225-.088s-.691 1.396-.212 1.573c2.776.393 5.666.282 8.473.258l1.505.005c1.354-.017 2.699-.107 4.053-.083.211-.013.352-.833.346-.997-.002-.062-.217-.623-.245-.653zm1.924 1.569h3.93c.01 0 .176-.084.183-.096.117-.626.379-1.578-.498-1.654-.76-.065-2.273-.075-3.025-.002-.787.076-.745 1.178-.591 1.751v.001zM9.143 41.117c.229.149 2.205-.206 2.646-.231 1.042-.058 2.135.052 3.182 0l.394.067 2.529-.154c.1-.032.29-.903.272-1.042a2 2 0 0 0-.256-.54c-.283-.313-.622-.078-.955-.07-1.737.041-3.53-.095-5.246-.006-.568.029-1.763.125-2.281.26-.572.148-.499 1.281-.285 1.718l-.001-.001z" fill="#50c089"/><path d="M4.687 60.498c3.355.387 7.054.638 10.443.559 5.684-.133 11.38-.291 17.066.083 3.696-.262 7.393.151 11.114-.167.396-.034.818-.203 1.192-.237 1.321-.12 2.432.11 3.532-.953.013.631-.144 2.031-.556 2.5-.1.114-.279.151-.354.281-.27.468-.109.515-.715.873-1.103.65-2.54.534-3.81.556-3.095.053-6.058-.313-9.13-.562l-15.881-1.204c-3.611-.185-6.874-.464-10.42-1.155-.632-.123-1.3-.146-1.928-.295-.175-.042-.463-.106-.553-.28l.001.001z" fill="#020302"/><path d="M48.987 44.62c-.132-.083-.079-.301-.081-.436-.073-5.888.108-11.821.237-17.709.062-2.841-.057-5.352-.159-8.171-.094-2.594.532-5.056.399-7.624-.026-.511-.22-1.158-.207-1.655.012-.469.246-1.045.287-1.482 1.108.19 2.039.682 2.202 1.886.193 1.423.296 2.814.09 4.257-.148 1.044-.375 1.559-.391 2.712-.027 1.901-.237 2.946-.532 4.781-.272 1.697-.187 3.005-.256 4.667-.255 6.253-1.3 12.495-1.591 18.772l.001.001z" fill="#030303"/><path d="M16.44 10.638c.032.037.341-.021.421.18.19.482.2 1.362-.222 1.731-.202.176-.553.148-.66.253-.059.058-.155.441-.241.592-.396.696-.939 1.385-1.648 1.771l.042.742c.861.68 3.026 1.219 3.503 2.23.496 1.052-.137 1.413-1.158 1.401-2.23-.026-4.516.058-6.739-.013-.102-.003-1.077-.195-1.125-.226-.189-.121-.274-.466-.279-.681-.011-.6.333-.839.797-1.115.836-.497 1.889-.89 2.771-1.317l.089-1.258c-.679-.035-1.361-.96-1.7-1.516-.11-.182-.248-.638-.322-.711-.16-.157-.568-.01-.869-.481-.248-.389-.299-.775.071-1.105.16-.142.391-.115.438-.356.092-.465-.418-1.114-.476-1.666-.034-.32.033-1.577.084-1.901s.604-.711.892-.854c.316-.156.576-.091.846-.186.212-.075.612-.435.873-.556.969-.449 2.353-.344 3.312.108.156.073.761.458.856.573.405.491.907 2.352.838 2.976-.027.246-.499 1.267-.396 1.384l.001-.002z" fill="#010101"/><path d="M28.244 11.412a10.05 10.05 0 0 1-.612.302c-.753.247-1.268-.104-1.905-.436-.018.257-.639.668-.846.69-.217.022-1.089-.215-1.292-.341-.375-.232-1.495-1.985-1.517-2.382-.035-.638 1.679-1.086 2.186-.985.214.042.226.275.396.396.265-.302.767-.634 1.188-.554.175.033.227.197.336.225s.221-.077.397-.01c.159.061.494.498.54.498.599-.743 1.361-1.063 2.267-.598.227.117.486.418.707.483.71.213 1.682-.568 2.513-.591.294-.008.705.138 1.02.154.541.027 2.837-.268 3.103-.006.03.03.333.734.341.776.04.195-.207 1.545-.357 1.597-.086.03-.768.145-.882.151l-1.805.083c-.625.012-1.204-.234-1.843 0-.22.08-.401.253-.622.33-.48.167-1.457.149-1.962.064-.27-.045-.639-.325-.89-.3s-.337.356-.46.454l.002-.001zm4.376 2.576c.051.08-.202 1.622-.26 1.818-.219.742-.707.417-1.158.502-.225.042-.502.329-.75.448-.753.36-1.88.426-2.679.217-.28-.074-.837-.456-1.05-.461-.536-.014-1.832.805-2.475.855-.428-.077-.878-.06-1.3-.175-.256-.07-.781-.422-.916-.435-.52-.052-.796.569-1.188-.318-.185-.418-.329-1.527-.076-1.902.083-.123.86-.454 1.037-.474.386-.044.418.122.63.151.095.013.203-.066.301-.052.347.048.782.618 1.286.601.291-.01 1.41-.583 1.82-.707.606-.183.999-.329 1.628-.114.382.131.669.465 1.073.515.926.116 1.157-.356 1.925-.619.833-.285 1.376-.286 2.152.153l.002-.001z" fill="#fcfdfd"/><path d="M23.008 34.874a4.43 4.43 0 0 1 .245.653c.006.164-.134.984-.346.997-1.354-.025-2.7.066-4.053.083-.494.006-1.011-.009-1.505-.005-2.808.024-5.697.135-8.473-.258-.48-.177-.095-1.389.212-1.573s1.763.073 2.225.088l9.368-.086c.368-.004 2.168-.06 2.327.101z" fill="#020302"/><path d="M42.396 16.595l-2.341.167c-1.824-.291-2.626.68-4.582.287-.205-.041-1.52-.414-1.58-.486-.04-.048-.071-.098-.069-.163.379-.653.021-1.056.52-1.704.711-.924 1.512.046 2.45-.089.465-.067.83-.703 1.353-.712.34-.006.765.203 1.038.236.818.098 1.738-.106 2.608.012.114.015.33.071.41.146a8.56 8.56 0 0 1 .352.845c.038.383-.207 1.04-.16 1.461h.002z" fill="#fcfdfd"/><path d="M20.786 26.344l-.344.171c-3.948.466-7.918.289-11.903.32-.565-.11-.291-1.346-.008-1.672l6.916-.07c.832-.171 1.693-.036 2.537-.083.46-.026 2.288-.368 2.548-.165.33.258.297 1.114.253 1.499z" fill="#020302"/><path d="M28.917 29.791c3.094-.198 6.21-.051 9.313-.098.673-.016.628 1.218.42 1.613-.046.088-.068.135-.182.136-2.778.049-5.564-.068-8.34-.004-.338.008-1.144.245-1.391-.032-.32-.359-.058-1.247.18-1.616h-.001z" fill="#020303"/><path d="M31.942 24.987c.114.123.361.153.497.259.112.16-.076.614-.206.756-.307.029-.356.23-.68.269-1.496.18-3.223.066-4.755.09-1.363.021-2.844.218-4.213.083-.224-.022-.379-.015-.43-.284-.064-.339.014-1.387.433-1.467l7.864-.075c.335-.008.986-.221 1.273-.01.12.088.131.289.216.38v-.001zm-14.01 6.678c-.333.232-.732.306-1.134.335-2.01.147-4.313-.264-6.353-.161-.37.018-1.537.288-1.79.121-.264-.309-.181-1.427.116-1.637.104-.073 1.427-.222 1.67-.235 1.959-.106 4.065.213 6.04.165.294-.007.779-.211 1.036-.01.162.126.497 1.284.416 1.422z" fill="#020302"/><path d="M9.143 41.117c-.214-.438-.287-1.57.285-1.718.518-.134 1.713-.23 2.281-.26 1.716-.089 3.51.048 5.246.006.333-.008.672-.242.955.07.07.077.243.445.256.54.018.14-.172 1.011-.272 1.042l-2.529.154-.394-.067c-1.048.052-2.141-.058-3.182 0-.441.025-2.417.38-2.646.231v.001z" fill="#020303"/><path d="M19.235 31.74c-.261-.261-.014-1.382.276-1.65 1.673.095 3.324-.213 4.986-.315.646-.04 1.789-.151 2.383-.082.766.09.64 1.27.306 1.738-.338.042-.684-.018-1.021.011l-4.443.399c-.364.018-2.332.052-2.485-.102h-.001z" fill="#020403"/><path d="M24.932 36.443c-.154-.573-.197-1.675.591-1.751.752-.073 2.266-.063 3.025.002.877.075.615 1.029.498 1.654-.007.011-.173.096-.183.096h-3.93v-.001z" fill="#020303"/></g><defs><clipPath id="A"><path fill="#fff" d="M0 0h51.868v64H0z"/></clipPath></defs></svg>