<svg width="36" height="36" viewBox="0 0 36 36" fill="none" xmlns="http://www.w3.org/2000/svg"><path d="M14.25 4.5C16.8359 4.5 19.3158 5.52723 21.1443 7.35571C22.9728 9.18419 24 11.6641 24 14.25C24 16.665 23.115 18.885 21.66 20.595L22.065 21H23.25L30.75 28.5L28.5 30.75L21 23.25V22.065L20.595 21.66C18.885 23.115 16.665 24 14.25 24C11.6641 24 9.18419 22.9728 7.35571 21.1443C5.52723 19.3158 4.5 16.8359 4.5 14.25C4.5 11.6641 5.52723 9.18419 7.35571 7.35571C9.18419 5.52723 11.6641 4.5 14.25 4.5ZM14.25 7.5C10.5 7.5 7.5 10.5 7.5 14.25C7.5 18 10.5 21 14.25 21C18 21 21 18 21 14.25C21 10.5 18 7.5 14.25 7.5Z" fill="#0B0DE6"/></svg>