<svg xmlns="http://www.w3.org/2000/svg" width="214" height="258" fill="none"><g clip-path="url(#A)"><path d="M108.391 85.888c-.212-.303-.78-.799-4.1-1.681-6.522-1.726-12.416-1.845-22.361-2.292-.613-.03-1.868-.03-3.518-.228l-5.677-.675-9.585-1.131c-2.001.213-3.434.635-4.703 1.954-2.534 2.634-2.179 3.189-2.786 6.23-1.171 5.828-2.727 11.607-3.755 17.45-.138.779-.163 1.513-.272 2.247-.252 1.721-.538 3.492-1.082 5.173a11.99 11.99 0 0 0-.504 2.733 12.07 12.07 0 0 0-.01 1.389c.005.129.015.223.015.228.074 1.111-.667 2.089-1.848 8.929-.193 1.116-.469 3.03.642 4.647.716 1.042 2.085 1.746 4.58 2.471 5.701 1.661 11.971 1.686 17.875 2.227 1.714.153 3.656.873 5.469 1.071 3.379.367 8.438.377 12.001.476.331.01.909-.01 1.349 0 .613.01 1.24 0 1.853 0 .924.243 2.95.655 5.173 0 0 0 .845-.253 1.621-.674 4.091-2.227 3.231-7.148 3.434-8.552 1.517-10.505 4.086-22.608 4.328-24.503.158-1.235.573-2.485.736-3.725.044-.323.109-.809.212-1.399.089-.531.149-.784.168-.918.959-3.492 2.639-8.695.732-11.458h.014v.01z" fill="#186efe"/><path d="M62.617 88.252c-1.122.556-1.453 2.416-.618 3.08.217.174.455.223.85.293l3.216.466c2.198.035 3.399.749 8.285 1.235 5.39.536 4.708.055 7.327.541 2.885.536 5.484 1.439 6.2.655.163-.179.203-.456.272-1.017.109-.823-.015-1.572-.109-1.825-.494-1.28-4.535-.799-10.098-1.548-1.907-.253-3.518-.595-9.002-1.463a31.67 31.67 0 0 1-3.513-.273c-1.685-.228-2.223-.437-2.816-.139h.005v-.005zm-1.052 5.114c-.178.094-.509.318-1.057 1.667-.4.982-.346 1.175-.267 1.314.237.392.855.496 1.122.536l5.074.63c.193 0 2.366.308 6.719.938l7.495 1.111 5.37.803c1.329.273 3.621.799 6.339.704.652-.019 1.793-.094 2.139-.669.094-.159.079-.263.044-1.225l-.089-1.3c-.469-.779-2.742-.57-3.483-.521-2.589.179-1.774-.466-10.844-1.805-1.902-.283-3.661-.496-7.183-.937-6.255-.779-6.077-.655-6.625-.873 0 0-2.026-.809-3.888-.62-.267.025-.568.079-.87.243h.01l-.005.005z" fill="#fff"/><path d="M93.535 109.666c-1.428.149-1.571-.491-3.295-.416-1.7.277-2.801.441-4.496.064-1.309.149-2.688.04-3.71-.402-.815-.386-2.959-.476-3.775-.501-.958-.52-1.67-.262-2.767-.391-.291-.08-1.408-.387-1.784-.387-2.105-.085-5.306.441-6.872-1.26-1.907 1.463-3.439.679-3.864-.819-9.466 2.783-1.413-4.528 2.614-2.316.247.228.623-.089 1.013-.055 2.614-.183 2.292 1.9 4.491 1.632 2.312-.496 5.775.754 8.216.789 2.663-.109 5.123 1.409 7.732 1.101 0 0 1.23-.089 2.455-.03 2.09.095 2.292.973 4.817 1.325 3.369-.035 1.675 1.19-.781 1.656h.005v.01zm2.965 6.818c-2.416-.391-3.276-.937-5.212-1.314-2.752-.531-4.13-.799-5.993-.799-.959 0-1.808.07-2.559.129-1.932.154-3.809 0-4.768-.729-.158-.119-.4-.337-.795-.387-.296-.039-.652.065-1.344.263-.588.174-.657.223-.894.218-.361-.009-.672-.148-.904-.252-.425-.189-.385-.273-.662-.343s-.44-.015-1.043.015l-.904.01c-.781-.064-1.364-.303-1.793-.476l-.613-.223c-.875-.278-1.734-.228-2.273-.184-1.828.144-2.539.392-3.414.452-2.5.173-5.454-1.236-5.963-2.813-.227-.699-.025-1.597.538-1.746.118-.03.44-.079 1.66.64 1.517.893 1.537 1.265 2.302 1.572.667.263 1.665.154 3.661-.064 1.68-.179 3.804-.521 4.674-.233l1.131.392c.168.074.262.134.435.158.371.06.677-.094.988-.213.291-.114 1.467-.575 2.278-.342a2.74 2.74 0 0 1 .623.283c.232.148.252.223.351.282.499.283 1.482-.62 2.53-.461.963.149 1.67 1.121 1.803 1.414.054.124.119.267.178.307.207.065 1.102-.01 1.759-.064l2.955-.149c1.942 0 4.575.178 6.922.888 2.253.684 2.075 1.111 4.14 1.617.282.069 1.008.238 1.621.709.534.407 1.052 1.091.746 1.414-.252.263-1.003.213-2.179.024l.02.005zm-5.845 4.777c-2.683.014-3.883-1.037-6.156-1.007-.361 0-1.2.039-2.248-.199l-1.042-.268c-.805-.178-1.378-.228-1.991-.292l-2.535-.338c-2.707-.228-3.824.586-6.22.338l-1.536-.209-1.843-.367-3.883-1.036c-1.438-.268-1.512-.015-5.341-.313-1.255-.094-2.075-.193-2.223-.58-.183-.486.771-1.151.845-1.2 1.556-1.067 3.73-.576 9.165.148l2.134.343.879.178a18.25 18.25 0 0 0 2.189.352 29.11 29.11 0 0 0 3.142.174l2.431-.119c1.596-.01 1.512.193 3.799.312 1.492.08 2.218.035 3.088.328l1.245.431 1.082.377a13.6 13.6 0 0 0 1.704.392c3.864.655 6.996 1.186 6.996 1.672 0 .377-1.873.863-3.691.873v.01h.01z" fill="#000"/><g fill="#fdfdfd"><path d="M123.643 165.184l-.232.02.237-.015-.005-.005z"/><path d="M159.99 194.305c-.104-3.71-.924-7.391-1.675-11.007-.37-1.776-.736-3.556-1.008-5.352l-.069-.491c-.01-.079-.03-.223-.03-.258l-.123-1.235c-.094-1.076-.153-2.173-.415-3.224-.479-1.949-1.729-3.393-3.187-4.682-1.324-1.176-2.717-2.267-4.12-3.344l-3.982-2.996-.904-.689c.01.005-.568-.446-.628-.496-.667-.531-1.319-1.071-1.961-1.632-1.235-1.076-2.352-2.247-3.483-3.427-.751-.784-1.621-1.394-2.643-1.766-.984-.352-2.051-.407-3.083-.526-3.725-.427-7.431-.689-11.141 0a17.85 17.85 0 0 0-5.346 1.915c-.914.506-1.764 1.136-2.559 1.81-.336.288-.642.6-.958.908a7.67 7.67 0 0 1-.277.263c.084-.085-.015-.025-.069.02-.089.024-.203.059-.257.074l-.351.025-1.423.079-3.211.174-6.418.352c-1.546.084-3.038 1.309-2.964 2.981.064 1.443 1.151 2.872 2.643 2.976-.356.833-.371 1.796.173 2.584.415.6.855 1.151 1.423 1.607.331.268.667.526 1.013.774a2.42 2.42 0 0 0 .133.094c-.138.179-.277.362-.39.556-1.601 2.713-1.112 6.245.998 8.521.909.978 2.104 1.642 3.211 2.362.109.069.217.143.326.213.01.005.035.025.064.044.074.08.405.377.46.437l.039.04c.01.019.025.054.055.104-.42.565-.83 1.071-1.072 1.795-.648 1.935.326 3.785 1.902 4.876 1.062.739 2.341 1.24 3.493 1.821l1.852.937.089.045c.549 2.539 2.258 4.642 4.244 6.225 2.09 1.666 4.422 3.507 7.05 4.181 1.492.382 3.044.397 4.57.546.148.015.687.089.455.049l.711.119c.647.119 1.295.263 1.937.422 5.054 1.255 10.039 3.527 15.306 3.492 1.017 1.081 2.406 1.195 3.833.779 1.665-.481 3.222-1.473 4.397-2.748 2.589-2.803 3.484-6.597 3.38-10.347l-.01.02zm-12.475-.987a4.91 4.91 0 0 1-.237.148l-.133-.014c-.06-.015-.124-.035-.183-.05-.139-.065-.45-.193-.435-.184l-1.052-.535 2.104.506c.03-.03.074-.075.134-.129-.005.005-.01.015-.01.02-.025.034-.059.074-.094.119 0 0-.02.019-.03.024-.024.035-.054.065-.079.1l.015-.005zm-24.786-28.328h.222c.454 0 .904 0 1.358.035l-.632.159c-.005 0-.015 0-.02.005.025 0 .045 0 .074-.005-.024 0-.054 0-.079.005-.103.019-.271.024-.237.014-.143.01-.286.025-.435.03a16.68 16.68 0 0 1-1.225 0l.237-.074c.242-.065.489-.129.737-.169zm-5.065 5.823l3.019.298-2.846-.03-.173-.268zm9.017-.297c.479-.184.958-.397 1.418-.635l.622-.337c.02-.01.074-.04.139-.07l.593.461c.019.015.034.025.044.035.035.025.069.055.114.094l.429.343.855.699.558.471a234.06 234.06 0 0 0-8.077-.392c1.126-.064 2.258-.258 3.3-.664l.005-.005zm-12.747 6.974l-.163-.362.929.064.148.233c-.005.159 0 .323.02.481a2.94 2.94 0 0 0 .934 1.796 10.25 10.25 0 0 0-.672.184c-.43-.779-.83-1.578-1.201-2.391l.005-.005zm6.28 8.323l1.561 2.406c.336.506.687.992 1.052 1.443-.024-.015-.034-.025-.024-.015l-.267-.228a20.56 20.56 0 0 1-.998-.962 43.84 43.84 0 0 1-1.937-2.103c-.173-.199-.341-.402-.509-.606a27.57 27.57 0 0 1 1.122.07v-.005z"/></g><path d="M122.422 175.441l-1.012-2.559c-1.087-3.602-1.152-3.284-4.16-3.651l-6.191-.62c-.163-.015-.36 0-.479-.085-.242-.178-.44-.416-.657-.629.247-.204.489-.571.751-.596 3.251-.228 6.497-.709 9.718-.153l.286-1.543c.099-.511-.375-1.295-.919-1.478l-7.504-2.55-4.264-1.642c-.662-.238-1.393-.302-2.04-.58-.282-.119-.42-.575-.628-.883.312-.154.623-.426.944-.441l3.389-.02-1.858-3.125-3.374-5.258c-.667-1.031-.662-2.128.064-3.12l1.542-1.939-2.288-3.601-2.895 1.597a17.55 17.55 0 0 1-5.504 2.302c-1.784.411-3.488 1.16-5.267 1.597-1.551.377-3.157.684-4.743.724-3.251.079-6.526.154-9.762-.134-4.012-.352-7.786-1.771-11.452-3.428l-8.241-3.774c-.44-.204-.86-.491-1.22-.819-2.174-1.964-4.432-3.849-6.452-5.957-2.213-2.311-4.318-4.752-6.24-7.311-1.042-1.384-1.64-3.12-2.362-4.727-.963-2.148-1.848-4.33-2.782-6.488-1.359-3.135-1.433-6.493-1.645-9.811-.138-2.108-.247-4.236-.119-6.344.198-3.259.385-6.547 1.003-9.742.44-2.287 1.112-4.648 2.89-6.413.143-.144.217-.372.287-.575 1.22-3.457 2.895-6.696 4.891-9.757.618-.947 1.566-1.677 2.366-2.5.573-.59 1.201-1.131 1.719-1.766 2.836-3.467 6.536-5.719 10.454-7.718 3.048-1.553 6.24-2.728 9.471-3.77 2.505-.809 5.104-1.374 7.697-1.815 1.576-.268 3.226-.124 4.837-.089 1.64.04 3.285.129 4.921.283 1.788.169 3.582.377 5.351.665 2.772.446 5.523 1.051 8.093 2.192a37.02 37.02 0 0 1 5.375 2.961c2.466 1.632 4.965 3.274 7.169 5.228 2.86 2.535 5.78 5.059 7.707 8.507 1.038 1.855 2.574 3.432 3.631 5.282 1.092 1.91 2.061 3.928 2.742 6.012 1.117 3.403 1.739 6.929 1.71 10.55-.015 1.885.153 3.77.143 5.659-.025 4.549-.706 8.998-2.184 13.308l-1.936 5.561c-.993 2.787-2.703 5.163-4.343 7.584-2.129 3.139-4.906 5.585-7.915 7.822-1.403 1.046-2.697 2.242-4.066 3.398l2.218 3.492c1.601-1.057 3.217-.521 4.847-.01.736.228 1.309.605 1.719 1.284l3.706 6.022c.276.466.553.674 1.097.64 2.396-.159 4.787-.357 7.183-.402 2.5-.045 5.01 0 7.505.159 1.388.084 2.505.883 3.349 2.018.228.308.43.665.732.883 2.297 1.697 3.997 3.973 5.913 6.042 1.843 1.984 3.903 3.76 5.865 5.63.934.892 1.887 1.761 2.767 2.698.459.491.82 1.091 1.136 1.686.257.491.153.992-.405 1.25-.529.248-.835-.079-1.166-.461-.41-.461-.899-.863-1.374-1.26l-9.965-8.323c-1.65-1.394-3.246-2.857-4.856-4.295-.41-.363-.86-.71-1.171-1.151-.568-.809-1.324-1.072-2.253-1.106-3.063-.114-6.107.039-9.15.367-1.052.114-2.124.069-3.187.109l-4.184.169.998 4.766c.039.179.316.372.519.437 2.564.793 5.158 1.443 7.855 1.547 1.69.065 2.777 1.077 3.058 2.847.47 2.991 1.561 5.774 3.557 8.016 2.07 2.326 4.437 4.385 6.71 6.523.523.491 1.022.897.948 1.701-.02.198.074.436.193.61l4.901 7.088c.904 1.275 1.62 2.614 1.897 4.167.385 2.192-1.388 5.535-3.448 6.299-2.327.863-4.669 1.667-7.204 1.811-1.64.089-2.89-.382-3.779-1.766-.638-.992-1.23-2.014-1.892-2.991-.411-.61-.87-1.196-1.369-1.731-.845-.903-.939-1.726-.217-2.723l.938-1.3-2.257-3.715-6.581 1.994c-.302.094-.539.407-.84.486s-.633-.01-.954-.025c.04-.312-.044-.784.129-.913 1.279-.927 2.594-1.805 3.923-2.653.429-.278.948-.412 1.418-.635 1.309-.625 1.551-1.265.884-2.565-.598-1.17-1.265-2.306-1.887-3.462-.326-.605-.766-.858-1.473-.65-1.546.447-3.097.908-4.664 1.26-.963.214-1.971.268-2.964.318-.197.01-.558-.308-.583-.506-.025-.208.252-.635.425-.655 2.614-.243 4.496-2.192 6.783-2.837v-.005zm-40.69-31.338c1.181 0 2.367.069 3.537-.02 1.487-.109 2.989-.243 4.442-.556 1.339-.287 2.623-.833 3.933-1.27 1.892-.625 3.903-.838 5.652-1.959 1.482-.952 3.102-1.681 4.649-2.529.593-.328 1.2-.65 1.739-1.062l5.079-4.003c4.283-3.477 7.618-7.693 9.713-12.837.741-1.82 1.309-3.715 1.966-5.57 1.433-4.057 1.947-8.259 2.149-12.534.114-2.401-.499-4.727-.291-7.183.262-3.095-.702-6.151-1.769-9.097-.998-2.773-2.89-4.871-4.911-6.885-.583-.585-.988-1.23-.864-2.108.019-.139-.055-.317-.144-.441-.736-1.017-1.393-2.123-2.253-3.021-3.226-3.353-6.808-6.255-10.612-8.948-5.261-3.725-11.121-5.481-17.371-6.23-2.144-.258-4.328-.159-6.472-.382a19.72 19.72 0 0 0-8.236.858c-1.393.447-2.89.575-4.254 1.091-2.712 1.027-5.39 2.163-8.038 3.353-3.473 1.563-6.566 3.675-8.992 6.691a12.33 12.33 0 0 1-1.784 1.82c-1.383 1.126-2.495 2.455-3.295 4.052l-2.544 5.059c-.203.412-.573.932-.469 1.28.301 1.022-.44 1.563-.8 2.287-.405.819-1.245 1.24-1.601 2.173-.82 2.148-1.201 4.35-1.502 6.612-.326 2.475-.301 4.916-.005 7.386.168 1.418.81 2.916-.232 4.29-.054.075-.04.219-.03.328.143 1.726.104 3.497.494 5.163.459 1.955 1.206 3.859 2.001 5.709 1.601 3.721 3.033 7.525 5.85 10.6 3.177 3.467 6.21 7.073 10.469 9.296.222.119.553.377.544.545-.064.834.558 1.002 1.087 1.24l7.179 3.219c5.094 2.252 10.311 3.959 15.983 3.597h-.005l.01-.015z" fill="#020202"/><path d="M113.095 191.93c-2.441-.839-4.427-2.361-6.265-4.122-1.383-1.325-1.621-2.768-.766-4.479l.549-1.032c-1.705-.436-2.777-1.652-3.731-2.971-.647-.893-1.245-1.84-1.704-2.837l-1.942-4.772c-.297-.749.336-1.87 1.147-2.118.479-.149.948-.347 1.694-.63l-3.053-2.341-2.233-1.587c-1.482-1.226-1.27-2.714-.563-4.256.46-1.002 1.339-1.602 2.273-1.93 1.21-.426 2.515-.6 3.79-.818.227-.04.508.253.76.392-.172.213-.311.486-.528.625l-4.14 2.639c-.706.486-.514 1.23-.03 1.706.85.828 1.808 1.552 2.747 2.281l3.725 2.818c.613.486.509 1.438-.202 1.9-.475.307-1.028.506-1.567.699-1.032.377-1.146.57-.672 1.533.514 1.036 1.028 2.058.964 3.278-.015.238.247.521.435.739.627.725 1.22 1.493 1.931 2.123.598.531 1.344.898 2.036 1.31.563.332 1.191.565 1.724.942.8.566.791 1.449.035 2.079-.168.138-.361.257-.514.411-1.181 1.191-1.191 1.821.089 2.872 1.013.833 2.06 1.642 3.172 2.326.568.348 1.309.501 1.986.566 1.24.119 1.996.828 1.734 2.039-.44 2.023.479 3.715 1.136 5.471.124.327.642.535 1.013.739l3.122 1.577c.514.248 1.068.412 1.591.64l3.893 1.671c.751.298 1.527.665 2.313.715 3.72.233 7.361.759 10.923 1.944 1.961.655 4.022 1.002 6.047 1.448.578.124 1.186.139 1.779.124.998-.019 1.675.427 1.808 1.275.163 1.022-.247 1.816-1.28 1.935-1.052.124-2.183.114-3.206-.134-3.152-.779-6.24-1.801-9.402-2.53-2.144-.496-4.357-.744-6.551-.942-1.571-.139-2.969-.586-4.313-1.394-.874-.526-1.863-.868-2.806-1.27-.247-.109-.549-.109-.786-.228-1.892-.967-3.799-1.91-5.647-2.956-.454-.258-.835-.824-1.042-1.33-.791-1.959-1.537-3.943-1.487-6.13l.015-.01z" fill="#050505"/><path d="M124.3 94.572c.262-3.095-.702-6.151-1.769-9.097-.998-2.773-2.89-4.871-4.911-6.885-.583-.585-.988-1.23-.864-2.108.019-.139-.055-.318-.144-.442-.736-1.017-1.393-2.123-2.252-3.021-3.227-3.353-6.809-6.255-10.613-8.948-5.261-3.725-11.121-5.481-17.371-6.23-2.144-.258-4.323-.159-6.472-.382-2.821-.293-5.538-.015-8.236.858-1.388.451-2.89.575-4.254 1.091-2.717 1.027-5.39 2.163-8.038 3.353-3.473 1.562-6.566 3.675-8.992 6.691a12.33 12.33 0 0 1-1.784 1.82c-1.388 1.126-2.495 2.455-3.295 4.052l-2.544 5.059c-.203.412-.573.933-.469 1.28.301 1.022-.44 1.563-.8 2.287-.405.814-1.245 1.24-1.601 2.173-.82 2.148-1.2 4.35-1.502 6.612-.326 2.475-.301 4.915-.005 7.385.168 1.419.81 2.917-.232 4.291-.054.074-.04.218-.03.322.143 1.726.099 3.497.494 5.164.459 1.954 1.206 3.859 2.001 5.714 1.601 3.72 3.033 7.524 5.849 10.6 3.177 3.467 6.21 7.068 10.469 9.295.222.119.553.377.543.546-.064.833.558 1.001 1.087 1.24l7.179 3.219c5.094 2.252 10.311 3.958 15.983 3.596h-.005c1.181-.005 2.367.064 3.537-.025 1.487-.109 2.989-.243 4.442-.556 1.339-.292 2.623-.833 3.933-1.269 1.892-.63 3.903-.839 5.652-1.96 1.482-.952 3.098-1.681 4.649-2.529.598-.328 1.201-.65 1.739-1.062l5.079-4.003c4.283-3.472 7.618-7.693 9.713-12.836.741-1.821 1.309-3.716 1.966-5.571 1.438-4.057 1.947-8.258 2.149-12.534.114-2.401-.499-4.727-.291-7.182l.01-.01zm-8.236 20.004c-2.623 5.62-5.958 9.127-8.206 11.453-3.197 3.308-6.724 6.964-12.687 9.39-6.714 2.733-12.603 2.316-15.088 2.113-5.39-.442-9.194-2.029-12.83-3.542-4.723-1.964-9.076-3.78-13.354-8.06-4.832-4.836-6.803-10.059-7.712-12.549-1.833-5.02-2.114-9.201-2.268-11.781-.178-2.966-.42-7.053.825-11.959C47.425 79.076 54.895 73.05 56.511 71.8c3.631-2.808 6.877-4.047 11.719-5.898 5.286-2.019 8.557-3.269 13.003-3.214 4.333.055 7.633 1.483 14.239 4.345 6.507 2.817 9.762 4.226 12.539 7.048 2.52 2.56 4.076 6.25 7.188 13.636 2.767 6.562 4.116 9.856 4.244 13.333.213 5.843-1.872 10.302-3.374 13.526h-.005z" fill="#fff"/><path d="M119.246 94.308c.178-2.723-.726-5.392-1.724-7.961-.934-2.416-2.648-4.226-4.476-5.967-.529-.501-.9-1.062-.806-1.84.015-.124-.054-.278-.133-.387-.672-.878-1.27-1.84-2.05-2.614-2.92-2.892-6.151-5.377-9.57-7.678-4.733-3.184-9.965-4.623-15.523-5.173-1.907-.189-3.839-.065-5.751-.223a17.73 17.73 0 0 0-7.292.893c-1.225.422-2.554.556-3.755 1.032-2.391.947-4.748 1.994-7.075 3.085-3.053 1.433-5.766 3.343-7.865 6.037a10.5 10.5 0 0 1-1.551 1.627c-1.21 1.012-2.174 2.202-2.856 3.616l-2.169 4.489c-.173.367-.494.828-.395 1.131.287.893-.366 1.379-.672 2.024-.346.724-1.087 1.111-1.383 1.935-.692 1.9-.993 3.844-1.22 5.838-.247 2.183-.183 4.325.119 6.488.173 1.245.771 2.544-.133 3.774-.049.065-.03.194-.02.288.158 1.513.148 3.07.524 4.528.445 1.712 1.131 3.368 1.872 4.985 1.482 3.239 2.821 6.558 5.375 9.211 2.88 2.991 5.632 6.101 9.446 7.986.203.1.499.323.489.472-.04.729.514.868.988 1.071l6.428 2.703c4.56 1.89 9.214 3.299 14.249 2.882h-.005c1.047-.025 2.1.015 3.142-.079 1.319-.124 2.648-.268 3.933-.566 1.186-.278 2.317-.778 3.468-1.18 1.665-.586 3.448-.804 4.98-1.821 1.299-.858 2.722-1.532 4.081-2.301.523-.298 1.052-.595 1.521-.962l4.442-3.606c3.74-3.125 6.63-6.89 8.404-11.444.627-1.612 1.096-3.283 1.65-4.925 1.205-3.586 1.586-7.291 1.694-11.051.06-2.113-.523-4.147-.38-6.305v-.01zm-7.604 25.307c-2.356 3.214-5.355 5.471-11.353 9.98-5.746 4.315-8.69 6.488-12.228 7.108-3.142.551-6.023-.124-11.778-1.473-4.259-.997-8.216-1.925-12.87-4.38-3.32-1.751-7.633-4.023-11.215-8.705-5.049-6.602-5.494-13.874-5.761-18.194-.296-4.856.371-8.531.899-11.468.86-4.742 1.625-8.75 4.441-13.006 1.912-2.892 4.007-4.742 5.706-6.245 1.418-1.25 4.125-3.616 8.256-5.635 1.961-.957 5.825-2.807 10.968-3.249 4.886-.422 8.473.64 13.433 2.163 7.855 2.411 11.783 3.616 15.533 7.083 4.106 3.794 5.677 8.417 8.824 17.663 2.134 6.275 3.202 9.409 2.974 13.482-.41 7.326-4.15 12.574-5.834 14.875h.004z" fill="#000"/></g><path d="M89.303 36.893l-.175-.907-.457-3.362-.137-7.076-.209-4.433c-.016-1.411.031-2.813.897-4.069.663-.956 1.455-1.631 2.624-1.71 1.328-.091 2.611.995 2.68 2.33.075 1.395.01 2.795-.003 4.195l-.065 4.236-.166 5.286-.002 3.347c.002.961-1.064 2.762-1.826 3.082-1.378.578-2.157.335-3.165-.916l.004-.002z" fill="#030303"/><path d="M73.478 22.466l.811 4.321.608 6.855.832 5.78c.09.59-.554 1.975-1.055 2.145-.859.29-2.093-.286-2.417-1.222l-1.15-3.741-1.378-4.956-1.857-7.091a4.59 4.59 0 0 1 .067-2.227c.321-1.113 1.356-1.545 2.382-1.714.899-.152 1.766.114 2.328.97.206.317.456.602.68.902l.146-.004.001-.018zm32.999 22.83c-.597.27-1.191.734-1.817.786-1.805.143-2.664-1.177-2.331-2.744l.95-4.323c.017-.079.055-.152.086-.227.796-1.961 1.378-4.027 2.594-5.783 1.282-1.851 3.458-2.529 5.411-.787.539.479.934 1.213.582 2.047-.01.023-.039.051-.037.073.378 1.437-.954 1.61-1.64 2.27-.303.295-.508.7-.717 1.079l-1.695 3.172c-.513 1.098-.945 2.236-1.363 3.371-.11.304-.022.683-.023 1.067z" fill="#040404"/><path d="M36.855 199.836c-.741.945-2.32-.933-3.233-1.631-1.751-1.309-7.304-4.142-9.13-4.743-4.908-1.599-10.086-3.08-14.35-2.157-1.063.225-1.955 1.352-3.115-1.009-4.114-8.37-5.897-15.55-6.38-23.534-.107-1.706.011-3.337-.129-5.054-.204-2.404-1.794-7.942 1.858-6.429 2.137.891 4.715 2.565 6.917 3.66 5.993 2.972 11.256 4.968 17.153 6.718 1.386.407 4.415.407 4.619 3.09.129 1.632-.29 3.853-.301 5.549-.043 7.243 3.104 15.904 5.757 23.619.086.247.397.58.483.913.075.3 0 .815-.15.998v.01zM19.68 177.043c-.741-.226-1.171.204-1.804.107-1.633-.257-4.468-1.781-6.24-2.135-.397-.076-1.106-.215-1.031.429s1.686 1.019 2.073 1.159c1.257.461 4.425 1.706 5.478 1.878.634.107 1.128-.311 1.708-.14s1.257.859 1.826.934c1.407.193.58-2.264-.15-2.501-.623-.193.129 1.202-.15 1.224-.537-.354-1.16-.805-1.697-.966l-.011.011zm-5.832 3.563c.387.364 2.846 1.083 3.512 1.341 1.493.59 3.996 1.835 5.349 2.039.548.086.773-.161.086-.644-.526-.365-2.513-1.062-3.265-1.438-1.493-.73-3.706-2.082-5.123-2.511-.301-.086-.687-.15-.87.021-.322.301-.129.752.322 1.181l-.011.011z" fill="#000"/><path d="M21.377 178.006c-.537-.354-1.16-.804-1.697-.965-.741-.226-1.171.203-1.804.107-1.633-.258-4.468-1.782-6.24-2.136-.397-.075-1.106-.214-1.031.43s1.686 1.019 2.073 1.159l5.478 1.878c.634.107 1.128-.312 1.708-.14s1.257.859 1.826.934c1.407.193.58-2.265-.15-2.501-.623-.193.129 1.202-.15 1.224l-.011.01zm-7.851 1.431c-.322.301-.129.751.322 1.181.387.364 2.846 1.083 3.512 1.341 1.493.59 3.996 1.835 5.349 2.039.548.086.773-.161.086-.644-.526-.365-2.513-1.062-3.265-1.438-1.493-.73-3.706-2.082-5.123-2.511-.301-.086-.687-.15-.87.021l-.011.011zM10.69 166.89c-.311.59.773 1.084 1.149 1.266 1.353.634 2.578.88 3.888 1.353 1.428.515 2.911 1.234 4.307 1.556.193-.194.107-.58-.226-.794-1.461-.505-2.922-1.192-4.382-1.771-.698-.279-1.396-.44-2.094-.708-.516-.194-2.084-1.052-2.438-1.009-.064 0-.161.043-.193.107h-.011z" fill="#fff"/><path d="M27.349 256.26c-.419-.021-1.332-.429-1.912-.526-.505-.086-1.139-.064-1.643-.15-.827-.14-2.943-.741-3.759-.558-.967.215-1.01.805-1.364.923-.215.075-2.288-.097-2.825-.054-2.137.161-4.694.73-6.863.977-1.514.171-3.34.257-2.921-1.224.097-.343.516-1.137.698-1.545 1.794-3.853 3.512-7.029 4.619-10.957 1.547-5.473 2.384-10.248.881-15.206-.183-.601-.644-1.127-.827-1.771-.086-.311-.011-.805-.129-1.073-.118-.247-.763-.44-.215-.869.107-.086 1.149-.558 1.386-.666 5.166-2.221 11.375-4.636 16.777-5.966 3.126-.773 6.466-1.245 9.559-2.297 1.106-.376 3.695-1.728 4.457-1.105.902.729 1.654 2.94 2.127 3.992 2.793 6.192 3.255 12.695 2.234 19.864-.268 1.846-.666 3.734-1.407 5.612-1.364 3.434-3.598 6.965-5.553 10.378-.494.847-.773 2.049-1.933 2.725-.644.376-1.289.483-1.965.483-2.943 0-4.951-.805-7.604-1.008-.612-.043-1.289.064-1.815.042v-.021z" fill="#000"/><path d="M20.765 226.557l1.611 1.964c.87-.794.548-2.479 1.665-3.059.881-.45 1.16.741 1.643 1.02.376.215 1.375-.279 1.88-.397 1.321-.301 4.694-.859 5.746-1.685.269-.215.419-.504.763-.762.655-.483 3.276-1.695 2.964-.322-.172.751-1.493 1.105-2.052 1.513-1.88 1.352-2.503 1.792-4.726 2.361-.569.15-4.758 1.02-4.984.988-.236-.033-.644-.355-.838-.247-.322.182-.58 1.545-1.847 1.964-1.386.45-2.105-1.159-2.417-2.104-.183-.579-.193-.923.591-1.223v-.011zm2.073 11.924c.247-.236.408-.161.644-.182 2.019-.183 4.221.021 6.283-.612 1.192-.365 2.245-1.105 3.405-1.545.752-.29 1.418-.269 2.052-.462.677-.204 2.395-1.277 2.127.15-.097.494-1.278 1.031-1.805 1.224s-1.171.118-1.783.29c-.967.279-1.912.88-2.868 1.234-2.041.762-4.114.708-6.015.461l-2.03-.558h-.011zm.311-3.577c.043-.129.634-.333.827-.387 1.557-.483 3.824-.461 5.628-.965 2.234-.623 4.415-1.675 6.606-2.49 1.74-.043 1.01.998-.29 1.652-1.869.945-5.456 1.954-7.454 2.233-.591.085-4.78.45-4.973.354-.118-.065-.354-.322-.333-.387l-.011-.01z" fill="#fff"/><path d="M181.401 45.094c-.076-.3.118-.655.085-.891-.977-7.308-1.89-15.55-5.864-21.978-.934-1.502-2.653-3.402-3.383-4.883-1.203-2.415 2.459-2.94 3.909-3.541 6.187-2.576 11.471-5.248 17.1-8.918 2.062-1.352 4.274-3.284 6.38-4.443 3.598-1.975 4.683 3.209 5.735 5.387.763 1.556 1.783 2.983 2.589 4.518 3.748 7.179 5.499 13.854 5.059 21.999-.118 2.297-1.816 1.449-3.223 1.427-5.649-.086-11.116 2.125-16.186 4.389-1.88.837-7.067 4.314-8.464 5.784-.741.773-1.622 2.715-3.029 2.007-.268-.139-.644-.579-.719-.858h.011zm7.572-21.195c-.344.032-.194-1.341-.838-1.062-.763.333-.43 2.661 1.171 2.243.644-.172 1.117-.891 1.697-1.148s1.428.032 2.137-.172c1.171-.333 4.329-1.975 5.607-2.608.376-.193 2.105-.826 1.869-1.384s-1.031-.343-1.472-.204c-1.965.612-4.554 2.468-6.39 2.973-.709.193-1.45-.107-2.235.215-.569.236-1.074.751-1.535 1.148h-.011zm10.279-.086c-.323-.129-.763 0-1.064.129-1.493.622-3.426 2.211-4.833 3.112-.72.462-2.728 1.417-3.168 1.835-.57.537-.162.719.451.547 1.514-.408 3.866-1.953 5.359-2.726.655-.343 3.244-1.406 3.512-1.803.312-.451.29-.891-.257-1.105v.011zm-31.595 61.092c.247-.064.301-.258.473-.311 5.198-1.867 10.891-4.046 17.904-4.389 1.644-.075 4.146.054 5.618-.107 2.406-.247-.161-1.942-.945-2.737-3.319-3.391-5.876-6.439-8.088-9.937-.816-1.288-1.386-2.812-2.342-4.056-1.643-2.125-5.628-.966-7.776-.73-1.536.161-3.211.182-4.769.322-7.293.665-12.706 2.007-17.292 4.733-1.289.762.558 1.213 1.675 1.792 4.511 2.339 7.476 5.323 10.107 8.145.978 1.052 2.954 4.303 3.179 5.344.119.547-.365 1.524 1.182 1.889.301.075.859.097 1.085.032l-.011.011zm6.853-9.766c.247.15.966-.333 1.31.021.397.419-1.267 1.009-2.277.204-.408-.322-.333-.74-.645-1.062s-1.138-.59-1.578-.944c-.72-.59-2.224-2.425-2.836-3.155-.183-.215-1.16-1.138-.634-1.213s1.021.322 1.278.558c1.171 1.009 2.095 2.672 3.244 3.606.441.354 1.214.579 1.633.998.311.311.397.687.515.998l-.01-.011zm-8.045-4.325c.333.097.591.322.762.483.806.816 1.375 2.125 1.934 2.994.29.44 1.299 1.588 1.385 1.9.118.408-.3.29-.698-.022-.945-.762-1.869-2.232-2.578-3.091-.311-.386-1.707-1.792-1.686-2.028.032-.268.311-.397.87-.236h.011z" fill="#000"/><path d="M174.51 75.14c-.118-.322-.204-.687-.516-.998-.419-.429-1.192-.644-1.632-.998-1.15-.934-2.063-2.586-3.244-3.606-.269-.225-.741-.633-1.278-.558s.451.998.633 1.213l2.836 3.155c.44.354 1.267.622 1.579.944s.236.74.644 1.062c1.01.794 2.675.215 2.277-.204-.343-.354-1.063.129-1.31-.022l.011.011zm-8.045-4.325c-.559-.161-.838-.032-.87.236-.022.236 1.375 1.653 1.686 2.028.698.869 1.622 2.329 2.578 3.091.387.311.816.429.698.022-.096-.311-1.106-1.459-1.385-1.9-.559-.869-1.128-2.178-1.934-2.994-.172-.172-.429-.386-.762-.483h-.011zm9.688-2.203c-.838-.15-.387.494-.247.708.537.783 1.332 1.481 1.998 2.243.719.826 1.289 1.696 2.148 2.49.354.097.655.032.569-.161-.752-.837-1.332-1.696-2.019-2.543-.333-.408-.763-.805-1.096-1.213-.247-.3-.762-1.223-1.095-1.416a.68.68 0 0 0-.258-.097v-.011z" fill="#fff"/><defs><clipPath id="A"><path fill="#fff" transform="translate(35 54.176)" d="M0 0h125v154.762H0z"/></clipPath></defs></svg>