<svg width="377" height="361" viewBox="0 0 377 361" fill="none" xmlns="http://www.w3.org/2000/svg"><g filter="url(#A)"><rect x="64.429" y="95.344" width="176.624" height="211.385" rx="6" transform="rotate(349.493 64.429 95.344)" fill="#fff"/></g><g filter="url(#B)"><rect x="87.872" y="76.408" width="176.624" height="211.385" rx="6" transform="rotate(354.986 87.872 76.408)" fill="#fff"/></g><g clip-path="url(#C)"><path d="M199.06 69.95l6.378.688c4.446.916 8.841 2.026 13.285 3.06.341.952.752 1.862.974 2.812.135.719-.134 1.508.001 2.227.076.495.529.913.793 1.369.374-.287.843-.488 1.12-.86.327-.447.509-1.022.685-1.569.298-.9.514-1.822.793-2.757l13.192 1.403c-.077.959-.217 1.931-.203 2.885.009.299.427.737.732.818.297.109.925-.021 1.075-.248.648-.985 1.193-2.028 1.765-3.063l16.325 1.791c-.451 1.246-.984 2.469-1.358 3.765-.177.665-.382 1.769-.066 2.031.901.744 1.497-.047 2.038-.853 1.067-1.556 2.266-3.048 3.409-4.555 2.712.069 5.447.054 8.151.269 3.363.301 6.724.721 10.064 1.223 2.256.333 4.481.896 6.708 1.34l3.076 2.273-.986 5.378c-8.253 8.817-14.807 18.947-22.029 28.572-2.77 3.716-5.018 7.927-9.032 10.628-.288.191-.44.537-.667.832l-9.718 12.316-16.472 19.958.042-.048-11.255-.65-12.501-1.1c-1.786-.208-2.851.34-3.253 2.073-.142.645-.36 1.24-.474 1.893-.376 2.304-.056 2.775 2.237 2.97l13.045 1.066c2.099.143 4.228.175 6.613.246-.406.634-.535.897-.712 1.117l-9.316 11.918-.028-.008c-.466-.035-.944-.132-1.39-.132l-12.696-.143c-2.894-.057-5.771-.289-8.637-.339-.592-.009-1.508.311-1.717.761a17.1 17.1 0 0 0-1.243 4.003c-.228 1.304.4 2.065 1.903 2.109l14.41.509c1.057.044 2.121.06 3.485.067l-9.66 12.094-.022.083-.083-.022-7.39-.453-11.426-.903c-10.389-.894-20.857-1.156-31.115-3.322-.618-.134-1.68.177-1.972.604-.742 1.227-1.257 2.604-1.716 3.996-.386 1.114.182 1.77 1.333 2.017 2.769.529 5.491 1.342 8.298 1.614l32.662 2.754c1.946.162 3.849.371 5.78.588l-11.551 13.401c-.146-.454-.037-.752.016-1.064.415-2.116-.866-3.436-2.925-3.509-4.124-.118-8.238-.5-12.34-.701l-18.887-.751c-1.53-.051-2.165.997-2.253 2.22-.079 1.523.134 3.064.292 4.59.006.09.645.142.972.14 3.883.024 7.774-.099 11.64.099 3.984.199 7.976.816 11.958 1.134 3.086.227 6.168.246 9.43.371-.285.4-.434.627-.612.847L155.9 253.462c-5.9 8.226-11.585 16.539-19.141 23.404-5.439 4.935-10.407 10.441-16.905 14.114-1.159.671-2.228 1.455-3.346 2.197-2.317.007-2.317.007-2.379-2.325l-.101-4.866c.008-2.372.484-4.828.017-7.09-1.569-7.601-3.48-15.145-5.273-22.687l-.833-5.238c.07-.931.286-1.853.202-2.766-.641-5.959-.106-11.872.755-17.788.949-6.575 1.605-13.168 2.407-19.753l1.524-11.527c.77-6.801 1.201-13.662 2.319-20.429.689-4.151-.574-8.108-.234-12.174l1.072-13.844c.203-2.885.323-5.792.472-8.691 1.794.507 2.119-.713 2.347-2.017l1.118-6.768c.527-3.541 1.109-7.067 1.489-10.616l1.503-15.689c.315-2.856.942-5.657 1.402-8.503l1.944-12.663c.363-2.813.866-5.707.574-8.515-.29-2.927-.171-5.715.65-8.465.182-.575.877-1.399 1.365-1.448 2.006-.178 4.052-.168 6.04-.055 3.094.2 6.378-1.212 9.303.961.323.234.97.258 1.389.132 2.733-.787 5.583 1.218 8.291-.258.176-.102.562.12.839.194 3.004.651 5.992.911 8.998-.01 1.321-.391 2.618-.58 3.841.399.344.27.871.41 1.344.417 4.123.236 8.17 1.313 12.368.709 1.415-.187 2.914.093 4.368.094.863-.008 1.767.055 2.578-.205 3.237-1.009 6.448-2.143 9.922-.922.477.216 1.449.356.931-.821zm-35.962 38.431l.566.328c3.915 2.467 5.336 2.37 9.043-.295.443-.327 1.437-.27 1.99-.005 2.915 1.429 6.051 2.026 9.064 1.077 2.21-.719 4.218-1.015 6.502-.675 2.889.413 5.838.485 8.767.522 3.492.039 3.479-.024 4.264-3.644.03-.111.032-.229.061-.34 1.068-3.456-.228-5.167-3.844-5.298-3.234-.118-6.442-.556-9.691-.619-2.184-.047-4.529-.047-6.578.624-2.37.765-4.107.599-5.924-1.161-2.078-2.007-4.763-2.069-7.154-.449-.583.409-1.119.86-1.379 1.058-1.573-.894-2.884-2.103-4.342-2.313-1.569-.239-3.271.466-5.022.801-.276-.192-.843-.848-1.475-.927-2.41-.315-4.76.04-6.69 1.604-.451.355-.822 1.414-.628 1.911.831 2.121 1.675 4.305 2.884 6.23 2.366 3.716 6.136 4.274 9.586 1.571zm32.33 20.624l1.993-3.922c.702-1.297.14-4.207-.972-4.711-2.847-1.351-5.707-1.756-8.726-.452-.399.161-1.116.178-1.432-.084-3.352-2.465-6.766-1.682-10.054-.034-2.363 1.182-4.412.964-6.435-.584-1.747-1.355-3.687-1.871-5.838-1.375-2.123.504-4.273 1-6.309 1.735-1.896.653-3.45.358-4.912-.951-1.511-1.352-3.447-1.659-5.336-1.479-1.491.137-3.512.371-3.641 2.415-.135 2.072.104 4.184.449 6.234.185 1.089 1.056 1.498 2.314 1.121.678-.206 1.691.004 2.36.39 2.573 1.486 5.295 2.3 8.261 1.753 2.247-.411 4.443-1.192 6.684-1.694.573-.145 1.357.034 1.902.328 4.562 2.49 9.206 3.221 13.929.53 1.221-.685 2.096-.511 2.965.462 1.492 1.644 3.672 1.927 5.318 1.208 2.291-1.024 4.366-1.57 6.748-.817.229.031.488-.048.732-.073zm-49.596 30.766c-.776 3.029-.15 3.908 2.992 4.15l13.593 1.124 21.307 1.365c2.954.163 5.957-.077 8.921-.06 3.291.015 3.311.05 3.666-3.18.313-2.737-.763-3.825-3.518-3.846-6.13-.057-12.261.003-18.337-.367-8.182-.485-16.359-1.325-24.538-2.047-2.696-.242-3.413.22-4.086 2.861zm85.254-30.569c.007-.027.168-.519.328-1.011.686-2.132-.795-4.486-2.97-4.679l-6.852-.576c-.924-.098-1.817-.424-2.696-.688-1.891-.592-3.784-1.066-5.475.384-1.58 1.361-3.293.994-5.032.501-.859-.228-1.682-.596-2.476-.956-1.431-.647-2.56-.087-3.411.993-.681.887-1.294 1.852-1.741 2.861-1.305 3.007-1.014 3.589 2.03 4.755.726.283 1.439.502 2.166.785 2.746 1.057 5.522 1.558 8.46 1.004 1.472-.291 2.963-.874 4.438-.838 3.158.069 6.318.464 9.487.714 2.995.233 3.003.205 3.744-3.249zM171.6 186.427c-.01.146-.011.264-.021.41 3.096.082 6.209.316 9.273.182 1.197-.038 2.592-.706 1.848-2.596-.214-.532-.163-1.171-.28-1.736-.494-2.269-1.28-2.775-3.542-2.754-1.879.035-3.749-.077-5.625-.279-8.428-.788-16.794-2.48-25.331-2.08-1.358.084-2.13.531-2.455 1.751-.273 1.026-.525 2.087-.506 3.131-.003 1.127.189 2.187 1.895 2.136 2.611-.106 5.276-.08 7.903.085 2.162.13 4.313.524 6.446.765l10.395.985z" fill="#196ffe"/><path d="M229.114 161.716l16.472-19.958c3.303-4.048 6.483-8.189 9.718-12.315.22-.268.379-.642.667-.832 4.014-2.702 6.234-6.92 9.032-10.628 7.222-9.626 13.776-19.756 22.029-28.573.016 2.171-.031 4.355.103 6.528.019.599.41 1.474.866 1.655.429.173 1.168-.372 1.722-.67.344-.176.598-.464.901-.71l-.271 7.379-.286 22.157c-.24 7.15-.807 14.301-1.228 21.462l-1.36 23.742-.988 15.648-1.618 27.947c-.488 5.629-1.818 11.183-2.508 16.787-.268 2.126.171 4.38.423 6.554.882 7.508 1.465 15.025.314 22.585-.532 3.45-.322 7.009-.66 10.511-.399 3.841-1.006 7.687-1.607 11.505l-2.088 12.535c-.061.34-.068.813-.286.963-2.258 1.566-1.807 4.002-2.035 6.197l-.232 2.432-7.814-.417c.315-.629.714-1.235.891-1.9.771-2.675-1.071-4.679-3.685-3.89-.901.265-1.577 1.243-2.501 2.036l-1.286-2.865c-1.888-.266-3.671-.592-5.451-.709l-12.654-.636c-2.253-.125-4.522-.521-6.764-.464-3.041.052-6.105.632-9.131.628l-20.974-.386c-2.928-.038-5.898.3-8.832.173-6.314-.256-12.61-.803-18.925-1.058-6.341-.263-12.687-.289-19.031-.433-4.333-.115-8.696-.118-12.998-.461-4.42-.345-8.797.598-13.308-.187-5.622-.961-11.457-.674-17.215-.9 1.118-.741 2.195-1.553 3.345-2.197 6.499-3.673 11.467-9.179 16.906-14.113 7.549-6.838 13.269-15.171 19.14-23.404 7.179-10.023 14.758-19.762 22.136-29.642.178-.22.327-.448.611-.847-3.289-.133-6.371-.152-9.429-.372-3.99-.29-7.954-.899-11.958-1.134-3.866-.197-7.758-.075-11.64-.099-.327.002-.966-.049-.972-.14-.158-1.526-.399-3.074-.293-4.589.061-1.231.724-2.272 2.254-2.221l18.887.751c4.11.174 8.223.556 12.34.701 2.059.073 3.34 1.394 2.925 3.51-.053.312-.162.609-.016 1.064l11.551-13.401c.08-.187.187-.366.266-.553 1.924.245 3.833.545 5.751.699 3.315.259 3.322.231 4.234-2.97.608-2.064-.439-3.708-2.523-3.907l-2.092-.17 9.66-12.094-3.485-.067-14.41-.509c-1.502-.044-2.103-.797-1.903-2.109a17.08 17.08 0 0 1 1.244-4.004c.208-.449 1.124-.769 1.716-.76 2.866.05 5.743.282 8.637.339l12.696.143c.473.007.932.07 1.39.132l-5.571 6.77 9.104.256c3.491.157 3.483.184 4.313-3.157.015-.055.057-.103.072-.159.339-1.72-.854-3.374-2.605-3.483s-3.526-.137-5.293-.192l9.316-11.918c.178-.22.307-.482.713-1.116-2.378-.099-4.514-.103-6.614-.246l-13.044-1.067c-2.258-.215-2.606-.693-2.238-2.97.107-.624.305-1.255.474-1.892.41-1.761 1.468-2.281 3.253-2.073 4.154.452 8.338.793 12.501 1.1 3.754.286 7.516.426 11.256.65l-5.089 6.631c5.2.315 10.162.744 15.121.847 2.658.054 3.714-1.238 3.848-3.191-.901-1.19-1.472-2.054-2.149-2.858-.342-.388-.899-.862-1.364-.897-3.441-.233-6.911-.355-10.374-.505zm-9.006 111.266c.215 1.422.478 2.887.631 4.323.172 1.471.559 2.583 2.302 2.839 2.11.324 3.37-1.062 4.853-2.063.549-.388 1.324-1.072 1.725-.906 2.457.92 3.912-.533 5.471-1.929.388-.342.999-.743 1.45-.653 2.345.446 4.86-.191 7.117 1.033.489.279 1.291.166 1.905.091 1.868-.215 3.651-.334 4.883 1.507.19.289.696.394 1.07.552 3.584 1.37 6.492-1.419 9.855-1.563.091-.005.143-.199.24-.233 1.412-.841 1.398-2.24 1.628-3.663s-.304-1.981-1.516-1.888c-2.118.149-4.244.444-5.75.637-1.355-.598-2.344-1.455-3.181-1.321-1.953.311-3.722-.515-5.601-.481-.327.002-.793-.033-.95-.223-1.509-1.916-3.49-1.611-5.5-1.196-.466-1.817-1.935-1.762-3.214-1.42-1.655.421-3.08 1.199-4.952.315-.871-.41-2.31.425-3.496.643-1.116.178-1.661.775-1.636 1.91l.057 3.132c-.09.006-.153.019-.236-.003l-1.429-4.002c-.065.131-.05.076-.007.028.387-.343.803-.677 1.198-1.047 3.164-3.076 6.065-6.282 5.632-11.236-.171-2.034-1.175-3.281-3.217-3.528-3.029-.331-5.638.549-7.821 2.728-2.515 2.537-3.753 5.74-3.818 9.107-.052 2.539-1.144 3.406-3.122 4.037-.455.146-.889.328-1.316.481-1.978.631-2.416 1.495-1.853 3.841.413 1.683 1.666 2.106 3.111 1.807 1.641-.365 3.257-.973 5.487-1.656zm46.325-82.397c.129-.707.168-.964.199-1.193.499-3.103-.396-4.202-2.718-4.286-2.643-.109-5.289-.428-7.937-.628l-26.836-2.005c-1.132-.093-2.117.149-2.44 1.251-.389 1.351-.612 2.746-.716 4.143-.07.931.422 1.537 1.486 1.553 1.573.003 3.18-.015 4.744.134l31.39 2.624c1.717.13 2.997.115 2.828-1.593zm-40.281 16.621c.229-.859.374-1.295.472-1.774.229-1.305-.737-3.254-1.807-3.36l-12.878-1.022c-.64-.052-1.652.629-1.89 1.189-.535 1.342-.808 2.813-.927 4.265-.027.438.843 1.293 1.364 1.343 4.217.439 8.466.649 12.683 1.089 1.785.207 3.067.074 2.983-1.73z" fill="#fdfdfe"/><path d="M116.474 293.196c5.75.254 11.593-.061 17.215.9 4.511.785 8.888-.158 13.308.187 4.329.351 8.664.346 12.998.461l19.031.433c6.314.255 12.61.802 18.924 1.058 2.935.127 5.876-.218 8.833-.173l20.973.386c3.054.011 6.09-.576 9.132-.628 2.241-.057 4.51.339 6.763.464l12.654.636c1.78.117 3.563.443 5.452.709.398.847.814 1.849 1.286 2.865.923-.793 1.599-1.771 2.501-2.036 2.642-.781 4.49 1.195 3.684 3.89-.204.658-.603 1.264-.891 1.9l-19.42-.982c-.323-.235-.63-.643-.977-.676l-8.728-.779c-1.031.082-2.077.219-3.114.211-5.636-.016-11.253.122-16.885-.13l-82.557-3.889-12.473-.648c-2.086-.08-4.218.125-6.314.19-.299.01-.591-.008-.876-.055l-7.872-1.204c-.56-3.473-1.433-7.446-1.782-11.487-.344-3.95-.193-7.977-.23-11.964.367-1.714.111-3.652 1.703-4.95.112-.089.151-.346.132-.499-.091-1.776-.273-3.546-.329-5.342-.048-1.942.031-3.91.074-5.858l5.273 22.687c.467 2.262-.009 4.718-.016 7.09-.018 1.628.055 3.251.1 4.866.083 2.367.083 2.367 2.428 2.367z" fill="#030202"/><path d="M199.061 69.951c.518 1.177-.454 1.037-.946.876-3.474-1.221-6.685-.087-9.922.922-.811.259-1.715.197-2.578.205-1.454-.001-2.953-.281-4.368-.094-4.191.577-8.245-.472-12.368-.708-.466-.035-1-.147-1.344-.417-1.223-.979-2.513-.817-3.841-.399-3.006.922-5.987.633-8.998.01-.284-.046-.663-.295-.839-.194-2.715 1.504-5.558-.529-8.291.258-.419.126-1.066.102-1.389-.132-2.925-2.173-6.21-.762-9.303-.961-2.016-.121-4.034-.124-6.04.055-.516.041-1.203.838-1.365 1.448-.856 2.77-.967 5.531-.65 8.465.299 2.781-.204 5.675-.574 8.515-.557 4.215-1.268 8.449-1.944 12.663-.461 2.846-1.06 5.655-1.402 8.503-.586 5.216-.944 10.464-1.503 15.689-.38 3.549-.962 7.075-1.489 10.616-.333 2.257-.729 4.526-1.118 6.768-.228 1.304-.553 2.524-2.347 2.017l.02.035-.181-.434.35-8.456c.055-1.321.172-2.656.262-3.997.108-1.188.279-2.389.305-3.6.021-.974-.11-1.929-.172-2.925l1.399-20.318c.364-4.267 1.331-8.462 1.604-12.723.332-4.928 1.976-9.656 1.192-14.852-.532-3.466.931-7.292 1.771-10.898.365-1.595 2.407-2.239 4.436-2.055 3.62.34 7.22.645 10.844.748 2.33.056 4.488-.023 6.811.952 2.054.873 4.735.28 7.135.296.981-.006 2.016-.325 2.938-.109 3.203.793 6.379 1.46 9.726 1.044.829-.106 1.729.193 2.596.394 1.345.299 2.726.577 4.02 1.07 3.846 1.498 7.838.216 11.684.823 2.881.44 5.529.195 8.313-.341 2.644-.454 5.182.162 7.566 1.241z" fill="#020202"/><path d="M223.089 74.918l-.793 2.757c-.175.547-.358 1.122-.684 1.569-.25.379-.719.581-1.12.86-.292-.464-.717-.874-.793-1.369-.135-.719.141-1.536-.001-2.227-.188-.97-.626-1.888-.974-2.812.286-5.089.46-10.208.947-15.273.246-2.487.986-4.932 1.691-7.357.389-1.351 1.577-1.688 2.885-1.251 1.261.395 1.832 1.259 1.604 2.564-.457 2.609-1.06 5.21-1.343 7.836-.589 4.89-.976 9.803-1.419 14.702z" fill="#030202"/><path d="M239.615 76.735l-1.765 3.063c-.149.227-.75.364-1.075.248-.297-.109-.715-.547-.732-.818-.014-.954.126-1.925.204-2.885l3.188-12.539c.992-3.506 2.206-6.953 3.42-10.4.262-.761.747-1.582 1.394-2.004.682-.442 1.857-.842 2.457-.534.573.301 1.062 1.589.905 2.289-.396 1.824-1.132 3.587-1.751 5.352l-3.114 9.026-3.131 9.2zm20.348 2.179l-3.409 4.555c-.541.806-1.13 1.569-2.038.853-.316-.262-.139-1.373.066-2.031.367-1.268.9-2.491 1.358-3.765l3.558-4.782 3.615-5.331c.628-1.02 1.276-2.006 2.585-1.568 1.142.393 1.357 1.37 1.233 2.614-.454 4.272-3.006 6.948-6.46 8.997-.204.094-.346.294-.508.459z" fill="#040202"/><path d="M290.596 96.206c-.303.246-.585.527-.901.71-.582.29-1.321.836-1.722.67-.456-.181-.847-1.057-.866-1.655l-.103-6.528.986-5.378-3.076-2.273c.916-.32 1.814-.794 2.769-.925 3.718-.584 4.402-.254 3.733 4.377-.326 2.229-.249 4.505-.373 6.758l-.447 4.245z" fill="#030202"/><path d="M108.745 256.201l-.075 5.858.33 5.342c.011.181-.02.41-.133.499-1.619 1.29-1.336 3.236-1.702 4.949l-.225-9.084c.081-3.985.406-7.995.633-11.972.018-.292.238-.56.374-.85l.798 5.258z" fill="#faf3f3"/><path d="M239.246 301.792l8.728.779c.348.033.655.441.978.675l-8.679-.29c-.348-.034-.692-.748-1.027-1.164z" fill="#f4e5e5"/><path d="M117.033 124.65l.172 2.925c-.025 1.211-.189 2.384-.305 3.6l.133-6.525z" fill="#3562d4"/><path d="M116.295 143.6l.181.434c-.053-.133-.135-.274-.181-.434z" fill="#196ffe"/><path d="M163.098 108.381c-3.458 2.731-7.228 2.174-9.558-1.563-1.21-1.925-2.061-4.081-2.884-6.23-.194-.497.176-1.556.627-1.911 1.958-1.557 4.28-1.919 6.69-1.604.632.079 1.193.762 1.475.927 1.745-.308 3.446-1.013 5.022-.801 1.458.21 2.797 1.427 4.342 2.313l1.38-1.058c2.362-1.627 5.055-1.594 7.153.449 1.818 1.76 3.555 1.926 5.925 1.161 2.049-.671 4.366-.678 6.578-.624l9.69.619c3.617.131 4.913 1.842 3.845 5.298-.03.111-.031.229-.061.34-.785 3.62-.8 3.676-4.265 3.644l-8.766-.522c-2.312-.348-4.293-.044-6.502.675-3.014.949-6.15.352-9.064-1.076-.553-.266-1.547-.323-1.991.004-3.707 2.665-5.128 2.762-9.043.295-.227-.149-.406-.256-.593-.336zm32.33 20.625c-.244.024-.495.076-.717.017-2.382-.753-4.457-.207-6.748.816-1.653.748-3.834.464-5.319-1.207-.876-.946-1.743-1.147-2.964-.462-4.723 2.691-9.367 1.96-13.929-.531-.545-.293-1.301-.465-1.902-.328-2.241.502-4.438 1.283-6.684 1.695-2.938.554-5.66-.259-8.261-1.753-.669-.386-1.654-.589-2.36-.39-1.293.398-2.157-.04-2.314-1.121-.345-2.051-.612-4.17-.449-6.234.128-2.044 2.15-2.278 3.641-2.415 1.853-.16 3.79.147 5.335 1.479 1.47 1.281 3.017 1.604 4.912.95 2.064-.727 4.187-1.231 6.31-1.734 2.151-.497 4.091.02 5.838 1.375 2.022 1.547 4.072 1.766 6.434.584 3.289-1.648 6.703-2.432 10.055.033.323.235 1.033.246 1.432.085 2.983-1.284 5.872-.872 8.725.451 1.078.525 1.647 3.407.973 4.712l-2.008 3.978z" fill="#000204"/><path d="M192.526 206.512l-.266.552-5.78-.588-32.662-2.754c-2.779-.265-5.537-1.058-8.298-1.614-1.158-.22-1.726-.875-1.333-2.017.452-1.364.974-2.769 1.716-3.996.272-.462 1.354-.738 1.972-.604 10.258 2.166 20.726 2.428 31.115 3.322l11.426.903 7.39.453-5.28 6.343z" fill="#f9fbfd"/><path d="M145.832 159.771c.673-2.641 1.383-3.076 4.086-2.861l24.539 2.047c6.103.378 12.235.317 18.336.367 2.755.021 3.831 1.109 3.519 3.846-.355 3.23-.376 3.195-3.667 3.18-2.964-.017-5.966.223-8.921.06l-21.306-1.365-13.594-1.124c-3.141-.242-3.768-1.121-2.992-4.15z" fill="#fafbfd"/><path d="M231.086 129.202c-.748 3.482-.748 3.482-3.743 3.249l-9.488-.714c-1.474-.036-2.965.547-4.438.838-2.91.561-5.72.081-8.46-1.004l-2.166-.785c-3.044-1.166-3.334-1.748-2.029-4.755.446-1.009 1.059-1.974 1.741-2.861.851-1.08 1.98-1.64 3.41-.993.795.36 1.617.728 2.477.956 1.711.485 3.452.86 5.031-.501 1.699-1.478 3.585-.976 5.475-.384.88.264 1.773.59 2.697.688l6.852.576c2.175.193 3.656 2.547 2.97 4.679-.188.485-.321.984-.329 1.011z" fill="#000205"/><path d="M171.6 186.426l-10.367-.977-6.446-.766-7.903-.084c-1.685.086-1.87-1.002-1.895-2.137-.019-1.044.233-2.105.506-3.131.297-1.227 1.077-1.702 2.455-1.751 8.544-.428 16.883 1.257 25.332 2.08 1.883.175 3.753.286 5.625.28 2.234-.029 3.047.484 3.541 2.753.117.565.066 1.205.28 1.737.752 1.862-.643 2.53-1.848 2.595-3.091.128-6.177-.1-9.272-.181-.047-.161-.01-.3-.008-.418z" fill="#f9fbfd"/><path d="M229.113 161.716l10.402.512c.466.035 1.029.481 1.364.897.684.776 1.276 1.675 2.149 2.858-.141 1.98-1.19 3.245-3.848 3.191-4.959-.103-9.921-.532-15.121-.847l5.089-6.631c-.02-.035-.035.02-.035.02z" fill="#070707"/><path d="M213.504 181.221l5.292.191c1.752.11 2.945 1.763 2.606 3.483-.015.056-.057.104-.072.159-.83 3.342-.822 3.314-4.313 3.157l-9.105-.256 5.592-6.734z" fill="#080808"/><path d="M192.526 206.51l5.245-6.322.083.022.022-.083 2.092.171c2.084.198 3.131 1.842 2.522 3.906-.931 3.166-.918 3.229-4.233 2.97-1.898-.119-3.807-.419-5.731-.664z" fill="#090909"/><path d="M220.108 272.981l-5.508 1.622c-1.444.298-2.705-.097-3.11-1.808-.571-2.319-.133-3.182 1.853-3.841l1.315-.481c1.979-.631 3.07-1.498 3.123-4.037.064-3.367 1.303-6.57 3.818-9.107 2.183-2.179 4.799-3.086 7.82-2.727 2.05.218 3.046 1.493 3.217 3.527.441 4.926-2.46 8.132-5.631 11.236-.368.377-.811.705-1.199 1.047-.035.02-.05.076.007-.028l1.429 4.002c.091-.006.154-.019.237.003l-.057-3.132c-.025-1.134.52-1.732 1.636-1.91 1.186-.218 2.625-1.052 3.495-.643 1.873.884 3.297.106 4.953-.315 1.271-.314 2.747-.396 3.214 1.42 2.01-.415 3.991-.719 5.5 1.196.157.19.615.253.949.223 1.887-.062 3.656.765 5.601.481.837-.133 1.827.724 3.181 1.321 1.499-.165 3.605-.495 5.75-.636 1.24-.086 1.747.464 1.517 1.887s-.217 2.822-1.628 3.664c-.105.061-.157.255-.24.233-3.335.151-6.272 2.932-9.856 1.563-.373-.159-.879-.264-1.07-.552-1.232-1.842-3.015-1.723-4.883-1.507-.641.066-1.415.187-1.905-.092-2.249-1.251-4.764-.614-7.117-1.033-.423-.083-1.062.311-1.45.653-1.559 1.396-3.014 2.85-5.47 1.929-.401-.166-1.177.518-1.726.906-1.483 1.001-2.742 2.387-4.853 2.063-1.742-.256-2.129-1.368-2.302-2.839-.132-1.4-.367-2.858-.61-4.288z" fill="#1b70fe"/><path d="M266.433 190.585c.19 1.742-1.111 1.723-2.848 1.557l-31.391-2.623-4.744-.134c-1.071.011-1.584-.63-1.486-1.554.132-1.389.335-2.82.716-4.143.323-1.101 1.308-1.344 2.441-1.25l26.835 2.005 7.937.628c2.351.091 3.245 1.19 2.719 4.285-.011.264-.07.486-.179 1.229zm-40.281 16.621c.085 1.803-1.198 1.937-3.018 1.75-4.217-.44-8.465-.65-12.682-1.089-.521-.05-1.392-.905-1.365-1.343.084-1.432.392-2.923.927-4.265.246-.588 1.251-1.241 1.89-1.189 4.304.225 8.591.623 12.878 1.022 1.07.107 2.064 2.063 1.807 3.36-.062.459-.208.895-.437 1.754z" fill="#050505"/></g><path d="M62.196 244.217l1.537-.472 6.476-2.407c1.264-.45 1.825-1.431 2.501-2.496.862-1.34.238-2.274-.241-3.38-1.455-3.359-2.995-6.686-4.268-10.122-1.805-4.865-3.315-9.842-5.1-14.721-1.309-3.574-2.835-7.07-4.306-10.579l-3.852-8.822c-.986-2.064-2.245-3.995-3.277-6.044-1.343-2.667-2.577-5.395-3.878-8.095-.699-1.452-1.368-2.923-2.179-4.307-.355-.611-1.021-1.045-1.556-1.552-.752-.723-1.58-.255-2.364-.113l-7.962 1.5a5.92 5.92 0 0 0-1.425.473c-.223.103-.387.357-.519.585-.134.236-.082.637-.558.498-.057-.014-.209.079-.233.143-.298.999-1.107 1.826-.814 3.026.644 2.665 1.967 4.982 3.42 7.261 1.164 1.822 2.225 3.714 3.238 5.629 1.05 1.976 2.009 4.008 2.969 6.032l4.645 9.986c1.739 3.944 3.314 7.961 5.032 11.917l5.682 12.71 3.069 6.884 2.371 5.207c.301.659.818.989 1.534 1.064a1.65 1.65 0 0 1 .057.195zm.937-5.544c-.104-.18-.199-.323-.274-.479l-3.871-8.413c-.99-2.117-2.125-4.173-3.048-6.318-1.615-3.776-3.047-7.629-4.672-11.399l-5.976-13.324c-.508-1.131-1.047-2.243-1.615-3.448l7.334-2.349c.14-.045.483.183.554.356l3.819 8.849c1.1 2.566 2.304 5.088 3.256 7.696 1.412 3.867 2.571 7.819 3.954 11.696 1.295 3.631 2.733 7.21 4.142 10.799.577 1.458 1.26 2.871 1.871 4.26l-5.474 2.074zM42.841 175.99l5.993 12.379-7.329 2.471c-.524-1.1-1.004-2.241-1.613-3.31-1.19-2.078-2.472-4.092-3.672-6.164-.699-1.202-1.314-2.462-2.052-3.863l8.672-1.513zm-19.416 26.058l-.863 4.577c-.258 1.484 1.051 3.098 2.511 2.91.57-.072 1.213-.636 1.551-1.151.986-1.535 1.831-3.165 2.695-4.694l4.016.971c.687.198 1.128-.06 1.526-.5 1.205-1.328.936-2.16-.265-3.499-1.051-1.173-2.293-1.684-3.822-2.117l1.655-4.13c.615-1.243.515-2.165-.586-3.057-.224-.182-.318-.515-.534-.696-1.568-1.322-2.813-1.204-3.861.774-.915 1.743-1.614 3.596-2.402 5.386l-4.446-1.523c-.241-.074-.728.086-.862.287-.372.585-.697 1.225-.889 1.887-.287 1.028.53 3.294 2.02 3.743l2.556.832zm49.01-13.638l4.827 1.121c1.288.211 1.825-.887 2.326-1.796.409-.74.16-1.507-.367-2.09-1.098-1.227-2.311-2.336-4.034-2.823l.59-2.121c.193-.956.403-1.915.435-2.883.019-.661-.118-1.358-.927-1.731-.451-.211-.698-.839-1.144-1.109-1.044-.62-1.558-.491-2.149.542-.577 1.011-1.064 2.078-1.556 3.135l-1.071 2.474-4.6-1.093c-.66-.166-.992.178-1.201.733-.095.253-.145.535-.278.771-.912 1.622-.108 3.505 1.697 4.011.907.251 1.791.599 2.695.9l-1.328 4.32c-.373 1.75.397 3.089 2.287 3.271.253.025.575-.166.788-.339 1.059-.897 1.603-2.132 2.14-3.376l.87-1.917z" fill="#13131b"/><path d="M58.674 165.924l-1.551 3.766c-.501-.144-1.044-.256-1.537-.468-.862-.369-.98-.345-1.383.552-.258.577.003 1.295.572 1.517l1.591.568-.886 1.947c-.337.619-.184 1.139.281 1.543.488.418 1.264.24 1.644-.343a12.02 12.02 0 0 0 .899-1.712c.19-.438.444-.49.821-.331l1.139.547c.483.218.885.236 1.221-.306.304-.48.4-.846-.147-1.2l-1.571-1.09c-.16-.124-.282-.447-.238-.635.137-.614.348-1.212.557-1.801.464-1.262.08-2.009-1.413-2.554z" fill="#15151d"/><path d="M63.133 238.674l5.484-2.081-1.871-4.26-4.142-10.799c-1.384-3.876-2.55-7.831-3.954-11.695-.949-2.617-2.162-5.141-3.256-7.697l-3.819-8.849c-.08-.174-.414-.4-.554-.356l-7.334 2.349 1.615 3.449 5.976 13.323c1.625 3.77 3.057 7.624 4.672 11.4.913 2.151 2.05 4.199 3.048 6.318l3.871 8.412c.065.163.169.308.264.486z" fill="#fdfdfd"/><path d="M42.842 175.991l-8.664 1.515 2.052 3.863 3.672 6.163c.609 1.069 1.081 2.208 1.613 3.31l7.329-2.471-6.001-12.38z" fill="#1a6efd"/><defs><filter id="A" x="58.421" y="60.127" width="224.225" height="252.064" filterUnits="userSpaceOnUse" color-interpolation-filters="sRGB"><feFlood flood-opacity="0" result="A"/><feColorMatrix in="SourceAlpha" values="0 0 0 0 0 0 0 0 0 0 0 0 0 0 0 0 0 0 127 0" result="B"/><feOffset dy="3"/><feGaussianBlur stdDeviation="3.5"/><feComposite in2="B" operator="out"/><feColorMatrix values="0 0 0 0 0 0 0 0 0 0 0 0 0 0 0 0 0 0 0.1 0"/><feBlend in2="A"/><feBlend in="SourceGraphic"/></filter><filter id="B" x="81.373" y="57.473" width="207.421" height="239.01" filterUnits="userSpaceOnUse" color-interpolation-filters="sRGB"><feFlood flood-opacity="0" result="A"/><feColorMatrix in="SourceAlpha" values="0 0 0 0 0 0 0 0 0 0 0 0 0 0 0 0 0 0 127 0" result="B"/><feOffset dy="3"/><feGaussianBlur stdDeviation="3.5"/><feComposite in2="B" operator="out"/><feColorMatrix values="0 0 0 0 0 0 0 0 0 0 0 0 0 0 0 0 0 0 0.1 0"/><feBlend in2="A"/><feBlend in="SourceGraphic"/></filter><clipPath id="C"><path fill="#fff" transform="rotate(14.9 42.57 354.29)" d="M0 0h293.747v293.747H0z"/></clipPath></defs></svg>