<svg xmlns="http://www.w3.org/2000/svg" width="145" height="120" fill="none"><g clip-path="url(#A)"><path d="M56.288 61.777l7.172-7.152 7.407-6.488 5.016-4.818 5.166-4.775 3.757-3.555 2.604-2.27c.149-.128.213-.364.32-.535.277-.128.598-.214.854-.385l4.077-2.955c.854-.664 1.644-1.413 2.455-2.12l2.604-1.542 4.376-2.741 3.991-2.677 3.074-2.099 4.525-2.741a128.74 128.74 0 0 0 3.33-2.163l2.924-1.992 5.038-3.105 4.547-2.784c.981-.535 2.07-.921 3.159-1.156.32-.064 1.088.535 1.152.921.278 1.328.854 2.463 1.665 3.512.192.236.128.664.214 1.006.064.214.128.535.277.621.171.086.448-.064.662-.15 1.003-.321 1.985-.707 2.988-.899.278-.064.875.407.961.728.32 1.37.982 2.527 1.707 3.704.385.664.129 1.863-.149 2.72s-.576 1.413.406 2.056c.491.321.661 1.135.939 1.734l.896 2.034c.662 1.156.811 2.291.192 3.533-.384.728-.362 1.734-.875 2.334-.768.921-1.771 1.692-2.775 2.377-1.344.942-2.796 1.692-4.162 2.612l-5.4 3.876-6.724 5.096-6.745 4.561-4.077 3.126-8.709 6.916c-2.967 2.462-5.977 4.882-8.752 7.559-3.522 3.383-6.895 6.895-10.16 10.535-2.433 2.719-4.653 5.632-6.873 8.544-1.238 1.606-2.241 3.34-3.415 4.989l-6.532 9.079c-1.259 1.799-2.412 3.683-3.479 5.611-.619 1.134-.982 2.419-1.473 3.64-.683 1.649-1.9 2.548-3.607 3.126-2.199.728-3.928-.364-5.742-1.049-2.924-1.092-5.806-2.356-8.688-3.576l-6.553-2.912-13.042-5.76c-1.772-.771-3.543-1.606-5.336-2.291-1.708-.642-3.479-1.092-5.187-1.692l-9.755-3.426c-1.238-.471-2.796-.214-3.693-1.413-.982-1.306-1.964-2.655-2.732-4.09-.427-.814.832-2.719 1.75-3.041 1.003-.364 1.259-1.37.427-2.334-1.046-1.221-.747-2.398-.171-3.64.064-.15.171-.385.299-.428 1.259-.364 1.772-1.37 2.433-2.377.384-.621.598-.921.128-1.52-.854-1.092-.854-2.548-.021-3.662.128-.171.342-.257.491-.386.555-.471 1.131-.899 1.644-1.392.534-.535 1.003-1.135 1.516-1.67.64-.664 1.259-1.285 1.814-2.056 1.153-1.606 2.689-3.019 4.291-4.197 2.134-1.563 4.397-.899 6.596.171l11.676 5.61c1.75.899 3.479 1.863 5.272 2.677 1.302.6 2.69 1.049 4.034 1.563l6.51 2.998c.747.343 1.153-.193 1.58-.707l2.967-3.405.064-.021.811-1.007 2.092-2.42h-.021z" fill="#1a6ffe"/><path d="M135.523 106.916c-.747-.192-1.537-.299-2.242-.578l-9.434-3.918-6.916-2.891c-1.43-.685-2.647-1.713-2.69-3.512s1.537-3.212 3.287-2.827l6.02 1.606c3.799 1.285 7.577 2.677 11.334 4.09 1.985.75 3.416 2.163 3.842 4.283.427 2.184-1.579 3.833-3.18 3.769l-.021-.022zm1.366-24.603l-5.998-1.478c-3.8-.964-7.429-2.505-11.378-2.869-1.387-.128-2.134-1.263-1.963-2.548.149-1.135 1.28-2.013 2.561-1.906l14.302 1.37c1.622.171 3.265.236 4.802.685 2.284.664 3.181 2.784 2.199 4.775-.833 1.67-2.455 1.863-4.525 1.97z" fill="#060606"/><path d="M106.471 116.103c0 1.799-.939 3.19-2.454 3.747-1.559.578-3.309-.685-4.099-2.163-.939-1.777-2.305-3.383-3.671-4.903-1.131-1.264-2.498-2.291-3.757-3.448-.79-.728-.875-2.505-.171-3.34 1.046-1.285 2.412-1.563 3.65-.75 3.159 2.035 6.212 4.197 8.752 7.024.982 1.113 1.793 2.291 1.75 3.854v-.021z" fill="#070707"/><path d="M53.385 65.225l-.064.021c.021 0 .043 0 .064-.021z" fill="#334c76"/><path d="M29.307.749c.448.642.982 1.221 1.345 1.906l4.653 9.122 3.394 6.681c.64 1.435.918 3.019-.213 4.432-1.11 1.392-3.245 1.456-4.333.021l-3.543-5.118c-2.07-3.448-4.034-6.959-5.998-10.471-1.046-1.863-1.217-3.854-.171-5.76 1.067-1.949 3.671-1.884 4.867-.814zM12.402 18.63l3.607 5.011c2.284 3.191 4.056 6.745 6.831 9.593.96 1.006.811 2.334-.149 3.212-.854.771-2.284.707-3.181-.193L9.477 25.932c-1.131-1.178-2.348-2.313-3.223-3.64-1.302-1.991-.64-4.197 1.409-5.053 1.708-.728 3.074.171 4.717 1.435l.021-.043z" fill="#060606"/><path d="M57.377 12.591c1.174-1.349 2.775-1.82 4.291-1.263 1.558.578 2.092 2.677 1.729 4.304-.427 1.97-.406 4.09-.363 6.124.043 1.692.427 3.383.64 5.075.128 1.071-.939 2.462-2.028 2.655-1.622.3-2.86-.385-3.287-1.799-1.089-3.597-2.028-7.238-2.135-11.028-.043-1.478.107-2.912 1.153-4.069z" fill="#070707"/></g><defs><clipPath id="A"><path fill="#fff" d="M0 0h145v120H0z"/></clipPath></defs></svg>