<svg xmlns="http://www.w3.org/2000/svg" width="111" height="24" fill="#fff"><path d="M3.472 21.814a5.37 5.37 0 0 1-1.26-3.808v-7.1H-.001V7.955h2.213V3.53h3.873v4.425h3.534v2.951H6.085v6.606a3.06 3.06 0 0 0 .521 2.011 2.45 2.45 0 0 0 1.907.6c.649-.002 1.288-.149 1.873-.43v2.95a8.77 8.77 0 0 1-3.225.521c-1.366.098-2.709-.394-3.689-1.35zm10.295-.045a4.63 4.63 0 0 1-1.692-3.764 4.81 4.81 0 0 1 1.6-3.841 6.65 6.65 0 0 1 4.488-1.384 9.72 9.72 0 0 1 4.822 1.137v-.4a2.62 2.62 0 0 0-.966-2.274 5.36 5.36 0 0 0-3.119-.707 13.9 13.9 0 0 0-2.675.259 10.61 10.61 0 0 0-2.333.724V8.485a10.13 10.13 0 0 1 2.472-.707 16.93 16.93 0 0 1 3-.277q3.841 0 5.684 1.642a5.8 5.8 0 0 1 1.844 4.563v9h-3.664V21.26c-.624.608-1.36 1.088-2.168 1.413a7.86 7.86 0 0 1-2.963.492 6.57 6.57 0 0 1-4.33-1.396zm7.62-1.937a3.75 3.75 0 0 0 1.6-1.4v-1.628a6.52 6.52 0 0 0-3.87-1.2q-3.1 0-3.1 2.4a2.04 2.04 0 0 0 .783 1.75 3.73 3.73 0 0 0 2.258.584 5.28 5.28 0 0 0 2.329-.506zM30.42 0h3.87v22.706h-3.87zm9.339 21.107c-1.633-1.449-2.517-3.564-2.4-5.744-.11-2.125.656-4.202 2.12-5.746a8.19 8.19 0 0 1 6.053-2.12c1.529-.044 3.044.294 4.409.983a6.56 6.56 0 0 1 2.75 2.689 8.04 8.04 0 0 1 .922 3.885v1.782H41.046q.4 3.288 5.715 3.288a17.37 17.37 0 0 0 2.889-.246c.881-.135 1.746-.361 2.581-.674v2.981a12.56 12.56 0 0 1-2.688.707 19.53 19.53 0 0 1-3.272.277c-2.349.129-4.665-.604-6.512-2.062zm10.2-6.913c.015-1.042-.442-2.035-1.244-2.7a5.03 5.03 0 0 0-3.242-.951 4.8 4.8 0 0 0-3.2.983 3.49 3.49 0 0 0-1.229 2.671zm6.73-6.238h3.749v2a6.4 6.4 0 0 1 2.489-1.859 7.89 7.89 0 0 1 3.042-.6 5.74 5.74 0 0 1 4.455 1.613 6.1 6.1 0 0 1 1.475 4.286v9.31h-3.871v-8.943q0-3.224-3.011-3.224a5.16 5.16 0 0 0-2.489.63 5.3 5.3 0 0 0-1.967 1.888v9.65h-3.872zm20.985 13.858a5.37 5.37 0 0 1-1.26-3.808v-7.1h-2.212V7.955h2.212V3.53h3.87v4.425h3.535v2.951h-3.535v6.606a3.06 3.06 0 0 0 .524 2.011c.519.461 1.21.679 1.9.6a4.37 4.37 0 0 0 1.874-.43v2.95a8.81 8.81 0 0 1-3.226.521c-1.364.097-2.704-.395-3.682-1.35zM87.981 4.761a2.05 2.05 0 0 1-.63-1.535 2.15 2.15 0 0 1 2.182-2.183 2.16 2.16 0 0 1 1.567.63 2.08 2.08 0 0 1 .645 1.553 2.03 2.03 0 0 1-.645 1.535 2.19 2.19 0 0 1-1.567.615c-.579.014-1.14-.208-1.552-.615zm-.415 3.2h3.933v14.75h-3.933zm7.866-.005h3.749v2a6.39 6.39 0 0 1 2.489-1.859 7.89 7.89 0 0 1 3.042-.6 5.74 5.74 0 0 1 4.455 1.613 6.1 6.1 0 0 1 1.477 4.286v9.31h-3.873v-8.943q0-3.224-3.011-3.224c-.869-.003-1.726.214-2.489.63a5.32 5.32 0 0 0-1.966 1.888v9.65h-3.871z"/></svg>