<svg width="23" height="22" viewBox="0 0 23 22" fill="none" xmlns="http://www.w3.org/2000/svg"><g clip-path="url(#clip0_2435_1734)" fill-rule="evenodd" clip-rule="evenodd"><path d="M5.24077 11C5.24077 10.2855 5.35936 9.60037 5.57128 8.95791L1.86394 6.12695C1.14138 7.59391 0.734375 9.247 0.734375 11C0.734375 12.7515 1.14103 14.4034 1.86239 15.8695L5.56767 13.0331C5.35781 12.3935 5.24077 11.711 5.24077 11Z" fill="#FBBC05"/><path d="M11.7503 4.50003C13.3025 4.50003 14.7045 5.05003 15.8061 5.94997L19.0105 2.75C17.0578 1.04998 14.5543 0 11.7503 0C7.39709 0 3.65571 2.48944 1.86426 6.127L5.57143 8.95795C6.42565 6.36505 8.8606 4.50003 11.7503 4.50003Z" fill="#EA4335"/><path d="M11.7503 17.4999C8.86077 17.4999 6.42582 15.6349 5.5716 13.042L1.86426 15.8724C3.65571 19.5105 7.39709 21.9999 11.7503 21.9999C14.4371 21.9999 17.0023 21.0459 18.9275 19.2584L15.4085 16.5379C14.4156 17.1634 13.1652 17.4999 11.7503 17.4999Z" fill="#34A853"/><path d="M22.2648 11.0001C22.2648 10.35 22.1646 9.64998 22.0144 9.00012H11.75V13.2501H17.6584C17.3629 14.6992 16.5589 15.8131 15.4082 16.538L18.9272 19.2585C20.9494 17.3816 22.2648 14.5855 22.2648 11.0001Z" fill="#4285F4"/></g><defs><clipPath id="clip0_2435_1734"><path fill="#fff" transform="translate(.5)" d="M0 0H22V22H0z"/></clipPath></defs></svg>