<svg xmlns="http://www.w3.org/2000/svg" width="148" height="136" fill="none"><g clip-path="url(#A)"><g fill="#000"><path d="M.104 44.71H0V41.85h.104v2.859z"/><path d="M4.219 37.249s-.155.156-.311.208c-.336.13-1.889.572-1.967.78-.854 6.654.621 13.491 4.167 19.158.207.338 1.786 2.729 1.941 2.755s.311-.052.466-.104c1.424-.494 3.158-1.872 4.607-2.262.207-.052.336.078.336.078.337 2.677.828 5.485.673 8.188-.155 2.885-1.216 7.408-4.84 4.289C4.115 65.921.31 51.39.103 44.71c-.026-.936-.026-1.95 0-2.859.104-2.469.751-6.368 4.115-4.575v-.026zm43.25-23.03v.234c-.052.104-.44.286-.595.208-2.433-.858-4.944-2.028-7.48-2.573-.544-.13-1.424-.364-1.889-.13L28.6 17.936c-.932.208-.828-.442-.233-.936 2.614-2.079 6.108-3.743 8.774-5.849.906-.416 2.096 0 3.028.234 1.864.494 5.177 1.534 6.859 2.391.259.13.388.13.414.442h.026zM34.218 8.838c.285 0 .466.026.466.338-.595.936-1.553 1.144-2.537 1.742-1.553.936-3.08 1.923-4.478 3.067-.388.312-.828 1.118-1.372.702s.906-1.43 1.268-1.716c1.424-1.17 3.261-2.339 4.892-3.223.362-.208 1.475-.884 1.786-.91h-.026z"/></g><path d="M36.029 46.451c-.621-.65-1.217-1.404-1.631-2.339-.958-2.21-.595-4.367 0-7.954.285-1.794.544-3.327 1.372-5.147-.414-.13-.751-.442-.983-1.118-.984-2.911 1.087-5.797 3.08-7.694.336-.312 2.071-1.794 2.355-1.872.518-.13 1.424.104 1.967.208 2.407-3.171 5.099-3.613 8.671-4.575l-3.417-1.482s-.44.286-.595.208c-2.433-.858-4.944-2.027-7.48-2.573-.544-.13-1.424-.364-1.889-.13l-8.904 5.979c-.932.208-.828-.442-.233-.936 2.614-2.079 6.109-3.743 8.774-5.849.906-.416 2.097 0 3.028.234 1.864.494 5.177 1.534 6.859 2.391.259.13.388.13.414.442 1.682-.286 4.53-1.17 5.513-2.651 1.268-1.923-1.087-2.157-2.407-2.391-3.391-.546-6.833-.52-10.25-.598-1.113 0-4.995-.494-5.642.572-.595.936-1.553 1.144-2.537 1.742-1.553.936-3.08 1.924-4.478 3.067-.388.312-.828 1.118-1.372.702s.906-1.43 1.268-1.716c1.424-1.17 3.261-2.339 4.892-3.223.362-.208 1.475-.884 1.786-.91.155-1.274.078-2.547.104-3.847.026-1.118.311-2.885.078-3.951C34.114 0 32.432-.104 31.577.078c-3.158 6.914-5.85 14.063-8.981 20.977-1.553 3.431-3.675 6.525-5.021 9.982-.207.52-.336 1.092-.544 1.638-4.193 1.716-8.593 2.963-12.838 4.575-.052 0-.155.156-.311.208-.336.13-1.889.572-1.967.78-.854 6.654.621 13.491 4.167 19.158.207.338 1.786 2.729 1.941 2.755s.311-.052.466-.104c1.424-.494 3.158-1.872 4.607-2.262.207-.052.336.078.336.078s-.052-.208.078-.234c6.756-3.795 15.452-6.758 22.518-11.203v.026z" fill="#055fff"/><path d="M108.45 11.957c-.207-1.43-.621-3.509-1.475-5.901-1.062-2.989-1.605-4.471-2.925-5.251-1.657-.988-3.65-.442-7.584.624-2.019.546-3.65 1.17-4.737 1.638-.207 0-.544 0-.854.13-.285.104-.543.286-.802.338-.311.026-.621.104-.932.208h-.104c-3.753 1.17-8.283 3.067-11.984 3.821a10.26 10.26 0 0 1-.88.13c-.569.208-1.579.598-2.821 1.014-6.963 2.443-14.857 4.523-25.158 7.642-3.443 1.04-5.358 1.638-6.652 3.561-2.019 2.937-1.165 6.836-.751 8.526 4.193 17.702 18.015 55.965 19.697 61.735.828 2.885 2.019 5.667 2.64 8.604.052.286.362 1.689 1.113 3.379.776 1.768 1.32 2.963 2.511 3.639 1.242.728 2.563.468 4.633.104.751-.13 1.165-.26 4.659-1.43l2.847-.961c36.03-12.399 42.501-13.439 42.501-13.439 3.08-.494 7.48-1.066 8.903-4.081.725-1.508.182-3.535-.931-7.59-1.398-5.147-2.951-7.512-4.116-13.491-.129-.624-.155-1.066-.259-1.378l-15.374-48.895c-.156-.364-.285-.728-.44-1.066 0-.026.103-.338 0-.676-.156-.364-.389-.728-.699-.962l-.026.026z" fill="#ffaf05"/><path d="M61.628 56.537c-1.657-2.963-2.148-7.278.88-9.566 1.708-1.274 6.937-2.781 9.188-3.379 3.287-.832 6.108.364 7.584 3.535.155.364 1.061 3.093 1.009 3.249-.052.13-.181.208-.311.286l-18.325 5.849-.026.026zm-.078-25.318c6.108-5.017 12.346 4.133 6.937 8.266-5.591 4.263-11.88-4.211-6.937-8.266z" fill="#055fff"/><path d="M114.558 70.625s.492.962.44 1.066L79.15 82.947c-.492-.494-.621-1.066.181-1.222l35.227-11.099zm-4.71-15.258c.181.052.285.858.44 1.066L74.362 67.688c-.181-.078-.518-.988-.362-1.092l35.848-11.229zm2.277 7.694c.233.078.751 1.144.13 1.222L76.536 75.2c-.311-.832-.285-.806.518-1.144l35.098-11.021-.026.026zm-7.557-31.296c.311.65.751 1.196-.155 1.404l-18.196 5.667c-.285 0-.595-.988-.466-1.092l18.817-5.953v-.026zm-1.347 8.915l.389 1.118-15.297 4.523c-.311-.832-.285-.806.492-1.144l14.417-4.497zM70.04 67.844c.155.052.518.988.362 1.118-.544.078-3.52 1.3-3.701 1.248-.13-.026-.259-.91-.44-1.092l3.779-1.3v.026zm2.432 7.564s.492 1.014.362 1.144c-.414.182-3.65 1.326-3.753 1.196s-.414-.988-.311-1.066c.57 0 3.52-1.326 3.701-1.274zm2.278 7.694l.595.988c-.052.208-3.701 1.404-3.857 1.222-.233-.234-.259-.702-.388-.988.543-.026 3.442-1.274 3.65-1.222z" fill="#000"/><path d="M50.602 24.98c-2.64.208-7.48 2.885-9.991 4.133-.854.416-1.683 1.04-2.64 1.43-.776.312-1.579.624-2.2.442-.828 1.82-1.061 3.353-1.372 5.147-.595 3.613-.958 5.745 0 7.954.414.936.983 1.716 1.631 2.339 2.821-1.768 5.384-3.795 7.429-6.212 2.174-2.547 3.727-5.849 6.341-8.006 1.346-1.118 5.28-3.353 5.772-4.861.828-2.573-3.442-2.469-4.97-2.365z" fill="#055fff"/><path d="M145.515 78.658c-.337-.468-1.087-1.066-1.346-1.508-1.242-2.028-1.217-5.641-4.737-5.407-2.381.156-5.539 1.69-7.998 1.95-1.63-.104-2.381-1.118-2.355-2.703.104-4.783.932-9.618 1.139-14.427-.129-2.703-3.494-3.613-4.866-1.248-1.631 8.968-4.245 18.014-3.468 27.216l-13.071 47.387-.156.988c7.403 1.508 15.194 1.56 22.57-.078l4.323-27.761.155-.962c.078.026.181.078.285.104 5.332 1.716 9.318-1.352 9.991-6.707.44-3.561.854-7.876 1.035-11.463.104-2.106-.233-3.691-1.475-5.381h-.026z" fill="#fff"/><path d="M121.987 68.702c.647-3.977 1.32-8.37 2.2-12.269.57-2.469 2.278-4.263 4.944-3.093 1.864.806 2.045 2.521 1.967 4.315-.181 4.263-.906 8.682-1.035 12.945-.026 1.248.129 2.261 1.656 2.105 2.873-.286 7.066-2.677 9.81-1.456 2.459 1.092 2.329 3.379 3.468 5.329.44.78 1.243 1.352 1.735 2.157.931 1.482 1.32 3.171 1.242 4.939-.155 3.587-.621 7.85-1.035 11.463-.156 1.326-.285 2.417-.803 3.639-1.605 3.639-5.875 5.666-9.68 4.419l-3.52 23.264c1.346.182 2.666.494 3.96.884 2.148.676 6.937 2.599 3.675 5.225-3.805 3.067-15.297 3.561-20.137 3.405-3.779-.13-12.424-1.04-15.271-3.561-2.718-2.418 1.424-4.315 3.417-4.939l9.085-32.882c1.113-4.055 2.407-8.11 3.416-12.217-.414-4.705.156-9.072.932-13.673h-.026zm9.318 62.099l4.323-27.761-.233-.208c-6.057-2.73-14.107-3.171-13.667-11.827.052-.962.311-1.845.233-2.859-.051-.598-.491-1.924-.336-2.391.077-.26.569-.26.725-.078.103.13.465 2.288.491 2.599.078 1.144-.336 2.495-.336 3.639 0 3.067 1.941 5.615 4.607 6.836 2.537 1.17 6.238 2.547 8.904 3.431 5.332 1.716 9.318-1.352 9.991-6.707.44-3.561.854-7.876 1.035-11.463.104-2.106-.233-3.691-1.475-5.381-.337-.468-1.087-1.066-1.346-1.508-1.243-2.028-1.217-5.641-4.737-5.407-2.381.156-5.539 1.69-7.998 1.95-1.63-.104-2.381-1.118-2.355-2.703.103-4.783.932-9.618 1.139-14.427-.13-2.703-3.494-3.613-4.866-1.248-1.631 8.968-4.245 18.014-3.469 27.216l-13.071 47.386-.155.988c7.403 1.508 15.194 1.56 22.57-.078h.026zm5.72-57.186l-6.497 3.171c-.957.494-3.261 1.508-3.96 2.079-.414.338-.414.728-.362 1.248.026.39.569 2.261.751 2.573.258.416 1.268.832 1.527.442.129-.182-.544-3.613-.57-4.159-.052-.676.596-.702.88-.208l.492 3.873a.26.26 0 0 0 .155.26l9.189-2.443c.647-.104.75.65.181.884l-9.266 2.495c.052 1.768.518 3.587.647 5.381l9.991-1.378c.776-.182.906.702.207.884l-9.965 1.3.673 5.095 9.603.104c.258.572.155.702-.415.754l-9.059.104.363 3.093 7.713 2.261a.44.44 0 0 1-.155.832l-8.671-2.522c-1.113-.208-1.631-2.599-1.527-3.483 0-.182.207-.442.207-.468 0-.078-.285-.182-.389-.286-.362-.442-1.371-3.249-1.423-3.847-.104-.884.543-1.56.543-1.716 0-.078-.388-.364-.491-.52-.337-.546-1.243-3.223-1.295-3.873-.077-.832.673-1.664.648-1.794 0-.052-.596-.702-.725-.988-.285-.65-.828-2.703-.725-3.379s.544-1.118 1.061-1.456c3.158-1.378 6.368-3.587 9.551-4.835.673-.26 1.217-.546 1.113.494v.026zm-8.308 10.45c-.906.234-1.838.364-1.709 1.534.052.442.829 2.833 1.036 3.197.336.572.724.598 1.346.52l-.673-5.277v.026zm.776 6.187c-.932-.052-1.346.494-1.242 1.43.051.364.802 2.729.983 3.015.233.364.492.546.932.494l-.699-4.913.026-.026zm.802 5.849s-.362.078-.414.156c-.258.26.207 1.898.363 2.261.077.182.155.39.388.338 0-.364-.233-2.677-.337-2.755z" fill="#000"/></g><defs><clipPath id="A"><path fill="#fff" d="M0 0h148v136H0z"/></clipPath></defs></svg>