<svg xmlns="http://www.w3.org/2000/svg" width="150" height="152" fill="none"><g clip-path="url(#A)"><path d="M13.495 140.762l1.765 2.277c.09.12.21.15.15.36-.449 0-.658.719-1.077.569-.15-.03-1.765-2.037-2.005-2.337l-1.287-1.678 1.077-.81c.359.6.987 1.109 1.406 1.619h-.03zm-3.381 2.487c-.239-.299-1.287-1.498-1.317-1.708 0-.24.898-.899 1.137-.749.06.03.658.959.838 1.169s.419.329.509.449c.06.09.15.42.329.629.329.45 1.466 1.469 1.227 2.008-.06.15-.598.57-.748.57s-1.735-2.008-1.975-2.308v-.06zm85.637-38.03c-.18 0-.359.15-.449.15.06-.389-.808-.479-1.107-.599-13.106-4.436-27.558-7.852-41.352-9.41-1.406-.15-3.202-.09-4.518-.33-.718-.12-.299-.839-.389-1.439 16.338 1.319 32.376 5.125 47.846 10.31.569.299 0 .839-.06 1.288l.03.03zM67.294 70.845l-1.137-.659 1.436-23.345c.269-2.218 2.513-3.716 4.638-2.907 7.421 3.177 15.051 5.904 22.472 9.051 2.394 1.019 4.339 1.379 4.249 4.555l-1.167 17.262 12.328-9.77c.15-.21.658-.18.718-.24.599.629 5.536 2.098 5.715 2.368.21.3-.449.929-.568 1.169l-5.326-2.038L97.725 76.54l-.21 3.207 6.134 2.368c-.18-.48.449-.809.449-1.109 0-.45-1.347-1.738-.599-2.817.419-.599 5.715-2.218 5.715-2.637-1.316-.839-1.945-3.656-.119-4.225 1.047-.33 3.141.809 4.219 1.229 1.735.659 3.471 1.289 5.146 2.128l14.722 8.451c.209-.09 0-.3-.03-.42-1.047-3.746-3.68-7.882-4.518-11.478-.24-1.019.209-1.379 1.077-.809l2.364 6.234c2.184-.809 4.339-1.289 6.672-1.169 1.706.09 5.117.779 6.673 1.469.329.15.688.33.838.689 1.017 6.983 8.259 18.401-.748 22.806-1.227.6-1.406.66-2.543 1.409-1.586 1.049-2.933.779-4.668.899l-9.306.599c.329-.27 1.017-.989 1.316-1.318l10.862-.81c-.508-.089-.987-.149-1.466-.299-1.915-.54-4.458-2.458-6.164-3.596L115.649 85.23l-2.783.659c2.064.989 7.151 1.678 5.446 5.095-.06.15.059.24-.24.18l-49.94-20.169c-.329 0-.598-.15-.898-.21l.06.06zm15.53-8.391a1.77 1.77 0 0 0-1.765-1.768 1.768 1.768 0 0 0 0 3.536 1.75 1.75 0 0 0 1.765-1.768zm30.67 11.478c-.688-.06-3.561-1.588-3.95-1.409-.957.48.24 2.757 1.766 2.367l2.184-.959zm-4.279 10.009c-.06.3.15.33.329.48 1.856 1.289 4.04-.27 5.925-.45.209 0 .389-.06.569.09 7.301 4.615 14.332 10.069 21.663 14.565 5.596 3.447 11.52 0 11.042-6.503l-3.651-13.666c-.18-.3-2.394-.929-2.902-1.049-2.394-.569-5.087-.779-7.511-.18-.539.12-2.094.45-1.825 1.139l2.274 6.143c.12.45-.18.779-.628.779l-16.877-9.53c-1.915-.869-3.111-.779-5.027-.09-2.752.959-5.356 2.457-8.049 3.536.06.36.689 1.409 1.078 1.349 2.693-.989 5.356-2.128 8.079-2.907.927.39.568.929-.15 1.319-2.334 1.169-5.476 1.738-7.84 2.877-.149.09-.329.15-.448.3.568.659 1.346 1.169 2.274 1.109 1.735-.12 4.398-1.828 6.194-2.188.987-.18 1.496.569.688 1.109l-5.177 1.798-.03-.03z" fill="#000"/><path d="M81.058 64.222c.975 0 1.765-.792 1.765-1.768s-.79-1.768-1.765-1.768-1.765.792-1.765 1.768.79 1.768 1.765 1.768z" fill="#fff"/><path d="M118.462 58.828c.688.09 1.226.15 1.915 0v2.997c0 .15.329 1.259.418 1.498 1.826 4.765 8.498.929 11.221-1.019.988-.719 1.856-1.498 2.753-2.308 2.544-.629 5.266.689 6.583 2.907.539.899.628 1.798 1.047 2.697.21 1.708.898 3.297 1.167 5.005.27 0 .15-.54.15-.719l1.765 7.193c-1.556-.689-4.967-1.379-6.672-1.469-2.334-.12-4.519.36-6.673 1.169l-2.364-6.234c-.868-.599-1.316-.24-1.077.809.838 3.596 3.471 7.732 4.518 11.478.03.12.24.33.03.42l-14.722-8.451c-1.645-.839-3.411-1.468-5.146-2.128l2.633-4.255c.12-.24.808-.869.568-1.169-.179-.27-5.116-1.708-5.715-2.368 2.633-1.858 5.057-4.076 7.63-6.024l-.029-.03z" fill="#055fff"/><path d="M115.978 68.358l-2.633 4.256c-1.077-.42-3.202-1.558-4.219-1.229-1.825.569-1.197 3.386.119 4.225 0 .42-5.296 2.038-5.715 2.637-.748 1.049.599 2.367.599 2.817 0 .27-.629.629-.449 1.109l-6.134-2.368.209-3.207 12.927-10.249 5.326 2.038-.03-.03zm-6.763 15.584l5.177-1.798c.838-.539.299-1.319-.688-1.109-1.796.36-4.459 2.038-6.194 2.188-.928.06-1.706-.449-2.274-1.109.119-.15.269-.21.449-.3 2.363-1.139 5.505-1.708 7.839-2.877.748-.36 1.077-.899.15-1.319-2.723.779-5.386 1.918-8.079 2.907-.359.03-1.018-.989-1.077-1.349l8.049-3.536c1.915-.689 3.141-.779 5.027.09l16.876 9.53c.449 0 .748-.33.628-.779l-2.274-6.144c-.269-.689 1.287-.989 1.825-1.139 2.424-.599 5.117-.389 7.511.18.508.12 2.723.749 2.902 1.049l3.651 13.666c.508 6.503-5.446 9.95-11.042 6.503-7.331-4.525-14.362-9.949-21.663-14.565-.18-.12-.359-.09-.569-.09-1.885.18-4.069 1.708-5.924.45-.18-.12-.389-.15-.33-.48l.03.03zm4.28-10.01l-2.185.959c-1.526.39-2.723-1.888-1.765-2.367.389-.18 3.261 1.349 3.95 1.408zm19.329-30.987a3.07 3.07 0 0 0 .599.06c2.722 1.199 2.184 5.544-.659 5.934-.718.09-2.094-.33-2.124.659l2.783 9.8c-1.736 1.648-4.1 3.356-6.344 4.255-4.997 1.978-5.685-.599-5.356-5.155 2.364-.689 4.369-2.487 5.565-4.615.3-.509 1.167-1.858.3-2.128s-1.048.959-1.437 1.588c-4.667 7.282-12.866 4.525-14.392-3.326-.21-1.049-.419-3.027-.18-4.046.03-.18 1.766-1.109 1.317-1.858-.269-.15-.838.36-.988.21-.059-.03-.029-.12-.029-.15.149-2.427.957-3.746.957-3.746.928-1.498 2.184-2.337 2.932-2.757.18.24 1.048 1.349 2.634 1.618a4.26 4.26 0 0 0 2.992-.599c.269.809.957 1.378 1.675 1.768.21.12.719.21.808.3.06.09.359 1.708.479 2.098.389 1.259 1.137 3.536 2.723 3.596 1.406.03 1.646-1.468 2.334-2.337.628-.809 1.556-1.468 2.633-1.468.419 0 .569.24.808.3-.838-.15-2.214.869-2.603 1.558-.449.779-.868 3.536.449 3.386.867-.09.359-1.229.389-1.798.119-1.888 2.004-1.678 2.184-2.398.06-.27-.18-.749-.419-.779l-.03.03zm-15.41.779c-.269.06-.658.27-.538.599.209.689 3.68 1.169 3.949.3.299-1.019-2.812-1.049-3.411-.899zm-2.663 1.169c-.299 0-.598.36-.658.659.119 1.079-.389 2.337-.03 3.356.209.659 1.017 1.528 1.646.749.418-.569-.36-.869-.449-1.349-.12-.659.748-3.536-.479-3.416h-.03zm3.531 1.618c-.778.27-.329 2.517.838 2.158.838-.24.329-2.547-.838-2.158zm-5.147 1.349c-1.167-.989-1.586 1.319-.598 2.008 1.077.719 1.436-1.289.598-2.008zm3.471 4.675c-.359.36-.06 1.019.359 1.109 1.137.3 4.548-2.098 3.92-3.356-.179-.36-.718-.36-1.017-.15-.15.12-.21.48-.389.659-.24.27-.778.839-1.048 1.019-.448.3-1.675.539-1.855.689l.03.03z" fill="#fff"/><g fill="#000"><path d="M132.824 42.945c.239.03.478.51.419.779-.18.719-2.065.51-2.185 2.398-.03.569.479 1.708-.389 1.798-1.316.15-.927-2.607-.448-3.386.418-.689 1.795-1.708 2.603-1.558v-.03zm-16.218 9.59c.179-.18 1.406-.42 1.855-.689.269-.18.808-.749 1.047-1.019.18-.21.24-.569.389-.659.3-.21.808-.21 1.018.15.628 1.259-2.783 3.656-3.92 3.356-.419-.12-.718-.779-.359-1.109l-.03-.03zm-1.855-7.642c1.227-.12.359 2.757.479 3.416.089.45.867.779.448 1.349-.598.809-1.406-.09-1.645-.749-.329-1.019.149-2.278.03-3.356.059-.3.329-.629.658-.659h.03zm2.663-1.169c.598-.15 3.71-.12 3.411.899-.269.869-3.74.39-3.95-.3-.12-.36.24-.539.539-.599zm-4.278 4.136c.837.689.448 2.697-.599 2.008-.987-.659-.568-2.967.599-2.008zm5.146-1.349c1.137-.39 1.676 1.918.838 2.158-1.167.36-1.586-1.888-.838-2.158z"/><path d="M118.462 58.828c-6.164-.719-8.648-7.642-8.199-13.126.06-.929.688-1.588.568-2.787-.269-2.457-2.513-2.937-2.333-4.555 0 0 .239-2.188 5.176-3.926.09 0 .18-.06.18-.06.179-.06.329-.06 1.615-.39 2.693-.689 2.873-.959 4.249-1.259.27-.06 1.766-.09 4.728-.15 2.065-.06 3.082-.06 3.98.51.538.33.927.779 1.406 1.498 1.466 2.308 1.885 5.035 2.005 6.773 5.924.15 6.403 8.511.419 8.961 0 .15 0 .33.03.48.508 2.727 1.975 5.814 2.513 8.511.06.24 0 .45-.03.689-.897.809-1.765 1.618-2.753 2.308-2.693 1.948-9.365 5.784-11.22 1.019-.09-.24-.419-1.349-.419-1.498v-2.997c-.689.15-1.227.09-1.915 0zm14.362-15.883c-.239-.06-.359-.3-.808-.3-1.077 0-2.004.689-2.633 1.468-.688.839-.927 2.367-2.334 2.337-1.017 0-2.393-1.828-2.723-3.596-.149-.719-.149-1.588-.748-1.948-.389-.24-.688-.06-1.107-.33-.628-.42-.419-1.019-.868-1.409-.628-.479-1.346.27-3.171.3-1.137 0-1.167-.27-2.454-.18 0 0-1.317.09-2.214.689-.24.15-.389.33-.449.36-.299.33-.449.659-.509.869-.119.3-.897 2.487-.927 2.967 0 .03 0 .12.03.15.149.12.748-.36.987-.21.449.749-1.287 1.678-1.316 1.858-.24 1.019 0 2.997.179 4.046 1.496 7.852 9.725 10.609 14.393 3.327.389-.629.568-1.828 1.436-1.588.868.27 0 1.618-.299 2.128-1.197 2.128-3.202 3.926-5.566 4.615-.329 4.555.359 7.133 5.356 5.155 2.244-.899 4.578-2.607 6.344-4.255l-2.783-9.8c0-1.019 1.406-.569 2.124-.659 2.873-.39 3.382-4.735.659-5.934-.21-.09-.449 0-.599-.06z"/></g><path d="M12.328 59.098c-.628 1.199-1.077 2.517-1.855 3.656-.389.48.898 1.019 1.107.869.479-1.169 1.197-2.248 1.765-3.356l.718.719-1.406 2.787c-.18.599.569.809 1.107.869.269-.929.898-1.648 1.317-2.487l.718.599s.12.18.06.3c-1.646 2.667-4.997 7.882-3.98 11.058s4.608 1.049 5.955-.689c2.304-2.937 1.077-5.394-.15-8.451.748.899 1.676.51 2.723.599 15.35.989 31.957 1.319 46.858 5.274.269.06.569.21.898.21l49.941 20.169c.269.09.149 0 .239-.18 1.706-3.416-3.381-4.106-5.446-5.095l2.783-.659c6.044 3.926 11.909 8.121 17.893 12.107-.448-.09-.359 0-.508.27-.988 1.588-1.347 2.907-2.693 4.406-.299.329-.988 1.048-1.317 1.318-6.762 5.904-18.103 4.435-26.272 3.027-2.543-.42-4.368-1.379-7.001-1.289.06-.449.598-.989.06-1.288-15.47-5.185-31.508-8.991-47.846-10.309.09.599-.329 1.289.389 1.439 1.317.24 3.112.18 4.518.33 13.794 1.558 28.247 4.944 41.353 9.41.299.09 1.167.18 1.107.599-10.473.54-20.916 2.098-31.059 4.735L39.198 151.94.06 150.831v-.15l10.114-7.492c.239.3 1.825 2.308 1.975 2.308s.688-.42.748-.57c.239-.509-.898-1.558-1.227-2.007-.15-.21-.239-.54-.329-.63l1.017-.719c.239.3 1.855 2.308 2.005 2.338.419.119.628-.57 1.077-.57.06-.21-.06-.24-.15-.36-.479-.719-1.227-1.618-1.765-2.277l.718-.45c2.783 1.529 10.952 6.114 12.508 1.139.957-3.087-2.005-5.274-4.788-5.424-1.795-.09-3.022.659-4.638 1.169l.718-1.319c5.356-9.02 9.156-18.341 15.111-27.301.239-.36.599-.749.868-1.169 3.052-4.555 6.224-8.991 9.515-13.366-8.528-.36-17.085-.18-25.583.599-3.8.33-7.57.869-11.37 1.319-.868-2.937-.748-8.721-.898-12.107L4.518 50.677l7.78 8.361.03.06zm113.195 35.273s-.688 3.087-.927 3.566c-.06.15-.12.3-.299.24-13.136-5.694-26.811-10.519-40.695-14.175-17.385-4.585-35.428-7.672-53.471-6.923l-4.638.15v1.319c7.6-.45 15.2-.39 22.801.3 8.827.779 17.684 2.368 26.332 4.315 17.325 3.926 34.261 9.74 50.508 16.812.27 0 .3-.18.359-.36.18-.419 1.197-4.375 1.167-4.705s-.837-.569-1.167-.51l.03-.03z" fill="#055fff"/><path d="M18.043 135.907l-.718 1.319c1.616-.54 2.843-1.259 4.638-1.169 2.813.12 5.775 2.337 4.788 5.424-1.556 4.975-9.725.39-12.507-1.139-.419-.389-.15-.689-.15-1.169l-.449.15c-.748-2.607-1.257-5.274 1.526-6.773s3.92.9 2.872 3.387v-.03zm-1.047-2.487c-2.723.209-3.112 2.637-2.184 4.824l1.376-1.917c.479-.87 1.047-1.859.808-2.907zm3.651 3.985c-.868.12-3.8 1.529-4.518 2.098-.209.15-.15.12 0 .3.359.389 2.903 1.528 3.531 1.768 1.706.629 5.416 1.858 5.955-.809s-2.902-3.656-4.967-3.357zm104.876-43.034c.33-.06 1.167.15 1.167.51s-.987 4.316-1.167 4.705c-.089.18-.119.36-.359.36-16.247-7.073-33.213-12.886-50.508-16.812-8.647-1.978-17.475-3.536-26.331-4.315-7.6-.689-15.2-.749-22.801-.3V77.2l4.638-.15c18.043-.719 36.086 2.337 53.471 6.923 13.854 3.656 27.529 8.481 40.695 14.175.179.06.239-.09.299-.24.239-.479.778-3.446.927-3.566l-.03.03zM15.829 62.784c.628-.989 2.005-2.877 3.112-3.267 1.616-.599 5.117.15 4.817 2.308s-4.638 2.457-6.313 2.577c-.06.27.209.39.299.599 1.197 3.057 2.454 5.484.15 8.451-1.376 1.768-4.937 3.866-5.954.689s2.334-8.391 3.98-11.058c.06-.12-.06-.27-.06-.3h-.03zm6.583-1.469c-.18-.24-1.676-.689-2.005-.719-1.436-.09-2.424 1.289-2.962 2.457 1.257-.24 2.573-.21 3.8-.659.269-.09 1.466-.659 1.167-1.079zm-6.134 3.656c-.359.33-.658.929-.898 1.379-.957 1.768-2.693 5.185-2.274 7.192.359 1.858 2.484.45 3.262-.33 2.753-2.697 1.137-5.245-.09-8.241zm-3.95-5.873c.569-1.079.658-.36 1.616-.15.03.06-.509 1.139-.598 1.319l-1.766 3.356c-.209.15-1.466-.39-1.107-.869.778-1.139 1.227-2.457 1.855-3.656zm1.735 1.918l.748-1.468c.239-.18.987.45 1.317.42l-1.017 2.188c-.419.839-1.077 1.558-1.317 2.487-.539-.06-1.287-.27-1.107-.869.179-.539 1.077-2.158 1.406-2.787l-.03.03z" fill="#000"/><path d="M20.646 137.405c2.065-.299 5.476.72 4.967 3.357s-4.249 1.438-5.954.809c-.628-.24-3.172-1.349-3.531-1.768-.15-.18-.18-.12 0-.3.688-.569 3.65-1.978 4.518-2.098zm-4.368-72.433c1.197 2.967 2.843 5.514.09 8.241-.808.779-2.902 2.158-3.261.33-.419-2.008 1.317-5.424 2.274-7.192.239-.45.539-1.019.898-1.379z" fill="#055fff"/><g fill="#000"><path d="M57.331 18.131l.15 1.319-12.388.599-38.42 2.188c-1.167.09-2.573-.3-3.172 1.079-.389.839-.12 1.349-.12 2.098.09 8.451.838 16.902 1.167 25.323l1.167 33.115c.15 3.387 0 9.17.898 12.107.419 1.438.15 6.263.299 8.151s.419 3.567 2.364 4.256c1.317.449 2.304.12 3.591.09l21.185-1.019c-.299.419-.628.809-.868 1.169-.269.09-.509.15-.808.15l-12.478.569c-2.962.15-6.493.689-9.366.599-5.476-.15-4.698-5.933-4.907-9.62L2.543 33.205c-.09-2.428-.389-4.885-.449-7.342-.06-2.128.03-4.136 2.424-4.765l52.843-2.937-.03-.03zm86.356 51.696c0 .18.119.749-.15.719-.269-1.708-.957-3.297-1.167-5.005-.299-2.188-.179-4.495-.299-6.683l-1.466-30.088c-.18-3.806-.06-8.001-.449-11.748-.24-2.457-2.095-2.038-4.04-1.978-10.981.3-22.022 1.528-32.974 1.918l-12.388.599c-.06-.36-.21-.809-.299-1.169l46.11-2.487c1.197-.06 2.065-.45 3.262.27 1.556.929 1.526 2.757 1.645 4.345.868 12.557 1.078 25.174 1.616 37.76.18 4.435.718 9.17.599 13.576v-.03z"/><use href="#B"/><path d="M18.103 28.74c.843 0 1.526-.684 1.526-1.528s-.683-1.528-1.526-1.528-1.526.684-1.526 1.528.683 1.528 1.526 1.528zm-4.309.18c.843 0 1.526-.684 1.526-1.528s-.683-1.528-1.526-1.528-1.526.684-1.526 1.528.683 1.528 1.526 1.528zm111.401-9.59l.149 1.169c.15.15.838-.24.958 0l.06 1.169c-1.287-.12-1.048 0-1.018 1.169-.239-.03-1.077.06-1.167 0-.03-.03-.089-.929-.179-1.019-.12-.09-.928.06-1.018 0-.059-.06-.059-1.289 0-1.319.06-.06.958.06 1.018 0s-.12-.809.06-1.049c.119-.18 1.047-.18 1.107-.12h.03zm8.078 3.206l-1.466.15-.15-1.468c.389 0 1.137-.33 1.466-.09.18.15.18 1.349.15 1.409zm-2.333-3.506c.12 1.468 0 1.588-1.466 1.468V19.03h1.466zm2.183-.15v1.468h-1.466c-.149-1.468 0-1.558 1.466-1.468zm-2.183 2.338v1.468c-.24-.03-1.287.06-1.317 0-.06-.06-.12-1.259-.09-1.319.21-.27 1.048-.09 1.407-.15zm-83.603 4.315c1.676-.18 3.441.539 4.488 1.888.987 1.229 5.027 8.241 5.476 9.65.718 2.248 0 4.405-1.885 5.814-1.646 1.259-7.032 4.345-8.917 5.155-2.424 1.019-4.788.3-6.284-1.798-1.077-1.498-4.997-8.211-5.386-9.74-.449-1.828.09-3.806 1.556-5.065 1.137-.959 8.498-5.245 9.874-5.664.299-.09.748-.21 1.077-.24zm4.578 4.495c-1.257-2.967-3.291-4.076-6.314-2.577-2.274 1.139-5.835 3.117-7.9 4.555-1.945 1.349-2.244 3.207-1.197 5.304.958 1.918 2.394 3.776 3.262 5.784 1.346-1.618 3.232-2.787 5.416-2.188 1.496-4.046 1.047-10.579 6.733-10.879zm.838 1.349c-3.142-.33-4.099 1.289-4.877 3.956-.688 2.307-1.107 4.735-1.855 7.042-1.765-.48-3.561-.569-4.818.989-.179.21-.598.839-.539 1.079 0 .15.748 1.438.898 1.588.958 1.139 2.902 1.498 4.279.929 2.693-1.738 5.984-3.117 8.588-4.885 4.459-3.057-.269-7.342-1.676-10.669v-.03zm4.458 20.229c2.483.779 3.8 4.255 2.244 6.473-.209.3-.957 1.199-1.316.899-1.047-.989.209-1.199.569-2.188.449-1.259-.359-3.476-1.616-3.956-.269-.09-.209.12-.269.27-.688 1.618-1.167 3.356-2.723 4.465-1.167.809-3.112 1.019-3.651-.599-.898-2.727 2.932-5.994 5.566-5.634v-2.547c-.06-.659-.958-3.446-.838-3.596.03-.06.808-.27.957-.45 1.167 2.038 1.197 4.585 1.107 6.863h-.03zm-1.496.899c-1.795.09-4.369 1.918-4.099 3.896.06.51.15.51.658.51 1.706 0 3.112-2.967 3.441-4.405zM41.742 32.126c2.244-.33 3.92 2.158 2.603 4.076-1.736 2.547-5.536.749-4.758-2.098.269-.989 1.137-1.798 2.154-1.948v-.03zm1.825 2.637a1.44 1.44 0 0 0-1.436-1.438 1.42 1.42 0 0 0-1.436 1.438 1.436 1.436 0 1 0 2.872 0z"/></g><path d="M90.754 17.562c-.06-.36-1.975-13.696-2.065-14.055-.299-1.199-.389-1.918-1.855-2.188L57.242 0c-3.112.509-1.975 3.117-1.676 5.244l1.915 14.205c.479 3.386.868 7.822 1.646 11.058.568 2.278 1.855 1.888 3.71 2.008l13.764.749c1.107.06 2.394-.27 3.321.509l9.605 9.32-2.573-10.129h4.339c.748 0 1.915-1.468 1.706-2.278-.838-4.345-1.346-8.811-2.214-13.156l-.03.03z" fill="#ffaf05"/><use href="#C" fill="#969696"/><path d="M81.748 9.86c1.406 0 2.543-1.139 2.543-2.577s-1.137-2.577-2.543-2.577-2.543 1.139-2.543 2.577 1.137 2.577 2.543 2.577z" fill="#092f9c"/><path d="M73.579 19.54c1.406 0 2.543-1.139 2.543-2.577s-1.137-2.577-2.543-2.577-2.543 1.139-2.543 2.577 1.137 2.577 2.543 2.577z" fill="#23bba4"/><path d="M83.184 19.54c1.406 0 2.543-1.139 2.543-2.577s-1.137-2.577-2.543-2.577-2.543 1.139-2.543 2.577 1.137 2.577 2.543 2.577z" fill="#087c0a"/><path d="M65.739 29.249c1.406 0 2.543-1.139 2.543-2.577s-1.137-2.577-2.543-2.577-2.543 1.139-2.543 2.577 1.137 2.577 2.543 2.577z" fill="#b42c0e"/><path d="M75.374 29.249c1.406 0 2.543-1.139 2.543-2.577s-1.137-2.577-2.543-2.577-2.543 1.139-2.543 2.577 1.137 2.577 2.543 2.577z" fill="#997df7"/><path d="M63.944 19.54c1.406 0 2.543-1.139 2.543-2.577s-1.137-2.577-2.543-2.577-2.543 1.139-2.543 2.577 1.137 2.577 2.543 2.577z" fill="#3398da"/><path d="M85.009 29.249c1.406 0 2.543-1.139 2.543-2.577s-1.137-2.577-2.543-2.577-2.543 1.139-2.543 2.577 1.137 2.577 2.543 2.577z" fill="#f9ce3f"/><path d="M85.009 30.118c-1.885 0-3.411-1.558-3.411-3.446s1.526-3.446 3.411-3.446 3.411 1.558 3.411 3.446-1.526 3.446-3.411 3.446zm0-6.443c-1.646 0-2.962 1.348-2.962 2.997s1.317 2.997 2.962 2.997 2.962-1.349 2.962-2.997-1.317-2.997-2.962-2.997z" fill="#000"/><path d="M62.507 9.86c1.406 0 2.543-1.139 2.543-2.577s-1.137-2.577-2.543-2.577-2.543 1.139-2.543 2.577 1.137 2.577 2.543 2.577z" fill="#fff"/><path d="M62.507 9.86c-1.406 0-2.543-1.169-2.543-2.577s1.137-2.577 2.543-2.577 2.543 1.169 2.543 2.577-1.137 2.577-2.543 2.577zm0-4.915a2.34 2.34 0 0 0-2.334 2.338 2.34 2.34 0 0 0 2.334 2.338 2.34 2.34 0 0 0 2.334-2.338 2.34 2.34 0 0 0-2.334-2.338z" fill="#9fb9dc"/><path d="M61.819 8.571l1.107-2.577h.299l-1.107 2.577h-.299z" fill="#000"/></g><defs><path id="B" d="M9.485 29.129c.843 0 1.526-.684 1.526-1.528s-.683-1.528-1.526-1.528-1.526.684-1.526 1.528.683 1.528 1.526 1.528z"/><path id="C" d="M72.142 9.86c1.406 0 2.543-1.139 2.543-2.577s-1.137-2.577-2.543-2.577-2.543 1.139-2.543 2.577 1.137 2.577 2.543 2.577z"/><clipPath id="A"><path fill="#fff" d="M0 0h150v152H0z"/></clipPath></defs></svg>