<svg xmlns="http://www.w3.org/2000/svg" width="204" height="135" fill="none"><g clip-path="url(#A)"><path d="M102.387 127.554h4.635l13.272-49.218c1.159-2.971 4.143-5.138 7.479-4.684l45.224 7.411c2.739.664 3.546 2.237 3.195 4.964l-12.886 47.889h-91.01l-7.584-.174v-1.014c0-3.286 2.317-4.929 5.407-5.139 4.986-.349 10.85 0 15.906 0h1.545 3.968c1.58 0 5.618.42 6.882 0h3.968v-.035zm43.679-26.531c-3.722.629-6.144 8.319-3.055 10.836 2.318 1.888 5.127-.664 6.145-2.796 1.44-2.902 1.44-8.844-3.09-8.04z" fill="#000"/><path d="M146.066 101.023c4.53-.769 4.53 5.138 3.09 8.04-1.018 2.097-3.827 4.684-6.145 2.796-3.089-2.517-.667-10.207 3.055-10.836zM65.659 51.84c1.053-.14 2.598-.21 4.635.35.878-.385 3.862-1.608 7.374-.559 1.896.559 3.195 1.573 3.933 2.237 1.51.804 2.669 1.643 4.494 1.643.386.559.386 3.635.316 4.439-.07.874-.772 2.831-.702 3.426.07.489.632.489.948.769.632.559.843 1.538.597 2.307-.632 1.957-2.739 1.433-3.02 1.783-.211.28-.983 3.845-1.229 4.579-4.74 14.612-24.964 10.207-23.806-4.335.175-2.097 1.159-4.09 1.545-6.117-.562-.14-1.826-.489-2.914-1.608-.176-.175-.808-.874-1.229-1.992-.246-.629-1.053-2.797.176-4.859.878-1.433 2.563-2.517 4.108-2.412.702.07.808.315 1.896.489 1.264.175 2.142 0 2.879-.14zm-5.372 2.761c-.14.839.492 1.433.492 2.307 0 .559-.808 2.167.07 2.132 1.018 0 1.053-2.307.948-3.006-.105-.629-.772-2.027-1.51-1.433zm20.4 2.412c-.597.105-1.72.419-1.264 1.154s4.178.559 4.389-.454c.176-.839-2.633-.804-3.125-.699zm2.388 3.775c-1.159-1.223-2.879 1.258-1.615 2.027s2.388-1.188 1.615-2.027zM71.98 68.653c-.527.839.737 2.971 1.545 3.461.421.28 1.826.734 2.142.28.667-.909-.913-.874-1.334-1.084-1.229-.594-1.089-2.272-1.58-2.727-.211-.175-.667-.105-.773.035v.035z" fill="#fff"/><g fill="#000"><path d="M48.209 75.994l1.65-1.608c1.124-.979 2.212-1.713 3.16-2.307l3.862-6.642 1.685.594 1.053-3.566c-.527-.21-2.107-.874-3.16-2.552-.386-.629-1.299-2.377-.772-4.404.175-.699.491-1.224.702-1.573l-.983-1.084c-.281-.839-.667-2.167-.562-3.845 0-.28.316-4.579 3.511-7.096 1.44-1.119 2.037-.804 7.374-2.062 6.39-1.468 6.671-2.202 9.129-1.992 3.406.28 2.949 1.643 7.093 2.202 2.598.349 4.073 0 8.743.524 2.563.315 3.441.594 3.652 1.154.386 1.154-2.317 1.923-3.3 4.859-.772 2.272.351 3.251-.737 5.034-1.018 1.643-2.142 1.153-2.914 2.657s.07 2.482-.176 5.733c-.07 1.224-.281 2.202-.421 2.832 1.229.769 1.861 2.202 1.615 3.53-.281 1.573-1.72 2.796-3.441 2.866-.07 1.328-.351 3.146-1.194 5.104-.211.489-.878 1.923-2.142 3.496-.808.979-1.51 1.643-1.65 1.783-1.615 1.433-3.652 2.342-5.688 3.006-.562-.07-1.299 0-1.685.454l-6.917 11.116-.702-.21-2.388-5.698-3.406 28.699c-.105.839-.07 2.062-.211 2.796-.176.874-1.334 1.084-1.194-.175 0 0 .14-.174.175-.419.913-10.207 2.528-20.379 3.617-30.587l-3.546 5.453c-.211.245-.562.489-.843.21-3.02-6.117-6.215-12.13-9.024-18.352l.035.07zm14.747-23.246s-.211-.035-.456-.14c-.281-.105-.386-.21-.632-.21-4.073-.489-6.706 3.985-4.354 7.236.843 1.188 2.317 1.678 3.23 2.796-.351 2.062-1.369 4.02-1.545 6.117C58.04 83.09 78.23 87.495 83.005 72.883c.246-.734 1.018-4.3 1.229-4.579.281-.385 2.423.175 3.02-1.783.246-.769 0-1.748-.597-2.307-.351-.28-.878-.28-.948-.769-.07-.559.632-2.517.702-3.426.07-.804.07-3.88-.316-4.439-.913.175-2.212.28-3.582-.21-1.861-.699-2.282-1.992-3.757-2.692-1.124-.524-2.879-.769-5.829.594-6.109 3.006-8.251 3.181-8.813 2.447-.456-.594-.527-2.727-1.159-2.936v-.035zm-4.635 14.367s-.913-.664-1.159-.524c-.281.175-2.633 5.034-3.16 5.698v.629l7.97 9.683c.702.454 2.809-.594 3.616-.769-.808-.769-1.826-1.188-2.668-1.888-2.528-2.097-4.459-5.523-4.74-8.809-.07-.699.246-3.81.14-3.985v-.035zm-5.302 5.943c-.246-.07-.281.07-.421.175-.351.245-1.264 1.119-1.65 1.468-.281.28-1.545 1.433-1.51 1.678l8.076 16.394.421-.175 3.968-6.677c.211-.35.737-.524 1.018-.175l2.739 6.677 5.758-9.578c-1.369.385-3.371-.629-4.529-.524-1.088.14-3.09 1.468-4.284 1.783-.281.07-.456.105-.702-.035l-8.918-10.976.035-.035z"/><path d="M93.96 108.713l4.214 1.888 6.706 10.452c.21.419-.141.699-.457.943-1.193 1.049-2.703 1.224-4.143.595-.456-.21-1.018-.769-1.545-.839-.246.244 1.686 3.985 1.686 4.684 0 .524-1.51.979-2.002 1.118-1.264.42-5.302 0-6.882 0-.597-.524-1.264-1.013-1.65-1.712-.737.664-1.966.769-2.317 1.712h-1.545l.527-.699c-.386 0-.667-.244-.948-.524-1.44-1.363-2.668-3.636-4.003-5.139-1.159-.769-1.65 2.063-2.528 2.063-1.369 0 .737-2.657 1.124-3.006 0-.21-1.826-1.154-1.966-1.469-.246-.489-.07-.908.492-.873.246 0 3.09 2.062 3.441 2.411 1.615 1.434 2.774 3.881 4.389 5.384.702.594 1.334-.105 2.072-.245-.772-2.307-1.159-4.789-2.423-6.886s-3.581-3.636-5.477-5.209c-.316-1.817 1.404-.314 2.072.21 3.792 2.971 4.073 4.09 5.934 8.319.843 1.923 3.406 6.642 5.899 4.37-1.194-2.831-1.966-6.222-3.371-8.949s-3.862-4.614-5.829-6.886c-.351-.734.246-1.119.878-.699 1.721 2.132 3.933 3.775 5.372 6.117 1.931 3.146 2.704 7.306 4.248 10.662.421.419 2.423-.035 2.984-.315.176-.07.281 0 .211-.315l-4.389-11.22c-.281-.63-.597-1.224-.983-1.783-.808-1.154-5.056-4.754-6.355-5.488-.737-.42-1.194-.594-2.107-.42s-1.475 1.329-2.142 1.468c-.878.21-1.299-.489-2.528.385-.351.245-.843.979-1.124 1.119-.702.279-2.001.034-2.668.769-3.265 4.124-6.636 8.179-9.691 12.444-.351.489-.808 1.992-1.51 1.433s.843-2.167 1.124-2.761l-19.452-2.412-1.545 13.178h18.925v1.014l7.584.175h-7.725-19.628l-.351-.35 1.721-14.402c-.07-.524.176-.734.702-.699l10.85 1.188c-.105 1.259 1.053 1.049 1.194.175l8.497 1.014c2.985-3.705 5.723-7.62 8.989-11.116.632-.664 1.826-.489 2.493-.769.562-.245.878-1.154 1.966-1.468.737-.21 1.791 0 2.001-.07.141-.07.457-.489.702-.664 1.194-.804 2.107-1.189 3.546-.664l6.741 2.621v.14zm-3.09.315c1.299.769 2.844 1.992 3.757 3.216 2.317 3.146 1.826 7.585 6.11 9.333.877.349 3.3.489 2.738-.839l-6.074-9.368c-1.861-.734-3.932-1.818-5.829-2.412-.175-.035-.702-.245-.702.07z"/></g><path d="M100.35 122.591l.316 1.153 1.756 3.81h-3.968c.492-.174 2.001-.629 2.001-1.118 0-.699-1.896-4.44-1.685-4.684.527.07 1.088.664 1.545.839h.035z" fill="#055fff"/><path d="M64.711 132.693H45.786l1.545-13.178 19.452 2.412c-.281.594-1.826 2.202-1.124 2.761s1.159-.944 1.51-1.433c3.055-4.3 6.425-8.32 9.691-12.444.667-.735 1.966-.49 2.668-.77.281-.104.773-.873 1.124-1.118 1.264-.874 1.65-.175 2.528-.385.667-.139 1.264-1.293 2.142-1.468s1.369 0 2.107.42c1.299.734 5.548 4.334 6.355 5.488.386.559.702 1.153.983 1.783l4.389 11.22c.035.28-.07.21-.211.315-.527.245-2.563.699-2.984.315-1.545-3.356-2.317-7.551-4.248-10.662-1.44-2.342-3.652-4.02-5.372-6.117-.632-.42-1.194 0-.878.699 1.966 2.272 4.459 4.16 5.829 6.886s2.177 6.117 3.371 8.949c-2.493 2.307-5.056-2.412-5.899-4.37-1.861-4.229-2.142-5.313-5.934-8.319-.667-.524-2.388-2.028-2.072-.21 1.896 1.573 4.213 3.076 5.477 5.209s1.685 4.579 2.423 6.886c-.702.14-1.369.839-2.072.245-1.65-1.503-2.774-3.95-4.389-5.384-.351-.314-3.195-2.377-3.441-2.412-.562-.069-.737.385-.492.874.141.315 1.966 1.259 1.966 1.468-.351.35-2.458 3.007-1.124 3.007.913 0 1.369-2.832 2.528-2.063 1.334 1.503 2.563 3.81 4.003 5.139.281.245.562.489.948.524l-.527.699c-5.091 0-10.92-.349-15.906 0-3.125.21-5.407 1.853-5.407 5.139l-.035-.105z" fill="#fff"/><path d="M87.605 127.554c.351-.943 1.58-1.048 2.317-1.712.386.699 1.053 1.188 1.65 1.712h-3.968z" fill="#055fff"/><path d="M53.019 73.058l8.918 10.976c.246.175.421.105.702.035 1.194-.28 3.195-1.643 4.284-1.783 1.159-.14 3.195.909 4.529.524l-5.758 9.578-2.739-6.676c-.281-.35-.843-.175-1.018.175l-3.968 6.677-.421.175-8.076-16.394c0-.245 1.229-1.398 1.51-1.678.351-.35 1.299-1.224 1.65-1.468.141-.105.176-.245.421-.175l-.035.035zm5.303-5.942l-.14 3.985c.281 3.286 2.212 6.747 4.74 8.809.843.699 1.861 1.118 2.668 1.888-.808.175-2.914 1.223-3.616.769l-8.006-9.683v-.629c.597-.664 2.914-5.523 3.195-5.698.211-.14 1.088.419 1.159.524v.035zm32.548 41.912c0-.35.527-.14.702-.07 1.896.594 3.968 1.678 5.828 2.412l6.074 9.368c.562 1.328-1.861 1.188-2.738.839-4.284-1.748-3.792-6.187-6.11-9.333-.878-1.224-2.458-2.447-3.757-3.216z" fill="#fff"/><path d="M80.687 57.013c.492-.07 3.3-.105 3.125.699-.211 1.014-3.897 1.224-4.389.454s.667-1.084 1.264-1.154zM71.98 68.654s.562-.21.772-.035c.492.454.351 2.132 1.58 2.727.457.21 2.001.175 1.334 1.084-.316.455-1.721 0-2.142-.28-.773-.524-2.072-2.657-1.545-3.461v-.035zM60.287 54.601c.737-.594 1.404.839 1.51 1.433.105.699.07 2.971-.948 3.006-.878 0-.07-1.608-.07-2.132 0-.874-.667-1.433-.492-2.307zm22.789 6.188c.808.839-.351 2.797-1.615 2.027s.456-3.251 1.615-2.027z" fill="#000"/><path d="M36.517 75.295c2.563 6.292 3.652 12.759 2.528 19.575s-4.916 13.283-6.847 19.82l-7.338-1.713c-.913-.105-1.159.699-.211 1.083 4.143 1.678 10.112 1.888 14.431 3.531l-2.914 15.94H12.5c-5.653-.385-9.691-4.335-11.517-9.438l-.948-4.09c.07-1.224-.105-2.552 0-3.775.246-2.517 1.475-5.873 2.949-7.935 7.619-8.32 14.291-18.073 21.91-26.322 3.23-3.496 6.25-5.139 10.744-6.607.281-.105.737 0 .878-.07zm11.692.699c2.809 6.222 6.004 12.235 9.024 18.352.281.28.632.035.843-.21l3.546-5.453c-1.088 10.207-2.704 20.38-3.616 30.587 0 .245-.176.384-.176.419l-10.849-1.188-13.764-3.426c2.493-7.97 6.952-15.555 7.409-24.05.281-5.523-1.124-10.941-3.09-16.01 3.617-.175 7.268-.454 10.674 1.014v-.035zm26.158 6.677c2.107.21 6.917 3.461 8.532 4.964 4.81 4.474 7.795 13.213 10.428 19.225.246.595.562 1.189.667 1.818-2.212-.909-4.529-1.783-6.742-2.622-1.44-.524-2.353-.139-3.546.665-.246.174-.527.594-.702.664-.211.07-1.264-.14-2.001.07-1.088.314-1.404 1.223-1.966 1.468-.667.28-1.861.105-2.493.769-3.23 3.461-6.004 7.411-8.989 11.116l-8.497-1.014c.14-.734.105-1.957.211-2.796l3.406-28.699 2.388 5.698.702.21 6.917-11.116c.386-.454 1.159-.489 1.685-.454v.035zm-28.054 36.494l-1.721 14.402h-7.233c1.053-5.209 1.685-10.557 2.739-15.765 1.931.594 4.178.943 6.18 1.363h.035zm-3.195 11.85a1.721 1.721 0 1 0-3.441 0 1.721 1.721 0 1 0 3.441 0z" fill="#055fff"/><g fill="#000"><path d="M37.535 74.946c1.966 5.104 3.406 10.487 3.09 16.01-.421 8.494-4.916 16.079-7.409 24.049l13.764 3.426c-.527-.07-.737.175-.702.699-2.001-.419-4.248-.769-6.18-1.363-.14-.035-.351-.699-1.018-.175-4.284-1.678-10.288-1.853-14.431-3.531-.948-.384-.702-1.153.211-1.083l7.338 1.713c1.931-6.572 5.723-13.074 6.847-19.82s.035-13.248-2.528-19.575c.492-.21-.176-.28 1.018-.35z"/><path d="M39.08 117.592c.702-.524.913.14 1.018.175-1.088 5.208-1.685 10.556-2.739 15.765-.105.559-.105 1.433-.773 1.468-.737.035-.491-1.014-.421-1.468l2.914-15.94zm4.038 13.423a1.721 1.721 0 1 1-3.441 0 1.721 1.721 0 1 1 3.441 0zm-1.053.035c0-.35-.281-.664-.667-.664a.64.64 0 0 0-.667.664c0 .384.281.664.667.664s.667-.28.667-.664z"/></g><path d="M41.398 131.714c.368 0 .667-.297.667-.664s-.299-.664-.667-.664-.667.297-.667.664.299.664.667.664z" fill="#055fff"/><path d="M197.154 21.917h6.461c.421 0 .632 1.119.07 1.468-.035 0-.878.245-.948.245h-5.583v6.082c0 .315-.667.734-.983.734-.246 0-.738-.489-.738-.559V23.63h-6.109c-.878 0-.983-1.713-.351-1.713h6.46v-6.432c0-.594 1.721-.769 1.721.175v6.257zM180.3 5.278h4.916c.421 0 .632 1.538-.176 1.538h-4.74v4.719c0 .839-1.721.699-1.721-.175V6.816h-4.74c-.561 0-.561-1.538 0-1.538h4.74V.734c0-.874 1.721-.979 1.721-.35v4.894z" fill="#000"/><path d="M187.989 40.549c-3.195-11.92-16.713-18.142-27.984-12.864-11.762 5.523-15.063 20.275-7.338 30.552l-2.247 8.809 10.428-2.692c15.414 6.152 31.46-7.69 27.106-23.84l.035.035z" fill="#ffaf05"/><path d="M162.639 53.657h11.938v-1.713h-11.938m11.938-7.62h-3.406v-5.104h-5.126v5.104h-3.406l5.969 5.943 5.969-5.943z" fill="#000"/></g><defs><clipPath id="A"><path fill="#fff" d="M0 0h204v135H0z"/></clipPath></defs></svg>