<svg xmlns="http://www.w3.org/2000/svg" width="184" height="140" fill="none"><g clip-path="url(#A)"><path d="M9.169 126.717l-.55 4.135H1.431V43.947c0-.329.734-1.72.99-2.049 1.21-1.537 3.081-2.049 4.988-1.793l21.052 3.549c.183 1.61.037 3.11.477 4.684L5.942 44.569v82.112h3.227v.036zm110.686 5.379c-.073 2.891-2.164 5.269-4.804 6.221l-107.606.219c-3.264-.622-5.721-3.11-6.015-6.44h118.424zm62.715 0c-.183 2.379-1.577 4.611-3.704 5.709-.294.146-1.761.731-1.944.731h-59.231c2.018-1.683 3.301-3.805 3.595-6.44h61.284z" fill="#fff"/><path d="M28.937 48.338c.733 2.708 2.861 6.257 3.374 8.928.183.915-.037 1.976.073 2.964.44 3.147 3.044 6.44 6.271 7.062-.183 4.867-.697 9.733-.99 14.6-.147.585-1.724.659-2.127 2.159-.477 1.72-.403 4.062-.66 5.855-7.629 1.61-15.734 2.781-21.272 8.819-1.614 9.295-2.934 18.661-4.401 27.956H5.979V44.605l22.995 3.769-.037-.037z" fill="#055fff"/><path d="M107.056 56.717l-16.321-2.744V53.9l-14.377-2.342c.513 1.208.513 3.476 0 4.647l13.57 2.195v.256l16.101 2.378v16.759 39.373l4.511 8.233V60.413c0-1.281-2.127-3.476-3.448-3.732l-.036.037z" fill="#fff"/><path d="M72.067 48.191c1.1.146 2.714 1.134 3.411 1.976a11.49 11.49 0 0 1 .88 1.427c.514 1.208.514 3.476 0 4.647-.587 1.39-2.2 2.598-3.594 3.037l-1.247.366c-.697.037-1.614-.329-2.347-.366-.11-.329-.367-.768-.55-1.244.293-.732.99 0 1.577.146.367.073.734.036 1.137.036.844 0 .697-.146 1.247-.366 1.174-.439 1.724-.805 2.347-1.976.844-1.61.734-3.22-.367-4.647-.807-1.098-2.274-1.83-3.668-1.793-.623 0-.733.22-1.174.366-1.1.366-2.567 1.134-2.677 2.525-.587-.403-.403-1.317-.55-1.793.55-.768 1.797-1.866 2.677-2.159.624-.183 2.237-.256 2.861-.183h.037z" fill="#ffaf05"/><path d="M39.169 130.815l8.179-46.251.66-.403 23.399-6.404c1.724 0 2.384 2.196.99 3.11-.33.22-4.988 2.013-5.318 2.049-1.357.183-2.421-.146-4.144.329-.66.183-2.237.512-1.577 1.5.33.476 3.631-.695 4.511-.695 1.797.037 1.394 1.72 1.87 3.001-.807-.22-4.768.476-5.135 1.061-1.137 1.939 2.971.293 3.631.22 2.787-.293 1.724.988 2.567 3.001-.66.037-1.394-.073-2.054 0s-4.695.842-3.411 1.976c.477.439 2.641-.585 3.447-.659 1.981-.256 2.567 0 2.751 2.013.183 2.379-1.394 6.696-3.338 8.16-.587.439-3.704 1.903-4.218 1.537-.954-.696.99-2.928 1.65-3.403.367-.257 1.87-.915 1.944-1.098.734-2.086-2.494-.146-3.081.329-1.467 1.171-2.347 2.928-1.724 4.794-.587.256-1.87.292-1.944 1.024l4.291 24.809H39.206h-.037zm26.59-77.428l2.531 7.611c-.293 1.061-3.888 2.269-3.924 3.037a2.51 2.51 0 0 0 .183.622c.623.403 3.154-1.208 3.741-1.683 1.687-1.354 1.54-1.72.917-3.659.734 0 1.65.403 2.347.366.77 5.818-.77 11.563-1.907 17.235l-10.306 2.671c-.11-2.122-2.127-4.428-4.364-3.549-.733.293-1.797 1.61-2.347 1.573-1.174-.073-4.511-2.744-5.208-2.708-.623.037-.807.622-.367 1.098.624.732 4.584 2.488 4.584 2.781-1.1.695-3.998 4.062-4.988 4.354-.367.11-.99.037-1.394 0-2.017-.073-4.144-.732-6.198-.732.293-5.086.624-10.209 1.174-15.259.183-.293 1.027-.11.954-.951-.073-.951-1.21-.293-1.834-.293-3.081 0-5.428-3.806-5.648-6.55-.44-5.672 4.841-7.538 7.885-2.818.367.586 1.064 2.964 1.944 2.232.733-.585-.367-1.83-.477-2.525l8.802-2.159c.88 7.831 11.699 6.916 11.516-.915l2.531.183-.147.037zm-.733 14.637c.403-.403.257-.951-.257-1.171-.55-.256-4.181-1.098-4.805-1.134-1.174-.073-1.577.768-.55 1.281.477.219 4.364 1.134 4.951 1.171.22 0 .477.037.66-.146zM43.314 54.632l2.714-10.575c6.712 1.391 13.093 0 19.034-3.147.33-.183 1.724-1.207 1.981-.988l2.164 8.416c-.88.293-2.164 1.391-2.677 2.159-.183-.549-1.137-3.11-1.907-1.61-.147.293.66 2.671.807 3.22-.403-.073-1.797-.402-2.054-.366-.147 0 0 .549-.477.366-1.87-5.635-9.572-5.05-11.076.549-2.824.732-5.685 1.244-8.509 1.939v.037z" fill="#fff"/><path d="M43.314 54.632l8.509-1.939c1.504-5.599 9.206-6.184 11.076-.549.44.183.33-.329.477-.366.257-.037 1.65.293 2.054.366.11.403.22.842.367 1.244l-2.531-.183c.183 7.831-10.599 8.745-11.516.915l-8.802 2.159c-1.137.146-1.064-.293-1.247-1.244.587.037 1.1-.22 1.614-.366v-.037zm18.558-.768c0-2.415-1.944-4.355-4.364-4.355s-4.364 1.939-4.364 4.355 1.944 4.354 4.364 4.354 4.364-1.939 4.364-4.354z" fill="#ffaf05"/><path d="M58.02 80.063c-.257.366-7.445 1.866-8.435 2.269 1.174-.878 4.951-5.013 6.088-5.233 1.357-.219 2.824 2.269 2.311 2.964h.037z" fill="#fff"/><path d="M66.492 50.497c.147.476-.073 1.39.55 1.793-.11 1.025 1.247 4.537 1.614 5.745.147.476.44.915.55 1.244.66 1.939.77 2.305-.917 3.659-.587.476-3.081 2.086-3.741 1.683-.073-.037-.22-.512-.183-.622.073-.768 3.668-1.976 3.924-3.037l-2.531-7.611-.367-1.244c-.147-.549-.954-2.927-.807-3.22.77-1.5 1.724 1.061 1.907 1.61z" fill="#000"/><path d="M69.72 49.801l1.614 8.416c-.367 0-.734 0-1.137-.037-.587-.11-1.284-.842-1.577-.146-.403-1.208-1.724-4.72-1.614-5.745.147-1.354 1.577-2.122 2.677-2.525l.037.037zm-.77 1.464c-1.064.329-1.21 3.549 0 3.586s1.65-4.062 0-3.586zm5.611-.036c1.064 1.464 1.21 3.074.367 4.647l-2.677-.366-.88-4.647 3.227.366h-.037z" fill="#fff"/><path d="M74.561 51.229l-3.228-.366.88 4.647.367 2.342c-.55.22-.403.329-1.247.366l-1.614-8.416c.44-.146.55-.366 1.174-.366 1.394 0 2.861.695 3.668 1.793z" fill="#000"/><path d="M74.928 55.876c-.623 1.171-1.174 1.5-2.347 1.976l-.367-2.342 2.677.366h.037z" fill="#055fff"/><path d="M65.026 68.024c-.183.183-.44.146-.66.146-.623-.037-4.474-.915-4.951-1.171-1.027-.512-.623-1.354.55-1.281.623 0 4.254.878 4.804 1.134.514.22.66.768.257 1.171z" fill="#000"/><path d="M61.871 53.863c0 2.415-1.944 4.354-4.364 4.354s-4.364-1.939-4.364-4.354 1.944-4.354 4.364-4.354 4.364 1.939 4.364 4.354zm-3.521-2.598c-1.21-1.171-2.347 3.147-.917 3.513 1.247.329 1.76-2.708.917-3.513z" fill="#fff"/><path d="M68.95 51.265c1.614-.476 1.137 3.586 0 3.586s-1.027-3.257 0-3.586zm-10.599 0c.844.805.33 3.842-.917 3.513-1.467-.366-.33-4.684.917-3.513zm125.209 79.55h-70.086c-.257-.292-1.541-2.268-1.541-2.415V60.633c0-2.598-3.007-4.867-5.354-5.416-4.621-1.061-9.719-1.354-14.377-2.415l-1.467-.146-15.257-2.525s.807 1.244.88 1.427l14.34 2.415c.44.11.88.183 1.284.293l15.074 2.452c1.32.256 3.447 2.452 3.447 3.732v64.987l-4.511-8.233-14.157-26.309c-5.135-5.708-13.02-7.904-20.538-8.123l1.43-.622c3.117-1.61 1.76-5.928-1.614-5.672.403-3.33 1.394-6.66 1.76-9.989.293-2.415.147-4.83-.147-7.245-.22.073-1.137.366-1.247.366.77 5.818-.77 11.563-1.907 17.235l-10.306 2.671c-.11-2.122-2.127-4.428-4.364-3.549-.733.293-1.797 1.61-2.347 1.573-1.174-.073-4.511-2.744-5.208-2.708-.623.037-.807.622-.367 1.098.624.732 4.584 2.488 4.584 2.781-1.1.695-3.998 4.062-4.988 4.354-.367.11-.99.037-1.394 0-2.017-.073-4.144-.732-6.198-.732.293-5.086.624-10.209 1.174-15.259.183-.293 1.027-.11.954-.951-.073-.951-1.21-.293-1.834-.293-3.081 0-5.428-3.806-5.648-6.55-.44-5.672 4.841-7.538 7.885-2.818.367.586 1.064 2.964 1.944 2.232.733-.585-.367-1.83-.477-2.525-1.137.146-1.064-.293-1.247-1.244.587.037 1.1-.22 1.614-.366l2.714-10.575c6.712 1.39 13.093 0 19.035-3.147.33-.183 1.724-1.208 1.98-.988l2.164 8.416c.624-.183 2.237-.256 2.861-.183.587-4.318 3.007-7.721.807-12.002-2.824-5.635-8.912-4.83-14.193-5.013-5.721-.183-11.479-.293-17.201-.146-.807.11-1.54 1.207-2.127 1.464-.66.329-2.09.476-2.971.805-3.191 1.244-5.685 3.879-7.005 6.989-.183.439-.44 1.866-.734 1.939l-21.38-3.55C3.558 38.275.807 40.507.037 44.093v88.223l.587 2.012c1.21 3.074 4.071 5.196 7.408 5.526h167.68c3.557-.11 6.785-2.415 7.848-5.782.184-.549.917-3.366.037-3.366l-.037.109zM55.71 77.099c1.357-.22 2.824 2.269 2.311 2.964-.257.366-7.445 1.866-8.435 2.269 1.174-.878 4.951-5.013 6.088-5.233h.037zm-8.362 7.465l.66-.403 23.399-6.404c1.724 0 2.384 2.195.99 3.11-.33.22-4.988 2.013-5.318 2.049-1.357.183-2.421-.146-4.144.329-.66.183-2.237.512-1.577 1.5.33.476 3.631-.695 4.511-.695 1.797.037 1.394 1.72 1.87 3.001-.807-.219-4.768.476-5.134 1.061-1.137 1.939 2.971.293 3.631.22 2.787-.293 1.724.988 2.567 3.001-.66.037-1.394-.073-2.054 0-.697.073-4.694.842-3.411 1.976.477.439 2.641-.585 3.447-.659 1.98-.256 2.567 0 2.751 2.013.183 2.379-1.394 6.696-3.337 8.16-.587.439-3.704 1.903-4.218 1.537-.954-.696.99-2.928 1.65-3.403.367-.257 1.87-.915 1.944-1.098.733-2.086-2.494-.146-3.081.329-1.467 1.171-2.347 2.928-1.724 4.794-.587.256-1.87.292-1.944 1.024l4.291 24.809H39.206l8.179-46.251h-.037zM1.431 43.947c0-.329.734-1.72.99-2.049 1.21-1.537 3.081-2.049 4.988-1.793l21.052 3.549c.183 1.61.037 3.11.477 4.684.733 2.708 2.861 6.257 3.374 8.928.183.915-.037 1.976.073 2.964.44 3.147 3.044 6.44 6.271 7.062-.183 4.867-.697 9.733-.99 14.6-.147.585-1.724.659-2.127 2.159-.477 1.72-.403 4.062-.66 5.855-7.629 1.61-15.734 2.781-21.272 8.819-1.614 9.295-2.934 18.661-4.401 27.956-.22 1.353-.477 2.744-.55 4.134H1.431V43.947zm6.015 94.589c-3.264-.622-5.721-3.11-6.015-6.44h118.424c-.073 2.891-2.164 5.269-4.804 6.221l-107.605.219zm171.42-.732c-.293.147-1.76.732-1.944.732h-59.23c2.017-1.683 3.3-3.805 3.594-6.44h61.284c-.183 2.379-1.577 4.611-3.704 5.708z" fill="#000"/><path d="M106.028 84.307v-2.891-8.855-11.49l-15.257-2.525-2.091-.329-12.286-1.976c-.587 1.39-2.201 2.598-3.594 3.037.293 2.415.44 4.794.147 7.245-.367 3.293-1.394 6.66-1.76 9.99 3.374-.256 4.768 4.062 1.614 5.672l-1.43.622c7.482.22 15.404 2.415 20.538 8.123l14.157 26.31V84.344l-.037-.037z" fill="#055fff"/><path d="M83.18 20.199c3.154 1.098 7.262.805 8.545-2.781-1.724-.183-4.584-.768-3.998-3.147.844-3.33 4.988-.805 5.318 1.537 1.32-.183 2.641-.403 3.888-.842l.404 1.317-4.108.951c-1.284 4.94-6.712 5.855-10.929 4.025-2.751 3.257-7.078 4.72-11.039 2.744-1.064 1.5-2.494 2.927-4.511 2.671-.073-1.317.917-1.244 1.687-1.647.55-.329 1.1-1.061 1.577-1.537.073-.329-1.32-1.464-1.614-1.976-.99-1.939-.807-3.732 1.614-4.135 3.154-.549 2.824 3.586 1.834 5.452 3.191 1.61 6.785.512 9.096-2.086-1.724-1.61-4.218-2.927-3.154-5.672 1.32-3.403 6.455-2.305 6.528 1.317 0 .366-.183.988-.293 1.354-.11.402-1.027 2.378-.88 2.488l.037-.037zm-1.32-5.635c-1.577-.842-3.484.622-2.787 2.342.403 1.024 1.724 2.012 2.714 2.488 1.027-1.427 2.091-3.769.11-4.83h-.037zm-11.296 7.501c.44.146.697-1.72.66-2.049 0-.402-.073-1.354-.623-1.39-1.064 0-1.65.476-1.32 1.537.073.256 1.137 1.83 1.284 1.903zm21.015-6.147c-.183-.768-1.54-2.488-2.347-1.683-1.137 1.134 1.504 1.939 2.347 1.683z" fill="#000"/><path d="M179.599 0h-71.957a4.36 4.36 0 0 0-4.365 4.354v6.733a4.36 4.36 0 0 0 4.365 4.354h71.957a4.36 4.36 0 0 0 4.364-4.354V4.354A4.36 4.36 0 0 0 179.599 0z" fill="#ffaf05"/><path d="M109.365 10.429s-.33-.073-.44-.256c-.146-.256-.073-.585.184-.732.697-.439 1.467-1.39 2.164-2.305.66-.842 1.283-1.61 1.907-2.049.44-.22.733-.146.917-.073.55.256.77.988.99 1.793.11.329.257.915.367 1.061 0 0 .11 0 .366-.183.294-.146.624-.439.917-.732.734-.695 1.834-1.683 3.081-.805.367.293.66.659.953.988.404.512.734.915.991.842.476-.146 1.063-.403 1.687-.659 1.65-.732 3.557-1.573 5.244-.878.514.183 1.064.403 1.577.659.881.403 1.687.768 2.568.842.843 0 1.907-.146 3.044-.256 2.75-.329 5.868-.659 8.032.22.256.11.403.439.293.695a.54.54 0 0 1-.697.293c-1.907-.805-4.878-.439-7.482-.146l-3.19.293c-1.101-.073-2.054-.512-2.971-.951-.514-.256-.99-.476-1.504-.622-1.32-.549-2.934.146-4.474.842l-1.834.732c-.953.256-1.54-.512-2.09-1.171-.257-.293-.477-.622-.771-.842-.44-.293-.806-.073-1.687.732-.366.329-.733.695-1.137.878-.696.403-1.173.293-1.467.11-.44-.329-.623-.951-.806-1.647-.074-.293-.22-.842-.367-1.061-.44.366-.99 1.025-1.577 1.756-.77.988-1.577 1.976-2.457 2.525-.074.073-.184.073-.294.073l-.037.037zm66.052-.22c-.22 0-.403-.146-.477-.366a2.63 2.63 0 0 0-.55-.988c-.183-.183-.366-.329-.55-.476-.257-.146-.33-.476-.183-.732s.477-.329.733-.183a4.53 4.53 0 0 1 .807.659c.11.11.184.22.257.329.33-.549.697-1.061 1.137-1.5.513-.512 1.1-.988 1.76-1.317.257-.146.587-.037.734.22s.036.585-.22.732c-.55.293-1.064.695-1.504 1.134-.623.622-1.1 1.354-1.43 2.159a.57.57 0 0 1-.477.329h-.037z" fill="#000"/><path d="M107.642 21.077h71.993c2.421 0 4.365 1.5 4.365 3.367V42.41c0 1.866-1.944 3.367-4.365 3.367h-71.993c-2.421 0-4.365-1.5-4.365-3.367V24.443c0-1.866 1.944-3.367 4.365-3.367z" fill="#ffaf05"/><path d="M108.925 30.481a.59.59 0 0 1-.476-.22c-.184-.22-.11-.549.146-.732a15.66 15.66 0 0 0 1.944-1.427c.624-.549.954-1.061 1.21-1.464.33-.476.624-.951 1.247-.915.807.037 1.064.878 1.357 1.756.11.366.404 1.171.587 1.281.11 0 .477-.402.66-.622.477-.512 1.027-1.134 1.797-.951.697.146.881.732 1.064 1.171.073.22.183.585.33.622.293.11 1.137-.622 1.577-1.024.99-.842 2.017-1.72 3.117-1.427.771.22 1.101.842 1.357 1.354.11.183.257.512.367.585l.257-.329c.293-.366.697-.842 1.43-.951s1.247.22 1.687.549c.294.22.587.402.991.512.623.146 1.063-.073 1.833-.476.477-.256 1.064-.549 1.761-.732 1.797-.476 3.154.146 4.584.768 1.064.476 2.164.951 3.631 1.171 2.054.293 4.328-.146 6.712-1.244.293-.146.623 0 .77.22.146.256.036.549-.257.695-2.604 1.207-5.098 1.647-7.408 1.354-1.651-.22-2.898-.768-3.998-1.281-1.32-.585-2.384-1.061-3.704-.732-.587.146-1.027.402-1.504.622-.77.402-1.614.842-2.751.585-.623-.146-1.063-.439-1.43-.695-.403-.256-.55-.366-.77-.329-.257.037-.44.22-.66.549-.257.329-.624.842-1.284.768-.77 0-1.1-.659-1.394-1.171-.183-.329-.403-.732-.66-.805-.44-.11-1.357.622-1.98 1.171-.954.805-1.871 1.573-2.824 1.244-.66-.22-.844-.842-.99-1.281-.074-.146-.147-.439-.22-.512-.074.037-.404.439-.587.622-.477.512-.99 1.098-1.761.988-.917-.11-1.21-1.061-1.54-1.976-.073-.256-.22-.622-.33-.842-.073.073-.11.183-.183.256-.294.439-.697 1.061-1.394 1.683-.66.585-1.357 1.098-2.091 1.573-.11.073-.22.11-.33.11l.11-.073zm65.539-.403s-.294-.073-.367-.256c-.733-1.317-1.504-2.086-2.347-2.232-.954-.183-1.797.366-2.714.951-.954.622-1.981 1.281-3.081.842-.733-.293-1.1-.915-1.357-1.427-.257-.476-.44-.732-.77-.805-.404-.037-.734.22-1.21.659-.55.512-1.211 1.134-2.201 1.134h-.037c-.696 0-1.136-.293-1.577-.622-.293-.22-.55-.402-.99-.549-1.21-.402-2.75.11-4.511 1.5-.22.146-.477.11-.623-.146-.147-.22-.074-.549.11-.732 2.017-1.573 3.814-2.122 5.281-1.647.55.183.88.439 1.21.659.367.256.624.439 1.064.439.697 0 1.137-.439 1.65-.915s1.1-1.024 1.907-.915c.77.11 1.137.768 1.431 1.281.256.439.476.842.916 1.024.734.293 1.468-.183 2.348-.768.953-.622 2.017-1.317 3.3-1.061 1.101.22 2.091 1.134 2.971 2.708a.51.51 0 0 1-.147.695c-.073.037-.146.073-.256.073v.11zm-47.495 9.697c-.77 0-1.43-.146-2.053-.549-.514-.366-.807-.805-.991-1.134-.073-.146-.22-.329-.256-.366-.074 0-.44.402-.587.585-.44.512-.99 1.134-1.907 1.171h-.037c-1.027 0-1.907-.805-2.384-1.464-.22-.329-.33-.659-.403-.915l-.514.586c-1.027 1.098-1.907 2.012-3.044 2.012h-.073c-.88 0-1.32-.585-1.687-1.024-.33-.403-.55-.659-.88-.695-.587-.11-1.504.439-2.568 1.537a.72.72 0 0 1-.88.073c-.257-.183-.33-.512-.11-.732 1.43-1.464 2.677-2.086 3.814-1.903.844.146 1.284.695 1.651 1.134.293.366.477.586.697.586.513.073 1.357-.842 2.053-1.61a4.49 4.49 0 0 0 .587-.695c.44-.512.77-.951 1.394-.805.587.11.623.585.66.915.037.293.073.659.33 1.061.294.476.88.951 1.284.951.33 0 .623-.366.917-.732.403-.476.917-.988 1.723-.988.734.037 1.027.549 1.284.951.183.293.367.585.66.805.734.476 1.724.329 3.594 0l3.228-.439c1.944-.146 3.924-.037 5.978.329.33.073.55.329.477.622s-.404.476-.734.403c-1.907-.329-3.777-.439-5.575-.293-1.136.073-2.163.256-3.08.439-.954.183-1.834.329-2.604.329l.036-.146zm17.128-.512c-.587 0-1.21-.11-1.907-.329-.257-.073-.404-.366-.33-.659.073-.256.366-.439.66-.329 1.247.403 2.2.403 2.787 0 .404-.293.66-.768.88-1.171.257-.476.514-1.025 1.101-.951.55.037.77.622.917 1.098.11.329.256.768.476.878.11.037.587.146 1.761-.915.22-.183.55-.183.733.037s.184.549-.036.732c-1.211 1.061-2.164 1.427-2.898 1.098-.623-.293-.88-.988-1.027-1.5v-.11c0 .037-.036.073-.073.11-.257.476-.587 1.098-1.21 1.537-.477.329-1.064.512-1.761.512l-.073-.037zm16.614.256c-.184 0-.367 0-.587-.073-.954-.22-1.431-.842-1.797-1.317-.33-.402-.514-.659-.771-.659-.146 0-.77.073-1.723 1.464-.184.256-.587.329-.881.22-.33-.146-.44-.439-.256-.695.953-1.39 1.87-2.013 2.934-1.976.953.037 1.43.659 1.834 1.171.293.402.586.768 1.026.878.697.146 1.541-.476 2.421-1.098 1.174-.842 2.531-1.83 4.218-1.61.917.11 1.357.476 1.833.842.404.293.807.622 1.577.915 1.394.512 3.045.549 4.952.183.366-.073.696.11.807.366.11.293-.111.549-.477.622-2.237.439-4.218.366-5.868-.22a5.98 5.98 0 0 1-1.944-1.134c-.44-.329-.66-.512-1.1-.549-1.101-.11-2.128.622-3.118 1.354-.953.695-1.944 1.427-3.08 1.427v-.11z" fill="#000"/></g><defs><clipPath id="A"><path fill="#fff" d="M0 0h184v140H0z"/></clipPath></defs></svg>