<svg width="220" height="20" viewBox="0 0 220 20" fill="none" xmlns="http://www.w3.org/2000/svg"><g clip-path="url(#clip0_2217_336)"><path d="M29.2041 19.5778H32.3495V11.5654H38.952V8.35222H32.3495V3.55304H40.5196V0.329559H29.2041V19.5778Z" fill="#000"/><path d="M46.2675 5.14934H43.1221V19.5881H46.2675V5.14934Z" fill="#000"/><path d="M46.2675 0H43.1221V2.95572H46.2675V0Z" fill="#000"/><path d="M62.4169 5.14934H58.7087L55.5934 9.75284L52.4278 5.14934H48.7196L53.7644 12.2863L48.6191 19.5778H52.3173L55.5934 14.8095L58.8393 19.5778H62.5475L57.3621 12.2863L62.4169 5.14934Z" fill="#000"/><path d="M74.3057 0.329559L70.0046 8.00206L65.6833 0.329559H62.0254L68.4168 11.6993V19.5778H71.5924V11.6993L77.9737 0.329559H74.3057Z" fill="#000"/><path d="M87.641 5.72605C86.5858 5.07724 85.3498 4.74768 83.9328 4.74768C82.5159 4.74768 81.33 5.06694 80.2849 5.70546C79.2398 6.34397 78.4157 7.23996 77.8228 8.38311C77.2299 9.52626 76.9385 10.8548 76.9385 12.3687C76.9385 13.8826 77.2299 15.1699 77.8027 16.3234C78.3755 17.4768 79.1996 18.3625 80.2447 19.0216C81.2898 19.6807 82.5259 20 83.9328 20C85.3397 20 86.5758 19.6807 87.6209 19.0319C88.6761 18.3831 89.4901 17.4871 90.083 16.344C90.6659 15.2008 90.9674 13.8826 90.9674 12.379C90.9674 10.8754 90.6759 9.57775 90.0931 8.4243C89.5102 7.28115 88.6962 6.38517 87.641 5.72605ZM86.7265 15.6746C86.1135 16.5293 85.189 16.9619 83.9328 16.9619C82.6767 16.9619 81.8124 16.5499 81.1893 15.7158C80.5663 14.8816 80.2548 13.7693 80.2548 12.3687C80.2548 11.4624 80.3854 10.6591 80.6467 9.9691C80.908 9.27909 81.3099 8.74356 81.8526 8.35221C82.3953 7.96086 83.0887 7.77549 83.9328 7.77549C85.1689 7.77549 86.0934 8.18743 86.7064 9.02163C87.3194 9.85582 87.631 10.9681 87.631 12.3687C87.631 13.7693 87.3295 14.8301 86.7165 15.6849L86.7265 15.6746Z" fill="#000"/><path d="M103.348 12.5644C103.348 13.4398 103.248 14.1607 103.057 14.7271C102.866 15.2935 102.615 15.7467 102.293 16.0659C101.972 16.3852 101.62 16.622 101.228 16.7559C100.836 16.8898 100.444 16.9516 100.042 16.9516C99.2984 16.9516 98.7055 16.7868 98.2633 16.4573C97.8212 16.1277 97.4896 15.7055 97.2685 15.1905C97.0474 14.6756 96.9067 14.1401 96.8464 13.5839C96.7861 13.0278 96.7559 12.5232 96.7559 12.0803V5.12874H93.5703V13.1926C93.5703 13.5427 93.6005 13.9959 93.6507 14.552C93.711 15.1081 93.8316 15.6952 94.0225 16.3234C94.2135 16.9516 94.5049 17.5386 94.9069 18.0845C95.3088 18.6406 95.8415 19.0937 96.5248 19.4439C97.1981 19.8043 98.0624 19.9794 99.1075 19.9794C100.434 19.9794 101.539 19.6807 102.444 19.0937C102.926 18.7745 103.348 18.3934 103.71 17.9506V19.5675H106.484V5.14934H103.328V12.5644H103.348Z" fill="#000"/><path d="M116.794 5.08754C116.352 5.11844 115.919 5.20083 115.497 5.34501C115.075 5.47889 114.693 5.67457 114.342 5.91143C113.93 6.1689 113.588 6.49846 113.297 6.88981C113.166 7.07518 113.045 7.26056 112.935 7.46653V5.14933H110.161V19.5881H113.317V12.2451C113.317 11.689 113.377 11.1741 113.508 10.7003C113.638 10.2266 113.839 9.79403 114.111 9.42328C114.382 9.05253 114.734 8.74357 115.176 8.4964C115.608 8.22863 116.1 8.07415 116.643 8.03296C117.186 7.99176 117.668 8.03296 118.08 8.15654V5.14933C117.658 5.07724 117.236 5.05665 116.794 5.08754Z" fill="#000"/><path d="M133.445 10.6488C134.219 9.52626 134.611 8.17714 134.611 6.60144C134.611 5.54068 134.44 4.57261 134.099 3.70752C133.757 2.84243 133.224 2.12153 132.521 1.5448C131.807 0.978375 130.913 0.607623 129.828 0.432546C129.587 0.391351 129.315 0.360455 129.034 0.350157C128.742 0.339858 128.511 0.329559 128.33 0.329559H120.572V19.5778H123.718V12.8527H128.18L131.355 19.5778H134.913L131.436 12.2657C132.27 11.895 132.963 11.3697 133.456 10.6488H133.445ZM123.708 3.35737H128.19C128.36 3.35737 128.561 3.35737 128.773 3.37796C128.994 3.38826 129.195 3.42946 129.375 3.48095C129.898 3.61483 130.31 3.8517 130.612 4.19156C130.913 4.53141 131.124 4.91246 131.255 5.34501C131.385 5.77755 131.446 6.1998 131.446 6.61174C131.446 7.02369 131.385 7.43564 131.255 7.86818C131.124 8.30072 130.913 8.68177 130.612 9.02163C130.31 9.36149 129.898 9.59835 129.375 9.73224C129.195 9.78373 128.994 9.82493 128.773 9.83522C128.551 9.85582 128.36 9.86612 128.19 9.86612H123.708V3.35737Z" fill="#000"/><path d="M147.726 5.79814C146.701 5.09784 145.464 4.74768 143.997 4.74768C142.61 4.74768 141.394 5.06694 140.349 5.70546C139.304 6.34397 138.48 7.25026 137.887 8.414C137.294 9.57775 137.003 10.9475 137.003 12.5232C137.003 13.9856 137.304 15.2729 137.907 16.3955C138.51 17.518 139.354 18.3934 140.43 19.0319C141.505 19.6601 142.761 19.9794 144.188 19.9794C145.615 19.9794 146.781 19.6189 147.917 18.898C149.042 18.1771 149.876 17.1679 150.419 15.8599L147.314 14.9022C147.012 15.5716 146.58 16.0762 146.017 16.4367C145.454 16.7971 144.791 16.9619 144.017 16.9619C142.821 16.9619 141.907 16.5602 141.274 15.7569C140.781 15.1287 140.49 14.2945 140.39 13.2544H150.58C150.7 11.5242 150.519 10.0206 150.017 8.75386C149.524 7.47683 148.761 6.48815 147.736 5.78785L147.726 5.79814ZM144.128 7.56951C145.263 7.56951 146.098 7.92997 146.63 8.65087C147.002 9.16581 147.243 9.89701 147.354 10.8342H140.45C140.591 10.0103 140.852 9.32029 141.254 8.79505C141.877 7.98146 142.832 7.56951 144.128 7.56951Z" fill="#000"/><path d="M162.83 12.0494C162.157 11.6684 161.263 11.3388 160.137 11.0402C159.042 10.7518 158.218 10.5149 157.665 10.3193C157.112 10.1236 156.741 9.92791 156.56 9.73223C156.379 9.53656 156.288 9.29969 156.288 9.02162C156.288 8.52729 156.509 8.14624 156.962 7.87847C157.414 7.61071 158.007 7.49742 158.75 7.53862C159.524 7.57981 160.147 7.78578 160.61 8.13594C161.072 8.48609 161.343 8.98043 161.424 9.58805L164.629 9.00103C164.509 8.13594 164.187 7.38414 163.665 6.74562C163.142 6.1071 162.459 5.61277 161.615 5.26261C160.77 4.91246 159.796 4.73738 158.7 4.73738C157.605 4.73738 156.6 4.92276 155.776 5.28321C154.952 5.64366 154.309 6.1586 153.846 6.82801C153.384 7.49742 153.153 8.28012 153.153 9.1761C153.153 9.89701 153.304 10.5149 153.605 11.0196C153.907 11.5242 154.409 11.967 155.103 12.3378C155.796 12.7085 156.741 13.0484 157.916 13.378C158.982 13.6663 159.765 13.9032 160.278 14.0886C160.79 14.2739 161.122 14.4696 161.273 14.6653C161.424 14.861 161.504 15.1287 161.504 15.4583C161.504 15.9938 161.293 16.4161 160.881 16.725C160.469 17.034 159.886 17.1885 159.122 17.1885C158.258 17.1885 157.545 16.9825 156.982 16.5705C156.419 16.1586 156.047 15.6025 155.886 14.8816L152.681 15.3862C152.912 16.8383 153.575 17.9609 154.66 18.7642C155.746 19.5675 157.163 19.9691 158.901 19.9691C160.64 19.9691 162.147 19.5572 163.172 18.723C164.197 17.8888 164.72 16.7559 164.72 15.3038C164.72 14.552 164.569 13.9135 164.268 13.3883C163.966 12.863 163.484 12.4099 162.81 12.0288L162.83 12.0494Z" fill="#000"/><path d="M177.12 12.5644C177.12 13.4398 177.019 14.1607 176.828 14.7271C176.637 15.2935 176.386 15.7467 176.065 16.0659C175.743 16.3852 175.391 16.622 174.999 16.7559C174.607 16.8898 174.216 16.9516 173.814 16.9516C173.07 16.9516 172.477 16.7868 172.035 16.4573C171.593 16.1277 171.261 15.7055 171.04 15.1905C170.819 14.6756 170.678 14.1401 170.618 13.5839C170.558 13.0278 170.527 12.5232 170.527 12.0803V5.12874H167.342V13.1926C167.342 13.5427 167.372 13.9959 167.422 14.552C167.482 15.1081 167.603 15.6952 167.794 16.3234C167.985 16.9516 168.276 17.5386 168.678 18.0845C169.08 18.6406 169.613 19.0937 170.296 19.4439C170.97 19.8043 171.834 19.9794 172.879 19.9794C174.205 19.9794 175.311 19.6807 176.215 19.0937C176.698 18.7745 177.12 18.3934 177.482 17.9506V19.5675H180.255V5.14934H177.1V12.5644H177.12Z" fill="#000"/><path d="M199.158 4.78888C198.224 4.78888 197.369 5.00515 196.606 5.4274C195.882 5.82904 195.299 6.39547 194.867 7.09578C194.515 6.42637 194.033 5.88054 193.41 5.46859C192.696 5.00515 191.822 4.77858 190.767 4.77858C189.812 4.77858 188.948 4.99485 188.174 5.4274C187.581 5.75695 187.089 6.1895 186.677 6.71473V5.14933H183.903V19.5881H187.069V10.7003C187.069 9.80433 187.31 9.07312 187.792 8.5067C188.275 7.94027 188.918 7.6622 189.712 7.6622C190.506 7.6622 191.189 7.94027 191.671 8.5067C192.154 9.06282 192.385 9.85582 192.385 10.8548V19.5881H195.52V10.7003C195.52 10.0721 195.641 9.52626 195.872 9.06282C196.103 8.59938 196.425 8.25953 196.827 8.02266C197.229 7.78579 197.681 7.6725 198.183 7.6725C198.997 7.6725 199.651 7.95057 200.123 8.5067C200.605 9.06282 200.836 9.83522 200.836 10.8239V19.5881H203.982V10C203.982 8.4449 203.57 7.17817 202.736 6.22039C201.902 5.26262 200.716 4.77858 199.158 4.77858V4.78888Z" fill="#000"/><path d="M218.403 13.2647H219.941C220.061 11.5345 219.88 10.0309 219.378 8.76416C218.885 7.48712 218.122 6.49845 217.097 5.79814C216.072 5.09784 214.836 4.74768 213.368 4.74768C211.982 4.74768 210.766 5.06694 209.72 5.70546C208.675 6.34397 207.851 7.25026 207.258 8.414C206.665 9.57775 206.374 10.9475 206.374 12.5232C206.374 13.9856 206.675 15.2729 207.278 16.3955C207.881 17.518 208.726 18.3934 209.801 19.0319C210.876 19.6601 212.132 19.9794 213.559 19.9794C214.986 19.9794 216.152 19.6189 217.288 18.898C218.413 18.1771 219.247 17.1679 219.79 15.8599L216.685 14.9022C216.383 15.5716 215.951 16.0762 215.388 16.4367C214.826 16.7971 214.162 16.9619 213.388 16.9619C212.193 16.9619 211.278 16.5602 210.645 15.7569C210.153 15.1287 209.861 14.2945 209.761 13.2544H218.413L218.403 13.2647ZM213.509 7.56951C214.645 7.56951 215.479 7.92997 216.011 8.65087C216.383 9.16581 216.624 9.89701 216.735 10.8342H209.831C209.972 10.0103 210.233 9.32029 210.635 8.79505C211.258 7.98146 212.213 7.56951 213.509 7.56951Z" fill="#000"/><path d="M18.541 4.57261V7.29145H15.888V4.57261H18.541V1.85376H15.888H13.235H7.93897V4.57261H2.65302V7.29145H0V10.0103H5.296V12.7291H13.245V15.448H15.898V12.7291H18.5511V10.0103H21.2041V4.5829H18.5511L18.541 4.57261ZM7.94902 10V7.28115H10.602V10H7.94902Z" fill="#9326FC"/><path d="M18.5515 15.4274H15.8984V18.1462H18.5515V15.4274Z" fill="#9326FC"/></g><defs><clipPath id="clip0_2217_336"><path fill="#fff" d="M0 0H220V20H0z"/></clipPath></defs></svg>