<svg xmlns="http://www.w3.org/2000/svg" width="367" height="246" fill="none"><g clip-path="url(#A)"><path d="M122.289 49.723c-1.959 3.593-1.38 6.166 1.202 9.137 3.294 3.726 7.39 5.234 12.331 5.323-19.009 16.456-29.47 42.006-27.467 67.156.445 5.456 1.959 10.734 2.181 16.19-2.626-.621-3.695 1.952-2.626 4.125-2.449-.798-6.544 1.331-5.342 4.125l21.056 19.916c.713 1.242 7.479 8.295 7.39 8.872 0 .177-.578.576-.4.798 0 0 .356.044.534.222.935.931 2.048 1.641 2.938 2.484.668.621 2.537 3.06 3.072 3.282s.979 0 1.513.222c1.069.399 5.164 3.637 6.589 4.524.846.532 2.715 1.331 3.339 1.863.044.044.578 1.242.578 1.331 0 .532-2.582 5.633-3.071 6.52l-3.473 6.521a26.73 26.73 0 0 1-.89 1.508c-.979 1.818-2.092 3.593-2.983 5.455-.667.089-7.434-4.08-8.502-4.79-26.711-17.476-44.206-47.239-45.675-79.265l-.223-.532c.133-3.903-.178-7.851 0-11.754 1.425-28.566 15.982-55.313 37.973-73.233h-.044z" fill="#ffaf05"/><path d="M176.378 44.933c15.67-2.484 31.429-.444 45.941 5.811 1.158.488 6.5 3.415 6.99 3.46.534.089.934-.311 1.424-.311.623 0 3.072 1.153 3.205 1.02-.044-.444.624-1.952.891-2.173l1.024-.399c1.291-.222 1.78.577 2.893.843-.356-2.129 2.182-4.879 4.274-4.746.757 0 1.914 2.395 2.315 3.105 4.407 7.407 8.28 15.569 12.865 22.799 1.692 2.661 3.829 5.101 5.52 7.762.089.133.178.133.356.089.802-.177 5.075-3.016 5.432-2.75 8.992 17.743 13.577 37.969 11.173 57.885 2.538 2.484 4.63 5.633 4.986 9.271 8.859-2.484 18.52 2.971 21.057 11.754s.267 18.319-8.414 22.932c-6.232 3.327-13.31 2.617-19.187-1.109-3.338 4.303-8.547 6.609-13.934 6.742-6.722 8.339-15.269 12.997-25.196 16.634-11.842 4.303-24.707 7.053-37.306 7.629-1.647.089-5.208-.355-6.499 0-.178.045-.312.533-.579.754-.935.666-1.959.843-2.805 1.553 1.336 1.02 1.113 3.016-.311 3.814-4.096.932-9.082 3.283-13.133 3.859s-12.687-2.794-17.228-3.415c-6.455-.887-13.355-.843-19.543-3.327-.312-.133-.534-.443-.801-.576.267-.533.623-1.065.89-1.508.223 0 .445.133.668.221 6.054 2.085 11.352 2.396 17.54 3.061 5.475.577 11.307 2.883 16.783 3.681 1.558-.887 13.444-3.326 13.844-3.903.312-.443-.4-.931-.801-1.02-1.781-.355-7.167 2.173-9.304 2.351-.935-.089-1.157-1.464-.178-1.907 2.226-1.021 5.876-1.464 8.325-2.351.623-.222 4.718-2.085 4.808-2.396s-.401-.576-.624-.665c-1.691-.532-6.143 2.307-8.191 2.528-.979.089-3.561-.221-4.585-.443-1.069-.222-1.024-1.641-.178-1.908.757-.221 2.537.4 3.428.4 1.736.044 6.9-2.041 8.68-2.883 1.024-.488 4.319-1.775 1.826-2.573-2.226-.665-6.099 1.331-8.503 1.508l-11.352-3.238c-.579-.532-1.959-2.395-1.425-3.149 1.158-1.73 8.993-1.819 9.171-5.412l-.356-.31c-6.5-.222-12.688-.355-18.252 3.504-.668.488-1.736 1.641-2.271 1.907-.89.444-6.232.311-7.612.266-1.558-.044-3.25-.443-4.897-.221 0-.089-.534-1.287-.579-1.331-.623-.488-2.493-1.287-3.338-1.863-1.425-.887-5.476-4.125-6.589-4.524-.534-.222-1.024 0-1.514-.222s-2.359-2.617-3.071-3.283c-.935-.842-2.004-1.596-2.938-2.484-.179-.177-.535-.177-.535-.221-.178-.222.356-.621.401-.799.089-.576-6.678-7.629-7.39-8.871l-21.057-19.916c-1.201-2.794 2.894-4.924 5.343-4.125-1.069-2.174 0-4.746 2.626-4.125-.223-5.456-1.736-10.735-2.181-16.19-2.004-25.15 8.458-50.7 27.467-67.156-4.942-.089-9.037-1.597-12.331-5.323-2.582-2.972-3.161-5.5-1.202-9.137 1.825-1.508 3.739-2.928 5.653-4.347-.089.843.134 1.286.223 1.952-1.425.71-3.606 2.129-4.585 3.371-3.651 4.524 3.116 10.113 7.211 11.311s7.969.488 11.575-1.641c.445.133.623.621.89.887-.89 1.153-2.582 1.375-3.695 2.085-1.335.843-4.006 3.371-5.253 4.569-9.571 9.137-16.516 20.581-20.522 33.134-3.695 11.71-5.832 29.009-2.092 40.897.356 1.109 1.068.443 2.092.621-.846-3.593 2.448-4.879 4.897-2.395 1.78 1.774 1.958 5.633 3.205 7.673.579 1.02 1.87 1.641 2.582 2.307 1.38 1.286 3.65 3.859 5.119 4.79.268.178.446.266.757.222 0-3.061-2.181-6.609-.534-9.581 1.469-2.75 3.829-1.952 5.342.222 4.185 5.988 6.455 11.133 6.322 18.585 0 .488-.312 1.065-.223 1.464.044.222 3.027 2.794 3.25 2.883s.356.133.534-.089c.623-.709 4.452-5.5 4.986-5.411 8.77 7.407 18.786 13.262 30.004 16.19 14.602 3.859 29.961 2.794 44.34-1.553.667-.177.712-.842 1.068-1.286 3.472-4.036 7.078-7.895 10.462-12.02.133-.444-2.137-2.928-2.538-3.682-3.383-5.855-1.424-13.44 2.582-18.541.49-.665 2.315-2.351 2.983-2.794 2.003-1.242 2.76 0 4.941-.311 1.202-.177 5.431-1.819 6.322-2.528 1.024-.799 1.38-4.081 1.469-5.323.712-12.021-1.736-23.464-6.5-34.376-.311-.754-2.092-3.593-1.736-4.169.267-.488 2.27-.665 2.137-1.641 0-.133-1.158-2.173-1.291-2.218-.223-.133-3.74-.71-4.585-.976-5.12-1.597-9.527-5.589-12.999-9.581-1.158-1.331-2.538-2.794-1.069-4.569 2.627-3.194 8.191 1.198 10.996 1.952a1.62 1.62 0 0 0-.178-1.02c-.401-1.02-4.229-8.162-4.675-8.694-.934-1.02-4.229-2.528-5.475-3.549-3.294-2.661-2.76-7.629 2.092-5.855 0-.355.134-.798-.133-1.109-.312-.355-4.007-2.085-4.719-2.395-12.198-5.633-26.043-8.339-39.531-7.363-2.493.177-5.031.754-7.524.887.045-.577 0-1.153 0-1.73l-.133-.133zm66.063 5.678c-.801-.444-2.048 1.597-1.87 2.573.535 2.794 3.873 3.46 5.921 4.968-.4-.976-3.695-7.363-4.051-7.585v.044zm-9.17 13.75c.578 2.04 5.609 9.404 5.475 10.867 0 .222-.712 2.262-.846 2.44-.4.532-.935.399-1.513.222-1.736-.488-4.675-2.972-6.5-3.327-1.469-.311-3.828-.222-2.359 1.686 1.113 1.419 4.229 4.436 5.654 5.633 3.561 3.061 7.701 4.524 12.331 5.101l2.092 3.549 14.157-7.141-14.201-23.464c-.49.577-.935.488-1.603.266-2.849-1.02-6.411-4.524-9.26-5.766-.267-.133-.489-.222-.801-.177-.044.665 0 1.286.534 1.73l7.746 4.657c.579.798 0 1.819-.979 1.641-2.938-1.464-5.698-3.637-8.636-5.101-.49-.266-3.784-1.685-4.007-1.597-.801.177.178 1.685.356 2.085 1.87 1.242 5.431 2.173 7.034 3.548.356.311 2.671 3.504 2.715 3.859 0 .266-.311 1.02-.445 1.109-1.157.665-2.804-3.016-3.606-3.637-1.068-.843-6.099-3.194-7.657-3.903-.845-.399-1.914-.532-2.76-.931-.489 3.415 4.942 4.613 7.034 6.609l.045.044zm14.245 103.173c-2.894 2.306-7.123 3.282-10.818 3.06-1.024-.088-2.76-.709-3.606-.31l-6.455 7.274c-.133.266 1.069 2.395 1.336 2.795 4.585 6.875 14.379 8.738 21.235 4.036.757-.532 2.626-2.085 3.071-2.794.49-.754-.712-1.553-1.157-2.351-1.914-3.46-1.425-6.964.445-10.291.223-.399 1.825-2.927 2.003-3.016.579-.355 1.737.266 2.493.355 1.87.177 3.829-.266 5.253-1.553 2.627-2.306.935-2.661-.4-4.568-3.829-5.412-4.986-13.84-1.069-19.517 1.291-1.908 2.76-2.75 4.319-4.17.178-.177.578-.266.133-.532-1.291-.71-8.636-.355-10.061.444-.089.044-.267.266-.222.31 2.715.266 3.65 4.835 2.27 6.742-.534.71-1.781 1.109-1.87.133-.089-1.153 1.558-1.951.534-4.214-.4-.931-1.112-.931-1.424-1.419-.178-.266-.267-1.198-.534-1.198-.045 0-.445.488-.713.621-2.136 1.242-6.944 3.46-9.348 3.505s-2.493-1.242-4.675.975c-4.051 4.037-6.633 11.4-4.54 16.9 1.914 4.968 8.458 8.738 13.711 8.871l.089-.088zm-114.765 15.17l10.461-12.065c.267-.932-3.561-3.105-3.873-4.126-.178-.665.401-3.282.401-4.302-.089-5.278-3.205-11.089-6.233-15.303-.578-.843-1.291-1.907-2.003-.266-1.246 2.794 1.781 7.984 1.202 9.67-.222.709-3.205.842-3.739.576l-8.548-7.585c-1.558-2.617-1.38-7.718-4.718-8.694-.179.178.178 4.259.222 4.88.178 1.508.846 5.101 1.336 6.476.445 1.242 2.938 2.794 2.76 3.947-.089.754-.891.976-1.514.666-.178-.089-2.626-2.972-2.804-3.283-1.024-1.907-.98-6.032-1.826-8.161-.267-.621-.801-.932-1.469-.799-.089 4.924 1.692 9.36 2.983 13.973-.178.798-1.068 1.33-1.692.621-.712-1.375-2.315-9.093-3.249-9.537-.179-.089-.802-.177-.891-.089-.222.222.891 3.283 1.024 3.859.089.444 0 .887.134 1.375.356 1.42 2.136 5.988 1.869 7.009-.044.177-.578.088-.445.443 3.829 3.726 7.746 7.363 11.441 11.222.356.355.846.577 1.202.976 2.493 2.617 4.63 5.722 7.078 8.383.178.178.535.311.757.178l.134-.044zm-22.259-22.578c-.49-1.641-1.068-5.456-2.404-6.387s-3.428-.799-3.383.976l5.787 5.456v-.045zm192.849 14.771c-.312-.178-.579.133-.445.222.311.177.578-.133.445-.222zm-.891.887l-2.715 1.952c-5.12 3.371-11.219 3.681-16.828 1.33-1.024-.443-2.493-1.951-2.715-.177 6.099 4.302 14.601 3.992 20.3-.843.267-.222 2.181-2.04 1.958-2.262z" fill="#000"/><path d="M234.828 52.784c-.267.222-.935 1.73-.89 2.173-.134.133-2.582-1.02-3.206-1.02-.534 0-.89.399-1.424.311-.49-.044-5.832-2.972-6.989-3.46-14.513-6.254-30.272-8.339-45.942-5.811.133-3.593-.356-7.629-1.291-11.089 21.546-1.109 42.87 5.811 59.787 18.896h-.045z" fill="#ffaf05"/><path d="M149.133 199.248c1.647-.221 3.339.178 4.897.222 1.425 0 6.722.222 7.612-.266.49-.266 1.559-1.419 2.271-1.907 5.564-3.859 11.752-3.682 18.252-3.504l.356.31c-.178 3.593-8.013 3.682-9.171 5.412-.534.754.846 2.617 1.425 3.149l11.352 3.238c2.404-.222 6.277-2.174 8.503-1.508 2.537.754-.802 2.084-1.825 2.572-1.781.843-6.901 2.928-8.681 2.884-.891 0-2.671-.621-3.428-.4-.846.266-.891 1.642.178 1.908 1.024.221 3.561.532 4.585.443 2.048-.222 6.5-3.06 8.191-2.528.267.089.713.355.624.665s-4.185 2.174-4.808 2.395c-2.449.888-6.099 1.331-8.325 2.351-.979.444-.757 1.819.178 1.908 2.137-.178 7.523-2.706 9.304-2.351.445.089 1.113.576.801 1.02-.4.577-12.286 3.016-13.844 3.903-5.476-.798-11.308-3.105-16.783-3.681-6.233-.666-11.53-.932-17.54-3.061l2.849-6.742c.445-.887 3.072-5.988 3.072-6.52l-.045.088zm27.245-152.585c2.537-.133 5.03-.665 7.523-.887 13.489-.976 27.334 1.73 39.531 7.363.757.355 4.408 2.04 4.719 2.395s.089.754.134 1.109c-4.808-1.774-5.387 3.238-2.092 5.855 1.291 1.02 4.585 2.528 5.475 3.549.49.532 4.274 7.674 4.674 8.694.134.355.223.665.179 1.02-2.805-.754-8.414-5.145-10.996-1.952-1.469 1.774-.089 3.238 1.068 4.569 3.473 3.948 7.88 7.984 12.999 9.581-3.65.798-7.523.798-11.263.665-4.006-.133-7.523-.444-11.218-2.085-3.161-1.375-5.164-3.859-8.859-4.214-4.051-.399-10.506 1.641-12.376 5.5-.979 2.085.178 3.859-.935 5.589-1.914 2.928-6.187 2.794-9.126 4.169-.667.311-2.092.976-2.092 1.819 0 1.73 7.078 5.545 8.681 6.743 2.448 1.818 6.321 5.189 8.058 7.629 2.715 3.859-1.291 3.948-4.141 3.504-3.472-.532-4.407-1.286-7.033-3.194-5.476-3.992-9.705-3.105-14.201 1.73-4.764 5.146-9.438 12.864-1.914 18.009 2.403 1.641 4.051 1.685 5.075 4.923 1.201 3.859-.891 10.335-1.291 14.549-.357 3.638-.802 12.775 1.647 15.525 1.513 1.73 2.804 1.02 4.496.089 2.048-1.109 3.962-3.017 5.565-4.658 5.564-5.899 10.684-12.686 16.07-18.762.312-.71.846-1.509.98-2.263.623-3.637-1.158-3.459-2.404-5.988-1.069-2.262-2.226-8.96 1.647-8.871 2.493.044 6.01 5.057 8.102 5.456 3.428.621 6.366-4.613 9.393-1.508 2.315 2.351.757 6.831 4.274 9.226 3.205 2.173 5.832-.311 9.126.754-4.007 5.101-5.966 12.686-2.582 18.541.445.754 2.671 3.238 2.537 3.681-3.383 4.081-6.989 7.985-10.461 12.021-.401.444-.401 1.153-1.069 1.286-14.379 4.347-29.737 5.456-44.339 1.553-11.218-2.972-21.19-8.783-30.004-16.19-.535-.089-4.363 4.702-4.986 5.411-.178.266-.312.178-.535.089s-3.205-2.661-3.249-2.883c-.134-.399.178-.976.222-1.464.134-7.452-2.137-12.597-6.321-18.585l6.232-17.832c.668-3.415-.4-6.653-3.071-8.915-4.319-3.682-10.061-6.742-14.602-10.246-.223-1.775-2.538-6.432-2.315-7.896.134-.71 4.318-5.766 4.941-5.944 1.915.089 3.829.931 5.699 1.198 6.544 1.02 15.002-2.75 20.834-5.633 5.253-2.573 5.653-6.831 2.849-11.71-.757-1.286-1.959-2.794-3.651-2.573-1.513.222-5.075 4.081-5.92 3.859-.668-.177-1.959-5.589-2.182-6.565-.4-1.73-.801-3.504-1.024-5.278.134-.843 3.339-3.149 3.918-4.036 6.855 4.436 15.447 4.169 21.591-1.286 1.291 4.879-.267 13.573 7.701 11.666 5.832-1.375 10.328-5.678 13.355-10.601.935-1.553 2.449-3.593 2.271-5.456-.223-2.173-2.137-3.282-4.185-3.46-4.541-.399-9.349.577-13.845.887 1.158-2.395 2.36-6.742 2.627-9.359l.089.089z" fill="#fff"/><path d="M239.637 87.959c.845.266 4.362.843 4.585.976.089.044 1.246 2.085 1.291 2.218.133.931-1.825 1.153-2.137 1.641-.312.532 1.425 3.415 1.736 4.169 4.808 10.911 7.212 22.355 6.5 34.376-.089 1.242-.446 4.524-1.469 5.323-.935.709-5.12 2.395-6.322 2.528-2.181.266-2.893-.931-4.941.31-.668.4-2.493 2.13-2.983 2.795-3.294-1.109-5.965 1.375-9.126-.754-3.517-2.395-1.959-6.875-4.274-9.226-3.027-3.105-5.92 2.129-9.393 1.508-2.048-.355-5.609-5.367-8.102-5.456-3.873-.089-2.76 6.609-1.647 8.871 1.202 2.529 3.027 2.351 2.404 5.988-.134.799-.712 1.553-.979 2.263-5.387 6.076-10.507 12.863-16.071 18.762-1.603 1.686-3.517 3.549-5.565 4.658-1.691.931-2.982 1.641-4.496-.089-2.404-2.794-1.959-11.887-1.647-15.525.4-4.214 2.493-10.69 1.291-14.549-1.024-3.282-2.671-3.282-5.075-4.923-7.524-5.145-2.849-12.863 1.914-18.009 4.452-4.835 8.725-5.722 14.201-1.73 2.627 1.908 3.561 2.662 7.034 3.194 2.849.444 6.9.355 4.14-3.504-1.736-2.44-5.609-5.811-8.058-7.629-1.602-1.198-8.681-5.013-8.681-6.743 0-.843 1.425-1.508 2.093-1.819 2.938-1.375 7.212-1.242 9.126-4.169 1.113-1.73 0-3.504.935-5.589 1.869-3.859 8.324-5.899 12.375-5.5 3.695.355 5.699 2.839 8.859 4.214 3.695 1.641 7.212 1.952 11.219 2.085 3.739.133 7.612.133 11.263-.665zm-92.685-23.687c-.624.887-3.829 3.149-3.918 4.036.223 1.774.623 3.549 1.024 5.278.223.931 1.514 6.343 2.181 6.565.846.222 4.363-3.637 5.921-3.859 1.692-.222 2.894 1.286 3.651 2.573 2.804 4.879 2.404 9.137-2.849 11.71-5.877 2.839-14.335 6.653-20.835 5.633-1.825-.266-3.784-1.109-5.698-1.198-.667.177-4.852 5.278-4.941 5.944-.267 1.464 2.092 6.121 2.315 7.895 4.54 3.504 10.283 6.565 14.601 10.247 2.671 2.262 3.74 5.5 3.072 8.915l-6.232 17.831c-1.514-2.173-3.873-2.971-5.342-.221-1.603 2.971.534 6.52.534 9.581-.356.044-.49 0-.757-.222-1.469-.932-3.739-3.504-5.119-4.791l-1.559-13.972c-3.472-5.633-7.968-9.803-7.345-16.988.134-1.686 2.092-8.295 3.161-9.448l2.092-1.42-6.989-7.274c3.962-12.597 10.907-23.997 20.522-33.134 1.247-1.198 3.873-3.726 5.253-4.569 1.113-.71 2.805-.931 3.695-2.085.891.887 2.627 2.351 3.695 3.061l-.133-.089z" fill="#055fff"/><path d="M113.786 100.999l6.989 7.275-2.092 1.419c-1.068 1.153-3.027 7.807-3.161 9.448-.578 7.186 3.873 11.355 7.346 16.988l1.558 13.973c-.757-.71-2.003-1.287-2.582-2.307-1.202-2.04-1.425-5.899-3.205-7.673-2.449-2.484-5.788-1.198-4.897 2.395-1.069-.178-1.781.532-2.093-.621-3.694-11.932-1.602-29.187 2.093-40.897h.044zm119.485-36.638c-2.093-1.996-7.479-3.194-7.034-6.609.89.355 1.914.532 2.76.931l7.657 3.903c.801.621 2.448 4.303 3.606 3.637.133-.089.49-.843.445-1.109-.044-.31-2.315-3.548-2.715-3.859-1.603-1.331-5.164-2.306-7.034-3.548-.178-.399-1.202-1.952-.356-2.085.267-.044 3.517 1.375 4.006 1.597 2.894 1.464 5.698 3.637 8.637 5.101.979.177 1.558-.843.979-1.641l-7.746-4.657c-.49-.444-.579-1.065-.534-1.73.311-.044.534.044.801.177 2.894 1.198 6.41 4.746 9.26 5.766.667.222 1.068.311 1.602-.266l14.201 23.464-14.156 7.141-2.093-3.549c-4.629-.577-8.769-2.04-12.331-5.101-1.424-1.242-4.585-4.214-5.654-5.633-1.469-1.907.846-1.996 2.36-1.686 1.825.355 4.763 2.839 6.499 3.327.579.133 1.113.266 1.514-.222.134-.177.846-2.218.846-2.44.133-1.464-4.897-8.827-5.476-10.867l-.044-.044zm9.171-13.75c.356.222 3.65 6.609 4.051 7.585-2.048-1.553-5.387-2.173-5.921-4.968-.178-.976 1.068-3.061 1.87-2.573v-.044z" fill="#fff"/><path d="M168.543 62.986c1.958-1.73 4.095-4.613 5.253-6.964 4.54-.311 9.304-1.286 13.844-.887 2.048.177 3.962 1.242 4.185 3.46.223 1.907-1.291 3.903-2.27 5.456-3.027 4.924-7.524 9.226-13.355 10.601-7.925 1.907-6.411-6.787-7.702-11.666h.045z" fill="#055fff"/><path d="M132.75 182.704c-.222.133-.579 0-.757-.178-2.448-2.706-4.54-5.766-7.078-8.383-.356-.399-.846-.577-1.202-.976-3.739-3.815-7.612-7.452-11.441-11.222-.133-.399.401-.266.445-.444.268-1.064-1.469-5.633-1.869-7.008-.134-.444-.045-.932-.134-1.375-.133-.577-1.291-3.637-1.024-3.859.089-.089.668 0 .891.089.934.443 2.537 8.161 3.249 9.536.668.666 1.514.133 1.692-.621-1.291-4.613-3.072-9.093-2.983-13.972.668-.089 1.202.177 1.469.798.846 2.13.802 6.255 1.826 8.162.178.31 2.626 3.194 2.804 3.282.623.311 1.425.089 1.514-.665.178-1.153-2.315-2.75-2.76-3.948-.49-1.375-1.158-4.968-1.336-6.476-.089-.576-.4-4.702-.222-4.879 3.294.932 3.16 6.077 4.718 8.694l8.548 7.585c.534.266 3.517.133 3.739-.577.579-1.73-2.448-6.875-1.202-9.669.713-1.597 1.38-.577 2.004.266 3.027 4.214 6.187 10.024 6.232 15.303 0 1.02-.579 3.637-.401 4.302.312 1.02 4.14 3.194 3.873 4.125l-10.461 12.065-.134.045zm-22.258-22.578l-5.787-5.456c-.045-1.774 2.092-1.863 3.383-.976s1.914 4.791 2.404 6.388v.044zm137.024 7.408c-5.253-.089-11.753-3.859-13.712-8.872-2.136-5.5.49-12.863 4.541-16.899 2.226-2.218 2.181-.887 4.674-.976s7.212-2.307 9.349-3.504c.223-.133.623-.621.712-.621.267 0 .356.931.535 1.197.356.488 1.023.444 1.424 1.42.979 2.306-.668 3.06-.534 4.214.089.975 1.335.576 1.87-.134 1.38-1.907.445-6.431-2.271-6.742-.044-.044.134-.266.223-.31 1.38-.754 8.77-1.153 10.061-.444.445.222 0 .355-.134.533-1.558 1.463-3.027 2.306-4.318 4.169-3.873 5.678-2.716 14.105 1.068 19.517 1.38 1.951 3.028 2.262.401 4.568-1.424 1.287-3.383 1.686-5.253 1.553-.757-.089-1.914-.665-2.493-.355-.133.089-1.781 2.617-2.003 3.016-1.825 3.327-2.36 6.831-.445 10.291.445.798 1.647 1.641 1.157 2.351s-2.315 2.262-3.072 2.794c-6.855 4.702-16.649 2.839-21.234-4.036-.267-.399-1.469-2.528-1.336-2.795l6.455-7.274c.801-.355 2.582.266 3.606.311 3.695.266 7.88-.71 10.818-3.061l-.089.089zm.489-24.84c1.024 1.02 3.517-1.02 1.469-1.597-.801-.221-2.27.843-1.469 1.597zm-11.708 6.166c-.267.088-.356.266-.356.532-.133 1.819 5.698 2.306 5.031.222-.267-.754-1.692-.133-2.271-.133-.757 0-1.558-.887-2.404-.621z" fill="#fff"/><path d="M236.297 148.86c.801-.266 1.602.576 2.404.621.534 0 2.003-.621 2.27.133.668 2.04-5.164 1.597-5.03-.222a.53.53 0 0 1 .356-.532zm11.708-6.166c-.801-.754.668-1.818 1.469-1.597 2.048.577-.445 2.573-1.469 1.597zm-72.919-108.85c.935 3.46 1.425 7.496 1.291 11.089 0 .577.045 1.198 0 1.73-.222 2.617-1.469 6.964-2.626 9.359s-3.294 5.234-5.253 6.964c-6.144 5.456-14.735 5.722-21.591 1.286-1.068-.71-2.805-2.129-3.695-3.061-.267-.266-.445-.71-.89-.887l-3.473-4.879c-2.493-.089-4.14 0-6.41-1.242-2.76-1.552-3.918-3.859-4.318-6.919-.089-.665-.312-1.109-.223-1.952.178-1.73 1.38-3.815 2.538-5.101-10.64-17.742 8.458-38.723 27.244-29.497.579.311 2.894 1.907 3.072 1.952.401.089 2.582-.266 3.428-.178 7.657.665 12.687 8.295 10.862 15.613-.178.71-1.158 2.617-1.158 2.972 0 .532.891 2.085 1.069 2.706l.133.044zm-1.958.887c-2.493-8.96-10.195-17.876-20.3-17.166.133 6.077-3.473 12.597-7.969 16.501-.579.488-3.205 2.173-3.339 2.528-.044.177-.311 1.996-.267 2.085 0 .177 3.028 1.552 2.182 2.928-.668 1.02-2.627-.976-3.295-1.331-2.715-1.331-6.455-.665-8.413 1.685-4.185 4.835-.356 12.198 6.009 11.621 1.113-.089 4.586-2.04 4.497-.133-.045 1.153-1.113.754-1.113 1.331 0 1.064 3.65 5.057 4.585 5.855 8.28 7.23 19.142 6.077 25.063-3.327 2.938-4.702 3.918-10.468 3.74-15.924-.401-.133-.579.444-.935.399-.712-.044-.846-1.198-1.87-1.419-.757-.133-2.537.577-2.804-.222-.535-1.641 1.513-1.907 2.715-1.819s1.825.621 2.716 1.331c-.134-.355-.134-1.508-.267-1.686-.223-.31-4.719-1.996-4.007-3.726 1.068-.665 2.137.177 3.161.444l-.089.044z" fill="#000"/><path d="M128.165 47.328c.356 3.061 1.514 5.367 4.319 6.92 2.225 1.242 3.917 1.109 6.41 1.242l3.472 4.879c-3.606 2.129-7.479 2.794-11.574 1.641s-10.862-6.787-7.212-11.311c.979-1.242 3.161-2.661 4.585-3.371zm44.963-12.597c-1.024-.266-2.092-1.109-3.161-.444-.712 1.774 3.829 3.415 4.007 3.726.134.222.134 1.331.267 1.685-.89-.71-1.514-1.242-2.715-1.331s-3.25.178-2.716 1.819c.267.798 2.048.089 2.805.222 1.023.222 1.202 1.331 1.869 1.419.356 0 .534-.532.935-.399.134 5.456-.801 11.222-3.739 15.924-5.877 9.404-16.783 10.557-25.063 3.327-.935-.843-4.586-4.79-4.586-5.855 0-.577 1.024-.177 1.113-1.331.089-1.952-3.383 0-4.496.133-6.322.577-10.15-6.786-6.01-11.621 2.003-2.306 5.698-3.016 8.414-1.685.668.31 2.671 2.351 3.294 1.331.89-1.375-2.137-2.75-2.181-2.928 0-.089.222-1.907.267-2.085.133-.355 2.76-2.04 3.339-2.528 4.496-3.903 8.102-10.424 7.968-16.501 10.106-.71 17.807 8.25 20.3 17.166l.089-.044zm-15.759-.577c-1.113.089-4.14.843-4.674 1.907-.401.843.935 1.375 1.602 1.464 1.291.222 2.716 0 3.918-.31 4.674-1.242 3.65-3.46-.89-3.061h.044zm9.393 2.573c-.49-.31-1.647 0-1.691.71-.134 1.508 1.112 4.436 1.068 6.077 0 1.02-2.003 2.839-.312 3.149 1.915.355 2.36-2.395 2.271-3.77-.045-.754-1.024-5.988-1.336-6.166zm-5.654 4.036s.268-.754.268-.976c0-1.109-1.826-1.331-2.716-1.153-1.202.177-4.051 2.395-2.626 3.46 1.068.754 1.38-.399 1.958-.843 1.38-1.153 2.538-.089 3.116-.444v-.044zm5.209 7.94c-.757-.754-1.959.355-2.849.31-.801-.044-2.137-1.774-2.849-.577-.757 1.286 1.068 2.44 2.181 2.573 1.202.133 5.12-.71 3.517-2.307z" fill="#fff"/><path d="M157.369 34.154c4.497-.399 5.52 1.819.891 3.061-1.247.31-2.671.532-3.918.31-.668-.133-2.003-.621-1.602-1.464.489-1.065 3.561-1.774 4.674-1.907h-.045zm9.394 2.573c.267.177 1.246 5.456 1.335 6.166.089 1.375-.356 4.125-2.27 3.77-1.692-.31.311-2.129.311-3.149 0-1.641-1.202-4.613-1.068-6.077.044-.71 1.246-1.02 1.692-.71zm-.446 11.976c1.603 1.597-2.315 2.484-3.517 2.307-1.113-.133-2.983-1.331-2.181-2.573.712-1.198 2.048.532 2.849.577.89.044 2.092-1.064 2.849-.31zm-5.208-7.94c-.623.399-1.736-.665-3.116.444-.535.444-.846 1.641-1.959.843-1.469-1.065 1.38-3.238 2.626-3.46.891-.133 2.716.044 2.716 1.153 0 .177-.178.887-.267.976v.044zM78.217 164.606c-.757.887-2.226-1.02-3.116-1.774-1.647-1.375-6.989-4.391-8.77-5.101-4.763-1.819-9.794-3.504-14.023-2.794-1.068.177-2.003 1.242-3.027-1.154-3.65-8.427-5.075-15.524-5.164-23.375 0-1.686.178-3.283.134-4.968-.089-2.351-1.38-7.896 2.137-6.21 2.048.976 4.541 2.75 6.633 3.903 5.743 3.194 10.862 5.412 16.56 7.408 1.335.443 4.318.621 4.407 3.238.044 1.596-.49 3.77-.579 5.411-.401 7.097 2.315 15.747 4.541 23.42.089.266.356.577.445.932.045.31 0 .798-.178.976v.088zm-15.804-23.198c-.712-.266-1.158.133-1.781 0-1.603-.311-4.318-1.952-6.054-2.395-.401-.089-1.068-.266-1.024.355 0 .621 1.603 1.064 2.003 1.241 1.202.533 4.274 1.863 5.297 2.085.623.133 1.113-.266 1.692-.044.579.177 1.202.887 1.736 1.02 1.38.266.668-2.173 0-2.44-.623-.221.089 1.198-.223 1.198-.49-.355-1.113-.843-1.603-1.02h-.044zm-5.921 3.238c.356.355 2.76 1.198 3.383 1.464 1.424.665 3.828 1.996 5.164 2.262.534.089.757-.133.133-.621-.49-.399-2.404-1.153-3.161-1.553-1.425-.798-3.561-2.217-4.941-2.705-.312-.089-.668-.178-.846 0-.312.266-.178.709.267 1.153z" fill="#000"/><path d="M64.015 142.428c-.49-.355-1.113-.843-1.603-1.02-.712-.266-1.157.133-1.781 0-1.603-.311-4.318-1.952-6.054-2.395-.401-.089-1.068-.266-1.024.355 0 .621 1.603 1.064 2.003 1.242l5.298 2.084c.623.133 1.113-.266 1.692-.044s1.202.887 1.736 1.02c1.38.266.668-2.173 0-2.44-.623-.221.089 1.198-.223 1.198h-.044zm-7.789 1.065c-.312.266-.178.709.267 1.153.356.355 2.76 1.198 3.383 1.464 1.425.665 3.828 1.996 5.164 2.262.534.089.757-.133.134-.621-.49-.399-2.404-1.153-3.161-1.553-1.425-.798-3.561-2.217-4.941-2.705-.312-.089-.668-.178-.846 0zm-2.182-12.464c-.356.576.712 1.108 1.068 1.286 1.291.665 2.493.976 3.784 1.508 1.38.577 2.805 1.331 4.185 1.73.178-.178.134-.577-.178-.799l-4.229-1.951c-.668-.311-1.336-.488-2.048-.799-.49-.221-2.003-1.153-2.359-1.109-.044 0-.178 0-.178.089l-.044.045z" fill="#fff"/><path d="M29.515 244.004c-.579-.044-1.825-.665-2.626-.843l-2.27-.31c-1.113-.266-4.006-1.198-5.164-1.021-1.335.222-1.469 1.021-1.959 1.198-.312.089-3.161-.266-3.918-.266-2.983.089-6.544.71-9.571.887-2.092.133-4.63.133-3.962-1.863.178-.488.801-1.552 1.068-2.085 2.76-5.189 5.342-9.448 7.123-14.815 2.493-7.451 4.007-13.972 2.226-20.891-.223-.843-.801-1.597-1.024-2.484-.089-.444 0-1.109-.089-1.509-.134-.354-1.024-.665-.223-1.197.134-.133 1.647-.71 1.959-.843 7.301-2.706 16.071-5.633 23.639-7.097 4.363-.843 9.037-1.286 13.4-2.528 1.558-.444 5.209-2.129 6.232-1.242 1.202 1.064 2.092 4.169 2.671 5.633 3.428 8.738 3.65 17.743 1.736 27.545-.49 2.529-1.157 5.101-2.315 7.63-2.137 4.657-5.431 9.359-8.369 13.927-.757 1.154-1.202 2.795-2.849 3.638-.935.488-1.825.576-2.76.532-4.051-.177-6.811-1.464-10.461-1.907-.846-.089-1.781 0-2.493-.045v-.044z" fill="#000"/><path d="M22.437 202.619l2.092 2.795c1.246-1.02.935-3.371 2.493-4.125 1.247-.577 1.558 1.109 2.226 1.508.49.31 1.914-.311 2.627-.399 1.87-.311 6.544-.887 8.058-1.952.401-.266.623-.665 1.113-1.02.935-.621 4.63-2.129 4.14-.266-.267 1.02-2.137 1.419-2.938 1.951-2.671 1.73-3.606 2.307-6.678 2.928-.801.177-6.633 1.109-6.945 1.02-.312-.044-.846-.532-1.157-.399-.445.222-.89 2.085-2.671 2.573-1.959.532-2.849-1.73-3.205-3.061-.223-.798-.223-1.286.89-1.641l-.045.088zm2.047 16.59c.356-.311.579-.178.89-.222 2.805-.133 5.832.31 8.725-.444 1.692-.443 3.161-1.375 4.808-1.907 1.069-.355 1.959-.266 2.849-.488.935-.222 3.383-1.597 2.938.355-.178.665-1.825 1.331-2.582 1.552s-1.647.089-2.493.267c-1.335.31-2.715 1.064-4.051 1.508-2.894.931-5.743.709-8.369.222l-2.76-.888.045.045zm.668-4.924l1.157-.488c2.181-.576 5.342-.399 7.835-.931 3.116-.71 6.232-1.996 9.304-2.972 2.404.044 1.335 1.464-.534 2.262-2.671 1.198-7.702 2.307-10.461 2.573-.801.088-6.633.31-6.9.133-.178-.089-.49-.488-.445-.577h.044z" fill="#fff"/><path d="M315.093 48.969c.045-.444.49-.798.535-1.109 2.27-9.936 5.075-21.025 3.071-31.271-.489-2.395-1.78-5.678-2.003-7.94-.401-3.726 4.63-2.617 6.811-2.706 9.26-.355 17.451-1.242 26.532-3.238 3.339-.754 7.123-2.173 10.417-2.661 5.61-.798 4.541 6.432 4.808 9.758.223 2.395.846 4.702 1.158 7.097 1.38 11.089.4 20.581-4.096 30.872-1.246 2.928-3.072.976-4.897.266-7.301-2.839-15.447-2.617-23.149-2.173-2.849.177-11.263 2.173-13.8 3.371-1.336.621-3.428 2.706-4.897 1.109-.267-.31-.534-1.065-.534-1.464l.044.089zm20.078-23.731c-.446-.133.4-1.819-.579-1.774-1.158.044-1.87 3.238.445 3.46.935.089 1.87-.621 2.76-.665s1.825.754 2.849.798c1.692.133 6.589-.444 8.548-.665.578-.089 3.116-.044 3.116-.887s-1.158-.931-1.825-.976c-2.85-.177-7.123.976-9.75.754-1.024-.089-1.825-.843-2.982-.798-.846 0-1.737.444-2.538.754h-.044zm13.399 4.879c-.356-.31-.979-.355-1.424-.355-2.226.089-5.52 1.198-7.791 1.685-1.157.266-4.229.532-4.986.843-.979.399-.578.843.312.931 2.181.222 5.965-.665 8.28-.931 1.024-.133 4.897-.266 5.431-.621.623-.444.802-1.02.223-1.553h-.045zM290.609 84.1c.267 0 .4-.133.578-.133 5.832.089 12.287 0 19.41 2.262 1.647.532 4.096 1.597 5.609 1.952 2.493.665.579-1.996.089-3.061-2.048-4.569-3.428-8.561-4.318-12.819-.312-1.597-.312-3.282-.801-4.879-.846-2.706-5.209-3.016-7.435-3.593-1.602-.399-3.249-1.02-4.852-1.464-7.479-2.04-13.355-2.706-18.92-1.73-1.558.266.089 1.419.979 2.395 3.606 3.992 5.432 8.029 6.99 11.799.578 1.419 1.335 5.367 1.157 6.476-.089.577-.935 1.375.49 2.307a3.65 3.65 0 0 0 1.068.444l-.044.044zm10.461-7.097c.178.222 1.069 0 1.291.488.223.577-1.647.532-2.315-.621-.267-.488-.044-.843-.267-1.286-.178-.444-.89-1.02-1.202-1.508-.489-.843-1.291-3.238-1.647-4.169-.089-.266-.712-1.553-.178-1.419s.89.71 1.068 1.02c.802 1.419 1.069 3.415 1.87 4.746.312.532.98 1.02 1.247 1.597.178.444.133.843.133 1.198v-.044zm-6.41-7.274c.311.222.445.532.578.754.49 1.109.579 2.617.802 3.682.133.532.712 2.04.668 2.395 0 .444-.401.177-.668-.266-.668-1.109-1.024-2.883-1.425-3.992-.178-.488-1.024-2.395-.935-2.617.134-.266.446-.266.935.089l.045-.044z" fill="#000"/><path d="M301.07 77.003c0-.355.045-.754-.133-1.198-.267-.577-.935-1.065-1.247-1.597-.801-1.331-1.068-3.327-1.869-4.746-.178-.31-.49-.887-1.069-1.02s.089 1.153.178 1.419l1.647 4.169c.312.532 1.024 1.065 1.202 1.508s0 .798.223 1.286c.712 1.153 2.582 1.198 2.315.621-.223-.488-1.113-.266-1.291-.488l.044.044zm-6.41-7.275c-.49-.355-.801-.355-.935-.089-.089.222.757 2.129.935 2.617.356 1.109.757 2.883 1.425 3.992.267.444.667.71.667.266 0-.355-.534-1.863-.667-2.395-.223-1.065-.312-2.573-.802-3.682-.089-.222-.267-.532-.578-.754l-.045.044zm10.462 1.42c-.757-.444-.579.355-.49.621.223.976.757 1.952 1.157 2.972.401 1.065.668 2.174 1.202 3.238.312.222.624.266.624.044-.446-1.109-.713-2.174-1.069-3.282l-.623-1.597c-.134-.399-.312-1.508-.579-1.819-.044-.089-.133-.133-.222-.177z" fill="#fff"/></g><defs><clipPath id="A"><path fill="#fff" d="M0 0h367v246H0z"/></clipPath></defs></svg>