<svg xmlns="http://www.w3.org/2000/svg" width="50" height="19" fill="none"><g clip-path="url(#A)"><path d="M26.526.517h-5.147L13.58 18.555h5.147L26.526.517zm-6.048 0h-4.669l-3.74 8.701.478-8.701h-4.72L0 18.555h4.696l3.767-8.673-.478 8.673h4.669L20.478.517zm12.096 0h-5.04l-7.799 18.038h5.04l3.262-7.559v7.559h14.164l1.882-4.349h-4.19l1.194-2.759h3.819l1.751-4.032h-3.819l1.115-2.573h4.191L50 .517h-9.124l-7.559 17.426-.503-8.646L40.37.517h-4.961l-5.783 6.871L32.574.517z" fill="#6b6b6c"/></g><defs><clipPath id="A"><path fill="#fff" transform="translate(0 .517)" d="M0 0h50v18.038H0z"/></clipPath></defs></svg>