<svg xmlns="http://www.w3.org/2000/svg" width="100" height="27" fill="none"><g clip-path="url(#A)" fill="#6b6b6c"><path d="M22.932 9.865c2.433.15 3.689-4.759.161-3.874-1.989.499-2.313 3.742-.161 3.874zm72.157 10.332c.195-2.71.993-4.817 1.614-7.103.888-.081 2.115.178 2.744-.162.294-.562.718-1.69.484-2.26h-2.744c.376-1.792 1.253-3.408.807-5.65C96.737-1.304 85.148-.1 85.565 7.605c.06 1.114.504 1.601.807 2.906-4.255-.663-6.772 3.096-4.843 5.973 1.249 1.864 5.793 1.559 5.65 3.551-.14 1.947-4.184 1.249-5.004.161.186-.549.508-1.141.161-1.776-1.693-1.571-2.32.46-3.228 1.291-2.153 1.968-7.676 2.239-7.103-1.776 4.194 1.151 8.72-.848 7.749-5.004-1.017-4.349-8.028-1.911-9.524 0-.625.797-.631 2.36-1.776 2.26 1.835-5.133-4.683-5.755-6.296-2.744-.06-.639.521-1.172.161-1.614h-2.906c-1.032 2.045-.638 4.465-1.776 6.941-1.338 2.907-8.281 5.453-8.394.161 3.601 1.019 8.828-.379 7.748-5.004-.859-3.669-7.088-2.785-9.363-.161-1.127 1.298-1.261 2.715-1.776 4.681-.389 1.477-2.349 4.822-3.874 2.744.195-2.71.993-4.817 1.614-7.103.836-.078 2.003.174 2.583-.162.363-.552.518-1.311.484-2.26h-2.583a55.87 55.87 0 0 0 1.13-4.52c-.951-.42-2.107.228-3.067.323-.642 1.188-.647 3.012-1.291 4.197h-1.937c-.404.565-.555 1.382-.646 2.26.378.429 1.734-.119 2.098.323-1.219 2.559-.567 7.815-4.197 7.426-1.225-2.811 2.812-7.171.162-9.524-1.472-1.306-4.56-.316-5.65.646.048-.378.315-.667 0-.969h-2.906c-.805 2.194-1.461 7.919-3.229 9.363-.715.583-2.058 1.13-2.421 0 .326-3.44 1.414-6.118 2.098-9.201-.731-.345-2.077-.076-3.067-.161-.349 3.043-5.041 12.188 0 12.591 1.753.14 2.788-1.019 3.713-1.453.055.5-.375.772 0 1.13h2.906c1.719-3.445.397-9.933 5.488-10.008 2.003 1.81-2.061 6.723-.323 9.363 1.236 1.879 4.559.759 5.973-.646 1.333 3.201 6.355.883 7.264-1.13 1.356 3.997 8.554 2.738 10.493.646.052.675-.567 1.253-.161 1.776h2.744c1.695-3.377 1.314-10.338 6.134-10.008.136.402.212.865.161 1.453-1.296-.069-1.915.413-1.937 1.291-.069 2.567 3.74.376 5.004 1.453-1.608 6.864 7.828 7.335 11.138 4.036 2.452 3.464 11.255 2.681 10.493-2.583-.42-2.89-6.514-2.962-6.296-5.004.113-1.064 1.898-1.579 3.229-.969.936.429 1.698 2.773 3.229 1.291.454-3.107-2.299-3.12-2.744-5.65-.583-3.308 1.419-5.374 3.229-5.65 4.176-.639 5.295 3.898 3.067 7.91H92.02c-.35.618-.502 1.437-.646 2.26.378.429 1.734-.119 2.099.323-.139 2.702-3.285 7.429-.969 9.524 2.583 2.337 7.557-1.072 7.103-4.197-2.174-.323-2.434 3.905-4.52 1.614zm-18.564-6.134c.384 1.973-2.22 2.991-4.358 2.098-.539-2.56 3.879-4.557 4.358-2.098zm-23.084-.807c1.282 2.425-1.795 3.963-4.036 2.906.113-2.11 1.848-3.897 4.036-2.906zM19.542 7.928C18.854 2.935 13.872.393 8.565.987 4.368 1.457.183 4.853.009 9.704c-.108 2.964.733 5.187 3.551 5.811 1.222-2.158-.394-2.633-.646-4.197C1.88 4.921 10.295.554 14.699 5.023c3.048 3.095 1.041 12.611-3.874 11.623C6.118 15.7 13.13 8.124 9.372 6.638c-3.054-1.209-4.677 3.697-3.229 6.134-.849 4.192-2.678 8.141-1.937 13.398 2.4-1.742 3.211-5.077 3.874-8.556 1.206.733 1.852 1.495 3.39 1.614 5.676.439 8.846-5.664 8.071-11.3z"/></g><defs><clipPath id="A"><path fill="#fff" transform="translate(0 .902)" d="M0 0h100v25.268H0z"/></clipPath></defs></svg>