<svg xmlns="http://www.w3.org/2000/svg" width="228.825" height="110.395" viewBox="0 0 228.825 110.395"><g transform="translate(-851.807 -2127.438)"><path d="M0,73.184,8.792,51.746,0,30.308l21.247-8.871L30.039,0,51.286,8.871,72.533,0l8.792,21.438,21.247,8.871L93.78,51.746l8.792,21.438L81.325,82.055l-8.792,21.438L51.286,94.622l-21.247,8.871L21.247,82.055Z" transform="rotate(4.01 -29907.02 13845.028)" fill="#e0f2ff"/><ellipse cx="46.691" cy="46.494" rx="46.691" ry="46.494" transform="translate(963.235 2136.143)" fill="#e0f2ff"/><path d="M17.721,50.631A2.532,2.532,0,0,1,15.189,48.1V40.505H5.063A5.063,5.063,0,0,1,0,35.442V5.063A5.062,5.062,0,0,1,5.063,0H45.568a5.063,5.063,0,0,1,5.063,5.063V35.442a5.063,5.063,0,0,1-5.063,5.063H30.126L20.759,49.9a2.579,2.579,0,0,1-1.772.734H17.721m2.532-15.189v7.8l7.8-7.8H45.568V5.063H5.063V35.442Z" transform="rotate(9 -13083.56 7617.914)" fill="#fd9500"/><path d="M32.561,0C14.653,0,0,11.657,0,26.049S14.653,52.1,32.561,52.1A41.192,41.192,0,0,0,44.056,50.47a35.6,35.6,0,0,0,21.067,8.14c-7.587-7.587-8.792-12.7-8.954-14.653C61.7,39.3,65.123,32.985,65.123,26.049,65.123,11.657,50.47,0,32.561,0M16.281,29.305V22.793h6.512v6.512H16.281m13.025,0V22.793h6.512v6.512H29.305m13.025,0V22.793h6.512v6.512Z" transform="rotate(-16 8172.015 -1941.816)" fill="#fd9500"/><path d="M83.348,47.628H79.379A27.762,27.762,0,0,0,51.6,19.845H47.628V14.8a7.938,7.938,0,1,0-7.938,0v5.041H35.721A27.762,27.762,0,0,0,7.938,47.628H3.969A3.981,3.981,0,0,0,0,51.6V63.5a3.981,3.981,0,0,0,3.969,3.969H7.938v3.969a7.936,7.936,0,0,0,7.938,7.938H71.441a7.91,7.91,0,0,0,7.938-7.938V67.472h3.969A3.981,3.981,0,0,0,87.317,63.5V51.6a3.981,3.981,0,0,0-3.969-3.969M30.482,59.693,25.8,55.01l-4.683,4.683L16.431,55.01,25.8,45.643l9.367,9.367-4.683,4.683m35.721,0L61.519,55.01l-4.683,4.683L52.152,55.01l9.367-9.367,9.367,9.367Z" transform="rotate(6.02 -19775.585 9998.356)" fill="#5d9cfa"/></g></svg>