<svg xmlns="http://www.w3.org/2000/svg" width="190.767" height="190.767" viewBox="0 0 190.767 190.767"><path d="M0,108.034,13.1,76.388,0,44.741l31.646-13.1L44.741,0,76.388,13.1,108.034,0l13.1,31.646,31.646,13.1-13.1,31.646,13.1,31.646-31.646,13.095-13.095,31.646-31.646-13.1L44.741,152.775l-13.1-31.646Z" transform="rotate(-17 149.437 22.334)" fill="#e0f2ff"/><path d="M37.053,98.173a42.558,42.558,0,0,1-16.5-2.863A29.7,29.7,0,0,1,9.374,87.4,33.8,33.8,0,0,1,2.829,75.743,54.3,54.3,0,0,1,.239,61.631Q.1,57.949.034,53.518t0-8.931q.068-4.5.2-8.317A47.656,47.656,0,0,1,2.829,22.157,33.531,33.531,0,0,1,9.579,10.635,31.111,31.111,0,0,1,20.828,2.863,41.76,41.76,0,0,1,37.053,0,42.158,42.158,0,0,1,53.415,2.863a31.111,31.111,0,0,1,11.249,7.772,32.68,32.68,0,0,1,6.681,11.522,49.129,49.129,0,0,1,2.522,14.112q.273,3.818.273,8.317v8.931q0,4.431-.273,8.113a50.71,50.71,0,0,1-2.454,14.112A33.8,33.8,0,0,1,64.869,87.4,29.6,29.6,0,0,1,53.62,95.309,43.078,43.078,0,0,1,37.053,98.173Zm0-15.68q8.863,0,13.022-5.795t4.3-15.749q.273-3.954.273-7.977V44.859q0-4.091-.273-7.772-.136-9.681-4.3-15.612T37.053,15.544q-8.726,0-12.885,5.931T19.737,37.087q0,3.681-.068,7.772t0,8.113q.068,4.022.068,7.977.273,9.954,4.5,15.749T37.053,82.492Z" transform="rotate(-12.04 207.828 -290.735)" fill="#498ef4"/><path d="M53.894,23.507V5L86.281,37.387,53.894,69.774V50.8C30.76,50.8,14.567,58.207,3,74.4,7.627,51.267,21.507,28.134,53.894,23.507Z" transform="rotate(-10.02 462.499 39.163)" fill="#fd9500"/></svg>