<svg xmlns="http://www.w3.org/2000/svg" width="192.486" height="167.151" viewBox="0 0 192.486 167.151"><g transform="translate(-858 -2978.04)"><ellipse cx="63.312" cy="63.018" rx="63.312" ry="63.018" transform="translate(887.648 2998.598)" fill="#e0f2ff"/><path d="M51.334,69.668A18.334,18.334,0,1,1,69.668,51.334,18.334,18.334,0,0,1,51.334,69.668M51.334,0A51.334,51.334,0,0,0,0,51.334c0,38.5,51.334,95.335,51.334,95.335s51.334-56.835,51.334-95.335A51.334,51.334,0,0,0,51.334,0Z" transform="rotate(14 -11652.528 5354.058)" fill="#fd9500"/><path d="M44.173,0H4.908A4.9,4.9,0,0,0,.025,4.908L0,34.357a4.923,4.923,0,0,0,4.908,4.908H44.173a4.923,4.923,0,0,0,4.908-4.908V4.908A4.923,4.923,0,0,0,44.173,0Zm0,9.816L24.541,22.087,4.908,9.816V4.908l19.633,12.27L44.173,4.908Z" transform="rotate(6.02 -28708.69 11050.33)" fill="#498ef4"/><path d="M12.609,43.23H43.23L55.839,25.217,43.23,7.205H12.609L25.218,25.217,12.609,43.23m30.621,7.2H0L16.211,25.217,0,0H43.23a7,7,0,0,1,5.908,3.1L64.845,25.217,49.138,47.337A7,7,0,0,1,43.23,50.435Z" transform="rotate(-12.04 14993.853 -2539.112)" fill="#498ef4"/></g></svg>