<svg xmlns="http://www.w3.org/2000/svg" width="183.146" height="175.573" viewBox="0 0 183.146 175.573"><g transform="translate(9.577 -9.988)"><path d="M0,103.521,12.548,73.2,0,42.873,30.324,30.324,42.872,0,73.2,12.548,103.521,0l12.548,30.324,30.324,12.548L133.846,73.2l12.548,30.324L116.069,116.07l-12.548,30.324L73.2,133.846,42.872,146.394,30.324,116.07Z" transform="rotate(-13 183.514 63.485)" fill="#e0f2ff"/><path d="M41.926,111.082q-10.954,0-18.668-3.24a33.6,33.6,0,0,1-12.651-8.948A38.248,38.248,0,0,1,3.2,85.7,61.436,61.436,0,0,1,.27,69.735q-.154-4.166-.231-9.18t0-10.105q.077-5.091.231-9.411A53.922,53.922,0,0,1,3.2,25.071a37.94,37.94,0,0,1,7.637-13.037A35.2,35.2,0,0,1,23.566,3.24,47.252,47.252,0,0,1,41.926,0,47.7,47.7,0,0,1,60.439,3.24a35.2,35.2,0,0,1,12.728,8.794,36.977,36.977,0,0,1,7.56,13.037,55.59,55.59,0,0,1,2.854,15.968q.309,4.32.309,9.411V60.555q0,5.014-.309,9.18A57.378,57.378,0,0,1,80.8,85.7,38.248,38.248,0,0,1,73.4,98.894a33.492,33.492,0,0,1-12.728,8.948Q52.88,111.082,41.926,111.082Zm0-17.742q10.028,0,14.734-6.557t4.86-17.819q.309-4.474.309-9.025v-9.18q0-4.628-.309-8.794Q61.365,31.01,56.659,24.3T41.926,17.588q-9.874,0-14.579,6.711T22.332,41.964q0,4.166-.077,8.794t0,9.18q.077,4.551.077,9.025.309,11.262,5.091,17.819T41.926,93.34Z" transform="rotate(12.04 -105.362 129.437)" fill="#498ef4"/><rect width="71" height="22" rx="11" transform="translate(90 114.57)" fill="#88c077"/><rect width="58" height="22" rx="11" transform="translate(90 84.57)" fill="#ec5b73"/><rect width="83.569" height="22.434" rx="11.217" transform="translate(90 54.197)" fill="#ffee6c"/></g></svg>