<svg xmlns="http://www.w3.org/2000/svg" width="202.901" height="100.366" viewBox="0 0 202.901 100.366"><g transform="translate(4 -388.195)"><ellipse cx="46.588" cy="46.325" rx="46.588" ry="46.325" transform="translate(17.479 395.912)" fill="#e0f2ff"/><path d="M95.187,21.153,52.882,47.593,10.576,21.153V10.576L52.882,37.017,95.187,10.576M95.187,0H10.576A10.54,10.54,0,0,0,0,10.576V74.034A10.576,10.576,0,0,0,10.576,84.611h84.61a10.576,10.576,0,0,0,10.576-10.576V10.576A10.573,10.573,0,0,0,95.187,0Z" transform="rotate(6.02 -3644.281 1003.725)" fill="#fdaa33"/><path d="M10.283,35.254H35.254L45.537,20.565,35.254,5.876H10.283L20.565,20.565,10.283,35.254M35.254,41.13H0L13.22,20.565,0,0H35.254a5.709,5.709,0,0,1,4.818,2.527L52.882,20.565,40.072,38.6A5.709,5.709,0,0,1,35.254,41.13Z" transform="rotate(-9 2730.925 -93.386)" fill="#5d9cfa"/><path d="M10.283,35.254H35.254L45.537,20.565,35.254,5.876H10.283L20.565,20.565,10.283,35.254M35.254,41.13H0L13.22,20.565,0,0H35.254a5.709,5.709,0,0,1,4.818,2.527L52.882,20.565,40.072,38.6A5.709,5.709,0,0,1,35.254,41.13Z" transform="rotate(-9 2757.362 242.579)" fill="#5d9cfa"/><ellipse cx="17.372" cy="17.324" rx="17.372" ry="17.324" transform="translate(164.158 391.939)" fill="#5d9cfa"/><path d="M6.94,18.628a.682.682,0,0,1-.665-.665V5.3L2.629,8.09a.582.582,0,0,1-.492.133A.748.748,0,0,1,1.7,7.93L.128,5.881a.722.722,0,0,1-.12-.519.6.6,0,0,1,.306-.439L6.435.186A1.063,1.063,0,0,1,6.741.04,1.267,1.267,0,0,1,7.073,0H10.4a.638.638,0,0,1,.665.665v17.3a.661.661,0,0,1-.186.466.626.626,0,0,1-.479.2Z" transform="rotate(6.02 -3703.353 1865.91)" fill="#fff"/></g></svg>