<svg xmlns="http://www.w3.org/2000/svg" width="110" height="23.17" viewBox="0 0 110 23.17"><g id="Сгруппировать_2552" data-name="Сгруппировать 2552" transform="translate(-1427.573 -452.92)" fill="#fff"><path id="Контур_3" data-name="Контур 3" d="M1431.046,473.275a5.371,5.371,0,0,1-1.26-3.809v-7.1h-2.213v-2.952h2.213v-4.425h3.874v4.425h3.534v2.952h-3.534v6.607a3.061,3.061,0,0,0,.521,2.011,2.449,2.449,0,0,0,1.907.6,4.355,4.355,0,0,0,1.873-.43v2.952a8.786,8.786,0,0,1-3.225.521A4.8,4.8,0,0,1,1431.046,473.275Z" transform="translate(0 1.463)"/><path id="Контур_4" data-name="Контур 4" d="M1436.339,471.587a4.634,4.634,0,0,1-1.692-3.765,4.811,4.811,0,0,1,1.6-3.842,6.645,6.645,0,0,1,4.489-1.385,9.724,9.724,0,0,1,4.823,1.137v-.4a2.623,2.623,0,0,0-.966-2.274,5.362,5.362,0,0,0-3.119-.707,13.894,13.894,0,0,0-2.675.26,10.608,10.608,0,0,0-2.334.724V458.3a10.134,10.134,0,0,1,2.472-.707,16.94,16.94,0,0,1,3-.277q3.841,0,5.685,1.642a5.8,5.8,0,0,1,1.844,4.564v9.006H1445.8v-1.446a6.676,6.676,0,0,1-2.168,1.414,7.876,7.876,0,0,1-2.964.492A6.568,6.568,0,0,1,1436.339,471.587Zm7.622-1.938a3.745,3.745,0,0,0,1.6-1.4v-1.629a6.525,6.525,0,0,0-3.87-1.2q-3.1,0-3.106,2.4a2.04,2.04,0,0,0,.784,1.75,3.727,3.727,0,0,0,2.259.584A5.293,5.293,0,0,0,1443.961,469.649Z" transform="translate(5.003 3.107)"/><path id="Контур_5" data-name="Контур 5" d="M1445.394,452.92h3.87v22.711h-3.87Z" transform="translate(12.416)"/><path id="Контур_6" data-name="Контур 6" d="M1451.858,470.924a7.168,7.168,0,0,1-2.4-5.745,7.767,7.767,0,0,1,2.12-5.747,8.192,8.192,0,0,1,6.054-2.12,9.2,9.2,0,0,1,4.41.983,6.561,6.561,0,0,1,2.75,2.689,8.04,8.04,0,0,1,.922,3.886v1.782h-12.57q.4,3.288,5.716,3.288a17.387,17.387,0,0,0,2.889-.246,12.989,12.989,0,0,0,2.581-.674V472a12.557,12.557,0,0,1-2.689.707,19.543,19.543,0,0,1-3.273.277A9.659,9.659,0,0,1,1451.858,470.924Zm10.2-6.915a3.445,3.445,0,0,0-1.244-2.7,5.034,5.034,0,0,0-3.242-.951,4.8,4.8,0,0,0-3.2.983,3.487,3.487,0,0,0-1.229,2.672Z" transform="translate(15.218 3.107)"/><path id="Контур_7" data-name="Контур 7" d="M1460.783,457.771h3.749v2a6.394,6.394,0,0,1,2.489-1.859,7.891,7.891,0,0,1,3.043-.6,5.737,5.737,0,0,1,4.456,1.613,6.106,6.106,0,0,1,1.475,4.287v9.312h-3.872V463.58q0-3.224-3.012-3.225a5.164,5.164,0,0,0-2.489.63,5.306,5.306,0,0,0-1.967,1.888v9.652h-3.872Z" transform="translate(23.095 3.107)"/><path id="Контур_8" data-name="Контур 8" d="M1474.516,473.275a5.372,5.372,0,0,1-1.26-3.809v-7.1h-2.212v-2.952h2.212v-4.425h3.871v4.425h3.536v2.952h-3.536v6.607a3.058,3.058,0,0,0,.524,2.011,2.445,2.445,0,0,0,1.905.6,4.372,4.372,0,0,0,1.875-.43v2.952a8.813,8.813,0,0,1-3.227.521A4.787,4.787,0,0,1,1474.516,473.275Z" transform="translate(30.255 1.463)"/><path id="Контур_9" data-name="Контур 9" d="M1479.376,457.25a2.052,2.052,0,0,1-.63-1.535,2.152,2.152,0,0,1,2.182-2.184,2.16,2.16,0,0,1,1.567.63,2.085,2.085,0,0,1,.645,1.554,2.028,2.028,0,0,1-.645,1.535,2.189,2.189,0,0,1-1.567.615A2.137,2.137,0,0,1,1479.376,457.25Zm-.415,3.2h3.934V475.2h-3.934Z" transform="translate(35.649 .432)"/><path id="Контур_10" data-name="Контур 10" d="M1483.48,457.771h3.75v2a6.389,6.389,0,0,1,2.489-1.859,7.89,7.89,0,0,1,3.043-.6,5.739,5.739,0,0,1,4.456,1.613,6.1,6.1,0,0,1,1.477,4.287v9.312h-3.874V463.58q0-3.224-3.011-3.225a5.165,5.165,0,0,0-2.49.63,5.32,5.32,0,0,0-1.967,1.888v9.652h-3.872Z" transform="translate(38.879 3.107)"/></g></svg>