<svg xmlns="http://www.w3.org/2000/svg" width="91" height="31" fill="#8796bc"><path d="M29.088 24.36c-.816 0-1.544-.156-2.184-.468s-1.144-.756-1.512-1.332c-.368-.584-.552-1.28-.552-2.088 0-.688.172-1.3.516-1.836s.864-.976 1.56-1.32c.704-.352 1.592-.588 2.664-.708 1.08-.128 2.352-.12 3.816.024l.036 2.232c-.872-.144-1.644-.212-2.316-.204-.664.008-1.224.076-1.68.204-.448.128-.788.316-1.02.564-.232.24-.348.532-.348.876 0 .472.176.836.528 1.092.352.248.828.372 1.428.372.52 0 .988-.092 1.404-.276s.748-.452.996-.804.372-.78.372-1.284V16.5c0-.472-.1-.884-.3-1.236-.192-.36-.496-.636-.912-.828-.416-.2-.96-.3-1.632-.3-.624 0-1.248.096-1.872.288a5.35 5.35 0 0 0-1.692.852l-.924-2.448c.776-.496 1.6-.856 2.472-1.08.872-.232 1.724-.348 2.556-.348 1.136 0 2.128.18 2.976.54s1.504.916 1.968 1.668c.472.744.708 1.692.708 2.844V24h-3.048v-1.332c-.4.544-.948.964-1.644 1.26-.696.288-1.484.432-2.364.432zm15.895-.012c-1.08 0-2.076-.14-2.988-.42-.912-.288-1.692-.68-2.34-1.176l1.14-2.448c.632.432 1.316.772 2.052 1.02.736.24 1.444.36 2.124.36.672 0 1.188-.1 1.548-.3.368-.208.552-.504.552-.888a.79.79 0 0 0-.492-.756c-.32-.168-.944-.348-1.872-.54-1.6-.288-2.768-.74-3.504-1.356-.736-.624-1.104-1.48-1.104-2.568 0-.768.212-1.444.636-2.028.432-.584 1.024-1.036 1.776-1.356.752-.328 1.616-.492 2.592-.492.96 0 1.864.132 2.712.396.856.256 1.588.616 2.196 1.08l-1.104 2.46a5.34 5.34 0 0 0-1.104-.672 6.35 6.35 0 0 0-1.296-.444 5.43 5.43 0 0 0-1.32-.168c-.584 0-1.056.1-1.416.3-.36.192-.54.464-.54.816s.164.612.492.78.94.352 1.836.552c1.672.352 2.86.82 3.564 1.404.712.576 1.068 1.388 1.068 2.436 0 .808-.22 1.512-.66 2.112-.432.6-1.04 1.068-1.824 1.404-.776.328-1.684.492-2.724.492zm14.369.012c-1.296 0-2.32-.364-3.072-1.092-.744-.736-1.116-1.844-1.116-3.324V8.388h3.504v3.492h3.012v2.808h-3.012v4.62c0 .712.148 1.212.444 1.5s.692.432 1.188.432c.256 0 .504-.028.744-.084.248-.064.476-.152.684-.264l.492 2.76c-.36.2-.792.368-1.296.504a5.92 5.92 0 0 1-1.572.204zm-6.648-9.672V11.88h2.808v2.808h-2.808zM65.913 24V11.88h3.504v1.5c.392-.672.896-1.152 1.512-1.44a4.7 4.7 0 0 1 2.016-.432c.256 0 .492.016.708.048l.636.096-.432 3.612a4.36 4.36 0 0 0-.816-.216c-.288-.056-.572-.084-.852-.084-.808 0-1.472.236-1.992.708s-.78 1.144-.78 2.016V24h-3.504zm17.048.36c-1.304 0-2.46-.292-3.468-.876s-1.8-1.36-2.376-2.328c-.568-.976-.852-2.048-.852-3.216 0-.856.164-1.668.492-2.436a6.3 6.3 0 0 1 1.392-2.052c.6-.6 1.308-1.072 2.124-1.416s1.712-.516 2.688-.516c1.304 0 2.456.292 3.456.876a6.38 6.38 0 0 1 2.364 2.34c.576.968.864 2.036.864 3.204 0 .848-.164 1.66-.492 2.436a6.44 6.44 0 0 1-1.392 2.064c-.592.592-1.296 1.06-2.112 1.404s-1.712.516-2.688.516zm0-3.036c.616 0 1.168-.136 1.656-.408.488-.28.872-.672 1.152-1.176.28-.512.42-1.112.42-1.8 0-.696-.14-1.296-.42-1.8-.272-.504-.652-.892-1.14-1.164-.488-.28-1.044-.42-1.668-.42s-1.184.14-1.68.42c-.488.272-.872.66-1.152 1.164-.272.504-.408 1.104-.408 1.8s.14 1.296.42 1.8.664.896 1.152 1.176c.488.272 1.044.408 1.668.408zm-67.012-5.987c-1.622 3.524-5.794 5.066-9.318 3.443-3.27-1.506-4.831-5.208-3.742-8.549a9.47 9.47 0 0 0-2.016 2.847 9.5 9.5 0 0 0 4.656 12.599 9.5 9.5 0 0 0 10.778-15.252c.461 1.571.38 3.308-.358 4.912h.001zm-4.811-4.72c-2.063.528-2.166.849-2.695 3.617-.528-2.768-.632-3.089-2.695-3.617C7.811 10.089 7.914 9.768 8.443 7c.528 2.768.632 3.089 2.695 3.617zm1.835 4.388c-1.357.348-1.426.559-1.774 2.381-.348-1.822-.416-2.033-1.774-2.381 1.358-.348 1.426-.559 1.774-2.381.348 1.822.416 2.033 1.774 2.381z"/></svg>