<svg xmlns="http://www.w3.org/2000/svg" width="90" height="18" fill="none"><g fill="#ffae12"><path d="M8.944 12.872l4.606 2.78-1.222-5.24 4.07-3.525-5.359-.462-2.094-4.934L6.85 6.425l-5.359.462 4.062 3.525-1.215 5.24 4.606-2.78z"/><use href="#B"/><use href="#B" x="-17.889"/><path d="M62.61 12.872l4.606 2.78-1.222-5.24 4.07-3.525-5.359-.462-2.094-4.934-2.095 4.934-5.359.462 4.062 3.525-1.215 5.24 4.606-2.78z"/><use href="#B" x="35.777"/></g><defs><path id="B" d="M44.722 12.872l4.606 2.78-1.222-5.24 4.07-3.525-5.359-.462-2.094-4.934-2.094 4.934-5.359.462 4.062 3.525-1.215 5.24 4.606-2.78z"/></defs></svg>