<svg xmlns="http://www.w3.org/2000/svg" width="47" height="54" fill="#4a70d1"><path d="M21.853 10.406c2.024-.456 3.566.44 3.566.44s-1.098 1.49-3.121 1.946c-1.743.392-2.805.334-3.792-.389.649-1.091 1.605-1.604 3.348-1.997z"/><path d="M20.35 8.923c.305-2.106-.666-3.643-.666-3.643s-1.37 1.209-1.675 3.314c-.263 1.813-.271 2.833.496 3.809 1.014-.726 1.582-1.667 1.846-3.48zm-2.386 6.795c1.88-.877 3.577-.331 3.577-.331s-.755 1.69-2.634 2.567c-1.619.755-2.669.925-3.787.429.402-1.205 1.226-1.909 2.845-2.665z"/><path d="M16.178 14.589c-.151-2.122-1.428-3.417-1.428-3.417s-1.08 1.473-.929 3.596c.13 1.828.339 2.825 1.297 3.615.835-.926 1.19-1.966 1.06-3.794zm-.686 7.619c1.649-1.377 3.5-1.287 3.5-1.287s-.299 1.887-1.948 3.264c-1.42 1.186-2.428 1.636-3.685 1.441.076-1.309.712-2.232 2.132-3.418z"/><path d="M13.396 21.559c-.727-2.075-2.36-3.025-2.36-3.025s-.684 1.758.043 3.833c.626 1.787 1.107 2.726 2.282 3.257.587-1.146.661-2.279.035-4.066zm1.869 7.394c1.194-1.978 3.068-2.523 3.068-2.523s.317 2.036-.876 4.014c-1.028 1.704-1.886 2.511-3.202 2.744-.351-1.367-.018-2.531 1.01-4.235z"/><path d="M12.964 29.01c-1.401-1.876-3.338-2.287-3.338-2.287s-.109 2.037 1.293 3.913c1.207 1.616 1.992 2.412 3.337 2.552.211-1.377-.084-2.562-1.291-4.178zm4.166 6.13c.428-2.351 2.098-3.587 2.098-3.587a6.49 6.49 0 0 0 .685 4.183c-.369 2.025-.915 3.126-2.146 3.849-.885-1.177-1.005-2.421-.637-4.446z"/><path d="M14.84 36.071c-2.139-1.266-4.245-.924-4.245-.924s.685 1.994 2.824 3.261c1.842 1.091 2.941 1.555 4.346 1.178-.324-1.401-1.083-2.425-2.925-3.516zm6.05 4.693c-.172-2.617 1.284-4.375 1.284-4.375a7.12 7.12 0 0 0 1.851 4.272c.148 2.254-.142 3.571-1.265 4.668-1.261-1.019-1.722-2.311-1.87-4.565z"/><path d="M18.69 42.361c-2.625-.781-4.784.142-4.784.142s1.265 1.942 3.891 2.723c2.261.673 3.56.876 4.962.102-.721-1.405-1.807-2.295-4.068-2.967zm7.584 2.059c-.861-2.865.414-5.132.414-5.132s2.398 1.471 3.258 4.336c.741 2.468.73 3.991-.318 5.452-1.744-.856-2.613-2.189-3.354-4.657z"/><path d="M24.08 46.67c-3.294-.296-5.61 1.198-5.61 1.198s1.982 1.879 5.276 2.175c2.837.255 4.422.198 5.881-.965-1.205-1.402-2.709-2.153-5.547-2.407zm1.623-38.74c2.076-1.42 2.729-3.462 2.729-3.462s-2.056-.19-4.132 1.23c-1.788 1.223-2.715 2.239-3.021 3.662 1.373.275 2.636-.206 4.424-1.429z"/></svg>