<svg xmlns="http://www.w3.org/2000/svg" width="48" height="48" fill="none"><path d="M42.552 6c-3.855 0-8.199 2.113-12.869 6.251-3.276 2.902-6.082 6.215-8.018 8.722-5.747-1.732-11.825 1.476-13.575 7.164-.311 1.01-.469 2.061-.471 3.116 0 5.588-2.932 8.078-3.077 8.203a1.37 1.37 0 0 0-.453 1.576A1.41 1.41 0 0 0 5.447 42h13.032c6.008-.009 10.871-4.836 10.86-10.782 0-1.057-.161-2.106-.471-3.116 2.534-1.917 5.883-4.693 8.815-7.934C41.864 15.546 44 11.248 44 7.433A1.44 1.44 0 0 0 42.552 6zM24.343 22.227c.525-.663 1.14-1.415 1.846-2.239a13.58 13.58 0 0 1 3.674 3.636c-.833.698-1.593 1.307-2.263 1.827-.838-1.295-1.949-2.395-3.258-3.224zm7.711-.519a16.77 16.77 0 0 0-3.928-3.886c3.548-3.797 8.326-7.952 12.815-8.794-.851 4.442-5.05 9.17-8.887 12.681z" fill="url(#A)"/><defs><linearGradient id="A" x1="13.914" y1="13.048" x2="36.39" y2="37.971" gradientUnits="userSpaceOnUse"><stop offset=".02" stop-color="#6d0e8c"/><stop offset="1" stop-color="#99f0ff"/></linearGradient></defs></svg>