<svg xmlns="http://www.w3.org/2000/svg" width="130" height="15" fill="none"><path d="M37.468 4.256v6.597h1.645a3.14 3.14 0 0 0 2.237-.985c.591-.626.915-1.458.902-2.319.013-.428-.059-.854-.212-1.253s-.383-.765-.677-1.076c-.289-.306-.638-.549-1.025-.715s-.804-.251-1.224-.25h-1.644l-.001.001zm1.645-2.069c3.066 0 5.385 2.376 5.385 5.362s-2.319 5.375-5.385 5.375h-3.628c-.035 0-.069-.008-.1-.021s-.061-.033-.085-.058-.043-.054-.056-.086-.019-.066-.019-.101V2.465c0-.148.117-.268.26-.268l3.628-.01zM52.4 11.084c1.392.004 2.65-.852 3.186-2.17.263-.644.333-1.35.202-2.033s-.457-1.313-.938-1.815a3.38 3.38 0 0 0-1.755-.969c-.669-.138-1.365-.07-1.995.196-1.287.544-2.127 1.83-2.13 3.257 0 1.946 1.532 3.525 3.43 3.534zm.001-9.139c3.227 0 5.694 2.543 5.694 5.605s-2.467 5.605-5.694 5.605-5.672-2.531-5.672-5.605 2.468-5.605 5.673-5.605zm13.532 9.139c1.898-.005 3.434-1.585 3.432-3.531s-1.542-3.525-3.439-3.526-3.439 1.576-3.441 3.523a3.58 3.58 0 0 0 1.01 2.5c.317.327.695.586 1.114.764s.87.27 1.324.27zm-.001-9.139c3.217 0 5.683 2.531 5.683 5.605s-2.477 5.605-5.683 5.605-5.693-2.531-5.693-5.605 2.467-5.605 5.694-5.605zm13.207 2.312H76.82v2.839h2.319a1.34 1.34 0 0 0 .996-.38 1.41 1.41 0 0 0 .424-1 1.43 1.43 0 0 0-.403-1.045c-.132-.136-.29-.243-.465-.314s-.364-.104-.553-.098v-.003zm-4.563-1.791c0-.148.117-.268.261-.268h4.367c2.082 0 3.588 1.564 3.588 3.529.016 1.329-.71 2.549-1.868 3.144l2.014 3.651c.028.042.044.091.045.141s-.01.1-.035.144-.06.078-.104.102-.093.033-.142.029h-1.767a.26.26 0 0 1-.236-.144L78.756 9.18h-1.945v3.469c.001.035-.006.069-.019.101s-.032.062-.056.087-.053.045-.085.058-.066.021-.101.021h-1.703c-.035 0-.069-.008-.101-.021s-.061-.034-.085-.058-.043-.054-.056-.087-.019-.067-.019-.101l-.012-10.183-.001-.001zm14.064 1.841v6.598h1.644a3.14 3.14 0 0 0 2.238-.981c.592-.625.916-1.457.903-2.318a3.25 3.25 0 0 0-.887-2.334c-.29-.306-.639-.55-1.027-.716s-.805-.251-1.227-.249h-1.645zm1.644-2.071a5.3 5.3 0 0 1 5.385 5.37 5.3 5.3 0 0 1-5.385 5.37h-3.617c-.035 0-.069-.008-.101-.021s-.061-.034-.085-.058-.043-.054-.056-.086-.019-.067-.019-.101V2.517c0-.148.117-.268.26-.268l3.617-.013zm12.226 2.624l-1.272 3.528h2.542l-1.27-3.528zm-2.019 5.522l-.833 2.349a.26.26 0 0 1-.26.184h-1.807c-.046.004-.092-.004-.134-.024s-.077-.05-.103-.089-.042-.084-.046-.13.004-.094.024-.136l3.903-10.183a.26.26 0 0 1 .26-.176h2.022a.26.26 0 0 1 .16.044c.047.032.082.078.1.132l3.904 10.183c.019.043.027.09.023.136s-.02.092-.046.13-.062.069-.104.088a.26.26 0 0 1-.134.023h-1.806a.26.26 0 0 1-.161-.048c-.047-.033-.082-.081-.099-.137l-.833-2.349h-4.03v.001zm9.284-5.293c0-1.686 1.421-3.144 3.665-3.144 1.208-.027 2.378.425 3.254 1.257.027.025.048.056.063.089a.28.28 0 0 1 .022.107.28.28 0 0 1-.022.107c-.015.034-.036.064-.063.089l-1 1.019c-.024.025-.053.044-.085.058a.25.25 0 0 1-.1.02c-.034 0-.068-.007-.1-.02s-.06-.033-.084-.058a2.6 2.6 0 0 0-1.737-.702c-.897 0-1.56.534-1.56 1.151 0 1.993 5.303.843 5.303 4.678-.002 1.944-1.434 3.414-3.966 3.414a5.24 5.24 0 0 1-3.783-1.559c-.027-.025-.048-.056-.063-.089a.28.28 0 0 1-.022-.107.28.28 0 0 1 .022-.107c.015-.034.036-.064.063-.089l.968-.993c.024-.026.053-.047.085-.061s.068-.021.103-.021.071.007.103.021.062.035.086.061a3.3 3.3 0 0 0 2.287.956c1.122 0 1.861-.614 1.861-1.383 0-1.994-5.301-.843-5.301-4.679m17.174-2.652v4.03h-4.489v-4.03a.25.25 0 0 0-.019-.101.24.24 0 0 0-.056-.086c-.024-.025-.052-.045-.084-.058s-.066-.021-.101-.021h-1.702c-.035 0-.069.008-.101.021a.26.26 0 0 0-.085.058c-.024.025-.043.054-.056.086a.25.25 0 0 0-.018.101v10.181c0 .148.117.268.26.268h1.702c.143 0 .26-.12.26-.268V8.539h4.486v4.094c0 .148.117.268.26.268h1.703c.143 0 .26-.12.26-.268V2.452a.27.27 0 0 0-.019-.101c-.013-.032-.032-.061-.056-.086a.26.26 0 0 0-.085-.058c-.032-.014-.066-.021-.1-.021h-1.703c-.069.002-.135.031-.183.081s-.075.117-.074.186zM25.668 3.544C24.487 1.355 22.176-.008 19.663 0H.65C.521.001.396.039.289.11s-.19.172-.24.291a.64.64 0 0 0 .141.701l4.142 4.11a1.96 1.96 0 0 0 1.382.568h13.403c.955-.01 1.736.747 1.746 1.689s-.756 1.714-1.711 1.723H9.912c-.129 0-.254.038-.361.109s-.191.172-.241.29a.64.64 0 0 0 .14.703l4.144 4.114c.368.364.865.568 1.382.567h4.18c5.438 0 9.549-5.738 6.511-11.433" fill="#fff"/></svg>