<svg xmlns="http://www.w3.org/2000/svg" width="48" height="48" fill="none"><path d="M40.667 4H7.333C5.492 4 4 5.492 4 7.333v33.333C4 42.508 5.492 44 7.333 44h22.646a3.32 3.32 0 0 0 2.354-.979l10.688-10.687A3.32 3.32 0 0 0 44 29.979V7.333C44 5.492 42.508 4 40.667 4zM17.333 15.667h13.333c.921 0 1.667.746 1.667 1.667S31.588 19 30.667 19H17.333c-.921 0-1.667-.746-1.667-1.667s.746-1.667 1.667-1.667zM24 32.333h-6.667c-.921 0-1.667-.746-1.667-1.667S16.413 29 17.333 29H24c.921 0 1.667.746 1.667 1.667s-.746 1.667-1.667 1.667zm-6.667-6.667c-.921 0-1.667-.746-1.667-1.667s.746-1.667 1.667-1.667h13.333c.921 0 1.667.746 1.667 1.667s-.746 1.667-1.667 1.667H17.333zm13.333 14.313v-9.312h9.313l-9.312 9.313z" fill="url(#A)"/><defs><linearGradient id="A" x1="3.621" y1="3.856" x2="39.627" y2="39.444" gradientUnits="userSpaceOnUse"><stop stop-color="#6d0e8c"/><stop offset="1" stop-color="#99f0ff"/></linearGradient></defs></svg>