<svg xmlns="http://www.w3.org/2000/svg" width="48" height="16" fill="none"><g clip-path="url(#A)"><path d="M25.465 0h-4.941l-7.487 16h4.941l7.487-16zm-5.806 0h-4.482l-3.59 7.718L12.045 0H7.514L0 16h4.508l3.617-7.693L7.666 16h4.482l7.511-16zm11.613 0h-4.838l-7.487 16h4.839l3.131-6.705V16h13.598l1.807-3.857h-4.023l1.146-2.447h3.666l1.681-3.577h-3.666l1.07-2.283h4.023L48 0h-8.759l-7.256 15.457-.482-7.669L38.756 0h-4.763l-5.552 6.094L31.271 0z" fill="#fff"/></g><defs><clipPath id="A"><path fill="#fff" d="M0 0h48v16H0z"/></clipPath></defs></svg>