<svg xmlns="http://www.w3.org/2000/svg" width="48" height="48" fill="none"><path d="M23.682 5.016c1.206-.122 2.327.476 2.902 1.513l4.036 10.008.078.1 9.666.637c.821.065 1.404-.002 2.165.417 1.65.909 1.957 3.189.691 4.552l-8.322 6.84-.074.104 2.584 10.124c.651 2.359-1.785 4.472-4.078 3.401l-9.313-5.776-8.394 5.215c-2.546 1.55-5.588-.791-4.849-3.588l2.407-9.376-.092-.13-8.103-6.62c-1.881-1.769-.925-4.773 1.63-5.123l9.596-.616c.192-.014 1.013-.002 1.12-.085l4.074-10.059c.437-.828 1.324-1.444 2.275-1.54zm.322 29.097c.471-.012.929.126 1.354.315l9.247 5.753.05-.134-2.602-10.104c-.274-1.027.056-2.089.787-2.847l8.059-6.573c.479-.392.178-.405-.268-.439l-3.481-.22-6.65-.397c-1.055-.124-1.935-.687-2.411-1.627l-3.962-9.817c-.024-.059-.054-.199-.124-.209v26.296l.002.004z" fill="url(#A)"/><defs><linearGradient id="A" x1="12.318" y1="12.745" x2="36.228" y2="40.831" gradientUnits="userSpaceOnUse"><stop stop-color="#6d0e8c"/><stop offset="1" stop-color="#99f0ff"/></linearGradient></defs></svg>