<svg xmlns="http://www.w3.org/2000/svg" width="669" height="449" fill="none"><path d="M44.21 392.905c-1.571-1.115-2.078-4.091-1.679-5.94.878-4.102 9.621-16.4 11.959-21.622.82-1.829 1.837-3.588 2.218-5.593l-13.575-27.386c-1.049-4.145 1.721-5.516 5.55-5.63 6.429-.196 24.286 6.171 28.832 5.099 6.598-2.961 19.099-21.233 25.036-21.976 6.982-.873 5.317 11.945 5.967 16.194a276.87 276.87 0 0 0 3.115 16.931c1.64 3.367 22.753 10.885 26.897 14.531 1.909 1.679 2.66 3.527 1.474 5.928-1.981 3.993-24.349 11.208-28.975 15.076-2.546 3.013-3.19 25.093-5.214 30.355-1.581 4.11-4.936 3.68-7.883 1.51-4.802-3.534-17.201-20.423-21.266-21.373-5.784-.917-29.017 6.335-32.437 3.892l-.018.004zm608.462-15.63c.24 1.338-1.146 3.521-2.712 3.326-3.248.017-15.219-3.947-17.411-2.988-3.288 1.437-8.759 9.414-12.305 11.615-2.495 1.55-3.636-.143-4.22-2.356-.765-2.911-1.094-15.019-2.225-16.399-4-2.803-9.163-4.51-13.206-7.091-2.694-1.718-4.396-3.238-1.125-5.756 2.836-2.178 12.873-4.806 14.752-6.809 2.343-2.497 1.737-16.957 4.893-18.764.44-.254 1.764-.277 2.244-.098 2.669.994 8.968 10.991 12.218 12.833.607.289 1.274.163 1.907.144 4.573-.116 10.497-2.213 14.903-2.128 2.874.055 3.807 1.778 2.674 4.3-2.177 4.849-6.222 9.43-7.861 14.622l7.463 15.548.011.001zM432.448 82.213c-4.274-1.396-3.463-18.488-5.433-22.468-.431-.757-1.212-1.04-1.871-1.506-3.444-2.459-15.638-6.767-17.128-9.692a4.17 4.17 0 0 1-.333-1.857c.282-2.822 17.182-8.954 19.843-11.728l3.329-19.22c.444-1.501 2.117-2.487 3.651-2.521 3.307-.078 11.816 13.291 15.987 14.852 3.576 1.342 15.577-2.808 20.172-2.528 1.919.118 2.663 1.28 3.173 3.073.736 2.6-8.691 15.383-9.353 19.136l8.83 19.902c.013.609-.727 2.01-1.186 2.421-2.633 2.381-19.127-4.001-22.715-2.526-2.808 1.157-10.521 11.472-13.912 13.831-.803.559-2.119 1.138-3.059.832l.005-.003z" fill="#f2ec2e"/><path d="M465 449c8.43-20.776 28.655-53.494 55.813-45.871 14.99 4.208 15.556 19.822 13.382 32.659 7.387-8.82 20.426-25.307 33.421-16.458 7.216 4.913 5.548 12.882 3.775 20.123 8.862-1.638 19.042-2.071 18.595 9.54H465V449zM34.186 119.706c-.014.281-1.088 1.235-.005 1.169 2.647-4.998 10.221-12.416 16.166-8.226 3.483 2.453 2.314 6.056 1.882 9.636 4.362-.569 8.482-1.062 9.052 4.406l-1.331.63L0 126.738c4.068-10.142 14.679-26.608 27.875-21.915 2.656.944 6.311 4.449 6.311 7.371 0 2.466.138 5.059 0 7.507v.005z" fill="#f0c3ff"/><g fill="#fff"><path d="M81.42 187.924c115.687 6.291 231.69 6.626 347.523 12.568 2.318.119 7.123-.251 8.822.789l65.683 73.28c.134 1.306-.379.633-1.119.529-14.463-2.034-31.053-6.243-45.624-9.217l-34.512-6.956-23.353-4.999-21.233-4.4-48.321-9.529c-2.466-1.298-4.838-1.244-7.423-1.832-2.99-.681-6.026-1.252-9.022-1.886-.797-.169-1.875.081-2.672-.088-.42-.088-1.322-.964-2.063-.888-76.351-13.826-151.862-33.315-228.33-46.373-.989-.17-3.36.169-3.701-1.175 1.749.513 4.066-.648 5.339.172l.005.005z"/><path d="M83.019 187.943l364.249-48.716.806.048c.357.376-1.756 8.769-2.078 10.091-2.827 11.521-6.18 27.313-10.202 38.112l-15.77-.543-297.192.724c-13.199.029-26.555.729-39.808.29l-.005-.006z"/></g><path d="M435.787 187.506c-1.737 4.66-5.07 8.368-6.844 12.985-115.833-5.936-231.841-6.277-347.523-12.567l1.603.053c13.253.439 26.609-.262 39.808-.29l297.192-.724 15.77.543h-.006zm-36.942 66.411l-21.232-4.4c-3.278-.87-8.275-2.141-14.427-3.471-12.137-2.623-11.391-1.721-20.398-3.748 0 0-24.857-5.6-29.942-6.027-.539-.045-1.078-.068-1.078-.068-.657-.027-1.203-.029-1.588-.021-.173-.116-.461-.3-.84-.498-1.778-.926-3.427-1.023-3.977-1.057-.209-.013-3.783-.633-10.933-1.864a124.73 124.73 0 0 1-5.953-1.176l-36.742-7.791-57.736-11.972-89.445-18.454-24.767-4.443c1.542 1.247 4.006 1.799 5.921 2.449l121.415 41.922c3.555 1.207 7.456 2.299 11.107 3.536.545.187 1.067.406 1.586.582l13.738 4.68c.588.2 1.316.335 2.12.6 6.811 2.261 11.907 4.123 13.21 4.663 3.874 1.604 11.364 4.348 26.949 9.344l44.41 14.683 55.483 19.275 3.175-.741 19.955-36.007-.011.004z" fill="#f0c3ff"/></svg>