<svg xmlns="http://www.w3.org/2000/svg" width="295" height="24" fill="none"><g clip-path="url(#A)"><path d="M150.691 13.912c1.375-.574 2.431-1.41 3.168-2.534.736-1.1 1.104-2.438 1.104-3.968 0-2.295-.81-4.112-2.43-5.45S148.629 0 145.683 0h-9.01v20.534h4.91v-5.761h4.223.196l4.1 5.761h5.254l-4.689-6.598h.024v-.024zm-1.792-9.108c.761.622 1.154 1.482 1.154 2.629s-.393 2.008-1.154 2.629-1.89.932-3.363.932h-3.953V3.873h3.953c1.497 0 2.602.311 3.363.932zm21.335.718c-1.277-.669-2.701-1.004-4.297-1.004s-3.117.359-4.443 1.052-2.333 1.649-3.069 2.892-1.105 2.629-1.105 4.183.393 2.964 1.154 4.183 1.841 2.175 3.216 2.892 2.995 1.052 4.861 1.052c1.473 0 2.75-.215 3.879-.669s2.062-1.076 2.799-1.889l-2.504-2.629a5.7 5.7 0 0 1-1.792 1.147c-.663.263-1.4.382-2.234.382-.983 0-1.817-.167-2.529-.502a3.76 3.76 0 0 1-1.645-1.482 3.82 3.82 0 0 1-.467-1.171h12.251c0-.191.049-.406.049-.622l.025-.598c0-1.697-.368-3.155-1.105-4.374s-1.743-2.151-3.02-2.821l-.024-.024zm-6.408 2.964c.614-.335 1.326-.502 2.136-.502s1.498.167 2.111.502 1.081.813 1.424 1.434c.221.406.344.861.418 1.339h-7.906c.074-.478.197-.932.418-1.339.343-.622.81-1.1 1.424-1.434h-.025zm24.845 3.753c-.589-.311-1.227-.574-1.915-.741l-2.087-.406-1.939-.287c-.589-.096-1.056-.239-1.424-.454s-.54-.502-.54-.884c0-.43.245-.789.712-1.052s1.277-.406 2.357-.406c.712 0 1.473.096 2.283.263s1.571.478 2.332.908l1.596-3.251c-.786-.43-1.743-.765-2.872-1.004s-2.259-.359-3.388-.359c-1.572 0-2.897.215-4.002.645s-1.964 1.028-2.553 1.793c-.614.765-.909 1.649-.909 2.653 0 .908.172 1.626.516 2.199s.835 1.004 1.424 1.339a8.08 8.08 0 0 0 1.939.741l2.087.406 1.915.287c.565.096 1.031.239 1.375.43s.515.454.515.837c0 .454-.221.813-.687 1.052s-1.228.383-2.308.383c-.982 0-1.988-.143-2.995-.43a12.91 12.91 0 0 1-2.676-1.076l-1.547 3.251c.761.478 1.768.884 3.045 1.219s2.602.478 3.977.478c1.62 0 3.02-.215 4.149-.645s2.013-1.028 2.602-1.769c.614-.741.909-1.602.909-2.558 0-.908-.172-1.626-.516-2.199s-.835-1.004-1.424-1.339l.049-.024zm16.474.335c0 .932-.172 1.721-.491 2.343a3.31 3.31 0 0 1-1.351 1.41c-.564.311-1.203.478-1.939.478-1.056 0-1.841-.311-2.431-.932-.564-.622-.859-1.578-.859-2.916v-8.2h-4.689v8.916c0 1.602.295 2.94.884 3.992s1.399 1.841 2.43 2.343 2.259.765 3.609.765a7.29 7.29 0 0 0 3.437-.837c.639-.335 1.154-.813 1.596-1.339v1.936h4.468V4.757h-4.664v7.841-.024zm33.217-7.315c-.982-.502-2.136-.741-3.413-.741-1.571 0-2.946.359-4.124 1.1a6.41 6.41 0 0 0-1.694 1.53c-.393-.622-.86-1.123-1.473-1.53-1.13-.741-2.431-1.1-3.928-1.1-1.302 0-2.48.287-3.536.837-.614.311-1.105.765-1.546 1.243V4.733h-4.493V20.51h4.689v-7.912c0-.956.147-1.745.442-2.343s.712-1.052 1.276-1.339c.541-.311 1.154-.454 1.842-.454 1.006 0 1.767.311 2.308.908s.81 1.554.81 2.821v8.319h4.689v-7.912c0-.956.147-1.745.442-2.343s.712-1.052 1.252-1.339c.54-.311 1.154-.454 1.866-.454.957 0 1.718.311 2.234.908.54.598.81 1.554.81 2.821v8.319h4.689v-9.036c0-1.602-.27-2.916-.835-3.944s-1.35-1.793-2.332-2.295l.025.024zm22.316 3.084c-.736-1.219-1.743-2.151-3.02-2.821s-2.7-1.004-4.296-1.004-3.118.359-4.444 1.052a7.52 7.52 0 0 0-3.068 2.892c-.737 1.243-1.105 2.629-1.105 4.183s.393 2.964 1.154 4.183 1.841 2.175 3.216 2.892 2.995 1.052 4.861 1.052c1.473 0 2.75-.215 3.879-.669 1.129-.43 2.062-1.076 2.799-1.889l-2.505-2.629a5.69 5.69 0 0 1-1.792 1.147c-.663.263-1.399.382-2.234.382-.982 0-1.841-.167-2.529-.502s-1.252-.837-1.644-1.482a3.79 3.79 0 0 1-.467-1.171h12.251c0-.191.049-.406.049-.622l.025-.598c0-1.697-.369-3.155-1.105-4.374l-.025-.024zm-9.427.143c.614-.335 1.326-.502 2.136-.502s1.497.167 2.111.502 1.08.813 1.424 1.434c.221.406.344.861.417 1.339h-7.905c.074-.478.196-.932.417-1.339a3.53 3.53 0 0 1 1.424-1.434h-.024z" fill="#000"/><path d="M81.582 10.04c-.196-.072-.417-.119-.638-.191.835-.43 1.547-.98 2.038-1.697.54-.789.81-1.721.81-2.797 0-1.602-.663-2.892-2.013-3.873S78.464 0 75.837 0H65.525v20.534h10.901c2.774 0 4.861-.502 6.285-1.482s2.136-2.366 2.136-4.112c0-1.195-.295-2.199-.884-3.012s-1.375-1.434-2.406-1.889h.024zm-6.359-6.454c1.178 0 2.087.191 2.725.598.638.382.958 1.004.958 1.817s-.319 1.434-.958 1.841-1.547.598-2.725.598h-4.861V3.586h4.861zm3.732 12.741c-.663.406-1.62.622-2.872.622h-5.72v-5.068h5.72c1.252 0 2.209.215 2.872.622s1.007 1.052 1.007 1.936-.344 1.506-1.007 1.912v-.024zM99.97 5.522c-1.277-.669-2.701-1.004-4.296-1.004s-3.118.359-4.444 1.052a7.52 7.52 0 0 0-3.069 2.892c-.736 1.243-1.105 2.629-1.105 4.183s.393 2.964 1.154 4.183 1.841 2.175 3.216 2.892 2.995 1.052 4.861 1.052c1.473 0 2.75-.215 3.879-.669s2.063-1.076 2.799-1.889l-2.504-2.629c-.54.502-1.129.884-1.792 1.147s-1.399.382-2.234.382c-.982 0-1.817-.167-2.529-.502s-1.252-.837-1.645-1.482c-.221-.359-.368-.741-.466-1.171h12.25c0-.191.05-.406.05-.622l.024-.598c0-1.697-.368-3.155-1.105-4.374s-1.743-2.151-3.019-2.821l-.025-.024zm-6.383 2.964c.614-.335 1.326-.502 2.136-.502s1.497.167 2.111.502a3.53 3.53 0 0 1 1.424 1.434c.221.406.344.861.417 1.339H91.77c.074-.478.196-.932.417-1.339a3.53 3.53 0 0 1 1.424-1.434h-.025zm24.821 3.753c-.59-.311-1.228-.574-1.915-.741l-2.087-.406-1.94-.287c-.589-.096-1.055-.239-1.424-.454s-.54-.502-.54-.884c0-.43.246-.789.712-1.052s1.277-.406 2.357-.406c.712 0 1.473.096 2.283.263s1.572.478 2.333.908l1.595-3.251c-.785-.43-1.743-.765-2.872-1.004a16.32 16.32 0 0 0-3.388-.359c-1.571 0-2.897.215-4.002.645s-1.964 1.028-2.553 1.793c-.614.765-.908 1.649-.908 2.653 0 .908.171 1.626.515 2.199s.835 1.004 1.424 1.339c.589.311 1.228.574 1.94.741l2.086.406 1.915.287c.565.096 1.031.239 1.375.43s.516.454.516.837c0 .454-.221.813-.688 1.052s-1.227.383-2.307.383a10.94 10.94 0 0 1-2.996-.43 12.91 12.91 0 0 1-2.676-1.076l-1.546 3.251c.761.478 1.767.884 3.044 1.219s2.602.478 3.977.478c1.621 0 3.02-.215 4.149-.645s2.013-1.028 2.603-1.769a3.9 3.9 0 0 0 .908-2.558c0-.908-.172-1.626-.516-2.199s-.834-1.004-1.424-1.339l.05-.024zm14.018 4.303c-.516.383-1.154.598-1.94.598-.613 0-1.08-.191-1.424-.55-.343-.382-.515-.884-.515-1.554V8.295h4.002V4.781h-4.002V1.267h-4.738v3.49h-2.505v3.514h2.505v6.837c0 1.888.54 3.299 1.595 4.231 1.056.956 2.554 1.434 4.469 1.434a8.58 8.58 0 0 0 2.086-.239c.663-.167 1.228-.406 1.694-.741l-1.227-3.227v-.024z" fill="#491bf2"/><path d="M57.817 7.147h-7.021L48.635.645c-.295-.884-1.571-.884-1.841 0l-2.16 6.502h-7.022a.95.95 0 0 0-.565 1.721l5.671 4.016-2.16 6.502c-.295.884.736 1.601 1.498 1.052l5.671-4.016 5.671 4.016c.761.55 1.792-.191 1.498-1.052l-2.16-6.502 5.671-4.016a.95.95 0 0 0-.565-1.721h-.025zM34.641 9.801c-3.707 1.984-8.053 4.016-13.036 5.809A98.41 98.41 0 0 1 0 20.701c3.683.096 7.488.119 11.465 0a201.22 201.22 0 0 0 27.178-2.582l1.547-4.374-5.524-3.92-.024-.024z" fill="#f27d1b"/><path d="M264.606 18c-.392 0-.736.119-1.006.383-.27.239-.418.574-.418.98a1.35 1.35 0 0 0 .418 1.004c.27.263.614.383 1.006.383a1.37 1.37 0 0 0 .982-.383 1.35 1.35 0 0 0 .418-1.004c0-.406-.148-.741-.418-.98s-.589-.383-.982-.383zm9.919-5.761c-.737-.382-1.571-.598-2.529-.598s-1.768.191-2.504.598c-.737.382-1.301.932-1.719 1.602s-.638 1.458-.638 2.367.221 1.649.638 2.343 1.007 1.219 1.743 1.625 1.572.598 2.48.598 1.768-.191 2.504-.598c.737-.383 1.326-.932 1.743-1.625s.614-1.458.614-2.367-.196-1.697-.614-2.367a4.39 4.39 0 0 0-1.718-1.602v.024zm-.148 5.45c-.245.43-.564.765-.957.98-.417.215-.884.335-1.399.335a2.92 2.92 0 0 1-1.375-.335 2.54 2.54 0 0 1-.982-.98c-.246-.43-.369-.908-.369-1.482s.123-1.052.369-1.482c.245-.406.564-.741.982-.956.417-.239.859-.335 1.375-.335a2.84 2.84 0 0 1 1.374.335c.418.215.737.55.958.956.245.406.344.908.344 1.482s-.123 1.052-.344 1.482h.024zm6.605-4.565v-1.363h-2.038v8.892h2.111V16.35c0-.932.246-1.626.712-2.08s1.129-.693 1.94-.693h.221c.073 0 .171 0 .245.024v-1.984c-.859 0-1.571.167-2.16.478a2.73 2.73 0 0 0-1.031 1.004v.024zm12.005-1.363v1.219c-.295-.359-.638-.669-1.08-.885-.614-.311-1.326-.454-2.087-.454-.884 0-1.67.167-2.357.526s-1.252.861-1.645 1.506a4.31 4.31 0 0 0-.614 2.271c0 .861.197 1.602.614 2.247.393.646.958 1.147 1.645 1.506s1.473.55 2.357.55c.785 0 1.473-.167 2.087-.478a3.26 3.26 0 0 0 .957-.765v.502c0 .908-.221 1.602-.712 2.032s-1.203.669-2.185.669a5.7 5.7 0 0 1-1.89-.311c-.614-.215-1.105-.454-1.498-.789l-.957 1.554c.515.43 1.178.741 1.964.956a9.4 9.4 0 0 0 2.479.335c1.596 0 2.824-.383 3.658-1.147s1.252-1.936 1.252-3.562v-7.53h-2.037l.049.048zm-.442 5.498a2.54 2.54 0 0 1-.982.908c-.417.215-.908.335-1.424.335s-1.031-.119-1.448-.335a2.38 2.38 0 0 1-.982-.908c-.246-.383-.344-.813-.344-1.315s.123-.956.344-1.339.564-.669.982-.885.908-.311 1.448-.311 1.007.096 1.424.311.761.502.982.885a2.59 2.59 0 0 1 .344 1.339c0 .526-.123.932-.344 1.315z" fill="#000"/></g><defs><clipPath id="A"><path fill="#fff" d="M0 0h295v24H0z"/></clipPath></defs></svg>