<svg xmlns="http://www.w3.org/2000/svg" width="424" height="329" fill="none"><path d="M80.292 267.951c-4.309-1.363-7.573-7.646-8.007-12.062-.98-9.79 9.735-43.524 11.212-56.864.521-4.671 1.53-9.33.947-14.079l-49.947-51.438c-5.314-8.505-.109-13.555 8.36-16.553 14.22-5.044 58.666-3.623 68.052-9.274 12.614-11.342 27.439-61.113 40.167-67.026 14.967-6.955 20.436 22.867 24.933 31.893a650.02 650.02 0 0 0 19.092 35.58c6.076 6.345 58.62 8.006 70.488 13.178 5.466 2.382 8.467 5.972 7.54 12.184-1.563 10.338-46.35 42.483-53.909 54.438-3.529 8.555 10.859 58.33 10.109 71.533-.584 10.314-8.387 11.757-16.525 9.023-13.257-4.451-53.055-33.286-62.815-32.494-13.575 2.098-60.269 34.945-69.658 31.941l-.038.02zm328.007-53.284c.23 1.286-1.103 3.385-2.608 3.197-3.123.017-14.632-3.795-16.74-2.872-3.161 1.381-8.421 9.05-11.83 11.166-2.399 1.491-3.496-.137-4.057-2.264-.736-2.799-1.052-14.44-2.14-15.767-3.846-2.695-8.809-4.336-12.696-6.818-2.591-1.652-4.227-3.113-1.082-5.534 2.726-2.094 12.377-4.621 14.183-6.546 2.253-2.401 1.67-16.303 4.704-18.041.423-.244 1.696-.267 2.158-.094 2.566.955 8.622 10.567 11.747 12.338.583.278 1.225.156 1.833.138 4.396-.111 10.092-2.128 14.329-2.046 2.763.054 3.66 1.71 2.57 4.135-2.093 4.662-5.982 9.066-7.557 14.058l7.175 14.948.011.002zM322.515 79.043c-4.11-1.342-3.33-17.775-5.224-21.601-.414-.728-1.166-1-1.799-1.448-3.311-2.364-15.035-6.506-16.468-9.319a4.01 4.01 0 0 1-.32-1.785c.271-2.714 16.52-8.609 19.078-11.276l3.201-18.479c.427-1.443 2.035-2.391 3.51-2.424 3.179-.075 11.361 12.778 15.371 14.279 3.438 1.291 14.976-2.7 19.394-2.431 1.845.113 2.561 1.231 3.051 2.955.708 2.5-8.356 14.79-8.993 18.398l8.49 19.135c.012.585-.699 1.933-1.141 2.328-2.531 2.29-18.389-3.846-21.839-2.429-2.699 1.112-10.115 11.03-13.376 13.298-.771.538-2.036 1.095-2.94.8l.005-.003z" fill="#f2dc1b"/><path d="M26 278c16.522-41.995 56.164-108.126 109.394-92.718 29.381 8.506 33.732 30.903 29.471 56.851 14.478-17.828 36.793-41.992 62.262-24.104 14.143 9.931 10.874 26.037 7.4 40.673 17.369-3.31 37.321-4.186 36.445 19.283H26V278z" fill="#6d49f2"/></svg>