<svg xmlns="http://www.w3.org/2000/svg" xmlns:xlink="http://www.w3.org/1999/xlink" height="356" viewBox="0 0 708 356" width="708"><svg height="198" viewBox="0 0 700 198" width="700" x="4" y="4"><linearGradient id="SVGID_1_" gradientUnits="userSpaceOnUse" x1="27.373" y1="198" x2="27.373" y2="9.192"><stop offset="0" stop-color="#1d1f28"/><stop offset="1" stop-color="#393950"/></linearGradient><path d="M45.25,182.97c-3.83,3.98-9.42,7.48-16.78,10.5C21.12,196.49,14.05,198,7.28,198c-3.53,0-5.67-1.55-6.4-4.64 C0.29,190.41,0,187.09,0,183.41c0-3.54,1.77-5.67,5.3-6.41c7.95-1.33,13.83-3.46,17.66-6.41c4.27-3.39,6.4-9.88,6.4-19.46V15.16 c0-3.98,1.84-5.97,5.52-5.97h14.79c3.38,0,5.08,1.91,5.08,5.75v135.3C54.75,165.57,51.58,176.48,45.25,182.97z" fill="url(#SVGID_1_)"/><linearGradient id="SVGID_2_" gradientUnits="userSpaceOnUse" x1="126.399" y1="168.595" x2="126.399" y2="52.081"><stop offset="0" stop-color="#1d1f28"/><stop offset="1" stop-color="#393950"/></linearGradient><path d="M165.36,155.99c-7.95,8.4-21.19,12.6-39.73,12.6c-17.95,0-30.79-4.09-38.52-12.27 c-7.73-8.18-11.59-23.54-11.59-46.1c0-11.64,1.21-21.41,3.64-29.29c2.43-7.88,6.11-13.86,11.04-17.91 c4.93-4.05,10.3-6.89,16.12-8.51c5.81-1.62,12.77-2.43,20.86-2.43c9.27,0,16.74,0.7,22.41,2.1c5.67,1.4,10.74,4.09,15.23,8.07 c4.49,3.98,7.69,9.8,9.6,17.47c1.91,7.66,2.87,17.61,2.87,29.85C177.28,132.11,173.31,147.59,165.36,155.99z M147.37,80.6 c-3.61-4.86-10.49-7.3-20.64-7.3c-9.27,0-16,2.51-20.2,7.52c-4.19,5.01-6.29,14.66-6.29,28.96c0,15.48,1.88,25.68,5.63,30.62 c3.75,4.93,10.49,7.4,20.2,7.4c9.86,0,16.78-2.39,20.75-7.18c3.97-4.79,5.96-14.78,5.96-29.96 C152.78,95.49,150.98,85.47,147.37,80.6z" fill="url(#SVGID_2_)"/><linearGradient id="SVGID_3_" gradientUnits="userSpaceOnUse" x1="248.38" y1="168.595" x2="248.38" y2=".347"><stop offset="0" stop-color="#1d1f28"/><stop offset="1" stop-color="#393950"/></linearGradient><path d="M198.93,6.54c0-4.13,1.69-6.19,5.08-6.19h14.13c3.53,0,5.3,2.06,5.3,6.19v54.61 c8.24-5.89,20.24-8.84,35.98-8.84c13.24,0,22.96,4.38,29.14,13.15c6.18,8.77,9.27,23.18,9.27,43.22c0,12.24-1.1,22.3-3.31,30.18 c-2.21,7.89-5.7,14-10.49,18.35c-4.78,4.35-10.34,7.33-16.67,8.95c-6.33,1.62-14.27,2.43-23.84,2.43 c-14.42,0-26.27-1.55-35.54-4.64c-3.83-1.33-6.4-3.39-7.73-6.19c-0.88-2.06-1.32-5.01-1.32-8.84V6.54z M224.54,143.83 c0.88,1.33,2.43,2.21,4.64,2.65c3.97,1.03,8.83,1.55,14.57,1.55c12.07,0,20.01-2.62,23.84-7.85c3.83-5.23,5.74-15.15,5.74-29.74 c0-13.71-1.43-23.25-4.3-28.63c-2.87-5.38-8.94-8.07-18.21-8.07c-11.18,0-19.21,1.55-24.06,4.64c-1.47,1.03-2.43,1.99-2.87,2.87 c-0.29,0.88-0.44,2.43-0.44,4.64v52.18C223.44,141.03,223.8,142.95,224.54,143.83z" fill="url(#SVGID_3_)"/><linearGradient id="SVGID_4_" gradientUnits="userSpaceOnUse" x1="353.361" y1="168.595" x2="353.361" y2="52.304"><stop offset="0" stop-color="#1d1f28"/><stop offset="1" stop-color="#393950"/></linearGradient><path d="M340.45,118.41c-9.12-2.36-15.89-6.04-20.31-11.05c-4.42-5.01-6.62-12.09-6.62-21.22 c0-22.55,14.35-33.83,43.05-33.83c13.1,0,23.47,1.18,31.13,3.54c2.8,0.74,4.19,2.51,4.19,5.31c0,1.92-0.88,5.9-2.65,11.94 c-0.44,2.21-1.77,3.32-3.97,3.32c-0.88,0-2.65-0.22-5.3-0.66c-7.5-1.92-15.6-2.87-24.28-2.87c-7.21,0-12.03,1.07-14.46,3.21 c-2.43,2.13-3.64,5.2-3.64,9.17c0,2.95,0.96,5.31,2.87,7.07c1.91,1.77,6.03,3.61,12.36,5.53l15.01,4.42 c10.45,3.1,17.73,6.93,21.85,11.5c4.12,4.57,6.18,11.5,6.18,20.78c0,22.7-14.64,34.05-43.93,34.05c-16.78,0-29.29-1.84-37.53-5.53 c-2.35-0.88-3.53-2.65-3.53-5.31c0-1.77,1.03-5.45,3.09-11.06c1.03-2.65,2.65-3.98,4.86-3.98c1.18,0,3.09,0.44,5.74,1.33 c8.39,2.51,17.81,3.76,28.26,3.76c7.65,0,12.8-1.22,15.45-3.65c2.65-2.43,3.97-5.56,3.97-9.39c0-2.95-0.96-5.24-2.87-6.86 c-1.91-1.62-6.04-3.31-12.36-5.09L340.45,118.41z" fill="url(#SVGID_4_)"/><linearGradient id="SVGID_5_" gradientUnits="userSpaceOnUse" x1="460.654" y1="168.595" x2="460.654" y2="52.081"><stop offset="0" stop-color="#553981"/><stop offset="1" stop-color="#824aac"/></linearGradient><path d="M499.62,155.99c-7.95,8.4-21.19,12.6-39.74,12.6c-17.95,0-30.79-4.09-38.52-12.27 c-7.72-8.18-11.59-23.54-11.59-46.1c0-11.64,1.21-21.41,3.64-29.29c2.43-7.88,6.11-13.86,11.04-17.91 c4.93-4.05,10.3-6.89,16.11-8.51c5.81-1.62,12.77-2.43,20.86-2.43c9.27,0,16.74,0.7,22.41,2.1c5.67,1.4,10.74,4.09,15.23,8.07 c4.49,3.98,7.69,9.8,9.6,17.47c1.91,7.66,2.87,17.61,2.87,29.85C511.54,132.11,507.56,147.59,499.62,155.99z M481.62,80.6 c-3.61-4.86-10.49-7.3-20.64-7.3c-9.27,0-16,2.51-20.2,7.52c-4.2,5.01-6.29,14.66-6.29,28.96c0,15.48,1.88,25.68,5.63,30.62 c3.75,4.93,10.49,7.4,20.2,7.4c9.86,0,16.78-2.39,20.75-7.18c3.97-4.79,5.96-14.78,5.96-29.96 C487.03,95.49,485.23,85.47,481.62,80.6z" fill="url(#SVGID_5_)"/><linearGradient id="SVGID_6_" gradientUnits="userSpaceOnUse" x1="565.529" y1="166.164" x2="565.529" y2="52.304"><stop offset="0" stop-color="#553981"/><stop offset="1" stop-color="#824aac"/></linearGradient><path d="M552.39,166.16h-14.13c-3.38,0-5.08-1.92-5.08-5.75V76.4c0-3.69,0.41-6.45,1.21-8.29 c0.81-1.84,2.39-3.65,4.75-5.42c3.53-2.51,9.49-4.86,17.88-7.07c8.39-2.21,16.48-3.32,24.28-3.32c5.74,0,10.08,0.37,13.03,1.11 c2.35,0.74,3.53,2.36,3.53,4.86c0,4.86-0.37,9.14-1.1,12.82c-0.44,2.21-2.06,3.31-4.86,3.31c-0.74,0-2.61-0.07-5.63-0.22 c-3.02-0.15-5.04-0.22-6.07-0.22c-7.8,0-13.83,1.18-18.1,3.54c-1.91,0.89-3.09,1.92-3.53,3.1c-0.59,1.47-0.88,3.54-0.88,6.19v73.62 C557.69,164.25,555.93,166.16,552.39,166.16z" fill="url(#SVGID_6_)"/><linearGradient id="SVGID_7_" gradientUnits="userSpaceOnUse" x1="651.422" y1="168.595" x2="651.422" y2="52.081"><stop offset="0" stop-color="#553981"/><stop offset="1" stop-color="#824aac"/></linearGradient><path d="M695.46,157.1c-1.77,2.36-4.12,4.05-7.06,5.09c-4.27,1.77-10.56,3.28-18.88,4.53 c-8.31,1.25-16.3,1.88-23.95,1.88c-15.45,0-26.08-3.17-31.9-9.51c-5.81-6.34-8.72-15.03-8.72-26.09c0-12.68,4.12-21.67,12.36-26.97 c7.06-4.42,18.69-6.63,34.88-6.63c9.12,0,16.26,0.29,21.41,0.88v-7.29c0-5.6-0.44-9.58-1.33-11.94c-1.91-5.01-8.75-7.52-20.53-7.52 c-7.36,0-15.08,0.81-23.18,2.43c-5.74,0.88-8.68,1.33-8.83,1.33c-2.06,0-3.46-1.18-4.19-3.54c-1.18-4.42-1.77-8.04-1.77-10.84 s1.47-4.71,4.42-5.75c11.48-3.39,23.84-5.09,37.08-5.09c17.66,0,29.36,2.87,35.1,8.62c5.01,4.86,7.51,14.59,7.51,29.18v57.26 C697.89,151.87,697.08,155.18,695.46,157.1z M655.06,117.08c-10.74,0-18.03,1.25-21.85,3.76c-3.24,1.92-4.86,5.75-4.86,11.5 c0,5.6,1.43,9.84,4.3,12.71c2.87,2.87,8.2,4.31,16.01,4.31c8.68,0,15.45-0.96,20.31-2.87c2.06-0.89,3.31-2.14,3.75-3.76 c0.59-1.77,0.88-4.28,0.88-7.52v-17.24C667.43,117.38,661.25,117.08,655.06,117.08z" fill="url(#SVGID_7_)"/></svg><svg height="32" viewBox="0 0 32 32" width="32" x="4" y="206"><defs><clipPath id="a"><path d="M-337.711,298.391h-15v6.182h8.632c-.8,3.927-4.17,6.182-8.632,6.182a9.463,9.463,0,0,1-9.51-9.455,9.463,9.463,0,0,1,9.51-9.455,9.337,9.337,0,0,1,5.925,2.109l4.682-4.655a16.073,16.073,0,0,0-10.607-4,16,16,0,0,0-16.093,16,16,16,0,0,0,16.093,16c8.046,0,15.362-5.818,15.362-16A13.2,13.2,0,0,0-337.711,298.391Z" transform="translate(368.8 -285.3)"/></clipPath></defs><path fill="none" d="M0 0H32V32H0z"/><g clip-path="url(#a)" transform="translate(.273)"><path d="M-370.8,313.209V294.3l12.436,9.455Z" transform="translate(369.337 -287.755)" fill="#fbbc05"/></g><g clip-path="url(#a)" transform="translate(.273)"><path d="M-370.8,291.3l12.436,9.455,5.12-4.436,17.556-2.836V283.3H-370.8Z" transform="translate(369.337 -284.755)" fill="#ea4335"/></g><g clip-path="url(#a)" transform="translate(.273)"><path d="M-370.8,310.209l21.945-16.727,5.779.727,7.388-10.909v34.909H-370.8Z" transform="translate(369.337 -284.755)" fill="#34a853"/></g><g clip-path="url(#a)" transform="translate(.273)"><path d="M-332.2,321.209l-22.677-17.455-2.926-2.182,25.6-7.273Z" transform="translate(365.846 -287.755)" fill="#4285f4"/></g></svg><svg height="31.872" viewBox="0 0 32 32" width="32" x="4" y="242"><path d="M18,2.04a16.037,16.037,0,0,0-2.5,31.872v-11.2H11.44v-4.64H15.5V14.536c0-4.016,2.384-6.224,6.048-6.224a25.082,25.082,0,0,1,3.568.3v3.952H23.1a2.313,2.313,0,0,0-2.608,2.5v3.008h4.448l-.72,4.64H20.5v11.2A16.037,16.037,0,0,0,18,2.04Z" transform="translate(-2 -2.04)" fill="#1669e8"/></svg><svg height="24" viewBox="0 0 24 24" width="24" x="4" y="278" fill="none"><path d="M23 12C23 5.92486 18.0751 1 12 1C5.92486 1 1 5.92486 1 12C1 17.4904 5.02256 22.0412 10.2812 22.8664V15.1797H7.48828V12H10.2812V9.57656C10.2812 6.81969 11.9235 5.29688 14.4361 5.29688C15.6396 5.29688 16.8984 5.51172 16.8984 5.51172V8.21875H15.5114C14.1449 8.21875 13.7188 9.06665 13.7188 9.93655V12H16.7695L16.2818 15.1797H13.7188V22.8664C18.9775 22.0412 23 17.4904 23 12Z" fill="#1877F2"/><path d="M16.2818 15.1797L16.7695 12H13.7188V9.93655C13.7188 9.06665 14.1449 8.21875 15.5114 8.21875H16.8984V5.51172C16.8984 5.51172 15.6396 5.29688 14.4361 5.29688C11.9235 5.29688 10.2812 6.81969 10.2812 9.57656V12H7.48828V15.1797H10.2812V22.8664C10.8413 22.9542 11.4153 23 12 23C12.5847 23 13.1587 22.9542 13.7188 22.8664V15.1797H16.2818Z" fill="#fff"/></svg><svg height="24" viewBox="0 0 24 24" width="24" x="4" y="306" fill="none"><g clip-path="url(#clip0_59_372)" fill-rule="evenodd" clip-rule="evenodd"><path d="M5.74113 12C5.74113 11.2855 5.85973 10.6004 6.07165 9.95791L2.3643 7.12695C1.64174 8.59391 1.23474 10.247 1.23474 12C1.23474 13.7515 1.6414 15.4034 2.36276 16.8695L6.06804 14.0331C5.85818 13.3935 5.74113 12.711 5.74113 12Z" fill="#FBBC05"/><path d="M12.2505 5.50003C13.8027 5.50003 15.2046 6.05003 16.3062 6.94997L19.5106 3.75C17.558 2.04998 15.0544 1 12.2505 1C7.89721 1 4.15583 3.48944 2.36438 7.127L6.07155 9.95795C6.92577 7.36505 9.36072 5.50003 12.2505 5.50003Z" fill="#EA4335"/><path d="M12.2505 18.4999C9.3609 18.4999 6.92594 16.6349 6.07172 14.042L2.36438 16.8724C4.15583 20.5105 7.89721 22.9999 12.2505 22.9999C14.9372 22.9999 17.5024 22.0459 19.4276 20.2584L15.9086 17.5379C14.9157 18.1634 13.6653 18.4999 12.2505 18.4999Z" fill="#34A853"/><path d="M22.7652 12.0001C22.7652 11.35 22.665 10.65 22.5147 10.0001H12.2504V14.2501H18.1587C17.8633 15.6992 17.0593 16.8131 15.9086 17.538L19.4275 20.2585C21.4498 18.3816 22.7652 15.5855 22.7652 12.0001Z" fill="#4285F4"/></g><defs><clipPath id="clip0_59_372"><path fill="#fff" transform="translate(1 1)" d="M0 0H22V22H0z"/></clipPath></defs></svg><svg height="18" viewBox="0 0 18 18" width="18" x="4" y="334"><path d="M19,3a2,2,0,0,1,2,2V19a2,2,0,0,1-2,2H5a2,2,0,0,1-2-2V5A2,2,0,0,1,5,3H19m-.5,15.5V13.2a3.26,3.26,0,0,0-3.26-3.26,2.9,2.9,0,0,0-2.32,1.3V10.13H10.13V18.5h2.79V13.57a1.4,1.4,0,1,1,2.79,0V18.5H18.5M6.88,8.56A1.685,1.685,0,1,0,5.19,6.88,1.68,1.68,0,0,0,6.88,8.56M8.27,18.5V10.13H5.5V18.5Z" transform="translate(-3 -3)" fill="#0f5dbb"/></svg></svg>