<svg xmlns="http://www.w3.org/2000/svg" width="176" height="176" viewBox="0 0 176 176" fill="none"><path d="M37.813 176H0V0h176v176h-36.094c-.069-1.822.103-3.695-.258-5.466-.601-2.973-1.443-5.912-2.389-8.817-.412-1.289-1.203-2.509-2.011-3.644-.618-.876-1.529-1.529-2.268-2.32-2.767-2.956-6.016-5.362-9.247-7.751a50.25 50.25 0 0 0-5.964-3.833c-2.699-1.478-5.586-2.647-8.285-4.142-2.423-1.341-4.726-2.888-7.442-3.627-.24-.069-.533-.292-.601-.516-.189-.584-.31-1.22-.379-1.839l-.773-6.17-.773-6.428c-.069-.585.189-.808.722-1.031 2.732-1.118 5.19-2.596 6.96-5.088.671-.945 1.496-1.787 2.269-2.681 1.117-1.289 2.303-2.544 3.352-3.902 1.976-2.561 3.472-5.431 4.743-8.404.843-1.994 2.011-3.85 2.2-6.085.035-.481.31-.963.465-1.444.996.412 1.873.98 2.835 1.117 2.647.395 6.24-1.358 7.494-4.108 1.822-3.936 2.166-8.061 1.616-12.306-.12-.877-.378-1.719-.585-2.578-.481-2.062-1.89-3.231-3.884-3.781.292-.602.584-1.117.791-1.667.429-1.083.79-2.2 1.22-3.283.55-1.392.602-2.819.533-4.297-.103-2.148-.275-4.331-.052-6.462.361-3.386.516-6.72-.378-10.02-.533-1.942-1.151-3.867-1.805-5.775-.807-2.424-1.478-4.95-2.595-7.219-1.358-2.733-3.18-5.259-5.826-6.961s-5.432-3.18-8.01-4.95c-1.822-1.237-3.815-1.908-5.912-2.372l-5.088-1.1c-3.042-.584-6.084-1.323-9.212-1.134l-5.706.344c-3.953.241-7.7 1.152-11.155 3.145-2.32 1.323-4.572 2.698-6.084 5.019-.258.395-.602.722-.877 1.049-.464-.172-.825-.413-1.203-.43-2.131-.052-4.28-.086-6.377.481-2.561.688-4.675 2.217-6.875 3.575-1.203.739-2.303 1.564-2.733 2.939-.567 1.839-1.1 3.712-1.478 5.603-.481 2.389-.567 4.864-1.358 7.202-.378 1.1-.756 2.252-.859 3.386-.241 3.111.172 6.153 1.323 9.075a2.67 2.67 0 0 1 .155.911c-.103 3.197-.877 6.394-.12 9.608.292 1.203.55 2.423.98 3.592.172.481.223.636-.206.945-1.375 1.014-2.406 2.32-2.647 4.056-.206 1.495-.275 3.008-.361 4.503-.172 3.077.584 5.93 1.994 8.645 1.203 2.338 4.194 4.073 6.824 3.867.877-.069 1.736-.189 2.63-.275.172.567.292 1.083.481 1.599 1.547 4.451 3.403 8.782 5.827 12.839.997 1.667 1.977 3.368 3.248 4.829 2.406 2.75 5.517 4.675 8.559 6.635.808.515 1.719.859 2.561 1.272-.052.292-.12.515-.138.739l-.533 7.408c-.223 2.406-.584 4.795-.808 7.201-.052.584-.309.722-.756.928-1.959.86-3.953 1.667-5.827 2.682-3.334 1.804-6.617 3.712-9.9 5.637-2.303 1.358-4.606 2.75-6.823 4.263-2.424 1.649-4.692 3.557-7.167 5.139-2.733 1.735-4.4 4.193-5.466 7.132-.653 1.788-1.186 3.627-1.65 5.483-.361 1.461-.602 2.956-.756 4.452-.155 1.512-.137 3.059-.189 4.589l-.086.017z" fill="#fefefe"/><path d="M37.813 176l.189-4.589c.155-1.495.395-2.991.756-4.452l1.65-5.482c1.066-2.922 2.733-5.397 5.466-7.133 2.475-1.564 4.727-3.489 7.167-5.139l6.824-4.263c3.266-1.925 6.548-3.833 9.9-5.637 1.873-1.014 3.867-1.822 5.826-2.682.447-.206.705-.343.756-.928.223-2.406.584-4.795.808-7.201.223-2.458.361-4.95.533-7.408 0-.223.086-.447.138-.739-.842-.413-1.753-.756-2.561-1.272-3.059-1.959-6.17-3.867-8.559-6.634-1.255-1.444-2.252-3.163-3.248-4.83-2.423-4.056-4.28-8.37-5.827-12.839-.172-.516-.309-1.031-.481-1.598l-2.63.275c-2.63.206-5.62-1.512-6.823-3.867-1.409-2.716-2.166-5.569-1.994-8.645.086-1.513.155-3.008.361-4.503.241-1.736 1.272-3.042 2.647-4.056.412-.309.378-.464.206-.945-.43-1.152-.687-2.372-.98-3.592-.756-3.214.034-6.411.12-9.608 0-.309-.034-.636-.155-.911-1.152-2.922-1.564-5.964-1.324-9.075.086-1.152.481-2.286.859-3.386.791-2.337.894-4.812 1.358-7.202.378-1.891.911-3.747 1.478-5.603.43-1.375 1.53-2.2 2.733-2.939 2.2-1.358 4.331-2.887 6.875-3.575 2.097-.567 4.228-.55 6.377-.481.378 0 .739.258 1.203.43.275-.327.619-.653.877-1.048 1.512-2.303 3.764-3.678 6.084-5.019 3.472-1.994 7.219-2.905 11.155-3.145l5.706-.344c3.145-.189 6.17.55 9.212 1.134 1.702.327 3.386.722 5.088 1.1 2.097.464 4.073 1.117 5.912 2.372 2.596 1.77 5.38 3.248 8.01 4.95 2.647 1.702 4.468 4.211 5.826 6.961 1.135 2.286 1.788 4.795 2.596 7.219.635 1.908 1.271 3.833 1.804 5.775.894 3.3.739 6.634.378 10.02-.223 2.131-.051 4.314.052 6.462.069 1.478.017 2.905-.533 4.297-.43 1.083-.791 2.2-1.22 3.283-.206.55-.499 1.066-.791 1.667 1.994.55 3.386 1.701 3.885 3.781.206.859.464 1.702.584 2.578.55 4.245.206 8.353-1.616 12.306-1.272 2.75-4.847 4.503-7.493 4.108-.946-.138-1.84-.722-2.836-1.117-.155.481-.43.945-.464 1.444-.172 2.234-1.358 4.091-2.2 6.085-1.272 2.973-2.768 5.844-4.744 8.405-1.049 1.357-2.235 2.595-3.352 3.901-.756.894-1.598 1.736-2.268 2.681-1.754 2.475-4.229 3.971-6.961 5.088-.55.223-.808.447-.722 1.031l.773 6.428.774 6.171c.085.618.189 1.237.378 1.839.068.223.378.464.601.515 2.716.722 5.019 2.269 7.442 3.627 2.699 1.495 5.569 2.664 8.285 4.142a51.67 51.67 0 0 1 5.964 3.833c3.231 2.406 6.48 4.795 9.247 7.751.739.791 1.65 1.444 2.269 2.321.79 1.134 1.581 2.337 2.01 3.643.929 2.888 1.771 5.827 2.389 8.818.361 1.77.19 3.643.258 5.465h-19.937c.498-.962 2.08-1.77 3.076-1.461 1.908.585 3.816.928 5.827.791a1.84 1.84 0 0 1 .43.034c1.701.292 3.454.241 4.95-.481 2.096-1.014 3.472-1.891 2.543-4.675-.532.206-1.1.344-1.581.636-.962.567-1.839 1.375-3.042 1.341-1.049-.018-2.114-.052-3.163-.155-.962-.086-1.942-.155-2.853-.43-2.268-.687-4.365-.584-6.376.774-1.083.722-2.303 1.237-3.421 1.925-.79.498-1.495 1.117-2.234 1.701h-7.391c-.739-.275-1.495-.515-2.217-.825-2.87-1.254-5.878-1.547-8.937-1.031-1.564.258-3.094.739-4.314 1.873H75.539l-2.424-1.615c-2.767-1.874-5.723-1.891-8.748-.791-1.289.464-2.492 1.238-3.816 1.478-1.719.327-3.506.275-5.259.413-1.186.086-2.08-.396-2.888-1.203-1.633-1.633-3.3-3.249-4.984-4.83-1.547-1.444-2.544-1.547-4.28-.567-.825.464-.876 2.045.034 2.372 2.2.773 3.438 2.664 5.122 4.039.206.154.292.447.43.687h-11l.086-.017zM78.117 55.017l-4.194 4.864c-.378.43-.911.722-1.203 1.186-.533.842-1.22 1.203-2.217 1.169-1.633-.052-3.145.567-4.538 1.272-.98.481-1.839 1.117-3.008.98-.258-.034-.567.086-.825.224-1.083.584-2.148 1.151-3.18 1.805-.292.189-.584.602-.602.928-.155 1.753-.258 3.506-.292 5.242-.052 2.2-.103 4.4.034 6.6.137 2.269.464 4.52.739 6.789.12.98.189 1.994.447 2.939.894 3.249 1.959 6.428 3.317 9.522 1.53 3.472 3.42 6.72 5.414 9.917 1.22 1.977 3.145 3.197 4.933 4.572 3.248 2.527 6.755 4.572 10.828 5.483l4.572 1.1c.326.086.687.206.997.155a83.56 83.56 0 0 0 4.022-.757c1.891-.412 3.764-.842 5.638-1.358 2.08-.567 3.867-1.632 5.277-3.317l3.867-4.572c1.014-1.203 2.097-2.354 2.973-3.643 3.128-4.572 5.174-9.625 6.497-14.971.773-3.145 1.375-6.359 1.667-9.573.361-3.867.344-7.751.378-11.636 0-.756-.292-1.788-.825-2.217-1.684-1.358-3.609-2.372-5.654-3.163-2.011-.791-4.125-.756-6.171-1.289-1.203-.309-2.509-.619-3.695-.464-1.53.189-2.939-.206-4.383-.378l-7.184-.876c-.189-.017-.395-.069-.584-.12-1.358-.43-2.698-.911-4.073-1.272-.928-.241-1.994-.069-2.836-.447-1.255-.567-2.441-1.375-3.523-2.234-.98-.756-1.787-1.736-2.527-2.475l-.086.017zm28.549 110.842c.911-.223 1.856-.309 2.698-.687 1.358-.602 2.698-1.289 3.919-2.114 1.134-.774 2.183-1.736 3.162-2.699 1.805-1.77 3.696-3.437 6.153-4.211 1.822-.584 2.132-.91 1.805-2.732-.034-.224-.43-.585-.619-.568-.756.086-1.529.207-2.234.482-2.767 1.117-5.156 2.836-7.184 5.018-1.066 1.135-2.2 2.183-3.61 2.836-1.117.516-2.114 1.496-3.472 1.255-.945-.172-1.89-.412-2.784-.773-1.719-.688-2.922-2.08-4.228-3.318-.395-.378-.945-.79-1.444-.807-2.011-.103-4.091-.396-6.016.395-2.045.842-3.987 1.959-6.05 2.784-1.873.757-3.833.585-5.397-.756-1.117-.945-1.925-2.234-2.905-3.351-1.203-1.393-1.977-3.129-4.383-3.215-2.234-.085-4.228.258-6.17 1.255l-5.569 2.819c-.224.12-.55.103-.808.069-1.788-.293-3.059-1.289-3.953-2.836-.687-1.186-1.358-1.186-3.042-.086-.55.361-.498 1.254.12 2.062l1.599 2.114c1.186 1.616 4.366 2.647 6.205 1.874 1.787-.756 3.558-1.581 5.242-2.527 1.701-.945 3.317-1.839 5.38-1.409.688.137 1.272.309 1.701.825.619.756 1.152 1.547 1.753 2.32 1.547 2.011 2.956 4.245 5.878 4.366 1.323.051 2.733.189 3.987-.155 1.667-.447 3.317-1.151 4.778-2.08 1.788-1.134 3.627-1.461 5.638-1.271.447.034.928.257 1.289.532.773.619 1.461 1.358 2.217 2.011 1.805 1.582 3.885 2.475 6.36 2.578h-.017zm-25.953-41.49l-.447 4.537-.877 7.786c-.034.258.138.671.326.774a75.98 75.98 0 0 0 4.263 2.148c1.908.894 3.987.963 6.033.928 1.495-.034 3.008-.326 4.434-.739 1.461-.412 3.214-.447 3.936-2.234.034-.086.155-.155.172-.155-.206-1.134-.43-2.2-.567-3.266l-.859-6.926c-.052-.516-.344-.602-.756-.55l-2.698.344c-3.403.464-6.72.137-9.883-1.221-.98-.429-1.942-.911-3.042-1.426h-.034zm40.528-35.217l2.423 1.22c1.341.67 3.231.103 3.884-1.255.413-.842.688-1.753 1.014-2.63.963-2.595.757-5.311.654-7.975-.069-1.392-.396-2.853-1.943-3.575-1.031-.481-3.575-.189-4.4.55a.47.47 0 0 0-.137.292l-.327 3.352c.98-.12 1.943-.464 2.836-.309 2.046.344 2.905 1.547 2.974 3.678.017.619-.671 1.564-1.238 1.684-.842.172-1.22-.086-1.667-.962-.155-.327-.464-.756-.773-.808-.739-.155-1.513-.12-2.269-.155l-1.031 6.909v-.017zm-65.897-6.961c-.705-.069-1.203 0-1.409.67-.069.241-.206.533-.395.653-.464.275-.962.619-1.478.636-.275 0-.687-.533-.842-.911-.447-1.083 0-2.355 1.014-2.973.67-.412 1.409-.739 2.08-1.169.223-.138.413-.43.481-.687.086-.327.017-.687.017-1.031 0-1.684-.813-2.664-2.441-2.939-1.53-.275-2.492.395-3.094 1.891-.67 1.616-.395 3.317-.498 5.002-.138 2.32.481 4.452 1.702 6.342 1.066 1.65 2.853 2.269 4.744 2.526.155.017.378 0 .481-.12.172-.172.412-.447.395-.653-.103-1.323-.292-2.664-.43-3.987l-.344-3.283.017.034zm3.781-51.442l7.373.808c-1.719-1.616-4.984-2.028-7.373-.808zm67.134 126.225l-1.186 1.788 2.286-.722-1.1-1.083v.017zM53.728 36.816c.069 0 .155.034.224.034.292-.43.602-.842.928-1.306-.155-.155-.309-.327-.619-.653l-.533 1.908v.017z" fill="#bac1cc"/><path d="M48.813 176c-.138-.224-.241-.516-.43-.688-1.684-1.375-2.939-3.265-5.122-4.039-.911-.326-.859-1.907-.034-2.372 1.736-.979 2.733-.876 4.28.568l4.984 4.829c.808.808 1.719 1.289 2.888 1.203 1.753-.137 3.541-.068 5.259-.412 1.323-.258 2.527-1.014 3.816-1.478 3.025-1.1 5.981-1.083 8.748.79l2.423 1.616H48.813V176z" fill="#fdfdfd"/><path d="M114.125 176l2.234-1.702 3.421-1.925c2.028-1.34 4.125-1.461 6.376-.773.911.275 1.891.344 2.853.43l3.163.154c1.22.018 2.08-.773 3.042-1.34.481-.292 1.049-.43 1.581-.636.928 2.784-.447 3.661-2.543 4.675-1.496.722-3.266.773-4.95.481-.138-.017-.293-.052-.43-.034-1.994.137-3.919-.189-5.827-.791-.997-.309-2.578.498-3.076 1.461h-5.844z" fill="#fdfefe"/><path d="M91.266 176c1.22-1.134 2.75-1.616 4.314-1.873 3.059-.499 6.067-.224 8.937 1.031l2.217.825H91.266V176z" fill="#fdfdfd"/><path d="M78.117 55.017c.739.739 1.547 1.702 2.527 2.475 1.1.859 2.269 1.667 3.523 2.234.842.378 1.908.206 2.836.447 1.375.344 2.716.842 4.073 1.272.189.052.378.103.584.12l7.184.877c1.461.172 2.853.567 4.383.378 1.203-.155 2.492.155 3.695.464 2.029.533 4.16.498 6.171 1.289 2.045.808 3.97 1.805 5.654 3.163.533.43.843 1.461.825 2.217-.034 3.884-.017 7.786-.378 11.636-.292 3.214-.911 6.428-1.667 9.573-1.306 5.345-3.369 10.399-6.497 14.971-.876 1.289-1.959 2.44-2.973 3.644l-3.867 4.571c-1.393 1.685-3.18 2.75-5.277 3.318-1.856.498-3.747.928-5.638 1.357-1.323.293-2.664.533-4.022.757-.326.051-.67-.069-.997-.155l-4.572-1.1c-4.073-.911-7.58-2.956-10.828-5.483-1.77-1.375-3.713-2.595-4.933-4.572-1.977-3.214-3.884-6.445-5.414-9.917-1.358-3.094-2.423-6.273-3.317-9.522-.258-.945-.327-1.959-.447-2.939-.258-2.252-.601-4.52-.739-6.789-.12-2.183-.069-4.4-.034-6.6.034-1.753.155-3.506.292-5.242.034-.327.326-.756.601-.928 1.031-.653 2.114-1.237 3.18-1.805.241-.138.55-.241.825-.223 1.169.138 2.028-.498 3.008-.98 1.409-.705 2.905-1.323 4.537-1.272.98.034 1.667-.327 2.217-1.169.292-.464.842-.756 1.203-1.186l4.194-4.864.086-.017zm15.194 37.486c-.327-.653-.877-.67-1.461-.739-1.547-.189-3.077-.412-4.623-.687-.223-.034-.55-.361-.55-.567-.051-1.169 0-2.355 0-3.523 0-1.358 0-2.733-.069-4.091-.052-.997-.275-1.977-.292-2.973l-.017-11.258c0-1.427-.687-2.355-1.994-2.595-1.151-.206-2.32-.378-3.472-.395-1.684-.034-3.369.069-5.036.155-1.409.086-2.836.223-4.245.378l-7.201.842c-.327.051-.602.43-.894.67.275.223.55.653.825.653h8.886c3.283-.103 6.549-.361 9.814.172.688.12.756.395.756.945l-.017 4.555c-.034 2.114-.155 4.228-.086 6.342.069 2.303.327 4.606.43 6.909.069 1.306 0 2.63.017 3.953 0 1.426.705 2.2 2.131 2.423l3.764.67c.344.052.808.155 1.048 0 .791-.533 1.53-1.186 2.32-1.839h-.034zm2.578-27.294v-.155c-.859.206-1.736.344-2.561.636-.619.206-1.306.567-1.169 1.375.137.773.825 1.048 1.53 1.151.275.034.567-.034.842-.086.653-.086 1.289-.224 1.942-.241l7.528-.223 7.837-.172c.309 0 .808-.223.894-.464.189-.481-.206-.67-.67-.722-2.39-.275-4.779-.653-7.185-.808-2.973-.189-5.981-.206-8.954-.292h-.034zM76.863 80.266c2.423-.017 3.661-1.702 2.991-4.056a3.46 3.46 0 0 1-.103-.584c-.12-1.151-1.1-2.097-2.234-2.045a10.48 10.48 0 0 0-2.423.378c-.43.12-.773.567-1.203.773-.808.395-.997.739-.739 1.598.103.327.155.67.275.98.636 1.719 1.117 3.18 3.455 2.956h-.017zm11.533 24.079c3.472-.034 6.308-.876 8.714-2.956.413-.361.67-.722.292-1.237-.361-.499-.808-.344-1.203-.086-3.094 2.062-6.531 2.303-10.055 1.804-1.581-.223-3.128-.79-4.675-1.237-.55-.155-1.169-.464-1.495.223-.309.671.309 1.014.756 1.358.069.052.155.086.224.12 2.458 1.221 5.036 1.977 7.442 1.994v.017zm12.564-24.423c1.822 0 3.386-1.581 3.18-3.248-.086-.67-.258-1.341-.378-2.011-.103-.55-.43-.808-.963-.945-1.409-.327-2.612-.138-3.85.756-1.512 1.1-1.822 1.444-1.048 3.111.825 1.805 1.547 2.475 3.077 2.32l-.018.017zm-11.67 28.205c.756-.275 1.581-.447 2.269-.843.241-.137.258-.773.258-1.186 0-.085-.636-.292-.911-.206-1.1.361-2.166.344-3.266 0-.275-.086-.825.035-.911.206-.12.258-.017.74.172.98.584.705 1.392.963 2.372 1.031l.017.018z" fill="#fefefe"/><path d="M106.666 165.859c-2.475-.12-4.555-.996-6.36-2.578l-2.217-2.011c-.344-.275-.842-.498-1.289-.532-2.011-.19-3.85.12-5.638 1.271-1.444.929-3.111 1.633-4.778 2.08-1.255.344-2.664.206-3.987.155-2.922-.103-4.331-2.338-5.878-4.366l-1.753-2.32c-.43-.516-.997-.688-1.702-.825-2.08-.43-3.695.464-5.38 1.409s-3.455 1.771-5.242 2.527c-1.839.773-5.019-.258-6.205-1.874l-1.598-2.114c-.619-.808-.687-1.701-.12-2.062 1.684-1.117 2.355-1.1 3.042.086.894 1.547 2.183 2.543 3.953 2.836.258.034.584.051.808-.069l5.569-2.819c1.942-.997 3.936-1.323 6.17-1.255 2.406.086 3.18 1.822 4.383 3.215.98 1.117 1.787 2.406 2.905 3.351 1.564 1.324 3.506 1.513 5.397.756l6.05-2.784c1.925-.791 4.005-.498 6.016-.395.498.017 1.048.447 1.444.807 1.306 1.238 2.509 2.613 4.228 3.318.894.361 1.839.601 2.784.773 1.375.258 2.355-.739 3.472-1.255 1.409-.653 2.544-1.684 3.609-2.836 2.029-2.165 4.418-3.884 7.185-5.018.704-.275 1.478-.396 2.234-.482.189-.017.567.344.619.568.326 1.822 0 2.148-1.805 2.732-2.458.791-4.348 2.441-6.153 4.211-.997.98-2.028 1.925-3.162 2.699-1.221.825-2.561 1.512-3.919 2.114-.842.378-1.788.464-2.699.687h.018z" fill="#fdfdfe"/><path d="M80.713 124.369l3.042 1.426c3.18 1.375 6.48 1.685 9.883 1.221l2.698-.344c.43-.052.705.034.756.55l.859 6.926.567 3.266s-.138.069-.172.155c-.722 1.787-2.475 1.822-3.936 2.234-1.444.395-2.956.705-4.434.739-2.045.034-4.108-.034-6.033-.928l-4.263-2.148c-.189-.104-.361-.516-.326-.774l.877-7.786.447-4.537h.034zm40.528-35.217l1.031-6.909c.739.034 1.53 0 2.269.155.309.069.601.481.773.808.43.877.825 1.152 1.667.962.567-.12 1.255-1.066 1.238-1.684-.069-2.131-.928-3.334-2.974-3.678-.893-.155-1.873.189-2.836.309l.327-3.352a.47.47 0 0 1 .137-.292c.825-.739 3.369-1.031 4.4-.55 1.547.722 1.874 2.183 1.943 3.575.12 2.664.309 5.38-.654 7.975l-1.014 2.63c-.653 1.358-2.526 1.925-3.884 1.255l-2.423-1.22v.017zm-65.897-6.961l.344 3.283.43 3.987c.017.206-.223.464-.395.653-.103.103-.326.138-.481.12-1.891-.258-3.678-.877-4.744-2.527-1.22-1.891-1.856-4.022-1.701-6.342.103-1.667-.172-3.369.498-5.002.619-1.495 1.564-2.166 3.094-1.891 1.627.286 2.441 1.266 2.441 2.939 0 .344.069.705-.017 1.031-.069.258-.258.55-.481.688L52.25 80.3c-1.014.619-1.461 1.908-1.014 2.974.155.378.567.911.842.911.498-.017 1.014-.361 1.478-.636.189-.12.327-.413.395-.653.206-.67.705-.739 1.409-.67l-.017-.034z" fill="#fefefe"/><path d="M59.125 30.748c2.389-1.22 5.655-.808 7.373.808l-7.373-.808z" fill="#fcfcfd"/><path d="M126.259 156.973l1.1 1.083-2.286.722 1.186-1.787v-.018z" fill="#fdfdfd"/><path d="M53.728 36.816l.533-1.908.619.653-.928 1.306c-.069 0-.155-.034-.224-.034v-.017z" fill="#f7f7f9"/><path d="M93.311 92.503l-2.32 1.839c-.241.172-.705.069-1.048 0l-3.764-.67c-1.427-.223-2.131-.997-2.131-2.423l-.017-3.953-.43-6.909.086-6.342.017-4.555c0-.55-.069-.842-.756-.945-3.266-.533-6.549-.275-9.814-.172h-8.886c-.275 0-.55-.43-.825-.653.292-.224.584-.619.894-.67l7.202-.842 4.245-.378 5.036-.155c1.169.017 2.32.189 3.472.395 1.323.241 1.994 1.169 1.994 2.595l.017 11.258c0 .997.241 1.977.292 2.973l.069 4.091v3.523c0 .206.326.533.55.567l4.623.688c.584.069 1.134.086 1.461.739h.034z" fill="#bbc2cc"/><path d="M95.889 65.209l8.955.292 7.184.808c.464.052.86.241.67.722-.103.241-.584.464-.893.464l-7.838.172-7.528.223c-.653.017-1.289.155-1.942.241-.275.034-.567.12-.842.086-.705-.103-1.392-.378-1.53-1.152-.138-.808.55-1.169 1.169-1.375.825-.275 1.702-.43 2.561-.636v.155h.034zM76.863 80.266c-2.337.223-2.802-1.237-3.455-2.956-.12-.326-.172-.653-.275-.98-.258-.859-.069-1.203.739-1.598.43-.206.756-.653 1.203-.773a10.62 10.62 0 0 1 2.424-.378c1.134-.052 2.114.911 2.234 2.045a3.46 3.46 0 0 0 .103.584c.67 2.355-.567 4.039-2.991 4.056h.017z" fill="#bbc2cd"/><path d="M88.395 104.345c-2.406-.034-4.984-.773-7.442-1.993-.069-.035-.155-.069-.223-.121-.43-.361-1.066-.704-.756-1.358.327-.687.945-.378 1.495-.223 1.547.43 3.094.997 4.675 1.238 3.523.515 6.961.275 10.055-1.805.395-.275.842-.413 1.203.086.361.515.12.876-.292 1.237-2.406 2.08-5.242 2.922-8.714 2.957v-.018z" fill="#bcc2cd"/><path d="M100.959 79.922c-1.529.155-2.251-.533-3.076-2.32-.773-1.667-.481-2.011 1.048-3.111 1.238-.894 2.441-1.083 3.85-.756.533.12.86.395.963.945l.378 2.011c.223 1.667-1.341 3.248-3.18 3.248l.017-.017z" fill="#bbc2cd"/><path d="M89.289 108.126c-.98-.085-1.788-.326-2.372-1.031-.189-.24-.292-.722-.172-.979.086-.19.636-.293.911-.207 1.1.344 2.166.361 3.266 0 .258-.086.911.121.911.207 0 .412 0 1.048-.258 1.185-.687.396-1.513.585-2.269.843l-.017-.018z" fill="#bdc3ce"/></svg>