<svg width="200" height="200" viewBox="0 0 200 200" fill="none" xmlns="http://www.w3.org/2000/svg"><path d="M82.422 170.586l-10.019.312c-4.082.137-8.164-.254-12.051-1.308-4.219-1.153-8.457-2.676-11.562-6.035-1.348-1.446-2.383-3.243-3.379-4.961a86.62 86.62 0 0 1-3.613-6.953c-1.289-2.774-1.719-5.801-2.129-8.829-.762-5.41-.312-10.839-.371-16.25-.02-1.855.137-3.691.195-5.546.078-2.891.059-5.782.234-8.672.215-3.223.625-6.446.918-9.668l.566-7.383c.254-5.098.566-10.176.566-15.273 0-3.73-.43-7.441-.684-11.172l-.645-9.609c-.195-3.008-.508-6.016-.508-9.023 0-2.559.254-5.117.625-7.637.332-2.266.43-4.492.078-6.758-.684-4.434 1.035-8.008 3.965-11.191 2.168-2.363 5.02-3.262 7.988-3.496 4.102-.332 8.242-.605 12.344-.371 8.808.508 17.617.254 26.426.332h18.242c3.633 0 7.286.098 10.918.215l8.262.352c2.695.059 5.371-.059 8.067.059 4.667.195 9.316.664 13.808 2.031 2.91.879 4.805 2.949 6.152 5.586 1.836 3.555 2.676 7.383 3.184 11.309.469 3.594 1.035 7.188.762 10.84-.137 1.836-.371 3.672-.567 5.508-.351 3.203-.586 6.387-.234 9.609.137 1.25.195 2.519.215 3.789l.176 12.383c-.039 4.414-.293 8.828-.371 13.242l-.176 18.046-.02 6.934c-.039 2.637-.195 5.254-.156 7.891l.371 16.836c.098 3.574.371 7.129.352 10.703-.039 5.254-2.657 9.062-7.071 11.719-3.359 2.011-7.07 2.753-10.957 2.753h-16.367c-.312 0-.625-.117-.937-.195.664-1.992 1.464-3.926 1.933-5.957.82-3.555.508-7.129-.703-10.566-.957-2.676-2.129-5.293-3.301-7.891-1.738-3.867-4.57-6.777-8.32-8.75-2.598-1.367-5.273-2.52-8.164-3.164-.586-.137-1.309-.254-1.641-.664-.39-.469-.761-.547-1.25-.488l-10.547 1.308c-3.828.547-6.953 2.637-9.668 5.196-1.406 1.328-2.305 3.242-3.203 5-.625 1.21-.84 2.617-.137 3.984.039.078-.02.234-.078.351-1.192 2.579-1.719 5.274-2.09 8.086-.41 3.223.098 6.153 1.68 8.926.898 1.563 1.914 3.047 2.891 4.551v-.039zM69.18 46.113c2.246 1.66 4.863 1.699 6.543-.469.273-.352.605-.469 1.172-.234 2.52 1.016 5.059 1.211 7.559-.117.527-.273 1.172-.488 1.758-.508 1.387-.02 2.773.176 4.141.117 1.758-.059 3.516-.254 5.273-.449.273-.02.703-.352.723-.547.019-1.484.898-2.93 0-4.453-.352-.605-.606-1.055-1.309-1.074-.527-.02-1.035.02-1.562.039-1.875.059-3.789.352-5.625.137-1.953-.234-3.77-.176-5.469.762-1.465.801-2.656.625-3.926-.41-1.66-1.367-3.75-1.191-5.312.313-.273.254-.449.605-.664.918-.84-.762-1.27-1.738-2.422-1.309-.059.02-.195-.176-.312-.195-.566-.078-1.191-.312-1.68-.176-.645.195-1.211.703-1.797 1.055-.293-.234-.645-.742-1.035-.781-1.816-.176-3.496.254-4.844 1.523-.254.234-.449.859-.312 1.094.976 1.738 1.914 3.516 3.125 5.098 1.016 1.328 3.633 1.523 4.922.625.371-.254.664-.606 1.055-.977v.02zm-12.715 9.883c-.098.039-.176.059-.273.098.43 1.172.801 2.344 1.289 3.496.195.469.605.625 1.133.332.723-.41 1.367-.332 2.129.098 1.68.918 3.535 1.27 5.41.742 1.621-.469 3.164-1.113 4.766-1.641.293-.098.723-.098.996.039 3.34 1.699 6.621 1.855 9.805-.293.82-.547 1.406-.43 2.051.176.723.703 3.047 1.133 3.809.547 1.25-.977 2.598-1.367 4.141-.996.098.02.215.059.293 0 .273-.176.645-.332.781-.605.313-.625.391-1.387.742-1.973.625-1.055-.039-1.992-.117-2.969 0-.176-.352-.371-.586-.449-2.051-.781-4.062-.918-6.074.156a1.31 1.31 0 0 1-1.016 0c-1.133-.527-2.266-1.113-3.535-.723-1.172.352-2.363.762-3.418 1.367-1.504.84-2.871.879-4.277-.059-1.289-.84-2.695-1.133-4.18-.625-1.562.527-3.086 1.172-4.668 1.68-.547.176-1.231.254-1.777.098-1.113-.312-2.031-1.016-3.242-1.328-1.953-.488-4.238.82-4.141 2.891l-.039-.059zm36.309 46.348v-.196h1.074c2.031 0 2.129 0 2.422-2.011.215-1.407-.41-2.364-1.777-2.285-2.598.156-5.195.156-7.793.195h-5.234c-6.328 0-12.656.332-18.965-.41-.371-.039-.977.195-1.113.488-.391.801-.645 1.68-.82 2.539-.137.645.234 1.035.918 1.094 2.129.195 4.238.527 6.367.547l19.121.019h5.82l-.02.02zm20.82-43.34v.078c.84-.078 1.679-.098 2.5-.273.254-.059.566-.43.644-.703.157-.645.02-1.387.293-1.973.547-1.172-.468-1.914-.625-2.871-.019-.156-.41-.352-.625-.371-1.289-.117-2.578-.234-3.847-.234-1.309 0-2.578.254-3.926-.215-1.133-.391-2.461-.527-3.477.566-.937 1.035-2.129.957-3.34.684-.566-.117-1.113-.41-1.679-.469s-1.367-.195-1.719.117c-1.348 1.172-2.031 2.715-2.09 4.531 0 .605.215.938.84 1.074 1.016.234 1.992.586 2.988.84 2.344.547 4.649.605 6.895-.391.469-.215.976-.371 1.484-.391 1.895-.039 3.789 0 5.703 0h-.019zM69.297 74.023c-2.695 0-5.391.039-8.105-.019-.723 0-1.152.273-1.328.859-.215.703-.352 1.445-.391 2.188-.039.84.352 1.289 1.309 1.27 1.895-.039 3.769 0 5.664 0l15.644-.117c2.402-.059 4.805-.41 7.188-.645.762-.078 1.387-.352 1.191-1.348-.059-.273-.02-.586-.02-.879.039-1.504-.703-2.148-2.187-2.051l-11.543.723c-2.461.117-4.941.019-7.422.019zm54.023 15.625h8.946c1.972 0 2.031 0 2.343-1.992.215-1.328-.429-2.344-1.757-2.324l-21.7.195c-1.035 0-1.191.762-1.328 1.504-.176.938-.468 1.934.391 2.734.137.117.43.078.664.078 1.094-.059 2.187-.176 3.281-.176h9.16v-.02zm-4.257-15.137c-.45-.293-1.133-.488-1.25-.879-.391-1.211-1.29-.996-2.129-.977l-13.711.371c-2.051.039-4.102 0-6.153 0-1.465 0-1.543.059-1.914 1.465-.098.332-.137.703-.156 1.055-.078 1.582.078 1.777 1.641 1.758l12.265-.176 8.789-.195c1.621-.058 2.539-.937 2.598-2.422h.02zM66.25 86.309l-4.863.449c-.332.039-.84.41-.898.703a12.34 12.34 0 0 0-.273 2.676c0 .605.41.957 1.113.879 1.348-.156 2.695-.352 4.043-.371 2.031-.019 4.082.098 6.113.156 1.836.059 3.691.176 5.527.176 1.68 0 3.359-.078 5.039-.195.957-.078 1.367-.781 1.133-1.719-.078-.352-.137-.703-.234-1.035-.332-1.289-.937-1.66-2.266-1.504-.801.098-1.621.176-2.422.156l-12.051-.391.039.019zm8.145 22.149l-11.641.762c-.41.039-1.035.566-1.133.976-.195.782-.137 1.66-.098 2.481.02.605.371.898 1.055.82 2.012-.234 4.043-.527 6.074-.566 4.238-.098 8.477-.039 12.715-.039 1.895 0 2.012-.118 2.363-1.934.039-.156.098-.313.117-.469.195-1.074-.703-2.07-1.699-2.051-2.519.04-5.059 0-7.754 0v.02zm15.391-22.051v-.078c-.488 0-.977.059-1.465 0-1.016-.137-1.524.332-1.699 1.269-.059.293-.176.566-.234.84-.312 1.66.117 2.246 1.816 2.168l8.359-.469c1.426-.078 2.852-.039 4.278-.137 1.113-.059 2.226-.312 3.359-.332 2.246-.059 2.246 0 2.617-2.207 0-.039.02-.059.02-.098.117-.977-.723-1.992-1.719-1.953-2.07.059-4.14.137-6.211.273l-9.102.723h-.019zm15.664 15.547c1.172 0 2.344.039 3.516 0 .566-.019 1.465 0 1.621-.312.352-.723.547-1.641.43-2.422-.215-1.387-.586-1.543-1.993-1.543h-6.23c-1.641 0-2.148.43-2.344 2.031-.058.449-.039.898-.019 1.367 0 .625.293.938.976.918 1.367-.039 2.735 0 4.082 0l-.039-.039z" fill="#196ffe"/><path d="M82.422 170.586l-2.891-4.551c-1.602-2.773-2.109-5.703-1.68-8.926.352-2.812.898-5.507 2.09-8.086.059-.117.117-.273.078-.351-.703-1.348-.488-2.754.137-3.984.918-1.758 1.817-3.672 3.203-5 2.695-2.559 5.82-4.649 9.668-5.196 3.516-.508 7.032-.879 10.547-1.308.469-.059.86 0 1.25.488.332.41 1.055.527 1.641.664 2.871.645 5.566 1.797 8.164 3.164 3.75 1.973 6.562 4.883 8.32 8.75 1.172 2.598 2.344 5.215 3.301 7.891 1.211 3.418 1.504 6.992.703 10.566-.469 2.031-1.269 3.984-1.933 5.957-.977 1.406-1.836 2.91-2.969 4.199-1.485 1.7-3.672 2.266-5.684 3.067-2.363.937-4.804 1.269-7.304 1.347l-5.176.196c-2.715.117-5.274-.664-7.852-1.367-3.066-.86-6.113-1.758-8.77-3.536-1.504-1.015-2.832-2.324-4.219-3.496-.195-.156-.391-.332-.586-.508l-.039.02zm37.324.469c2.774-4.121 3.867-8.614 2.93-13.535-.703-3.731-2.344-7.11-4.121-10.411-1.133-2.109-2.754-3.847-4.805-5.097-2.91-1.778-6.055-2.989-9.395-3.77-2.089-.488-4.121-.469-6.191.215-2.754.899-5.137 2.441-7.344 4.238-1.66 1.348-3.359 2.696-4.687 4.317-2.422 2.929-3.555 6.426-3.984 10.215-.293 2.48-.059 4.746 1.231 6.914 1.465 2.461 3.008 4.843 5.508 6.406.332.234.645.547.996.723 5.703 2.753 11.621 4.472 18.047 3.925 3.066-.254 6.093-.664 8.886-1.992 1.075-.508 1.954-1.406 2.93-2.129v-.019z" fill="#020203"/><path d="M69.18 46.113c-.391.371-.684.723-1.055.977-1.289.898-3.906.703-4.922-.625-1.211-1.582-2.148-3.359-3.125-5.098-.137-.234.078-.859.313-1.094 1.348-1.289 3.047-1.699 4.844-1.523.391.039.723.547 1.035.781.586-.352 1.133-.859 1.797-1.055.508-.156 1.113.078 1.68.176.117 0 .234.215.313.195 1.152-.43 1.582.547 2.422 1.309.215-.293.391-.645.664-.918 1.543-1.504 3.652-1.68 5.313-.312 1.27 1.035 2.461 1.211 3.926.41 1.699-.937 3.535-.996 5.469-.762 1.855.215 3.75-.078 5.625-.137l1.563-.039c.703.02.957.469 1.309 1.074.898 1.543 0 2.988 0 4.453 0 .195-.449.508-.723.547l-5.273.449c-1.387.039-2.754-.156-4.141-.117-.586 0-1.23.215-1.758.508-2.52 1.328-5.039 1.133-7.559.117-.547-.234-.879-.117-1.172.234-1.68 2.168-4.297 2.109-6.543.469v-.02z" fill="#fcfdfe"/><path d="M56.465 55.996c-.098-2.07 2.168-3.379 4.141-2.891 1.211.313 2.129.996 3.242 1.328.547.156 1.23.078 1.777-.098l4.668-1.68c1.484-.508 2.891-.215 4.18.625 1.426.938 2.793.898 4.277.059 1.055-.605 2.246-1.016 3.418-1.367 1.269-.391 2.402.195 3.535.723a1.31 1.31 0 0 0 1.016 0c2.012-1.074 4.043-.937 6.074-.156.234.078.566.293.586.449.078.977.742 1.934.117 2.969-.352.605-.449 1.348-.742 1.973-.137.273-.508.43-.781.605-.059.039-.195 0-.293 0-1.543-.371-2.871.02-4.141.996-.762.586-3.066.156-3.809-.547-.625-.605-1.231-.723-2.051-.176-3.184 2.148-6.465 1.992-9.805.293-.273-.137-.684-.137-.996-.039l-4.766 1.641c-1.875.547-3.73.195-5.41-.742-.781-.43-1.426-.508-2.129-.098-.527.293-.937.137-1.133-.332l-1.289-3.496.274-.098.039.059z" fill="#fbfcfe"/><path d="M92.774 102.344h-5.82c-6.367 0-12.754.039-19.121-.02-2.129-.019-4.238-.371-6.367-.547-.684-.058-1.055-.449-.918-1.093.195-.879.449-1.758.82-2.54.137-.293.762-.527 1.113-.488 6.309.742 12.637.41 18.965.41h5.234c2.598-.039 5.195-.039 7.793-.195 1.367-.078 1.992.879 1.777 2.285-.312 2.031-.391 2.012-2.422 2.012h-1.074v.195l.02-.019z" fill="#010203"/><path d="M113.594 59.004c-1.895 0-3.809-.02-5.703 0-.489 0-1.016.176-1.485.391-2.265 1.016-4.57.957-6.894.391l-2.988-.84c-.644-.137-.859-.469-.84-1.074.059-1.816.742-3.359 2.09-4.531.352-.312 1.152-.176 1.719-.117s1.113.352 1.68.469c1.211.273 2.402.332 3.34-.684 1.015-1.094 2.343-.957 3.476-.566 1.348.469 2.617.215 3.926.215 1.289 0 2.578.117 3.848.234.234 0 .605.215.625.371.175.957 1.191 1.699.625 2.871-.274.566-.137 1.328-.293 1.973-.078.273-.371.664-.645.703-.82.156-1.66.195-2.5.273v-.078h.02z" fill="#fcfcfe"/><path d="M69.297 74.023l7.422-.019c3.848-.176 7.695-.449 11.543-.723 1.484-.098 2.227.547 2.188 2.051 0 .293-.039.586.019.879.195.977-.43 1.27-1.191 1.348-2.402.254-4.785.605-7.187.645l-15.644.117c-1.895 0-3.77-.039-5.664 0-.937.019-1.348-.43-1.309-1.27a9.17 9.17 0 0 1 .391-2.187c.176-.586.625-.859 1.328-.859 2.695.059 5.391.019 8.105.019z" fill="#010203"/><path d="M123.32 89.649h-9.16c-1.094 0-2.187.117-3.281.176-.215 0-.527.039-.664-.078-.86-.781-.567-1.797-.391-2.734.137-.723.293-1.484 1.328-1.504l21.7-.195c1.328-.019 1.972.996 1.757 2.324-.312 1.992-.371 1.992-2.343 1.992h-8.946v.02z" fill="#010204"/><path d="M119.063 74.512c-.079 1.504-.977 2.383-2.598 2.422l-8.789.195-12.266.176c-1.562 0-1.719-.156-1.641-1.758 0-.352.059-.703.156-1.055.391-1.406.449-1.465 1.914-1.465h6.152l13.711-.371c.84-.02 1.738-.234 2.129.977.117.371.801.586 1.25.879h-.019zM66.25 86.309l12.051.391c.801.02 1.621-.078 2.422-.156 1.308-.156 1.933.234 2.266 1.504l.234 1.035c.234.918-.176 1.641-1.133 1.719a72.4 72.4 0 0 1-5.039.195c-1.836 0-3.691-.117-5.527-.176l-6.113-.156c-1.348 0-2.695.215-4.043.371-.723.078-1.113-.273-1.113-.879 0-.898.078-1.797.273-2.676.059-.293.567-.664.899-.703l4.863-.449-.039-.02z" fill="#010203"/><path d="M74.395 108.457h7.754a1.78 1.78 0 0 1 1.699 2.051c-.02.156-.098.312-.117.469-.332 1.816-.469 1.933-2.363 1.933-4.238 0-8.477-.039-12.715.039-2.031.039-4.043.332-6.074.567-.684.078-1.016-.196-1.055-.821-.039-.84-.098-1.699.098-2.48.098-.41.723-.938 1.133-.977l11.641-.761v-.02zm15.39-22.051l9.102-.723 6.211-.273c.996-.039 1.836.977 1.718 1.953 0 .039-.019.059-.019.098-.371 2.207-.371 2.168-2.617 2.207-1.114.019-2.227.273-3.36.332l-4.277.137-8.359.469c-1.68.078-2.109-.508-1.816-2.168.059-.293.176-.566.234-.84.195-.937.703-1.406 1.699-1.27.488.059.977 0 1.465 0v.078h.02zm15.664 15.547c-1.367 0-2.734-.019-4.082 0-.683 0-.957-.293-.976-.918 0-.449-.039-.918.019-1.367.215-1.602.723-2.012 2.344-2.031h6.23c1.426 0 1.778.156 1.993 1.543.117.781-.079 1.699-.43 2.422-.137.293-1.055.293-1.621.312h-3.516l.039.039z" fill="#010204"/><path d="M88.887 170.527c-2.5-1.562-4.043-3.945-5.508-6.406-1.289-2.168-1.504-4.414-1.23-6.914.43-3.789 1.582-7.285 3.984-10.215 1.348-1.621 3.047-2.988 4.688-4.316 2.207-1.797 4.59-3.34 7.344-4.238 2.051-.665 4.102-.704 6.191-.215 3.321.781 6.465 2.011 9.395 3.769 2.07 1.25 3.672 2.988 4.805 5.098 1.777 3.301 3.398 6.68 4.121 10.41.937 4.922-.176 9.414-2.93 13.535l-11.348-.351c-3.339-.059-6.699 0-10.039 0-.488 0-.977-.098-1.445-.098l-8.027-.059zm10.586-15.644c-1.25 0-2.5.039-3.769 0-1.543-.059-2.774.644-3.965 1.465-.254.175-.293.781-.312 1.191 0 .371.215.742.195 1.113-.195 2.012.84 2.871 2.832 2.578 1.816-.273 3.652-.273 5.566-.39l.176 3.711c.098 2.48.996 3.242 3.399 2.89h.097c1.563-.234 2.325-1.269 2.227-2.851-.078-1.25 0-2.5 0-3.75l7.734-.449c1.348-.078 2.325-1.426 1.973-2.715-.215-.801-.449-1.621-.527-2.442-.059-.722-.371-.898-.996-.859l-4.278.293c-1.211.059-2.441 0-3.515 0l-.567-7.461c-.039-.469-1.172-1.621-1.64-1.66-1.016-.098-3.106 1.152-3.321 2.168-.488 2.344-.84 4.707-1.289 7.207l-.019-.039z" fill="#1a6ffe"/><path d="M88.887 170.527l8.027.059c.488 0 .977.098 1.445.098h10.039c3.789.058 7.559.214 11.348.351-.976.723-1.855 1.621-2.93 2.129-2.793 1.328-5.82 1.738-8.886 1.992-6.426.547-12.344-1.172-18.047-3.926-.371-.175-.664-.488-.996-.722v.019z" fill="#fcfdfd"/><path d="M99.473 154.883l1.289-7.207c.215-1.016 2.324-2.266 3.32-2.168.469.039 1.602 1.191 1.641 1.66l.566 7.461h3.516l4.277-.293c.605-.039.938.156.996.859.059.821.293 1.641.527 2.442a2.18 2.18 0 0 1-1.972 2.715l-7.735.449v3.75c.098 1.582-.664 2.617-2.226 2.851h-.098c-2.402.352-3.301-.41-3.398-2.89l-.176-3.711-5.566.39c-1.992.293-3.027-.566-2.832-2.578.039-.351-.195-.742-.195-1.113.02-.41.059-1.016.313-1.191 1.172-.821 2.422-1.524 3.965-1.465h3.77l.02.039z" fill="#fcfdfe"/></svg>