<svg xmlns="http://www.w3.org/2000/svg" width="385" height="385" fill="none"><path d="M113.244 175.957l-1.09-9.437c0-.301-.263-.639-.188-.902.752-4.587-1.391-8.798-1.73-13.272-.413-5.151-1.316-10.302-1.729-15.453-.564-6.542-1.015-13.084-1.203-19.626-.151-5.076.376-10.151.225-15.189-.15-5.602-.827-11.204-1.165-16.806-.188-3.384-.339-6.768-.263-10.114.037-2.369 4.098-4.437 6.316-3.384.338.15.714.15 1.09.188l11.43.301 31.319.79 25.303.714 31.733.338c9.023-.075 18.046-.865 26.957-2.444 3.309-.564 6.73-.602 10.076-.827l15.34-.865c1.617-.113 2.369.639 2.594 1.993.376 2.181.752 4.399.79 6.617l.075 21.055c.15 4.775.902 9.55 1.278 14.324.301 3.948.376 7.934.602 11.881.225 3.685.564 7.332.865 10.979.188 2.556.639 5.113.639 7.632l-.301 27.409c0 .977.226 1.993.338 2.97v7.407l-.075 6.053c-.94 1.73-2.256 2.933-4.324 3.045-2.293.151-4.586.376-6.917.339l-19.138-.339-35.078-.376c-8.272-.075-16.543 0-24.777 0l-52.9-.375c-.639 0-1.241-.151-1.88-.151-3.384-.188-6.73-.489-10.114-.413-1.278 0-1.992-.188-2.594-1.204-.263-.488-.602-.94-.902-1.391l-.527-4.323-.225-7.144h.15zm76.662-56.02c-.865-1.316-1.241-2.632-2.068-3.008-3.196-1.429-6.542-1.617-9.7.112-.903.489-1.542.489-2.369 0-2.82-1.804-5.715-1.353-8.61-.15-.902.376-1.842.827-2.669 1.354-2.369 1.504-4.7 1.428-6.993-.076-2.143-1.428-4.512-1.879-6.956-1.052-2.594.864-5.151 1.955-7.745 2.782-1.015.301-2.256.376-3.234.075-1.842-.489-3.571-1.353-5.338-2.03-2.143-.827-5.941.601-6.392 2.444-.639 2.707-.263 5.339 1.053 7.82.564 1.09 1.353 1.579 2.594.865 1.053-.602 1.993-.339 3.083.263 2.857 1.541 5.978 2.143 9.174 1.241 2.632-.752 5.151-1.843 7.783-2.67.564-.188 1.315-.15 1.842.113 5.489 2.632 10.903 3.008 16.129-.526 1.429-.978 2.444-.79 3.61.338 1.278 1.278 4.962 1.617 6.466.602 1.918-1.354 3.911-2.068 6.279-1.542 1.279.301 1.918 0 2.331-1.504 1.053-3.948 2.331-4.662 5.602-3.948-.3 1.128-.676 2.256-.864 3.422-.264 1.617.075 2.782 2.03 3.045 1.353.188 2.632.903 3.985 1.015 2.82.264 5.677.602 8.46.414 2.293-.15 4.549-1.278 6.842-1.466 3.911-.301 7.821-.151 11.731-.226 1.241 0 2.068-.301 1.993-1.955-.076-1.166.526-2.369.752-3.572.376-1.842-1.918-4.7-3.798-4.7h-8.196c-.865 0-1.767-.075-2.557-.338-2.556-.865-4.85-.94-7.106.978a4.89 4.89 0 0 1-3.196 1.052c-1.917-.15-3.759-.827-5.677-1.09-.677-.113-1.767.113-2.143.564-1.88 2.444-4.361 1.316-6.053 1.429l-.075-.075zm-41.395-13.686l1.579.79c3.083 1.917 7.181 1.391 9.174-1.392.676-.94 1.428-.94 2.594-.488 4.023 1.541 8.083 1.842 12.069-.264.977-.488 2.143-.789 3.196-.827 2.293-.075 4.586.226 6.88.151 2.895-.113 5.79-.451 8.685-.752.414-.038 1.128-.564 1.166-.865.037-2.481 1.654-5.076-.113-7.482-.527-.714-1.279-1.466-2.068-1.692-.902-.263-1.993 0-2.97.038-3.309.038-6.618.338-9.889.075-2.97-.226-5.752.075-8.309 1.504-2.293 1.278-4.173.978-6.203-.639-3.121-2.444-6.429-2.143-9.287.639-.338.338-.714.639-1.053.978 0-.188.038-.376.076-.564-1.467-.564-2.895-1.203-4.399-1.617-.978-.263-2.106-.413-3.046-.15-1.015.263-1.88 1.09-2.406 1.429-1.128-.489-2.03-1.203-2.933-1.203-2.481 0-4.812.677-6.805 2.218-1.053.827-1.278 1.767-.564 2.933 1.091 1.955 2.068 3.985 3.234 5.865 2.331 3.835 8.384 5.677 11.542 1.354l-.15-.038zm.338 40.004v.376h-13.535c-1.316 0-1.993.526-2.331 1.692-.226.714-.414 1.466-.526 2.18-.376 2.595.225 3.309 2.819 3.309l29.815-.338c5.038-.113 10.039-.489 15.039-.865 3.723-.263 3.723-.339 3.835-3.948.076-1.955-1.24-3.308-3.12-3.158-2.933.226-5.828.752-8.761.789l-23.272.038.037-.075zm89.859 26.356h15.001c2.231 0 3.522-1.091 3.873-3.271.413-2.482-.64-3.798-3.159-3.835-4.624-.038-9.249 0-13.873 0l-21.732.301c-.752 0-1.917.676-2.143 1.278-.451 1.316-.526 2.782-.526 4.211 0 1.09.601 1.729 1.805 1.617 1.804-.151 3.609-.339 5.414-.339h15.415l-.075.038zm-39.779-27.973v.414c-2.068 0-4.136.225-6.166-.038-2.444-.338-3.233 1.617-3.308 4.737-.038 2.144.338 2.482 3.158 2.444l28.424-.526c3.045-.075 6.09.414 9.061-1.128 1.165-.602 1.391-1.391 1.466-2.256 0-.489-.752-1.015-1.166-1.504-.338-.413-.676-.865-1.127-1.203-.564-.451-1.241-1.09-1.88-1.09-3.986 0-7.971.15-11.994.188h-16.468v-.038zm-54.817 22.446c-2.294.188-5.301.338-8.272.714-.639.076-1.579.752-1.767 1.354-.413 1.203-.526 2.556-.489 3.835 0 1.241.602 2.143 2.144 1.917 1.09-.188 2.218-.338 3.346-.338l19.099.038c.94 0 1.843.187 2.783.15 3.12-.075 6.241-.038 9.324-.338.714-.076 1.842-1.166 1.842-1.805 0-1.166-.639-2.369-1.015-3.534-.489-1.579-1.617-1.805-3.083-1.655-1.842.188-3.722.301-5.602.264l-18.31-.602zm38.913.113v-.151c-.752 0-1.504.076-2.255 0-1.993-.3-2.858.752-3.234 2.519-.827 3.723-.601 5.001 3.534 4.738l28.349-1.692c.451 0 1.278-.451 1.316-.715.113-1.654 1.165-3.421-.113-5-.413-.526-1.015-1.128-1.617-1.203-1.428-.188-2.857-.151-4.286 0l-21.656 1.617-.038-.113zm-43.65 15.979v.225h16.091v-.225h-16.091zM113.056 81.512c.188.15.376.263.564.414l2.745-2.481h-3.309v2.068z" fill="#1a6ffe"/><path d="M272.621 182.236v-7.407l13.234.602c1.128 2.03 1.917 3.835 3.045 5.376 3.384 4.625 6.881 9.212 10.415 13.723 1.654 2.106 2.481 4.362 2.519 6.993 0 .264.188.527.226.79.338 1.504.94 3.008.94 4.512l.15 19.926c0 1.88.15 3.76.376 5.603.263 2.105.225 4.098-.978 5.94-.225.301-.3.752-.3 1.165 0 2.181-1.467 3.911-3.535 4.061-.789.075-1.579.263-2.669.451l1.391 7.52c.226 1.353.451 2.707.451 4.06l-.225 28.387c-.113 4.21-.752 8.459-1.241 12.67-.226 2.105-.602 4.173-.865 6.279 0 .263-.075.564 0 .752 1.429 2.707.263 5.414-.15 8.008-.715 4.888-1.579 9.813-3.008 14.55-1.391 4.625-3.271 9.099-5.376 13.423-2.369 4.925-7.069 6.805-12.069 7.294-4.7.488-9.475.075-14.212.225-4.286.151-8.573.527-12.859.827-6.09.414-12.219 1.015-18.31 1.166l-39.628.489c-10.941-.113-21.881-1.091-32.822-1.354-12.445-.301-24.928-.263-37.41-.338-4.399 0-8.723-.639-12.896-2.068-5.64-1.88-9.249-5.64-11.392-11.242-2.406-6.128-3.045-12.52-4.06-18.911-.978-6.016-2.218-11.994-2.97-18.047-.827-6.505-1.617-13.047-1.767-19.551-.15-7.332-.902-14.55-2.068-21.769-.639-3.91-.79-7.933-1.166-11.806-1.429-1.579-4.361-1.203-4.888-3.872-.263-1.316-.263-2.707-.263-4.061l.301-10.302.075-17.671c0-1.842.414-3.722.827-5.526.15-.602.865-1.053 1.466-1.73-1.09-1.654.075-2.857 1.128-4.248 3.271-4.324 6.279-8.836 9.663-13.084 2.933-3.647 5.94-7.445 11.204-7.858 1.504-.113 3.008-.151 4.474-.188h5.828l.225 7.143c-2.669.113-5.414.602-8.046.263-3.948-.526-6.316 1.391-8.422 4.211-.263.339-.526.677-.79 1.053l-8.234 11.204c3.271-.188 6.016-.489 8.723-.489l40.567.301 23.649.376 32.297.978 29.664.488 52.411.339c6.242 0 12.445-.715 18.686-1.091 0-.188.076-.413.113-.601-4.474-5.489-9.098-10.866-12.332-17.445l-9.061-.489h-.037zm-155.655 60.306l-26.468.414c-.113 1.767-.376 3.196-.226 4.549.639 5.189 1.654 10.34 2.143 15.528.564 6.016.564 12.107 1.09 18.122a327.26 327.26 0 0 0 1.993 18.16c.752 5.715 1.617 11.392 2.707 17.032.977 5.075 1.241 10.301 3.158 15.264 1.617 4.136 4.362 6.655 8.385 8.159 6.73 2.519 13.76 2.293 20.753 2.256 7.37-.075 14.776-.301 22.145-.113 6.618.15 13.235.79 19.852 1.09l17.633.564c15.942.376 31.921.564 47.825-.676 6.391-.489 12.783-1.354 19.174-1.655 5.038-.225 10.114.188 15.19.188 5.978.038 8.309-1.466 10.414-7.106 1.579-4.248 2.971-8.572 4.099-12.933.902-3.346 1.917-6.881 1.729-10.264-.15-3.008 0-5.903.263-8.836.677-8.384 1.918-16.768 2.106-25.19.263-10.828 1.466-21.732-1.767-32.522-.903 0-1.956-.075-3.008 0-2.594.263-5.189.789-7.783.94-4.173.263-8.384.3-12.558.413l-22.558-.601-3.76-.151-19.701-.413-6.504-.113-8.535-.376-13.799-.489-4.85-.188-19.926-.338h-3.986l-18.987-.188h-4.85l-21.393-.564v.037zm-14.061-13.159c1.353-.15 3.421-.188 5.414-.676 4.248-1.016 5.865-6.317 5.151-10.528-.489-3.12-2.294-4.7-5.189-5.226-1.955-.376-3.91-.789-5.903-.827-4.474-.113-9.737 4.286-8.459 9.851 1.166 5 3.76 7.557 8.948 7.406h.038zm20.415-4.173c2.482 0 3.046-.564 4.399-2.632 1.091-1.692-.075-3.008-.301-4.436-.075-.602-.864-1.354-1.503-1.504-2.256-.639-5.753.827-6.956 2.782-.263.451-.489 1.053-.451 1.579.188 2.481 2.256 4.249 4.812 4.249v-.038zm14.475.977c2.745 0 5.151-2.293 5.076-4.812-.113-2.895-1.316-4.737-3.083-4.813-2.03-.075-6.354 3.422-6.166 4.926.226 2.143 2.406 4.699 4.211 4.699h-.038z" fill="#010102"/><path d="M288.374 24.777l-.639 2.707-6.354 19.024c-.564 1.617-1.767 3.121-3.008 4.324-1.09 1.053-2.632.865-3.948-.113s-1.541-2.293-1.165-3.835l4.098-16.543c.789-3.045 1.353-6.241 4.136-8.271 1.391-1.015 3.045-1.504 4.511-.639 1.091.639 1.805 1.955 2.707 2.97l-.338.376zm-38.763 15.265v-14.25c0-1.128.188-2.256.451-3.346.489-1.88 1.955-2.895 4.023-3.008 1.993-.113 2.857 1.166 3.609 2.707 1.504 3.121.076 6.166-.376 9.211-.564 3.609-1.616 7.181-2.331 10.753-.263 1.203-.15 2.481-.263 3.722-.188 2.294-1.203 3.346-3.045 3.271-1.767-.075-2.594-1.353-2.519-3.647.075-1.805 0-3.609 0-5.452h.451v.038z" fill="#060606"/><path d="M306.872 63.653c-.489 1.128-.677 2.481-2.331 3.308-1.729.827-3.346 2.181-4.7 3.572-1.767 1.842-3.233 3.948-4.812 5.94-.827 1.053-2.82 1.466-4.061.79-1.616-.865-2.368-2.481-1.466-4.098 1.729-3.083 3.685-6.053 5.602-9.023.677-1.015 1.654-1.88 2.481-2.82 1.467-1.654 3.309-2.369 5.527-2.143 1.955.188 3.798 2.256 3.76 4.437v.038z" fill="#080808"/><path d="M272.621 182.236l9.061.489c3.195 6.579 7.858 11.918 12.332 17.445 0 .188-.076.413-.113.601-6.241.376-12.445 1.091-18.686 1.091-17.483.037-34.928-.151-52.411-.339l-29.665-.488-32.296-.978-23.649-.376-40.568-.301c-2.745 0-5.452.301-8.723.489l8.234-11.204c.263-.338.526-.714.79-1.053 2.105-2.82 4.474-4.775 8.422-4.211 2.631.376 5.376-.15 8.046-.263l.526 4.324c-1.542.827-3.121 1.579-4.587 2.481-.338.226-.564 1.015-.526 1.504.263 2.444 1.729 3.497 4.173 3.384 5.038-.263 10.114-.752 15.152-.639l34.702.977c7.182.113 14.363-.225 21.582-.3h13.873l27.07-.076 17.107.188 31.545.602c2.068 0 4.474-.226 5.113-2.82.301-1.165 0-2.481-.263-3.722-.075-.414-.865-.94-1.316-.94-1.692 0-3.346.188-5.038.301l.075-6.053.038-.113z" fill="#fbfbfb"/><path d="M189.906 119.937c1.692-.113 4.173 1.015 6.053-1.429.376-.489 1.429-.677 2.143-.564 1.918.263 3.76.94 5.677 1.09a4.89 4.89 0 0 0 3.196-1.053c2.218-1.917 4.549-1.842 7.106-.977.79.263 1.692.338 2.557.338h8.196c1.88 0 4.211 2.858 3.797 4.7-.263 1.203-.827 2.406-.752 3.572.076 1.654-.752 1.917-1.992 1.955-3.91.075-7.858-.075-11.731.225-2.293.188-4.549 1.316-6.843 1.467-2.819.188-5.639-.113-8.459-.414-1.354-.15-2.632-.827-3.985-1.015-1.955-.263-2.331-1.429-2.031-3.045.188-1.166.564-2.294.865-3.422-3.308-.714-4.549 0-5.602 3.948-.414 1.541-1.09 1.805-2.331 1.504-2.369-.526-4.361.188-6.279 1.541-1.504 1.053-5.188.677-6.467-.601-1.128-1.128-2.18-1.316-3.609-.339-5.226 3.535-10.64 3.159-16.129.527a2.61 2.61 0 0 0-1.843-.113c-2.594.827-5.151 1.917-7.782 2.669-3.196.903-6.317.301-9.174-1.24-1.128-.602-2.03-.865-3.083-.263-1.241.714-2.03.225-2.594-.865-1.316-2.482-1.73-5.076-1.053-7.821.451-1.842 4.248-3.271 6.391-2.443 1.805.676 3.497 1.541 5.339 2.03 1.015.263 2.256.225 3.234-.075 2.632-.827 5.151-1.918 7.745-2.783 2.481-.827 4.812-.338 6.955 1.053 2.331 1.542 4.625 1.617 6.994.075.827-.526 1.767-.977 2.669-1.353 2.895-1.241 5.79-1.654 8.61.15.827.527 1.504.527 2.368 0 3.196-1.767 6.505-1.579 9.701-.113.827.376 1.203 1.73 2.068 3.008l.075.076zm-41.395-13.686c-3.158 4.361-9.174 2.519-11.543-1.354-1.165-1.917-2.143-3.947-3.233-5.865-.677-1.203-.451-2.143.564-2.933 1.993-1.541 4.324-2.256 6.805-2.218.902 0 1.805.714 2.933 1.203.526-.338 1.391-1.128 2.406-1.429.94-.263 2.105-.113 3.045.15 1.504.413 2.933 1.053 4.399 1.617a2.87 2.87 0 0 1-.075.564c.338-.338.714-.639 1.053-.978 2.857-2.782 6.166-3.083 9.286-.639 2.031 1.579 3.911 1.918 6.204.639 2.557-1.429 5.339-1.73 8.309-1.504 3.271.263 6.58 0 9.888-.075 1.015 0 2.068-.301 2.97-.038.79.226 1.542 1.015 2.068 1.692 1.767 2.406.188 4.962.113 7.481 0 .301-.714.79-1.165.865-2.895.339-5.79.639-8.685.752-2.294.075-4.587-.225-6.881-.15-1.09 0-2.256.338-3.196.827-4.023 2.105-8.046 1.805-12.068.263-1.128-.451-1.918-.414-2.595.489-1.992 2.782-6.091 3.308-9.174 1.391-.451-.301-.977-.489-1.579-.79l.151.038z" fill="#fbfcfe"/><path d="M272.545 188.289l5.038-.301c.452 0 1.204.527 1.316.94.264 1.203.564 2.557.264 3.722-.64 2.595-3.046 2.82-5.114 2.82l-31.544-.601-17.107-.188-27.07.075c-4.625 0-9.249-.038-13.874 0-7.181.075-14.4.451-21.581.301l-34.703-.978c-5.038-.075-10.113.376-15.151.639-2.482.151-3.911-.902-4.174-3.384-.037-.488.151-1.278.527-1.503 1.466-.903 3.045-1.655 4.586-2.482.301.451.64.902.903 1.391.601 1.015 1.316 1.241 2.594 1.203 3.346-.075 6.73.226 10.114.414.639 0 1.241.15 1.88.15l52.9.376h24.776l35.079.376 19.137.339c2.294 0 4.587-.188 6.918-.339 2.031-.15 3.384-1.316 4.324-3.045l-.038.075z" fill="#020203"/><path d="M148.849 146.255l23.273-.038c2.933-.037 5.828-.564 8.76-.789 1.88-.151 3.196 1.24 3.121 3.158-.113 3.609-.113 3.685-3.835 3.948-5.001.338-10.039.752-15.039.864l-29.815.339c-2.594 0-3.196-.677-2.82-3.309.113-.752.301-1.466.526-2.18.339-1.128 1.016-1.692 2.332-1.692 4.511.075 9.023 0 13.535 0v-.376l-.038.075z" fill="#fafbfd"/><path d="M238.708 172.611h-15.416c-1.804 0-3.609.188-5.414.338-1.203.113-1.842-.526-1.804-1.617 0-1.428.075-2.895.526-4.21.226-.602 1.391-1.279 2.143-1.279l21.732-.301h13.873c2.519 0 3.572 1.354 3.158 3.835-.351 2.181-1.641 3.271-3.872 3.271h-15.002l.076-.037z" fill="#f9fafd"/><path d="M198.929 144.638h16.468c3.985 0 7.971-.225 11.994-.188.639 0 1.278.677 1.88 1.091.413.338.751.789 1.127 1.203.414.488 1.204 1.015 1.166 1.504-.038.902-.263 1.654-1.466 2.255-2.971 1.542-6.016 1.053-9.061 1.128l-28.424.527c-2.782.037-3.196-.263-3.158-2.444.075-3.121.864-5.038 3.308-4.737 2.03.263 4.136.037 6.166.037v-.413.037z" fill="#f9fbfd"/><path d="M144.112 167.084l18.31.602c1.88.037 3.76-.076 5.602-.264 1.466-.15 2.594.076 3.083 1.655.376 1.203 1.015 2.368 1.015 3.534 0 .639-1.165 1.729-1.842 1.805l-9.324.338c-.94 0-1.843-.15-2.783-.15-6.354 0-12.745-.076-19.099-.038-1.128 0-2.219.15-3.346.338-1.542.226-2.144-.676-2.144-1.917 0-1.278.113-2.632.489-3.835.188-.602 1.091-1.241 1.767-1.354 2.971-.376 5.978-.526 8.272-.714z" fill="#fafbfd"/><path d="M183.025 167.197l21.657-1.617c1.428-.113 2.895-.15 4.286 0 .564.075 1.203.677 1.616 1.203 1.279 1.617.226 3.346.113 5.001 0 .263-.827.714-1.316.714l-28.348 1.692c-4.136.263-4.399-1.015-3.534-4.737.413-1.767 1.24-2.82 3.233-2.519.752.112 1.504 0 2.256 0v.15l.037.113z" fill="#f9fafd"/><path d="M139.375 183.176h16.091v.225h-16.091v-.225z" fill="#f6f9fd"/><path d="M113.056 81.512v-2.068h3.309l-2.745 2.481-.564-.414z" fill="#f5f8fe"/><path d="M265.815 245.964c4.174-.113 8.385-.151 12.558-.414 2.594-.15 5.188-.676 7.783-.94 1.052-.112 2.105 0 3.008 0 3.233 10.753 2.03 21.694 1.767 32.522-.188 8.422-1.429 16.769-2.106 25.191-.225 2.932-.413 5.827-.263 8.835.188 3.384-.827 6.918-1.729 10.264-1.166 4.362-2.557 8.685-4.099 12.934-2.105 5.64-4.399 7.144-10.414 7.106-5.076 0-10.152-.451-15.19-.188-6.391.301-12.783 1.165-19.174 1.654-15.942 1.241-31.883 1.053-47.825.677l-17.633-.564c-6.617-.301-13.234-.94-19.852-1.09-7.369-.151-14.775.075-22.145.112-6.993.076-14.024.301-20.753-2.255-4.023-1.504-6.768-4.023-8.385-8.159-1.917-4.963-2.18-10.151-3.158-15.265-1.09-5.639-1.955-11.354-2.707-17.031a425.78 425.78 0 0 1-1.993-18.16c-.489-6.016-.526-12.107-1.09-18.122-.489-5.189-1.504-10.34-2.143-15.528-.188-1.391.113-2.82.226-4.549l26.468-.414c.113 2.444.301 4.85.339 7.294l.413 23.461.038 15.716c0 3.421.037 6.88.338 10.302.301 3.383 1.767 4.511 5.151 4.511h11.843c3.422 0 4.512-.714 5.151-4.06.715-3.722 1.391-7.52 1.429-11.28.113-7.482-.113-15.001-.338-22.483-.113-2.97-.602-5.94-.978-8.873l-1.993-14.024h4.85l1.73 18.648c.413 4.775 1.165 9.588 1.165 14.363 0 6.316-.526 12.595-.902 18.911-.263 3.911 1.654 5.527 5.189 4.249.112 0 .225 0-.038 0 1.015.601 1.654 1.203 2.369 1.391 1.992.489 4.023.865 6.015 1.241 3.647.677 5.865-.752 6.279-4.286.376-3.271.752-6.58.752-9.889.038-5.301.075-10.64-.376-15.903-.526-6.242-1.692-12.445-2.444-18.649-.376-3.271-.526-6.579-.752-9.85h3.986l.714 10.677c.451 5.302 1.353 10.565 1.504 15.829.338 11.016.376 22.032-.902 33.011-.376 3.196 2.03 4.812 5 3.647.79-.301 1.73-.489 2.519-.339 2.707.414 5.377.94 8.084 1.504 1.842.376 3.308-.15 4.098-1.992.451-1.053.488-2.332.488-3.497 0-3.685.076-7.407-.112-11.091-.376-6.994-1.166-13.949-1.354-20.905-.263-8.835-.075-17.671-.075-26.506l4.85.188c-.075 4.324-.263 8.61-.113 12.934.113 4.06.827 8.083.94 12.106l.451 27.221c.113 3.233 1.843 5.226 5.302 3.233.3-.188.714-.188 1.09-.301l12.482-2.932c2.783-.715 4.061-2.482 3.986-5.302l-.715-18.498-1.015-27.559 6.505.113c.188 2.444.564 4.85.488 7.294l-1.165 31.469c-.301 4.55-1.504 9.061-2.369 13.573-.301 1.579 1.091 4.211 2.632 4.361 4.211.452 8.422.903 12.633 1.166 2.933.188 4.211-1.166 4.474-4.023l1.354-13.761c.526-5.978 1.203-11.918 1.466-17.896.263-7.257.15-14.513.188-21.769l3.76.15c0 .639 0 1.241-.038 1.88-.827 7.482-.564 14.964 1.354 22.145 1.691 6.504.751 12.746-.076 19.1-.488 3.647-1.015 7.294-1.165 10.978-.113 2.933 1.767 5.941 5.489 3.422.639-.414 1.542-.527 2.331-.564 3.309-.188 6.617-.188 9.926-.414 3.496-.226 5.715-.865 5.489-5.715l-.714-15.152-.376-20.265c0-4.925.225-9.888.338-14.813l-.113-.113z" fill="#fcfcfd"/><path d="M138.359 243.106l1.993 14.024.978 8.873c.263 7.482.451 15.002.338 22.484-.075 3.76-.752 7.557-1.429 11.279-.639 3.384-1.692 4.061-5.151 4.061h-11.843c-3.384 0-4.85-1.166-5.151-4.512-.301-3.421-.301-6.88-.338-10.302l-.038-15.716-.413-23.461c-.038-2.443-.226-4.85-.339-7.294l21.393.564z" fill="#1a6ffe"/><path d="M265.815 245.964l-.338 14.813c0 6.768.15 13.498.376 20.265.15 5.039.489 10.114.714 15.152.226 4.85-2.03 5.452-5.489 5.715-3.308.226-6.617.226-9.926.414-.789.037-1.692.15-2.331.564-3.722 2.519-5.602-.489-5.489-3.422.15-3.647.677-7.331 1.166-10.978.827-6.354 1.767-12.595.075-19.1-1.918-7.219-2.181-14.7-1.354-22.145.075-.601.038-1.241.038-1.88l22.558.602z" fill="#1a6ffd"/><path d="M213.291 244.686l1.016 27.559.714 18.498c.075 2.819-1.203 4.587-3.985 5.301-4.136 1.053-8.309 1.955-12.483 2.933-.376.075-.752.112-1.09.3-3.459 2.031-5.189 0-5.301-3.233-.339-9.061-.226-18.122-.452-27.221-.112-4.06-.789-8.083-.94-12.106-.15-4.286.076-8.61.113-12.934l13.799.489 8.534.376.075.038z" fill="#1a6ffe"/><path d="M186.071 243.595l.075 26.507c.188 6.993.978 13.948 1.354 20.904.188 3.684.15 7.407.112 11.091 0 1.166-.075 2.444-.488 3.497-.752 1.842-2.219 2.368-4.099 1.992-2.669-.526-5.376-1.09-8.083-1.503-.827-.113-1.767.037-2.519.338-2.97 1.165-5.339-.451-5.001-3.647 1.279-10.979 1.241-21.995.903-33.011-.151-5.301-1.015-10.565-1.504-15.828-.301-3.535-.489-7.106-.715-10.678l19.927.338h.038zm-11.129 49.253v5.64c1.278-.451 1.353-1.654 0-5.64z" fill="#1a6ffd"/><path d="M162.196 243.257l.752 9.85c.752 6.242 1.88 12.408 2.444 18.649.451 5.264.414 10.602.376 15.904 0 3.308-.376 6.617-.752 9.888-.413 3.496-2.632 4.963-6.279 4.286-2.03-.376-4.023-.714-6.015-1.241-.752-.188-1.354-.789-2.369-1.391.301.038.15 0 .038 0-3.572 1.278-5.452-.301-5.189-4.248.414-6.317.902-12.596.902-18.912 0-4.775-.751-9.587-1.165-14.362l-1.73-18.649 18.987.188v.038zm77.301 1.955l-.188 21.769c-.226 5.978-.902 11.918-1.466 17.896l-1.354 13.761c-.263 2.895-1.579 4.211-4.474 4.023-4.211-.263-8.422-.714-12.633-1.165-1.541-.151-2.932-2.783-2.632-4.362.865-4.511 2.068-9.023 2.369-13.572.639-10.49.902-20.98 1.166-31.47.075-2.406-.301-4.85-.489-7.294l19.701.414z" fill="#1a6ffe"/><path d="M102.905 229.383c-5.189.151-7.783-2.368-8.948-7.406-1.278-5.602 3.948-9.964 8.459-9.851 1.955.038 3.948.451 5.903.827 2.895.564 4.662 2.106 5.188 5.226.677 4.211-.94 9.512-5.151 10.528-1.992.451-4.06.526-5.414.676h-.037z" fill="#fbfbfb"/><path d="M123.32 225.21c-2.556 0-4.624-1.767-4.812-4.249-.038-.526.15-1.128.451-1.579 1.203-1.955 4.7-3.383 6.956-2.782.601.188 1.391.94 1.503 1.504.226 1.429 1.429 2.745.301 4.437-1.353 2.105-1.955 2.631-4.399 2.631v.038z" fill="#f8f8f8"/><path d="M137.795 226.187c-1.804 0-3.947-2.556-4.21-4.699-.151-1.504 4.173-5.001 6.166-4.926 1.729.076 2.97 1.918 3.083 4.813.112 2.519-2.294 4.775-5.076 4.812h.037z" fill="#f7f7f7"/><path d="M174.942 292.848c1.353 4.023 1.278 5.189 0 5.64v-5.64z" fill="#e3ecfd"/><path d="M157.497 180.281c-5.978.188-11.957 0-17.897-.489-3.873-.338-3.835 5.677 0 6.016 5.94.526 11.919.676 17.897.488 3.872-.112 3.872-6.128 0-6.015zm35.793-62.412c-.264-.076-.489-.076-.715 0-.677-.376-1.391-.113-1.804.488-.452.602-.865 1.241-1.204 1.918-.3.639-.752 1.504-.639 2.256.075.564.376 1.128.978 1.278 1.128.301 2.068-.714 2.707-1.504.714-.827 1.203-1.767 1.616-2.782.264-.677-.263-1.429-.902-1.617l-.037-.037z" fill="#1a6ffe"/></svg>