<svg xmlns="http://www.w3.org/2000/svg" width="72" height="33" fill="none"><mask id="A" maskUnits="userSpaceOnUse" x="1" y="1" width="71" height="32"><path d="M71.011 1.096H1.222v31.125h69.789V1.096z" fill="#fff"/></mask><g mask="url(#A)"><path d="M36.556 24.143c-1.152 0-2.264-.008-3.384.016-.098 0-.262.166-.286.268l-.564 3.29c-.172.986-1.005 1.61-1.921 1.452-1.046-.174-1.643-.97-1.463-2.004l1.921-10.88 1.324-7.59a1.67 1.67 0 0 1 1.708-1.444h1.757c.883.016 1.561.568 1.708 1.404l1.896 10.998 1.324 7.63c.164.947-.466 1.728-1.496 1.886-.891.134-1.765-.505-1.912-1.396l-.556-3.416c-.008-.055-.033-.11-.057-.213zm-.482-3.203l-1.251-8.521c-.041 0-.082.008-.123.008l-1.251 8.513h2.624z" fill="#2d2d54"/><path d="M13.965 14.706c-1.079 0-2.149.008-3.228-.008-.302-.008-.45.095-.58.363-.94 1.886-2.787 2.722-4.479 2.596-2.215-.174-3.809-1.491-4.315-3.424-.678-2.619 1.185-5.247 3.956-5.57 2.051-.245 3.964.757 4.838 2.556.139.292.31.371.621.371l8.328-.024c.948-.016 1.839.615 1.814 1.767l-.016 5.791c0 .363.114.481.482.473l2.452-.008c1.283-.016 1.937 1.16 1.618 2.059-.221.615-.817 1.081-1.504 1.089h-4.691c-.907-.008-1.594-.71-1.602-1.61l.008-5.949c0-.355-.09-.481-.474-.473h-3.228zm-8.034-2.935c-.793 0-1.438.592-1.455 1.341-.016.734.654 1.381 1.422 1.389.785.008 1.438-.6 1.455-1.357.016-.734-.637-1.373-1.422-1.373zm52.838-6.802l2.697.008c.319.008.466-.095.613-.371.891-1.657 2.297-2.572 4.25-2.556 1.929.016 3.351.907 4.209 2.564 1.144 2.217.163 4.9-2.133 5.996-2.305 1.097-5.1.221-6.236-1.988-.196-.379-.417-.489-.834-.481h-4.078c-.343-.008-.531.11-.711.387l-3.057 4.616c-.368.552-.899.836-1.586.765-.629-.071-1.095-.394-1.332-.97-.196-.473-.18-.963.106-1.396l3.89-5.87c.327-.489.842-.686 1.43-.694l2.771-.008zm8.949 1.594c0-.757-.638-1.389-1.414-1.389-.768 0-1.422.631-1.422 1.381s.654 1.389 1.414 1.389c.776 0 1.422-.623 1.422-1.381zM20.88 29.051c-.956 0-1.904-.016-2.86.008-.523.008-.948-.142-1.332-.481l-2.975-2.525a.48.48 0 0 0-.572-.095c-2.869 1.184-5.909-.355-6.547-3.306-.564-2.611 1.618-5.263 4.389-5.326 2.885-.063 5.026 2.035 4.904 4.821a3.82 3.82 0 0 1-.196 1.002c-.082.245-.016.379.172.536l2.37 1.988a1.13 1.13 0 0 0 .646.237l5.018.016c.825 0 1.479.56 1.61 1.349.122.718-.376 1.483-1.136 1.704-.188.055-.4.071-.605.071H20.88zm-8.263-7.211c-.008-.75-.662-1.381-1.43-1.373-.776.008-1.422.647-1.414 1.396s.67 1.389 1.438 1.373c.776-.016 1.414-.647 1.406-1.396zM14.92 1.096c1.455.071 2.861.907 3.727 2.548.155.3.319.394.646.379l1.88-.008c.711.008 1.25.3 1.594.915l3.375 6.193c.466.86.18 1.791-.637 2.201-.834.418-1.765.126-2.239-.734l-2.73-5.01c-.147-.276-.311-.379-.646-.402-.703-.055-1.103.126-1.479.781-.964 1.681-3 2.462-4.969 2.067-1.855-.371-3.326-1.886-3.621-3.724-.458-2.777 1.733-5.223 5.1-5.207zm-1.913 4.505c0 .75.646 1.381 1.422 1.381.768 0 1.422-.647 1.422-1.389 0-.75-.662-1.381-1.43-1.381-.776.008-1.414.631-1.414 1.389zm43.106 20.547l4.037.008c.319 0 .499-.079.654-.387.972-1.972 3.032-2.753 4.732-2.564 2.19.245 3.874 1.831 4.16 3.969.368 2.682-1.921 5.121-4.732 5.042-1.912-.047-3.302-.939-4.16-2.572-.163-.308-.335-.379-.654-.371h-8.075c-.785 0-1.463-.537-1.594-1.215-.155-.836.245-1.562 1.038-1.823.221-.071.482-.087.719-.087h3.874zm8.925.197c-.785-.008-1.438.6-1.447 1.349-.008.734.654 1.381 1.422 1.389.776.008 1.438-.615 1.447-1.365.016-.742-.629-1.365-1.422-1.373zm-11.926-6.652c1.128.3 1.773-.276 2.395-1.097.45-.592.621-.994.302-1.767-1.136-2.746.793-5.696 3.849-6.052 2.517-.292 4.814 1.444 5.149 3.89.343 2.509-1.471 4.805-4.062 5.073-.531.055-1.079-.024-1.61-.071-.245-.024-.4 0-.556.197L56.765 22.1c-.392.489-.883.742-1.545.726-1.046-.024-2.092 0-3.138-.008-.948-.008-1.635-.663-1.651-1.546-.008-.892.662-1.554 1.61-1.578h1.071zm8.475-4.434c0-.781-.605-1.365-1.406-1.365s-1.422.592-1.422 1.357c0 .757.638 1.373 1.414 1.381.785 0 1.414-.607 1.414-1.373z" fill="#99b9ff"/><path d="M47.245 18.217v9.294a1.53 1.53 0 0 1-1.022 1.515 1.63 1.63 0 0 1-1.782-.3c-.392-.339-.531-.773-.531-1.27v-3.779V9.42l.008-.592c.057-.923.785-1.602 1.684-1.578.915.024 1.643.742 1.643 1.673v5.239 4.055z" fill="#2d2d54"/></g></svg>