<svg xmlns="http://www.w3.org/2000/svg" width="76" height="23" fill="none"><g clip-path="url(#A)" fill="#6b6b6c"><path d="M17.004 5.52v6.963c0 .113-.045.221-.125.301s-.189.125-.302.125h-2.204c-.113 0-.222-.045-.302-.125s-.125-.188-.125-.301V1.157c0-.113.045-.221.125-.301s.189-.125.302-.125h2.039c.113 0 .222.045.302.125s.125.188.125.301v1.595S17.568.477 19.732.477c0 0 2.14-.258 3.01 2.111 0 0 .729-2.111 2.94-2.111 0 0 3.287-.195 3.287 3.198l.025 1.868v6.963c0 .113-.045.221-.125.301s-.189.125-.302.125h-2.204c-.113 0-.222-.045-.302-.125s-.125-.188-.125-.301l-.02-7.596c.063-1.72-1.332-1.595-1.332-1.595-1.756.031-1.587 2.228-1.587 2.228v6.963c0 .113-.045.221-.125.301s-.189.125-.302.125h-2.204c-.113 0-.222-.045-.302-.125s-.125-.188-.125-.301V5.082S20.068 3.3 18.5 3.3c0 0-1.552-.203-1.497 2.22zm56.807-.021v6.962c0 .113-.045.221-.125.301s-.188.125-.302.125l-2.292.044c-.113 0-.222-.045-.302-.125s-.125-.188-.125-.301V5.082S70.794 3.3 69.226 3.3c0 0-1.497-.074-1.497 2.721v6.462c0 .113-.045.221-.125.301s-.189.125-.302.125h-2.204c-.113 0-.222-.045-.302-.125s-.125-.188-.125-.301V1.157c0-.113.045-.221.125-.301s.189-.125.302-.125h2.039c.113 0 .222.045.302.125s.125.188.125.301v1.595s.73-2.275 2.893-2.275c0 0 2.318-.351 3.098 2.067 0 0 .255.499.255 2.955zM57.899.43c-2.818 0-5.103 2.369-5.103 6.356 0 3.51 1.764 6.356 5.103 6.356 3.151 0 5.103-2.846 5.103-6.356 0-3.917-2.285-6.356-5.103-6.356zm1.779 6.497c0 1.501-.188 2.298-.188 2.298-.268 1.587-1.423 1.589-1.593 1.581-.184.007-1.349-.009-1.59-1.581 0 0-.188-.797-.188-2.298v-.25c0-1.501.188-2.298.188-2.298.241-1.571 1.406-1.588 1.59-1.581.17-.008 1.325-.006 1.593 1.581 0 0 .188.797.188 2.298v.25zm-8.161-4.191V1.112c0-.113-.045-.221-.125-.301s-.188-.125-.302-.125h-7.284c-.113 0-.222.045-.302.125s-.125.188-.125.301v1.612c0 .113.045.221.125.301s.189.125.302.125h3.8l-4.497 6.507s-.177.264-.171.555v1.979s-.029.679.742.285c0 0 1.371-.826 3.669-.826 0 0 2.27-.028 3.783.897 0 0 .628.285.628-.341v-1.723s.057-.456-.542-.741c0 0-1.742-.954-4.026-.797l4.326-6.208zm-39.271 8.146l-.69-1.047c-.22-.391-.204-.829-.204-.829V4.175C11.446 0 6.806.36 6.806.36 2.68.36 2.071 3.562 2.071 3.562c-.172.644.328.659.328.659l2.016.204s.344.078.469-.33c0 0 .265-1.397 1.75-1.397 1.615 0 1.599 1.383 1.599 1.383v1.157c-3.225.108-4.719 1-4.719 1C1.523 7.364 1.648 9.6 1.648 9.6c0 3.643 3.48 3.487 3.48 3.487 2.226 0 3.543-1.626 3.543-1.626.392.688 1.113 1.345 1.113 1.345.361.39.737.063.737.063l1.63-1.392c.361-.266.094-.594.094-.594zm-6.031-.045c-1.047 0-1.436-1.038-1.263-2.058s1.078-1.822 3.28-1.798v.62c.078 2.709-1.146 3.236-2.018 3.236zm35.317.045l-.69-1.047c-.219-.391-.204-.829-.204-.829V4.175C40.732 0 36.091.36 36.091.36c-4.125 0-4.735 3.202-4.735 3.202-.172.644.328.659.328.659l2.016.204s.344.078.469-.33c0 0 .266-1.397 1.75-1.397 1.615 0 1.599 1.383 1.599 1.383v1.157c-3.224.108-4.719 1-4.719 1C30.808 7.364 30.933 9.6 30.933 9.6c0 3.643 3.48 3.487 3.48 3.487 2.226 0 3.543-1.626 3.543-1.626.392.688 1.113 1.345 1.113 1.345.361.39.737.063.737.063l1.63-1.392c.361-.266.094-.594.094-.594zm-6.031-.045c-1.047 0-1.436-1.038-1.263-2.058s1.078-1.822 3.28-1.798v.62c.078 2.709-1.146 3.236-2.018 3.236zm11.58 9.19s-.184.32.042.391c0 0 .256.1.575-.196 0 0 2.327-2.027 2.383-5.718 0 0 .017-.461-.168-.587 0 0-.729-.643-3.351-.447 0 0-2.285.154-3.532 1.258 0 0-.112.098-.112.224 0 0-.027.271.659.154 0 0 2.285-.322 3.645-.154 0 0 .701.084.897.322 0 0 .322.266.154 1.146 0 0-.463 2.237-1.192 3.607zm-.461-3.542s.341.441-.209.821c0 0-5.882 4.693-15.759 4.693 0 0-10.167.5-18.656-7.193 0 0-.298-.261-.113-.503 0 0 .165-.223.593.019 0 0 7.986 4.963 18.474 4.963 0 0 7.29.281 14.768-2.908 0 0 .596-.308.902.107z"/></g><defs><clipPath id="A"><path fill="#fff" transform="translate(.167)" d="M0 0h75v22.5H0z"/></clipPath></defs></svg>