<svg xmlns="http://www.w3.org/2000/svg" width="43" height="16" fill="none"><g clip-path="url(#A)"><path d="M22.938.733h-4.289l-6.5 15.033h4.289L22.938.733zm-5.04 0h-3.891l-3.117 7.251.399-7.251H7.356L.833 15.767h3.913l3.139-7.229-.398 7.229h3.891L17.898.733zm10.08 0h-4.2l-6.499 15.033h4.2l2.718-6.3v6.3h11.804l1.568-3.624h-3.492l.995-2.3h3.182l1.459-3.36h-3.183l.929-2.145h3.492L42.5.733h-7.603l-6.299 14.523-.419-7.206L34.475.733h-4.134l-4.819 5.726L27.978.733z" fill="#6b6b6c"/></g><defs><clipPath id="A"><path fill="#fff" transform="translate(.833 .733)" d="M0 0h41.667v15.033H0z"/></clipPath></defs></svg>