<svg xmlns="http://www.w3.org/2000/svg" width="84" height="22" fill="none"><g clip-path="url(#A)" fill="#6b6b6c"><path d="M19.61 8.191c2.027.125 3.074-3.966.134-3.229-1.657.416-1.928 3.118-.134 3.229zm60.131 8.61c.163-2.259.827-4.014 1.345-5.919.74-.067 1.762.148 2.287-.134.245-.468.599-1.409.404-1.883H81.49c.314-1.493 1.044-2.84.673-4.709-1.048-5.272-10.705-4.269-10.358 2.153.05.928.42 1.335.673 2.422-3.546-.553-5.643 2.58-4.036 4.978 1.041 1.554 4.828 1.3 4.708 2.96-.117 1.622-3.487 1.041-4.17.134.155-.457.424-.951.135-1.48-1.411-1.309-1.933.383-2.69 1.076-1.794 1.64-6.396 1.866-5.919-1.48 3.495.959 7.267-.706 6.457-4.171-.847-3.624-6.69-1.593-7.937 0-.521.665-.526 1.967-1.48 1.883 1.529-4.278-3.902-4.796-5.246-2.287-.05-.533.434-.977.134-1.345h-2.421c-.86 1.705-.531 3.721-1.48 5.785-1.115 2.423-6.901 4.545-6.995.135 3.001.849 7.357-.316 6.457-4.171-.716-3.058-5.907-2.321-7.802-.135-.939 1.082-1.051 2.263-1.48 3.902-.324 1.231-1.957 4.018-3.229 2.287.163-2.259.827-4.014 1.345-5.919.697-.065 1.669.145 2.152-.134.303-.46.432-1.092.404-1.883h-2.152a46.54 46.54 0 0 0 .942-3.767c-.792-.35-1.756.19-2.556.269-.535.99-.539 2.51-1.076 3.498h-1.614c-.336.471-.463 1.152-.538 1.883.315.358 1.445-.1 1.749.269-1.016 2.132-.472 6.513-3.498 6.188-1.021-2.342 2.343-5.976.135-7.937-1.227-1.088-3.8-.264-4.708.538.04-.315.262-.556 0-.807h-2.421c-.671 1.828-1.217 6.6-2.69 7.803-.596.486-1.715.942-2.018 0 .272-2.867 1.178-5.099 1.749-7.668-.609-.288-1.731-.063-2.556-.135-.291 2.536-4.201 10.157 0 10.494 1.461.117 2.323-.849 3.094-1.211.046.417-.312.643 0 .942h2.421c1.433-2.871.331-8.278 4.574-8.341 1.669 1.508-1.718 5.603-.269 7.803 1.03 1.566 3.799.632 4.977-.538 1.111 2.668 5.296.736 6.054-.942 1.13 3.331 7.128 2.282 8.744.538.043.562-.472 1.044-.135 1.48h2.287c1.413-2.814 1.095-8.615 5.112-8.341.113.335.176.721.135 1.211-1.08-.058-1.595.344-1.614 1.076-.058 2.139 3.117.313 4.17 1.211-1.34 5.72 6.523 6.113 9.282 3.363 2.043 2.887 9.379 2.235 8.744-2.152-.35-2.408-5.428-2.469-5.246-4.171.094-.886 1.582-1.316 2.69-.807.78.358 1.415 2.311 2.69 1.076.378-2.59-1.916-2.601-2.287-4.709-.486-2.757 1.182-4.479 2.69-4.709 3.48-.533 4.412 3.249 2.556 6.592h-1.614c-.292.515-.418 1.197-.538 1.883.315.358 1.445-.1 1.749.269-.116 2.252-2.737 6.191-.807 7.937 2.152 1.948 6.297-.893 5.919-3.498-1.812-.269-2.029 3.254-3.767 1.345zm-15.47-5.112c.32 1.644-1.85 2.493-3.632 1.749-.449-2.134 3.233-3.798 3.632-1.749zm-19.237-.673c1.068 2.021-1.496 3.303-3.363 2.422.094-1.758 1.54-3.248 3.363-2.422zM16.785 6.577C16.212 2.415 12.061.297 7.638.792 4.14 1.183.653 4.014.508 8.056c-.09 2.47.611 4.323 2.959 4.843 1.018-1.799-.328-2.194-.538-3.498C2.067 4.07 9.08.431 12.75 4.155c2.54 2.579.868 10.51-3.229 9.686-3.923-.788 1.921-7.102-1.211-8.341-2.545-1.008-3.897 3.081-2.69 5.112-.708 3.494-2.232 6.784-1.614 11.166 2-1.452 2.676-4.231 3.229-7.13 1.005.611 1.543 1.246 2.825 1.345 4.73.366 7.372-4.721 6.726-9.417z"/></g><defs><clipPath id="A"><path fill="#fff" transform="translate(.5 .721)" d="M0 0h83.333v21.058H0z"/></clipPath></defs></svg>