<svg xmlns="http://www.w3.org/2000/svg" width="65" height="72" fill="none"><path d="M9.454 29.412c-4.984 7.824-2.415 18.193 2.589 25.3 4.599 6.533 12.851 12.357 21.044 10.035.241-.067.654-.366.822.002-4.211 2.922-6.833 4.618-12.239 3.656-12.599-2.24-23.45-19.879-18.793-32.362 1.669-4.475 3.347-4.191 6.574-6.633l.002.002z" fill="#ffa630"/><path d="M37.741 37.265c-2.208.699-4.837 1.054-7.091.439-1.645-.447-3.397-2.099-4.895-3.024-.594-.368-1.448-.601-2.122-1.003-2.972-1.776-5.088-5.427-5.419-8.938C17.145 13.401 27.136-1.208 39.087.08c3.498.376 10.304 5.105 12.007 8.266 5.463 10.142-3.189 25.701-13.353 28.919zM19.674 24.738c.999 7.957 7.44 10.749 14.417 7.853 6.752-2.802 12.005-10.332 12.935-17.692 1.364-10.8-6.694-16.844-16.224-11.574-7.081 3.917-12.163 13.17-11.129 21.414h.002zm15.695 8.975c-.728.333-2.33.813-3.135.995-1.101.249-2.23.221-3.253.593 1.985 1.808 4.927 1.602 7.354.983.265-.067.437-.311.495-.327 7.444-2.242 13.174-9.7 14.365-17.537.674-4.436-.036-10.029-4.141-12.475 4.209 9.097-1.287 20.565-8.814 25.94-.75.535-2.08 1.467-2.868 1.829h-.002zm19.848 4.723c11.65-1.627 13.407 16.184 2.487 17.506-11.522 1.396-13.226-16.009-2.487-17.506zm.55 1.312c-9.396.999-8.094 15.553 1.225 14.901s8.503-15.937-1.225-14.901z" fill="#000"/><path d="M34.091 32.591c-6.977 2.896-13.419.104-14.417-7.853 5.617.439 10.8 3.535 14.417 7.853zm1.278 1.122l1.46 2.244c-.058.016-.229.26-.495.327-2.427.619-5.369.826-7.354-.983 1.023-.372 2.15-.343 3.253-.593.806-.184 2.405-.662 3.135-.995zm2.372 3.552c-2.208.699-4.837 1.054-7.091.439-1.645-.447-3.397-2.099-4.895-3.024-.594-.368-1.448-.601-2.122-1.003-2.972-1.776-5.088-5.427-5.419-8.938-2.611.296-4.789 1.138-6.839 2.81-.676.552-1.221 1.334-1.921 1.864-4.984 7.824-2.415 18.193 2.589 25.3 4.599 6.533 12.851 12.357 21.044 10.035.241-.067.654-.366.822.002 3.183-2.209 5.248-3.517 6.71-7.43 2.461-6.584.359-14.153-2.876-20.057l-.002.002z" fill="#ffda31"/><path d="M61.089 43.828c.201.3-2.976 4.6-3.451 5.129-1.093 1.22-1.959 2.301-3.562 1.022-.387-.309-1.773-2.105-1.895-2.55-.096-.349 1.043-.715 1.229-.603.281.17 1.213 2.554 2.098 2.379.169-.035 1.183-1.138 1.39-1.379.582-.678 2.732-4.222 2.956-4.357.379-.229.864.251 1.235.36zm-38.295-7.274v4.457h4.352c.024.449.118 2.227-.407 2.227h-3.941v4.04c0 .584-2.174.584-2.174 0V43.24H16.68c-.525 0-.433-1.778-.409-2.227h4.35v-4.459h2.174-.002zM4.827 67.515c.084.088 1.408-.063 1.749-.002v1.792c-.341.061-1.663-.09-1.749-.002-.257.266.756 2.462-1.368 2.052-1.135-.221-.417-1.835-.626-2.052-.084-.088-1.408.063-1.749.002v-1.792c2.19.2 1.773 0 1.747-2.046 2.888-.654 1.677 1.717 1.997 2.047zm4.651-48.627c.108.11-.11 1.78-.002 1.89s1.737-.112 1.845-.002c.074.076.074 2.084 0 2.16-.108.11-1.737-.112-1.845-.002s.11 1.78.002 1.89c-.074.076-2.034.076-2.108 0-.108-.11.11-1.78.002-1.89-.092-.094-1.484.07-1.845.002-.616-3.014 1.53-1.845 1.845-2.158.104-.102-.11-1.782-.004-1.89.074-.076 2.034-.076 2.108 0h.002z" fill="#000"/></svg>