<svg xmlns="http://www.w3.org/2000/svg" xmlns:xlink="http://www.w3.org/1999/xlink" height="4733" viewBox="0 0 344 4733" width="344"><svg height="240" viewBox="0 0 336 240" width="335.04" x="4" y="4"><defs><style>.cls-2{fill:#e4e4e4}.cls-3{fill:#757575}</style></defs><path fill="#fff" d="M0 0H335V240H0z"/><path class="cls-2" d="M0.04 57.84H335.04V59.43000000000001H0.04z"/><path class="cls-2" d="M0.04 18.16H335.04V19.75H0.04z"/><path class="cls-2" d="M0.04 97.52H335.04V99.11H0.04z"/><path class="cls-2" d="M0.04 137.21H335.04V138.8H0.04z"/><path class="cls-2" d="M0.04 176.89H335.04V178.48H0.04z"/><path class="cls-2" d="M0.04 216.57H335.04V218.16H0.04z"/><path class="cls-3" d="M3.09,239a.27.27,0,0,1-.2-.07.3.3,0,0,1-.08-.2V232l-2,1.53a.26.26,0,0,1-.2.06.21.21,0,0,1-.18-.1l-.32-.4a.34.34,0,0,1,0-.22.29.29,0,0,1,.11-.18l2.62-2a.31.31,0,0,1,.16-.07l.15,0h.61a.24.24,0,0,1,.19.08.28.28,0,0,1,.08.2v7.85a.3.3,0,0,1-.08.2.24.24,0,0,1-.19.07Z"/><path class="cls-3" d="M101.64,239.41a.24.24,0,0,1-.2-.08.28.28,0,0,1-.08-.2v-6.72l-2,1.54a.27.27,0,0,1-.21.06.25.25,0,0,1-.18-.11l-.31-.39a.3.3,0,0,1,0-.22.29.29,0,0,1,.11-.18l2.62-2,.15-.07h.77a.24.24,0,0,1,.19.08.28.28,0,0,1,.08.2v7.84a.28.28,0,0,1-.08.2.21.21,0,0,1-.19.08Z"/><path class="cls-3" d="M107.26,239.53a3.38,3.38,0,0,1-1.39-.26,2.46,2.46,0,0,1-.93-.71,3,3,0,0,1-.53-1.05,5.45,5.45,0,0,1-.18-1.24c0-.22,0-.45,0-.69v-.72c0-.25,0-.48,0-.71a5.1,5.1,0,0,1,.18-1.25,3.19,3.19,0,0,1,.53-1,2.46,2.46,0,0,1,.93-.71,3.45,3.45,0,0,1,1.39-.26,3.4,3.4,0,0,1,1.4.26,2.46,2.46,0,0,1,.93.71,3,3,0,0,1,.54,1,5.1,5.1,0,0,1,.18,1.25c0,.23,0,.46,0,.71v.72c0,.24,0,.47,0,.69a5,5,0,0,1-.18,1.24,3.35,3.35,0,0,1-.53,1.05,2.46,2.46,0,0,1-.93.71A3.45,3.45,0,0,1,107.26,239.53Zm0-1a1.58,1.58,0,0,0,1.39-.62,2.86,2.86,0,0,0,.46-1.68c0-.23,0-.46,0-.68v-.66q0-.33,0-.66a2.9,2.9,0,0,0-.46-1.67,1.83,1.83,0,0,0-2.76,0,2.9,2.9,0,0,0-.47,1.67c0,.22,0,.44,0,.66v.66c0,.22,0,.45,0,.68a2.79,2.79,0,0,0,.48,1.68A1.56,1.56,0,0,0,107.26,238.51Z"/><path class="cls-3" d="M212.45,239.55a.27.27,0,0,1-.28-.28v-.38a.6.6,0,0,1,.06-.24,1,1,0,0,1,.24-.29l2.55-2.54c.4-.35.73-.64,1-.88a2.5,2.5,0,0,0,.51-.71,1.65,1.65,0,0,0,.15-.69,1.5,1.5,0,0,0-.39-1.09,1.48,1.48,0,0,0-1.14-.4,1.7,1.7,0,0,0-.83.2,1.4,1.4,0,0,0-.54.54,2.13,2.13,0,0,0-.26.77.29.29,0,0,1-.13.22.35.35,0,0,1-.18.06h-.63a.24.24,0,0,1-.18-.07.24.24,0,0,1-.07-.16,2.8,2.8,0,0,1,.19-.92,2.48,2.48,0,0,1,.54-.83,2.77,2.77,0,0,1,.87-.61,3.09,3.09,0,0,1,1.22-.23,3.16,3.16,0,0,1,1.56.34,2.16,2.16,0,0,1,.89.91,2.66,2.66,0,0,1,.29,1.23,2.54,2.54,0,0,1-.18,1,3.67,3.67,0,0,1-.52.85,6.81,6.81,0,0,1-.85.85l-2.3,2.34h3.74a.28.28,0,0,1,.21.07.26.26,0,0,1,.08.2v.49a.28.28,0,0,1-.08.2.29.29,0,0,1-.21.08Z"/><path class="cls-3" d="M222.43,239.67a3.43,3.43,0,0,1-1.4-.26,2.46,2.46,0,0,1-.93-.71,3,3,0,0,1-.52-1,5,5,0,0,1-.18-1.24c0-.22,0-.45,0-.69s0-.48,0-.72,0-.48,0-.71a4.66,4.66,0,0,1,.18-1.25,3,3,0,0,1,.53-1,2.46,2.46,0,0,1,.93-.71,3.87,3.87,0,0,1,2.79,0,2.46,2.46,0,0,1,.93.71,2.85,2.85,0,0,1,.53,1,4.66,4.66,0,0,1,.19,1.25c0,.23,0,.46,0,.71v.72c0,.24,0,.47,0,.69a4.53,4.53,0,0,1-.19,1.24,3.13,3.13,0,0,1-.52,1,2.46,2.46,0,0,1-.93.71A3.45,3.45,0,0,1,222.43,239.67Zm0-1a1.61,1.61,0,0,0,1.39-.62,2.86,2.86,0,0,0,.46-1.68c0-.24,0-.46,0-.68V235c0-.22,0-.44,0-.66a2.9,2.9,0,0,0-.46-1.67,1.83,1.83,0,0,0-2.76,0,3,3,0,0,0-.48,1.67V235q0,.33,0,.66v.68a2.94,2.94,0,0,0,.48,1.68A1.61,1.61,0,0,0,222.43,238.65Z"/><path class="cls-3" d="M323.21,238.67a4,4,0,0,1-1.32-.19,2.93,2.93,0,0,1-.95-.49,2.18,2.18,0,0,1-.58-.69,1.54,1.54,0,0,1-.21-.77.19.19,0,0,1,.07-.16.28.28,0,0,1,.18-.06H321a.41.41,0,0,1,.19,0,.45.45,0,0,1,.14.21,1.25,1.25,0,0,0,.42.67,1.6,1.6,0,0,0,.68.33,3.48,3.48,0,0,0,.79.09,2.1,2.1,0,0,0,1.34-.4,1.38,1.38,0,0,0,.52-1.16,1.3,1.3,0,0,0-.47-1.12,2.23,2.23,0,0,0-1.3-.33h-1.14a.35.35,0,0,1-.2-.07.28.28,0,0,1-.07-.21V234a.38.38,0,0,1,0-.19l.09-.14,2.33-2.54h-3.54a.27.27,0,0,1-.2-.07.29.29,0,0,1-.08-.21v-.45a.29.29,0,0,1,.08-.21.28.28,0,0,1,.2-.08h4.78a.29.29,0,0,1,.21.08.25.25,0,0,1,.08.21v.43a.24.24,0,0,1,0,.15l-.09.13-2.32,2.58h.2A3.46,3.46,0,0,1,325,234a2,2,0,0,1,.93.78,2.44,2.44,0,0,1,.33,1.32,2.38,2.38,0,0,1-.4,1.37,2.49,2.49,0,0,1-1.09.87A4,4,0,0,1,323.21,238.67Z"/><path class="cls-3" d="M330.65,238.67a3.4,3.4,0,0,1-1.4-.26,2.46,2.46,0,0,1-.93-.71,2.8,2.8,0,0,1-.52-1,5.45,5.45,0,0,1-.19-1.24c0-.22,0-.45,0-.69V234c0-.25,0-.48,0-.71a4.66,4.66,0,0,1,.19-1.25,3,3,0,0,1,.52-1,2.46,2.46,0,0,1,.93-.71,3.46,3.46,0,0,1,1.4-.26,3.38,3.38,0,0,1,1.39.26,2.46,2.46,0,0,1,.93.71,3,3,0,0,1,.54,1,4.66,4.66,0,0,1,.18,1.25c0,.23,0,.46,0,.71s0,.48,0,.72,0,.47,0,.69a4.53,4.53,0,0,1-.18,1.24,3.15,3.15,0,0,1-.53,1,2.42,2.42,0,0,1-.92.71A3.45,3.45,0,0,1,330.65,238.67Zm0-1A1.6,1.6,0,0,0,332,237a2.79,2.79,0,0,0,.46-1.68c0-.24,0-.46,0-.68V234q0-.33,0-.66a2.82,2.82,0,0,0-.46-1.67,1.83,1.83,0,0,0-2.76,0,2.9,2.9,0,0,0-.47,1.67c0,.22,0,.44,0,.66v.66c0,.22,0,.44,0,.68a2.79,2.79,0,0,0,.48,1.68A1.59,1.59,0,0,0,330.65,237.65Z"/><path d="M.13,19.15S5.49,4,9.89,4s11,27.94,22,43.36S58.21,65.66,63.16,93.6s21.41,76.12,21.41,76.12S92,203.06,118,203.06s40.75,4.23,53.93,4.23,53.27,1.93,62.61,1.93h52c15,0,48.49,2.89,48.49,2.89V215H0Z" fill="#f2d794"/></svg><svg height="240" viewBox="0 0 336 240" width="335.04" x="4" y="248"><defs><style>.cls-2{fill:#e4e4e4}.cls-3{fill:#757575}</style></defs><path fill="#fff" d="M0 0H335V240H0z"/><path class="cls-2" d="M0.04 57.84H335.04V59.43000000000001H0.04z"/><path class="cls-2" d="M0.04 18.16H335.04V19.75H0.04z"/><path class="cls-2" d="M0.04 97.52H335.04V99.11H0.04z"/><path class="cls-2" d="M0.04 137.21H335.04V138.8H0.04z"/><path class="cls-2" d="M0.04 176.89H335.04V178.48H0.04z"/><path class="cls-2" d="M0.04 216.57H335.04V218.16H0.04z"/><path class="cls-3" d="M3.09,239a.27.27,0,0,1-.2-.07.3.3,0,0,1-.08-.2V232l-2,1.53a.26.26,0,0,1-.2.06.21.21,0,0,1-.18-.1l-.32-.4a.34.34,0,0,1,0-.22.29.29,0,0,1,.11-.18l2.62-2a.31.31,0,0,1,.16-.07l.15,0h.61a.24.24,0,0,1,.19.08.28.28,0,0,1,.08.2v7.85a.3.3,0,0,1-.08.2.24.24,0,0,1-.19.07Z"/><path class="cls-3" d="M101.64,239.41a.24.24,0,0,1-.2-.08.28.28,0,0,1-.08-.2v-6.72l-2,1.54a.27.27,0,0,1-.21.06.25.25,0,0,1-.18-.11l-.31-.39a.3.3,0,0,1,0-.22.29.29,0,0,1,.11-.18l2.62-2,.15-.07h.77a.24.24,0,0,1,.19.08.28.28,0,0,1,.08.2v7.84a.28.28,0,0,1-.08.2.21.21,0,0,1-.19.08Z"/><path class="cls-3" d="M107.26,239.53a3.38,3.38,0,0,1-1.39-.26,2.46,2.46,0,0,1-.93-.71,3,3,0,0,1-.53-1.05,5.45,5.45,0,0,1-.18-1.24c0-.22,0-.45,0-.69v-.72c0-.25,0-.48,0-.71a5.1,5.1,0,0,1,.18-1.25,3.19,3.19,0,0,1,.53-1,2.46,2.46,0,0,1,.93-.71,3.45,3.45,0,0,1,1.39-.26,3.4,3.4,0,0,1,1.4.26,2.46,2.46,0,0,1,.93.71,3,3,0,0,1,.54,1,5.1,5.1,0,0,1,.18,1.25c0,.23,0,.46,0,.71v.72c0,.24,0,.47,0,.69a5,5,0,0,1-.18,1.24,3.35,3.35,0,0,1-.53,1.05,2.46,2.46,0,0,1-.93.71A3.45,3.45,0,0,1,107.26,239.53Zm0-1a1.58,1.58,0,0,0,1.39-.62,2.86,2.86,0,0,0,.46-1.68c0-.23,0-.46,0-.68v-.66q0-.33,0-.66a2.9,2.9,0,0,0-.46-1.67,1.83,1.83,0,0,0-2.76,0,2.9,2.9,0,0,0-.47,1.67c0,.22,0,.44,0,.66v.66c0,.22,0,.45,0,.68a2.79,2.79,0,0,0,.48,1.68A1.56,1.56,0,0,0,107.26,238.51Z"/><path class="cls-3" d="M212.45,239.55a.27.27,0,0,1-.28-.28v-.38a.6.6,0,0,1,.06-.24,1,1,0,0,1,.24-.29l2.55-2.54c.4-.35.73-.64,1-.88a2.5,2.5,0,0,0,.51-.71,1.65,1.65,0,0,0,.15-.69,1.5,1.5,0,0,0-.39-1.09,1.48,1.48,0,0,0-1.14-.4,1.7,1.7,0,0,0-.83.2,1.4,1.4,0,0,0-.54.54,2.13,2.13,0,0,0-.26.77.29.29,0,0,1-.13.22.35.35,0,0,1-.18.06h-.63a.24.24,0,0,1-.18-.07.24.24,0,0,1-.07-.16,2.8,2.8,0,0,1,.19-.92,2.48,2.48,0,0,1,.54-.83,2.77,2.77,0,0,1,.87-.61,3.09,3.09,0,0,1,1.22-.23,3.16,3.16,0,0,1,1.56.34,2.16,2.16,0,0,1,.89.91,2.66,2.66,0,0,1,.29,1.23,2.54,2.54,0,0,1-.18,1,3.67,3.67,0,0,1-.52.85,6.81,6.81,0,0,1-.85.85l-2.3,2.34h3.74a.28.28,0,0,1,.21.07.26.26,0,0,1,.08.2v.49a.28.28,0,0,1-.08.2.29.29,0,0,1-.21.08Z"/><path class="cls-3" d="M222.43,239.67a3.43,3.43,0,0,1-1.4-.26,2.46,2.46,0,0,1-.93-.71,3,3,0,0,1-.52-1,5,5,0,0,1-.18-1.24c0-.22,0-.45,0-.69s0-.48,0-.72,0-.48,0-.71a4.66,4.66,0,0,1,.18-1.25,3,3,0,0,1,.53-1,2.46,2.46,0,0,1,.93-.71,3.87,3.87,0,0,1,2.79,0,2.46,2.46,0,0,1,.93.71,2.85,2.85,0,0,1,.53,1,4.66,4.66,0,0,1,.19,1.25c0,.23,0,.46,0,.71v.72c0,.24,0,.47,0,.69a4.53,4.53,0,0,1-.19,1.24,3.13,3.13,0,0,1-.52,1,2.46,2.46,0,0,1-.93.71A3.45,3.45,0,0,1,222.43,239.67Zm0-1a1.61,1.61,0,0,0,1.39-.62,2.86,2.86,0,0,0,.46-1.68c0-.24,0-.46,0-.68V235c0-.22,0-.44,0-.66a2.9,2.9,0,0,0-.46-1.67,1.83,1.83,0,0,0-2.76,0,3,3,0,0,0-.48,1.67V235q0,.33,0,.66v.68a2.94,2.94,0,0,0,.48,1.68A1.61,1.61,0,0,0,222.43,238.65Z"/><path class="cls-3" d="M323.21,238.67a4,4,0,0,1-1.32-.19,2.93,2.93,0,0,1-.95-.49,2.18,2.18,0,0,1-.58-.69,1.54,1.54,0,0,1-.21-.77.19.19,0,0,1,.07-.16.28.28,0,0,1,.18-.06H321a.41.41,0,0,1,.19,0,.45.45,0,0,1,.14.21,1.25,1.25,0,0,0,.42.67,1.6,1.6,0,0,0,.68.33,3.48,3.48,0,0,0,.79.09,2.1,2.1,0,0,0,1.34-.4,1.38,1.38,0,0,0,.52-1.16,1.3,1.3,0,0,0-.47-1.12,2.23,2.23,0,0,0-1.3-.33h-1.14a.35.35,0,0,1-.2-.07.28.28,0,0,1-.07-.21V234a.38.38,0,0,1,0-.19l.09-.14,2.33-2.54h-3.54a.27.27,0,0,1-.2-.07.29.29,0,0,1-.08-.21v-.45a.29.29,0,0,1,.08-.21.28.28,0,0,1,.2-.08h4.78a.29.29,0,0,1,.21.08.25.25,0,0,1,.08.21v.43a.24.24,0,0,1,0,.15l-.09.13-2.32,2.58h.2A3.46,3.46,0,0,1,325,234a2,2,0,0,1,.93.78,2.44,2.44,0,0,1,.33,1.32,2.38,2.38,0,0,1-.4,1.37,2.49,2.49,0,0,1-1.09.87A4,4,0,0,1,323.21,238.67Z"/><path class="cls-3" d="M330.65,238.67a3.4,3.4,0,0,1-1.4-.26,2.46,2.46,0,0,1-.93-.71,2.8,2.8,0,0,1-.52-1,5.45,5.45,0,0,1-.19-1.24c0-.22,0-.45,0-.69V234c0-.25,0-.48,0-.71a4.66,4.66,0,0,1,.19-1.25,3,3,0,0,1,.52-1,2.46,2.46,0,0,1,.93-.71,3.46,3.46,0,0,1,1.4-.26,3.38,3.38,0,0,1,1.39.26,2.46,2.46,0,0,1,.93.71,3,3,0,0,1,.54,1,4.66,4.66,0,0,1,.18,1.25c0,.23,0,.46,0,.71s0,.48,0,.72,0,.47,0,.69a4.53,4.53,0,0,1-.18,1.24,3.15,3.15,0,0,1-.53,1,2.42,2.42,0,0,1-.92.71A3.45,3.45,0,0,1,330.65,238.67Zm0-1A1.6,1.6,0,0,0,332,237a2.79,2.79,0,0,0,.46-1.68c0-.24,0-.46,0-.68V234q0-.33,0-.66a2.82,2.82,0,0,0-.46-1.67,1.83,1.83,0,0,0-2.76,0,2.9,2.9,0,0,0-.47,1.67c0,.22,0,.44,0,.66v.66c0,.22,0,.44,0,.68a2.79,2.79,0,0,0,.48,1.68A1.59,1.59,0,0,0,330.65,237.65Z"/><path d="M0,137s7.88,5.17,11.75,9.54c4.22,4.77,6.57,10.33,10.8,10.33,7.05,0,7.52-10.33,14.1-10.33s11.74,12.71,19.26,12.71,8.61-11.12,15.82-11.12,13.17,9.53,18.88,9.53,9.94-8.74,15.11-8.74,12.21,10.33,20.2,10.33,14.09-12.71,20.67-12.71,9.4,8.74,16,8.74,8-4,12.68-4,10.81,11.12,19.27,11.12,8.92-6.36,17.38-6.36,9.87,5.57,16.91,5.57,8-7.95,15.51-7.95S258,166.41,265,166.41s6.58-5.57,12.69-5.57,12.68,12.72,21.61,12.72,7.52-7.95,14.57-7.95S335,181.51,335,181.51V215H0Z" fill="#8fe7ff"/></svg><svg height="240" viewBox="0 0 336 240" width="335.04" x="4" y="492"><defs><style>.cls-2{fill:#e4e4e4}.cls-4{fill:#757575}</style></defs><path fill="#fff" d="M0 0H335V240H0z"/><path class="cls-2" d="M0.04 57.84H335.04V59.43000000000001H0.04z"/><path class="cls-2" d="M0.04 18.16H335.04V19.75H0.04z"/><path class="cls-2" d="M0.04 97.52H335.04V99.11H0.04z"/><path class="cls-2" d="M0.04 137.21H335.04V138.8H0.04z"/><path class="cls-2" d="M0.04 176.89H335.04V178.48H0.04z"/><path class="cls-2" d="M0.04 216.57H335.04V218.16H0.04z"/><path d="M0,122.32s9.8-.79,15.4,15.88,6.84,20,15.86,21.43c14.93,2.38,15.87,11.9,33.13,11.11C76,170.2,88,187.3,89.08,188.87a2.15,2.15,0,0,0,.18.24c4.56,5.44,10.3,11.95,19.49,13.37,10.27,1.59,28.93,6.35,42.46,6.35,9.8,0,51.79-2.38,63,.8,9.25,2.62,35.28,0,39.34,0s34.38,0,40.91,1.58S335,213.59,335,213.59V215H0Z" fill="#e8daf7"/><path class="cls-4" d="M3.09,239a.27.27,0,0,1-.2-.07.3.3,0,0,1-.08-.2V232l-2,1.53a.26.26,0,0,1-.2.06.21.21,0,0,1-.18-.1l-.32-.4a.34.34,0,0,1,0-.22.29.29,0,0,1,.11-.18l2.62-2a.31.31,0,0,1,.16-.07l.15,0h.61a.24.24,0,0,1,.19.08.28.28,0,0,1,.08.2v7.85a.3.3,0,0,1-.08.2.24.24,0,0,1-.19.07Z"/><path class="cls-4" d="M101.64,239.41a.24.24,0,0,1-.2-.08.28.28,0,0,1-.08-.2v-6.72l-2,1.54a.27.27,0,0,1-.21.06.25.25,0,0,1-.18-.11l-.31-.39a.3.3,0,0,1,0-.22.29.29,0,0,1,.11-.18l2.62-2,.15-.07h.77a.24.24,0,0,1,.19.08.28.28,0,0,1,.08.2v7.84a.28.28,0,0,1-.08.2.21.21,0,0,1-.19.08Z"/><path class="cls-4" d="M107.26,239.53a3.38,3.38,0,0,1-1.39-.26,2.46,2.46,0,0,1-.93-.71,3,3,0,0,1-.53-1.05,5.45,5.45,0,0,1-.18-1.24c0-.22,0-.45,0-.69v-.72c0-.25,0-.48,0-.71a5.1,5.1,0,0,1,.18-1.25,3.19,3.19,0,0,1,.53-1,2.46,2.46,0,0,1,.93-.71,3.45,3.45,0,0,1,1.39-.26,3.4,3.4,0,0,1,1.4.26,2.46,2.46,0,0,1,.93.71,3,3,0,0,1,.54,1,5.1,5.1,0,0,1,.18,1.25c0,.23,0,.46,0,.71v.72c0,.24,0,.47,0,.69a5,5,0,0,1-.18,1.24,3.35,3.35,0,0,1-.53,1.05,2.46,2.46,0,0,1-.93.71A3.45,3.45,0,0,1,107.26,239.53Zm0-1a1.58,1.58,0,0,0,1.39-.62,2.86,2.86,0,0,0,.46-1.68c0-.23,0-.46,0-.68v-.66q0-.33,0-.66a2.9,2.9,0,0,0-.46-1.67,1.83,1.83,0,0,0-2.76,0,2.9,2.9,0,0,0-.47,1.67c0,.22,0,.44,0,.66v.66c0,.22,0,.45,0,.68a2.79,2.79,0,0,0,.48,1.68A1.56,1.56,0,0,0,107.26,238.51Z"/><path class="cls-4" d="M212.45,239.55a.27.27,0,0,1-.28-.28v-.38a.6.6,0,0,1,.06-.24,1,1,0,0,1,.24-.29l2.55-2.54c.4-.35.73-.64,1-.88a2.5,2.5,0,0,0,.51-.71,1.65,1.65,0,0,0,.15-.69,1.5,1.5,0,0,0-.39-1.09,1.48,1.48,0,0,0-1.14-.4,1.7,1.7,0,0,0-.83.2,1.4,1.4,0,0,0-.54.54,2.13,2.13,0,0,0-.26.77.29.29,0,0,1-.13.22.35.35,0,0,1-.18.06h-.63a.24.24,0,0,1-.18-.07.24.24,0,0,1-.07-.16,2.8,2.8,0,0,1,.19-.92,2.48,2.48,0,0,1,.54-.83,2.77,2.77,0,0,1,.87-.61,3.09,3.09,0,0,1,1.22-.23,3.16,3.16,0,0,1,1.56.34,2.16,2.16,0,0,1,.89.91,2.66,2.66,0,0,1,.29,1.23,2.54,2.54,0,0,1-.18,1,3.67,3.67,0,0,1-.52.85,6.81,6.81,0,0,1-.85.85l-2.3,2.34h3.74a.28.28,0,0,1,.21.07.26.26,0,0,1,.08.2v.49a.28.28,0,0,1-.08.2.29.29,0,0,1-.21.08Z"/><path class="cls-4" d="M222.43,239.67a3.43,3.43,0,0,1-1.4-.26,2.46,2.46,0,0,1-.93-.71,3,3,0,0,1-.52-1,5,5,0,0,1-.18-1.24c0-.22,0-.45,0-.69s0-.48,0-.72,0-.48,0-.71a4.66,4.66,0,0,1,.18-1.25,3,3,0,0,1,.53-1,2.46,2.46,0,0,1,.93-.71,3.87,3.87,0,0,1,2.79,0,2.46,2.46,0,0,1,.93.71,2.85,2.85,0,0,1,.53,1,4.66,4.66,0,0,1,.19,1.25c0,.23,0,.46,0,.71v.72c0,.24,0,.47,0,.69a4.53,4.53,0,0,1-.19,1.24,3.13,3.13,0,0,1-.52,1,2.46,2.46,0,0,1-.93.71A3.45,3.45,0,0,1,222.43,239.67Zm0-1a1.61,1.61,0,0,0,1.39-.62,2.86,2.86,0,0,0,.46-1.68c0-.24,0-.46,0-.68V235c0-.22,0-.44,0-.66a2.9,2.9,0,0,0-.46-1.67,1.83,1.83,0,0,0-2.76,0,3,3,0,0,0-.48,1.67V235q0,.33,0,.66v.68a2.94,2.94,0,0,0,.48,1.68A1.61,1.61,0,0,0,222.43,238.65Z"/><path class="cls-4" d="M323.21,238.67a4,4,0,0,1-1.32-.19,2.93,2.93,0,0,1-.95-.49,2.18,2.18,0,0,1-.58-.69,1.54,1.54,0,0,1-.21-.77.19.19,0,0,1,.07-.16.28.28,0,0,1,.18-.06H321a.41.41,0,0,1,.19,0,.45.45,0,0,1,.14.21,1.25,1.25,0,0,0,.42.67,1.6,1.6,0,0,0,.68.33,3.48,3.48,0,0,0,.79.09,2.1,2.1,0,0,0,1.34-.4,1.38,1.38,0,0,0,.52-1.16,1.3,1.3,0,0,0-.47-1.12,2.23,2.23,0,0,0-1.3-.33h-1.14a.35.35,0,0,1-.2-.07.28.28,0,0,1-.07-.21V234a.38.38,0,0,1,0-.19l.09-.14,2.33-2.54h-3.54a.27.27,0,0,1-.2-.07.29.29,0,0,1-.08-.21v-.45a.29.29,0,0,1,.08-.21.28.28,0,0,1,.2-.08h4.78a.29.29,0,0,1,.21.08.25.25,0,0,1,.08.21v.43a.24.24,0,0,1,0,.15l-.09.13-2.32,2.58h.2A3.46,3.46,0,0,1,325,234a2,2,0,0,1,.93.78,2.44,2.44,0,0,1,.33,1.32,2.38,2.38,0,0,1-.4,1.37,2.49,2.49,0,0,1-1.09.87A4,4,0,0,1,323.21,238.67Z"/><path class="cls-4" d="M330.65,238.67a3.4,3.4,0,0,1-1.4-.26,2.46,2.46,0,0,1-.93-.71,2.8,2.8,0,0,1-.52-1,5.45,5.45,0,0,1-.19-1.24c0-.22,0-.45,0-.69V234c0-.25,0-.48,0-.71a4.66,4.66,0,0,1,.19-1.25,3,3,0,0,1,.52-1,2.46,2.46,0,0,1,.93-.71,3.46,3.46,0,0,1,1.4-.26,3.38,3.38,0,0,1,1.39.26,2.46,2.46,0,0,1,.93.71,3,3,0,0,1,.54,1,4.66,4.66,0,0,1,.18,1.25c0,.23,0,.46,0,.71s0,.48,0,.72,0,.47,0,.69a4.53,4.53,0,0,1-.18,1.24,3.15,3.15,0,0,1-.53,1,2.42,2.42,0,0,1-.92.71A3.45,3.45,0,0,1,330.65,238.67Zm0-1A1.6,1.6,0,0,0,332,237a2.79,2.79,0,0,0,.46-1.68c0-.24,0-.46,0-.68V234q0-.33,0-.66a2.82,2.82,0,0,0-.46-1.67,1.83,1.83,0,0,0-2.76,0,2.9,2.9,0,0,0-.47,1.67c0,.22,0,.44,0,.66v.66c0,.22,0,.44,0,.68a2.79,2.79,0,0,0,.48,1.68A1.59,1.59,0,0,0,330.65,237.65Z"/></svg><svg height="144.026" viewBox="0 0 236 145" width="235.453" x="4" y="736"><path d="M0,99.679l12.082-29.2L0,41.281,29.2,29.2,41.281,0l29.2,12.082L99.679,0l12.082,29.2,29.2,12.082-12.082,29.2,12.082,29.2-29.2,12.082-12.082,29.2-29.2-12.082-29.2,12.082L29.2,111.762Z" transform="translate(94.493 3.065)" fill="#e0f2ff"/><path d="M63.885,2A50.582,50.582,0,1,1,21.548,80.048l7.992-6.323a40.388,40.388,0,1,0-5.716-26.2H37.785L18.867,66.391,0,47.524H13.606A50.563,50.563,0,0,1,63.885,2" transform="translate(0 9.088)" fill="#5d9cfa"/><path d="M76.859,44.973A10.969,10.969,0,0,1,87.686,55.919v54.849A10.993,10.993,0,0,1,76.74,121.714H10.946A10.993,10.993,0,0,1,0,110.768V55.919A10.969,10.969,0,0,1,10.827,44.973V32.957a33.016,33.016,0,0,1,66.032,0V44.973M43.784,16.657a16.325,16.325,0,0,0-16.3,16.3V44.973H60.2V32.957A16.35,16.35,0,0,0,43.784,16.657Z" transform="matrix(.985 .174 -.174 .985 87.687 0)" fill="#fdaa33"/></svg><svg height="105.636" viewBox="0 0 233 106" width="232.766" x="4" y="885"><g transform="translate(12.918 9.095)" fill="#e0f2ff"><ellipse cx="46.989" cy="46.771" rx="46.989" ry="46.771"/><ellipse cx="46.989" cy="46.771" rx="46.989" ry="46.771"/></g><path d="M4.159,4.159H10.4L14.555,0H27.031l4.159,4.159h6.238a4.159,4.159,0,0,1,4.159,4.159V33.269a4.159,4.159,0,0,1-4.159,4.159H4.159A4.159,4.159,0,0,1,0,33.269V8.317A4.159,4.159,0,0,1,4.159,4.159M20.793,10.4a10.4,10.4,0,1,0,10.4,10.4,10.4,10.4,0,0,0-10.4-10.4m0,4.159a6.238,6.238,0,1,1-6.238,6.238,6.238,6.238,0,0,1,6.238-6.238Z" transform="rotate(-7 314.498 19.236)" fill="#5d9cfa"/><g transform="translate(59.906 10.095)" fill="#e0f2ff"><ellipse cx="46.989" cy="46.771" rx="46.989" ry="46.771"/><ellipse cx="46.989" cy="46.771" rx="46.989" ry="46.771" transform="translate(0 2)"/></g><ellipse cx="52.691" cy="52.494" rx="52.691" ry="52.494" transform="translate(95.317)" fill="#e0f2ff"/><path d="M94.374,3H12.264A10.228,10.228,0,0,0,2,13.264V85.111A10.228,10.228,0,0,0,12.264,95.374H94.374a10.228,10.228,0,0,0,10.264-10.264V13.264A10.228,10.228,0,0,0,94.374,3M17.4,23.528h25.66V54.319H17.4V23.528M89.242,74.847H17.4V64.583H89.242V74.847m0-20.528H53.319V44.055H89.242V54.319m0-20.528H53.319V23.528H89.242Z" transform="rotate(5.13 48.74 686.115)" fill="#fd9500"/><path d="M19.139,54.683a2.734,2.734,0,0,1-2.734-2.734v-8.2H5.468A5.468,5.468,0,0,1,0,38.278V5.468A5.467,5.467,0,0,1,5.468,0H49.215a5.468,5.468,0,0,1,5.468,5.468v32.81a5.468,5.468,0,0,1-5.468,5.468H32.537L22.42,53.891a2.786,2.786,0,0,1-1.914.793H19.139m2.734-16.405V46.7l8.421-8.421h18.92V5.468H5.468v32.81Z" transform="rotate(12.04 -1.193 862.035)" fill="#5d9cfa"/></svg><svg height="110.395" viewBox="0 0 229 111" width="228.825" x="4" y="995"><g transform="translate(-851.807 -2127.438)"><path d="M0,73.184,8.792,51.746,0,30.308l21.247-8.871L30.039,0,51.286,8.871,72.533,0l8.792,21.438,21.247,8.871L93.78,51.746l8.792,21.438L81.325,82.055l-8.792,21.438L51.286,94.622l-21.247,8.871L21.247,82.055Z" transform="rotate(4.01 -29907.02 13845.028)" fill="#e0f2ff"/><ellipse cx="46.691" cy="46.494" rx="46.691" ry="46.494" transform="translate(963.235 2136.143)" fill="#e0f2ff"/><path d="M17.721,50.631A2.532,2.532,0,0,1,15.189,48.1V40.505H5.063A5.063,5.063,0,0,1,0,35.442V5.063A5.062,5.062,0,0,1,5.063,0H45.568a5.063,5.063,0,0,1,5.063,5.063V35.442a5.063,5.063,0,0,1-5.063,5.063H30.126L20.759,49.9a2.579,2.579,0,0,1-1.772.734H17.721m2.532-15.189v7.8l7.8-7.8H45.568V5.063H5.063V35.442Z" transform="rotate(9 -13083.56 7617.914)" fill="#fd9500"/><path d="M32.561,0C14.653,0,0,11.657,0,26.049S14.653,52.1,32.561,52.1A41.192,41.192,0,0,0,44.056,50.47a35.6,35.6,0,0,0,21.067,8.14c-7.587-7.587-8.792-12.7-8.954-14.653C61.7,39.3,65.123,32.985,65.123,26.049,65.123,11.657,50.47,0,32.561,0M16.281,29.305V22.793h6.512v6.512H16.281m13.025,0V22.793h6.512v6.512H29.305m13.025,0V22.793h6.512v6.512Z" transform="rotate(-16 8172.015 -1941.816)" fill="#fd9500"/><path d="M83.348,47.628H79.379A27.762,27.762,0,0,0,51.6,19.845H47.628V14.8a7.938,7.938,0,1,0-7.938,0v5.041H35.721A27.762,27.762,0,0,0,7.938,47.628H3.969A3.981,3.981,0,0,0,0,51.6V63.5a3.981,3.981,0,0,0,3.969,3.969H7.938v3.969a7.936,7.936,0,0,0,7.938,7.938H71.441a7.91,7.91,0,0,0,7.938-7.938V67.472h3.969A3.981,3.981,0,0,0,87.317,63.5V51.6a3.981,3.981,0,0,0-3.969-3.969M30.482,59.693,25.8,55.01l-4.683,4.683L16.431,55.01,25.8,45.643l9.367,9.367-4.683,4.683m35.721,0L61.519,55.01l-4.683,4.683L52.152,55.01l9.367-9.367,9.367,9.367Z" transform="rotate(6.02 -19775.585 9998.356)" fill="#5d9cfa"/></g></svg><svg height="133.755" viewBox="0 0 228 134" width="227.891" x="4" y="1110"><g transform="translate(-814.102 -229)"><ellipse cx="52.368" cy="52.117" rx="52.368" ry="52.117" transform="translate(937.257 243.345)" fill="#e0f2ff"/><ellipse cx="60.904" cy="60.825" rx="60.904" ry="60.825" transform="translate(876.353 229)" fill="#fdaa33"/><path id="arrow-right-bold-outline" d="M39.233,71.976H0V30.847H39.233V0L88.274,51.411,39.233,102.823V71.976m9.808-46.27V41.129H9.808V61.694H49.041V77.117L73.562,51.411Z" transform="rotate(-16 1345.977 -2764.36)" fill="#5d9cfa"/></g></svg><svg height="154.146" viewBox="0 0 221 155" width="220.092" x="4" y="1248"><g transform="translate(-877.033 -1544.37)"><path id="chat-processing" d="M25.566,0C11.5,0,0,9.153,0,20.453S11.5,40.906,25.566,40.906a32.343,32.343,0,0,0,9.025-1.278,27.951,27.951,0,0,0,16.541,6.392c-5.957-5.957-6.9-9.971-7.031-11.5,4.346-3.656,7.031-8.616,7.031-14.061C51.132,9.153,39.628,0,25.566,0M12.783,23.01V17.9H17.9V23.01H12.783m10.226,0V17.9h5.113V23.01H23.01m10.226,0V17.9h5.113V23.01Z" transform="rotate(1 -92315.209 51104.474)" fill="#fd9500"/><circle id="Эллипс_86" data-name="Эллипс 86" cx="65.737" cy="65.737" r="65.737" transform="rotate(11 -7552.945 5616.999)" fill="#fff"/><path id="chat-processing-2" data-name="chat-processing" d="M31.891,0c17.54,0,31.891,11.417,31.891,25.513S49.431,51.026,31.891,51.026a40.344,40.344,0,0,1-11.258-1.595A34.866,34.866,0,0,1,0,57.4c7.431-7.431,8.611-12.438,8.77-14.351C3.349,38.492,0,32.306,0,25.513,0,11.417,14.351,0,31.891,0M47.837,28.7V22.324H41.458V28.7h6.378m-12.756,0V22.324H28.7V28.7H35.08m-12.756,0V22.324H15.946V28.7Z" transform="rotate(11 -7667.988 6160.08)" fill="#fd9500"/><path id="account-heart" d="M60.458,44.4c-11.66,0-34.548,5.772-34.548,17.761v8.88h69.1v-8.88c0-11.988-22.888-17.761-34.548-17.761m0-8.88A17.522,17.522,0,0,0,77.732,17.761a17.28,17.28,0,1,0-34.548,0A17.522,17.522,0,0,0,60.458,35.521M17.274,48.842l-2.591-2.22C6.046,38.186,0,32.857,0,26.2a9.723,9.723,0,0,1,9.5-9.768,9.994,9.994,0,0,1,7.773,3.552,9.994,9.994,0,0,1,7.773-3.552,9.444,9.444,0,0,1,9.5,9.768c0,6.66-6.046,11.988-14.683,20.425Z" transform="rotate(6.02 -14539.859 9686.36)" fill="#73a9fa"/></g></svg><svg height="103.77" viewBox="0 0 220 104" width="219.997" x="4" y="1407"><g transform="translate(-526.807 -86)"><path id="license" d="M16.432,26.288a9.857,9.857,0,1,1,9.857,9.857,9.988,9.988,0,0,1-9.857-9.857m9.857,29.571,13.143,3.286V49.025a24.774,24.774,0,0,1-13.143,3.549,24.774,24.774,0,0,1-13.143-3.549v10.12M26.289,6.574a18.991,18.991,0,0,0-13.931,5.717,18.991,18.991,0,0,0-5.783,14,18.991,18.991,0,0,0,5.783,13.9A18.991,18.991,0,0,0,26.289,46,18.991,18.991,0,0,0,40.22,40.186,18.991,18.991,0,0,0,46,26.288a18.991,18.991,0,0,0-5.783-14A18.991,18.991,0,0,0,26.289,6.574M52.574,26.288a26.417,26.417,0,0,1-1.873,9.2A25.76,25.76,0,0,1,46,43.636V69L26.289,62.43,6.575,69V43.636A25.957,25.957,0,0,1,0,26.288,25.234,25.234,0,0,1,7.659,7.757,25.4,25.4,0,0,1,26.289,0a25.4,25.4,0,0,1,18.63,7.754,25.234,25.234,0,0,1,7.656,18.531Z" transform="rotate(-25.97 582.012 -1393.872)" fill="#5d9cfa"/><path id="star-circle" d="M47.109,52.968l-14-8.442-14,8.442,3.708-15.924L10.461,26.352l16.288-1.39,6.356-15.03,6.356,15,16.288,1.39L43.4,37.011l3.708,15.957M33.105,0A33.105,33.105,0,1,0,66.21,33.105,33.138,33.138,0,0,0,33.105,0Z" transform="rotate(17 -49.926 1875.512)" fill="#73a9fa"/><path id="tooltip-account" d="M95.393,2H12.377A10.377,10.377,0,0,0,2,12.377V74.639A10.377,10.377,0,0,0,12.377,85.016H33.131L53.885,105.77,74.639,85.016H95.393A10.377,10.377,0,0,0,105.77,74.639V12.377A10.377,10.377,0,0,0,95.393,2M53.885,13.934A14.009,14.009,0,1,1,39.876,27.942,13.951,13.951,0,0,1,53.885,13.934M85.016,69.45H22.754v-4.67C22.754,54.4,43.508,48.7,53.885,48.7S85.016,54.4,85.016,64.781Z" transform="translate(583.826 84)" fill="#fd9500"/></g></svg><svg height="215.92" viewBox="0 0 216 216" width="215.92" x="4" y="1515"><path d="M0,108.776,13.185,76.912,0,45.049,31.864,31.864,45.049,0,76.912,13.185,108.776,0l13.185,31.864,31.864,13.185L140.64,76.912l13.185,31.864-31.864,13.185-13.185,31.864L76.912,140.64,45.049,153.825,31.864,121.961Z" transform="rotate(38 47.307 137.46)" fill="#e0f2ff"/><path d="M63.678,0H28.434a8.837,8.837,0,0,0-8.811,8.811V79.3a8.837,8.837,0,0,0,8.811,8.811H81.3A8.837,8.837,0,0,0,90.112,79.3V26.434L63.678,0M81.3,79.3H28.434V8.811H59.273V30.839H81.3V79.3M10.811,17.622v79.3H81.3v8.811H10.811A8.837,8.837,0,0,1,2,96.923v-79.3Z" transform="translate(77.562 42.108)" fill="#fd9500"/><g transform="rotate(-22 291.095 -10.001)"><ellipse cx="36.715" cy="36.589" rx="36.715" ry="36.589" transform="rotate(9 5.724 72.73)" fill="#5d9cfa"/><path d="M16.147,42.782a18.546,18.546,0,0,1-7.19-1.248,12.942,12.942,0,0,1-4.872-3.446,14.731,14.731,0,0,1-2.852-5.08A23.661,23.661,0,0,1,.1,26.858q-.059-1.6-.089-3.535t0-3.892q.03-1.961.089-3.625a20.768,20.768,0,0,1,1.129-6.15A14.612,14.612,0,0,1,4.174,4.635a13.558,13.558,0,0,1,4.9-3.387A18.2,18.2,0,0,1,16.147,0a18.372,18.372,0,0,1,7.13,1.248,13.558,13.558,0,0,1,4.9,3.387,14.241,14.241,0,0,1,2.912,5.021,21.41,21.41,0,0,1,1.1,6.15q.119,1.664.119,3.625v3.892q0,1.931-.119,3.535a22.1,22.1,0,0,1-1.07,6.15,14.731,14.731,0,0,1-2.852,5.08,12.9,12.9,0,0,1-4.9,3.446A18.773,18.773,0,0,1,16.147,42.782Zm0-6.833q3.862,0,5.675-2.525a11.851,11.851,0,0,0,1.872-6.863q.119-1.723.119-3.476V19.549q0-1.783-.119-3.387a11.92,11.92,0,0,0-1.872-6.8,6.45,6.45,0,0,0-5.675-2.585,6.387,6.387,0,0,0-5.615,2.585,12.239,12.239,0,0,0-1.931,6.8q0,1.6-.03,3.387t0,3.535q.03,1.753.03,3.476a12,12,0,0,0,1.961,6.863A6.459,6.459,0,0,0,16.147,35.949Z" transform="rotate(8 -117.382 220.361)" fill="#fff"/></g></svg><svg height="215.354" viewBox="0 0 216 216" width="215.354" x="4" y="1735"><g transform="translate(-723.952 -270.646)"><path d="M0,108.491l13.15-31.78L0,44.931,31.78,31.78,44.931,0l31.78,13.15L108.491,0l13.15,31.78,31.78,13.15-13.15,31.78,13.15,31.78-31.78,13.15-13.15,31.78-31.78-13.15-31.78,13.15-13.15-31.78Z" transform="rotate(38 15.986 1323.083)" fill="#e0f2ff"/><path d="M71.167,66.422H37.956V56.934H71.167v9.489M85.4,47.445H37.956V37.956H85.4v9.489m0-18.978H37.956V18.978H85.4v9.489M9.489,18.978V94.889H85.4v9.489H9.489A9.489,9.489,0,0,1,0,94.889V18.978H9.489M94.889,0a9.489,9.489,0,0,1,9.489,9.489V75.911A9.456,9.456,0,0,1,94.889,85.4H28.467a9.489,9.489,0,0,1-9.489-9.489V9.489A9.456,9.456,0,0,1,28.467,0H94.889M28.467,9.489V75.911H94.889V9.489Z" transform="rotate(-7 3023.153 -5914.489)" fill="#fd9500"/><ellipse cx="36.618" cy="36.494" rx="36.618" ry="36.494" transform="rotate(9 -1822.781 5505.529)" fill="#5d9cfa"/><path d="M16.1,42.67a18.5,18.5,0,0,1-7.171-1.245,12.908,12.908,0,0,1-4.86-3.437A14.692,14.692,0,0,1,1.23,32.921,23.6,23.6,0,0,1,.1,26.787q-.059-1.6-.089-3.526t0-3.882q.03-1.956.089-3.615A20.713,20.713,0,0,1,1.23,9.63,14.574,14.574,0,0,1,4.163,4.623,13.522,13.522,0,0,1,9.053,1.245,18.151,18.151,0,0,1,16.1,0a18.323,18.323,0,0,1,7.112,1.245,13.522,13.522,0,0,1,4.889,3.378,14.2,14.2,0,0,1,2.9,5.008,21.354,21.354,0,0,1,1.1,6.134q.119,1.659.119,3.615v3.882q0,1.926-.119,3.526a22.041,22.041,0,0,1-1.067,6.134,14.692,14.692,0,0,1-2.845,5.067,12.865,12.865,0,0,1-4.889,3.437A18.724,18.724,0,0,1,16.1,42.67Zm0-6.815q3.852,0,5.66-2.519a11.82,11.82,0,0,0,1.867-6.845q.119-1.719.119-3.467V19.5q0-1.778-.119-3.378a11.889,11.889,0,0,0-1.867-6.786A6.433,6.433,0,0,0,16.1,6.756a6.37,6.37,0,0,0-5.6,2.578A12.207,12.207,0,0,0,8.578,16.12q0,1.6-.03,3.378t0,3.526q.03,1.748.03,3.467a11.97,11.97,0,0,0,1.956,6.845A6.443,6.443,0,0,0,16.1,35.855Z" transform="rotate(8 -2226.94 6312.401)" fill="#fff"/></g></svg><svg height="170.255" viewBox="0 0 213 171" width="212.124" x="4" y="1955"><g transform="translate(-395.876 -301.872)"><path d="M0,108.034,13.1,76.388,0,44.741l31.646-13.1L44.741,0,76.388,13.1,108.034,0l13.1,31.646,31.646,13.1-13.1,31.646,13.1,31.646-31.646,13.095-13.095,31.646-31.646-13.1L44.741,152.775l-13.1-31.646Z" transform="rotate(7 -2239.6 3881.67)" fill="#e0f2ff"/><circle cx="65" cy="65" r="65" transform="translate(395.876 314.163)" fill="#fdaa33"/><path d="M80.015,3H34.883L3,34.883V80.015L34.883,111.9H80.015L111.9,80.015V34.883Z" transform="rotate(8 -2082.819 3381.529)" fill="#498ef4"/><path d="M13.408,32.424a1.738,1.738,0,0,1-1.212-.476,1.622,1.622,0,0,1-.52-1.256V27.921A15.027,15.027,0,0,1,13.538,21.9a26.841,26.841,0,0,1,3.551-4.849q2.035-2.208,4.07-4.2a32.252,32.252,0,0,0,3.464-3.94,8.578,8.578,0,0,0,1.689-4.027,5.939,5.939,0,0,0-1-4.243A7.924,7.924,0,0,0,21.938-2a11.2,11.2,0,0,0-4.46-.909A10.649,10.649,0,0,0,10.81-.916q-2.6,1.992-3.551,6.408a2.678,2.678,0,0,1-.866,1.515,2.594,2.594,0,0,1-1.645.476H-2.613a1.832,1.832,0,0,1-1.342-.563,2.048,2.048,0,0,1-.563-1.515,16.709,16.709,0,0,1,1.6-6.711A18.106,18.106,0,0,1,1.5-7.151a21.459,21.459,0,0,1,7.058-4.113,27.716,27.716,0,0,1,9.526-1.515A28.315,28.315,0,0,1,28-11.265a17.432,17.432,0,0,1,6.408,3.94,14.793,14.793,0,0,1,3.421,5.239,14.45,14.45,0,0,1,.953,5.5A14.76,14.76,0,0,1,37.309,9.3a23.243,23.243,0,0,1-3.2,4.806q-1.905,2.208-3.9,4.33A38.754,38.754,0,0,0,26.7,22.725a12.532,12.532,0,0,0-2.035,4.59,15.152,15.152,0,0,0-.26,1.515q-.087.736-.173,1.429a4.388,4.388,0,0,1-.866,1.6,1.9,1.9,0,0,1-1.472.563Zm-.26,16.28a2.07,2.07,0,0,1-2.078-2.078V39.092a2.11,2.11,0,0,1,.606-1.559,2,2,0,0,1,1.472-.606h8.4a2.076,2.076,0,0,1,2.165,2.165v7.534a2,2,0,0,1-.606,1.472,2.11,2.11,0,0,1-1.559.606Z" transform="rotate(8 -2385.318 3650.008)" fill="#fff"/></g></svg><svg height="100.366" viewBox="0 0 203 101" width="202.901" x="4" y="2130"><g transform="translate(4 -388.195)"><ellipse cx="46.588" cy="46.325" rx="46.588" ry="46.325" transform="translate(17.479 395.912)" fill="#e0f2ff"/><path d="M95.187,21.153,52.882,47.593,10.576,21.153V10.576L52.882,37.017,95.187,10.576M95.187,0H10.576A10.54,10.54,0,0,0,0,10.576V74.034A10.576,10.576,0,0,0,10.576,84.611h84.61a10.576,10.576,0,0,0,10.576-10.576V10.576A10.573,10.573,0,0,0,95.187,0Z" transform="rotate(6.02 -3644.281 1003.725)" fill="#fdaa33"/><path d="M10.283,35.254H35.254L45.537,20.565,35.254,5.876H10.283L20.565,20.565,10.283,35.254M35.254,41.13H0L13.22,20.565,0,0H35.254a5.709,5.709,0,0,1,4.818,2.527L52.882,20.565,40.072,38.6A5.709,5.709,0,0,1,35.254,41.13Z" transform="rotate(-9 2730.925 -93.386)" fill="#5d9cfa"/><path d="M10.283,35.254H35.254L45.537,20.565,35.254,5.876H10.283L20.565,20.565,10.283,35.254M35.254,41.13H0L13.22,20.565,0,0H35.254a5.709,5.709,0,0,1,4.818,2.527L52.882,20.565,40.072,38.6A5.709,5.709,0,0,1,35.254,41.13Z" transform="rotate(-9 2757.362 242.579)" fill="#5d9cfa"/><ellipse cx="17.372" cy="17.324" rx="17.372" ry="17.324" transform="translate(164.158 391.939)" fill="#5d9cfa"/><path d="M6.94,18.628a.682.682,0,0,1-.665-.665V5.3L2.629,8.09a.582.582,0,0,1-.492.133A.748.748,0,0,1,1.7,7.93L.128,5.881a.722.722,0,0,1-.12-.519.6.6,0,0,1,.306-.439L6.435.186A1.063,1.063,0,0,1,6.741.04,1.267,1.267,0,0,1,7.073,0H10.4a.638.638,0,0,1,.665.665v17.3a.661.661,0,0,1-.186.466.626.626,0,0,1-.479.2Z" transform="rotate(6.02 -3703.353 1865.91)" fill="#fff"/></g></svg><svg height="163.576" viewBox="0 0 200 164" width="199.146" x="4" y="2235"><g transform="translate(-994.349 -284.103)"><ellipse cx="73.639" cy="73.297" rx="73.639" ry="73.297" transform="translate(1023.994 284.104)" fill="#e0f2ff"/><path d="M53.116,72.086a18.97,18.97,0,1,1,18.97-18.97,18.97,18.97,0,0,1-18.97,18.97M53.116,0A53.116,53.116,0,0,0,0,53.116C0,92.953,53.116,151.76,53.116,151.76s53.116-58.807,53.116-98.644A53.116,53.116,0,0,0,53.116,0Z" transform="rotate(-7 2925.537 -7980.206)" fill="#fd9500"/><path d="M80.015,3H34.883L3,34.883V80.015L34.883,111.9H80.015L111.9,80.015V34.883Z" transform="rotate(6 -2371.825 10480.56)" fill="#498ef4"/><path d="M13.408,32.424a1.738,1.738,0,0,1-1.212-.476,1.622,1.622,0,0,1-.52-1.256V27.921A15.027,15.027,0,0,1,13.538,21.9a26.841,26.841,0,0,1,3.551-4.849q2.035-2.208,4.07-4.2a32.252,32.252,0,0,0,3.464-3.94,8.578,8.578,0,0,0,1.689-4.027,5.939,5.939,0,0,0-1-4.243A7.924,7.924,0,0,0,21.938-2a11.2,11.2,0,0,0-4.46-.909A10.649,10.649,0,0,0,10.81-.916q-2.6,1.992-3.551,6.408a2.678,2.678,0,0,1-.866,1.515,2.594,2.594,0,0,1-1.645.476H-2.613a1.832,1.832,0,0,1-1.342-.563,2.048,2.048,0,0,1-.563-1.515,16.709,16.709,0,0,1,1.6-6.711A18.106,18.106,0,0,1,1.5-7.151a21.459,21.459,0,0,1,7.058-4.113,27.716,27.716,0,0,1,9.526-1.515A28.315,28.315,0,0,1,28-11.265a17.432,17.432,0,0,1,6.408,3.94,14.793,14.793,0,0,1,3.421,5.239,14.45,14.45,0,0,1,.953,5.5A14.76,14.76,0,0,1,37.309,9.3a23.243,23.243,0,0,1-3.2,4.806q-1.905,2.208-3.9,4.33A38.754,38.754,0,0,0,26.7,22.725a12.532,12.532,0,0,0-2.035,4.59,15.152,15.152,0,0,0-.26,1.515q-.087.736-.173,1.429a4.388,4.388,0,0,1-.866,1.6,1.9,1.9,0,0,1-1.472.563Zm-.26,16.28a2.07,2.07,0,0,1-2.078-2.078V39.092a2.11,2.11,0,0,1,.606-1.559,2,2,0,0,1,1.472-.606h8.4a2.076,2.076,0,0,1,2.165,2.165v7.534a2,2,0,0,1-.606,1.472,2.11,2.11,0,0,1-1.559.606Z" transform="rotate(6 -2768.708 10845.387)" fill="#fff"/></g></svg><svg height="167.151" viewBox="0 0 193 168" width="192.486" x="4" y="2403"><g transform="translate(-858 -2978.04)"><ellipse cx="63.312" cy="63.018" rx="63.312" ry="63.018" transform="translate(887.648 2998.598)" fill="#e0f2ff"/><path d="M51.334,69.668A18.334,18.334,0,1,1,69.668,51.334,18.334,18.334,0,0,1,51.334,69.668M51.334,0A51.334,51.334,0,0,0,0,51.334c0,38.5,51.334,95.335,51.334,95.335s51.334-56.835,51.334-95.335A51.334,51.334,0,0,0,51.334,0Z" transform="rotate(14 -11652.528 5354.058)" fill="#fd9500"/><path d="M44.173,0H4.908A4.9,4.9,0,0,0,.025,4.908L0,34.357a4.923,4.923,0,0,0,4.908,4.908H44.173a4.923,4.923,0,0,0,4.908-4.908V4.908A4.923,4.923,0,0,0,44.173,0Zm0,9.816L24.541,22.087,4.908,9.816V4.908l19.633,12.27L44.173,4.908Z" transform="rotate(6.02 -28708.69 11050.33)" fill="#498ef4"/><path d="M12.609,43.23H43.23L55.839,25.217,43.23,7.205H12.609L25.218,25.217,12.609,43.23m30.621,7.2H0L16.211,25.217,0,0H43.23a7,7,0,0,1,5.908,3.1L64.845,25.217,49.138,47.337A7,7,0,0,1,43.23,50.435Z" transform="rotate(-12.04 14993.853 -2539.112)" fill="#498ef4"/></g></svg><svg height="190.767" viewBox="0 0 191 191" width="190.767" x="4" y="2575"><path d="M0,108.034,13.1,76.388,0,44.741l31.646-13.1L44.741,0,76.388,13.1,108.034,0l13.1,31.646,31.646,13.1-13.1,31.646,13.1,31.646-31.646,13.095-13.095,31.646-31.646-13.1L44.741,152.775l-13.1-31.646Z" transform="rotate(-17 149.437 22.334)" fill="#e0f2ff"/><path d="M37.053,98.173a42.558,42.558,0,0,1-16.5-2.863A29.7,29.7,0,0,1,9.374,87.4,33.8,33.8,0,0,1,2.829,75.743,54.3,54.3,0,0,1,.239,61.631Q.1,57.949.034,53.518t0-8.931q.068-4.5.2-8.317A47.656,47.656,0,0,1,2.829,22.157,33.531,33.531,0,0,1,9.579,10.635,31.111,31.111,0,0,1,20.828,2.863,41.76,41.76,0,0,1,37.053,0,42.158,42.158,0,0,1,53.415,2.863a31.111,31.111,0,0,1,11.249,7.772,32.68,32.68,0,0,1,6.681,11.522,49.129,49.129,0,0,1,2.522,14.112q.273,3.818.273,8.317v8.931q0,4.431-.273,8.113a50.71,50.71,0,0,1-2.454,14.112A33.8,33.8,0,0,1,64.869,87.4,29.6,29.6,0,0,1,53.62,95.309,43.078,43.078,0,0,1,37.053,98.173Zm0-15.68q8.863,0,13.022-5.795t4.3-15.749q.273-3.954.273-7.977V44.859q0-4.091-.273-7.772-.136-9.681-4.3-15.612T37.053,15.544q-8.726,0-12.885,5.931T19.737,37.087q0,3.681-.068,7.772t0,8.113q.068,4.022.068,7.977.273,9.954,4.5,15.749T37.053,82.492Z" transform="rotate(-12.04 207.828 -290.735)" fill="#498ef4"/><path d="M53.894,23.507V5L86.281,37.387,53.894,69.774V50.8C30.76,50.8,14.567,58.207,3,74.4,7.627,51.267,21.507,28.134,53.894,23.507Z" transform="rotate(-10.02 462.499 39.163)" fill="#fd9500"/></svg><svg height="165.805" viewBox="0 0 190 166" width="189.454" x="4" y="2770"><g transform="translate(.385 -7.083)"><ellipse cx="83.204" cy="82.902" rx="83.204" ry="82.902" transform="translate(10.64 7.083)" fill="#e0f2ff"/><path d="M50.845,0H8.474A8.463,8.463,0,0,0,.042,8.474L0,76.268,29.66,63.557l29.66,12.711V8.474A8.5,8.5,0,0,0,50.845,0Zm0,63.557L29.66,54.32,8.474,63.557V8.474H50.845Z" transform="rotate(-11 321.573 32.982)" fill="#498ef4"/><path d="M51.269,0H8.545a8.533,8.533,0,0,0-8.5,8.545L0,76.9,29.907,64.086,59.814,76.9V8.545A8.57,8.57,0,0,0,51.269,0Z" transform="rotate(9 -263.37 851.69)" fill="#498ef4"/><path d="M16.964,25.952v9.976L2,20.964,16.964,6v9.976H36.917V6L51.881,20.964,36.917,35.929V25.952Z" transform="translate(67.315 59.335)" fill="#fd9500"/></g></svg><svg height="123.574" viewBox="0 0 188 124" width="187.549" x="4" y="2940"><g transform="translate(-900 -415.068)"><circle cx="38.391" cy="38.391" r="38.391" transform="translate(900 436.362)" fill="#e0f2ff"/><path d="M71.829,8.979a8.979,8.979,0,0,1,8.979,8.979v62.85a8.979,8.979,0,0,1-8.979,8.979H8.979A8.979,8.979,0,0,1,0,80.808V17.957A8.979,8.979,0,0,1,8.979,8.979H27.744a13.414,13.414,0,0,1,25.32,0H71.829m-31.425,0a4.489,4.489,0,1,0,4.489,4.489A4.489,4.489,0,0,0,40.4,8.979M17.957,26.936V17.957H8.979v62.85h62.85V17.957H62.85v8.979H17.957M40.4,35.914a8.979,8.979,0,1,1-8.979,8.979A8.979,8.979,0,0,1,40.4,35.914M22.447,71.829V67.34c0-4.938,8.036-8.979,17.957-8.979S58.361,62.4,58.361,67.34v4.489Z" transform="rotate(4.01 -5447.03 13775.437)" fill="#5d9cfa"/><path d="M5,0H26.519a0,0,0,0,1,0,0V17.679a0,0,0,0,1,0,0H5a5,5,0,0,1-5-5V5A5,5,0,0,1,5,0Z" fill="#e52929" transform="matrix(.998 -.07 .07 .998 949.871 521.006)"/><path d="M5,0H26.519a0,0,0,0,1,0,0V17.679a0,0,0,0,1,0,0H5a5,5,0,0,1-5-5V5A5,5,0,0,1,5,0Z" transform="matrix(-.998 .07 -.07 -.998 1075.497 529.925)" fill="#e0f2ff"/><path transform="rotate(-4.01 7892.19 -13759.44)" fill="#e0f2ff" d="M0 0H26.519V17.679H0z"/><path transform="rotate(-4.01 7875.837 -14226.32)" fill="#e0f2ff" d="M0 0H26.519V17.679H0z"/><path d="M37.735,37.735H30.188V15.094h7.547M30.188,45.283h7.547V52.83H30.188M48.037,0H19.887L0,19.887V48.037L19.887,67.924H48.037L67.924,48.037V19.887Z" transform="rotate(-13 2451.903 -4193.107)" fill="#fd9500"/></g></svg><svg height="175.573" viewBox="0 0 184 176" width="183.146" x="4" y="3068"><g transform="translate(9.577 -9.988)"><path d="M0,103.521,12.548,73.2,0,42.873,30.324,30.324,42.872,0,73.2,12.548,103.521,0l12.548,30.324,30.324,12.548L133.846,73.2l12.548,30.324L116.069,116.07l-12.548,30.324L73.2,133.846,42.872,146.394,30.324,116.07Z" transform="rotate(-13 183.514 63.485)" fill="#e0f2ff"/><path d="M41.926,111.082q-10.954,0-18.668-3.24a33.6,33.6,0,0,1-12.651-8.948A38.248,38.248,0,0,1,3.2,85.7,61.436,61.436,0,0,1,.27,69.735q-.154-4.166-.231-9.18t0-10.105q.077-5.091.231-9.411A53.922,53.922,0,0,1,3.2,25.071a37.94,37.94,0,0,1,7.637-13.037A35.2,35.2,0,0,1,23.566,3.24,47.252,47.252,0,0,1,41.926,0,47.7,47.7,0,0,1,60.439,3.24a35.2,35.2,0,0,1,12.728,8.794,36.977,36.977,0,0,1,7.56,13.037,55.59,55.59,0,0,1,2.854,15.968q.309,4.32.309,9.411V60.555q0,5.014-.309,9.18A57.378,57.378,0,0,1,80.8,85.7,38.248,38.248,0,0,1,73.4,98.894a33.492,33.492,0,0,1-12.728,8.948Q52.88,111.082,41.926,111.082Zm0-17.742q10.028,0,14.734-6.557t4.86-17.819q.309-4.474.309-9.025v-9.18q0-4.628-.309-8.794Q61.365,31.01,56.659,24.3T41.926,17.588q-9.874,0-14.579,6.711T22.332,41.964q0,4.166-.077,8.794t0,9.18q.077,4.551.077,9.025.309,11.262,5.091,17.819T41.926,93.34Z" transform="rotate(12.04 -105.362 129.437)" fill="#498ef4"/><rect width="71" height="22" rx="11" transform="translate(90 114.57)" fill="#88c077"/><rect width="58" height="22" rx="11" transform="translate(90 84.57)" fill="#ec5b73"/><rect width="83.569" height="22.434" rx="11.217" transform="translate(90 54.197)" fill="#ffee6c"/></g></svg><svg height="37.687" viewBox="0 0 180 38" width="180" x="4" y="3248"><g id="Сгруппировать_2160" data-name="Сгруппировать 2160" transform="translate(-1427.573 -452.92)" fill="#fff"><path id="Контур_3" data-name="Контур 3" d="M1433.222,484.731a8.736,8.736,0,0,1-2.049-6.2V466.989h-3.6v-4.8h3.6v-7.2h6.3v7.2h5.749v4.8h-5.749v10.747a4.979,4.979,0,0,0,.847,3.271,3.983,3.983,0,0,0,3.1.975,7.081,7.081,0,0,0,3.046-.7v4.8a14.29,14.29,0,0,1-5.246.847A7.8,7.8,0,0,1,1433.222,484.731Z" transform="translate(0 3.677)"/><path id="Контур_4" data-name="Контур 4" d="M1437.4,480.531a7.537,7.537,0,0,1-2.752-6.123,7.825,7.825,0,0,1,2.6-6.248q2.6-2.249,7.3-2.252a15.819,15.819,0,0,1,7.845,1.849v-.647a4.266,4.266,0,0,0-1.572-3.7q-1.574-1.154-5.073-1.15a22.608,22.608,0,0,0-4.352.422,17.253,17.253,0,0,0-3.8,1.178v-4.949a16.49,16.49,0,0,1,4.021-1.15,27.55,27.55,0,0,1,4.874-.45q6.248,0,9.247,2.671a9.431,9.431,0,0,1,3,7.423v14.649h-5.946V479.7a10.856,10.856,0,0,1-3.527,2.3,12.809,12.809,0,0,1-4.821.8A10.683,10.683,0,0,1,1437.4,480.531Zm12.4-3.152a6.093,6.093,0,0,0,2.6-2.271v-2.649a10.615,10.615,0,0,0-6.3-1.952q-5.049,0-5.052,3.9a3.317,3.317,0,0,0,1.275,2.847,6.061,6.061,0,0,0,3.674.95A8.61,8.61,0,0,0,1449.8,477.379Z" transform="translate(12.57 7.805)"/><path id="Контур_5" data-name="Контур 5" d="M1445.394,452.92h6.3v36.94h-6.3Z" transform="translate(31.668)"/><path id="Контур_6" data-name="Контур 6" d="M1453.36,479.453q-3.9-3.349-3.9-9.344,0-5.9,3.448-9.347t9.848-3.449a14.957,14.957,0,0,1,7.173,1.6,10.673,10.673,0,0,1,4.473,4.374,13.078,13.078,0,0,1,1.5,6.32v2.9h-20.445q.646,5.348,9.3,5.348a28.281,28.281,0,0,0,4.7-.4,21.126,21.126,0,0,0,4.2-1.1V481.2a20.43,20.43,0,0,1-4.374,1.15,31.783,31.783,0,0,1-5.324.45Q1457.258,482.8,1453.36,479.453Zm16.6-11.247a5.6,5.6,0,0,0-2.024-4.4,8.186,8.186,0,0,0-5.274-1.547,7.8,7.8,0,0,0-5.2,1.6,5.672,5.672,0,0,0-2,4.346Z" transform="translate(38.895 7.805)"/><path id="Контур_7" data-name="Контур 7" d="M1460.783,458.059h6.1v3.249a10.4,10.4,0,0,1,4.049-3.024,12.834,12.834,0,0,1,4.949-.972q4.849,0,7.248,2.624a9.931,9.931,0,0,1,2.4,6.973v15.146h-6.3V467.506q0-5.245-4.9-5.246a8.4,8.4,0,0,0-4.048,1.025,8.63,8.63,0,0,0-3.2,3.071v15.7h-6.3Z" transform="translate(59.014 7.805)"/><path id="Контур_8" data-name="Контур 8" d="M1476.692,484.731a8.736,8.736,0,0,1-2.05-6.2V466.989h-3.6v-4.8h3.6v-7.2h6.3v7.2h5.751v4.8h-5.751v10.747a4.974,4.974,0,0,0,.853,3.271,3.976,3.976,0,0,0,3.1.975,7.111,7.111,0,0,0,3.049-.7v4.8a14.335,14.335,0,0,1-5.248.847A7.787,7.787,0,0,1,1476.692,484.731Z" transform="translate(77.246 3.677)"/><path id="Контур_9" data-name="Контур 9" d="M1479.771,459.579a3.338,3.338,0,0,1-1.025-2.5,3.5,3.5,0,0,1,3.549-3.552,3.514,3.514,0,0,1,2.549,1.025,3.391,3.391,0,0,1,1.05,2.527,3.3,3.3,0,0,1-1.05,2.5,3.561,3.561,0,0,1-2.549,1A3.474,3.474,0,0,1,1479.771,459.579Zm-.675,5.2h6.4v24h-6.4Z" transform="translate(90.935 1.086)"/><path id="Контур_10" data-name="Контур 10" d="M1483.48,458.059h6.1v3.249a10.393,10.393,0,0,1,4.049-3.024,12.831,12.831,0,0,1,4.948-.972q4.849,0,7.248,2.624a9.922,9.922,0,0,1,2.4,6.973v15.146h-6.3V467.506q0-5.245-4.9-5.246a8.4,8.4,0,0,0-4.049,1.025,8.653,8.653,0,0,0-3.2,3.071v15.7h-6.3Z" transform="translate(99.347 7.805)"/></g></svg><svg height="93.677" viewBox="0 0 170 94" width="169.817" x="4" y="3290"><g transform="translate(-861.358 -579.745)"><ellipse cx="41.967" cy="41.669" rx="41.967" ry="41.669" transform="translate(923.164 584.916)" fill="#e0f2ff"/><ellipse cx="33.967" cy="33.669" rx="33.967" ry="33.669" transform="translate(871.806 602.477)" fill="#e0f2ff"/><path d="M40.406,0A20.2,20.2,0,1,1,20.2,20.2,20.2,20.2,0,0,1,40.406,0m20.2,53.234c0,5.354-1.414,17.829-11.061,31.769L45.456,60.608l4.748-9.5a87.228,87.228,0,0,0-9.8-.606,87.228,87.228,0,0,0-9.8.606l4.748,9.5L31.264,85C21.617,71.063,20.2,58.588,20.2,53.234,8.132,56.77,0,63.134,0,70.71l7.125,20.2H74.46l6.352-20.2C80.811,63.134,72.73,56.77,60.608,53.234Z" transform="rotate(-2 17143.978 -25855.082)" fill="#5d9cfa"/><path d="M28.937,0C13.022,0,0,10.359,0,23.15S13.022,46.3,28.937,46.3a36.607,36.607,0,0,0,10.215-1.447,31.636,31.636,0,0,0,18.722,7.234c-6.742-6.742-7.813-11.285-7.958-13.022,4.919-4.138,7.958-9.752,7.958-15.915C57.874,10.359,44.852,0,28.937,0M14.468,26.043V20.256h5.787v5.787H14.468m11.575,0V20.256h5.787v5.787H26.043m11.575,0V20.256h5.787v5.787Z" transform="rotate(5 -6234.487 10207.257)" fill="#fd9500"/><path d="M31.273,23.455h5.212a13.03,13.03,0,0,0-13.03-13.03v5.212a7.818,7.818,0,0,1,7.818,7.818m10.424,0H46.91A23.407,23.407,0,0,0,23.455,0V5.212A18.246,18.246,0,0,1,41.7,23.455M44.3,32.576A29.606,29.606,0,0,1,35,31.091a2.615,2.615,0,0,0-2.658.652l-5.733,5.733A39.344,39.344,0,0,1,9.434,20.3l5.733-5.733a2.615,2.615,0,0,0,.652-2.658,29.606,29.606,0,0,1-1.485-9.3A2.606,2.606,0,0,0,11.727,0H2.606A2.606,2.606,0,0,0,0,2.606a44.3,44.3,0,0,0,44.3,44.3A2.606,2.606,0,0,0,46.91,44.3V35.182A2.606,2.606,0,0,0,44.3,32.576Z" transform="rotate(-90 820.927 -163.339)" fill="#fd9500"/></g></svg><svg height="164.352" viewBox="0 0 165 165" width="164.352" x="4" y="3388"><path d="M0,110.585,13.4,78.191,0,45.8l32.393-13.4L45.8,0,78.191,13.4,110.584,0l13.4,32.393,32.393,13.4-13.4,32.393,13.4,32.393-32.393,13.4-13.4,32.393-32.393-13.4L45.8,156.382l-13.4-32.393Z" transform="rotate(93 78.293 82.075)" fill="#e0f2ff"/><path d="M11.943,0A11.939,11.939,0,0,0,0,11.943v83.6a11.943,11.943,0,0,0,11.943,11.942h83.6A11.943,11.943,0,0,0,107.483,95.54V81.926a11.947,11.947,0,0,0,5.971-10.271V35.828a11.947,11.947,0,0,0-5.971-10.271V11.943A11.943,11.943,0,0,0,95.54,0h-83.6m0,11.943h83.6V23.885H59.713A11.943,11.943,0,0,0,47.77,35.828V71.655A11.943,11.943,0,0,0,59.713,83.6H95.54V95.54h-83.6v-83.6m47.77,23.885h41.8V71.655h-41.8V35.828m17.914,8.957a8.957,8.957,0,1,0,8.957,8.957A8.957,8.957,0,0,0,77.626,44.784Z" transform="rotate(-175.99 61.704 69.477)" fill="#fd9500"/><g transform="rotate(2 -96.046 2221.14)"><ellipse cx="37.325" cy="37.198" rx="37.325" ry="37.198" transform="rotate(9 5.819 73.937)" fill="#5d9cfa"/><path d="M16.416,43.493a18.855,18.855,0,0,1-7.309-1.269,13.157,13.157,0,0,1-4.953-3.5,14.976,14.976,0,0,1-2.9-5.165A24.055,24.055,0,0,1,.106,27.3Q.045,25.673.015,23.71t0-3.957q.03-1.993.091-3.685A21.113,21.113,0,0,1,1.253,9.816a14.855,14.855,0,0,1,2.99-5.1A13.783,13.783,0,0,1,9.227,1.269,18.5,18.5,0,0,1,16.416,0a18.677,18.677,0,0,1,7.249,1.269,13.783,13.783,0,0,1,4.984,3.443,14.478,14.478,0,0,1,2.96,5.1,21.766,21.766,0,0,1,1.118,6.252q.121,1.691.121,3.685V23.71q0,1.963-.121,3.594a22.466,22.466,0,0,1-1.087,6.252,14.976,14.976,0,0,1-2.9,5.165,13.114,13.114,0,0,1-4.984,3.5A19.085,19.085,0,0,1,16.416,43.493Zm0-6.947q3.926,0,5.769-2.567A12.048,12.048,0,0,0,24.088,27q.121-1.752.121-3.534V19.874q0-1.812-.121-3.443a12.118,12.118,0,0,0-1.9-6.917q-1.842-2.628-5.769-2.628a6.493,6.493,0,0,0-5.709,2.628,12.443,12.443,0,0,0-1.963,6.917q0,1.631-.03,3.443t0,3.594q.03,1.782.03,3.534a12.2,12.2,0,0,0,1.993,6.977A6.567,6.567,0,0,0,16.416,36.547Z" transform="rotate(8 -119.332 224.026)" fill="#fff"/></g></svg><svg height="163.655" viewBox="0 0 160 164" width="159.19" x="4" y="3557"><g transform="translate(-746 -281)"><path d="M0,104.536,12.671,73.915,0,43.293,30.622,30.622,43.293,0,73.915,12.671,104.536,0l12.671,30.622,30.622,12.671L135.158,73.915l12.671,30.622-30.622,12.671-12.671,30.622L73.915,135.158,43.293,147.829,30.622,117.207Z" transform="translate(746 296.826)" fill="#e0f2ff"/><path d="M11.386,0A11.346,11.346,0,0,0,0,11.386v79.7a11.346,11.346,0,0,0,11.386,11.386h79.7a11.346,11.346,0,0,0,11.386-11.386v-79.7A11.346,11.346,0,0,0,91.087,0h-79.7m0,11.386h79.7v79.7h-79.7v-79.7M22.772,22.772V34.157H79.7V22.772H22.772m0,22.772V56.929H79.7V45.543H22.772m0,22.772V79.7h39.85V68.315Z" transform="matrix(.998 -.07 .07 .998 753.082 312.141)" fill="#fd9500"/><ellipse cx="35.283" cy="35.163" rx="35.283" ry="35.163" transform="rotate(9 -1367.476 5448.466)" fill="#5d9cfa"/><path d="M15.518,41.115a17.823,17.823,0,0,1-6.91-1.2A12.438,12.438,0,0,1,3.926,36.6a14.157,14.157,0,0,1-2.741-4.882A22.739,22.739,0,0,1,.1,25.811q-.057-1.542-.086-3.4t0-3.74Q.043,16.788.1,15.19a19.958,19.958,0,0,1,1.085-5.91A14.043,14.043,0,0,1,4.012,4.454,13.029,13.029,0,0,1,8.723,1.2a17.489,17.489,0,0,1,6.8-1.2A17.656,17.656,0,0,1,22.37,1.2a13.029,13.029,0,0,1,4.711,3.255,13.686,13.686,0,0,1,2.8,4.825,20.575,20.575,0,0,1,1.056,5.91q.114,1.6.114,3.483v3.74q0,1.856-.114,3.4a21.237,21.237,0,0,1-1.028,5.91A14.157,14.157,0,0,1,27.167,36.6a12.4,12.4,0,0,1-4.711,3.312A18.041,18.041,0,0,1,15.518,41.115Zm0-6.567a6.256,6.256,0,0,0,5.453-2.427,11.389,11.389,0,0,0,1.8-6.6q.114-1.656.114-3.341v-3.4q0-1.713-.114-3.255a11.455,11.455,0,0,0-1.8-6.538A6.2,6.2,0,0,0,15.518,6.51a6.138,6.138,0,0,0-5.4,2.484,11.762,11.762,0,0,0-1.856,6.538q0,1.542-.029,3.255t0,3.4q.029,1.685.029,3.341a11.534,11.534,0,0,0,1.884,6.6A6.208,6.208,0,0,0,15.518,34.548Z" transform="rotate(8 -1710.491 6237.983)" fill="#fff"/></g></svg><svg height="138.613" viewBox="0 0 160 139" width="159.164" x="4" y="3725"><g transform="translate(-611.603 -1210.334)"><ellipse cx="63.596" cy="63.3" rx="63.596" ry="63.3" transform="translate(620.935 1222.348)" fill="#e0f2ff"/><path d="M42.426,0A21.213,21.213,0,1,1,21.213,21.213,21.207,21.207,0,0,1,42.426,0M63.639,55.9c0,5.621-1.485,18.72-11.614,33.357l-4.3-25.615,4.985-9.97a91.59,91.59,0,0,0-10.288-.636,91.591,91.591,0,0,0-10.288.636l4.985,9.97-4.3,25.615C22.7,74.617,21.213,61.518,21.213,55.9,8.538,59.608,0,66.29,0,74.245L7.481,95.458h70.7l6.669-21.213C84.852,66.29,76.367,59.608,63.639,55.9Z" transform="rotate(-6.02 12169.385 -5184.465)" fill="#5d9cfa"/><path d="M30.968,0C48,0,61.936,11.087,61.936,24.774S48,49.549,30.968,49.549A39.176,39.176,0,0,1,20.036,48,33.857,33.857,0,0,1,0,55.742c7.216-7.216,8.361-12.078,8.516-13.936C3.252,37.378,0,31.371,0,24.774,0,11.087,13.936,0,30.968,0M46.452,27.871V21.678H40.258v6.194h6.194m-12.387,0V21.678H27.871v6.194h6.194m-12.387,0V21.678H15.484v6.194Z" transform="rotate(24 -2555.76 2299.134)" fill="#fd9500"/><path d="M21.889,37.8A15.912,15.912,0,1,0,5.978,21.889,15.912,15.912,0,0,0,21.889,37.8m0-35.8A19.889,19.889,0,1,1,2,21.889,19.889,19.889,0,0,1,21.889,2m.994,9.945V22.387l8.95,5.31-1.492,2.446L19.9,23.878V11.945Z" transform="translate(670.475 1208.334)" fill="#5d9cfa"/></g></svg><svg height="31.596" viewBox="0 0 150 32" width="150" x="4" y="3868"><g transform="translate(-1427.573 -452.92)" fill="#4c72ef"><path id="Контур_3" data-name="Контур 3" d="M1432.568,481.287a7.724,7.724,0,0,1-1.812-5.478V465.6h-3.183v-4.246h3.183v-6.365h5.571v6.365h5.083V465.6h-5.083v9.5a4.4,4.4,0,0,0,.749,2.893,3.522,3.522,0,0,0,2.743.862,6.263,6.263,0,0,0,2.694-.619v4.245a12.634,12.634,0,0,1-4.639.749A6.9,6.9,0,0,1,1432.568,481.287Z" transform="translate(0 1.284)"/><path id="Контур_4" data-name="Контур 4" d="M1437.081,477.842a6.664,6.664,0,0,1-2.433-5.414,6.919,6.919,0,0,1,2.3-5.525,9.557,9.557,0,0,1,6.455-1.991,13.987,13.987,0,0,1,6.937,1.635v-.572a3.772,3.772,0,0,0-1.39-3.271,7.712,7.712,0,0,0-4.486-1.017,19.986,19.986,0,0,0-3.848.373,15.255,15.255,0,0,0-3.357,1.041v-4.376a14.577,14.577,0,0,1,3.555-1.017,24.365,24.365,0,0,1,4.31-.4q5.525,0,8.177,2.362a8.338,8.338,0,0,1,2.652,6.563V479.19h-5.257v-2.08a9.6,9.6,0,0,1-3.118,2.033,11.326,11.326,0,0,1-4.262.707A9.447,9.447,0,0,1,1437.081,477.842Zm10.962-2.787a5.389,5.389,0,0,0,2.3-2.008V470.7a9.385,9.385,0,0,0-5.566-1.726q-4.464,0-4.467,3.45a2.933,2.933,0,0,0,1.127,2.517,5.359,5.359,0,0,0,3.249.84A7.613,7.613,0,0,0,1448.042,475.055Z" transform="translate(10.296 4.665)"/><path id="Контур_5" data-name="Контур 5" d="M1445.394,452.92h5.566v30.935h-5.566Z" transform="translate(23.72)"/><path id="Контур_6" data-name="Контур 6" d="M1452.908,476.889a10.308,10.308,0,0,1-3.447-8.262,11.169,11.169,0,0,1,3.049-8.265q3.05-3.05,8.707-3.05a13.224,13.224,0,0,1,6.343,1.414,9.435,9.435,0,0,1,3.955,3.867,11.563,11.563,0,0,1,1.326,5.589v2.564h-18.078q.571,4.729,8.221,4.729a25,25,0,0,0,4.155-.354,18.68,18.68,0,0,0,3.712-.97v4.285a18.071,18.071,0,0,1-3.867,1.016,28.106,28.106,0,0,1-4.707.4Q1456.356,479.851,1452.908,476.889Zm14.674-9.945a4.955,4.955,0,0,0-1.79-3.889,7.239,7.239,0,0,0-4.663-1.368,6.9,6.9,0,0,0-4.6,1.414,5.015,5.015,0,0,0-1.768,3.843Z" transform="translate(28.232 4.665)"/><path id="Контур_7" data-name="Контур 7" d="M1460.783,457.973h5.392v2.873a9.2,9.2,0,0,1,3.58-2.674,11.349,11.349,0,0,1,4.376-.859q4.288,0,6.408,2.32a8.781,8.781,0,0,1,2.122,6.166V479.19h-5.569V466.326q0-4.637-4.332-4.638a7.426,7.426,0,0,0-3.579.906,7.629,7.629,0,0,0-2.829,2.716V479.19h-5.569Z" transform="translate(42.896 4.665)"/><path id="Контур_8" data-name="Контур 8" d="M1476.038,481.287a7.725,7.725,0,0,1-1.813-5.478V465.6h-3.182v-4.246h3.182v-6.365h5.567v6.365h5.085V465.6h-5.085v9.5a4.4,4.4,0,0,0,.754,2.893,3.517,3.517,0,0,0,2.74.862,6.288,6.288,0,0,0,2.7-.619v4.245a12.673,12.673,0,0,1-4.641.749A6.885,6.885,0,0,1,1476.038,481.287Z" transform="translate(56.491 1.284)"/><path id="Контур_9" data-name="Контур 9" d="M1479.652,458.583a2.713,2.713,0,0,1-.906-2.085,2.787,2.787,0,0,1,.906-2.111,3.127,3.127,0,0,1,2.232-.856,3.2,3.2,0,0,1,2.254.856,2.756,2.756,0,0,1,.928,2.111,2.683,2.683,0,0,1-.928,2.085,3.251,3.251,0,0,1-2.254.835A3.171,3.171,0,0,1,1479.652,458.583Zm-.6,4.342h5.658v20.041h-5.658Z" transform="translate(66.951 .889)"/><path id="Контур_10" data-name="Контур 10" d="M1483.48,457.973h5.393v2.873a9.189,9.189,0,0,1,3.58-2.674,11.348,11.348,0,0,1,4.376-.859q4.287,0,6.409,2.32a8.773,8.773,0,0,1,2.124,6.166V479.19h-5.572V466.326q0-4.637-4.331-4.638a7.428,7.428,0,0,0-3.581.906,7.652,7.652,0,0,0-2.829,2.716V479.19h-5.569Z" transform="translate(72.212 4.665)"/></g></svg><svg height="23.17" viewBox="0 0 110 24" width="110" x="4" y="3904"><g id="Сгруппировать_2552" data-name="Сгруппировать 2552" transform="translate(-1427.573 -452.92)" fill="#fff"><path id="Контур_3" data-name="Контур 3" d="M1431.046,473.275a5.371,5.371,0,0,1-1.26-3.809v-7.1h-2.213v-2.952h2.213v-4.425h3.874v4.425h3.534v2.952h-3.534v6.607a3.061,3.061,0,0,0,.521,2.011,2.449,2.449,0,0,0,1.907.6,4.355,4.355,0,0,0,1.873-.43v2.952a8.786,8.786,0,0,1-3.225.521A4.8,4.8,0,0,1,1431.046,473.275Z" transform="translate(0 1.463)"/><path id="Контур_4" data-name="Контур 4" d="M1436.339,471.587a4.634,4.634,0,0,1-1.692-3.765,4.811,4.811,0,0,1,1.6-3.842,6.645,6.645,0,0,1,4.489-1.385,9.724,9.724,0,0,1,4.823,1.137v-.4a2.623,2.623,0,0,0-.966-2.274,5.362,5.362,0,0,0-3.119-.707,13.894,13.894,0,0,0-2.675.26,10.608,10.608,0,0,0-2.334.724V458.3a10.134,10.134,0,0,1,2.472-.707,16.94,16.94,0,0,1,3-.277q3.841,0,5.685,1.642a5.8,5.8,0,0,1,1.844,4.564v9.006H1445.8v-1.446a6.676,6.676,0,0,1-2.168,1.414,7.876,7.876,0,0,1-2.964.492A6.568,6.568,0,0,1,1436.339,471.587Zm7.622-1.938a3.745,3.745,0,0,0,1.6-1.4v-1.629a6.525,6.525,0,0,0-3.87-1.2q-3.1,0-3.106,2.4a2.04,2.04,0,0,0,.784,1.75,3.727,3.727,0,0,0,2.259.584A5.293,5.293,0,0,0,1443.961,469.649Z" transform="translate(5.003 3.107)"/><path id="Контур_5" data-name="Контур 5" d="M1445.394,452.92h3.87v22.711h-3.87Z" transform="translate(12.416)"/><path id="Контур_6" data-name="Контур 6" d="M1451.858,470.924a7.168,7.168,0,0,1-2.4-5.745,7.767,7.767,0,0,1,2.12-5.747,8.192,8.192,0,0,1,6.054-2.12,9.2,9.2,0,0,1,4.41.983,6.561,6.561,0,0,1,2.75,2.689,8.04,8.04,0,0,1,.922,3.886v1.782h-12.57q.4,3.288,5.716,3.288a17.387,17.387,0,0,0,2.889-.246,12.989,12.989,0,0,0,2.581-.674V472a12.557,12.557,0,0,1-2.689.707,19.543,19.543,0,0,1-3.273.277A9.659,9.659,0,0,1,1451.858,470.924Zm10.2-6.915a3.445,3.445,0,0,0-1.244-2.7,5.034,5.034,0,0,0-3.242-.951,4.8,4.8,0,0,0-3.2.983,3.487,3.487,0,0,0-1.229,2.672Z" transform="translate(15.218 3.107)"/><path id="Контур_7" data-name="Контур 7" d="M1460.783,457.771h3.749v2a6.394,6.394,0,0,1,2.489-1.859,7.891,7.891,0,0,1,3.043-.6,5.737,5.737,0,0,1,4.456,1.613,6.106,6.106,0,0,1,1.475,4.287v9.312h-3.872V463.58q0-3.224-3.012-3.225a5.164,5.164,0,0,0-2.489.63,5.306,5.306,0,0,0-1.967,1.888v9.652h-3.872Z" transform="translate(23.095 3.107)"/><path id="Контур_8" data-name="Контур 8" d="M1474.516,473.275a5.372,5.372,0,0,1-1.26-3.809v-7.1h-2.212v-2.952h2.212v-4.425h3.871v4.425h3.536v2.952h-3.536v6.607a3.058,3.058,0,0,0,.524,2.011,2.445,2.445,0,0,0,1.905.6,4.372,4.372,0,0,0,1.875-.43v2.952a8.813,8.813,0,0,1-3.227.521A4.787,4.787,0,0,1,1474.516,473.275Z" transform="translate(30.255 1.463)"/><path id="Контур_9" data-name="Контур 9" d="M1479.376,457.25a2.052,2.052,0,0,1-.63-1.535,2.152,2.152,0,0,1,2.182-2.184,2.16,2.16,0,0,1,1.567.63,2.085,2.085,0,0,1,.645,1.554,2.028,2.028,0,0,1-.645,1.535,2.189,2.189,0,0,1-1.567.615A2.137,2.137,0,0,1,1479.376,457.25Zm-.415,3.2h3.934V475.2h-3.934Z" transform="translate(35.649 .432)"/><path id="Контур_10" data-name="Контур 10" d="M1483.48,457.771h3.75v2a6.389,6.389,0,0,1,2.489-1.859,7.89,7.89,0,0,1,3.043-.6,5.739,5.739,0,0,1,4.456,1.613,6.1,6.1,0,0,1,1.477,4.287v9.312h-3.874V463.58q0-3.224-3.011-3.225a5.165,5.165,0,0,0-2.49.63,5.32,5.32,0,0,0-1.967,1.888v9.652h-3.872Z" transform="translate(38.879 3.107)"/></g></svg><svg height="21.122" viewBox="0 0 100 22" width="100" x="4" y="3932"><g id="Сгруппировать_2422" data-name="Сгруппировать 2422" transform="translate(-1427.573 -452.92)" fill="#fff"><path id="Контур_3" data-name="Контур 3" d="M1430.771,471.829a4.947,4.947,0,0,1-1.16-3.508v-6.538h-2.038v-2.719h2.038v-4.076h3.567v4.076h3.255v2.719h-3.255v6.085a2.819,2.819,0,0,0,.48,1.852,2.255,2.255,0,0,0,1.756.552,4.009,4.009,0,0,0,1.725-.4v2.719a8.092,8.092,0,0,1-2.97.48A4.415,4.415,0,0,1,1430.771,471.829Z" transform="translate(0 .968)"/><path id="Контур_4" data-name="Контур 4" d="M1436.205,470.458a4.267,4.267,0,0,1-1.558-3.467,4.43,4.43,0,0,1,1.472-3.538,6.12,6.12,0,0,1,4.134-1.275,8.956,8.956,0,0,1,4.442,1.047v-.366a2.415,2.415,0,0,0-.89-2.094,4.938,4.938,0,0,0-2.873-.651,12.8,12.8,0,0,0-2.464.239,9.774,9.774,0,0,0-2.149.667v-2.8a9.335,9.335,0,0,1,2.277-.651,15.594,15.594,0,0,1,2.759-.255q3.538,0,5.236,1.513a5.34,5.34,0,0,1,1.7,4.2v8.294h-3.366V469.99a6.147,6.147,0,0,1-2,1.3,7.253,7.253,0,0,1-2.729.453A6.049,6.049,0,0,1,1436.205,470.458Zm7.019-1.785a3.449,3.449,0,0,0,1.47-1.286v-1.5a6.01,6.01,0,0,0-3.564-1.105q-2.859,0-2.86,2.209a1.878,1.878,0,0,0,.722,1.612,3.431,3.431,0,0,0,2.08.538A4.875,4.875,0,0,0,1443.225,468.674Z" transform="translate(4.049 2.297)"/><path id="Контур_5" data-name="Контур 5" d="M1445.394,452.92h3.564v20.7h-3.564Z" transform="translate(9.654)"/><path id="Контур_6" data-name="Контур 6" d="M1451.669,469.848a6.6,6.6,0,0,1-2.207-5.291,7.153,7.153,0,0,1,1.952-5.293,7.545,7.545,0,0,1,5.576-1.953,8.469,8.469,0,0,1,4.061.906,6.043,6.043,0,0,1,2.533,2.476,7.4,7.4,0,0,1,.849,3.579v1.641h-11.576q.366,3.028,5.264,3.028a16.014,16.014,0,0,0,2.661-.226,11.961,11.961,0,0,0,2.377-.621v2.744a11.565,11.565,0,0,1-2.476.651,17.989,17.989,0,0,1-3.014.255A8.9,8.9,0,0,1,1451.669,469.848Zm9.4-6.368a3.173,3.173,0,0,0-1.146-2.491,4.635,4.635,0,0,0-2.986-.876,4.419,4.419,0,0,0-2.943.906,3.211,3.211,0,0,0-1.132,2.461Z" transform="translate(11.769 2.297)"/><path id="Контур_7" data-name="Контур 7" d="M1460.783,457.735h3.453v1.84a5.891,5.891,0,0,1,2.292-1.712,7.267,7.267,0,0,1,2.8-.55,5.284,5.284,0,0,1,4.1,1.486,5.623,5.623,0,0,1,1.359,3.948v8.576h-3.566v-8.238q0-2.969-2.774-2.97a4.755,4.755,0,0,0-2.292.58,4.885,4.885,0,0,0-1.812,1.739v8.889h-3.566Z" transform="translate(17.869 2.297)"/><path id="Контур_8" data-name="Контур 8" d="M1474.242,471.829a4.946,4.946,0,0,1-1.161-3.508v-6.538h-2.037v-2.719h2.037v-4.076h3.565v4.076h3.257v2.719h-3.257v6.085a2.817,2.817,0,0,0,.483,1.852,2.251,2.251,0,0,0,1.755.552,4.024,4.024,0,0,0,1.726-.4v2.719a8.115,8.115,0,0,1-2.971.48A4.409,4.409,0,0,1,1474.242,471.829Z" transform="translate(23.461 .968)"/><path id="Контур_9" data-name="Контур 9" d="M1479.326,456.919a1.86,1.86,0,0,1-.58-1.4,1.912,1.912,0,0,1,.58-1.415,1.953,1.953,0,0,1,1.429-.574,2,2,0,0,1,1.443.574,1.889,1.889,0,0,1,.594,1.415,1.838,1.838,0,0,1-.594,1.4,2.028,2.028,0,0,1-1.443.56A1.979,1.979,0,0,1,1479.326,456.919Zm-.382,2.912h3.623V473.27h-3.623Z" transform="translate(27.713 .35)"/><path id="Контур_10" data-name="Контур 10" d="M1483.48,457.735h3.453v1.84a5.885,5.885,0,0,1,2.292-1.712,7.266,7.266,0,0,1,2.8-.55,5.285,5.285,0,0,1,4.1,1.486,5.618,5.618,0,0,1,1.36,3.948v8.576h-3.568v-8.238q0-2.969-2.773-2.97a4.756,4.756,0,0,0-2.293.58,4.9,4.9,0,0,0-1.811,1.739v8.889h-3.566Z" transform="translate(30.082 2.297)"/></g></svg><svg height="26" viewBox="0 0 26 26" width="26" x="4" y="3958"><rect id="Прямоугольник_631" data-name="Прямоугольник 631" width="26" height="26" rx="6" fill="#7b519d"/><g id="Сгруппировать_2331" data-name="Сгруппировать 2331" transform="translate(5.097 4.936)"><g id="Сгруппировать_2335" data-name="Сгруппировать 2335" fill="#fff" fill-rule="evenodd"><path id="Контур_24" data-name="Контур 24" d="M74.761,67.865c-.5-.4-1.034-.764-1.56-1.133-1.049-.737-2.008-.794-2.791.391a1.221,1.221,0,0,1-1.7.4,7.526,7.526,0,0,1-3.946-3.846,1.481,1.481,0,0,1,.48-2.077,1.473,1.473,0,0,0,.847-1.3,8.809,8.809,0,0,0-2.925-3.99,1.483,1.483,0,0,0-1.016,0,2.867,2.867,0,0,0-1.944,4.075A21.149,21.149,0,0,0,71.927,72.16a5.407,5.407,0,0,0,.835.236,3.808,3.808,0,0,0,3.13-2.382C76.3,68.867,75.44,68.412,74.761,67.865ZM68.619,56.879c4.005.616,5.852,2.52,6.362,6.554.047.373-.091.933.44.944.556.011.422-.542.426-.915a7.614,7.614,0,0,0-7.113-7.451c-.29.042-.891-.2-.928.45C67.781,56.9,68.287,56.828,68.619,56.879Z" transform="translate(-59.923 -56)"/><path id="Контур_25" data-name="Контур 25" d="M267.912,102.849c-.385-.046-.894-.228-.984.307-.094.561.473.5.837.586,2.474.553,3.335,1.453,3.742,3.907.059.358-.059.914.549.822.451-.069.288-.546.325-.825A5.045,5.045,0,0,0,267.912,102.849Z" transform="translate(-258.433 -100.865)"/><path id="Контур_26" data-name="Контур 26" d="M281.73,151.406c-.257.006-.51.034-.6.309-.142.411.157.509.461.557a1.8,1.8,0,0,1,1.65,1.773c.027.275.2.5.467.466.368-.044.4-.371.39-.682a2.673,2.673,0,0,0-2.363-2.424Z" transform="translate(-272.024 -147.495)"/></g></g></svg><svg height="20.8" viewBox="0 0 26 21" width="26" x="4" y="3988"><path id="email" d="M25.4,9.2,15,15.7,4.6,9.2V6.6L15,13.1,25.4,6.6m0-2.6H4.6A2.591,2.591,0,0,0,2,6.6V22.2a2.6,2.6,0,0,0,2.6,2.6H25.4A2.6,2.6,0,0,0,28,22.2V6.6A2.6,2.6,0,0,0,25.4,4Z" transform="translate(-2 -4)" fill="#498ef4"/></svg><svg height="25.941" viewBox="0 0 26 26" width="25.941" x="4" y="4013"><path id="Контур_22" data-name="Контур 22" d="M12.97,25.941A12.97,12.97,0,1,0,0,12.97,12.97,12.97,0,0,0,12.97,25.941Z" fill="#34aadf"/><path id="Контур_23" data-name="Контур 23" d="M87.618,151.338s6.485-2.662,8.734-3.6c.862-.375,3.786-1.574,3.786-1.574s1.35-.525,1.237.75c-.038.525-.337,2.362-.637,4.348-.45,2.812-.937,5.885-.937,5.885s-.075.862-.712,1.012a3.083,3.083,0,0,1-1.874-.675c-.15-.112-2.812-1.8-3.786-2.624a.71.71,0,0,1,.037-1.2c1.35-1.237,2.961-2.774,3.936-3.749.45-.45.9-1.5-.975-.225-2.662,1.837-5.286,3.561-5.286,3.561a2.2,2.2,0,0,1-1.724.037c-1.125-.337-2.437-.787-2.437-.787S86.082,151.938,87.618,151.338Z" transform="translate(-82.22 -138.48)" fill="#fff"/></svg><svg height="22.671" viewBox="0 0 26 23" width="25.19" x="4" y="4043"><path d="M12.595,0C19.522,0,25.19,4.509,25.19,10.076S19.522,20.152,12.595,20.152a15.933,15.933,0,0,1-4.446-.63A13.77,13.77,0,0,1,0,22.671C2.935,19.736,3.4,17.759,3.464,17A9.089,9.089,0,0,1,0,10.076C0,4.509,5.668,0,12.595,0m6.3,11.335V8.816H16.373v2.519h2.519m-5.038,0V8.816H11.335v2.519h2.519m-5.038,0V8.816H6.3v2.519Z" fill="#fd9500"/></svg><svg height="24" viewBox="0 0 24 24" width="24" x="4" y="4070"><path d="M 10 17 L 5 12 l 1.41 -1.42 L 10 14.17 l 7.59 -7.59 L 19 8 L 10 17 M 10 17" fill="#5d9cfa"/></svg><svg height="24" viewBox="0 0 24 24" width="24" x="4" y="4098"><path d="M 10 17 L 5 12 l 1.41 -1.42 L 10 14.17 l 7.59 -7.59 L 19 8 L 10 17 M 10 17" fill="#fff"/></svg><svg height="24" viewBox="0 0 24 24" width="24" x="4" y="4126" fill="none"><path d="M23 12C23 5.92486 18.0751 1 12 1C5.92486 1 1 5.92486 1 12C1 17.4904 5.02256 22.0412 10.2812 22.8664V15.1797H7.48828V12H10.2812V9.57656C10.2812 6.81969 11.9235 5.29688 14.4361 5.29688C15.6396 5.29688 16.8984 5.51172 16.8984 5.51172V8.21875H15.5114C14.1449 8.21875 13.7188 9.06665 13.7188 9.93655V12H16.7695L16.2818 15.1797H13.7188V22.8664C18.9775 22.0412 23 17.4904 23 12Z" fill="#1877F2"/><path d="M16.2818 15.1797L16.7695 12H13.7188V9.93655C13.7188 9.06665 14.1449 8.21875 15.5114 8.21875H16.8984V5.51172C16.8984 5.51172 15.6396 5.29688 14.4361 5.29688C11.9235 5.29688 10.2812 6.81969 10.2812 9.57656V12H7.48828V15.1797H10.2812V22.8664C10.8413 22.9542 11.4153 23 12 23C12.5847 23 13.1587 22.9542 13.7188 22.8664V15.1797H16.2818Z" fill="#fff"/></svg><svg height="24" viewBox="0 0 24 24" width="24" x="4" y="4154" fill="none"><g clip-path="url(#clip0_60_24)" fill-rule="evenodd" clip-rule="evenodd"><path d="M5.74113 12C5.74113 11.2855 5.85973 10.6004 6.07165 9.95791L2.3643 7.12695C1.64174 8.59391 1.23474 10.247 1.23474 12C1.23474 13.7515 1.6414 15.4034 2.36276 16.8695L6.06804 14.0331C5.85818 13.3935 5.74113 12.711 5.74113 12Z" fill="#FBBC05"/><path d="M12.2505 5.50003C13.8027 5.50003 15.2046 6.05003 16.3062 6.94997L19.5106 3.75C17.558 2.04998 15.0544 1 12.2505 1C7.89721 1 4.15583 3.48944 2.36438 7.127L6.07155 9.95795C6.92577 7.36505 9.36072 5.50003 12.2505 5.50003Z" fill="#EA4335"/><path d="M12.2505 18.4999C9.3609 18.4999 6.92594 16.6349 6.07172 14.042L2.36438 16.8724C4.15583 20.5105 7.89721 22.9999 12.2505 22.9999C14.9372 22.9999 17.5024 22.0459 19.4276 20.2584L15.9086 17.5379C14.9157 18.1634 13.6653 18.4999 12.2505 18.4999Z" fill="#34A853"/><path d="M22.7652 12.0001C22.7652 11.35 22.665 10.65 22.5147 10.0001H12.2504V14.2501H18.1587C17.8633 15.6992 17.0593 16.8131 15.9086 17.538L19.4275 20.2585C21.4498 18.3816 22.7652 15.5855 22.7652 12.0001Z" fill="#4285F4"/></g><defs><clipPath id="clip0_60_24"><path fill="#fff" transform="translate(1 1)" d="M0 0H22V22H0z"/></clipPath></defs></svg><svg height="20" viewBox="0 0 20 20" width="20" x="4" y="4182"><g fill="#fff" stroke="#bcbcbc"><circle cx="10" cy="10" r="10" stroke="none"/><circle cx="10" cy="10" r="9.5" fill="none"/></g></svg><svg height="20" viewBox="0 0 20 20" width="20" x="4" y="4206"><path d="M12,20a8,8,0,1,1,8-8,8,8,0,0,1-8,8M12,2A10,10,0,1,0,22,12,10,10,0,0,0,12,2m0,5a5,5,0,1,0,5,5,5,5,0,0,0-5-5Z" transform="translate(-2 -2)" fill="#4c72ef"/></svg><svg height="20" viewBox="0 0 25 24" width="20" x="4" y="4230"><g fill="none"><path d="M14.04,5.5a2.086,2.086,0,0,1,3.941,0l1.6,4.6A2.086,2.086,0,0,0,21.5,11.5l4.864.127a2.086,2.086,0,0,1,1.229,3.73l-3.921,3.058a2.086,2.086,0,0,0-.72,2.229l1.393,4.775a2.086,2.086,0,0,1-3.2,2.293l-3.934-2.755a2.086,2.086,0,0,0-2.393,0L10.88,27.71a2.086,2.086,0,0,1-3.2-2.293l1.393-4.775a2.086,2.086,0,0,0-.72-2.229L4.434,15.355a2.086,2.086,0,0,1,1.229-3.73l4.864-.127a2.086,2.086,0,0,0,1.916-1.4Z" transform="translate(-3.627 -4.096)"/><path d="M 16.01066780090332 7.443426132202148 L 14.80413627624512 10.91713523864746 C 14.18145561218262 12.70990371704102 12.48842620849609 13.94757461547852 10.59126663208008 13.99691390991211 L 6.881782531738281 14.09341621398926 L 9.892206192016602 16.44091415405273 C 11.38295555114746 17.60338401794434 12.00407600402832 19.52712440490723 11.47459602355957 21.34186553955078 L 10.41120338439941 24.98650741577148 L 13.38006591796875 22.90751457214355 C 14.15498542785645 22.36485481262207 15.06462669372559 22.07802581787109 16.01066589355469 22.07802581787109 C 16.95670700073242 22.07802581787109 17.86634635925293 22.36485481262207 18.6412467956543 22.90750503540039 L 21.61012268066406 24.98650169372559 L 20.5467357635498 21.34186553955078 C 20.01725578308105 19.52710342407227 20.63838577270508 17.60336494445801 22.12912559509277 16.44091415405273 L 25.13955307006836 14.09341621398926 L 21.43004608154297 13.99691390991211 C 19.53288650512695 13.94754409790039 17.83986663818359 12.70987510681152 17.21718597412109 10.91713523864746 L 16.01066780090332 7.443426132202148 M 16.01066207885742 4.095651626586914 C 16.83366012573242 4.095651626586914 17.65666198730469 4.562849044799805 17.98120498657227 5.497243881225586 L 19.57879638671875 10.09687423706055 C 19.86371612548828 10.91718482971191 20.62700653076172 11.47517395019531 21.49508666992188 11.49776458740234 L 26.35919570922852 11.62430381774902 C 28.31625556945801 11.67522430419922 29.13151550292969 14.15075492858887 27.58769607543945 15.35462379455566 L 23.66644668579102 18.41237449645996 C 22.99253463745117 18.93787384033203 22.70731544494629 19.82126426696777 22.94667625427246 20.64164352416992 L 24.33994674682617 25.41692352294922 C 24.89186668395996 27.30859375 22.7549934387207 28.84023284912109 21.14086532592773 27.70991516113281 L 17.20722579956055 24.95532417297363 C 16.48883438110352 24.4522533416748 15.53250312805176 24.45225524902344 14.81410598754883 24.95532417297363 L 10.88046646118164 27.70991516113281 C 9.266334533691406 28.84023284912109 7.12945556640625 27.30859565734863 7.681385040283203 25.41692352294922 L 9.074655532836914 20.64164352416992 C 9.314016342163086 19.82126426696777 9.028785705566406 18.93787384033203 8.354885101318359 18.41237449645996 L 4.433635711669922 15.35462379455566 C 2.889806747436523 14.15075492858887 3.705076217651367 11.67522430419922 5.662145614624023 11.62430381774902 L 10.5262451171875 11.49776458740234 C 11.39432525634766 11.47518539428711 12.15761566162109 10.91718482971191 12.44253540039062 10.09687423706055 L 14.04012680053711 5.497243881225586 C 14.36466598510742 4.562849044799805 15.18766403198242 4.095651626586914 16.01066207885742 4.095651626586914 Z" fill="#4b689f" transform="translate(-3.627 -4.096)"/></g></svg><svg height="20" viewBox="0 0 25 24" width="20" x="4" y="4254"><g fill="#ffee6c"><path d="M 22.33121681213379 26.84565353393555 C 22.16842651367188 26.84566497802734 22.00917625427246 26.79195404052734 21.85787582397461 26.68600463867188 L 17.92423629760742 23.9314136505127 C 17.36054611206055 23.53667449951172 16.6988353729248 23.32802391052246 16.01066589355469 23.32802391052246 C 15.32250595092773 23.32802391052246 14.66079616546631 23.53667449951172 14.09709548950195 23.9314136505127 L 10.16345596313477 26.68600463867188 C 10.01216602325439 26.79194450378418 9.852895736694336 26.84565353393555 9.690046310424805 26.84565353393555 C 9.429585456848145 26.84565353393555 9.165446281433105 26.70919418334961 9.000705718994141 26.48951530456543 C 8.842995643615723 26.27921485900879 8.802835464477539 26.03613471984863 8.881356239318848 25.76703453063965 L 10.27462577819824 20.99175453186035 C 10.65978622436523 19.67165374755859 10.20796585083008 18.27226448059082 9.12354564666748 17.42664527893066 L 5.202305793762207 14.36889457702637 C 4.783475875854492 14.0422945022583 4.86698579788208 13.6161642074585 4.922336101531982 13.44810485839844 C 4.977675914764404 13.28006458282471 5.163715839385986 12.88770484924316 5.694655895233154 12.87389469146729 L 10.55875587463379 12.74734401702881 C 11.93881607055664 12.71144485473633 13.17037582397461 11.81112480163574 13.62333583831787 10.507004737854 L 15.22092628479004 5.907374382019043 C 15.39701557159424 5.400394439697266 15.83187580108643 5.345664501190186 16.01066589355469 5.345664501190186 C 16.18945503234863 5.345664501190186 16.62431526184082 5.400394439697266 16.80040550231934 5.907374382019043 L 18.39799499511719 10.507004737854 C 18.8509464263916 11.8111047744751 20.08250617980957 12.71142482757568 21.46256637573242 12.74734401702881 L 26.32668495178223 12.87389469146729 C 26.85761642456055 12.88770484924316 27.04366683959961 13.28006458282471 27.09900665283203 13.4481143951416 C 27.15435600280762 13.6161642074585 27.23786544799805 14.0422945022583 26.81903648376465 14.36889457702637 L 22.89778518676758 17.42664527893066 C 21.8133659362793 18.27224540710449 21.36154556274414 19.67164421081543 21.74670600891113 20.99175453186035 L 23.13997650146484 25.76703453063965 C 23.21846580505371 26.03606414794922 23.17830657958984 26.27910423278809 23.02059555053711 26.48941421508789 C 22.85582542419434 26.70914459228516 22.59166526794434 26.84564399719238 22.33121681213379 26.84565353393555 Z" transform="translate(-3.627 -4.096)"/><path d="M 16.01066780090332 7.443426132202148 L 14.80413627624512 10.91713523864746 C 14.18145561218262 12.70990371704102 12.48842620849609 13.94757461547852 10.59126663208008 13.99691390991211 L 6.881782531738281 14.09341621398926 L 9.892206192016602 16.44091415405273 C 11.38295555114746 17.60338401794434 12.00407600402832 19.52712440490723 11.47459602355957 21.34186553955078 L 10.41120338439941 24.98650741577148 L 13.38006591796875 22.90751457214355 C 14.15498542785645 22.36485481262207 15.06462669372559 22.07802581787109 16.01066589355469 22.07802581787109 C 16.95670700073242 22.07802581787109 17.86634635925293 22.36485481262207 18.6412467956543 22.90750503540039 L 21.61012268066406 24.98650169372559 L 20.5467357635498 21.34186553955078 C 20.01725578308105 19.52710342407227 20.63838577270508 17.60336494445801 22.12912559509277 16.44091415405273 L 25.13955307006836 14.09341621398926 L 21.43004608154297 13.99691390991211 C 19.53288650512695 13.94754409790039 17.83986663818359 12.70987510681152 17.21718597412109 10.91713523864746 L 16.01066780090332 7.443426132202148 M 16.01066207885742 4.095651626586914 C 16.83366012573242 4.095651626586914 17.65666198730469 4.562849044799805 17.98120498657227 5.497243881225586 L 19.57879638671875 10.09687423706055 C 19.86371612548828 10.91718482971191 20.62700653076172 11.47517395019531 21.49508666992188 11.49776458740234 L 26.35919570922852 11.62430381774902 C 28.31625556945801 11.67522430419922 29.13151550292969 14.15075492858887 27.58769607543945 15.35462379455566 L 23.66644668579102 18.41237449645996 C 22.99253463745117 18.93787384033203 22.70731544494629 19.82126426696777 22.94667625427246 20.64164352416992 L 24.33994674682617 25.41692352294922 C 24.89186668395996 27.30859375 22.7549934387207 28.84023284912109 21.14086532592773 27.70991516113281 L 17.20722579956055 24.95532417297363 C 16.48883438110352 24.4522533416748 15.53250312805176 24.45225524902344 14.81410598754883 24.95532417297363 L 10.88046646118164 27.70991516113281 C 9.266334533691406 28.84023284912109 7.12945556640625 27.30859565734863 7.681385040283203 25.41692352294922 L 9.074655532836914 20.64164352416992 C 9.314016342163086 19.82126426696777 9.028785705566406 18.93787384033203 8.354885101318359 18.41237449645996 L 4.433635711669922 15.35462379455566 C 2.889806747436523 14.15075492858887 3.705076217651367 11.67522430419922 5.662145614624023 11.62430381774902 L 10.5262451171875 11.49776458740234 C 11.39432525634766 11.47518539428711 12.15761566162109 10.91718482971191 12.44253540039062 10.09687423706055 L 14.04012680053711 5.497243881225586 C 14.36466598510742 4.562849044799805 15.18766403198242 4.095651626586914 16.01066207885742 4.095651626586914 Z" fill="#ffb100" transform="translate(-3.627 -4.096)"/></g></svg><svg height="18.261" viewBox="0 0 18 19" width="18" x="4" y="4278"><path d="M22.827,30.157c-3.678,0-7.857-4.428-7.523-8.1.334-3.509,5.015-6.767,8.484-6.266,3.051.417,5.768,4.261,5.6,7.31C29.222,26.313,26.045,30.157,22.827,30.157Z" transform="translate(-13.575 -13.764)" fill="#fff"/><path d="M22.41,28.452c-.247-.082-.617-.164-.823-.247-.247-.123-.535-.123-1.439-.082a9.265,9.265,0,0,1-1.932-.082,8.687,8.687,0,0,1-6.867-6.249,7.823,7.823,0,0,1-.205-2.426,5.892,5.892,0,0,0-.247-2.385,4.964,4.964,0,0,1,4.687-6.661,5.226,5.226,0,0,1,2.056.452c.329.165.535.205,1.809.205a7.1,7.1,0,0,1,2.179.206,8.684,8.684,0,0,1,5.8,4.687,8.309,8.309,0,0,1,.781,4.6A2.445,2.445,0,0,0,28.33,22a5.039,5.039,0,0,1-1.562,5.469,6.647,6.647,0,0,1-2.1,1.028,5.766,5.766,0,0,1-2.221-.041h-.04ZM21.3,25.286a4.282,4.282,0,0,0,3-2.1,3.163,3.163,0,0,0-.37-3.454c-.658-.74-1.645-1.151-3.988-1.727-1.563-.37-1.933-.535-2.262-.9a.66.66,0,0,1-.082-.946,2.033,2.033,0,0,1,1.686-.7,2.216,2.216,0,0,1,2.426,1.316c.535.823,1.069,1.028,1.769.7.9-.452.822-1.932-.165-2.8a5.248,5.248,0,0,0-3.7-1.11,5.189,5.189,0,0,0-3.865,1.192,2.3,2.3,0,0,0-.781,2.056,2.079,2.079,0,0,0,.822,2.015c.74.7,1.357.946,3.577,1.48,1.563.37,1.974.576,2.344.987a1,1,0,0,1,.247.74.874.874,0,0,1-.37.823,2.792,2.792,0,0,1-2.179.658,2.248,2.248,0,0,1-2.179-1.563c-.411-.781-.74-1.069-1.275-1.069-1.193,0-1.6.987-.987,2.261a4.081,4.081,0,0,0,2.96,2.138,11.855,11.855,0,0,0,3.413,0H21.3Z" transform="translate(-10.589 -10.32)" fill="#00aff0"/></svg><svg height="18" viewBox="0 0 24 24" width="18" x="4" y="4301"><path fill="#4B689F" d="M19,6.41L17.59,5L12,10.59L6.41,5L5,6.41L10.59,12L5,17.59L6.41,19L12,13.41L17.59,19L19,17.59L13.41,12L19,6.41Z"/></svg><svg height="18" viewBox="0 0 24 24" width="18" x="4" y="4323"><path fill="#65779B" d="M12,6.5A2.5,2.5 0 0,1 14.5,9A2.5,2.5 0 0,1 12,11.5A2.5,2.5 0 0,1 9.5,9A2.5,2.5 0 0,1 12,6.5M12,2A7,7 0 0,1 19,9C19,14.25 12,22 12,22C12,22 5,14.25 5,9A7,7 0 0,1 12,2M12,4A5,5 0 0,0 7,9C7,10 7,12 12,18.71C17,12 17,10 17,9A5,5 0 0,0 12,4Z"/></svg><svg height="18" viewBox="0 0 18 18" width="18" x="4" y="4345"><path d="M8.12,12.29a15.149,15.149,0,0,0,6.59,6.59l2.2-2.2a.994.994,0,0,1,1.02-.24,11.407,11.407,0,0,0,3.57.57,1,1,0,0,1,1,1V21.5a1,1,0,0,1-1,1,17,17,0,0,1-17-17,1,1,0,0,1,1-1H9a1,1,0,0,1,1,1,11.36,11.36,0,0,0,.57,3.57,1,1,0,0,1-.25,1.02l-2.2,2.2Z" transform="translate(-4.5 -4.5)" fill="#4b689f"/></svg><svg height="14.4" viewBox="0 0 18 15" width="18" x="4" y="4367"><path d="M19.2,6H4.8A1.8,1.8,0,0,0,3.009,7.8L3,18.6a1.805,1.805,0,0,0,1.8,1.8H19.2A1.805,1.805,0,0,0,21,18.6V7.8A1.805,1.805,0,0,0,19.2,6Zm0,3.6L12,14.1,4.8,9.6V7.8L12,12.3l7.2-4.5Z" transform="translate(-3 -6)" fill="#4c72ef"/></svg><svg height="16" viewBox="0 0 24 24" width="16" x="4" y="4386"><path fill="#2CBA19" d="M23,12L20.56,9.22L20.9,5.54L17.29,4.72L15.4,1.54L12,3L8.6,1.54L6.71,4.72L3.1,5.53L3.44,9.21L1,12L3.44,14.78L3.1,18.47L6.71,19.29L8.6,22.47L12,21L15.4,22.46L17.29,19.28L20.9,18.46L20.56,14.78L23,12M10,17L6,13L7.41,11.59L10,14.17L16.59,7.58L18,9L10,17Z"/></svg><svg height="16" viewBox="0 0 24 24" width="16" x="4" y="4406"><path fill="#65779B" d="M10,2V4.26L12,5.59V4H22V19H17V21H24V2H10M7.5,5L0,10V21H15V10L7.5,5M14,6V6.93L15.61,8H16V6H14M18,6V8H20V6H18M7.5,7.5L13,11V19H10V13H5V19H2V11L7.5,7.5M18,10V12H20V10H18M18,14V16H20V14H18Z"/></svg><svg height="16" viewBox="0 0 24 24" width="16" x="4" y="4426"><path fill="#65779B" d="M12,20A8,8 0 0,0 20,12A8,8 0 0,0 12,4A8,8 0 0,0 4,12A8,8 0 0,0 12,20M12,2A10,10 0 0,1 22,12A10,10 0 0,1 12,22C6.47,22 2,17.5 2,12A10,10 0 0,1 12,2M12.5,7V12.25L17,14.92L16.25,16.15L11,13V7H12.5Z"/></svg><svg height="14.4" viewBox="0 0 16 15" width="16" x="4" y="4446"><path d="M10,3C5.6,3,2,5.864,2,9.4a5.774,5.774,0,0,0,2.2,4.4c0,.48-.336,1.736-2.2,3.6a8.827,8.827,0,0,0,5.176-2A10.206,10.206,0,0,0,10,15.8c4.4,0,8-2.864,8-6.4S14.4,3,10,3m0,11.2c-3.536,0-6.4-2.152-6.4-4.8S6.464,4.6,10,4.6s6.4,2.152,6.4,4.8S13.536,14.2,10,14.2Z" transform="translate(-2 -3)" fill="#4b689f"/></svg><svg height="9.545" viewBox="0 0 16 10" width="16" x="4" y="4465"><path d="M8.5,6.75a7.526,7.526,0,0,0-7,4.773,7.52,7.52,0,0,0,14,0A7.526,7.526,0,0,0,8.5,6.75Zm0,7.955a3.182,3.182,0,1,1,3.182-3.182A3.183,3.183,0,0,1,8.5,14.7Zm0-5.091a1.909,1.909,0,1,0,1.909,1.909A1.907,1.907,0,0,0,8.5,9.614Z" transform="translate(-1.5 -6.75)" fill="#4b689f"/></svg><svg height="14" viewBox="0 0 14 14" width="14" x="4" y="4479"><path d="M6.9,16a.7.7,0,0,1-.7-.7V13.2H3.4A1.4,1.4,0,0,1,2,11.8V3.4A1.4,1.4,0,0,1,3.4,2H14.6A1.4,1.4,0,0,1,16,3.4v8.4a1.4,1.4,0,0,1-1.4,1.4H10.33L7.74,15.8a.713.713,0,0,1-.49.2H6.9m.7-4.2v2.156L9.756,11.8H14.6V3.4H3.4v8.4Z" transform="translate(-2 -2)" fill="#4b689f"/></svg><svg height="14" viewBox="0 0 14 14" width="13.618" x="4" y="4497"><path id="Icon_material-settings" data-name="Icon material-settings" d="M15.418,10.686a4.827,4.827,0,0,0,0-1.372l1.477-1.155a.353.353,0,0,0,.084-.448l-1.4-2.422a.352.352,0,0,0-.427-.154l-1.743.7a5.114,5.114,0,0,0-1.183-.686L11.96,3.294A.341.341,0,0,0,11.617,3h-2.8a.341.341,0,0,0-.343.294L8.208,5.149a5.378,5.378,0,0,0-1.183.686l-1.743-.7a.341.341,0,0,0-.427.154l-1.4,2.422a.345.345,0,0,0,.084.448L5.016,9.314A5.551,5.551,0,0,0,4.967,10a5.551,5.551,0,0,0,.049.686L3.539,11.841a.353.353,0,0,0-.084.448l1.4,2.422a.352.352,0,0,0,.427.154l1.743-.7a5.114,5.114,0,0,0,1.183.686l.266,1.855A.341.341,0,0,0,8.817,17h2.8a.341.341,0,0,0,.343-.294l.266-1.855a5.378,5.378,0,0,0,1.183-.686l1.743.7a.341.341,0,0,0,.427-.154l1.4-2.422a.353.353,0,0,0-.084-.448Zm-5.2,1.764A2.45,2.45,0,1,1,12.667,10,2.453,2.453,0,0,1,10.217,12.45Z" transform="translate(-3.406 -3)" fill="#4b689f"/></svg><svg height="14" viewBox="0 0 13 14" width="12.6" x="4" y="4515"><path id="Icon_material-today" data-name="Icon material-today" d="M15.7,2.9H15V1.5H13.6V2.9H8V1.5H6.6V2.9H5.9A1.394,1.394,0,0,0,4.507,4.3L4.5,14.1a1.4,1.4,0,0,0,1.4,1.4h9.8a1.4,1.4,0,0,0,1.4-1.4V4.3A1.4,1.4,0,0,0,15.7,2.9Zm0,11.2H5.9V6.4h9.8ZM7.3,7.8h3.5v3.5H7.3Z" transform="translate(-4.5 -1.5)" fill="#757575"/></svg><svg height="14" viewBox="0 0 13 14" width="12.091" x="4" y="4533"><path id="Icon_material-content-copy" data-name="Icon material-content-copy" d="M11.909,1.5H4.273A1.276,1.276,0,0,0,3,2.773v8.909H4.273V2.773h7.636Zm1.909,2.545h-7A1.276,1.276,0,0,0,5.545,5.318v8.909A1.276,1.276,0,0,0,6.818,15.5h7a1.276,1.276,0,0,0,1.273-1.273V5.318A1.276,1.276,0,0,0,13.818,4.045Zm0,10.182h-7V5.318h7Z" transform="translate(-3 -1.5)" fill="#4b689f"/></svg><svg height="14" viewBox="0 0 12 14" width="11.529" x="4" y="4551"><path d="M19.029,9.441H15.735V4.5H10.794V9.441H7.5l5.765,5.765ZM7.5,16.853V18.5H19.029V16.853Z" transform="translate(-7.5 -4.5)" fill="#4b689f"/></svg><svg height="14" viewBox="0 0 11 14" width="11" x="4" y="4569"><path id="Icon_material-play-arrow" data-name="Icon material-play-arrow" d="M12,7.5v14l11-7Z" transform="translate(-12 -7.5)" fill="#4b689f"/></svg><svg height="8.4" viewBox="0 0 14 9" width="14" x="4" y="4587"><path id="Icon_material-trending-up" data-name="Icon material-trending-up" d="M12.8,9l1.6,1.6-3.416,3.416-2.8-2.8L3,16.413l.987.987,4.2-4.2,2.8,2.8,4.41-4.4L17,13.2V9Z" transform="translate(-3 -9)" fill="#4b689f"/></svg><svg height="10" viewBox="0 0 14 10" width="13.117" x="4" y="4600"><path id="Icon_material-check" data-name="Icon material-check" d="M9.284,16.275l-3.11-3.11L5.115,14.216l4.169,4.169,8.949-8.949L17.181,8.385Z" transform="translate(-5.115 -8.385)" fill="#76c36e"/></svg><svg height="12" viewBox="0 0 12 12" width="12" x="4" y="4614"><path id="Icon_material-call-made" data-name="Icon material-call-made" d="M10,7.5V9.1h5.272L6,18.372,7.128,19.5,16.4,10.228V15.5H18v-8Z" transform="translate(-6 -7.5)" fill="#4b689f"/></svg><svg height="12" viewBox="0 0 12 12" width="12" x="4" y="4630"><path d="M9,3a6,6,0,1,0,6,6A6,6,0,0,0,9,3ZM9,13.8A4.8,4.8,0,0,1,4.2,9,4.741,4.741,0,0,1,5.214,6.06l6.726,6.726A4.741,4.741,0,0,1,9,13.8Zm3.786-1.86L6.06,5.214A4.741,4.741,0,0,1,9,4.2,4.8,4.8,0,0,1,13.8,9,4.741,4.741,0,0,1,12.786,11.94Z" transform="translate(-3 -3)" fill="#4b689f"/></svg><svg height="12" viewBox="0 0 12 12" width="12" x="4" y="4646"><path id="Icon_material-edit" data-name="Icon material-edit" d="M4.5,14v2.5H7l7.372-7.372-2.5-2.5ZM16.305,7.191a.664.664,0,0,0,0-.94l-1.56-1.56a.664.664,0,0,0-.94,0l-1.22,1.22,2.5,2.5,1.22-1.22Z" transform="translate(-4.5 -4.496)" fill="#4b689f"/></svg><svg height="12" viewBox="0 0 11 12" width="10.286" x="4" y="4662"><path id="Icon_material-pause" data-name="Icon material-pause" d="M9,19.5h3.429V7.5H9Zm6.857-12v12h3.429V7.5Z" transform="translate(-9 -7.5)" fill="#4b689f"/></svg><svg height="12" viewBox="0 0 10 12" width="9.333" x="4" y="4678"><path id="Icon_material-delete" data-name="Icon material-delete" d="M8.167,15.167A1.337,1.337,0,0,0,9.5,16.5h5.333a1.337,1.337,0,0,0,1.333-1.333v-8h-8Zm8.667-10H14.5L13.833,4.5H10.5l-.667.667H7.5V6.5h9.333Z" transform="translate(-7.5 -4.5)" fill="#4b689f"/></svg><svg height="10" viewBox="0 0 9 10" width="8.571" x="4" y="4694"><path id="Icon_material-pause" data-name="Icon material-pause" d="M9,17.5h2.857V7.5H9Zm5.714-10v10h2.857V7.5Z" transform="translate(-9 -7.5)" fill="#4b689f"/></svg><svg height="10" viewBox="0 0 7 10" width="6.175" x="4" y="4708"><path id="Icon_material-keyboard-arrow-right" data-name="Icon material-keyboard-arrow-right" d="M12.885,17.45,16.7,13.625,12.885,9.8,14.06,8.625l5,5-5,5Z" transform="translate(-12.885 -8.625)" fill="#4b689f"/></svg><svg height="6.175" viewBox="0 0 10 7" width="10" x="4" y="4722"><path id="Icon_material-keyboard-arrow-up" data-name="Icon material-keyboard-arrow-up" d="M1.175,6.175,5,2.358,8.825,6.175,10,5,5,0,0,5Z" transform="rotate(180 5 3.088)" fill="#757575"/></svg></svg>