<svg xmlns="http://www.w3.org/2000/svg" width="211" height="27" fill="none"><g clip-path="url(#A)"><path d="M9.668 13.201a2.98 2.98 0 0 0 .997-.896c.434-.598.643-1.323.643-2.191 0-.704-.173-1.38-.52-2.041-.347-.654-.867-1.202-1.583-1.622-.708-.42-1.619-.64-2.717-.64H0v15.598h7.147c1.077 0 1.98-.192 2.71-.583s1.279-.932 1.648-1.629.556-1.508.556-2.432a3.87 3.87 0 0 0-.802-2.418c-.398-.526-.932-.917-1.597-1.174v.021l.007.007zm-6.9-4.929h3.678c.65 0 1.163.178 1.517.541a1.84 1.84 0 0 1 .549 1.351c0 .413-.087.761-.267 1.039a1.73 1.73 0 0 1-.737.64 2.5 2.5 0 0 1-1.062.22H2.768V8.272zm6.222 9.645c-.217.334-.513.59-.889.782-.383.192-.809.277-1.279.277H2.768V14.51h4.119c.513 0 .939.092 1.308.299a2.04 2.04 0 0 1 .831.804 2.24 2.24 0 0 1 .282 1.124 2.23 2.23 0 0 1-.318 1.202v-.021zm13.642-2.169c0 .704-.08 1.295-.253 1.75s-.39.832-.672 1.088a2.63 2.63 0 0 1-.932.562c-.34.107-.686.164-1.033.164-.65 0-1.171-.135-1.554-.398a2.55 2.55 0 0 1-.86-1.017c-.188-.42-.318-.846-.369-1.295l-.079-1.216V9.752h-2.768v6.53a9.99 9.99 0 0 0 .072 1.095c.051.448.159.932.318 1.437a4.77 4.77 0 0 0 .773 1.43c.347.448.817.818 1.409 1.103s1.337.441 2.247.441c1.149 0 2.117-.235 2.912-.726a4.71 4.71 0 0 0 1.098-.925v1.309h2.421V9.737H22.61v6.01h.007.014zm8.91-10.186h-2.739v2.39h2.739v-2.39zm0 4.175h-2.739v11.7h2.739v-11.7zm6.366-4.232h-2.739v15.918h2.739V5.505zm11.504 4.801l-.123-.092c-.788-.533-1.77-.811-2.941-.811s-2.168.27-3.021.811a5.3 5.3 0 0 0-1.98 2.198c-.47.925-.701 1.985-.701 3.172s.231 2.219.687 3.151c.462.932 1.113 1.664 1.958 2.212.853.541 1.828.811 2.963.811 1.2 0 2.197-.27 3.013-.811a5.15 5.15 0 0 0 .491-.384v.868h2.421V5.832h-2.76v4.481h-.007v-.007zm.022 7.283c-.209.583-.542 1.031-.99 1.351-.448.327-1.041.484-1.778.484s-1.301-.171-1.763-.505a3.05 3.05 0 0 1-1.033-1.38c-.217-.583-.34-1.23-.34-1.942s.108-1.351.34-1.935.578-1.046 1.062-1.394c.477-.341 1.077-.512 1.821-.512s1.272.164 1.713.484.759.775.968 1.344.311 1.245.311 2.013-.101 1.43-.311 1.999v-.007zm25.384-7.901c-.39.028-.759.092-1.127.206a4.64 4.64 0 0 0-1.012.455c-.361.206-.658.476-.918.804-.123.142-.217.306-.311.469V9.744h-2.42v11.7h2.753v-5.946c0-.448.058-.868.173-1.245a2.93 2.93 0 0 1 .528-1.038 2.59 2.59 0 0 1 .932-.74 3.08 3.08 0 0 1 1.279-.384c.47-.036.889 0 1.257.092v-2.44c-.361-.057-.737-.078-1.12-.05h-.007l-.007-.007z" fill="#000"/><path d="M62.31 7.155h-1.062v8.763h1.062V7.155z" fill="#ff8155"/><path d="M65.302 16.409c-.723-.761-1.691-1.287-2.919-1.593-1.171-.284-2.262-.284-3.288 0-1.019.285-1.908.832-2.652 1.622-.737.79-1.279 1.807-1.611 3.051-.311 1.145-.318 2.219-.051 3.229s.802 1.871 1.582 2.582 1.77 1.216 2.97 1.515c1.149.277 2.269.249 3.367-.085a5.53 5.53 0 0 0 2.753-1.871l-2.421-1.394c-.398.469-.867.768-1.424.932-.549.164-1.149.164-1.799 0-1.012-.249-1.698-.754-2.059-1.508-.282-.59-.347-1.316-.217-2.141l5.969 1.458 1.33.327 1.301.313c.47-1.337.621-2.553.47-3.649-.152-1.102-.578-2.027-1.301-2.788zm-3.411.647c.961.235 1.59.683 1.893 1.366.209.477.26 1.102.159 1.857l-5.831-1.423c.303-.619.658-1.102 1.113-1.437.701-.512 1.59-.64 2.681-.37h-.007l-.007.007z" fill="#000"/><path d="M63.192 8.471h-2.76c0-1.451-1.228-2.632-2.76-2.632h-8.266c-1.518 0-2.76 1.174-2.76 2.632h-2.753V3.215h2.753v.704c.809-.448 1.749-.704 2.76-.704h8.267c.997 0 1.951.256 2.76.704.838.455 1.532 1.124 2.023 1.928.47.768.737 1.664.737 2.632v-.007z" fill="#8080ff"/><path d="M46.651 3.208v.334l2.76-2.02v1.679h2.753V1.117l5.21 2.098h.303c.621 0 1.221.114 1.778.299a.25.25 0 0 1 .072.007L50.821.007h-.231s-.007 0-.022.007c0 0-.022.007-.029.021l-4.35 3.179h.47l-.007-.007z" fill="#000"/><path d="M60.771 16.985c-.079-.171-.202-.469-.217-.846-.022-.512.152-.903.239-1.095l.079-.135c.051-.078.101-.149.159-.285.152-.327.217-.676.217-1.06h1.048a3.54 3.54 0 0 1-.311 1.487l-.087.178-.13.228a1.77 1.77 0 0 0-.202.754 1.8 1.8 0 0 0 .239.889l-1.048-.114h.007.007z" fill="#ff8155"/><path d="M181.135 20.335h-1.438v1.408h1.438v-1.408zm4.278-4.986c.354-.249.802-.37 1.344-.37.477 0 .903.128 1.279.377a2.12 2.12 0 0 1 .816 1.053l1.294-.384c-.203-.697-.607-1.252-1.214-1.65s-1.323-.605-2.161-.605c-.787 0-1.467.171-2.03.519a3.47 3.47 0 0 0-1.301 1.444c-.304.619-.455 1.323-.463 2.134a4.94 4.94 0 0 0 .448 2.113c.297.619.723 1.102 1.279 1.458.557.349 1.243.526 2.038.526s1.525-.192 2.103-.576 1.012-.939 1.279-1.657l-1.322-.341c-.181.441-.441.775-.781 1.01s-.766.349-1.286.349c-.788 0-1.38-.263-1.778-.797-.397-.526-.599-1.223-.614-2.091 0-.562.094-1.06.26-1.494.174-.434.434-.775.788-1.024l.022.007zm11.424-1.059c-.571-.348-1.257-.526-2.045-.526s-1.445.171-2.016.512-1.012.825-1.33 1.437c-.31.612-.469 1.33-.469 2.134s.151 1.515.462 2.134a3.53 3.53 0 0 0 1.315 1.451c.571.348 1.243.526 2.031.526s1.467-.171 2.038-.519a3.52 3.52 0 0 0 1.322-1.444c.311-.619.462-1.33.462-2.141s-.151-1.508-.455-2.12-.744-1.095-1.315-1.444zm-.217 5.648c-.404.534-1.011.804-1.828.804s-1.402-.263-1.814-.79-.614-1.223-.614-2.098c0-.562.087-1.06.26-1.494a2.18 2.18 0 0 1 .802-1.017c.354-.242.81-.363 1.366-.363.809 0 1.416.263 1.828.782.405.519.607 1.216.607 2.091s-.202 1.551-.607 2.084zm13.672-5.421c-.477-.491-1.12-.74-1.951-.74-.528 0-1.005.114-1.424.348a2.6 2.6 0 0 0-.975.939c-.217-.412-.52-.726-.918-.946s-.86-.334-1.395-.334-1.011.114-1.43.348a2.67 2.67 0 0 0-.824.726v-.868h-1.163v7.76h1.315v-4.929c0-.562.159-1.024.477-1.366.318-.348.729-.519 1.242-.519s.933.171 1.243.512.47.804.47 1.394v4.915h1.293v-4.929h.008c0-.434.086-.79.245-1.067.167-.277.383-.484.644-.619s.541-.199.838-.199c.506 0 .91.164 1.228.491s.47.782.47 1.358v4.965h1.301v-5.242c.007-.825-.232-1.479-.701-1.977l.007-.021zm-122.467-.974h-6.821v2.105h6.821v-2.105zm16.049.334c.658-.903.99-1.985.99-3.229 0-.846-.152-1.622-.455-2.319a4.4 4.4 0 0 0-1.359-1.75c-.599-.469-1.344-.761-2.232-.896-.203-.036-.42-.064-.636-.071l-.571-.014h-6.467v16.025h2.023v-5.918h4.791l2.933 5.918h2.32l-3.165-6.359c.759-.306 1.373-.761 1.835-1.387h-.007zm-3.309-.157a3.99 3.99 0 0 1-.528.078l-.491.021h-4.379V7.476h4.379l.491.021c.181.014.361.043.528.078.52.121.946.334 1.271.654a3 3 0 0 1 .723 1.11 3.87 3.87 0 0 1 .231 1.309 3.87 3.87 0 0 1-.231 1.309 2.93 2.93 0 0 1-.723 1.11c-.325.313-.751.534-1.271.654zm16.995 2.447h1.048c.058-1.423-.13-2.653-.564-3.684s-1.084-1.828-1.958-2.383c-.867-.555-1.922-.832-3.158-.832s-2.225.263-3.107.782c-.881.526-1.568 1.266-2.066 2.226-.492.96-.738 2.098-.738 3.414s.253 2.347.752 3.286a5.41 5.41 0 0 0 2.096 2.191c.896.519 1.951.782 3.157.782s2.262-.292 3.223-.875 1.677-1.401 2.153-2.468l-1.943-.654c-.34.683-.81 1.209-1.409 1.572s-1.301.548-2.118.548c-1.206 0-2.131-.391-2.789-1.166-.564-.669-.867-1.593-.947-2.738h8.361.007zm-8.324-1.593c.123-.974.426-1.757.918-2.347.65-.79 1.604-1.181 2.854-1.181 1.17 0 2.045.363 2.637 1.095.463.576.752 1.394.86 2.432h-7.269zm19.712.953c-.628-.313-1.481-.605-2.565-.875l-2.196-.633c-.506-.185-.853-.377-1.034-.583-.188-.206-.282-.455-.282-.754 0-.512.246-.918.745-1.223s1.141-.448 1.936-.42c.831.021 1.518.22 2.06.598.534.377.86.882.954 1.522l2.066-.37a3.49 3.49 0 0 0-.802-1.856c-.448-.534-1.048-.939-1.778-1.231s-1.568-.434-2.5-.434-1.763.149-2.471.441-1.265.704-1.655 1.23c-.397.526-.592 1.145-.592 1.849 0 .576.13 1.067.397 1.465s.708.754 1.33 1.053 1.474.59 2.558.875l2.247.676c.499.185.824.384.983.598s.238.484.238.818a1.62 1.62 0 0 1-.722 1.394c-.485.341-1.142.512-1.973.512-.889 0-1.633-.192-2.226-.576-.599-.384-.982-.896-1.149-1.55l-2.066.32a3.9 3.9 0 0 0 1.719 2.632c.94.626 2.139.939 3.599.939s2.731-.334 3.606-.996 1.308-1.572 1.308-2.731c0-.626-.13-1.145-.398-1.572s-.708-.797-1.337-1.117zm12.776.406c0 .69-.079 1.294-.246 1.814s-.39.946-.686 1.287-.65.59-1.062.761-.875.256-1.38.256c-.644 0-1.178-.121-1.612-.37a2.81 2.81 0 0 1-1.026-1.003c-.26-.427-.434-.896-.542-1.423s-.159-1.074-.159-1.636V9.602h-2.045v6.643c0 .455.043.939.13 1.458a6.84 6.84 0 0 0 .448 1.522 4.87 4.87 0 0 0 .875 1.358c.368.405.838.733 1.401.982.564.242 1.243.37 2.038.37 1.055 0 1.966-.228 2.746-.676a4.33 4.33 0 0 0 1.344-1.209v1.565h1.807V9.602h-2.038v6.33h.007zm17.805-6.644c-.817 0-1.554.178-2.204.533a3.91 3.91 0 0 0-1.51 1.451 3.57 3.57 0 0 0-1.424-1.472c-.614-.341-1.337-.519-2.16-.519s-1.568.178-2.219.533a4.08 4.08 0 0 0-1.271 1.067V9.588h-1.807v12.021h2.038v-7.632c0-.875.245-1.579.737-2.12s1.134-.804 1.929-.804 1.445.263 1.937.79c.484.526.73 1.245.73 2.162l-.015 7.611h2.016v-7.632h.015c0-.676.13-1.231.39-1.657a2.56 2.56 0 0 1 .997-.96c.405-.213.838-.313 1.293-.313.781 0 1.417.256 1.908.761s.73 1.209.73 2.113l-.014 7.689h2.023l.014-8.123c0-1.273-.368-2.297-1.105-3.059s-1.742-1.145-3.028-1.145zm16.829 6.878h1.048c.058-1.423-.13-2.653-.563-3.684s-1.092-1.828-1.959-2.383-1.922-.832-3.157-.832-2.226.263-3.108.782c-.881.526-1.568 1.266-2.066 2.226s-.737 2.098-.737 3.414.253 2.347.751 3.286 1.2 1.671 2.096 2.191 1.951.782 3.158.782 2.261-.292 3.222-.875 1.677-1.401 2.154-2.468l-1.944-.654c-.34.683-.809 1.209-1.409 1.572s-1.301.548-2.117.548c-1.207 0-2.132-.391-2.79-1.166-.563-.669-.867-1.593-.946-2.738h8.36.007zm-8.331-1.593c.123-.974.426-1.757.918-2.347.65-.79 1.604-1.181 2.854-1.181 1.17 0 2.045.363 2.637 1.095.463.576.752 1.394.86 2.432h-7.269z" fill="#000"/></g><defs><clipPath id="A"><path fill="#fff" d="M0 0h211v27H0z"/></clipPath></defs></svg>