<svg xmlns="http://www.w3.org/2000/svg" width="331" height="228" fill="none"><g clip-path="url(#A)"><path d="M287.115 40.924l.643-9.401c-.01-3.02 1.941-3.16 4.495-2.72l9.292 29.603c.956 3.85 2.836 7.301 4.355 10.881.844 1.99 1.488 4.64 2.474 6.411 1.448 2.6 3.62 5.26 5.189 7.951 3.399 5.831 10.86 21.172 13.988 35.914 5.149 24.242 1.096 45.163-1.468 55.254l-3.41 10.341c-8.809 3.211-21.278 4.451-30.45 2.54.131-.83-.332-1.55-.171-2.38.212-1.06 2.062-4.31 2.615-5.65.543-1.32.915-2.71 1.398-4.011 1.679-4.54 3.529-11.471 4.867-17.871 2.977-14.151 4.736-22.542 2.514-32.023-1.086-4.63-4.244-14.251-15.044-23.812l-10.428-7.601-9.795-11.191c-2.253-2.75-3.53-6.471-5.752-9.181-2.263-2.75-5.592-4.95-8.095-7.501-.101-.45-.936-1.24-1.046-2.02-.212-1.38.181-1.9 1.418-2.37 1.558-.61 4.806-.6 6.456-.25 5.671 1.17 12.841 8.191 18.161 10.601 2.042.92 3.309.52 4.083-1.52 2.031-5.39-2.997-11.051-6.899-14.261l-6.617.11c1.167-1.25 3.158-1.67 4.264-2.95l-16.894-2.15c-.583-.08-1.328-.32-1.84-.39l.482-.7 11.243-3.1c2.987.1 6.265-1.25 9.322-1.84 1.639-.31 3.309-.7 4.998-.66 4.224 3.22 8.297 6.701 12.43 10.071.774.56 1.498-.03 1.337-.88l-12.228-10.071c-.925-.78-2.032-.69-3.168-.61-2.886.22-9.232 1.69-11.967 2.71-.312.11-.875.28-.945.64-2.313-.71-8.055-3.08-7.874-6.01.09-1.45 3.168-1.54 4.344-1.61 5.601-.33 14.843.25 20.434 1.08.845.13 2.072 1.09 2.464 1.03.262 1.41 2.343 2.15 3.47 3 1.146.84 2.192 1.64 3.228 2.51.794.67 3.73 3.7 4.163 3.9.925.43 1.337-.33.955-1.16-.704-1.51-2.514-2.68-2.866-2.86-1.84-.93-4.394-2.6-8.095-5.791h-.02-.01z" fill="#99f"/><path d="M296.055 175.656l-1.398 4.01-2.615 5.65c-.161.83.292 1.55.171 2.381-2.272-.47-7.482-1.621-7.673-4.541-.261-3.85 8.438-6.83 11.515-7.49v-.01zM267.103 47.474c-.07-.17-.241-.47-.221-.63.07-.37.643-.53.945-.64 2.735-1.02 9.071-2.49 11.967-2.71 1.136-.09 2.242-.17 3.168.61l12.228 10.071c.171.85-.553 1.45-1.338.88l-12.429-10.071c-1.679-.05-3.349.34-4.998.66-3.067.59-6.335 1.94-9.322 1.84v-.01zm55.57 137.682l3.41-10.341c1.588.24 4.495 1.631 4.857 3.321.774 3.7-5.541 6.03-8.256 7.02h-.011zM287.115 40.924c.804 0 7.12 4.93 8.095 5.801.442.39 2.735 2.57 2.866 2.86.382.83-.02 1.59-.955 1.16-.423-.2-3.369-3.23-4.164-3.9l-3.228-2.51c-1.136-.85-3.208-1.59-3.469-3 .161-.02.432-.43.855-.43v.02z" fill="#000"/><path d="M254.523 66.486c-.101-.45-.936-1.24-1.046-2.02-.211-1.38.181-1.9 1.418-2.37 1.568-.61 4.817-.6 6.456-.25l.774.21v-1.53l7.985-3.77c1.166-1.23 3.147-1.65 4.233-2.93l-15.325-1.92-5.843-13.251-5.028 14.231h-16.834l5.42 3.83 6.959 4.84-4.797 13.511 12.943-7.871 11.132 10.491-.091-3.37-.241-.33c-2.263-2.75-5.591-4.95-8.095-7.501h-.01-.01z" fill="#ffda31"/><g fill="#000"><path d="M45.263 52.475c-4.073 6.621.342 22.042.332 22.282.261 1.08-.322-1.25 1.88 27.352l1.509 18.652.704 11.04c.161 4.821.181 8.081.704 13.162.503 4.94 1.066 7.64 3.158 9.15 2.283 1.641 5.833-.28 7.18-.9 6.074-2.82 14.37-3.82 30.953-5.81 5.953-.71 15.919-1.47 27.725-4.461 1.016-.26 1.78-.47 2.665-1.03 6.376-4.08 1.328-16.441.03-37.553-1.076-17.381-7.522-34.823-4.857-52.034.352-2.25 1.599-9.201-2.081-12.171-1.71-1.38-3.862-1.39-4.847-1.38-14.31.12-28.128 3.97-28.198 3.98-20.072 4.4-26.81 1.35-33.98 6.931-1.478 1.15-2.212 1.72-2.876 2.8h-.01l.01-.01zM22.325 184.826c7.16.28 13.123.57 18.775 4.15 1.589 1.001 3.872 2.501 3.791 4.321-.09 2.06-3.007 3.74-6.567 4.68-8.608 2.26-21.53 1.43-29.978-1.32-4.002-1.31-8.548-3.78-8.347-6.4.171-2.201 4.254-3.791 4.948-4.061 2.293-.9 4.214-.89 5.752-.9 8.286-.07 6.376-.66 11.635-.46h-.01v-.01z"/><path d="M51.94 120.37l-9.533 6.921c-.694.59-1.217-.32-1.106-.99l9.654-7.151.986 1.231v-.011zm9.021 6.511l-3.57 2.14-5.802 3.501-.965.62c-.432.31-.633.5-.986.51-.1 0-.372 0-.603-.2-.02-.02-.322-.28-.292-.6.03-.22.211-.37.282-.42.624-.49 10.006-6.091 10.901-6.631l1.036 1.06v.02z"/></g><path d="M56.918 105.849c1.901-1.32 6.154-4.18 11.002-6.16 1.398-.57 3.288-1.24 5.772-1.42 1.549-.11 2.846 0 3.751.13-.302 1.23-.915 2.861-2.303 4.13-1.599 1.46-3.409 1.71-4.686 2-2.413.56-4.807 2.31-9.614 5.801-2.796 2.03-6.285 4.91-9.875 8.81l-9.654 7.151c-.101.68.422 1.6 1.106.99L62.59 112.63a65.12 65.12 0 0 1 8.467-4.871c2.584-1.24 5.038-2.2 7.261-2.96 1.589-.32 3.288-.61 5.088-.86a76.43 76.43 0 0 1 5.591-.55c.08 1.47-.081 3.44-1.358 4.85-1.468 1.63-3.308 1.33-7.019 2.591-2.122.74-3.54 1.54-6.335 3.16-3.791 2.19-6.517 4.34-7.804 5.41-5.108 4.241-3.56 4.551-6.547 6.381l-10.901 6.63c-.794.581.241 1.621 1.056 1.041 4.254-2.731 8.658-5.211 12.942-7.861.302-.19.392-.58.684-.76 2.092-1.29 4.334-2.36 6.416-3.681l5.762-3.2a72.65 72.65 0 0 1 10.348-2.74c1.076-.2 2.142-.38 3.168-.53-.03 1.15-.261 2.87-1.317 4.47-1.73 2.631-4.565 3.241-7.733 4.551-2.353.98-5.682 2.7-9.403 5.86l-11.404 8.161c-.694 1.38-.855 2.26-.493 2.63.734.76 3.701-.64 8.9-4.2 3.007-1.88 6.577-3.841 10.72-5.591 2.293-.97 4.495-1.76 6.567-2.42-.271 1.88-.965 4.5-3.037 6.431-1.7 1.58-3.389 1.82-6.094 2.9-2.092.84-5.038 2.26-8.347 4.86-4.032 3.551-7.049 6.841-9.201 9.371-5.672 6.731-7.411 9.941-12.037 14.921-2.896 3.101-6.184 5.761-10.418 6.781l-.03 6.241c.03 1.61.141 2.34.211 3.99.07 1.77.09 3.89-.03 6.291a38.13 38.13 0 0 1-9.232 1.85c-7.804.58-14.069-1.41-17.669-2.891a38.03 38.03 0 0 1 .261-9.36c1.669-10.781 7.663-13.202 15.175-27.373 3.711-7.02 6.456-12.191 8.699-19.702 1.187-3.96 1.981-7.75 5.239-11.851.513-.65 1.287-1.52 8.176-7.06 4.827-3.881 7.291-5.861 9.996-7.741v.02l.01.03z" fill="#ffda31"/><g fill="#000"><path d="M164.067 23.992c.151 1.94-.181 4.79-1.026 6.561-.533 1.1-2.433 3.1-3.409 3.89-5.34 4.25-13.475 4.02-19.599 1.7-4.878 1.84-9.755 4.85-14.612 6.621-1.197.43-2.072.57-1.458-1.04l9.724-9.001c-6.868-4.731-11.424-15.241-4.656-22.042 10.247-10.311 33.99-.84 35.046 13.331l-.01-.02zm-1.458 0c-.835-9.031-11.947-15.741-20.354-16.201-14.079-.78-20.193 11.711-10.147 21.742.694.69 2.836 2.01 3.228 2.54.322.44.292.98-.1 1.36l-6.527 5.921c.362.06.644-.04.976-.16 3.328-1.16 6.727-3.37 10.106-4.55 7.341 2.57 17.951 2.92 21.782-5.13.965-2.01 1.257-3.18 1.046-5.53l-.01.01zM182.661 5.12l-18.192 7.391 14.19-11.031c.734-.15 2.906 2.82 3.801 3.13l.201.51zm-68.996 21.482c-.482-.48-1.096-2.45-1.609-3.01-.724-.78-3.419-1.08-3.198-2.37.121-.71 2.494-1.46 3.118-2.04.744-.69 1.368-3.3 2.363-3.2.805.08 1.549 2.54 2.172 3.19.724.76 3.319 1.22 3.118 2.45-.131.79-2.595 1.31-3.198 1.96-.533.57-1.499 4.26-2.756 3.01h-.01v.01zm1.66-6.36c-.232-.23-.755-2.15-1.288-1.78-.1.07-.683 1.58-.885 1.78-.231.23-2.001.94-2.001 1.18 1.358.79 2.555 1.24 2.896 2.97.242.03.272.08.423-.12.322-.42.472-1.33 1.026-1.81.492-.42 1.377-.51 1.85-1.04 0-.25-1.77-.94-2.001-1.18h-.02zm65.878-7.321l1.257 4.51-13.848 1.23 12.601-5.73-.01-.01z"/><path d="M162.609 8.201L166.219 0l2.152 2.95c-1.609 1.35-3.288 3.77-4.927 4.96-.282.2-.433.38-.835.29z"/></g><path d="M115.325 20.242c.231.25 2.001.94 2.001 1.18-.463.52-1.358.61-1.851 1.04-.563.48-.703 1.38-1.025 1.81-.151.2-.181.16-.423.12-.352-1.73-1.548-2.19-2.896-2.97 0-.25 1.77-.95 2.001-1.18.201-.2.785-1.73.885-1.79.543-.37 1.056 1.55 1.287 1.79h.021zm47.284 3.75c-.835-9.031-11.947-15.741-20.354-16.211-14.079-.78-20.193 11.711-10.147 21.742.694.69 2.836 2.01 3.228 2.54.322.44.292.98-.1 1.36l-6.527 5.921c.362.06.644-.04.976-.16 3.328-1.16 6.727-3.37 10.106-4.55 2.424.97 6.929 2.34 12.209 1.42 2.121-.37 4.987-.91 7.361-3.27a10.52 10.52 0 0 0 2.222-3.27c.322-.58.694-1.41.915-2.47a8.84 8.84 0 0 0 .111-3.07v.02z" fill="#fff"/><path d="M155.197 19.412l-14.239 9.171-2.645-5.541c-.211-.57-1.056-2.76-.774-3.05.623-.66 2.564 1.7 2.956 2.21.473.61.996 2.26 1.7 2.24.261 0 2.785-2.29 3.359-2.67 2.252-1.51 5.963-4.07 9.653-2.35h-.01v-.01z" fill="#020101"/><path d="M202.653 147.433c1.206-13.261-2.746-26.072-4.827-38.994-.594-2.68-3.892-3.79-6.044-2.03-1.348 1.1-1.247 2.65-1.197 4.221.161 5.94 1.348 12.241 1.539 18.201.05 1.37.221 2.83-.573 4.001-.674.99-1.821 1.57-3.037 1.54-3.369-.06-8.588-2.741-12.038-2.811-4.937-.11-4.977 5.121-6.778 7.971-1.498 2.38-4.364 4.12-4.233 7.711.875 6.64.583 14.221 1.8 20.752.734 3.93 3.53 7.17 7.431 8.24 5.35 1.46 9.242-1.46 14.149-2.88.041-.37-.502-.2-.714-.15-3.469.75-7.109 2.31-10.599 3.16-.754.18-1.478-.47-.945-1.17.523-.69 6.386-2.03 9.604-2.93-.161.24-.332.49-.543.75 1.508-.19 2.624-.66 3.308-1.01.945-.48 1.72-.88 2.233-1.77.533-.92.794-2.41.08-3.05-.402-.36-.965-.31-2.011-.21-.584.06-1.116.12-1.539.31-2.876-.04-5.762.13-8.628.01-.463-.02-.875-.19-1.297-.22-.533-.03-4.676.26-3.108-1.251.574-.55 5.702-.22 9.735-.04-.03.15-.051.29-.081.44.513.12 1.277.26 2.203.31 2.051.12 3.7.221 5.118-.81 1.71-1.24 2.283-3.54 2.052-5.28-.061-.49-.141-1.09-.523-1.65-.302-.46-.775-.8-1.338-1.06.181-.03.322-.07.403-.08.663-.15 1.005-.22 1.337-.46.392-.27.835-.75 1.72-4.651.03-.15.11-.52.11-1.01 0-.14 0-.61-.09-.87-.222-.62-1.298-.95-2.565-.92-.714-.37-1.468-.57-2.222-.61l-13.375-3.7c-.452-.87.02-1.591 1.016-1.27l11.977 3.1a2.65 2.65 0 0 0 .04.13c1.398 1.43 3.64 1.61 5.189.45 1.458-1.09 1.951-3.12 1.146-4.811a2.49 2.49 0 0 0-.331-.86c-.946-1.53-3.249-1.45-3.47-1.44l-12.61-6.4c-.352-1.65.764-1.27 1.86-.87 3.56 1.33 10.529 4.88 13.837 6.86.885.53 1.609.94 1.871 2.05.312 1.31-.463 4.061-1.036 5.281-.292.61-1.267 1.47-1.267 1.57 0 .08.855.73.996 1.18.492 1.61-.956 5.991-1.881 7.431-.09.15-.422.15-.432.3-.041.44.513.99.613 1.54.211 1.13-.975 4.84-1.528 5.97-.202.4-.694.65-.795.97-.312 1.071.06 2.831-.654 4.551-.221.54-.653.85-.814 1.36 3.067-1.18 6.054-2.03 8.196-4.66 4.163-5.111 1.196-9.391 2.504-14.852.181-.74.362-1.93 1.438-1.2.603.41-.402 3.56-.423 4.381-.06 2.08.624 4.06.352 6.42-1.156 10.171-12.882 11.291-20.474 14.701l6.366 40.704c5.299 1.2 10.669 3.16 15.969 4.22 4.455.9 8.266.74 12.53-.93.995-.39 4.787-2.21 4.917-3.16l-19.629-70.696.01-.02zm-16.714 8.921c.04.06.091.12.141.18.362.41.804.71 1.277.92-.483.09-.975.2-1.488.35l-.02.11-10.408-1.28c-1.227-.28-1.368-1.511-.061-1.651l10.559 1.361v.01z" fill="#fff"/><path d="M235.014 221.749c-1.016-3.48-9.011-5.9-12.088-7.14l-18.735-67.626c.785-11.891-1.77-24.192-4.213-35.813-.493-2.351-.664-4.931-2.907-6.331-3.328-2.09-7.662-.08-8.034 3.82l.884 13.992h.011c.15 2.11.603 4.43.663 6.6.051 1.85.201 3.741-2.272 3.571-2.464-.16-6.517-1.831-9.101-2.371-3.51-.73-6.698-.29-8.639 3.031-.874 1.5-1.327 3.81-2.202 5.19-.483.78-1.659 1.71-2.232 2.55-1.72 2.441-2.303 4.801-2.233 7.771.131 5.4.966 12.691 1.75 18.092.302 2.1.392 3.21 1.488 5.13 2.826 4.94 8.297 6.751 13.777 5.721l5.682 35.943c-6.798 3.36.493 7.55 4.244 9.16 9.835 4.221 25.965 6.071 36.474 4.221 2.614-.46 8.738-1.86 7.683-5.531v.02zm-17.669-.47c-4.254 1.67-8.065 1.83-12.53.93-5.31-1.07-10.67-3.03-15.97-4.22l-6.365-40.704c7.582-3.41 19.318-4.53 20.474-14.701.272-2.36-.412-4.34-.352-6.42.02-.83 1.026-3.961.423-4.381-1.076-.73-1.267.47-1.438 1.2-1.308 5.461 1.659 9.741-2.504 14.852-2.152 2.63-5.149 3.48-8.196 4.66.161-.49.593-.81.814-1.36.724-1.72.342-3.48.654-4.54.091-.32.603-.571.795-.971.553-1.13 1.739-4.82 1.528-5.97-.111-.55-.654-1.11-.613-1.54.01-.14.342-.15.432-.3.925-1.44 2.393-5.821 1.881-7.431-.141-.45-.996-1.1-.996-1.18 0-.11.986-.97 1.267-1.57.583-1.24 1.348-3.99 1.046-5.281-.262-1.11-.986-1.52-1.871-2.05-3.308-1.99-10.277-5.54-13.837-6.86-1.086-.4-2.212-.77-1.86.87l12.58 6.38 1.297.48c1.127.4 2.323.76 2.293 2.14-.02.571-.995 3.921-1.307 4.301-.322.39-1.257.64-1.76.59h.01v-.02s-.02.02-.02.03l-.694-.22c-.422-.15-.815-.3-1.177-.46l-13.153-3.4c-1.006-.32-1.468.4-1.016 1.27l13.375 3.7 2.484.67c.945.22 2.092.62 2.082 1.74-.011.6-1.519 5.111-1.921 5.451-.332.29-.583.38-.775.37v.02c-.03 0-.07-.02-.1-.03-.01 0-.03 0-.05-.01a18.85 18.85 0 0 0-1.167-.28 15.75 15.75 0 0 0-1.197-.2l-14.511-1.87c-1.317.14-1.166 1.37.061 1.65l12.811 1.57 3.681.44a1.05 1.05 0 0 1 .543.1c.332.17.513.53.603.9.111.29.151.63.111 1.01 0 1.02-.372 1.94-.815 2.71-.281.81-.543 1.53-.643 1.7-.242.4-.654.73-1.147.71-.945-.01-1.317.01-1.317.01-.211.01-.322.03-.372.03-2.373.34-13.345-.8-14.199.02-1.559 1.511 2.574 1.221 3.107 1.251.422.04.845.2 1.297.22 2.444.1 4.908-.01 7.351-.03l4.244.03c.654.14-.05 2.35-.211 2.82-.04.24-.131.59-.423.83-.191.15-.382.2-.553.24-.342.09-.834.23-1.458.46-1.619.76-10.8 2.67-11.464 3.54-.523.7.191 1.34.945 1.17 3.49-.85 7.13-2.41 10.6-3.16.211-.05.764-.22.714.17v-.02c-4.918 1.43-8.8 4.351-14.16 2.88-3.911-1.07-6.697-4.32-7.431-8.24-1.217-6.511-.925-14.112-1.8-20.752-.131-3.6 2.735-5.331 4.234-7.711 1.8-2.84 1.85-8.081 6.777-7.971 3.45.07 8.669 2.751 12.048 2.811 1.217.02 2.363-.54 3.037-1.55.784-1.171.603-2.631.573-4.001-.191-5.96-1.368-12.251-1.539-18.201-.05-1.571-.151-3.131 1.197-4.221 2.152-1.76 5.45-.65 6.044 2.03 2.081 12.942 6.033 25.753 4.827 38.994l19.629 70.696c-.13.96-3.921 2.77-4.917 3.16l-.04.02z" fill="#000"/></g><defs><clipPath id="A"><path fill="#fff" d="M0 0h331v228H0z"/></clipPath></defs></svg>