<svg xmlns="http://www.w3.org/2000/svg" width="232" height="260" fill="none"><g clip-path="url(#A)"><path d="M164.08 88.72c1.94 2.37 1.76 3.41 4.1 5.56 3.42 3.13 6.03 3.22 9.59 6.44 1.19 1.08 2.35 2.52 3.49 4.7 6.1 11.62 7.65 28.18 13.4 40.29.14.1.34.24.62.36.37.16.67.2.97.24.44.05 1.05.11 1.8.15 1.23.08 2.97.1 5.03-.18 1.58-.22 5.03-.69 8.23-2.67 4.75-2.94 6.62-7.77 7.24-9.69 1.32 5.75 2.87 14.35 3.18 24.94.22 7.64.33 12.96-1.39 19.44-.82 3.07-5.87 22.13-15.29 23.41-13.97 1.9-30.64-36.46-38.68-56.1-.62-1.5-1.2-3.09-1.57-4.66 1.31 14.61 2.92 29.49 4.84 44.63l1.5 11.35c-60.88 2.3-75.68.44-76.02-2.04-.04-.33.03-1.78-.09-5.6l-.18-4.45c-.44-8.83 1.85-19.71-.53-20.59-.94-.35-2.16.97-3.28 2-4.7 4.32-10.11 5.41-20.92 7.59 0 0-9.49 1.91-21.15.96-2.95-.24-6.32-.7-8.59-3.3-1.77-2.03-2.13-4.51-2.2-5.98 3.39 1.69 5.2 2.08 8.86.76 1.58-.57 7-3.4 7.11-5.03.08-1.21-1.08-1.74-2.14-1.53-.03-.53-.5-1.24-.85-1.61 3.23 1.41 6.59 1.77 10.1 1.8 19.53.18 39.81-2.48 59.43-2.37 3.61-.47 3.65-4.23.24-5.2-13.36-4.63-26.65-12.07-39.97-16.49-3.45-1.14-5.43-1.39-9.03-1.28 5.97.54 8.95-.99 10.58-2.6 4.75-4.73-.45-11.87 3.41-23.19 2.48-7.28 7.27-12.05 9.5-14.28 4.48-4.47 9.07-7.07 12.19-8.54-2.05 2.24 1.24 4.21 2.98 5.48 14.36 10.54 30.34 4.63 40.92-7.75.47-.87.28-1.77-.32-2.51a23.53 23.53 0 0 1 8.35 3.53c2 1.35 3.5 2.81 4.56 4.03l-.02-.02z" fill="#99b9ff"/><path d="M197.49 144.71l2.41 11.44c-.87 1.92-2.77 2.41-3.35.65-2.3-7.04-.28-5.28-2.49-12.42.91.54 2.24.37 3.43.33z" fill="#fdfdfd"/><path d="M170.8 59.51c.59-.36 2.89-1.71 6.27-2.48 1.77-.4 4.41-.98 7.73-.35 2.59.49 5.04 1.62 7.37 3.39 1.36-7.62 3.68-15.13 7.16-22.05 1.13-2.25 2.51-5.36 4.73-6.68 6-3.56 12.76 2 10.74 8.63-.37 1.2-1.47 2.52-2.03 3.71l-3.43 7.63c.65.19.73-.31 1.05-.65 2.42-2.55 4.44-6.62 8.15-7.52 8.08-1.97 12.3 7.89 6.26 13.1 6.6.45 9.46 7.46 5.1 12.47-1.09 1.25-2.59 1.97-3.77 3.1-3.82 3.64-7.69 7.51-10.29 12.12-.4 7.25.03 15.1-1.85 22.14-.28 1.05-1.28 2.77-1.32 3.52-.08 1.33 3.06 7.85 3.71 9.77 1.55 4.53 2.92 9.7 2.19 14.52-1.46 9.68-11.91 12.98-20.54 12.65-1.19-.05-2.54.12-3.42-.81-5.77-12.15-7.32-28.76-13.43-40.41-3.94-7.52-8.05-6.36-13.12-11.17-3.13-2.97-7-9.77-6.62-14.13.22-2.55 1.49-4.68 3.79-5.91-.53-.73-1.87-2.77-1.63-5.41.16-1.74.93-2.92 1.71-4.11 1.82-2.8 4.16-4.26 5.46-5.05l.03-.02zm26.23 83.77c11.02.27 19.97-2.75 18.31-15.56-.81-6.22-4.09-11.01-5.7-16.59-.88-3.05.35-3.06 1.2-5.62 1.6-4.84 1.65-12.64 1.85-17.87.05-1.35-.38-2.48-.08-4.04.67-3.44 7.01-9.89 9.63-12.5 1.74-1.73 6.3-4.73 6.55-7.01.41-3.69-3.09-5.67-6.31-4-3.39 1.75-8.5 7.37-10.88 10.45-.63.81-3.24 5.06-3.63 5.25-1.78.86-2.82-.55-2.14-2.38 1.89-5.04 8.65-10.16 12.18-13.98.83-.9 6.07-7.31 6.28-7.94 1.33-3.96-3.11-7.04-6.5-4.58-3.88 2.82-10.83 14.4-13.1 18.93-.64 1.29-2.94 7.48-3.37 7.86-1.28 1.15-2.91-.09-2.5-2.1.7-3.42 3.38-6.65 4.47-9.62 2-5.44 2.61-10.89 5.19-16.78 1.4-3.19 6.13-8.99 1.26-11.36-3.51-1.71-5.17 1.11-6.63 3.72-4.63 8.23-6.16 15.89-7.98 24.94-1.07 5.34-3.31 1.19-5.51-.37-6.97-4.94-16.63-1.95-21.74 4.23-3.12 3.77.76 8.69 5.1 6.34 2.96-1.6 4.71-5.41 9.12-5.05 4.72.38 6.9 8.07 7.25 11.94.48 5.36-4.47 8.96-9.57 8.22-6.18-.91-5.4-5.39-7.6-9.25-1.93-3.37-6.97-2.53-7.58 1.09-.66 3.97 3.92 10.97 7.04 13.34 2.89 2.19 5.68 2.4 8.46 5.23 3.09 3.14 4.92 7.45 6.37 11.54 3.87 10.95 6.46 22.58 10.53 33.5h.01l.02.02zm-19.95-60.87c1.32 2.25 2.62 2.72 5.23 2.17 1.74-.37 3.92-1.76 4-3.67.07-1.59-1.67-7.67-2.66-8.94-2.53-3.24-7.38 2.15-9.33 3.92 1.49 2 1.53 4.43 2.76 6.53v-.01z" fill="#010101"/><path d="M51.15 158.09c.35.37.82 1.07.85 1.61-.28.06-3.79 2.64-4.79 3.11-2.69 1.26-4.79 1.71-7.48-.03-3.2-2.07-1.07-5.13.14-7.8.81-1.77 4.96-10.3 6.59-10.53.47-.07 2.23 1.36 2.53 1.8 2.23 3.28-1.68 7.3-1.11 9.56.19.74 2.42 1.38 3.27 2.27v.01zm145.82-14.77c-4.07-10.92-6.66-22.55-10.53-33.5-1.45-4.09-3.28-8.4-6.37-11.54-2.78-2.82-5.57-3.04-8.46-5.23-3.11-2.36-7.7-9.36-7.04-13.34.6-3.62 5.65-4.47 7.58-1.09 2.21 3.87 1.42 8.35 7.6 9.25 5.1.75 10.04-2.86 9.57-8.22-.35-3.87-2.53-11.57-7.25-11.94-4.41-.35-6.16 3.45-9.12 5.05-4.34 2.35-8.22-2.56-5.1-6.34 5.11-6.18 14.77-9.17 21.74-4.23 2.2 1.56 4.43 5.7 5.51.37 1.82-9.06 3.36-16.71 7.98-24.94 1.46-2.61 3.12-5.43 6.63-3.72 4.88 2.37.14 8.16-1.26 11.36-2.58 5.89-3.19 11.33-5.19 16.78-1.09 2.97-3.78 6.2-4.47 9.62-.41 2.02 1.22 3.25 2.5 2.1.42-.38 2.72-6.57 3.37-7.86 2.26-4.53 9.21-16.11 13.1-18.93 3.39-2.46 7.83.61 6.5 4.58-.21.63-5.45 7.04-6.28 7.94-3.52 3.82-10.28 8.94-12.18 13.98-.69 1.83.36 3.24 2.14 2.38.38-.19 3-4.43 3.63-5.25 2.38-3.08 7.48-8.7 10.88-10.45 3.21-1.66 6.71.31 6.31 4-.25 2.28-4.81 5.28-6.55 7.01-2.62 2.6-8.97 9.05-9.63 12.5-.3 1.56.13 2.68.07 4.04-.2 5.22-.25 13.02-1.85 17.87-.84 2.56-2.08 2.57-1.2 5.62 1.61 5.58 4.89 10.36 5.7 16.59 1.66 12.81-7.29 15.83-18.31 15.56h-.01l-.01-.02zm-60.33-71.69c.43 3.32.49 7.19 1.07 10.44.53 2.99 2.56 1.67 4.68 1.73 1.41.04 2.83.21 4.24.25-9 10.38-24.03 13.37-35.07 4.15 1.45-.67 5.62-.43 6.04-2.24l-1.46-12.34c5.2 2.33 10.36 2.54 15.67.39.79-.32 4.54-2.73 4.84-2.38h-.01zm-35-30.98c-2.96-2.36-4.61-12.27-1.71-14.63.74-.6 2.55-.48 2.52.15l-.81 14.47v.01zm47.58 2.32l.79-14.17c.04-.67 1.67-.57 2.33.3 2.34 3.11-.1 11.53-3.11 13.87h-.01zM25.07 158.52c-2.58.13-6.78-1.24-6.27-4.47.47-3.02 4.59-11.06 6.52-13.6 1.94-2.54 4.74-5.21 7.8-2.26 1.97 1.9-.69 3.78-1.86 5.88-1.59 2.85-3.56 6.85-4.82 9.85-.63 1.49-1.36 2.9-1.37 4.59v.01zm9.82 3.31c-3.28 1.5-7.37-.66-6.59-4.52.35-1.7 5.57-11.95 6.77-13.64 2.4-3.4 5.06-3.35 7.13.32-2.7 5.72-7.25 11.29-7.31 17.83v.01zm-10.16-26.08c.3.61-1.82 2.75-2.29 3.49-2.06 3.22-3.85 6.74-5.35 10.25-.28.66-.5 2.02-.75 2.43-.36.58-1.11-.06-1.36-.52-.76-1.38.31-5.75.76-7.38.83-3.01 3.34-9.64 7.36-9.04.31.05 1.57.64 1.64.78l-.01-.01zM146.96 27.23c.83-2.86 1.58-6.93-.49-9.01-1.94-1.94-4.57-.37-11.11-1.05-1.29-.13-5.34-1.15-13.43-3.18-2.11-.53-5.28-1.34-9.25-.78-2.89.4-3.93 1.17-4.2 1.47-.98 1.1-2.4 5.47-2.62 7-.45 2.99-.56 4.92-.56 4.92-.36 14.93-2.14 18.85-.55 25.34 2.23 9.13 10.34 20.5 20.01 20.39 4.38-.05 9-2.02 13.33-6.57 10.27-10.8 7.49-24.91 8.9-38.55l-.03.02z" fill="#fdfdfd"/><path d="M156.16 36.72c-1.55 5.4-3.41 6.09-6.42 12.56-2.88 6.19-2.16 7.69-5.24 13.51-1.76 3.34-3.6 5.88-4.88 7.5l.78 7.35.62 3.3c3.29-.65 6.89.41 10.15.22.6.75.8 1.64.32 2.51-10.59 12.38-26.56 18.28-40.92 7.75-1.74-1.28-5.03-3.24-2.98-5.48 2.22-.34 4.41-1.3 6.67-1.52l-1.49-12.56c-3.33-2.33-5.27-4.84-6.35-6.51-1.72-2.67-2.46-5.07-3.52-8.53-.95-3.08-1.49-5.71-1.81-7.61a115.01 115.01 0 0 1-2.71-6.39c-3.18-8.13-3.12-10.58-3.06-11.52.09-1.54.38-6.11 3.62-7.88 1.45-.79 2.98-.74 3.95-.61.2-1.49.29-3.85-.87-6.14-1.73-3.43-4.65-3.55-5.03-5.45C96.27 7.64 105.18.88 114.73.07c8.86-.75 15.68 3.83 18.28 5.8 5.1-1.32 12.63-2.26 20.29.72 1.45.56 9.72 3.78 9.73 8.11 0 1.85-1.51 2.57-3.28 6-1.61 3.1-2.18 6.01-2.41 7.99-.02 1.86-.23 4.71-1.17 8.01l-.01.02zM141.8 23.6c-1.18-.57-2.39-1.34-4.59-2.09-2.37-.81-3.85-.41-6.37-.18-7.27.65-9.15-3.98-14.01-2.26-2.23.79-2.43 1.99-5.77 3.1-2.16.72-4.07.89-5.31.91l-.63 7.77c-.78 11.64-.95 17.42-.4 21.09 1.44 9.54 10.44 20.5 20.01 20.39 6.74-.07 12.1-5.35 13.33-6.57 3.54-3.54 4.98-7.34 5.92-9.9 1.58-4.32 1.56-7.08 2.22-17.22l1.02-13.93c-2.52.02-4.27-.56-5.43-1.12l.01.01zm-40.16 17.05l.81-14.47c.03-.63-1.78-.76-2.52-.15-2.9 2.36-1.25 12.27 1.71 14.63v-.01zm47.58 2.32c3.01-2.34 5.46-10.75 3.12-13.87-.65-.87-2.29-.97-2.33-.3l-.79 14.17zm-12.58 28.66c-.3-.35-4.05 2.06-4.84 2.38-5.31 2.15-10.47 1.94-15.67-.39l1.46 12.34c-.42 1.81-4.59 1.57-6.04 2.24 11.04 9.22 26.07 6.23 35.07-4.15-1.41-.04-2.83-.21-4.24-.25-2.12-.06-4.14 1.26-4.68-1.73-.58-3.25-.63-7.12-1.07-10.44h.01zM124.33 45.3c.16.21 2.02.23 2.08 1.57.12 2.72-5.08 3.47-5.32-.61-.24-4.24 1.56-9.34 1.72-13.64.41-1.73 3.19-1.89 3.14.15.22 1.63-2.03 12.01-1.62 12.54v-.01zm11.28-18.62c2.22-.22 10.07.69 8.58 4.25-.78 1.87-3.47-.55-4.59-.84-1.33-.35-2.94-.42-4.27-.08-.95.24-3.37 1.9-3.84-.1-.45-1.9 2.64-3.07 4.12-3.22v-.01zm-23.78-1.31c2.02-.2 7.66.46 8.57 2.58.47 1.11-.04 2.48-1.39 2.4s-2.78-1.94-5.87-1.87c-1.58.03-4.94 2.17-5.43.12-.45-1.9 2.64-3.07 4.13-3.22l-.01-.01zm19.47 29.99c.74-.68 2.57-.43 2.71.88.23 2.16-2.56 4.63-4.47 5.26-1.78.59-6.42.9-6.11-1.8.28-2.42 3.22-.41 5.35-1.36 1.92-.86 1.81-2.31 2.53-2.97l-.01-.01zM112.46 30.7c3.15-.75 4.18 4.9 1.67 5.53-2.5.63-4.34-4.89-1.67-5.53zm23.78 1.31c3.17-.78 4.23 4.98 1.68 5.52-2.56.55-4.21-4.9-1.68-5.52zM94.94 260h39.18l.57-7.36 1.19-14.34c1.35 4.57 2.53 9.77 3.24 15.56a100.71 100.71 0 0 1 .56 6.14h40.5l-7.44-51.41-2.07-14.92c-12.9.89-27.14 1.24-42.5.67-11.81-.44-22.87-1.38-33.12-2.62l.29 29.76-.42 38.51.02.01zm25.98-107.67c-13.36-4.63-26.65-12.07-39.97-16.49-3.45-1.15-5.43-1.39-9.03-1.28-4.4.14-8.78.88-13.19.8l-7.41-38.14c-.48-2.39-1.63-3.95-4.04-4.68C34.11 89.18 20.61 82.8 7.5 79.73 3.12 78.7.03 80.47.01 85.21l10.24 53.82c-.3 1.6 2.28 3.17 2.46 4.04.15.71-.7 2.92-.82 3.93-.29 2.45-.66 5.56 1.51 7.26.64.5 1.76.76 2.11 1.08.34.32.65 1.82 1.12 2.55 1.45 2.25 3.75 3.08 6.27 3.59.93.19 2.31-.04 3.04.26.49.2.55.92.92 1.25 1.66 1.45 3.79 2.58 6.06 2.44 1.09-.07 2.98-.99 3.59-.95.71.04 1.13.74 1.67 1.01 3.39 1.69 5.2 2.08 8.86.76 1.58-.57 7-3.4 7.11-5.03.08-1.21-1.08-1.74-2.14-1.53-.28.06-3.79 2.64-4.79 3.11-2.69 1.26-4.79 1.71-7.48-.03-3.2-2.07-1.07-5.13.14-7.8.81-1.78 4.96-10.31 6.59-10.53.47-.06 2.23 1.36 2.53 1.8 2.23 3.28-1.68 7.3-1.11 9.56.19.74 2.42 1.39 3.27 2.28 3.23 1.41 6.59 1.77 10.1 1.8 19.53.18 39.81-2.48 59.43-2.37 3.61-.47 3.65-4.23.24-5.2l-.01.02zm-103.83-2.84c-.28.66-.5 2.02-.75 2.43-.36.58-1.11-.06-1.36-.52-.76-1.38.31-5.76.76-7.38.83-3.01 3.34-9.64 7.36-9.04.31.05 1.57.64 1.64.78.3.61-1.82 2.75-2.29 3.49-2.06 3.22-3.85 6.74-5.35 10.25l-.01-.01zm9.34 4.44c-.63 1.49-1.36 2.9-1.37 4.59-2.59.13-6.78-1.24-6.27-4.47.47-3.02 4.59-11.06 6.52-13.6 1.96-2.58 4.74-5.21 7.8-2.26 1.97 1.9-.69 3.78-1.86 5.88-1.59 2.85-3.56 6.85-4.82 9.85v.01zm8.46 7.9c-3.28 1.5-7.37-.66-6.59-4.52.35-1.7 5.57-11.95 6.77-13.64 2.4-3.4 5.06-3.35 7.13.32-2.7 5.72-7.25 11.29-7.31 17.83v.01z" fill="#010101"/><path d="M25.04 110.98c4.84.01 6.64 11.83 1.63 12.36-5.08.55-6.73-12.37-1.63-12.36zm3.15-3.45c.84.94-1.17 3.35-2.14 2.47s1.26-3.46 2.14-2.47z" fill="#fdfdfd"/></g><defs><clipPath id="A"><path fill="#fff" d="M0 0h232v260H0z"/></clipPath></defs></svg>