<svg xmlns="http://www.w3.org/2000/svg" xmlns:xlink="http://www.w3.org/1999/xlink" height="44" viewBox="0 0 24 44" width="24"><svg height="16" viewBox="0 0 16 16" width="16" x="4" y="4" fill="none"><path d="M13.807 4.694c.26-.26.26-.693 0-.94l-1.56-1.56c-.247-.26-.68-.26-.94 0l-1.227 1.22 2.5 2.5M2 11.5V14h2.5l7.373-7.38-2.5-2.5L2 11.5z" fill="#fff"/></svg><svg height="16" viewBox="0 0 16 16" width="16" x="4" y="24" fill="none"><path d="M13.807 4.694c.26-.26.26-.693 0-.94l-1.56-1.56c-.247-.26-.68-.26-.94 0l-1.227 1.22 2.5 2.5M2 11.5V14h2.5l7.373-7.38-2.5-2.5L2 11.5z" fill="#000"/></svg></svg>