<svg xmlns="http://www.w3.org/2000/svg" width="150" height="177" fill="none"><g clip-path="url(#A)"><path d="M141.479 121.179c-3.084-3.558-7.941-6.142-12.364-7.731-1.604-.576-3.877-.87-5.388-1.502-.416-.174-.414-.712-.772-.836-1.428-.496-13.251 1.309-15.286 1.867-3.126.859-8.752 4.401-10.705 6.98-1.794 2.368-3.344 5.675-3.018 8.679.037.335.448.601.409.884-.025.181-.664 1.279-.818 1.711-3.291 9.287-2.634 16.179 3.698 23.859 8.776 10.647 33.898 14.005 45.163 6.282-.528 2.42-.057 6.857-1.614 8.846-.848 1.084-.575.93-1.172 2.033-.902 1.66-4.903 3.41-6.747 3.585-7.731.739-15.397 1.219-23.2 1.162l-50.287-.882c-8.107.002-16.186.866-24.353.652-7.34-.191-15.681-.689-22.92-1.883-5.739-.946-7.882-6.199-9.572-11.097-1.279-3.707-1.589-5.255-1.835-9.189-.776-12.42-.857-24.994-.466-37.446.434-13.865 2.464-27.698 2.774-41.551S.742 48.1.689 34.493c-.018-4.988 1.445-9.862 1.167-14.946-.184-3.355-.976-4.644.271-8.208C6.495-1.135 19.147-.133 30.221.135l80.36 1.169c5.838.172 10.484.898 16.09 1.364 3.815.317 8.392-.749 11.905.955 3.67 1.78 2.988 3.718 3.652 7.142.214 1.102.76 2.012.868 3.266.363 4.191-.489 7.767-.705 11.713-.099 1.81.409 3.355.478 5.053.303 7.515-1.461 14.602-1.167 22.066.053 1.344.423 3.02.466 4.357.372 11.18-.236 21.942-.466 33.06-.211 10.293.349 20.628-.22 30.899h-.003zM47.558 30.912c-.299-.335 1.068-3.291 1.146-4.003.198-1.807-1.254-7.191-2.425-8.61-.273-.331-2.026-1.445-2.476-1.658-2.777-1.309-6.78-1.612-9.581-.312-.753.349-1.913 1.392-2.526 1.608-.781.276-1.534.085-2.448.538-.836.413-2.43 1.506-2.581 2.471s-.34 4.577-.244 5.5c.17 1.598 1.644 3.479 1.378 4.821-.138.696-.806.618-1.268 1.029-1.07.955-.921 2.072-.204 3.197.868 1.364 2.051.939 2.512 1.392.214.211.611 1.53.93 2.056.978 1.61 2.953 4.285 4.917 4.386l-.257 3.64c-2.554 1.236-5.599 2.375-8.017 3.81-1.341.797-2.338 1.488-2.306 3.225.012.62.26 1.621.806 1.97.14.09 2.958.643 3.254.652 6.433.207 13.045-.037 19.496.037 2.956.035 4.786-1.011 3.351-4.053-1.38-2.926-7.643-4.485-10.133-6.451l-.122-2.147c2.051-1.116 3.622-3.107 4.768-5.124.248-.439.526-1.546.698-1.713.31-.305 1.325-.223 1.908-.733 1.222-1.07 1.192-3.615.643-5.009-.227-.581-1.121-.413-1.217-.521l-.002.005zm34.146 2.239c.358-.285.574-1.236 1.332-1.314s1.794.735 2.574.868c1.463.246 4.288.299 5.677-.186.641-.223 1.162-.723 1.801-.955 1.846-.675 3.523.035 5.33 0 1.575-.03 3.636-.154 5.223-.241.33-.018 2.301-.349 2.551-.436.432-.151 1.151-4.053 1.034-4.618-.026-.119-.901-2.159-.988-2.244-.767-.76-7.411.096-8.975.018-.912-.046-2.101-.466-2.951-.445-2.402.064-5.216 2.324-7.269 1.709-.638-.191-1.387-1.061-2.044-1.399-2.62-1.346-4.823-.42-6.557 1.729-.133 0-1.102-1.265-1.562-1.44-.508-.195-.825.11-1.148.028s-.466-.556-.971-.65c-1.22-.23-2.671.73-3.438 1.603-.496-.349-.526-1.022-1.146-1.146-1.465-.289-6.424 1.006-6.323 2.85.064 1.148 3.302 6.219 4.389 6.89.59.365 3.11 1.052 3.739.985s2.393-1.252 2.446-1.996c1.842.96 3.332 1.975 5.51 1.261.154-.05 1.69-.808 1.771-.873l-.005.002zm12.659 7.45c-2.248-1.27-3.819-1.268-6.226-.443-2.223.76-2.889 2.127-5.569 1.791-1.164-.147-1.998-1.111-3.103-1.49-1.821-.625-2.958-.198-4.708.331-1.185.356-4.425 2.017-5.264 2.046-1.458.051-2.717-1.601-3.721-1.738-.282-.039-.599.188-.87.152-.615-.08-.707-.563-1.824-.436-.512.057-2.758 1.015-2.999 1.371-.735 1.084-.315 4.292.22 5.503 1.135 2.568 1.934.772 3.438.921.388.039 1.911 1.059 2.65 1.259 1.219.333 2.522.285 3.76.505 1.807-.175 5.661-2.51 7.158-2.471.616.016 2.225 1.121 3.036 1.334 2.338.613 5.732.413 7.912-.696.604-.308 1.477-1.194 1.957-1.279.843-.149 1.771.549 2.839-.356.854-.726 1.183-5.009 1.321-6.302h-.007zm28.281 7.542c-.138-1.22.572-3.119.464-4.226-.014-.131-.921-2.356-1.018-2.446-.232-.216-.854-.377-1.185-.422-2.519-.34-5.181.248-7.544-.035-.792-.094-2.021-.7-3.004-.682-1.514.025-2.57 1.867-3.914 2.06-2.712.39-5.031-2.416-7.087.257-1.44 1.874-.406 3.036-1.504 4.929-.005.191.083.333.2.473.175.207 3.977 1.286 4.57 1.406 5.656 1.132 7.976-1.677 13.254-.831l6.772-.482h-.004zM92.401 72.421c-.246-.264-.278-.845-.625-1.1-.831-.611-2.715.007-3.684.028l-22.748.218c-1.215.232-1.44 3.264-1.254 4.244.147.781.595.76 1.242.822 3.957.39 8.245-.179 12.188-.241 4.43-.069 9.425.262 13.754-.26.939-.112 1.077-.696 1.966-.778.377-.413.921-1.725.597-2.186-.393-.305-1.107-.395-1.438-.749v.002zm-32.272 3.925c.191-1.077.145-3.812-.864-4.432-.698-.43-5.978.503-7.241.574-2.441.138-4.931-.253-7.338.241l-20.008.202c-.815.942-1.612 4.52.023 4.837 11.527-.09 23.012.423 34.433-.925l.994-.496zm-4.488 15.61c.441.441 6.134.342 7.188.294 4.093-.193 8.677-.795 12.854-1.155.976-.085 1.975.09 2.954-.032.967-1.355 1.332-4.768-.887-5.027-1.718-.202-5.023.119-6.892.237-4.807.296-9.581 1.19-14.423.912-.87.792-1.575 3.994-.797 4.772h.002zm28.009-5.638c-.689 1.063-1.444 3.636-.521 4.674.714.802 3.045.115 4.024.092 8.033-.186 16.093.156 24.126.012.329 0 .393-.138.526-.393.602-1.144.733-4.713-1.215-4.667-8.977.135-17.991-.289-26.941.282h.002zm-31.778 5.422c.234-.397-.733-3.748-1.203-4.113-.744-.581-2.147.009-2.997.03-5.716.135-11.804-.783-17.472-.478-.703.037-4.531.469-4.832.68-.859.606-1.1 3.842-.335 4.736.733.482 4.109-.296 5.179-.351 5.902-.296 12.565.891 18.38.466 1.164-.085 2.322-.301 3.282-.969zm14.685 9.281c-.459-.468-5.668-.303-6.731-.292-8.968.097-18.076.538-27.1.248-1.337-.043-5.542-.787-6.437-.254s-2 4.037-.613 4.549c8.031 1.137 16.391.815 24.512.747l4.354.013c3.916-.048 7.808-.31 11.724-.239.611-.036 1.017-2.409 1.001-2.884-.007-.179-.627-1.803-.71-1.888zm5.565 4.541H83.49a3.49 3.49 0 0 0 .53-.278c.34-1.81 1.098-4.566-1.44-4.787-2.198-.188-6.575-.215-8.75-.004-2.278.22-2.154 3.408-1.709 5.066v.003zm-45.672 13.52c.661.431 6.378-.597 7.654-.669 3.013-.167 6.176.152 9.205 0l1.139.193 7.317-.445c.289-.092.841-2.611.788-3.016-.034-.273-.537-1.339-.739-1.561-.82-.905-1.798-.225-2.763-.202-5 .119-10.218-.276-15.176-.019-1.642.085-5.101.361-6.598.751-1.656.43-1.442 3.705-.824 4.97l-.002-.002z" fill="#50c089"/><path d="M142.398 161.369c-11.262 7.724-36.385 4.366-45.162-6.281-6.332-7.682-6.989-14.574-3.698-23.86.154-.434.792-1.529.818-1.71.039-.283-.372-.549-.409-.885-.328-3.004 1.224-6.311 3.018-8.679 1.954-2.579 7.578-6.12 10.704-6.979 2.037-.56 13.858-2.363 15.286-1.867.359.124.354.661.772.836 1.511.634 3.785.925 5.388 1.502 4.421 1.589 9.28 4.175 12.365 7.73 3.989 4.603 8.286 15.224 8.509 21.235.22 5.985-2.421 15.412-7.591 18.956v.002zm-.229-7.808c4.31-8.025 3.155-13.853-.46-21.818-3.068-6.759-5.213-9.68-12.25-12.668-7.45-3.165-12.241-3.61-19.245.808-7.829 4.938-12.9 10.82-13.516 20.475-.406 6.373 4.713 13.145 10.176 16 7.632 3.985 19.117 5.37 27.378 2.953 4.072-1.191 5.916-2.027 7.917-5.748v-.002z" fill="#020202"/><path d="M47.558 30.912c.094.108.988-.06 1.217.521.549 1.394.579 3.941-.643 5.009-.583.51-1.598.427-1.908.733-.172.168-.448 1.277-.698 1.713-1.146 2.014-2.717 4.008-4.768 5.124l.122 2.147c2.489 1.966 8.752 3.525 10.133 6.451 1.435 3.043-.395 4.088-3.351 4.054-6.451-.076-13.063.168-19.496-.037-.296-.009-3.114-.563-3.254-.652-.547-.349-.792-1.348-.806-1.971-.032-1.736.965-2.428 2.306-3.224 2.418-1.438 5.464-2.575 8.017-3.81l.257-3.64c-1.964-.101-3.936-2.777-4.917-4.386-.319-.526-.716-1.844-.93-2.056-.462-.455-1.642-.03-2.512-1.392-.716-1.125-.866-2.241.204-3.197.462-.411 1.13-.333 1.268-1.029.266-1.344-1.21-3.222-1.378-4.821-.099-.925.094-4.563.243-5.5s1.748-2.058 2.581-2.471c.914-.453 1.667-.262 2.448-.537.613-.216 1.771-1.259 2.526-1.608 2.802-1.3 6.807-.994 9.581.312.45.211 2.203 1.325 2.476 1.658 1.171 1.422 2.623 6.805 2.425 8.61-.078.712-1.445 3.665-1.146 4.003l.002-.005z" fill="#010101"/><path d="M81.704 33.152a29.28 29.28 0 0 1-1.771.873c-2.177.714-3.668-.301-5.51-1.261-.053.744-1.849 1.934-2.446 1.996-.629.064-3.151-.622-3.739-.985-1.084-.671-4.324-5.742-4.389-6.89-.101-1.846 4.857-3.142 6.322-2.85.62.122.652.797 1.146 1.146.767-.873 2.219-1.833 3.438-1.603.507.094.657.57.971.65s.638-.223 1.148-.028c.459.177 1.428 1.44 1.562 1.44 1.734-2.15 3.936-3.075 6.557-1.729.657.338 1.406 1.208 2.044 1.399 2.053.615 4.866-1.644 7.269-1.709.85-.023 2.039.4 2.951.445 1.564.078 8.209-.776 8.975-.018.087.087.962 2.124.987 2.244.117.565-.599 4.469-1.033 4.618-.251.087-2.221.418-2.552.436l-5.222.241c-1.807.035-3.484-.678-5.33 0-.636.232-1.16.733-1.8.955-1.389.485-4.214.432-5.677.186-.781-.131-1.849-.942-2.575-.868s-.974 1.029-1.332 1.314l.005-.002zm12.659 7.45c-.136 1.291-.466 5.576-1.321 6.302-1.066.907-1.996.207-2.839.356-.48.085-1.353.971-1.957 1.279-2.179 1.109-5.576 1.309-7.912.696-.811-.214-2.421-1.318-3.036-1.334-1.497-.039-5.349 2.297-7.159 2.471-1.238-.22-2.54-.172-3.76-.505-.74-.202-2.26-1.219-2.65-1.259-1.504-.149-2.303 1.647-3.438-.921-.535-1.21-.953-4.419-.221-5.503.241-.356 2.487-1.314 2.999-1.371 1.116-.126 1.21.354 1.824.436.273.037.588-.191.87-.152 1.004.138 2.262 1.787 3.721 1.738.84-.03 4.079-1.688 5.264-2.046 1.752-.528 2.889-.953 4.708-.331 1.105.379 1.936 1.346 3.103 1.49 2.678.335 3.346-1.031 5.569-1.791 2.409-.825 3.98-.827 6.226.443h.007z" fill="#fcfdfd"/><path d="M66.558 101.021c.085.085.703 1.709.71 1.888.018.475-.388 2.845-1.001 2.884-3.918-.071-7.811.191-11.724.239-1.428.019-2.924-.025-4.354-.013-8.123.068-16.48.39-24.511-.747-1.387-.512-.276-4.019.613-4.549s5.101.211 6.437.255c9.023.289 18.132-.152 27.1-.249 1.063-.011 6.272-.174 6.731.292z" fill="#020302"/><path d="M122.643 48.144l-6.773.482c-5.277-.843-7.597 1.966-13.253.831-.593-.119-4.396-1.199-4.571-1.405-.117-.14-.207-.283-.2-.473 1.098-1.89.062-3.054 1.504-4.929 2.055-2.673 4.375.133 7.087-.257 1.346-.193 2.4-2.035 3.914-2.06.982-.016 2.213.588 3.003.682 2.366.282 5.028-.308 7.545.035.331.044.953.207 1.185.423.096.09 1.006 2.315 1.017 2.446.11 1.107-.599 3.008-.464 4.226h.005z" fill="#fcfdfd"/><path d="M60.13 76.346l-.995.496c-11.421 1.348-22.906.836-34.433.925-1.635-.317-.841-3.895-.023-4.837l20.008-.202c2.407-.496 4.896-.103 7.338-.241 1.263-.071 6.541-1.006 7.241-.574 1.008.62 1.054 3.355.864 4.432z" fill="#020302"/><path d="M83.651 86.318c8.95-.572 17.964-.147 26.942-.282 1.947-.046 1.816 3.523 1.214 4.667-.133.255-.197.391-.525.393-8.036.142-16.095-.198-24.126-.012-.978.023-3.309.71-4.024-.092-.926-1.038-.168-3.608.521-4.674h-.002z" fill="#020303"/><path d="M92.401 72.421c.328.356 1.045.443 1.438.749.324.462-.22 1.775-.597 2.186-.889.085-1.029.666-1.966.779-4.329.521-9.324.191-13.754.26-3.943.062-8.229.632-12.188.241-.648-.064-1.096-.044-1.243-.822-.186-.981.039-4.012 1.254-4.244l22.748-.218c.969-.023 2.852-.639 3.684-.028.347.255.379.836.625 1.1v-.002zm-40.528 19.32c-.962.671-2.117.884-3.282.969-5.815.425-12.477-.763-18.38-.466-1.07.053-4.446.834-5.179.351-.765-.893-.524-4.129.335-4.736.301-.211 4.129-.643 4.832-.68 5.668-.305 11.758.615 17.473.478.852-.021 2.253-.611 2.997-.03.468.365 1.438 3.716 1.203 4.113z" fill="#020302"/><path d="M26.45 119.082c-.618-1.268-.831-4.541.825-4.97 1.497-.388 4.956-.666 6.598-.751 4.961-.255 10.176.138 15.176.018.965-.023 1.945-.7 2.763.202.202.223.703 1.289.739 1.562.053.404-.498 2.924-.788 3.015l-7.317.446-1.139-.193c-3.032.152-6.194-.168-9.205 0-1.275.071-6.991 1.1-7.655.668l.002.003z" fill="#020303"/><path d="M55.642 91.956c-.779-.779-.071-3.98.797-4.772 4.841.276 9.616-.615 14.423-.912 1.869-.115 5.174-.436 6.892-.237 2.216.26 1.851 3.672.886 5.027-.978.122-1.977-.053-2.953.032-4.178.36-8.764.962-12.854 1.155-1.054.05-6.747.149-7.188-.294h-.002z" fill="#020403"/><path d="M72.122 105.562c-.446-1.659-.57-4.846 1.709-5.067 2.175-.211 6.554-.184 8.75.005 2.535.218 1.78 2.976 1.44 4.786-.021.032-.501.278-.531.278H72.122v-.002z" fill="#020303"/><path d="M141.709 131.743l-.009 3.569c.014.301.239.597.239.68v11.942c0 .085.227.379.239.68l-.009 4.947c-1.998 3.72-3.845 4.559-7.917 5.748-8.261 2.418-19.746 1.034-27.378-2.953-5.463-2.853-10.582-9.628-10.176-16.001.615-9.655 5.687-15.536 13.516-20.474 7.007-4.419 11.795-3.973 19.245-.809 7.037 2.988 9.18 5.91 12.25 12.669v.002zm-16.995 17.569c.366-1.383-.271-4.288 0-5.856 2.338-.111 4.931-.028 7.244-.221 2.347-.195 3.858-.202 4.402-2.845l-.985-4.309-10.433.257c-.147-2.266.204-4.77.002-7.007-.085-.939-.707-1.821-.459-2.87l-1.121-.032c.106-1.342-1.748-.878-2.501-.483-.411.216-.427.581-.675.756-.331.232-.841.083-1.197.585-.829 1.169-.523 2.456-.737 3.627-.342 1.874-.948 3.718-.891 5.654-2.179.175-5.027-.388-7.08.384-.662.248-.756.585-1.206.863-.329.205-.776.193-1.066.427-.875.705-.174 1.376-.082 2.134.08.664-.03 1.222.128 1.936.675 3.015 3.326 1.502 5.505 1.366 1.406-.087 2.85.085 4.258.01.287 1.603-.085 6.933 1.61 7.691.882.393 3.684.041 4.366-.68.087-.092.891-1.304.914-1.382l.004-.005z" fill="#50c08a"/><path d="M124.715 149.312c-.021.08-.825 1.291-.915 1.383-.679.721-3.483 1.072-4.365.679-1.695-.758-1.323-6.088-1.61-7.691-1.408.076-2.853-.096-4.258-.009-2.18.138-4.83 1.651-5.505-1.367-.161-.714-.048-1.272-.129-1.936-.092-.758-.792-1.428.083-2.133.289-.232.737-.223 1.066-.427.45-.278.544-.614 1.205-.864 2.053-.772 4.901-.209 7.081-.383-.058-1.937.549-3.781.891-5.655.213-1.171-.092-2.457.737-3.626.354-.501.864-.351 1.197-.586.248-.174.266-.539.675-.755.751-.395 2.606-.859 2.501.482l1.12.032c-.248 1.05.375 1.929.46 2.871.2 2.237-.152 4.74-.003 7.007l10.434-.257.985 4.308c-.544 2.646-2.055 2.653-4.402 2.846-2.313.19-4.906.108-7.244.22-.271 1.569.365 4.474 0 5.856l-.004.005z" fill="#fdfefd"/></g><defs><clipPath id="A"><path fill="#fff" d="M0 0h150v177H0z"/></clipPath></defs></svg>