<svg width="200" height="200" viewBox="0 0 200 200" fill="none" xmlns="http://www.w3.org/2000/svg"><path d="M156.504 58.672l-.137 4.082.527 17.031c.039 4.805-.293 9.609-.351 14.414l-.196 22.617-.156 9.258.371 15.664c.098 3.574.352 7.129.352 10.703 0 2.071-.215 4.161-.625 6.172-.508 2.559-2.168 4.199-4.746 4.844l-7.305 1.836c.273-.82.644-1.758-.176-2.402-.644-.508-1.523-.723-2.324-1.075 0-.156-.02-.351.019-.527l1.954-8.477c1.211-4.765 1.621-9.531.703-14.394-.449-2.441-.977-4.863-2.188-7.07-.058-.078-.117-.137-.156-.215l.02.019c-.215-1.66-1.153-3.066-2.676-3.359-1.895-.371-3.379-1.992-5.449-1.777-.098-.293-.196-.606-.274-.899-.215-.781-.957-1.328-1.738-1.211-.703.098-.879.547-.723 1.192-1.855-.606-3.75-.567-5.644-.176-.977-1.426-2.09-2.695-3.672-3.457-1.192-.586-3.047-.488-3.301 1.387-.938.351-1.543-.02-2.129-.782-.391-.508-1.016-.84-1.543-1.269l-2.539-5.235-.352-.683c-.976-1.856-1.894-3.731-2.949-5.547-1.484-2.559-2.461-3.438-5.254-2.383-1.757-.234-2.949.332-3.32 1.621l-.41 1.856c-.449 2.07-.078 4.082.508 6.054.175 1.036.332 2.071.547 3.106.039.234.312.43.468.625.098.293.196.605.274.898l1.347 5.078c-.078.606-.195 1.211-.214 1.817-.04.976-.118 1.972.019 2.93.371 2.441 1.934 4.531 2.012 7.07.039 1.172.351 2.344.449 3.535.137 1.484-.488 2.07-1.992 1.953-.254-.019-.528-.137-.762-.098-.391.04-.762.176-1.152.254-1.621-.82-3.164-1.738-4.375-3.164-.293-.351-.801-.547-1.191-.82-.82-.547-1.602-.332-2.187.293-.683.723-1.308 1.523-1.836 2.383-1.055 1.718-2.051 3.496-3.027 5.254-.41.742-.469 1.582.039 2.285.469.644 1.074 1.172 1.66 1.738.449.43 1.113.703 1.387 1.211 1.191 2.129 3.301 3.32 5 4.883 2.989 2.754 6.29 5.176 9.472 7.734l-10.82-.137c-4.648 0-9.277-.019-13.926.176-2.812.117-5.586.664-8.379.957-1.016.098-2.051.039-3.086.039l-10.898.157c-2.363.019-4.727.078-7.09-.02-1.992-.098-3.965-.371-5.957-.586-.117-.019-.293-.039-.371-.117-1.191-1.484-3.184-2.383-3.242-4.688-.039-1.308-.176-2.597-.332-3.906-.078-.683-.371-1.367-.391-2.051-.117-2.148-.137-4.296-.215-6.425-.039-.938-.215-1.875-.215-2.793-.02-.879.156-1.778.156-2.657 0-.449-.254-.898-.273-1.367-.059-.683.02-1.367-.02-2.051-.059-.8-.078-1.621-.312-2.382-.273-.86-.508-1.621-.156-2.539.176-.489.117-1.075.137-1.621l.117-10.118.43-12.851c.176-3.301.586-6.563.879-9.864l.586-7.578c.156-2.559.234-5.117.332-7.695.078-2.07.234-4.16.176-6.23-.117-3.437-.371-6.875-.586-10.312l-.664-9.805c-.195-2.852-.449-5.684-.508-8.535-.039-1.68.332-3.359.313-5.039-.02-2.051-.274-4.082-.43-6.133l-.293-3.828c-.098-.996-.312-1.992-.293-2.988.078-2.012 0-4.082.527-5.996.43-1.523 1.621-2.832 3.555-2.93a108.64 108.64 0 0 0 5.02-.41c1.211-.117 2.422-.391 3.652-.449 3.301-.176 6.602-.371 9.902-.371l32.676.332 12.012.02 10.332.195c1.621.039 3.242.137 4.863.215l-1.66 3.066c-.781 1.426-1.211 2.91-.547 4.512.039.117 0 .313-.058.449-1.231 2.617-1.758 5.391-2.012 8.242-.195 2.207-.098 4.395.976 6.426.508.938.938 1.914 1.465 2.832 2.071 3.516 4.805 6.367 8.614 7.969 2.168.898 4.453 1.543 6.66 2.324 3.164 1.133 6.425 1.445 9.726 1.27 3.242-.117 6.504-.234 9.571-1.484zm-86.661-12.07c.469.273.84.586 1.289.762 1.563.586 3.32.684 4.668-.859.527-.605.957-.781 1.816-.449 2.188.859 4.434.996 6.641-.137.566-.293 1.23-.527 1.855-.547 1.992-.078 3.984-.02 5.957-.059 1.055-.02 2.109-.156 3.145-.293.215-.02.586-.293.586-.469 0-1.426.879-2.793.02-4.277-.332-.566-.566-.996-1.211-1.035-.508-.039-1.035.02-1.562.039-1.816.059-3.652.313-5.43.117-1.738-.176-3.398-.195-4.922.645-1.504.82-2.734.762-4.082-.371-1.445-1.211-3.398-1.035-4.805.254-.312.273-.488.684-.723 1.016-.859-.742-1.289-1.68-2.402-1.27-.058.02-.195-.195-.293-.215-.547-.059-1.133-.254-1.602-.117-.605.176-1.152.645-1.66.957-.371-.254-.703-.684-1.074-.723-1.641-.156-3.145.254-4.453 1.309-.547.43-.664.918-.312 1.543.625 1.133 1.211 2.285 1.875 3.398 1.309 2.188 4.863 3.34 6.68.781zM57.5 56.152c.352 1.055.664 2.149 1.094 3.164.215.527.645.742 1.27.41.605-.332 1.191-.312 1.875.078 1.621.918 3.437 1.25 5.273.742 1.523-.43 2.988-1.074 4.492-1.562.293-.098.703-.098.976.039 3.184 1.602 6.328 1.758 9.356-.312.801-.547 1.348-.391 1.953.195.645.625 2.813 1.055 3.535.508 1.27-.957 2.617-1.309 4.16-.977.527.117.82-.078.938-.664.137-.625.332-1.27.664-1.816.606-1.016-.039-1.914-.137-2.852-.02-.176-.371-.352-.605-.43-1.953-.742-3.906-.82-5.82.215-.234.137-.664.078-.937-.039-1.055-.469-2.07-1.035-3.262-.664-1.074.332-2.207.645-3.164 1.211-1.523.898-2.891.938-4.375-.02-1.035-.684-2.207-1.016-3.437-.605-1.602.508-3.184 1.133-4.785 1.641-.567.176-1.211.273-1.777.137-1.074-.254-1.934-.977-3.086-1.25-1.973-.469-4.062.723-4.199 2.851zm14.648 44.336c0-.078.019-.156.019-.234h13.477l7.871-.176c1.855-.019 1.914 0 2.207-1.816.215-1.426-.41-2.383-1.777-2.285-2.207.156-4.414.156-6.621.195h-5.82c-5.996 0-12.012.313-18.008-.391-.332-.039-.918.176-1.055.43-.371.742-.625 1.543-.82 2.344-.156.684.176 1.094.938 1.152l9.59.781zm18.008-24.14c0-.762-.02-1.25 0-1.738.039-1.66-.625-2.207-2.285-2.09-4.102.293-8.223.586-12.344.703-4.258.117-8.516 0-12.773-.02-1.523 0-1.66.059-2.012 1.504-.469 1.934-.332 2.656 1.934 2.637 7.754-.058 15.508.117 23.242-.41 1.426-.059 2.832-.371 4.238-.586zm24.101-17.461v.059l2.227-.156c.566-.02.781-.254.781-.84 0-.625.039-1.309.274-1.875.468-1.133-.508-1.836-.703-2.754-.02-.137-.371-.273-.586-.293-1.231-.078-2.461-.195-3.672-.176-1.25.02-2.461.254-3.731-.215-1.074-.391-2.343-.43-3.3.566-.938.996-2.09.859-3.262.605-.547-.117-1.074-.293-1.582-.469-.86-.293-1.621-.137-2.129.625-.781 1.152-1.465 2.363-1.426 3.848.019.586.195.879.801 1.016.977.234 1.914.586 2.89.82 2.247.527 4.473.566 6.641-.43.43-.195.918-.332 1.387-.352l5.39.02zm7.266 29.277h8.574c1.25 0 2.012-.625 2.246-1.895.254-1.309-.371-2.168-1.679-2.168a373.43 373.43 0 0 0-8.106.019L110 84.297c-.41 0-1.036.41-1.153.762-.254.742-.293 1.582-.293 2.383 0 .625.352.996 1.075.938 1.035-.098 2.07-.176 3.105-.195l8.789-.019zM98.73 72.344v-.039h-3.32c-1.465.02-1.914.41-2.109 1.875-.039.254-.019.527-.039.781-.02 1.191.195 1.426 1.406 1.426h7.597c2.989-.039 5.996-.117 8.985-.273 1.757-.078 3.535.254 5.273-.625.723-.371.84-.84.899-1.387.019-.254-.43-.566-.684-.82-.137-.137-.41-.215-.449-.352-.313-1.191-1.25-.996-2.11-.977l-15.449.391zM67.168 84.981l-4.726.43c-.312.039-.781.352-.84.625-.195.84-.293 1.719-.273 2.559 0 .605.41.977 1.113.898 1.289-.156 2.559-.352 3.848-.352 3.008 0 6.035.098 9.043.176.508.019 1.035.059 1.543.059 1.797-.019 3.613.019 5.41-.117.918-.059 1.211-.723.977-1.621-.059-.254-.137-.508-.195-.762-.332-1.484-.879-1.836-2.402-1.641-.859.117-1.738.156-2.617.137l-10.879-.391zm7.676 21.152l-10.957.683c-.43.039-1.074.508-1.191.899-.215.742-.156 1.582-.137 2.383.02.683.391.937 1.113.84 1.836-.215 3.672-.489 5.508-.528 3.945-.078 7.91-.039 11.875-.039 1.582 0 2.5-.762 2.793-2.246 0-.039.039-.059.039-.098.156-1.035-.703-1.914-1.719-1.894h-7.324zm14.648-21.055V85c-.586 0-1.191-.078-1.758.019-.371.078-.879.352-1.016.664a5.79 5.79 0 0 0-.449 2.07c-.059 1.055.254 1.348 1.328 1.328l7.246-.254 9.786-.684c.273-.019.761-.117.781-.234.156-.84.332-1.719.254-2.559-.078-.996-.782-1.348-1.797-1.27-1.914.156-3.828.176-5.742.293l-8.633.703zm15.058 14.805l3.985-.02c.312 0 .84-.117.859-.254.156-.859.313-1.758.254-2.617-.078-1.035-.84-1.25-1.816-1.23-1.973.059-3.965.019-5.938.019-1.484 0-1.953.391-2.187 1.856-.059.449-.039.898-.039 1.367 0 .664.313.898.976.879 1.309-.02 2.598 0 3.906 0zm39.063 14.629c-.117.078-.391.156-.527.351-1.114 1.621-2.207 3.262-3.262 4.922-.117.195.078.586.117.899.293-.039.723 0 .879-.157 1.23-1.504 2.441-3.027 3.555-4.609.429-.586-.039-1.387-.762-1.406zm5.43 6.015c-.313.039-.391.02-.43.059-1.523.82-3.086 1.602-4.551 2.5-.273.176-.43.937-.293 1.269.254.625.762.157 1.133-.039 1.445-.703 2.91-1.386 4.316-2.148.274-.156.469-.703.43-1.035-.039-.274-.469-.488-.605-.606zm-.274 9.825v.058c.606-.098 1.231-.117 1.797-.312.215-.078.469-.567.41-.801s-.469-.567-.722-.567c-.586 0-1.211.098-1.778.313-.469.156-1.25.547-1.23.781.058.781.82.449 1.328.528h.195z" fill="#196efe"/><path d="M103.867 106.953c2.773-1.074 3.769-.176 5.254 2.383l2.949 5.527.351.684 2.539 5.234c.606 1.719.997 3.574 1.895 5.137.723 1.25.273 3.008 1.777 3.867.078.039.078.234.078.371.02.781-.312 1.445-1.035 1.699-.703.254-1.445.137-1.816-.664-.215-.429-.371-.879-.508-1.328l-.82-3.047c-.235-.761-.606-1.464-.86-2.226-1.171-3.438-3.007-6.563-4.609-9.785-.82-1.661-1.68-3.301-2.539-4.942-.273-.508-.547-1.113-1.289-.781-1.074.488-2.109 1.035-3.32 1.66l1.816 6.074 2.637 10.567 2.617 10.918c.488 2.109.976 4.238.332 6.426-.625 2.109-2.09 3.359-4.297 3.164-1.426-.137-2.676-.723-3.867-1.504-1.484-.977-3.047-1.817-4.434-2.891-1.133-.879-1.816-.937-2.559.293-.625 1.016-1.133 2.09-1.66 3.164-.312.645-.937 1.406-.781 1.953.156.625 1.016 1.074 1.563 1.602 1.269 1.25 2.285 2.715 3.809 3.75.879.605 1.504 1.562 2.305 2.285.684.605 1.504 1.074 2.188 1.68l5.234 4.843c1.309 1.192 2.773 2.227 3.984 3.516.567.625.938.605 1.524.312.761-.39 1.484-.917 2.304-1.132 1.954-.528 3.946-.86 5.918-1.328 2.872-.704 5.567-2.09 8.633-2.129 2.735-.039 5.43-.938 8.203-.43.586.117 1.211.019 1.856.019.097-.312.234-.644.312-.976l2.11-9.336c.41-1.953.898-3.906 1.015-5.879.157-2.793.098-5.586-.488-8.379-.527-2.48-.937-4.941-2.539-7.031-.137-.176-.254-.391-.293-.606-.02-.175.039-.41.137-.546.039-.059.351.019.468.117.743.625 1.446 1.269 2.168 1.914l-.019-.02c.059.078.117.137.156.215 1.211 2.207 1.738 4.629 2.188 7.07.898 4.864.507 9.649-.703 14.395-.723 2.812-1.309 5.645-1.954 8.477-.039.175-.019.39-.019.527.801.351 1.68.586 2.324 1.074.82.645.43 1.563.176 2.402-.567.743-.391 1.543-.313 2.364.157 1.484.567 2.929-.039 4.453-.429 1.094-.976 1.973-2.129 2.519l.684.918c-.293.938-.488 1.817-.859 2.618-.157.351-.606.644-.996.781-1.309.429-2.676.742-3.985 1.191-.742.254-1.484.625-2.148 1.074-1.016.684-1.289.704-2.207-.234-.84.371-1.68.84-2.598 1.133l-7.305 2.187c-.722.235-1.015-.058-1.328-.8-.859.449-1.719.8-2.48 1.308-1.895 1.27-4.082 1.543-6.231 1.817-1.367.175-2.07-.879-2.402-2.149-.508-2.031.801-3.516 1.016-5.273.156-1.27.507-2.52.507-3.789 0-.703-.41-1.485-.82-2.09-1.094-1.602-1.269-3.223-.234-5.137l-3.789-2.695c-3.164-2.559-6.465-4.981-9.473-7.735-1.699-1.562-3.809-2.773-5-4.882-.273-.508-.937-.782-1.387-1.211-.586-.547-1.191-1.094-1.66-1.739-.508-.703-.449-1.543-.039-2.285.977-1.777 1.973-3.535 3.027-5.254.527-.84 1.133-1.66 1.836-2.383.586-.605 1.387-.839 2.188-.292.391.273.899.468 1.191.82 1.191 1.426 2.735 2.344 4.375 3.164.781.469 1.524.976 2.324 1.367 1.485.703 2.442.41 2.832-.879.235-.82.391-1.738.274-2.578-.234-1.758-.625-3.496-1.035-5.215-.547-2.265-1.172-4.512-1.778-6.758l-.976-3.398-1.348-5.078a16.19 16.19 0 0 0-.273-.899l-.781-3.75-.743-6.035.41-1.855c1.075-.586 2.188-1.133 3.282-1.68z" fill="#020202"/><path d="M134.473 23.262c4.589.332 9.179.742 13.632 2.07.938.273 1.993.215 2.989.293 2.285.156 3.359 1.836 4.394 3.516.117.176-.195.801-.449.977l-6.894 4.375c-1.094.703-2.149 1.465-3.184 2.266-.527.41-.977.469-1.563.078l-6.621-4.258c-1.601-1.016-1.601-.996-3.047.273-1.347-.449-3.203.488-3.574 1.895-.078.293.176.82.449 1.016l8.184 6.426c.859.684 1.66 1.465 2.559 2.09 2.382 1.641 2.949 1.582 5.078-.019l6.816-5.156 3.574-2.695.137 2.773.391 10.02c.039 1.582-.137 3.164-.215 4.766-2.09.84-4.16 1.66-6.484 1.856-2.95.254-5.899.625-8.809.078-3.555-.684-7.07-1.641-10.313-3.301-3.066-1.562-5.136-4.141-6.679-7.129-.547-1.074-1.231-2.285-1.231-3.418 0-2.246.215-4.551.762-6.719 1.387-5.645 5.332-9.219 10.098-12.07z" fill="#1a6ffd"/><path d="M134.473 23.262c-4.766 2.852-8.711 6.426-10.118 12.031-.547 2.168-.742 4.473-.761 6.719 0 1.152.664 2.344 1.23 3.418 1.543 3.008 3.613 5.566 6.68 7.129 3.242 1.66 6.758 2.637 10.312 3.301 2.91.547 5.86.176 8.809-.078 2.305-.195 4.394-1.016 6.484-1.855 2.364-.937 3.379-3.008 4.258-5.156 1.973-4.805 1.563-9.57-.449-14.238-.274-.625-.215-.957.312-1.367.879-.703 1.66-1.484 2.676-2.383l1.856 5.176c1.074 3.262 1.269 6.601.683 9.961-.508 2.91-1.582 5.645-3.203 8.125-1.25 1.914-3.027 3.164-5.117 3.984-.527.215-1.074.41-1.602.625-3.066 1.25-6.347 1.367-9.57 1.543-3.32.176-6.582-.117-9.727-1.27-2.207-.801-4.492-1.426-6.66-2.324-3.808-1.602-6.543-4.473-8.613-7.969-.547-.918-.977-1.895-1.465-2.832-1.074-2.031-1.172-4.219-.976-6.426.273-2.832.8-5.625 2.011-8.242.059-.137.098-.312.059-.449-.664-1.602-.234-3.086.547-4.512l1.66-3.066c2.519-2.402 5.254-4.512 8.633-5.547 1.347-.41 2.773-.547 4.179-.742 2.207-.312 4.414-.625 6.622-.82.761-.078 1.543-.273 2.265.566.488.547 1.582.566 2.402.84 1.543.527 3.125.957 4.59 1.66 1.739.82 3.496 1.738 5.039 2.891 1.582 1.191 2.989 2.656 4.004 4.531l-3.496 1.914c-3.672-5-9.023-6.836-14.687-7.91-2.813-.527-5.41.605-7.813 2.051-.39.254-.722.508-1.054.723z" fill="#030304"/><path d="M142.089 131.134l-2.168-1.914c-.117-.098-.43-.156-.469-.117-.097.156-.175.371-.136.547.039.215.156.429.293.605 1.601 2.07 2.031 4.531 2.539 7.031.586 2.793.644 5.586.488 8.379-.117 1.973-.605 3.946-1.016 5.879l-2.109 9.336c-.078.352-.215.664-.312.977-.645 0-1.27.097-1.856-.02-2.773-.527-5.469.391-8.203.43-3.066.039-5.762 1.426-8.633 2.129l-5.918 1.328c-.801.215-1.523.742-2.305 1.133-.585.293-.957.312-1.523-.313-1.191-1.289-2.676-2.324-3.984-3.515l-5.235-4.844c-.683-.606-1.504-1.074-2.187-1.68-.801-.722-1.426-1.68-2.305-2.285-1.504-1.035-2.539-2.52-3.809-3.75-.547-.527-1.406-.977-1.562-1.602-.137-.546.469-1.308.781-1.953l1.66-3.164c.762-1.23 1.445-1.172 2.559-.293 1.387 1.075 2.969 1.914 4.434 2.891 1.191.781 2.441 1.367 3.867 1.504 2.207.215 3.672-1.055 4.297-3.164.644-2.188.156-4.317-.332-6.426l-2.618-10.918-2.636-10.566-1.817-6.075 3.321-1.66c.742-.332 1.015.274 1.289.781l2.539 4.942c1.601 3.242 3.437 6.348 4.609 9.785.254.762.625 1.465.859 2.227.313.996.528 2.031.821 3.046.137.45.293.918.508 1.329.39.781 1.113.918 1.816.664.723-.254 1.055-.918 1.035-1.7 0-.136-.019-.332-.078-.371-1.504-.859-1.055-2.617-1.777-3.867-.899-1.562-1.289-3.398-1.895-5.137.528.411 1.152.743 1.543 1.27.586.742 1.192 1.133 2.129.781.137.528.488.371.82.235.782.175 1.387.996 2.305.546 1.289 1.27 2.539 2.559 2.832 4.473.176 1.113.488 2.207.684 3.32.136.743.507 1.075 1.289.899.703-.176.937-.684.82-1.309-.449-2.07-.586-4.238-1.797-6.093 1.895-.391 3.789-.43 5.645.175.195.137.527.235.586.41.39 1.211.781 2.442 1.074 3.692.273 1.191.371 2.441.625 3.633.137.644.605 1.172 1.308.957.625-.176.879-.742.704-1.465l-1.563-6.309c2.07-.195 3.555 1.407 5.449 1.778 1.543.332 2.5 1.738 2.715 3.398z" fill="#fdfdfd"/><path d="M69.843 46.603c-1.816 2.578-5.371 1.426-6.68-.801l-1.875-3.398c-.352-.625-.234-1.113.313-1.543 1.309-1.035 2.813-1.445 4.453-1.309.371.039.703.469 1.074.723.508-.312 1.035-.781 1.66-.957.488-.137 1.074.039 1.602.117.098.02.234.234.293.215 1.113-.41 1.543.527 2.402 1.269.234-.332.41-.742.723-1.016 1.426-1.289 3.359-1.465 4.805-.254 1.348 1.133 2.578 1.191 4.082.371 1.523-.84 3.184-.82 4.922-.645 1.777.176 3.613-.059 5.43-.117l1.563-.039c.645.039.879.469 1.211 1.035.859 1.484-.019 2.871-.019 4.277 0 .156-.371.43-.586.469l-3.145.293c-1.992.039-3.984-.019-5.957.059-.625.02-1.289.254-1.856.547-2.207 1.133-4.453 1.016-6.641.137-.859-.332-1.27-.176-1.816.449-1.348 1.543-3.125 1.445-4.668.859-.449-.156-.84-.469-1.289-.742zM57.5 56.153c.117-2.129 2.207-3.32 4.199-2.852 1.152.274 2.012.996 3.086 1.25.547.137 1.211.039 1.777-.137l4.785-1.641c1.23-.391 2.383-.078 3.438.605 1.465.957 2.852.938 4.375.02.957-.566 2.09-.879 3.164-1.211 1.191-.371 2.227.195 3.262.664.273.117.703.176.938.039 1.914-1.035 3.848-.957 5.801-.215.234.098.586.274.605.43.098.938.742 1.836.137 2.852-.332.547-.527 1.191-.664 1.816-.117.586-.41.781-.937.664-1.543-.352-2.891.02-4.16.977-.723.547-2.891.117-3.535-.508-.605-.566-1.152-.723-1.953-.195-3.027 2.07-6.172 1.914-9.356.313-.273-.137-.684-.137-.977-.039l-4.492 1.563c-1.836.508-3.652.176-5.273-.742-.684-.391-1.27-.41-1.875-.078-.625.352-1.055.117-1.27-.41-.41-1.035-.723-2.109-1.074-3.164z" fill="#fbfcfe"/><path d="M72.148 100.488l-9.57-.781c-.762-.059-1.094-.469-.937-1.152.176-.801.449-1.621.82-2.344.137-.273.703-.488 1.055-.43 5.996.703 11.992.41 18.008.391h5.82c2.207-.039 4.414-.039 6.621-.195 1.348-.098 1.992.859 1.777 2.285-.293 1.836-.352 1.797-2.207 1.816l-7.871.176H72.187c-.02.078-.02.156-.039.234z" fill="#010204"/><path d="M90.156 76.347l-4.238.605c-7.734.527-15.488.332-23.242.41-2.246.02-2.402-.703-1.934-2.637.352-1.465.469-1.524 2.012-1.504l12.793.02c4.121-.117 8.223-.43 12.344-.703 1.66-.117 2.324.43 2.285 2.09-.039.488-.019.957-.019 1.719z" fill="#010306"/><path d="M114.257 58.887c-1.796 0-3.613-.019-5.41.02a3.82 3.82 0 0 0-1.386.352c-2.168.996-4.395.957-6.641.43l-2.891-.82c-.586-.137-.781-.449-.801-1.016-.039-1.484.645-2.695 1.426-3.848.527-.762 1.27-.918 2.129-.625l1.582.469c1.172.254 2.305.391 3.262-.605.957-1.016 2.227-.957 3.301-.566 1.269.449 2.48.234 3.73.215 1.231-.02 2.461.098 3.672.176.215.02.547.156.586.293.195.918 1.172 1.621.703 2.754-.234.566-.273 1.25-.273 1.875 0 .586-.235.82-.782.84l-2.226.156c.019-.059.019-.078.019-.098z" fill="#fbfcfe"/><path d="M121.523 88.164c-2.929 0-5.859-.02-8.789 0-1.035 0-2.07.098-3.105.195-.723.059-1.074-.312-1.074-.937 0-.801.058-1.641.293-2.383.117-.352.742-.742 1.152-.762l12.559-.176 8.105-.02c1.289 0 1.934.859 1.68 2.168-.254 1.269-.996 1.894-2.246 1.894l-8.575.02z" fill="#010305"/><path d="M98.73 72.344l15.468-.391c.86-.019 1.797-.215 2.11.977.039.156.312.215.449.352.254.273.723.566.684.82-.059.547-.176 1.016-.899 1.387-1.738.879-3.515.547-5.273.625l-8.985.273h-7.597c-1.211 0-1.426-.234-1.406-1.426 0-.254 0-.527.039-.781.195-1.465.645-1.856 2.109-1.875h3.32c-.02.019-.02.039-.02.039z" fill="#010304"/><path d="M67.168 84.981l10.898.391c.879.02 1.758-.019 2.617-.137 1.523-.195 2.07.137 2.402 1.641l.195.762c.234.898-.058 1.563-.977 1.621-1.797.137-3.613.098-5.41.117-.508 0-1.035-.039-1.543-.059l-9.043-.176c-1.289 0-2.559.215-3.848.352-.703.078-1.113-.273-1.113-.898 0-.859.098-1.738.273-2.559.059-.273.527-.586.84-.625l4.707-.43z" fill="#010306"/><path d="M74.844 106.133l7.305-.019c1.016-.02 1.875.859 1.719 1.894 0 .039-.039.059-.039.098-.293 1.504-1.231 2.246-2.793 2.246-3.945 0-7.91-.039-11.875.039-1.836.039-3.672.312-5.508.527-.723.078-1.094-.175-1.113-.84-.02-.8-.078-1.64.137-2.382.117-.391.762-.86 1.191-.899l10.977-.664z" fill="#020407"/><path d="M89.492 85.079l8.613-.684 5.742-.293c1.016-.078 1.719.254 1.797 1.27.078.84-.098 1.719-.254 2.559-.019.117-.508.215-.781.234l-9.785.684-7.246.254c-1.074.02-1.367-.273-1.328-1.328.039-.703.176-1.426.449-2.07.137-.312.644-.586 1.016-.664.566-.117 1.172-.019 1.758-.019.02 0 .02.039.02.059zm15.059 14.804c-1.309 0-2.598-.02-3.887.019-.664.02-.977-.234-.977-.879 0-.449-.039-.918.039-1.367.215-1.465.683-1.855 2.187-1.855l5.938-.02c.976-.039 1.738.176 1.816 1.231.078.859-.098 1.758-.254 2.617-.019.137-.566.254-.859.254h-4.004z" fill="#010305"/><path d="M103.281 126.211l.977 3.398 1.777 6.758 1.035 5.215c.117.84-.039 1.758-.273 2.578-.371 1.289-1.328 1.582-2.832.879-.82-.391-1.563-.898-2.324-1.367.39-.098.761-.215 1.152-.254.254-.02.508.078.762.098 1.484.136 2.129-.469 1.992-1.954-.117-1.171-.43-2.343-.449-3.535-.078-2.539-1.641-4.648-2.012-7.07-.156-.957-.059-1.953-.02-2.93.02-.605.137-1.211.215-1.816z" fill="#f4f6fa"/><path d="M119.434 123.068c-.332.136-.684.293-.821-.235.254-1.875 2.11-1.972 3.301-1.386 1.563.761 2.695 2.031 3.672 3.457 1.211 1.855 1.348 4.023 1.797 6.093.137.625-.098 1.133-.82 1.309-.762.176-1.153-.137-1.29-.899l-.683-3.32c-.293-1.914-1.563-3.203-2.832-4.473-1.035-1.171-1.445-1.269-2.324-.546zm14.531 2.928l1.562 6.309c.196.723-.078 1.269-.703 1.465-.703.195-1.172-.332-1.308-.957l-.625-3.633c-.293-1.25-.684-2.461-1.074-3.692-.059-.175-.391-.273-.586-.41-.137-.625.019-1.074.722-1.191.781-.117 1.524.43 1.739 1.211l.273.898z" fill="#050506"/><path d="M143.613 114.512c.743 0 1.192.82.782 1.406l-3.555 4.609c-.137.176-.567.118-.879.157-.039-.293-.254-.704-.117-.899l3.262-4.922c.117-.176.39-.273.507-.351z" fill="#020305"/><path d="M149.043 120.527c.136.118.585.332.605.586.039.332-.156.899-.43 1.035l-4.316 2.149c-.371.176-.879.664-1.133.039-.137-.332.02-1.113.293-1.27l4.551-2.5c.039-.019.117-.019.43-.039z" fill="#020306"/><path d="M148.769 130.352h-.195c-.508-.079-1.27.253-1.329-.528-.019-.234.762-.625 1.231-.781.566-.195 1.172-.293 1.777-.313.254 0 .664.333.723.567s-.195.723-.41.801c-.567.195-1.192.215-1.797.312v-.058z" fill="#06152f"/><path d="M100.137 110.43l.742 6.035c-.078 0-.156.019-.234.019-.586-1.972-.957-3.984-.508-6.054z" fill="#cdd8e9"/><path d="M103.867 106.954l-3.32 1.621c.371-1.289 1.562-1.855 3.32-1.621z" fill="#dde5f2"/><path d="M100.625 116.484c.078 0 .156-.019.234-.019l.782 3.75c-.157-.215-.411-.391-.469-.625l-.547-3.106z" fill="#d4deef"/><path d="M142.246 131.328c-.059-.078-.117-.137-.156-.215l.156.215z" fill="#fdfdfd"/><path d="M119.434 123.067c.878-.723 1.289-.625 2.304.547-.898.449-1.523-.371-2.304-.547z" fill="#2773f4"/><path d="M167.95 22.305l-24.063 14.668-7.969-4.98a1.51 1.51 0 0 0-2.129.332c-.058-.039-.117-.059-.156-.078-1.152-.586-2.226.137-2.559 1.074-.39.137-.761.41-.957.762-.507.879-.156 1.856.625 2.402l8.223 5.703 3.887 2.676c.605.41 1.133.723 1.894.664.879-.059 1.543-.625 2.227-1.113 5.176-3.535 10.156-7.383 14.922-11.465 1.777-1.523 3.515-3.086 5.215-4.668.351-.215.722-.43 1.074-.664.469-.293.723-.703.801-1.133.254-.254.527-.508.8-.762.313-.293.469-.625.508-.977.86-1.367-.664-3.496-2.343-2.441z" fill="#fff"/></svg>