<svg width="154" height="59" viewBox="0 0 154 59" fill="none" xmlns="http://www.w3.org/2000/svg"><path d="M8.4 43.599c-1.3-.8-1.1-2.7.2-3.2 3.6-1.5 7.4-2.7 11.1-3.9.4-.1 1.1.4 1.7.7-.3.5-.3 1.5-.8 1.7-3.6 1.7-7.3 3.3-10.9 4.8-.4.1-1-.1-1.3-.1z" fill="#020305"/><path d="M5.8 27.399c-.1-.3-.6-1.2-.4-1.7.3-.6 1.3-1.4 1.9-1.3 3.2.2 6.5.7 9.7 1.1.8.1 2.2-.2 2 1.2-.1.7-1.3 1.9-1.9 1.8-3.5-.1-7-.5-10.5-.7-.1 0-.2 0-.8-.4z" fill="#020306"/><path d="M17.101 10.999c.1.1.2.2.3.2.8.7 2.4 1 1.7 2.4-.2.4-2 .2-2.9 0-1.2-.3-2.3-.8-3.4-1.4-.4-.3-.8-1.3-.6-1.8s1.1-1 1.6-.9c1.1.3 2.2.9 3.3 1.5z" fill="#06152f"/></svg>