<svg xmlns="http://www.w3.org/2000/svg" width="512" height="355" fill="none"><g clip-path="url(#B)"><g fill="#000"><path d="M415.252 106.587c3.025 1.341 4.756 3.671 5.536 6.774.612 2.423-.26 4.191-2.567 5.142-2.87 1.187-5.721.705-7.694-1.298-2.084-2.113-2.585-5.018-1.36-7.917l.457-1.106c-2.071-.062-3.995.272-5.838.958-6.859 2.546-12.938 6.242-17.305 12.293-2.82 3.906-4.515 8.152-3.469 13.103.086.42.259 1.014-.334 1.113-.693.111-.619-.557-.712-1.014-1.329-6.854.947-12.621 5.499-17.59 4.886-5.334 10.885-8.944 17.861-10.847 1.707-.47 3.476-.637 5.257-.538.464.025.922.093 1.324-.334 3.383-3.56 7.718-5.402 12.338-6.656 2.789-.76 5.603-1.415 8.43-2.052 1.441-.321 7.446-.964 7.929.488.21.63-.687 1.533-1.318 1.965-1.49 1.02-3.333.692-3.983.6-6.852-1.001-15.171 3.881-16.544 4.524-1.268.587-2.418 1.372-3.507 2.386v.006zm.254 9.444c.13-.025.452-.068.755-.161 1.49-.457 1.744-.877 1.317-2.361-.396-1.359-1.008-2.608-2.134-3.541-2.146-1.774-3.278-1.422-4.026 1.273a3.76 3.76 0 0 0 4.088 4.79z"/><path d="M511.438 44.387c-1.534-2.367-3.847-4.252-5.69-6.397-4.168-4.617-6.945-10.322-10.545-15.476-2.814-4.042-6.308-7.578-9.258-11.508-1.627-2.021-2.882-4.432-4.917-6.069-3.519-2.738-6.364.235-7.904 3.486-2.14 3.764-4.744 7.337-6.778 11.206-4.113 7.244-9.08 13.82-15.487 19.222-1.398 1.193-3.148 2.658-3.439 4.487-.445 3.572 3.878 3.27 6.296 3.127 2.048-.08 4.144.235 6.142.457 2.931.204 4.335 1.632 4.1 4.648-.229 5.538-1.162 10.958-2.115 16.397-1.93 11.41-13.507 24.34-24.411 28.19-1.187.439-3.03 1.558-2.362 2.8 1.787 2.893 9.308-.222 12.289-.346 3.482-.433 6.834-.847 10.13-2.002 3.637-.952 7.36-1.996 10.539-4.116 2.69-1.687 5.764-3.09 8.337-5.062 2.517-1.854 4.675-4.153 6.432-6.749 4.298-6.416 8.677-12.905 10.656-20.384.569-2.2.6-4.598.915-6.873.205-1.947 1.299-3.331 3.241-3.461 4.119-.309 8.393-.111 12.401-1.106 1.898-.593 2.535-2.701 1.471-4.37l-.055-.105h.012v.006z"/></g><path d="M509.817 40.535c-1.534-2.367-3.847-4.252-5.69-6.397-4.168-4.617-6.945-10.322-10.545-15.476-2.814-4.042-6.308-7.577-9.258-11.508-1.627-2.021-2.882-4.432-4.917-6.069-3.519-2.738-6.364.235-7.904 3.486-2.14 3.764-4.75 7.336-6.779 11.206-4.112 7.244-9.079 13.82-15.486 19.222-1.398 1.193-3.148 2.658-3.439 4.487-.445 3.572 3.878 3.27 6.296 3.127 2.047-.08 4.144.235 6.142.457 2.931.204 4.335 1.632 4.1 4.648-.229 5.538-1.163 10.958-2.115 16.397-1.93 11.409-13.507 24.34-24.411 28.19-1.187.439-3.03 1.558-2.363 2.8 1.788 2.893 9.308-.223 12.289-.346 3.482-.433 6.835-.847 10.131-2.003 3.637-.952 7.36-1.996 10.539-4.116 2.69-1.687 5.764-3.09 8.337-5.062 2.517-1.854 4.675-4.153 6.432-6.749 4.298-6.415 8.677-12.905 10.656-20.384.569-2.2.6-4.598.915-6.873.204-1.947 1.299-3.331 3.241-3.461 4.119-.309 8.393-.111 12.4-1.106 1.899-.593 2.536-2.701 1.466-4.37l-.055-.105h.012l.006.006z" fill="#43bf7c"/><mask id="A" maskUnits="userSpaceOnUse" x="189" y="47" width="221" height="202"><path d="M409.401 47.063H189.084V248.54h220.317V47.063z" fill="#fff"/></mask><g mask="url(#A)"><path d="M380.822 137.908c-.692-.389-1.676-.025-2.245.389-1.781 1.237-2.913 3.227-3.377 5.322-.179.155-.358.284-.464.414l-.024.025a5.54 5.54 0 0 0-.668.698 90.75 90.75 0 0 1-7.168 6.533c-.153.12-.169.128-.05.025a6.68 6.68 0 0 1-.544.414l-1.082.828-2.01 1.496-1.262.878-.513-.334c.024-.08.08-.155.105-.235l.464-.927 1.416-3.072c.773-1.99 1.521-4.388.928-6.533-.26-.983-.773-1.681-1.546-2.324-.464-.358-.953-.593-1.213-1.007-1.496-2.299-4.484 1.471-5.133 2.583l-6.785 11.645c-2.245 3.875-4.873 7.775-6.32 12.033-.514 1.577-1.213 3.975.903 4.549 6.03 1.601 12.115 3.567 17.422 6.929 1.286.828 2.523 1.706 3.661 2.713 1.392 1.187 2.369 2.51 4.379 1.811 3.581-1.267 6.679-4.283 9.153-7.046 1.237-1.397 3.402-6.168.415-6.842.024 0-.235-.235-.334-.414 0-.025 0-.049-.025-.08.049-.105.13-.235.179-.334.545-.983 1.058-1.99 1.448-3.047.389-1.113.952-2.763.235-3.875-.668-1.008-1.905-.674-2.734-.105-.334.235-.668.463-1.033.673.309-.803.643-1.576.983-2.373.106-.235.205-.464.31-.674.024-.08.08-.154.13-.259a45.95 45.95 0 0 1 .903-1.651c.698-1.267 1.57-3.282.952-4.697-.334-.748-.952-1.057-1.627-.983.724-1.625 1.114-3.331.854-4.932 1.057-1.86 1.732-3.925 2.041-6.094.154-.643-.05-1.731-.724-2.095v-.025zm-76.949 10.171l-2.734-4.932c-.359-.674-1.262-.773-1.905-.519-2.115.853-4.305 1.73-6.191 3.022-2.09 1.422-3.865 3.282-5.337 5.346-2.994 4.185-5.418 8.752-7.403 13.481-.415.958-1.293 4.752.903 4.549 3.426-.31 6.834-.853 10.18-1.57.544.259 1.082.488 1.651.747 1.88.853 3.865-1.65 4.638-3.071.569-1.032 2.066-4.389.545-5.427.204-.828.358-1.681.519-2.503.05-.235.105-.488.13-.748 1.212.179 2.913-1.422 3.457-2.169 1.107-1.527 2.604-4.29 1.553-6.2l-.006-.006z" fill="#fff"/><path d="M342.76 163.439l-8.535-.934-7.551-.828-11.572-1.217-12.684-1.502c-.619-.081-1.262.179-1.881.284l-.228-2.015c1.107-.463 2.269-.772 3.271-1.366 3.921-2.348 4.899-4.444 2.889-8.548l-2.604-5.89c-.489-.983-1.311-1.755-2.01-2.633 2.659-5.42 3.562-11.286 4.36-17.201.878-6.428 1.991-12.837 2.919-19.265l2.146-15.965 1.398-9.889c.025-.154.08-.334.105-.488l.52-7.182c.105-1.292.358-2.584.519-3.875.204-1.755.26-3.535.643-5.266.773-3.511 3.043-7.411 8.177-7.849a160.91 160.91 0 0 0 9.283-1.057c2.863-.414 5.696-1.082 8.559-1.57 1.652-.284 3.328-.513 5.004-.643 3.043-.229 6.086-.414 9.128-.488 2.369-.049 4.744.26 7.088.185 3.532-.105 7.063-.439 10.594-.618l9.228-.383c4.28-.154 8.56-.538 12.815-.383 3.247.105 6.549.674 9.716 1.453 3.117.748 5.282 3.851 5.257 7.108 0 2.089-.155 4.234-.544 6.304-1.448 7.491-2.79 15.007-4.596 22.417-1.057 4.364-2.789 8.548-4.385 12.782l-7.328 18.851c-1.782 4.598-3.408 9.246-5.394 13.764-1.212 2.763-2.659 5.501-5.083 7.491-.359.285-.773.52-1.132.773-.13-.389-.204-.853-.439-1.187-.643-.982-1.936-1.087-2.555-.235-1.805 2.429-3.481 4.982-5.467 7.257-1.88 2.144-4.076 3.974-6.11 5.939.204-.902.544-1.885.643-2.868.13-1.291.569-2.867.025-3.875-1.311-2.478-2.703-5.012-5.208-6.613-1.775-1.137-3.247-.983-4.354.822-1.441 2.348-2.659 4.802-4.026 7.206-1.033 1.781-2.091 3.567-3.198 5.297-1.212 1.91-2.628 3.746-3.717 5.736-1.521 2.633-3.197 5.167-3.686 8.189v-.024zm16.013-81.227c.259.309.618 1.112 1.001 1.137.953.049 2.091 0 2.864-.464.748-.439 1.317-1.397.928-2.534-.31-.902-.514-1.836-.749-2.763-.309-1.292-.773-1.755-1.88-1.113-2.579 1.52-5.411.204-8.015 1.082-.105.025-.26-.025-.334-.105-1.367-1.057-2.604-.309-3.921.154-.439.154-1.367.105-1.497-.154-.878-1.681-2.14-1.187-3.352-.698-1.522.593-2.938 1.446-4.484 1.91-.668.204-1.985-.025-2.245-.488-.823-1.471-1.961-1.341-3.222-1.088-2.783.544-5.696.538-8.096 2.398-.699.544-1.212.958-.878 1.805.334.902.439 2.169 1.905 1.885 1.317-.235 2.579-.668 3.89-.902 1.317-.26 2.628-.723 3.766.698.415.519 1.441.618 2.214.698 2.295.284 4.231-.853 6.241-1.675.358-.154.977-.105 1.261.13 1.083.803 2.344 1.187 3.458.674 2.164-.983 4.385-.13 6.549-.569 1.417-.284 2.938-.025 4.589-.025l.007.006zm-26.211-16.54l-.514-.803c-.414-.773-.847-1.551-1.236-2.349-.693-1.372-1.621-1.657-2.864-.698-1.262.983-2.474 2.04-3.637 3.121-.927.878-.878 2.169.05 3.257.538.649 1.855.674 2.758 0 .229-.154.415-.365.699-.618.309.544.594.958.823 1.397 1.366 2.788 3.506 2.534 5.467.933.594-.488 1.286-.902 1.88-1.316 1.806 1.706 3.018 1.811 4.973.569.284-.179.698-.309 1.008-.284 1.595.179 3.117.025 4.409-.983 1.547 1.267 1.93 1.372 3.891 1.063 1.107-.179 2.294-.154 3.327-.569 1.96-.773 2.734-2.917 1.886-4.802-.105-.204-.544-.365-.798-.334-1.107.179-2.22.513-3.327.643-.544.049-1.342-.05-1.627-.414-.698-.878-1.416-1.137-2.424-.723-.699.284-1.391.593-2.09.853-.285.105-.699.235-.854.105-1.008-.828-1.985-.439-2.962 0-.569.26-1.083.618-1.596.927-1.497-1.576-2.369-1.755-4.28-.748-1.033.569-1.96 1.187-2.962 1.78v-.006zm3.086 29.006c0-.155.025-.284.025-.439l7.916.884c1.212.105 2.474.154 3.661 0 .44-.049.903-.748 1.107-1.242.081-.179-.439-.927-.748-.958-2.888-.309-5.801-.649-8.689-.729-4.719-.105-9.463.049-14.176.019-1.082 0-2.115-.025-2.498 1.137-.285.853.618 1.341 2.399 1.341l11.009-.025-.006.012zm41.864-10.934c.025-.08.05-.179.081-.26.414 0 .853-.025 1.261 0 1.237.08 2.27-.389 2.579-1.576.235-.902.105-1.966-.099-2.893-.049-.235-1.082-.284-1.651-.365s-1.416.105-1.651-.204c-.594-.773-1.213-.723-2.01-.593-.823.155-1.701.05-2.474.309a34.6 34.6 0 0 0-4.459 1.86c-.334.179-.644.983-.545 1.366.514 2.015.749 2.534 3.173 1.916.953-.26 1.985-.544 2.938-.463s1.88.593 2.863.902h-.006zm-36.49 36.794v-.081c.798 0 1.652.13 2.4-.049.414-.105.878-.723.977-1.187.05-.284-.544-.958-.903-1.007-3.457-.334-6.908-.544-10.334-.804l-7.422-.649c-1.441-.13-2.863-.365-4.305-.284-.667.025-1.725.544-1.88 1.057-.309 1.032.724 1.242 1.522 1.316l5.312.39 14.64 1.298h-.007zm8.968 9.141v-.05h.39c.853.05 1.546-.204 1.626-1.186.081-1.033-.569-1.218-1.441-1.243-1.595-.049-3.197-.21-4.793-.364l-11.188-1.193c-1.546-.155-3.117-.285-4.694-.309-1.132 0-1.905.877-1.472 1.601.204.358.773.649 1.187.698l10.465 1.014 9.926 1.038-.006-.006zm4.057-26.342v.309c.798 0 1.652.13 2.4-.05.414-.105.903-.723 1.008-1.211.13-.593-.204-1.057-1.033-1.088l-9.122-.26c-.414 0-.854-.024-1.262-.024l-10.025-.161c-.204 0-.439.025-.619.155-.513.333-1.391.414-1.187 1.396.179.853.853.928 1.571.934l18.276.006-.007-.006zm-18.127 9.036c.025-.08.025-.179.05-.26l6.834-.333c.853-.025 1.391-.415 1.391-1.292 0-.983-.643-1.088-1.466-1.057-1.725.074-3.457-.056-5.158.13-3.271.358-6.469-.031-9.666-.754-1.318-.285-2.709-.365-4.02-.285-.545.025-1.448.643-1.522 1.113-.154.927.643 1.211 1.522 1.162.464-.025.927.025 1.391.105l10.644 1.477v-.006zm-1.039 23.709v-.08c.334.024.668.024 1.008.049.847.025 1.416-.389 1.416-1.267 0-.803-.463-1.032-1.286-1.112-4.224-.39-8.454-.934-12.71-1.373-1.595-.154-3.197-.284-4.768-.185-.489.025-1.262.828-1.286 1.316-.081.853.723 1.008 1.546 1.008 1.651.025 3.302.154 4.923.34l11.163 1.298-.006.006zm27.924-14.457v.105c.594 0 1.262.155 1.75-.049a2.14 2.14 0 0 0 1.083-1.236c.204-.699-.285-.983-1.033-1.008l-13.149-.908c-.594-.025-1.286.049-1.806.334-.359.204-.773.877-.668 1.211.105.365.749.803 1.157.828l12.654.73.012-.007zm-3.779-28.023v.08c-1.132 0-2.319-.13-3.426.049-.594.105-1.441.723-1.546 1.211-.18.958.723 1.008 1.496 1.032l6.704.235c1.262.049 2.524.179 3.792.235.822.025 1.441-.389 1.521-1.211.081-.878-.439-1.211-1.317-1.242-2.4-.08-4.793-.26-7.218-.389h-.006zm13.705 20.433c1.213.05 2.4.18 2.45-1.186.074-1.447-1.188-1.187-2.116-1.292-1.88-.154-3.791-.389-5.671-.47-.668-.024-1.416.13-2.035.39-.334.154-.699.803-.618 1.137.08.365.643.828 1.033.853 2.399.259 4.793.414 6.957.568zm-20.31-4.11v.081c-.464 0-1.002-.155-1.367.024-.569.285-1.392.748-1.447 1.243-.105.853.692 1.057 1.497 1.057.667-.025 1.342.105 2.01.179l5.028.568c.798.081 1.317-.309 1.416-1.112.13-.828-.285-1.187-1.132-1.267l-6.005-.779v.006zm-23.712-7.114c.464 0 1.033.155 1.367-.049.439-.26.773-.804.927-1.267.074-.235-.414-.878-.699-.903a87.21 87.21 0 0 0-5.801-.259c-.439 0-.977.154-1.286.439-.334.309-.724.927-.619 1.242.105.365.749.723 1.188.748 1.651.105 3.271.056 4.923.056v-.007zm33.898-1.149c-.334.284-1.342.748-1.416 1.341-.155 1.162.977 1.057 1.83 1.112 1.547.106 3.117.235 4.664.415.853.105 1.472-.155 1.595-1.008.13-.748-.074-1.421-1.107-1.471-1.676-.049-3.352-.21-5.566-.389zm-39.137 23.802c-.13-.204-.334-.829-.544-.798-1.651.025-3.272.155-4.898.359-.26.024-.668.772-.569.982.179.359.668.748 1.057.804 1.107.154 2.27.21 3.377.235.878-.025 1.441-.439 1.571-1.576l.006-.006zm49.886-31.083c-.464.049-.977-.049-1.286.154-.415.26-.823.698-.928 1.137-.05.284.414.902.748.983 1.058.235 2.165.389 3.222.34.415-.025 1.033-.618 1.132-1.057.13-.544 0-1.267-.952-1.292-.668.025-1.311-.155-1.936-.26v-.006z" fill="#43bf7c"/><path d="M275.094 84.265c2.641 1.317 5.121 2.985 7.558 4.66 4.076 2.911 9.531 6.317 9.166 11.891-.563 4.988-6.989 7.275-11.584 6.521-2.511-.303-5.09-1.625-7.304-1.978-3.334-.426-3.656 4.012-4.614 6.348-1.002 3.195-2.4 6.341-4.033 9.296-2.146 3.702-3.914 6.854-7.792 7.151-2.907.142-6.061-1.212-8.987-.544-3.735.791-5.795 4.839-3.005 7.824 2.69 3.326 8.324 4.395 9.029 9.142.563 3.133-.464 8.239-1.824 12.058-1.59 4.747-4.694 9.141-8.64 11.879-20.874 14.711-59.398-5.846-54.487-32.325 1.515-8.313 4.02-16.588 8.293-23.95 4.286-7.095 11.318-11.978 18.777-15.334 4.138-1.86 8.436-3.294 12.71-4.846 15.084-5.05 31.653-14.809 46.632-7.85l.099.049.006.006zm67.667 79.171c.489-3.047 2.165-5.581 3.587-8.189 1.082-1.991 2.505-3.795 3.717-5.73l3.198-5.297 4.026-7.206c1.107-1.805 2.554-1.96 4.354-.822 2.498 1.6 3.89 4.134 5.207 6.613.545 1.007.105 2.583-.024 3.875-.106.983-.439 1.966-.644 2.868l6.111-5.94c1.985-2.274 3.661-4.827 5.467-7.256.619-.853 1.911-.748 2.554.235.235.334.285.773.44 1.187l-2.579 3.566c-1.083 1.397-2.116 2.893-3.402 4.104-3.686 3.511-7.477 6.922-11.269 10.303-.797.699-1.781 1.212-2.733 1.706-.309.155-1.033 0-1.188-.259-.235-.334-.284-1.057-.074-1.366 2.449-3.332 2.864-7.566 5.239-10.823l-4.664-5.247-1.676 3.022c-1.936 3.721-3.946 7.386-6.735 10.588-.952 1.112-1.497 2.559-2.344 3.77-2.659 3.82-3.562 8.474-6.24 12.553 10.26 1.607 19.642 4.734 26.6 12.46l1.856-1.65 2.399-2.04c1.441-1.211 2.839-2.503 4.36-3.64.334-.26 1.033 0 1.547 0-.106.519-.075 1.137-.334 1.52-1.033 1.496-2.14 2.918-3.247 4.339-1.163 1.496-2.295 3.047-4.589 3.845 1.131.933 2.034 1.86 3.092 2.503 1.985 1.242 2.653 2.787 1.855 4.963l-8.306 22.182c-.878 2.324-1.96 4.599-3.043 6.842l-7.533 15.52c-.228.464-.439.927-.773 1.316-4.409 5.087-9.332 9.426-16.296 10.483-1.596.235-3.272-.025-4.923-.105-.928-.05-1.856-.21-2.783-.21-3.173 0-6.055-.958-8.838-2.405-2.678-1.421-5.492-2.639-8.04-4.264-2.938-1.91-5.647-4.16-8.399-6.329-.854-.674-1.596-1.502-2.369-2.299l-5.981-6.41-5.826-6.224c-1.441-1.496-3.117-2.763-4.378-4.394-1.002-1.267-1.701-2.843-2.264-4.395-.309-.877.464-1.52 1.342-1.885.928-.358 1.75-.049 2.06.723 1.212 2.998 3.915 4.679 5.875 7.028 1.93 2.348 4.094 4.524 6.185 6.743 1.775 1.941 3.531 3.9 5.387 5.76 1.237 1.243 2.628 2.349 3.995 3.461 1.286 1.033 2.758 1.861 3.94 2.973 2.344 2.219 5.127 3.616 7.966 5.093 4.044 2.071 8.275 2.689 12.709 3.004 5.078.365 9.123-1.545 12.759-4.802.309-.285.619-.594.953-.853 2.034-1.706 3.636-3.665 4.774-6.144 2.474-5.476 5.239-10.798 7.867-16.218.594-1.211 1.082-2.478 1.577-3.745l6.76-17.64c.464-1.267.798-2.559 1.138-3.616l-6.364-6.638c-1.855-2.04-3.816-3.85-6.469-4.784-.668-.235-1.392-.544-1.88-1.007-2.035-1.885-4.565-2.479-7.138-3.023-3.222-.673-6.394-1.656-9.666-2.045-2.524-.285-5.127.105-7.706.309-.31.024-.724.698-.798 1.137l-1.212 7.516c-.235 1.291-.644 2.534-1.058 3.77-.39 1.187-.365 2.169.724 3.022 1.7 1.317 3.012 2.948 3.661 5.093.383 1.317.204 2.145-.699 2.479-.903.309-1.831-.334-2.4-1.373-.822-1.551-1.725-3.071-2.702-4.518-.18-.284-.823-.284-1.262-.389-.334-.08-.853-.049-1.002-.26-.204-.284-.179-.772-.154-1.162.049-.519.179-1.007.284-1.495.179-.773.204-1.626.569-2.324 1.008-1.966 1.342-4.03 1.472-6.224.155-2.584.26-5.167 1.472-7.621.823-1.681 2.189-1.836 3.637-1.959 2.164-.18 4.354-.18 6.524-.309.334-.025.879-.204.953-.464.668-1.805 1.855-3.436 1.886-5.476h-.074zm-40.949-24.627c.668.878 1.522 1.681 2.01 2.633.978 1.91 1.676 3.949 2.604 5.89 2.01 4.11 1.027 6.199-2.888 8.548-.977.593-2.14.903-3.272 1.366l.229 2.015c-.544.674-.26 1.86-1.602 2.089-1.286.235-1.831-.08-1.571-1.341.18-.828.204-1.471-.488-2.17-.823-.803-.384-1.835.334-2.478.773-.674 1.781-1.082 2.684-1.601l3.377-1.91c.668-.414.748-1.032.414-1.78l-3.346-7.441-11.497 8.313c-.643.488-1.188 1.242-1.571 1.99l-5.727 11.311c-.569 1.162-.798 2.478-1.318 4.159 3.897-2.324 7.942-1.415 11.758-2.009 3.247-.488 6.339.285 9.023 2.046 2.579 1.706 5.282 3.257 7.347 5.761 3.581 4.363 7.472 8.529 11.108 12.843 1.342 1.601 2.319 3.486 3.532 5.217.358.519.927.877 1.261 1.372.334.519.823 1.267.668 1.706-.179.544-.952 1.112-1.521 1.186-1.472.229-2.579-.593-3.482-1.706L313 186.369l-8.633-10.154c-.928-1.057-2.344-1.682-3.353-2.689-2.888-2.893-6.314-3.436-10.155-2.899-1.286.179-2.628-.08-3.915.05-1.626.154-3.302.309-4.818.797-3.247 1.057-6.37 2.503-9.617 3.535-1.781.569-3.711.643-5.591.822-.334.025-.723-.488-1.082-.772.309-.309.594-.748.952-.927l6.909-2.763c.284-.105.544-.488.618-.804.489-2.039.749-4.159 1.423-6.149 2.48-7.362 4.335-14.877 5.393-22.572.154-1.187-.05-2.454-.285-3.641-.618-3.022.619-4.907 3.612-5.346.569-.074 1.163-.204 1.905-.334-1.212-2.12-2.264-4.24-3.532-6.199-1.929-3.022-4.02-5.995-6.054-8.937-.18-.285-.749-.464-1.107-.414-1.497.204-2.654.982-3.557 2.219-.259.333-.952.358-1.416.543-.13-.488-.464-1.032-.383-1.495.439-2.194 1.676-3.77 4.15-4.339-.569-.723-1.132-1.292-1.466-1.99-.204-.439-.05-1.032-.074-1.552.463.13 1.032.18 1.391.439 1.058.773 2.091 1.626 3.093 2.479.259.21.569.488.618.772.284 2.095 1.93 3.332 3.012 4.883l7.446 10.464c.594.828 1.237 1.601 1.88 2.404.774.958 1.782 1.941 1.083 3.282-.674 1.242-1.88 1.755-3.328 1.706-.977-.025-1.985 0-3.067 0 1.496 5.451-.674 10.278-1.008 15.316.154-.105.389-.21.488-.365 1.961-3.591 5.109-5.964 8.405-8.158 2.01-1.342 3.946-2.788 6.006-3.999.748-.52 1.88-.544 2.888-.773h-.019zm-30.861 5.983c.13 2.559-.464 5.087 1.002 7.361.439.674.513 1.496-.26 2.04s-1.521.309-2.01-.39c-.643-.933-1.497-1.965-1.62-3.022-.359-3.022-.464-6.069-.489-9.116 0-.674.594-1.626 1.188-1.966.414-.235 1.521.235 1.905.723 1.521 1.861 2.888 3.851 4.248 5.841.155.235-.074 1.082-.284 1.162-.414.154-1.107.105-1.392-.155-.853-.747-1.546-1.656-2.294-2.478h.006zm100.477 12.565c.154-.284.389-.772.723-1.186l5.647-6.508a2.94 2.94 0 0 1 1.237-.829c.284-.105.822 0 1.008.204.179.204.179.699.074 1.008-.952 3.177-3.377 5.395-5.313 7.93-.334.438-.903.803-1.416 1.032-1.008.439-2.01-.34-1.96-1.657v.006zm8.535 2.432c-.155.593-.18.927-.334 1.242l-2.4 4.728c-.204.39-.488.903-.878 1.032-.513.18-1.342.31-1.676.025-.359-.259-.569-1.211-.359-1.625.748-1.496 1.701-2.918 2.579-4.339.26-.439.514-.878.854-1.242.358-.359.878-.928 1.212-.853.439.08.723.723 1.002 1.032zm-102.302-30.624c.025.284 0 .593.05.878.074.723-.075 1.316-.903 1.396-.823.05-1.497-.414-1.442-1.242.05-.853.39-1.706.749-2.503.13-.26.748-.464 1.057-.39.26.081.415.619.514.958.08.285.025.594.025.878l-.05.025zm103.327 39.067c-.309.747-.643 1.755-1.138 2.657-.13.235-.798.365-1.082.26s-.693-.723-.619-.902c.489-1.088.953-2.25 1.757-3.072.513-.544 1.033.105 1.082 1.057z" fill="#000"/><path d="M358.773 82.214c-1.651 0-3.172-.235-4.613.05-2.165.439-4.385-.389-6.55.562-1.107.488-2.4.13-3.451-.674-.285-.235-.903-.26-1.262-.13-2.01.828-3.946 1.959-6.24 1.675-.773-.105-1.806-.21-2.214-.698-1.132-1.422-2.449-.933-3.767-.698l-3.89.902c-1.472.284-1.571-1.007-1.905-1.885-.334-.853.204-1.292.878-1.805 2.425-1.885 5.338-1.885 8.096-2.398 1.262-.235 2.4-.383 3.222 1.088.26.464 1.571.674 2.245.494 1.547-.464 2.988-1.316 4.484-1.91 1.237-.488 2.474-.983 3.352.698.13.26 1.058.309 1.497.154 1.317-.463 2.554-1.242 3.915-.154.105.08.26.13.334.105 2.579-.878 5.436.414 8.015-1.082 1.107-.668 1.596-.179 1.881 1.112l.748 2.763c.359 1.112-.179 2.064-.928 2.534-.773.464-1.911.544-2.863.464-.39-.049-.724-.853-.978-1.162l-.006-.006zm-26.21-16.541l2.937-1.755c1.905-1.007 2.759-.828 4.28.748.514-.309 1.033-.674 1.596-.927.977-.439 1.96-.828 2.962 0 .155.13.594 0 .848-.105l2.09-.853c1.008-.414 1.726-.154 2.424.723.285.358 1.083.464 1.627.414 1.132-.13 2.22-.463 3.327-.643.26-.049.724.13.798.334.848 1.885.099 4.03-1.88 4.802-1.033.414-2.22.389-3.327.569-1.961.309-2.344.204-3.89-1.063-1.287 1.007-2.808 1.162-4.41.983-.334-.025-.724.105-1.008.284-1.961 1.236-3.173 1.137-4.973-.569l-1.88 1.317c-1.96 1.601-4.1 1.86-5.467-.933l-.823-1.397-.699.618c-.903.674-2.22.643-2.758 0-.903-1.112-.977-2.404-.049-3.257l3.636-3.121c1.237-.958 2.165-.674 2.864.698l1.237 2.349.538.773v.012z" fill="#fff"/><path d="M335.649 94.679H324.64c-1.781 0-2.653-.464-2.4-1.347.359-1.162 1.417-1.162 2.499-1.137l14.175-.019c2.913.056 5.802.414 8.69.729.309.025.822.773.748.958-.229.488-.668 1.187-1.107 1.236-1.212.154-2.449.105-3.661 0l-7.917-.884c0 .154-.024.309-.024.464h.006z" fill="#000"/><path d="M377.514 83.746c-.953-.309-1.905-.828-2.889-.902-.952-.08-1.985.229-2.937.464-2.4.618-2.653.105-3.173-1.91-.105-.414.204-1.211.544-1.366 1.447-.723 2.938-1.341 4.459-1.86.774-.26 1.676-.179 2.474-.309.798-.155 1.417-.204 2.01.593.229.309 1.083.13 1.652.204.593.08 1.602.13 1.651.365.235.927.334 1.99.105 2.893-.309 1.187-1.342 1.65-2.579 1.576-.414-.025-.847 0-1.262 0 0 .08-.024.179-.049.26l-.006-.006z" fill="#fff"/><path d="M341.023 120.538l-14.614-1.323-5.313-.389c-.822-.08-1.831-.309-1.521-1.316.154-.52 1.212-1.033 1.88-1.057 1.416-.081 2.863.179 4.304.284l7.422.649 10.335.803c.358.025.952.724.903 1.008-.105.463-.569 1.082-.978 1.187-.748.204-1.595.049-2.399.049-.025.049-.025.08-.025.105h.006zm8.967 9.142l-9.926-1.039-10.465-1.013c-.439-.05-.977-.334-1.187-.699-.439-.747.334-1.625 1.472-1.6 1.571.024 3.117.154 4.688.309l11.188 1.193 4.793.364c.878.025 1.546.235 1.441 1.243-.08.982-.773 1.211-1.626 1.186h-.39v.05l.012.006zm4.059-26.342c-6.086 0-12.165 0-18.276-.006-.723 0-1.391-.105-1.571-.933-.204-.958.668-1.032 1.188-1.397.154-.105.414-.154.618-.154l10.026.16c.414 0 .853.025 1.261.025l9.123.26c.822 0 1.162.488 1.033 1.087-.106.464-.569 1.082-1.009 1.212-.748.204-1.595.049-2.399.049v-.309l.006.006zm-18.129 9.037l-10.644-1.453c-.464-.049-.928-.13-1.391-.105-.879.049-1.677-.26-1.522-1.162.08-.463.953-1.082 1.522-1.112 1.342-.075 2.733 0 4.02.284 3.197.698 6.395 1.088 9.666.754 1.701-.179 3.427-.05 5.158-.13.798-.025 1.472.08 1.466 1.057 0 .878-.544 1.242-1.391 1.292l-6.835.334c-.024.049-.024.129-.049.234v.007zm-1.038 23.707l-11.163-1.267-4.923-.34c-.823-.025-1.627-.154-1.546-1.007.049-.489.822-1.292 1.286-1.317 1.571-.105 3.198.025 4.769.186l12.709 1.372c.823.08 1.286.309 1.286 1.112 0 .878-.544 1.267-1.416 1.267a13.44 13.44 0 0 1-1.002-.049v.049-.006zm27.924-14.458l-12.654-.705c-.439-.025-1.058-.464-1.157-.828-.105-.334.309-1.008.668-1.212.513-.284 1.212-.389 1.806-.333l13.149.908c.748.05 1.237.309 1.033 1.008a2.26 2.26 0 0 1-1.083 1.242c-.488.204-1.163.049-1.75.049-.025-.08-.025-.105 0-.129h-.012zm-3.779-28.022l7.218.389c.903.025 1.392.365 1.311 1.242-.074.828-.699 1.267-1.521 1.211l-3.792-.235-6.704-.235c-.773-.025-1.676-.08-1.496-1.032.105-.519.952-1.113 1.546-1.211 1.107-.204 2.27-.049 3.426-.049v-.08h.012zm13.705 20.433l-6.957-.568c-.39-.05-.928-.495-1.033-.853-.081-.309.284-.983.618-1.137.619-.285 1.367-.439 2.035-.39l5.671.47c.928.08 2.19-.155 2.116 1.292-.05 1.372-1.213 1.242-2.45 1.186zm-20.31-4.109l6.005.748c.853.08 1.262.439 1.132 1.267-.105.803-.643 1.186-1.417 1.112l-5.028-.568c-.668-.081-1.342-.204-2.01-.18-.822.025-1.626-.179-1.496-1.056.049-.464.878-.958 1.447-1.237.359-.179.903-.024 1.367-.024v-.05-.012zm-23.713-7.113c-1.627 0-3.272.05-4.899-.025-.439-.024-1.082-.414-1.187-.747s.284-.958.618-1.243c.31-.284.854-.439 1.287-.439l5.801.26c.26.025.748.674.693.902-.155.489-.514 1.008-.928 1.267-.359.204-.928.025-1.392.025h.007zm33.899-1.149l5.567.414c1.001.05 1.212.699 1.107 1.471-.13.853-.749 1.113-1.596 1.008l-4.663-.414c-.854-.05-1.986.049-1.831-1.113.074-.593 1.107-1.057 1.416-1.366zm-39.137 23.801c-.13 1.137-.724 1.551-1.571 1.551l-3.377-.235c-.415-.049-.878-.438-1.058-.803-.105-.21.334-.958.569-.983a52.06 52.06 0 0 1 4.898-.358c.205.024.44.649.545.828h-.006zm49.885-31.082c.619.105 1.287.26 1.936.284.953.025 1.083.748.953 1.292-.105.439-.724 1.032-1.132 1.057-1.082.049-2.165-.105-3.222-.334-.334-.08-.798-.698-.749-.983.105-.439.514-.878.928-1.137.309-.235.798-.13 1.286-.179z" fill="#000"/></g><path d="M238.015 21.76c-.018.328.05.773-.08 1.143l-1.67 4.184a14.81 14.81 0 0 0-.649 2.052l-.761 3.733c-.062.352-.241.55-.606.649-1.126.253-2.177-.012-3.198-.408-.631-.241-1.292-.47-1.744-1.026-.148-.185-.309-.439-.321-.668-.05-1.737.5-3.362 1.051-4.963l2.028-5.229c.192-.457.514-.865.817-1.261.396-.501 1.076-.482 1.589-.068.155.13.421.124.65.167.426.068.773.185.965.649.074.167.402.21.599.346.143.099.223.303.365.365.26.136.563.21.965.346v-.012zm-15.486 1.464l1.008-.056c.136 0 .297.037.414.117.643.433 1.342.494 2.078.34.081-.019.241.124.26.21l.39 2.608c.142.933.03 1.879.358 2.8.235.655.34 1.372.415 2.064.031.204-.155.525-.341.661-.927.68-2.01.822-3.117.797-.661-.012-1.329-.025-1.985-.297-.291-.124-.47-.229-.594-.532-.717-1.898-.909-3.869-.915-5.866 0-.55.099-1.1.179-1.644.019-.179.167-.346.254-.519.173-.278.359-.328.711-.253.34.068.817.142.878-.433h.007z" fill="#000"/><path d="M246.799 50.279c-2.102 4.277-5.065 7.905-8.17 11.465-3.277 3.813-7.464 6.292-11.608 8.882-1.014.637-1.948 1.465-2.932 2.157-3.234 2.281-6.951 3.381-10.675 4.401-6.005 1.632-12.122 2.843-18.356 3.294-1.682.111-3.407-.173-5.114-.284-.545.006-1.404-.21-1.602.074-.872 1.137-1.998 1.329-3.105.915-1.354-.501-1.688-1.898-1.67-3.171.019-1.298.173-2.664.668-3.82 1.546-3.436 3.297-6.805 4.997-10.173.211-.396.545-.754.841-1.137 1.021-1.298 2.017-2.627 3.099-3.906.526-.637 1.175-1.205 1.837-1.712 1.923-1.434 3.915-2.825 5.869-4.234.835.247 1.689.661 2.554.705.458 0 1.169-.544 1.349-.995.111-.272-.551-1.261-.872-1.28-2.208.031-2.276-1.514-2.456-3.047 1.602-2.954 4.163-4.116 7.348-3.634 1.812.272 3.537 1.02 5.319 1.502.358.099.785.08 1.113-.043 1.948-.779 3.81-1.774 5.807-2.355 3.804-1.082 7.682-1.57 11.64-.89l9.339 1.539c2.078.358 3.921 1.119 4.613 3.338.205.779.13 1.595.167 2.398v.012zM207.137 70.28c.006.056.037.08.043.136l5.845-1.811c.247-.087.377-.476.55-.698-.334-.161-.723-.55-1.033-.482-2.492.525-5.028.909-7.434 1.712-4.966 1.681-9.957 3.189-15.294 2.732-.409-.037-.848.358-1.287.556.378.272.687.723 1.101.791 4.626 1.007 9.079.074 13.477-1.366 1.348-.476 2.69-1.038 4.032-1.57zm12.054-5.859c.136.155.241.315.371.476 2.963-1.873 5.999-3.647 8.863-5.649 4.162-2.911 7.663-6.545 10.749-10.563.297-.383.414-1.372.148-1.656-.594-.649-1.125-.037-1.583.476-1.8 2.027-3.532 4.098-5.424 6.051-1.967 2.046-3.995 4.067-6.16 5.909-1.695 1.44-3.624 2.584-5.455 3.894-.538.321-1.008.692-1.509 1.069v-.006z" fill="#43bf7c"/><path d="M201.453 48.487c.179 1.533.278 3.072 2.455 3.047.316-.006.983 1.007.872 1.279-.204.457-.884 1.026-1.348.995-.866-.012-1.689-.433-2.554-.705-1.392-1.329-1.163-3.029-1.07-4.679.024-.291.389-.562.587-.847l1.058.909zm5.684 21.792l-4.038 1.545c-4.391 1.44-8.85 2.373-13.477 1.366-.414-.093-.748-.513-1.101-.791.44-.198.879-.593 1.287-.556 5.368.457 10.328-1.02 15.295-2.732 2.399-.803 4.935-1.218 7.434-1.712.309-.068.668.321 1.032.482-.173.247-.327.643-.55.698l-5.844 1.817c-.031-.025-.038-.056-.044-.111l.006-.006zm12.054-5.861l1.479-1.094 5.454-3.894c2.165-1.836 4.194-3.863 6.16-5.909l5.424-6.051c.458-.513.984-1.15 1.584-.476.266.284.148 1.279-.149 1.656-3.086 4.017-6.586 7.652-10.749 10.563-2.863 2.009-5.9 3.776-8.862 5.649-.099-.13-.205-.29-.341-.451v.006zm25.395 15.213c-.595-.013-1.11-1.069-1.297-1.731-.388-1.33.06-2.58 2.789-6.563 3.21-4.678 4.4-5.587 5.918-5.801.234-.033 1.552-.221 1.919.301.535.742-1.544 2.005-3.758 5.106-3.056 4.277-4.18 6.857-4.18 6.857-.314.722-.769 1.851-1.391 1.838v-.007zm-37.504 18.834c.662-.414.268-1.992.234-2.152-.562-2.246-2.896-3.442-5.317-4.625-2.481-1.216-5.624-2.767-8.499-1.55-.254.107-1.552.655-1.498 1.243.073.835 2.775.361 6.359 2.012 2.528 1.163 5.491 3.382 6.581 4.204.642.461 1.605 1.203 2.14.869zm4.382-6.909c-1.458-1.825-2.461-1.784-5.518-4.631-.622-.582-.922-.902-.862-1.143.14-.521 1.966-.441 3.491.227.729.321 1.297.795 2.414 1.731 1.745 1.47 2.628 2.225 2.829 3.275.207 1.083-.134 2.393-.636 2.533-.461.127-.775-.809-1.718-1.985v-.007zm22.998-9.188c-.877-.956-1.191-1.851-1.298-2.199-.448-1.457-.167-2.5.241-3.99.127-.474.254-.802.642-1.083.756-.555 2.26-.755 2.842-.354.722.501-.669 1.457-.622 3.722.02.976.288 1.17.214 2.312-.02.287-.147 2.332-.929 2.379-.341.02-.676-.341-1.09-.789z" fill="#000"/><path d="M160.81 180.643c-1.936-3.263-.668-1.415-7.391-13.999-10.798-20.217-13.798-24.469-11.899-27.047 1.893-2.571 7.335-1.675 17.274-.037 9.747 1.601 10.427 3.381 16.779 3.511 9.574.204 11.776-3.746 16.031-1.607 4.31 2.169 3.117 6.755 9.005 18.418 3.754 7.442 5.628 11.157 8.819 12.3 8.473 3.035 16.816-11.045 24.04-8.053 4.552 1.885 2.715 8.096 8.689 17.899 6.148 10.087 16.254 16.904 19.377 14.939 2.622-1.657-.693-8.888 2.313-10.792 2.239-1.422 5.647 1.613 10.959 4.37 14.231 7.38 25.444 4.104 26.978 9.314 1.039 3.535-3.748 6.323-2.412 8.573 1.893 3.183 13.198.519 20.725-2.429 7.02-2.751 8.226-4.759 15.387-6.743 6.29-1.743 9.76-2.708 12.951-1.082 6.952 3.523 4.404 15.106 9.679 16.811 5.251 1.7 10.211-8.974 18.338-7.843 1.954.272 4.051 2.027 8.164 5.532 14.002 11.916 17.082 14.679 21.702 19.753 7.632 8.381 8.133 10.643 7.539 12.213-.885 2.337-3.946 2.485-10.149 6.836-4.336 3.047-4.973 3.338-5.146 4.123-.655 2.905 3.692 4.938 9.339 11.78 4.193 5.087 6.717 8.146 6.315 11.583-.384 3.238-3.223 5.575-12.258 10.612-11.801 6.582-12.648 5.315-21.993 10.872-7.781 4.623-10.984 7.973-14.788 6.595-3.377-1.218-6.055-5.736-6.413-6.348-1.893-3.251-1.386-4.833-2.907-5.971-2.808-2.107-8.003.674-11.801 2.417-7.155 3.276-15.226 4.048-22.728 6.422-19.074 6.032-21.851 1.316-34.369 6.897-6.11 2.726-7.31 4.413-12.814 5.68-2.134.495-9.809 2.052-21.696-1.384-7.069-2.04-10.279-4.302-34.449-20.229-14.274-9.401-14.454-9.475-15.592-10.606-12.165-12.189-12.239-25.366-20.477-26.584-4.169-.618-4.886 2.646-13.019 3.245-2.356.173-8.059.532-13.792-2.076-7.224-3.282-10.489-9.451-14.726-17.442-4.929-9.302-7.73-14.587-5.523-18.363 2.666-4.561 9.704-1.91 25.203-6.082 9.933-2.67 15.969-4.295 17.336-8.579 1.725-5.414-5.857-9.333-16.588-27.405l-.012.006z" fill="#196efd"/><path d="M305.686 199.524c.142 1.008-.786 1.657-2.01 5.495-.26.81-.501 1.65-.081 2.139.334.383 1.052.389 2.103.278 13.532-1.372 17.342-4.08 17.342-4.08 5.078-1.854 2.746-.747 12.437-4.091l12.852-4.623c1.645 2.157 3.847 5.42 5.715 9.753 2.028 4.709 1.824 6.409 3.562 7.349.792.432 2.697 1.087 15.239-4.951 4.701-2.262 6.389-3.301 8.486-2.602 1.775.587 2.034 1.811 5.281 6.44 2.264 3.226 4.484 6.36 7.744 9.444 1.639 1.552 3.29 3.189 5.912 4.821 2.27 1.409 4.472 2.899 6.34 4.833 1.193 1.243 1.923 2.652 1.75 4.426-.105 1.032-.724 1.699-1.652 2.033-.865.309-1.781.031-2.17-.729-1.825-3.548-5.424-4.846-8.48-6.817-1.818-1.169-3.809-2.188-5.052-3.956-3.779-5.371-9.574-9.012-12.537-15.093-5.492 4.703-11.8 7.274-18.325 9.45 4.818 9.376 9.469 18.74 16.29 26.781.068.08.106.179.174.259 4.088 4.828 3.952 6.187-2.295 8.215-8.875 2.88-17.96 5.111-26.953 7.627-4.156 1.162-3.909 1.069-2.27 5.055 1.812 4.407 4.027 8.418 7.107 12.115 2.616 3.133 5.442 5.76 8.998 7.75 1.819 1.014 4.175 2.071 3.822 4.685-.34 2.491-2.498 3.579-4.657 4.463-.828.339-1.867.197-2.56 1.137 2.226 2.639 5.319 4.444 7.261 7.361.383.575.903.581 1.602.284.927-.395 2.102-.309 2.937-.816 6.5-3.949 13.681-6.514 20.323-10.204 6.457-3.585 12.877-7.169 18.845-11.552 2.321-1.701 2.742-3.776 1.262-6.224-3.297-5.476-7.131-10.519-11.294-15.346-2.894-3.362-4.366-7.38-5.473-11.589-.532-2.033-1.249-3.708-3.816-1.799-1.181.878-2.981.767-3.828 2.349-.347.655-1.107.995-1.843.513-.668-.439-.866-1.187-.582-1.916.254-.649.551-1.446 1.083-1.798 2.375-1.577 4.762-3.171 7.304-4.457 1.422-.717 2.77.186 3.772 1.36.947 1.113 1.664 2.386 2.023 3.776 1.49 5.736 4.737 10.402 8.714 14.661 3.884 4.153 6.593 9.147 9.704 13.845 1.997 3.01 1.565 6.662-1.522 8.782-5.473 3.758-10.545 8.035-16.575 11.113-7.223 3.69-14.917 6.329-21.968 10.353-2.238 1.273-4.694 1.935-7.508 2.361-.872.352-2.214.729-3.612.328-1.867-.544-1.639-1.842-4.836-5.186-1.429-1.49-4.305-4.191-4.496-5.377-.013-.081-.056-.439-.316-.6-.297-.185-.736-.006-1.082.087-1.484.402-2.994.766-4.416 1.347-5.065 2.065-10.273 3.659-15.697 4.333-7.52.933-13.971 4.685-20.694 7.689-7.019 3.133-14.107 5.352-21.962 5.154-4.725-.117-9.456.872-14.156 1.83-6.216 1.267-12.469-.031-18.641-1.014-10.613-1.687-19.655-6.996-28.561-12.59-.952-.599-1.936-1.168-2.845-1.823-.6-.433-1.713-.754-.971-1.83.563-.822 1.293-.309 1.886.087 2.586 1.706 5.418 2.917 8.17 4.302 11.498 5.803 23.743 8.424 36.552 8.659 4.001.074 5.956-1.205 6.853-5.044 1.898-8.115 2.387-16.379 1.929-24.692-.074-1.328-.371-2.651-.396-3.974-.092-5.142-.068-5.191-4.947-5.723-6.971-.766-13.149-3.949-19.606-6.286l-7.261-2.651c.47 2.614 2.276 4.048 3.451 5.828 2.759 4.178 2.332 5.451-2.276 7.157-12.041 4.444-24.139 8.758-35.537 14.754-2.443 1.285-4.719 1.205-6.914-.464-.978-.742-2.023-1.434-2.87-2.312-6.649-6.891-15.493-10.494-23.366-15.532-4.317-2.762-8.838-5.198-13.142-7.979-2.425-1.564-4.565-2.015-6.977-.099-.946.754-2.115 1.298-3.265 1.7-1.447.501-2.963.525-3.507-1.329-.519-1.774.705-2.342 2.134-2.682.377-.093.73-.297.989-.402.204-.674-.123-.927-.532-1.02-5.127-1.168-8.126-4.802-10.798-8.98-2.486-3.888-5.22-7.621-7.91-11.379-3.884-5.414-5.362-11.725-6.742-18.041-.68-3.116.885-5.557 4.54-6.163 5.344-.883 10.557-2.546 16.043-2.608 8.071-.093 15.01-3.844 22.135-6.978 1.435-.63 1.28-1.458.6-2.645-1.645-2.849-3.265-5.699-5.393-8.227-1.293-1.526-2.214-3.226-1.979-5.327.142-1.298.921-2.046 2.202-2.188 1.404-.155 2.251.698 2.232 1.947-.024 1.545.934 2.416 1.701 3.485 1.194 1.669 2.449 3.307 3.457 5.087l11.504 20.693c1.027 1.91 1.855 2.874 4.181 1.687 3.741-1.903 7.86-2.262 12.01-1.971 6.531.451 12.388-1.162 18.289-4.166 8.868-4.524 18.213-8.103 27.317-12.164 2.623-1.168 5.121-2.608 7.651-3.98.594-.321 1.014-.593 1.082-.964.105-.575-.526-1.137-.835-1.403-1.694-1.446-2.536-2.17-5.251-3.369-1.138-.5-3.389-2.732-7.891-7.194-2.796-2.769-4.28-4.104-4.497-4.549-2.498-5.173-6.036-9.809-8.009-15.248-.47-1.291-.853-1.495-2.133-.809-13.285 7.107-27.547 11.854-41.704 16.799-3.921 1.372-8.145 1.916-12.165 3.177-2.295.717-4.688.241-6.871-.847-.532-.266-1.145-.606-1.058-1.354.074-.686.482-1.168 1.231-1.069 6.246.841 10.984-3.486 16.519-5.081 6.327-1.817 12.302-5.099 19-7.28-7.434-6.317-8.653-15.6-12.593-23.475-1.187-2.379-1.824-4.091-5.689-3.356-6.791 1.298-13.873 1.07-20.812.074-3.136-.451-4.775-2.676-3.742-5.018.699-1.589 2.258-2.812 3.643-1.669 2.888 2.386 6.278 1.768 9.333 1.786 4.539.025 9.19.427 13.674-1.211 2.276-.835 4.144.451 5.548 2.336 1.861 2.503 2.938 5.396 4.286 8.616 4.459 14.852 8.968 18.709 12.53 19.03 2.845.26 4.002-1.835 14.8-5.501 4.558-1.545 8.009-2.416 10.267-.766.63.464 2.022 1.749 2.937 3.708.415.89.025 1.323.786 2.497 2.876 4.438 1.991 5.884 5.374 10.365 1.243 1.645 2.27 2.652 4.33 4.667 2.987 2.923 5.436 4.79 10.223 8.98 4.465 3.907 1.126 1.23 3.086 2.967.965.853 1.416 1.162 1.67 1.873.377 1.032.111 2.188-.408 3.455-.711 1.73-2.097 2.794-3.637 3.603-3.63 1.916-7.335 3.684-10.984 5.563-.754.389-1.843.34-2.047 1.564-.687 4.134-3.154 7.491-4.942 11.143-5.3 10.829-7.229 22.492-8.831 34.396 2.783-.297 5.201-.056 7.65.327 9.129 1.441 17.54 5.087 26.025 8.425 5.474 2.151 11.188 2.41 16.854 3.214 1.199.173 1.744-.124 1.806-1.613l1.212-22.98c.507-9.964 1.602-19.791 5.517-29.13 1.88-4.487 3.383-9.129 5.083-13.777-2.226-.222-4.273-.395-6.191-1.217l-25.431-10.965c-1.187-.519-1.732-.778-2.115.73-.538 2.107-1.992 2.385-3.816 1.594-2.072-2.571-.297-4.895.587-7.188.588-1.527 1.25-2.41 2.109-2.682 1.274-.408 2.617.519 3.334.995 3.068 2.039 6.698 3.072 10.001 4.709 2.69 1.335 3.265 1.342 4.947 1.923 1.707.587 2.845 1.118 3.68 1.502 2.802 1.273 7.484 2.904 12.605 4.684 5.257 1.83 7.094 2.324 7.285 3.653l-.018-.031zM176.753 238.79c.34 1.749 1.144 3.06 1.992 4.321 3.055 4.53 5.733 9.302 7.687 14.376 4.695 12.151 13.86 20.619 23.249 28.956 1.193 1.057 2.164 1.329 3.766.427 3.934-2.219 8.195-3.702 12.462-5.235 7.626-2.738 15.295-5.322 23.168-7.782-1.571-2.41-3.117-4.561-4.428-6.848-2.332-4.079-5.702-4.79-10.019-3.782-4.181.976-6.284-1.274-5.511-5.507l1.924-10.285c.167-.847.321-1.576-.44-2.213-2.294-1.922-3.525-4.58-4.477-7.268-1.676-4.741-5.022-8.369-7.7-12.448-.582-.884-1.064-.612-1.738-.408-3.791 1.143-7.694 1.143-11.584.983-3.859-.155-7.508.432-11.095 1.959-4.175 1.78-6.624.946-8.597-3.128a102.02 102.02 0 0 0-7.966-13.591c-7.131 4.407-14.373 8.746-22.859 9.426-5.263.42-10.186 2.348-15.424 2.577-.94.043-1.831.223-1.367 1.675 1.243 3.894 1.608 8.078 3.797 11.663l11.114 18.109c1.454 2.343 3.624 3.789 6.383 3.641 5.102-.266 10.217-.73 14.107-4.728.495-.513 1.027-1.107 1.664-1.335 2.319-.841 1.88-2.071.779-3.653-1.818-2.621-3.531-5.334-4.23-8.499-.724-3.306 1.064-6.001 4.181-5.655 3.012.328 5.634-.637 8.411-1.181 2.004-.389 4.051-.593 6.086-.822 1.02-.111 2.288-.228 2.337 1.23.044 1.261-1.125 1.224-2.053 1.243-2.734.074-5.189 1.162-7.663 2.157-1.88.754-3.711 1.644-5.956 1.619v.006zm123.886-25.643c-.507 1.897-1.874 3.609-.458 4.691 2.326 1.767 2.4 4.227 2.672 6.564.365 3.127 1.169 6.051 2.802 8.702 3.172 5.155 5.894 10.717 9.796 15.254 7.669 8.925 14.714 12.992 26.001 9.283 8.665-2.843 17.57-4.95 26.371-7.361 4.039-1.106 4.082-1.131 1.417-4.574-2.128-2.744-4.93-4.987-6.34-8.257-2.115-4.92-4.818-9.518-7.409-14.185-3.389-6.1-7.026-12.114-8.436-19.061-.55-2.701-1.812-2.88-4.082-2.132l-19.37 6.088c-6.21 1.879-12.555 3.084-19.074 2.775-2.189-.105-3.791.136-3.896 2.206l.006.007zm56.182 77.604c-4.348-2.114-6.674-5.606-9.42-8.721-3.407-3.856-5.64-8.269-7.322-13.041-1.126-3.202-2.703-4.586-6.742-4.339-9.184.557-15.152-5.766-20.854-11.842-1.367-1.459-2.573-1.978-4.113-1.261-4.206 1.953-8.696 2.324-13.192 2.608-1.509.093-1.775.637-1.818 2.009-.143 4.704-.582 9.401-.637 14.104-.038 2.992-1.101 4.679-4.212 4.803-.78.031-1.769-.13-1.738 1.15.037 1.631-.062 3.288.173 4.888 1.144 7.702 4.564 14.612 7.607 21.664.872 2.021 1.788 2.194 3.643 1.582 9.197-3.004 18.87-3.956 28.307-5.544 10.267-1.724 19.804-5.421 30.318-8.054v-.006zm-197.12-88.333c-1.008 1.224-2.127.816-2.801-.179-2.27-3.362-3.81-7.182-6.507-10.291-.426-.494-.111-1.248.446-1.594.73-.451 1.422-.068 1.868.531 1.391 1.873 2.739 3.783 4.075 5.705.922 1.329 1.287 2.998 2.542 4.141.464.427.612 1.038.377 1.687zm-6.914 5.421c-.593 1.514-1.682 1.328-2.424.488-1.627-1.842-3.074-3.845-4.001-6.156-.291-.736-.217-1.422.519-1.885.557-.353 1.348-.519 1.688.006 1.417 2.225 3.489 4.048 4.225 6.694.08.278 0 .605 0 .846l-.007.007zm63.921-25.905l.971 1.669 3.451 7.219c1.188 2.596 1.856 5.421 3.847 7.639.668.748 1.002 2.114-.012 2.757-1.392.89-1.398-.655-1.973-1.422-3.575-4.759-4.546-10.723-7.44-15.785-.297-.513-.612-1.162 0-1.675.266-.229.699-.26 1.169-.414l-.013.012zm9.783-3.286l3.711 5.792 6.401 10.068c.353.569.854 1.298.05 1.891-.773.569-1.373.062-1.769-.581-3.117-5.025-6.506-9.895-8.541-15.507-.081-.229.037-.525.155-1.656l-.007-.007zm-57.102-20.028c3.451-2.874 7.465-4.728 11.738-6.088.637-.203 1.237-.191 1.435.612.136.55-.062 1.051-.587 1.267l-12.215 5.056-.371-.853v.006zm12.838 5.074c-.223.161-.588.532-1.027.729l-6.988 3.072c-.835.365-1.646.439-2.023-.562-.34-.909.452-1.249 1.07-1.564l6.847-3.381c.655-.321 1.342-.507 1.979.087.426.402.445.877.148 1.619h-.006zM378.388 275.52c.872.544 1.595 1.526.773 2.435-1.429 1.576-3.21 2.892-5.282 3.504-.94.278-1.769-.445-1.781-1.594-.013-1.323 4.867-4.766 6.29-4.345zm-181.819-70.613c-1.534-.563-3.346-1.002-2.647-2.868.693-1.848 2.381-1.045 3.711-.513 1.286.513 3.166.816 2.424 2.8-.748 2.015-2.362.859-3.488.581zm178.714 66.305c-1.392.939-3.124 1.78-5.072 1.6-.816-.074-1.33-1.26-.655-1.928 1.403-1.391 3.271-1.953 5.226-1.687.717.099 1.008.933.501 2.008v.007zm9.345-47.05c-1.039 1.192-2.443 1.285-3.878 1.007-.903-.173-1.583-.871-1.051-1.774.965-1.632 2.727-.97 4.144-.989.686-.006 1.033.872.779 1.756h.006zm-1.912 9.36c1.058.352 1.441 1.144 1.181 2.139-.309 1.174-1.261 1.644-2.35 1.236-.934-.346-1.354-1.236-.983-2.244.359-.97 1.088-1.415 2.152-1.131zm-177.431-41.608c.977.056 1.54.303 1.744.964.507 1.638 2.796 3.585 1.287 4.685-.959.699-1.083-2.454-1.992-3.659-.414-.55-.649-1.23-1.033-1.99h-.006zm-10.707 54.335c-.458-.124-.934-.34-.909-.971.018-.55.284-1.026.89-1.063 5.227-.278 9.927-2.404 14.739-4.166.698-.253 1.441-.098 1.83.693.334.68.081 1.248-.532 1.551-5.022 2.509-10.291 4.03-16.018 3.95v.006zm21.165 1.947c-.594.971-1.503 1.422-2.48 1.756l-11.597 3.943c-.835.278-1.898.89-2.387-.303-.396-.964.606-1.384 1.324-1.73 4.23-2.046 8.479-4.067 13.154-4.933.99-.185 2.171-.42 1.986 1.274v-.007zm-59.677-18.741c.539.192.569.581.594.995.241 3.727 2.53 6.36 4.849 8.95.785.878 1.806 1.836.755 2.837-1.373 1.31-1.893-.482-2.499-1.199-2.245-2.689-4.15-5.594-4.738-9.141-.16-.977-.278-2.083 1.033-2.448l.006.006zm6.797 1.224c1.361.482 3.569 6.879 2.771 7.806-.736.859-1.769.915-2.053-.352-.446-1.991-1.231-3.851-1.856-5.773-.328-.995.037-1.786 1.138-1.688v.007zm45.358 30.486c-.111-.112-.507-.383-.464-.507.112-.34.34-.76.643-.909l6.037-2.892c.352-.167.785-.241 1.094.16.272.353.303.705.044 1.101-.501.766-6.414 3.319-7.348 3.047h-.006zM259.5 216.24c.334-.098.748-.377 1.051-.284l12.302 3.962c.798.272 1.997.63 1.602 1.854-.433 1.329-1.547.686-2.338.39l-11.195-4.339c-.667-.26-1.323-.575-1.422-1.589v.006zm2.64 12.013c1.632.581 3.203 1.378 5.009 1.372.711 0 1.503.136 1.534 1.119.025.945-.687 1.261-1.423 1.23-3.364-.136-6.345-1.527-9.295-2.979-.439-.217-.767-.761-.526-1.311.285-.649.86-.816 1.515-.587l3.179 1.156h.007zm.544-18.558c3.921.878 7.811 1.842 11.8 2.306.544.062 1.07.327 1.02.921-.08.865-.797.76-1.391.636-3.952-.834-7.861-1.792-11.423-3.857l-.006-.006zm-1.831 39.281c-.365.785-1.076 1.187-1.948.884-.885-.309-1.219-1.156-.94-1.997.284-.871 1.045-1.242 1.973-.92.934.327 1.212 1.019.921 2.033h-.006zm74.031-20.746c-.191.21-.352.556-.599.636l-9.556 3.103c-.587.179-1.169-.266-1.422-.908s-.124-1.403.408-1.644c3.235-1.465 6.525-2.844 10.112-3.078.971-.062 1.156.97 1.057 1.885v.006zm2.888-12.018c-.346.204-.73.562-1.181.686l-9.741 2.546c-.854.217-1.701.173-1.924-.877-.179-.829.378-1.366 1.114-1.589 3.302-1.001 6.531-2.299 10.025-2.589 1.28-.106 1.998.234 1.719 1.823h-.012zm-20.149 74.126c-.519 1.007-.81 2.453-2.276 2.002-1.305-.402-.853-1.693-.618-2.651l4.317-17.591c.235-.939.223-2.28 1.713-2.033 1.713.284 1.206 1.601.965 2.676l-4.094 17.597h-.007zm-11.244 1.279l2.418-12.844.934.149c0 4.382-1.057 8.609-2.226 12.825l-1.132-.124.006-.006zm27.559-8.724c-.458.773-1.119 1.354-2.152.995-.996-.346-1.392-1.118-1.076-2.144.327-1.07 1.224-1.379 2.146-1.101.977.291 1.329 1.138 1.082 2.25z" fill="#000"/><path d="M264.626 314.392c-2.338-1.768-3.284-.829-7.168-3.295-2.814-1.786-2.845-2.503-5.449-4.301-.977-.674-8.188-5.65-11.361-3.449-2.449 1.699-1.126 6.749-2.839 7.175-1.416.353-2.517-3.047-4.731-2.867-1.627.129-3.235 2.144-3.662 3.986-.303 1.304.075 2.182-.334 2.38-.791.395-2.189-2.992-4.471-3.214-1.651-.167-3.055 1.366-5.591 4.586-3.068 3.888-4.88 5.748-5.164 8.739-.112 1.187.451 3.152 1.577 7.022 1.286 4.413 1.929 6.619 2.727 8.455 1.887 4.351 3.136 7.231 6.166 9.314 2.746 1.885 5.659 2.225 7.459 2.435 4.119.482 4.886-.748 9.178-.142 3.897.544 4.342 1.712 6.309 1.15 2.758-.785 2.449-3.227 5.881-5.019 2.326-1.211 2.919-.328 6.166-1.718 1.8-.773 3.662-1.564 5.022-3.295 1.856-2.361.916-4.091 2.295-8.887 1.249-4.339 2.27-3.801 2.727-6.595.712-4.333-1.082-9.71-4.731-12.467l-.006.007z" fill="#196efd"/><path d="M267.119 323.107c.371 1.427.278 2.936-.217 4.481-.476 1.483-1.626 2.429-3.21 2.83a1.32 1.32 0 0 0-.043-.358c-.086-.334-.315-.575-.699-.766a23.46 23.46 0 0 1-2.325-1.342c-2.01-1.291-3.6-3.016-5.177-4.746-.222-.241-.445-.439-.767-.204-.179.129-.21.265-.179.401.031.118.117.241.204.359l1.491 2.175c1.28 2.269 3.247 3.826 5.541 5.062.365.198.748.322 1.181.198.693.773 1.145 1.657 1.392 2.59.946 3.622-1.237 7.998-4.435 9.364-1.236.531-2.572.661-3.89.853-.884.129-1.762.302-2.634-.013.278-.439.383-.748.309-1.02-.05-.185-.173-.352-.384-.537-.686-.6-1.404-1.168-2.041-1.811-.766-.779-1.434-1.663-1.935-2.621-.359-.686-.705-1.372-1.095-2.046-.464-.809-1.157-1.502-1.404-2.435a1.57 1.57 0 0 1-.043-.191c-.006-.038-.013-.075-.025-.112-.111-.426-.396-.729-.915-.593-.526.136-.563.569-.489 1.026a6.46 6.46 0 0 0 .13.606c.13.506.322.989.581 1.458.6 1.082 1.114 2.201 1.645 3.313.563 1.187 1.262 2.361 2.351 3.239.445.352.903.704 1.199 1.199-.779-.105-.773-.105-.834.692-.087 1.131-.174 2.256-.6 3.338-.761 1.922-2.344 3.01-4.466 3.047-.903.018-1.769-.13-2.641-.322.093-.247.211-.506.143-.766-.007-.031-.019-.062-.031-.087-.47-1.069-.81-2.181-1.466-3.183-.736-1.118-1.361-2.342-1.806-3.566-.254-.692-.52-1.403-.711-2.126-.279-1.063-.39-2.163-.062-3.319.037-.136.043-.253.012-.359-.062-.234-.272-.401-.587-.463-.47-.093-.761.154-.878.562-.279.934-.551 1.861-.446 2.85.112 1.026.229 2.033.489 3.022.185.711.439 1.403.822 2.083.755 1.36 1.522 2.738 2.097 4.197-1.713 1.489-3.766 1.736-5.888 1.483-2.01-.241-3.754-1.236-5.597-1.947-2.783-1.082-4.731-3.059-6.444-5.309-.242-.322-.402-.686-.514-1.069-.396-1.379-1.107-2.615-1.861-3.826a4.66 4.66 0 0 1-.551-1.292c-.117-.451-.173-.927-.185-1.409-.007-.303-.05-.594-.118-.872-.124-.482-.346-.933-.649-1.347-.724-1.001-1.2-2.102-1.503-3.27-.05-.191-.093-.377-.136-.574-.031-.149-.068-.291-.105-.439-.167-.637-.39-1.267-.551-1.904-.136-.513-.235-1.032-.235-1.57-.012-1.502.161-2.96 1.12-4.357 1.107-1.62 2.09-3.332 3.179-4.97.358-.537.544-1.149.705-1.767a8.62 8.62 0 0 1 .352-1.088c.594-1.397 1.849-1.743 3.043-.816 1.076.835 2.115 1.712 3.272 2.448.767.488 1.466 1.1 2.399 1.316-.068.383.371.847-.167 1.144-1.224.673-2.269 1.6-3.519 2.237-1.744.884-2.517 2.392-2.919 4.135-.025.124.006.26-.167.29-.81.155-1.571.575-2.424.513-.396-.03-.73.025-.767.47-.006.081 0 .148.012.204.074.272.359.352.668.371.662.043 1.293-.105 1.924-.315.89-.297 1.212-.118 1.484.717.179.556.396 1.1.606 1.65.118.29.198.507.247.68.124.476-.061.618-.773 1.162-.29.222-.6.432-.896.649-.266.198-.489.426-.619.729-.049.124-.074.241-.043.352.018.081.068.155.154.223.198.154.427.123.6-.031.78-.692 1.67-1.236 2.518-1.842.327-.235.488-.55.389-.921-.012-.043-.031-.093-.049-.142-.631-1.49-.934-3.078-1.417-4.617l-.055-.173c-.025-.093-.031-.179.037-.253.519-.569.829-1.311 1.577-1.682 1.651-.822 3.03-2.014 4.49-3.102.365-.272.618-.631.618-1.076 0-.482-.068-.945-.185-1.403-.142-.544-.353-1.063-.606-1.576.352-1.057.519-2.144.686-3.238.186-1.218.724-1.725 1.905-1.886-.055.143-.055.266-.031.377.05.186.192.34.347.501 1.249 1.298 2.597 2.485 4.125 3.48.563.364.977.785 1.132 1.384.061.223.08.476.061.761-.105 1.415.025 2.849-.377 4.246-.093.315-.117.568-.062.772.075.291.31.495.749.655.426.155.866.279 1.286.439.705.272 1.503.532 1.905 1.125.34.501.755.748 1.256.964 1.051.458 1.954 1.144 2.962 1.675.254.13.538.285.742-.043.074-.111.087-.21.068-.29-.037-.155-.204-.266-.359-.365-.915-.594-1.719-1.323-2.659-1.885-.278-.167-.439-.359-.489-.557-.08-.302.087-.63.47-.939.118-.093.26-.167.372-.26l1.762-1.44c.136-.111.297-.247.254-.408-.013-.037-.031-.074-.062-.117-.204-.247-.421-.099-.612.068a12.81 12.81 0 0 1-2.078 1.452c-.458.254-.804.575-.829 1.169-.823-.575-1.67-.983-2.579-1.274-.347-.111-.841-.136-1.002-.371-.019-.024-.031-.049-.037-.08-.068-.253.26-.587.352-.896.402-1.403.798-2.794.798-4.265 0-.278-.012-.531-.074-.766a1.55 1.55 0 0 0-.278-.575c-.47-.618-1.132-1.014-1.714-1.502.916-1.236 1.398-2.62 1.652-4.098.142-.809.297-1.619.643-2.379.322-.705.872-1.1 1.682-1.113.241 0 .489-.024.718.025 3.463.735 6.617 1.978 8.739 4.895.451.624 1.261.81 1.911 1.069.859.346 1.62.878 2.498 1.156 1.757.556 3.291 1.446 4.694 2.577.668.538 1.2 1.162 1.652 1.886.822 1.316 1.979 2.398 2.919 3.64a7.53 7.53 0 0 1 1.317 2.658m-26.421 6.588c.173.674.705.983 1.398.835.767-.161 1.169-.68 1.002-1.515-.21-.63-.662-1.019-1.41-.859-.792.173-1.175.693-1.002 1.478 0 .018.012.043.012.061zm-5.721-5.395a.35.35 0 0 0 .013.037c.222.797.878 1.044 1.688.97.773-.34 1.256-.89 1.052-1.681-.198-.773-.823-1.212-1.645-1.014-.86.21-1.324.822-1.101 1.681m-.019 6.849c.21.797.804 1.1 1.62 1.019.86-.272 1.33-.84 1.176-1.637-.007-.044-.019-.081-.025-.118-.204-.785-.878-1.18-1.732-.952-.792.21-1.249.816-1.039 1.657 0 .012 0 .018.006.031m-5.139 7.046c.21.809.853 1.124 1.731.97.774-.328 1.219-.841 1.009-1.644-.007-.025-.013-.05-.025-.08-.235-.767-.866-1.113-1.633-.921-.822.21-1.299.84-1.082 1.668m-5.362-4.301c.167.642.649.896 1.36.816.631-.223 1.076-.606.928-1.323a.57.57 0 0 0-.025-.105c-.173-.668-.668-.995-1.41-.81-.686.173-1.027.661-.872 1.354 0 .018.006.037.012.061m-.235 9.191c.007.031.019.062.031.099.204.612.687.81 1.318.729.587-.29 1.02-.686.859-1.31-.012-.037-.018-.074-.037-.111-.204-.563-.692-.89-1.342-.686-.643.198-.996.636-.829 1.279zm47.264-21.101c-.384-1.465-1.07-2.855-2.035-4.135-.458-.605-.921-1.137-1.367-1.65-.525-.599-1.014-1.168-1.336-1.675-.723-1.156-1.57-2.12-2.597-2.948-1.942-1.564-3.952-2.664-6.148-3.356-.123-.037-.457-.21-.699-.34-.402-.21-.896-.464-1.472-.698l-.439-.167c-3.203-3.987-7.755-5.347-10.959-6.026-.736-.155-1.354-.136-1.695-.124h-.074c-2.591.049-4.774 1.465-5.832 3.795-.266.593-.464 1.174-.612 1.73-.946-.754-2.202-1.1-3.464-.933-2.628.352-4.527 1.78-5.405 3.993-.05-.037-.099-.08-.149-.118-1.682-1.304-3.76-1.767-5.708-1.26-1.954.506-3.562 1.928-4.404 3.906-.253.593-.414 1.149-.55 1.662-.074.266-.124.452-.161.538a90.9 90.9 0 0 0-1.496 2.349c-.551.884-1.07 1.724-1.615 2.515-1.694 2.473-1.898 4.945-1.88 6.824 0 .816.124 1.638.371 2.589.105.402.223.779.322 1.113l.229.785c.018.08.043.167.062.247a13 13 0 0 0 .179.76c.451 1.725 1.169 3.282 2.14 4.636.025.791.13 1.551.315 2.262.229.865.575 1.687 1.039 2.429.563.915 1.138 1.885 1.398 2.788.272.939.668 1.742 1.206 2.453 1.763 2.312 4.305 5.161 8.349 6.731.415.161.848.352 1.312.55 1.533.668 3.265 1.416 5.399 1.675 2.511.303 4.762.031 6.723-.822.352.185.742.328 1.144.42.965.217 2.263.458 3.735.427 4.008-.074 7.261-2.293 8.696-5.927.062-.149.111-.297.167-.445.866.012 1.614-.099 2.165-.18l.204-.031.507-.074c1.299-.179 2.913-.408 4.564-1.112 5.282-2.262 8.516-8.894 7.063-14.482 0-.012 0-.018-.006-.031a8.38 8.38 0 0 0 2.529-3.832c.755-2.361.854-4.66.291-6.829l-.006.018z" fill="#000"/><path d="M11.746 183.125c-1.534 2.027-.717 2.843-2.857 6.205-1.546 2.435-2.171 2.46-3.723 4.716-.581.847-4.892 7.089-2.987 9.827 1.472 2.12 5.845.977 6.216 2.454.309 1.224-2.641 2.176-2.486 4.098.118 1.409 1.855 2.8 3.457 3.164 1.132.26 1.892-.061 2.066.291.34.686-2.591 1.891-2.789 3.869-.142 1.428 1.181 2.639 3.971 4.839 3.371 2.658 4.985 4.222 7.576 4.469 1.027.099 2.727-.389 6.086-1.366 3.822-1.112 5.733-1.669 7.329-2.355 3.766-1.631 6.265-2.713 8.071-5.334 1.633-2.373 1.93-4.895 2.109-6.452.421-3.567-.643-4.228-.124-7.942.476-3.369 1.478-3.758.996-5.458-.68-2.386-2.795-2.12-4.348-5.087-1.051-2.008-.285-2.521-1.491-5.334-.668-1.557-1.354-3.164-2.857-4.345-2.047-1.607-3.544-.791-7.7-1.984-3.76-1.081-3.29-1.965-5.715-2.355-3.754-.611-8.411.94-10.805 4.098l.006-.018z" fill="#196efd"/><path d="M19.297 180.968c1.237-.321 2.542-.241 3.884.192 1.286.414 2.109 1.403 2.455 2.781a1.2 1.2 0 0 0-.309.037c-.291.074-.501.272-.662.606-.34.692-.742 1.359-1.157 2.015-1.119 1.743-2.61 3.115-4.113 4.474-.21.192-.384.384-.179.662.111.154.229.185.346.154.105-.024.21-.099.316-.173l1.886-1.292c1.967-1.106 3.315-2.812 4.385-4.796.173-.315.278-.649.173-1.02a5.42 5.42 0 0 1 2.245-1.205c3.142-.816 6.927 1.069 8.114 3.838.458 1.07.569 2.225.736 3.369.111.766.26 1.526-.012 2.281-.377-.242-.649-.334-.884-.272-.161.043-.303.154-.464.333l-1.571 1.768a9.52 9.52 0 0 1-2.27 1.675l-1.775.946c-.705.401-1.305 1.001-2.109 1.211l-.167.037c-.031 0-.062.012-.093.019-.371.099-.631.34-.513.791.117.457.489.488.891.42l.526-.111a5.02 5.02 0 0 0 1.262-.507l2.87-1.422c1.033-.488 2.047-1.087 2.802-2.033.309-.383.612-.779 1.039-1.038-.093.673-.093.667.6.723.977.074 1.954.148 2.895.519 1.67.655 2.61 2.027 2.641 3.863.012.779-.111 1.533-.278 2.281-.216-.081-.439-.18-.662-.124-.025.006-.05.012-.074.025-.928.408-1.893.704-2.758 1.267a15.17 15.17 0 0 1-3.092 1.563l-1.843.612c-.922.241-1.874.34-2.876.05-.117-.031-.223-.037-.315-.013-.204.056-.346.235-.402.507-.08.408.13.655.489.76.804.241 1.614.476 2.468.384l2.616-.421a7.66 7.66 0 0 0 1.806-.71l3.637-1.811c1.286 1.483 1.503 3.257 1.28 5.093-.21 1.736-1.07 3.251-1.688 4.845-.934 2.404-2.653 4.092-4.601 5.581-.278.21-.594.346-.928.445-1.194.346-2.264.958-3.315 1.607-.352.217-.73.371-1.119.476s-.804.149-1.218.161c-.266 0-.513.043-.755.105a3.59 3.59 0 0 0-1.169.562c-.866.625-1.818 1.039-2.833 1.305l-.495.117c-.13.025-.254.056-.377.093l-1.645.476c-.445.117-.897.204-1.361.204-1.305.012-2.567-.136-3.779-.971l-4.305-2.75c-.464-.309-.996-.47-1.534-.612l-.94-.303c-1.206-.513-1.509-1.601-.705-2.633l2.121-2.831c.421-.661.952-1.267 1.138-2.076.328.055.73-.322.989.148.581 1.057 1.385 1.965 1.936 3.047.767 1.508 2.072 2.182 3.587 2.522.105.024.223-.006.253.148.13.705.501 1.36.445 2.095-.025.34.025.631.408.668.068 0 .124 0 .179-.012.235-.062.303-.31.322-.581.037-.575-.093-1.119-.272-1.663-.254-.773-.099-1.051.618-1.286l1.429-.525.588-.21c.414-.105.538.049 1.008.667l.563.779c.167.229.371.427.631.538.105.043.21.062.303.037.068-.019.136-.062.192-.13.136-.173.105-.371-.025-.519-.6-.674-1.076-1.446-1.596-2.176-.204-.284-.476-.42-.798-.34l-.124.044c-1.293.544-2.666.809-3.995 1.223-.049.013-.099.038-.148.05-.08.018-.155.025-.216-.031-.488-.451-1.138-.717-1.459-1.366-.711-1.428-1.75-2.627-2.69-3.888-.235-.315-.55-.537-.934-.537-.421 0-.822.061-1.212.16a7.08 7.08 0 0 0-1.367.526c-.915-.303-1.862-.451-2.808-.594-1.058-.16-1.491-.63-1.633-1.65.124.05.229.05.328.025.161-.043.297-.167.433-.297 1.126-1.081 2.152-2.25 3.018-3.572.316-.489.68-.847 1.2-.977a2.04 2.04 0 0 1 .656-.049c1.231.086 2.468-.019 3.68.327.272.081.489.099.668.056.254-.068.427-.266.569-.649l.377-1.113c.235-.611.458-1.304.977-1.65.433-.29.649-.655.835-1.088.396-.908.989-1.693 1.447-2.558.111-.217.241-.464-.037-.643-.099-.062-.179-.074-.254-.056-.13.037-.229.179-.315.309l-1.633 2.299c-.142.242-.309.377-.482.427-.26.068-.544-.074-.81-.408-.08-.099-.142-.223-.223-.321l-1.243-1.521c-.099-.117-.216-.253-.359-.216-.031.006-.068.025-.099.055-.216.174-.087.365.062.532a10.63 10.63 0 0 1 1.256 1.799c.216.395.495.692 1.008.717-.495.71-.854 1.44-1.101 2.231-.093.303-.118.729-.322.865-.025.012-.043.025-.068.031-.216.056-.507-.229-.773-.303-1.212-.346-2.418-.692-3.692-.686-.241 0-.458.012-.668.068a1.33 1.33 0 0 0-.501.241c-.532.402-.878.977-1.299 1.483-1.07-.791-2.27-1.205-3.55-1.427-.699-.124-1.404-.26-2.059-.557-.612-.278-.952-.754-.965-1.452 0-.204-.025-.42.019-.618.637-2.998 1.713-5.723 4.243-7.559.538-.389.699-1.088.928-1.65.297-.742.761-1.403 1.002-2.157.482-1.521 1.255-2.85 2.233-4.061.47-.581 1.002-1.038 1.633-1.428 1.144-.711 2.078-1.712 3.154-2.528.736-.556 1.509-.933 2.307-1.143m5.684 22.813c.581-.155.854-.612.724-1.212-.142-.661-.588-1.013-1.311-.865-.55.185-.884.569-.742 1.224.148.686.6 1.013 1.28.865.019 0 .037-.006.05-.012zm-4.682 4.957s.019 0 .031-.006c.686-.192.909-.761.841-1.459-.297-.668-.767-1.082-1.46-.915h-.012c-.656.173-1.033.711-.86 1.428.179.742.711 1.143 1.46.952zm5.931.006c.693-.179.952-.699.884-1.397-.235-.748-.73-1.15-1.416-1.02-.037.006-.068.013-.105.025-.68.179-1.02.76-.823 1.496.179.686.705 1.081 1.435.902.006 0 .018 0 .025-.006zm6.104 4.444c.699-.179.977-.742.841-1.496-.285-.667-.73-1.057-1.429-.871-.025 0-.043.012-.068.018a1.1 1.1 0 0 0-.798 1.415c.179.711.73 1.125 1.447.94m-3.723 4.629c.557-.148.773-.562.705-1.18-.192-.55-.526-.927-1.144-.804l-.093.019c-.581.148-.866.575-.699 1.224.155.593.575.89 1.175.754.018 0 .037-.007.049-.013m7.966.21s.056-.012.08-.024c.532-.173.699-.6.631-1.138-.254-.506-.594-.883-1.132-.741-.031.006-.062.018-.099.031-.489.173-.773.599-.6 1.162.173.556.55.859 1.113.717m-18.282-40.904c-1.268.334-2.474.921-3.581 1.761l-1.429 1.187-1.453 1.156c-1.002.624-1.837 1.36-2.554 2.25-1.354 1.681-2.307 3.418-2.907 5.321-.031.105-.186.396-.297.606l-.606 1.273-.142.383C1.881 193.879.7 197.817.106 200.585c-.136.637-.118 1.175-.111 1.465v.068c.043 2.244 1.268 4.129 3.29 5.05a8.85 8.85 0 0 0 1.503.525c-.656.822-.952 1.904-.81 2.998.309 2.274 1.54 3.918 3.457 4.679-.031.043-.068.086-.099.129-1.132 1.453-1.528 3.251-1.095 4.939.439 1.693 1.67 3.084 3.383 3.813a10.42 10.42 0 0 0 1.441.476 4.21 4.21 0 0 1 .464.142c.687.458 1.373.884 2.035 1.292.767.476 1.49.927 2.177 1.397 2.146 1.465 4.286 1.638 5.913 1.625.711 0 1.422-.105 2.245-.321.346-.093.674-.192.965-.278.229-.068.452-.142.68-.198.074-.018.142-.037.216-.049l.662-.155c1.491-.389 2.845-1.013 4.014-1.854.686-.019 1.342-.111 1.961-.272a7.77 7.77 0 0 0 2.109-.896c.792-.488 1.633-.989 2.412-1.212.816-.234 1.509-.574 2.128-1.044 2.004-1.527 4.472-3.721 5.832-7.225.136-.359.303-.736.476-1.131.575-1.323 1.231-2.825 1.453-4.673.266-2.176.025-4.122-.711-5.816a4.19 4.19 0 0 0 .365-.989c.186-.834.396-1.959.371-3.232-.062-3.468-1.985-6.28-5.14-7.528a10.2 10.2 0 0 0-.39-.143c.012-.747-.087-1.396-.155-1.872l-.025-.18-.062-.438c-.155-1.125-.352-2.522-.965-3.95-1.961-4.574-7.706-7.367-12.549-6.106-.006 0-.019 0-.025.006-.878-1.014-2.004-1.768-3.321-2.188-2.047-.655-4.039-.742-5.919-.247l.019-.025zm56.445 20.808c-4.014.049-6.024.074-7.904.803-1.719.668-3.21 1.657-5.325 1.317-1.119-.179-2.641-.767-2.672-1.496-.043-1.125 3.507-2.114 5.665-2.719 4.676-1.305 8.43-1.447 9.735-1.478 4.28-.098 7.286-.123 10.112 1.836.26.179 2.412 1.694 2.109 2.435-.408.989-4.626-.791-11.708-.704l-.012.006zm-28.988-24.721c-1.571.353-2.356.532-2.548.272-.427-.574 2.066-3.189 3.519-4.53l6.809-6.613c.854-1.101 1.559-2.201 2.264-3.295 1.948-3.028 2.548-4.512 4.298-5.266.829-.352 2.053-.605 2.406-.136.285.377-.099 1.076-.792 2.324l-2.536 4.525-3.148 4.406-2.307 2.429c-2.857 3.023-4.503 4.815-6.463 5.483-.371.129-.977.29-1.503.408v-.007zM64 180.75c-.835.068-1.46-.408-1.54-.469-.235-.18-.396-.31-.445-.483-.217-.791 2.035-2.07 2.678-2.435 5.331-3.047 3.637-2.793 7.966-5 2.907-1.483 4.787-2.429 7.576-3.109.915-.222 5.746-1.409 6.327-.185.334.704-.643 2.373-1.602 2.608a62.85 62.85 0 0 0-6.593 1.965s-4.354 1.07-13.347 6.756c-.111.074-.495.315-1.02.358v-.006z" fill="#000"/></g><defs><clipPath id="B"><path fill="#fff" d="M0 0h512v355H0z"/></clipPath></defs></svg>