<svg xmlns="http://www.w3.org/2000/svg" width="136" height="128" fill="none"><g clip-path="url(#A)"><path d="M50.055 60.386l-2.117-.947c-1.734-.631-2.663-.096-3.151 1.665-.345 1.263-.69 2.554-1.226 3.74-.565 1.263-.172 2.114.843 2.803l3.372 2.095c.479.287.709.555.46 1.196-1.025 2.631-.91 5.214.469 7.72l.306.268c.718.545 1.513 1.368 2.395.564.91-.832-.058-1.502-.517-2.2-1.101-1.674-.948-3.473-.345-5.233.852-2.459.68-3.128-1.494-4.544l-.69-.45c-2.395-1.607-2.423-1.789-1.264-4.429.249-.564.498-.497.91-.277a17.13 17.13 0 0 1 3.257 2.277c.891.784 1.762 1.617 2.988 1.885.335.076.556.268.699.584 1.073 2.42 2.988 4.362 3.985 6.831.191.478.498.832 1.034.641.651-.23.527-.785.326-1.263l-3.276-7.768c-.182-.431-.498-.861-.91-.985-2.471-.756-3.937-2.908-6.053-4.152v-.019zm62.823-11.166l-4.626-7.548c-1.638-2.487-1.571-5.51-2.979-8.333-.699 3.367 4.128 13.384 7.605 15.89v-.009zM1.37 52.312c1.006 2.564 2.021 5.424 4.329 7.586.46.431.967 1.588 1.705.832.824-.832-.431-1.253-.9-1.722-2.011-2.019-3.122-4.554-4.272-7.07-.134-.297-.163-.698-.536-.689-.575.01-.201.459-.335 1.052l.01.01zm3.534 12.684c.431-.019.623-.21.776-.44.201-.325.077-.622-.172-.852L3.879 62.25c-1.312-1.167-2.241-2.612-2.998-4.161-.144-.287-.172-.66-.613-.478-.316.134-.278.45-.201.708.776 2.583 2.222 4.735 4.348 6.429.172.134.393.201.498.258l-.01-.01zm100.762-17.834c.087-.029.249-.048.297-.124.058-.096.086-.278.029-.373-1.245-2.105-2.069-4.391-2.95-6.649-.134-.335-.393-.497-.776-.325-.345.153-.306.44-.23.698.766 2.363 1.868 4.573 3.372 6.572.057.067.143.115.258.21v-.01zM39.021.298c-.747-.057-1.245.373-1.561 1.11-.584 1.33-1.015 2.717-1.37 4.123-.105.392-.46.957.105 1.138.431.134.556-.459.776-.775.958-1.358 1.216-3.109 2.366-4.381.393-.43.153-.918-.306-1.205l-.01-.01zm-9.262.717l-.306 4.209c-.019.354-.086.804.45.823.402.019.498-.316.556-.651l.843-4.42c.077-.392-.01-.717-.393-.957-.785-.153-1.092.354-1.159.985l.01.01zm11.523 6.572c-.134.44-.431.813-.086 1.177.153.163.431.239.556.077.795-1.119 2.03-1.712 2.825-2.832.23-.325.259-.698.029-.995-.201-.258-.536-.306-.776-.077-.891.851-1.906 1.588-2.538 2.65h-.01zm60.074 39.483c.268.067.555.134.708-.172.163-.335 0-.631-.277-.823-.259-.182-.518-.105-.68.182-.192.344-.039.593.249.813z" fill="#000"/><path d="M86.912 88.51c-.489-.019-.546.325-.623.622-1.571 6.132-5.096 11.49-7.136 17.431-.287.832-.881 1.492-1.427 2.171-.354.44-.623.909-.671 1.473-.029.335.058.651.421.775.297.106.508-.048.718-.268 1.379-1.463 2.768-2.898 3.314-4.945.354-1.311.91-2.583 1.532-3.798 2.021-3.884 3.027-8.094 4.052-12.293.096-.402.364-.89-.182-1.177v.01zm3.821 12.217c-.287.947-1.169 1.645-1.197 2.707.527-.842 1.322-1.569 1.197-2.707z" fill="#196efd"/><g fill="#000"><path d="M45.985 87.916c-.814 1.999-.929 3.798-.01 5.549.594 1.129 1.504 2.047 2.385 2.975.287.296.613.555 1.054.593.498.038 1.092.172 1.446-.211s-.029-.851-.201-1.263c-1.159-2.679-2.663-5.156-4.674-7.653v.01zm28.81-32.525c-.393-.038-.594.019-1.054.144-.986.268-1.418-.086-1.58.373-.105.297-.029.737.115 1.043.191.383.488.497.699.564.843.297 1.571-.22 1.906-.517.096-.067.172-.143.239-.21.297-.182.402-.478.354-.775-.057-.335-.297-.574-.68-.612v-.01zm2.548-13.641c-.929-.392-1.523-.096-1.743 1.062-.201 1.033.24 1.454.862 1.521.699.086 1.389-.115 1.667-1.32.316-1.397-.546-1.177-.776-1.263h-.01zm-.479-1.543c.297.373.833.383 1.274.545.182.067.46-.182.345-.43-.239-.497-.766-.593-1.255-.641-.192-.019-.421.163-.364.517v.01z"/><path d="M72.287 61.263c.354 2.344.977 4.276 2.203 8.132l.996 2.975c-3.621-.65-6.762.622-9.741 2.124-2.05 1.033-3.774 2.679-5.67 4.018-3.467 2.468-6.81 5.137-10.718 6.945-.144.105-.278.239-.441.316-.546.277-.891.45-1.092.603-1.255.708-1.446.88-1.858.813-.211-.038-.661-.153-2.328-2.516-.958-1.368-1.245-1.951-1.465-2.124-3.726-5.721-7.069-11.681-10.919-17.335-.527-.775-1.245-1.731-2.145-1.502-1.715.44-1.743-.603-2.011-1.655-.115-.478-.335-.947-.565-1.387-.623-1.234-.824-2.009-.958-2.363-1.37-3.377-1.101-4.621-2.356-6.142-.46-.555-1.236-1.291-2.605-1.865-1.293-.411-2.356-.411-3.017-.364-.833.067-1.638.134-2.021.698-.297.44-.345 1.062-.067 1.827.623 1.731.316 3.31-.192 5.089-.22-.287-.383-.45-.469-.641-1.485-3.224-2.873-6.486-3.85-9.911-.45-1.578-.556-3.396-2.452-4.161v.029c-1.734-.306-2.979.698-4.234 1.617-.69.507-.795 1.272-.738 2.095.115 1.77.843 3.358 1.647 4.879.852 1.617 1.542 3.291 2.289 4.946.163.364.421.698.67 1.024.201.268.469.469.824.23.431-.287.268-.622.029-.937-.575-.765-1.226-1.492-1.724-2.306-1.456-2.363-1.925-4.965-1.81-7.701.057-1.33 1.255-1.531 2.117-1.779.843-.249.9.756 1.034 1.311.833 3.463 2.318 6.687 3.745 9.93.642 1.444 1.695 2.478 2.921 3.386.278.211.651.325 1.006.402.278.067.565-.096.69-.354.115-.249-.124-.402-.297-.545l-1.322-1.072c1.465.048 1.944-.612 2.04-1.435.124-1.119.479-2.248.22-3.387-.182-.823.153-.871.862-.804 1.408.124 2.395.478 2.95 2.028 1.197 3.329 2.653 6.563 4.042 9.825.201.478.316.785-.249 1.11-4.741 2.794-7.71 7.07-10.047 11.862-.096 0-.201.019-.239-.019-2.854-3.1-6.609-5.061-9.933-7.558-1.398-1.052-2.557-2.344-3.544-3.779-.345-.507-.584-1.1-1.379-1.454.747 2.717 2.27 4.812 4.166 6.582 3.046 2.832 6.504 5.223 9.224 8.419.565.67.862 1.215.728 2.152-.632 4.468-1.312 8.954.134 13.403.862 2.659 1.963 4.898 4.856 6.362 4.061 2.057 7.557 4.984 9.224 9.538 1.734 4.726 5.517 7.462 9.952 9.48 1.647.747 3.362.221 5.048.134.594-.028 1.197-.134 1.782-.248 2.433-.517 4.31.287 5.814 2.219 2.337 3.004 5.699 4.391 9.243 5.338 2.375.632 4.578.086 6.427-1.569 1.782-1.588 3.199-3.501 4.76-5.29 1.935-2.2 3.228-4.85 5.201-6.936 1.303-1.377 3.199-2.219 4.875-3.214.584-.344 1.312-.526 1.743-1.062 1.494-1.856 3.553-2.65 5.785-3.176 4.952-1.167 9.751-2.927 14.769-3.894 6.274-1.205 12.51-2.583 18.754-3.941 1.792-.392 3.535-.995 5.316-1.435 1.839-.459 3.765.325 4.665 1.961.527.947.939 1.971 1.312 2.994.192.527.402.928 1.015.9.642-.019.824-.517.958-1.005.546-2.076-.891-5.481-2.71-6.639-1.715-1.091-3.468-1.865-5.565-1.196-.508.163-.824-.029-1.14-.469-.699-.966-1.36-1.913-1.695-3.09-.288-1.014-1.226-1.731-1.629-2.669-1.733-4.094-4.185-7.864-5.651-12.083-.076-.22-.124-.373-.076-.517.076-.249.344-.354.421-.392.987-.459 2.711-3.128 3.276-3.989.45-.698.737-1.215.843-1.416.115-.22.383-.727.689-1.435.642-1.492.546-1.722.929-2.325.508-.794 1.054-.976 1.504-1.387 2.04-1.837.575-6.831.153-8.266-.163-.555-.823-2.095-2.136-5.195-1.034-2.44-1.101-2.478-1.58-3.74-.738-1.894-.862-2.497-1.743-4.678-.355-.89-.431-.976-.92-2.239-.498-1.291-.699-1.961-1.283-3.31-.422-.976-1.514-3.453-3.228-5.979-3.036-4.458-6.628-6.964-8.199-8.045-3.716-2.545-6.686-3.454-7.471-3.674-1.456-.421-2.452-.545-2.854-.593-2.04-.22-4.071-.029-6.111.526-.489.134-.948.344-1.437.478-1.418.411-2.873 1.253-4.128-.392-.182-.239-.68-.23-1.015-.383-.632-.287-1.092-.143-1.303.517-.182.584.125 1.024.67 1.148 1.226.268 2.069.899 2.538 2.066.192.478.536.383 1.006.163.852-.392 6.216-1.971 9.569-1.971 3.343 0 6.025 1.483 7.423 2.248.297.163 1.485.832 3.113 2.172 3.611 2.966 5.661 6.151 6.829 7.998 1.763 2.784 1.485 3.071 4.636 9.7 2.174 4.582 3.094 6.142 4.77 10.208 0 0 3.63 8.811 1.552 10.016-.154.086-.958.44-1.456 1.129a6.8 6.8 0 0 0-.288.421c-.229.354-.402.66-.584.976-1.944 3.406-1.197 4.094-2.749 5.462 0 0-1.858 1.875-4.061 1.693-.689-.057-.862-.182-.871-.804 0 0 0-.029-.096-2.736-.039-1.081-.403-1.885-.709-2.564-.048-.105-1.025-2.239-1.667-2.085-.182.048-.287.268-.354.45a9.05 9.05 0 0 1 1.331 3.406c.345 2.009-.258 2.659-.239 4.133 0 .115.009.411-.182.603-.153.153-.412.163-.709.23-.795.163-.699-.392-.718-.804-.067-1.473-.585-2.851-1.006-4.238-.077-.249-.048-.708-.306-.832a.51.51 0 0 0-.575.153c-.173.239.067.612.134.909.326 1.579.364 3.128.029 4.735-.221 1.062-.661 1.387-1.715 1.425-2.145.086-2.03.153-1.935-1.875.202-4.19-1.724-7.529-4.578-10.437-.22-.22-.364-.325-.508-.316-.201.01-.392.201-.431.402-.058.277.201.526.239.612 1.178 2.363 2.193 4.783 2.892 7.347.403 1.464.393 3.061-.287 4.114-.67 1.043-1.36 2.545-3.228 2.65-.881.048-1.772.43-2.758.421-1.226-.01-1.504-.67-1.58-1.598-.086-1.024.201-1.99.69-2.88 1.6-2.927.383-7.873-2.49-9.815-.259.612.287.909.517 1.272 1.35 2.076 1.753 4.295 1.025 6.658-.326 1.072-1.255 1.875-1.513 3.023-.287 1.282-.345 2.497.306 3.702 1.025 1.885-.287 4.075-2.433 3.932-2.289-.163-2.758-.66-2.663-2.698.077-1.511.335-2.908 1.197-4.267 1.743-2.765 1.379-6.037-.69-8.572-2.49-3.052-3.123-6.4-1.628-10.083l.977-2.401s1.188-2.851 1.667-5.654c.498-2.937-1.303-4.812-4.004-9.863-4.147-7.749-4.693-12.293-6.283-12.13-.862.086-1.044 1.445-2.931 5.032-1.274 2.43-2.538 4.372-3.496 5.749-1.073-1.578-.536-3.281-.431-4.898.249-3.626 1.025-7.098 3.544-9.978.575-.651 1.025-.937 1.829-.44.335.201.843.43 1.149.048.124-.163.163-.287.144-.392-.057-.316-.45-.507-.69-.631-1.331-.66-1.341-1.157-1.935-1.215-.91-.096-1.743 1.014-2.213 1.703-1.59 2.315-2.366 4.659-3.831 9.978 0 0-.987 3.568-.45 6.084.163.775.259 1.196.613 1.502s.479.497.546.66a1.48 1.48 0 0 0 .096.392c.115 1.119-.852 2.554-.852 2.554-.718 1.072-.996 1.196-1.992 2.468-1.379 1.76-1.398 2.21-1.331 2.487.115.43.536.737 1.37 1.33 1.446 1.014 1.925.985 2.404 1.531.795.899.594 2.239.498 3.109-.23 2.191.048 4.037.613 7.73l.01-.01zm-1.475-13.489c-.172-.086-.517-.268-.565-.574-.057-.316.22-.603.326-.708.737-.775 1.341-1.684 2.117-2.411.728-.679 1.274-2.315 2.375-5.587.182-.555.872-2.612 1.044-2.573.105.019-.038.89.489-.172.335-.679.69-.718 1.274-.316 1.006.689 2.031 1.339 3.199 2.095 0-1.942-.948-3.109-2.299-4.075-.335-.239-.948-.392-.613-1.014.431-.803.671-1.722 1.389-2.535.211.574.412.985.517 1.416.757 3.023 2.375 5.587 4.214 8.055.728.985 1.437 2.009 2.002 3.099 1.475 2.832 1.782 5.836.728 8.84l-1.781 4.86c-1.236 3.578-.987 6.964 1.054 10.188.556.88 1.169 1.722 1.762 2.602-2.433 1.072-4.894 1.923-7.528 2.114-.68.048-1.657.804-2.586.402-.986-.431-1.303-1.665-1.599-2.774-1.916-7.309-1.82-5.644-2.261-8.581-.508-3.406-.757-5.108-.651-6.505.153-1.99.661-3.999-.335-4.707-.23-.163-.517-.239-2.251-1.129l-.019-.01zm16.273 41.911c-1.025 4.2-2.031 8.399-4.052 12.292-.623 1.206-1.188 2.488-1.532 3.798-.546 2.048-1.935 3.483-3.314 4.946-.211.22-.421.364-.718.268-.364-.124-.45-.44-.421-.775.048-.564.316-1.033.67-1.473.546-.679 1.14-1.339 1.427-2.172 2.04-5.95 5.565-11.298 7.136-17.43.077-.306.134-.65.623-.622.546.287.278.775.182 1.177v-.01zm2.442 13.748c.029-1.062.91-1.761 1.197-2.708.115 1.129-.67 1.866-1.197 2.708z"/></g><path d="M8.515 41.383c.115.469.048.976.057 1.464.948.383 1.446 1.033 1.762 1.779.326.746.46 1.607.69 2.401.967 3.415 2.356 6.668 3.831 9.882.086.191.259.354.469.641.498-1.779.804-3.358.191-5.089-.278-.775-.23-1.397.067-1.827a1.13 1.13 0 0 1 .412-.354c.326-.211.776-.306 1.312-.316.096 0 .201-.019.297-.029.661-.057 1.724-.048 3.017.363 1.37.574 2.146 1.311 2.605 1.866 1.255 1.521.987 2.765 2.356 6.142.144.344.345 1.129.958 2.363.22.45.441.909.565 1.387.172.679.249 1.349.738 1.626a2.65 2.65 0 0 0 .852.105c.134-.019.259-.029.412-.077.891-.23 1.619.727 2.145 1.502.23.335.441.679.661 1.014l1.513 2.315 8.745 14.005c.22.182.508.765 1.465 2.124 1.657 2.363 2.117 2.487 2.327 2.516.412.067.603-.105 1.858-.813.019-.019.048-.038.077-.057.019-.01.038-.029.058-.038a11.5 11.5 0 0 1 .948-.507c.163-.077.287-.21.441-.316-.105-2.286-.68-4.515-.67-6.811-1.37-2.497-1.485-5.089-.469-7.711.249-.641.019-.899-.46-1.196-1.13-.679-2.28-1.359-3.371-2.095-1.015-.689-1.408-1.54-.843-2.803.536-1.186.881-2.478 1.226-3.741.489-1.76 1.408-2.296 3.151-1.665.728.258 1.408.631 2.117.947.383-4.994 1.283-9.92 2.117-14.857s1.264-9.911 1.571-14.895c.153-2.487.546-4.965.919-7.433.297-1.923-.029-3.023-1.829-3.788-2.529-1.071-4.981-2.277-7.653-3.071-7.318-2.162-14.54-4.601-21.589-7.558L12.059 3.863c-1.111-.478-2.117-.077-2.634 1.033-.345.746-.556 1.569-.556 2.382-.029 3.377-.546 6.706-.843 10.054-.364 4.085-.632 8.17-.508 12.255.125 3.932 0 7.912.977 11.796h.019z" fill="#196efd"/><path d="M17.461 29.886c.833-1.11 1.446-.737 1.973-.584 3.142.899 6.446 1.311 9.415 2.698 1.006.478 2.107.584 3.237.488 3.103-.258 6.168-.134 9.32-.708a3.87 3.87 0 0 1 1.849.134c.709.249 1.935.258 1.408 1.703-.517 1.406-1.322.335-2.002.354-1.743.038-3.496-.009-5.249.278-5.737.957-10.708-.842-15.641-2.774-1.389-.545-3.008-.584-4.301-1.598l-.01.009zm0 6.513c1.839-.851 3.084-.153 4.31.364 3.199 1.349 6.36 2.765 10.028 2.191.623-.096 1.274.297 1.868.564 2.691 1.244 5.517.469 8.295-.43.661-.21 1.322-1.445 1.734-.124.306.995-.306 2.066-1.217 2.296-3.266.823-6.551 1.55-9.597-.038-.383-.201-.68-.593-1.169-.526-5.316.804-9.387-2.449-14.262-4.295h.01zm16.446-9.605c-3.008.268-6.12.402-8.812-.297-1.791-.469-3.601-1.674-5.546-2.21-.249-.067-.431-.354-.661-.488-.441-.268-.833-.631-.498-1.349.326-.708.852-.641 1.274-.325.977.727 2.04 1.024 3.304.555.603-.22 1.226.057 1.389.66.517 1.865 1.82 1.76 3.142 1.731 2.289-.048 4.08 1.76 6.408 1.722zm2.988 1.876c3.18-.756 6.168-.507 9.08.277-.086.593-.354 1.138-.833 1.072l-8.247-1.349z" fill="#000"/></g><defs><clipPath id="A"><path fill="#fff" d="M0 0h136v128H0z"/></clipPath></defs></svg>