<svg xmlns="http://www.w3.org/2000/svg" xmlns:xlink="http://www.w3.org/1999/xlink" height="597" viewBox="0 0 36 597" width="36"><svg height="28" viewBox="0 0 28 28" width="28" x="4" y="4" fill="none"><path d="M14 0.666687C6.66666 0.666687 0.666656 6.66669 0.666656 14C0.666656 21.3334 6.66666 27.3334 14 27.3334C21.3333 27.3334 27.3333 21.3334 27.3333 14C27.3333 6.66669 21.3333 0.666687 14 0.666687ZM11.3333 20.6667L4.66666 14L6.54666 12.12L11.3333 16.8934L21.4533 6.77335L23.3333 8.66669L11.3333 20.6667Z" fill="#000"/></svg><svg height="24" viewBox="0 0 25 24" width="25" x="4" y="36" fill="none"><path d="M11.6368 13.506L5.48571 9.53927C5.28608 9.41053 5.02641 9.42416 4.84137 9.57308L0.705912 12.901C0.413017 13.1367 0.43679 13.59 0.75276 13.7938L6.90387 17.7604C7.1035 17.8892 7.36318 17.8756 7.54821 17.7266L11.6837 14.3988C11.9766 14.163 11.9528 13.7097 11.6368 13.506Z" fill="#1587EA"/><path d="M13.3162 14.3987L17.4517 17.7266C17.6368 17.8755 17.8964 17.8891 18.096 17.7604L24.2472 13.7937C24.5631 13.5899 24.5869 13.1366 24.294 12.901L20.1585 9.57308C19.9735 9.42416 19.7138 9.41053 19.5142 9.53927L13.3631 13.506C13.0472 13.7097 13.0233 14.163 13.3162 14.3987Z" fill="#1587EA"/><path d="M11.6837 3.98166L7.54821 0.653781C7.36313 0.504865 7.1035 0.491235 6.90387 0.619973L0.75276 4.58666C0.43679 4.79042 0.413017 5.24372 0.705912 5.47941L4.84137 8.80729C5.02646 8.95621 5.28608 8.96984 5.48571 8.8411L11.6368 4.87441C11.9528 4.67065 11.9766 4.21735 11.6837 3.98166Z" fill="#1587EA"/><path d="M24.2472 4.58666L18.0961 0.619973C17.8964 0.491235 17.6368 0.504865 17.4517 0.653781L13.3163 3.98166C13.0234 4.21735 13.0471 4.67065 13.3631 4.87441L19.5143 8.8411C19.7139 8.96984 19.9736 8.95621 20.1586 8.80729L24.2941 5.47941C24.5869 5.24367 24.5631 4.79037 24.2472 4.58666Z" fill="#1587EA"/><path d="M12.1997 14.9827L7.56859 18.677C7.40073 18.8109 7.16617 18.8227 6.98575 18.7063L5.84428 17.9702C5.51151 17.7556 5.07324 17.9945 5.07324 18.3904V18.7884C5.07324 18.9632 5.16458 19.1254 5.31408 19.216L12.2088 23.3956C12.3681 23.4921 12.5679 23.4921 12.7273 23.3956L19.622 19.216C19.7715 19.1254 19.8628 18.9633 19.8628 18.7884V18.4332C19.8628 18.0373 19.4245 17.7984 19.0918 18.013L18.0172 18.7059C17.8365 18.8225 17.6014 18.8104 17.4336 18.6759L12.8243 14.9834C12.6418 14.8373 12.3825 14.837 12.1997 14.9827Z" fill="#1587EA"/></svg><svg height="24" viewBox="0 0 24 24" width="24" x="4" y="64" fill="none"><path d="M21 6.99984L9 18.9998L3.5 13.4998L4.91 12.0898L9 16.1698L19.59 5.58984L21 6.99984Z" fill="#0B0DE6"/></svg><svg height="24" viewBox="0 0 24 24" width="24" x="4" y="92" fill="none"><path d="M21 7L9 19l-5.5-5.5 1.41-1.41L9 16.17 19.59 5.59 21 7z" fill="#000"/></svg><svg height="24" viewBox="0 0 24 24" width="24" x="4" y="120" fill="none"><path d="M19 6.41L17.59 5L12 10.59L6.41 5L5 6.41L10.59 12L5 17.59L6.41 19L12 13.41L17.59 19L19 17.59L13.41 12L19 6.41Z" fill="#000"/></svg><svg height="24" viewBox="0 0 24 24" width="24" x="4" y="148" fill="none"><path d="M23 12c0-6.075-4.925-11-11-11S1 5.925 1 12c0 5.49 4.023 10.041 9.281 10.866V15.18H7.488V12h2.793V9.577c0-2.757 1.642-4.28 4.155-4.28 1.204 0 2.462.215 2.462.215v2.707h-1.387c-1.367 0-1.793.848-1.793 1.718V12h3.051l-.488 3.18h-2.563v7.687C18.978 22.041 23 17.49 23 12z" fill="#1877f2"/><path d="M16.282 15.18L16.77 12h-3.051V9.937c0-.87.426-1.718 1.793-1.718h1.387V5.512s-1.259-.215-2.462-.215c-2.513 0-4.155 1.523-4.155 4.28V12H7.488v3.18h2.793v7.687c.56.088 1.134.134 1.719.134s1.159-.046 1.719-.134V15.18h2.563z" fill="#fff"/></svg><svg height="24" viewBox="0 0 24 24" width="24" x="4" y="176" fill="none"><path d="M20.71 7.04c.39-.39.39-1.04 0-1.41l-2.34-2.34c-.37-.39-1.02-.39-1.41 0l-1.84 1.83 3.75 3.75M3 17.25V21h3.75L17.81 9.93l-3.75-3.75L3 17.25z" fill="#000"/></svg><svg height="24" viewBox="0 0 24 24" width="24" x="4" y="204" fill="none"><path d="M19 13h-6v6h-2v-6H5v-2h6V5h2v6h6v2z" fill="#67778e"/></svg><svg height="24" viewBox="0 0 24 24" width="24" x="4" y="232" fill="none"><path d="M19 13h-6v6h-2v-6H5v-2h6V5h2v6h6v2z" fill="#000"/></svg><svg height="24" viewBox="0 0 24 24" width="24" x="4" y="260" fill="none"><path d="M12 17.27L18.18 21l-1.64-7.03L22 9.24l-7.19-.62L12 2 9.19 8.62 2 9.24l5.45 4.73L5.82 21 12 17.27z" fill="#fff"/></svg><svg height="22" viewBox="0 0 24 22" width="24" x="4" y="288" fill="none"><path d="M1.81444 18.6563L2.87286 20.4845C3.09279 20.8694 3.40893 21.1718 3.78007 21.3917C4.8431 20.0424 5.58308 19.0068 6 18.2852C6.4231 17.5529 6.94315 16.4074 7.56015 14.8488C5.89742 14.6299 4.63739 14.5205 3.78007 14.5205C2.95736 14.5205 1.69734 14.6299 0 14.8488C0 15.2749 0.109967 15.701 0.329897 16.0859L1.81444 18.6563Z" fill="#0066DA"/><path d="M20.2199 21.3917C20.5911 21.1718 20.9072 20.8694 21.1271 20.4845L21.567 19.7285L23.6701 16.0859C23.89 15.701 24 15.2749 24 14.8488C22.2928 14.6299 21.0351 14.5205 20.2268 14.5205C19.3581 14.5205 18.1004 14.6299 16.4536 14.8488C17.0633 16.4159 17.5765 17.5614 17.9931 18.2852C18.4135 19.0154 19.1557 20.0509 20.2199 21.3917Z" fill="#EA4335"/><path d="M12.0001 7.15121C13.23 5.66569 14.0777 4.52022 14.543 3.71478C14.9177 3.06623 15.3301 2.03072 15.7801 0.608249C15.409 0.388316 14.9829 0.278352 14.543 0.278352H9.4571C9.01723 0.278352 8.59111 0.402062 8.21997 0.608249C8.79242 2.23968 9.27817 3.40074 9.67721 4.09144C10.1182 4.85473 10.8925 5.87465 12.0001 7.15121Z" fill="#00832D"/><path d="M16.4398 14.8488H7.56009L3.78003 21.3917C4.15117 21.6117 4.57728 21.7216 5.01716 21.7216H18.9828C19.4227 21.7216 19.8488 21.5979 20.2199 21.3917L16.4398 14.8488Z" fill="#2684FC"/><path d="M12 7.15117L8.21995 0.608212C7.84881 0.828143 7.53264 1.13054 7.31272 1.51543L0.329897 13.6116C0.109967 13.9965 0 14.4227 0 14.8488H7.56015L12 7.15117Z" fill="#00AC47"/><path d="M20.1787 7.56356L16.6873 1.51543C16.4674 1.13054 16.1512 0.828143 15.7801 0.608212L12 7.15117L16.4399 14.8488H23.9863C23.9863 14.4227 23.8763 13.9965 23.6564 13.6116L20.1787 7.56356Z" fill="#FFBA00"/></svg><svg height="22" viewBox="0 0 23 22" width="23" x="4" y="314" fill="none"><g clip-path="url(#A)" fill-rule="evenodd"><path d="M5.241 11c0-.714.119-1.4.331-2.042L1.864 6.127C1.141 7.594.734 9.247.734 11s.407 3.403 1.128 4.87l3.705-2.836c-.21-.64-.327-1.322-.327-2.033z" fill="#fbbc05"/><path d="M11.75 4.5c1.552 0 2.954.55 4.056 1.45l3.204-3.2C17.058 1.05 14.554 0 11.75 0 7.397 0 3.656 2.489 1.864 6.127l3.707 2.831A6.49 6.49 0 0 1 11.75 4.5z" fill="#ea4335"/><path d="M11.75 17.5a6.49 6.49 0 0 1-6.179-4.458l-3.707 2.83A10.98 10.98 0 0 0 11.75 22c2.687 0 5.252-.954 7.177-2.741l-3.519-2.721c-.993.625-2.243.962-3.658.962z" fill="#34a853"/><path d="M22.265 11c0-.65-.1-1.35-.25-2H11.75v4.25h5.908c-.296 1.449-1.099 2.563-2.25 3.288l3.519 2.721c2.022-1.877 3.338-4.673 3.338-8.258z" fill="#4285f4"/></g><defs><clipPath id="A"><path fill="#fff" transform="translate(.5)" d="M0 0h22v22H0z"/></clipPath></defs></svg><svg height="20" viewBox="0 0 20 20" width="20" x="4" y="340" fill="none"><path d="M13.525 15L10 12.875 6.475 15l.933-4.008L4.3 8.3l4.1-.35L10 4.167l1.6 3.775 4.1.35-3.108 2.692.933 4.017zM10 1.667c-4.608 0-8.333 3.75-8.333 8.333 0 2.21.878 4.33 2.441 5.893a8.33 8.33 0 0 0 2.704 1.807c1.011.419 2.095.634 3.189.634 2.21 0 4.33-.878 5.893-2.441S18.333 12.21 18.333 10c0-1.094-.216-2.178-.634-3.189s-1.033-1.93-1.806-2.704S14.2 2.72 13.189 2.301 11.094 1.667 10 1.667z" fill="#67778e"/></svg><svg height="20" viewBox="0 0 20 20" width="20" x="4" y="364" fill="none"><path d="M13.525 15L10 12.875 6.475 15l.933-4.008L4.3 8.3l4.1-.35L10 4.167l1.6 3.775 4.1.35-3.108 2.692.933 4.017zM10 1.667c-4.608 0-8.333 3.75-8.333 8.333 0 2.21.878 4.33 2.441 5.893a8.33 8.33 0 0 0 2.704 1.807c1.011.419 2.095.634 3.189.634 2.21 0 4.33-.878 5.893-2.441S18.333 12.21 18.333 10c0-1.094-.216-2.178-.634-3.189s-1.033-1.93-1.806-2.704S14.2 2.72 13.189 2.301 11.094 1.667 10 1.667z" fill="#ffa800"/></svg><svg height="16" viewBox="0 0 16 16" width="16" x="4" y="388" fill="none"><path d="M8 1.334c-.333 0-.667.127-.94.393L1.727 7.06c-.527.52-.527 1.36 0 1.88l5.333 5.333c.52.527 1.36.527 1.88 0l5.333-5.333c.527-.52.527-1.36 0-1.88L8.94 1.727c-.273-.267-.607-.393-.94-.393zm-.667 3.333h1.333v4H7.333v-4zm0 5.333h1.333v1.333H7.333V10z" fill="#0b0de6"/></svg><svg height="16" viewBox="0 0 16 16" width="16" x="4" y="408" fill="none"><path d="M0 6.92L0 8.92L12 8.92L6.5 14.42L7.92 15.84L15.84 7.92L7.92 0L6.5 1.42L12 6.92L0 6.92Z" fill="#0B0DE6"/></svg><svg height="16" viewBox="0 0 16 16" width="16" x="4" y="428" fill="none"><path d="M0 6.92v2h12l-5.5 5.5 1.42 1.42 7.92-7.92L7.92 0 6.5 1.42l5.5 5.5H0z" fill="#fff"/></svg><svg height="16" viewBox="0 0 16 16" width="16" x="4" y="448" fill="none"><path d="M0 6.92v2h12l-5.5 5.5 1.42 1.42 7.92-7.92L7.92 0 6.5 1.42l5.5 5.5H0z" fill="#67778e"/></svg><svg height="16" viewBox="0 0 16 16" width="16" x="4" y="468" fill="none"><path d="M0 6.92v2h12l-5.5 5.5 1.42 1.42 7.92-7.92L7.92 0 6.5 1.42l5.5 5.5H0z" fill="#000"/></svg><svg height="16" viewBox="0 0 16 16" width="16" x="4" y="488" fill="none"><path d="M13.9999 4.66656L5.99992 12.6666L2.33325 8.9999L3.27325 8.0599L5.99992 10.7799L13.0599 3.72656L13.9999 4.66656Z" fill="#fff"/></svg><svg height="16" viewBox="0 0 16 16" width="16" x="4" y="508" fill="none"><path d="M13.807 4.694c.26-.26.26-.693 0-.94l-1.56-1.56c-.247-.26-.68-.26-.94 0l-1.227 1.22 2.5 2.5M2 11.5V14h2.5l7.373-7.38-2.5-2.5L2 11.5z" fill="#fff"/></svg><svg height="16" viewBox="0 0 16 16" width="16" x="4" y="528" fill="none"><path d="M13.807 4.694c.26-.26.26-.693 0-.94l-1.56-1.56c-.247-.26-.68-.26-.94 0l-1.227 1.22 2.5 2.5M2 11.5V14h2.5l7.373-7.38-2.5-2.5L2 11.5z" fill="#000"/></svg><svg height="13" viewBox="0 0 14 13" width="14" x="4" y="548" fill="none"><path d="M7 10.4479L11.326 13L10.178 8.19L14 4.95368L8.967 4.52947L7 0L5.033 4.52947L0 4.95368L3.815 8.19L2.674 13L7 10.4479Z" fill="#fff"/></svg><svg height="12" viewBox="0 0 12 12" width="12" x="4" y="565" fill="none"><path d="M5.19 12h1.5V3l4.125 4.125L11.88 6.06 5.94.12 0 6.06l1.065 1.065L5.19 3v9z" fill="#000"/></svg><svg height="12" viewBox="0 0 12 12" width="12" x="4" y="581" fill="none"><circle cx="6" cy="6" r="6" fill="#000"/></svg></svg>