<svg xmlns="http://www.w3.org/2000/svg" width="160" height="13" fill="none"><g fill="#000"><path d="M156.024 10.937v-7.17h1.021v2.954h-.053c0-1.047.228-1.813.685-2.296.465-.492 1.159-.738 2.082-.738h.242v1.155h-.457c-.716 0-1.267.192-1.652.577-.385.376-.578.922-.578 1.638v3.88h-1.29zm-5.176.241c-.626 0-1.168-.107-1.625-.322a3.15 3.15 0 0 1-1.115-.846 3.77 3.77 0 0 1-.645-1.195 4.57 4.57 0 0 1-.201-1.343V7.23a4.62 4.62 0 0 1 .201-1.356 3.62 3.62 0 0 1 .645-1.182c.287-.358.649-.64 1.088-.846.448-.215.972-.322 1.572-.322.779 0 1.419.17 1.921.51.51.331.886.761 1.128 1.289a3.89 3.89 0 0 1 .376 1.692v.577h-6.367v-.967h5.427l-.296.524c0-.51-.08-.949-.241-1.316a1.89 1.89 0 0 0-.726-.873c-.322-.206-.73-.309-1.222-.309-.511 0-.936.116-1.276.349-.332.233-.582.55-.753.953-.161.403-.241.868-.241 1.396a3.77 3.77 0 0 0 .241 1.383c.171.403.43.725.78.967.349.233.792.349 1.329.349.565 0 1.021-.125 1.371-.376.358-.251.573-.542.644-.873h1.209a2.84 2.84 0 0 1-.591 1.276c-.296.359-.667.631-1.115.819s-.953.282-1.518.282zm-5.922-.161c-.537 0-1.003-.076-1.397-.228-.385-.152-.685-.412-.9-.779-.206-.376-.309-.882-.309-1.517V1.592h1.236v7.062c0 .385.103.685.309.9.215.206.515.309.9.309h1.262v1.155h-1.101zm-3.842-6.284v-.967h4.943v.967h-4.943zm-1.878 6.284c-.537 0-1.003-.076-1.397-.228-.385-.152-.685-.412-.9-.779-.206-.376-.309-.882-.309-1.517V1.592h1.236v7.062c0 .385.103.685.309.9.215.206.515.309.9.309h1.263v1.155h-1.102zm-3.842-6.284v-.967h4.944v.967h-4.944zm-4.128 6.445c-.627 0-1.169-.107-1.625-.322s-.829-.497-1.115-.846a3.75 3.75 0 0 1-.645-1.195 4.57 4.57 0 0 1-.202-1.343V7.23a4.62 4.62 0 0 1 .202-1.356 3.6 3.6 0 0 1 .645-1.182 3 3 0 0 1 1.088-.846c.448-.215.971-.322 1.572-.322.779 0 1.419.17 1.92.51.511.331.887.761 1.129 1.289a3.89 3.89 0 0 1 .376 1.692v.577h-6.367v-.967h5.427l-.296.524c0-.51-.08-.949-.242-1.316a1.89 1.89 0 0 0-.725-.873c-.322-.206-.73-.309-1.222-.309-.511 0-.936.116-1.277.349-.331.233-.582.55-.752.953-.161.403-.242.868-.242 1.396a3.77 3.77 0 0 0 .242 1.383 2.18 2.18 0 0 0 .779.967c.349.233.793.349 1.33.349.564 0 1.021-.125 1.37-.376.359-.251.573-.542.645-.873h1.209a2.84 2.84 0 0 1-.591 1.276c-.296.359-.667.631-1.115.819s-.954.282-1.518.282z"/><path fill-rule="evenodd" d="M122.794 1.419h-1.263v9.555h5.361V9.801h-4.098V1.419z"/><path d="M115.044 10.937v-7.17h1.021v2.954h-.054c0-1.047.229-1.813.685-2.296.466-.492 1.16-.738 2.082-.738h.242v1.155h-.457c-.716 0-1.267.192-1.652.577-.385.376-.577.922-.577 1.638v3.88h-1.29zm-5.176.241c-.627 0-1.169-.107-1.625-.322s-.829-.497-1.115-.846a3.75 3.75 0 0 1-.645-1.195 4.54 4.54 0 0 1-.202-1.343V7.23c0-.465.067-.917.202-1.356a3.6 3.6 0 0 1 .645-1.182 3 3 0 0 1 1.088-.846c.447-.215.971-.322 1.571-.322.779 0 1.42.17 1.921.51.511.331.887.761 1.129 1.289.25.528.376 1.092.376 1.692v.577h-6.368v-.967h5.428l-.296.524c0-.51-.081-.949-.242-1.316a1.89 1.89 0 0 0-.725-.873c-.322-.206-.73-.309-1.223-.309-.51 0-.936.116-1.276.349-.331.233-.582.55-.752.953-.161.403-.242.868-.242 1.396a3.77 3.77 0 0 0 .242 1.383 2.18 2.18 0 0 0 .779.967c.349.233.793.349 1.33.349.564 0 1.021-.125 1.37-.376.358-.251.573-.542.645-.873h1.209c-.099.492-.296.917-.591 1.276a2.85 2.85 0 0 1-1.115.819c-.448.188-.954.282-1.518.282zm-8.891-.241l-2.445-7.17h1.343l2.391 7.17h-1.29zm.322 0v-1.02h1.559v1.02h-1.559zm.618 0L104 3.767h1.262l-2.122 7.17h-1.223zm-8.113.241c-.627 0-1.178-.107-1.652-.322a3.82 3.82 0 0 1-1.209-.846 3.86 3.86 0 0 1-.739-1.195 3.87 3.87 0 0 1-.242-1.343V7.23c0-.457.085-.904.255-1.343a3.55 3.55 0 0 1 .752-1.195c.331-.358.734-.64 1.209-.846.475-.215 1.017-.322 1.625-.322s1.151.107 1.626.322c.475.206.878.488 1.209.846a3.55 3.55 0 0 1 .752 1.195c.17.439.255.886.255 1.343v.242c0 .457-.085.904-.255 1.343a3.55 3.55 0 0 1-.739 1.195c-.322.349-.721.631-1.196.846s-1.025.322-1.652.322zm0-1.155c.537 0 .994-.116 1.37-.349a2.33 2.33 0 0 0 .873-.967c.206-.403.309-.855.309-1.356 0-.51-.103-.967-.309-1.37a2.33 2.33 0 0 0-.887-.953c-.376-.233-.828-.349-1.357-.349-.519 0-.972.116-1.357.349s-.681.55-.887.953-.309.859-.309 1.37c0 .501.099.953.296 1.356a2.46 2.46 0 0 0 .873.967c.385.233.846.349 1.384.349z"/><path fill-rule="evenodd" d="M84.918 2.275c-.691 0-1.305.127-1.842.385-.524.246-.963.583-1.317 1.011-.352.416-.619.885-.8 1.408v.001a4.96 4.96 0 0 0-.256 1.58v.219c0 .532.085 1.059.255 1.58v.002c.181.522.448 1.001.799 1.438l.001.001a3.91 3.91 0 0 0 1.316 1.027l.002.001c.537.247 1.162.369 1.873.369.701 0 1.336-.127 1.903-.384l.001-.001a3.63 3.63 0 0 0 1.383-1.109c.367-.485.571-1.051.614-1.695l.007-.099h-1.312l-.009.083a1.95 1.95 0 0 1-.404.987l-.001.002c-.22.3-.516.541-.89.723-.361.17-.791.257-1.292.257-.654 0-1.188-.148-1.608-.437a2.79 2.79 0 0 1-.955-1.198 4.23 4.23 0 0 1-.322-1.655c0-.605.108-1.151.321-1.639V5.13c.213-.497.526-.884.938-1.166h0c.42-.29.949-.438 1.593-.438.747 0 1.323.189 1.741.556l.002.002a2.19 2.19 0 0 1 .783 1.369l.013.078h1.311l-.01-.103c-.064-.641-.268-1.2-.613-1.675s-.796-.838-1.352-1.095c-.547-.257-1.172-.385-1.873-.385z"/></g><g fill="#0b0de6"><path d="M74.696 11.192c-.627 0-1.178-.107-1.652-.322-.466-.215-.855-.501-1.169-.859a4.05 4.05 0 0 1-.699-1.222c-.152-.448-.228-.904-.228-1.37v-.255a4.31 4.31 0 0 1 .228-1.396c.161-.456.394-.859.699-1.208.313-.358.699-.64 1.155-.846.457-.215.985-.322 1.585-.322.788 0 1.446.175 1.975.524.537.34.94.792 1.209 1.356a4.07 4.07 0 0 1 .403 1.799v.671h-6.461V6.6h5.293l-.578.564c0-.465-.067-.864-.201-1.195a1.59 1.59 0 0 0-.618-.765c-.269-.179-.609-.269-1.021-.269s-.761.094-1.048.282a1.78 1.78 0 0 0-.658.819c-.143.349-.215.77-.215 1.262 0 .457.072.864.215 1.222a1.84 1.84 0 0 0 .658.832c.296.197.672.295 1.128.295s.828-.09 1.115-.269c.287-.188.47-.416.551-.685h1.719c-.107.501-.313.94-.618 1.316s-.694.667-1.169.873c-.466.206-.999.309-1.599.309zm-9.487-.255l-2.284-7.291h1.921l2.19 7.291h-1.827zm.551 0V9.406h1.975v1.531H65.76zm.739 0l1.881-7.291h1.8l-1.975 7.291h-1.706zm-6.773 0V3.646h1.867v7.291h-1.867zm-1.021-5.894V3.646h2.888v1.396h-2.888zm1.706-2.269c-.367 0-.64-.094-.819-.282a1.07 1.07 0 0 1-.255-.725c0-.304.085-.55.255-.738.179-.188.452-.282.819-.282s.636.094.806.282.255.434.255.738a1.07 1.07 0 0 1-.255.725c-.17.188-.439.282-.806.282zm-3.65 8.257c-.672 0-1.227-.085-1.666-.255a1.87 1.87 0 0 1-.967-.886c-.215-.421-.322-.985-.322-1.692l.013-6.606h1.746l-.013 6.727c0 .358.094.636.282.832.197.188.475.282.833.282h1.142v1.598h-1.048zM52.65 5.016v-1.37h5.158v1.37H52.65zm-4.021 6.176c-.636 0-1.187-.107-1.652-.322-.457-.215-.842-.501-1.155-.859-.304-.358-.533-.761-.685-1.208a4.23 4.23 0 0 1-.228-1.37v-.255a4.36 4.36 0 0 1 .228-1.41c.161-.456.398-.859.712-1.208.313-.358.699-.64 1.155-.846.466-.215 1.003-.322 1.612-.322.636 0 1.205.125 1.706.376.502.242.9.582 1.196 1.02.304.439.475.949.511 1.531h-1.814a1.46 1.46 0 0 0-.484-.94c-.269-.251-.64-.376-1.115-.376-.412 0-.757.098-1.034.295a1.78 1.78 0 0 0-.605.819c-.134.34-.202.734-.202 1.182 0 .43.063.819.188 1.168.134.349.336.622.604.819.278.197.631.295 1.061.295.322 0 .6-.058.833-.175a1.38 1.38 0 0 0 .551-.483 1.59 1.59 0 0 0 .269-.698h1.813a2.97 2.97 0 0 1-.524 1.557 3.14 3.14 0 0 1-1.222 1.034c-.502.251-1.075.376-1.72.376zm-8.303 0c-.627 0-1.178-.107-1.652-.322a3.45 3.45 0 0 1-1.169-.859 4.05 4.05 0 0 1-.699-1.222c-.152-.448-.228-.904-.228-1.37v-.255a4.31 4.31 0 0 1 .228-1.396c.161-.456.394-.859.699-1.208.313-.358.699-.64 1.155-.846.457-.215.985-.322 1.585-.322.788 0 1.446.175 1.975.524.537.34.94.792 1.209 1.356a4.07 4.07 0 0 1 .403 1.799v.671h-6.461V6.6h5.293l-.578.564c0-.465-.067-.864-.201-1.195a1.59 1.59 0 0 0-.618-.765c-.269-.179-.609-.269-1.021-.269s-.761.094-1.048.282-.506.461-.658.819c-.143.349-.215.77-.215 1.262 0 .457.072.864.215 1.222a1.84 1.84 0 0 0 .658.832c.296.197.672.295 1.128.295s.828-.09 1.115-.269c.287-.188.47-.416.551-.685h1.719c-.107.501-.313.94-.618 1.316s-.694.667-1.169.873c-.466.206-.999.309-1.599.309zm-12.902-.255V3.391c0-.832.228-1.446.685-1.839.466-.403 1.151-.604 2.055-.604h.685v1.437h-.82c-.278 0-.492.076-.645.228-.143.143-.215.349-.215.618v7.707h-1.746zm4.755 0V3.471c0-.832.228-1.446.685-1.839.466-.403 1.151-.604 2.055-.604h.887v1.437h-1.021c-.278 0-.492.076-.645.228-.143.143-.215.349-.215.618v7.626h-1.746zm-5.655-5.8v-1.37h9.403v1.37h-9.403z"/><path d="M19.177 8.125a3.99 3.99 0 0 1-.253-1.126h6.627v-.823c0-.721-.151-1.4-.453-2.037a3.66 3.66 0 0 0-1.369-1.565c-.616-.417-1.394-.62-2.324-.62-.717 0-1.351.128-1.898.39a3.65 3.65 0 0 0-1.321 1.028 4.37 4.37 0 0 0-.778 1.426l-.001.003a5.52 5.52 0 0 0-.242 1.626v.282a5.47 5.47 0 0 0 .242 1.61l.001.003a4.55 4.55 0 0 0 .778 1.441l.001.001c.35.426.802.768 1.353 1.027.557.262 1.212.39 1.96.39.675 0 1.285-.113 1.829-.341a3.47 3.47 0 0 0 1.358-.998c.361-.437.601-.957.721-1.554l.036-.178h-1.713l-.025.118c-.074.34-.296.65-.692.927l-.001.001c-.375.269-.875.411-1.512.411-.605 0-1.091-.131-1.468-.381a2.4 2.4 0 0 1-.855-1.061zm4.573-2.552h-4.747a3.53 3.53 0 0 1 .174-.577c.188-.445.463-.792.825-1.046.367-.251.832-.381 1.404-.381.554 0 1 .116 1.346.337a2.06 2.06 0 0 1 .789.951l.001.001a3.05 3.05 0 0 1 .209.715zM0 1a1 1 0 0 1 1-1h9.194a1 1 0 0 1 1 1v5.34h-5.97v5.967H1a1 1 0 0 1-1-1V1zm5.224 11.308l5.97-5.967v2.238l-3.731 3.73H5.224z" fill-rule="evenodd"/></g></svg>