<svg width="212" height="215" viewBox="0 0 212 215" fill="none" xmlns="http://www.w3.org/2000/svg"><style>.B{color-interpolation-filters:sRGB}.C{flood-opacity:0}</style><g filter="url(#A)"><rect x="16" y="16.045" width="180" height="180" rx="6" fill="#fff"/><rect x="16.5" y="16.545" width="179" height="179" rx="5.5" stroke="#d9d9d9"/></g><g filter="url(#B)"><circle cx="105.976" cy="54.18" r="13.729" fill="#969696"/></g><g filter="url(#C)"><circle cx="157.865" cy="54.18" r="13.729" fill="#092f9c"/></g><g filter="url(#D)"><circle cx="106.073" cy="106.045" r="13.729" fill="#23bba4"/></g><g filter="url(#E)"><circle cx="157.865" cy="106.045" r="13.729" fill="#087c0a"/></g><g filter="url(#F)"><circle cx="54.136" cy="157.909" r="13.729" fill="#b42c0e"/></g><g filter="url(#G)"><circle cx="106" cy="157.909" r="13.729" fill="#f78e7d"/></g><circle cx="157.865" cy="157.909" r="13.729" fill="#f9ce3f"/><g filter="url(#H)"><circle cx="54.136" cy="106.045" r="13.729" fill="#3398da"/></g><circle cx="157.865" cy="157.909" r="17.305" stroke="#000" stroke-width="2"/><g filter="url(#I)"><circle cx="54.135" cy="54.182" r="13.729" fill="#fff"/><circle cx="54.135" cy="54.182" r="13.229" stroke="#9fb9dc"/></g><path d="M50.321 61.047l6.025-13.729h1.602l-6.025 13.729h-1.602z" fill="#000"/><path d="M159.664 161.627c1.681-.651 2.285-.106 3.181 1.441l1.787 3.346.211.416 1.535 3.17c.37 1.043.604 2.162 1.149 3.111.439.756.164 1.823 1.078 2.344.047.023.047.141.047.223.012.474-.188.873-.627 1.031-.428.152-.873.082-1.102-.404-.129-.258-.222-.534-.304-.803l-.498-1.846c-.141-.463-.37-.885-.522-1.347-.709-2.081-1.822-3.973-2.789-5.93l-1.535-2.994c-.164-.305-.334-.674-.779-.475l-2.01 1.008 1.101 3.68 1.6 6.398 1.588 6.615c.293 1.278.592 2.567.199 3.891-.381 1.277-1.265 2.033-2.601 1.916-.862-.082-1.623-.44-2.344-.908l-2.684-1.752c-.685-.533-1.101-.569-1.547.176-.38.615-.685 1.265-1.007 1.916-.188.392-.569.849-.475 1.183.094.381.615.651.949.973.768.756 1.383 1.646 2.309 2.273.533.369.908.949 1.394 1.383.416.369.908.65 1.325 1.02l3.169 2.935 2.414 2.127c.346.381.569.369.92.188.463-.235.897-.557 1.395-.686l3.586-.803c1.74-.427 3.369-1.265 5.226-1.289 1.659-.023 3.288-.568 4.969-.258.358.071.733.012 1.125.012l.188-.592 1.277-5.654c.246-1.184.545-2.367.615-3.562.094-1.694.059-3.381-.293-5.075-.322-1.5-.568-2.994-1.535-4.259-.082-.106-.152-.235-.176-.37a.57.57 0 0 1 .082-.334c.024-.035.211.012.282.071l1.312 1.16-.012-.012c.036.047.071.082.094.129.733 1.336 1.055 2.807 1.324 4.283.545 2.948.305 5.842-.427 8.719l-1.184 5.133c-.023.105-.012.234-.012.322.487.211 1.02.358 1.407.65.498.393.257.95.105 1.454-.346.451-.234.937-.187 1.429.093.897.345 1.776-.024 2.696-.258.662-.592 1.195-1.289 1.523l.416.557c-.176.568-.293 1.101-.521 1.588-.094.211-.37.392-.604.474l-2.414.721c-.451.152-.896.381-1.301.65-.615.416-.779.428-1.336-.14-.509.222-1.019.509-1.576.685l-4.424 1.324c-.439.141-.615-.035-.802-.486l-1.5.791c-1.149.768-2.473.938-3.774 1.102-.826.105-1.254-.534-1.453-1.301-.305-1.231.486-2.127.615-3.193.094-.768.305-1.524.305-2.297 0-.428-.246-.897-.498-1.266-.662-.973-.768-1.951-.141-3.111l-2.297-1.635-5.736-4.688c-1.031-.949-2.309-1.681-3.029-2.959-.164-.304-.569-.474-.838-.732-.358-.334-.721-.662-1.008-1.055-.305-.427-.269-.937-.023-1.382l1.834-3.182c.322-.51.685-1.008 1.113-1.442.357-.369.838-.509 1.324-.175.234.164.545.281.721.498.721.861 1.658 1.418 2.648 1.916l1.406.826c.897.428 1.477.246 1.717-.533.141-.498.235-1.055.164-1.565-.14-1.066-.381-2.115-.627-3.158l-1.078-4.096-.592-2.056-.814-3.076-.164-.545-.475-2.274-.451-3.656.246-1.125 1.987-.996z" fill="#020202"/><path d="M182.814 176.276l-1.313-1.16c-.07-.059-.258-.094-.281-.071-.059.094-.106.223-.082.334.023.129.094.258.176.369.972 1.254 1.23 2.743 1.535 4.26.357 1.693.392 3.381.293 5.074-.071 1.196-.369 2.391-.615 3.563l-1.278 5.654c-.047.211-.129.404-.187.592-.393 0-.768.059-1.125-.012-1.682-.322-3.311.235-4.969.258-1.858.023-3.492.861-5.227 1.289l-3.586.803c-.486.129-.92.451-1.394.685-.358.176-.58.188-.92-.187-.721-.779-1.623-1.406-2.414-2.127l-3.17-2.936c-.416-.369-.908-.65-1.324-1.019-.487-.44-.862-1.02-1.395-1.383-.908-.627-1.535-1.523-2.308-2.273-.334-.323-.85-.592-.95-.973-.082-.334.282-.791.475-1.184l1.008-1.916c.463-.744.873-.709 1.547-.175.838.65 1.799 1.16 2.683 1.752.721.474 1.477.826 2.344.908 1.336.129 2.227-.639 2.602-1.916.392-1.325.093-2.614-.2-3.891l-1.587-6.615-1.6-6.399-1.102-3.679 2.01-1.008c.451-.199.615.164.779.475l1.536 2.994c.972 1.963 2.08 3.843 2.789 5.929.152.463.38.885.521 1.348l.498 1.846a4.72 4.72 0 0 0 .305.802c.234.475.674.557 1.101.405.44-.153.639-.557.627-1.032 0-.082-.011-.199-.047-.222-.908-.522-.638-1.588-1.078-2.344-.545-.949-.779-2.057-1.148-3.111.322.246.697.451.937.767.358.451.721.686 1.289.475.083.322.293.223.499.141.474.105.837.603 1.394.334.779.767 1.535 1.546 1.717 2.707l.416 2.009c.082.452.305.651.779.545.428-.105.569-.416.498-.791-.269-1.254-.357-2.566-1.09-3.691 1.149-.235 2.297-.258 3.416.105.118.082.323.141.358.246l.65 2.239c.164.72.223 1.476.381 2.203.082.392.369.709.791.58.381-.106.533-.451.428-.885l-.949-3.82c1.253-.117 2.15.849 3.298 1.078.95.193 1.53 1.043 1.659 2.051z" fill="#fdfdfd"/><path d="M159.312 173.293l.592 2.057 1.078 4.095.627 3.159c.071.509-.023 1.066-.164 1.564-.222.779-.802.961-1.716.533-.499-.234-.95-.545-1.407-.826.235-.059.463-.129.698-.152.152-.012.304.047.462.058.897.082 1.289-.281 1.207-1.183-.07-.709-.257-1.418-.269-2.139-.047-1.535-.996-2.818-1.219-4.283-.094-.58-.035-1.184-.012-1.776 0-.375.071-.744.123-1.107z" fill="#f4f6fa"/><path d="M169.092 171.388c-.199.082-.416.175-.498-.141.152-1.137 1.277-1.195 1.998-.838.949.463 1.635 1.231 2.226 2.092.733 1.125.815 2.437 1.09 3.691.082.381-.058.686-.498.791-.463.106-.697-.082-.779-.545l-.416-2.009c-.176-1.161-.949-1.94-1.717-2.707-.627-.715-.873-.774-1.406-.334zm8.8 1.776l.949 3.82c.118.44-.046.768-.427.885-.428.117-.709-.199-.791-.58l-.381-2.203c-.176-.756-.416-1.489-.651-2.239-.035-.105-.234-.164-.357-.246-.082-.381.012-.65.439-.72.475-.071.92.257 1.055.732l.164.551z" fill="#050506"/><path d="M183.74 166.209c.451 0 .721.498.474.85l-2.15 2.789c-.082.105-.346.07-.533.093-.024-.175-.152-.427-.07-.545l1.974-2.982c.065-.1.235-.158.305-.205z" fill="#020305"/><path d="M187.027 169.848c.082.07.358.199.369.357.024.199-.093.545-.257.627l-2.614 1.301c-.222.105-.533.404-.685.023-.082-.199.012-.674.176-.767.884-.545 1.834-1.02 2.753-1.512.024-.018.071-.018.258-.029z" fill="#020306"/><path d="M186.863 175.801h-.118c-.304-.047-.767.152-.802-.322-.012-.141.462-.381.744-.475a3.73 3.73 0 0 1 1.078-.188c.152 0 .404.2.439.346.035.141-.117.44-.246.486-.345.118-.72.129-1.09.188-.005-.012-.005-.024-.005-.035z" fill="#06152f"/><path d="M157.402 163.736l.451 3.657c-.047 0-.094.011-.141.011-.357-1.195-.58-2.414-.31-3.668z" fill="#cdd8e9"/><path d="M159.664 161.627l-2.01.984c.223-.785.944-1.125 2.01-.984z" fill="#dde5f2"/><path d="M157.701 167.398c.047 0 .094-.011.141-.011l.474 2.273c-.093-.129-.246-.234-.281-.381l-.334-1.881z" fill="#d4deef"/><path d="M182.908 176.393c-.035-.047-.07-.082-.094-.129l.094.129z" fill="#fdfdfd"/><defs><filter id="A" x="0" y=".045" width="212" height="212" filterUnits="userSpaceOnUse" class="B"><feFlood result="A" class="C"/><feColorMatrix in="SourceAlpha" values="0 0 0 0 0 0 0 0 0 0 0 0 0 0 0 0 0 0 127 0" result="B"/><feOffset/><feGaussianBlur stdDeviation="8"/><feComposite in2="B" operator="out"/><feColorMatrix values="0 0 0 0 0 0 0 0 0 0 0 0 0 0 0 0 0 0 0.1 0"/><feBlend in2="A"/><feBlend in="SourceGraphic"/></filter><filter id="B" x="85.247" y="36.451" width="41.458" height="41.457" filterUnits="userSpaceOnUse" class="B"><feFlood result="A" class="C"/><feColorMatrix in="SourceAlpha" values="0 0 0 0 0 0 0 0 0 0 0 0 0 0 0 0 0 0 127 0" result="B"/><feOffset dy="3"/><feGaussianBlur stdDeviation="3.5"/><feComposite in2="B" operator="out"/><feColorMatrix values="0 0 0 0 0 0 0 0 0 0 0 0 0 0 0 0 0 0 0.25 0"/><feBlend in2="A"/><feBlend in="SourceGraphic"/></filter><filter id="C" x="137.136" y="36.451" width="41.458" height="41.457" filterUnits="userSpaceOnUse" class="B"><feFlood result="A" class="C"/><feColorMatrix in="SourceAlpha" values="0 0 0 0 0 0 0 0 0 0 0 0 0 0 0 0 0 0 127 0" result="B"/><feOffset dy="3"/><feGaussianBlur stdDeviation="3.5"/><feComposite in2="B" operator="out"/><feColorMatrix values="0 0 0 0 0 0 0 0 0 0 0 0 0 0 0 0 0 0 0.25 0"/><feBlend in2="A"/><feBlend in="SourceGraphic"/></filter><filter id="D" x="85.344" y="88.316" width="41.458" height="41.457" filterUnits="userSpaceOnUse" class="B"><feFlood result="A" class="C"/><feColorMatrix in="SourceAlpha" values="0 0 0 0 0 0 0 0 0 0 0 0 0 0 0 0 0 0 127 0" result="B"/><feOffset dy="3"/><feGaussianBlur stdDeviation="3.5"/><feComposite in2="B" operator="out"/><feColorMatrix values="0 0 0 0 0 0 0 0 0 0 0 0 0 0 0 0 0 0 0.25 0"/><feBlend in2="A"/><feBlend in="SourceGraphic"/></filter><filter id="E" x="137.136" y="88.316" width="41.458" height="41.457" filterUnits="userSpaceOnUse" class="B"><feFlood result="A" class="C"/><feColorMatrix in="SourceAlpha" values="0 0 0 0 0 0 0 0 0 0 0 0 0 0 0 0 0 0 127 0" result="B"/><feOffset dy="3"/><feGaussianBlur stdDeviation="3.5"/><feComposite in2="B" operator="out"/><feColorMatrix values="0 0 0 0 0 0 0 0 0 0 0 0 0 0 0 0 0 0 0.25 0"/><feBlend in2="A"/><feBlend in="SourceGraphic"/></filter><filter id="F" x="33.407" y="140.18" width="41.458" height="41.457" filterUnits="userSpaceOnUse" class="B"><feFlood result="A" class="C"/><feColorMatrix in="SourceAlpha" values="0 0 0 0 0 0 0 0 0 0 0 0 0 0 0 0 0 0 127 0" result="B"/><feOffset dy="3"/><feGaussianBlur stdDeviation="3.5"/><feComposite in2="B" operator="out"/><feColorMatrix values="0 0 0 0 0 0 0 0 0 0 0 0 0 0 0 0 0 0 0.25 0"/><feBlend in2="A"/><feBlend in="SourceGraphic"/></filter><filter id="G" x="85.272" y="140.18" width="41.458" height="41.457" filterUnits="userSpaceOnUse" class="B"><feFlood result="A" class="C"/><feColorMatrix in="SourceAlpha" values="0 0 0 0 0 0 0 0 0 0 0 0 0 0 0 0 0 0 127 0" result="B"/><feOffset dy="3"/><feGaussianBlur stdDeviation="3.5"/><feComposite in2="B" operator="out"/><feColorMatrix values="0 0 0 0 0 0 0 0 0 0 0 0 0 0 0 0 0 0 0.25 0"/><feBlend in2="A"/><feBlend in="SourceGraphic"/></filter><filter id="H" x="33.407" y="88.316" width="41.458" height="41.457" filterUnits="userSpaceOnUse" class="B"><feFlood result="A" class="C"/><feColorMatrix in="SourceAlpha" values="0 0 0 0 0 0 0 0 0 0 0 0 0 0 0 0 0 0 127 0" result="B"/><feOffset dy="3"/><feGaussianBlur stdDeviation="3.5"/><feComposite in2="B" operator="out"/><feColorMatrix values="0 0 0 0 0 0 0 0 0 0 0 0 0 0 0 0 0 0 0.25 0"/><feBlend in2="A"/><feBlend in="SourceGraphic"/></filter><filter id="I" x="33.406" y="36.453" width="41.458" height="41.457" filterUnits="userSpaceOnUse" class="B"><feFlood result="A" class="C"/><feColorMatrix in="SourceAlpha" values="0 0 0 0 0 0 0 0 0 0 0 0 0 0 0 0 0 0 127 0" result="B"/><feOffset dy="3"/><feGaussianBlur stdDeviation="3.5"/><feComposite in2="B" operator="out"/><feColorMatrix values="0 0 0 0 0 0 0 0 0 0 0 0 0 0 0 0 0 0 0.25 0"/><feBlend in2="A"/><feBlend in="SourceGraphic"/></filter></defs></svg>