<svg width="41" height="41" viewBox="0 0 41 41" fill="none" xmlns="http://www.w3.org/2000/svg"><rect width="41" height="41" rx="8" fill="#000"/><path d="M24.61 23.15C24.15 23.15 23.77 22.78 23.77 22.32C23.77 21.86 24.15 21.5 24.61 21.5C25.07 21.5 25.45 21.86 25.45 22.32C25.45 22.78 25.07 23.15 24.61 23.15ZM15.41 23.15C14.95 23.15 14.57 22.78 14.57 22.32C14.57 21.86 14.95 21.5 15.41 21.5C15.87 21.5 16.24 21.86 16.24 22.32C16.24 22.78 15.87 23.15 15.41 23.15ZM24.91 18.14L26.58 15.26C26.67 15.09 26.61 14.88 26.45 14.79C26.28 14.69 26.07 14.75 26 14.92L24.29 17.83C22.95 17.22 21.5 16.9 20 16.91C18.47 16.91 17 17.24 15.73 17.82L14.04 14.91C13.95 14.74 13.74 14.68 13.57 14.78C13.4 14.87 13.35 15.08 13.44 15.25L15.1 18.13C12.25 19.69 10.29 22.58 10 26H30C29.72 22.59 27.77 19.7 24.91 18.14Z" fill="#fff"/></svg>