<svg xmlns="http://www.w3.org/2000/svg" width="120" height="26" fill="#4d72e9"><path d="M3.789 24.002a5.86 5.86 0 0 1-1.374-4.155v-7.744H0v-3.22h2.414V4.056H6.64v4.828h3.855v3.22H6.64v7.208a3.34 3.34 0 0 0 .568 2.194 2.67 2.67 0 0 0 2.08.654 4.75 4.75 0 0 0 2.043-.47v3.22a9.58 9.58 0 0 1-3.52.568 5.23 5.23 0 0 1-4.022-1.474zm11.228-.048c-.604-.495-1.085-1.124-1.405-1.837s-.471-1.49-.44-2.27a5.25 5.25 0 0 1 1.743-4.19 7.25 7.25 0 0 1 4.896-1.51 10.61 10.61 0 0 1 5.261 1.241v-.434a2.86 2.86 0 0 0-1.054-2.48 5.85 5.85 0 0 0-3.402-.771c-.98 0-1.957.095-2.918.283a11.57 11.57 0 0 0-2.546.79v-3.32a11.05 11.05 0 0 1 2.697-.771 18.48 18.48 0 0 1 3.268-.302c2.793 0 4.861.597 6.202 1.792.68.631 1.213 1.405 1.56 2.265s.502 1.787.451 2.713v9.824h-3.988V23.4a7.28 7.28 0 0 1-2.366 1.542 8.59 8.59 0 0 1-3.233.537c-1.707.071-3.384-.47-4.727-1.526zm8.314-2.113a4.09 4.09 0 0 0 1.741-1.52V18.54a7.12 7.12 0 0 0-4.222-1.31c-2.257 0-3.387.872-3.388 2.617-.025.364.04.728.189 1.061s.378.624.666.848c.732.472 1.595.696 2.464.64.882.012 1.754-.178 2.551-.556l-.001.001zM32.982.202h4.222v24.774h-4.222V.202zM43.09 23.23a7.82 7.82 0 0 1-2.614-6.267 8.47 8.47 0 0 1 2.313-6.269c1.542-1.542 3.744-2.313 6.604-2.313a10.03 10.03 0 0 1 4.811 1.073 7.16 7.16 0 0 1 3 2.933 8.77 8.77 0 0 1 1.006 4.24v1.945H44.497c.289 2.391 2.368 3.587 6.236 3.587a18.98 18.98 0 0 0 3.152-.268 14.17 14.17 0 0 0 2.816-.736v3.25a13.7 13.7 0 0 1-2.933.771c-1.18.201-2.374.301-3.57.302-2.995-.001-5.364-.75-7.108-2.247zm11.13-7.543a3.76 3.76 0 0 0-1.36-2.95 5.49 5.49 0 0 0-3.537-1.04c-1.253-.072-2.49.309-3.486 1.073a3.81 3.81 0 0 0-.993 1.309c-.232.504-.351 1.051-.349 1.606l9.725.003zm7.198-6.804h4.09v2.179a6.98 6.98 0 0 1 2.716-2.028c1.052-.435 2.18-.656 3.319-.652 2.168 0 3.788.587 4.861 1.76a6.66 6.66 0 0 1 1.609 4.677v10.159h-4.224v-9.759c0-2.347-1.095-3.52-3.285-3.52a5.63 5.63 0 0 0-2.715.687 5.79 5.79 0 0 0-2.145 2.06v10.528H61.42l-.001-16.091zm22.791 15.119a5.86 5.86 0 0 1-1.375-4.155v-7.744H80.42v-3.22h2.413V4.056h4.222v4.828h3.857v3.22h-3.857v7.208c-.071.776.131 1.552.572 2.194a2.67 2.67 0 0 0 .97.549c.358.113.737.148 1.11.105a4.77 4.77 0 0 0 2.045-.47v3.22a9.61 9.61 0 0 1-3.52.568 5.22 5.22 0 0 1-4.024-1.474zM95.395 5.394a2.24 2.24 0 0 1-.687-1.674 2.35 2.35 0 0 1 2.381-2.382 2.36 2.36 0 0 1 .925.17c.294.118.561.294.785.518a2.28 2.28 0 0 1 .531.773 2.27 2.27 0 0 1 .173.922 2.21 2.21 0 0 1-.172.913c-.121.289-.303.548-.532.762a2.39 2.39 0 0 1-.788.506 2.38 2.38 0 0 1-.922.164 2.33 2.33 0 0 1-1.694-.67zm-.453 3.486h4.292v16.093h-4.292V8.881zm8.454.003h4.09v2.179c.724-.889 1.657-1.586 2.715-2.028 1.052-.435 2.18-.656 3.319-.652 2.168 0 3.788.587 4.861 1.76 1.118 1.294 1.695 2.969 1.611 4.677v10.159h-4.226v-9.759c0-2.347-1.095-3.52-3.285-3.52a5.63 5.63 0 0 0-2.715.687 5.81 5.81 0 0 0-2.146 2.06v10.528h-4.224V8.883z"/></svg>