<svg width="233" height="31" viewBox="0 0 233 31" fill="none" xmlns="http://www.w3.org/2000/svg"><path d="M53.8955 24V16.2891H47.1455V24H43.5713V6.72656H47.1455V13.3125H53.8955V6.72656H57.4814V24H53.8955ZM71.5322 23.5781C70.5791 24.1641 69.4072 24.457 68.0166 24.457C65.7275 24.457 63.8525 23.6641 62.3916 22.0781C60.8682 20.4844 60.1064 18.3047 60.1064 15.5391C60.1064 12.7422 60.876 10.5 62.415 8.8125C63.9541 7.125 65.9893 6.28125 68.5205 6.28125C70.7158 6.28125 72.4775 6.83984 73.8057 7.95703C75.1416 9.06641 75.9072 10.4531 76.1025 12.1172H72.5518C72.2783 10.9375 71.6104 10.1133 70.5479 9.64453C69.9541 9.38672 69.2939 9.25781 68.5674 9.25781C67.1768 9.25781 66.0322 9.78516 65.1338 10.8398C64.2432 11.8867 63.7979 13.4648 63.7979 15.5742C63.7979 17.6992 64.2822 19.2031 65.251 20.0859C66.2197 20.9688 67.3213 21.4102 68.5557 21.4102C69.7666 21.4102 70.7588 21.0625 71.5322 20.3672C72.3057 19.6641 72.7822 18.7461 72.9619 17.6133H68.9658V14.7305H76.1611V24H73.7705L73.4072 21.8438C72.7119 22.6641 72.0869 23.2422 71.5322 23.5781ZM78.3408 6.72656H82.1963L85.9463 19.8398L89.7314 6.72656H93.4814L87.5869 24H84.1768L78.3408 6.72656ZM109.747 24H102.306V6.72656H109.747C110.817 6.74219 111.708 6.86719 112.419 7.10156C113.63 7.5 114.61 8.23047 115.36 9.29297C115.962 10.1523 116.372 11.082 116.591 12.082C116.81 13.082 116.919 14.0352 116.919 14.9414C116.919 17.2383 116.458 19.1836 115.536 20.7773C114.286 22.9258 112.356 24 109.747 24ZM112.431 11.1328C111.876 10.1953 110.778 9.72656 109.138 9.72656H105.81V21H109.138C110.841 21 112.028 20.1602 112.7 18.4805C113.067 17.5586 113.251 16.4609 113.251 15.1875C113.251 13.4297 112.978 12.0781 112.431 11.1328ZM125.802 14.3086C124.458 14.3086 123.556 14.7461 123.095 15.6211C122.837 16.1133 122.708 16.8711 122.708 17.8945V24H119.345V11.2266H122.532V13.4531C123.048 12.6016 123.497 12.0195 123.88 11.707C124.505 11.1836 125.317 10.9219 126.317 10.9219C126.38 10.9219 126.431 10.9258 126.47 10.9336C126.517 10.9336 126.614 10.9375 126.763 10.9453V14.3672C126.552 14.3438 126.364 14.3281 126.2 14.3203C126.036 14.3125 125.903 14.3086 125.802 14.3086ZM132.165 11.2266V24H128.778V11.2266H132.165ZM132.165 6.62109V9.70312H128.778V6.62109H132.165ZM134.157 11.2266H137.907L140.567 20.6484L143.286 11.2266H146.872L142.267 24H138.739L134.157 11.2266ZM159.704 20.25C159.618 21.0078 159.224 21.7773 158.521 22.5586C157.427 23.8008 155.896 24.4219 153.927 24.4219C152.302 24.4219 150.868 23.8984 149.626 22.8516C148.384 21.8047 147.763 20.1016 147.763 17.7422C147.763 15.5312 148.321 13.8359 149.438 12.6562C150.563 11.4766 152.021 10.8867 153.81 10.8867C154.872 10.8867 155.829 11.0859 156.681 11.4844C157.532 11.8828 158.235 12.5117 158.79 13.3711C159.29 14.1289 159.614 15.0078 159.763 16.0078C159.849 16.5938 159.884 17.4375 159.868 18.5391H151.126C151.173 19.8203 151.575 20.7188 152.333 21.2344C152.794 21.5547 153.349 21.7148 153.997 21.7148C154.685 21.7148 155.243 21.5195 155.673 21.1289C155.907 20.918 156.114 20.625 156.294 20.25H159.704ZM156.399 16.3359C156.345 15.4531 156.075 14.7852 155.591 14.332C155.114 13.8711 154.521 13.6406 153.81 13.6406C153.036 13.6406 152.435 13.8828 152.005 14.3672C151.583 14.8516 151.317 15.5078 151.208 16.3359H156.399ZM168.552 14.3086C167.208 14.3086 166.306 14.7461 165.845 15.6211C165.587 16.1133 165.458 16.8711 165.458 17.8945V24H162.095V11.2266H165.282V13.4531C165.798 12.6016 166.247 12.0195 166.63 11.707C167.255 11.1836 168.067 10.9219 169.067 10.9219C169.13 10.9219 169.181 10.9258 169.22 10.9336C169.267 10.9336 169.364 10.9375 169.513 10.9453V14.3672C169.302 14.3438 169.114 14.3281 168.95 14.3203C168.786 14.3125 168.653 14.3086 168.552 14.3086ZM184.595 18.8086V6.72656H188.204V18.75C188.204 20.2188 187.95 21.3828 187.442 22.2422C186.583 23.6953 185.032 24.4219 182.79 24.4219C180.548 24.4219 179.044 23.8359 178.278 22.6641C177.513 21.4844 177.13 19.8789 177.13 17.8477V17.4492H180.54V17.8477C180.571 19.1836 180.716 20.125 180.974 20.6719C181.239 21.2109 181.802 21.4805 182.661 21.4805C183.513 21.4805 184.075 21.1836 184.349 20.5898C184.513 20.2383 184.595 19.6445 184.595 18.8086ZM202.173 12.8438C203.251 14.1953 203.79 15.793 203.79 17.6367C203.79 19.5117 203.251 21.1172 202.173 22.4531C201.095 23.7812 199.458 24.4453 197.263 24.4453C195.067 24.4453 193.431 23.7812 192.353 22.4531C191.274 21.1172 190.735 19.5117 190.735 17.6367C190.735 15.793 191.274 14.1953 192.353 12.8438C193.431 11.4922 195.067 10.8164 197.263 10.8164C199.458 10.8164 201.095 11.4922 202.173 12.8438ZM197.251 13.6406C196.274 13.6406 195.521 13.9883 194.989 14.6836C194.466 15.3711 194.204 16.3555 194.204 17.6367C194.204 18.918 194.466 19.9062 194.989 20.6016C195.521 21.2969 196.274 21.6445 197.251 21.6445C198.228 21.6445 198.978 21.2969 199.501 20.6016C200.024 19.9062 200.286 18.918 200.286 17.6367C200.286 16.3555 200.024 15.3711 199.501 14.6836C198.978 13.9883 198.228 13.6406 197.251 13.6406ZM213.13 24.3398C212.075 24.3398 211.228 24.1289 210.587 23.707C210.204 23.457 209.79 23.0195 209.345 22.3945V24H206.075V6.75H209.403V12.8906C209.825 12.2969 210.29 11.8438 210.798 11.5312C211.399 11.1406 212.165 10.9453 213.095 10.9453C214.774 10.9453 216.087 11.5508 217.032 12.7617C217.985 13.9727 218.462 15.5352 218.462 17.4492C218.462 19.4336 217.993 21.0781 217.056 22.3828C216.118 23.6875 214.81 24.3398 213.13 24.3398ZM214.958 17.8008C214.958 16.8945 214.841 16.1445 214.606 15.5508C214.161 14.4258 213.341 13.8633 212.146 13.8633C210.935 13.8633 210.103 14.4141 209.649 15.5156C209.415 16.1016 209.298 16.8594 209.298 17.7891C209.298 18.8828 209.54 19.7891 210.024 20.5078C210.509 21.2266 211.247 21.5859 212.239 21.5859C213.099 21.5859 213.767 21.2383 214.243 20.543C214.72 19.8477 214.958 18.9336 214.958 17.8008ZM229.665 11.8125C230.665 12.4531 231.239 13.5547 231.388 15.1172H228.048C228.001 14.6875 227.88 14.3477 227.685 14.0977C227.317 13.6445 226.692 13.418 225.81 13.418C225.083 13.418 224.563 13.5312 224.251 13.7578C223.946 13.9844 223.794 14.25 223.794 14.5547C223.794 14.9375 223.958 15.2148 224.286 15.3867C224.614 15.5664 225.774 15.875 227.767 16.3125C229.095 16.625 230.091 17.0977 230.755 17.7305C231.411 18.3711 231.739 19.1719 231.739 20.1328C231.739 21.3984 231.267 22.4336 230.321 23.2383C229.384 24.0352 227.931 24.4336 225.962 24.4336C223.954 24.4336 222.47 24.0117 221.509 23.168C220.556 22.3164 220.079 21.2344 220.079 19.9219H223.466C223.536 20.5156 223.688 20.9375 223.923 21.1875C224.337 21.6328 225.103 21.8555 226.22 21.8555C226.876 21.8555 227.396 21.7578 227.778 21.5625C228.169 21.3672 228.364 21.0742 228.364 20.6836C228.364 20.3086 228.208 20.0234 227.896 19.8281C227.583 19.6328 226.423 19.2969 224.415 18.8203C222.97 18.4609 221.95 18.0117 221.356 17.4727C220.763 16.9414 220.466 16.1758 220.466 15.1758C220.466 13.9961 220.927 12.9844 221.849 12.1406C222.778 11.2891 224.083 10.8633 225.763 10.8633C227.356 10.8633 228.657 11.1797 229.665 11.8125Z" fill="#000"/><ellipse cx="12.214" cy="14.326" rx="7.969" ry="10.626" transform="rotate(30 12.214 14.326)" fill="#565656"/><ellipse cx="25.319" cy="14.326" rx="7.969" ry="10.626" transform="rotate(30 25.319 14.326)" fill="#000"/></svg>