<svg xmlns="http://www.w3.org/2000/svg" width="146" height="179" fill="none"><g clip-path="url(#A)"><g fill="#fdfdfd"><path d="M103.54 128.396l-.275.02.275-.02zm27.976 32.424l.025-.032-.037-.008c-.09.1-.055.098.01.04h.002z"/><path d="M145.992 162.074c-.121-4.29-1.079-8.546-1.958-12.731-.432-2.055-.859-4.112-1.175-6.19l-.082-.565-.037-.299-.146-1.43c-.11-1.245-.181-2.515-.483-3.731-.559-2.253-2.019-3.923-3.721-5.419-1.547-1.358-3.176-2.62-4.814-3.867l-4.649-3.464-1.058-.799c.014.008-.665-.517-.734-.573-.777-.613-1.543-1.239-2.291-1.884-1.442-1.245-2.746-2.597-4.067-3.965-.877-.906-1.893-1.613-3.087-2.04-1.147-.408-2.397-.473-3.599-.609-4.352-.494-8.677-.798-13.014.004-2.168.402-4.31 1.155-6.243 2.212-1.069.584-2.058 1.312-2.989 2.094-.394.331-.752.693-1.119 1.051l-.321.307c.098-.1-.015-.031-.079.024-.106.029-.236.069-.298.089-.136.011-.275.021-.412.026l-1.664.09-3.748.203-7.497.406c-1.806.098-3.548 1.515-3.462 3.448.075 1.668 1.343 3.321 3.089 3.444-.413.961-.435 2.074.202 2.989.485.698.998 1.33 1.66 1.858a33.78 33.78 0 0 0 1.181.897l.154.111c-.163.207-.323.417-.458.643-1.869 3.137-1.3 7.225 1.166 9.858 1.06 1.132 2.456 1.9 3.75 2.729l.381.249a4.21 4.21 0 0 1 .077.052c.087.092.471.439.537.506.017.017.029.03.044.044.01.025.031.063.063.119-.492.655-.969 1.241-1.25 2.074-.756 2.239.383 4.376 2.221 5.642 1.242.854 2.735 1.433 4.081 2.107l2.162 1.082c.035.017.069.037.104.054.639 2.938 2.639 5.372 4.956 7.203 2.441 1.927 5.166 4.057 8.237 4.834 1.743.441 3.556.46 5.335.632.175.018.802.104.531.06l.829.138c.758.137 1.512.302 2.26.488 5.906 1.454 11.728 4.078 17.876 4.037 1.187 1.253 2.81 1.381 4.478.902 1.942-.557 3.764-1.702 5.137-3.175 3.023-3.243 4.067-7.632 3.946-11.967l-.002.002zm-14.568-1.141c-.089.059-.181.117-.275.17l-.154-.015-.214-.058a15.78 15.78 0 0 0-.507-.214l-1.227-.619a70.72 70.72 0 0 0 2.457.584 2.32 2.32 0 0 1 .158-.151c-.006.008-.009.015-.013.025l-.108.136c-.006.011-.015.021-.027.031-.031.038-.061.076-.094.113l.004-.002zm-28.953-32.763c.062 0 .144 0 .258-.004.532-.006 1.056.004 1.584.038-.242.066-.488.125-.738.184-.008 0-.015.004-.025.006.027 0 .054-.004.085-.006a.76.76 0 0 0-.095.008c-.123.021-.317.029-.275.019a10.65 10.65 0 0 1-.506.033c-.476.017-.953.015-1.43 0 .092-.029.184-.06.278-.085.283-.076.572-.149.862-.195l.002.002zm-5.916 6.738c1.175.096 2.348.245 3.523.345l-3.323-.037-.2-.308zm10.53-.349c.56-.214 1.119-.459 1.654-.735.244-.127.483-.264.725-.393a6.16 6.16 0 0 1 .161-.08c.302.222.639.49.693.53l.054.041.134.107.504.398 1 .808.654.546a262.74 262.74 0 0 0-9.433-.452c1.317-.073 2.635-.3 3.852-.768l.002-.002zm-14.884 8.069l-.189-.417 1.087.075.173.268c-.008.185 0 .373.025.555.112.824.51 1.548 1.088 2.076-.263.065-.525.134-.785.211a42.25 42.25 0 0 1-1.4-2.766v-.002zm7.333 9.625l1.823 2.783a21.73 21.73 0 0 0 1.231 1.668c-.029-.019-.04-.027-.03-.016l-.312-.266a24.93 24.93 0 0 1-1.164-1.113 50.51 50.51 0 0 1-2.263-2.432l-.596-.703a41.19 41.19 0 0 1 1.312.079z"/></g><path d="M102.115 140.261l-1.181-2.962c-1.271-4.164-1.346-3.798-4.858-4.222l-7.228-.718c-.19-.019-.423 0-.56-.098-.283-.206-.513-.482-.767-.731.29-.238.569-.663.875-.686 3.795-.266 7.587-.82 11.349-.176l.334-1.785c.116-.588-.436-1.496-1.071-1.711l-8.768-2.951c-1.677-.584-3.31-1.295-4.981-1.896-.775-.278-1.629-.353-2.381-.672-.329-.14-.492-.667-.731-1.019.365-.178.725-.493 1.1-.512 1.258-.065 2.519-.025 3.956-.025l-2.171-3.616-3.943-6.083c-.779-1.195-.773-2.459.075-3.608.546-.741 1.152-1.438 1.8-2.241l-2.671-4.166c-1.148.623-2.304 1.173-3.381 1.849-1.998 1.254-4.116 2.13-6.431 2.66-2.083.477-4.073 1.345-6.153 1.844-1.812.435-3.685.795-5.539.839-3.798.092-7.624.178-11.401-.153-4.687-.41-9.093-2.047-13.374-3.965l-9.624-4.364a5.8 5.8 0 0 1-1.425-.946c-2.537-2.272-5.177-4.451-7.539-6.893-2.585-2.672-5.045-5.495-7.289-8.454-1.215-1.601-1.914-3.606-2.758-5.468-1.127-2.482-2.156-5.008-3.248-7.506C.544 66.2.46 62.317.21 58.475c-.16-2.44-.287-4.901-.138-7.335.231-3.769.452-7.573 1.169-11.266.514-2.643 1.3-5.374 3.375-7.42.167-.165.252-.431.335-.665 1.427-4.001 3.383-7.747 5.714-11.285.721-1.095 1.827-1.938 2.764-2.894.669-.682 1.404-1.308 2.01-2.042 3.314-4.013 7.633-6.615 12.211-8.927 3.56-1.798 7.289-3.158 11.063-4.363 2.925-.935 5.96-1.592 8.993-2.099 1.839-.308 3.766-.146 5.652-.102 1.917.044 3.835.151 5.745.328 2.091.193 4.181.435 6.253.768 3.237.519 6.454 1.216 9.455 2.538 2.177.96 4.293 2.122 6.281 3.426 2.879 1.888 5.799 3.785 8.374 6.047 3.341 2.934 6.751 5.849 9.005 9.841 1.214 2.147 3.004 3.968 4.239 6.108 1.273 2.206 2.406 4.545 3.204 6.956 1.304 3.938 2.031 8.014 1.994 12.202-.019 2.182.177 4.363.165 6.545-.03 5.261-.825 10.406-2.552 15.391l-2.261 6.43c-1.16 3.227-3.158 5.972-5.074 8.772-2.485 3.633-5.731 6.458-9.245 9.046-1.641 1.209-3.148 2.595-4.75 3.928l2.593 4.039c1.868-1.222 3.758-.603 5.662-.013.858.266 1.529.701 2.01 1.486l4.329 6.966c.325.538.646.78 1.281.739 2.796-.182 5.595-.415 8.393-.463a111.41 111.41 0 0 1 8.766.182c1.622.099 2.929 1.019 3.912 2.337.266.356.504.768.852 1.022 2.685 1.963 4.668 4.597 6.91 6.991 2.151 2.296 4.561 4.348 6.851 6.514 1.089 1.03 2.206 2.036 3.233 3.124.535.567.958 1.26 1.325 1.953.3.565.177 1.148-.473 1.448-.615.286-.973-.094-1.363-.53-.479-.537-1.049-.998-1.606-1.46l-11.64-9.628c-1.927-1.614-3.791-3.306-5.674-4.97-.476-.421-1.003-.822-1.365-1.331-.662-.933-1.546-1.237-2.631-1.278-3.575-.132-7.133.048-10.689.428-1.231.13-2.481.082-3.722.126l-4.887.197 1.166 5.512c.048.207.367.433.606.506 2.995.917 6.026 1.668 9.176 1.791 1.972.076 3.245 1.243 3.57 3.292.546 3.461 1.825 6.681 4.152 9.27 2.418 2.689 5.183 5.074 7.839 7.542.61.565 1.193 1.04 1.108 1.969-.021.228.089.508.225.703l5.726 8.196c1.054 1.473 1.892 3.022 2.213 4.817.452 2.537-1.621 6.402-4.029 7.285-2.721.998-5.454 1.931-8.414 2.092-1.918.103-3.377-.443-4.416-2.042l-2.208-3.461c-.479-.705-1.013-1.384-1.6-2.003-.989-1.044-1.096-1.996-.256-3.153l1.096-1.505-2.634-4.294-7.688 2.308c-.352.109-.629.471-.981.563-.344.092-.738-.012-1.111-.029.044-.362-.05-.91.152-1.055 1.492-1.073 3.027-2.086 4.581-3.068.504-.32 1.11-.477 1.656-.736 1.531-.722 1.81-1.463 1.035-2.967-.699-1.354-1.476-2.666-2.206-4.003-.383-.701-.895-.99-1.718-.752-1.808.519-3.616 1.051-5.448 1.455-1.127.249-2.304.312-3.462.37-.233.011-.654-.356-.683-.586-.029-.24.294-.736.498-.755 3.052-.279 5.252-2.536 7.922-3.284l-.006.001zm-47.531-36.252c1.379 0 2.762.081 4.133-.021 1.737-.126 3.491-.282 5.189-.645 1.564-.336 3.066-.966 4.595-1.468 2.208-.725 4.558-.969 6.601-2.265 1.731-1.099 3.623-1.946 5.431-2.927.694-.377 1.402-.753 2.029-1.23l5.935-4.631c5.004-4.02 8.899-8.9 11.345-14.847.867-2.107 1.529-4.296 2.296-6.443 1.675-4.69 2.275-9.555 2.512-14.501.133-2.779-.581-5.468-.338-8.305.305-3.58-.822-7.111-2.064-10.524-1.168-3.206-3.375-5.633-5.737-7.966-.683-.674-1.154-1.421-1.01-2.44.023-.161-.065-.37-.167-.51-.862-1.176-1.625-2.453-2.633-3.491-3.766-3.878-7.955-7.232-12.397-10.35-6.143-4.311-12.992-6.34-20.289-7.207-2.502-.297-5.052-.184-7.562-.442a23.24 23.24 0 0 0-9.62.99c-1.625.519-3.377.667-4.966 1.262-3.17 1.186-6.297 2.501-9.389 3.88-4.056 1.81-7.67 4.252-10.503 7.74a14.21 14.21 0 0 1-2.085 2.103c-1.617 1.302-2.914 2.839-3.848 4.687l-2.97 5.851c-.238.479-.671 1.076-.548 1.48.354 1.182-.515 1.806-.933 2.643-.471.944-1.456 1.433-1.871 2.511-.956 2.486-1.404 5.033-1.754 7.65-.383 2.865-.352 5.685-.008 8.544.198 1.641.946 3.371-.271 4.962-.065.084-.044.251-.033.375.169 1.996.119 4.043.577 5.972.539 2.26 1.406 4.465 2.335 6.606 1.867 4.304 3.543 8.703 6.835 12.262 3.712 4.011 7.253 8.178 12.228 10.752.262.136.648.435.633.632-.073.962.654 1.157 1.271 1.435l8.387 3.721c5.949 2.605 12.042 4.577 18.671 4.158l-.008-.004z" fill="#020202"/><path d="M91.22 159.328c-2.848-.971-5.173-2.733-7.318-4.765-1.614-1.53-1.892-3.204-.892-5.181l.638-1.191c-1.989-.502-3.245-1.912-4.36-3.434-.754-1.031-1.454-2.128-1.991-3.281l-2.266-5.518c-.346-.864.39-2.16 1.339-2.448.562-.17 1.106-.402 1.981-.728l-3.568-2.706-2.606-1.833c-1.733-1.417-1.481-3.137-.656-4.922.536-1.161 1.566-1.852 2.656-2.233 1.416-.494 2.939-.697 4.427-.948.263-.044.592.291.891.45-.204.245-.364.561-.619.726l-4.833 3.055c-.825.559-.598 1.425-.033 1.974.992.96 2.112 1.795 3.21 2.638l4.348 3.257c.714.564.592 1.667-.237 2.199-.556.356-1.202.586-1.829.812-1.208.435-1.337.663-.785 1.772.598 1.199 1.198 2.382 1.123 3.792-.015.278.29.603.51.854.731.839 1.423 1.728 2.256 2.454.7.611 1.567 1.038 2.379 1.513.66.385 1.392.655 2.014 1.088.937.653.921 1.676.04 2.403-.196.163-.419.297-.6.477-1.379 1.379-1.389 2.105.102 3.321 1.181.964 2.404 1.898 3.704 2.691.664.405 1.527.581 2.319.657 1.446.138 2.331.96 2.023 2.36-.514 2.339.562 4.298 1.327 6.326.142.379.75.623 1.183.852l3.647 1.824c.6.285 1.244.479 1.858.737l4.55 1.935c.875.346 1.785.768 2.7.823 4.345.268 8.599.879 12.757 2.251 2.291.754 4.699 1.16 7.064 1.672.674.145 1.387.159 2.079.145 1.168-.023 1.954.494 2.114 1.477.19 1.18-.29 2.101-1.494 2.239-1.231.142-2.551.134-3.747-.157-3.679-.9-7.291-2.084-10.982-2.929-2.504-.572-5.087-.86-7.65-1.088-1.833-.162-3.466-.676-5.035-1.612-1.024-.609-2.177-1.002-3.281-1.471-.291-.125-.639-.127-.918-.266-2.21-1.119-4.437-2.211-6.595-3.421-.533-.299-.975-.952-1.215-1.54-.923-2.266-1.796-4.56-1.737-7.094l.006-.008z" fill="#050505"/><path d="M34.171 137.006l-.354 1.007-1.5 3.63-3.995 7.165-2.375 4.562c-.81 1.425-1.673 2.802-3.285 3.555-1.229.574-2.425.791-3.652.197-1.398-.676-2.06-2.509-1.35-3.886.74-1.438 1.623-2.806 2.452-4.198l2.539-4.204 3.254-5.198 1.956-3.348c.562-.966 2.691-2.153 3.645-2.032 1.731.22 2.377.913 2.666 2.748v.002z" fill="#030303"/><path d="M41.754 160.61l1.7-4.794 3.385-7.215 2.533-6.269c.252-.642 1.714-1.657 2.318-1.536 1.037.205 1.948 1.5 1.731 2.62l-1.023 4.411-1.502 5.761-2.264 8.178a5.33 5.33 0 0 1-1.365 2.193c-.975.931-2.271.765-3.412.341-.996-.369-1.719-1.134-1.791-2.315-.025-.435-.108-.864-.163-1.297l-.148-.078h.002zm-20.333-41.472c.76.074 1.633-.048 2.298.266 1.908.9 2.008 2.718.758 4.097l-3.485 3.779c-.063.068-.146.122-.221.18-1.95 1.501-3.747 3.236-6.001 4.294-2.375 1.112-4.974.534-5.929-2.341-.263-.789-.235-1.754.606-2.386.025-.019.071-.029.079-.052.458-1.657 1.904-1.059 2.983-1.327.477-.119.921-.41 1.354-.667l3.568-2.197c1.16-.8 2.26-1.689 3.345-2.589.289-.241.421-.67.648-1.055l-.002-.002z" fill="#040404"/><path d="M54.584 104.009c-6.629.419-12.722-1.555-18.671-4.16l-8.387-3.721c-.617-.278-1.344-.473-1.271-1.435.015-.197-.371-.496-.633-.632-4.975-2.576-8.516-6.742-12.228-10.752-3.293-3.559-4.968-7.958-6.835-12.262-.929-2.141-1.796-4.346-2.335-6.606-.46-1.927-.408-3.976-.577-5.972-.012-.124-.033-.291.033-.375 1.219-1.592.469-3.321.271-4.962-.344-2.859-.375-5.679.008-8.544.35-2.616.798-5.166 1.754-7.65.415-1.078 1.4-1.569 1.871-2.511.417-.837 1.287-1.461.933-2.643-.121-.404.31-1.002.548-1.48l2.97-5.851c.935-1.846 2.229-3.384 3.848-4.687a14.11 14.11 0 0 0 2.085-2.103c2.833-3.488 6.447-5.93 10.503-7.74 3.091-1.379 6.218-2.695 9.389-3.88 1.589-.596 3.343-.741 4.966-1.262 3.148-1.007 6.326-1.329 9.62-.99 2.51.259 5.06.146 7.562.442 7.297.868 14.146 2.896 20.288 7.207 4.443 3.118 8.632 6.472 12.397 10.35 1.008 1.038 1.771 2.316 2.633 3.492.102.14.19.349.167.509-.144 1.019.327 1.766 1.01 2.44 2.362 2.333 4.57 4.759 5.737 7.966 1.243 3.413 2.37 6.945 2.064 10.524-.242 2.837.471 5.526.338 8.305-.236 4.945-.834 9.81-2.511 14.501-.768 2.147-1.429 4.336-2.297 6.443-2.448 5.947-6.343 10.829-11.345 14.847l-5.935 4.631c-.627.475-1.333.852-2.029 1.23-1.81.979-3.7 1.827-5.431 2.927-2.041 1.297-4.393 1.54-6.601 2.266-1.529.501-3.029 1.13-4.595 1.467-1.698.364-3.45.519-5.189.645-1.371.1-2.754.021-4.133.021l.008.006zM41.14 84.837l.165.146c.942 2.936 1.758 5.922 2.866 8.795 1.158 3.003 4.474 4.29 7.11 1.207 3.066-3.585 5.56-7.548 7.987-11.561 1.439-2.381 2.858-4.771 4.924-6.68 1.633-1.511 3.439-2.612 5.837-2.386 1.623.153 3.27.243 4.893.151l13.538-.965c1.25-.1 2.389-.682 2.681-1.965.281-1.233.269-2.547.271-3.825 0-.485-.319-.969-.492-1.454-.027-1.433-.229-1.708-1.554-2.135l-.81-.268c-.106-.372-.115-.812-.333-1.099-.846-1.128-1.756-2.206-2.642-3.304-.073-.433-.185-.864-.21-1.298-.088-1.574-.16-1.641-1.683-1.354-.189.036-.377.065-.564.1-1.673-1.881-3.254-3.796-4.375-6.104-1.002-2.063-1.489-3.98-.119-6.026.175-.261.262-.58.381-.875 2.189-5.445 4.12-10.971 5.268-16.739.264-1.325.015-2.662-.713-3.76-1.327-1.996-2.798-2.346-5.552-1.103-2.546 1.151-5.139 2.03-7.866 2.609-1.585.335-3.139.841-4.677 1.36-2.146.724-4.272 1.507-6.385 2.321-.833.32-1.569.186-2.283-.213-1.396-.778-2.791-1.561-4.148-2.404l-9.726-6.146c-1.648-1.092-3.098-2.478-4.739-3.585-.662-.446-1.625-.77-2.391-.672-1.475.186-2.731 1.013-3.71 2.166-1.05 1.237-1.023 2.789-1.064 4.258-.071 2.574-.069 5.158.05 7.73.1 2.153.302 4.313.65 6.441.492 3.022-.085 5.698-2.189 7.962-.889.956-1.796 1.936-2.852 2.689-3.227 2.296-6.541 4.472-9.797 6.726-1.314.91-2.612 1.85-3.837 2.871-1.644 1.369-2.144 3.677-1.254 5.545.154.322.581.743.86.728.51-.029 1.046-.283 1.485-.573.254-.167.342-.586.504-.891l1.627 2.706c.254.735.598 1.398 1.423 1.636l2.65.741 12.22 3.503c1.296.406 2.437 1.302 3.648 1.975.219.684.321 1.44.692 2.03.348.553.981.931 1.489 1.385l1.256 3.438c-.575.659-.873 1.362-.483 2.245.292.661.45 1.385.777 2.026.342.672.813 1.279 1.229 1.915l-.029-.019-.004.002z" fill="#fda701"/><path d="M16.267 63.96l-1.627-2.706c-.06-.938-.375-1.961.442-2.71.796-.728 1.669-1.379 2.556-1.996 4-2.779 8.139-5.378 11.988-8.351 2.858-2.208 4.947-5.123 5.36-8.914.123-.197.367-.404.35-.588a80.81 80.81 0 0 0-.473-4.143c-.079-.548-.294-1.074-.446-1.611l.006.021-.167-.542-.012-11.89c.014-1.437.983-1.894 2.129-1.042 2.069 1.54 4.008 3.267 6.16 4.677 3.544 2.321 7.183 4.511 10.853 6.631 1.304.753 2.804 1.184 4.239 1.691.673.239 1.318.04 1.802-.538.115-.136.256-.285.417-.345 2.652-.981 5.281-2.038 7.974-2.898 3.322-1.059 6.881-1.346 9.999-3.068.535-.035 1.077-.033 1.606-.109.75-.111 1.035.247 1.115.927.077.649.2 1.295.302 1.942-.004.128.017.262-.017.381-1.354 4.918-2.817 9.801-4.868 14.487-.827 1.889-1.746 3.756-1.306 5.92l-.008.938c-.021.546.067 1.136-.113 1.622-.219.586-.673 1.086-1.025 1.622l.129.109 2.214-1.034c.971 2 2.037 3.922 3.539 5.606 2.323 2.605 4.547 5.3 6.828 7.943.144.169.421.285.648.312 1.423.165 2.156-.894 1.693-2.415l.812.272c1.327.427 1.527.703 1.554 2.136-2.627 1.105-2.623.898-2.518 3.516.004.117-.038.236-.063.377-.315.058-.592.123-.873.155-2.014.238-4.022.577-6.043.672-2.573.123-5.156.034-7.735.058-2.383.023-4.839-.37-7.093.647-2.9 1.31-5.343 3.266-7.108 5.928l-6.602 10.26c-1.258 1.892-2.685 3.672-4.029 5.495-1.302-.58-2.033-1.375-2.389-2.555l-2.219-7.159-2.721-9.371c-.85-2.802-2.258-5.246-4.837-6.853l1.206-.85-.089-.188-2.019.624-10.413-3.041-6.104-1.854c-1.398-.408-3.031.596-2.996 1.797l-.004.004zm21.835 2.417l.06.029.004-.046-.064.017z" fill="#fdfdfd"/><path d="M77.819 25.64c-3.12 1.722-6.679 2.009-9.999 3.068-2.692.858-5.32 1.915-7.974 2.898-.162.059-.302.207-.417.345-.485.578-1.129.778-1.802.538-1.435-.508-2.935-.939-4.239-1.691-3.67-2.122-7.308-4.309-10.853-6.631-2.152-1.41-4.093-3.137-6.16-4.677-1.144-.852-2.116-.395-2.129 1.042l.011 11.89.167.542-.006-.021.569 6.343c-.411 3.788-2.502 6.705-5.36 8.914-3.848 2.973-7.987 5.572-11.988 8.351-.887.617-1.762 1.27-2.556 1.996-.817.749-.502 1.77-.442 2.71-.162.304-.25.724-.504.891-.44.289-.975.544-1.485.573-.279.015-.706-.406-.86-.728-.89-1.869-.39-4.175 1.254-5.545 1.225-1.021 2.523-1.961 3.837-2.871l9.797-6.726c1.056-.751 1.964-1.731 2.852-2.689 2.104-2.264 2.683-4.938 2.189-7.962-.346-2.126-.55-4.288-.65-6.441-.119-2.572-.121-5.156-.05-7.73.04-1.471.014-3.02 1.064-4.258.979-1.153 2.235-1.98 3.71-2.166.766-.098 1.729.226 2.391.672 1.641 1.107 3.091 2.494 4.739 3.585 3.197 2.116 6.468 4.124 9.726 6.146 1.358.843 2.752 1.626 4.148 2.404.713.398 1.452.534 2.283.213a165.53 165.53 0 0 1 6.385-2.321c1.537-.519 3.093-1.025 4.677-1.36 2.727-.578 5.32-1.457 7.866-2.609 2.754-1.245 4.225-.893 5.553 1.103.729 1.098.977 2.432.713 3.76-1.148 5.767-3.079 11.294-5.268 16.74-.119.295-.206.615-.381.875-1.369 2.044-.883 3.961.119 6.026 1.121 2.308 2.702 4.223 4.375 6.104l2.458 2.553c.887 1.098 1.796 2.176 2.642 3.304.215.289.227.73.331 1.099.462 1.519-.271 2.578-1.694 2.413-.229-.027-.504-.144-.648-.312l-6.828-7.943c-1.502-1.684-2.568-3.608-3.539-5.606l-1.196-3.258c-.442-2.166.479-4.032 1.306-5.92 2.05-4.687 3.514-9.569 4.868-14.487.033-.119.012-.255.017-.381.106-.456.225-.908.312-1.366.206-1.096-.54-2.034-1.662-1.952-.567.042-1.115.362-1.671.557v-.004zM16.267 63.96c-.035-1.201 1.598-2.204 2.996-1.796l6.104 1.854 10.413 3.041.904.412c2.581 1.607 3.987 4.049 4.837 6.853l2.721 9.371 2.22 7.159c.356 1.18 1.087 1.975 2.389 2.555l4.029-5.495 6.602-10.26c1.766-2.662 4.208-4.618 7.108-5.928 2.256-1.019 4.71-.624 7.093-.647l7.735-.058c2.02-.096 4.029-.435 6.043-.672.281-.033.558-.098.873-.155.025-.142.067-.26.063-.377-.106-2.62-.11-2.413 2.518-3.516.173.485.492.969.492 1.454-.002 1.278.01 2.591-.271 3.825-.292 1.283-1.431 1.865-2.681 1.965l-13.538.965c-1.623.092-3.271.004-4.893-.151-2.398-.226-4.204.875-5.837 2.386-2.064 1.91-3.483 4.302-4.923 6.68-2.427 4.013-4.922 7.975-7.987 11.561-2.637 3.084-5.953 1.795-7.11-1.207-1.108-2.873-1.921-5.859-2.866-8.795l-.165-.146.029.019c-.265-1.325-.502-2.658-.81-3.974-.177-.753-.471-1.477-.714-2.214l-1.256-3.438c-.435-1.323-.987-2.572-2.181-3.415-1.212-.672-2.352-1.567-3.648-1.975-4.041-1.268-8.141-2.35-12.22-3.503l-2.65-.741c-.825-.237-1.169-.9-1.423-1.636l.004-.002z" fill="#040302"/><path d="M39.646 78.67l.713 2.214.81 3.974-1.229-1.915c-.327-.642-.485-1.366-.777-2.026-.39-.883-.092-1.586.483-2.245v-.002z" fill="#f6f3ee"/><path d="M85.581 59.493l-2.458-2.553.564-.1c1.525-.287 1.594-.222 1.683 1.354.025.435.139.866.21 1.299h.002z" fill="#f7f1e5"/><path d="M36.209 71.815c1.194.843 1.744 2.093 2.181 3.415-.508-.454-1.14-.831-1.489-1.387-.371-.59-.473-1.346-.692-2.03v.002z" fill="#f5efe3"/><path d="M74.651 49.189l1.196 3.258-2.214 1.034-.129-.109c.352-.536.806-1.036 1.025-1.622.183-.488.092-1.078.114-1.622l.008-.939z" fill="#f3a614"/><path d="M77.819 25.64c.556-.195 1.104-.515 1.671-.557 1.121-.082 1.868.856 1.662 1.952L80.84 28.4l-.302-1.942c-.081-.678-.365-1.036-1.115-.927-.529.078-1.069.077-1.606.109h.002z" fill="#eba113"/><path d="M34.986 39.284l-.569-6.343c.154.536.367 1.065.446 1.611l.473 4.143c.017.184-.227.393-.35.588v.002z" fill="#efa820"/><path d="M36.684 67.472l-.904-.412 2.019-.624.089.188-1.206.85.002-.002z" fill="#f8b128"/><path d="M34.422 32.964l-.167-.542.167.542z" fill="#efa820"/><path d="M38.102 66.378l.064-.019-.004.046-.06-.027z" fill="#f8b128"/></g><defs><clipPath id="A"><path fill="#fff" d="M0 0h146v179H0z"/></clipPath></defs></svg>