<svg width="24" height="24" viewBox="0 0 24 24" fill="none" xmlns="http://www.w3.org/2000/svg"><path d="M23 12c0-6.075-4.925-11-11-11S1 5.925 1 12c0 5.49 4.023 10.041 9.281 10.866V15.18H7.488V12h2.793V9.577c0-2.757 1.642-4.28 4.155-4.28 1.204 0 2.462.215 2.462.215v2.707h-1.387c-1.367 0-1.793.848-1.793 1.718V12h3.051l-.488 3.18h-2.563v7.687C18.978 22.041 23 17.49 23 12z" fill="#1877f2"/><path d="M16.282 15.18L16.77 12h-3.051V9.937c0-.87.426-1.718 1.793-1.718h1.387V5.512s-1.259-.215-2.462-.215c-2.513 0-4.155 1.523-4.155 4.28V12H7.488v3.18h2.793v7.687c.56.088 1.134.134 1.719.134s1.159-.046 1.719-.134V15.18h2.563z" fill="#fff"/></svg>