<svg width="40" height="40" viewBox="0 0 40 40" fill="none" xmlns="http://www.w3.org/2000/svg"><rect width="40" height="40" rx="8" fill="#000"/><path d="M25.6855 20.919C25.6592 18.2808 27.8368 17.0154 27.9342 16.9515C26.7103 15.1621 24.8037 14.9165 24.125 14.8886C22.5037 14.7239 20.9598 15.8436 20.1373 15.8436C19.3164 15.8436 18.0456 14.9127 16.7011 14.9364C14.9324 14.9627 13.3021 15.9651 12.392 17.5484C10.5551 20.7348 11.9221 25.4571 13.7119 28.0432C14.5869 29.3073 15.6305 30.7297 16.9995 30.6776C18.319 30.6256 18.8169 29.8242 20.412 29.8242C22.0071 29.8242 22.455 30.6776 23.8507 30.651C25.2697 30.6251 26.1693 29.3628 27.0372 28.0936C28.0417 26.6251 28.4553 25.2031 28.4799 25.1311C28.449 25.1167 25.7138 24.069 25.6855 20.919Z" fill="#fff"/><path d="M23.0631 13.1768C23.7891 12.2955 24.281 11.0708 24.1473 9.85156C23.0995 9.8939 21.8312 10.5479 21.0789 11.4285C20.405 12.2099 19.8157 13.4541 19.9736 14.6513C21.1424 14.7419 22.3345 14.0565 23.0631 13.1768Z" fill="#fff"/></svg>