<svg width="40" height="40" viewBox="0 0 40 40" fill="none" xmlns="http://www.w3.org/2000/svg"><path d="M35.7812 16.3283V16.4846L29.9141 34.9143L13.6719 35.0783H10.3906L4.21875 16.6408V16.4846L19.8969 5.0127L35.7812 16.3283ZM34.1406 16.3275L20.4297 6.40645L24.6875 15.0775L15.3133 15.1557L19.3711 6.67441L19.2594 6.56348C15.1641 9.66973 10.9688 12.6432 6.85078 15.7174C6.57578 15.9229 6.02578 16.2689 5.82031 16.4838C5.72969 16.5783 5.81016 16.5705 5.9 16.5643L15.2352 15.1572L12.5008 24.0627L5.47109 17.5002L10.7836 33.5932L12.4633 24.14L20.0797 29.5705L11.643 34.14L28.5953 34.0619L20.1594 29.5705L27.6203 24.0635L29.4539 33.4369L34.532 17.2658L27.6586 23.9846L24.7672 15.0791L34.1414 16.3275H34.1406Z" fill="#000"/></svg>