<svg xmlns="http://www.w3.org/2000/svg" width="40" height="40"><path d="M13.067 5.547l6.528 1.226 13.13 2.377.203.304v.156c-.228 2.106-.961 4.42-1.213 6.556l-3.146 3.407c-.23.235-1.073 1.15-1.306 1.196L7.518 17.324c-.262-.051-.4-.296-.364-.554l1.225-6.669 3.284-3.502c.359-.373.733-.79 1.17-1.052h.234zm18.536 4.141L13.037 6.425l-3.475 3.652 18.581 3.275.152-.065c.571-.703 1.247-1.304 1.868-1.959l1.323-1.407c.06-.078.151-.099.116-.234h.002zm-3.737 9.296c1.088-.977 2.033-2.101 3.055-3.146l.916-5.057-3.07 3.209-.901 4.994zm.544 15.47H8.316l-.273-.234-.02-7.052 3.505-5.155 20.04-.063c.334-.03.469.207.503.511.235 2.035-.165 4.54-.02 6.625l-3.298 5.051c-.104.13-.227.209-.345.318h.001zm2.415-11.719H11.899l-2.726 4.219H28.06l2.609-3.867c.065-.113.176-.204.155-.352zm-2.103 9.844l2.492-3.633v-5.117l-2.492 3.633v5.117z"/></svg>