<svg xmlns="http://www.w3.org/2000/svg" width="153" height="160" fill="#fff"><path d="M128.028 69.991c-13.023 28.288-46.51 40.663-74.799 27.64-26.253-12.088-38.784-41.804-30.042-68.629-6.577 6.375-12.12 14.03-16.182 22.852-17.609 38.252-.877 83.532 37.375 101.141s83.532.877 101.141-37.374c13.569-29.474 6.729-63.113-14.621-85.062 3.7 12.607 3.052 26.557-2.876 39.433h.004zM89.487 29.036c-16.557 4.242-17.39 6.813-21.632 29.036-4.242-22.223-5.075-24.794-21.632-29.036C62.781 24.794 63.614 22.223 67.855 0c4.242 22.223 5.075 24.794 21.632 29.036zm14.746 35.218c-10.897 2.79-11.448 4.484-14.239 19.111-2.791-14.628-3.342-16.321-14.239-19.111 10.897-2.79 11.449-4.484 14.239-19.111 2.79 14.627 3.342 16.321 14.239 19.111z"/></svg>