<svg xmlns="http://www.w3.org/2000/svg" width="84" height="112" fill="none"><path d="M71.795 112c-1.535 0-2.898-.346-4.088-1.037a7.7 7.7 0 0 1-2.778-2.778 7.48 7.48 0 0 1-1.008-3.815 7.49 7.49 0 0 1 .576-2.908 7.47 7.47 0 0 1 1.627-2.433 7.74 7.74 0 0 1 2.505-1.67c.96-.413 2.015-.619 3.167-.619 1.526 0 2.879.346 4.06 1.037 1.19.691 2.121 1.617 2.793 2.778.681 1.162 1.022 2.433 1.022 3.815 0 1.017-.197 1.987-.59 2.908a7.67 7.67 0 0 1-1.627 2.433c-.701.71-1.531 1.272-2.49 1.684-.96.403-2.015.605-3.167.605zm-.014-3.225c.816 0 1.54-.177 2.174-.532a3.92 3.92 0 0 0 1.512-1.526c.365-.663.547-1.445.547-2.347s-.182-1.684-.547-2.346-.864-1.171-1.497-1.526-1.358-.533-2.174-.533-1.545.178-2.188.533c-.633.355-1.132.863-1.497 1.526-.355.662-.533 1.444-.533 2.346s.182 1.684.547 2.347a3.95 3.95 0 0 0 1.497 1.526c.633.355 1.353.532 2.159.532zm-19.956 2.793V97.172h3.685v1.886c.499-.845 1.123-1.444 1.872-1.8.758-.355 1.574-.533 2.447-.533a7.72 7.72 0 0 1 .849.043 6.1 6.1 0 0 1 .749.13l-.461 3.8c-.298-.105-.609-.182-.936-.23-.317-.058-.633-.087-.95-.087-1.036 0-1.891.312-2.562.936-.672.614-1.008 1.478-1.008 2.591v7.659h-3.685zm-7.833.432c-1.478 0-2.649-.422-3.513-1.267s-1.296-2.121-1.296-3.829V92.997h3.685v4.175h3.786v2.994h-3.786v6.004c0 .921.182 1.574.547 1.957.365.375.868.562 1.511.562a3.6 3.6 0 0 0 .921-.115c.297-.077.571-.178.821-.303l.576 2.937c-.422.221-.917.408-1.483.562a6.76 6.76 0 0 1-1.771.23zm-7.846-11.834v-2.994h3.455v2.994h-3.455zm-9.211 11.819c-1.238 0-2.39-.168-3.455-.503-1.056-.336-1.953-.797-2.692-1.382l1.281-2.621a9.21 9.21 0 0 0 2.346 1.21c.854.297 1.689.446 2.505.446.864 0 1.535-.144 2.015-.432s.72-.691.72-1.209c0-.49-.211-.849-.633-1.08s-1.219-.47-2.39-.72c-1.862-.364-3.215-.902-4.06-1.612-.844-.72-1.267-1.708-1.267-2.965 0-.893.245-1.68.734-2.361.499-.681 1.18-1.209 2.044-1.584.873-.384 1.876-.576 3.009-.576a10.38 10.38 0 0 1 3.124.461c.989.307 1.838.739 2.548 1.296l-1.224 2.634c-.374-.317-.801-.59-1.281-.821a7.38 7.38 0 0 0-1.526-.532 6.79 6.79 0 0 0-1.569-.187c-.758 0-1.372.134-1.843.403-.461.268-.691.647-.691 1.137a1.17 1.17 0 0 0 .648 1.094c.432.23 1.214.475 2.347.734 1.919.413 3.292.96 4.117 1.641s1.238 1.637 1.238 2.865c0 .941-.254 1.761-.763 2.462-.509.691-1.219 1.233-2.131 1.627-.902.383-1.953.575-3.153.575zM8.292 112c-.979 0-1.847-.187-2.606-.562s-1.353-.902-1.785-1.583c-.432-.691-.648-1.507-.648-2.447 0-.807.202-1.526.605-2.16s1.022-1.156 1.857-1.569c.835-.422 1.9-.705 3.196-.849 1.305-.144 2.85-.125 4.636.057l.058 2.433c-1.171-.182-2.193-.264-3.066-.245s-1.598.12-2.174.303c-.566.182-.993.432-1.281.748a1.63 1.63 0 0 0-.417 1.109c0 .633.23 1.123.691 1.468.461.336 1.089.504 1.886.504.681 0 1.291-.125 1.828-.374.547-.25.979-.6 1.296-1.051.317-.461.475-1.003.475-1.627v-3.642c0-.605-.13-1.128-.389-1.569-.25-.451-.633-.797-1.152-1.037-.518-.249-1.185-.374-2.001-.374a7.46 7.46 0 0 0-2.231.346 6.81 6.81 0 0 0-2.059 1.037l-.993-2.635a9.44 9.44 0 0 1 2.879-1.296c1.008-.259 1.982-.389 2.922-.389 1.344 0 2.505.211 3.484.633.989.422 1.747 1.07 2.275 1.944.537.864.806 1.963.806 3.297v9.098H13.13v-1.641c-.48.662-1.142 1.175-1.987 1.54-.845.355-1.795.533-2.85.533z" fill="#687db2"/><g clip-path="url(#A)" fill="#687db2"><path d="M70.085 30.525c-7.13 15.517-25.461 22.304-40.947 15.161-14.372-6.631-21.232-22.93-16.446-37.644a41.72 41.72 0 0 0-8.859 12.535c-9.64 20.982-.48 45.819 20.46 55.477s45.728.481 55.368-20.501c7.428-16.167 3.683-34.619-8.004-46.658 2.025 6.915 1.67 14.567-1.575 21.63h.003zm-22.746-17.86c-7.208 1.85-7.57 2.972-9.417 12.665-1.847-9.693-2.209-10.815-9.417-12.665 7.208-1.85 7.57-2.972 9.417-12.665 1.847 9.693 2.209 10.815 9.417 12.665zm6.419 15.362c-4.744 1.217-4.984 1.956-6.199 8.336-1.215-6.38-1.455-7.119-6.199-8.336 4.744-1.217 4.984-1.956 6.199-8.336 1.215 6.38 1.455 7.119 6.199 8.336z"/></g><defs><clipPath id="A"><path fill="#fff" d="M0 0h83.496v79.897H0z"/></clipPath></defs></svg>