<svg width="158" height="158" viewBox="0 0 158 158" fill="none" xmlns="http://www.w3.org/2000/svg"><g filter="url(#filter0_d_3491_3544)"><path d="M131.934 52.8809C130.344 51.6868 129.4 49.7886 129.4 47.8C129.4 34.1844 118.258 23.0124 104.986 22.6067C102.526 22.5315 100.177 21.3655 98.6393 19.4442C93.9775 13.6207 86.8183 10 79 10C71.1813 10 64.0217 13.6211 59.3599 19.4452C57.8224 21.366 55.4747 22.5322 53.0154 22.6064C39.7207 23.0078 28.6 34.1816 28.6 47.8C28.6 49.7886 27.6559 51.6868 26.0658 52.8809C19.8795 57.5267 16 64.9127 16 73C16 81.0873 19.8795 88.4733 26.0658 93.1191C27.6555 94.3129 28.6027 96.2119 28.6 98.2C28.6 111.821 39.7255 122.971 53.024 123.387C55.4787 123.463 57.8203 124.63 59.3543 126.548C64.0159 132.376 71.1781 136 79 136C86.8215 136 93.9833 132.376 98.645 126.549C100.179 124.63 102.522 123.464 104.977 123.386C118.253 122.966 129.4 111.819 129.4 98.2C129.4 96.2114 130.344 94.3132 131.934 93.1191C138.121 88.4733 142 81.0873 142 73C142 64.9127 138.121 57.5267 131.934 52.8809Z" fill="#fff" style="animation:pathDraw1 5200ms ease-in 0ms infinite,pathFade 5200ms linear 0ms infinite"/><path d="M29.6 98.2006C29.6029 95.8978 28.5077 93.7023 26.6663 92.3194C20.7244 87.8572 17 80.7641 17 73C17 65.2359 20.7244 58.1428 26.6663 53.6806C28.5091 52.2967 29.6 50.1016 29.6 47.8C29.6 34.7286 40.2846 23.9912 53.0456 23.606C55.7963 23.5229 58.419 22.221 60.1406 20.0701C64.618 14.4764 71.4934 11 79 11C86.5062 11 93.3813 14.476 97.8586 20.0692C99.5809 22.2206 102.204 23.5221 104.955 23.6062C117.695 23.9957 128.4 34.7323 128.4 47.8C128.4 50.1016 129.491 52.2967 131.334 53.6806C137.276 58.1428 141 65.2359 141 73C141 80.7641 137.276 87.8572 131.334 92.3194C129.491 93.7033 128.4 95.8984 128.4 98.2C128.4 111.269 117.691 121.984 104.946 122.387C102.199 122.474 99.5823 123.776 97.8641 125.924C93.3868 131.521 86.5092 135 79 135C71.4904 135 64.6124 131.521 60.1352 125.923C58.4175 123.776 55.8014 122.473 53.0552 122.387C40.2881 121.988 29.6003 111.273 29.6 98.2006ZM29.6 98.2006C29.6 98.2009 29.6 98.2011 29.6 98.2014L28.6 98.2H29.6C29.6 98.2002 29.6 98.2004 29.6 98.2006Z" stroke="#c2c0fb" stroke-width="2"/><path d="M29.6 98.2006C29.6029 95.8978 28.5077 93.7023 26.6663 92.3194C20.7244 87.8572 17 80.7641 17 73C17 65.2359 20.7244 58.1428 26.6663 53.6806C28.5091 52.2967 29.6 50.1016 29.6 47.8C29.6 34.7286 40.2846 23.9912 53.0456 23.606C55.7963 23.5229 58.419 22.221 60.1406 20.0701C64.618 14.4764 71.4934 11 79 11C86.5062 11 93.3813 14.476 97.8586 20.0692C99.5809 22.2206 102.204 23.5221 104.955 23.6062C117.695 23.9957 128.4 34.7323 128.4 47.8C128.4 50.1016 129.491 52.2967 131.334 53.6806C137.276 58.1428 141 65.2359 141 73C141 80.7641 137.276 87.8572 131.334 92.3194C129.491 93.7033 128.4 95.8984 128.4 98.2C128.4 111.269 117.691 121.984 104.946 122.387C102.199 122.474 99.5823 123.776 97.8641 125.924C93.3868 131.521 86.5092 135 79 135C71.4904 135 64.6124 131.521 60.1352 125.923C58.4175 123.776 55.8014 122.473 53.0552 122.387C40.2881 121.988 29.6003 111.273 29.6 98.2006ZM29.6 98.2006C29.6 98.2009 29.6 98.2011 29.6 98.2014L28.6 98.2H29.6C29.6 98.2002 29.6 98.2004 29.6 98.2006Z" stroke="url(#paint0_linear_3491_3544)" stroke-width="2" stroke-dasharray="387 389" stroke-dashoffset="388" style="animation:pathDraw2 5200ms ease-in 0ms infinite,pathFade 5200ms linear 0ms infinite"/></g><defs><linearGradient id="paint0_linear_3491_3544" x1="35.5" y1="32" x2="121" y2="115.5" gradientUnits="userSpaceOnUse"><stop stop-color="#06F"/><stop offset=".525" stop-color="#FF00F5"/><stop offset="1" stop-color="#FF005C"/></linearGradient><filter id="filter0_d_3491_3544" x="0" y="0" width="158" height="158" filterUnits="userSpaceOnUse" color-interpolation-filters="sRGB"><feFlood flood-opacity="0" result="BackgroundImageFix"/><feColorMatrix in="SourceAlpha" values="0 0 0 0 0 0 0 0 0 0 0 0 0 0 0 0 0 0 127 0" result="hardAlpha"/><feOffset dy="6"/><feGaussianBlur stdDeviation="8"/><feComposite in2="hardAlpha" operator="out"/><feColorMatrix values="0 0 0 0 0 0 0 0 0 0 0 0 0 0 0 0 0 0 0.1 0"/><feBlend in2="BackgroundImageFix" result="effect1_dropShadow_3491_3544"/><feBlend in="SourceGraphic" in2="effect1_dropShadow_3491_3544" result="shape"/></filter></defs><style>@keyframes pathDraw1{15.38%{stroke-dashoffset:393}34.6%,99.9%{stroke-dashoffset:0}}@keyframes pathDraw2{15.38%{stroke-dashoffset:388}34.6%,99.9%{stroke-dashoffset:0}}@keyframes pathFade{0%,92.3%{stroke-opacity:1}99.9%{stroke-opacity:0}}</style></svg>