<svg width="209" height="139" viewBox="0 0 209 139" fill="none" xmlns="http://www.w3.org/2000/svg"><g filter="url(#A)"><path d="M16 19.978c0-2.172 1.761-3.933 3.933-3.933h169.134c2.172 0 3.933 1.761 3.933 3.933v81.289c0 2.172-1.761 3.933-3.933 3.933H19.933c-2.172 0-3.933-1.761-3.933-3.933V19.978z" fill="#fff"/></g><g filter="url(#A)"><path fill-rule="evenodd" d="M189.067 16.701H19.933a3.28 3.28 0 0 0-3.278 3.278v81.289a3.28 3.28 0 0 0 3.278 3.278h169.134a3.28 3.28 0 0 0 3.277-3.278V19.978a3.28 3.28 0 0 0-3.277-3.278zm-169.134-.656c-2.172 0-3.933 1.761-3.933 3.933v81.289c0 2.172 1.761 3.933 3.933 3.933h169.134c2.172 0 3.933-1.761 3.933-3.933V19.978c0-2.172-1.761-3.933-3.933-3.933H19.933z" fill="#d9d9d9"/></g><path d="M31.733 35.713c0-2.172 1.761-3.933 3.933-3.933h34.744c2.172 0 3.933 1.761 3.933 3.933v49.822c0 2.172-1.761 3.933-3.933 3.933H35.667c-2.172 0-3.933-1.761-3.933-3.933V35.713z" fill="#fff"/><path d="M52.317 53.631l1.049-2.753 1.049 2.753m-1.486-3.933l-2.404 6.119h.962l.481-1.311h2.71l.481 1.311h.962l-2.316-6.119h-.874zm9.129 27.315v-5.782h.948v5.782h-.948zm-2.205 0v-5.782h.948v5.782h-.948zm-3.424.118c-.307 0-.566-.058-.779-.173a1.2 1.2 0 0 1-.484-.468 1.3 1.3 0 0 1-.161-.641c0-.205.034-.388.102-.551s.173-.307.315-.425.325-.219.551-.295c.17-.055.37-.105.598-.15l.747-.122.846-.126-.338.193c.003-.294-.063-.51-.197-.649s-.359-.208-.676-.208a1.22 1.22 0 0 0-.555.134c-.179.09-.303.242-.374.46l-.865-.271c.105-.359.304-.648.598-.865s.695-.326 1.196-.326c.378 0 .709.062.995.185a1.24 1.24 0 0 1 .641.606c.076.15.122.303.138.46s.024.324.024.507v2.608h-.83v-.92l.138.15c-.191.307-.416.532-.672.676s-.573.212-.956.212zm.189-.755a1.22 1.22 0 0 0 .551-.114c.152-.076.273-.169.362-.279s.153-.214.185-.311c.05-.121.077-.258.083-.413l.012-.382.291.087-.736.118-.527.098c-.147.029-.277.062-.389.098a1.2 1.2 0 0 0-.279.138.61.61 0 0 0-.177.181c-.039.068-.059.148-.059.24 0 .105.026.198.079.279s.129.142.228.189a.9.9 0 0 0 .378.071zm-3.35.636v-2.58c0-.291-.072-.518-.216-.68s-.34-.248-.586-.248a.79.79 0 0 0-.409.106c-.121.071-.216.17-.287.307a1.02 1.02 0 0 0-.106.48l-.421-.248a1.45 1.45 0 0 1 .197-.775 1.44 1.44 0 0 1 .551-.527c.231-.126.488-.189.771-.189.469 0 .829.142 1.078.425s.378.65.378 1.109v2.82h-.948zm-5.109 0v-4.248h.838v1.318h.118v2.93h-.956zm2.561 0v-2.568c0-.296-.072-.527-.216-.692s-.341-.248-.59-.248a.74.74 0 0 0-.582.248c-.144.165-.216.38-.216.645l-.425-.283c0-.275.068-.523.205-.743a1.46 1.46 0 0 1 .551-.519c.231-.126.494-.193.783-.193.317 0 .582.068.795.205s.375.317.48.551.161.492.161.783v2.816h-.944zm-5.628.119c-.414 0-.788-.072-1.121-.216a2.09 2.09 0 0 1-.818-.618c-.215-.268-.347-.59-.405-.96l.983-.15c.084.336.256.595.515.779s.564.275.905.275a1.7 1.7 0 0 0 .57-.094 1.05 1.05 0 0 0 .433-.275c.11-.12.169-.269.169-.444a.58.58 0 0 0-.039-.216c-.026-.068-.066-.129-.118-.181a.73.73 0 0 0-.197-.142 1.29 1.29 0 0 0-.275-.114l-1.463-.433a4.13 4.13 0 0 1-.409-.146c-.144-.063-.282-.148-.413-.256s-.235-.249-.319-.417-.122-.38-.122-.629c0-.365.092-.67.275-.916a1.68 1.68 0 0 1 .747-.558 2.79 2.79 0 0 1 1.046-.181c.388.003.734.07 1.038.201a1.97 1.97 0 0 1 .763.562 2.17 2.17 0 0 1 .433.893l-1.019.177c-.042-.199-.123-.368-.244-.507a1.14 1.14 0 0 0-.437-.323c-.171-.073-.353-.113-.547-.118s-.364.026-.527.087-.29.142-.389.252-.146.239-.146.385a.48.48 0 0 0 .126.342.94.94 0 0 0 .311.209c.126.05.253.092.382.126l1.015.283a5.49 5.49 0 0 1 .468.15 2.13 2.13 0 0 1 .5.264 1.32 1.32 0 0 1 .393.444c.105.184.157.417.157.7 0 .294-.062.552-.185.775a1.62 1.62 0 0 1-.492.551 2.25 2.25 0 0 1-.712.33 3.11 3.11 0 0 1-.834.11z" fill="#000"/><path d="M80.9 35.713c0-2.172 1.761-3.933 3.933-3.933h40.644c2.172 0 3.934 1.761 3.934 3.933v49.822c0 2.172-1.762 3.933-3.934 3.933H84.834c-2.172 0-3.933-1.761-3.933-3.933V35.713z" fill="#fff"/><path fill-rule="evenodd" d="M125.478 33.09H84.834c-1.448 0-2.622 1.174-2.622 2.622v49.822c0 1.448 1.174 2.622 2.622 2.622h40.644c1.448 0 2.622-1.174 2.622-2.622V35.713c0-1.448-1.174-2.622-2.622-2.622zm-40.644-1.311c-2.172 0-3.933 1.761-3.933 3.933v49.822c0 2.172 1.761 3.933 3.933 3.933h40.644c2.172 0 3.934-1.761 3.934-3.933V35.713c0-2.172-1.762-3.933-3.934-3.933H84.834z" fill="#000"/><path d="M92.874 82.219c-1.514-.979-2.216-.568-3.408.764l-2.43 2.912-.291.364-2.148 2.791c-.573.946-1.031 1.994-1.757 2.813-.584.651-.531 1.751-1.532 2.076-.051.013-.075.128-.091.208-.108.462.006.893.404 1.137.388.236.838.258 1.161-.172.179-.226.326-.477.462-.724l.863-1.706c.232-.425.541-.791.785-1.213 1.117-1.892 2.592-3.519 3.937-5.239l2.112-2.619c.223-.265.464-.592.86-.306l1.763 1.395-1.827 3.379-2.867 5.939-2.9 6.154c-.547 1.191-1.101 2.392-.986 3.768.113 1.329.826 2.249 2.158 2.406.86.094 1.678-.101 2.48-.413l2.984-1.17c.78-.382 1.194-.332 1.479.487.248.68.414 1.379.597 2.081.104.422.384.947.224 1.255-.169.354-.735.512-1.127.76-.905.584-1.689 1.33-2.723 1.756-.597.253-1.082.745-1.647 1.07-.482.277-1.022.452-1.504.729l-3.701 2.23-2.796 1.591c-.416.303-.632.246-.939-.003-.406-.324-.765-.727-1.226-.955l-3.348-1.515c-1.617-.773-3.041-1.924-4.855-2.325-1.619-.36-3.103-1.225-4.812-1.263-.364-.004-.719-.137-1.104-.217l-.063-.618-.101-5.796c0-1.209-.052-2.428.122-3.613.253-1.677.63-3.322 1.319-4.909.62-1.403 1.165-2.816 2.369-3.858.102-.087.197-.198.247-.326a.56.56 0 0 0-.012-.344c-.016-.039-.209-.031-.29.012l-1.521.869.014-.009c-.044.039-.086.066-.118.107-.989 1.159-1.603 2.534-2.168 3.924-1.133 2.775-1.486 5.657-1.354 8.623l.115 5.267c.002.108-.036.231-.054.317-.519.108-1.071.143-1.509.351-.567.283-.445.877-.399 1.402.247.512.039.965-.107 1.438-.274.858-.7 1.668-.525 2.643.118.701.336 1.291.952 1.754l-.52.46c.056.593.063 1.139.188 1.661.049.226.282.46.494.588l2.217 1.196c.411.241.8.555 1.141.901.518.533.676.578 1.337.134.454.322.894.707 1.404.992l4.062 2.196c.402.227.61.091.885-.313l1.308 1.08c.968.985 2.23 1.421 3.471 1.846.788.271 1.336-.267 1.687-.978.549-1.143-.044-2.182.047-3.252.064-.771.011-1.553.169-2.311.087-.419.423-.827.745-1.138.846-.817 1.148-1.754.77-3.017l2.581-1.134 6.57-3.423c1.203-.72 2.602-1.177 3.568-2.281.223-.265.653-.349.969-.547.418-.254.84-.501 1.201-.827.385-.357.454-.864.304-1.35l-1.149-3.488c-.212-.564-.466-1.126-.797-1.637-.275-.434-.717-.67-1.261-.442-.263.113-.591.165-.807.341-.881.697-1.912 1.051-2.983 1.338l-1.545.523c-.965.236-1.496-.06-1.572-.872-.037-.516-.015-1.08.157-1.565.355-1.015.803-1.993 1.256-2.964l1.888-3.791.998-1.893 1.423-2.846.272-.5.927-2.129 1.185-3.488-.012-1.152-1.742-1.379z" fill="#020202"/><path d="M67.228 91.854l1.521-.869c.081-.043.271-.039.29-.012.038.104.058.239.012.344-.049.121-.144.233-.247.326-1.207 1.03-1.762 2.435-2.369 3.858-.694 1.585-1.072 3.23-1.319 4.908-.174 1.185-.125 2.416-.122 3.614l.101 5.796c.003.216.044.422.063.617.384.08.74.214 1.104.217 1.712.027 3.194.903 4.813 1.263 1.814.401 3.244 1.554 4.855 2.325l3.348 1.515c.45.226.809.629 1.226.955.314.245.53.302.939.004.864-.617 1.875-1.047 2.796-1.592l3.701-2.229c.482-.277 1.022-.453 1.504-.729.566-.332 1.051-.823 1.647-1.071 1.017-.429 1.813-1.179 2.723-1.756.393-.248.952-.407 1.127-.759.148-.311-.115-.832-.224-1.256l-.597-2.081c-.302-.822-.711-.871-1.479-.486-.953.466-1.997.77-2.984 1.169-.802.318-1.614.509-2.48.413-1.334-.146-2.05-1.078-2.157-2.405-.115-1.377.44-2.578.986-3.769l2.9-6.154 2.867-5.939 1.827-3.379-1.763-1.395c-.401-.287-.636.035-.86.306l-2.112 2.619c-1.352 1.724-2.818 3.34-3.937 5.239-.243.422-.553.789-.785 1.213l-.863 1.706c-.135.247-.285.509-.462.724-.326.417-.773.408-1.161.172-.399-.238-.512-.675-.404-1.137.017-.08.052-.193.091-.209.995-.326.948-1.425 1.532-2.076.727-.819 1.181-1.855 1.757-2.813-.366.175-.774.3-1.074.561-.442.369-.845.525-1.359.203-.146.299-.332.158-.516.036-.486.007-.943.421-1.433.043-.919.593-1.818 1.202-2.231 2.301l-.816 1.883c-.172.425-.431.575-.874.375-.397-.19-.472-.523-.327-.876.519-1.173.872-2.44 1.818-3.393-1.077-.463-2.196-.72-3.366-.591-.131.056-.344.072-.4.168l-1.092 2.059c-.307.672-.518 1.4-.821 2.08-.16.368-.506.619-.892.407-.352-.181-.43-.55-.239-.953l1.706-3.547c-1.204-.37-2.278.394-3.449.385-.969-.004-1.71.71-2.041 1.671z" fill="#fdfdfd"/><path d="M90.846 93.713l-.998 1.893-1.889 3.791-1.256 2.965c-.172.484-.194 1.048-.157 1.565.059.808.591 1.104 1.573.871.535-.128 1.04-.341 1.545-.523-.218-.105-.427-.22-.652-.291-.147-.042-.308-.016-.465-.037-.894-.102-1.205-.537-.941-1.404.213-.68.541-1.336.699-2.039.358-1.494 1.548-2.557 2.064-3.946.21-.549.275-1.152.373-1.736.076-.367.082-.743.105-1.109z" fill="#f4f6fa"/><path d="M81.659 89.86c.178.121.372.257.516-.036.082-1.144-1.008-1.43-1.786-1.227-1.024.26-1.851.872-2.605 1.595-.946.953-1.293 2.221-1.818 3.393-.158.356-.082.683.327.876.432.197.699.062.874-.375l.816-1.883c.408-1.1 1.324-1.706 2.231-2.301.759-.572 1.012-.58 1.445-.041zm-8.978-.052l-1.706 3.547c-.204.406-.11.761.239.953.395.202.735-.051.892-.407l.821-2.08c.326-.704.71-1.373 1.092-2.059.056-.096.263-.113.4-.168.158-.356.121-.639-.284-.795-.45-.165-.953.065-1.181.503l-.273.506z" fill="#050506"/><path d="M68.37 81.808c-.442-.092-.807.341-.637.735l1.538 3.168c.059.12.324.139.503.2.059-.167.236-.388.18-.519l-1.327-3.322c-.043-.111-.197-.203-.257-.263z" fill="#020305"/><path d="M64.411 84.703c-.095.052-.39.122-.434.275-.063.19-.019.553.125.666l2.294 1.805c.197.149.44.504.666.162.121-.178.126-.662-.016-.787-.755-.713-1.588-1.371-2.389-2.04-.019-.022-.065-.031-.246-.081z" fill="#020306"/><path d="M63.361 90.566l.115.024c.308.016.721.305.852-.152.04-.135-.376-.467-.632-.616a3.72 3.72 0 0 0-1.017-.403c-.149-.031-.436.113-.501.249-.063.131.025.454.142.526.315.185.679.273 1.029.405.008-.01.011-.022.013-.033z" fill="#06152f"/><path d="M94.659 84.743l-1.185 3.488c.046.01.089.031.135.04.593-1.098 1.059-2.246 1.05-3.528z" fill="#cdd8e9"/><path d="M92.875 82.219l1.768 1.373c-.058-.814-.695-1.293-1.768-1.373z" fill="#dde5f2"/><path d="M93.623 88.269c-.046-.01-.089-.031-.135-.04l-.927 2.129c.118-.107.289-.179.353-.316l.71-1.774z" fill="#d4deef"/><path d="M67.113 91.949c.044-.039.086-.066.118-.107l-.118.107z" fill="#fdfdfd"/><path d="M103.582 54.068l1.574-4.13 1.573 4.13m-2.229-5.9l-3.605 9.178h1.442l.721-1.967h4.064l.721 1.967h1.443l-3.475-9.178H104.5zm12.812 28.846v-5.782h.948v5.782h-.948zm-3.423.118c-.307 0-.567-.058-.779-.173s-.374-.274-.484-.468-.161-.408-.161-.641c0-.205.034-.388.102-.551a1.08 1.08 0 0 1 .315-.425c.141-.121.325-.219.55-.295a5.36 5.36 0 0 1 .598-.15l.748-.122.845-.126-.338.193c.003-.294-.063-.51-.197-.649s-.359-.209-.676-.209a1.23 1.23 0 0 0-.555.134.74.74 0 0 0-.373.46l-.866-.271c.105-.359.304-.648.598-.865s.695-.327 1.196-.327c.377 0 .709.062.995.185a1.24 1.24 0 0 1 .641.606 1.3 1.3 0 0 1 .138.46 4.97 4.97 0 0 1 .023.507v2.608h-.83v-.92l.138.15c-.191.307-.416.532-.672.677s-.573.212-.956.212zm.189-.755c.215 0 .398-.038.55-.114s.273-.169.362-.279.153-.214.185-.311c.05-.121.077-.258.083-.413l.011-.382.291.087-.735.118-.527.098a3.37 3.37 0 0 0-.39.098 1.21 1.21 0 0 0-.279.138.61.61 0 0 0-.177.181c-.039.068-.059.148-.059.24a.5.5 0 0 0 .079.279.54.54 0 0 0 .228.189.9.9 0 0 0 .378.071zm-3.35.637v-2.58c0-.291-.073-.518-.217-.68s-.339-.248-.586-.248a.79.79 0 0 0-.409.106c-.121.071-.216.171-.287.307a1.01 1.01 0 0 0-.106.48l-.421-.248c-.003-.294.063-.552.197-.775a1.43 1.43 0 0 1 .55-.527c.231-.126.488-.189.771-.189.47 0 .829.142 1.078.425s.377.65.377 1.109v2.82h-.947zm-5.11 0v-4.248h.838v1.318h.118v2.93h-.956zm2.561 0v-2.568c0-.296-.072-.527-.217-.692s-.34-.248-.59-.248a.74.74 0 0 0-.582.248c-.144.165-.216.38-.216.645l-.425-.283a1.38 1.38 0 0 1 .205-.743 1.46 1.46 0 0 1 .55-.519 1.6 1.6 0 0 1 .783-.193c.317 0 .582.068.795.204a1.22 1.22 0 0 1 .479.551c.108.231.162.492.162.783v2.816h-.944zm-5.695.001v-4.248h.838v1.034l-.102-.134a1.5 1.5 0 0 1 .208-.385c.086-.115.196-.215.319-.291a1.3 1.3 0 0 1 .346-.165c.126-.039.26-.067.393-.075a1.74 1.74 0 0 1 .39.016v.885a1.22 1.22 0 0 0-.437-.035 1 1 0 0 0-.44.138c-.131.071-.239.161-.323.271s-.141.236-.181.378a1.67 1.67 0 0 0-.059.452v2.159h-.952zm-2.987.117c-.425 0-.796-.096-1.113-.287a1.97 1.97 0 0 1-.739-.791 2.52 2.52 0 0 1-.26-1.164c0-.446.089-.837.267-1.172s.426-.598.743-.787.684-.283 1.101-.283c.427 0 .8.096 1.117.287a1.96 1.96 0 0 1 .739.794c.176.336.264.722.264 1.16s-.089.83-.267 1.168a1.98 1.98 0 0 1-.74.791c-.317.192-.688.283-1.113.283zm0-.889c.378 0 .658-.126.842-.378s.275-.577.275-.975c0-.412-.093-.739-.279-.983s-.466-.37-.838-.37c-.254 0-.464.058-.629.173s-.283.271-.362.476-.118.437-.118.704c0 .412.093.741.279.987s.465.366.83.366zm-7.522.771V71.35h.96l2.628 3.992V71.35h.96v5.664h-.96l-2.628-3.992v3.992h-.96z" fill="#000"/><path d="M134.656 35.713c0-2.172 1.761-3.933 3.934-3.933h34.744c2.172 0 3.933 1.761 3.933 3.933v49.822c0 2.172-1.761 3.933-3.933 3.933H138.59c-2.173 0-3.934-1.761-3.934-3.933V35.713z" fill="#fff"/><g fill="#000"><path d="M154.192 54.505l2.098-5.507 2.098 5.507m-2.972-7.867l-4.808 12.237h1.923l.962-2.622h5.419l.962 2.622h1.923l-4.633-12.237h-1.748zm8.944 30.493a2.24 2.24 0 0 1-1.133-.279 1.98 1.98 0 0 1-.763-.775c-.183-.331-.272-.711-.272-1.141 0-.464.09-.867.268-1.207s.426-.61.743-.799.685-.283 1.102-.283c.44 0 .814.104 1.121.311a1.82 1.82 0 0 1 .688.869c.149.375.206.817.169 1.326h-.94v-.346c-.003-.462-.084-.798-.244-1.011s-.412-.319-.755-.319c-.388 0-.677.121-.865.362s-.284.589-.284 1.05c0 .43.095.763.284.999s.464.354.826.354a1.13 1.13 0 0 0 .601-.153c.171-.105.302-.256.394-.452l.936.283c-.163.383-.414.681-.755.893s-.712.319-1.121.319zm-1.464-1.978v-.716h2.923v.716h-2.923zm-3.53 3.866c-.236 0-.462-.037-.68-.11a1.86 1.86 0 0 1-.582-.319 1.68 1.68 0 0 1-.425-.496l.873-.433a.78.78 0 0 0 .342.342 1.04 1.04 0 0 0 .476.114 1.25 1.25 0 0 0 .527-.106c.155-.068.274-.171.358-.307s.128-.302.122-.504v-1.208h.118v-3.229h.83v4.453l-.015.307a2.12 2.12 0 0 1-.044.291 1.34 1.34 0 0 1-.362.677 1.64 1.64 0 0 1-.664.397 2.77 2.77 0 0 1-.874.13zm-.082-1.888a1.78 1.78 0 0 1-1.023-.295c-.291-.197-.516-.464-.676-.802s-.24-.72-.24-1.145c0-.43.08-.813.24-1.148s.392-.605.688-.798.645-.295 1.046-.295.742.098 1.015.295a1.83 1.83 0 0 1 .625.798c.141.338.213.721.213 1.148a2.95 2.95 0 0 1-.213 1.145c-.141.338-.352.606-.633.802s-.628.295-1.042.295zm.145-.85c.255 0 .459-.058.614-.173s.271-.282.342-.492.11-.452.11-.728-.036-.52-.11-.728a.99.99 0 0 0-.334-.488c-.152-.118-.349-.177-.59-.177-.254 0-.464.063-.629.189s-.288.291-.366.504-.118.443-.118.7a2.09 2.09 0 0 0 .114.708c.078.21.198.376.358.499a.97.97 0 0 0 .609.185zm-4.836.732v-4.248h.838V73.8l-.103-.134a1.52 1.52 0 0 1 .209-.385 1.16 1.16 0 0 1 .318-.291c.105-.071.221-.126.347-.165a1.55 1.55 0 0 1 .393-.075 1.62 1.62 0 0 1 .389.016v.885a1.21 1.21 0 0 0-.436-.035 1 1 0 0 0-.441.138.98.98 0 0 0-.322.271c-.082.11-.142.236-.181.378a1.63 1.63 0 0 0-.059.452v2.159h-.952zm-3.345.118c-.307 0-.566-.058-.779-.173s-.373-.274-.484-.468-.161-.408-.161-.641c0-.205.034-.388.102-.551a1.1 1.1 0 0 1 .315-.425 1.65 1.65 0 0 1 .551-.295c.17-.055.37-.105.598-.15l.747-.122.846-.126-.339.193c.003-.294-.063-.51-.196-.649s-.359-.208-.677-.208c-.191 0-.376.044-.554.134a.74.74 0 0 0-.374.46l-.865-.271a1.61 1.61 0 0 1 .597-.865c.297-.218.695-.326 1.196-.326a2.49 2.49 0 0 1 .995.185 1.23 1.23 0 0 1 .641.606 1.28 1.28 0 0 1 .138.46c.016.155.024.324.024.507v2.608h-.83v-.92l.137.15c-.191.307-.415.532-.672.676s-.573.212-.956.212zm.189-.755c.215 0 .398-.038.551-.114a1.07 1.07 0 0 0 .361-.279c.092-.11.154-.214.185-.311a1.17 1.17 0 0 0 .083-.413l.012-.382.291.087-.736.118-.527.098a3.35 3.35 0 0 0-.389.098 1.23 1.23 0 0 0-.28.138.61.61 0 0 0-.177.181c-.039.068-.059.148-.059.24 0 .105.027.198.079.279a.53.53 0 0 0 .228.189.9.9 0 0 0 .378.071z"/><path d="M145.944 77.012v-5.664h.948v4.775h2.502v.889h-3.45z"/></g><defs><filter id="A" x="0" y=".045" width="209" height="121.156" filterUnits="userSpaceOnUse" color-interpolation-filters="sRGB"><feFlood flood-opacity="0" result="A"/><feColorMatrix in="SourceAlpha" values="0 0 0 0 0 0 0 0 0 0 0 0 0 0 0 0 0 0 127 0" result="B"/><feOffset/><feGaussianBlur stdDeviation="8"/><feComposite in2="B" operator="out"/><feColorMatrix values="0 0 0 0 0 0 0 0 0 0 0 0 0 0 0 0 0 0 0.1 0"/><feBlend in2="A"/><feBlend in="SourceGraphic"/></filter></defs></svg>