<svg xmlns="http://www.w3.org/2000/svg" width="159.164" height="138.613" viewBox="0 0 159.164 138.613"><g transform="translate(-611.603 -1210.334)"><ellipse cx="63.596" cy="63.3" rx="63.596" ry="63.3" transform="translate(620.935 1222.348)" fill="#e0f2ff"/><path d="M42.426,0A21.213,21.213,0,1,1,21.213,21.213,21.207,21.207,0,0,1,42.426,0M63.639,55.9c0,5.621-1.485,18.72-11.614,33.357l-4.3-25.615,4.985-9.97a91.59,91.59,0,0,0-10.288-.636,91.591,91.591,0,0,0-10.288.636l4.985,9.97-4.3,25.615C22.7,74.617,21.213,61.518,21.213,55.9,8.538,59.608,0,66.29,0,74.245L7.481,95.458h70.7l6.669-21.213C84.852,66.29,76.367,59.608,63.639,55.9Z" transform="rotate(-6.02 12169.385 -5184.465)" fill="#5d9cfa"/><path d="M30.968,0C48,0,61.936,11.087,61.936,24.774S48,49.549,30.968,49.549A39.176,39.176,0,0,1,20.036,48,33.857,33.857,0,0,1,0,55.742c7.216-7.216,8.361-12.078,8.516-13.936C3.252,37.378,0,31.371,0,24.774,0,11.087,13.936,0,30.968,0M46.452,27.871V21.678H40.258v6.194h6.194m-12.387,0V21.678H27.871v6.194h6.194m-12.387,0V21.678H15.484v6.194Z" transform="rotate(24 -2555.76 2299.134)" fill="#fd9500"/><path d="M21.889,37.8A15.912,15.912,0,1,0,5.978,21.889,15.912,15.912,0,0,0,21.889,37.8m0-35.8A19.889,19.889,0,1,1,2,21.889,19.889,19.889,0,0,1,21.889,2m.994,9.945V22.387l8.95,5.31-1.492,2.446L19.9,23.878V11.945Z" transform="translate(670.475 1208.334)" fill="#5d9cfa"/></g></svg>