<svg xmlns="http://www.w3.org/2000/svg" width="384.627" height="294" viewBox="0 0 384.627 294"><ellipse cx="147.576" cy="147" rx="147.576" ry="147" transform="translate(38.322)" fill="#e0f2ff"/><path d="M180.44,40.1l-80.2,50.122L20.049,40.1V20.049l80.2,50.122,80.2-50.122M180.44,0H20.049A19.98,19.98,0,0,0,0,20.049V140.342a20.049,20.049,0,0,0,20.049,20.049H180.44a20.049,20.049,0,0,0,20.049-20.049V20.049A20.043,20.043,0,0,0,180.44,0Z" transform="rotate(6.02 -450.079 1635.101)" fill="#fdaa33"/><path d="M19.492,66.83H66.83L86.321,38.984,66.83,11.138H19.492L38.984,38.984,19.492,66.83M66.829,77.968H0L25.061,38.984,0,0H66.83a10.823,10.823,0,0,1,9.133,4.789l24.281,34.194L75.963,73.178A10.823,10.823,0,0,1,66.829,77.968Z" transform="rotate(-9 863.154 -564.992)" fill="#5d9cfa"/><path d="M19.492,66.83H66.83L86.321,38.984,66.83,11.138H19.492L38.984,38.984,19.492,66.83M66.829,77.968H0L25.061,38.984,0,0H66.83a10.823,10.823,0,0,1,9.133,4.789l24.281,34.194L75.963,73.178A10.823,10.823,0,0,1,66.829,77.968Z" transform="rotate(-9 913.271 71.876)" fill="#5d9cfa"/><ellipse cx="32.93" cy="32.841" rx="32.93" ry="32.841" transform="translate(318.767 63.389)" fill="#5d9cfa"/><path d="M13.577,17.112a1.293,1.293,0,0,1-1.261-1.261V-8.161l-6.911,5.3a1.1,1.1,0,0,1-.933.252,1.418,1.418,0,0,1-.832-.555L.663-7.052a1.369,1.369,0,0,1-.227-.984,1.128,1.128,0,0,1,.58-.832l11.6-8.979a2.015,2.015,0,0,1,.58-.277,2.4,2.4,0,0,1,.631-.076h6.306a1.229,1.229,0,0,1,.908.353,1.229,1.229,0,0,1,.353.908V15.85a1.253,1.253,0,0,1-.353.883,1.186,1.186,0,0,1-.908.378Z" transform="rotate(6.02 -734.7 3256.468)" fill="#fff"/></svg>