<svg xmlns="http://www.w3.org/2000/svg" width="264" height="121.55" viewBox="0 0 264 121.55"><g transform="translate(-899 -3725.45)"><path d="M50,0A50,50,0,1,1,0,50,50,50,0,0,1,50,0Z" transform="translate(899 3747)" fill="#fff"/><path d="M71.056,9.507a8.507,8.507,0,0,1,8.507,8.507V77.563a8.507,8.507,0,0,1-8.507,8.507H11.507A8.507,8.507,0,0,1,3,77.563V18.014a8.507,8.507,0,0,1,8.507-8.507h17.78a12.71,12.71,0,0,1,23.99,0h17.78m-29.775,0a4.254,4.254,0,1,0,4.254,4.254,4.254,4.254,0,0,0-4.254-4.254M20.014,26.521V18.014H11.507V77.563H71.056V18.014H62.549v8.507H20.014m21.268,8.507a8.507,8.507,0,1,1-8.507,8.507,8.507,8.507,0,0,1,8.507-8.507M24.268,69.056V64.8c0-4.679,7.614-8.507,17.014-8.507S58.3,60.124,58.3,64.8v4.254Z" transform="translate(911 3739.362)" fill="#498ef4" opacity=".6"/><circle cx="48.5" cy="48.5" r="48.5" transform="translate(1066 3734)" fill="#fff"/><path d="M41.492,2H61.239a9.873,9.873,0,0,1,9.873,9.873v9.873H90.858a9.873,9.873,0,0,1,9.873,9.873v54.3a9.873,9.873,0,0,1-9.873,9.873H11.873A9.87,9.87,0,0,1,2,85.922v-54.3a9.839,9.839,0,0,1,9.873-9.873H31.619V11.873A9.839,9.839,0,0,1,41.492,2M61.239,21.746V11.873H41.492v9.873Z" transform="rotate(14 -14662.13 5922.915)" fill="#5d9cfa"/><path d="M71.733,63.665H67.484l-1.506-1.452a35.014,35.014,0,1,0-3.765,3.765l1.452,1.506v4.249L90.558,98.573l8.014-8.014Zm-32.272,0a24.2,24.2,0,1,1,24.2-24.2A24.171,24.171,0,0,1,39.461,63.665Z" transform="translate(1056.5 3741.772)" fill="#ea8a0d"/></g></svg>