<svg xmlns="http://www.w3.org/2000/svg" width="324.767" height="309.543" viewBox="0 0 324.767 309.543"><g transform="translate(-860.609 -210.802)"><ellipse cx="141.183" cy="140.527" rx="141.183" ry="140.527" transform="translate(876.557 235.992)" fill="#e0f2ff"/><g transform="rotate(9 -803.867 6908.043)"><ellipse cx="58.023" cy="57.826" rx="58.023" ry="57.826" fill="#5d9cfa"/><path d="M43.414,26.048V0H26.048V26.048H0V43.414H26.048V69.462H43.414V43.414H69.462V26.048" transform="translate(23.292 23.095)" fill="#fff"/></g><path d="M58.108,116.216h69.729v69.729H162.7V81.351l-69.729-52.3-69.729,52.3V185.945H58.108V116.216M0,209.188V69.729L92.973,0l92.973,69.729V209.188Z" transform="translate(952.501 266.101)" fill="#fdaa33"/><path d="M60.288,94.53C35.048,94.53,0,106.106,0,131.345l4.307,16.081,109.619,1,3.652-16.448c0-25.239-32.052-37.449-57.291-37.449m0-18.906A37.812,37.812,0,1,0,22.476,37.812,37.812,37.812,0,0,0,60.288,75.624Z" transform="rotate(-8 3099.967 -5966.96)" fill="#5d9cfa"/></g></svg>