<svg xmlns="http://www.w3.org/2000/svg" width="146" height="120" viewBox="0 0 146 120" fill="none"><g clip-path="url(#A)"><path d="M56.467 61.777c2.398-2.398 4.732-4.839 7.195-7.152 2.398-2.248 4.989-4.283 7.43-6.488 1.734-1.542 3.341-3.233 5.032-4.818l5.182-4.775 3.769-3.555c.856-.771 1.756-1.499 2.612-2.27.15-.128.214-.364.321-.535.278-.128.6-.214.856-.385l4.09-2.955c.857-.664 1.649-1.413 2.463-2.12l2.612-1.542 4.39-2.741c1.349-.857 2.676-1.777 4.004-2.677 1.028-.707 2.034-1.435 3.083-2.099 1.499-.942 3.041-1.82 4.54-2.741 1.135-.707 2.248-1.435 3.34-2.163.986-.664 1.949-1.37 2.934-1.992l5.054-3.105c1.52-.921 2.997-1.949 4.561-2.784.985-.535 2.077-.921 3.169-1.156.321-.064 1.092.535 1.156.921.279 1.328.857 2.463 1.67 3.512.193.236.129.664.215 1.006.064.214.128.535.278.621.171.086.45-.064.664-.15 1.006-.321 1.991-.707 2.998-.899.278-.064.878.407.963.728.321 1.37.985 2.527 1.713 3.704.386.664.129 1.863-.15 2.72s-.578 1.413.407 2.056c.493.321.664 1.135.942 1.734.322.664.536 1.392.9 2.034.664 1.156.813 2.291.192 3.533-.385.728-.364 1.734-.877 2.334-.771.921-1.778 1.692-2.784 2.377-1.349.942-2.805 1.692-4.176 2.612-1.841 1.242-3.64 2.548-5.417 3.876l-6.746 5.096c-2.205 1.585-4.539 2.998-6.766 4.561-1.413.985-2.741 2.077-4.09 3.126l-8.737 6.916c-2.976 2.462-5.995 4.882-8.779 7.559-3.533 3.383-6.916 6.895-10.193 10.535-2.441 2.719-4.668 5.632-6.895 8.544-1.242 1.606-2.248 3.34-3.426 4.989l-6.552 9.079c-1.263 1.799-2.42 3.683-3.49 5.611-.621 1.134-.985 2.419-1.477 3.64-.685 1.649-1.906 2.548-3.619 3.126-2.206.728-3.94-.364-5.76-1.049-2.934-1.092-5.824-2.356-8.715-3.576l-6.574-2.912-13.083-5.76c-1.777-.771-3.555-1.606-5.353-2.291-1.713-.642-3.49-1.092-5.203-1.692l-9.786-3.426c-1.242-.471-2.805-.214-3.704-1.413-.985-1.306-1.97-2.655-2.741-4.09-.428-.814.835-2.719 1.756-3.041 1.006-.364 1.263-1.37.428-2.334-1.049-1.221-.749-2.398-.171-3.64.064-.15.171-.385.3-.428 1.263-.364 1.777-1.37 2.441-2.377.385-.621.6-.921.128-1.52-.857-1.092-.857-2.548-.021-3.662.128-.171.343-.257.493-.386.557-.471 1.135-.899 1.649-1.392.535-.535 1.006-1.135 1.52-1.67.642-.664 1.263-1.285 1.82-2.056 1.156-1.606 2.698-3.019 4.304-4.197 2.141-1.563 4.411-.899 6.617.171l11.713 5.61c1.756.899 3.49 1.863 5.289 2.677 1.306.6 2.698 1.049 4.047 1.563l6.531 2.998c.749.343 1.156-.193 1.585-.707l2.976-3.405.064-.021.814-1.007 2.099-2.42h-.021z" fill="#1a6ffe"/><path d="M135.953 106.917c-.75-.193-1.542-.3-2.248-.579l-9.465-3.918-6.938-2.891c-1.435-.685-2.655-1.713-2.698-3.512s1.542-3.212 3.298-2.827l6.038 1.606c3.812 1.285 7.602 2.677 11.371 4.09 1.991.749 3.426 2.162 3.854 4.282.428 2.184-1.585 3.833-3.191 3.769l-.021-.021zm1.37-24.604l-6.017-1.478c-3.811-.964-7.452-2.505-11.413-2.869-1.392-.128-2.141-1.263-1.97-2.548.15-1.135 1.285-2.013 2.569-1.906l14.347 1.37c1.628.171 3.277.236 4.818.685 2.292.664 3.191 2.784 2.206 4.775-.835 1.67-2.463 1.863-4.54 1.97z" fill="#060606"/><path d="M106.809 116.103c0 1.798-.942 3.19-2.462 3.747-1.563.578-3.319-.685-4.111-2.163-.943-1.777-2.313-3.383-3.684-4.903-1.135-1.264-2.505-2.292-3.769-3.448-.792-.728-.878-2.505-.171-3.34 1.049-1.285 2.42-1.563 3.662-.75 3.169 2.034 6.231 4.197 8.78 7.024.985 1.113 1.798 2.291 1.755 3.854v-.021z" fill="#070707"/><path d="M53.555 65.225l-.064.021c.021 0 .043 0 .064-.021z" fill="#334c76"/><path d="M29.401.749c.45.642.985 1.221 1.349 1.906l4.668 9.122 3.405 6.681c.642 1.435.921 3.019-.214 4.432-1.113 1.392-3.255 1.456-4.347.021l-3.555-5.118c-2.077-3.448-4.047-6.959-6.017-10.471-1.049-1.863-1.221-3.854-.171-5.76C25.59-.387 28.202-.322 29.401.748zM12.441 18.63l3.619 5.011c2.291 3.191 4.069 6.745 6.852 9.593.964 1.006.814 2.334-.15 3.212-.857.771-2.291.707-3.191-.193L9.508 25.932c-1.135-1.178-2.355-2.313-3.233-3.64-1.306-1.991-.642-4.197 1.413-5.053 1.713-.728 3.083.171 4.732 1.435l.021-.043z" fill="#060606"/><path d="M57.559 12.591c1.178-1.349 2.784-1.82 4.304-1.263 1.563.578 2.099 2.677 1.734 4.304-.428 1.97-.407 4.09-.364 6.124.043 1.692.428 3.383.642 5.075.128 1.071-.942 2.463-2.034 2.655-1.627.3-2.869-.385-3.298-1.799-1.092-3.597-2.034-7.238-2.141-11.028-.043-1.478.107-2.912 1.156-4.069z" fill="#070707"/></g><defs><clipPath id="A"><path fill="#fff" d="M0 0h145.46v120H0z"/></clipPath></defs></svg>