<svg width="320" height="320" viewBox="0 0 320 320" fill="none" xmlns="http://www.w3.org/2000/svg"><path d="M205.844 194.969L201 196c-.875.281-1.875.75-1.687 2.094.031.187-.188.531-.375.594-2.063.781-2.594 2.156-1.719 4.124-1.125-.624-1.813-.062-1.875.969-.031.813.281 1.719.687 2.407.719 1.218 1.625 2.343 2.407 3.437l-10.844 3.125-23.625 6.219c-5.438 1.312-11 2.187-16.469 3.406-3.531.781-7 1.844-10.531 2.75l-8.313 2c-2.468.625-4.968 1.156-7.312 2.031-3.938 1.469-7.656 3.5-11.938 3.938-.25.031-.5.312-.75.5l-4.312 1.094c-1.219.374-2.438.875-3.625 1.312.062-4.312.312-8.656.156-12.969-.156-4.469-.5-8.968-2.312-13.125-.5-1.187-.156-1.531.75-2.156 2.969-2.094 5.938-4.188 8.656-6.594 2.094-1.844 2.531-4.375 1.719-7.156l-5.657-20.594c-.562-2.093-2.312-3.093-4.312-2.187-1.094.5-2.031 1.406-2.969 2.187l-12.031 10.157c-.031-1.719-.156-3.438-.094-5.125.188-4.907-.437-9.688-1.281-14.532-.969-5.406-1.187-10.937-2.062-16.343-1.219-7.657-2.75-15.282-4.156-22.938.156-.5.438-1 .406-1.469-.312-3.718-.406-7.5-1.094-11.156-1.937-10.781-3.531-21.594-4.25-32.562-.094-1.562-.812-3.094-1.187-4.656-.375-1.594-.781-3.219-1.062-4.812-.25-1.469.469-2.094 1.938-2.375 2.25-.375 4.438-1.031 6.656-1.563.438-.094.938-.312 1.344-.187 2.625.813 4.938-.844 7.469-.875.313 0 .594-.375.938-.531.375-.156.75-.375 1.125-.375 2.438-.031 4.719-.5 6.844-1.812.438-.281 1.094-.406 1.625-.406 3.594.031 7.125-.25 10.531-1.562.969-.375 2-.531 3-.844 1.157-.375 2.375-.687 3.438-1.281 1.937-1.031 3.781-2.187 6.094-2.187.343 0 .718-.312 1.062-.469l14.813-.875c.281.844.468 1.719.875 2.469.281.563.875.969 1.312 1.438.406-.562 1.031-1.062 1.188-1.687.156-.781-.094-1.625-.157-2.469l9.563-.625 1.281 1.656c.438-.469.906-.937 1.313-1.469.125-.125.062-.406.093-.594l11.875-2.719c-.156.813-.281 1.625-.531 2.406-.281.938-.125 1.688.813 2.031 1 .344 1.468-.375 1.812-1.219.594-1.531 1.25-3.031 1.844-4.531l17.687-2.656c0 1.938 1.469 1.031 2.25 1.125.594 2.844 1.094 5.594 1.782 8.281.218.813.906 1.5 1.406 2.219l1.937-1.469 1.094 4.906 4.469 17.781c1.625 7.438 2.969 14.938 4.469 22.406 1.312 6.656 2.406 13.375 4.125 19.938 2.25 8.656 3.812 17.406 5.187 26.218.188 1.282.344 2.594.313 3.876-.094 3.031.593 5.843 1.843 8.562.219.5.313 1.094.469 1.625-.562.281-1.125.531-1.687.813-3.563 1.656-4.907 4.343-4.375 8.281.468 3.437 1.625 6.593 3.25 9.593l-2.969-.281c-.219 2.219-1.938 3.094-3.375 4.157-.031-.563.031-1.126-.063-1.688-.125-.969-1.093-1.312-1.843-.75-1.75 1.344-2.782 4.562-1.782 6.594 1 2.125 2.344 4.094 3.563 6.125zm-100.5-102.781a2.71 2.71 0 0 1 .406.094c3.781 1.281 4.906.938 7.5-2.156.313-.375 1.156-.5 1.688-.406 2.656.5 5.312.344 7.5-1.094 1.687-1.094 3.281-1.75 5.25-2 2.187-.25 4.312-1.031 6.531-1.344 3.125-.469 3.562-.906 3.5-3.969 0-.312.062-.625.062-.937.063-1.937-1.718-3.469-3.625-3.094-.468.094-.906.25-1.375.313-2.281.469-4.562 1.125-6.875 1.312-2.218.188-4.218.656-5.937 2.031-1.625 1.313-3.125 1.469-5 .406-2.344-1.312-4.719-.625-6.344 1.531l-.594.781c-1.562-.406-2.906-1.094-4.125-.969-1.281.156-2.5 1.125-3.843 1.781-.251-.094-.876-.5-1.469-.437-2.031.219-3.812 1.063-5.062 2.688-.312.406-.375 1.406-.125 1.781 1.188 1.625 2.438 3.25 3.906 4.594 2.719 2.469 5.906 2.031 8.031-.906zm-4.469 19.124c.063.094.125.219.188.313 1.843-.687 3.718-1.313 5.531-2.094 1.187-.531 2.219-1.375 3.375-1.906.531-.25 1.25-.281 1.812-.156 4.25.968 8.157.562 11.407-2.594.875-.844 1.625-.906 2.593-.281 1.375.844 3.813.562 5.032-.532 1.093-1 2.218-1.812 3.843-1.687 1.063.063 2.032-.187 1.938-1.687-.031-.751.312-1.501.469-2.282.281-1.312-.782-3.437-1.875-3.656-2.5-.469-4.813-.125-6.969 1.344-.5.344-1.375.469-1.938.281-1.812-.594-3.5-.406-5.093.563-.969.594-1.969 1.188-2.813 1.938-1.562 1.375-3.219 1.562-5.062.781-1.782-.75-3.563-.781-5.25.156-1.719.938-3.375 2.063-5.125 2.938-.782.375-1.782.594-2.625.531-1.438-.125-2.813-.593-4.251-.781-1.5-.219-4 1.312-4.094 2.531-.156 2.219.469 4.219 2.031 5.844.281.281 1.094.5 1.313.344 1.156-.938 2.25-.657 3.469-.25.656.219 1.407.25 2.094.343zm8.469 50.188c.031-.094.062-.187.125-.281 1.687-.156 3.406-.219 5.094-.5l24.156-4.281c2.969-.532 5.875-1.219 8.844-1.782 2.625-.5 2.687-.562 2.406-3.25-.156-1.375-1.25-2.312-2.625-2.062l-14.25 2.531c-3.219.594-6.375 1.469-9.594 1.969-4.969.781-9.969 1.375-14.937 2.062-.375.063-1.032.188-1.063.407-.281 1.375-.656 2.812-.531 4.187-.031.406 1.531.688 2.375 1zm56.25-64.281v-3.938c-.031-1.687-1.844-3.219-3.5-2.937-1.938.312-3.875.719-5.813 1.031-.75.125-1.531 0-2.281.031-1.625.031-3.344-.094-4.406 1.531-.75 1.125-1.844 1.469-3.094 1.469-.969 0-1.969-.125-2.937-.25-1.219-.156-2.25.25-2.625 1.406-.469 1.469-.782 3-.969 4.501-.125 1.156.5 1.812 1.781 1.781 1.094 0 2.156.218 3.25.281 2.75.219 5.344-.281 7.813-1.531 1.218-.594 2.5-1.156 3.843-1.469 2.219-.531 4.469-.812 6.688-1.25.75-.125 1.469-.406 2.25-.656zm-65.5 33.156c.031 1.875.625 2.719 1.875 2.531l19.812-3.468c4.844-.969 9.657-2.282 14.438-3.5.562-.157 1.531-.719 1.469-.938-.25-1.281-.625-2.531-1.157-3.719-.531-1.156-1.531-.5-2.343-.312-5 1.187-9.969 2.531-14.969 3.562-5.563 1.125-11.156 2-16.75 2.969-1.938.344-2.406.875-2.375 2.875zm93.562-1.094c.188-2.5-.968-3.75-3.062-3.343l-25.688 4.812c-1 .187-1.562.812-1.437 1.719.156 1.218.562 2.437.906 3.625.031.094.594.062.875 0 1.125-.25 2.188-.563 3.313-.782l23.593-4.25c1.25-.218 1.813-.656 1.5-1.781zm-21.718-13.5c-.625-.281-1.438-.406-1.688-.812-.875-1.438-2-.938-3.125-.657-.812.188-1.594.407-2.406.563l-21.531 4.156c-1.657.313-2.063 1.438-1.657 3.938.282 1.75 1.375 1.5 2.563 1.25l12.5-2.469 12.5-2.469c1.906-.375 2.844-1.5 2.844-3.5zm-39.625 26.844c-1.907-4.313-1.907-4.313-5.875-3.531-.063 0-.094.031-.157.031l-9.687 1.5c-3.813.688-7.625 1.469-11.438 2.281-.5.094-1.281.563-1.281.875 0 1.313.156 2.625.406 3.907.032.218.844.531 1.219.437 1.719-.375 3.375-1 5.094-1.281l17.812-2.782c1.313-.218 2.532-.906 3.907-1.437zM137 168.031c0-.531.031-.843 0-1.156-.125-1.406-1.25-2.344-2.437-2.062l-7.907 1.718-15.031 3.25c-1.156.25-1.719.938-1.594 2.094.063.781.157 1.531.344 2.281.219.875.656 1.219 1.688.969 4.531-1.125 9.062-2.156 13.625-3.125 3.218-.687 6.468-1.281 9.718-1.906 1.344-.25 1.875-.938 1.594-2.063zm22.875-32.719c.094-2.593-.937-4.093-3.562-3.218-.875.281-1.813.468-2.719.687l-16.781 4c-.438.094-1.094.5-1.125.844-.157 1.156-.219 2.375-.032 3.5.063.375 1 .906 1.469.875a32.06 32.06 0 0 0 4.906-.844l16.657-4.125c1.25-.281 1.281-.968 1.187-1.719zm7.719 13.875c.062-2.812-1-3.812-3.563-3.125-2.062.563-4.187.813-6.281 1.157-2.75.469-3.437 1.5-2.844 4.281.219 1.062.657 1.531 1.813 1.281l9.187-1.656c1.282-.219 2.188-.563 1.688-1.938z" fill="#196efd"/><path d="M275.719 222.406c-1.469-3.25-2.781-6.531-4.031-9.844a307.28 307.28 0 0 1-2.001-9.312c.157-.844.094-1.625-.375-2.188-.031-.031-.062-.062-.062-.094-.938-4.906-1.781-9.812-2.469-14.75.938-1.656 1.469-3.5 1.188-4.468a52.64 52.64 0 0 1-2.032-9.813c0-.125-.031-.25-.062-.344.281-.718.469-1.468.531-2.218.219-3.5-.469-8.032-4.344-9.219-.437-.125-.906-.219-1.343-.25-.438-.531-.907-1.031-1.375-1.531-1.469-1.594-3.563.187-4.563 1.531-.75 1-2.406 3.781-2.031 5.562-.656.625-1.313 1.469-1.5 1.719-1.188 1.563-2.312 3.969-1.969 6.031.063.313.156.594.25.875-.125.219-.218.407-.343.625a49.54 49.54 0 0 0-3.094 7.125c-3.407-4.343-7.032-8.562-12.157-10.937l-1.312-.563c-3.875-2.375-8.125-4.031-12.906-4.437-.219-.031-.407 0-.625.062-.282-.093-.563-.218-.813-.312-.969-.375-1.937 0-2.781.687-2.5 1.094-5.469 6.282-4 8.438a77.59 77.59 0 0 0 8.469 10.156c-.625-.219-1.281-.031-1.875.344-1.782-2.469-3.844-4.969-6.782-6-2.031-.719-3.937 1.594-4.812 3.187-.531 1-2.344 5.063-.344 5.75.344.125.688.25 1 .407-.343 1.125-.437 2.218.188 2.937a392.48 392.48 0 0 1 9.437 11.031c-2.219-.968-4.375-2.062-6.312-3.5-2.313-1.75-4.375-3.906-7.188-4.875-2.031-.718-3.937 1.594-4.812 3.188-.157.312-.469.937-.719 1.656-.844 1.563-1.563 3.625-.563 4.75 2.907 3.313 5.907 6.719 9.532 9.25-.469.844-.844 1.781-1 2.75-.375-.469-.75-.969-1.157-1.437-.468-.563-.937-1.125-1.468-1.625l-.844-.844c-.219-.188-.75-.906-.656-.375-.438-2.25-2.844-1.281-3.969-.156-1.562 1.562-3.188 4.25-2.719 6.562.344 1.813 2.219 2.813 3.375 4.188s2.219 2.812 3.531 4.031c2.625 2.469 6.344 3.687 9.938 3.5.844-.031 1.625-.438 2.312-1l2.875 1.937c2.657 1.75 4.938 3.719 7.063 6.063 2.094 2.281 4.219 4.937 6.906 6.531 2.844 1.688 6.063 1.25 8.969-.062 2.937-1.344 5.687-3 8.719-4.157 3.906-1.5 7.875-2.718 11.718-4.25.157.032.282.032.438.063.938.125 1.875-.594 2.625-1.375a50.97 50.97 0 0 0 2.625-1.313c.75-.406 1.531-.906 2.25-1.468.781.281 1.625.468 2.5.5 1.719.062 3.406-2.032 4.125-3.375.844-1.657 1.594-3.625.844-5.344z" fill="#fdfdfd"/><path d="M212.25 180.813c-1.625-3-2.781-6.156-3.25-9.594-.531-3.937.782-6.625 4.375-8.281.563-.25 1.125-.531 1.688-.812 3.75-.907 7.437-1.219 11.125.375 2.437 1.062 4.937 2 7.344 3.125 4.406 2.031 6.875 6.031 9.687 9.687.656.844 1.344 1.656 2.094 2.563.531-2.782.906-5.344 1.5-7.875.656-2.75 1.406-5.5 2.281-8.188 1.406-4.312 4.344-6.969 8.906-7.594 3.875-.531 7.094.688 9.407 4 1.937 2.75 3.468 5.719 3.687 9.094.188 2.938-.406 5.906-.375 8.875.031 3.938.219 7.875.438 11.813.156 2.687.125 5.437.75 8 1.875 7.625 4.031 15.156 7.156 22.375.062.125.156.25.219.375 1.437-1.282 2.031-1.125 2.656.468 2.687 7 3.437 14.313 3.531 21.688.063 4.875.094 9.812-.656 14.594-1.313 8.343-4.469 16.125-9.156 23.187-1.719 2.594-3.813 4.906-5.875 7.219-1.407 1.562-3.032 2.937-4.625 4.344-1.094.937-2.313 1.312-3.844 1.093-1.625-.218-3.344.063-5.031 0-1.25-.062-2.657 0-3.657-.531-3.187-1.719-6.625-2.5-10.062-3.375-.531-.125-1.188.094-1.75.313-2.5 1-5.063 1.406-7.75.906-1.719-.313-3.063-1.188-3.594-2.844-.375-1.187-1.125-1.5-2.125-1.719l-4.906-.875c-2.406-.468-3.156-1.343-3.5-3.718-.094-.719-.219-1.5-.563-2.125-.75-1.469-.75-2.844.188-4.219.125-.156.25-.344.281-.563 1.25-7.968 1.813-9.406 6.094-14.125 1.344-1.468 1.969-2.718.875-4.75-1.844-3.437-.594-6.406 2.281-8.875-4.844-3.781-10.406-6.593-13.469-12.062-2.718 1.125-5.406 1.719-8.218 1.281-.5-.062-1.032-.219-1.438-.469-4.281-3.031-8.5-6.187-10.531-11.312-.281-.688-.406-1.531-.219-2.219.125-.531.813-1.156 1.344-1.281.312-.094 1.031.562 1.312 1.031 2.094 3.531 5.094 6.063 8.594 8.125.281.156.625.219.813.438 1.625 1.875 3.375.562 4.968.062 1.282-.375.469-1.5.313-2.344-.156-.812-.438-1.687-.281-2.468.093-.5.875-1.125 1.375-1.157.531-.031 1.281.469 1.593.938 1.313 2.031 2.469 4.187 3.782 6.219 2.625 4.062 6.843 6.218 10.718 8.781 1.125.75 2.219 1.531 3.438 2.375 1.437-1.156 2.844-2.469 4.406-3.563 1.969-1.375 4.063-2.625 6.125-3.875.75-.468 1.656-.687 2.344-1.218 4.406-3.407 9.625-4.594 14.875-5.657 4.25-.843 8.5-1.562 12.75-2.281.937-.156 1.937-.031 3.281-.031-.406-1.094-.656-2.094-1.125-3.031-3.875-7.657-6.312-15.813-8.375-24.094-.562-2.281-.656-4.719-.781-7.063l-.625-14.437c-.031-1.125.187-2.281.375-3.375.719-4.25-.688-7.875-3.281-11.094-.938-1.187-2.844-1.469-4.438-.719-2.969 1.407-5.219 3.313-5.531 7-.469 5.844-1.281 11.625-1.75 17.469-.156 1.813.437 3.688.5 5.563.062 2.625-.75 3.406-3.188 4.25-3.437 1.187-6.218 3.468-8.687 6.062-1.156 1.188-2.375 2.375-3.219 3.781-1.375 2.375-2.5 4.938-3.656 7.438-.375.781-.469 1.719-.906 2.469-.25.406-.938.5-1.438.718-.156-.468-.594-1-.469-1.406.938-3.156 1.532-6.562 3.125-9.375 1.907-3.375 4.594-6.375 7.188-9.312 1.656-1.875 3.812-3.344 5.875-5.094l-.406-8.031c-.032-.438-.5-.907-.875-1.219-3.063-2.75-5.969-5.719-9.282-8.063-2.625-1.843-5.718-3.125-8.75-4.281-2.281-.875-4.781-1.187-7.187-1.781-2.344-.563-4.219.281-5.656 2.062-1.5 1.875-1.969 4.157-.75 6.25.875 1.532 2.218 2.813 3.531 4.063 1.656 1.594 3.406 3.031 5.219 4.469 1.343 1.062 2.781 1.968 4.218 2.906.219.156.688.281.844.187 1.438-1.031 3-2 4.219-3.281.875-.906 1.562-1.656 2.875-1.125 1.031.438 1.75 2.188 1.344 3.313-.157.437-.344.906-.657 1.218-2.093 2.032-4.375 3.813-7.218 4.657-.875.25-1.969.437-1.813-1.188.031-.344-.469-.937-.875-1.094-1.281-.531-2.656-.843-3.906-1.406-.906-.406-1.75-1-2.5-1.625-1.969-1.719-3.813-3.437-5.688-5.125zm-103.625 52.811c.25-.187.5-.469.75-.5 4.281-.437 8-2.469 11.937-3.937 2.375-.875 4.875-1.407 7.313-2.032l8.312-2c3.532-.906 7-1.968 10.532-2.75 5.468-1.218 11.031-2.093 16.468-3.406 7.907-1.937 15.782-4.094 23.625-6.219 3.563-.968 7.125-2.062 10.844-3.125-.781-1.093-1.687-2.218-2.406-3.437-.406-.719-.75-1.625-.688-2.406.063-1.032.75-1.594 1.875-.969 2.313 2.969 4.407 6.156 7.438 8.469 2.25 1.718 4.75 2.156 7.312 1.062 1.313-.562 2.094-1.844 2.313-3.406.062-.5.5-.969.781-1.438.719.563 1.813 1 2.094 1.75.469 1.313.031 2.625-1.156 3.594-1.375 1.125-2.688 2.313-4.032 3.438-1.25 1.062-2.625 1.437-4.156.718l-5.094-2.468c-.25-.125-.562-.219-.843-.188-2.344.344-4.719.594-7 1.125-1.875.438-3.688 1.094-5.469 1.813-6.031 2.468-12.438 3.375-18.719 4.812l-24.875 5.594h-.156c-3.438.625-5.781 2-6.563 6-.656 3.25-2.625 6.25-4.125 9.312-.937 1.907-2 3.75-3.093 5.563-1.625 2.687-4 4.719-6.657 6.219-4.5 2.562-7.812 6.312-10.906 10.281-.219.281-.25.75-.375 1.125-.125.562-.125 1.187-.406 1.625-2.063 3.156-2.688 6.844-3.906 10.281l-3.875 10.406c-1.25 3.344-4.188 4.25-7.219 4.813-1.406.25-3.156.281-4.344-.375-2.187-1.219-4.5-1.25-6.781-1.625-2.625-.406-5.219-.906-7.844-1.188-1.062-.093-2.281.063-3.219.5-2.469 1.188-4.656.313-6.812-.656-1.875-.844-3.562-1.969-4.906-3.687-.594-.782-2.094-.907-3.187-1.25-2.969-.938-5.969-1.688-8.875-2.813-2.094-.812-4-2.031-3.875-4.812 0-.25-.469-.657-.781-.782-4.437-1.468-4.75-5.375-3.156-8.843l7.125-15.844c.844-2.063 1.094-4.375 1.406-6.594.406-2.656.938-3.312 3.531-3.594.469-.062.906-.187 1.375-.218 3.156-.313 3.031-.344 3.344-3.532.438-4.531.906-9.062 1.625-13.531.406-2.594 1.313-5.062 1.938-7.625l2.625-11.094c1.031-4.031 2.219-8.093 5.188-11.156 3.5-3.625 7.281-6.937 10.969-10.375.25-.25.531-.5.781-.75l12.031-10.156c.938-.781 1.875-1.719 2.969-2.188 2-.906 3.75.094 4.312 2.188l5.657 20.594c.781 2.781.343 5.312-1.719 7.156-2.719 2.406-5.719 4.5-8.656 6.594-.906.625-1.25 1-.75 2.156 1.812 4.187 2.156 8.687 2.312 13.125.156 4.312-.094 8.625-.156 12.969-.125 2.937-1.875 5.218-3.344 7.562-.344.531-1.656.906-2.281.656-.719-.25-1.531-1.25-1.594-1.968-.062-1.188.438-2.407.688-3.594.313-1.5.875-3 .938-4.5.125-2.531-.062-5.094-.125-7.656-.062-1.875-.062-3.75-.187-5.594-.25-3.906-1.062-7.656-2.719-11.219-.75-1.656-.281-3.25.938-4.437 1.25-1.219 2.781-2.157 4.156-3.219l6.25-4.844c.343-.281.562-1.031.437-1.469-.844-3.343-1.781-6.656-2.719-9.968l-1.843-6.563-2.812 2.531c-6.062 5.094-12.687 9.5-18.187 15.313-2.156 2.281-3.937 4.687-4.781 7.687-.906 3.219-1.281 6.594-2.437 9.719-2.531 6.906-4.594 13.875-5.406 21.188-.219 2.031-.687 4-1.062 6.218h6.125c.875 0 1.781 0 2.625.157 3.625.687 6.813 2.375 9.875 4.312 1.875 1.188 3.75 2.438 5.719 3.469 3.281 1.75 6.75 3.187 9.969 5.031 4.25 2.438 8.343 5.156 12.562 7.781.25-.406.531-.906.813-1.406 2.312-4.375 5.437-8 9.625-10.781 2.156-1.438 4.156-3.344 5.656-5.469 2-2.812 3.5-5.969 5.031-9.094.844-1.718 1.281-3.625 1.906-5.406l-6.437.938-5.031.781-12.344 2.125c-.594.219-1.656.687-2-.594z" fill="#020202"/><path d="M263.25 87.407c-.813.594-1.75 1.625-2.875 2.031-4.375 1.5-8.844 2.719-13.219 4.156-2.094.688-4.188 1.469-6.156 2.438-3.5 1.719-6.938 3.594-10.375 5.468-.969.532-1.782.5-2.719-.187-2.813-2.188-4.219-5.219-5.281-8.438-.657-1.969-1.407-4-.969-6.156.156-.719.437-1.594.969-2.062 4.031-3.5 8.968-5.344 13.875-7.156 5.406-2 10.906-3.687 16.406-5.344 1.469-.437 3.062-.469 4.594-.5 1.968-.031 3.25 1.625 3.281 3.656 0 .625.531 1.25.875 1.875.656 1.156 1.062 2.219.344 3.563-.25.5.281 1.375.343 2.094.032.531-.281 1.125-.156 1.594.188.875.594 1.75 1.063 2.969z" fill="#030303"/><path d="M237.218 58.719l1.563 2.688c.187.375.312.875.25 1.313-.281 2.375.531 4.375 2 6.188.156.188 0 .844-.219 1l-6.594 4.719c-2.343 1.688-5.093 2.719-7.156 4.906-1.469 1.563-3.281 2.844-5.062 4.031-.532.375-1.657.313-2.282 0-3.156-1.594-5.062-4.375-6.562-7.437-.906-1.844-1.813-3.687-1.969-5.875-.062-.969-.031-1.625.625-2.375 4.188-4.625 9.313-7.906 14.781-10.719 1.5-.781 3.157-1.281 4.75-1.812.532-.187 1.188-.031 1.782-.031 1 .094 1.406.531 1.687 1.594.281 1.031.75 2.438 2.406 1.813z" fill="#020202"/><path d="M121.969 55.499c-.344.156-.719.469-1.063.469-2.312 0-4.156 1.156-6.094 2.188-1.062.563-2.281.875-3.437 1.281l-3 .844c-3.406 1.313-6.938 1.594-10.531 1.563-.531 0-1.156.125-1.625.406-2.094 1.313-4.406 1.781-6.844 1.813-.375 0-.781.219-1.125.375-.312.156-.625.531-.937.531-2.5.031-4.844 1.688-7.469.875-.375-.125-.906.094-1.344.188-2.219.531-4.406 1.188-6.656 1.563-1.469.25-2.187.906-1.937 2.375.281 1.625.656 3.219 1.063 4.813.375 1.563 1.094 3.094 1.188 4.656.688 10.938 2.281 21.781 4.25 32.562.656 3.656.781 7.438 1.094 11.156.031.469-.25.969-.406 1.469-1.062.063-1.687-.187-1.937-1.437l-5.75-28.282c-.875-4.844-1.094-9.844-1.687-14.75-.125-1.062-.406-2.156-.844-3.125-1.344-3.062-1.719-6.25-1.625-9.562.031-2 .969-2.906 2.969-3.281 3.313-.656 6.625-1.437 9.938-2.156.656-.125 1.313-.156 2-.187.969-.094 1.969-.125 2.938-.219 3.375-.406 6.563-1.937 10.063-1.687.406.031.844-.094 1.188-.25 1.5-.75 2.969-.75 4.625-.687 2.375.094 4.781-.469 7.187-.844 1.969-.312 3.938-.75 5.875-1.187.75-.187 1.438-.562 2.125-.937 2.156-1.156 4.438-1.75 6.875-1.156.375.063.625.406.938.625z" fill="#040507"/><path d="M205.844 194.968l-3.594-6.093c-1-2.032.031-5.25 1.781-6.594.75-.594 1.719-.219 1.844.75.094.562.031 1.125.062 1.687-.093.188-.218.344-.312.532 0 .531-.219 1.218.031 1.593l7.938 11.094c1.062 1.469 2.781 1.156 3.781.688 2.156-.969 4.062-2.563 6.219-4 1.562.406 2.094 1.906 1.062 3.468-1.656 2.532-4 4.157-6.594 5.5-.562.282-1.593.188-2.187-.125-3.313-1.687-6.313-3.75-8.344-7-.375-.656-1.094-1.031-1.687-1.5z" fill="#050607"/><path d="M139.969 54.407c.062.813.312 1.688.156 2.469-.125.625-.781 1.125-1.187 1.688-.438-.469-1.032-.875-1.313-1.437-.406-.781-.594-1.656-.875-2.469l-2.969-14.812c-.187-.969.063-2.062.188-3.062.125-1.031.875-1.687 1.844-1.406.656.188 1.468.906 1.593 1.5.344 1.875.313 3.813.594 5.688l1.969 11.844z" fill="#060707"/><path d="M152.219 53.345c-.032.219.031.469-.094.594l-1.313 1.469-1.281-1.656.031-11.812.532-7.719c.156-1.094.406-2.781 2.093-2.594s1.344 1.719 1.282 2.875l-1.25 17c-.063.594 0 1.219 0 1.844z" fill="#080808"/><path d="M168.062 49.28l-1.843 4.531c-.344.844-.782 1.563-1.813 1.219-.937-.312-1.094-1.094-.812-2.031.25-.781.343-1.594.531-2.406l3.75-9.75c.219-.5.937-1.156 1.375-1.125.469.031 1.156.719 1.344 1.25.718 2.313-.219 4.344-1.375 6.281l-1.157 2.031z" fill="#050607"/><path d="M193.125 56.78l-1.938 1.469c-.468-.75-1.187-1.406-1.406-2.219L188 47.749c-.781-.094-2.25.813-2.25-1.125l3.625-1.625c.875-.312 1.562.156 1.719 1.063l.625 3.938 1.406 6.781z" fill="#060809"/><path d="M237.219 58.718c-1.688.625-2.125-.812-2.406-1.781-.282-1.031-.719-1.5-1.688-1.594 2.656-1.125 4.062.688 3.937 2.531 0 .281.125.563.157.844z" fill="#202020"/><path d="M205.656 185.219c.094-.188.219-.344.313-.531-.125.156-.219.343-.313.531z" fill="#196efd"/><path d="M108.625 233.625c.344 1.281 1.406.812 2.063.687 4.125-.625 8.218-1.406 12.343-2.124 1.657-.282 3.344-.532 5.031-.782l6.438-.937c-.625 1.812-1.062 3.718-1.906 5.406-1.532 3.125-3.031 6.281-5.031 9.094-1.5 2.125-3.5 4.031-5.657 5.469-4.187 2.812-7.281 6.406-9.625 10.781-.25.5-.562 1-.812 1.406-4.188-2.625-8.313-5.344-12.563-7.781-3.219-1.844-6.687-3.313-9.969-5.031-1.969-1.032-3.812-2.282-5.719-3.469-3.094-1.938-6.25-3.625-9.875-4.313-.844-.156-1.75-.156-2.625-.156-1.969-.031-3.938 0-6.125 0 .375-2.187.844-4.188 1.063-6.219.813-7.312 2.875-14.312 5.406-21.187 1.156-3.125 1.531-6.5 2.438-9.719.844-3 2.594-5.375 4.781-7.688 5.5-5.812 12.125-10.218 18.188-15.312.906-.75 1.781-1.594 2.813-2.531l1.844 6.562 2.719 9.969c.125.438-.094 1.187-.438 1.469-2.031 1.656-4.156 3.25-6.25 4.843-1.406 1.063-2.906 2.001-4.156 3.219-1.219 1.188-1.687 2.781-.937 4.438 1.656 3.562 2.469 7.312 2.719 11.219.125 1.874.125 3.75.188 5.593.062 2.563.25 5.094.125 7.657-.062 1.5-.594 2.999-.937 4.499-.25 1.188-.781 2.407-.687 3.594.063.719.875 1.719 1.594 1.969.625.219 1.938-.125 2.281-.656 1.469-2.344 3.219-4.594 3.344-7.563 1.218-.437 2.406-.937 3.624-1.312 1.438-.407 2.876-.719 4.313-1.094z" fill="#fdfdfd"/><path d="M105.343 92.188c-2.125 2.938-5.312 3.375-7.968.969-1.469-1.344-2.719-3-3.906-4.594-.281-.375-.187-1.375.125-1.781 1.25-1.656 3.063-2.5 5.063-2.687.563-.062 1.188.375 1.469.438 1.343-.656 2.562-1.625 3.843-1.781 1.25-.156 2.594.563 4.125.969.032-.062.313-.437.594-.781 1.625-2.156 4-2.844 6.344-1.531 1.875 1.031 3.375.875 5-.406 1.719-1.375 3.719-1.844 5.937-2.031 2.313-.187 4.563-.844 6.875-1.312l1.375-.312c1.875-.375 3.657 1.156 3.625 3.094 0 .313-.062.625-.062.938.062 3.063-.375 3.5-3.5 3.969l-6.531 1.344c-1.969.25-3.563.906-5.25 2-2.219 1.438-4.844 1.594-7.5 1.094-.532-.094-1.407.031-1.688.406-2.562 3.063-3.719 3.438-7.5 2.156-.156-.094-.25-.094-.469-.156z" fill="#fbfcfe"/><path d="M100.875 111.313c-.719-.125-1.469-.156-2.126-.375-1.219-.437-2.312-.687-3.469.25-.219.188-1.031-.031-1.312-.344-1.562-1.625-2.156-3.656-2.031-5.843.094-1.219 2.594-2.719 4.094-2.532 1.438.219 2.813.688 4.25.782a5.09 5.09 0 0 0 2.625-.532c1.75-.875 3.406-2 5.125-2.937s3.469-.906 5.25-.156c1.844.781 3.5.593 5.062-.781.844-.75 1.844-1.344 2.813-1.937 1.594-.969 3.281-1.156 5.094-.562.562.188 1.437.063 1.937-.281 2.156-1.469 4.469-1.812 6.969-1.344 1.094.219 2.156 2.344 1.875 3.656-.156.75-.531 1.531-.469 2.281.094 1.531-.875 1.781-1.937 1.687-1.625-.125-2.75.688-3.844 1.688-1.219 1.094-3.625 1.375-5.031.531-.969-.594-1.719-.562-2.594.281-3.25 3.188-7.156 3.563-11.406 2.594-.563-.125-1.313-.094-1.813.156-1.156.563-2.219 1.407-3.375 1.907-1.812.781-3.687 1.406-5.531 2.093-.031-.062-.094-.156-.156-.281z" fill="#fafcfe"/><path d="M109.344 161.499c-.844-.343-2.406-.593-2.437-1-.125-1.375.25-2.781.531-4.187.031-.188.687-.344 1.062-.406l14.938-2.063 9.594-1.969 14.25-2.531c1.375-.25 2.5.688 2.625 2.063.281 2.687.218 2.718-2.407 3.25l-8.843 1.781-24.157 4.281c-1.687.281-3.375.344-5.093.5.031.094-.032.188-.063.281z" fill="#020307"/><path d="M165.594 97.219l-2.281.656-6.688 1.25c-1.312.313-2.625.875-3.844 1.469a14.4 14.4 0 0 1-7.812 1.531l-3.25-.281c-1.281 0-1.906-.625-1.781-1.781.187-1.531.5-3.063.968-4.5.375-1.156 1.407-1.562 2.625-1.406l2.938.25c1.25 0 2.344-.344 3.094-1.469 1.062-1.625 2.781-1.5 4.406-1.531.781 0 1.531.094 2.281-.031l5.813-1.031c1.656-.281 3.468 1.25 3.5 2.938l.031 3.938z" fill="#fafbfe"/><path d="M100.094 130.375c-.031-2 .438-2.563 2.375-2.906l16.75-2.969c5.031-1.031 10-2.375 14.969-3.563.781-.187 1.812-.843 2.344.313.531 1.187.937 2.437 1.156 3.719.031.218-.906.781-1.469.937-4.812 1.219-9.594 2.531-14.437 3.5-6.563 1.313-13.188 2.344-19.813 3.469-1.25.25-1.844-.594-1.875-2.5zm93.562-1.093c.312 1.125-.25 1.562-1.5 1.781l-23.594 4.25-3.312.781c-.282.063-.844.094-.875 0-.375-1.187-.75-2.375-.907-3.625-.125-.906.438-1.531 1.438-1.718l25.687-4.813c2.063-.406 3.25.813 3.063 3.344z" fill="#020307"/><path d="M171.937 115.782c0 2-.937 3.125-2.906 3.5l-12.5 2.469-12.5 2.469c-1.156.218-2.281.468-2.563-1.25-.406-2.5.032-3.625 1.657-3.938l21.531-4.156 2.406-.563c1.125-.25 2.281-.781 3.125.657.344.437 1.125.531 1.75.812z" fill="#020306"/><path d="M132.313 142.625c-1.375.532-2.594 1.219-3.906 1.438l-17.813 2.781c-1.719.281-3.375.938-5.094 1.281-.375.094-1.187-.218-1.218-.437-.25-1.281-.438-2.594-.407-3.906 0-.313.782-.782 1.282-.875l11.437-2.282 9.688-1.5c.062 0 .093-.031.156-.031 3.969-.781 3.969-.781 5.875 3.531z" fill="#020307"/><path d="M137 168.03c.312 1.125-.25 1.813-1.563 2.063l-9.719 1.906-13.625 3.125c-1.062.25-1.5-.094-1.687-.969-.188-.75-.281-1.531-.344-2.281-.125-1.156.438-1.844 1.594-2.094l15.031-3.25 7.906-1.718c1.188-.282 2.344.656 2.438 2.062-.031.313-.031.625-.031 1.156z" fill="#020407"/><path d="M159.875 135.313c.094.719.063 1.437-1.156 1.719l-16.656 4.125a32.87 32.87 0 0 1-4.906.843c-.469.032-1.407-.5-1.469-.875-.188-1.156-.125-2.343.031-3.5.031-.312.688-.718 1.125-.843l16.781-4 2.719-.688c2.563-.844 3.594.625 3.531 3.219z" fill="#020307"/><path d="M167.594 149.187c.5 1.375-.406 1.719-1.656 1.938l-9.188 1.656c-1.156.219-1.593-.219-1.812-1.281-.594-2.782.094-3.844 2.844-4.282l6.281-1.156c2.531-.719 3.594.281 3.531 3.125z" fill="#020407"/></svg>