<svg xmlns="http://www.w3.org/2000/svg" width="90" height="28" fill="#6b6b6c"><path d="M20.205 6.641v8.377a.51.51 0 0 1-.512.512h-2.644a.51.51 0 0 1-.512-.512V1.393a.51.51 0 0 1 .512-.512h2.447a.51.51 0 0 1 .512.512v1.919s.874-2.738 3.47-2.738c0 0 2.568-.31 3.612 2.54 0 0 .875-2.54 3.527-2.54 0 0 3.945-.235 3.945 3.847l.03 2.248v8.377a.51.51 0 0 1-.512.512h-2.645a.51.51 0 0 1-.512-.512L30.9 5.908c.075-2.069-1.599-1.919-1.599-1.919-2.107.038-1.904 2.681-1.904 2.681v8.377a.51.51 0 0 1-.512.512H24.24a.51.51 0 0 1-.512-.512V6.115s.155-2.145-1.727-2.145c0 0-1.862-.244-1.797 2.672zm68.168-.025v8.377a.51.51 0 0 1-.512.512l-2.75.053a.51.51 0 0 1-.512-.512V6.115s.155-2.145-1.727-2.145c0 0-1.797-.088-1.797 3.274v7.775a.51.51 0 0 1-.512.512h-2.645a.51.51 0 0 1-.512-.512V1.393a.51.51 0 0 1 .512-.512h2.447a.51.51 0 0 1 .512.512v1.919S81.752.574 84.349.574c0 0 2.781-.422 3.718 2.487 0 0 .307.6.307 3.555zM69.278.518c-3.382 0-6.124 2.85-6.124 7.647 0 4.224 2.116 7.647 6.124 7.647 3.781 0 6.124-3.424 6.124-7.647 0-4.713-2.742-7.647-6.124-7.647zm2.134 7.817c0 1.806-.226 2.766-.226 2.766-.321 1.909-1.707 1.912-1.911 1.902-.221.009-1.618-.011-1.907-1.902 0 0-.226-.959-.226-2.766v-.301c0-1.806.226-2.766.226-2.766.289-1.891 1.687-1.911 1.907-1.902.204-.01 1.59-.008 1.911 1.902 0 0 .226.959.226 2.766v.301zM61.62 3.293V1.338a.51.51 0 0 0-.512-.512h-8.741a.51.51 0 0 0-.512.512v1.94a.51.51 0 0 0 .512.512h4.56l-5.397 7.829s-.213.317-.206.668v2.382s-.035.817.891.343c0 0 1.645-.994 4.403-.994 0 0 2.724-.034 4.54 1.079 0 0 .754.343.754-.411v-2.073s.068-.549-.651-.891c0 0-2.09-1.148-4.831-.96l5.191-7.47zm-47.125 9.801l-.828-1.26c-.263-.47-.244-.997-.244-.997V5.023C13.536 0 7.967.433 7.967.433c-4.95 0-5.682 3.853-5.682 3.853-.206.775.394.793.394.793l2.419.245s.412.094.563-.397c0 0 .319-1.681 2.1-1.681 1.938 0 1.918 1.664 1.918 1.664v1.393c-3.869.129-5.663 1.204-5.663 1.204-2.389 1.355-2.239 4.045-2.239 4.045 0 4.383 4.176 4.195 4.176 4.195 2.671 0 4.252-1.956 4.252-1.956.47.828 1.336 1.618 1.336 1.618.433.47.884.075.884.075l1.957-1.674c.433-.32.113-.715.113-.715zm-7.237-.054c-1.257 0-1.724-1.249-1.515-2.476S7.036 8.372 9.68 8.401v.746c.094 3.26-1.376 3.893-2.421 3.893zm42.38.054l-.828-1.26c-.264-.47-.245-.997-.245-.997V5.023C48.678 0 43.109.433 43.109.433c-4.95 0-5.682 3.853-5.682 3.853-.206.775.394.793.394.793l2.419.245s.412.094.563-.397c0 0 .319-1.681 2.1-1.681 1.938 0 1.918 1.664 1.918 1.664v1.393c-3.869.129-5.663 1.204-5.663 1.204-2.389 1.355-2.239 4.045-2.239 4.045 0 4.383 4.176 4.195 4.176 4.195 2.671 0 4.252-1.956 4.252-1.956.471.828 1.336 1.618 1.336 1.618.433.47.885.075.885.075l1.956-1.674c.433-.32.113-.715.113-.715zM42.4 13.04c-1.257 0-1.724-1.249-1.515-2.476s1.293-2.192 3.936-2.163v.746c.094 3.26-1.375 3.893-2.421 3.893zm13.897 11.057s-.221.385.051.471c0 0 .307.12.69-.235 0 0 2.792-2.439 2.86-6.88 0 0 .02-.555-.202-.706 0 0-.875-.774-4.02-.538 0 0-2.742.185-4.239 1.514 0 0-.134.118-.134.269 0 0-.032.327.791.185 0 0 2.742-.387 4.374-.185 0 0 .841.101 1.077.387 0 0 .387.32.185 1.379 0 0-.555 2.692-1.43 4.34zm-.553-4.262s.409.531-.251.988c0 0-7.059 5.646-18.911 5.646 0 0-12.2.602-22.388-8.654 0 0-.357-.314-.135-.605 0 0 .198-.268.711.023 0 0 9.583 5.972 22.169 5.972 0 0 8.748.339 17.722-3.499 0 0 .715-.37 1.083.129z"/></svg>