<svg xmlns="http://www.w3.org/2000/svg" width="212" height="136" fill="none"><g clip-path="url(#A)"><g fill="#000"><path d="M167.404 11.841v.055.117 1.014 2.301 60.149l-.016.195v11.833c-.322 2.02-1.944 3.619-3.982 3.939h-11.051-.071-10.681-.07-83.746c-.055-.008-.118 0-.173 0H36.418l-.622-.016H25.179c-1.503-.304-2.81-1.279-3.439-2.597l-.582-1.724V11.841h146.239m1.574-1.56H19.59v77.091l.693 2.052c.874 1.888 2.707 3.222 4.762 3.573h10.759.622 21.306.063l83.746.008H152.3h.071 11.168c2.81-.382 5.053-2.597 5.439-5.39V75.672l.016-.016V15.328v-2.309-1.139-1.607l-.024.008z"/><path d="M163.209 0H25.525c-3.148.343-5.203 2.512-5.935 5.476v4.805h149.38c-.047-4.992.417-9.15-5.761-10.281z"/></g><path d="M38.283 3.526c2.881-.733 3.589 3.261 1.086 3.736s-3.172-3.206-1.086-3.736zm-11.885 0c2.92-.593 3.29 3.292.921 3.736-2.495.476-3.243-3.268-.921-3.736zm5.856 0c3.274-.741 3.416 4.041.488 3.768-2.125-.195-2.314-3.354-.488-3.768z" fill="#f2b705"/><path d="M139.99 44.486c.126-1.576.197-3.892-.141-6.669-.425-3.448-.638-5.18-1.889-6.334-1.575-1.466-3.865-1.365-8.438-1.17a42.53 42.53 0 0 0-5.588.608c-.244-.047-.575-.14-.96-.07-.339.062-.669.156-.945.164-.338-.039-.693-.047-1.078-.016-.04 0-.079 0-.118.008-4.369.289-9.792 1.217-14.01 1.131l-.984-.062-3.33.413c-8.209.928-17.323 1.233-29.31 2.051-3.998.273-6.234.46-8.138 2.184-2.928 2.652-2.944 7.028-2.92 8.939.205 19.961 5.832 64.259 6.241 70.835.205 3.292.787 6.56.764 9.86 0 .327-.016 1.88.386 3.884.425 2.075.708 3.495 1.842 4.509 1.188 1.069 2.684 1.139 5.006 1.24.842.039 1.354 0 5.431-.398l3.353-.327c42.353-4.493 49.657-4.041 49.657-4.041 3.495.219 8.406.694 10.728-2.192 1.165-1.451 1.063-3.744.858-8.338-.26-5.851-1.362-8.752-1.173-15.43.024-.702.095-1.177.063-1.544l-4.699-56.054-.228-1.264c0-.039.205-.343.142-.718-.071-.421-.244-.881-.536-1.201h.016z" fill="#000"/><path d="M77.929 80.797c-1.07-3.588-.559-8.315 3.314-10.023 2.172-.959 8.249-1.303 10.838-1.373 3.802-.101 6.556 1.888 7.398 5.64.094.421.401 3.58.291 3.736-.094.133-.26.187-.409.226l-21.424 1.794h-.008zM84.1 53.682c7.894-3.885 12.436 7.418 5.525 10.523-7.139 3.214-11.909-7.387-5.525-10.523zm48.066 55.071c.111.055.292 1.139.205 1.248l-41.872 3.339c-.409-.648-.402-1.295.504-1.272l41.164-3.315zm-1.361-17.48c.181.109.103.999.228 1.256l-41.951 3.315c-.181-.133-.323-1.194-.142-1.271l41.865-3.3zm.582 8.783c.229.14.536 1.404-.157 1.334l-41.644 3.003c-.142-.967-.126-.936.826-1.092l40.975-3.237v-.008zm-.511-35.313c.173.772.528 1.466-.527 1.459l-21.228 1.63c-.322-.086-.409-1.209-.236-1.287l21.983-1.802h.008zm-3.683 9.213c.063.047.212 1.264.141 1.287l-17.788 1.123c-.141-.967-.125-.936.827-1.092l16.82-1.311v-.008zM84.32 94.947c.15.094.338 1.178.126 1.295-.598-.055-4.148.538-4.345.445-.126-.062-.055-1.03-.22-1.264l4.439-.476zm.78 8.697c.087.039.268 1.217.126 1.31-.504.094-4.297.546-4.392.351-.087-.171-.205-1.154-.087-1.209.63.125 4.164-.553 4.353-.452zm.582 8.775c.11.055.275.96.401 1.194-.102.203-4.376.593-4.502.382-.189-.312-.11-.803-.173-1.154.598.101 4.077-.523 4.274-.422z" fill="#fff"/><path d="M61.093 31.732c.315.648-.401 1.225-.976.827L53.6 26.607c-.142-.585.575-1.03 1.07-.671l6.423 5.796zm-9.988 6.178c1.432.374 3.802.07 5.108.569.433.164.394.983 0 1.108-1.023.32-3.888-.546-5.124-.406-.606-.179-.606-1.045.024-1.271h-.008zM67.02 21.849c.142.078.22.156.307.296.126.211.441 4.478.362 4.813-.189.78-.976.928-1.181.016-.173-.78-.338-3.37-.323-4.212.008-.507.142-1.287.834-.905v-.008z" fill="#000"/><path d="M44.171 37.45c.11 1.232.134 3.643 0 4.852-1.039 9.267-9.28 17.489-18.473 18.978-.394.062-1.228.195-1.558.218C7.658 62.926-4.612 46.412 1.684 31.186c2.692-6.498 9.193-11.942 16.222-13.167.378-.062 1.204-.195 1.558-.218 12.239-1.014 23.605 7.208 24.706 19.642v.008z" fill="#71d904"/><g fill="#000"><path d="M31.192 32.699c.393-.07 1.244.92.693 1.303L18.087 47.863l-.299.101c-.527 0-4.29-4.243-5.069-4.836-.354-.39.441-1.248.787-1.186.527.094 3.66 4.009 4.282 4.009l.299-.101 13.105-13.151zm26.793 66.21c.323-.452 1.771.062 2.314-.133.275 1.935-.087 2.754-2.196 2.106-.299-.227-.173-1.888-.118-1.966v-.008zm4.202.281c1.102-1.342 2.188 2.418.071 2.293-.22-.093-.173-2.168-.071-2.293zM34.364 82.801c1.519-1.022 2.495-1.513 3.148.624-1.669 1.942-2.007 1.201-3.148-.624zm-1.952-3.72c.047-.101 1.669-.827 1.999-1.045l1.047 2.012c-.645.164-1.401 1.123-2.094.913-.449-.14-1.047-1.693-.952-1.88zm9.225 9.032c.087.023 1.181 1.31 1.196 1.404.047.429-1.495 1.568-1.834 1.467-.087-.023-1.181-1.311-1.196-1.404-.047-.429 1.495-1.568 1.834-1.466zm-2.778-3.128c2.432 2.285-.897 4.251-1.787 1.264l1.787-1.264zm13.545 12.559c-.952 1.935-3.825.936-2.471-.819.889-1.154 2.613.07 2.471.819zm-4.801-4.033c1.393.39 1.401 2.8-.063 3.058-.197.039-1.291-.967-1.33-1.365-.047-.476.992-1.81 1.393-1.693zm-2-.764c-.039.203-1.204 1.35-1.527 1.248-.165-.507-1.118-1.006-1.165-1.412-.024-.25 1-1.607 1.252-1.638.504-.062 1.551 1.233 1.44 1.802z"/><use href="#B"/><path d="M29.508 66.874l-2.136.73.736 2.117 2.136-.73-.736-2.117zm1.365 3.925l-2.136.73.736 2.117 2.136-.73-.736-2.117zm22.491 29.288c-.575-1.038 1.488-2.527 2.314-1.03.575 1.038-1.488 2.528-2.314 1.03zM26.32 64.58c1.48-.398 2.267-1.451 2.558.476-1.48.398-2.267 1.451-2.558-.476zm109.679-13.261l-3.77-22.122-.244-.437s-.102-.187-.205-.437c-.448-1.038-.535-2.052-.535-2.052s-.047-.53 0-1.069c.197-2.27 2.267-4.54 2.267-4.54 6.029-7.988 16.513-15.46 27.083-14.602.929.078 2.637.725 3.33.655.393-.039 1.448-.647 2.023-.827 7.721-2.418 18.425 4.376 24.171 9.119 2.991 2.473 5.58 5.234 7.926 8.307 2.148 2.816 2.282 3.268 5.509 5.148 2.424 1.412 5.053 2.449 7.477 3.861 3.353 11.552-2.266 24.173-12.609 30.125-.448.258-2.943 1.568-3.25 1.607-.134.016-.252.031-.37-.055l-4.691-3.736-9.461-7.621c-.692-.53-3.573-2.933-4.085-3.089-.503-.156-2.227.468-2.951.577-4.085.608-9.492-.733-13.444-1.888-4.62-1.357-8.012-2.808-9.169-3.315a79.9 79.9 0 0 1-10.767-5.686 1.17 1.17 0 0 1-.449-.374c-.213-.281-.236-.585-.252-.85-.031-.718.079-1.123.11-1.529.079-.967-.259-1.755-.385-2.067-.331-.772-.685-.983-.85-1.802-.071-.343-.071-.632-.063-.819a9.2 9.2 0 0 1-1.228-.242c-1.189-.312-1.204-.562-2.306-.858-.551-.148-1.338-.296-1.842-.624a1.54 1.54 0 0 1-.535-.499c-.055-.094-.048-.109-.205-.39l3.77 22.13zm73.986-18.191c-2.983-1.373-6.195-2.855-8.91-4.68-3.172-2.129-4.124-4.813-6.604-7.551-5.163-5.702-17.496-14.844-25.509-14.329-7.005.445-12.869 8.292-14.687 14.462-1.55 5.258-.606 10.406 6.069 9.571-.945-5.523 2.329-12.559 6.611-16.077.456-.374 1.913-1.646 2.227-.554.197.679-.92 1.092-1.401 1.537-3.659 3.362-7.312 9.704-6.217 14.79.684 3.198 3.652 5.39 6.973 4.602-1.566-6.014 2.645-11.56 7.218-14.977.385-.289 1.44-1.178 1.873-1.076.401.101.559.608.378.975-.103.195-1.897 1.42-2.267 1.739-3.967 3.393-7.651 8.073-5.691 13.604.653 1.833 2.07 3.885 4.148 4.181 3.715.53 6.808-1.357 6.391-5.343-.031-.328-.165-1.498-.669-1.17-.598.398-1.007 2.013-2.062 1.755-.756-.179.236-1.537.472-1.833 1.079-1.342 2.676-2.543 4.502-2.301 1.897.25 1.645 1.794.599 1.568-.677-.148-1.094-.616-2.007-.257.22 1.435.669 2.512.456 4.017-.661 4.797-7.58 6.544-10.917 3.284-.574-.562-1.763-2.824-1.912-2.917-.205-.125-1.48.273-1.913.265-2.597-.031-4.785-1.669-6.092-3.76-.134-.218-.15-.694-.291-.733-.354-.101-1.409.211-1.991.187-.465-.016-1.378-.351-1.653-.296-.197.039-.606.577-.882.764-4.242 2.793-7.737-.039-12.034-.616-1.645-.218-3.282-.226-4.92.062.323.499 1.055 1.732 1.299 3.19a9.8 9.8 0 0 1 .11 1.771 8.01 8.01 0 0 1-.086 1.022l.283.172c2.818 1.669 8.091 4.774 15.033 7.364 5.636 2.106 13.916 4.173 18.331 3.237.709-.148 1.905-.811 2.448-.632.772.25 3.455 2.543 4.313 3.198 4.794 3.697 9.367 7.668 14.231 11.272 11.31-4.61 17.882-17.684 14.758-29.478l-.008-.008zM158.801 6.935c-9.587.125-18.599 6.506-24.219 13.799-1.794 2.332-3.439 4.688-1.708 7.652.976 1.677 1.575 1.342 3.172 1.825 1.819.554 1.897 1.178 3.889.133 1.7-.897 2.825-3.105 4.092-4.563 1.96-2.254 4.613-4.626 7.226-6.1.661-.374 2.739-1.162 3.061-1.443.182-.156 1.708-3.253 2.11-3.877 1.731-2.668 3.888-5 6.588-6.732.015-.507-3.66-.702-4.211-.702v.008zm-5.486 12.722c-5.148 2.2-8.729 6.646-12.042 10.936 3.321-.507 6.32 1.217 9.358 1.755 1.33.234 3.896.273 4.864-.835.464-.53-.094-.375-.401-.608-3.912-2.964-2.936-7.098-1.779-11.256v.008zm-27.351 47.411v.164c.11-.055.11-.109 0-.164z"/></g><path d="M209.985 33.128c3.125 11.794-3.448 24.86-14.758 29.478-4.872-3.604-9.445-7.574-14.23-11.272-.85-.655-3.534-2.949-4.314-3.198-.543-.179-1.739.484-2.447.632-5.211 1.1-13.333-1.459-18.331-3.237-2.401-.858-8.383-3.159-15.246-7.488-.032-.016-.055-.031-.071-.047.102-.663.134-1.63-.031-2.785-.174-1.232-.858-2.083-1.299-3.19 1.637-.289 3.266-.289 4.919-.062 4.298.577 7.8 3.409 12.035.616.275-.179.684-.725.881-.764.276-.055 1.189.281 1.653.296.59.023 1.637-.281 1.991-.187.142.039.158.515.291.733 1.307 2.09 3.495 3.729 6.092 3.76.433 0 1.708-.39 1.913-.265.15.094 1.346 2.363 1.913 2.917 3.337 3.261 10.255 1.513 10.916-3.284.205-1.506-.236-2.582-.456-4.017.921-.367 1.33.109 2.007.257 1.047.226 1.299-1.318-.598-1.568-1.834-.242-3.432.967-4.502 2.301-.236.296-1.228 1.654-.473 1.833 1.055.257 1.457-1.357 2.063-1.755.503-.335.637.835.669 1.17.409 3.986-2.676 5.874-6.391 5.343-2.078-.296-3.495-2.348-4.148-4.181-1.96-5.523 1.723-10.203 5.69-13.604.37-.32 2.165-1.537 2.267-1.74.189-.367.032-.874-.378-.975-.433-.109-1.479.78-1.873 1.076-4.565 3.424-8.784 8.963-7.218 14.977-3.313.788-6.288-1.404-6.973-4.602-1.086-5.086 2.558-11.428 6.218-14.79.48-.445 1.598-.858 1.401-1.537-.315-1.1-1.771.179-2.228.554-4.281 3.51-7.556 10.554-6.611 16.077-6.674.827-7.619-4.321-6.068-9.571 1.818-6.17 7.674-14.01 14.686-14.462 8.013-.515 20.346 8.627 25.51 14.329 2.479 2.738 3.431 5.421 6.603 7.551 2.716 1.825 5.935 3.307 8.91 4.68h.016zM158.801 6.935c.551 0 4.226.195 4.211.702-2.7 1.732-4.864 4.056-6.588 6.732-.402.624-1.928 3.721-2.11 3.877-.322.281-2.392 1.069-3.061 1.443-2.621 1.474-5.266 3.846-7.226 6.1-1.267 1.459-2.392 3.674-4.092 4.563-1.992 1.045-2.063.429-3.889-.133-1.597-.492-2.196-.148-3.172-1.825-1.723-2.964-.078-5.32 1.708-7.652 5.612-7.293 14.624-13.682 24.219-13.799v-.008z" fill="#f2b705"/></g><defs><clipPath id="A"><path fill="#fff" d="M0 0h212v136H0z"/></clipPath><path id="B" d="M32.545 74.629l-2.136.73.736 2.117 2.136-.73-.736-2.117z"/></defs></svg>