<svg width="119" height="56" viewBox="0 0 119 56" fill="none" xmlns="http://www.w3.org/2000/svg"><path d="M113.947 24.9776C113.747 24.9776 113.447 24.9776 113.247 24.9776C113.547 24.9776 113.747 24.8776 113.947 24.9776C117.847 24.4776 119.047 16.6776 117.747 11.7776C118.747 6.77761 117.547 -0.0223858 114.047 0.0776142C110.047 0.177614 106.047 0.277614 102.047 0.477614C101.647 0.277614 101.247 0.177614 100.747 0.177614C86.1466 0.0776142 71.2466 -0.622386 56.7466 1.67761C41.1466 1.87761 25.5466 2.07761 9.94657 2.07761C6.04657 2.07761 4.74657 10.2776 6.24657 15.2776C5.74657 15.2776 5.24657 15.2776 4.74657 15.3776C-0.553433 15.6776 -0.853431 30.4776 3.54657 32.0776C3.04657 36.3776 3.94657 41.3776 6.44657 42.3776C4.84657 47.4776 6.04657 55.6776 9.74657 55.2776C27.1466 53.6776 44.5466 52.1776 62.0466 51.7776C64.6466 51.7776 67.2466 51.6776 69.8466 51.6776C75.8466 52.9776 81.9466 53.2776 88.1466 52.8776C92.1466 52.5776 96.1466 51.9776 100.147 51.3776C101.947 51.0776 103.847 50.8776 105.747 50.4776C108.147 50.1776 110.647 49.8776 113.047 49.4776C116.447 48.8776 117.647 43.0776 117.147 38.3776C118.947 33.5776 117.947 25.1776 113.947 24.9776Z" fill="#0903A6"/></svg>