<svg xmlns="http://www.w3.org/2000/svg" width="184" height="145" fill="none"><g clip-path="url(#A)"><path d="M182.49 16.917v-1.5-.005-.005-.005-.005-.005-.005-.005-.005-.005-.005-.005-.005-.005-.005-.005-.005-.005-.005-.005-.005-.005-.005-.005-.005-.005-.005-.005-.005-.005-.005-.005-.005-.005-.005-.005-.005-.005-.005-.005-.005-.005-.005-.005-.005-.005-.005-.005-.005-.005-.005-.005-.005-.005-.005-.005-.005-.005-.005-.005-.005-.005-.005-.005-.005-.005-.005-.005-.005-.005-.005-.005-.005-.005-.005-.005-.005-.005-.005-.005-.005-.005-.005V15v-.005-.005-.005-.005-.005-.005-.005-.005-.005-.005-.005-.005-.005-.005-.005-.005-.005-.005-.005-.005-.005-.005-.005-.005-.005-.005-.005-.005-.005-.005-.005-.005-.005-.005-.005-.005-.005-.005-.005-.005-.005-.005-.005-.005-.005-.005-.005-.005-.005-.005-.005-.005-.005-.005-.005-.005-.005-.005-.005-.005-.005-.005-.005-.005-.005-.005-.005-.005-.005-.005-.005-.005-.005-.005-.005-.005-.005-.005-.005-.005-.005-.005-.005-.005-.005-.005-.005-.005-.005-.005-.005-.005-.005-.005-.005-.005-.005-.005-.005-.005-.005-.005-.005-.005-.005-.005-.005-.005-.005-.005-.005-.005-.005-.005-.005-.005-.005-.005-.005-.005-.005-.005-.005-.005-.005-.005-.005-.005-.005-.002H1.5v121.446l.788 3.025c.921 2.534 2.74 4.176 4.604 4.648h13.077 1.5v.01l25.283.019.058-.02h.245l103.143.01h13.252 0 0 0 .001 0 0 0 0 0 0 0 .001 0 0 0 0 0 0 .001 0 0 0 0 0 .001 0 0 0 0 .001 0 0 0 0 .001 0 0 0 0 .001 0 0 0 0 0 0 0 .001 0 0 0 0 0 0 .001 0 0 0 0 0 0 0 .001 0 0 0 0 0 0 .001 0 0 0 0 0 0 .001 0 0 0 0 0 .001 0 0 0 0 0 0 .001 0 0 0 0 0 .001 0 0 0 0 0 .001 0 0 0 0 0 .001 0 0 0 0 .001 0 0 0 0 0 .001 0 0 0 0 0 .001 0 0 0 0 .001 0 0 0 0 .001 0 0 0 0 0 .001 0 0 0 0 .001 0 0 0 0 .001 0 0 0 0 .001 0 0 0 0 .001 0 0 0 0 .001 0 0 0 0 .001 0 0 0 0 .001 0 0 0 .001 0 0 0 0 .001 0 0 0 0 .001 0 0 0 0 .001 0 0 0 .001 0 0 0 0 .001 0 0 0 .001 0 0 0 0 .001 0 0 0 .001 0 0 0 0 .001 0 0 0 0 .001 0 0 0 .001 0 0 0 .001 0 0 0 0 .001 0 0 0 .001 0 0 0 0 .001 0 0 0 .001 0 0 0 0 .001 0 0 0 .001 0 0 0 .001 0 0 0 0 .001 0 0 0 .001 0 0 0 0 .001 0 0 0 .001 0 0 0 0 .001 0 0 0 .001 0 0 0 .001 0 0 0 0 .001 0 0 0 .001 0 0 0 0 .001 0 0 0 .001 0 0 0 0 .001 0 0 0 .001 0 0 0 0 .001 0 0 0 .001 0 0 0 0 .001 0 0 0 .001 0 0 0 0 .001 0 0 0 .001 0 0 0 0 .001 0 0 0 0 .001 0 0 0 .001 0 0 0 0 .001 0 0 0 0 .001 0 0 0 0 .001 0 0 0 0 .001 0 0 0 0 .001 0 0 0 0 .001 0 0 0 0 .001 0 0 0 0 .001 0 0 0 0 .001 0 0 0 0 .001 0 0 0 0 .001 0 0 0 0 0 .001 0 0 0 0 .001 0 0 0 0 0 .001 0 0 0 0 0 .001 0 0 0 13.614c2.536-.521 4.896-3.261 5.34-7.192v-19.001-.619l.02-.02V20.916l-.02-4zm0 0h1.5m-1.5 0h1.5m0 0v-1.5 1.5z" stroke="#000" stroke-width="3"/><path d="M176.885 0H7.309C3.422.429.902 3.14 0 6.845v6.007h183.981c-.059-6.241.513-11.438-7.096-12.852z" fill="#000"/><path d="M23.023 4.408c3.548-.917 4.42 4.076 1.338 4.671s-3.907-4.008-1.338-4.671zm-14.628 0c3.596-.741 4.052 4.115 1.134 4.671-3.073.595-3.994-4.086-1.134-4.671zm7.203 0c4.033-.926 4.207 5.051.601 4.71-2.617-.244-2.85-4.193-.601-4.71z" fill="#71d904"/><path d="M90.459 42.355a34.69 34.69 0 0 0 .417-6.923c-.145-3.608-.213-5.412-1.396-6.718-1.483-1.648-3.829-1.745-8.511-1.921a42.88 42.88 0 0 0-5.748.156c-.242-.068-.582-.185-.969-.156-.349.029-.698.107-.979.098-.339-.068-.708-.107-1.095-.107h-.126c-4.488-.068-10.091.439-14.395 0l-.998-.146-3.432.146c-8.453.273-17.779-.185-30.08-.341-4.11-.058-6.408-.049-8.492 1.58-3.209 2.506-3.596 7.031-3.742 9.01-1.474 20.692.533 67.049.397 73.904-.068 3.422.252 6.865-.058 10.278-.029.331-.175 1.95.068 4.056.252 2.184.426 3.676 1.493 4.827 1.124 1.209 2.646 1.404 5.012 1.706.863.108 1.377.108 5.584.039l3.451-.058c43.603-1.092 51.019 0 51.019 0 3.548.517 8.521 1.423 11.129-1.365 1.309-1.405 1.396-3.794 1.58-8.572.233-6.075-.649-9.176.107-16.079.078-.722.194-1.209.194-1.6l-.058-58.448-.126-1.326c0-.039.233-.341.204-.731-.039-.439-.174-.926-.446-1.287v-.02z" fill="#000"/><g fill="#fff"><path d="M24.066 74.738c-.785-3.803.136-8.659 4.227-10.112 2.297-.809 8.531-.653 11.177-.507 3.887.215 6.534 2.506 7.077 6.465.058.448.107 3.744-.019 3.891-.107.127-.281.166-.436.195l-22.015.058-.01.01zm8.579-27.556c8.385-3.364 12.059 8.727 4.75 11.37-7.561 2.73-11.526-8.649-4.75-11.37zm44.408 61.081c.107.068.204 1.199.107 1.307l-43.012-.069c-.368-.702-.3-1.375.62-1.277l42.285.029v.01z"/><path d="M77.14 90.048c.174.127.019 1.043.126 1.316-14.357.029-28.733 0-43.089-.097-.174-.156-.233-1.258-.029-1.326l43.002.107h-.01zm-.145 9.146c.223.166.427 1.502-.271 1.365l-42.75-.39c-.068-1.014-.048-.975.94-1.062l42.091.088h-.01zm2.462-36.625c.107.819.417 1.57-.659 1.463l-21.802-.097c-.32-.117-.31-1.287-.126-1.346l22.587-.02zm-4.546 9.234c.068.059.116 1.326.029 1.346l-18.244-.331c-.068-1.014-.049-.975.94-1.063l17.274.059v-.01zM29.388 89.941c.145.107.242 1.248.019 1.355-.611-.107-4.285.215-4.469.097-.116-.078.029-1.073-.116-1.326l4.576-.117-.01-.01zm.059 9.068c.078.049.174 1.277.019 1.365-.524.059-4.43.205-4.517 0-.078-.185-.107-1.209.019-1.258.63.175 4.294-.224 4.488-.107h-.01zm-.136 9.137c.107.068.204 1.024.31 1.268-.126.204-4.517.243-4.624.019-.165-.341-.048-.839-.078-1.209.601.156 4.207-.195 4.391-.078z"/></g><path d="M95.061 28.702c-.527.135-.827-.64-.424-1.064l5.545-4.473c.454 0 .651.749.3 1.109l-5.413 4.428h-.007zm-1.301-9.073c-.685 1.27-.957 3.608-1.727 4.734-.253.375-1.013.144-1.032-.269-.056-1.049 1.426-3.58 1.576-4.792.31-.529 1.126-.327 1.182.327zm7.402 13.707a.69.69 0 0 1-.342.236c-.221.072-4.238-.709-4.525-.874-.683-.401-.628-1.234.258-1.203.767.021 3.186.524 3.971.761.471.144 1.154.473.646 1.09l-.009-.01zm65.356-2.027c1.274 1.372-1.42 1.524-1.841 1.665-1.421.492-2.305 1.606-4.104 1.653-2.442.059-3.589-1.935-6.304-1.595-1.61.199-2.862 1.771-4.956 1.712-1.895-.047-3.347-1.712-5.231-1.724-2.693-.012-3.746 2.603-7.261 1.536-.894-.27-1.715-1.114-2.546-1.266-3.494-.621-4.736 2.533-8.514 1.337-.831-.258-1.61-.973-2.399-1.231-.589-.188-1.978.105-2.063-.997-.105-1.349 2.189-.739 2.842-.516.726.246 1.631 1.044 2.262 1.173 2.957.645 4.22-1.794 6.977-1.688s3.641 2.498 6.809 1.337c.673-.246 1.326-.868 1.978-1.102 3.578-1.302 4.799 1.583 7.872 1.266 1.747-.188 2.894-1.736 4.977-1.724 2.463 0 3.547 1.911 6.125 1.606 1.252-.152 4.346-2.58 5.388-1.454l-.011.012z" fill="#000"/><path d="M133.531 92.32c-2.495 0-4.34-.296-6.345-1.793-1.756-1.309-2.665-2.797-3.155-3.595-1.916-3.12-1.809-5.585-1.551-11.538l.232-7.692.08-12.551-.018-1.354c-.08-5.182-.125-7.782 1.658-9.763 1.016-1.139 2.353-1.766 5.089-2.421 3.627-.861 6.345-.977 8.734-.977 1.051 0 2.112.027 3.217.054l3.895.063h.125c2.005 0 3.983-.072 6.069-.144l6.675-.152c3.2 0 5.962.152 8.681.484.971.117 2.994.368 4.509 1.865 1.943 1.927 1.961 4.85 1.97 6.598.036 6.464-.178 11.69-.312 14.801l-.071 1.721c-.081 2.322-.054 4.644-.027 6.885.062 5.684.116 11.045-1.595 14.846-.366.807-.981 1.981-2.211 2.869-1.167.852-2.664 1.282-4.456 1.282-.49 0-.9-.027-1.203-.054h-.214l-18.671.152c-2.816.027-5.08.144-7.085.26-1.533.081-2.861.152-4.029.152h.009z" fill="#f2b705"/><path d="M158.237 41.121c3.173 0 5.909.152 8.6.484.9.108 2.772.341 4.118 1.676 1.746 1.73 1.764 4.482 1.773 6.123.036 6.446-.178 11.663-.312 14.774l-.071 1.721c-.08 2.34-.054 4.671-.036 6.921.063 5.603.116 10.901-1.533 14.559-.329.735-.9 1.802-1.987 2.609-1.052.771-2.415 1.157-4.064 1.157-.464 0-.865-.027-1.159-.054h-.053-.205l-18.68.152c-2.834.027-5.107.143-7.112.26-1.524.081-2.843.152-3.993.152-2.745 0-4.305-.43-5.945-1.659-1.657-1.237-2.522-2.654-2.985-3.407-1.8-2.95-1.702-5.352-1.453-11.152l.232-7.71.08-12.569-.018-1.354c-.089-5.343-.062-7.584 1.489-9.306.926-1.031 2.13-1.596 4.75-2.214 3.556-.843 6.23-.959 8.582-.959 1.043 0 2.086.027 3.2.054l3.912.063h.134c2.014 0 4.002-.072 6.096-.143 2.148-.081 4.376-.152 6.649-.152m-.009-1.372c-4.465 0-8.627.296-12.745.305h-.134c-2.655 0-4.892-.117-7.112-.117-2.745 0-5.463.179-8.894.995-2.718.645-4.242 1.3-5.428 2.618-2.121 2.358-1.898 5.415-1.809 11.583 0 0 .036 2.896-.08 12.533-.143 11.816-1.319 15.133 1.417 19.588.526.852 1.497 2.421 3.333 3.783 2.059 1.533 3.993 1.928 6.747 1.928s6.087-.368 11.113-.412l18.672-.152h.107a14.8 14.8 0 0 0 1.301.063c1.346 0 3.217-.224 4.848-1.416 1.275-.932 1.979-2.152 2.424-3.138 2.451-5.451 1.4-13.68 1.685-21.982.089-2.537.419-8.642.383-16.549-.009-1.91-.071-4.994-2.166-7.073-1.64-1.623-3.779-1.919-4.901-2.053-3.075-.377-5.981-.493-8.761-.493v-.009z" fill="#000"/><path d="M147.399 55.653c2.028 0 3.672-1.654 3.672-3.693s-1.644-3.694-3.672-3.694-3.671 1.654-3.671 3.694 1.643 3.694 3.671 3.694z" fill="#969696"/><path d="M161.284 55.653c2.028 0 3.672-1.654 3.672-3.693s-1.644-3.694-3.672-3.694-3.672 1.654-3.672 3.694 1.644 3.694 3.672 3.694z" fill="#092f9c"/><use href="#D" fill="#23bba4"/><path d="M161.284 69.611c2.028 0 3.672-1.654 3.672-3.694s-1.644-3.693-3.672-3.693-3.672 1.654-3.672 3.693 1.644 3.694 3.672 3.694z" fill="#087c0a"/><path d="M133.522 83.579c2.028 0 3.672-1.654 3.672-3.694s-1.644-3.693-3.672-3.693-3.671 1.654-3.671 3.694 1.644 3.694 3.671 3.694z" fill="#b42c0e"/><use href="#E" fill="#f78e7d"/><path d="M161.284 83.579c2.028 0 3.672-1.654 3.672-3.694s-1.644-3.693-3.672-3.693-3.672 1.654-3.672 3.694 1.644 3.694 3.672 3.694z" fill="#f9ce3f"/><path d="M133.522 69.611c2.028 0 3.672-1.654 3.672-3.693s-1.644-3.694-3.672-3.694-3.671 1.654-3.671 3.694 1.644 3.694 3.671 3.694z" fill="#3398da"/><path d="M161.284 84.843a4.95 4.95 0 1 1 0-9.915c2.718 0 4.928 2.223 4.928 4.958s-2.21 4.958-4.928 4.958zm0-9.261c-2.362 0-4.278 1.928-4.278 4.303s1.916 4.303 4.278 4.303 4.278-1.927 4.278-4.303-1.916-4.303-4.278-4.303z" fill="#000"/><path d="M133.522 55.653c2.028 0 3.672-1.654 3.672-3.694s-1.644-3.694-3.672-3.694-3.671 1.654-3.671 3.694 1.644 3.694 3.671 3.694z" fill="#fff"/><path d="M133.523 55.671a3.71 3.71 0 1 1 0-7.423c2.032 0 3.689 1.667 3.689 3.711s-1.657 3.712-3.689 3.712zm0-7.1c-1.854 0-3.36 1.515-3.36 3.38s1.506 3.38 3.36 3.38 3.36-1.515 3.36-3.38-1.507-3.38-3.36-3.38z" fill="#9fb9dc"/><g fill="#000"><path d="M132.507 53.806l1.613-3.693h.428l-1.613 3.694h-.428zm-31.33 10.425c.064.092-.119 1.858-.095 2.254l-2.266-.1c.181-.641-.272-1.775.256-2.269.346-.318 1.989-.06 2.105.115z"/><use href="#F"/><path d="M113.201 67.819l.436-2.214-2.201-.421-.436 2.214 2.201.421zm-4.082-.78l.436-2.214-2.201-.421-.436 2.214 2.201.421zm7.662-.833c-.395 1.48.123 2.689-1.691 1.977.395-1.48-.123-2.689 1.691-1.977z"/></g><g clip-path="url(#B)" fill="#000"><path d="M120.086 99.084c15.365-1.369 26.028 14.847 18.379 28.376-6.65 11.757-23.475 12.874-31.619 2.074-8.9-11.798-1.461-29.148 13.24-30.45zm.714 1.243c-13.694.974-21.116 16.308-13.383 27.746 6.859 10.153 21.955 10.111 28.982.177 8.598-12.144-.806-28.964-15.599-27.923zm13.181 10.867c.949-.076 1.889 3.913 1.998 4.719 1.453 10.363-8.387 18.744-18.395 15.544-3.014-.965-6.902-3.879-8.153-6.844-.361-.856.227-1.469.882-1.058.126.084 1.276 2.1 1.604 2.503 8.773 10.799 26.22 1.83 22.392-11.682-.236-.839-1.696-3.073-.32-3.182h-.008zm-18.009 1.797c3.795-.79 4.315 4.803.831 5.122-3.174.294-3.778-4.509-.831-5.122zm.176 1.243c-1.419.428-.924 2.855.638 2.611s1.293-3.191-.638-2.611zm8.556-.454c-2.368 2.368-6.079-1.108-3.694-3.603s6.087 1.21 3.694 3.603zm-2.133-3.124c-2.233.454-.335 4.065 1.302 2.024.806-1.008-.101-2.267-1.302-2.024z"/></g><g clip-path="url(#C)"><path d="M165.313 124l8.68 1.154-9.454 3.017-.808 7.835-4.05-6.136-6.681 1.515 3.471-5.166-3.08-6.523 6.713 2.39L167.208 112l-1.895 12zm-1.263.926l1.263-8.305-4.844 6.751c-.58.184-4.005-1.527-4.871-1.673.182 1.103 2.155 3.613 2.149 4.539-.007.589-2.273 3.125-2.064 3.302l4.558-1.065 2.702 4.298.671-5.35 5.489-1.73c-.039-.235-.677-.248-.892-.279l-4.161-.488z" fill="#000"/></g></g><defs><clipPath id="A"><path fill="#fff" d="M0 0h184v145H0z"/></clipPath><clipPath id="B"><path fill="#fff" transform="translate(103 99)" d="M0 0h38v38H0z"/></clipPath><clipPath id="C"><path fill="#fff" transform="translate(153 112)" d="M0 0h21v24H0z"/></clipPath><path id="D" d="M147.426 69.611c2.028 0 3.672-1.654 3.672-3.694s-1.644-3.693-3.672-3.693-3.672 1.654-3.672 3.693 1.644 3.694 3.672 3.694z"/><path id="E" d="M147.408 83.579c2.028 0 3.672-1.654 3.672-3.694s-1.644-3.693-3.672-3.693-3.672 1.654-3.672 3.694 1.644 3.694 3.672 3.694z"/><path id="F" d="M104.965 66.571l.436-2.214-2.201-.421-.436 2.214 2.201.421z"/></defs></svg>