<svg xmlns="http://www.w3.org/2000/svg" width="162" height="107" fill="none"><g clip-path="url(#A)"><path d="M26.119 90.318c.748-1.053.745-1.286 1.788-2.291l.369.691c8.174 4.223 16.078 8.983 24.227 13.247.418.218 1.728 1.009 2.017 1.084.649.172.927-.3.454-.793-.15-.155-.854-.521-1.116-.676-7.847-4.634-16.556-9.232-24.648-13.474-.361-.188-.709-.423-1.14-.406 1.163-1.666 2.33-3.281 3.576-4.909l17.594-6.75c.433-.167.91-.478 1.259-.614l23.293-8.867c.267-.123.32-.395.438-.624v-.164c.09-.172.101-.36.163-.491 1.716-3.591 3.296-8.233 5.172-11.566.457-.811 1.118-1.507 1.894-2.021l44.208-17.021c3.237-.362 5.894 3.08 4.641 6.144-5.764 11.913-10.372 24.837-16.279 36.631-.594 1.184-1.149 2.215-2.413 2.808l-54.544 26.743H54.98c-9.147-5.411-18.926-10.282-27.935-15.896-.34-.211-.739-.411-.926-.786v.003zm34.147 12.097c.166.118.7.003.786-.247l21.307-46.802c.041-.603-.447-.755-.822-.321L60.132 101.88c-.013.101.098.507.134.534v.001zm43.163-37.075c-3.984-4.018-10.751 5.458-6.27 8.685 4.071 2.932 9.771-5.156 6.27-8.685z" fill="#000"/><path d="M25.468 29.281c5.193-.288 9.065.835 12.124 5.227.112.16.379.154.391.172.032.056-.046.359.042.523 1.337 2.442 1.905 5.327 2.72 7.987-6.191 3.69-12.337 10.472-16.55 16.313-.534.739-3.773 5.401-3.765 5.864.008.478.713.796 1.056.406 4.014-6.695 9.119-13.168 15.118-18.161 11.181-9.305 23.778-8.631 35.886-1.281.373.226 2.305 1.34 2.226 1.684-1.912 1.356-5.247.814-7.312 0-1.538-.606-3.215-2.082-4.596-2.572-.9-.319-1.476.015-.859.865 1.407.839 5.488 2.876 6.013 4.418.301.885-.104 1.964-1.038 2.211-1.097.29-.849-.387-1.477-1.151-.739-.898-4.033-3.614-5.114-3.532-.439.034-.545.662-.374.96.07.123 2.071 1.114 2.454 1.373 1.285.867 4.311 3.446 1.739 4.632-1.386.639-1.433-.329-2.361-1.06-.693-.546-2.667-1.735-3.483-1.898-.722-.144-1.142.326-.794.888.177.287 4.115 1.545 4.598 2.978.953 2.831-3.296 3.754-5.192 2.283-.457-.355-1.196-1.802-.488-1.795.56.005 1.739 2.242 2.45 1.648.693-.578-.371-1.41-.822-1.818-1.429-1.299-4.489-2.963-6.256-1.545-9.132 11.265-17.749 22.939-26.578 34.443C14.154 98.017 7.5 86.058 5.687 76.12c-1.596-8.742-2.122-18.046-3.861-26.714-.044-.218-.181-1.057-.273-1.119-.153-.102-.573.021-.789-.021-.07-1.83-.662-3.564-.651-5.401a6.89 6.89 0 0 1 .01-2.541c.203-1.043.599-1.746 1.101-2.622.207-.362.978-1.667 2.393-3.106a16.71 16.71 0 0 1 2.671-2.205c2.279-1.052 4.207-1.545 5.527-1.8 3.76-.729 5.719-.141 11.459-.983 1.446-.211 1.422-.283 2.195-.326l-.002-.002zm.814-10.965c1.087 7.861-9.191 12.098-13.528 5.355-1.694-2.632-1.186-4.993-1.123-7.953-1.66-.432-3.389-.608-4.295-2.305-1.689-3.168 1.072-6.55 4.466-5.746C13.486-2.085 27.154-.478 26.558 9.43c.573 1.073 2.917 3.137 3.225 4.131.781 2.513-1.734 2.642-3.504 2.464v1.147 1.145h.003z" fill="#f2b705"/><g fill="#000"><path d="M47.9 40.244c7.814-1.741 16.082.195 23.026 3.898.911.486 4.609 2.5 4.856 3.292s.06 1.255-.587 1.717c-1.681 1.197-4.668.906-6.573.424.072.386.447.683.534 1.097.282 1.361-.392 2.794-1.705 3.281-.332.123-1.084.178-1.155.228s-.233.776-.376 1.014c-.729 1.215-2.47 1.314-2.551 1.441-.072.111-.037.641-.135.925-.151.437-.42 1.065-.703 1.42-2.06 2.593-8.952 1.047-7.151-3.024-2.288-.862-2.473-.577-3.897 1.065-1.674 1.93-3.16 4.149-4.718 6.133L31.649 82.793a141.27 141.27 0 0 0-3.576 4.909c-.065.093-.102.27-.163.328-1.041 1.004-1.04 1.238-1.788 2.292-.887 1.246-5.195 2.947-6.767 3.088-9.301.832-13.445-9.605-14.804-17.127C2.931 67.31 2.2 58.139.597 49.156c-.135-.282.172-.755.168-.891.216.043.638-.08.789.021.093.062.229.899.273 1.119 1.738 8.668 2.265 17.971 3.861 26.714 1.814 9.938 8.467 21.899 19.54 13.222l26.578-34.442c1.768-1.419 4.829.246 6.256 1.545.451.41 1.515 1.24.822 1.818-.711.595-1.891-1.643-2.45-1.648-.706-.007.031 1.441.488 1.795 1.895 1.473 6.147.549 5.192-2.283-.483-1.433-4.42-2.691-4.598-2.978-.348-.563.072-1.034.794-.888.817.164 2.79 1.353 3.483 1.898.929.73.975 1.7 2.361 1.06 2.574-1.188-.452-3.766-1.739-4.632-.382-.259-2.383-1.25-2.453-1.373-.171-.298-.065-.925.374-.96 1.082-.084 4.377 2.634 5.114 3.532.628.763.381 1.441 1.477 1.151.934-.247 1.339-1.328 1.038-2.211-.525-1.54-4.606-3.577-6.013-4.418-.617-.85-.041-1.183.859-.865 1.381.49 3.059 1.964 4.596 2.572 2.065.814 5.398 1.358 7.311 0 .08-.346-1.853-1.458-2.226-1.684-12.106-7.348-24.704-8.025-35.886 1.281-6 4.993-11.104 11.466-15.118 18.161-.343.39-1.046.07-1.056-.406s3.231-5.125 3.765-5.864c4.212-5.84 10.357-12.623 16.549-16.313 2.152-1.284 4.704-2.4 7.152-2.945v.002zm35.434-23.236c3.114-1.083 6.783-1.833 10.079-1.556 1.741 2.839 3.412 5.748 5.605 8.267.605.696 1.725 1.514 2.198 2.205.096.139.227.162.16.411-5.284.976-10.138 3.548-14.516 6.577l-5.963 4.716c-1.874-3.324-3.446-6.865-4.839-10.429-.294-.753-1.899-4.785-1.835-5.194.026-.167.078-.216.174-.331.337-.403 2.987-1.89 3.626-2.238 1.661-.901 3.529-1.807 5.31-2.426v-.002zm.324 1.309c-.127.046-.4-.013-.644.08-2.587.986-5.206 2.354-7.466 3.956 1.471 4.637 3.547 9.042 5.512 13.474.19.028.332-.08.485-.164 1.059-.578 2.72-2.252 3.849-3.079 4.163-3.047 8.836-5.653 13.867-6.904-2.533-2.749-4.585-5.874-6.5-9.081-2.79-.249-5.803.439-8.452 1.314-.299.098-.525.36-.651.406v-.002zm70.364-9.644L162 25.026c-6.568-.432-12.348.903-17.766 4.613-.319.22-1.66 1.454-1.897 1.279l-4.643-10.801c-.173-.789.888-1.895 1.394-2.531 3.581-4.495 9.267-7.966 14.934-8.912zm6.19 15.206L153.28 9.987c-5.748 1.232-11.015 4.914-14.335 9.759l3.961 9.371c5.054-3.604 11.054-5.584 17.306-5.238zm-54.45-11.292c-.067-.247.067-.272.16-.409.964-1.417 3.218-3.623 4.469-4.991l5.118-5.484c.257-.267 1.634-1.74 1.852-1.702 5.382 5.024 9.373 11.373 12.757 17.886l-11.586 6.973c-3.529-4.729-7.424-9.589-12.77-12.272zm22.918 5.073c-2.441-4.724-5.449-9.628-8.944-13.658-.272-.314-2.066-2.318-2.222-2.359-.187-.049-.331 0-.462.136l-9.495 10.247c-.059.221.125.272.262.373.732.542 1.566 1.001 2.315 1.597 3.356 2.672 6.142 5.941 8.709 9.371l9.838-5.708h-.001zM26.599 19.879c.952-.118.919-.487 1.305.73.006.128-1.093.375-1.305.414-4.214.793-8.564-1.853-9.433-6.129.013-.084.869-.269.986-.185.101.07.787 1.784 1.066 2.21 1.69 2.577 4.463 3.323 7.38 2.962l.002-.002zm74.124-12.035h-8.126v1.145h8.126V7.844zm39.011 20.618h-7.964v.981h7.964v-.981zm-30.395-10.635H104.3v1.145h5.039v-1.145z"/><use href="#B"/><path d="M88.372 7.843V8.99h-1.79c-.241-1.532.687-1.114 1.79-1.147zm42.097 20.619c.465 1.671-2.263 1.654-1.79 0h1.79z"/><use href="#C"/><path d="M134.694 23.062h-1.627v1.147h1.627v-1.147zM103 17.989h-1.627v.983H103v-.983z"/></g><path d="M50.5 75.427c-.35.136-.826.445-1.259.614l-17.594 6.75 15.116-19.636 3.739 12.274-.002-.002z" fill="#f2b705"/><path d="M60.266 102.415a1.54 1.54 0 0 1-.133-.534l21.404-46.834c.374-.434.862-.282.822.321l-21.307 46.801c-.086.251-.618.364-.786.248v-.002zM27.907 88.029c.059-.057.098-.234.163-.328.431-.016.781.218 1.14.406 8.093 4.242 16.802 8.84 24.649 13.474.262.156.966.521 1.116.677.474.493.195.965-.454.793-.29-.077-1.601-.867-2.017-1.085-8.148-4.263-16.053-9.023-24.227-13.246l-.369-.691zM103.43 65.34c3.501 3.53-2.2 11.617-6.271 8.685-4.481-3.227 2.286-12.703 6.271-8.685zm-.648.652c-.141-.144-.68-.468-.872-.513-3.744-.847-6.968 5.707-4.263 7.728 3.199 2.39 7.807-4.501 5.137-7.216h-.002zm-28.552-.055s-.083-.005 0-.164v.164z" fill="#fff"/><path d="M27.172 7.155c1.48-.568.4 3.138-.511 1.894-.316-.429.103-1.736.511-1.894zm-3.969-.947c1.56-.85.778 2.739-.294 1.794-.358-.314.01-1.64.294-1.794z" fill="#000"/><path d="M92.761 16.598c-2.79-.249-5.803.439-8.452 1.314-.299.098-.526.36-.651.406s-.4-.013-.644.08c-2.587.986-5.206 2.354-7.466 3.956 1.471 4.637 3.547 9.042 5.512 13.474.19.028.332-.08.485-.164 1.059-.578 2.72-2.254 3.849-3.079 4.163-3.047 8.836-5.653 13.867-6.904-2.533-2.749-4.585-5.874-6.5-9.081v-.002zm-3.173 10.557l-3.914-7.196c-.304-.462.911-.752 1.056-.647l3.892 7.31c.111.544-.613.953-1.035.534l.002-.002zm3.819-1.317c-.036.051-1.023.693-1.046.326-.979-1.528-1.999-3.037-2.88-4.629-.218-.396-1.414-2.496-1.259-2.714.371-.044.758-.536 1.043-.18.05 1.132 4.381 6.858 4.144 7.197h-.002zm-.076-2.942c-.286-.259-2.315-3.664-2.449-4.087-.199-.626.319-.739.896-.814l2.584 4.362c.163.444-.651.88-1.03.541l-.002-.002zm66.881.983c-6.252-.346-12.253 1.635-17.306 5.238l-3.962-9.371c3.321-4.845 8.587-8.528 14.336-9.759l6.932 13.892zm-7.816-11.438c-.311-.095-1.14.108-1.103.527l2.958 5.651c.34-.239.934-.183.73-.673l-2.587-5.505h.002zm-4.868 1.953c-.213-.156-.851.328-1.131.326l3.757 8.159.942-.161c.08-.401-.101-.765-.233-1.127-.725-1.98-2.119-4.296-3.032-6.274-.098-.21-.264-.896-.303-.925v.002zm-2.287 1.487c-.129-.093-.89.084-.941.161-.333.493 2.405 5.273 2.6 6.192.604-.007 1.022-.139.898-.811-.271-1.481-2.141-3.939-2.556-5.54l-.001-.002zm-16.561 1.778l-9.838 5.708c-2.567-3.43-5.351-6.699-8.709-9.371-.749-.596-1.583-1.055-2.315-1.597-.139-.103-.323-.152-.262-.373l9.495-10.247c.131-.136.275-.185.462-.136.156.041 1.95 2.046 2.222 2.359 3.495 4.028 6.503 8.932 8.944 13.658h.001zM118.393 6.552l-6.544 6.039c-.211.257.412.844.636.803l6.699-6.043c.177-.357-.449-.888-.789-.799h-.002zm-4.074.486c-.377.067-3.661 3.849-4.328 4.324l.729.734 4.232-4.092c.283-.318-.356-1.016-.633-.966zm6.537 2.421c-.133-1.016-.501-1.109-1.262-.536a69.79 69.79 0 0 0-5.464 4.644c-.434.414-.88.609-.475 1.138s.571.264 1.033-.087c2.122-1.612 3.944-3.666 6.17-5.16h-.002zm-.005 2.5c-.197-.116-.506.054-.681.164l-4.748 3.731c-.416.493-.024 1.235.801.803.707-.372 3.854-2.87 4.493-3.492.129-.126.448-.377.469-.516.013-.082-.301-.67-.334-.688v-.002z" fill="#fff"/><path d="M102.782 65.992c2.67 2.714-1.936 9.607-5.136 7.216-2.704-2.021.519-8.575 4.262-7.728.192.044.731.367.872.513h.002zM86.73 19.311l3.892 7.31c.111.544-.613.953-1.035.534l-3.914-7.196c-.304-.462.911-.752 1.056-.647l.002-.002zm6.677 6.527c-.036.051-1.023.693-1.046.326l-2.88-4.629c-.218-.396-1.414-2.496-1.259-2.714.371-.044.758-.536 1.043-.18.05 1.132 4.381 6.858 4.144 7.197h-.002zm-1.63-7.843l2.584 4.362c.163.444-.651.88-1.03.541-.286-.259-2.315-3.664-2.449-4.087-.198-.626.319-.739.896-.814l-.002-.002zm55.751-3.602c.039.028.207.714.303.925l3.032 6.274c.132.36.313.726.233 1.127l-.942.16-3.757-8.159c.282.002.918-.482 1.131-.326v-.002zm-2.288 1.488c.415 1.602 2.285 4.059 2.556 5.54.124.671-.294.806-.898.811-.195-.919-2.932-5.699-2.6-6.192.052-.077.814-.252.941-.161l.001.002zm7.156-3.44l2.587 5.505c.203.49-.391.434-.731.673l-2.958-5.651c-.037-.421.793-.622 1.103-.527h-.001zm-34.004-5.889c.34-.09.967.442.789.799l-6.698 6.043c-.225.039-.848-.546-.636-.803l6.543-6.039h.002zm2.464 2.908c-2.224 1.494-4.048 3.548-6.17 5.16-.462.35-.616.631-1.033.087s.041-.722.475-1.138c1.52-1.45 3.788-3.384 5.464-4.644.761-.572 1.129-.48 1.262.536h.002zm-.005 2.499c.032.02.346.606.333.688-.021.139-.34.39-.468.516-.64.622-3.786 3.12-4.494 3.492-.823.433-1.217-.31-.8-.803l4.747-3.731c.176-.108.483-.28.682-.164v.002zm-6.532-4.92c.277-.049.916.649.633.966l-4.232 4.092-.729-.734c.667-.475 3.949-4.257 4.328-4.324z" fill="#000"/></g><defs><path id="B" d="M91.297 7.843v1.147h-1.79c-.241-1.532.687-1.114 1.79-1.147z"/><path id="C" d="M131.77 23.062h-1.627v1.147h1.627v-1.147z"/><clipPath id="A"><path fill="#fff" d="M0 0h162v107H0z"/></clipPath></defs></svg>