<svg xmlns="http://www.w3.org/2000/svg" width="94" height="166" fill="none"><g clip-path="url(#A)"><g fill="#000"><path d="M73.108 155.046c7.164-6.858 11.037-14.416 8.651-16.881s-10.127 1.095-17.291 7.953-11.037 14.415-8.651 16.88 10.127-1.095 17.291-7.952zm6.959-148.58c2.008.147 2.932.433 3.541 1.087.715.767.807 2.089.96 5.265a30.67 30.67 0 0 1-.312 6.104 1.56 1.56 0 0 0 .308 1.158.67.67 0 0 1 .088.24 1.59 1.59 0 0 0-.163.777c-.002.022-.003.045.002.068l.035.348.083.825c.398 13.23.442 26.751.481 39.834l.059 14.138a8.61 8.61 0 0 1-.06.514c-.032.231-.074.498-.104.804-.4 3.902-.249 6.59-.107 9.186.098 1.751.199 3.571.134 5.799-.113 3.916-.18 6.069-1.009 6.963-1.017 1.091-2.802 1.509-5.621 1.302-1.008-.074-2.003-.215-2.961-.345l-.509-.067c-.045-.004-.277-.036-.818-.075-2.421-.178-12.983-.667-47.158.458-.19.009-1.197.033-3.211.081l-4.645.05c-.12-.009-.241-.018-.36-.034-2.151-.255-3.123-.394-3.783-1.082-.639-.663-.787-1.636-1.036-3.602-.143-1.146-.175-2.358-.088-3.435.164-2.033.102-4.067.034-6.027-.042-1.176-.081-2.397-.063-3.576.021-1.833-.145-6.484-.368-12.92-.547-15.632-1.467-41.741-.611-55.383.091-1.452.336-5.305 2.847-7.279 1.507-1.175 3.227-1.222 6.99-1.202l10.786.122c6.517.094 12.15.177 17.426-.03l3.088-.157.786.11.068.005.579.042c2.496.183 5.339.076 8.09-.023l4.93-.12.053.004.083.006c.106-.007.212-.007.317.001.143.01.285.028.427.054.053.004.105.015.157.019l.053.004c.309.015.599-.031.851-.065.092-.016.183-.024.282-.032.06.004.156.034.253.056l.096.03a1.27 1.27 0 0 0 .291.051 1.57 1.57 0 0 0 .265-.003 39.23 39.23 0 0 1 5.184-.184l3.376.142m.095-1.504c-.97-.071-2.101-.109-3.436-.147a40.6 40.6 0 0 0-5.381.192c-.17-.05-.384-.118-.64-.137-.09-.007-.18-.013-.272.003-.328.036-.65.103-.914.091-.186-.036-.381-.058-.584-.073-.143-.01-.286-.021-.437-.017-.038-.003-.075-.006-.113-.001-4.004-.03-8.975.44-12.915.151l-.541-.04-.935-.129-3.21.163c-7.907.315-16.636-.032-28.144-.087-3.839-.018-5.987.005-7.928 1.524-2.983 2.337-3.306 6.531-3.425 8.364-1.208 19.149 1.054 62.009.983 68.341-.036 3.17.291 6.344.036 9.505-.023.314-.147 1.801.095 3.751.26 2.019.431 3.4 1.443 4.451 1.06 1.108 2.484 1.28 4.695 1.54.143.01.278.028.428.039.669.049 1.577.033 4.788-.048l3.226-.079c33.894-1.116 44.413-.653 47-.463a11.62 11.62 0 0 1 .721.068c1.085.147 2.319.335 3.567.427 2.564.188 5.21-.024 6.835-1.777 1.215-1.309 1.278-3.514 1.406-7.933.163-5.626-.686-8.485-.036-14.873.072-.671.173-1.123.169-1.476l-.549-54.063-.129-1.227c.003-.037.22-.315.186-.678-.038-.409-.171-.862-.427-1.189.231-1.502.462-3.718.334-6.403-.164-3.335-.245-5.01-1.359-6.204-.973-1.056-2.331-1.404-4.542-1.566l.007.001zM23.913 49.613c-.77-3.515.051-8.01 3.87-9.377 2.143-.768 7.971-.671 10.45-.557 3.639.169 6.131 2.269 6.671 5.925.061.41.132 3.46.016 3.602-.1.12-.261.161-.407.188l-20.592.219-.008-.001zm7.793-25.56c7.814-3.171 11.358 7.982 4.539 10.474-7.046 2.581-10.857-7.915-4.539-10.474zm43.915 13.88c.111.752.401 1.443-.606 1.361l-20.393.076c-.302-.105-.306-1.188-.135-1.25l21.127-.187.008.001zm-4.174 8.572c.057.049.114 1.226.045 1.244L54.42 47.58c-.067-.937-.055-.906.866-.989l16.16-.078.001-.008zm3.637 15.543c1.454 1.407-1.625 1.55-2.105 1.695-1.631.489-2.644 1.633-4.703 1.67-2.793.051-4.103-1.985-7.203-1.656-1.844.196-3.276 1.79-5.676 1.734-2.166-.054-3.824-1.762-5.985-1.785-3.082-.023-4.291 2.647-8.308 1.548-1.015-.278-1.957-1.143-2.914-1.296-3.989-.646-5.427 2.564-9.736 1.338-.948-.273-1.839-.999-2.742-1.261-.666-.192-2.26.097-2.359-1.022-.118-1.377 2.512-.748 3.251-.521.828.256 1.864 1.069 2.58 1.212 3.376.661 4.828-1.819 7.986-1.692 3 .122 4.166 2.568 7.782 1.39.767-.252 1.523-.881 2.259-1.12 4.096-1.324 5.489 1.635 9.004 1.322 1.994-.185 3.319-1.756 5.691-1.74 2.811.018 4.051 1.966 6.999 1.663 1.432-.143 4.97-2.62 6.163-1.473l.015-.006zM24.155 79.303c1.746-.308 4.164 1.764 6.119 1.802 2.167.039 3.939-1.869 6.324-1.912 2.415-.048 4.071 1.802 6.154 1.842s3.94-1.876 6.324-1.912 4.242 1.837 6.374 1.836 3.86-1.92 6.309-1.921c2.268-.007 4.114 1.828 6.169 1.851s3.882-1.813 5.922-1.896c1.456-.059 1.766 1.483.569 1.831-.456.132-1.02 0-1.552.142-1.626.43-2.532 1.544-4.519 1.631-2.586.111-3.923-1.551-6.137-1.66-3.457-.178-4.582 2.596-8.775 1.424-1.245-.347-2.14-1.232-3.491-1.354-2.921-.267-4.164 1.732-6.977 1.751-3.229.019-4.769-2.695-8.361-1.327-1.679.636-2.2 1.44-4.336 1.404s-2.993-1.137-4.753-1.574c-.772-.192-1.63.166-2.149-.594-.436-.648.136-1.23.794-1.348l-.006-.016zm-.65-7.009c-.63-.588-.05-1.379.885-1.446 2.218-.146 3.688 1.661 5.939 1.683s3.523-1.553 5.691-1.74c2.502-.207 2.883.482 4.875 1.245 3.677 1.405 4.574-1.04 7.603-1.322 2.839-.265 3.331.861 5.51 1.456 3.223.883 4.242-1.253 6.983-1.525 3.685-.361 5.193 2.478 8.835 1.362.874-.267 5.198-2.851 5.402-.679.105 1.143-1.633.925-2.529 1.198-.789.243-1.522.858-2.281 1.103-4.323 1.427-5.536-1.406-8.785-1.321-1.848.045-3.225 1.515-5.063 1.726-3.439.402-4.712-1.721-7.415-1.656-2.56.068-3.669 2.107-7.181 1.744-1.838-.187-3.236-1.643-5.086-1.666-3.292-.046-4.349 2.823-8.768 1.432-.761-.244-1.496-.831-2.295-1.078-.584-.186-2.031-.239-2.328-.517h.008z"/><path d="M56.245 115.366l21.049 25.721c-.169.138-.613.631-.826.849l-23.375-28.327.044-.598c2.696-2.434 5.247-4.344 5.277-8.356-.652-4.514-1.57-9.002-2.459-13.48-.638-1.189-2.929-.162-3.68.497-3.145 2.784.568 8.537-2.099 12.341-.802 1.144-1.802 2.101-2.759.512l-7.067 23.704 1.695 1.522 19.487 28.26c-.214.233-.353.899-.837 1.006-6.98-9.337-13.088-19.543-19.987-28.965-.227-.107-.647-.559-.882-.238-.699 1.701-.952 4.118-1.72 5.723-.465.981-2.681.893-3.596.691-1.108-.247-3.296-1.542-3.103-2.829.327-2.186 1.707-4.829 2.15-7.052.047-.229.132-.456.066-.686-5.234-4.293-7.018-6.665-7.618-8.062-.148-.349-.722-1.797-2.033-3.299a12.26 12.26 0 0 0-1.425-1.382 68.01 68.01 0 0 1-1.824-1.42c-1.442-1.158-1.285-1.131-2.697-2.287-1.469-1.206-1.985-1.589-2.59-2.513-1.06-1.627-.518-2.519-.037-7.325.208-2.112.267-4.769.642-6.802.719-3.826 5.724-1.054 6.34 1.788.227 1.032-.015 1.442-.072 2.318l-.379 5.58 3.376 2.623c-.272-3.711-1.047-6.955 1.46-10.124.416-.526 1.254-1.118 1.526-1.527.331-.487.503-1.399.82-2.007 1.82-3.475 6.089-4.485 9.072-6.605 2.249-1.594 4.287-4.241 6.583-5.862 1.127-.729 2.523-.176 3.017 1.018l3.717-5.125 1.261-1.832c.058-.063.165-.183.352-.267.196-.091.369-.086.46-.087a.63.63 0 0 0 .281.186c.459.545.102 8.202.407 9.495l-2.435 8.264c1.871-.983 3.963-1.98 5.305.336.649 6.4 4.964 14.565.142 20.12-.372.431-2.634 2.318-2.685 2.495-.076.31.333.513.333.513l.328.377c.049.056.181.209.454.507l.568.605-.023.006zm-3.364-33.392l-.185-6.855-3.738 5.206-.127.592 4.05 1.056zm-18.705 42.419l8.298-27.606c.077-1.054-2.449-3.721-2.253-4.533l6.04-8.142c.51-1.075.859-2.643.345-3.771-.352-.763-.727-.805-1.386-.38-1.54 1.007-4.372 3.754-5.803 5.123-1 .957-4.978 4.897-5.291 5.874-.205.631-.253 1.282-.18 1.941l2.44 8.682c.056.778-.705.955-1.203.423l-2.499-9.009c-.041-1.198.094-2.309.736-3.337.146-.237 1.222-1.301 1.103-1.43-2.092.696-3.991 2.369-4.748 4.448-.434 1.178-.481 1.513-.206 2.714.656 2.905 1.831 5.848 2.509 8.769.064.884-.95.998-1.2.175l-2.654-9.268c-.886.642-1.652 2.119-1.873 3.17-.372 1.77-.065 5.626.307 7.458.144.717 1.302 2.546.422 2.903-.818.331-1.152-1.611-1.83-2.255-.721-.684-4.421-3-4.64-3.422-.337-.664.105-1.436.167-2.078.135-1.433.61-5.33.287-6.489-.366-1.297-3.351-3.584-3.808-1.67-.034 3.764-1.222 7.902-1.169 11.619.018 1.4.605 2.368 1.611 3.291 1.968 1.813 5.935 3.901 7.525 5.731.676.779 1.582 3.266 2.292 4.408a22.89 22.89 0 0 0 3.562 4.314c.29.269 2.93 2.522 3.107 2.363l-.006-.016zm10.927-36.449c-.568.74-3.418 3.929-3.517 4.561-.03.201 1.211 1.938 1.413 2.276l2.104-6.837zm4.519 9.3l-1.617 5.452c-.066.484.294.841.595 1.164 1.567-1.171 1.438-3.225 1.34-4.969-.025-.378-.036-.852-.086-1.202-.019-.152-.019-.46-.232-.438v-.008z"/></g><path d="M76.461 141.935c-.27 1.725-1.397 7.604-6.634 12.016-3.151 2.663-6.452 3.662-8.304 4.067l-19.487-28.26-1.695-1.522 7.067-23.704c.957 1.588 1.957.632 2.759-.512 2.668-3.804-1.053-9.557 2.099-12.341.752-.667 3.042-1.694 3.68-.497.889 4.478 1.807 8.966 2.459 13.479-.03 4.013-2.581 5.923-5.277 8.357l-.044.598 23.375 28.327v-.008zm-42.285-17.542c-.178.16-2.818-2.086-3.107-2.363a22.88 22.88 0 0 1-3.562-4.313c-.718-1.135-1.624-3.63-2.292-4.408-1.589-1.831-5.556-3.918-7.524-5.732-1.006-.923-1.592-1.898-1.611-3.29-.053-3.71 1.135-7.856 1.169-11.62.458-1.913 3.442.373 3.808 1.67.331 1.159-.152 5.056-.287 6.49-.062.642-.505 1.421-.167 2.077.218.43 3.919 2.739 4.64 3.423.678.651 1.012 2.585 1.83 2.254.88-.356-.271-2.185-.422-2.903-.373-1.824-.679-5.688-.307-7.457.221-1.051.987-2.529 1.873-3.17l2.654 9.269c.257.823 1.271.709 1.2-.175-.678-2.922-1.853-5.865-2.509-8.77-.274-1.208-.22-1.535.207-2.714.757-2.08 2.656-3.752 4.748-4.448.119.129-.957 1.193-1.103 1.43-.642 1.028-.777 2.138-.736 3.337l2.499 9.009c.498.533 1.252.355 1.203-.423l-2.44-8.681c-.073-.659-.025-1.31.18-1.941.313-.977 4.291-4.918 5.291-5.874 1.431-1.369 4.255-4.116 5.803-5.123.651-.426 1.034-.39 1.386.38.514 1.128.165 2.696-.345 3.771l-6.04 8.142c-.196.813 2.33 3.479 2.253 4.533l-8.298 27.606.006.015z" fill="#f2b705"/><path d="M52.881 81.974l-4.05-1.056.134-.591 3.731-5.207.185 6.855z" fill="#fff"/></g><defs><clipPath id="A"><path fill="#fff" transform="rotate(4.194 6.194 169.152)" d="M0 0h80.841v160.015H0z"/></clipPath></defs></svg>