<svg xmlns="http://www.w3.org/2000/svg" width="119" height="51" fill="none"><g clip-path="url(#A)"><path d="M39.225 7.679a16.89 16.89 0 0 0 .21-3.327c-.065-1.744-.113-2.608-.679-3.231-.728-.8-1.876-.832-4.173-.928-1.181-.048-2.151 0-2.814.08-.113-.032-.275-.096-.469-.08-.178 0-.34.048-.485.048-.162-.032-.34-.048-.534-.048h-.065c-2.2-.032-4.949.208-7.052 0l-.485-.064-1.682.08C16.838.304 12.277.08 6.26 0 4.238-.016 3.122 0 2.103.768.518 1.968.34 4.143.259 5.103-.469 15.07.518 37.386.453 40.682c-.032 1.648.129 3.311-.032 4.943 0 .16-.081.944.032 1.952.129 1.056.21 1.776.728 2.32.55.576 1.294.672 2.459.816.421.048.679.048 2.734.016l1.682-.032c21.351-.528 24.991 0 24.991 0 1.731.256 4.173.688 5.451-.656.647-.672.679-1.824.776-4.127.113-2.928-.324-4.415.048-7.743.032-.352.097-.576.097-.768l-.032-28.14c-.016-.208-.032-.432-.065-.64 0-.016.113-.16.097-.352-.016-.208-.081-.448-.227-.624l.032.032z" fill="#0903a6"/><path d="M6.697 23.26c-.388-1.84.065-4.175 2.07-4.863 1.132-.384 4.173-.32 5.467-.24 1.909.112 3.203 1.2 3.461 3.12.032.208.049 1.808 0 1.872s-.129.08-.21.096l-10.789.032v-.016zm4.205-13.262c4.108-1.616 5.904 4.207 2.329 5.471s-5.645-4.159-2.329-5.471zm21.755 28.476l.048 1.568-21.06-.032c-.178-.336-.146-1.6.307-1.552h20.704v.016zm.033-8.911c.081.064 0 1.568.065 1.696-7.036 0-14.072 0-21.109-.048-.081-.08-.113-1.664-.016-1.696l21.06.048zm-.065 4.416c.113.08.21 1.776-.129 1.712l-20.931-.192c-.032-.496-.032-1.536.453-1.568l20.607.048zm1.197-17.374c.048.4.21 1.552-.324 1.504l-10.676-.048c-.162-.048-.162-1.424-.065-1.456h11.064zm-2.216 4.256v1.632l-8.945-.16c-.032-.496-.032-1.456.453-1.504l8.46.032h.032zm-22.289 8.67s.113 1.648 0 1.696c-.291-.048-2.103.096-2.184.048-.065-.032 0-1.552-.065-1.68l2.232-.064h.016zm.016 4.368v1.696c-.259.032-2.167.096-2.216 0-.032-.096-.049-1.632 0-1.648.307.08 2.103-.112 2.2-.048h.016zm-.064 4.559l.146 1.504c-.065.096-2.216.112-2.265 0-.081-.16-.016-1.296-.032-1.472.291.08 2.054-.096 2.151-.032z" fill="#fff"/><path d="M51.518 13.822V3.12h-4.141V.816H58.15v2.288h-4.141v10.702h-2.491v.016zm13.732.272c-1.31 0-2.442-.288-3.397-.848s-1.682-1.36-2.2-2.384c-.518-1.008-.776-2.192-.776-3.551s.259-2.528.776-3.551 1.245-1.808 2.2-2.368S63.94.544 65.25.544s2.442.288 3.397.848 1.682 1.36 2.2 2.368.776 2.208.776 3.551-.259 2.528-.776 3.551a5.73 5.73 0 0 1-2.2 2.384c-.954.56-2.087.848-3.397.848zm0-2.32c.825 0 1.52-.16 2.087-.528.55-.368.971-.896 1.245-1.568s.421-1.456.421-2.368-.145-1.68-.421-2.352a3.34 3.34 0 0 0-1.245-1.552c-.55-.368-1.246-.56-2.087-.576s-1.52.16-2.087.528c-.55.368-.971.896-1.245 1.568s-.421 1.456-.421 2.368.146 1.68.421 2.352a3.34 3.34 0 0 0 1.245 1.552c.549.368 1.245.56 2.087.576zm8.201 2.048V.816h5.548.518a3.24 3.24 0 0 1 .582.064c.793.112 1.423.368 1.925.768A3.49 3.49 0 0 1 83.14 3.12c.243.592.356 1.248.356 1.984s-.113 1.392-.356 1.984a3.49 3.49 0 0 1-1.116 1.472c-.502.384-1.148.656-1.925.768l-.582.048-.518.016h-3.073v4.399h-2.475v.032zm2.475-6.703h2.96l.421-.016c.146-.016.291-.032.421-.08.34-.096.599-.24.776-.448.178-.224.307-.448.372-.72a3.08 3.08 0 0 0 .097-.752 3.18 3.18 0 0 0-.097-.752 1.75 1.75 0 0 0-.372-.704c-.178-.224-.437-.368-.776-.464a3.24 3.24 0 0 0-.421-.08h-.421-2.96v4.015zM57.697 26.092c.55-.768.825-1.712.825-2.8 0-.736-.113-1.392-.356-1.984s-.599-1.088-1.116-1.472c-.501-.384-1.148-.656-1.925-.768-.178-.032-.356-.048-.582-.064h-.518-5.548v12.99h2.475v-4.399h2.766l2.151 4.399h2.814l-2.394-4.863c.566-.256 1.051-.576 1.391-1.04h.016zm-6.745-4.799h2.96.42a1.23 1.23 0 0 1 .421.08c.34.096.599.24.776.464a1.75 1.75 0 0 1 .372.704 3.08 3.08 0 0 1 .097.752 3.18 3.18 0 0 1-.097.752 1.92 1.92 0 0 1-.372.72c-.178.208-.437.368-.776.448a3.26 3.26 0 0 1-.421.08c-.145.016-.291.016-.42.016h-2.96v-4.015zm17.598 6.511h1.197c.097-1.184-.016-2.208-.372-3.072s-.89-1.552-1.601-2.032c-.728-.48-1.601-.72-2.636-.72-.971 0-1.828.224-2.588.656a4.42 4.42 0 0 0-1.763 1.84c-.421.784-.647 1.712-.647 2.784 0 .976.226 1.84.647 2.592.437.752 1.035 1.344 1.812 1.776s1.666.64 2.669.64c.954 0 1.828-.24 2.62-.736s1.391-1.184 1.763-2.08l-2.475-.704c-.178.4-.453.704-.793.912s-.76.32-1.245.32c-.776 0-1.359-.24-1.763-.752-.291-.352-.437-.848-.518-1.424h5.677.016zm-3.3-3.695c.728 0 1.245.224 1.569.656.21.272.323.72.388 1.216h-4.286c.097-.448.243-.832.469-1.12.404-.512 1.019-.768 1.86-.768v.016zm13.232 2.735c-.453-.256-1.051-.48-1.795-.672l-1.715-.464c-.372-.112-.615-.24-.744-.352a.58.58 0 0 1-.178-.416c0-.288.146-.496.421-.656.275-.144.647-.208 1.1-.176.469.032.841.16 1.116.368s.437.496.469.864l2.539-.448a2.9 2.9 0 0 0-.679-1.536c-.372-.432-.857-.768-1.44-1.008s-1.278-.352-2.054-.352-1.488.128-2.07.368a3.03 3.03 0 0 0-1.359 1.072c-.324.464-.485 1.008-.485 1.632 0 .496.113.928.323 1.28s.566.656 1.035.912c.485.256 1.116.48 1.925.688l1.569.448c.34.112.55.224.647.352.097.112.146.272.146.464a.81.81 0 0 1-.372.72c-.259.176-.582.256-1.035.256-.55 0-1.003-.128-1.359-.384s-.582-.624-.696-1.072l-2.539.384c.162 1.008.631 1.808 1.391 2.352.76.56 1.763.832 3.009.832s2.297-.288 3.025-.864 1.1-1.36 1.1-2.352c0-.512-.097-.944-.307-1.296-.21-.368-.534-.672-.987-.928v-.016zm9.851.352c0 .592-.065 1.088-.21 1.456s-.307.656-.534.832-.437.32-.679.384-.469.096-.679.096c-.534 0-.938-.112-1.229-.352a2.03 2.03 0 0 1-.631-.88c-.13-.352-.21-.704-.226-1.04l-.032-.848v-4.607H81.59v5.471l.032.768c.016.352.097.752.21 1.184a3.97 3.97 0 0 0 .582 1.248c.275.4.647.72 1.132.976s1.116.384 1.892.384c.971 0 1.763-.208 2.41-.624.307-.192.566-.432.793-.688v1.008h2.184v-9.742h-2.507v4.943l.016.032zm15.996-5.183c-.663 0-1.261.144-1.795.432-.518.272-.938.672-1.245 1.168-.227-.432-.518-.832-.939-1.104-.501-.32-1.132-.48-1.908-.48-.679 0-1.278.144-1.828.448-.437.24-.76.592-1.051.976v-1.184h-2.184v9.743h2.507v-5.903c0-.56.162-1.024.469-1.36.307-.352.728-.528 1.246-.528s.971.176 1.278.544.453.864.453 1.504v5.759h2.491v-5.903c0-.368.065-.704.211-.992s.339-.512.598-.672.55-.24.906-.24c.534 0 .97.176 1.278.544.307.352.469.864.469 1.504v5.759h2.475v-6.399c0-1.072-.292-1.936-.858-2.592-.582-.656-1.423-.992-2.555-.992l-.017-.032zm11.291 7.646c-.34.208-.76.32-1.245.32-.777 0-1.359-.24-1.763-.752-.292-.352-.437-.848-.518-1.424h6.874c.097-1.184-.016-2.208-.372-3.072s-.889-1.552-1.601-2.032c-.728-.48-1.601-.72-2.637-.72-.97 0-1.827.224-2.588.656a4.42 4.42 0 0 0-1.763 1.84c-.42.784-.647 1.712-.647 2.784 0 .976.227 1.84.647 2.592.437.752 1.036 1.344 1.812 1.776s1.666.64 2.669.64c.954 0 1.828-.24 2.62-.736a4.38 4.38 0 0 0 1.763-2.08l-2.474-.704c-.178.4-.453.704-.793.912h.016zm-1.148-5.551c.728 0 1.245.224 1.569.656.21.272.323.72.388 1.216h-4.287c.098-.448.243-.832.47-1.12.404-.512 1.019-.768 1.86-.768v.016zM54.122 50.44c-1.31 0-2.442-.288-3.397-.848s-1.682-1.36-2.2-2.384c-.518-1.008-.776-2.192-.776-3.551s.259-2.528.776-3.552 1.245-1.808 2.2-2.368 2.087-.848 3.397-.848c1.504 0 2.782.368 3.801 1.12s1.747 1.744 2.168 3.008l-2.507.688c-.243-.784-.647-1.408-1.229-1.84s-1.326-.656-2.232-.656c-.825 0-1.537.176-2.087.544s-.971.88-1.262 1.552-.421 1.456-.421 2.352.146 1.696.421 2.352c.275.672.695 1.184 1.262 1.552.55.368 1.245.544 2.087.544.906 0 1.65-.224 2.232-.656s.987-1.056 1.229-1.84l2.507.688c-.421 1.264-1.148 2.272-2.168 3.008s-2.297 1.104-3.801 1.104v.032zm10.433-.256l-4.011-12.99H63.1l3.284 10.686 3.348-10.686h2.556l-4.012 12.99h-3.704-.016z" fill="#000"/></g><defs><clipPath id="A"><path fill="#fff" d="M0 0h119v51H0z"/></clipPath></defs></svg>