<svg width="200" height="200" viewBox="0 0 200 200" fill="none" xmlns="http://www.w3.org/2000/svg"><path d="M30.254 58.926c.176-.371.41-.703.781-1.367-.254-1.699 1.601-1.602 2.793-2.305l-1.309.098c0-.156-.039-.312-.059-.469l2.598-.234 1.25-.527c1.055.273 2.09 1.465 3.379-.332l-.254 1.699 3.066-.352c3.77 4.473 2.07 13.496-4.785 14.141 1.192 2.188 4.063 2.441 6.27 1.797 3.496-1.016 5.313-3.633 6.23-6.973 1.133-4.141.606-7.891-2.637-10.977-.41-.391-.937-.684-1.426-1.016.274-.488.547-.977 1.231-.547.078.117.137.254.215.391.058-.078.117-.137.176-.215l-.41-.176c.137-.293.195-.664.41-.859l6.777-5.645c.371-.293 1.016-.273 1.309-.332.137-.547.098-1.113.371-1.367 1.504-1.484 3.086-2.891 4.629-4.336l1.484 6.895 2.5 13.75c.215 1.309-.215 2.891.371 3.965 1.074 1.953.879 4.043 1.348 6.055.703 2.949 1.309 5.898 2.109 8.809 1.035 3.711 2.773 4.492 5.918 4.473 2.656 0 5.332-.254 8.008-.254l12.578.215c3.398.019 6.777-.137 10.176-.215 1.132-.02 2.304-.098 3.437 0 2.578.215 4.434-3.184 4.004-5.352-.781-3.906-1.231-7.871-1.934-11.777-.547-3.027-1.308-5.996-1.894-9.023l-2.871-15.352-1.192-6.387c-.312-1.816-2.129-3.77-4.472-3.691-6.231.215-12.442.293-18.672.293s-8.145-.195-12.227-.293c.352-.703.176-1.914 1.582-1.601.117.019.293-.195.41-.332l2.324-2.461c2.793 0 5.605-.234 8.379.02 2.695.254 5.332-.566 8.125.039 1.543.332 3.516.098 5.293-.039 1.934-.137 3.887-.117 5.84-.02 3.145.156 5.782 1.367 7.051 4.434.625 1.465.82 3.086 1.172 4.492l-1.426 1.172c1.739-.098 2.051.605 2.051 1.797s.078 2.949.352 4.375c.351 1.699 1.074 3.301 1.386 5l3.028 16.914 2.226 12.481c.86 4.688-.859 7.559-5.293 9.141-3.32 1.191-6.797 1.992-10.176 3.047l-13.242 4.238c-3.633 1.133-3.574 1.113-3.574 4.981 0 .859.254.957.938.957l12.754-.059c.508-.019 1.191-.586 1.445-1.074.586-1.172.976-2.441 1.445-3.672.41-1.113 1.055-1.719 2.402-1.523 1.231.176 2.481.019 3.731.039l13.633.254c3.301.02 6.621.391 9.726-1.426 3.867-2.266 7.383-4.941 10.274-8.359.937-1.094 1.621-2.441 2.265-3.75.313-.645.235-1.387-.859-1.387-3.145 0-6.27-.039-9.395 0-1.191.019-2.363.313-3.535.234-1.914-.117-2.402-1.094-1.562-2.773 2.285-4.629 4.433-9.355 6.972-13.828.801-1.406 1.211-2.93 1.934-4.336 2.207-4.316 3.906-8.887 5.645-13.437.507-1.328 1.074-1.914 2.519-1.816 2.871.176 5.723.273 8.594.313l15.293.156c.762 0 1.738.137 1.523 1.289-.215 1.074-.508 2.148-.957 3.145l-4.004 8.613c-.175.371-.039 1.113.254 1.426 1.348 1.445 2.129 3.125 2.676 5.02.879 2.988-.527 7.988-3.75 9.746-1.797.996-1.758 1.055-1.016 3.066.118.293.137.644.118.586l-1.387 1.621 1.367.293c-.781 4.629-4.727 9.883-12.715 8.809-.097.176-.215.332-.312.508-3.594 6.66-8.946 11.367-15.821 14.433-.214.098-.41.352-.507.586-.684 1.719-1.387 3.438-1.993 5.195-.605 1.719-1.211 3.438-1.621 5.196-.312 1.347-.332 2.754-.488 4.121-.039.254-.039.488-.059.742-.175 2.656-.429 5.312-.507 7.969-.039 1.172-.469 1.621-1.563 1.582l-7.949-.235c-1.231-.058-1.699.332-1.699 1.7l-.176 20.722c-.02 4.824-3.203 6.875-7.266 6.914h-8.613c-.098 0-.195.039-.293.059h.02l-5.645 3.008c-1.875.937-3.809 1.797-5.723 2.675v-5.742H78.691c-4.023 0-5.996-.039-9.004 0-1.504 0-3.106 2.461-2.129 3.418 1.25 1.231-.254 1.192-.41 1.719.176.742 1.426 1.445.078 2.227 0 0 .176.234.176.351l.039 8.262c0 .879.137 1.64 1.094 2.051.84.371 1.68.82 2.461 1.308 3.145 1.973 6.406 5.41 5.313 10.508h-24.98c-.02-.234 0-.605-.137-.879-.059-.117-.469-.058-.723-.078-.078 1.758-1.309.879-2.129 1.074-.195-3.281-.254-3.32 1.152-5.664 1.328-2.187 2.91-4.121 5.41-5.156.625-.254 1.367-1.094 1.426-1.738.195-1.778.039-3.575.039-5.371l-.059-10.899c0-.371-.41-1.035-.664-1.055l-9.824-.293c-1.113-.058-2.207-.41-3.301-.625l1.758-1.425-1.094-.625v-.469c3.027 1.523 5.254.176 7.52-1.563l-.43 1.036c.293.332.781.644.801.976.059.938.43 1.367 1.289.977.449-.196.742-.782 1.191-1.289.371-.098 1.055-.157 1.621-.45 1.699-.918 3.359-1.933 5.059-2.871.293-.175.723-.078 1.133-.117-.215-1.211.742-1.387 1.504-1.308 1.152.117 1.641-.254 2.324-1.211.664-.957 2.012-1.465 3.105-2.09.566-.313 1.25-.469 1.875-.703.098.136.254.293.273.449.117 1.308.176 2.617.332 3.926.117.976 2.324 2.871 3.359 2.851l6.836-.215c1.68-.039 3.398-.039 5.078.078 1.055.079 1.523-.156 1.504-1.328l-.059-12.402c0-4.141-.059-1.25.195-1.738.156-.313.82-.508 1.25-.508s.898.391.918.664c.176 1.523.41 3.066.215 4.551-.215 1.64.82 1.797 1.836 1.894 1.465.117 2.969-.039 4.453.078.352.02.684.586 1.016.918l.039-.039c-.117.02-.312.039-.312.078-.234 2.032-1.836 1.622-3.066 1.641-4.062.059-4.18.137-4.062 4.16.039 1.817.332 2.129 2.148 1.992 2.969-.234 5.938.254 8.945-.058 3.418-.352 6.895-.059 10.352-.098 1.66-.019 3.359-1.68 3.359-3.301l-.019-20.039c0-.273-.098-.566-.157-.898-2.597 0-5.117-.02-7.656 0-.312 0-.723.254-.937.508-3.262 3.711-7.227 4.355-11.778 2.929-.625-.214-1.582-.117-2.109.235-3.379 2.285-7.09 3.886-10.996 4.824-3.203.762-6.465 1.602-9.883.84-1.269-.293-.625 1.133-.898 1.758l-2.5-3.106c0-.039-.039-.097 0-.137.098-.293.195-.8.293-.8 1.797 0 .899-2.91 2.891-2.657.137 1.036.82 1.465 1.758 1.231 1.113-.274.488-1.094.488-1.777 0-1.036.293-2.071.488-3.243h-2.031l-.312-2.539-2.09-.234c0-.098-.039-.176-.059-.274a31.97 31.97 0 0 0 1.192-.507c4.375.215 8.691.058 12.734-1.895.566-.273 1.133-.566 1.719-.781 1.836-.723 3.223-1.504 3.672-3.887.683-3.574 3.672-5.195 6.855-6.426.625-.254 1.309-.859 1.543-1.464.566-1.504.898-3.086 1.289-4.649.371-1.504.078-1.68-1.465-1.699l-15.664-.254c-1.758 0-3.496-.039-5.234 0-2.149.059-3.828.684-5.039 2.793-.547.977-.645 1.973-1.055 2.91l-1.523 1.914.098-1.797-3.574-2.129c-.039.039-.234.254-.508.528l-2.773-4.59-2.52 1.25.391-1.621-1.992.82c.02-.058.059-.137.078-.215-1.367-.195-2.773-.703-4.082-.508-1.289.196-2.773.528-3.477 2.129-.137.313-1.484.196-2.246.118-.859-.098-1.777-.782-2.324.429l.82.977c-.391.039-.801 0-1.152.117-.547.176-1.172.371-1.562.742-1.035.977-1.113 3.672-.273 4.785-.273.586-.586 1.133-.762 1.739-.078.273.078.742.293.937.703.645.703.82-.293 1.465l4.141 2.363-.43.664-1.465 1.25-2.441 2.344.586.352c-.43.371-.937.781-1.426 1.191a42.78 42.78 0 0 0-1.699 1.133c.371-6.524.703-13.067 2.031-19.492.625-2.989 1.738-5.547 6.25-5.606l12.793-.273h8.984v-4.258h-7.891-11.816c-1.328 0-2.734-.234-3.984.098-4.023 1.113-6.953-1.269-7.656-5.332l-2.754-15.84c-.273-1.621-.742-3.008-2.305-4.102-1.172-.82-2.168-2.266-2.598-3.633-.664-2.051-.762-4.277-1.094-6.445.195-.449.352-.898.605-1.348l-.019.02zm105.84 10.371c.117.137.254.273.371.41l-.996.684c1.074 1.465-.977 2.363-.879 3.965h5.215l11.953-.059c.605-.019 1.211-.43 1.816-.664-.312-.488-.527-1.113-.957-1.445-1.797-1.387-1.914-3.535-2.207-5.41-.82-5.215 2.031-9.512 7.051-11.113.723-.234 1.523-.547 2.246-.469 1.348.137 1.836-.547 2.344-1.641.898-1.934 1.972-3.77 2.89-5.508-1.836-.215-3.671-.566-5.527-.605-2.559-.059-5.117.156-7.676.195-1.386.02-2.773-.176-4.14-.098-.43.02-.996.508-1.192.938-.781 1.758-1.347 3.594-2.129 5.332-1.582 3.516-3.281 6.992-4.922 10.488-.214.488-.214 1.055-.468 1.504-.723 1.27-1.524 2.5-2.305 3.731-.176-.078-.332-.156-.488-.234zm-7.676 29.004c-7.07 0-14.16 0-21.23-.039-1.387 0-2.129.488-2.52 1.738l-1.484 4.629c6.582-1.074 10.703 1.777 11.699 8.008.683 4.238-1.27 7.773-5.879 9.765.684.079.996.137 1.289.137l14.102-.117c.41 0 1.171-.742 1.152-1.074-.098-1.231-.078-2.422.449-3.574.078-.176-.156-.489-.312-.899l.781.176c-.508-4.473.996-8.555 2.48-12.617.743-2.012 1.641-3.946 2.559-6.153h-3.086v.019zm27.031-33.496c.098 2.324 2.031 4.356 4.336 4.336 2.344-.019 4.375-2.266 4.336-4.57 0-2.09-2.168-4.18-4.199-4.121-2.539.078-4.57 2.031-4.473 4.355zm-49.687 53.125c2.773-.078 4.121-2.031 4.14-4.18.039-2.519-1.933-4.414-4.492-4.394-2.422.019-3.887 1.66-3.867 4.375 0 2.168 2.031 4.257 4.219 4.199zm-12.637 2.793c-.098 2.461 2.07 5.156 4.883 5.371 2.031.156 4.062-1.524 4.043-3.164-3.887-.391-4.61-1.192-5.41-6.016-2.051 0-3.437 1.582-3.516 3.809zm61.758-42.012c-1.621.293-3.321.058-5.176.058.234 1.66 1.563 2.188 2.617 2.637 2.188.898 4.668-.059 5.996-2.051.86-1.27.547-3.203-.781-4.707-.977 1.328-.605 3.691-2.656 4.063zM63.77 182.149c2.5.058 5 0 7.539 0-2.598-4.004-6.66-4.434-10.176-.684 1.074.273 1.836.625 2.637.664v.02zm16.152-52.832c.02.156.02.292.039.449.215 2.011 1.055 2.363 2.754 1.23l-.859-4.512c-2.031.333-2.383.84-1.934 2.833zm-2.559-2.344c-.644.566-1.289.898-1.582 1.426-.586 1.093-.352 3.593.371 3.867.567.234 1.328 0 2.031-.039l-.82-5.254zm7.07 2.226c.703 1.075 1.328 1.114 2.676.118l-1.797-3.985c-1.543.977-1.875 2.324-.879 3.867zm-24.453 45.059l4.023-.859v-1.622c-4.062-.136-4.258.137-4.023 2.481zm4.18-6.445h-3.906v1.933h3.809l.098-1.933zm81.426-77.91l-2.695-2.246c-1.368 2.07-1.25 2.461 1.347 4.043l1.348-1.797zm-3.184 3.34l-2.363-2.637a43.62 43.62 0 0 1-1.016 1.445l1.973 3.418 1.406-2.227zm-78.046 70.606c-.879 0-1.856-.196-2.637.078-.586.195-.957 1.035-1.602 1.797 4.297.508 4.316.41 4.238-1.875zm81.153-79.375l-1.055 1.836 2.656 1.914 1.114-1.973-2.715-1.777zm-63.692 12.91l-.254-2.129-4.18 1.895c.039.078.059.156.078.234h4.356zm54.278.098a5.47 5.47 0 0 0 .39.313l2.286-1.387-1.563-3.203c-1.191 1.465 1.367 3.379-1.113 4.277zm-72.012 62.656c-1.836-.215-2.207 0-2.969 1.562h2.969v-1.562zm24.336-35.586c-.078-.137-.41-.195-.625-.176-.117 0-.274.254-.312.41-.215.86 1.269 2.91 2.617 3.184l-1.68-3.418z" fill="#020203"/><path d="M41.308 124.297c.059 0 .098-.039.156-.059-.059-.058-.117-.097-.176-.156l1.426-1.191c-.078-.059-.391-.235-.586-.352l2.441-2.344.137 1.426 1.992-1.777-.664-.899.43-.664-4.141-2.363c1.016-.645 1.016-.82.293-1.465-.215-.195-.371-.664-.293-.937.156-.586.488-1.153.762-1.739-.84-1.113-.762-3.808.273-4.785.41-.371 1.016-.566 1.563-.742.352-.117.762-.078 1.152-.117l-.82-.977c.566-1.211 1.465-.527 2.324-.429.762.078 2.109.195 2.246-.118.703-1.621 2.188-1.953 3.476-2.129 1.309-.175 2.715.313 4.082.508-.02.059-.059.137-.078.215l1.992-.82-.391 1.621 2.52-1.25 2.773 4.59.508-.528 3.574 2.129-.098 1.797 1.523-1.914c.644.645.352 1.348.313 2.129-.078 1.504.313 3.047.254 4.551-.02.566-.762 1.094-1.152 1.601.977.489 1.387 2.051 1.133 4.024-.117.976.059 1.992.098 3.008l-1.191.507c0 .098.039.176.059.274l2.09.234.313 2.539-.703 3.789c-1.992-.254-1.094 2.657-2.891 2.657s-.195.527-.293.8c-.02.039 0 .098 0 .137l2.5 3.106-.176 6.191c-.625.215-1.309.371-1.875.703-1.094.625-2.441 1.133-3.105 2.09-.684.957-1.172 1.328-2.324 1.211-.762-.078-1.699.098-1.504 1.309-.391.039-.84-.04-1.133.117l-5.059 2.871c-.547.293-1.25.351-1.621.449-.469.508-.742 1.074-1.191 1.289-.859.391-1.231-.039-1.289-.977 0-.332-.508-.644-.801-.976l.43-1.035c-2.266 1.719-4.512 3.086-7.52 1.562v.469l1.094.625-1.758 1.426c-1.641-1.328-3.203-2.5-3.105-5.117.254-6.485.195-12.969.254-19.453l2.129-.879c-.039-.157-.098-.332-.137-.489a24.65 24.65 0 0 0-1.289-.078c.215-.84.723-1.816-.684-2.129 0-.722.039-1.465.059-2.187a84.92 84.92 0 0 0 1.699-1.153c0 .059 0 .137-.059.274h.039zm4.707-3.106l.957.157c.215 1.836.625 3.593 2.363 5-.664-5.02 1.133-8.047 4.922-8.399-.312-1.328-1.426-1.347-2.266-1.289-2.656.176-3.984 1.348-4.844 4.121l-1.133.41zm23.594 6.094c-1.426-.605-2.207-.332-2.793 1.172-.156.41-.234.84-.352 1.27-.605 2.128-.332 2.48 1.816 2.324l1.328-4.766zm-7.187-2.441c-1.875-.528-4.355 1.074-4.238 3.047.039.605 1.035 1.152 1.426 1.543l2.813-4.59zm3.438 1.035c-.957.332-1.797.351-2.129.781-1.172 1.524-2.559 3.145-.273 4.805l2.402-5.586zm-10.293-1.543c-.762 1.055-.586 1.875.391 2.539l3.203-3.691c-1.289-.899-2.363-.586-3.594 1.152zm.625-3.203c-.859-.488-1.816-.762-2.676-.059-.918.742-1.035 1.778-.508 2.949l3.184-2.89zm-4.219 32.539c.137-.039.274-.098.41-.137a24.96 24.96 0 0 0-.332-1.133l-.527.235c.156.332.293.683.449 1.035zm-.176-1.836c.117.039.215.098.332.156l.527-.859c-.156-.078-.293-.156-.449-.235l-.41.938zm-8.672-37.813h.215v-.898h-.137a11.34 11.34 0 0 1-.078.879v.019zM27.969 59.16c-.566-.742-1.133-.957-2.051-1.152-.937-.195-2.168-1.172-2.441-2.051-.527-1.699-.469-3.555-.645-5.352.313.117.645.391.918.313.293-.078.508-.449.762-.703l-.859-.547c2.129-.527 1.289-2.09 1.289-3.437l1.094.254 1.23 5.586c.195 1.055 1.777 2.832 3.066 3.027 1.367.215.508-1.23 1.055-1.68.195-.137.391-.352.469-.566.195-.527.547-1.113.469-1.602l-1.289-6.484c-.234-1.621-.957-3.418.762-4.785l.273-1.289c.332-.098.723-.098 1.016-.273l2.578-1.699c.156-.117.098-.508.137-.762.117-.078.215-.195.351-.234l10.703-3.926c.918-.332 1.289-.762.957-1.875-.43-1.406-.508-2.891-.723-4.336.371-.195 1.074-.371 1.074-.566.059-1.992 1.27-1.094 2.188-.957l.215 6.367 3.887-1.582c1.895-.723 3.77-1.914 5.723-2.031 4.512-.293 9.082-.078 13.613-.059l-2.324 2.461c-.117.137-.293.352-.41.332-1.406-.312-1.25.899-1.582 1.602-1.875.293-3.613 0-4.922-1.113-.527.469-.859.977-1.309 1.113-2.344.703-3.027 1.66-2.754 4.063.137 1.269.215 2.559.332 3.828l-4.629 4.336c-.273.273-.234.82-.371 1.367-.273.059-.937 0-1.309.332-2.305 1.836-4.551 3.73-6.777 5.645-.215.176-.273.566-.41.859-.684-.449-.957 0-1.23.527-.625-.273-1.25-.527-1.836-.859-.254-.137-.391-.43-.762-.898-2.207.762-4.707 1.523-7.129 2.5-.605.234-.918 1.191-1.367 1.816l-2.598.234c0 .156.039.313.059.469l1.309-.098c-1.191.684-3.047.605-2.793 2.305-.371.664-.606.996-.781 1.367-.215.43-.391.879-.566 1.328-.566-.371-1.289-.625-1.68-1.113h.019z" fill="#186efe"/><path d="M93.516 174.239l.117-1.211 1.406 1.328.566-.859 3.027-.313c.723-.781 1.367-1.621 2.187-2.285.293-.254.938-.059 1.426-.059l.02 2.774c.039.351.351.84.683.996 1.153.566 2.422.879 3.496 1.543 3.457 2.129 4.981 5.879 4.18 10.371l-1.895-.723c-.839.196-1.562.449-2.285.508-1.113.078-2.246-.019-3.359 0-4.434.137-8.848-.234-13.281 0-2.168.117-4.336 0-6.68 0 .156-1.777-.176-3.613.508-4.941 1.68-3.262 4.004-6.094 7.852-7.09.098-.039.137-.313.215-.488a44.51 44.51 0 0 1 1.816.429v.02zm12.441 8.066c-.41-1.894-2.559-3.437-4.844-3.457-2.48 0-5.117 1.621-5.547 3.457h10.391z" fill="#030303"/><path d="M22.558 49.16l-3.965-22.969c-.137-.742-.371-1.484-.742-2.129-.352-.605-1.074-.976-1.426-1.582-1.055-1.738-.586-3.73 1.074-4.98.938-.703 3.477-.449 4.453.449 1.445 1.328 1.602 3.105.469 4.805-.254.371-.547.918-.469 1.309l3.164 16.602.918 5.801-1.094-.254c0 1.348.82 2.91-1.289 3.438l.859.547c-.254.254-.469.625-.762.703-.254.059-.605-.195-.918-.312-.117-.469-.234-.957-.274-1.426z" fill="#040404"/><path d="M91.074 172.52l.02-10.411 5.723-2.675 5.644-3.028-.254 14.414c-.488 0-1.133-.175-1.426.059-.8.664-1.465 1.504-2.187 2.285-.254-.293-.469-.801-.781-.859-.723-.117-1.465-.039-2.246-.039v1.211l-.566.859-1.406-1.328-.117 1.211-1.777-.41c-.215-.43-.605-.86-.625-1.289zm4.141-3.008c.039 1.152.918.918 1.621.898 1.543-.039 1.777-.39 1.641-2.578-2.637-.176-3.32.195-3.262 1.68zm3.281-4.453c-.078-.411-.469-.762-.723-1.133-.645.644-2.246 0-2.168 1.445.02.41.84.801 1.309 1.191 1.172-.175 1.797-.468 1.582-1.503z" fill="#0711db"/><path d="M46.563 24.199l.918-.879-1.211-.566-.332 1.641-1.016-1.875.195-.234.723.273-.41-1.465-.703.41c0-1.211 1.445-3.125 2.5-3.437 1.348-.41 3.242.371 3.965 1.621.703 1.23.352 3.086-.859 4.375-.918-.137-2.148-1.035-2.187.957 0 .195-.703.371-1.074.566l-.508-1.387z" fill="#050506"/><path d="M39.609 127.363c1.406.293.898 1.289.684 2.129l1.289.078.137.489-2.129.879.02-3.575z" fill="#070613"/><path d="M35.781 35.938c-.039.273 0 .645-.137.762l-2.578 1.699c-.293.176-.664.195-1.016.273.684-1.66 2.246-2.129 3.73-2.734z" fill="#0d0d0d"/><path d="M44.922 22.52l-.234-.41c.137.078.293.137.43.195l-.195.215z" fill="#050506"/><path d="M102.441 156.426c.098 0 .196-.039.293-.059l-.293.059z" fill="#0711db"/><path d="M81.719 31.445c6.23 0 12.461-.059 18.672-.293 2.343-.078 4.14 1.875 4.472 3.691l1.192 6.387 2.871 15.352 1.894 9.024c.703 3.926 1.153 7.891 1.934 11.777.43 2.168-1.445 5.566-4.004 5.352-1.133-.098-2.285-.02-3.437 0l-10.176.215-12.578-.215c-2.656 0-5.332.234-8.008.254-3.144.02-4.883-.742-5.918-4.473-.82-2.91-1.406-5.879-2.109-8.809-.488-2.012-.293-4.101-1.348-6.055-.586-1.074-.156-2.656-.371-3.965l-2.5-13.75c-.449-2.305-.996-4.59-1.484-6.895l-.332-3.828c-.254-2.402.41-3.359 2.754-4.062.43-.137.762-.645 1.309-1.113 1.309 1.094 3.047 1.406 4.922 1.113l12.246.293zm-5.527 27.91c1.387 1.211 2.91 2.012 4.707 1.445 1.855-.586 2.656-2.285 2.891-3.965.469-3.242-.293-6.211-2.969-8.477-2.852-2.402-6.758-.84-7.168 2.656-.059.527-.215 1.055-.312 1.523.41 2.559.84 5 2.852 6.816zm20.742.352c2.266 2.07 6.211 1.387 6.953-2.422.664-3.379-.039-6.504-2.735-9.024-1.406-1.309-3.066-1.543-4.648-1.094-1.445.41-2.187 1.855-2.441 3.398l-.371 2.09c.293 2.793 1.113 5.156 3.242 7.051zm-2.246 11.27c2.109-.098 4.16-2.344 3.789-4.414-.117-.586-.918-1.191-1.543-1.465-.508-.215-1.309-.176-1.816.078-1.269.605-2.402 1.582-3.984 1.152-.352-.098-.801-.02-1.172.078-1.406.41-2.52-.176-3.516-1.055-.918-.801-2.441-.781-3.105.059-.742.957-.508 2.656.137 3.496 1.563 2.051 3.73 2.129 5.957 2.109h1.953v-.02c1.113 0 2.207.039 3.301 0v-.019zm-23.516 65.351c3.418.762 6.68-.078 9.883-.839 3.906-.957 7.617-2.559 10.996-4.825.527-.351 1.484-.429 2.109-.234 4.551 1.426 8.516.781 11.778-2.93.214-.254.625-.508.937-.508 2.52-.039 5.059 0 7.656 0 .059.332.157.625.157.899l.019 20.039c0 1.621-1.68 3.281-3.359 3.301-3.457.039-6.934-.254-10.352.097-3.008.313-5.957-.175-8.945.059-1.797.137-2.09-.176-2.148-1.992-.117-4.024 0-4.102 4.063-4.16 1.231-.02 2.852.39 3.066-1.641 0-.039.195-.059.313-.078-.013 1.224.905 1.803 2.754 1.738.586-.859.742-1.758-.215-2.441-1.113-.781-1.875-.508-2.578.761-.332-.312-.664-.898-1.016-.917-1.465-.098-2.969.058-4.453-.079-1.016-.078-2.051-.254-1.836-1.894.195-1.485-.059-3.047-.215-4.551-.02-.273-.586-.664-.918-.664s-1.094.195-1.25.508c-.254.488-.195 1.152-.195 1.738l.059 12.402c0 1.172-.449 1.407-1.504 1.329-1.68-.118-3.379-.098-5.078-.079l-6.836.215c-1.035 0-3.242-1.875-3.359-2.851-.156-1.309-.215-2.617-.332-3.926 0-.156-.176-.293-.273-.449l.176-6.192c.273-.605-.371-2.031.898-1.816v-.02zm40.918 4.766c.664-2.129-.235-3.984-1.445-5.508-.977-1.23-2.559-1.621-4.258-1.269-4.785 1.035-5.586 6.504-2.676 9.453 2.48 2.519 5.801 1.894 7.676-.879.254-.352.117-.938.136-1.309.274-.195.547-.293.567-.488z" fill="#fdfdfd"/><path d="M70.801 105.84c1.211-2.109 2.891-2.734 5.039-2.793h5.234l15.664.254c1.543.02 1.836.215 1.465 1.699l-1.289 4.649c-.234.605-.918 1.23-1.543 1.465-3.184 1.23-6.191 2.851-6.855 6.425-.449 2.383-1.816 3.184-3.672 3.887l-1.719.781c-4.043 1.953-8.359 2.129-12.734 1.895-.039-.996-.234-2.031-.098-3.008.254-1.973-.176-3.535-1.133-4.023.391-.528 1.133-1.055 1.152-1.602.059-1.504-.332-3.047-.254-4.551.039-.781.332-1.484-.312-2.129.41-.957.488-1.933 1.055-2.949zm6.23 7.129c.996 0 2.363-1.406 2.324-2.461-.059-1.855-1.543-3.066-2.91-2.969-1.641.137-2.5.977-2.481 2.637 0 1.758 1.231 2.852 3.066 2.793z" fill="#fdfdfe"/><path d="M128.926 104.414c-1.485 4.063-2.988 8.145-2.481 12.617-.117-.019-.351-.078-.781-.175.156.41.391.722.313.898-.528 1.152-.547 2.324-.45 3.574.02.352-.742 1.074-1.152 1.074l-14.102.118c-.312 0-.605-.059-1.289-.137 4.61-1.973 6.563-5.527 5.879-9.766-.996-6.23-5.097-9.082-11.699-8.008l1.484-4.628c.391-1.27 1.133-1.758 2.52-1.738l21.23.039h3.106l-2.578 6.133zm7.655-34.882l2.305-3.73c.254-.449.254-1.035.469-1.504l4.922-10.488c.801-1.738 1.367-3.574 2.129-5.332.175-.41.761-.918 1.191-.937 1.367-.078 2.754.117 4.141.098l7.676-.195c1.855.039 3.691.391 5.527.605l-2.891 5.508c-.488 1.094-.996 1.777-2.344 1.641-.722-.078-1.503.234-2.246.469-5.019 1.602-7.871 5.918-7.05 11.113.293 1.875.41 4.023 2.207 5.41.429.332.644.957.957 1.445-.606.234-1.211.645-1.817.664-3.984.078-7.968.059-11.953.059h-5.215c-.097-1.621 1.973-2.5.879-3.965l.996-.684.117-.176zM47.539 53.145c3.262 3.086 3.789 6.836 2.637 10.977-.918 3.34-2.734 5.957-6.23 6.973-2.207.644-5.098.391-6.27-1.797 6.855-.625 8.555-9.668 4.785-14.141-1.582-2.344-4.531-2.598-6.191-1.016l-1.25.527c.449-.625.762-1.582 1.367-1.816 2.422-.977 4.922-1.738 7.129-2.5.391.449.527.762.762.898.586.332 1.231.586 1.836.859.488.332 1.016.625 1.426 1.035zM164.12 64.551c.02 2.305-2.011 4.551-4.336 4.57-2.304 0-4.238-2.012-4.336-4.336-.078-2.305 1.934-4.258 4.473-4.336 2.031-.078 4.16 2.031 4.199 4.102zm-58.69 44.824c2.539 0 4.512 1.855 4.492 4.395-.019 2.148-1.367 4.121-4.141 4.179-2.207.039-4.238-2.051-4.238-4.219-.019-2.714 1.445-4.355 3.887-4.355zm-3.379 13.574c0 1.641-2.012 3.321-4.043 3.164-2.793-.214-4.961-2.91-4.883-5.371.078-2.246 1.465-3.847 3.516-3.828.801 4.824 1.523 5.625 5.41 6.035zm56.269-43.613c-1.328 1.992-3.808 2.969-5.996 2.051-1.074-.43-2.383-.977-2.617-2.637 1.855 0 3.574.234 5.176-.059 2.051-.371 1.679-2.715 2.656-4.043 1.328 1.504 1.641 3.438.781 4.688zM71.309 182.168H63.77c-.801-.039-1.562-.39-2.637-.664 3.516-3.769 7.578-3.32 10.176.684v-.02z" fill="#fdfdfd"/><path d="M82.715 130.996c-1.699 1.133-2.539.781-2.754-1.23-.02-.157 0-.313-.039-.45-.449-2.011-.098-2.5 1.934-2.832l.859 4.512zm-6.563 1.27c-.723-.274-.977-2.774-.371-3.868.293-.546.938-.878 1.582-1.425l.82 5.254c-.703 0-1.465.253-2.031.039z" fill="#fafafa"/><path d="M73.672 127.656c-.195 1.153-.488 2.207-.488 3.242s.606 1.504-.488 1.778c-.918.234-1.621-.176-1.758-1.231l.703-3.789h2.031zm13.437 1.641c-1.348.996-1.973.976-2.676-.117-.996-1.524-.664-2.891.879-3.848l1.797 3.965z" fill="#fdfdfd"/><path d="M39.414 55.508l.254-1.699c-1.289 1.797-2.324.605-3.379.332 1.68-1.582 4.609-1.309 6.191 1.016l-3.066.352z" fill="#0711db"/><path d="M64.003 173.399l-4.023.859c-.254-2.344-.059-2.598 4.023-2.48v1.621z" fill="#f8f8f8"/><path d="M60.254 169.746v-1.934h3.906l-.098 1.934h-3.809z" fill="#fdfdfd"/><path d="M142.89 87.637l2.695 2.246-1.347 1.816c-2.598-1.582-2.715-1.973-1.348-4.062zm-3.867 4.394l1.016-1.445 2.363 2.637-1.406 2.246-1.973-3.437z" fill="#fafafa"/><path d="M61.719 163.926c.801-.293 1.758-.078 2.637-.078.078 2.285.059 2.363-4.238 1.875.645-.762 1.016-1.582 1.602-1.797z" fill="#f8f8f8"/><path d="M147.129 88.223l-2.656-1.914 1.054-1.836 2.696 1.777-1.094 1.973zm-69.746 8.925l4.18-1.894.254 2.129h-4.356c0-.078-.039-.156-.078-.234zm61.387-.742l-2.286 1.387-.39-.312c2.48-.899-.078-2.812 1.113-4.277l1.563 3.203z" fill="#fafafa"/><path d="M61.113 161.699c.762-1.582 1.133-1.777 2.969-1.562v1.562h-2.969z" fill="#fefefe"/><path d="M87.48 124.785c.039-.156.195-.39.313-.41.215-.039.547.039.625.176l1.68 3.418c-1.348-.273-2.832-2.324-2.617-3.184z" fill="#fafafa"/><path d="M46.094 118.887l.664.898-1.992 1.778-.137-1.426 1.465-1.25z" fill="#050ebd"/><path d="M47.324 51.563l.41.176-.176.215c-.078-.117-.137-.254-.215-.391h-.02z" fill="#0710db"/><path d="M136.465 69.727l-.371-.41c.156.059.332.137.488.215l-.117.195z" fill="#fdfdfd"/><path d="M47.148 120.782c.859-2.774 2.168-3.965 4.844-4.121.84-.04 1.973-.04 2.266 1.289-3.789.332-5.586 3.378-4.922 8.398-1.738-1.406-2.148-3.145-2.363-5l.176-.566z" fill="#fafafe"/><path d="M66.484 129.707l.352-1.269c.586-1.485 1.348-1.778 2.793-1.172l-1.348 4.785c-2.148.156-2.422-.176-1.797-2.344z" fill="#fdfdfe"/><path d="M58.184 127.891c-.117-1.953 2.363-3.574 4.238-3.047l-2.812 4.59c-.371-.391-1.367-.938-1.426-1.543zm5.546-1.231c.332-.41 1.172-.449 2.129-.781l-2.402 5.586c-2.285-1.641-.918-3.281.274-4.805zm-7.793.215c-.957-.664-1.133-1.484-.391-2.539 1.23-1.738 2.305-2.051 3.613-1.152l-3.223 3.691zm-2.421-5.801c.859-.722 1.816-.429 2.676.059l-3.184 2.89c-.547-1.171-.41-2.207.508-2.949z" fill="#fafafe"/><path d="M52.051 152.402l.332 1.133-.41.137-.449-1.035.527-.235zm.625-1.269l-.527.859c-.117-.039-.215-.097-.332-.156l.391-.938a4.98 4.98 0 0 0 .469.235z" fill="#020203"/><path d="M46.016 121.191l1.113-.41c-.039.196-.098.371-.156.567l-.957-.157z" fill="#050ebd"/><path d="M43.34 113.164v.898h-.215l.078-.898c.059.02.098.02.137 0zm-1.973 10.859c.059.059.117.098.176.157-.059 0-.098.039-.156.058v-.215h-.02z" fill="#020203"/><path d="M101.113 178.848c2.285.019 4.434 1.543 4.844 3.457H95.566c.43-1.836 3.066-3.477 5.547-3.457z" fill="#f8f8f8"/><path d="M95.566 173.457v-1.211c.801 0 1.543-.097 2.246.039.293.059.527.567.781.86l-3.027.312zm1.269-3.047c-.703.02-1.582.254-1.621-.898-.059-1.484.625-1.856 3.262-1.68.137 2.188-.098 2.539-1.641 2.578z" fill="#fafafe"/><path d="M95.605 165.371c-.078-1.465 1.523-.801 2.168-1.445.254.371.644.722.723 1.133.195 1.035-.41 1.328-1.582 1.503-.449-.39-1.289-.781-1.309-1.191z" fill="#fdfdfe"/><path d="M73.672 51.016c.41-3.496 4.316-5.059 7.168-2.656 2.676 2.246 3.418 5.234 2.969 8.477-.234 1.68-1.035 3.398-2.891 3.965-1.816.547-3.34-.234-4.707-1.445-2.031-1.816-2.441-4.258-2.871-6.816l.332-1.523z" fill="#020202"/><path d="M94.043 50.586c.254-1.543.996-2.988 2.441-3.398 1.582-.449 3.242-.215 4.649 1.094 2.695 2.5 3.398 5.645 2.734 9.023-.742 3.809-4.687 4.492-6.953 2.422-2.109-1.914-2.91-4.277-3.223-7.07l.352-2.07z" fill="#030302"/><path d="M91.367 71.035h-1.953c-2.246.02-4.394-.059-5.957-2.109-.645-.84-.879-2.539-.137-3.496.684-.859 2.188-.859 3.106-.059 1.016.879 2.109 1.445 3.516 1.055.371-.098.82-.176 1.172-.078 1.582.43 2.715-.547 3.984-1.152.508-.254 1.309-.312 1.816-.078.625.293 1.445.898 1.543 1.465.371 2.07-1.66 4.336-3.789 4.414h-3.281c0 .013-.007.026-.02.039z" fill="#060505"/><path d="M111.406 142.91c-1.875 2.754-5.195 3.399-7.675.879-2.911-2.968-2.11-8.437 2.675-9.453 1.68-.371 3.282.039 4.258 1.27 1.231 1.523 2.11 3.379 1.446 5.508-.059.156-.313.254-.586.468-.02.371.117.977-.118 1.328zm-2.949-1.582c.332-.058.86-.703.801-.976-.215-1.113-1.426-3.008-2.578-2.793-.43.078-.781.566-.977.723.098 1.582 1.719 3.222 2.754 3.046z" fill="#040404"/><path d="M97.324 143.594c.723-1.27 1.484-1.543 2.578-.762.957.684.782 1.582.215 2.441-1.849.066-2.767-.514-2.754-1.738 0 0-.039.039-.039.059z" fill="#0d0d0d"/><path d="M76.445 107.559c1.348-.098 2.832 1.094 2.91 2.969.039 1.035-1.328 2.441-2.324 2.46-1.836.04-3.047-1.054-3.066-2.812-.02-1.66.84-2.5 2.48-2.617z" fill="#070613"/><path d="M106.68 137.559c1.152-.215 2.363 1.679 2.578 2.793.058.273-.469.918-.801.976-1.035.196-2.656-1.445-2.754-3.047.195-.175.547-.664.977-.722z" fill="#f8f8f8"/><path d="M164.024 30.176h-.137c-.039 0-.078-.039-.136-.059-1.055-.332-1.914-1.231-2.168-2.305v-1.016c0-.586-.411-.899-.84-.937a1 1 0 0 0-.684-.078c-.976.234-.937 1.133-1.015 1.953-.079.879-.372 1.875-1.114 2.422-.097.078-.195.156-.254.254h-.039c-1.23.098-1.25 1.992-.039 1.953l.157.059c.976.293 1.523 1.426 1.953 2.383v.625c.039 1.152 1.66 1.25 1.914.293.195-.156.312-.41.293-.742-.059-.664.136-1.289.703-1.719s1.133-.625 1.582-1.172c1.074-.176 1.035-1.934-.176-1.934v.02z" fill="#020203"/><path d="M145.41 23.262h-.156l-.156-.059c-1.27-.43-2.305-1.582-2.617-2.969v-1.309c0-.742-.489-1.152-1.016-1.211a1.06 1.06 0 0 0-.82-.098c-1.172.293-1.133 1.465-1.211 2.5-.098 1.152-.449 2.402-1.348 3.125a1.57 1.57 0 0 0-.293.332h-.058c-1.485.117-1.504 2.578-.059 2.519a.59.59 0 0 0 .195.078c1.172.371 1.836 1.836 2.344 3.086v.801c.039 1.484 1.992 1.602 2.305.391.234-.195.39-.508.351-.957-.058-.859.176-1.68.84-2.207.684-.547 1.367-.801 1.895-1.523 1.308-.215 1.23-2.5-.215-2.5h.019zm24.864 71.972h-.137c-.039 0-.078-.039-.136-.059-1.055-.332-1.914-1.231-2.168-2.305v-1.016c0-.586-.411-.898-.84-.937a1 1 0 0 0-.684-.078c-.976.234-.937 1.133-1.015 1.953-.079.879-.372 1.875-1.114 2.422-.097.078-.195.156-.254.254h-.039c-1.23.098-1.25 1.992-.039 1.953l.157.059c.976.293 1.523 1.426 1.953 2.383v.625c.039 1.152 1.66 1.25 1.914.293.195-.156.312-.41.293-.742-.059-.664.136-1.289.703-1.719s1.133-.625 1.582-1.172c1.074-.176 1.035-1.934-.176-1.934v.02z" fill="#186efe"/><path d="M157.793 105.664h-.312a.9.9 0 0 0-.332-.176c-1.836-.547-3.164-2.07-3.555-3.925-.058-.274-.195-.469-.391-.567v-.351c-.039-1.27-2.011-1.27-1.972 0v.41c-.352.039-.684.273-.84.683-.547 1.465-1.172 3.106-2.637 3.848-.254.117-.39.312-.449.508-.82.332-.781 1.699.117 1.875.117.176.313.332.528.351 1.757.254 3.203 1.387 3.789 3.028l.078 1.289c.078 1.269 2.051 1.269 1.972 0v-.078c.352-.02.664-.235.801-.704.41-1.523 1.133-3.339 2.715-3.964a.95.95 0 0 0 .43-.293h.058c1.27-.078 1.27-2.051 0-1.973v.039z" fill="#020203"/><path d="M133.047 42.988c-1.035-.781-1.738-1.895-2.129-3.105-.195-.605-.625-.918-1.113-.996-.039 0-.059-.02-.098-.039a1.32 1.32 0 0 0-.957.078c-.547 0-1.035.332-1.152 1.055l-.117.742c-.332.547-.743 1.055-1.211 1.523-.078.078-.118.137-.176.215-1.485.137-1.504 2.402-.117 2.852.566.605 1.054 1.27 1.406 2.031 0 .078 0 .156.019.215.098.723.528 1.367 1.29 1.465a.88.88 0 0 0 .371.156 1.48 1.48 0 0 0 1.796-1.016c.079-.273.118-.41.196-.547l.195-.351c0-.02.156-.215.137-.176.351-.41.547-.547 1.055-.801.312-.156.527-.449.644-.762.82-.508.762-1.895-.078-2.539h.039zm46.445 12.891c-.781-.605-1.348-1.445-1.621-2.383-.137-.449-.488-.703-.84-.762-.019 0-.058 0-.078-.02a1.06 1.06 0 0 0-.742.059c-.41 0-.801.254-.879.801-.039.195-.059.371-.078.566a5.96 5.96 0 0 1-.918 1.172c-.059.059-.098.117-.137.156-1.133.098-1.152 1.836-.078 2.188.449.469.82.977 1.074 1.563a.53.53 0 0 0 .02.176c.078.566.41 1.055.996 1.113a.65.65 0 0 0 .293.117c.586.156 1.211-.195 1.387-.781.058-.215.097-.312.156-.41.058-.078.097-.176.156-.254l.098-.137a2.18 2.18 0 0 1 .82-.625c.234-.117.41-.332.488-.586.625-.391.586-1.445-.058-1.934l-.059-.02z" fill="#186efe"/></svg>