<svg xmlns="http://www.w3.org/2000/svg" width="164.352" height="164.352" viewBox="0 0 164.352 164.352"><path d="M0,110.585,13.4,78.191,0,45.8l32.393-13.4L45.8,0,78.191,13.4,110.584,0l13.4,32.393,32.393,13.4-13.4,32.393,13.4,32.393-32.393,13.4-13.4,32.393-32.393-13.4L45.8,156.382l-13.4-32.393Z" transform="rotate(93 78.293 82.075)" fill="#e0f2ff"/><path d="M11.943,0A11.939,11.939,0,0,0,0,11.943v83.6a11.943,11.943,0,0,0,11.943,11.942h83.6A11.943,11.943,0,0,0,107.483,95.54V81.926a11.947,11.947,0,0,0,5.971-10.271V35.828a11.947,11.947,0,0,0-5.971-10.271V11.943A11.943,11.943,0,0,0,95.54,0h-83.6m0,11.943h83.6V23.885H59.713A11.943,11.943,0,0,0,47.77,35.828V71.655A11.943,11.943,0,0,0,59.713,83.6H95.54V95.54h-83.6v-83.6m47.77,23.885h41.8V71.655h-41.8V35.828m17.914,8.957a8.957,8.957,0,1,0,8.957,8.957A8.957,8.957,0,0,0,77.626,44.784Z" transform="rotate(-175.99 61.704 69.477)" fill="#fd9500"/><g transform="rotate(2 -96.046 2221.14)"><ellipse cx="37.325" cy="37.198" rx="37.325" ry="37.198" transform="rotate(9 5.819 73.937)" fill="#5d9cfa"/><path d="M16.416,43.493a18.855,18.855,0,0,1-7.309-1.269,13.157,13.157,0,0,1-4.953-3.5,14.976,14.976,0,0,1-2.9-5.165A24.055,24.055,0,0,1,.106,27.3Q.045,25.673.015,23.71t0-3.957q.03-1.993.091-3.685A21.113,21.113,0,0,1,1.253,9.816a14.855,14.855,0,0,1,2.99-5.1A13.783,13.783,0,0,1,9.227,1.269,18.5,18.5,0,0,1,16.416,0a18.677,18.677,0,0,1,7.249,1.269,13.783,13.783,0,0,1,4.984,3.443,14.478,14.478,0,0,1,2.96,5.1,21.766,21.766,0,0,1,1.118,6.252q.121,1.691.121,3.685V23.71q0,1.963-.121,3.594a22.466,22.466,0,0,1-1.087,6.252,14.976,14.976,0,0,1-2.9,5.165,13.114,13.114,0,0,1-4.984,3.5A19.085,19.085,0,0,1,16.416,43.493Zm0-6.947q3.926,0,5.769-2.567A12.048,12.048,0,0,0,24.088,27q.121-1.752.121-3.534V19.874q0-1.812-.121-3.443a12.118,12.118,0,0,0-1.9-6.917q-1.842-2.628-5.769-2.628a6.493,6.493,0,0,0-5.709,2.628,12.443,12.443,0,0,0-1.963,6.917q0,1.631-.03,3.443t0,3.594q.03,1.782.03,3.534a12.2,12.2,0,0,0,1.993,6.977A6.567,6.567,0,0,0,16.416,36.547Z" transform="rotate(8 -119.332 224.026)" fill="#fff"/></g></svg>