<svg xmlns="http://www.w3.org/2000/svg" width="220.092" height="154.146" viewBox="0 0 220.092 154.146"><g transform="translate(-877.033 -1544.37)"><path id="chat-processing" d="M25.566,0C11.5,0,0,9.153,0,20.453S11.5,40.906,25.566,40.906a32.343,32.343,0,0,0,9.025-1.278,27.951,27.951,0,0,0,16.541,6.392c-5.957-5.957-6.9-9.971-7.031-11.5,4.346-3.656,7.031-8.616,7.031-14.061C51.132,9.153,39.628,0,25.566,0M12.783,23.01V17.9H17.9V23.01H12.783m10.226,0V17.9h5.113V23.01H23.01m10.226,0V17.9h5.113V23.01Z" transform="rotate(1 -92315.209 51104.474)" fill="#fd9500"/><circle id="Эллипс_86" data-name="Эллипс 86" cx="65.737" cy="65.737" r="65.737" transform="rotate(11 -7552.945 5616.999)" fill="#fff"/><path id="chat-processing-2" data-name="chat-processing" d="M31.891,0c17.54,0,31.891,11.417,31.891,25.513S49.431,51.026,31.891,51.026a40.344,40.344,0,0,1-11.258-1.595A34.866,34.866,0,0,1,0,57.4c7.431-7.431,8.611-12.438,8.77-14.351C3.349,38.492,0,32.306,0,25.513,0,11.417,14.351,0,31.891,0M47.837,28.7V22.324H41.458V28.7h6.378m-12.756,0V22.324H28.7V28.7H35.08m-12.756,0V22.324H15.946V28.7Z" transform="rotate(11 -7667.988 6160.08)" fill="#fd9500"/><path id="account-heart" d="M60.458,44.4c-11.66,0-34.548,5.772-34.548,17.761v8.88h69.1v-8.88c0-11.988-22.888-17.761-34.548-17.761m0-8.88A17.522,17.522,0,0,0,77.732,17.761a17.28,17.28,0,1,0-34.548,0A17.522,17.522,0,0,0,60.458,35.521M17.274,48.842l-2.591-2.22C6.046,38.186,0,32.857,0,26.2a9.723,9.723,0,0,1,9.5-9.768,9.994,9.994,0,0,1,7.773,3.552,9.994,9.994,0,0,1,7.773-3.552,9.444,9.444,0,0,1,9.5,9.768c0,6.66-6.046,11.988-14.683,20.425Z" transform="rotate(6.02 -14539.859 9686.36)" fill="#73a9fa"/></g></svg>