<svg xmlns="http://www.w3.org/2000/svg" width="212.124" height="170.255" viewBox="0 0 212.124 170.255"><g transform="translate(-395.876 -301.872)"><path d="M0,108.034,13.1,76.388,0,44.741l31.646-13.1L44.741,0,76.388,13.1,108.034,0l13.1,31.646,31.646,13.1-13.1,31.646,13.1,31.646-31.646,13.095-13.095,31.646-31.646-13.1L44.741,152.775l-13.1-31.646Z" transform="rotate(7 -2239.6 3881.67)" fill="#e0f2ff"/><circle cx="65" cy="65" r="65" transform="translate(395.876 314.163)" fill="#fdaa33"/><path d="M80.015,3H34.883L3,34.883V80.015L34.883,111.9H80.015L111.9,80.015V34.883Z" transform="rotate(8 -2082.819 3381.529)" fill="#498ef4"/><path d="M13.408,32.424a1.738,1.738,0,0,1-1.212-.476,1.622,1.622,0,0,1-.52-1.256V27.921A15.027,15.027,0,0,1,13.538,21.9a26.841,26.841,0,0,1,3.551-4.849q2.035-2.208,4.07-4.2a32.252,32.252,0,0,0,3.464-3.94,8.578,8.578,0,0,0,1.689-4.027,5.939,5.939,0,0,0-1-4.243A7.924,7.924,0,0,0,21.938-2a11.2,11.2,0,0,0-4.46-.909A10.649,10.649,0,0,0,10.81-.916q-2.6,1.992-3.551,6.408a2.678,2.678,0,0,1-.866,1.515,2.594,2.594,0,0,1-1.645.476H-2.613a1.832,1.832,0,0,1-1.342-.563,2.048,2.048,0,0,1-.563-1.515,16.709,16.709,0,0,1,1.6-6.711A18.106,18.106,0,0,1,1.5-7.151a21.459,21.459,0,0,1,7.058-4.113,27.716,27.716,0,0,1,9.526-1.515A28.315,28.315,0,0,1,28-11.265a17.432,17.432,0,0,1,6.408,3.94,14.793,14.793,0,0,1,3.421,5.239,14.45,14.45,0,0,1,.953,5.5A14.76,14.76,0,0,1,37.309,9.3a23.243,23.243,0,0,1-3.2,4.806q-1.905,2.208-3.9,4.33A38.754,38.754,0,0,0,26.7,22.725a12.532,12.532,0,0,0-2.035,4.59,15.152,15.152,0,0,0-.26,1.515q-.087.736-.173,1.429a4.388,4.388,0,0,1-.866,1.6,1.9,1.9,0,0,1-1.472.563Zm-.26,16.28a2.07,2.07,0,0,1-2.078-2.078V39.092a2.11,2.11,0,0,1,.606-1.559,2,2,0,0,1,1.472-.606h8.4a2.076,2.076,0,0,1,2.165,2.165v7.534a2,2,0,0,1-.606,1.472,2.11,2.11,0,0,1-1.559.606Z" transform="rotate(8 -2385.318 3650.008)" fill="#fff"/></g></svg>