<svg xmlns="http://www.w3.org/2000/svg" width="159.19" height="163.655" viewBox="0 0 159.19 163.655"><g transform="translate(-746 -281)"><path d="M0,104.536,12.671,73.915,0,43.293,30.622,30.622,43.293,0,73.915,12.671,104.536,0l12.671,30.622,30.622,12.671L135.158,73.915l12.671,30.622-30.622,12.671-12.671,30.622L73.915,135.158,43.293,147.829,30.622,117.207Z" transform="translate(746 296.826)" fill="#e0f2ff"/><path d="M11.386,0A11.346,11.346,0,0,0,0,11.386v79.7a11.346,11.346,0,0,0,11.386,11.386h79.7a11.346,11.346,0,0,0,11.386-11.386v-79.7A11.346,11.346,0,0,0,91.087,0h-79.7m0,11.386h79.7v79.7h-79.7v-79.7M22.772,22.772V34.157H79.7V22.772H22.772m0,22.772V56.929H79.7V45.543H22.772m0,22.772V79.7h39.85V68.315Z" transform="matrix(.998 -.07 .07 .998 753.082 312.141)" fill="#fd9500"/><ellipse cx="35.283" cy="35.163" rx="35.283" ry="35.163" transform="rotate(9 -1367.476 5448.466)" fill="#5d9cfa"/><path d="M15.518,41.115a17.823,17.823,0,0,1-6.91-1.2A12.438,12.438,0,0,1,3.926,36.6a14.157,14.157,0,0,1-2.741-4.882A22.739,22.739,0,0,1,.1,25.811q-.057-1.542-.086-3.4t0-3.74Q.043,16.788.1,15.19a19.958,19.958,0,0,1,1.085-5.91A14.043,14.043,0,0,1,4.012,4.454,13.029,13.029,0,0,1,8.723,1.2a17.489,17.489,0,0,1,6.8-1.2A17.656,17.656,0,0,1,22.37,1.2a13.029,13.029,0,0,1,4.711,3.255,13.686,13.686,0,0,1,2.8,4.825,20.575,20.575,0,0,1,1.056,5.91q.114,1.6.114,3.483v3.74q0,1.856-.114,3.4a21.237,21.237,0,0,1-1.028,5.91A14.157,14.157,0,0,1,27.167,36.6a12.4,12.4,0,0,1-4.711,3.312A18.041,18.041,0,0,1,15.518,41.115Zm0-6.567a6.256,6.256,0,0,0,5.453-2.427,11.389,11.389,0,0,0,1.8-6.6q.114-1.656.114-3.341v-3.4q0-1.713-.114-3.255a11.455,11.455,0,0,0-1.8-6.538A6.2,6.2,0,0,0,15.518,6.51a6.138,6.138,0,0,0-5.4,2.484,11.762,11.762,0,0,0-1.856,6.538q0,1.542-.029,3.255t0,3.4q.029,1.685.029,3.341a11.534,11.534,0,0,0,1.884,6.6A6.208,6.208,0,0,0,15.518,34.548Z" transform="rotate(8 -1710.491 6237.983)" fill="#fff"/></g></svg>