<svg xmlns="http://www.w3.org/2000/svg" width="189.454" height="165.805" viewBox="0 0 189.454 165.805"><g transform="translate(.385 -7.083)"><ellipse cx="83.204" cy="82.902" rx="83.204" ry="82.902" transform="translate(10.64 7.083)" fill="#e0f2ff"/><path d="M50.845,0H8.474A8.463,8.463,0,0,0,.042,8.474L0,76.268,29.66,63.557l29.66,12.711V8.474A8.5,8.5,0,0,0,50.845,0Zm0,63.557L29.66,54.32,8.474,63.557V8.474H50.845Z" transform="rotate(-11 321.573 32.982)" fill="#498ef4"/><path d="M51.269,0H8.545a8.533,8.533,0,0,0-8.5,8.545L0,76.9,29.907,64.086,59.814,76.9V8.545A8.57,8.57,0,0,0,51.269,0Z" transform="rotate(9 -263.37 851.69)" fill="#498ef4"/><path d="M16.964,25.952v9.976L2,20.964,16.964,6v9.976H36.917V6L51.881,20.964,36.917,35.929V25.952Z" transform="translate(67.315 59.335)" fill="#fd9500"/></g></svg>