<svg xmlns="http://www.w3.org/2000/svg" width="187.549" height="123.574" viewBox="0 0 187.549 123.574"><g transform="translate(-900 -415.068)"><circle cx="38.391" cy="38.391" r="38.391" transform="translate(900 436.362)" fill="#e0f2ff"/><path d="M71.829,8.979a8.979,8.979,0,0,1,8.979,8.979v62.85a8.979,8.979,0,0,1-8.979,8.979H8.979A8.979,8.979,0,0,1,0,80.808V17.957A8.979,8.979,0,0,1,8.979,8.979H27.744a13.414,13.414,0,0,1,25.32,0H71.829m-31.425,0a4.489,4.489,0,1,0,4.489,4.489A4.489,4.489,0,0,0,40.4,8.979M17.957,26.936V17.957H8.979v62.85h62.85V17.957H62.85v8.979H17.957M40.4,35.914a8.979,8.979,0,1,1-8.979,8.979A8.979,8.979,0,0,1,40.4,35.914M22.447,71.829V67.34c0-4.938,8.036-8.979,17.957-8.979S58.361,62.4,58.361,67.34v4.489Z" transform="rotate(4.01 -5447.03 13775.437)" fill="#5d9cfa"/><path d="M5,0H26.519a0,0,0,0,1,0,0V17.679a0,0,0,0,1,0,0H5a5,5,0,0,1-5-5V5A5,5,0,0,1,5,0Z" fill="#e52929" transform="matrix(.998 -.07 .07 .998 949.871 521.006)"/><path d="M5,0H26.519a0,0,0,0,1,0,0V17.679a0,0,0,0,1,0,0H5a5,5,0,0,1-5-5V5A5,5,0,0,1,5,0Z" transform="matrix(-.998 .07 -.07 -.998 1075.497 529.925)" fill="#e0f2ff"/><path transform="rotate(-4.01 7892.19 -13759.44)" fill="#e0f2ff" d="M0 0H26.519V17.679H0z"/><path transform="rotate(-4.01 7875.837 -14226.32)" fill="#e0f2ff" d="M0 0H26.519V17.679H0z"/><path d="M37.735,37.735H30.188V15.094h7.547M30.188,45.283h7.547V52.83H30.188M48.037,0H19.887L0,19.887V48.037L19.887,67.924H48.037L67.924,48.037V19.887Z" transform="rotate(-13 2451.903 -4193.107)" fill="#fd9500"/></g></svg>