<svg xmlns="http://www.w3.org/2000/svg" width="20" height="20" viewBox="0 0 24.768 24"><g fill="#ffee6c"><path d="M 22.33121681213379 26.84565353393555 C 22.16842651367188 26.84566497802734 22.00917625427246 26.79195404052734 21.85787582397461 26.68600463867188 L 17.92423629760742 23.9314136505127 C 17.36054611206055 23.53667449951172 16.6988353729248 23.32802391052246 16.01066589355469 23.32802391052246 C 15.32250595092773 23.32802391052246 14.66079616546631 23.53667449951172 14.09709548950195 23.9314136505127 L 10.16345596313477 26.68600463867188 C 10.01216602325439 26.79194450378418 9.852895736694336 26.84565353393555 9.690046310424805 26.84565353393555 C 9.429585456848145 26.84565353393555 9.165446281433105 26.70919418334961 9.000705718994141 26.48951530456543 C 8.842995643615723 26.27921485900879 8.802835464477539 26.03613471984863 8.881356239318848 25.76703453063965 L 10.27462577819824 20.99175453186035 C 10.65978622436523 19.67165374755859 10.20796585083008 18.27226448059082 9.12354564666748 17.42664527893066 L 5.202305793762207 14.36889457702637 C 4.783475875854492 14.0422945022583 4.86698579788208 13.6161642074585 4.922336101531982 13.44810485839844 C 4.977675914764404 13.28006458282471 5.163715839385986 12.88770484924316 5.694655895233154 12.87389469146729 L 10.55875587463379 12.74734401702881 C 11.93881607055664 12.71144485473633 13.17037582397461 11.81112480163574 13.62333583831787 10.507004737854 L 15.22092628479004 5.907374382019043 C 15.39701557159424 5.400394439697266 15.83187580108643 5.345664501190186 16.01066589355469 5.345664501190186 C 16.18945503234863 5.345664501190186 16.62431526184082 5.400394439697266 16.80040550231934 5.907374382019043 L 18.39799499511719 10.507004737854 C 18.8509464263916 11.8111047744751 20.08250617980957 12.71142482757568 21.46256637573242 12.74734401702881 L 26.32668495178223 12.87389469146729 C 26.85761642456055 12.88770484924316 27.04366683959961 13.28006458282471 27.09900665283203 13.4481143951416 C 27.15435600280762 13.6161642074585 27.23786544799805 14.0422945022583 26.81903648376465 14.36889457702637 L 22.89778518676758 17.42664527893066 C 21.8133659362793 18.27224540710449 21.36154556274414 19.67164421081543 21.74670600891113 20.99175453186035 L 23.13997650146484 25.76703453063965 C 23.21846580505371 26.03606414794922 23.17830657958984 26.27910423278809 23.02059555053711 26.48941421508789 C 22.85582542419434 26.70914459228516 22.59166526794434 26.84564399719238 22.33121681213379 26.84565353393555 Z" transform="translate(-3.627 -4.096)"/><path d="M 16.01066780090332 7.443426132202148 L 14.80413627624512 10.91713523864746 C 14.18145561218262 12.70990371704102 12.48842620849609 13.94757461547852 10.59126663208008 13.99691390991211 L 6.881782531738281 14.09341621398926 L 9.892206192016602 16.44091415405273 C 11.38295555114746 17.60338401794434 12.00407600402832 19.52712440490723 11.47459602355957 21.34186553955078 L 10.41120338439941 24.98650741577148 L 13.38006591796875 22.90751457214355 C 14.15498542785645 22.36485481262207 15.06462669372559 22.07802581787109 16.01066589355469 22.07802581787109 C 16.95670700073242 22.07802581787109 17.86634635925293 22.36485481262207 18.6412467956543 22.90750503540039 L 21.61012268066406 24.98650169372559 L 20.5467357635498 21.34186553955078 C 20.01725578308105 19.52710342407227 20.63838577270508 17.60336494445801 22.12912559509277 16.44091415405273 L 25.13955307006836 14.09341621398926 L 21.43004608154297 13.99691390991211 C 19.53288650512695 13.94754409790039 17.83986663818359 12.70987510681152 17.21718597412109 10.91713523864746 L 16.01066780090332 7.443426132202148 M 16.01066207885742 4.095651626586914 C 16.83366012573242 4.095651626586914 17.65666198730469 4.562849044799805 17.98120498657227 5.497243881225586 L 19.57879638671875 10.09687423706055 C 19.86371612548828 10.91718482971191 20.62700653076172 11.47517395019531 21.49508666992188 11.49776458740234 L 26.35919570922852 11.62430381774902 C 28.31625556945801 11.67522430419922 29.13151550292969 14.15075492858887 27.58769607543945 15.35462379455566 L 23.66644668579102 18.41237449645996 C 22.99253463745117 18.93787384033203 22.70731544494629 19.82126426696777 22.94667625427246 20.64164352416992 L 24.33994674682617 25.41692352294922 C 24.89186668395996 27.30859375 22.7549934387207 28.84023284912109 21.14086532592773 27.70991516113281 L 17.20722579956055 24.95532417297363 C 16.48883438110352 24.4522533416748 15.53250312805176 24.45225524902344 14.81410598754883 24.95532417297363 L 10.88046646118164 27.70991516113281 C 9.266334533691406 28.84023284912109 7.12945556640625 27.30859565734863 7.681385040283203 25.41692352294922 L 9.074655532836914 20.64164352416992 C 9.314016342163086 19.82126426696777 9.028785705566406 18.93787384033203 8.354885101318359 18.41237449645996 L 4.433635711669922 15.35462379455566 C 2.889806747436523 14.15075492858887 3.705076217651367 11.67522430419922 5.662145614624023 11.62430381774902 L 10.5262451171875 11.49776458740234 C 11.39432525634766 11.47518539428711 12.15761566162109 10.91718482971191 12.44253540039062 10.09687423706055 L 14.04012680053711 5.497243881225586 C 14.36466598510742 4.562849044799805 15.18766403198242 4.095651626586914 16.01066207885742 4.095651626586914 Z" fill="#ffb100" transform="translate(-3.627 -4.096)"/></g></svg>