<svg xmlns="http://www.w3.org/2000/svg" width="20" height="20" viewBox="0 0 24.768 24"><g fill="none"><path d="M14.04,5.5a2.086,2.086,0,0,1,3.941,0l1.6,4.6A2.086,2.086,0,0,0,21.5,11.5l4.864.127a2.086,2.086,0,0,1,1.229,3.73l-3.921,3.058a2.086,2.086,0,0,0-.72,2.229l1.393,4.775a2.086,2.086,0,0,1-3.2,2.293l-3.934-2.755a2.086,2.086,0,0,0-2.393,0L10.88,27.71a2.086,2.086,0,0,1-3.2-2.293l1.393-4.775a2.086,2.086,0,0,0-.72-2.229L4.434,15.355a2.086,2.086,0,0,1,1.229-3.73l4.864-.127a2.086,2.086,0,0,0,1.916-1.4Z" transform="translate(-3.627 -4.096)"/><path d="M 16.01066780090332 7.443426132202148 L 14.80413627624512 10.91713523864746 C 14.18145561218262 12.70990371704102 12.48842620849609 13.94757461547852 10.59126663208008 13.99691390991211 L 6.881782531738281 14.09341621398926 L 9.892206192016602 16.44091415405273 C 11.38295555114746 17.60338401794434 12.00407600402832 19.52712440490723 11.47459602355957 21.34186553955078 L 10.41120338439941 24.98650741577148 L 13.38006591796875 22.90751457214355 C 14.15498542785645 22.36485481262207 15.06462669372559 22.07802581787109 16.01066589355469 22.07802581787109 C 16.95670700073242 22.07802581787109 17.86634635925293 22.36485481262207 18.6412467956543 22.90750503540039 L 21.61012268066406 24.98650169372559 L 20.5467357635498 21.34186553955078 C 20.01725578308105 19.52710342407227 20.63838577270508 17.60336494445801 22.12912559509277 16.44091415405273 L 25.13955307006836 14.09341621398926 L 21.43004608154297 13.99691390991211 C 19.53288650512695 13.94754409790039 17.83986663818359 12.70987510681152 17.21718597412109 10.91713523864746 L 16.01066780090332 7.443426132202148 M 16.01066207885742 4.095651626586914 C 16.83366012573242 4.095651626586914 17.65666198730469 4.562849044799805 17.98120498657227 5.497243881225586 L 19.57879638671875 10.09687423706055 C 19.86371612548828 10.91718482971191 20.62700653076172 11.47517395019531 21.49508666992188 11.49776458740234 L 26.35919570922852 11.62430381774902 C 28.31625556945801 11.67522430419922 29.13151550292969 14.15075492858887 27.58769607543945 15.35462379455566 L 23.66644668579102 18.41237449645996 C 22.99253463745117 18.93787384033203 22.70731544494629 19.82126426696777 22.94667625427246 20.64164352416992 L 24.33994674682617 25.41692352294922 C 24.89186668395996 27.30859375 22.7549934387207 28.84023284912109 21.14086532592773 27.70991516113281 L 17.20722579956055 24.95532417297363 C 16.48883438110352 24.4522533416748 15.53250312805176 24.45225524902344 14.81410598754883 24.95532417297363 L 10.88046646118164 27.70991516113281 C 9.266334533691406 28.84023284912109 7.12945556640625 27.30859565734863 7.681385040283203 25.41692352294922 L 9.074655532836914 20.64164352416992 C 9.314016342163086 19.82126426696777 9.028785705566406 18.93787384033203 8.354885101318359 18.41237449645996 L 4.433635711669922 15.35462379455566 C 2.889806747436523 14.15075492858887 3.705076217651367 11.67522430419922 5.662145614624023 11.62430381774902 L 10.5262451171875 11.49776458740234 C 11.39432525634766 11.47518539428711 12.15761566162109 10.91718482971191 12.44253540039062 10.09687423706055 L 14.04012680053711 5.497243881225586 C 14.36466598510742 4.562849044799805 15.18766403198242 4.095651626586914 16.01066207885742 4.095651626586914 Z" fill="#4b689f" transform="translate(-3.627 -4.096)"/></g></svg>