<svg xmlns="http://www.w3.org/2000/svg" width="181.267" height="138.556" viewBox="0 0 181.267 138.556"><g transform="translate(-291.732 -281)"><ellipse cx="69.55" cy="69.278" rx="69.55" ry="69.278" transform="translate(309.793 281)" fill="#e0f2ff"/><path d="M85.038,18.9,47.243,42.519,9.449,18.9V9.449L47.243,33.07,85.038,9.449m0-9.449H9.449A9.416,9.416,0,0,0,0,9.449V66.14a9.449,9.449,0,0,0,9.449,9.449H85.038a9.449,9.449,0,0,0,9.449-9.449V9.449A9.446,9.446,0,0,0,85.038,0Z" transform="rotate(6.02 -2735.122 3681.754)" fill="#fdaa33"/><path d="M9.186,31.5H31.5l9.186-13.123L31.5,5.249H9.186l9.186,13.123L9.186,31.5M31.5,36.745H0L11.811,18.372,0,0H31.5a5.1,5.1,0,0,1,4.3,2.257L47.243,18.372,35.8,34.487A5.1,5.1,0,0,1,31.5,36.745Z" transform="rotate(-9 2337.873 -1979.18)" fill="#5d9cfa"/><path d="M9.186,31.5H31.5l9.186-13.123L31.5,5.249H9.186l9.186,13.123L9.186,31.5M31.5,36.745H0L11.811,18.372,0,0H31.5a5.1,5.1,0,0,1,4.3,2.257L47.243,18.372,35.8,34.487A5.1,5.1,0,0,1,31.5,36.745Z" transform="rotate(-9 2361.498 -1679.03)" fill="#5d9cfa"/><ellipse cx="15.519" cy="15.477" rx="15.519" ry="15.477" transform="translate(441.961 310.874)" fill="#5d9cfa"/><path d="M17.015,15.237v.779H3v-.779l1.557-1.557V9.008A5.443,5.443,0,0,1,8.45,3.783V3.557a1.557,1.557,0,1,1,3.115,0v.226a5.443,5.443,0,0,1,3.893,5.225v4.672l1.557,1.557m-5.45,1.557a1.557,1.557,0,0,1-3.115,0" transform="rotate(6.02 -2769.305 4418.02)" fill="#fff"/></g></svg>