<svg xmlns="http://www.w3.org/2000/svg" xmlns:xlink="http://www.w3.org/1999/xlink" height="292" viewBox="0 0 32 292" width="32"><svg height="24" viewBox="0 0 24 24" width="24" x="4" y="4" fill="none"><path d="M21 7L9 19l-5.5-5.5 1.41-1.41L9 16.17 19.59 5.59 21 7z" fill="#000"/></svg><svg height="24" viewBox="0 0 24 24" width="24" x="4" y="32" fill="none"><path d="M19 6.41L17.59 5L12 10.59L6.41 5L5 6.41L10.59 12L5 17.59L6.41 19L12 13.41L17.59 19L19 17.59L13.41 12L19 6.41Z" fill="#000"/></svg><svg height="24" viewBox="0 0 24 24" width="24" x="4" y="60" fill="none"><path d="M20.71 7.04c.39-.39.39-1.04 0-1.41l-2.34-2.34c-.37-.39-1.02-.39-1.41 0l-1.84 1.83 3.75 3.75M3 17.25V21h3.75L17.81 9.93l-3.75-3.75L3 17.25z" fill="#000"/></svg><svg height="24" viewBox="0 0 24 24" width="24" x="4" y="88" fill="none"><path d="M19 13h-6v6h-2v-6H5v-2h6V5h2v6h6v2z" fill="#67778e"/></svg><svg height="24" viewBox="0 0 24 24" width="24" x="4" y="116" fill="none"><path d="M19 13h-6v6h-2v-6H5v-2h6V5h2v6h6v2z" fill="#000"/></svg><svg height="20" viewBox="0 0 20 20" width="20" x="4" y="144" fill="none"><path d="M13.525 15L10 12.875 6.475 15l.933-4.008L4.3 8.3l4.1-.35L10 4.167l1.6 3.775 4.1.35-3.108 2.692.933 4.017zM10 1.667c-4.608 0-8.333 3.75-8.333 8.333 0 2.21.878 4.33 2.441 5.893a8.33 8.33 0 0 0 2.704 1.807c1.011.419 2.095.634 3.189.634 2.21 0 4.33-.878 5.893-2.441S18.333 12.21 18.333 10c0-1.094-.216-2.178-.634-3.189s-1.033-1.93-1.806-2.704S14.2 2.72 13.189 2.301 11.094 1.667 10 1.667z" fill="#67778e"/></svg><svg height="20" viewBox="0 0 20 20" width="20" x="4" y="168" fill="none"><path d="M13.525 15L10 12.875 6.475 15l.933-4.008L4.3 8.3l4.1-.35L10 4.167l1.6 3.775 4.1.35-3.108 2.692.933 4.017zM10 1.667c-4.608 0-8.333 3.75-8.333 8.333 0 2.21.878 4.33 2.441 5.893a8.33 8.33 0 0 0 2.704 1.807c1.011.419 2.095.634 3.189.634 2.21 0 4.33-.878 5.893-2.441S18.333 12.21 18.333 10c0-1.094-.216-2.178-.634-3.189s-1.033-1.93-1.806-2.704S14.2 2.72 13.189 2.301 11.094 1.667 10 1.667z" fill="#ffa800"/></svg><svg height="16" viewBox="0 0 16 16" width="16" x="4" y="192" fill="none"><path d="M8 1.334c-.333 0-.667.127-.94.393L1.727 7.06c-.527.52-.527 1.36 0 1.88l5.333 5.333c.52.527 1.36.527 1.88 0l5.333-5.333c.527-.52.527-1.36 0-1.88L8.94 1.727c-.273-.267-.607-.393-.94-.393zm-.667 3.333h1.333v4H7.333v-4zm0 5.333h1.333v1.333H7.333V10z" fill="#0b0de6"/></svg><svg height="16" viewBox="0 0 16 16" width="16" x="4" y="212" fill="none"><path d="M0 6.92v2h12l-5.5 5.5 1.42 1.42 7.92-7.92L7.92 0 6.5 1.42l5.5 5.5H0z" fill="#67778e"/></svg><svg height="16" viewBox="0 0 16 16" width="16" x="4" y="232" fill="none"><path d="M0 6.92v2h12l-5.5 5.5 1.42 1.42 7.92-7.92L7.92 0 6.5 1.42l5.5 5.5H0z" fill="#000"/></svg><svg height="16" viewBox="0 0 16 16" width="16" x="4" y="252" fill="none"><path d="M13.807 4.694c.26-.26.26-.693 0-.94l-1.56-1.56c-.247-.26-.68-.26-.94 0l-1.227 1.22 2.5 2.5M2 11.5V14h2.5l7.373-7.38-2.5-2.5L2 11.5z" fill="#fff"/></svg><svg height="16" viewBox="0 0 16 16" width="16" x="4" y="272" fill="none"><path d="M13.807 4.694c.26-.26.26-.693 0-.94l-1.56-1.56c-.247-.26-.68-.26-.94 0l-1.227 1.22 2.5 2.5M2 11.5V14h2.5l7.373-7.38-2.5-2.5L2 11.5z" fill="#000"/></svg></svg>