<svg xmlns="http://www.w3.org/2000/svg" width="496" height="160" fill="none"><g clip-path="url(#A)"><g fill="#fff"><path d="M462.443 78.195a50.64 50.64 0 0 1-5.489-3.246l-2.478-1.773-.726-.534a1.95 1.95 0 0 0-.278-.171l-.897-.769c-3.332-2.67-6.514-5.511-9.825-8.223-3.823-3.14-7.86-5.981-11.918-8.8-2.008-1.388-4.037-2.713-5.981-4.165-1.773-1.324-3.524-2.713-5.361-3.951-4.186-2.819-9.184-4.015-13.392-6.792-3.311-2.179-8.522.662-8.202 4.699.363 4.571 2.072 9.313 4.977 12.965-.086 0-.171.043-.278.064-1.794.491-3.054 1.751-4.4 2.948-.555.491-.94 1.111-1.217 1.816-1.474.085-2.905.619-4.187 1.858-.833.79-1.345 1.751-1.602 2.755-1.708-1.239-3.673-2.008-5.852-2.179-2.713-.235-5.318.79-7.668 2.05-3.545 1.88-7.433 4.08-9.547 7.625-1.858 3.054-1.325 6.643 1.089 9.206.854.897 1.922 1.623 2.948 2.328.47.342.939.705 1.431 1.025-.321-.256-.086-.214.149.021l.256.256c.129.085.235.15.364.214-.129-.085-.257-.15-.342-.214.107.107.235.214.342.32l1.409 1.346c1.196 1.153 2.435 2.243 3.759 3.247l1.923 1.431c-1.346.064-2.649.619-3.61 1.581l-2.627 2.606c-.107.107-.235.235-.363.342l-1.559-.449-3.802-1.111c-2.734-.79-6.045.961-6.707 3.802-.662 2.905.876 5.852 3.802 6.707l4.4 1.281c2.093.62 4.165 1.239 6.386.769a8.03 8.03 0 0 0 1.965-.726 29.56 29.56 0 0 0 2.328 3.353c.769.983 2.649 1.645 3.845 1.602 1.303-.064 2.563-.47 3.546-1.324.576 2.413 2.627 4.507 5.297 4.378.961-.042 1.922-.341 2.776-.833a6.65 6.65 0 0 0 1.901.406c2.307.171 4.614.385 6.899.662l1.666.193c.235.021.47.064.726.085l3.439.513c1.495.235 2.841.235 4.186-.556.086-.042.15-.085.235-.149 2.841 1.495 5.853 2.371 9.035 2.67 3.055.299 6.152-.385 9.056-1.26l3.631-1.111c.599-.171 1.218-.32 1.837-.47l.962-.192h.192c1.474-.128 2.776-.513 3.844-1.602 0 0 0-.022.022-.043 3.075-.534 5.916-2.307 6.899-5.51.555-1.795.341-3.525-.363-5.041h.17c2.115.085 4.934-1.73 5.255-3.994.085-.62.171-1.218.213-1.816 2.286-.107 4.4-.983 5.81-3.247 1.452-2.328 1.538-5.724.641-8.266a4.39 4.39 0 0 0 .961-1.26c1.303-2.478.769-6.087-1.944-7.454l.043.107zm-85.116 1.944l.171-.171c0-.043.043-.085.086-.128 0 .021 0 .043-.022.085.043-.064.107-.107.15-.15-.278.684-.726.769-.385.384v-.021z"/><path d="M373.632 86.952l.428.299c-.15-.085-.278-.192-.428-.278v-.021zm3.909-7.048l-.064.064c0 .043-.043.064-.021.085 0 0 .042-.043.085-.149z"/></g><path d="M41.522 130.375l-8.437-8.095c-2.371-2.371-4.678-4.763-6.856-7.304-4.549-5.276-9.355-10.317-14.439-15.101-2.371-2.221-4.336-4.891-6.493-7.326-.32-.342-.641-.833-1.047-.918-1.581-.363-2.307-1.538-2.948-2.819-.32-.641-.555-1.303-.854-1.944-.491-1.089-.662-2.136.064-3.225.278-.449.47-1.111.363-1.623-.726-3.61 1.282-6.002 3.695-8.095 1.751-1.538 3.716-2.862 5.703-4.122 7.711-4.891 14.845-10.53 21.679-16.553 3.033-2.67 6.322-5.062 9.505-7.582 8.223-6.472 16.34-13.029 24.114-20.035 3.759-3.375 7.518-6.749 11.491-9.846 3.182-2.478 6.643-4.613 10.06-6.792 2.392-1.516 5.148-2.008 7.924-2.307 2.499-.278 4.293 1.346 6.045 2.777 4.977 4.058 8.672 9.206 12.025 14.588l12.26 20.27c1.196 1.922 2.627 3.716 4.037 5.511 1.196 1.538 2.2 3.118 2.285 5.169 0 .47.235.961.449 1.41 1.068 2.328.641 4.485-.406 6.728-1.709 3.674-4.571 6.258-7.604 8.779-5.532 4.571-11.085 9.142-16.403 13.969l-24.82 23.131c-6.215 5.746-12.751 11.15-18.561 17.323-3.866 4.1-8.351 7.262-12.986 10.337-1.751 1.175-3.631 1.559-5.639 1.602-.449 0-1.025-.149-1.324-.47-1.965-2.05-3.268-4.4-2.862-7.39l-.021-.043zm2.52-24.434l-4.55 3.887 1.047 1.196 3.823-4.784c.192-.235.384-.47.577-.684-.086-.064-.15-.149-.235-.213l-.662.619v-.021zM20.59 99.213c1.816.278 3.375-.897 4.87-2.328 1.281-1.239 2.67-2.35 4.037-3.481l15.25-12.324c1.047-.854 2.05-1.752 3.118-2.563 1.794-1.388 3.716-2.648 5.425-4.122l15.784-13.691c2.157-1.837 4.528-3.417 6.771-5.169l12.666-9.761c4.763-3.46 9.697-6.707 14.545-10.081 1.602-1.111 3.14-2.157 3.994-4.186.641-1.474.919-2.777.598-4.229s-.79-2.862-1.196-4.293c-.555-1.965-1.068-2.328-3.033-1.88-1.089.256-2.2.641-3.161 1.175-1.239.683-2.35 1.602-3.481 2.435L69.395 44.683l-10.829 7.946c-2.414 1.751-4.955 3.353-7.283 5.212-4.549 3.631-9.056 7.347-13.477 11.149-3.289 2.819-6.536 5.703-9.654 8.714-4.229 4.101-8.33 8.351-12.495 12.516-1.26 1.26-1.538 2.414-.876 3.994l.812 1.965c.897 2.008 2.755 3.225 4.998 3.012v.021zm46.178-4.699c-1.217.47-2.285.705-3.14 1.239-1.858 1.153-3.652 2.435-5.425 3.716-.726.534-1.111 1.346-.748 2.264.278.726.598 1.452 1.025 2.093.449.684 1.047.919 1.986.855 2.713-.235 4.571-1.859 6.28-3.674.619-.662 1.068-1.773 1.047-2.692 0-1.153-.598-2.285-1.025-3.802zm-17.771 14.609c-1.175-.705-2.414-.342-3.439.192-1.153.577-2.157 1.496-3.076 2.414-.299.299-.299 1.047-.214 1.559.107.62.406 1.196.684 1.773.79 1.666 1.559 2.05 3.375 1.709 2.093-.385 4.037-2.991 3.546-4.806-.256-.94-.577-1.88-.876-2.841zm6.408-5.66c-1.986-.235-3.14.897-4.464 1.837-.833.598-1.538 1.153-1.324 2.157.278 1.303.662 2.777 2.072 3.268 1.132.385 2.499.171 3.353-.79.79-.919 1.687-1.965 1.346-3.375-.256-1.004-.619-1.986-.961-3.076l-.021-.021zM75.44 86.76c-.854.171-1.666.192-2.328.513-.726.363-1.303 1.025-1.986 1.474-1.431.983-1.645 1.388-1.196 2.691.683 2.072 1.474 2.755 2.969 2.648 2.52-.171 3.973-2.307 3.225-4.763-.235-.726-.385-1.474-.684-2.584v.021zm43.102-29.689c-.256-.085-.406-.171-.555-.171-.064 0-.192.235-.15.32.043.128.214.235.321.342l.384-.47v-.021z" fill="#1a6ffe"/><path d="M457.936 77.918c-6.258-5.211-12.431-10.081-18.134-15.549-2.093-2.008-4.485-3.695-6.706-5.596-1.282-1.111-2.521-2.285-3.717-3.482-.213-.214-.128-.748-.171-1.132.449 0 .983-.128 1.303.085 5.169 3.396 10.466 6.6 14.93 10.979 1.773 1.73 3.93 3.054 5.853 4.635 1.815 1.474 3.567 3.054 5.382 4.528.876.705 1.858 1.281 2.862 1.965.79-1.324 1.41-2.52 2.179-3.61 1.324-1.88 2.712-2.371 4.805-1.538 4.657 1.858 9.484 1.687 14.29 1.175 1.217-.128 2.136.085 2.862.897 1.409 1.559 2.627 3.311 4.122 4.763 3.546 3.46 4.25 8.074 5.361 12.538.342 1.388.577 2.713 1.431 3.93 1.752 2.585 1.73 5.383.192 8.074-.939 1.623-1.815 3.182-1.73 5.147 0 .406-.171.833-.32 1.239l-3.802 11.064c-.406 1.26-.662 2.606-.812 3.93-.256 2.178-1.11 3.973-2.712 5.489-1.089 1.025-2.029 2.179-3.033 3.289-.321-.042-.598-.042-.876-.106l-14.887-3.696-10.103-2.669c-.854-.193-1.815.021-2.712.128-.406.042-.812.256-1.197.427-2.84 1.239-6.322 0-7.048-3.909l-.384-2.093c-.684.107-1.367.15-2.008.342-3.717 1.217-7.497 2.264-11.406 2.52-5.81.385-11.491-.299-16.767-3.011-.256-.129-.534-.214-.747-.385-.769-.555-1.132-1.324-.726-2.221.384-.876 1.153-1.218 2.114-1.068.278.043.555.107.833.213 5.19 2.051 10.637 2.606 16.105 2.008 3.011-.32 5.938-1.324 8.906-2.05 1.239-.299 2.435-.705 3.888-1.111.833-6.28 2.477-12.538 4.763-18.582 2.285-6.023 4.507-12.111 7.881-17.536l-.064-.021z" fill="#030303"/><path d="M348.792 74.906l-1.901-1.666c-2.926-2.691-3.417-5.617-.918-8.672a35.25 35.25 0 0 0 6.215-11.299c.577-1.73 1.538-3.14 3.396-3.866.748-.299 1.431-.94 1.986-1.581 1.709-1.88 3.76-3.225 6.066-4.229 1.517-.662 2.905-1.602 4.763-2.67-3.075-.555-5.553.085-8.031.449-5.959.897-11.854 2.093-17.898 2.499-4.315.299-8.587.983-12.88 1.495-1.345.15-2.691.235-4.015.449-1.666.278-3.354.555-4.977 1.025-2.029.577-2.456.491-3.14-1.559-.897-2.627-1.815-5.254-2.456-7.924-1.025-4.208-1.773-8.479-2.713-12.687-.256-1.153-.085-1.986 1.004-2.478 1.538-.705 3.055-1.559 4.657-1.944 3.246-.748 6.557-1.153 9.825-1.773 5.233-.961 10.53-1.666 15.634-3.033 7.327-1.944 14.717-2.905 22.299-2.99 6.408-.064 12.068 1.944 17.621 4.934 6.387 3.439 10.957 8.736 15.422 14.225.448.555.961 1.132 1.132 1.794.491 1.816 1.73 2.563 3.438 3.033 1.431.384 2.798 1.025 4.101 1.73l17.386 9.526c.684.384 1.837.662 1.239 1.816-.598 1.196-1.474.363-2.178.043l-18.583-8.586c-.683-.32-1.431-.555-2.413-.919.576 2.008 1.153 3.738 1.516 5.511.385 1.88.684 3.78.769 5.681.192 4.485.278 8.949.342 13.435 0 1.004.384 1.346 1.303 1.816 2.243 1.111 4.912 1.517 6.536 3.717.277.385.769.79.79 1.196.021.577-.128 1.346-.513 1.666-.363.32-1.132.256-1.708.256-.235 0-.492-.256-.705-.448-1.154-1.111-2.542-1.666-4.037-2.157-3.652-1.196-7.305-2.072-11.235-1.794-5.446.384-10.914.064-16.318-.897-.897-.15-1.453 0-2.093.577-1.111 1.004-2.328 1.88-3.439 2.862-.79.683-1.645 1.367-2.264 2.2-1.26 1.709-2.392 3.503-3.61 5.318.94.641 1.816 1.388 2.798 1.88 3.631 1.816 6.322 4.763 9.355 7.369 2.457 2.114 5.212 3.909 7.796 5.874 5.447 4.101 11.662 7.091 16.618 11.897 1.773 1.73 3.823 3.182 5.745 4.742l1.837 1.473c.577.47 1.196.962.577 1.752-.513.641-1.154.384-1.73 0-2.713-1.816-5.554-3.482-8.095-5.511a60.56 60.56 0 0 0-9.655-6.237c-1.943-1.003-3.801-2.221-5.702-3.31-1.431-.812-2.862-1.602-4.336-2.285-.449-.192-1.111-.171-1.581 0-1.623.662-3.204 1.431-5.041 2.264l.406 4.699c.193 1.73.919 3.033 2.67 3.717 1.175.448 2.221 1.239 3.354 1.837 1.174.64 1.922 1.602 1.687 2.926-.107.662-.684 1.452-1.26 1.751-.492.257-1.41.064-1.944-.256-1.73-1.068-3.332-2.371-5.083-3.439-1.453-.897-2.329-2.093-2.371-3.802-.064-2.178 0-4.378 0-6.835l-9.633 1.944c0 2.051 0 2.051 1.495 2.67.513.214 1.068.427 1.516.748.705.469 1.047 1.153.812 2.029-.235.897-.918 1.217-1.73 1.345-1.965.299-4.977-1.495-5.639-3.417-.277-.79-.406-1.645-.619-2.478l-9.654 1.73c-.897.15-1.837.192-2.756.235-3.545.192-7.112.278-10.636.62-1.517.149-3.012.726-4.486 1.217-1.709.577-2.371.449-2.734-1.196-1.559-6.984-4.549-13.606-5.062-20.846-.064-1.047-.363-2.093-.705-3.097-.32-.94-.341-1.645.684-2.115.769-.342 1.474-.833 2.264-1.068 4.442-1.346 9.077-1.495 13.648-2.029l7.711-.961.064.085zm-.064 4.037c-1.225.157-1.759.712-1.602 1.666l1.58 6.493c.385 4.464 1.88 8.65 3.097 12.922l1.859-.384c.149 0 .299.021.427 0l17.279-3.482c2.585-.555 5.212-1.132 7.583-2.606-.94-.854-1.73-1.666-2.606-2.371-2.051-1.623-4.101-3.289-6.237-4.784-1.495-1.047-3.161-1.837-4.699-2.841-1.815-1.153-2.734-2.841-2.627-5.019.043-.683.192-1.346.299-1.986l-12.815 2.264-1.538.107v.021zm-7.967-39.044c2.691-.192 5.19-.214 7.646-.555 4.486-.641 8.971-1.431 13.435-2.243 4.827-.854 9.59-1.047 14.311.705 2.734 1.004 5.19 2.563 6.066 5.318 2.071 6.493 4.058 13.114.363 19.778 0 .043.042.128.213.513l18.22.662c.064-.128.17-.235.17-.363l-.042-10.017v-1.239c0-1.474.299-3.012-.043-4.421-1.452-5.981-3.524-11.619-7.796-16.34-3.652-4.058-7.412-7.86-12.388-10.274-3.055-1.495-5.938-3.46-9.377-4.015-6.365-1.047-12.794-.94-19.116.15-5.169.897-10.231 2.307-15.357 3.482-.107.021-.192.192-.449.47.812 6.109 2.627 12.153 4.187 18.433l-.043-.043zm34.794 2.649l-7.583 3.93c-.384.192-.854.342-1.089.662-1.089 1.452-2.734 1.944-4.272 2.67l-1.345.662c-2.435 1.367-4.657 2.926-5.362 5.895-.149.619-.469 1.196-.683 1.794-.94 2.563-2.157 4.955-4.08 6.92-.534.555-.961 1.239-1.409 1.858-1.004 1.41-1.047 2.136.171 3.353 1.046 1.047 2.306 1.88 3.524 2.734 1.217.876 2.52 1.068 4.015.619 1.773-.513 3.589-.812 5.383-1.26 2.648-.684 4.912-1.751 6.685-4.122 1.581-2.114 3.738-3.93 6.365-4.827 2.841-.983 4.913-3.482 4.806-6.45-.107-2.905-.427-5.81-.79-8.693-.321-2.563-1.688-4.485-4.315-5.746h-.021zm-59.143-17.322c.79 5.98 2.306 11.769 4.336 17.237l16.083-2.179-4.293-18.326c-.427 0-.919 0-1.389.064-4.998.662-9.91 1.623-14.716 3.204h-.021zm12.345 56.195c.491 7.326 2.542 13.883 4.87 20.44 4.678-1.495 9.441-1.196 14.011-1.794l-4.72-20.291-7.176.683c-2.307.278-4.593.619-6.985.961z" fill="#090707"/><path d="M229.609 85.329c-.662 4.72-1.645 9.12-6.109 11.683-.662.385-1.409.62-2.114.961-.897.427-1.859.748-2.67 1.303-3.161 2.243-6.75 2.243-9.889.064-1.068-.748-2.371-1.175-3.589-1.73-.32-.15-.769-.085-1.004-.32-2.52-2.435-5.724-4.037-7.732-7.134-2.862-4.4-4.634-9.248-6.514-14.076-.534-1.367-.79-2.862-1.025-4.336-.385-2.52-.705-5.041-.94-7.582-.085-.961-.171-2.029.149-2.884.898-2.349 2.286-4.4 4.486-5.767 2.243-1.388 4.485-2.734 7.219-2.883.192 0 .427-.107.577-.235 2.2-2.157 4.549-1.047 6.877-.32 1.966.619 3.76 1.559 5.212 3.076 1.965 2.029 3.887 4.101 5.959 5.98 4.08 3.674 6.814 8.095 8.095 13.456.705 2.948 2.222 5.66 2.627 8.715.086.705.235 1.388.342 1.986l.043.043zm-31.376-29.561c-1.56 1.41-3.226 2.713-4.678 4.229-1.132 1.196-1.922 2.627-1.581 4.443.47 2.499.876 4.998 1.261 7.518.704 4.656 2.926 8.693 5.104 12.751.641 1.175 1.282 2.392 2.158 3.396 1.901 2.2 4.293 3.823 6.642 5.489.064.043.128.043.192.064l3.738 1.858c1.26.641 2.499 1.623 3.973.897 1.901-.94 3.717-2.072 5.724-3.204-.811-.278-1.623-.384-2.242-.79-2.927-1.965-6.066-3.674-8.245-6.579-.534-.726-1.324-1.282-2.008-1.901-.448-.427-1.046-.79-1.345-1.324-1.56-2.755-3.46-5.361-4.123-8.565-.17-.812-.576-1.602-.961-2.349-.726-1.474-1.367-2.926-1.431-4.635-.043-.897-.342-1.837-.726-2.648-1.303-2.713-1.602-5.532-1.452-8.693v.043zm13.627 14.204l2.819 6.429c-.235.342-.342.534-.491.684-.513.598-.833 1.239-.128 1.858.683.598 1.345.235 1.901-.278.683-.619 1.388-1.239 2.007-1.922.833-.919.598-2.008-.619-2.221-.919-.15-1.132-.641-1.431-1.281l-3.396-7.326c-.064-.128-.107-.299-.193-.363-.448-.299-.961-.812-1.388-.748-.406.064-.876.705-1.004 1.175-.213.812-.213 1.687-.277 2.542-.15 1.837.128 2.05 2.2 1.452z" fill="#1a6ffe"/><path d="M216.708 120.892c.427-3.759 1.431-7.283 4.592-9.825.641-.513 1.068-1.26 1.581-1.922.256-.342.427-.748.726-1.047 2.115-2.2 4.165-4.464 6.429-6.493 1.239-1.111 2.755-2.051 4.315-2.691 4.25-1.773 8.479-3.716 12.9-4.891 4.721-1.239 9.292-.235 12.965 3.375.214.192.449.385.577.619 1.559 2.67 3.311 5.276 4.614 8.074 1.217 2.585.32 5.169-1.047 7.497-.577 1.004-.94 1.987-1.239 3.097-.32 1.26-1.153 2.392-1.858 3.525-.748 1.196-1.602 2.328-2.456 3.438-.47.62-.962 1.26-1.581 1.688-3.417 2.306-6.813 4.613-10.53 6.429-3.161 1.538-6.408 2.606-9.889 3.118-2.093.299-4.186.79-6.237 1.324-1.41.363-2.67.086-3.909-.491-4.4-2.008-6.792-5.639-8.137-10.103-.15-.512-.214-1.26-.577-1.495-1.218-.811-1.367-1.901-1.218-3.225h-.021zm4.678 5.233c1.901 2.093 3.46 3.887 5.468 5.254 1.281.876 2.584 1.047 4.036.662 1.517-.405 3.012-.918 4.55-1.089 5.617-.641 10.316-3.396 14.994-6.194 1.516-.897 3.097-1.837 4.314-3.097 1.453-1.517 2.542-3.375 3.76-5.084.17-.234.299-.512.32-.79.149-1.837 1.004-3.353 1.965-4.87 1.047-1.687.94-3.289-.406-4.891-.79-.961-1.26-2.178-1.879-3.289-.171-.321-.385-.598-.641-1.004-1.431 4.25-4.165 8.394-7.433 11.406-.406.384-.684.897-1.047 1.324-.384.491-.705 1.111-1.217 1.452-2.585 1.73-5.062 3.546-8.053 4.657-3.225 1.217-6.364 2.627-9.611 3.802-2.862 1.025-5.639 1.751-9.142 1.73l.022.021zm21.957-22.854l1.324 1.153c.491.406 1.004.513 1.516 0 .534-.555.257-1.025-.106-1.495l-1.688-2.2c-.79-.982-1.452-1.132-2.605-.512-.876.469-1.688 1.067-2.478 1.644-2.093 1.538-2.286 2.2-1.431 4.72.085.278.171.556.299.791.448.918.534 1.773-.321 2.499-.875.747-1.836 1.11-2.947.619-.577-.256-1.111-.641-1.687-.897-.876-.427-1.816-.171-2.243.555a1.81 1.81 0 0 0 .47 2.307c1.943 1.41 4.101 1.965 6.429 1.175 3.033-1.047 4.464-3.909 3.567-6.942l-.492-1.687 2.393-1.709v-.021z" fill="#040505"/><path d="M237.64 27.084c0-3.973 2.2-6.579 5.361-8.608 1.303-.833 2.627-1.645 3.845-2.606 2.883-2.307 5.937-2.05 9.034-.726 1.303.555 2.521 1.153 3.995 1.303 1.046.107 2.071.833 3.033 1.388a68.13 68.13 0 0 1 3.951 2.435c.641.427 1.26.94 1.73 1.538 2.499 3.183 4.998 6.344 7.027 9.889 1.794 3.118 3.076 6.365 3.866 9.868.363 1.581.79 3.183 1.367 4.699 1.196 3.247.256 6.066-1.751 8.544-2.179 2.691-4.87 4.742-8.373 5.532 1.815-3.738.982-7.326-.662-10.829s-2.756-7.262-5.084-10.444c-.042-.064-.042-.128-.064-.192-1.751-3.674-3.716-7.155-7.454-9.227-.299-.171-.555-.449-.79-.705-2.627-2.862-6.045-4.507-9.548-5.831-4.058-1.538-7.86-.192-9.077 3.973h-.428.022z" fill="#030404"/><path d="M238.067 27.083c1.217-4.165 5.019-5.511 9.078-3.973 3.502 1.324 6.92 2.969 9.547 5.831.235.256.491.534.79.705 3.738 2.072 5.703 5.553 7.455 9.227.021.064.021.15.064.192 2.328 3.161 3.438 6.942 5.083 10.445 1.666 3.503 2.499 7.091.662 10.829l-.94.491c-3.182.577-6.044-.384-8.671-2.008l-13.115-8.309-1.922-2.478-2.862-3.887-1.303-1.73.043.043-.427-.427-.919-2.179-1.175-3.481c-.705-3.076-1.516-6.13-1.367-9.312l-.021.021zm16.724 13.093l-.363-3.311c-.15-1.709-1.239-2.734-2.691-3.247-1.132-.406-2.414-.577-3.439.342-2.136 1.944-1.495 5.019 1.239 5.959.854.278 1.751.406 2.712.619 0 1.431-.064 2.777 0 4.122.086 1.239.47 2.349 1.773 2.926 1.324.577 2.67.342 3.695-.705 1.239-1.282 1.538-3.012.769-4.507-.918-1.794-1.922-2.392-3.716-2.179l.021-.021z" fill="#1a6ffe"/><path d="M389.758 101.711c1.517.47 1.752 1.431 1.837 2.329l.385 5.318c.042 1.175 0 2.157 1.559 2.563 1.26.32 2.371 1.196 3.524 1.88 1.218.704 1.794 1.772 1.538 2.776-.427 1.752-2.285 2.371-3.61 1.175-1.153-1.025-2.67-1.73-4.122-2.349-.961-.406-1.58-.919-1.751-1.923-.129-.705-.299-1.409-.278-2.093l.363-7.881c.043-.577.342-1.132.555-1.795z" fill="#0c0c0c"/><path d="M247.999 50.536l13.114 8.309c2.649 1.623 5.511 2.584 8.672 2.008-.406.427-.79 1.175-1.26 1.239-1.367.192-2.798.299-4.165.064-1.922-.32-3.887-.705-5.511-1.901-.107-.085-.277-.107-.384-.192l-6.087-4.806-2.329-1.816-2.627-2.435a11.14 11.14 0 0 1 .534-.491l.043.021z" fill="#0f1614"/><path d="M183.153 47.695c-.683.79-1.239.427-1.73 0l-4.87-4.507c-.705-.748-1.175-1.751-1.602-2.713-.128-.278.235-1.004.534-1.175s1.047-.021 1.282.235l6.066 7.476c.171.192.213.491.299.705l.021-.021z" fill="#141414"/><path d="M176.745 54.572c-1.367-.598-2.798-1.089-4.079-1.837-1.132-.662-1.538-1.88-1.089-2.499.469-.662 1.409-.491 2.712.235 1.367.769 2.82 1.388 4.229 2.05.257.128.556.15.833.235.705.235 1.431.619 1.154 1.474-.278.897-1.068.769-1.795.577l-1.879-.449c-.021.064-.064.15-.086.214z" fill="#0c0c0c"/><path d="M187.553 34.708c.107.064.491.128.577.32l2.072 4.357c.085.192-.321.748-.641.918-.214.128-.812 0-.94-.171l-2.414-4.464c-.299-.619.385-1.153 1.325-.983l.021.021z" fill="#141414"/><path d="M238.067 27.084c-.149 3.204.641 6.258 1.367 9.313l-.47.513c-1.303-2.883-2.328-5.81-1.623-9.035.064-.278.192-.534.299-.79h.427zm9.932 23.452l-.534.491c-2.499-1.666-3.652-4.336-5.019-6.835h.747l2.862 3.887 1.923 2.478.021-.021zm-20.804 4.079c.513.684 1.004 1.047 1.068 1.474.128.79-.448 1.089-1.196 1.047-.662-.043-1.111-.427-.961-1.089.107-.449.577-.79 1.089-1.452v.021zm7.326-2.67c.47.619.876.94.919 1.324.043.256-.449.833-.641.812-.384-.064-.94-.385-1.004-.684-.064-.32.342-.748.705-1.431l.021-.021z" fill="#1e2d28"/><path d="M238.964 36.909l.47-.513 1.175 3.481-1.645-2.969z" fill="#44665c"/><path d="M234.479 60.639c-.299.256-.534.577-.662.555-.299-.085-.534-.363-.791-.555.257-.192.492-.47.791-.555.149-.043.384.299.683.555h-.021z" fill="#1e2d28"/><path d="M243.215 44.171h-.748l-.555-1.73 1.303 1.73z" fill="#44665c"/><path d="M20.59 99.213c-2.243.214-4.079-1.004-4.998-3.012l-.812-1.965c-.662-1.581-.385-2.755.876-3.994l12.495-12.516c3.118-3.012 6.365-5.895 9.654-8.715 4.421-3.781 8.928-7.497 13.478-11.149 2.328-1.858 4.87-3.46 7.283-5.212l10.829-7.946 27.382-19.971c1.153-.833 2.264-1.73 3.481-2.435.961-.534 2.072-.918 3.161-1.175 1.965-.47 2.456-.107 3.033 1.88.406 1.431.897 2.841 1.196 4.293.321 1.452.022 2.755-.598 4.229-.876 2.05-2.392 3.076-3.994 4.186L88.512 45.794c-4.315 3.14-8.437 6.514-12.666 9.761-2.243 1.73-4.614 3.332-6.771 5.169L53.291 74.415c-1.73 1.474-3.631 2.734-5.425 4.122-1.068.833-2.072 1.73-3.118 2.563l-15.25 12.324c-1.388 1.111-2.755 2.243-4.037 3.481-1.495 1.431-3.033 2.606-4.87 2.328v-.021z" fill="#000103"/><path d="M66.768 94.514c.449 1.516 1.004 2.67 1.025 3.802a4.32 4.32 0 0 1-1.047 2.691c-1.709 1.815-3.567 3.439-6.28 3.674-.94.085-1.538-.15-1.986-.855-.427-.662-.748-1.367-1.025-2.093-.342-.918.021-1.73.748-2.264l5.425-3.716c.876-.534 1.922-.769 3.14-1.239zm-17.77 14.609l.876 2.841c.491 1.816-1.452 4.4-3.546 4.806-1.815.342-2.584-.043-3.375-1.709-.278-.576-.577-1.153-.684-1.773-.085-.512-.085-1.26.214-1.559.918-.918 1.944-1.837 3.076-2.413 1.025-.513 2.264-.876 3.439-.193zm6.407-5.66l.961 3.076c.342 1.409-.555 2.456-1.346 3.374-.833.961-2.221 1.175-3.353.791-1.388-.47-1.794-1.944-2.072-3.268-.214-1.004.491-1.581 1.324-2.158 1.324-.939 2.499-2.071 4.464-1.836l.021.021z" fill="#f6f9ff"/><path d="M75.44 86.76l.684 2.584c.748 2.456-.684 4.592-3.225 4.763-1.516.107-2.285-.598-2.969-2.648-.427-1.281-.214-1.709 1.196-2.691.683-.47 1.26-1.132 1.986-1.474.662-.32 1.453-.342 2.328-.513v-.021z" fill="#f0f6ff"/><path d="M44.384 106.24l-3.823 4.784-1.047-1.196 4.549-3.887.32.299z" fill="#d3e3ff"/><path d="M118.542 57.071l-.384.47c-.107-.107-.257-.214-.321-.342a.46.46 0 0 1 .15-.32c.149 0 .299.085.555.171v.021zm-74.5 48.87l.662-.62c.085.064.149.15.235.214l-.577.683-.32-.299v.022z" fill="#a3e9e0"/><path d="M340.761 39.899c-1.559-6.279-3.375-12.324-4.186-18.433.256-.278.341-.448.448-.47 5.105-1.196 10.188-2.606 15.357-3.482 6.322-1.089 12.751-1.196 19.116-.149 3.418.555 6.301 2.542 9.377 4.015 4.977 2.414 8.736 6.216 12.388 10.274 4.272 4.72 6.344 10.38 7.796 16.34.342 1.388.043 2.947.043 4.421v1.239l.043 10.017c0 .128-.107.256-.171.363l-18.219-.662c-.15-.384-.214-.47-.214-.513 3.695-6.664 1.73-13.264-.363-19.778-.876-2.755-3.353-4.315-6.066-5.318-4.699-1.751-9.462-1.559-14.311-.705l-13.434 2.243c-2.457.342-4.956.384-7.647.555l.043.043z" fill="#fd0000"/><path d="M375.555 42.547c2.627 1.26 3.994 3.182 4.314 5.746l.79 8.693c.107 2.969-1.943 5.489-4.805 6.45-2.627.897-4.785 2.713-6.365 4.827-1.773 2.371-4.037 3.439-6.686 4.122l-5.382 1.26c-1.495.449-2.798.256-4.016-.619s-2.477-1.687-3.524-2.734c-1.217-1.218-1.175-1.944-.171-3.353.449-.641.876-1.324 1.41-1.858 1.944-1.986 3.14-4.379 4.08-6.92.213-.598.534-1.175.683-1.794.705-2.947 2.926-4.507 5.361-5.895l1.346-.662c1.538-.726 3.182-1.217 4.272-2.67.235-.32.704-.47 1.089-.662l7.582-3.93h.022z" fill="#fcfcfc"/><path d="M348.706 87.102l-1.58-6.493 1.58-1.025 1.56-.748 12.815-2.264-.299 1.986c-.107 2.179.812 3.866 2.627 5.019l4.699 2.841 6.237 4.784c.876.705 1.666 1.516 2.606 2.371-2.371 1.474-4.977 2.05-7.583 2.606l-17.279 3.481c-.128.021-.278 0-.427 0-1.047-1.175-1.047-2.713-1.495-4.101l-2.307-6.749c-.235-.619-.769-1.132-1.154-1.709z" fill="#fc0202"/><path d="M316.412 25.225c4.805-1.559 9.718-2.542 14.716-3.204.47-.064.961-.043 1.388-.064l4.294 18.326-16.084 2.179c-2.029-5.489-3.524-11.256-4.336-17.237h.022zm12.345 56.196l6.985-.961 7.176-.684 4.72 20.291c-4.549.598-9.333.299-14.011 1.794-2.328-6.536-4.379-13.114-4.87-20.44z" fill="#fbfbfb"/><path d="M348.706 87.102c.406.555.94 1.068 1.154 1.709l2.307 6.749c.448 1.388.448 2.926 1.495 4.101l-1.858.385c-1.239-4.272-2.734-8.459-3.098-12.923v-.021z" fill="#f1e1e1"/><path d="M348.706 79.562l-1.58 1.025c-.157-.954.377-1.509 1.602-1.666v.641h-.022z" fill="#f2f2f2"/><path d="M348.706 79.563v-.641l1.538-.107-1.559.748h.021z" fill="#f1e1e1"/><path d="M198.233 55.769c-.15 3.161.149 5.98 1.452 8.693.384.812.705 1.751.726 2.649.064 1.709.726 3.161 1.431 4.635.385.769.791 1.538.961 2.349.663 3.204 2.563 5.81 4.123 8.565.299.534.875.876 1.345 1.324.662.641 1.453 1.175 2.008 1.901 2.179 2.926 5.318 4.635 8.245 6.579.598.406 1.409.513 2.242.79-1.986 1.132-3.802 2.243-5.724 3.204-1.474.726-2.713-.256-3.973-.897-1.239-.641-2.499-1.239-3.738-1.858-.064-.021-.149-.021-.192-.064-2.349-1.666-4.763-3.311-6.642-5.489-.876-1.004-1.517-2.221-2.158-3.396-2.178-4.058-4.4-8.095-5.104-12.751-.385-2.52-.791-5.019-1.261-7.518-.341-1.816.449-3.268 1.581-4.443 1.431-1.516 3.097-2.819 4.678-4.229v-.043z" fill="#feffff"/><path d="M211.86 69.972c-2.072.598-2.35.385-2.2-1.452.064-.854.064-1.73.277-2.542.128-.47.598-1.111 1.004-1.175s.919.449 1.388.748c.107.064.15.235.193.363l3.396 7.326c.299.641.512 1.132 1.431 1.282 1.239.214 1.474 1.303.619 2.221-.619.684-1.303 1.303-2.008 1.922-.555.491-1.217.854-1.9.278-.705-.619-.385-1.26.128-1.858.128-.15.235-.342.491-.683l-2.819-6.429z" fill="#08120f"/><path d="M221.386 126.125c3.503.043 6.279-.705 9.141-1.73 3.268-1.175 6.387-2.585 9.612-3.802 2.99-1.132 5.468-2.948 8.052-4.656.513-.342.812-.961 1.218-1.453.341-.448.64-.961 1.046-1.324 3.268-3.012 6.023-7.177 7.433-11.406.256.406.47.705.641 1.004.619 1.111 1.068 2.35 1.879 3.29 1.346 1.601 1.453 3.203.406 4.891-.961 1.516-1.815 3.033-1.965 4.87 0 .277-.171.555-.32.79-1.239 1.73-2.328 3.588-3.759 5.083-1.196 1.26-2.798 2.179-4.315 3.097-4.677 2.798-9.398 5.575-14.994 6.194-1.538.171-3.033.684-4.549 1.09-1.453.384-2.777.213-4.037-.662-2.008-1.367-3.546-3.161-5.468-5.255l-.021-.021z" fill="#fafafa"/><path d="M243.343 103.271l-2.393 1.709.492 1.687c.897 3.033-.534 5.895-3.567 6.942-2.328.811-4.486.256-6.429-1.175-.726-.534-.897-1.581-.47-2.307s1.345-.982 2.243-.555c.576.278 1.089.662 1.687.897 1.111.491 2.072.128 2.947-.619.855-.727.769-1.581.321-2.499-.128-.257-.214-.534-.299-.791-.855-2.499-.662-3.182 1.431-4.72l2.477-1.645c1.154-.619 1.816-.47 2.606.513l1.688 2.2c.363.47.64.961.106 1.495-.512.513-1.003.406-1.516 0l-1.324-1.153v.021z" fill="#b5f6f0"/><path d="M254.791 40.176c1.794-.214 2.798.384 3.717 2.179.768 1.495.469 3.225-.769 4.507-1.026 1.068-2.371 1.281-3.695.705-1.303-.555-1.688-1.687-1.773-2.926-.086-1.346 0-2.691 0-4.122l-2.713-.619c-2.734-.94-3.375-4.016-1.239-5.959 1.026-.918 2.307-.726 3.439-.342 1.474.513 2.542 1.538 2.691 3.246l.363 3.311-.021.021zm.385 1.794l-.47.256c0 .641-.064 1.282.021 1.901.064.449.299.897.577 1.239.064.085.769-.107.854-.32.214-.47.427-1.111.256-1.538-.235-.577-.811-1.025-1.238-1.538zm-3.119-3.503c.107-1.41-.213-2.136-1.132-2.414-.299-.085-.876.086-1.046.342-.15.235-.043.876.17 1.047.513.384 1.154.619 2.008 1.025z" fill="#08120f"/><path d="M255.176 41.971c.427.513 1.003.961 1.238 1.538.171.427-.042 1.068-.256 1.538-.085.214-.812.406-.854.32-.278-.363-.513-.812-.577-1.239-.085-.62-.021-1.26-.021-1.901l.47-.256zm-3.119-3.503c-.854-.406-1.495-.619-2.008-1.025-.213-.171-.32-.812-.17-1.047.17-.256.726-.427 1.046-.342.919.256 1.239.982 1.132 2.413z" fill="#1a6ffe"/><path d="M156.006 122.729c-1.111 1.281-2.029 2.691-3.289 3.674-4.037 3.182-8.544 4.955-13.862 4.229-3.012-.406-5.81-1.239-8.437-2.798l-5.532-3.183-4.315 1.73c-2.37.855-4.827 1.346-7.39 1.239-1.666-.064-3.353 0-5.019.043h-.79c-1.047-.064-1.432-.363-1.453-1.068 0-.662.427-1.025 1.41-1.068l3.759-.15c4.208-.128 8.116-1.367 11.854-3.268.235-.106.427-.299.748-.534-.513-1.388-.919-2.798-1.538-4.101-.897-1.879-1.175-3.759-.619-5.788.256-.961.32-1.965.512-2.947.363-2.051 1.303-3.866 2.585-5.49 1.367-1.73 3.097-2.178 5.19-1.452 3.481 1.175 5.788 4.827 5.404 8.479-.235 2.414-1.132 4.593-2.563 6.494-1.474 1.965-3.183 3.737-4.806 5.596-.299.341-.662.64-1.111 1.046.491.363.876.705 1.303.94 1.751.94 3.46 1.986 5.297 2.755 5.895 2.499 11.619 2.264 17.002-1.495 1.431-1.004 2.541-2.307 3.46-3.908-1.068-.641-2.136-1.197-3.097-1.88-1.111-.79-2.243-1.602-3.14-2.584-2.136-2.393-1.41-5.383 1.517-6.664 1.965-.855 3.994-.833 5.98-.065 2.371.919 3.631 3.162 3.289 5.831-.149 1.132-.491 2.243-.79 3.546 3.097.705 6.13 2.05 9.355.32 1.004-.534 2.115-.918 3.183-1.367 1.943-.833 3.695-1.943 5.147-3.524.748-.811 1.56-1.538 2.371-2.307 1.282-1.196 1.688-2.734 1.666-4.421 0-1.111.214-1.602.876-1.773.662-.192 1.559.235 1.879 1.09.257.704.449 1.537.385 2.285-.128 1.944-.983 3.631-2.392 4.977-1.175 1.132-2.264 2.349-3.546 3.332-1.41 1.068-2.905 2.05-4.485 2.84-1.73.876-3.567 1.517-5.361 2.243-1.196.491-2.414.684-3.695.449l-6.921-1.303h-.021zm-30.586-2.093c1.046-1.047 2.029-1.944 2.947-2.948 1.666-1.815 3.204-3.738 4.144-6.045 1.153-2.862.577-5.403-1.687-7.39-2.051-1.794-4.037-1.538-5.532.726-.235.342-.427.727-.62 1.09-1.303 2.477-1.345 5.233-1.73 7.924a1.93 1.93 0 0 0 .128.918l2.35 5.725zm29.966-1.688c.193-1.303.406-2.264.449-3.246.043-1.218-.598-2.115-1.773-2.499-1.217-.385-2.477-.363-3.674.192-1.089.513-1.217 1.025-.384 1.901 1.431 1.559 3.225 2.563 5.382 3.631v.021zm152.952-83.941c-1.047-.683-2.136-1.239-3.289-1.73-1.004-.427-2.371-1.153-3.46-.662-1.175.513-1.581 2.264-1.859 3.396-.171.662-.277 1.346-.341 2.008 0 .171-.043.342-.064.534-.513-.192-1.026-.363-1.56-.47a12.61 12.61 0 0 0-3.588-.15c-.918.085-1.709.726-1.709 1.709s.791 1.816 1.709 1.709c1.282-.128 2.52-.085 3.759.256 1.154.32 2.392 1.217 3.61.513 1.175-.683 1.111-1.944 1.175-3.118.042-.833.149-1.922.448-2.841 1.218.448 2.371 1.111 3.439 1.794 1.858 1.196 3.567-1.751 1.73-2.948zm11.427 59.037a21.85 21.85 0 0 0-2.328-1.645c-.79-.47-1.794-1.218-2.777-1.068s-1.516 1.217-1.837 2.179l-.662 2.05c-.94-.043-1.943-.235-2.84-.32l-3.845-.32c-2.2-.192-2.563 3.204-.385 3.396l7.476.619c1.282.064 2.136-.427 2.585-1.666l.619-1.944.406.299 1.58 1.153c1.709 1.388 3.717-1.388 2.008-2.777v.043z" fill="#0c0c0c"/></g><defs><clipPath id="A"><path fill="#fff" d="M0 0h495.891v160H0z"/></clipPath></defs></svg>