<svg xmlns="http://www.w3.org/2000/svg" width="129" height="120" fill="none"><g clip-path="url(#A)"><path d="M118.405 61.72c-.008.04-.028.072-.063.093-.495.139-.693.478-.654.976l-.039.047-.359-.081-.038.475-.766 1.316-.026-.038-.046.011-.227-.025.169.089-.388 1.112-5.009 7.625c-1.685 2.297-3.629 4.406-5.459 6.597l-7.524 9.039c-.385.469-.581 1.089-.912 1.607l-4.418 6.819-4.782 6.469-2.793 3.808-6.218 8.296c-.629.886-1.555 1.034-2.351 1.512-.231.137-.49.24-.689.412-.713.62-1.549.629-2.437.654-.833.023-1.667.232-2.484.429-1.986.478-3.969 1.049-6.021 1.037-1.719-.011-3.433-.278-5.153-.377-.752-.043-1.516.113-2.267.065-1.075-.065-2.159-.162-3.213-.377l-5.378-1.277-5.616-1.805-5.214-1.728-6.637-2.587c-.602-.239-1.221-.466-1.775-.793l-4.57-2.795-1.806-1.11c-1.694-1.136-3.479-2.13-4.809-3.767-.739-.911-1.82-1.535-2.629-2.398a93.1 93.1 0 0 1-3.955-4.537L7.82 91.372c-1.12-1.433-1.897-3.065-2.513-4.745L2.66 78.628.944 73.615C.584 72.262.14 70.92.171 69.457l-.15-6.187.793-8.98L2 47.157l.84-6.474c.076-.648.127-1.208.907-1.457.255-.081.423-.567.548-.898l1.694-4.552c.944-2.193 1.998-4.331 3.37-6.307l2.887-4.51 2.437-3.233c.739-1.08 1.775-1.8 2.756-2.613L20.9 13.98l4.951-3.534 5.537-3.625 2.768-2.045c.4-.269.912-.379 1.381-.538l4.117-1.39c.819-.296 1.599-.696 2.408-1.025a7.49 7.49 0 0 1 1.212-.383l4.045-.841 4.049-.443 4.586-.144a187.13 187.13 0 0 1 8.118.382l7.011.699c1.347.186 2.697.524 3.977.985l6.687 2.657L85.5 6.055l4.814 2.228 3.876 2.089 5.46 3.636a50.87 50.87 0 0 1 5.187 4.635c1.309 1.342 2.42 2.889 3.541 4.403l3.245 4.71 3.63 5.962c.764 1.524 1.116 3.256 1.635 4.899l1.525 4.966c.527 2.033 1.544 3.952 1.346 6.164-.069.759.158 1.545.258 2.318l.586 4.55c.011.09-.058.189-.09.285-.097.168-.308.365-.273.496.226.847-.254 1.492-.562 2.188l-.352.901-.01.008c-.702.116-.748.712-.903 1.229l-.008-.003zM78.791 87.053l.188-.179c.176-.168.379-.316.524-.507l1.774-2.419 2.829-4.019 5.054-6.454c1.703-1.949 3.619-3.711 5.454-5.544l3.025-2.906c1.392-1.107 2.908-2.06 4.376-3.071l2.056-1.353c.643-.364 1.349-.612 2.015-.935l2.759-1.371 6.845-2.451-.573-4.699c-.251-2.139-.587-4.247-1.461-6.254-.505-1.162-1.004-2.395-1.146-3.636-.346-3.038-1.799-5.576-3.307-8.106l-2.266-3.441-1.807-2.703-3.974-4.914c-.78-.906-1.648-1.761-2.583-2.504l-4.591-3.357-1.927-1.289c-1.173-.632-2.454-1.086-3.572-1.799-2.287-1.457-4.854-2.263-7.309-3.322l-5.79-2.225c-1.473-.535-2.944-1.15-4.472-1.44-1.972-.376-3.995-.51-6.002-.661a170.44 170.44 0 0 0-7.492-.409c-1.441-.044-2.887.084-4.331.128-1.08.034-2.168-.015-3.237.105-1.153.131-2.31.345-3.43.651l-5.213 1.61c-.788.261-1.516.791-2.315.915-1.844.286-3.164 1.504-4.652 2.405-1.279.774-2.449 1.724-3.682 2.576l-5.41 3.732c-1.613 1.216-3.146 2.546-4.651 3.896-1.005.902-2.05 1.823-2.817 2.918l-4.99 7.676c-.559.884-1.068 1.81-1.502 2.761l-2.116 5.038c-.432 1.249-.577 2.598-.897 3.89-.086.344-.351.64-.519.965-.186.36-.445.713-.518 1.098L6.061 51.58l-.756 5.194-.579 6.865c-.075 1.356-.05 2.729.087 4.081.154 1.524.345 3.07.767 4.534l2.675 8.292c.831 2.816 1.928 5.501 3.605 7.905l3.923 5.069a63.5 63.5 0 0 0 3.437 3.868 52.91 52.91 0 0 0 3.645 3.453c1.271 1.087 2.593 2.13 3.981 3.061 1.024.685 2.192 1.151 3.289 1.728.486.255.929.6 1.43.814l6.747 2.789 3.233 1.11 1.78.554 3.647 1.354 3.822 1.073 5.424 1.092c2.26.254 4.556.168 6.817.405 1.586.166 3.108.117 4.64-.284l5.573-1.408v-.594l.171-5.52 1.178-6.101c.461-2.796.953-5.581 1.881-8.269l1.276-3.529c.286-.712.691-1.376 1.04-2.06l-.003-.002zm33.877-25.472l-.703.227-3.052 1.013c-1.084.47-2.101 1.092-3.14 1.659-.276.151-.547.321-.788.519-1.207.994-2.75 1.48-3.873 2.605-.4.402-.901.698-1.338 1.064-.168.142-.255.385-.429.515l-2.085 1.507c-.735.62-1.41 1.315-2.081 2.007a40.69 40.69 0 0 0-1.908 2.098c-.425.504-.669 1.26-1.192 1.562-1.309.756-1.691 2.268-2.832 3.154-.516.402-.788 1.124-1.155 1.71-.549.877-1.459 1.42-1.946 2.405-.559 1.13-1.528 2.05-2.189 3.138-.692 1.139-1.247 2.365-1.833 3.567a83.2 83.2 0 0 0-1.665 3.569c-.458 1.061-.946 2.127-1.236 3.238-.374 1.429-.55 2.908-.837 4.36s-.654 2.885-.9 4.342l-.495 4.048.315.105 1.098-1.394 1.193-1.368 3.419-4.232 1.296-1.695 1.619-2.158 1.419-1.843 1.865-2.9 2.944-4.209 2.58-4.3c.302-.495.684-.941 1.034-1.405l1.817-2.376 3.233-3.603c.421-.476.783-1.005 1.193-1.493l1.343-1.53 1.894-2.052 1.939-2.636 2.878-3.852s1.697-2.735 2.455-4.152c.168-.315.813-.744.15-1.211l-.006-.003z" fill="#040505"/><path d="M122.824 107.967l-2.756-1.322-5.162-2.677-4.829-2.453c-1.079-.562-1.775-2.196-1.386-3.143.474-1.15 1.679-1.546 2.778-.927.296.166.609.367.935.414 2.102.305 3.785 1.593 5.683 2.376l4.041 1.761c1.211.536 2.339 1.281 2.866 2.486.283.649.561 1.59-.022 2.323-.452.571-.999 1.078-2.149 1.161l.001.001z" fill="#030303"/><path d="M126.147 90.682l-3.314-.964c-3.196-1.095-6.207-2.711-9.551-3.393-.504-.102-1.239-1.095-1.196-1.524.069-.677.872-1.387 1.622-1.32.98.087 1.953.247 2.921.422l9.549 1.776a5.56 5.56 0 0 1 2.268 1.089c.685.551.634 1.483.385 2.268-.223.702-.682 1.283-1.524 1.377-.373.043-.743.119-1.114.18l-.044.09-.002-.001zM98.558 106.82c0-.514-.124-1.099.024-1.605.35-1.198 1.876-1.565 2.802-.733l3.918 3.575c.908.92 1.853 1.897 2.426 3.029 1.013 2-.125 3.922-2.079 3.996-.636.025-1.329-.47-1.917-.849-.182-.117-.101-.637-.149-.971-.157-1.126-.935-1.917-1.567-2.764-.807-1.081-1.71-2.092-2.603-3.105-.219-.247-.562-.382-.857-.574l.002.001z" fill="#040404"/><path d="M119.32 60.485l.352-.901c.308-.698.788-1.341.562-2.188-.035-.133.176-.33.273-.496.204 1.394-.27 2.563-1.187 3.586zm-.915 1.235c.156-.516.202-1.113.903-1.229l-.903 1.229zm-.715 1.069c-.039-.498.159-.835.654-.976l-.654.976zm-1.722 2.906l.388-1.112.058-.064.046-.011.026.038-.518 1.148zm1.285-2.464l.038-.475.359.081-.396.394h-.001z" fill="#595959"/><path d="M108.845 58.295l-2.759 1.371-2.015.935c-.713.403-1.381.887-2.056 1.353l-4.376 3.071c-1.089.866-2.035 1.918-3.025 2.906l-5.454 5.544c-1.797 2.054-3.407 4.273-5.054 6.454l-2.829 4.019-1.774 2.419c-.145.192-.348.339-.524.507l-1.545.206c.597.678.947.078 1.357-.027l-1.04 2.06-1.276 3.529c-.927 2.688-1.419 5.473-1.881 8.27l-1.178 6.101-.816.122c-1.109.276-2.2.706-3.324.825-1.991.212-4.003.354-6.002.313-2.414-.049-4.834-.237-7.232-.518-2.168-.253-4.337-.611-6.458-1.118-1.425-.34-2.758-1.055-4.151-1.545l-3.381-1.059-6.051-2.544c-1.531-.701-3.033-1.483-4.304-2.63l-3.324-2.964c-.842-.823-1.586-1.747-2.342-2.653l-1.902-2.393-4.803-4.934c-2.02-2.049-3.137-4.604-3.903-7.298-.62-2.178-1.013-4.421-1.476-6.642L12.9 66.558c-.581-3.633-.419-7.277-.113-10.928.168-2.014.684-3.929 1.247-5.848.298-1.019.698-2.022.869-3.062.217-1.309.364-2.602 1.39-3.584.081-.078.093-.227.142-.34l3.343-7.617c.353-.787.75-1.565 1.221-2.286.654-1 1.396-1.943 2.101-2.911.785-1.078 1.503-2.214 2.369-3.222 1.071-1.246 2.195-2.469 3.424-3.557 1.787-1.581 3.63-3.114 5.559-4.516 1.72-1.249 3.645-2.153 5.718-2.744 1.966-.561 3.873-1.332 5.844-1.872 1.641-.449 3.326-.759 5.008-1.02 2.014-.312 4.041-.588 6.073-.724 1.552-.104 3.127-.043 4.681.085 1.508.125 2.997.463 4.501.651 2.539.318 5.074.623 7.498 1.52 1.74.643 3.532 1.153 5.248 1.854 1.555.637 3.083 1.371 4.539 2.211 1.726.996 3.422 2.066 5.019 3.256 1.459 1.089 2.777 2.367 4.139 3.586 1.266 1.135 2.538 2.266 3.746 3.462.807.799 1.499 1.713 2.257 2.564 1.592 1.787 3.146 3.607 4.139 5.809.771 1.709 1.506 3.438 2.16 5.194.631 1.692 1.204 3.413 1.68 5.154.491 1.793.868 3.621 1.235 5.446.344 1.717.609 3.448.909 5.172l.001.005zM62.003 91.46l-.012.008-1.085.289c-.003.043-.017.079-.043.113l-.27.021c-.697-.147-1.179.293-1.7.625l-.275-.151c.018-.008.04-.012.055-.023.009-.006.009-.026.012-.038-.02.023-.041.046-.061.067-.448.139-.906.252-1.338.426-.287.115-.538.316-.807.48-.44.15-1.173-.435-1.344.567l1.351-.266c.244-.038.509-.031.73-.122.654-.272 1.331-.594 2.021-.539.501.04.393-.101.315-.38.556.128 1.109.238 1.529-.309.301-.006.604.002.901-.031.046-.005.073-.191.108-.293l1.571-.299.131.043-.139-.034-.008-.189 2.208-.309c.388-.061.784-.13 1.152-.261.633-.226 1.245-.505 1.865-.762.747.076 1.292-.321 1.815-.77.258-.029.548.011.768-.098 1.384-.675 2.886-.878 4.372-1.153.851-.157 1.111-.304 1.332-.832-1.167.003-1.164.008-1.917.536-.104.073-.28.032-.406.083-.675.273-1.528-.223-2.111.496-.075.092-.335.034-.509.046h-.15l-1.208.339-1.85.641-.46.229-.477.02-1.294.234-.112.113c-1.178.177-2.336.411-3.314 1.162l-.446-.041-.904.367.003-.003zm40.922-43.078h-.462l.762 2.101c.169-.208.452-.422.415-.532-.178-.545.016-1.28-.716-1.57l.286-.254-.138-.114-.148.368h.001zM70.831 18.176l.021.402.298-.322h.686c-.914-.909-3.544-1.327-4.369-.707l.918.501c.319.276.637.518.946-.012l.425.021c.171.215.321.525.631.148l.446-.029-.001-.002zm-.73 22.272l.248-1.09c.121-.183.217-.391.368-.544.5-.507.897-1.066.949-1.799.073-1.038.177-2.078.176-3.117-.001-1.081-.258-2.167-1.127-2.86-2.032-1.62-4.394-2.477-6.99-2.095-3.673.539-6.522 2.268-7.654 6.083-.05.168-.238.295-.362.438-.203.322-.448.626-.602.971-.553 1.243-.875 2.607-.562 3.896.492 2.03 1.3 3.923 3.434 4.919 1.253.585 2.574.797 3.882.903 1.178.095 2.368-.418 3.395-.988 1.464-.811 2.91-1.729 3.653-3.369.059-.131.269-.194.409-.289l.623-.6.16-.46v.002zm-23.964 12.11c-1.719.611-2.544 2.593-1.757 4.224.394.817 2.059 1.26 2.948.732 1.025-.609 2.053-.299 3.063-.055.617.15.92.695.979 1.315.235 2.453.501 4.911-.393 7.3-.568 1.521-1.106 3.059-1.766 4.54-.535 1.2-1.311 2.295-1.838 3.499-.515 1.174-.884 2.416-1.256 3.647-.523 1.73-.927 3.5-.7 5.318.26 2.068 1.072 3.938 2.559 5.421.68.678 1.415 1.367 2.49 1.503.666.086 1.347.275 1.957.557 1.624.756 3.329.643 5.014.493 1.077-.096 2.143-.411 3.191-.707 1.005-.284 1.969-.71 2.974-.994.547-.154 1.143-.142 1.786-.214.17-.125.446-.293.681-.505.55-.496 1.248-.893 1.262-1.773l1.039-.443c.17 0 .257-.203.408-.281 1.338-.692 2-1.9 1.787-3.369-.029-.203-.148-.406-.267-.58-.713-1.029-1.778-.825-2.774-.716-1.12.122-2.224.376-3.343.498-1.089.119-1.781-.554-1.626-1.608.142-.959.44-1.892.64-2.844l.969-4.814.715-4.039.842-5.328c.26-1.709.62-3.413.71-5.131.061-1.161-.122-2.387-.472-3.499-.289-.919-.807-1.926-1.531-2.52-1.563-1.281-3.479-1.996-5.404-2.618-.139-.044-.293-.061-.44-.055-.901.035-1.807.04-2.704.134-1.329.141-2.652.345-3.978.525-.944.128-1.885.35-2.831.376-1.48.041-2.432.629-2.936 2.007l-.002.005zm50.585-16.782c-.258-.454-.503-.996-.849-1.462-.341-.457-.785-.837-1.315-1.385.313 1.523-.646 2.344-1.254 3.474l3.421-.628h-.002zm-6.591-6.55l-1.83-1.923-.162.127.454.841-.602.153.435 1.031 1.705-.231v.002zm-64.882 4.082l.27.232c.57-.599 1.16-1.181 1.685-1.816.084-.102-.118-.441-.195-.704l-1.76 2.288zM17.28 71.34c.36-.484.727-.999 0-1.578v1.578zm37.495 22.167l-.2-.041-.079.443.185.037.095-.438z" fill="#196efd"/><path d="M108.845 58.295l-.909-5.172-1.234-5.446-1.681-5.154-2.16-5.194c-.993-2.202-2.548-4.023-4.138-5.809l-2.257-2.564-3.746-3.462-4.139-3.586c-1.595-1.19-3.292-2.26-5.019-3.256a37.87 37.87 0 0 0-4.539-2.211l-5.248-1.854c-2.425-.897-4.959-1.203-7.498-1.52l-4.501-.651c-1.554-.13-3.129-.189-4.681-.086-2.032.136-4.058.412-6.073.724l-5.008 1.02-5.844 1.872c-2.073.591-3.998 1.494-5.718 2.744-1.93 1.402-3.772 2.935-5.559 4.516-1.23 1.087-2.353 2.309-3.424 3.557-.866 1.008-1.586 2.144-2.369 3.222L21 32.897c-.471.721-.868 1.498-1.221 2.286L16.437 42.8c-.05.113-.061.263-.142.341-1.027.98-1.173 2.276-1.39 3.584-.173 1.04-.571 2.042-.869 3.062-.562 1.918-1.079 3.835-1.247 5.847-.306 3.651-.466 7.295.113 10.928.29 1.816.671 3.616 1.047 5.417.463 2.221.856 4.464 1.476 6.642.767 2.694 1.884 5.249 3.903 7.298l4.803 4.934c.694.741 1.248 1.611 1.902 2.393.756.906 1.5 1.831 2.342 2.653 1.06 1.037 2.221 1.97 3.324 2.964 1.271 1.145 2.771 1.929 4.304 2.63 1.989.91 4.013 1.748 6.051 2.544 1.097.429 2.267.666 3.381 1.058 1.393.49 2.726 1.205 4.151 1.546 2.122.508 4.29.864 6.458 1.118a75.42 75.42 0 0 0 7.232.517c2 .042 4.012-.101 6.003-.313 1.124-.119 2.215-.548 3.324-.824.266-.066.544-.083.816-.123l-.171 5.52c-.005.152 0 .305 0 .594l-5.573 1.408c-1.532.4-3.054.45-4.64.284-2.261-.237-4.559-.151-6.817-.405-1.826-.205-3.627-.675-5.423-1.092-1.288-.299-2.565-.663-3.822-1.074-1.231-.401-2.428-.911-3.647-1.353-.584-.21-1.19-.357-1.78-.554-1.082-.359-2.175-.689-3.233-1.11l-6.747-2.789c-.501-.212-.946-.557-1.43-.814-1.097-.579-2.266-1.043-3.289-1.729-1.389-.93-2.71-1.973-3.981-3.06s-2.484-2.249-3.645-3.453c-1.198-1.24-2.344-2.535-3.437-3.868-1.354-1.652-2.701-3.318-3.923-5.069-1.678-2.404-2.774-5.09-3.605-7.905-.822-2.786-1.87-5.504-2.675-8.292-.423-1.465-.613-3.01-.767-4.534-.136-1.35-.162-2.724-.087-4.081.127-2.292.332-4.583.579-6.865.189-1.738.475-3.467.756-5.194l1.079-6.131c.073-.385.332-.738.518-1.098.168-.325.434-.622.519-.965.319-1.292.464-2.641.897-3.89.596-1.718 1.361-3.381 2.116-5.038.434-.951.943-1.877 1.502-2.761 1.63-2.579 3.239-5.179 4.99-7.676.767-1.095 1.81-2.016 2.817-2.918 1.505-1.35 3.037-2.68 4.651-3.896 1.748-1.316 3.608-2.486 5.41-3.732 1.231-.852 2.403-1.802 3.682-2.576 1.489-.901 2.808-2.12 4.652-2.405.799-.124 1.526-.655 2.315-.915 1.726-.571 3.459-1.133 5.213-1.61 1.12-.305 2.276-.521 3.43-.651 1.069-.121 2.159-.072 3.237-.105 1.444-.044 2.89-.173 4.331-.128 2.499.076 4.999.221 7.492.409 2.007.151 4.03.286 6.003.661 1.528.29 2.999.907 4.472 1.44 1.943.704 3.893 1.407 5.79 2.225 2.455 1.058 5.022 1.865 7.309 3.322 1.118.713 2.398 1.165 3.572 1.799.677.365 1.299.838 1.926 1.289 1.54 1.106 3.109 2.178 4.591 3.357.935.744 1.803 1.599 2.584 2.505 1.375 1.594 2.687 3.247 3.973 4.914.66.857 1.209 1.799 1.808 2.703.759 1.145 1.564 2.263 2.265 3.441 1.508 2.531 2.961 5.069 3.308 8.106.142 1.242.64 2.474 1.146 3.636.874 2.007 1.21 4.114 1.46 6.254l.573 4.699-6.844 2.451.001-.003z" fill="#fcfcfd"/><path d="M112.667 61.581c.663.467.018.896-.15 1.211l-2.455 4.152c-.892 1.329-1.921 2.567-2.879 3.852l-1.938 2.636c-.585.722-1.267 1.365-1.895 2.052l-1.343 1.53-1.193 1.494-3.232 3.602c-.648.756-1.216 1.581-1.816 2.376l-1.034 1.405-2.58 4.301-2.944 4.209-1.865 2.9c-.435.64-.95 1.226-1.419 1.843l-1.619 2.158-1.296 1.695-3.419 4.232-1.193 1.368-1.098 1.394-.315-.105.495-4.049.9-4.341.837-4.36c.29-1.112.778-2.178 1.236-3.238l1.665-3.569 1.833-3.567c.662-1.089 1.63-2.008 2.189-3.138.487-.985 1.398-1.529 1.946-2.405.367-.586.639-1.31 1.155-1.71 1.141-.886 1.523-2.398 2.832-3.154.523-.302.767-1.058 1.192-1.562l1.908-2.098 2.081-2.007c.654-.551 1.398-.994 2.085-1.507.174-.13.261-.373.429-.515.437-.367.938-.664 1.339-1.064 1.122-1.126 2.667-1.611 3.872-2.605.242-.199.514-.37.789-.519l3.139-1.658c.98-.426 2.032-.681 3.053-1.012l.702-.228.007.003z" fill="#f9f9f9"/><path d="M78.79 87.053c-.409.105-.759.706-1.357.028l1.544-.206-.188.179z" fill="#7dadfd"/><path d="M116.356 64.584l-.169-.089.227.025-.058.064z" fill="#595959"/><path d="M46.137 52.559c.506-1.378 1.457-1.965 2.936-2.007.947-.026 1.887-.247 2.831-.376l3.978-.525c.897-.095 1.803-.099 2.704-.134.147-.006.301.011.44.055 1.925.62 3.841 1.335 5.404 2.618.724.594 1.242 1.599 1.531 2.52.35 1.11.533 2.338.472 3.499-.09 1.718-.451 3.422-.71 5.131l-.842 5.328-.715 4.039-.969 4.814-.64 2.844c-.156 1.054.536 1.726 1.625 1.608l3.343-.498c.996-.109 2.061-.315 2.774.716.121.174.238.377.267.58.211 1.469-.449 2.677-1.787 3.369-.151.078-.238.281-.408.281l-1.039.443c-.562.082-1.146.098-1.684.263-.836.257-1.628.649-2.461.921-.596.194-1.233.258-1.838.428-1.633.457-3.285.463-4.942.223-.478-.069-.932-.299-1.401-.444-.857-.263-1.795-.38-2.559-.808-1.141-.638-2.04-1.568-2.736-2.746-.788-1.332-1.276-2.718-1.361-4.233-.049-.869.024-1.739.141-2.624.338-2.563 1.257-4.93 2.154-7.307.461-1.223 1.144-2.362 1.641-3.575.715-1.742 1.47-3.497 1.425-5.434l-.231-4.223c-.011-.947-.244-1.767-1.201-1.976-.808-.177-1.674-.45-2.538.014-.414.223-.923.289-1.396.38-.972.189-1.859-.388-2.03-1.349-.107-.597-.124-1.208-.182-1.814h.003zm11.368 3.827l.128.846.199.047 1.037-1.268-.058-.115-1.308.489h.002z" fill="#fbfcfd"/><path d="M55.707 35.464c.124-.145.313-.272.364-.44 1.132-3.816 3.98-5.545 7.654-6.083 2.596-.38 4.958.477 6.99 2.095.871.693 1.126 1.779 1.127 2.86 0 1.038-.102 2.078-.176 3.117-.052.733-.449 1.292-.949 1.799-.151.154-.248.36-.368.544l-.619.75-.122.163-.225.327-.225.165-.13.133c-1.039 1.048-2.328 1.668-3.662 2.257-1.317.582-2.649.585-3.969.282-1.005-.231-2.13-.504-2.889-1.135-1.966-1.634-2.997-3.771-2.568-6.431.02-.119-.153-.269-.235-.405h.002z" fill="#fbfbfc"/><path d="M46.136 52.559l.182 1.814c.171.961 1.059 1.538 2.03 1.348.474-.093.982-.157 1.396-.38.863-.464 1.729-.189 2.538-.014.956.209 1.189 1.029 1.201 1.976l.231 4.223c.044 1.936-.71 3.69-1.425 5.434l-1.641 3.575c-.897 2.378-1.816 4.745-2.154 7.307-.116.884-.189 1.755-.141 2.624.086 1.515.573 2.902 1.361 4.233.697 1.176 1.595 2.108 2.736 2.746.764.428 1.702.544 2.559.808.469.144.923.374 1.401.444 1.656.238 3.309.234 4.942-.223l1.838-.428 2.461-.921c.538-.165 1.12-.18 1.684-.263-.012.88-.712 1.278-1.262 1.773-.235.212-.512.382-.681.505-.643.07-1.238.06-1.786.214l-2.974.994c-1.048.296-2.114.611-3.191.707-1.685.15-3.39.264-5.014-.493-.608-.284-1.289-.473-1.957-.557-1.074-.138-1.809-.825-2.49-1.503-1.486-1.483-2.299-3.354-2.559-5.422-.228-1.817.177-3.587.7-5.318l1.256-3.647c.527-1.203 1.303-2.298 1.838-3.499l1.766-4.54c.894-2.39.628-4.849.393-7.3-.06-.62-.364-1.165-.979-1.315-1.01-.246-2.038-.554-3.063.055-.889.528-2.554.086-2.949-.731-.787-1.631.037-3.613 1.757-4.224l-.002-.005z" fill="#05070b"/><path d="M69.609 40.271l.122-.163.37.341-.16.46-.623.6c-.141.095-.35.157-.41.289-.742 1.64-2.189 2.556-3.653 3.369-1.027.57-2.217 1.083-3.395.988-1.308-.105-2.629-.318-3.882-.903-2.136-.996-2.942-2.889-3.434-4.919-.313-1.289.009-2.653.562-3.896.153-.345.399-.649.6-.971.082.136.255.287.235.406-.431 2.66.602 4.797 2.568 6.431.759.631 1.884.906 2.889 1.135 1.32.302 2.652.299 3.969-.282 1.335-.59 2.623-1.21 3.662-2.257l.13-.133.225-.165.225-.327v-.002z" fill="#05080c"/><path d="M96.721 35.777l-3.421.628c.61-1.13 1.569-1.953 1.254-3.474.53.548.975.928 1.315 1.385.347.466.591 1.008.849 1.462h.002z" fill="#e6effe"/><path d="M68.872 90.086l-1.865.762c-.368.131-.764.2-1.152.261l-2.208.308-.292-.281c.976-.75 2.134-.985 3.314-1.162l.185.011-.073-.122 1.294-.234.056.276.42-.298.46-.229-.136.709-.003-.002z" fill="#a7c8fe"/><path d="M70.858 88.736l1.208-.339-.005-.006.049.195.108-.195-.005.006c.174-.012.434.046.509-.046.584-.719 1.436-.223 2.111-.496.127-.052.302-.011.406-.082.753-.528.749-.535 1.917-.536-.222.528-.483.675-1.332.832-1.485.273-2.988.478-4.372 1.153-.22.107-.51.069-.768.098l.171-.58.001-.003zm2.939-.441c-.046-.021-.101-.066-.127-.053-.041.02-.064.078-.093.119.046.008.095.028.138.018.032-.008.053-.053.084-.084h-.001z" fill="#7dadfd"/><path d="M68.383 18.05l-.918-.501c.827-.62 3.457-.202 4.369.707h-.686l-.319-.079-.446.029-.631-.147-.425-.021-.946.012h.001z" fill="#d3e3fe"/><path d="M90.131 29.227l-1.705.231-.435-1.031.602-.153-.454-.841.162-.127 1.83 1.923v-.002z" fill="#619cfd"/><path d="M59.552 92.531c.078.279.185.42-.315.38-.691-.053-1.367.267-2.021.539-.222.092-.486.084-.73.122l-.006-.299c.267-.163.519-.365.807-.48.434-.174.891-.287 1.338-.426l-.006-.006.277.151.657.017v.002z" fill="#5393fd"/><path d="M25.249 33.309l1.76-2.288c.079.263.281.602.195.704-.526.635-1.117 1.216-1.685 1.816l-.27-.232z" fill="#98befe"/><path d="M70.858 88.736l-.171.58c-.524.449-1.069.846-1.815.77l.136-.709 1.85-.642z" fill="#5c98fd"/><path d="M102.926 48.382c.732.29.538 1.025.717 1.57.036.11-.248.325-.416.531l-.762-2.101h.463-.002z" fill="#3580fd"/><path d="M59.552 92.531l-.657-.017c.523-.33 1.004-.771 1.7-.623l.487.333c-.42.545-.973.437-1.529.309l-.002-.002z" fill="#7aabfd"/><path d="M63.354 91.137l.292.281.008.189.008-.008-1.569.299h-.432l.333-.431.012-.008.904-.367.446.041-.002.001z" fill="#b3cffe"/><path d="M61.991 91.468l-.333.431h.432c-.037.102-.063.289-.11.293-.298.032-.6.025-.901.031l-.487-.331.27-.021.362.032.017-.096-.336-.049 1.085-.289h.002z" fill="#98befe"/><path d="M17.28 71.34v-1.578c.727.579.36 1.092 0 1.578z" fill="#498cfd"/><path d="M56.479 93.273l.006.299-1.351.266c.171-1.002.904-.417 1.344-.567v.002z" fill="#4b8efd"/><path d="M70.1 40.448l-.37-.341.619-.75-.249 1.09z" fill="#101d32"/><path d="M68.384 18.049l.946-.012c-.309.53-.626.29-.946.012zm1.37.01l.631.147c-.31.379-.46.067-.631-.147z" fill="#5091fd"/><path d="M68.549 89.608l-.42.298-.056-.276.475-.02.002-.001z" fill="#9fc2fe"/><path d="M54.776 93.507l-.095.438-.185-.037.079-.443.2.041z" fill="#4b8efd"/><path d="M70.831 18.176l.319.079-.298.322-.021-.402z" fill="#5091fd"/><path d="M102.926 48.382l.148-.368.137.114-.285.253z" fill="#3580fd"/><path d="M60.908 91.755l.336.049-.017.096-.362-.032c.026-.034.04-.072.043-.113z" fill="#7aabfd"/><path d="M63.653 91.607l.139.034-.131-.043-.008.008v.002z" fill="#b3cffe"/><path d="M72.067 88.397h.15l.005-.006h-.159l.005.006z" fill="#7dadfd"/><path d="M58.624 92.368l.061-.067c-.005.014-.003.032-.012.038-.015.012-.037.017-.055.023l.006.006z" fill="#5393fd"/><path d="M57.504 56.386l1.308-.489.058.114-1.037 1.268-.199-.047-.128-.846h-.002z" fill="#3b3b3b"/><path d="M69.159 40.763l-.13.133.13-.133z" fill="#101d32"/><path d="M66.78 89.861l.073.122-.185-.011.111-.112zm7.018-1.567c-.029.032-.052.078-.084.084-.043.009-.092-.011-.138-.018.031-.041.053-.101.093-.119.026-.012.081.032.127.053h.002zm-1.735.097h.159l-.109.195-.049-.195h-.001z" fill="#196efd"/></g><defs><clipPath id="A"><path fill="#fff" d="M0 0h129v120H0z"/></clipPath></defs></svg>