<svg width="20" height="20" viewBox="0 0 20 20" fill="none" xmlns="http://www.w3.org/2000/svg"><path d="M13.525 15L10 12.875 6.475 15l.933-4.008L4.3 8.3l4.1-.35L10 4.167l1.6 3.775 4.1.35-3.108 2.692.933 4.017zM10 1.667c-4.608 0-8.333 3.75-8.333 8.333 0 2.21.878 4.33 2.441 5.893a8.33 8.33 0 0 0 2.704 1.807c1.011.419 2.095.634 3.189.634 2.21 0 4.33-.878 5.893-2.441S18.333 12.21 18.333 10c0-1.094-.216-2.178-.634-3.189s-1.033-1.93-1.806-2.704S14.2 2.72 13.189 2.301 11.094 1.667 10 1.667z" fill="#ffa800"/></svg>