<svg xmlns="http://www.w3.org/2000/svg" width="136" height="148" fill="none"><g clip-path="url(#A)"><path d="M104.723 57.434l.239 1.805 1.042 6.445c.117.695.311 1.377.469 2.065-.008.13-.042.266-.022.391l1.8 10.299 1.256 6.081c-.157.08-.305.194-.472.235-2.066.526-4.104 1.043-5.865 2.401-.84.649-1.971.938-2.993 1.331-1.555.597-3.147 1.056-4.535 2.077-1.017.748-2.215 1.263-3.361 1.821-.724.351-1.52.551-2.254.89-.624.288-1.177.886-1.811.969-1.01.131-1.796.67-2.683 1.023l-8.009 3.186c-4.195 2.061-8.808 3.205-12.73 5.855-.545.368-1.11.338-1.691-.166-1.051-.911-2.216-1.692-3.288-2.582l-10.394-8.725c-2.219-1.93-4.293-4.025-6.439-6.039l-2.717-2.501-2.963-2.734c-.684-.654-1.279-1.409-1.996-2.023l-8.567-7.22c-.135-.113-.324-.235-.483-.23-.527.015-.562-.364-.649-.718l-.308-2.302-1.067-6.346-1.127-4.181-1.805-7.006c-.587-2.341-1.249-4.67-1.689-7.039-.325-1.745-.309-3.549-.518-5.319-.148-1.268-.355-2.535-.647-3.776-.449-1.918-1.16-3.787-1.455-5.724-.41-2.706.857-4.398 3.924-5.431 3.859-1.299 7.91-1.667 11.896-2.339l16.78-2.847 12.637-2.338 7.385-1.224 5.604-.81c1.526-.243 3.037-.597 4.566-.811 1.844-.257 3.703-.4 5.552-.626l4.915-.66c1.354-.156 2.714-.258 4.074-.351.962-.067 1.729.283 2.038 1.255.384 1.215.856 2.429 1.028 3.68a80.58 80.58 0 0 0 1.951 9.726c.581 2.195.766 4.497 1.128 6.751l-2.967.054c-2.019 0-4.039-.082-6.054-.01-1.464.053-2.918.344-4.382.447-1.496.105-2.974.201-4.346.912-.407.21-.9.248-1.342.396-1.026.344-1.898.875-2.359 1.928-.574 1.311-.644 2.618-.122 3.967s.599 2.91 1.951 3.838c.091.063.142.217.168.338.25 1.175 1.076 1.959 1.998 2.535.698.435 1.61.762 2.418.745 2.039-.046 4.072-.357 6.11-.482 1.326-.08 2.66.002 3.991-.028l5.809-.178c.167-.006.333.009.513.017-.417 1.685-.001 4.323.924 5.929l1.946 3.38-.001-.007zM56.438 34.007c-.048-.886-.127-1.486-.102-2.082.054-1.313-.803-2.104-2.053-1.84-.232.049-.457.122-.689.172-1.205.259-2.402.64-3.62.736-1.253.098-2.405.353-3.371 1.142-.891.727-1.717.812-2.742.24-1.25-.695-2.566-.325-3.434.811-.168.219-.325.446-.487.669l-.045-.267c-.593-.093-1.244-.064-1.765-.311-.607-.29-.999-.125-1.42.242-.29.253-.569.518-.815.744-.318-.132-.628-.387-.908-.356-1.126.127-2.113.59-2.875 1.469-.329.38-.33.739-.02 1.129.39.494.706 1.067 1.161 1.488.642.595 1.31 1.298 2.1 1.567 1.288.437 2.556.226 3.211-1.239.193.067.314.115.438.152 1.909.597 2.644.337 3.904-1.268.151-.193.57-.298.838-.26 1.744.252 3.374.112 4.84-1.01.398-.305.924-.494 1.419-.602l6.434-1.324.002-.001zm-.546 8.434l-.02-.003.176-.764c.159-.714-.398-1.886-.961-2.003-1.463-.304-2.816-.1-4.017.856-.139.111-.396.223-.53.168-1.875-.77-3.344.043-4.678 1.227-.9.798-1.843.941-2.916.484-.873-.371-1.767-.409-2.602.025-1.05.545-2.034 1.216-3.081 1.765-.395.206-.899.332-1.337.293-.77-.067-1.523-.306-2.289-.441-.835-.147-2.297.686-2.345 1.377-.08 1.171.268 2.237 1.023 3.148.306.37.648.49 1.083.13.36-.298.748-.301 1.233-.13 1.249.44 2.543.41 3.742-.157 1.017-.481 1.954-1.129 2.949-1.662.215-.115.541-.136.785-.074 2.363.606 4.536.351 6.346-1.42.461-.452.869-.519 1.386-.218.882.511 2.081.35 2.867-.317.507-.429.985-.897 1.767-.904 1.184-.011 1.184-.066 1.394-1.224l.025-.156.002-.001zM39.598 74.659c-.012.117-.032.274-.042.431-.063.959.118 1.197 1.066 1.157 1.2-.052 2.412-.094 3.591-.301l12.825-2.381c1.645-.314 3.275-.698 4.917-1.024 1.367-.272 1.371-.256 1.364-1.666-.006-.891-.587-1.418-1.451-1.251l-4.4.918-7.73 1.49c-2.874.489-5.759.919-8.648 1.295-1.121.146-1.285.176-1.491 1.332zm32.107-33.722l.029-2.181c.013-.861-1.069-1.789-1.903-1.632l-3.318.61c-.378.061-.773.003-1.161.013-.85.02-1.759-.095-2.326.752-.604.904-1.504.966-2.448.923-.341-.015-.682-.069-1.02-.123-.707-.113-1.208.216-1.433.83-.243.659-.426 1.362-.495 2.058-.102 1.012.14 1.231 1.152 1.329l.707.074c1.745.22 3.494.197 5.027-.734.816-.495 1.626-.804 2.544-.944.925-.142 1.847-.316 2.764-.505.638-.132 1.266-.314 1.883-.47h-.002zM35.909 58.76c-.271 1.68.211 2.168 1.833 1.857.078-.015.156-.025.234-.039l10.21-1.918c2.368-.498 4.695-1.198 7.044-1.791 1.351-.341 1.355-.327 1.123-1.693-.184-1.084-.697-1.399-1.725-1.136-2.538.651-5.067 1.353-7.631 1.891-3.365.707-6.757 1.289-10.143 1.89-.59.104-.887.366-.943.939h-.002zm50.56-2.273c-.27.038-.453.055-.633.088l-4.026.747-10.211 1.985c-.501.096-.87.299-.899.814-.029.492.008 1 .098 1.487.099.532.386.795 1.019.64 1.448-.354 2.909-.662 4.372-.941l10.281-1.926c.299-.057.813-.295.808-.436-.023-.708.2-1.493-.403-2.094-.139-.137-.291-.262-.404-.365zm-27.907-2.433c-.172 1.727.125 2.027 1.868 1.683l11.008-2.237c1.208-.249 2.518-.247 3.48-1.173.238-.23.363-.647.393-.992.013-.141-.354-.327-.561-.473-.127-.09-.358-.111-.406-.223-.351-.804-.983-.53-1.549-.41l-8.453 1.826a104.24 104.24 0 0 1-4.878.894c-.656.105-.892.45-.905 1.104l.001.002zm-4.973 11.854l-.635-1.394c-.432-.86-.754-.957-1.616-.756-1.144.267-2.309.44-3.465.667l-9.32 1.853c-.189.038-.403.155-.519.303-.317.405-.217 1.888.169 2.34.505.593 1.06.112 1.582-.003 1.376-.305 2.73-.71 4.116-.948 2.602-.444 5.225-.759 7.824-1.214.648-.113 1.239-.556 1.862-.85l.001.002zM41.395 81.627c.068.63.078 1.077.168 1.508.146.692.476 1.034 1.282.747 1.157-.411 2.335-.795 3.533-1.043 2.775-.574 5.568-1.059 8.352-1.582 1.479-.277 1.62-.454 1.544-1.906-.042-.821-.672-1.334-1.37-1.17l-4.227.94-8.376 1.902c-.35.083-.642.419-.908.603h.002zm13.895-17.913c.001.289-.022.579.007.864.103 1.015.327 1.214 1.31 1.008a152.7 152.7 0 0 0 5.1-1.159l6.122-1.556c.659-.154 1.087-.342.901-1.112a1.83 1.83 0 0 1-.039-.393c-.015-1.049-.494-1.478-1.498-1.316-.441.07-.884.137-1.318.243l-9.616 2.38c-.618.146-.936.412-.972 1.04h.002zm10.722 5.98c.004.175-.017.495.026.804.14 1.024.262 1.104 1.265.919l4.647-.863c1.14-.213 1.513-1.271.897-2.316-.341-.581-.725-.714-1.355-.58a101.7 101.7 0 0 1-4.496.85c-.639.106-.907.455-.982 1.186h-.002z" fill="#196ffe"/><path d="M25.607 71.366c.087.354.123.733.649.718.159-.004.349.117.483.23l8.567 7.22c.717.613 1.311 1.369 1.996 2.023l2.963 2.734 2.717 2.501 6.439 6.039c3.412 2.968 6.914 5.836 10.394 8.725 1.072.89 2.237 1.67 3.288 2.583.581.503 1.146.534 1.691.165 3.922-2.648 8.535-3.793 12.73-5.855 2.571-1.263 5.339-2.122 8.009-3.186.888-.353 1.674-.893 2.683-1.023.633-.082 1.185-.681 1.811-.969.733-.337 1.529-.537 2.254-.89 1.146-.557 2.343-1.071 3.361-1.821 1.387-1.02 2.98-1.478 4.535-2.077 1.022-.392 2.153-.683 2.993-1.331 1.761-1.359 3.799-1.877 5.865-2.401.167-.043.315-.156.472-.235.093-.045.181-.101.279-.131l7.079-2.087c.851-.264 1.658-.672 2.52-1.031-.147-.187-.207-.276-.279-.352l-7.397-7.846-5.237-5.324c-.158-.689-.352-1.37-.469-2.065l-1.041-6.445c3.654 3.556 7.566 6.843 10.892 10.745 2.031 2.382 4.286 4.571 6.439 6.849l2.54 2.71c.053.058.108.115.152.181.338.512.173 2.715-.224 3.191a.92.92 0 0 0-.202.395l-1.931 10.174-2.025 11.779-2.401 14.524c-.516 3.256-.785 6.559-1.463 9.778-.497 2.361-1.337 4.681-2.279 6.911-.884 2.093-2.562 3.676-4.18 5.246-.585.567-1.214 1.089-1.822 1.631-1.368 1.222-2.976 1.575-4.759 1.349-.886-.112-1.777-.211-2.668-.272l-8.714-.584c-3.249-.306-6.505-.627-9.72-1.169-4.575-.771-9.107-1.793-13.674-2.619-2.462-.446-4.969-.646-7.437-1.062l-19.97-3.452-7.091-1.244-10.882-1.597c-3.427-.59-6.821-1.371-10.227-2.069-.078-.016-.198-.009-.226-.055-.6-.976-1.702-.962-2.61-1.245-2.035-.632-3.202-2.081-4.099-3.884a19.56 19.56 0 0 1-2.061-8.719c-.004-.748.084-1.5.196-2.241l5.952-38.979c.335-2.21.499-4.445.768-6.665.106-.87.107-1.834 1.222-2.142.435-1.245 1.68-1.615 2.594-2.308 2.643-2.007 5.362-3.911 8.052-5.854l1.127 4.182-4.736 3.265 6.109 5.382.002-.001zm-10.006-2.242l-.134.851-.796 6.435-5.934 38.661c-.381 2.428.311 4.564 1.291 6.803l4.689-2.782 9.632-5.42c.805-.436 1.743-.691 2.651-.854.962-.173 1.105.061 1.025 1.008-.028.33.064.672.056 1.006-.008.305.031.71-.141.895-.502.54-1.07 1.03-1.667 1.465-.373.271-.863.379-1.269.615l-12.099 7.074-.044.202 3.821.797c.391.08.892-.011.853.663-.005.095.282.266.456.304 2.06.454 4.108.972 6.187 1.311l12.993 1.962c3.642.593 7.263 1.316 10.896 1.962l10.368 1.796 14.521 2.311c3.581.621 7.126 1.442 10.697 2.124 4.032.771 8.112 1.113 12.212 1.311 3.037.146 6.068.387 9.097.644.599.051 1-.051 1.311-.53-2.652-3.823-5.699-7.274-8.918-10.577-.721-.74-.903-1.653-.95-2.597-.029-.561.315-.952.933-1.044.245-.037.521-.109.706-.258.912-.732 2.155-.646 2.919.236l1.186 1.378 4.73 5.296c1.034 1.21 1.965 2.511 2.991 3.835.229-.375.466-.637.568-.945.775-2.362 1.752-4.686 2.228-7.11.647-3.299.854-6.68 1.348-10.014.46-3.104 1.048-6.188 1.581-9.281l2.498-14.509 1.024-6.482c-.419.179-.856.399-1.315.553-1.835.612-3.709 1.123-5.511 1.82L99.85 95.02c-1.809.726-3.671 1.337-5.423 2.178-3.497 1.679-6.866 3.637-10.415 5.194-5.19 2.277-10.599 4.033-15.69 6.566-1.147.57-2.415.975-3.672 1.219-1.026.2-2.225.37-2.801-1.003-.096-.227-.431-.36-.665-.522-1.701-1.172-3.489-2.237-5.091-3.532-2.831-2.286-5.606-4.65-8.302-7.092L34.698 85.877c-2.674-2.553-5.391-5.037-8.294-7.335-3.181-2.518-6.217-5.22-9.299-7.86-.506-.434-.931-.961-1.502-1.561l-.002.003z" fill="#010101"/><path d="M104.724 57.434l-1.946-3.38c-.926-1.607-1.341-4.244-.924-5.929l-.514-.017-5.809.178c-1.331.028-2.665-.054-3.991.028l-6.11.482c-.808.019-1.719-.307-2.418-.744-.923-.577-1.749-1.361-1.998-2.535-.026-.121-.077-.275-.168-.338-1.35-.928-1.428-2.492-1.951-3.838s-.453-2.656.122-3.967c.461-1.053 1.333-1.585 2.359-1.928.444-.148.937-.184 1.342-.397 1.372-.711 2.85-.807 4.346-.912l4.382-.447 6.054.01 2.967-.054 2.72-.306-.177-.485c-.342-1.149-.861-2.281-.986-3.455-.336-3.161.809-4.084 3.361-4.779.218-.06.477-.124.622-.276.762-.797 1.738-.864 2.713-.739 1.144.145 2.311.335 3.075 1.379.057.076.172.128.271.153 1.053.28 1.62 1.108 2.21 1.923 1.488 2.053 3.553 3.255 5.972 3.8 1.927.435 3.626 1.334 5.098 2.534 1.449 1.18 2.046 2.957 2.265 4.81.135 1.141.434 2.304-.191 3.402-.724 1.273-1.673 2.336-2.926 3.117-.395.246-.803.499-1.124.827l-4.987 5.155c-1.416 1.394-2.426 3.074-3.598 4.644-.738.989-1.71 1.84-2.701 2.59-.728.553-1.619 1.036-2.504 1.206-1.89.365-3.475-.465-4.86-1.711l.003.002zm3.365-22.031l-4.019.779c-3.13.455-6.278.415-9.434.39-2.359-.018-4.726.257-7.08.481-1.21.116-2.47.006-3.59.723-.439.281-1.02.369-1.551.47-.846.159-1.101.486-.909 1.295.09.385.138.785.279 1.149.382.979.462 2.12 1.619 2.684.269.132.303.734.463 1.113.119.283.194.653.414.811.65.466 1.332.862 2.223.637.633-.16 1.304-.175 1.959-.242l5.031-.48 6.74.079c1.786-.057 3.564-.352 5.344-.564l2.331-.374c-.886 1.342-1.614 2.746-2.633 3.893-.801.902-.676 1.741-.45 2.679.153.637.387 1.26.641 1.865.118.28.318.616.57.728.63.28.766.809.885 1.377.204.975 1.384 1.764 2.238 1.33.944-.478 1.916-1.057 2.616-1.827.927-1.023 1.484-2.383 2.41-3.407 2.346-2.594 4.792-5.099 7.24-7.599.577-.589 1.376-.959 1.976-1.532.538-.514 1.301-1.152 1.326-1.762.047-1.142-.274-2.335-.616-3.452-.428-1.4-1.876-1.732-2.963-2.368-.816-.478-1.833-.623-2.762-.906-2.658-.808-4.86-2.304-6.45-4.57-.692-.984-1.934-1.109-2.622-2.018-.054-.071-.249-.028-.374-.056-.286-.062-.568-.134-.775-.184-.262.201-.477.454-.75.557-.627.238-1.299.361-1.917.617-.254.104-.608.448-.589.655.128 1.454.455 2.858 1.29 4.103.607.904 1.186 1.827 1.897 2.928l-.008-.004z" fill="#fff"/><path d="M56.438 34.007l-6.434 1.324c-.497.109-1.024.299-1.419.602-1.466 1.123-3.096 1.262-4.84 1.01-.268-.039-.687.067-.838.259-1.258 1.606-1.995 1.865-3.904 1.268l-.438-.152c-.656 1.467-1.923 1.676-3.211 1.239-.788-.268-1.457-.972-2.099-1.567-.457-.421-.771-.994-1.161-1.488-.309-.39-.309-.749.02-1.129.762-.879 1.747-1.342 2.875-1.469.279-.031.592.225.908.356l.815-.744c.42-.367.813-.531 1.42-.242.519.247 1.172.218 1.765.311l.045.267.487-.669c.87-1.136 2.184-1.507 3.434-.811 1.025.57 1.851.485 2.742-.24.966-.789 2.117-1.044 3.371-1.142 1.218-.095 2.415-.476 3.62-.736l.689-.172c1.251-.263 2.108.527 2.053 1.84-.025.596.054 1.195.102 2.082l-.002.001zm-.546 8.434l-.025.156c-.211 1.157-.21 1.211-1.394 1.224-.78.007-1.26.474-1.767.904-.787.667-1.986.828-2.867.317-.517-.299-.925-.234-1.386.218-1.808 1.77-3.983 2.026-6.346 1.42-.244-.062-.569-.043-.785.074l-2.949 1.662c-1.199.568-2.493.597-3.742.157-.485-.171-.873-.168-1.233.13-.435.361-.777.24-1.083-.13-.755-.913-1.103-1.978-1.023-3.148.048-.693 1.508-1.525 2.345-1.377.766.135 1.519.374 2.29.441.436.038.942-.087 1.337-.293l3.081-1.765c.835-.435 1.728-.397 2.602-.025 1.071.457 2.016.314 2.916-.484 1.334-1.184 2.803-1.996 4.678-1.227.134.055.391-.057.53-.168 1.201-.954 2.554-1.16 4.017-.856.564.118 1.12 1.288.961 2.003l-.176.764.02.003-.002.001z" fill="#fbfcfe"/><path d="M106.472 67.75l5.237 5.324 7.398 7.846c.071.077.131.165.278.352l-2.52 1.031-7.079 2.087c-.098.028-.187.086-.279.131l-1.256-6.081-1.8-10.299c-.022-.125.014-.259.022-.391l-.001.002z" fill="#fcfdfd"/><path d="M39.598 74.659c.206-1.156.37-1.186 1.491-1.332l8.648-1.295 7.73-1.491 4.4-.918c.865-.167 1.447.361 1.452 1.251.007 1.411.005 1.394-1.364 1.666l-4.917 1.024-12.825 2.381c-1.179.207-2.392.249-3.591.301-.949.041-1.128-.198-1.065-1.157l.042-.431z" fill="#010305"/><path d="M71.705 40.937l-1.883.47-2.764.505c-.918.139-1.727.448-2.544.944-1.534.931-3.282.954-5.027.734l-.707-.074c-1.011-.098-1.254-.318-1.152-1.33.07-.698.254-1.398.495-2.058.227-.615.726-.943 1.433-.83l1.02.124c.944.044 1.842-.02 2.448-.923.566-.847 1.477-.732 2.326-.752.388-.01.783.048 1.161-.013l3.318-.61c.834-.156 1.916.773 1.903 1.632l-.029 2.181h.001z" fill="#fbfcfe"/><path d="M35.909 58.76c.056-.573.353-.834.943-.939l10.143-1.89 7.631-1.891c1.028-.263 1.541.05 1.725 1.136.232 1.368.228 1.352-1.123 1.693l-7.044 1.791c-3.388.713-6.806 1.286-10.21 1.918-.078.015-.156.024-.234.039-1.622.311-2.103-.177-1.833-1.857h.002z" fill="#010205"/><path d="M86.469 56.486l.404.365c.603.598.38 1.386.403 2.094.005.14-.509.379-.808.436l-10.281 1.926a86.31 86.31 0 0 0-4.372.941c-.634.155-.919-.108-1.019-.64a6.1 6.1 0 0 1-.098-1.487c.031-.515.398-.718.9-.814l10.211-1.985 4.026-.747.633-.088zm-27.908-2.433c.013-.655.249-1 .905-1.104l4.878-.894 8.453-1.826c.566-.121 1.197-.394 1.549.41.048.11.279.132.406.223.206.146.573.332.561.473-.032.345-.155.763-.393.992-.962.925-2.272.924-3.48 1.173l-11.01 2.237c-1.745.346-2.041.046-1.868-1.683l-.001-.002zm-4.973 11.854c-.624.295-1.215.737-1.862.85l-7.824 1.214c-1.386.236-2.741.643-4.116.948-.522.115-1.077.596-1.582.003-.386-.452-.486-1.935-.169-2.341a.94.94 0 0 1 .519-.303l9.32-1.853 3.465-.667c.862-.203 1.184-.104 1.616.756l.635 1.394-.001-.002zm-12.193 15.72c.268-.184.558-.52.908-.603l8.377-1.902 4.227-.94c.698-.164 1.326.348 1.37 1.17.076 1.452-.066 1.629-1.544 1.906L46.38 82.84c-1.198.248-2.378.631-3.533 1.043-.807.287-1.136-.055-1.282-.747-.091-.431-.102-.879-.168-1.508h-.002zm13.894-17.913c.036-.626.354-.892.972-1.04l9.616-2.38c.432-.107.877-.173 1.318-.243 1.003-.16 1.483.267 1.498 1.316a1.85 1.85 0 0 0 .039.393c.184.77-.242.958-.901 1.112l-6.122 1.556-5.101 1.159c-.985.206-1.209.009-1.31-1.008-.029-.285-.005-.576-.007-.864h-.002z" fill="#010305"/><path d="M25.607 71.366l-6.109-5.383 4.736-3.265 1.067 6.347.308 2.301h-.002z" fill="#fbfbfc"/><path d="M66.012 69.694c.075-.732.345-1.081.982-1.186l4.496-.85c.63-.133 1.012-.001 1.355.581.617 1.045.243 2.104-.897 2.316l-4.647.863c-1.002.185-1.124.104-1.265-.919-.043-.31-.021-.629-.026-.804h.002z" fill="#010305"/><path d="M15.601 69.124l1.502 1.561c3.084 2.64 6.119 5.342 9.299 7.86 2.903 2.298 5.62 4.781 8.294 7.335L47.79 98.031c2.696 2.443 5.472 4.806 8.302 7.092 1.602 1.295 3.389 2.36 5.09 3.532.234.162.569.295.665.522.576 1.373 1.777 1.203 2.801 1.003 1.257-.244 2.525-.649 3.672-1.219 5.091-2.533 10.5-4.29 15.69-6.566 3.548-1.557 6.918-3.516 10.415-5.194 1.752-.842 3.615-1.453 5.423-2.177l12.44-4.981c1.802-.698 3.676-1.208 5.511-1.82.459-.154.896-.374 1.315-.553l-1.025 6.482-2.498 14.509-1.58 9.281c-.494 3.332-.701 6.715-1.348 10.014-.476 2.422-1.453 4.748-2.229 7.11-.101.308-.336.57-.567.945-1.026-1.325-1.955-2.625-2.992-3.835-1.537-1.798-3.152-3.53-4.729-5.296-.404-.451-.789-.919-1.187-1.378-.764-.882-2.006-.968-2.918-.236-.187.148-.461.221-.706.258-.616.092-.96.484-.932 1.044.047.944.229 1.856.95 2.597 3.218 3.303 6.266 6.752 8.918 10.577-.311.479-.714.581-1.312.53-3.028-.259-6.061-.499-9.097-.644-4.098-.198-8.178-.54-12.212-1.311l-10.697-2.124-14.521-2.311-10.368-1.796-10.896-1.962-12.993-1.962c-2.078-.339-4.128-.857-6.187-1.311-.174-.038-.461-.209-.456-.304.039-.674-.462-.583-.853-.663l-3.821-.797.044-.202 12.099-7.074c.406-.236.896-.342 1.269-.615a11.73 11.73 0 0 0 1.667-1.465c.172-.185.133-.59.141-.895.008-.336-.085-.676-.056-1.006.08-.947-.063-1.181-1.025-1.008-.908.163-1.846.418-2.65.854-3.237 1.758-6.433 3.592-9.632 5.42-1.553.888-3.077 1.825-4.689 2.782-.982-2.239-1.672-4.375-1.292-6.804l5.934-38.66c.325-2.136.532-4.289.796-6.435.028-.227.071-.451.134-.851l.002-.003z" fill="#fefefe"/><path d="M108.089 35.403l-1.896-2.928c-.836-1.243-1.163-2.648-1.29-4.103-.017-.206.335-.55.589-.655.619-.255 1.289-.379 1.917-.617.273-.103.489-.356.75-.557l.774.184c.126.028.32-.015.375.056.688.908 1.93 1.033 2.622 2.018 1.59 2.266 3.792 3.762 6.45 4.57.931.283 1.946.426 2.762.906 1.086.638 2.535.97 2.963 2.368.342 1.119.662 2.309.616 3.452-.025.609-.788 1.249-1.326 1.762-.6.573-1.399.941-1.976 1.532l-7.24 7.599c-.926 1.025-1.483 2.384-2.411 3.407-.698.77-1.671 1.349-2.615 1.827-.854.433-2.034-.357-2.238-1.33-.119-.569-.256-1.097-.885-1.377-.252-.112-.452-.448-.57-.728-.255-.606-.489-1.228-.642-1.865-.226-.937-.35-1.777.451-2.679 1.019-1.147 1.746-2.551 2.633-3.893l-2.331.374-5.344.564c-2.244.072-4.496-.137-6.74-.079-1.679.042-3.355.308-5.031.48-.655.067-1.326.082-1.959.242-.894.227-1.575-.169-2.223-.637-.219-.158-.295-.529-.414-.811-.16-.38-.194-.981-.463-1.114-1.156-.564-1.238-1.704-1.619-2.684-.142-.364-.187-.766-.279-1.149-.192-.809.063-1.137.909-1.295.53-.099 1.112-.189 1.551-.47 1.12-.715 2.381-.607 3.59-.723l7.08-.481c3.157.025 6.305.065 9.435-.39l4.019-.779.007.004z" fill="#020000"/></g><defs><clipPath id="A"><path fill="#fff" transform="rotate(8.942 6.408 136.353)" d="M0 0h115.179v130.761H0z"/></clipPath></defs></svg>