<svg xmlns="http://www.w3.org/2000/svg" width="139" height="82" fill="none"><g clip-path="url(#A)"><path d="M65.84 29.687c.069-.727-.151-1.482-.716-1.989-.248-.22-.523-.398-.826-.521-.11-.453-.33-.878-.674-1.194-.371-.343-.798-.562-1.238-.659a2.18 2.18 0 0 0-.578-.864 2.68 2.68 0 0 0-1.472-.7 1.89 1.89 0 0 0-.454-.59c-1.032-.947-2.587-.988-3.605 0-4.155 4.034-8.93 7.34-13.306 11.113l-2.793 2.469 5.311-5.707 6.233-6.887c.592-.631 1.197-1.248 1.844-1.825a13.6 13.6 0 0 1 .949-.823 7.85 7.85 0 0 1 .385-.316s.371-.288.371-.302c1.307-.988 2.669-1.893 4.032-2.799 1.101-.741 1.692-2.277.908-3.471a2.01 2.01 0 0 1-.124-.178c.509-.768.55-1.756.096-2.675-.578-1.166-1.885-1.756-3.137-1.742-.743 0-1.404.288-2.009.659a40.08 40.08 0 0 0-5.16-2.95 3.07 3.07 0 0 0-1.527-.288c-.77-.137-1.582.096-2.243.686a92.08 92.08 0 0 0-5.655 5.447c-.688-1.015-1.624-1.88-2.669-2.524-.096-.069-.206-.11-.317-.165-.138-.123-.275-.22-.44-.302-1.17-.617-2.835-.343-3.481.905-2.215 4.267-4.499 8.506-6.316 12.965a48.45 48.45 0 0 0-2.133 6.544 2.01 2.01 0 0 0-.124.178l-1.252 1.646-.578.741a14.33 14.33 0 0 0-.371.48 278.67 278.67 0 0 1-5.105 6.352c-.839 1.029-1.073 2.607 0 3.594.027.014.041.041.069.055l-1.431 2.223c-.715 1.125-.261 2.854.908 3.471.193.096.399.178.592.233.812.7 1.858.823 2.766.425.041.851.495 1.701 1.252 2.099a1.89 1.89 0 0 0 .523.206c-.344.713-.385 1.523.096 2.277a2.29 2.29 0 0 0 .372.453c-.165.576-.138 1.194.206 1.77-.509.892-.523 1.948.151 2.826.812 1.043 2.119 1.221 3.289.658l6.316-3.059a147.72 147.72 0 0 0-5.27 4.445c-1.472 1.303-.633 3.732 1.128 4.239a64.15 64.15 0 0 1 2.146.659c-.055.617.11 1.221.523 1.742a2.76 2.76 0 0 0 1.431.933c.44.343.991.535 1.596.59 1.032.11 2.078.151 3.11.151.454.521 1.128.851 2.078.878.66.027 1.266-.233 1.858-.466l2.064-.892c.124-.055.248-.123.371-.178-.014.151-.028.316 0 .48.096 1.358 1.087 2.552 2.545 2.538 1.114-.014 2.16-.288 3.137-.7-.179 1.468 1.17 2.84 2.601 2.854-.784 2.154 1.472 4.157 3.619 3.114.22.453.55.837.991 1.07 1.266.659 2.711.288 3.481-.906a14.03 14.03 0 0 1 .385-.576c.014-.027.234-.302.261-.357a12.36 12.36 0 0 1 .784-.905 16.12 16.12 0 0 1 .991-.947c.138-.123.289-.247.44-.37l.027-.027c.096-.069.179-.137.275-.206 1.073-.768 1.706-2.25.908-3.471a2.77 2.77 0 0 0-1.17-1.001c-.206-.165-.427-.288-.674-.384.124-1.413-.949-2.977-2.518-2.867-.578.041-1.156.11-1.734.192a2.69 2.69 0 0 0-.138-1.55c-.426-1.001-1.28-1.44-2.325-1.564a6.18 6.18 0 0 0-1.514.014 6.14 6.14 0 0 0 .303-.782c.592-2.072-.922-4.5-3.261-4.184-.096 0-.179.027-.261.041.165-.329.316-.686.426-1.056.261-.823-.014-1.756-.592-2.401.248-.713.206-1.55-.193-2.168a2.57 2.57 0 0 0-2.587-1.194c1.252-1.399 2.05-3.21 1.238-5.104-.674-1.578-2.119-2.305-3.743-1.523l-1.404.686c3.674-2.867 7.237-5.858 10.733-8.945.757.412 1.679.466 2.477-.014a23.7 23.7 0 0 1 1.816-1.029l.165-.082c.055.233.151.453.275.645.482.741 1.17 1.125 1.954 1.207.358.604.922 1.07 1.541 1.221 1.472.329 2.587-.453 3.137-1.77.275-.672.482-1.358.619-2.072.124-.672.028-1.372-.275-1.948a7.79 7.79 0 0 0 .413-1.166c.289-1.043-.179-2.25-1.087-2.84h-.041zm53.62 11.896l-5.077-5.447-.551-.672-.358-.439-1.1-1.523c-.702-1.043-1.349-2.14-1.954-3.251l-3.385-6.736-.358-.796c0-.014 0-.027-.014-.041 0 0 0-.027-.013-.041l-.138-.343-.674-1.866c-.385-1.207-.647-2.442-.908-3.69-.578-2.867-1.734-5.913-4.527-7.326-1.321-.672-2.628-.247-3.481.905l-1.748 2.607-2.518-2.634c-1.101-.974-2.436-1.976-3.88-2.401-1.349-.398-2.669 0-3.536 1.111-.523.672-.963 1.427-1.431 2.14-.371.562-.44 1.386-.22 2.072l-1.018.041c-.44 0-.867 0-1.307-.014-.234 0-.468-.041-.715-.055h-.124c-.028 0-.083-.014-.138-.041l-1.362-.343-.33-.123c.22.069-.482-.233-.564-.274-1.335-.713-3.44-.165-3.743 1.523-.344 1.866-.936 4.884.757 6.187.206.919.867 1.592 1.803 1.921l4.197 1.537 1.417 1.249 1.569 1.564c-2.229-.659-4.651-1.152-6.935-.576-2.504.617-4.623 2.401-6.453 4.13-1.17 1.084-2.023 2.552-1.926 4.198.083 1.523.757 2.881 1.582 4.13.991 1.509 3.027 1.633 4.155.316.743.398 1.637.384 2.477-.028.041-.014.069-.027.096-.041l.358-.11a6.47 6.47 0 0 1 .702-.165c-.028.014.523-.041.633-.041l1.046.027c.151 0 .316.027.468.041a.81.81 0 0 1 .22.028 1.17 1.17 0 0 1 .275.041l.468.082 2.023.425c.041 0 .193.069.234.082l.248.137a1.79 1.79 0 0 1 .261.178c.028.027.055.055.096.082a15.28 15.28 0 0 1 1.197 1.303l1.816 2.195c-.881.988-.991 2.593.041 3.553l.523.48c-.179.508-.179 1.043 0 1.55-.633.974-.688 2.428.275 3.238l.674.604c-.867.041-1.747.508-2.146 1.262a2.87 2.87 0 0 0-.33 1.166c-.165.096-.317.233-.454.384-.853.919-1.101 2.703 0 3.594a28.27 28.27 0 0 1 2.766 2.524l1.293 1.441a1.46 1.46 0 0 1 .124.151l-3.192-2.881c-.991-.892-2.642-1.043-3.605 0-.234.247-.413.535-.537.851-.578.316-1.032.837-1.252 1.537-.316 1.043 0 2.072.495 3.046-.812-.535-1.885-.7-2.752-.151-.977.631-1.445 1.729-1.17 2.867.028.082.041.178.069.261-.977-.178-2.036.11-2.752.823l-.151.165c-.427 0-.867.11-1.307.302-1.197.535-1.871 1.866-1.94 3.114-.069 1.207.495 2.332 1.293 3.197 1.293 1.413 3.371 2.195 5.284 2.017.922-.082 1.706-.425 2.201-1.262a2.59 2.59 0 0 0 .316-.878c1.128.316 2.312.123 3.206-.851a2.78 2.78 0 0 0 .757-2.003l1.17.398c1.266.398 2.835-.466 3.137-1.77a2.51 2.51 0 0 0 .509-2.14l1.651 1.495c.991.892 2.642 1.043 3.605 0a2.93 2.93 0 0 0 .344-.466s.014 0 .027.014c1.115.741 2.862.247 3.481-.906.647-1.221.303-2.552-.757-3.361.069.082.082.151 0 0l-.151-.11c.055.041.11.069.138.096.055.041.069.041 0-.014l-.371-.727-.22-.439 4.169 4.198c.908.974 2.697.988 3.605 0 .33-.357.551-.782.647-1.207.192-.11.371-.247.523-.398.619-.672.825-1.482.674-2.264.674-.178 1.293-.604 1.61-1.18.22-.411.33-.823.33-1.235.289-.316.482-.713.605-1.125a2.34 2.34 0 0 0 .537-.247 2.06 2.06 0 0 0 .385-.302l.964.713c1.087.782 2.875.219 3.481-.906.701-1.317.247-2.648-.908-3.471l-.62-.453c-.068-.055-.137-.096-.192-.151l-1.184-.96-.261-.22c.22 0 .454-.027.674-.11 1.307-.425 2.174-1.756 1.775-3.128l-.275-.864.028-.028c.605-.658.853-1.564.66-2.401.11-.082.22-.165.316-.274a3.02 3.02 0 0 0 .441-.617c.688.055 1.39-.151 1.899-.713a2.89 2.89 0 0 0 .715-1.646c.592-.041 1.17-.274 1.582-.727.936-1.015.991-2.579 0-3.595l-.082-.096z" fill="#fff"/><path d="M65.937 69.637c.413.453.798.947 1.266 1.344.867.741 1.101 2.346.468 3.32l-1.637 2.675c-.908 1.413-1.858 2.785-3.536 3.43-.33.124-.592.412-.881.631-1.803 1.399-3.44 1.098-5.091.178-2.711-1.495-4.981-3.567-7.403-5.447-1.238-.947-2.559-1.756-4.087-2.181-.234-.069-.482-.082-.729-.096l-5.201-.165c-.592-.041-1.156-.302-1.734-.466l-2.587-.727c-.138-.041-.413.055-.454.151-.413.906-1.266 1.18-2.092 1.29-1.238.165-2.312.535-3.165 1.482-.715.809-1.679 1.139-2.669 1.509l-4.94 2.126c-1.458.535-3 .851-4.513 1.249l-2.876.713c-.688.151-1.376.288-2.078.329-.275.014-.619-.192-.825-.411-.605-.617-1.225-1.249-1.692-1.962-1.183-1.838-2.601-3.485-3.963-5.172-.977-1.221-1.403-2.703-1.665-4.198-.22-1.331.11-2.566 1.225-3.471-.165-.22-.344-.412-.468-.631-.605-1.056-1.637-1.139-2.683-1.248-1.692-.165-2.174-1.537-1.871-2.908.592-2.744 1.665-5.309 2.697-7.902.482-1.221 1.28-2.209 1.954-3.279l4.224-6.805c.55-.851 1.238-1.633 1.954-2.346.949-.96 3.302-1.139 4.362.137.138.165.248.357.275.398l1.857-2.497c.165-.219.372-.412.509-.631l2.917-4.98 2.573-3.8c1.734-2.428 2.628-5.186 3.33-8.053.316-1.262.867-2.483 1.403-3.677l2.477-4.98c.991-1.619 2.449-2.867 4.155-3.745 1.211-.631 2.298-.082 2.669 1.248.124.466.344.919-.027 1.399a.85.85 0 0 1-1.404-.055c-.619-1.015-.647-1.18-1.706-.247-1.225 1.07-2.27 2.291-2.793 3.896-.839 2.593-2.064 5.049-2.573 7.751-.344 1.852-.784 3.704-1.734 5.337l-3.523 5.501-1.954 3.361c-.385.672-.729 1.386-1.197 2.017l-2.477 3.114c-.138.165-.372.247-.619.398.523.343 1.101.604 1.527 1.029l3.88 4.02 5.05 6.558c1.665 2.209 2.408 4.802 3.082 7.436.275 1.097.729 2.14 1.156 3.197l1.527 3.567c.234.727.592 1.001 1.266 1.084 1.293.137 2.573.316 3.811.796.605.233 1.321.192 1.995.206l4.802.069c1.747.165 3.22 1.139 4.609 2.127l5.297 4.129c1.046.768 2.174 1.441 3.316 2.044.234.123.715-.178 1.06-.357.316-.165.55-.494.881-.631 1.527-.617 2.312-1.88 3.013-3.238.151-.302.22-.672.44-.892.537-.562.234-.947-.193-1.331l-6.357-5.817c-.674-.631-1.225-1.399-1.858-2.085l-2.958-3.21c-1.5-1.66-2.38-3.69-3.22-5.721-.578-1.372-1.128-2.771-1.514-4.198-.523-1.976-.427-3.992.027-5.982.151-.672.11-1.413.385-2.03.853-2.003 1.968-3.91 3.701-5.241 2.436-1.866 5.215-1.88 7.994-.755 1.142.467 2.215 1.07 3.316 1.633.55.288.908.192 1.17-.398l1.582-3.485c.083-.178.096-.384.083-.576l-.083-2.126c0-.206.028-.439-.055-.604-.977-1.811-2.105-3.498-3.55-5.007-1.94-2.003-4.114-2.497-6.715-1.701-1.555.48-2.944 1.152-4.087 2.374l-3.522 3.416c-1.844 1.852-3.564 3.828-5.008 6.009-.261.398-.495.823-.826 1.139-.193.192-.578.316-.826.261-.193-.041-.454-.425-.44-.631.028-.384.206-.755.372-1.125.179-.398.385-.796.619-1.18l2.738-4.376c1.637-2.319 3.509-4.459 5.545-6.448 1.5-1.468 3.385-2.181 5.38-2.689s3.977-.617 5.875.316c.702.343 1.445.713 1.995 1.262l3.908 4.28c.427.535.468 1.358.674 1.989l4.059-3.677c1.761-1.386 3.825-1.852 6.082-1.605 1.706.192 3.371.535 4.885 1.303.881.453 1.692 1.056 2.463 1.674 2.683 2.127 4.926 4.678 7.045 7.34.344.439.578.974.881 1.454.206.343.427.686.647 1.029.082.137.206.247.275.398.206.384.358.823-.124 1.084-.413.233-.757.11-1.101-.316-1.073-1.29-2.16-2.593-3.357-3.773-1.486-1.454-3.055-2.826-4.651-4.171-1.954-1.633-4.073-2.963-6.701-3.21-1.72-.165-3.33.082-4.664 1.249-1.39 1.207-2.752 2.469-3.619 4.143-.082.165-.344.247-.454.316l-.165 2.209c0 .165.055.357.138.508l1.445 3.032c.468 1.015.605 1.097 1.582.535 1.555-.892 3.096-1.756 4.871-2.14 2.862-.631 6.137.343 7.719 2.895.372.59.798 1.152 1.252 1.701.743.905 1.046 1.962 1.183 3.1.055.494.193.974.289 1.454.523 2.511.317 4.994-.647 7.353-.977 2.387-1.761 4.884-3.371 6.969-.647.837-1.404 1.605-2.078 2.415-.77.919-1.472 1.921-2.298 2.799-.936.988-2.009 1.866-3 2.812l-4.665 4.569c.949 1.125 1.692 2.25 2.669 3.1.798.686 1.885 1.056 2.876 1.509.206.096.55-.041.812-.123 1.968-.7 3.536-2.044 5.256-3.142 1.087-.7 2.091-1.536 3.165-2.264 1.28-.864 2.587-1.715 4.142-1.948 1.238-.178 2.504-.137 3.756-.206.977-.055 2.023.096 2.917-.206 1.472-.521 2.986-.755 4.499-1.043.152-.027.331-.206.386-.357.66-1.578 1.362-3.142 1.912-4.747.537-1.591.977-3.224 1.362-4.857.578-2.483 1.872-4.61 3.344-6.613 1.981-2.689 4.073-5.309 6.206-7.875.784-.947 1.857-1.646 2.752-2.415-1.294-.919-2.229-2.264-3.11-3.677-.537-.864-1.142-1.687-1.693-2.538l-4.884-7.587c-.922-1.468-1.472-3.101-1.789-4.802-.482-2.579-1.651-4.911-2.504-7.353-.702-1.989-1.761-3.773-3.082-5.405-.468-.576-1.115-1.002-1.693-1.523.234-.466.468-.329.826-.151 2.834 1.358 4.719 3.567 5.944 6.407.853 1.989 2.078 3.8 2.601 5.94.316 1.345.66 2.703 1.252 3.938.715 1.523 1.665 2.936 2.573 4.363l3.219 4.953c1.032 1.536 2.119 3.046 3.193 4.555.399.563.811 1.111 1.183 1.605.385-1.043 1.789-1.605 3.247-1.331 1.211.22 1.83 1.125 2.518 1.948.564.686 1.005 1.454 1.555 2.154.248.329.619.563.908.864l8.242 8.698c.386.412.578 1.002.785 1.55.233.59.454 1.194.55 1.811a5.61 5.61 0 0 1-.55 3.43c-.785 1.578-1.83 2.963-2.973 4.294-.426.494-.577 1.262-.743 1.934-.371 1.495-.591 3.018-1.045 4.486-.647 2.127-1.555 4.116-3.647 5.296-.88.494-1.72 1.084-2.545 1.688-.427.302-.729.768-1.142 1.084-.207.165-.537.192-.812.274-.289.082-.743-.124-.77.439 0 .041-.317.11-.482.096l-3.55-.274c-3.66-.261-6.921-1.687-10.1-3.361-1.059-.562-2.009-1.235-2.958-1.948-.578-.425-1.39-.549-2.119-.7-1.004-.206-1.926-.48-2.477-1.537-.922.288-1.843.508-2.724.864-1.059.425-2.146.686-3.288.7-.894.014-1.789.137-2.683.082-2.367-.137-4.238.988-6.096 2.209-2.394 1.578-4.665 3.361-7.32 4.5-1.734.741-3.357.604-4.898-.453-.193-.124-.385-.261-.592-.329-1.871-.562-3.013-1.948-4.045-3.485-.344-.508-.798-.933-1.183-1.399-.922-1.097-.867-1.523-.055-2.456 1.39-1.564 2.89-3.032 4.389-4.5 1.211-1.18 2.518-2.25 3.688-3.457.936-.974 1.72-2.099 2.6-3.128.647-.768 1.321-1.509 1.968-2.264.11-.137.193-.302.275-.453l.826-1.742c.399-.727.853-1.427 1.197-2.181.853-1.907 1.582-3.841 1.582-5.982 0-1.646-.234-3.238-.674-4.829-.44-1.605-1.417-2.675-2.958-3.306-1.899-.782-3.701-.631-5.462.412-.179.11-.372.178-.55.274-.619.37-1.252.59-2.009.562-.702-.027-1.431-.014-2.119.123-.619.123-1.197.453-1.802.7-.179-.137-.413-.247-.523-.425-.454-.768-.867-1.55-1.307-2.318-.096-.178-.248-.329-.372-.48-.096.165-.206.316-.275.48-.399.919-.784 1.866-1.679 2.456-.798-.288-1.569-.658-2.38-.864-1.899-.466-3.811-.851-5.724-1.248-2.408-.508-4.183.494-5.683 2.291-1.238 1.482-1.624 3.32-2.243 5.063-.055.151-.055.329-.027.48l.674 3.595c.482 2.305 1.555 4.376 2.697 6.379.936 1.633 2.312 3.032 3.523 4.514 1.816 2.222 4.183 3.855 6.357 5.694.881.741 1.802 1.441 2.711 2.154l-.055-.124z" fill="#010101"/><path d="M85.076 43.121c-.44-1.605-1.417-2.675-2.958-3.306-1.899-.782-3.701-.631-5.463.412-.179.11-.371.178-.55.274-.619.37-1.252.59-2.009.563-.702-.027-1.431-.014-2.119.123-.619.123-1.197.453-1.802.7l-1.858 1.688-2.298-1.976-2.38-.864-5.724-1.248c-2.408-.508-4.183.494-5.683 2.291-1.238 1.482-1.624 3.32-2.243 5.062a.95.95 0 0 0-.028.48l.674 3.594c.481 2.305 1.555 4.376 2.697 6.379.936 1.633 2.312 3.032 3.522 4.514 1.816 2.222 4.183 3.855 6.357 5.694l2.711 2.154c.234.069.482.11.688.233 1.004.563 2.339.508 3.247-.192.193-.151.303-.384.454-.576l.151-.233.027-.027.509-.549.014-.014.11-.11.028-.027.11-.11.027-.027c.041-.041.083-.069.11-.11l.028-.027.11-.11.027-.028.11-.11.028-.027.11-.11.028-.028.11-.11.028-.027.11-.11.028-.028.11-.11.027-.027.11-.11.028-.027.11-.11.027-.027.11-.11.028-.027.11-.11.028-.027.798-.686c.041-.041.083-.069.124-.11l.028-.014c.041-.041.083-.069.124-.11l.028-.028.11-.11.028-.027 1.348-1.235h.014c.041-.041.082-.069.124-.11l.028-.028.11-.11.028-.028.798-.686h.014c.041-.041.083-.069.124-.11l.028-.027c.041-.041.082-.069.11-.11l.028-.027 1.197-1.098h.014c.041-.041.083-.069.124-.11l.028-.027c.041-.041.082-.069.11-.11l.028-.027.11-.11.027-.027.11-.11.028-.027.11-.11.028-.027c.041-.041.069-.082.11-.123l.014-.027.537-.658.028-.028.11-.11.028-.028c.041-.041.069-.082.11-.11l.014-.028c.041-.041.082-.082.11-.123l.014-.014c.041-.041.083-.082.11-.123l.014-.014.124-.123.014-.014.124-.123.688-.796.014-.027c.041-.041.069-.082.11-.123l.014-.027.124-.123.014-.014.124-.123.55-.672 1.087-1.482 1.197-2.181c.853-1.907 1.582-3.841 1.582-5.982 0-1.646-.234-3.238-.674-4.829l.083-.028zm-29.817 3.91l6.756 2.003-2.009-.178-.509-.178c-.371-.137-.757-.137-1.142-.055l-1.789-.425-1.431-.261.124-.905zm13.223 16.847l-3.371-2.716 5.132 1.111-1.761 1.619v-.014zm7.76-10.591l-3.302-.947c1.335-.233 2.394.082 3.357.755-.014.069-.041.123-.055.192z" fill="#196ffd"/><path d="M126.781 18.645l3.935-.7c.207-.027.509.069.675.206 1.073.919 1.651 3.8 1.059 5.076-.537 1.194-1.362 2.14-2.559 2.62-1.913.768-3.495 2.058-5.229 3.101-.151.096-.303.22-.468.274-.935.247-1.142.384-1.568-.562-.138-.288-.179-.686-.688-.508-.11.041-.358-.178-.468-.343-.963-1.509-2.092-2.95-2.821-4.555-1.39-3.087-.33-5.282 2.642-6.558.894-.384 1.899-.535 2.876-.672.853-.123 1.5.302 1.871 1.084l.743 1.523v.014zm-3.027 8.108c-.096.041-.028.027.028 0 1.788-1.139 3.508-2.387 5.476-3.238 1.197-.521 1.348-1.811.55-2.922-.234.027-.468.027-.674.096-.564.165-1.472.206-1.61.549-.44 1.084-1.142 1.468-2.229 1.427-.124 0-.248.137-.371.165-.551.123-.936 0-1.225-.549-.33-.631-.261-1.07.289-1.537.715-.617.757-.988.082-1.633-.275-.261-.825-.357-1.224-.316-2.202.233-2.917 1.838-1.789 3.512l2.697 4.473v-.027z" fill="#030303"/><path d="M58.864 10.387l-4.912 2.209c-1.445.713-2.752 1.633-3.88 2.812l-5.118 5.172c-1.5 1.756-2.725 3.745-4.045 5.652l-2.793 4.129c-.179.261-.495.439-.77.617-.11.069-.33.11-.399.055-.083-.082-.069-.274-.069-.412 0-.082 0-.192.041-.261 1.472-2.812 2.463-5.885 4.348-8.478l3.33-4.116 4.554-4.569c1.871-1.783 4.114-2.963 6.508-3.883.66-.261 1.349-.508 1.968-.864 1.803-1.015 3.536.123 3.66 1.88.069 1.043.55 2.072.826 3.101.385 1.441.138 2.758-.867 3.896-.083.082-.151.178-.248.233-.371.233-.839.563-1.197.192-.22-.22-.289-.837-.138-1.111.605-1.125.371-2.223.055-3.334l-.853-2.895v-.027z" fill="#020202"/><path d="M99.537 31.253c-1.28-.453-1.995-1.537-2.793-2.511l-4.747-5.803c-1.183-1.29-2.628-2.318-3.99-3.43l-4.266-3.334c-2.009-1.344-4.32-2.003-6.632-2.62l-1.307-.412-.206 1.523c-.151 1.18-.674 2.332-.344 3.553.083.302.22.59.317.878.11.316.261.631.316.96.083.535-.261.659-.688.563-1.128-.247-1.665-1.111-2.023-2.099-.523-1.454 0-2.854.193-4.28l.22-1.591c.261-1.523 1.624-2.099 2.821-1.674 2.394.837 4.94 1.276 7.155 2.552l2.201 1.372 5.394 4.349c2.766 2.305 4.857 5.159 6.66 8.245l1.624 2.744c.151.274.22.604.316.905-.083.027-.151.069-.234.096l.014.014z" fill="#050505"/><path d="M117.824 3.993l2.972-.178c.949 0 2.298 1.125 2.587 2.085.371 1.207-.083 2.401-1.294 3.224-.688.466-1.458.823-2.16 1.29l-3.715 2.497c-.096.069-.055.316-.137.425-.234.357-.427.851-.771.988-.468.192-.922-.014-1.252-.549a10.61 10.61 0 0 0-1.445-1.866L109.21 8.63c-1.142-1.276-1.224-2.84-.564-4.349.633-1.441 1.899-2.195 3.426-2.36 1.06-.123 2.147-.096 3.22-.027 1.445.082 2.16.755 2.518 2.113l.014-.014zm-2.573 7.463c.055-.041.22-.123.371-.233l4.183-2.758 1.665-1.152c.124-.096.165-.508.069-.645-.798-1.139-2.683-1.111-3.811-.439-.289.178-.84.288-1.046.137-.317-.233-.605-.713-.619-1.098 0-.768-.165-1.235-.936-1.317-1.059-.123-2.146-.206-3.206-.11-1.224.096-1.734.809-1.775 1.989-.027.878.523 1.413 1.101 1.934l4.004 3.691z" fill="#040404"/><path d="M83.176 10.576l1.142-2.154c.371-.59.729-1.235 1.252-1.674.977-.851 2.174-.851 3.234-.206 1.624.988 3.288 1.976 4.719 3.21 1.197 1.043 2.119 2.428 3.096 3.704 1.046 1.372 2.243 2.689 2.945 4.226 1.252 2.744 2.201 5.625 3.248 8.465.082.22 0 .549-.11.782-.069.165-.317.357-.468.343-.165 0-.399-.192-.482-.37l-2.821-6.53c-.564-1.358-1.348-2.552-2.284-3.677-1.046-1.248-1.885-2.675-2.917-3.937-.674-.809-1.514-1.495-2.353-2.154-.936-.727-1.94-1.345-2.931-1.989-1.156-.741-1.83-.617-2.532.535-.316.508-.509 1.084-.743 1.646-.206.508-.509.988-1.073.782-.358-.137-.578-.617-.922-1.001z" fill="#050505"/><path d="M48.158 5.695c.564.233 1.142.384 1.596.7.261.192.454.672.426 1.015-.041.466-.468.686-.963.645h-.069c-1.417-.521-2.339.357-3.316 1.152-.275.233-.564.466-.881.631-2.091 1.111-3.481 2.867-4.692 4.843-.66 1.098-1.61 2.017-2.27 3.114-.743 1.235-1.335 2.566-1.899 3.896l-2.188 5.392c-.083.192-.33.439-.482.425-.193-.027-.509-.274-.509-.439-.028-.535-.041-1.111.11-1.619l2.133-6.201c.495-1.207 1.28-2.291 1.981-3.402l2.491-3.759c1.018-1.564 2.312-2.812 3.949-3.759.977-.562 1.816-1.344 2.779-1.934.509-.316 1.142-.439 1.803-.686v-.014zM22.441 2.701c.33 0 .853.343.908.837.151 1.235 1.018 2.072 1.514 3.114l1.445 2.73c.206.398.303.823-.027 1.18-.303.343-.702.357-.991-.027l-2.133-2.95c-.413-.59-.881-1.152-1.211-1.783a7.77 7.77 0 0 1-.715-1.907c-.151-.659.344-1.194 1.225-1.207l-.014.014zm-7.249 15.643c.055.014.33.055.564.178 1.445.727 2.862 1.468 4.527 1.646.234.027.592.494.592.755 0 .48-.385.837-.881.837-.826 0-1.665.027-2.463-.137-1.046-.206-2.078-.535-3.082-.905-.771-.288-.991-.796-.812-1.523.138-.59.578-.864 1.555-.851zm7.113-3.569c0 .782-.592 1.166-1.101.851a8.42 8.42 0 0 1-1.211-.864l-3.495-3.251c-.647-.604-.729-1.262-.234-1.77.509-.521 1.225-.425 1.816.247l3.192 3.704c.151.165.372.274.523.439.22.247.399.521.495.659l.014-.014z" fill="#030303"/><path d="M32.885 1.415l.44 2.524c.124.494-.083.755-.44.988-.427.274-.798.041-.991-.288-.784-1.317-.977-2.73-.372-4.157.096-.247.578-.508.825-.466.261.041.509.425.66.7.096.178.014.439.014.672-.055 0-.096.014-.151.027h.014z" fill="#040404"/><g fill="#a8ece3"><path d="M72.828 66.51l.798-.686-.798.686zm2.891-2.605l.798-.686-.798.686zm5.613-5.639l.55-.672-.55.672zM70.504 68.857l.509-.549-.509.549z"/><use href="#B"/><path d="M76.684 63.082c.041-.041.082-.069.11-.11-.041.041-.083.069-.11.11zM79.57 60.2c.041-.041.069-.082.11-.11-.041.041-.069.082-.11.11zm.139-.139c.041-.041.082-.082.11-.123-.041.041-.083.082-.11.123zm-8.393 7.959c.041-.041.083-.069.11-.11-.041.041-.083.069-.11.11zm-.136.137l.11-.11-.11.11zm-.139.136l.11-.11-.11.11zm8.807-8.38a.89.89 0 0 0 .11-.123.89.89 0 0 0-.11.123z"/></g><path d="M65.094 61.145l-.012-.012.012.012z" fill="#eff6f9"/><path d="M123.754 26.755l-2.697-4.472c-1.128-1.687-.399-3.293 1.789-3.512.399-.041.963.069 1.224.316.675.645.633 1.015-.082 1.633-.551.466-.619.906-.289 1.537.289.549.688.672 1.224.549.124-.027.248-.165.372-.165 1.087.041 1.789-.343 2.229-1.427.138-.343 1.046-.384 1.61-.549.206-.055.44-.069.674-.096.784 1.111.647 2.401-.55 2.922-1.982.851-3.688 2.099-5.477 3.238-.055.041-.11.055-.027 0v.027zm-8.504-15.299l-4.004-3.69c-.578-.535-1.128-1.056-1.1-1.934.027-1.194.55-1.893 1.775-1.989 1.059-.082 2.146 0 3.206.11.77.082.935.549.935 1.317 0 .384.289.878.619 1.098.22.151.757.041 1.046-.137 1.128-.672 3.013-.713 3.811.439.097.137.056.549-.068.645-.523.425-1.101.782-1.665 1.152l-4.183 2.758-.372.233z" fill="#fcfcfc"/><path d="M72.197 58.675l-9.123-2.867c-1.28-.357-2.821.439-3.137 1.77-.303 1.344.399 2.744 1.775 3.128l.537.151a2.91 2.91 0 0 0 1.197.768l.468.165.399.165.248.11.564.274c.674.329 1.307.713 1.94 1.111.853.549 2.064.412 2.862-.192l.908.316c1.252.453 2.848-.508 3.137-1.77.33-1.427-.427-2.648-1.775-3.128z" fill="#196ffd"/></g><defs><clipPath id="A"><path fill="#fff" d="M0 0h138.105v82H0z"/></clipPath><path id="B" d="M78.195 61.711c.041-.041.083-.069.11-.11-.041.041-.083.069-.11.11z"/></defs></svg>