<svg xmlns="http://www.w3.org/2000/svg" width="229" height="200" fill="none"><g clip-path="url(#A)"><path d="M226.577 90.86c-1.196.318-2.361.795-3.588.922l-16.366 1.653c-3.998.381-7.963.985-12.023 1.176-2.55.095-5.13-.477-6.799-3.179s-.755-6.136 1.983-6.962c3.179-.954 6.389-1.844 9.631-2.416 6.326-1.113 12.715-2.035 19.104-2.925 3.368-.477 6.578.54 9.033 3.433 2.518 2.988 1.259 7.121-1.007 8.329h-.063l.095-.032zm-17.752-48.387l-9.536 5.246c-6.074 3.306-12.621 5.627-18.16 9.887-1.951 1.494-4.28.89-5.571-.985-1.133-1.653-.724-4.165 1.07-5.564l20.206-15.323c2.298-1.717 4.532-3.593 7.05-4.864 3.745-1.876 7.428-.159 8.498 3.624.881 3.179-.976 5.373-3.557 8.012v-.032z" fill="#060606"/><path d="M209.455 136.449c.63 3.115-.472 5.881-2.895 7.376-2.487 1.557-5.949-.001-7.837-2.258-2.266-2.734-5.193-5.023-8.089-7.153-2.392-1.78-5.13-3.052-7.711-4.61-1.605-.985-2.392-4.037-1.479-5.722 1.353-2.607 3.588-3.592 6.011-2.639 6.169 2.385 12.212 5.023 17.594 8.997 2.077 1.558 3.903 3.307 4.406 6.041v-.032z" fill="#070707"/><path d="M2.518 82.213c1.196-.286 2.392-.731 3.588-.858l16.398-1.335c3.997-.318 7.994-.827 12.023-.954 2.549-.063 5.13.572 6.735 3.338 1.605 2.734.63 6.168-2.109 6.931-3.179.89-6.421 1.717-9.694 2.225-6.358.986-12.747 1.78-19.167 2.543-3.399.382-6.578-.668-8.97-3.624-2.455-3.052-1.102-7.153 1.165-8.298h.063l-.031.032zm16.807 53.155l9.631-5.055c6.137-3.179 12.715-5.373 18.349-9.505 1.983-1.463 4.28-.827 5.539 1.08 1.102 1.685.63 4.165-1.196 5.532l-20.489 14.91c-2.329 1.685-4.595 3.497-7.145 4.705-3.777 1.781-7.428 0-8.435-3.783-.818-3.211 1.102-5.341 3.714-7.916l.032.032z" fill="#060606"/><path d="M20.458 34.716c-.566-3.116.598-5.85 3.021-7.312 2.518-1.526 5.948.095 7.774 2.416 2.203 2.798 5.067 5.118 7.931 7.344 2.361 1.812 5.067 3.179 7.617 4.769 1.605 1.017 2.329 4.069 1.385 5.754-1.385 2.575-3.651 3.497-6.074 2.512-6.106-2.512-12.086-5.277-17.405-9.347-2.046-1.621-3.84-3.402-4.28-6.136h.031z" fill="#070707"/><path d="M94.276 130.218c-2.055-25.306-.196-59.545.391-85.423.261-10.777 2.544-21.618 1.207-32.332-.326-2.67-1.109-10.777 1.859-12.017 1.826-.763 3.262 1.876 7.339 2.066C109.05 2.703 109.67.35 114.693 0c2.837-.223 2.967.509 7.468.763 5.968.318 7.273-.89 8.839-.318 5.609 2.13 1.858 21.809.652 38.817-.75 10.142.228 26.578.554 46.288.261 15.197 2.381 30.52.326 45.939-.554 4.133-2.12 6.994-5.218 8.584-6.979 3.592-19.503 5.213-26.939 3.751-4.435-.89-5.772-8.965-6.131-13.638l.033.031zm0 66.285c-2.055-6.295-.196-14.815.391-21.237.228-2.416-.75-5.722 1.207-8.043.881-1.049 4.664-1.971 7.73-2.384s11.578-.255 15.035-.096c5.022.255 12.197 1.335 13.013 3.116s-.131 4.164 0 6.008c.293 3.815.293 7.662.554 11.509s2.381 7.598.326 11.413c-.554 1.017-2.12 1.749-5.218 2.13-6.979.89-19.503 1.304-26.939.922-4.435-.223-5.772-2.225-6.131-3.402l.033.064z" fill="#1a6ffe"/></g><defs><clipPath id="A"><path fill="#fff" d="M0 0h229v200H0z"/></clipPath></defs></svg>