<svg xmlns="http://www.w3.org/2000/svg" width="120" height="71" fill="none"><path d="M33.768 14.113c-.653.101-1.192.571-1.631.856l-5.13 3.486c-5.53 3.863-10.547 8.326-14.515 12.823-1.301 1.474-2.052 2.729-2.645 4.281-.168.439.326.114.787-.067 2.958-1.165 5.997-2.285 9.045-3.347 6.18-2.154 12.333-4.04 18.33-6.436 5.539-2.213 11.428-3.966 17.12-5.993 3.862-1.376 7.985-2.63 11.733-4.111 1.473-.582 11.144-4.719 12.115-5.604 1.906-1.737-10.943 6.241-13.173 7.831-5.512 3.931-10.074 8.231-15.459 12.2-6.093 4.491-12.314 8.769-16.719 13.922-.546.639-2.496 3.132-2.486 3.126 6.517-3.782 13.682-7.114 20.845-10.39 11.84-5.416 25.096-9.691 36.541-15.424.326-.163 6.757-2.989 6.452-2.811-3.421 2.005-11.893 6.707-15.11 8.832-7.331 4.843-14.521 9.736-20.777 15.119L46.497 53.147c-2.067 1.843-4.254 3.861-5.675 5.912-.859 1.24-1.718 2.438 1.002 1.056 7.321-3.722 13.744-7.985 21.64-11.284 7.334-3.064 15.059-5.667 22.657-8.421 3.492-1.266 6.303-3.067 9.628-4.405 1.057-.425-1.505 1.256-2.215 1.901-2.58 2.344-5.175 4.679-7.924 6.954-3.506 2.902-6.139 5.809-8.433 9.11-.533.768-.921 1.568-1.204 2.373-.145.413 1.3-.344 1.828-.63 6.022-3.255 11.935-5.978 19.049-8.222 1.333-.42 2.764-.704 4.06-1.173.356-.129.187.779.159.933-.423 2.326-2.011 4.778-3.02 7.081-.139.317 2.364-.795 2.561-.875 2.693-1.084 5.373-2.245 8.208-3.167 3.948-1.283-.8 1.641-.107 1.988" stroke="#fbfbd8" stroke-width="19" stroke-linecap="round"/><path d="M16.506 67.315c-1.567-.21-1.807-1.765-.549-2.575 3.454-2.332 7.192-4.493 10.823-6.622.4-.207 1.26-.039 1.966.004-.199.489.039 1.273-.443 1.59-3.407 2.489-6.943 4.932-10.398 7.264-.4.207-1.082.243-1.4.339zM9.9 58.44c-.177-.203-.921-.749-.828-1.205.175-.567 1.043-1.516 1.702-1.63 3.435-.87 7.048-1.537 10.53-2.25.871-.178 2.281-.863 2.403.3.061.581-.924 1.908-1.583 2.022-3.729 1.045-7.529 1.854-11.282 2.82-.106.032-.212.064-.942-.057zm8.063-13.491c.13.046.259.093.365.061 1.013.292 2.779.014 2.37 1.337-.117.378-2.07.799-3.07.931-1.342.15-2.625.111-3.932-.007-.495-.107-1.156-.763-1.063-1.22s.927-1.138 1.48-1.22c1.236-.118 2.543 0 3.85.118zm96.199-3.355c-.493.062-.911.001-1.257-.181-.331-.2-.583-.54-.756-1.018l-.528-1.893-.325-2.015-.165-1.503-.084-1.441-.167-1.527c-.076-.474-.03-.883.136-1.227.165-.359.517-.573 1.057-.64.635-.08 1.168.055 1.598.404s.702.968.814 1.857l.093.932.057 1.033.107 1.244.174 1.188.182 1.066.185.896.122.783c.08.635-.005 1.121-.252 1.459-.232.335-.563.53-.991.584zm.898 5.813c-.825.104-1.506.012-2.042-.276-.52-.289-.821-.76-.903-1.411s.033-1.157.342-1.518c.323-.379.771-.605 1.342-.676.921-.115 1.62.055 2.096.511.491.438.774.959.849 1.562.06.476-.051.877-.333 1.203s-.732.527-1.351.605zm-18.194 2.307c-.619.078-1.193-.125-1.721-.607-.514-.5-.837-1.274-.969-2.322-.082-.651-.079-1.401.008-2.25.103-.851.299-1.795.588-2.831-.068-.798-.197-1.507-.388-2.128a19.13 19.13 0 0 0-.665-1.827l-.876-1.97c-.254-.613-.3-1.107-.138-1.482.176-.393.606-.632 1.289-.718.794-.1 1.448.101 1.962.6.528.482 1.015 1.405 1.46 2.768l-.694.063c.464-1.058 1.025-1.983 1.684-2.775s1.401-1.425 2.229-1.9a6.94 6.94 0 0 1 2.667-.915c.746-.094 1.395-.062 1.947.094a3.29 3.29 0 0 1 1.396.72c.397.337.708.758.932 1.262a5.52 5.52 0 0 1 .445 1.613c.091.73.022 1.465-.208 2.203s-.623 1.457-1.181 2.156c-.543.681-1.234 1.34-2.074 1.978-.841.622-1.833 1.197-2.976 1.728.987.408 2.031.761 3.133 1.058a31.63 31.63 0 0 0 3.322.648c.786.095 1.321.245 1.605.452.297.188.469.465.515.83.072.572-.07 1.049-.425 1.432-.357.367-.925.6-1.702.697-.429.054-1.013.03-1.751-.071-.724-.119-1.529-.3-2.414-.544l-2.626-.88c-.866-.343-1.671-.718-2.415-1.124-.728-.408-1.314-.835-1.757-1.279-.207-.232-.333-.531-.379-.896-.048-.381-.004-.741.13-1.081.133-.355.345-.592.637-.709 1.371-.511 2.512-1.057 3.423-1.639s1.629-1.148 2.157-1.698.892-1.055 1.092-1.516c.216-.462.307-.829.273-1.099s-.123-.468-.268-.595c-.147-.143-.379-.194-.697-.155-.254.032-.584.162-.991.39-.393.211-.82.53-1.282.959s-.91.977-1.342 1.644-.808 1.464-1.127 2.391c-.305.909-.511 1.967-.618 3.174s-.065 2.564.124 4.072c.056.444.038.818-.053 1.119-.077.284-.227.504-.449.661-.206.155-.484.254-.833.298zm-10.757 1.204c-1.175.147-2.222.093-3.141-.162a6.14 6.14 0 0 1-2.358-1.252 6.82 6.82 0 0 1-1.573-2.125c-.395-.837-.655-1.748-.778-2.732-.068-.54-.101-1.124-.099-1.753l.136-2.001.344-2.075c.113-.643.355-1.157.726-1.542.369-.401.831-.636 1.387-.706.302-.038.563-.014.783.071a1.13 1.13 0 0 1 .56.413c.137.192.21.449.218.771l-.229 1.649c-.111.659-.196 1.395-.255 2.209-.043.812-.01 1.654.099 2.527.086.683.289 1.278.611 1.786a3.1 3.1 0 0 0 1.298 1.095c.53.24 1.136.317 1.819.231.667-.084 1.249-.197 1.747-.34l1.319-.48.938-.432c.274-.131.522-.211.744-.239.444-.056.784.014 1.018.211.25.194.403.514.459.958.08.635-.097 1.222-.529 1.76-.416.536-1.069.989-1.958 1.358s-1.984.636-3.286.799zm-4.765-5.594c-.355.125-.645.129-.869.012s-.394-.313-.509-.589c-.117-.292-.197-.604-.239-.938a1.75 1.75 0 0 1 .282-1.221 2.21 2.21 0 0 1 1.036-.807l1.301-.429 1.497-.406 1.738-.411 2.033-.376c.683-.086 1.175-.018 1.477.202.316.202.499.51.551.923.082.651-.07 1.178-.455 1.581-.369.401-.86.664-1.473.789l-2.006.397-1.712.433-1.423.42-1.229.42zm-1.572-6.551c-.81.102-1.452-.003-1.926-.315s-.745-.729-.81-1.253c-.032-.254.008-.517.119-.789s.398-.493.86-.664c.998-.399 2.075-.752 3.229-1.058l3.31-.802 2.697-.483c1.079-.135 1.855-.055 2.328.24.486.278.766.71.84 1.297.056.444-.032.834-.264 1.17-.216.334-.594.534-1.134.602l-2.983.519-2.652.647-2.152.584-1.462.304zM69.428 53.132c-.365.046-.792-.014-1.28-.178-.49-.18-.982-.562-1.474-1.146-.3-.333-.577-.742-.831-1.226-.256-.5-.484-1.092-.682-1.777-.185-.703-.337-1.53-.457-2.483-.127-1.016-.195-1.943-.204-2.78l.067-2.355c.063-.782.262-1.379.598-1.792.333-.429.786-.679 1.357-.751.524-.066.901.048 1.131.342.244.276.38.589.408.941l.027.988.004 1.378.084 1.828.242 2.316c.129.903.3 1.623.513 2.161.229.536.46.966.694 1.292l.62.89a1.94 1.94 0 0 1 .358.923 1.34 1.34 0 0 1-.22.947c-.192.266-.511.427-.955.483zm-1.672-5.039c-.478.173-.883.224-1.214.152-.334-.087-.588-.249-.762-.485a1.82 1.82 0 0 1-.322-.83c-.04-.318.001-.637.122-.959a2.78 2.78 0 0 1 .565-.893 2.26 2.26 0 0 1 .8-.56c.879-.32 1.898-.617 3.057-.892 1.157-.29 2.347-.512 3.569-.665.651-.082 1.11-.018 1.378.19s.431.543.489 1.003c.084.667-.091 1.205-.523 1.614-.417.407-.955.676-1.616.807l-2.069.477-1.965.537-1.509.504zm-2.45-7.191c-.635.08-1.164.041-1.587-.115s-.749-.382-.98-.675a2.2 2.2 0 0 1-.39-.991c-.04-.318.021-.607.181-.869s.44-.474.839-.637l2.598-.882 2.923-.802a27.38 27.38 0 0 1 2.932-.537c.508-.064.989-.019 1.444.133.453.137.827.356 1.123.657a1.85 1.85 0 0 1 .524 1.095c.054.429-.031.778-.255 1.048s-.646.444-1.265.522c-1.508.189-2.807.441-3.896.755l-2.649.864c-.679.246-1.192.392-1.542.435zM55.36 54.897c-.365.046-.792-.014-1.28-.178-.49-.18-.982-.562-1.474-1.145-.3-.333-.577-.742-.831-1.226a10.07 10.07 0 0 1-.682-1.777c-.185-.702-.337-1.53-.457-2.482l-.168-1.914-.042-1.688.074-1.533c.063-.782.262-1.379.598-1.792.333-.429.786-.679 1.357-.751.524-.066.901.048 1.131.342.244.276.38.589.408.941l.027.988.004 1.378.084 1.828.242 2.316c.108.728.24 1.332.397 1.813.173.478.353.883.539 1.214l.539.827a5.8 5.8 0 0 1 .444.646 1.75 1.75 0 0 1 .265.765 1.34 1.34 0 0 1-.22.947c-.192.266-.511.427-.955.483zm-1.672-5.039c-.478.173-.883.224-1.214.152-.333-.087-.588-.249-.762-.485a1.82 1.82 0 0 1-.322-.83c-.04-.318.001-.637.122-.959a2.78 2.78 0 0 1 .565-.893 2.26 2.26 0 0 1 .8-.56l1.956-.608 2.277-.552 2.393-.397c.651-.082 1.11-.018 1.378.19s.431.542.489 1.003c.084.667-.091 1.205-.523 1.614-.417.407-.955.676-1.616.807l-2.069.477-1.965.537-1.509.504zm-2.45-7.191c-.635.08-1.164.041-1.587-.115s-.749-.382-.98-.675a2.2 2.2 0 0 1-.39-.991 1.3 1.3 0 0 1 .181-.869c.161-.262.44-.475.839-.638l2.598-.882 2.923-.802a27.13 27.13 0 0 1 2.932-.537 3.22 3.22 0 0 1 1.444.133c.453.137.827.356 1.123.657a1.85 1.85 0 0 1 .524 1.095c.054.429-.031.778-.256 1.048s-.646.444-1.265.522c-1.508.189-2.807.441-3.896.755l-2.649.864c-.679.246-1.193.392-1.542.435zM40.672 56.692c-1.064.133-2.069.09-3.016-.13-.931-.222-1.769-.608-2.516-1.16s-1.357-1.241-1.832-2.068c-.461-.845-.758-1.8-.891-2.863-.118-.937-.085-1.836.097-2.697s.455-1.645.818-2.352.769-1.322 1.22-1.846.883-.933 1.297-1.227c.428-.312.786-.486 1.071-.521.349-.044.634-.023.854.062.234.067.465.232.691.494.389.403.536.803.441 1.202-.097.383-.32.725-.669 1.027-.591.558-1.069 1.118-1.434 1.68a5.21 5.21 0 0 0-.726 1.736c-.119.595-.132 1.258-.041 1.988.096.762.329 1.402.7 1.92a3.32 3.32 0 0 0 1.492 1.095c.607.214 1.276.275 2.006.184a4.92 4.92 0 0 0 2.152-.778c.623-.433 1.096-.968 1.419-1.605a3.42 3.42 0 0 0 .368-2.078 7.83 7.83 0 0 0-.581-2.128c-.298-.704-.666-1.327-1.105-1.869-.425-.559-.891-.993-1.397-1.3s-1.021-.428-1.545-.363a.46.46 0 0 0-.378.265c-.079.139-.104.328-.074.566.044.349-.011.622-.163.819s-.38.314-.681.352c-.365.046-.735-.013-1.111-.175-.377-.178-.703-.46-.977-.845-.276-.401-.453-.911-.53-1.53a2.26 2.26 0 0 1 .243-1.337c.22-.431.561-.796 1.023-1.096.476-.318 1.072-.521 1.786-.611 1.191-.149 2.305-.007 3.343.427 1.036.418 1.962 1.052 2.778 1.901.83.831 1.508 1.802 2.034 2.913s.868 2.294 1.026 3.548c.131 1.048.04 2.051-.276 3.01a7.18 7.18 0 0 1-1.446 2.552 8.47 8.47 0 0 1-2.398 1.897c-.923.487-1.948.801-3.075.942z" fill="#0b0de6"/><path d="M80.552 27.413L78.76 13.125l4.554-.571.706-.079 1.041-.06c1.149.004 2.156.287 3.019.851.869.556 1.57 1.318 2.101 2.286s.873 2.057 1.025 3.268.09 2.35-.186 3.42-.766 1.984-1.47 2.744c-.698.753-1.604 1.273-2.717 1.56a10.01 10.01 0 0 1-1.013.198l-.713.1-4.554.571zm2.148-2.557l2.123-.266.752-.114c.309-.052.58-.117.812-.193.659-.21 1.17-.58 1.534-1.11s.602-1.147.715-1.853c.12-.707.132-1.434.039-2.182-.097-.774-.291-1.489-.581-2.144s-.68-1.188-1.168-1.597c-.481-.41-1.061-.636-1.738-.679a4.31 4.31 0 0 0-.835.014l-.757.075-2.123.266 1.227 9.783zm-13.755 4.013l-1.793-14.288 9.228-1.158.281 2.242-6.836.858.442 3.522 5.646-.708.281 2.242-5.646.708.507 4.038 6.836-.858.281 2.242-9.228 1.158zm-8.603 1.079l-1.511-12.046-4.624.58-.281-2.242 11.639-1.46.281 2.243-4.624.58 1.511 12.046-2.391.3zm-8.796 1.104l-1.792-14.288 2.391-.3 1.792 14.288-2.391.3zm-17.173 2.155L32.58 18.919l2.153-.27 6.211 9.501 3.672-10.74 2.153-.27 1.792 14.288-2.233.28-1.149-9.158-3.237 9.708-.953.12-5.525-8.609 1.149 9.158-2.242.281zm-5.366.673l-1.793-14.288 2.391-.3 1.792 14.288-2.391.3zm-10.58 1.327l-1.792-14.288 2.391-.3 1.511 12.045 6.311-.792.281 2.242-8.702 1.092z" fill="#000"/></svg>