<svg xmlns="http://www.w3.org/2000/svg" xmlns:xlink="http://www.w3.org/1999/xlink" height="170" viewBox="0 0 38 170" width="38"><svg height="38" viewBox="0 0 30 38" width="30" x="4" y="4" fill="none"><path opacity=".8" d="M0 0V37.3333L29.3333 18.6667L0 0Z" fill="#fff"/></svg><svg height="24" viewBox="0 0 24 24" width="24" x="4" y="46" fill="none"><g clip-path="url(#clip0_2130_17)" fill="#000"><path d="M18.3038 12.7532C18.2735 9.71313 20.7799 8.25503 20.892 8.18137C19.4834 6.11934 17.2888 5.8364 16.5078 5.80421C14.6417 5.61445 12.8647 6.90474 11.918 6.90474C10.9733 6.90474 9.5106 5.83201 7.96314 5.85933C5.92747 5.88958 4.05112 7.04474 3.00356 8.86919C0.889446 12.541 2.46273 17.9827 4.52277 20.9628C5.52988 22.4194 6.73092 24.0585 8.30664 23.9985C9.82536 23.9385 10.3983 23.0151 12.2343 23.0151C14.0702 23.0151 14.5857 23.9985 16.1921 23.9678C17.8253 23.938 18.8607 22.4833 19.8595 21.0208C21.0157 19.3286 21.4917 17.69 21.52 17.6071C21.4844 17.5905 18.3364 16.3831 18.3038 12.7532Z"/><path d="M15.2853 3.83184C16.1209 2.8162 16.6871 1.40493 16.5331 0C15.3272 0.0487822 13.8675 0.802467 13.0017 1.81714C12.226 2.71766 11.5477 4.15136 11.7295 5.53092C13.0747 5.63532 14.4468 4.84554 15.2853 3.83184Z"/></g><defs><clipPath id="clip0_2130_17"><path fill="#fff" d="M0 0H24V24H0z"/></clipPath></defs></svg><svg height="24" viewBox="0 0 24 24" width="24" x="4" y="74" fill="none"><path d="M8.58984 16.58L13.1698 12L8.58984 7.41L9.99984 6L15.9998 12L9.99984 18L8.58984 16.58Z" fill="#fff"/></svg><svg height="24" viewBox="0 0 24 24" width="24" x="4" y="102" fill="none"><g clip-path="url(#clip0_2130_6)"><path d="M24 12C24 5.37258 18.6274 0 12 0C5.37258 0 0 5.37258 0 12C0 17.9895 4.38825 22.954 10.125 23.8542V15.4688H7.07812V12H10.125V9.35625C10.125 6.34875 11.9165 4.6875 14.6576 4.6875C15.9705 4.6875 17.3438 4.92188 17.3438 4.92188V7.875H15.8306C14.3399 7.875 13.875 8.79998 13.875 9.74897V12H17.2031L16.6711 15.4688H13.875V23.8542C19.6118 22.954 24 17.9895 24 12Z" fill="#1877F2"/><path d="M16.6711 15.4688L17.2031 12H13.875V9.74897C13.875 8.79998 14.3399 7.875 15.8306 7.875H17.3438V4.92188C17.3438 4.92188 15.9705 4.6875 14.6576 4.6875C11.9165 4.6875 10.125 6.34875 10.125 9.35625V12H7.07812V15.4688H10.125V23.8542C10.7359 23.9501 11.3621 24 12 24C12.6379 24 13.264 23.9501 13.875 23.8542V15.4688H16.6711Z" fill="#fff"/></g><defs><clipPath id="clip0_2130_6"><path fill="#fff" d="M0 0H24V24H0z"/></clipPath></defs></svg><svg height="24" viewBox="0 0 24 24" width="24" x="4" y="130" fill="none"><g clip-path="url(#clip0_436_672)"><path d="M11.9999 5C13.6167 5 15.1012 5.55353 16.2863 6.47406L19.9234 3.00409C17.8087 1.13995 15.0406 0 11.9999 0C7.39233 0 3.39661 2.59991 1.38574 6.40985L5.43018 9.60278C6.40991 6.91937 8.97742 5 11.9999 5Z" fill="#F44336"/><path d="M23.8961 13.5018C23.9586 13.0102 24 12.5087 24 12C24 11.1422 23.9063 10.3068 23.7352 9.5H12V14.5H18.4862C17.9615 15.8638 17.0272 17.0178 15.838 17.8195L19.8975 21.0243C22.0494 19.1354 23.522 16.4904 23.8961 13.5018Z" fill="#2196F3"/><path d="M5 12.0001C5 11.1566 5.15686 10.3517 5.43024 9.60284L1.3858 6.40991C0.504333 8.08008 0 9.98022 0 12.0001C0 13.9973 0.495056 15.8764 1.35822 17.533L5.40778 14.336C5.14844 13.6045 5 12.8205 5 12.0001Z" fill="#FFC107"/><path d="M12.0002 19C8.95465 19 6.37061 17.0515 5.40796 14.3359L1.3584 17.533C3.35944 21.3735 7.37 24 12.0002 24C15.028 24 17.7889 22.8752 19.8976 21.0243L15.8382 17.8195C14.7414 18.5589 13.4286 19 12.0002 19Z" fill="#00B060"/><path opacity=".1" d="M11.9998 23.7499C8.46814 23.7499 5.29254 22.2927 3.04736 19.9712C5.24518 22.4377 8.43628 23.9999 11.9998 23.9999C15.5304 23.9999 18.6951 22.4685 20.8879 20.0406C18.6494 22.3245 15.4979 23.7499 11.9998 23.7499Z" fill="#000"/><path opacity=".1" d="M12 14.25V14.5H18.4862L18.5875 14.25H12Z" fill="#000"/><path d="M23.9942 12.147C23.995 12.0977 23.9998 12.0493 23.9998 11.9999C23.9998 11.986 23.9976 11.9725 23.9975 11.9585C23.9968 12.0215 23.9937 12.0837 23.9942 12.147Z" fill="#E6E6E6"/><path opacity=".2" d="M12 9.5V9.75H23.7856C23.7698 9.66748 23.7526 9.58191 23.7352 9.5H12Z" fill="#fff"/><path d="M23.7352 9.5H12V14.5H18.4862C17.4775 17.1216 14.9772 19 12 19C8.13403 19 5 15.866 5 12C5 8.13397 8.13403 5 12 5C13.4019 5 14.6939 5.43066 15.7885 6.14069C15.9561 6.24957 16.1289 6.35181 16.2863 6.47406L19.9235 3.00409L19.8414 2.94098C17.7369 1.11707 15.0035 0 12 0C5.37256 0 0 5.37256 0 12C0 18.6274 5.37256 24 12 24C18.1177 24 23.1555 19.4188 23.8961 13.5018C23.9586 13.0102 24 12.5087 24 12C24 11.1422 23.9063 10.3068 23.7352 9.5Z" fill="url(#paint0_linear_436_672)"/><path opacity=".1" d="M15.7885 5.89075C14.6939 5.18073 13.4019 4.75006 12 4.75006C8.13403 4.75006 5 7.88403 5 11.7501C5 11.7922 5.00057 11.8252 5.0013 11.8672C5.06874 8.05957 8.17621 5.00006 12 5.00006C13.4019 5.00006 14.6939 5.43073 15.7885 6.14075C15.9561 6.24963 16.1289 6.35187 16.2863 6.47412L19.9235 3.00415L16.2863 6.22412C16.1289 6.10187 15.9561 5.99963 15.7885 5.89075Z" fill="#000"/><path opacity=".2" d="M12 0.25C14.975 0.25 17.6829 1.34839 19.7793 3.1416L19.9235 3.00409L19.8134 2.90827C17.709 1.08436 15.0035 0 12 0C5.37256 0 0 5.37256 0 12C0 12.0422 0.0058594 12.0829 0.0062866 12.125C0.0740356 5.55585 5.41473 0.25 12 0.25Z" fill="#fff"/></g><defs><linearGradient id="paint0_linear_436_672" x1="0" y1="12" x2="24" y2="12" gradientUnits="userSpaceOnUse"><stop stop-color="#fff" stop-opacity=".2"/><stop offset="1" stop-color="#fff" stop-opacity="0"/></linearGradient><clipPath id="clip0_436_672"><path fill="#fff" d="M0 0H24V24H0z"/></clipPath></defs></svg><svg height="8" viewBox="0 0 12 8" width="12" x="4" y="158" fill="none"><path d="M1.42 0.590026L6 5.17003L10.59 0.590027L12 2.00003L6 8.00003L-6.1633e-08 2.00003L1.42 0.590026Z" fill="#fff"/></svg></svg>