<svg width="14" height="14" viewBox="0 0 14 14" fill="none" xmlns="http://www.w3.org/2000/svg"><path d="M7 12.6C8.10758 12.6 9.19028 12.2716 10.1112 11.6562C11.0321 11.0409 11.7499 10.1663 12.1737 9.14303C12.5976 8.11976 12.7085 6.99379 12.4924 5.90749C12.2763 4.8212 11.743 3.82338 10.9598 3.0402C10.1766 2.25703 9.1788 1.72368 8.09251 1.5076C7.00621 1.29153 5.88024 1.40242 4.85697 1.82627C3.83371 2.25013 2.95911 2.96789 2.34377 3.88881C1.72843 4.80972 1.4 5.89242 1.4 7C1.4 8.48521 1.99 9.90959 3.0402 10.9598C4.09041 12.01 5.51479 12.6 7 12.6ZM7 0C8.38447 0 9.73785 0.410543 10.889 1.17971C12.0401 1.94888 12.9373 3.04213 13.4672 4.32122C13.997 5.6003 14.1356 7.00776 13.8655 8.36563C13.5954 9.7235 12.9287 10.9708 11.9497 11.9497C10.9708 12.9287 9.7235 13.5954 8.36563 13.8655C7.00776 14.1356 5.6003 13.997 4.32122 13.4672C3.04213 12.9373 1.94888 12.0401 1.17971 10.889C0.410543 9.73785 0 8.38447 0 7C0 5.14348 0.737498 3.36301 2.05025 2.05025C3.36301 0.737498 5.14348 0 7 0ZM7.35 3.5V7.175L10.5 9.044L9.975 9.905L6.3 7.7V3.5H7.35Z" fill="#65779B"/></svg>