<svg width="24" height="24" viewBox="0 0 24 24" fill="none" xmlns="http://www.w3.org/2000/svg"><g clip-path="url(#clip0_59_372)" fill-rule="evenodd" clip-rule="evenodd"><path d="M5.74113 12C5.74113 11.2855 5.85973 10.6004 6.07165 9.95791L2.3643 7.12695C1.64174 8.59391 1.23474 10.247 1.23474 12C1.23474 13.7515 1.6414 15.4034 2.36276 16.8695L6.06804 14.0331C5.85818 13.3935 5.74113 12.711 5.74113 12Z" fill="#FBBC05"/><path d="M12.2505 5.50003C13.8027 5.50003 15.2046 6.05003 16.3062 6.94997L19.5106 3.75C17.558 2.04998 15.0544 1 12.2505 1C7.89721 1 4.15583 3.48944 2.36438 7.127L6.07155 9.95795C6.92577 7.36505 9.36072 5.50003 12.2505 5.50003Z" fill="#EA4335"/><path d="M12.2505 18.4999C9.3609 18.4999 6.92594 16.6349 6.07172 14.042L2.36438 16.8724C4.15583 20.5105 7.89721 22.9999 12.2505 22.9999C14.9372 22.9999 17.5024 22.0459 19.4276 20.2584L15.9086 17.5379C14.9157 18.1634 13.6653 18.4999 12.2505 18.4999Z" fill="#34A853"/><path d="M22.7652 12.0001C22.7652 11.35 22.665 10.65 22.5147 10.0001H12.2504V14.2501H18.1587C17.8633 15.6992 17.0593 16.8131 15.9086 17.538L19.4275 20.2585C21.4498 18.3816 22.7652 15.5855 22.7652 12.0001Z" fill="#4285F4"/></g><defs><clipPath id="clip0_59_372"><path fill="#fff" transform="translate(1 1)" d="M0 0H22V22H0z"/></clipPath></defs></svg>