<svg xmlns="http://www.w3.org/2000/svg" width="32" height="32" viewBox="0 0 32 32"><defs><clipPath id="a"><path d="M-337.711,298.391h-15v6.182h8.632c-.8,3.927-4.17,6.182-8.632,6.182a9.463,9.463,0,0,1-9.51-9.455,9.463,9.463,0,0,1,9.51-9.455,9.337,9.337,0,0,1,5.925,2.109l4.682-4.655a16.073,16.073,0,0,0-10.607-4,16,16,0,0,0-16.093,16,16,16,0,0,0,16.093,16c8.046,0,15.362-5.818,15.362-16A13.2,13.2,0,0,0-337.711,298.391Z" transform="translate(368.8 -285.3)"/></clipPath></defs><path fill="none" d="M0 0H32V32H0z"/><g clip-path="url(#a)" transform="translate(.273)"><path d="M-370.8,313.209V294.3l12.436,9.455Z" transform="translate(369.337 -287.755)" fill="#fbbc05"/></g><g clip-path="url(#a)" transform="translate(.273)"><path d="M-370.8,291.3l12.436,9.455,5.12-4.436,17.556-2.836V283.3H-370.8Z" transform="translate(369.337 -284.755)" fill="#ea4335"/></g><g clip-path="url(#a)" transform="translate(.273)"><path d="M-370.8,310.209l21.945-16.727,5.779.727,7.388-10.909v34.909H-370.8Z" transform="translate(369.337 -284.755)" fill="#34a853"/></g><g clip-path="url(#a)" transform="translate(.273)"><path d="M-332.2,321.209l-22.677-17.455-2.926-2.182,25.6-7.273Z" transform="translate(365.846 -287.755)" fill="#4285f4"/></g></svg>