<svg width="312" height="321" viewBox="0 0 312 321" fill="none" xmlns="http://www.w3.org/2000/svg"><path d="M244.146 94.182l-.213 6.531.823 27.25c.061 7.687-.457 15.375-.549 23.062l-.304 36.188c-.061 4.937-.305 9.875-.244 14.812l.579 25.063c.152 5.719.548 11.406.548 17.125 0 3.312-.335 6.656-.975 9.875-.792 4.094-3.382 6.719-7.404 7.75l-11.395 2.937c.426-1.312 1.005-2.812-.274-3.843-1.006-.813-2.377-1.157-3.626-1.719 0-.25-.031-.563.03-.844l3.047-13.562c1.889-7.625 2.529-15.25 1.097-23.032-.701-3.906-1.523-7.781-3.412-11.312-.092-.125-.183-.219-.244-.344l.03.031c-.335-2.656-1.797-4.906-4.174-5.375-2.955-.593-5.271-3.187-8.501-2.843a26.07 26.07 0 0 1-.426-1.438c-.335-1.25-1.493-2.125-2.712-1.937-1.097.156-1.371.875-1.127 1.906-2.895-.969-5.85-.906-8.806-.281-1.523-2.282-3.26-4.313-5.728-5.532-1.858-.937-4.753-.781-5.149 2.219-1.463.563-2.407-.031-3.321-1.25-.61-.812-1.585-1.344-2.407-2.031l-3.961-8.375-.549-1.094c-1.523-2.969-2.955-5.969-4.6-8.875-2.316-4.094-3.839-5.5-8.196-3.812-2.743-.375-4.601.531-5.18 2.593l-.64 2.969c-.701 3.313-.122 6.531.792 9.688l.853 4.968c.061.375.488.688.732 1a26.07 26.07 0 0 1 .426 1.438l2.102 8.125c-.121.969-.304 1.937-.335 2.906-.061 1.563-.183 3.156.031 4.688.579 3.906 3.016 7.25 3.138 11.312.061 1.875.548 3.75.701 5.656.213 2.375-.762 3.313-3.108 3.125-.396-.031-.823-.218-1.188-.156-.61.063-1.189.281-1.798.406-2.529-1.312-4.936-2.781-6.825-5.062-.457-.563-1.249-.875-1.859-1.313-1.279-.875-2.498-.531-3.412.469-1.066 1.156-2.041 2.438-2.864 3.813-1.645 2.75-3.199 5.593-4.723 8.406-.64 1.187-.731 2.531.061 3.656.731 1.031 1.676 1.875 2.59 2.781.701.688 1.737 1.125 2.163 1.938 1.859 3.406 5.15 5.312 7.8 7.812 4.662 4.407 9.811 8.282 14.778 12.375l-16.88-.218c-7.252 0-14.473-.032-21.724.281-4.388.187-8.714 1.062-13.071 1.531-1.585.156-3.2.063-4.814.063l-17.002.25c-3.687.031-7.373.125-11.06-.032-3.108-.156-6.185-.593-9.293-.937-.183-.031-.457-.063-.579-.188-1.859-2.375-4.966-3.812-5.058-7.5-.061-2.093-.274-4.156-.518-6.25-.122-1.093-.579-2.187-.609-3.281-.183-3.437-.213-6.875-.335-10.281-.061-1.5-.335-3-.335-4.469-.03-1.406.244-2.844.244-4.25 0-.719-.396-1.437-.427-2.187-.091-1.094.03-2.188-.03-3.282-.091-1.281-.122-2.593-.488-3.812-.427-1.375-.792-2.594-.244-4.063.274-.781.183-1.718.213-2.593l.183-16.188.67-20.562c.274-5.282.914-10.5 1.371-15.782l.914-12.125c.244-4.093.366-8.187.518-12.312.122-3.313.366-6.656.274-9.969-.183-5.5-.579-11-.914-16.5l-1.036-15.687c-.305-4.562-.701-9.094-.792-13.656-.061-2.687.518-5.375.487-8.062-.031-3.281-.427-6.531-.67-9.813l-.457-6.125c-.152-1.594-.488-3.187-.457-4.781.122-3.219 0-6.531.823-9.594.67-2.437 2.529-4.531 5.545-4.687a165.24 165.24 0 0 0 7.83-.656c1.889-.187 3.778-.625 5.698-.719 5.149-.281 10.298-.594 15.448-.594l50.975.531 18.738.031 16.118.313c2.529.063 5.058.219 7.587.344l-2.59 4.906c-1.219 2.281-1.889 4.656-.853 7.219.061.188 0 .5-.092.719-1.919 4.188-2.742 8.625-3.138 13.188-.305 3.531-.152 7.031 1.523 10.281.793 1.5 1.463 3.063 2.286 4.531 3.229 5.625 7.495 10.188 13.436 12.75 3.382 1.438 6.947 2.469 10.39 3.719 4.936 1.813 10.024 2.313 15.174 2.031 5.057-.187 10.146-.375 14.929-2.375zM108.956 74.87c.732.438 1.311.938 2.011 1.219 2.438.938 5.18 1.094 7.282-1.375.823-.969 1.493-1.25 2.834-.719 3.412 1.375 6.916 1.594 10.359-.219.884-.469 1.92-.844 2.895-.875 3.108-.125 6.216-.031 9.293-.094 1.645-.031 3.29-.25 4.905-.469.335-.031.914-.469.914-.75 0-2.281 1.371-4.469.031-6.844-.518-.906-.884-1.594-1.889-1.656-.792-.062-1.615.031-2.438.063-2.833.094-5.697.5-8.47.188-2.712-.281-5.302-.312-7.678 1.031-2.346 1.313-4.266 1.219-6.368-.594-2.255-1.937-5.302-1.656-7.495.406-.488.438-.762 1.094-1.128 1.625-1.34-1.187-2.011-2.687-3.747-2.031-.092.031-.305-.312-.457-.344-.854-.094-1.768-.406-2.499-.187-.944.281-1.798 1.031-2.59 1.531-.579-.406-1.097-1.094-1.676-1.156-2.559-.25-4.905.406-6.946 2.094-.853.688-1.036 1.469-.488 2.469.975 1.813 1.889 3.656 2.925 5.438 2.042 3.5 7.587 5.344 10.42 1.25zM89.7 90.15c.548 1.688 1.036 3.438 1.706 5.063.335.844 1.005 1.188 1.98.656.945-.531 1.859-.5 2.925.125 2.529 1.469 5.362 2 8.226 1.188 2.377-.687 4.662-1.719 7.008-2.5.457-.156 1.097-.156 1.524.063 4.966 2.563 9.872 2.813 14.594-.5 1.249-.875 2.103-.625 3.047.313 1.006 1 4.388 1.688 5.515.813 1.98-1.531 4.083-2.094 6.49-1.562.822.188 1.279-.125 1.462-1.062.214-1 .518-2.031 1.036-2.906.945-1.625-.061-3.062-.213-4.562-.031-.281-.579-.562-.945-.687-3.046-1.187-6.093-1.312-9.079.344-.366.219-1.036.125-1.463-.062-1.645-.75-3.229-1.656-5.088-1.062-1.676.531-3.443 1.031-4.936 1.938-2.377 1.438-4.509 1.5-6.825-.031-1.615-1.094-3.443-1.625-5.362-.969-2.499.813-4.967 1.813-7.465 2.625-.884.281-1.889.438-2.773.219-1.676-.406-3.016-1.562-4.814-2-3.077-.75-6.338 1.156-6.551 4.563zm22.852 70.938c0-.125.03-.25.03-.375h21.024c4.082-.031 8.196-.219 12.279-.281 2.894-.032 2.985 0 3.443-2.907.335-2.281-.64-3.812-2.773-3.656-3.443.25-6.886.25-10.329.313h-9.08c-9.354 0-18.738.5-28.092-.625-.518-.063-1.432.281-1.645.687-.579 1.188-.975 2.469-1.28 3.75-.244 1.094.274 1.75 1.463 1.844l14.96 1.25zm28.092-38.625c0-1.219-.031-2 0-2.781.061-2.657-.975-3.532-3.565-3.344-6.398.469-12.827.937-19.256 1.125-6.642.187-13.285 0-19.927-.031-2.377 0-2.59.093-3.138 2.406-.731 3.094-.518 4.25 3.016 4.219 12.096-.094 24.193.187 36.258-.657 2.224-.093 4.418-.593 6.612-.937zm37.598-27.938v.094l3.474-.25c.883-.031 1.219-.406 1.219-1.344 0-1 .06-2.094.426-3 .731-1.812-.792-2.937-1.097-4.406-.03-.219-.579-.437-.914-.469-1.919-.125-3.839-.312-5.728-.281-1.95.031-3.839.406-5.819-.344-1.676-.625-3.657-.687-5.15.906-1.462 1.594-3.26 1.375-5.088.969-.853-.187-1.676-.469-2.468-.75-1.341-.469-2.529-.219-3.321 1-1.219 1.844-2.285 3.781-2.224 6.156.03.938.304 1.406 1.249 1.625 1.523.375 2.986.938 4.509 1.313 3.504.844 6.978.906 10.36-.687.67-.312 1.432-.531 2.163-.562l8.409.031zm11.335 46.844h13.375c1.95 0 3.139-1 3.504-3.031.396-2.094-.578-3.469-2.62-3.469-4.205-.031-8.409-.031-12.644.031l-19.592.282c-.64 0-1.615.656-1.797 1.218-.397 1.188-.458 2.532-.458 3.813 0 1 .549 1.594 1.676 1.5 1.615-.156 3.23-.281 4.845-.313l13.711-.031zm-35.557-25.312v-.063h-5.18c-2.285.031-2.986.656-3.291 3-.061.406-.03.844-.061 1.25-.03 1.906.305 2.281 2.194 2.281h11.853c4.661-.062 9.353-.187 14.015-.437 2.742-.125 5.515.406 8.227-1 1.127-.594 1.31-1.344 1.401-2.219.031-.406-.67-.906-1.066-1.312-.213-.219-.64-.344-.701-.563-.487-1.906-1.95-1.594-3.291-1.562l-24.1.625zm-49.238 20.218l-7.373.688c-.487.062-1.219.562-1.31 1-.305 1.344-.457 2.75-.427 4.094 0 .968.64 1.562 1.737 1.437 2.011-.25 3.991-.562 6.002-.562 4.692 0 9.415.156 14.107.281.792.031 1.615.094 2.407.094 2.803-.032 5.637.031 8.44-.188 1.432-.094 1.889-1.156 1.523-2.594-.091-.406-.213-.812-.304-1.218-.518-2.375-1.371-2.938-3.748-2.625-1.341.187-2.712.25-4.083.218l-16.971-.625zm11.974 33.844l-17.093 1.094c-.67.062-1.676.812-1.858 1.437-.335 1.188-.244 2.532-.213 3.813.03 1.094.609 1.5 1.737 1.344 2.864-.344 5.728-.782 8.592-.844 6.155-.125 12.34-.063 18.525-.063 2.468 0 3.9-1.218 4.358-3.593 0-.063.06-.094.06-.157.244-1.656-1.096-3.062-2.681-3.031h-11.426zm22.852-33.687v-.125c-.914 0-1.859-.125-2.742.031-.579.125-1.371.562-1.585 1.062-.426 1.032-.67 2.188-.7 3.313-.092 1.687.396 2.156 2.072 2.125l11.303-.406 15.265-1.094c.427-.031 1.189-.188 1.219-.375.244-1.344.518-2.75.396-4.094-.122-1.594-1.219-2.156-2.803-2.031-2.986.25-5.972.281-8.958.469l-13.467 1.125zm23.491 23.687l6.216-.031c.488 0 1.31-.188 1.341-.406.243-1.375.487-2.813.396-4.188-.122-1.656-1.31-2-2.834-1.969-3.077.094-6.185.032-9.262.032-2.316 0-3.047.625-3.413 2.968-.091.719-.061 1.438-.061 2.188 0 1.062.488 1.437 1.524 1.406 2.041-.031 4.052 0 6.093 0zm60.938 23.406c-.183.125-.609.25-.823.563-1.737 2.594-3.443 5.219-5.088 7.875-.183.312.122.937.183 1.437.457-.062 1.127 0 1.371-.25 1.919-2.406 3.808-4.843 5.545-7.375.67-.937-.061-2.218-1.188-2.25zm8.47 9.625c-.487.063-.609.032-.67.094-2.377 1.313-4.814 2.563-7.099 4-.427.281-.671 1.5-.457 2.031.396 1 1.188.25 1.767-.062 2.255-1.125 4.54-2.219 6.733-3.438.427-.25.732-1.125.671-1.656-.061-.437-.732-.781-.945-.969zm-.426 15.719v.094c.944-.156 1.919-.188 2.803-.5.335-.125.731-.906.64-1.281s-.732-.907-1.128-.907c-.914 0-1.889.157-2.772.5-.732.25-1.95.875-1.92 1.25.091 1.25 1.28.719 2.072.844h.305z" fill="#196efe"/><path d="M162.033 171.433c4.327-1.719 5.881-.281 8.196 3.813l4.601 8.843.548 1.094 3.961 8.375c.945 2.75 1.554 5.719 2.956 8.219 1.127 2 .426 4.812 2.772 6.187.122.063.122.375.122.594.031 1.25-.487 2.313-1.615 2.719-1.096.406-2.254.219-2.833-1.063-.335-.687-.579-1.406-.792-2.125l-1.28-4.875c-.366-1.218-.945-2.343-1.341-3.562-1.828-5.5-4.692-10.5-7.19-15.656-1.28-2.657-2.621-5.282-3.961-7.907-.427-.812-.853-1.781-2.011-1.25-1.676.782-3.291 1.657-5.18 2.657l2.834 9.718 4.113 16.907 4.083 17.468c.762 3.375 1.523 6.782.518 10.282-.975 3.375-3.26 5.375-6.703 5.062-2.224-.219-4.174-1.156-6.033-2.406-2.316-1.563-4.753-2.906-6.916-4.625-1.768-1.406-2.834-1.5-3.992.469-.975 1.625-1.767 3.343-2.59 5.062-.487 1.031-1.462 2.25-1.218 3.125.243 1 1.584 1.719 2.437 2.563 1.98 2 3.565 4.343 5.941 6 1.372.968 2.347 2.5 3.596 3.656 1.066.969 2.346 1.719 3.412 2.687l8.166 7.75c2.041 1.907 4.326 3.563 6.215 5.625.884 1 1.463.969 2.377.5 1.188-.625 2.316-1.468 3.595-1.812 3.047-.844 6.155-1.375 9.232-2.125 4.479-1.125 8.684-3.344 13.468-3.406 4.265-.063 8.47-1.5 12.796-.688.915.188 1.89.031 2.895.031.152-.5.366-1.031.487-1.562l3.291-14.938c.64-3.125 1.402-6.25 1.584-9.406.244-4.469.153-8.937-.761-13.406-.823-3.969-1.463-7.906-3.961-11.25-.213-.281-.396-.625-.457-.969-.031-.281.061-.656.213-.875.061-.094.549.031.731.188 1.158 1 2.255 2.031 3.382 3.062l-.03-.031c.091.125.183.219.244.344 1.889 3.531 2.711 7.406 3.412 11.312 1.402 7.781.792 15.438-1.097 23.031-1.127 4.5-2.041 9.032-3.047 13.563-.061.281-.03.625-.03.844 1.249.562 2.62.937 3.626 1.718 1.279 1.032.67 2.5.274 3.844-.884 1.188-.609 2.469-.488 3.781.244 2.375.884 4.688-.061 7.125-.67 1.75-1.523 3.157-3.321 4.032l1.067 1.468c-.457 1.5-.762 2.907-1.341 4.188-.244.562-.944 1.031-1.554 1.25-2.041.687-4.174 1.187-6.215 1.906-1.158.406-2.316 1-3.352 1.719-1.584 1.094-2.011 1.125-3.443-.375-1.31.594-2.62 1.344-4.052 1.812l-11.396 3.5c-1.127.375-1.584-.093-2.071-1.281-1.341.719-2.682 1.281-3.87 2.094-2.955 2.031-6.368 2.469-9.719 2.906-2.133.281-3.23-1.406-3.748-3.437-.792-3.25 1.249-5.625 1.584-8.438.244-2.031.792-4.031.792-6.062 0-1.125-.639-2.375-1.279-3.344-1.707-2.563-1.981-5.156-.366-8.219l-5.911-4.312c-4.936-4.094-10.085-7.969-14.777-12.375-2.651-2.5-5.942-4.438-7.8-7.813-.427-.812-1.463-1.25-2.163-1.937-.915-.875-1.859-1.75-2.59-2.782-.792-1.125-.701-2.468-.061-3.656 1.523-2.844 3.077-5.656 4.722-8.406.823-1.344 1.768-2.656 2.864-3.813.915-.968 2.164-1.343 3.413-.468.609.437 1.402.75 1.859 1.312 1.858 2.281 4.265 3.75 6.825 5.063 1.218.75 2.376 1.562 3.625 2.187 2.316 1.125 3.809.656 4.418-1.406.366-1.313.61-2.781.427-4.125-.366-2.813-.975-5.594-1.615-8.344-.853-3.625-1.828-7.219-2.773-10.812l-1.523-5.438-2.102-8.125a25.8 25.8 0 0 0-.427-1.437l-1.219-6-1.158-9.657.64-2.968c1.676-.938 3.413-1.813 5.119-2.688z" fill="#020202"/><path d="M209.778 37.525c7.16.531 14.32 1.188 21.267 3.313 1.462.438 3.108.344 4.661.469 3.565.25 5.241 2.938 6.856 5.625.183.281-.305 1.281-.701 1.563l-10.755 7a69.96 69.96 0 0 0-4.967 3.625c-.822.656-1.523.75-2.437.125l-10.329-6.812c-2.499-1.625-2.499-1.594-4.753.438-2.103-.719-4.997.781-5.576 3.031-.122.469.274 1.313.701 1.625l12.766 10.281c1.341 1.094 2.59 2.344 3.992 3.344 3.717 2.625 4.6 2.531 7.921-.031l10.634-8.25 5.576-4.312.213 4.438.609 16.031c.061 2.531-.213 5.063-.335 7.625-3.26 1.344-6.49 2.656-10.115 2.969-4.601.406-9.202 1-13.742.125-5.545-1.094-11.029-2.625-16.087-5.281-4.784-2.5-8.014-6.625-10.421-11.406-.853-1.719-1.919-3.656-1.919-5.469 0-3.594.335-7.281 1.188-10.75 2.163-9.031 8.318-14.75 15.753-19.312z" fill="#1a6ffd"/><path d="M209.777 37.527c-7.434 4.563-13.589 10.281-15.782 19.25-.854 3.469-1.158 7.156-1.189 10.75 0 1.844 1.036 3.75 1.92 5.469 2.407 4.813 5.636 8.906 10.42 11.406 5.058 2.656 10.542 4.219 16.088 5.281 4.539.875 9.14.281 13.741-.125 3.595-.312 6.855-1.625 10.116-2.969 3.686-1.5 5.271-4.813 6.642-8.25 3.077-7.687 2.437-15.312-.701-22.781-.427-1-.335-1.531.488-2.187 1.371-1.125 2.589-2.375 4.174-3.812l2.894 8.281c1.676 5.219 1.981 10.563 1.067 15.938a34.98 34.98 0 0 1-4.997 13c-1.95 3.063-4.723 5.062-7.983 6.375-.823.344-1.676.656-2.498 1-4.784 2-9.903 2.188-14.93 2.469-5.18.281-10.268-.187-15.174-2.031-3.443-1.281-7.007-2.281-10.389-3.719-5.942-2.562-10.207-7.156-13.437-12.75-.853-1.469-1.524-3.031-2.285-4.531-1.676-3.25-1.828-6.75-1.524-10.281.427-4.531 1.249-9 3.139-13.187.091-.219.152-.5.091-.719-1.036-2.562-.366-4.937.853-7.219l2.59-4.906c3.93-3.844 8.196-7.219 13.467-8.875 2.102-.656 4.327-.875 6.52-1.187 3.443-.5 6.886-1 10.329-1.312 1.189-.125 2.407-.437 3.535.906.761.875 2.468.906 3.747 1.344 2.407.844 4.875 1.531 7.161 2.656 2.711 1.313 5.453 2.781 7.86 4.625 2.468 1.906 4.662 4.25 6.247 7.25l-5.454 3.063c-5.729-8-14.077-10.937-22.913-12.656-4.387-.844-8.44.969-12.187 3.281-.61.406-1.128.813-1.646 1.156z" fill="#030304"/><path d="M221.66 210.119l-3.382-3.063c-.182-.156-.67-.25-.731-.187-.152.25-.274.594-.213.875.061.344.244.687.457.969 2.498 3.312 3.169 7.25 3.961 11.25.914 4.468 1.005 8.937.762 13.406-.183 3.156-.945 6.312-1.585 9.406l-3.29 14.938c-.122.562-.336 1.062-.488 1.562-1.005 0-1.98.156-2.894-.031-4.327-.844-8.532.625-12.797.687-4.784.063-8.989 2.282-13.468 3.407-3.077.75-6.185 1.312-9.232 2.125-1.249.343-2.376 1.187-3.595 1.812-.914.469-1.493.5-2.376-.5-1.859-2.062-4.175-3.719-6.216-5.625l-8.166-7.75c-1.066-.969-2.346-1.719-3.412-2.687-1.249-1.157-2.224-2.688-3.595-3.657-2.347-1.656-3.961-4.031-5.942-6-.853-.843-2.194-1.562-2.437-2.562-.214-.875.731-2.094 1.218-3.125.823-1.719 1.615-3.438 2.59-5.063 1.188-1.968 2.255-1.875 3.992-.468 2.163 1.718 4.631 3.062 6.916 4.625 1.859 1.25 3.809 2.187 6.033 2.406 3.443.344 5.728-1.688 6.703-5.063 1.005-3.5.244-6.906-.518-10.281l-4.083-17.469-4.113-16.906c-.823-3.25-1.859-6.469-2.834-9.719 1.889-.968 3.504-1.875 5.18-2.656 1.158-.531 1.584.438 2.011 1.25l3.961 7.906c2.498 5.188 5.362 10.157 7.19 15.657.397 1.218.975 2.343 1.341 3.562.488 1.594.823 3.25 1.28 4.875.213.719.457 1.469.792 2.125.609 1.25 1.737 1.469 2.834 1.063 1.127-.407 1.645-1.469 1.614-2.719 0-.219-.03-.531-.121-.594-2.347-1.375-1.646-4.187-2.773-6.187-1.402-2.5-2.011-5.438-2.956-8.219.823.656 1.798 1.187 2.407 2.031.915 1.188 1.859 1.813 3.322 1.25.213.844.761.594 1.279.375 1.219.281 2.164 1.594 3.596.875 2.01 2.031 3.96 4.094 4.418 7.156.274 1.782.761 3.532 1.066 5.313.213 1.187.792 1.719 2.011 1.437 1.097-.281 1.462-1.093 1.28-2.093-.701-3.313-.915-6.782-2.804-9.75 2.956-.625 5.911-.688 8.806.281.305.219.823.375.914.656.609 1.938 1.219 3.906 1.676 5.906.426 1.907.579 3.907.975 5.813.213 1.031.944 1.875 2.041 1.531.975-.281 1.371-1.187 1.097-2.344l-2.437-10.093c3.229-.313 5.545 2.25 8.5 2.843 2.407.532 3.9 2.782 4.235 5.438z" fill="#fdfdfd"/><path d="M108.956 74.872c-2.833 4.125-8.378 2.281-10.42-1.281-1.036-1.781-1.919-3.625-2.925-5.437-.548-1-.366-1.781.488-2.469 2.041-1.656 4.387-2.312 6.946-2.094.579.063 1.097.75 1.676 1.156.792-.5 1.615-1.25 2.59-1.531.762-.219 1.676.063 2.499.188.152.031.365.375.457.344 1.736-.656 2.407.844 3.747 2.031.366-.531.64-1.187 1.128-1.625 2.224-2.062 5.24-2.344 7.495-.406 2.102 1.813 4.022 1.906 6.368.594 2.376-1.344 4.966-1.312 7.678-1.031 2.773.281 5.637-.094 8.47-.187.792-.031 1.615-.125 2.438-.062 1.005.063 1.371.75 1.889 1.656 1.34 2.375-.031 4.594-.031 6.844 0 .25-.579.688-.914.75-1.615.219-3.26.438-4.905.469-3.108.063-6.216-.031-9.293.094-.975.031-2.011.406-2.895.875-3.443 1.813-6.947 1.625-10.359.219-1.341-.531-1.98-.281-2.834.719-2.102 2.469-4.875 2.313-7.282 1.375-.7-.25-1.31-.75-2.011-1.187zM89.7 90.151c.183-3.406 3.443-5.312 6.551-4.562 1.798.438 3.138 1.594 4.814 2 .853.219 1.889.063 2.773-.219l7.465-2.625c1.919-.625 3.717-.125 5.362.969 2.285 1.531 4.448 1.5 6.825.031 1.493-.906 3.26-1.406 4.936-1.937 1.859-.594 3.473.313 5.088 1.063.427.188 1.097.281 1.463.063 2.986-1.656 6.002-1.531 9.049-.344.366.156.914.438.945.688.152 1.5 1.157 2.938.213 4.563-.518.875-.823 1.906-1.036 2.906-.183.938-.64 1.25-1.463 1.063-2.407-.562-4.509.031-6.489 1.563-1.128.875-4.51.188-5.515-.812-.945-.906-1.798-1.156-3.047-.312-4.723 3.313-9.628 3.063-14.595.5-.426-.219-1.066-.219-1.523-.062-2.346.813-4.631 1.844-7.008 2.5-2.864.813-5.698.281-8.227-1.187-1.066-.625-1.98-.656-2.925-.125-.975.563-1.645.188-1.98-.656-.64-1.656-1.127-3.375-1.676-5.062z" fill="#fbfcfe"/><path d="M112.552 161.088l-14.93-1.25c-1.188-.094-1.706-.75-1.463-1.844.274-1.281.701-2.594 1.28-3.75.213-.437 1.097-.781 1.645-.687 9.353 1.125 18.707.656 28.093.625h9.079c3.443-.063 6.886-.063 10.329-.313 2.103-.156 3.108 1.375 2.773 3.656-.457 2.938-.549 2.875-3.443 2.907l-12.279.281h-21.023c-.031.125-.031.25-.061.375z" fill="#010204"/><path d="M140.644 122.464l-6.612.969c-12.065.843-24.161.531-36.258.656-3.504.031-3.748-1.125-3.016-4.219.549-2.344.731-2.437 3.138-2.406l19.957.031c6.429-.187 12.828-.687 19.257-1.125 2.59-.187 3.625.688 3.565 3.344-.061.781-.031 1.531-.031 2.75z" fill="#010306"/><path d="M178.242 94.527c-2.803 0-5.637-.031-8.44.031-.731.031-1.493.25-2.163.563-3.382 1.594-6.855 1.531-10.359.688-1.524-.375-2.986-.937-4.51-1.312-.914-.219-1.218-.719-1.249-1.625-.061-2.375 1.006-4.312 2.224-6.156.823-1.219 1.981-1.469 3.321-1 .823.281 1.646.563 2.468.75 1.828.406 3.596.625 5.089-.969 1.493-1.625 3.473-1.531 5.149-.906 1.98.719 3.869.375 5.819.344 1.92-.031 3.839.156 5.728.281.336.031.854.25.915.469.304 1.469 1.828 2.594 1.096 4.406-.365.906-.426 2-.426 3 0 .938-.366 1.313-1.219 1.344-1.158.031-2.316.156-3.473.25.03-.094.03-.125.03-.156z" fill="#fbfcfe"/><path d="M189.577 141.369c-4.57 0-9.141-.031-13.711 0-1.615 0-3.23.156-4.845.313-1.127.093-1.675-.5-1.675-1.5 0-1.282.091-2.625.457-3.813.183-.562 1.158-1.187 1.797-1.219l19.592-.281 12.644-.031c2.011 0 3.017 1.375 2.621 3.469-.396 2.031-1.554 3.031-3.504 3.031l-13.376.031z" fill="#010305"/><path d="M154.02 116.059l24.131-.625c1.341-.031 2.803-.344 3.291 1.563.061.25.487.343.7.562.396.438 1.128.906 1.067 1.313-.092.875-.274 1.625-1.402 2.218-2.712 1.407-5.484.875-8.226 1l-14.016.438c-3.961.062-7.922.031-11.852 0-1.889 0-2.225-.375-2.194-2.281 0-.407 0-.844.061-1.25.305-2.344 1.005-2.969 3.29-3h5.18c-.03.031-.03.062-.03.062z" fill="#010304"/><path d="M104.782 136.275l17.002.625c1.371.032 2.742-.031 4.083-.218 2.376-.313 3.229.218 3.747 2.625l.305 1.218c.366 1.438-.091 2.5-1.523 2.594-2.804.219-5.637.156-8.44.188-.792 0-1.615-.063-2.407-.094l-14.107-.281c-2.011 0-3.992.343-6.003.562-1.097.125-1.737-.437-1.737-1.437 0-1.375.152-2.782.427-4.094.091-.438.823-.938 1.31-1l7.343-.688z" fill="#010306"/><path d="M116.756 170.12l11.396-.032c1.584-.031 2.925 1.375 2.681 3.032 0 .062-.061.093-.061.156-.457 2.406-1.92 3.594-4.357 3.594-6.155 0-12.34-.063-18.525.062-2.864.063-5.728.5-8.592.844-1.127.125-1.706-.281-1.737-1.344-.031-1.281-.122-2.625.213-3.812.183-.625 1.188-1.375 1.859-1.438l17.123-1.062z" fill="#020407"/><path d="M139.608 136.434l13.437-1.094 8.958-.469c1.584-.125 2.681.406 2.803 2.031.122 1.344-.153 2.75-.396 4.094-.031.188-.793.344-1.219.375l-15.265 1.094c-3.748.219-7.526.344-11.304.406-1.676.031-2.133-.437-2.072-2.125.061-1.125.274-2.281.701-3.312.213-.5 1.005-.938 1.584-1.063.884-.187 1.828-.031 2.743-.031.03 0 .03.062.03.094zm23.492 23.688c-2.042 0-4.053-.031-6.064.031-1.036.032-1.523-.375-1.523-1.406 0-.719-.061-1.469.061-2.187.335-2.344 1.066-2.969 3.412-2.969l9.263-.031c1.523-.063 2.711.281 2.833 1.968.122 1.375-.152 2.813-.396 4.188-.03.219-.883.406-1.34.406H163.1z" fill="#010305"/><path d="M161.119 202.242l1.523 5.438 2.773 10.812 1.615 8.344c.183 1.344-.061 2.812-.427 4.125-.579 2.062-2.072 2.531-4.418 1.406-1.279-.625-2.437-1.437-3.625-2.187.609-.157 1.188-.344 1.797-.407.396-.031.792.125 1.189.157 2.315.218 3.321-.75 3.107-3.125-.182-1.875-.67-3.75-.7-5.657-.122-4.062-2.56-7.437-3.139-11.312-.244-1.531-.091-3.125-.03-4.688.03-.968.213-1.937.335-2.906z" fill="#f4f6fa"/><path d="M186.317 197.211c-.518.219-1.067.469-1.28-.375.396-3 3.291-3.156 5.149-2.218 2.438 1.218 4.205 3.25 5.728 5.531 1.89 2.969 2.103 6.437 2.804 9.75.213 1-.153 1.812-1.28 2.094-1.188.281-1.798-.219-2.011-1.438-.335-1.781-.792-3.531-1.066-5.312-.457-3.063-2.438-5.125-4.418-7.157-1.615-1.875-2.255-2.031-3.626-.875zm22.668 4.689l2.438 10.094c.304 1.156-.122 2.031-1.097 2.344-1.097.312-1.828-.531-2.042-1.531l-.974-5.813c-.458-2-1.067-3.937-1.676-5.906-.092-.281-.61-.438-.914-.656-.214-1 .03-1.719 1.127-1.907 1.219-.187 2.377.688 2.712 1.938l.426 1.437z" fill="#050506"/><path d="M224.037 183.525c1.157 0 1.858 1.313 1.218 2.25l-5.545 7.375c-.213.282-.884.188-1.371.25-.061-.468-.396-1.125-.183-1.437l5.088-7.875c.183-.281.61-.438.793-.563z" fill="#020305"/><path d="M232.507 193.148c.214.188.914.532.945.938.061.531-.244 1.437-.671 1.656l-6.733 3.438c-.579.281-1.371 1.062-1.767.062-.214-.531.03-1.781.457-2.031l7.099-4c.061-.031.183-.031.67-.063z" fill="#020306"/><path d="M232.081 208.867h-.305c-.792-.125-1.98.406-2.072-.844-.03-.375 1.188-1 1.92-1.25.883-.312 1.828-.468 2.772-.5.396 0 1.036.532 1.128.907s-.305 1.156-.64 1.281c-.884.312-1.859.344-2.803.5v-.094z" fill="#06152f"/><path d="M156.213 176.994l1.158 9.656c-.122 0-.244.032-.366.032-.914-3.157-1.493-6.375-.792-9.688z" fill="#cdd8e9"/><path d="M162.033 171.432l-5.179 2.594c.578-2.062 2.437-2.969 5.179-2.594z" fill="#dde5f2"/><path d="M156.975 186.68c.122 0 .244-.032.366-.032l1.218 6c-.243-.343-.639-.625-.731-1l-.853-4.968z" fill="#d4deef"/><path d="M221.904 210.43c-.092-.125-.183-.219-.244-.344l.244.344z" fill="#fdfdfd"/><path d="M186.316 197.217c1.372-1.157 2.011-1 3.596.875-1.402.718-2.377-.594-3.596-.875z" fill="#2773f4"/><path d="M262.001 35.995l-37.538 23.469c-4.204-2.531-8.378-5.187-12.431-7.969-1.31-.875-2.59-.437-3.321.531-.091-.062-.183-.094-.244-.125-1.797-.937-3.473.219-3.991 1.719-.609.219-1.188.656-1.493 1.219-.792 1.406-.244 2.969.975 3.844l12.827 9.125 6.064 4.281c.944.656 1.767 1.156 2.955 1.063 1.371-.094 2.407-1 3.473-1.781 8.075-5.656 15.844-11.813 23.279-18.344 2.772-2.437 5.484-4.937 8.135-7.469.548-.344 1.127-.687 1.676-1.062.731-.469 1.127-1.125 1.249-1.812.396-.406.822-.812 1.249-1.219.487-.469.731-1 .792-1.562 1.341-2.187-1.036-5.594-3.656-3.906z" fill="#fff"/></svg>