<svg xmlns="http://www.w3.org/2000/svg" width="224" height="265" viewBox="0 0 224 265" fill="none"><path d="M123.695 253.267l-12.696.388c-5.172.169-10.344-.315-15.269-1.623-5.346-1.43-10.716-3.319-14.651-7.486-1.708-1.793-3.019-4.022-4.281-6.154-1.658-2.81-3.193-5.693-4.578-8.625-1.633-3.44-2.178-7.195-2.698-10.95-.965-6.711-.396-13.446-.47-20.156-.025-2.302.173-4.579.248-6.881.099-3.585.074-7.171.297-10.756.272-3.998.792-7.995 1.163-11.993.272-3.052.569-6.105.718-9.157.322-6.323.718-12.622.718-18.945 0-4.628-.544-9.231-.866-13.858l-.817-11.919c-.247-3.731-.643-7.462-.643-11.193 0-3.174.322-6.347.792-9.473.421-2.81.544-5.572.099-8.382-.866-5.499 1.312-9.933 5.024-13.882 2.747-2.931 6.36-4.046 10.122-4.337 5.197-.412 10.444-.751 15.641-.46 11.161.63 22.322.315 33.483.412h23.115c4.603 0 9.231.121 13.834.266l10.468.436c3.415.073 6.806-.073 10.221.073 5.915.242 11.805.824 17.497 2.52 3.687 1.09 6.088 3.658 7.795 6.929 2.326 4.409 3.391 9.158 4.034 14.027.594 4.458 1.312 8.915.965 13.446-.173 2.277-.47 4.554-.717 6.831-.446 3.974-.743 7.923-.297 11.92.173 1.55.247 3.125.272 4.7l.223 15.36c-.05 5.475-.372 10.95-.471 16.425l-.222 22.386-.025 8.6c-.05 3.271-.248 6.517-.198 9.787l.47 20.884c.124 4.433.47 8.842.446 13.276-.05 6.517-3.366 11.241-8.959 14.536-4.257 2.495-8.959 3.416-13.884 3.416h-20.738c-.396 0-.792-.146-1.188-.242.841-2.472 1.856-4.87 2.45-7.39 1.039-4.409.643-8.842-.891-13.106-1.213-3.319-2.698-6.566-4.183-9.788-2.202-4.797-5.791-8.406-10.542-10.853-3.292-1.696-6.682-3.125-10.345-3.925-.742-.169-1.658-.315-2.078-.824-.495-.581-.966-.678-1.584-.605l-13.364 1.623c-4.851.678-8.81 3.271-12.25 6.444-1.782 1.648-2.921 4.022-4.059 6.202-.792 1.502-1.064 3.247-.173 4.942.049.097-.025.291-.099.437-1.51 3.197-2.178 6.541-2.648 10.029-.52 3.998.124 7.632 2.128 11.072 1.139 1.938 2.425 3.779 3.663 5.645v-.049zM106.916 98.871c2.846 2.06 6.162 2.108 8.29-.581.347-.436.767-.582 1.485-.291 3.193 1.26 6.41 1.502 9.578-.145.668-.339 1.484-.606 2.227-.63 1.757-.024 3.514.218 5.246.145 2.228-.073 4.455-.315 6.682-.557.347-.024.891-.436.916-.678.025-1.841 1.138-3.634 0-5.524-.445-.751-.767-1.308-1.658-1.332-.668-.024-1.312.024-1.98.048-2.376.073-4.801.436-7.127.17-2.475-.291-4.777-.218-6.93.945-1.856.993-3.365.775-4.974-.509-2.104-1.696-4.752-1.478-6.731.388-.347.315-.57.751-.842 1.139-1.064-.945-1.608-2.156-3.069-1.623-.074.024-.247-.218-.396-.242-.717-.097-1.509-.388-2.128-.218-.817.242-1.534.872-2.277 1.308-.371-.291-.816-.921-1.311-.969-2.302-.218-4.43.315-6.138 1.89-.322.291-.569 1.066-.396 1.357 1.237 2.156 2.425 4.361 3.96 6.323 1.287 1.648 4.603 1.89 6.236.775.471-.315.842-.751 1.337-1.211v.024zM90.805 111.13c-.124.048-.223.073-.347.121.544 1.454 1.015 2.907 1.633 4.337.247.581.767.775 1.435.411.916-.508 1.732-.411 2.698.122 2.128 1.138 4.479 1.574 6.855.92 2.054-.581 4.009-1.381 6.038-2.035.372-.121.916-.121 1.262.049 4.232 2.107 8.39 2.301 12.424-.364 1.039-.678 1.782-.533 2.598.218.916.872 3.861 1.405 4.826.679 1.584-1.212 3.292-1.696 5.247-1.236.123.024.272.073.371 0 .346-.218.817-.412.99-.751.396-.775.495-1.72.94-2.447.792-1.308-.049-2.471-.148-3.682 0-.218-.446-.461-.743-.557-2.598-.97-5.147-1.139-7.696.193a1.69 1.69 0 0 1-1.287 0c-1.435-.654-2.871-1.381-4.479-.896-1.485.436-2.995.945-4.331 1.696-1.906 1.042-3.638 1.09-5.42-.073-1.633-1.042-3.415-1.405-5.296-.775-1.98.654-3.91 1.453-5.915 2.083-.693.218-1.559.315-2.252.121-1.41-.387-2.574-1.259-4.108-1.647-2.475-.606-5.37 1.018-5.246 3.586l-.049-.073zm46.006 57.49v-.243h1.361c2.574 0 2.698 0 3.069-2.495.272-1.744-.52-2.931-2.252-2.835-3.292.194-6.583.194-9.874.243h-6.633c-8.018 0-16.036.412-24.03-.509-.47-.048-1.237.242-1.411.606-.495.993-.817 2.083-1.039 3.149-.173.8.297 1.284 1.163 1.357 2.698.242 5.37.654 8.068.678l24.228.024h7.375l-.025.025zm26.381-53.759v.097c1.064-.097 2.129-.121 3.168-.339.322-.073.718-.533.817-.873.198-.799.024-1.72.371-2.446.693-1.454-.594-2.375-.792-3.562-.025-.194-.52-.436-.792-.46-1.633-.145-3.267-.291-4.875-.291-1.658 0-3.267.315-4.975-.266-1.435-.485-3.118-.654-4.405.702-1.188 1.284-2.697 1.187-4.232.848-.717-.145-1.41-.509-2.128-.581s-1.732-.242-2.178.145c-1.707 1.454-2.573 3.368-2.648 5.621 0 .751.273 1.163 1.064 1.332 1.287.291 2.525.727 3.787 1.042 2.97.678 5.89.751 8.736-.485.594-.266 1.237-.46 1.881-.484 2.4-.049 4.801 0 7.226 0h-.025zm-56.128 18.63c-3.415 0-6.83.049-10.27-.024-.916 0-1.46.339-1.683 1.066-.272.872-.445 1.793-.495 2.713-.05 1.042.445 1.599 1.658 1.575 2.401-.049 4.777 0 7.177 0l19.823-.145c3.044-.073 6.088-.509 9.107-.8.965-.097 1.757-.436 1.51-1.672-.074-.339-.025-.726-.025-1.09.05-1.865-.891-2.665-2.772-2.544l-14.626.897c-3.118.145-6.261.024-9.404.024zm68.453 19.381h11.334c2.5 0 2.574 0 2.97-2.471.272-1.647-.545-2.907-2.227-2.883l-27.495.242c-1.312 0-1.51.945-1.683 1.866-.223 1.163-.594 2.398.495 3.392.173.145.544.097.841.097 1.386-.073 2.772-.218 4.158-.218h11.607v-.025zm-5.395-18.775c-.57-.364-1.436-.606-1.584-1.09-.495-1.503-1.634-1.236-2.698-1.212l-17.373.46c-2.598.049-5.197 0-7.795 0-1.856 0-1.955.073-2.426 1.817-.123.412-.173.873-.197 1.309-.099 1.962.098 2.204 2.078 2.18l15.542-.218 11.136-.242c2.055-.073 3.218-1.163 3.292-3.004h.025zm-66.918 14.633l-6.163.557c-.421.048-1.064.509-1.138.872-.248 1.09-.347 2.205-.347 3.319 0 .751.52 1.187 1.411 1.09 1.708-.194 3.415-.436 5.123-.46 2.574-.024 5.172.121 7.746.194 2.326.072 4.677.218 7.004.218 2.128 0 4.256-.097 6.385-.243 1.212-.096 1.732-.969 1.435-2.131-.099-.437-.173-.873-.297-1.285-.421-1.598-1.188-2.059-2.871-1.865-1.014.121-2.054.218-3.068.194l-15.27-.485.05.025zm10.319 27.472l-14.749.945c-.52.049-1.312.703-1.435 1.212-.247.969-.173 2.059-.124 3.076.025.751.47 1.115 1.336 1.018 2.549-.291 5.123-.654 7.697-.703 5.37-.121 10.74-.048 16.11-.048 2.401 0 2.549-.145 2.995-2.399.049-.193.124-.387.148-.581.248-1.332-.891-2.568-2.153-2.544-3.192.049-6.409 0-9.825 0v.024zm19.502-27.351v-.097c-.619 0-1.238.072-1.856 0-1.287-.17-1.931.412-2.153 1.575-.075.363-.223.702-.297 1.041-.396 2.06.148 2.786 2.301 2.689l10.592-.581c1.807-.097 3.613-.048 5.42-.17 1.411-.072 2.821-.387 4.257-.411 2.846-.073 2.846 0 3.316-2.738 0-.049.025-.073.025-.121.148-1.212-.916-2.471-2.178-2.423l-7.87.339-11.533.897h-.024zm19.847 19.284c1.485 0 2.97.048 4.455 0 .718-.024 1.856 0 2.054-.388.446-.896.693-2.035.545-3.004-.273-1.72-.743-1.914-2.525-1.914h-7.894c-2.079 0-2.723.533-2.97 2.52-.074.557-.049 1.114-.025 1.696 0 .775.371 1.163 1.238 1.138 1.732-.048 3.464 0 5.172 0l-.05-.048z" fill="#196ffe"/><path d="M123.625 253.261l-3.662-5.645c-2.03-3.44-2.673-7.074-2.129-11.072.446-3.488 1.139-6.832 2.648-10.029.075-.146.149-.34.099-.437-.891-1.671-.618-3.415.173-4.942 1.164-2.18 2.302-4.554 4.059-6.202 3.415-3.173 7.375-5.766 12.25-6.444 4.455-.63 8.909-1.09 13.364-1.623.594-.073 1.089 0 1.584.605.421.509 1.336.655 2.079.824 3.638.8 7.053 2.229 10.344 3.925 4.752 2.447 8.316 6.057 10.543 10.853 1.485 3.223 2.97 6.469 4.182 9.788 1.535 4.24 1.906 8.673.891 13.106-.594 2.52-1.608 4.943-2.45 7.39-1.237 1.744-2.326 3.609-3.761 5.208-1.881 2.108-4.653 2.811-7.202 3.804-2.995 1.163-6.088 1.575-9.256 1.671l-6.558.243c-3.44.145-6.682-.824-9.949-1.696-3.885-1.066-7.746-2.18-11.111-4.385-1.906-1.26-3.589-2.883-5.346-4.337-.247-.193-.495-.412-.742-.63l-.05.025zm47.293.581c3.514-5.112 4.9-10.684 3.712-16.789-.89-4.627-2.969-8.818-5.221-12.913-1.436-2.616-3.49-4.772-6.088-6.323-3.688-2.204-7.672-3.706-11.904-4.676-2.648-.605-5.222-.581-7.845.267-3.489 1.114-6.509 3.028-9.305 5.257-2.104 1.672-4.257 3.343-5.94 5.354-3.068 3.634-4.504 7.971-5.048 12.671-.371 3.076-.074 5.887 1.559 8.576 1.856 3.052 3.811 6.008 6.979 7.946.42.291.816.679 1.262.897 7.226 3.416 14.725 5.547 22.867 4.869 3.885-.315 7.721-.824 11.26-2.471 1.361-.63 2.475-1.744 3.712-2.641v-.024z" fill="#020203"/><path d="M106.846 98.868c-.495.46-.866.896-1.336 1.211-1.633 1.114-4.95.872-6.236-.775-1.534-1.962-2.722-4.167-3.96-6.323-.173-.291.099-1.066.396-1.357 1.708-1.599 3.861-2.108 6.137-1.89.495.048.916.678 1.312.969.742-.436 1.435-1.066 2.277-1.308.643-.194 1.41.097 2.128.218.149 0 .297.267.396.242 1.46-.533 2.005.678 3.069 1.623.272-.363.495-.799.841-1.139 1.955-1.865 4.628-2.083 6.732-.388 1.608 1.284 3.118 1.502 4.974.509 2.153-1.163 4.479-1.236 6.929-.945 2.351.266 4.752-.097 7.128-.17l1.979-.048c.891.024 1.213.581 1.659 1.332 1.138 1.914 0 3.707 0 5.524 0 .242-.57.63-.916.678l-6.682.557c-1.757.049-3.489-.194-5.247-.145-.742 0-1.559.267-2.227.63-3.192 1.647-6.385 1.405-9.577.145-.693-.291-1.114-.145-1.485.291-2.128 2.689-5.445 2.617-8.291.581v-.024z" fill="#fcfdfe"/><path d="M90.735 111.129c-.124-2.568 2.747-4.191 5.247-3.586 1.534.388 2.698 1.236 4.108 1.648.693.194 1.559.097 2.252-.121l5.915-2.084c1.881-.63 3.662-.266 5.296.775 1.806 1.163 3.539 1.115 5.42.073 1.336-.751 2.846-1.26 4.33-1.696 1.609-.484 3.044.242 4.48.897a1.7 1.7 0 0 0 1.287 0c2.549-1.333 5.122-1.163 7.696-.194.297.097.718.363.743.557.099 1.211.94 2.398.148 3.682-.445.751-.569 1.672-.94 2.447-.174.339-.644.533-.99.751-.074.049-.248 0-.371 0-1.955-.46-3.638.025-5.247 1.236-.965.727-3.885.194-4.826-.678-.792-.751-1.559-.897-2.598-.219-4.034 2.665-8.192 2.472-12.424.364-.346-.17-.866-.17-1.262-.049-2.029.655-3.984 1.478-6.038 2.035-2.376.679-4.727.243-6.855-.92-.99-.533-1.807-.63-2.697-.121-.668.363-1.188.169-1.435-.412-.594-1.429-1.089-2.883-1.633-4.337.124-.048.223-.072.346-.121l.049.073z" fill="#fbfcfe"/><path d="M136.742 168.617h-7.375c-8.068 0-16.161.048-24.228-.025-2.698-.024-5.371-.46-8.068-.678-.866-.073-1.336-.557-1.163-1.357.247-1.09.569-2.18 1.039-3.149.173-.364.965-.654 1.411-.606 7.993.921 16.012.509 24.03.509h6.632c3.292-.049 6.583-.049 9.875-.242 1.732-.097 2.524 1.09 2.252 2.834-.396 2.52-.495 2.495-3.069 2.495h-1.361v.243l.025-.024z" fill="#010203"/><path d="M163.123 114.861c-2.401 0-4.826-.024-7.227 0-.619 0-1.287.218-1.881.485-2.87 1.26-5.791 1.187-8.736.485l-3.786-1.042c-.817-.17-1.089-.582-1.064-1.333.074-2.253.94-4.167 2.648-5.62.445-.388 1.46-.218 2.178-.146s1.41.436 2.128.582c1.534.339 3.044.412 4.232-.848 1.287-1.357 2.97-1.187 4.405-.703 1.707.582 3.316.267 4.974.267 1.634 0 3.267.145 4.876.291.296 0 .767.266.791.46.223 1.187 1.51 2.108.792 3.561-.346.703-.173 1.648-.371 2.447-.099.339-.47.824-.817.872-1.039.194-2.103.242-3.167.339v-.097h.025z" fill="#fcfcfe"/><path d="M106.995 133.499l9.404-.024c4.875-.218 9.751-.558 14.626-.897 1.881-.121 2.821.679 2.772 2.544 0 .364-.05.727.024 1.09.248 1.212-.544 1.575-1.509 1.672-3.044.315-6.063.751-9.107.799l-19.823.146c-2.401 0-4.777-.049-7.177 0-1.188.024-1.708-.533-1.658-1.575.049-.921.223-1.841.495-2.713.223-.727.792-1.066 1.683-1.066 3.415.072 6.831.024 10.27.024z" fill="#010203"/><path d="M175.447 152.867h-11.606c-1.386 0-2.772.145-4.158.218-.272 0-.668.048-.841-.097-1.089-.969-.718-2.229-.495-3.392.173-.896.371-1.841 1.682-1.865l27.495-.242c1.683-.025 2.5 1.235 2.228 2.883-.396 2.471-.471 2.471-2.97 2.471h-11.335v.024z" fill="#010204"/><path d="M170.052 134.093c-.099 1.865-1.237 2.955-3.291 3.004l-11.137.242-15.541.218c-1.98 0-2.178-.194-2.079-2.18 0-.437.074-.873.198-1.309.495-1.744.569-1.817 2.425-1.817h7.796l17.372-.46c1.065-.024 2.203-.291 2.698 1.211.148.461 1.015.727 1.584 1.091h-.025zm-66.918 14.634l15.27.484c1.014.024 2.054-.097 3.068-.194 1.658-.194 2.45.291 2.871 1.866l.297 1.284c.297 1.138-.223 2.035-1.435 2.132l-6.385.242c-2.327 0-4.678-.145-7.004-.218l-7.746-.194c-1.708 0-3.415.267-5.123.46-.916.097-1.411-.339-1.411-1.09 0-1.114.099-2.229.346-3.319.074-.363.718-.824 1.138-.872l6.162-.557-.05-.024z" fill="#010203"/><path d="M113.454 176.203h9.825c1.262 0 2.4 1.211 2.153 2.544-.025.194-.124.388-.149.581-.42 2.253-.594 2.399-2.994 2.399-5.37 0-10.741-.049-16.111.048-2.574.049-5.123.412-7.697.703-.866.097-1.287-.242-1.336-1.018-.049-1.041-.124-2.107.124-3.076.124-.509.916-1.163 1.435-1.212l14.75-.945v-.024zm19.501-27.345l11.533-.896 7.87-.34c1.262-.048 2.326 1.212 2.177 2.423 0 .049-.024.073-.024.121-.471 2.738-.471 2.689-3.317 2.738-1.41.024-2.821.339-4.256.412l-5.42.169-10.592.582c-2.128.097-2.673-.63-2.302-2.689.075-.364.223-.703.297-1.042.248-1.163.891-1.744 2.153-1.575.619.073 1.238 0 1.857 0v.097h.024zm19.848 19.277c-1.733 0-3.465-.024-5.172 0-.867 0-1.213-.363-1.238-1.138 0-.558-.049-1.139.025-1.696.272-1.987.916-2.496 2.97-2.52h7.894c1.807 0 2.252.194 2.524 1.914.149.969-.099 2.108-.544 3.004-.173.364-1.336.364-2.054.388h-4.455l.05.048z" fill="#010204"/><path d="M131.817 253.195c-3.168-1.938-5.123-4.894-6.979-7.946-1.633-2.69-1.906-5.476-1.559-8.577.544-4.7 2.004-9.036 5.048-12.67 1.708-2.011 3.861-3.707 5.94-5.354 2.796-2.229 5.816-4.143 9.305-5.257 2.599-.824 5.197-.873 7.845-.267 4.207.969 8.192 2.495 11.904 4.676 2.623 1.55 4.652 3.707 6.088 6.323 2.252 4.094 4.306 8.285 5.221 12.913 1.188 6.105-.222 11.677-3.712 16.789l-14.378-.436c-4.232-.073-8.489 0-12.721 0-.618 0-1.237-.121-1.831-.121l-10.171-.073zm13.413-19.406c-1.584 0-3.168.049-4.776 0-1.955-.072-3.514.8-5.024 1.817-.322.218-.371.969-.396 1.478 0 .461.272.921.247 1.381-.247 2.495 1.065 3.561 3.589 3.198 2.301-.339 4.628-.339 7.053-.485l.223 4.604c.124 3.076 1.262 4.021 4.306 3.585h.124c1.979-.291 2.945-1.575 2.821-3.537-.099-1.551 0-3.101 0-4.652l9.8-.557c1.708-.097 2.945-1.768 2.5-3.367-.273-.994-.57-2.011-.669-3.029-.074-.896-.47-1.114-1.262-1.065l-5.42.363c-1.534.073-3.093 0-4.454 0l-.718-9.255c-.049-.581-1.485-2.01-2.079-2.059-1.287-.121-3.935 1.429-4.207 2.689-.618 2.907-1.064 5.839-1.633 8.94l-.025-.049z" fill="#1a6ffe"/><path d="M133.227 221.531h34.212v28.529h-34.212v-28.529z" fill="#196ffe"/><path fill-rule="evenodd" d="M148.978 220.82c1.4 0 2.534 1.111 2.534 2.481 0 2.047.148 4.109.325 6.247l.092 1.097.169 2.042 1.513-1.705c.896-1.053 2.494-1.195 3.569-.318s1.221 2.442.325 3.494c-1.426 1.676-2.916 3.241-4.522 4.755-.474.447-1.08.677-1.689.693-.219.141-.479.259-.787.338-1.117.284-1.966-.24-2.141-.347v-.001c-.301-.185-.54-.403-.698-.558s-.346-.306-.618-.508l-.237-.174-.737-.549c-.899-.704-1.801-1.293-2.859-1.983l-.138-.09c-1.165-.76-1.479-2.3-.703-3.44s2.35-1.448 3.514-.688l.187.122.907.595-.103-1.236-.096-1.138-.341-6.648c0-1.37 1.135-2.481 2.534-2.481zm-9.274 25.609c0-1.37 1.134-2.481 2.534-2.481h15.888c1.399 0 2.534 1.111 2.534 2.481s-1.135 2.481-2.534 2.481h-15.888c-1.4 0-2.534-1.111-2.534-2.481z" fill="#fff"/><path d="M12.069 13.263c1.775-.092 3.482 1.072 4.77 2.707 2.655 3.408 5.143 6.928 7.687 10.411l4.675 6.398c.673.918.887 1.808.023 2.785s-1.78.715-2.809.291c-3.433-1.375-5.805-4.05-8.189-6.605-2.347-2.501-4.557-5.109-6.874-7.613-.497-.526-1.157-.912-1.731-1.338-1.355-1.033-1.881-2.415-1.436-4.018.407-1.657 1.539-2.67 3.885-3.017zm58.208 10.773l-.129-15.14c-.006-1.571 1.407-3.839 3.705-3.883 1.992-.062 3.852 1.111 4.194 3.141.175 1.044.146 2.146.015 3.172l-1.465 11.292-1.316 8.217c-.204 1.155-1.002 1.737-2.101 1.678-1.159-.051-1.659-.814-1.786-1.954l-.87-6.497c-.064-.021-.153-.009-.246-.026zm-19.051.769c-.431.831-.847 1.987-1.523 2.924-.835 1.105-2.028.926-2.567-.368l-2.355-6.008c-2.032-4.608-3.273-9.411-4.118-14.341-.349-2.108.572-3.768 2.436-4.407 1.863-.61 3.84.139 4.648 2.094.43 1.052.341 2.284.557 3.414L50.5 19.911c.288 1.516.457 2.996.726 4.894z" fill="#060606"/><path d="M20.464 53.003c-.279.72-.376 1.715-.949 2.205-.628.513-1.871.959-2.51.68-3.501-1.493-7.143-2.323-10.91-2.911-2.062-.332-2.898-1.454-2.693-3.035.18-1.411 1.416-2.332 3.358-2.206 4.464.238 8.513 1.793 12.374 3.902.483.216.769.735 1.33 1.365z" fill="#070707"/><g filter="url(#A)"><rect x="36.537" y="43.49" width="85.605" height="40" rx="6" fill="#43bf7c" shape-rendering="crispEdges"/><use href="#B" fill="#fff"/><use href="#B" x="-14.039" fill="#fff"/><path d="M65.099 72.13V54.85h7.14l.648.024c.264.008.508.032.732.072 1 .152 1.824.484 2.472.996a4.56 4.56 0 0 1 1.452 1.944c.32.776.48 1.64.48 2.592 0 1.408-.356 2.62-1.068 3.636-.712 1.008-1.804 1.632-3.276 1.872l-1.236.108h-4.452v6.036h-2.892zm9.924 0l-3.408-7.032 2.94-.648 3.744 7.68h-3.276zm-7.032-8.736h4.128l.54-.024a2.83 2.83 0 0 0 .552-.096c.48-.12.856-.332 1.128-.636a2.57 2.57 0 0 0 .588-1.032 3.77 3.77 0 0 0 .18-1.128 3.77 3.77 0 0 0-.18-1.128 2.56 2.56 0 0 0-.588-1.044c-.272-.304-.648-.516-1.128-.636a2.35 2.35 0 0 0-.552-.084l-.54-.024h-4.128v5.832z" fill="#fff"/><path d="M52.537 72.13V54.85h10.404v2.892h-7.512v4.308h6.072v2.88h-6.072v7.2h-2.892z" fill="#fff"/></g><defs><filter id="A" x="29.537" y="39.49" width="99.606" height="54" filterUnits="userSpaceOnUse" color-interpolation-filters="sRGB"><feFlood flood-opacity="0" result="A"/><feColorMatrix in="SourceAlpha" values="0 0 0 0 0 0 0 0 0 0 0 0 0 0 0 0 0 0 127 0" result="B"/><feOffset dy="3"/><feGaussianBlur stdDeviation="3.5"/><feComposite in2="B" operator="out"/><feColorMatrix values="0 0 0 0 0 0 0 0 0 0 0 0 0 0 0 0 0 0 0.1 0"/><feBlend in2="A"/><feBlend in="SourceGraphic"/></filter><path id="B" d="M94.982 72.13V54.85h11.16v2.712h-8.268v4.26h6.828v2.712h-6.828v4.884h8.268v2.712h-11.16z"/></defs></svg>