<svg xmlns="http://www.w3.org/2000/svg" width="120" height="120" fill="none"><path d="M25.781 120H0V0h120v120H95.391c-.047-1.242.07-2.52-.176-3.727-.41-2.027-.984-4.031-1.629-6.011-.281-.879-.82-1.711-1.371-2.485-.422-.597-1.043-1.043-1.547-1.582-1.887-2.015-4.102-3.656-6.305-5.285-1.289-.961-2.648-1.84-4.066-2.613l-5.648-2.824c-1.652-.914-3.223-1.969-5.074-2.473-.164-.047-.363-.199-.41-.352-.129-.398-.211-.832-.258-1.254l-.527-4.207-.527-4.383c-.047-.398.129-.551.492-.703 1.863-.762 3.539-1.77 4.746-3.469.457-.645 1.02-1.219 1.547-1.828l2.285-2.66c1.348-1.746 2.367-3.703 3.234-5.73.574-1.359 1.371-2.625 1.5-4.148.023-.328.211-.656.317-.984.68.281 1.277.668 1.933.762 1.805.269 4.254-.926 5.109-2.801 1.242-2.684 1.477-5.496 1.102-8.391-.082-.598-.258-1.172-.398-1.758-.328-1.406-1.289-2.203-2.648-2.578l.539-1.137.832-2.238c.375-.949.41-1.922.363-2.93-.07-1.465-.187-2.953-.035-4.406.246-2.309.352-4.582-.258-6.832l-1.231-3.937c-.551-1.652-1.008-3.375-1.769-4.922-.926-1.863-2.168-3.586-3.973-4.746l-5.461-3.375c-1.242-.844-2.602-1.301-4.031-1.617l-3.469-.75c-2.074-.398-4.148-.902-6.281-.773l-3.891.234c-2.695.164-5.25.785-7.605 2.145-1.582.902-3.117 1.84-4.149 3.422-.176.27-.41.492-.598.715-.316-.117-.562-.281-.82-.293-1.453-.035-2.918-.059-4.348.328-1.746.469-3.187 1.512-4.687 2.438-.82.504-1.57 1.066-1.863 2.004l-1.008 3.82c-.328 1.629-.387 3.316-.926 4.91-.258.75-.516 1.535-.586 2.309-.164 2.121.117 4.195.902 6.188a1.82 1.82 0 0 1 .105.621c-.07 2.18-.598 4.359-.082 6.551l.668 2.449c.117.328.152.434-.141.645-.937.691-1.641 1.582-1.805 2.766-.141 1.02-.187 2.051-.246 3.07-.117 2.098.398 4.043 1.359 5.895.82 1.594 2.859 2.777 4.652 2.637l1.793-.187.328 1.09c1.055 3.035 2.32 5.988 3.973 8.754.68 1.137 1.348 2.297 2.215 3.293 1.641 1.875 3.762 3.188 5.836 4.523.551.352 1.172.586 1.746.867l-.094.504-.363 5.051-.551 4.91c-.035.398-.211.492-.516.633l-3.973 1.828-6.75 3.844-4.652 2.906-4.887 3.504c-1.863 1.183-3 2.859-3.726 4.863-.445 1.219-.809 2.473-1.125 3.738-.246.996-.41 2.016-.516 3.035-.106 1.032-.094 2.086-.129 3.129l-.059.012z" fill="#fefefe"/><path d="M25.781 120l.129-3.129c.105-1.019.27-2.039.516-3.035l1.125-3.738c.727-1.992 1.863-3.68 3.727-4.864 1.687-1.066 3.223-2.379 4.887-3.504l4.652-2.906 6.75-3.844c1.277-.691 2.637-1.242 3.973-1.828.305-.141.48-.234.516-.633l.551-4.91.363-5.051c0-.152.058-.305.094-.504-.574-.281-1.195-.516-1.746-.867-2.086-1.336-4.207-2.637-5.836-4.523-.855-.984-1.535-2.156-2.215-3.293-1.652-2.766-2.918-5.707-3.973-8.754l-.328-1.09-1.793.188c-1.793.141-3.832-1.031-4.652-2.637-.961-1.852-1.477-3.797-1.359-5.895l.246-3.07c.164-1.184.867-2.074 1.805-2.766.281-.211.258-.316.141-.645-.293-.785-.469-1.617-.668-2.449-.516-2.191.023-4.371.082-6.551 0-.211-.023-.434-.105-.621-.785-1.992-1.066-4.066-.902-6.187.059-.785.328-1.559.586-2.309.539-1.594.609-3.281.926-4.91.258-1.289.621-2.555 1.008-3.82.293-.937 1.043-1.5 1.863-2.004 1.5-.926 2.953-1.969 4.688-2.437 1.43-.387 2.883-.375 4.348-.328.258 0 .504.176.82.293.188-.223.422-.445.598-.715 1.031-1.57 2.566-2.508 4.148-3.422 2.367-1.359 4.922-1.98 7.606-2.145l3.891-.234c2.145-.129 4.207.375 6.281.773l3.469.75c1.43.316 2.777.762 4.031 1.617l5.461 3.375c1.805 1.16 3.047 2.871 3.973 4.746.773 1.559 1.219 3.27 1.77 4.922l1.23 3.938c.609 2.25.504 4.523.258 6.832-.152 1.453-.035 2.941.035 4.406.047 1.008.012 1.98-.363 2.93l-.832 2.238c-.141.375-.34.726-.539 1.137 1.359.375 2.309 1.16 2.648 2.578l.398 1.758c.375 2.895.141 5.695-1.102 8.391-.867 1.875-3.305 3.07-5.109 2.801-.645-.094-1.254-.492-1.934-.762-.106.328-.293.645-.316.984-.117 1.523-.926 2.789-1.5 4.148-.867 2.027-1.887 3.984-3.234 5.731-.715.926-1.523 1.769-2.285 2.66l-1.547 1.828c-1.195 1.688-2.883 2.707-4.746 3.469-.375.152-.551.305-.492.703l.527 4.383.527 4.207c.058.422.129.844.258 1.254.047.152.258.316.41.352 1.852.492 3.422 1.547 5.074 2.473l5.648 2.824c1.406.773 2.777 1.652 4.066 2.613 2.203 1.641 4.418 3.269 6.305 5.285.504.539 1.125.984 1.547 1.582.539.774 1.078 1.594 1.371 2.484l1.629 6.012c.246 1.207.129 2.485.176 3.727H81.738c.34-.657 1.418-1.207 2.098-.996 1.301.398 2.602.632 3.973.539.094 0 .199 0 .293.023 1.16.199 2.355.164 3.375-.328 1.43-.691 2.367-1.289 1.734-3.187-.363.14-.75.234-1.078.433-.656.387-1.254.938-2.074.914l-2.156-.105c-.656-.059-1.324-.106-1.945-.293-1.547-.469-2.976-.399-4.348.527-.738.492-1.57.844-2.332 1.313-.539.339-1.019.761-1.523 1.16h-5.039l-1.512-.563c-1.957-.855-4.008-1.054-6.094-.703-1.066.176-2.109.504-2.941 1.277H51.504l-1.652-1.101c-1.887-1.277-3.902-1.289-5.965-.539-.879.316-1.699.844-2.601 1.008-1.172.222-2.391.187-3.586.281-.809.059-1.418-.27-1.969-.82l-3.398-3.293c-1.055-.985-1.734-1.055-2.918-.387-.562.316-.598 1.394.023 1.617 1.5.527 2.344 1.816 3.492 2.754.141.105.199.305.293.469h-7.5l.058-.012zm27.481-82.488l-2.859 3.316c-.258.293-.621.492-.82.809-.363.574-.832.82-1.512.797-1.113-.035-2.145.387-3.094.867-.668.328-1.254.762-2.051.668-.176-.023-.387.059-.562.152l-2.168 1.23c-.199.129-.398.41-.41.633l-.199 3.574.023 4.5.504 4.629c.082.668.129 1.359.305 2.004.609 2.215 1.336 4.383 2.262 6.492 1.043 2.367 2.332 4.582 3.691 6.762.832 1.348 2.145 2.18 3.363 3.117 2.215 1.723 4.605 3.117 7.383 3.738l3.117.75c.223.059.469.141.68.106l2.742-.516 3.844-.926c1.418-.387 2.637-1.113 3.598-2.262l2.637-3.117 2.027-2.484c2.133-3.117 3.527-6.562 4.43-10.207.527-2.145.938-4.336 1.137-6.527.246-2.637.234-5.285.258-7.934 0-.516-.199-1.219-.562-1.512-1.148-.926-2.461-1.617-3.855-2.156-1.371-.539-2.812-.516-4.207-.879-.82-.211-1.711-.422-2.519-.316-1.043.129-2.004-.141-2.988-.258l-4.898-.598a2.41 2.41 0 0 1-.398-.082c-.926-.293-1.84-.621-2.777-.867-.633-.164-1.359-.047-1.934-.305-.856-.387-1.664-.937-2.402-1.523-.668-.516-1.219-1.184-1.723-1.687l-.059.012zm19.465 75.574c.621-.152 1.266-.211 1.84-.469.926-.41 1.84-.879 2.672-1.441.773-.528 1.488-1.184 2.156-1.84 1.231-1.207 2.52-2.344 4.195-2.871 1.242-.399 1.453-.621 1.231-1.863-.023-.153-.293-.399-.422-.387-.516.058-1.043.14-1.523.328-1.887.762-3.516 1.934-4.898 3.422-.727.773-1.5 1.488-2.461 1.933-.762.352-1.441 1.02-2.367.856-.644-.117-1.289-.281-1.898-.527-1.172-.469-1.992-1.418-2.883-2.262-.269-.258-.644-.539-.984-.551-1.371-.07-2.789-.269-4.102.27-1.395.574-2.719 1.336-4.125 1.898-1.277.516-2.613.399-3.68-.516-.762-.644-1.312-1.523-1.98-2.285-.82-.949-1.348-2.133-2.988-2.191-1.523-.059-2.883.176-4.207.855l-3.797 1.922c-.152.082-.375.071-.551.047-1.219-.199-2.086-.879-2.695-1.934-.469-.808-.926-.808-2.074-.058-.375.246-.34.855.082 1.406l1.09 1.442c.809 1.101 2.977 1.804 4.23 1.277 1.219-.516 2.426-1.078 3.574-1.723 1.16-.644 2.262-1.254 3.668-.961.469.094.867.211 1.16.563.422.515.785 1.055 1.195 1.582 1.055 1.371 2.016 2.894 4.008 2.976.902.036 1.863.129 2.719-.105a11.86 11.86 0 0 0 3.258-1.418c1.219-.773 2.473-.996 3.844-.867.305.023.633.176.879.363.527.422.996.926 1.512 1.371 1.231 1.078 2.648 1.688 4.336 1.758h-.012zM55.031 84.797l-.305 3.094-.598 5.309c-.023.176.094.457.223.527a51.8 51.8 0 0 0 2.906 1.465c1.301.609 2.719.656 4.113.633 1.02-.023 2.051-.223 3.023-.504.996-.281 2.191-.305 2.684-1.524.023-.059.105-.105.117-.105-.141-.773-.293-1.5-.387-2.227l-.586-4.723c-.035-.352-.234-.41-.516-.375l-1.84.234c-2.32.316-4.582.094-6.738-.832-.668-.293-1.324-.621-2.074-.973h-.023zm27.633-24.012l1.652.832c.914.457 2.203.07 2.648-.855.281-.574.469-1.195.691-1.793.656-1.77.516-3.621.445-5.437-.047-.949-.27-1.945-1.324-2.437-.703-.328-2.437-.129-3 .375-.047.047-.094.129-.094.199l-.223 2.285c.668-.082 1.324-.316 1.934-.211 1.395.234 1.981 1.055 2.027 2.508.012.422-.457 1.066-.844 1.148-.574.117-.832-.059-1.137-.656-.106-.223-.316-.516-.527-.551-.504-.105-1.031-.082-1.547-.105l-.703 4.711v-.012zm-44.93-4.746c-.48-.047-.82 0-.961.457-.047.164-.141.363-.27.445-.316.188-.656.422-1.008.434-.187 0-.469-.363-.574-.621-.305-.738 0-1.605.691-2.027.457-.281.961-.504 1.418-.797.152-.094.281-.293.328-.469.059-.223.012-.469.012-.703 0-1.148-.555-1.816-1.664-2.004-1.043-.187-1.699.27-2.109 1.289-.457 1.102-.27 2.262-.34 3.41-.094 1.582.328 3.035 1.16 4.324.727 1.125 1.945 1.547 3.234 1.723.106.012.258 0 .328-.082.117-.117.281-.305.27-.445-.07-.902-.199-1.816-.293-2.719l-.234-2.238.012.023zm2.578-35.074l5.027.551c-1.172-1.102-3.398-1.383-5.027-.551zm45.773 86.062l-.809 1.219 1.559-.492-.75-.738v.011zM36.633 25.102c.047 0 .105.023.152.023.199-.293.41-.574.633-.891-.105-.105-.211-.223-.422-.445l-.363 1.301v.012z" fill="#bac1cc"/><path d="M33.281 120c-.094-.152-.164-.351-.293-.469-1.148-.937-2.004-2.226-3.492-2.753-.621-.223-.586-1.301-.023-1.618 1.184-.668 1.863-.597 2.918.387l3.399 3.293c.551.551 1.172.879 1.969.82 1.195-.093 2.414-.047 3.586-.281.902-.176 1.723-.691 2.602-1.008 2.063-.75 4.078-.738 5.965.539l1.652 1.102H33.281V120z" fill="#fdfdfd"/><path d="M77.813 120l1.523-1.16 2.332-1.313c1.383-.914 2.813-.996 4.348-.527.621.188 1.289.234 1.945.293l2.156.105c.832.012 1.418-.527 2.074-.914.328-.199.715-.293 1.078-.433.633 1.898-.305 2.496-1.734 3.187-1.02.492-2.227.528-3.375.328-.094-.011-.199-.035-.293-.023-1.359.094-2.672-.129-3.973-.539-.68-.211-1.758.34-2.098.996h-3.984z" fill="#fdfefe"/><path d="M62.227 120c.832-.773 1.875-1.101 2.941-1.277 2.086-.34 4.137-.153 6.094.703l1.512.562H62.227V120z" fill="#fdfdfd"/><path d="M53.261 37.512c.504.504 1.055 1.16 1.723 1.688.75.586 1.547 1.137 2.402 1.524.574.258 1.301.141 1.933.305.938.234 1.852.574 2.777.867.129.035.258.07.398.082l4.898.598c.996.117 1.945.387 2.988.258.82-.105 1.699.105 2.52.316 1.383.363 2.836.34 4.207.879 1.395.551 2.707 1.231 3.856 2.156.363.293.574.996.563 1.512l-.258 7.934c-.199 2.191-.621 4.383-1.137 6.527-.891 3.644-2.297 7.09-4.43 10.207-.598.879-1.336 1.664-2.027 2.484l-2.637 3.117c-.949 1.148-2.168 1.875-3.598 2.262-1.266.34-2.555.633-3.844.926-.902.199-1.816.363-2.742.516-.223.035-.457-.047-.68-.106l-3.117-.75c-2.777-.621-5.168-2.016-7.383-3.738-1.207-.937-2.531-1.77-3.363-3.117-1.348-2.191-2.648-4.394-3.691-6.762-.926-2.109-1.652-4.277-2.262-6.492-.176-.645-.223-1.336-.305-2.004-.176-1.535-.41-3.082-.504-4.629-.082-1.488-.047-3-.023-4.5.023-1.195.105-2.391.199-3.574a1.01 1.01 0 0 1 .41-.633c.703-.445 1.441-.844 2.168-1.23.164-.094.375-.164.563-.152.797.094 1.383-.34 2.051-.668.961-.48 1.98-.902 3.094-.867.668.023 1.137-.223 1.512-.797.199-.316.574-.516.82-.809l2.859-3.316.059-.012zM63.621 63.07c-.223-.445-.598-.457-.996-.504a58.42 58.42 0 0 1-3.152-.469c-.152-.024-.375-.246-.375-.387-.035-.797 0-1.605 0-2.402 0-.926 0-1.863-.047-2.789-.035-.68-.187-1.348-.199-2.027l-.012-7.676c0-.973-.469-1.605-1.359-1.77-.785-.141-1.582-.258-2.367-.27-1.148-.023-2.297.047-3.434.106-.961.059-1.934.152-2.895.258l-4.91.574c-.223.035-.41.293-.609.457.188.152.375.445.563.445h6.059c2.238-.07 4.465-.246 6.691.117.469.082.516.27.516.645l-.012 3.105c-.023 1.441-.105 2.883-.059 4.324.047 1.57.223 3.141.293 4.711.047.891 0 1.793.012 2.695 0 .973.48 1.5 1.453 1.652l2.566.457c.234.035.551.105.715 0 .539-.363 1.043-.809 1.582-1.254h-.023zm1.758-18.609v-.105c-.586.141-1.184.234-1.746.434-.422.141-.891.387-.797.938.094.527.563.715 1.043.785.188.024.387-.023.574-.059.445-.059.879-.152 1.324-.164l5.133-.152 5.344-.117c.211 0 .551-.152.609-.316.129-.328-.141-.457-.457-.492-1.629-.187-3.258-.445-4.898-.551-2.027-.129-4.078-.141-6.105-.199h-.023zM52.406 54.727c1.652-.012 2.496-1.16 2.039-2.766a2.38 2.38 0 0 1-.07-.398c-.082-.785-.75-1.43-1.523-1.395-.551.023-1.125.105-1.652.258-.293.082-.527.387-.82.527-.551.27-.68.504-.504 1.09.07.223.105.457.188.668.434 1.172.762 2.168 2.355 2.016h-.012zm7.863 16.418c2.367-.023 4.301-.598 5.941-2.016.281-.246.457-.492.199-.844-.246-.34-.551-.234-.82-.059-2.109 1.406-4.453 1.57-6.855 1.23-1.078-.152-2.133-.539-3.187-.844-.375-.105-.797-.316-1.02.152-.211.457.211.691.516.926.047.035.105.059.152.082 1.676.832 3.434 1.348 5.074 1.359v.012zm8.566-16.652c1.242 0 2.309-1.078 2.168-2.215-.059-.457-.176-.914-.258-1.371-.07-.375-.293-.551-.656-.645-.961-.223-1.781-.094-2.625.516-1.031.75-1.242.984-.715 2.121.563 1.23 1.055 1.688 2.098 1.582l-.012.012zm-7.957 19.231c.516-.187 1.078-.305 1.547-.574.164-.094.176-.527.176-.809 0-.059-.434-.199-.621-.141-.75.246-1.477.234-2.227 0-.187-.059-.562.023-.621.141-.082.176-.012.504.117.668.398.48.949.656 1.617.703l.012.012z" fill="#fefefe"/><path d="M72.727 113.086c-1.687-.082-3.106-.68-4.336-1.758l-1.512-1.371c-.234-.188-.574-.34-.879-.363-1.371-.129-2.625.082-3.844.867-.984.633-2.121 1.113-3.258 1.418-.855.234-1.816.14-2.719.105-1.992-.07-2.953-1.593-4.008-2.976l-1.195-1.582c-.293-.352-.68-.469-1.16-.563-1.418-.293-2.52.317-3.668.961s-2.355 1.207-3.574 1.723c-1.254.527-3.422-.176-4.23-1.278l-1.09-1.441c-.422-.551-.469-1.16-.082-1.406 1.148-.762 1.605-.75 2.074.058.609 1.055 1.488 1.735 2.695 1.934.176.023.398.035.551-.047l3.797-1.922c1.324-.679 2.684-.902 4.207-.855 1.641.058 2.168 1.242 2.988 2.191.668.762 1.219 1.641 1.98 2.285 1.066.903 2.391 1.032 3.68.516l4.125-1.898c1.312-.54 2.73-.34 4.102-.27.34.012.715.305.984.551.891.844 1.711 1.781 2.883 2.261.609.247 1.254.411 1.899.528.938.176 1.605-.504 2.367-.856.961-.445 1.734-1.148 2.461-1.933 1.383-1.477 3.012-2.649 4.898-3.422.481-.188 1.008-.27 1.524-.328.129-.012.387.234.422.386.223 1.243 0 1.465-1.231 1.864-1.676.539-2.965 1.664-4.195 2.871-.68.668-1.383 1.312-2.156 1.84-.832.562-1.746 1.031-2.672 1.441-.574.258-1.219.317-1.84.469h.012z" fill="#fdfdfe"/><path d="M55.031 84.797l2.074.973c2.168.938 4.418 1.149 6.738.832l1.84-.234c.293-.035.48.023.516.375l.586 4.723.387 2.227s-.094.047-.117.105c-.492 1.219-1.687 1.242-2.684 1.523-.984.269-2.016.48-3.023.504-1.395.023-2.801-.023-4.113-.633l-2.906-1.465c-.129-.07-.246-.352-.223-.527l.598-5.309.305-3.094h.023zm27.633-24.012l.703-4.711c.504.023 1.043 0 1.547.105.211.047.41.328.527.551.293.598.563.785 1.137.656.387-.082.855-.727.844-1.148-.047-1.453-.633-2.273-2.027-2.508-.609-.106-1.277.129-1.934.211l.223-2.285c0-.07.047-.152.094-.199.563-.504 2.297-.703 3-.375 1.055.492 1.277 1.488 1.324 2.438.082 1.816.211 3.668-.445 5.438l-.691 1.793c-.445.926-1.723 1.313-2.648.855l-1.652-.832v.012zm-44.93-4.746l.234 2.238.293 2.719c.012.141-.152.316-.27.445-.07.07-.223.094-.328.082-1.289-.176-2.508-.598-3.234-1.723-.832-1.289-1.266-2.742-1.16-4.324.07-1.137-.117-2.297.34-3.41.422-1.02 1.066-1.477 2.109-1.289 1.109.195 1.664.863 1.664 2.004 0 .234.047.48-.012.703-.047.176-.176.375-.328.469l-1.418.797c-.691.422-.996 1.301-.691 2.027.105.258.387.621.574.621.34-.012.691-.246 1.008-.434.129-.082.223-.281.27-.445.141-.457.48-.504.961-.457l-.012-.023z" fill="#fefefe"/><path d="M40.313 20.965c1.629-.832 3.855-.551 5.027.551l-5.027-.551z" fill="#fcfcfd"/><path d="M86.086 107.027l.75.739-1.559.492.809-1.219v-.012z" fill="#fdfdfd"/><path d="M36.633 25.102l.363-1.301.422.445-.633.891c-.047 0-.106-.023-.152-.023v-.012z" fill="#f7f7f9"/><path d="M63.621 63.07l-1.582 1.254c-.164.117-.48.047-.715 0l-2.566-.457c-.973-.152-1.453-.68-1.453-1.652l-.012-2.695L57 54.809l.059-4.324.012-3.105c0-.375-.047-.574-.516-.645-2.227-.363-4.465-.187-6.691-.117h-6.059c-.187 0-.375-.293-.562-.445.199-.152.398-.422.609-.457l4.91-.574 2.895-.258 3.434-.105c.797.012 1.582.129 2.367.269.902.164 1.359.797 1.359 1.77l.012 7.676c0 .68.164 1.348.199 2.027l.047 2.789v2.402c0 .141.223.363.375.387l3.152.469c.398.047.773.059.996.504h.023z" fill="#bbc2cc"/><path d="M65.379 44.461l6.106.199 4.898.551c.316.035.586.164.457.492-.07.164-.398.316-.609.316l-5.344.117-5.133.152c-.445.012-.879.105-1.324.164-.187.023-.387.082-.574.059-.48-.07-.949-.258-1.043-.785-.094-.551.375-.797.797-.937.563-.187 1.16-.293 1.746-.434v.105h.023zM52.407 54.726c-1.594.152-1.91-.844-2.355-2.016-.082-.223-.117-.445-.187-.668-.176-.586-.047-.82.504-1.09.293-.141.516-.445.82-.527.539-.152 1.102-.234 1.652-.258.773-.035 1.441.621 1.523 1.394a2.37 2.37 0 0 0 .07.398c.457 1.605-.387 2.754-2.039 2.766h.012z" fill="#bbc2cd"/><path d="M60.27 71.145c-1.641-.023-3.398-.527-5.074-1.359-.047-.023-.105-.047-.152-.082-.293-.246-.727-.48-.516-.926.223-.469.645-.258 1.02-.152 1.055.293 2.109.68 3.188.844 2.402.352 4.746.188 6.855-1.23.27-.187.574-.281.82.059.246.352.082.598-.199.844-1.641 1.418-3.574 1.992-5.941 2.016v-.012z" fill="#bcc2cd"/><path d="M68.836 54.492c-1.043.105-1.535-.363-2.098-1.582-.527-1.137-.328-1.371.715-2.121.844-.609 1.664-.738 2.625-.516.363.082.586.27.656.645l.258 1.371c.152 1.137-.914 2.215-2.168 2.215l.012-.012z" fill="#bbc2cd"/><path d="M60.879 73.723c-.668-.058-1.219-.223-1.617-.703-.129-.164-.199-.492-.117-.668.059-.129.434-.199.621-.141.75.234 1.477.246 2.227 0 .176-.059.621.082.621.141 0 .281 0 .715-.176.808-.469.27-1.031.398-1.547.574l-.012-.012z" fill="#bdc3ce"/></svg>