<svg xmlns="http://www.w3.org/2000/svg" width="175" height="120" fill="none"><path d="M150.133 73.382c-2.048-3.079-4.743-5.44-7.665-7.679-2.958-2.257-5.985-4.408-8.995-6.612-3.08-2.257-6.143-4.566-9.363-6.63-3.202-2.064-6.58-3.831-9.975-5.545-3.325-1.662-6.877-3.796-10.657-3.778-.823-.997-2.223-1.347-3.448-.84-1.312.56-2.17 2.082-1.715 3.516.682 2.204 1.838 4.111 3.325 5.755-7.612-2.222-15.575-3.149-23.467-3.778-1.838-.14-3.745-.437-5.583-.367-2.625.105-5.145 1.679-5.162 4.583 0 2.694 2.065 4.338 4.287 5.37l5.968 2.729 6.597 3.009c.665.315 1.348.665 2.047.927-.157.122-.315.262-.472.402-1.155 1.067-1.907 2.589-2.31 4.076-.367 1.329-.63 2.851-.56 4.233.14 2.484 1.82 3.901 3.955 4.811.332.14.665.28.998.402-1.19 1.049-2.013 2.466-1.855 4.181.123 1.277.822 2.257 1.802 2.694a4.11 4.11 0 0 0 .438 2.152c1.015 2.047 2.853 2.501 4.778 2.379-.035.315-.052.647-.035.98.105 1.819.962 3.359 2.135 4.706 1.925 2.204 4.672 3.953 7.368 5.038 1.347.543 2.817.857 4.27.857 1.802 0 4.025-.437 5.04-2.081.315-.525.507-1.085.542-1.679 2.258.332 4.515.437 6.79.42 2.59.682 5.25 1.102 7.893 1.452a184.04 184.04 0 0 0 5.337.577c.928.087 1.89.262 2.8 0 1.523-.455 2.66-1.854 2.678-3.464 0-.997-.333-1.767-.63-2.694l-.158-.577c0-.07-.017-.122-.035-.192v-.052c0-.455-.017-.892 0-1.347v-.122c.053-.297.105-.595.193-.91.087-.402.21-.805.332-1.207.018-.07.053-.157.07-.227a143.63 143.63 0 0 0 3.955-5.318c.368-.14.735-.315 1.103-.507 2.065-1.155 3.43-3.114 4.48-5.178.595.088 1.225-.035 1.785-.385 1.295-.822 1.995-2.676 1.067-4.076h.053zm-20.003 12.07l.753.28-.788.665c0-.315 0-.63.018-.945h.017zM95.218 56.099c-.14-.053-.262-.087-.402-.14l.507.105c-.035 0-.07 0-.105.017v.017zm17.762 32.501c-.577-.367-1.137-.735-1.68-1.154.053.035-.507-.42-.612-.507l-.42-.367c.175-.192.332-.42.455-.665.542-.088 1.085-.367 1.522-.84.333-.367.665-.717 1.033-1.05.63.228 1.33.262 1.96.105l.315 1.749c.385 2.099 3.605 2.974 4.97 1.312.035-.052.07-.087.105-.122v.77c0 1.837 1.767 3.131 3.412 2.939 0 .245 0 .49-.017.735l-2.048.088a67.02 67.02 0 0 1-1.907.07c-2.52-.735-4.935-1.714-7.088-3.044v-.017zM78.278 53.738c-.017.035-.035.053-.07.087-.088-.035-.157-.07-.245-.105.105 0 .192 0 .297.017h.017zm22.137 38.082c-.385-.332-.752-.7-1.085-1.102l-.035-.035c-.017-.035-.035-.087-.07-.14-.017-.035-.123-.28-.192-.402v-.087V90c0-.035.035-.088.035-.123 0 0 .035-.052.07-.122.123-.21.263-.437.403-.647s.297-.42.455-.63a2.97 2.97 0 0 0 .263-.35l.262-.315 1.698-.402c.455.35.997.595 1.557.665.105.175.228.35.35.525-1.032.017-2.047.507-2.555 1.452-.402.77-.507 1.714-.21 2.536-.035-.017-.052-.035-.087-.07-.053-.035-.245-.192-.315-.245-.175-.14-.368-.297-.525-.455h-.018z" fill="#fff"/><path d="M132.51 97.119l2.24-6.98 1.663-5.09c.472-1.557 1.487-2.729 2.52-3.936l1.925-2.362 2.975-3.289c.927-.91 1.995-1.644 2.957-2.501 2.118-1.889 4.48-1.662 6.878-.805l4.777 1.872c3.29 1.312 6.335 3.079 9.275 5.02.945.63 1.943 1.189 2.87 1.837.298.21.525.595.63.962.455 1.592.245 3.096-.227 4.706-1.085 3.621-3.028 6.612-5.723 9.254-1.767 1.714-3.64 3.359-4.865 5.581-1.05 1.906-1.33 3.918-1.12 6.07.158 1.521.245 3.061.263 4.6 0 1.172-.858 1.872-1.96 1.487-3.168-1.085-6.335-2.152-9.433-3.429-3.517-1.451-6.877-3.306-10.587-4.303-1.698-.455-2.958-1.592-3.973-2.991-.647-.91-1.417-1.697-2.52-1.994-1.837-.49-3.692-1.015-5.565-1.277-1.19-.157-2.467.297-3.675.192-2.03-.175-4.06-.56-6.09-.875-.945-.157-1.872-.385-2.817-.577-.508-.105-1.033-.157-1.523-.297-.595-.175-.84.017-1.015.595-.385 1.242-.787 2.466-1.26 3.673-.297.735-1.592 1.225-2.502 1.015-1.19-.28-2.415-.49-3.588-.857-1.767-.543-3.482-1.19-5.232-1.802-.805-.298-1.61-.63-2.415-.962-1.12-.472-1.96-1.102-2.187-2.466-.297-1.854-.805-3.656-1.207-5.493-.14-.647.438-1.12 1.155-.91.787.227 1.085.84 1.347 1.557.49 1.294 1.067 2.554 1.662 3.796.14.28.472.542.77.63l7.49 2.239c.227.07.455.07.682.088.753.07 1.138-.192 1.26-1.015.088-.665.368-1.347.718-1.924.367-.595.105-.7-.35-.962-.753-.42-1.523-.84-2.17-1.417-.683-.612-.805-1.627-.455-2.222.507-.84 1.452-1.364 2.38-1.014 1.172.455 2.362 1.014 3.377 1.732 1.558 1.102 2.923 2.292 5.058 2.327 1.557 0 3.097.787 4.672.98a20.49 20.49 0 0 0 4.393.035c2.152-.227 4.165.227 6.177.822.805.227 1.593.49 2.275.7l.07-.017zm29.26-10.233c1.575-.035 2.573-1.085 2.363-2.187-.228-1.102-.49-2.204-1.838-2.536-.385-.088-.717-.367-1.085-.56-2.922-1.557-5.81-3.149-8.977-4.216-1.715-.577-2.8.192-3.973 1.05a1 1 0 0 0-.315.682c-.035.682.805 1.872 1.488 2.099 1.225.42 2.52.7 3.692 1.242 2.135.997 4.183 2.134 6.283 3.201l2.38 1.207-.018.017z" fill="#030303"/><path d="M77.805 60.333l-7.63-1.872-4.06-1.015c-.507-.122-1.12-1.347-1.172-2.169l-.227-3.621c.017-1.329.105-2.659.385-3.953.123-.56.718-1.12 1.243-1.469 1.54-.997 3.237-1.015 5.04-.7 3.377.612 6.79 1.05 10.185 1.557.858.122 1.733.192 2.59.402 1.347.315 2.66.752 4.007 1.084 1.4.35 2.8.612 4.2.945 1.155.262 2.293.577 3.465.875l.438-4.146.438-3.516c.07-.682.157-1.365.157-2.047.052-2.466 2.537-4.321 4.83-3.009 1.4.805 2.73 1.802 4.182 2.467 1.838.84 3.815 1.364 5.67 2.152 2.24.945 4.463 1.942 6.598 3.061 4.042 2.117 8.05 4.303 12.005 6.56 1.102.63 2.065 1.609 2.957 2.554l7.84 8.397c.35.385.578.892.928 1.277.822.892 1.68 1.749 2.537 2.606.998 1.015 2.135 1.959 2.188 3.516 0 .385-.263.945-.56 1.102-.35.175-1.155.192-1.313-.035-1.12-1.522-2.87-2.274-4.165-3.534-2.835-2.746-5.652-5.528-8.33-8.449-2.66-2.921-5.897-4.933-9.345-6.717l-10.552-5.615c-1.103-.56-2.31-.945-3.5-1.33-2.485-.805-4.97-1.574-7.088-3.149-.14-.105-.297-.157-.542-.28-.228 1.19-.473 2.327-.63 3.481-.158 1.277-.14 2.589-.35 3.848-.193 1.067.35 1.487 1.172 1.889l9.468 4.653c.525.262.98.612 1.505.892 1.89.98 2.327 2.641 2.047 4.548-.262 1.872 0 3.674.42 5.475.56 2.501 1.54 4.828 3.168 6.805.56.7 1.312 1.294 2.082 1.749.875.525 1.348 1.12 1.19 1.994-.157.927-.787 1.487-1.837 1.504-1.628 0-2.975-.682-4.025-1.907-2.625-3.044-4.235-6.56-4.953-10.531-.35-1.924-.525-3.831-.28-5.773.035-.227-.262-.63-.507-.752l-7.403-3.708c-1.435-.7-2.87-1.382-4.34-1.994-.63-.262-1.347-.35-2.013-.507l-9.467-2.239c-1.715-.437-3.5-.35-5.215-.682-2.187-.42-4.358-1.015-6.545-1.434-1.733-.332-3.483-.577-5.25-.752-.91-.087-1.68.945-1.47 2.029.245 1.224.63 2.414 1.05 3.586.088.245.525.455.823.507l13.352 2.257c.858.157 1.698.437 2.52.7l6.86 2.239c.945.332 1.837.84 1.925 2.029.105 1.207-.718 1.907-1.575 2.432-1.312.787-2.73 1.434-4.112 2.134-2.118 1.085-4.078 2.362-5.618 4.198-.14.157-.157.595-.035.77.805 1.207 1.698 2.344 2.485 3.551 1.155 1.784 2.713 1.854 4.585 1.399 2.958-.735 5.968-1.329 8.96-1.959.472-.105.77-.245.84-.805.105-.91.315-1.819.49-2.729.123-.595-.175-.735-.682-.647l-5.162.805c-.945.122-1.942.227-2.853.035-.49-.105-1.05-.77-1.242-1.294-.14-.367.28-.962.507-1.434.088-.175.368-.28.56-.42l1.61-.105c.228 0 .455-.035.683-.052l2.293-.665.332-.052 4.795-.525c.158.035.333.052.49.088l1.243.525 1.417 1.417.368 1.05c0 .175 0 .35-.018.525v.35.525l-.28 1.067c0 .227-.035.455-.052.682l-.648 3.166c-.052.087-.105.175-.14.245-.087.21-.157.42-.245.612-.035.035-.07.07-.087.105-.105.123-.21.262-.315.385l-1.208.77-2.642.332c-.105 0-.21.017-.332.035l-4.918 1.154c-.105.035-.21.052-.315.088l-3.71.805c-.105 0-.228 0-.333.017-1.645.175-3.237-.14-4.777-.7-1.995-1.329-3.255-3.324-4.725-5.125l-.297-.402c0-.052-.035-.087-.07-.122-.088-.14-.175-.28-.245-.437 0-.053-.017-.088-.052-.105-.088-.297-.123-.612-.263-.892-.525-.997-.595-2.064-.455-3.166.07-.105.123-.227.192-.332l.157-.367c.053-.017.07-.053.088-.105l.525-.525.525-.525 2.765-2.484c.123-.105.263-.21.385-.315.052 0 .087-.035.122-.07.14-.087.28-.175.438-.262.088-.087.193-.157.28-.245.14-.105.28-.192.403-.297.052 0 .088-.017.105-.07.14-.087.28-.192.42-.28.087-.052.175-.087.262-.14l.473-.157c.14-.105.297-.192.42-.315.262-.245.507-.507.77-.77l-.858-.647-1.103-.262h-.7l-2.118-.63-.42-.158c-1.295-.49-2.572-.945-3.99-.665l-.088.157z" fill="#060707"/><path d="M43.26 87.446c4.55.56 8.785-.647 12.95-2.239.21-.088.438-.123.665-.175-.175.14-.315.332-.525.42-2.607 1.119-5.197 2.309-7.857 3.306-.823.315-1.838.122-2.748.245-2.047.262-4.095.472-6.125.857-2.013.385-3.99.28-5.968-.14-6.16-1.277-11.707-3.953-16.66-7.732-2.082-1.592-3.675-3.796-5.495-5.72-3.22-3.394-5.425-7.452-7.683-11.493-1.522-2.711-2.03-5.615-2.1-8.624-.07-3.324.052-6.647.087-9.953 0-.21-.122-.437-.14-.647-.052-.577-.105-1.172-.07-1.749.018-.507.088-1.05.262-1.522.315-.857.648-1.732 1.103-2.537L8.61 29.72c.088-.157.227-.315.21-.472-.07-1.137.735-1.679 1.47-2.309 1.155-1.015 2.275-2.082 3.413-3.114.385-.332.805-.63 1.207-.945-.683 1.049-1.277 2.152-2.048 3.114-3.535 4.356-5.215 9.446-6.16 14.851-.07.367-.158.717-.228 1.085-.14.227-.333.455-.402.7-.28 1.032-.613 2.064-.77 3.114-.595 3.814-.42 7.662-.263 11.493 0 .28.14.56.21.84.805 3.079 2.083 5.948 3.64 8.694.56.98 1.33 1.854 1.768 2.886 1.172 2.764 3.237 4.793 5.32 6.805 1.12 1.085 2.38 2.047 3.623 3.009 2.887 2.239 5.827 4.391 9.345 5.633 1.925.682 3.85 1.26 5.897 1.382l7.07.892c.455.052.91 0 1.365 0l-.017.07z" fill="#040404"/><path d="M91.158 90.122l-3.465-.647c-1.015-.227-1.697-.962-2.047-1.889-.507-1.312-.91-2.676-1.295-4.041-.087-.35.053-.805.193-1.172.192-.507.962-.665 1.418-.245.367.332.647.805.892 1.242l1.47 2.641c.21.315.7.577 1.067.595 1.243.035 2.502.105 3.692-.14 1.225-.262 2.363-.91 3.535-1.364L99.733 84c.402-.157.752-.42 1.172-.542.928-.28 1.855-.647 2.8-.717.805-.053 1.54.822 1.628 1.574.087.875-.438 1.784-1.243 2.099l-7.525 2.851c-1.75.7-3.535.84-5.425.875l.017-.017z" fill="#080808"/><path d="M131.092 18.018c-.35.49-.612 1.277-1.102 1.469-1.82.665-3.08 2.047-4.48 3.236l-6.808 5.983c-.42.367-.875.682-1.347.98s-.945.28-1.33-.175c-.403-.472-.245-.945.14-1.329l7.805-8.204c1.172-1.19 2.52-2.239 3.832-3.289 1.033-.805 2.135-.7 2.765.192.193.262.28.612.508 1.137h.017z" fill="#070707"/><path d="M113.4 13.522c-.087.21-.21.665-.49 1.032-2.677 3.656-4.935 7.539-6.335 11.878-.07.192-.122.385-.227.577-.28.542-.683.875-1.33.647-.63-.21-.875-.735-.718-1.329.35-1.364.735-2.746 1.19-4.076 1.103-3.166 2.608-6.14 4.393-8.956.367-.595 1.032-1.12 1.68-1.399.91-.385 1.855.42 1.82 1.644l.017-.018z" fill="#090909"/><path d="M92.19 20.746l.788-6.822c.21-1.487.858-2.134 1.942-2.187.84-.035 1.698.63 2.047 1.592.297.84.035 1.452-.665 1.959-.21.157-.42.42-.472.682l-1.347 6.997c-.192 1.242-.525 1.872-1.295 1.819-.647-.052-.945-.682-.927-1.872v-2.169h-.07z" fill="#0a0a0a"/><path d="M133.63 32.064c.227.192.805.455.962.875s0 1.085-.245 1.487c-.332.49-.857.91-1.4 1.137-.402.175-1.067.157-1.435-.087-.332-.21-.542-.805-.542-1.242-.018-.735 1.627-2.169 2.66-2.187v.017z" fill="#0c0c0c"/><g fill="#aeb1b7"><path d="M84.857 80.187c1.54.56 3.115.875 4.778.7-.385.105-.788.315-1.172.297-1.26-.07-2.555-.087-3.588-.997h-.017zm9.118-.228l4.917-1.154-3.097.927c-.595.157-1.225.157-1.838.227h.018zm7.385-13.067l-4.795.525c1.54-.717 3.115-1.032 4.795-.525zm-23.555-6.56c1.418-.28 2.713.175 3.99.665l-1.575-.227c-.28-.017-.56.07-.84.123l-1.575-.56zm.91 9.621c-.123 1.102-.07 2.152.455 3.166.14.262.175.595.263.892-.892-1.102-1.138-2.396-.998-3.761 0-.105.175-.192.28-.28v-.017zm24.763 7.208l.245-.612-.245.612z"/><path d="M79.503 74.117l.245.437-.245-.437zm4.392-9.167l-.437.262.438-.262zm.682-.542l-.402.297.402-.297z"/></g><path d="M34.825 86.536c-2.047-.14-3.972-.717-5.898-1.382-3.517-1.242-6.457-3.393-9.345-5.633-1.242-.962-2.503-1.907-3.623-3.009-2.082-2.012-4.148-4.041-5.32-6.805-.437-1.032-1.207-1.907-1.767-2.886-1.575-2.746-2.853-5.633-3.64-8.694-.07-.28-.192-.56-.21-.84-.157-3.831-.332-7.679.263-11.493.157-1.05.49-2.082.77-3.114.07-.245.263-.472.402-.7l-.14 4.95c0 1.417.14 2.834.192 4.251.018.507-.035 1.032 0 1.539.123 1.172.123 2.396.455 3.516.945 3.306 1.803 6.665 3.097 9.848 2.573 6.28 6.65 11.353 12.828 14.519 2.485 1.277 4.9 2.694 7.385 3.918 1.453.717 3.028 1.19 4.533 1.767v.262l.017-.017z" fill="#f6f7fa"/><path d="M34.825 86.536v-.262l7.892.84c.193.017.367.21.542.332h-1.365l-7.07-.892v-.017z" fill="#e2e7ef"/><path d="M161.77 86.886l-2.38-1.207-6.282-3.201c-1.173-.542-2.468-.822-3.693-1.242-.665-.227-1.522-1.417-1.487-2.099 0-.245.14-.56.315-.682 1.19-.857 2.257-1.627 3.972-1.049 3.168 1.067 6.055 2.659 8.978 4.216.367.192.7.472 1.085.56 1.347.332 1.627 1.434 1.837 2.536.228 1.102-.787 2.152-2.362 2.187l.017-.017z" fill="#f8f8f8"/><g fill="#196ffd"><path fill-rule="evenodd" d="M52.714 28.825c.84-.539 1.892-.773 2.98-.535.894.196 1.494.678 1.791.952a5.05 5.05 0 0 1 .698.809c.223.318.552.896.475.77l1.421 2.505c.789 1.493 1.387 3.064 1.775 4.698a3.27 3.27 0 0 1 1.502.382 3.28 3.28 0 0 1 1.365 4.433l-.902 1.716-2.939 5.43-.722 1.134c-.116.158-.283.371-.494.582l-.002.002c-.133.133-.637.636-1.453.891-.482.151-1.213.256-2.033-.01-.84-.273-1.399-.815-1.728-1.299a3.49 3.49 0 0 1-.588-1.754v-.008l-.004-.364-.096-.08c-.074-.063-.155-.139-.24-.228-.279.18-.562.306-.842.391-.526.345-1.145.534-1.78.539-.914 1.471-2.831 1.985-4.367 1.14-.662-.364-1.149-.923-1.428-1.566l-2.832 3.118c-2.293 2.619-4.366 5.464-6.354 8.445-1.005 1.507-3.042 1.914-4.55.91a3.28 3.28 0 0 1-.91-4.548c2.081-3.12 4.329-6.218 6.876-9.127 3.964-4.528 8.246-8.718 12.642-12.702l.046-.453a20.71 20.71 0 0 1 .323-2.086c.148-.687.408-1.676.918-2.541.26-.441.712-1.069 1.454-1.545zm7.685 20.72s.001-.01.005-.034c-.002.022-.005.034-.005.034z"/><path d="M14.892 22.933l4.27-3.009c.543-.402 1.033-.945 1.418-1.504.998-1.399 2.52-2.029 3.973-2.711l7.77-3.306c.875-.35 1.855-.647 2.765-.595 1.785.087 3.413-.595 5.11-.805 1.89-.227 3.833-.227 5.74-.123.945.053 1.855.63 2.8.91l9.153 2.554a13.38 13.38 0 0 1 2.957 1.277l7.227 4.408c.648.42 1.208 1.015 1.785 1.522l3.955 3.551c.192.175.49.367.49.577.14 1.819 1.435 3.096 2.188 4.601l4.55 8.327c.648 1.347 1.225 2.939.508 4.548-.07.175-.053.402-.035.595l.035 3.324-10.185-1.557c-1.803-.315-3.483-.315-5.04.7-.525.332-1.12.91-1.242 1.469-.28 1.277-.368 2.624-.385 3.953-.017 1.207.157 2.414.228 3.621.052.822.665 2.029 1.172 2.169l4.06 1.015 7.63 1.872 1.575.56.752.35c-1.54 2.641-2.817 5.405-4.62 7.767-2.642 3.481-5.495 6.875-8.593 9.953-1.75 1.749-4.165 2.834-6.317 4.163-1.19.735-2.485 1.294-3.745 1.942-.227.052-.437.087-.665.175-4.165 1.592-8.417 2.799-12.95 2.239-.175-.105-.35-.297-.543-.332l-7.892-.84c-1.523-.577-3.08-1.05-4.532-1.767-2.503-1.225-4.917-2.642-7.385-3.918-6.177-3.166-10.255-8.239-12.827-14.519-1.295-3.166-2.152-6.542-3.097-9.848-.315-1.119-.333-2.326-.455-3.516-.053-.507 0-1.032 0-1.539-.07-1.417-.192-2.834-.192-4.251 0-1.644.087-3.306.14-4.95.07-.367.175-.717.228-1.085.945-5.405 2.643-10.496 6.16-14.851.77-.962 1.365-2.064 2.048-3.114h.018zm39.883 8.641c-.56 0-1.295-.245-1.663 0-.857.612-1.837 1.12-2.345 2.187-.858 1.802-1.855 3.551-2.817 5.318l-1.96 3.604c-1.908 3.621-3.588 7.382-6.248 10.548-2.87-2.117-5.723-4.251-7.962-7.294l-1.47.77c-.315-.105-.665-.332-.962-.297-1.47.227-2.59 1.085-3.43 2.239-.7.98-1.453 1.854-2.485 2.502-.928.577-1.05 1.19-.823 2.239.35 1.592 1.348 2.711 2.345 3.901 2.135 2.554 4.34 5.02 7.315 6.647.56.315 1.068.717 1.61 1.05 1.627 1.032 3.22 2.099 4.883 3.044 1.47.84 3.325.175 3.762-1.224 1.278.367 2.45-.035 3.185-1.085.402-.577.788-1.154 1.225-1.714l13.037-17.09 2.59-3.481c.542-.752.508-1.977-.14-2.606-2.608-2.519-4.638-5.44-6.248-8.676-.315-.647-.718-.857-1.383-.612l-.017.035z"/><path d="M48.057 29.048c.265.073.538.173.781.267l4.922 2.123 1.123.252c.719.155 1.331.534 1.78 1.049l.817.348c1.815.769 3.976 1.683 5.867 2.904.512.33.925.684 1.213.939l.259.23.391.336.021.016c.228.178 1.328 1.037 1.486 2.595.141 1.388-.588 2.425-.734 2.631l-.017.024c-1.366 2-3.044 3.957-4.563 5.729l-1.776 2.101-.26.317-1.293 1.608c-.254 2.579-.934 5.274-3.033 7.796-2.029 2.437-4.519 4.536-6.691 6.366l-.833.703-1.327 1.142-3.597 3.003c-.481.373-1.393.952-2.622.934-1.465-.02-2.486-.853-3.026-1.646-.466-.686-.633-1.393-.705-1.822l-.066-.555a4.86 4.86 0 0 1-.604.441l-.004.002c-.207.126-1.762 1.07-3.502.072-.745-.427-1.13-1.021-1.303-1.339a3.83 3.83 0 0 1-.306-.749l-.136-.562-.005-.021c-.139-.635-.272-1.76-.342-2.369-.915.22-2.331.267-3.561-.951-.526-.521-.811-1.108-.971-1.598-.212-.079-.425-.183-.637-.315-.961-.603-1.332-1.484-1.46-1.826l-.082-.242c-.438.155-1.061.274-1.795.119-1.63-.345-2.283-1.643-2.474-2.261-.176-.569-.154-1.047-.145-1.208.033-.581.224-1.129.277-1.281l.007-.019c.169-.491.427-1.098.624-1.479.9-1.749 1.708-2.988 2.8-4.512l.929-1.234c.343-.431.927-1.143 1.526-1.633 1.127-.923 2.383-.887 3.086-.745.649.131 1.157.404 1.394.537l.472.289c.736.219 1.342.18 2.154-.145l.02-.01c.093-.048.458-.239.928-.349.45-.105 1.806-.317 3.021.721 1.117.953 1.204 2.211 1.214 2.617.011.458-.064.919-.098 1.128l-.023.133.36-.32 3.658-3.266.627-.564c1.347-1.211 3.422-1.102 4.634.245a3.27 3.27 0 0 1 .822 2.557l1.98-1.959a18.74 18.74 0 0 1 2.159-1.877l.62-.455.17-.166c.14-.131.555-.511 1.187-.763.779-.311 1.84-.399 2.878.131a3.59 3.59 0 0 1 .647.423l2.145-2.571c-1.165-.665-2.418-1.198-3.853-1.809l-1.668-.718-1.941-.871c-1.569-.393-3.215-.907-4.843-1.699-.248-.12-.962-.547-1.4-.856a5.11 5.11 0 0 1-.562-.453l-.005-.004c-.079-.075-.391-.369-.647-.826a3.32 3.32 0 0 1-.426-1.611c-.004-1.025.472-2.025 1.338-2.665a3.32 3.32 0 0 1 1.632-.631 3.45 3.45 0 0 1 .724.002c.287.031.523.092.642.125zm1.071.69zm11.42 9.325l-.003.004.003-.004zM31.935 63.435l-.017.014.017-.014zm6.653 2.899l-.01.007zM51.92 44.135a.57.57 0 0 1 .009-.01l-.009.01zm-21.755 1.548s-.012-.006-.041-.025l.041.025z" fill-rule="evenodd"/></g><path fill-rule="evenodd" d="M39.672 32.394c-.462-.248-.99-.389-1.55-.389a3.28 3.28 0 0 0-3.281 3.28l-.039 2.37-.019 4.601.038 3.116c-.657.078-1.219.132-1.941.118l-1.121-.021-5.599-.072a3.28 3.28 0 0 0-3.281 3.28c0 .467.097.91.273 1.312-.25.463-.393.994-.393 1.557a3.28 3.28 0 0 0 3.281 3.28c.669 0 1.32.072 2.183.167l.489.053c2.322.25 4.612.172 6.699.084l.095.803c.075.771.081 1.569.088 2.544v.029l.127 3.111.017.173.167 1.404c.084.52.285 1.652.922 2.606.894 1.34 2.603 1.811 4.031 1.193a3.27 3.27 0 0 0 1.404.071 3.28 3.28 0 0 0 2.697-3.774c-.044-.262-.064-.519-.066-.882l-.112-3.598-.001-.024-.108-3.378-.002-.279 1.376.001c1.655-.008 3.511-.066 5.381-.43 1.103-.214 1.945-.352 2.723-.352a3.28 3.28 0 0 0 3.171-4.124c.043-.211.065-.429.065-.652 0-.681-.208-1.314-.563-1.838l.01-.252a3.28 3.28 0 0 0-3.281-3.28c-1.849 0-3.905.075-5.865.334l-3.396.281-.012-.575-.392-8.989a3.28 3.28 0 0 0-3.553-2.983 3.3 3.3 0 0 0-.661.126z" fill="#000"/><path fill-rule="evenodd" d="M41.86 30.207a3.27 3.27 0 0 0-1.55-.389 3.28 3.28 0 0 0-3.281 3.28l-.039 2.37-.019 4.601.038 3.116c-.657.078-1.219.132-1.941.118l-1.121-.021-5.599-.072a3.28 3.28 0 0 0-3.281 3.28c0 .467.097.91.273 1.312-.25.463-.393.994-.393 1.557a3.28 3.28 0 0 0 3.281 3.28c.669 0 1.32.072 2.183.167l.489.053c2.322.25 4.612.172 6.699.084l.095.803c.075.771.081 1.569.088 2.544v.029l.127 3.111.017.173.167 1.404c.084.52.285 1.652.922 2.606.894 1.34 2.603 1.811 4.031 1.192a3.27 3.27 0 0 0 1.404.071 3.28 3.28 0 0 0 2.697-3.774c-.044-.262-.064-.519-.066-.882l-.112-3.598-.001-.024-.108-3.378-.002-.279 1.376.002c1.655-.008 3.511-.066 5.381-.43 1.103-.214 1.945-.352 2.723-.352a3.28 3.28 0 0 0 3.171-4.124c.043-.211.065-.429.065-.653 0-.681-.208-1.314-.563-1.838l.01-.252a3.28 3.28 0 0 0-3.281-3.28c-1.849 0-3.905.075-5.865.334l-3.396.281-.012-.575-.392-8.989a3.28 3.28 0 0 0-3.553-2.983c-.228.02-.449.063-.661.126z" fill="#fff"/></svg>