<svg width="292" height="292" viewBox="0 0 292 292" fill="none" xmlns="http://www.w3.org/2000/svg"><path d="M226.414 88c-.484 3.165-.627 6.416-1.596 9.41-.628 1.996-2.082 4.106-3.793 5.304-2.281 1.597-2.966 3.621-3.365 5.988l-4.021 23.126c-1.026 5.932-5.304 9.411-11.178 7.785-1.825-.485-3.878-.142-5.817-.142h-17.252-11.52v6.216h13.117l18.678.399c6.587.086 8.212 3.821 9.125 8.184 1.939 9.382 2.424 18.935 2.965 28.459l-2.481-1.683.029.029-2.082-1.74c.114-.057.571-.342.856-.513l-3.565-3.422-2.138-1.825c-.285-.456-.571-.884-.628-.969l6.046-3.451c-1.455-.941-1.455-1.197-.428-2.138.314-.285.542-.97.428-1.369-.257-.884-.713-1.682-1.112-2.538 1.226-1.625 1.112-5.561-.4-6.986-.57-.542-1.482-.827-2.281-1.084-.513-.171-1.112-.114-1.682-.171.37-.456.741-.884 1.197-1.426-.798-1.768-2.138-.77-3.393-.627-1.112.114-3.08.285-3.279-.171-1.027-2.338-3.194-2.823-5.076-3.108-1.911-.286-3.964.456-5.96.741.029.114.086.228.114.314l-2.908-1.198.57 2.367-3.679-1.825-4.049 6.701c-.399-.399-.684-.713-.741-.77l-5.219 3.108c.029.742.086 1.398.143 2.624l-2.224-2.795c-.599-1.369-.742-2.823-1.54-4.249-1.768-3.079-4.22-3.992-7.357-4.077-2.538-.057-5.076-.029-7.642 0l-22.87.37c-2.253.029-2.68.285-2.139 2.481.571 2.281 1.056 4.591 1.883 6.787.342.884 1.34 1.768 2.252 2.139 4.648 1.796 9.011 4.163 10.009 9.381.656 3.479 2.681 4.62 5.361 5.675.856.313 1.683.741 2.51 1.14 5.902 2.852 12.204 3.08 18.592 2.766.57.257 1.169.514 1.739.742-.028.142-.057.256-.085.399l-3.052.342-.456 3.707h-2.965c.285 1.711.713 3.223.713 4.734 0 .998-.913 2.196.712 2.595 1.369.342 2.367-.285 2.567-1.797 2.908-.37 1.597 3.878 4.22 3.878.143 0 .285.742.428 1.17.028.057 0 .142-.029.199l-3.65 4.534c-.399-.912.542-2.994-1.311-2.566-4.991 1.112-9.753-.114-14.429-1.226-5.703-1.369-11.121-3.707-16.055-7.044-.77-.513-2.167-.656-3.079-.342-6.644 2.082-12.433 1.141-17.195-4.277-.314-.371-.913-.742-1.369-.742l-11.178-.028c-.086.485-.228.912-.228 1.312l-.029 29.257c0 2.366 2.481 4.79 4.905 4.819 5.047.057 10.123-.371 15.113.142 4.392.457 8.726-.256 13.06.086 2.652.199 3.08-.257 3.137-2.909.171-5.874 0-5.988-5.931-6.074-1.797-.028-4.135.571-4.477-2.395 0-.057-.285-.085-.456-.114l.057.057c.484-.485.969-1.312 1.483-1.34 2.167-.171 4.362.057 6.501-.114 1.483-.143 2.994-.371 2.681-2.766-.286-2.167.057-4.42.313-6.644.029-.4.856-.97 1.34-.97.628 0 1.597.285 1.825.741.371.713.286 1.683.286 2.538l-.086 18.108c-.028 1.711.656 2.053 2.196 1.939 2.452-.171 4.961-.171 7.414-.114l9.98.313c1.512.029 4.734-2.737 4.905-4.163.228-1.91.314-3.821.485-5.731.028-.229.256-.457.399-.656.912.342 1.911.57 2.737 1.026 1.597.913 3.565 1.654 4.534 3.051.998 1.398 1.711 1.939 3.394 1.768 1.112-.114 2.509.143 2.196 1.911.598.057 1.226-.086 1.653.171l7.386 4.192c.827.428 1.825.513 2.367.656.656.741 1.083 1.597 1.739 1.882 1.255.57 1.797-.057 1.882-1.426.029-.485.742-.941 1.169-1.426-.199-.456-.399-.969-.627-1.511 3.308 2.538 6.559 4.505 10.979 2.281 0 .228-.029.456-.029.684-.428.257-.855.485-1.597.913l2.567 2.082c-1.597.313-3.194.827-4.82.912-4.79.228-9.552.228-14.343.428-.371.028-.969.998-.969 1.54l-.086 15.911c0 2.624-.228 5.247.057 7.842.086.941 1.169 2.167 2.082 2.538 3.65 1.511 5.959 4.334 7.899 7.528 2.053 3.422 1.967 3.479 1.682 8.27-1.198-.285-2.994.998-3.108-1.569-.371.029-.97-.057-1.055.114-.2.4-.171.941-.2 1.284h-36.471c-1.597-7.443 3.165-12.462 7.756-15.342 1.14-.713 2.367-1.369 3.593-1.91 1.397-.599 1.568-1.711 1.597-2.994l.057-12.063c0-.171.256-.513.256-.513-1.967-1.14-.142-2.167.114-3.251-.228-.77-2.423-.713-.598-2.509 1.425-1.397-.913-4.962-3.109-4.99-4.391-.057-8.754 0-13.145 0h-18.193v8.383l-8.355-3.906c-2.795-1.398-5.504-2.937-8.241-4.42l.028.028-.428-.085h-12.575c-5.931-.057-10.579-3.051-10.608-10.095l-.257-30.255c0-1.996-.684-2.566-2.481-2.481l-11.606.342c-1.597.057-2.224-.598-2.281-2.309-.114-3.878-.485-7.757-.741-11.635-.029-.37-.029-.713-.085-1.083-.228-1.996-.257-4.049-.713-6.017-.599-2.566-1.483-5.076-2.367-7.585-.884-2.567-1.91-5.076-2.909-7.585-.143-.343-.428-.713-.741-.856-10.037-4.477-17.851-11.349-23.098-21.073-.142-.257-.314-.485-.456-.741-11.663 1.568-17.423-6.103-18.564-12.861l1.996-.428-2.025-2.366c-.029.085 0-.428.171-.856 1.084-2.937 1.141-3.022-1.483-4.477-4.705-2.566-6.758-9.866-5.475-14.229.798-2.766 1.939-5.218 3.907-7.329.428-.456.627-1.54.371-2.082-1.882-4.22-3.935-8.355-5.846-12.575-.656-1.454-1.084-3.023-1.397-4.591-.314-1.682 1.112-1.882 2.224-1.882l22.328-.228c4.192-.057 8.355-.2 12.547-.456 2.11-.142 2.937.713 3.678 2.652 2.538 6.644 5.019 13.317 8.241 19.619 1.055 2.053 1.654 4.277 2.823 6.331 3.707 6.53 6.844 13.431 10.18 20.189 1.226 2.453.513 3.878-2.281 4.049-1.711.114-3.422-.313-5.161-.342-4.562-.057-9.125 0-13.716 0-1.597 0-1.711 1.084-1.255 2.025.941 1.91 1.939 3.878 3.308 5.475 4.22 4.99 9.353 8.897 14.999 12.205 4.534 2.651 9.382 2.11 14.201 2.081l19.903-.371c1.825-.028 3.65.2 5.447-.057 1.967-.285 2.908.599 3.507 2.225.685 1.796 1.255 3.65 2.11 5.361.371.712 1.369 1.539 2.111 1.568 6.187.143 12.404.085 18.62.085.998 0 1.369-.142 1.369-1.397 0-5.646.086-5.617-5.218-7.271l-19.334-6.188c-4.933-1.54-10.009-2.709-14.857-4.449-6.473-2.309-8.982-6.501-7.727-13.345l3.251-18.221 4.419-24.695c.457-2.481 1.512-4.819 2.025-7.3.399-2.082.513-4.249.513-6.387 0-1.739.457-2.766 2.994-2.623l-2.081-1.711c.513-2.053.798-4.42 1.711-6.559 1.853-4.477 5.703-6.245 10.294-6.473 2.851-.143 5.703-.171 8.526.029 2.595.2 5.475.542 7.728.057 4.078-.884 7.927.314 11.862-.057 4.05-.371 8.156-.029 12.234-.029l3.393 3.593c.171.2.428.513.599.485 2.053-.456 1.796 1.312 2.309 2.338l-17.85.428c-9.097 0-18.165-.114-27.261-.428-3.422-.114-6.074 2.738-6.53 5.389l-1.74 9.325-4.192 22.413c-.855 4.42-1.967 8.754-2.766 13.174-1.026 5.703-1.682 11.492-2.823 17.195-.627 3.165 2.082 8.127 5.846 7.813 1.654-.142 3.365-.028 5.019 0l14.856.314c6.131 0 12.234-.285 18.365-.314 3.906 0 7.813.343 11.691.371 4.591.029 7.129-1.112 8.64-6.53 1.169-4.249 2.053-8.555 3.08-12.861.684-2.937.399-5.988 1.967-8.839.856-1.568.229-3.878.542-5.789l3.65-20.075c.628-3.365 1.426-6.73 2.167-10.066l6.759 6.331c.399.371.342 1.198.541 1.996.428.086 1.369.057 1.911.485 3.365 2.681 6.616 5.475 9.895 8.241.314.285.399.827.599 1.255l-.599.257c.085.114.171.2.257.314.114-.2.199-.399.313-.57.998-.627 1.397.086 1.797.798-.713.485-1.483.913-2.082 1.483-4.734 4.505-5.503 9.98-3.85 16.026 1.341 4.876 3.993 8.697 9.097 10.18 3.222.941 7.414.57 9.153-2.623-10.009-.941-12.489-14.116-6.986-20.646l4.477.513-.371-2.481c1.882 2.623 3.394.884 4.934.485l1.825.77 3.792.342-.085.684c-.628-.057-1.255-.086-1.911-.142 1.739 1.026 4.448.884 4.078 3.365.542.97.884 1.454 1.14 1.996.371.656.599 1.312.884 1.968zM70.291 101.516c-1.141-1.796-2.31-3.593-3.365-5.446-.371-.656-.371-1.483-.684-2.196l-7.186-15.313c-1.141-2.538-1.968-5.218-3.108-7.785-.285-.627-1.112-1.34-1.739-1.369-1.996-.114-4.021.171-6.045.143-3.736-.057-7.471-.371-11.207-.285-2.709.057-5.39.57-8.07.884 1.34 2.538 2.909 5.218 4.22 8.041.741 1.597 1.454 2.595 3.422 2.395 1.055-.114 2.224.342 3.279.684 7.328 2.338 11.492 8.612 10.294 16.225-.428 2.737-.599 5.874-3.222 7.898-.627.485-.941 1.398-1.397 2.111.884.342 1.768.941 2.652.969l17.452.086H73.2c.143-2.339-2.852-3.65-1.283-5.789l-1.454-.998c.171-.2.371-.399.542-.599-.228.114-.456.228-.713.342zm7.414 41.975c1.34 3.223 2.652 6.046 3.736 8.983 2.167 5.931 4.363 11.891 3.621 18.421.171-.029.542-.114 1.141-.257-.228.599-.57 1.055-.456 1.312.77 1.682.798 3.422.656 5.218-.029.485 1.084 1.54 1.682 1.569l20.588.171c.428 0 .884-.086 1.882-.2-6.729-2.909-9.581-8.07-8.583-14.258 1.454-9.096 7.471-13.259 17.081-11.691l-2.167-6.758c-.57-1.825-1.654-2.538-3.679-2.538l-30.996.057-4.505-.029zm-41.49-55.235c-2.966-.085-6.102 2.966-6.131 6.017-.057 3.365 2.909 6.644 6.331 6.673 3.365.028 6.188-2.937 6.33-6.331s-2.823-6.245-6.53-6.359zm85.233 77.791c.029-3.964-2.11-6.359-5.646-6.387-3.735-.029-6.615 2.737-6.558 6.416.028 3.136 1.996 5.988 6.045 6.102 3.194.086 6.159-2.966 6.159-6.131zm7.158 4.648c-1.169 7.044-2.224 8.213-7.899 8.783-.029 2.395 2.937 4.848 5.903 4.62 4.106-.314 7.271-4.249 7.129-7.842-.114-3.251-2.139-5.561-5.133-5.561zm-88.912-61.708c-1.939 2.196-2.395 5.019-1.141 6.873 1.939 2.908 5.561 4.306 8.754 2.994 1.54-.656 3.479-1.426 3.821-3.85-2.709 0-5.19.342-7.557-.085-2.994-.542-2.452-3.993-3.878-5.932zm140.753 155.981c-5.133-5.475-11.064-4.848-14.856.998l11.007-.029c1.169-.057 2.281-.57 3.849-.969zm-30.255-80.3l-1.255 6.587c2.481 1.654 3.707 1.141 4.021-1.797.029-.228.029-.427.057-.655.656-2.909.143-3.65-2.823-4.135zm5.361 8.383c1.027.057 2.139.4 2.966.057 1.055-.399 1.397-4.049.541-5.646-.427-.77-1.368-1.254-2.309-2.081l-1.198 7.67zm-10.408-10.066l-2.624 5.818c1.968 1.454 2.88 1.397 3.907-.171 1.454-2.253.97-4.221-1.283-5.647zm31.11 67.811v2.366l5.875 1.255c.342-3.422.057-3.821-5.875-3.621zm-.085-2.966h5.56v-2.823h-5.703l.143 2.823zM59.113 133.882c3.793-2.31 3.964-2.881 1.968-5.903l-3.935 3.279 1.968 2.624zm4.734 5.503l2.88-4.99a65.64 65.64 0 0 1-1.483-2.11l-3.45 3.849 2.053 3.251zM181.93 241.956c-.941-1.112-1.483-2.339-2.338-2.624-1.141-.399-2.567-.114-3.85-.114-.114 3.337-.085 3.479 6.188 2.738zM53.296 125.926l1.625 2.88 3.878-2.795-1.54-2.68c-1.312.827-2.481 1.625-3.964 2.595zm103.312 16.254c.029-.114.057-.229.114-.343l-6.102-2.766-.371 3.109h6.359zm-87.229-6.103l-2.281 4.677 3.336 2.024c.2-.142.371-.285.57-.456-3.621-1.312.114-4.106-1.625-6.245zm106.762 100.005h4.335c-1.112-2.31-1.654-2.595-4.335-2.282v2.282zm-37.982-49.247c1.967-.399 4.134-3.393 3.821-4.648-.057-.228-.286-.599-.457-.599-.313-.028-.798.057-.912.257-.799 1.511-1.511 3.079-2.452 4.99z" fill="#020203"/><path d="M209.305 181.074l2.48 1.682.086 3.194c-2.053.456-1.312 1.882-.998 3.108l-1.882.114-.2.713 3.108 1.283.371 28.402c.143 3.821-2.139 5.532-4.534 7.471l-2.566-2.082 1.597-.912.028-.685c-4.391 2.225-7.671.229-10.978-2.281.228.514.427 1.055.627 1.512-.428.484-1.141.941-1.169 1.425-.086 1.369-.628 1.996-1.882 1.426-.656-.314-1.055-1.14-1.74-1.882-.541-.142-1.568-.228-2.366-.656-2.51-1.34-4.905-2.823-7.386-4.192-.428-.228-1.084-.114-1.654-.171.285-1.768-1.084-2.024-2.196-1.91-1.682.171-2.395-.371-3.393-1.768-.97-1.397-2.937-2.139-4.534-3.051-.827-.485-1.825-.713-2.737-1.027l-.257-9.039 3.65-4.534c.028-.057.057-.143.028-.2-.142-.399-.285-1.169-.427-1.169-2.624 0-1.312-4.249-4.221-3.878l-1.026-5.532.456-3.707 3.051-.342.086-.4c-.571-.256-1.169-.513-1.74-.741.057-1.483.314-2.966.143-4.391-.371-2.881.228-5.162 1.654-5.875-.571-.741-1.654-1.511-1.683-2.338-.085-2.196.485-4.448.371-6.644-.057-1.141-.485-2.167.456-3.108l2.225 2.794-.143-2.623 5.218-3.108c.057.057.343.342.742.769l4.049-6.701 3.678 1.825-.57-2.366 2.909 1.197c-.029-.114-.086-.228-.114-.314 1.996-.285 4.049-.998 5.959-.741 1.882.257 4.05.741 5.076 3.108.2.457 2.167.285 3.28.171 1.254-.142 2.566-1.14 3.393.628l-1.198 1.426c.571.057 1.169 0 1.683.171.798.256 1.682.541 2.281 1.083 1.511 1.426 1.625 5.361.399 6.987.399.855.884 1.682 1.112 2.537.114.4-.114 1.084-.428 1.369-1.055.941-1.055 1.198.428 2.139l-6.045 3.45.627.97-.969 1.311 2.908 2.595c.057-.77.143-1.425.2-2.081l3.564 3.422c-.285.171-.741.427-.855.513l2.082 1.739c-.086.086-.172.143-.257.228.085.029.142.058.228.086-.086-.2-.085-.314-.085-.399zm-8.441-4.734c-1.255-4.049-3.194-5.76-7.072-6.017-1.226-.085-2.852-.057-3.308 1.882 5.532.514 8.156 4.934 7.186 12.262 2.538-2.053 3.137-4.619 3.451-7.3.313-.057.627-.114 1.397-.228l-1.654-.599zm-30.854 16.454c3.137.228 3.536-.285 2.652-3.394-.171-.627-.285-1.254-.513-1.853-.856-2.196-1.996-2.595-4.078-1.711l1.939 6.958zm12.661-3.821c.57-.571 2.025-1.369 2.082-2.253.171-2.88-3.451-5.218-6.188-4.449l4.106 6.702zm-5.618 2.965c3.337-2.424 1.312-4.79-.399-7.015-.485-.627-1.711-.655-3.108-1.14l3.507 8.155zm6.274-12.09l4.676 5.389c1.426-.969 1.683-2.167.571-3.707-1.797-2.538-3.365-2.994-5.247-1.682zm8.982 1.226c.77-1.711.599-3.222-.741-4.306-1.255-1.027-2.652-.627-3.907.086l4.648 4.22zm2.167 41.775l-.77-.342c-.171.542-.342 1.112-.484 1.654.199.057.399.143.599.2.228-.514.427-1.027.655-1.512zm-.998-2.538c-.228.114-.427.228-.656.343l.77 1.254c.171-.085.314-.171.485-.228l-.599-1.369zm13.146-55.12h-.2v1.311c.114 0 .2 0 .314-.028-.057-.399-.085-.827-.114-1.283zM64.816 20.873l5.675 1.825c2.025.684 4.22.941 5.874 2.595.228.228 1.397-.114 1.882-.485 7.043-5.389 18.393-3.365 22.841 4.135 2.88 4.848 1.084 9.41-1.169 13.744-2.994 5.817-8.213 9.382-13.773 12.404a71.11 71.11 0 0 1-8.868 4.049c-.941.342-2.88.086-3.251-.542-1.568-2.68-4.505-3.251-6.673-4.962-2.224-1.768-4.477-3.507-6.445-5.532-1.768-1.797-3.422-3.821-4.648-6.017-2.795-4.905-3.964-10.152-2.766-15.826.656-3.051 3.08-3.821 5.532-4.505 1.654-.399 3.393-.513 5.789-.884zm161.598 67.126l-.827-1.939c-.257-.542-.599-1.026-1.141-1.996.371-2.481-2.338-2.367-4.077-3.365l1.91.143.086-.684-3.793-.342c-.656-.913-1.112-2.31-1.996-2.652-3.536-1.426-7.186-2.538-10.408-3.65-.542.684-.741 1.112-1.112 1.312-.856.485-1.768.855-2.681 1.255-.399-.741-.798-1.426-1.796-.799l.028.029c-.199-.428-.285-.998-.598-1.255-3.251-2.795-6.53-5.561-9.895-8.241-.542-.456-1.512-.399-1.911-.485-.199-.799-.142-1.597-.542-1.996-2.195-2.167-4.505-4.22-6.758-6.331l.485-5.589c.399-3.508-.599-4.905-4.021-5.931-.656-.2-1.14-.941-1.91-1.625-1.911 1.597-4.449 2.053-7.186 1.625-.485-1.027-.257-2.794-2.31-2.338-.171.029-.428-.285-.599-.485l-3.393-3.593c6.615-.029 13.288-.342 19.875.085 2.852.171 5.589 1.911 8.355 2.966 1.711.656 3.365 1.369 5.675 2.31l.314-9.296c1.34-.2 3.108-1.511 3.193 1.397 0 .285 1.027.542 1.569.827-.314 2.11-.428 4.277-1.055 6.33-.485 1.625.057 2.253 1.397 2.738l15.626 5.732c.2.057.343.228.514.342.057.371-.029.941.199 1.112 1.198.884 2.481 1.711 3.764 2.481.428.257.998.257 1.483.399.143.627.285 1.255.399 1.882 2.51 1.996 1.455 4.62 1.112 6.986-.456 3.165-1.34 6.302-1.882 9.467-.114.713.4 1.568.685 2.338.114.314.399.627.684.827.799.656-.456 2.766 1.54 2.452 1.882-.285 4.192-2.88 4.477-4.42.513-2.737 1.169-5.446 1.796-8.155l1.597-.371c0 1.968-1.226 4.249 1.882 5.019l-1.254.799c.37.371.684.913 1.112 1.026.399.114.884-.285 1.34-.456-.257 2.623-.171 5.332-.941 7.813-.399 1.283-2.196 2.709-3.564 2.994-1.341.285-2.168.599-2.995 1.682-.57.713-1.625 1.084-2.452 1.625z" fill="#186efe"/><path d="M135.82 253.761c.114.257.171.656.313.713 5.618 1.455 9.011 5.589 11.463 10.351.999 1.94.514 4.62.742 7.215-3.422 0-6.587.142-9.752-.029-6.473-.313-12.918.229-19.391.029-1.625-.057-3.279.085-4.905-.029-1.055-.085-2.11-.456-3.336-.741l-2.766 1.055c-1.169-6.559 1.055-12.034 6.102-15.142 1.569-.969 3.422-1.426 5.105-2.252.484-.229.941-.941.998-1.455.142-1.34.028-2.709.028-4.049.713 0 1.654-.285 2.082.086 1.197.969 2.138 2.195 3.193 3.336l4.42.456.827 1.255 2.053-1.939c.086.741.115 1.226.172 1.768l2.652-.628zm-5.647 12.405c-.627-2.681-4.476-5.076-8.098-5.048-3.336.029-6.473 2.282-7.072 5.048h15.17z" fill="#030303"/><path d="M28.088 29.713c.627.143 1.255.399 1.882.428 1.511.085 2.937 1.026 4.277-1.141s7.813-2.025 9.981-.342c3.279 2.595 3.85 4.591 1.654 8.298-1.739 2.909-3.85 5.618-5.96 8.27-1.34 1.682-3.108 1.854-5.275 1.255-4.135-1.112-7.671-3.08-10.551-6.245-1.797-1.968-2.88-6.559-1.226-8.441 1.141-1.283 3.279-1.683 4.99-2.481.057.143.143.285.228.399z" fill="#186efe"/><path d="M236.366 73.855c-.456.171-.97.542-1.34.456-.428-.114-.742-.656-1.112-1.027l1.254-.798c-3.079-.77-1.882-3.051-1.882-5.019l-1.597.371 1.341-8.469 4.619-24.238c.114-.57-.313-1.369-.684-1.91-1.654-2.481-1.426-5.076.684-7.015 1.426-1.312 5.133-1.682 6.502-.656 2.424 1.825 3.108 4.734 1.568 7.272-.513.884-1.568 1.426-2.081 2.31-.542.941-.884 2.025-1.084 3.108l-5.789 33.534c-.057.684-.228 1.397-.399 2.082z" fill="#040404"/><path d="M135.82 253.761l-2.595.599-.171-1.768-2.054 1.939-.827-1.255v-1.768c-1.14 0-2.224-.114-3.279.057-.456.086-.77.827-1.14 1.255-1.056-1.141-2.025-2.367-3.194-3.336-.428-.343-1.369-.057-2.082-.086l-.371-21.044 8.241 4.419 8.356 3.907.028 15.199c-.028.627-.599 1.255-.912 1.882zm-9.895-8.726c-.2 3.194.142 3.707 2.395 3.764 1.026.029 2.31.371 2.367-1.311.085-2.168-.913-2.709-4.762-2.453zm2.281-1.853c.684-.571 1.882-1.141 1.91-1.74.114-2.138-2.224-1.169-3.165-2.11-.371.542-.941 1.055-1.055 1.654-.314 1.511.599 1.939 2.31 2.196z" fill="#0711db"/><path d="M271.07 119.023c.855.713 2.11 1.255 2.309 2.054.257.998.029 2.709-.656 3.279-1.967 1.654-4.191 3.137-6.53 4.249-6.216 2.937-12.546 5.646-18.877 8.355-.599.256-1.853-.029-2.167-.485s-.029-1.711.428-2.167c.798-.799 1.882-1.312 2.908-1.882l15.769-8.783c1.54-.884 2.795-2.224 4.249-3.279.713-.514 1.511-.799 2.567-1.341z" fill="#080808"/><path d="M247.972 153.757l17.879-3.507c.57-.115 1.112-.4 1.682-.485 1.426-.2 2.652.142 3.165 1.625s-.142 2.681-1.425 3.251c-1.512.656-3.137 1.169-4.762 1.397-6.388.884-12.804 1.711-19.277.998-.428-.057-.969.057-1.283-.142-.799-.542-2.025-1.169-2.139-1.882-.228-1.398 1.027-1.882 2.338-1.882h3.707c.058.228.086.427.115.627z" fill="#0a0a0a"/><path d="M257.61 182.414l-15.398-4.534c-.2-.057-.4-.171-.628-.228-1.226-.313-2.367-.855-2.024-2.309.37-1.597 1.768-1.455 3.022-1.255l11.777 1.967c.656.086 1.455-.057 2.025-.399 1.312-.77 2.68-.884 3.507.314.742 1.083 1.34 2.595 1.198 3.849-.2 1.654-1.711 2.196-3.479 2.595z" fill="#090909"/><path d="M200.978 37.356c-.542-.285-1.569-.542-1.569-.827-.057-2.909-1.853-1.597-3.193-1.397-1.768-1.882-2.282-4.591-1.255-6.387 1.055-1.825 3.821-2.966 5.789-2.367 1.539.456 3.621 3.251 3.65 5.019l-1.027-.599-.599 2.139 1.055-.399.285.342-1.482 2.738-.485-2.395-1.768.827 1.34 1.283-.741 2.025z" fill="#050506"/><path d="M246.318 110.326c-1.283-.057-2.025-.855-2.053-2.338-.029-1.369 2.652-3.479 4.391-3.451 1.483.029 2.225.856 2.253 2.339.029 1.454-2.538 3.45-4.591 3.45z" fill="#0d0d0d"/><path d="M211.899 191.17l-3.108-1.284.2-.713 1.882-.114c-.314-1.226-1.055-2.68.998-3.108l.028 5.219z" fill="#070613"/><path d="M222.906 56.461c-.513-.114-1.055-.143-1.482-.399l-3.764-2.481c-.229-.171-.143-.713-.2-1.112 2.167.884 4.448 1.568 5.446 3.992z" fill="#0d0d0d"/><path d="M203.83 32.565l.627-.285-.342.599-.285-.314z" fill="#050506"/><path d="M168.271 45.483c2.737.428 5.275-.028 7.186-1.625.798.684 1.283 1.426 1.91 1.625 3.422 1.027 4.391 2.424 4.021 5.931l-.485 5.589-2.167 10.066-3.65 20.075c-.314 1.911.313 4.22-.542 5.789-1.54 2.852-1.255 5.903-1.968 8.84-1.026 4.277-1.882 8.611-3.079 12.86-1.512 5.447-4.049 6.559-8.64 6.53-3.907-.028-7.814-.37-11.692-.37l-18.364.313c-4.962 0-9.895-.228-14.857-.313-1.682-.029-3.364-.143-5.018 0-3.736.313-6.473-4.648-5.846-7.814 1.141-5.674 1.796-11.463 2.823-17.195.798-4.42 1.911-8.783 2.766-13.174l4.192-22.413 1.739-9.325c.485-2.652 3.108-5.504 6.53-5.39 9.068.342 18.165.428 27.261.428 5.989.029 11.948-.257 17.88-.428zm-5.646 31.225c-.143-.684-.371-1.454-.457-2.224-.599-5.104-6.302-7.385-10.465-3.878-3.907 3.308-5.019 7.642-4.334 12.376.342 2.452 1.511 4.933 4.22 5.789 2.623.827 4.848-.342 6.872-2.11 2.937-2.652 3.565-6.216 4.164-9.952zm-29.714.171l-.542-3.051c-.37-2.253-1.454-4.363-3.564-4.962-2.31-.656-4.734-.314-6.787 1.597-3.935 3.678-4.961 8.241-3.992 13.174 1.084 5.561 6.844 6.559 10.152 3.536 3.108-2.766 4.305-6.217 4.733-10.294zm3.365 26.777v.028h2.852c3.25.029 6.416-.085 8.697-3.079.941-1.227 1.283-3.707.2-5.105-.97-1.226-3.194-1.255-4.534-.085-1.455 1.283-3.08 2.139-5.133 1.54-.542-.143-1.198-.257-1.711-.114-2.31.627-3.964-.799-5.817-1.683-.742-.371-1.911-.428-2.652-.114-.913.399-2.082 1.283-2.253 2.139-.542 3.022 2.452 6.302 5.532 6.444 1.597.086 3.194.029 4.819.029zm30.826 98.035l.256 9.04c-.142.228-.399.427-.399.655l-.485 5.732c-.171 1.426-3.393 4.163-4.904 4.163l-9.981-.313c-2.481-.029-4.962-.057-7.414.114-1.54.114-2.224-.228-2.196-1.939l.086-18.108c0-.855.085-1.825-.285-2.538-.228-.456-1.198-.741-1.825-.741-.485 0-1.312.57-1.34.969-.229 2.196-.599 4.477-.314 6.645.314 2.395-1.198 2.652-2.681 2.766-2.167.199-4.362-.029-6.501.114-.513.028-.998.884-1.483 1.34-1.027-1.854-2.139-2.253-3.764-1.112-1.397.998-1.169 2.31-.314 3.564 4.05.143 4.05.143 4.021-2.538.171.029.456.057.456.114.314 2.966 2.681 2.367 4.477 2.396 5.931.085 6.103.199 5.931 6.074-.085 2.652-.513 3.108-3.136 2.908-4.363-.342-8.669.371-13.06-.085-4.991-.514-10.066-.086-15.114-.143-2.452-.028-4.904-2.452-4.904-4.819l.028-29.257c0-.399.143-.827.228-1.312l11.178.029c.457 0 1.055.37 1.369.741 4.762 5.418 10.551 6.359 17.195 4.277.913-.285 2.31-.171 3.08.343 4.933 3.307 10.351 5.646 16.054 7.043 4.677 1.112 9.439 2.338 14.429 1.226 1.853-.314.912 1.768 1.312 2.652zm-60.225 5.019c.028.542-.171 1.397.199 1.91 2.738 4.05 7.585 4.962 11.207 1.284 4.249-4.306 3.08-12.291-3.907-13.802-2.481-.513-4.79.057-6.216 1.854-1.768 2.224-3.08 4.933-2.11 8.041.028.285.427.428.827.713z" fill="#fdfdfd"/><path d="M167.872 158.833c-.941.941-.514 1.967-.457 3.108.115 2.195-.456 4.448-.37 6.644.028.798 1.112 1.568 1.682 2.338-1.397.713-2.024 2.994-1.654 5.874.2 1.426-.085 2.938-.142 4.392-6.388.342-12.69.085-18.592-2.766-.827-.399-1.654-.799-2.51-1.141-2.709-1.026-4.705-2.196-5.361-5.674-.969-5.219-5.361-7.586-10.009-9.382-.912-.342-1.91-1.255-2.252-2.139-.827-2.195-1.341-4.505-1.883-6.786-.541-2.168-.114-2.453 2.139-2.481l22.87-.371h7.642c3.137.085 5.589.998 7.357 4.078.827 1.483.941 2.908 1.54 4.306zm-6.16 2.024c.029-2.424-1.226-3.65-3.621-3.849-1.996-.143-4.163 1.625-4.249 4.334-.057 1.54 1.939 3.564 3.393 3.593 2.681.085 4.449-1.511 4.477-4.078z" fill="#fdfdfe"/><path d="M77.705 143.491h4.534l30.997-.057c2.024-.028 3.108.685 3.678 2.538l2.167 6.759c-9.638-1.569-15.626 2.594-17.081 11.691-.998 6.188 1.854 11.378 8.584 14.258-.998.114-1.426.199-1.882.199l-20.589-.171c-.599 0-1.711-1.055-1.682-1.568.143-1.825.114-3.536-.656-5.218-.114-.257.228-.713.456-1.312l-1.141.256c.741-6.53-1.454-12.489-3.621-18.421-1.112-2.908-2.424-5.731-3.764-8.954zm-7.242-41.719l1.454.999c-1.597 2.138 1.426 3.421 1.283 5.788h-7.614c-5.817 0-11.634.029-17.451-.085-.884-.029-1.768-.628-2.652-.97.456-.713.77-1.625 1.397-2.11 2.623-2.025 2.794-5.161 3.222-7.899C51.3 89.91 47.137 83.608 39.808 81.27c-1.084-.342-2.224-.799-3.279-.684-1.968.2-2.709-.798-3.422-2.395-1.312-2.823-2.88-5.504-4.22-8.041 2.68-.314 5.361-.827 8.07-.884 3.736-.086 7.471.228 11.207.285 2.025.029 4.049-.257 6.045-.142.627.028 1.483.77 1.739 1.369 1.112 2.566 1.939 5.247 3.108 7.785l7.186 15.313c.314.684.314 1.54.684 2.196 1.055 1.853 2.253 3.621 3.365 5.447l.171.256zM202.376 76.08l2.68-1.255c.343-.2.542-.656 1.112-1.312 3.223 1.112 6.873 2.224 10.409 3.65.884.342 1.34 1.739 1.996 2.652l-1.825-.77c-2.424-2.31-6.73-1.939-9.04 1.483-5.503 6.53-3.022 19.733 6.987 20.646-1.711 3.194-5.932 3.564-9.154 2.623-5.104-1.483-7.756-5.304-9.096-10.18-1.683-6.045-.913-11.52 3.849-16.026.599-.599 1.369-1.027 2.082-1.511zM36.215 88.255c3.707.114 6.644 2.966 6.53 6.331-.143 3.393-2.966 6.359-6.33 6.331-3.393-.029-6.359-3.308-6.331-6.673.057-3.023 3.165-6.102 6.131-5.988zm85.233 77.792c0 3.165-2.965 6.216-6.188 6.159-4.049-.085-6.016-2.966-6.045-6.102-.028-3.707 2.852-6.445 6.559-6.416 3.564 0 5.703 2.395 5.674 6.359zm7.157 4.647c2.994-.029 5.019 2.309 5.133 5.589.114 3.593-3.051 7.528-7.129 7.841-2.966.229-5.931-2.224-5.903-4.619 5.675-.599 6.73-1.768 7.899-8.811zm-88.911-61.708c1.426 1.939.884 5.361 3.878 5.903 2.338.428 4.848.086 7.557.086-.342 2.423-2.253 3.222-3.821 3.849-3.194 1.34-6.815-.085-8.754-2.994-1.255-1.825-.798-4.648 1.141-6.844zm140.752 155.981c-1.568.399-2.68.912-3.849.97-3.65.114-7.3.028-11.007.028 3.792-5.846 9.724-6.502 14.856-.998z" fill="#fdfdfd"/><path d="M150.192 184.668c2.966.485 3.479 1.198 2.823 4.135-.057.199-.028.427-.057.656-.313 2.937-1.54 3.45-4.02 1.796l1.254-6.587zm5.361 8.384l1.197-7.671c.941.798 1.882 1.283 2.31 2.082.884 1.596.513 5.246-.542 5.646-.827.313-1.939-.029-2.965-.057z" fill="#fafafa"/><path d="M165.105 186.379l1.027 5.532c-.2 1.54-1.226 2.139-2.567 1.796-1.596-.399-.712-1.568-.712-2.594 0-1.512-.428-3.052-.713-4.734h2.965zm-19.96-3.395c2.253 1.398 2.737 3.394 1.283 5.618-1.026 1.597-1.939 1.625-3.907.171l2.624-5.789z" fill="#fdfdfd"/><path d="M207.68 80.528c2.309-3.393 6.587-3.793 9.039-1.483-1.54.399-3.051 2.139-4.933-.485l.371 2.481-4.477-.513z" fill="#0711db"/><path d="M176.255 250.796c5.96-.172 6.245.199 5.874 3.621l-5.874-1.255v-2.366z" fill="#f8f8f8"/><path d="M176.17 247.829l-.143-2.823h5.703v2.823h-5.56z" fill="#fdfdfd"/><path d="M59.113 133.88l-1.968-2.651 3.935-3.28c1.996 3.051 1.825 3.622-1.968 5.931zm4.733 5.505l-2.053-3.28 3.45-3.849 1.483 2.11-2.88 5.019z" fill="#fafafa"/><path d="M181.93 241.956c-6.273.713-6.302.599-6.188-2.738 1.283 0 2.681-.313 3.85.114.855.314 1.397 1.512 2.338 2.624z" fill="#f8f8f8"/><path d="M53.296 125.925l3.935-2.595 1.54 2.681-3.878 2.794-1.597-2.88zm103.312 16.254h-6.359l.371-3.109 6.102 2.766c-.057.114-.085.228-.114.343zm-87.229-6.103c1.739 2.139-1.996 4.933 1.625 6.245a8.13 8.13 0 0 0-.57.456l-3.336-2.024 2.281-4.677z" fill="#fafafa"/><path d="M176.141 236.082V233.8c2.68-.313 3.222-.028 4.334 2.282h-4.334z" fill="#fefefe"/><path d="M138.158 186.834l2.453-4.99c.114-.2.598-.314.912-.257.171.028.399.371.456.599.314 1.254-1.853 4.249-3.821 4.648z" fill="#fafafa"/><path d="M204.543 175.399l-.2 2.082-2.908-2.595.969-1.312 2.139 1.825z" fill="#050ebd"/><path d="M200.579 75.281l-.314.57-.256-.314.599-.257c0 .029-.029 0-.029 0z" fill="#0710db"/><path d="M70.291 101.515l.713-.314-.542.599c-.057-.114-.114-.2-.171-.285z" fill="#fdfdfd"/><path d="M201.121 177.168c-.314 2.709-.913 5.247-3.451 7.3.97-7.329-1.654-11.777-7.186-12.262.428-1.939 2.082-1.939 3.308-1.882 3.907.228 5.817 1.968 7.072 6.017l.257.827z" fill="#fafafe"/><path d="M170.011 192.795l-1.968-6.986c2.11-.884 3.222-.457 4.078 1.711.228.598.342 1.254.513 1.853.912 3.165.513 3.65-2.623 3.422z" fill="#fdfdfe"/><path d="M182.671 188.973l-4.107-6.701c2.738-.77 6.359 1.597 6.188 4.448-.085.884-1.54 1.683-2.081 2.253zm-5.618 2.966l-3.507-8.156c1.397.485 2.623.542 3.108 1.141 1.74 2.224 3.736 4.619.399 7.015zm6.274-12.092c1.911-1.311 3.479-.855 5.276 1.683 1.083 1.54.826 2.737-.571 3.707l-4.705-5.39zm8.982 1.227l-4.648-4.22c1.255-.713 2.652-1.141 3.907-.085 1.34 1.083 1.54 2.594.741 4.305z" fill="#fafafe"/><path d="M194.476 222.85l-.655 1.511-.599-.199.484-1.654c.257.085.514.228.77.342zm-.998-2.538l.571 1.369c-.171.086-.314.171-.485.228l-.77-1.254.684-.343z" fill="#020203"/><path d="M201.121 177.167l-.228-.827 1.625.599-1.397.228z" fill="#050ebd"/><path d="M206.624 165.191l.114 1.312c-.114 0-.199 0-.313.029v-1.312c.057 0 .114 0 .199-.029zm2.68 15.883c0 .114.001.228-.028.314l-.228-.086c.085-.085.171-.142.256-.228z" fill="#020203"/><path d="M130.174 266.165h-15.17c.599-2.795 3.735-5.019 7.072-5.048 3.621-.028 7.471 2.367 8.098 5.048z" fill="#f8f8f8"/><path d="M125.754 252.791c.371-.428.713-1.169 1.141-1.255 1.026-.2 2.11-.057 3.279-.057v1.768l-4.42-.456zm.171-7.756c3.849-.256 4.847.286 4.762 2.453-.057 1.682-1.34 1.34-2.367 1.311-2.253-.057-2.595-.57-2.395-3.764z" fill="#fafafe"/><path d="M128.206 243.182c-1.711-.257-2.595-.685-2.309-2.196.114-.599.684-1.112 1.055-1.654.941.941 3.279-.028 3.165 2.11-.029.599-1.255 1.169-1.911 1.74z" fill="#fdfdfe"/><path d="M162.624 76.706c-.627 3.736-1.226 7.3-4.192 9.952-1.996 1.768-4.22 2.909-6.872 2.11-2.709-.827-3.878-3.336-4.22-5.789-.656-4.734.428-9.097 4.334-12.376 4.164-3.507 9.867-1.226 10.466 3.878.114.77.342 1.54.484 2.224z" fill="#020202"/><path d="M132.912 76.878c-.457 4.078-1.626 7.528-4.705 10.323-3.308 3.023-9.068 2.025-10.152-3.536-.97-4.933.057-9.524 3.992-13.174 2.053-1.911 4.477-2.253 6.787-1.597 2.11.599 3.194 2.709 3.564 4.962.143 1.027.343 2.082.514 3.023z" fill="#030302"/><path d="M136.276 103.655h-4.791c-3.108-.114-6.074-3.422-5.532-6.444.143-.827 1.34-1.711 2.253-2.139.741-.342 1.91-.257 2.652.114 1.853.884 3.507 2.31 5.817 1.682.513-.143 1.169-.028 1.711.114 2.053.57 3.65-.257 5.133-1.54 1.34-1.169 3.536-1.169 4.534.086 1.083 1.397.741 3.878-.2 5.104-2.281 2.995-5.418 3.109-8.697 3.08h-2.852c-.028-.028-.028-.028-.028-.057z" fill="#060505"/><path d="M106.877 206.709c-.399-.314-.77-.456-.856-.684-.969-3.109.314-5.818 2.111-8.042 1.425-1.796 3.764-2.395 6.216-1.853 6.986 1.483 8.155 9.467 3.907 13.801-3.622 3.679-8.47 2.738-11.207-1.283-.342-.513-.143-1.397-.171-1.939zm8.497-4.819c-.285-.228-.798-.941-1.425-1.055-1.683-.314-3.451 2.452-3.764 4.078-.086.399.684 1.34 1.169 1.425 1.511.257 3.878-2.138 4.02-4.448z" fill="#040404"/><path d="M127.551 209.561c.028 2.681.028 2.681-4.021 2.538-.827-1.255-1.084-2.566.314-3.564 1.596-1.141 2.709-.742 3.764 1.112 0-.029-.057-.086-.057-.086z" fill="#0d0d0d"/><path d="M161.712 160.857c-.028 2.566-1.796 4.163-4.477 4.106-1.454-.029-3.45-2.082-3.393-3.593.114-2.738 2.281-4.477 4.249-4.335 2.395.172 3.65 1.398 3.621 3.822z" fill="#070613"/><path d="M115.374 201.89c-.142 2.338-2.509 4.734-4.021 4.449-.484-.086-1.254-1.027-1.169-1.426.314-1.626 2.082-4.392 3.764-4.078.628.086 1.141.799 1.426 1.055z" fill="#f8f8f8"/></svg>