<svg xmlns="http://www.w3.org/2000/svg" viewBox="0 0 335.04 240"><defs><style>.cls-2{fill:#e4e4e4}.cls-3{fill:#757575}</style></defs><path fill="#fff" d="M0 0H335V240H0z"/><path class="cls-2" d="M0.04 57.84H335.04V59.43000000000001H0.04z"/><path class="cls-2" d="M0.04 18.16H335.04V19.75H0.04z"/><path class="cls-2" d="M0.04 97.52H335.04V99.11H0.04z"/><path class="cls-2" d="M0.04 137.21H335.04V138.8H0.04z"/><path class="cls-2" d="M0.04 176.89H335.04V178.48H0.04z"/><path class="cls-2" d="M0.04 216.57H335.04V218.16H0.04z"/><path class="cls-3" d="M3.09,239a.27.27,0,0,1-.2-.07.3.3,0,0,1-.08-.2V232l-2,1.53a.26.26,0,0,1-.2.06.21.21,0,0,1-.18-.1l-.32-.4a.34.34,0,0,1,0-.22.29.29,0,0,1,.11-.18l2.62-2a.31.31,0,0,1,.16-.07l.15,0h.61a.24.24,0,0,1,.19.08.28.28,0,0,1,.08.2v7.85a.3.3,0,0,1-.08.2.24.24,0,0,1-.19.07Z"/><path class="cls-3" d="M101.64,239.41a.24.24,0,0,1-.2-.08.28.28,0,0,1-.08-.2v-6.72l-2,1.54a.27.27,0,0,1-.21.06.25.25,0,0,1-.18-.11l-.31-.39a.3.3,0,0,1,0-.22.29.29,0,0,1,.11-.18l2.62-2,.15-.07h.77a.24.24,0,0,1,.19.08.28.28,0,0,1,.08.2v7.84a.28.28,0,0,1-.08.2.21.21,0,0,1-.19.08Z"/><path class="cls-3" d="M107.26,239.53a3.38,3.38,0,0,1-1.39-.26,2.46,2.46,0,0,1-.93-.71,3,3,0,0,1-.53-1.05,5.45,5.45,0,0,1-.18-1.24c0-.22,0-.45,0-.69v-.72c0-.25,0-.48,0-.71a5.1,5.1,0,0,1,.18-1.25,3.19,3.19,0,0,1,.53-1,2.46,2.46,0,0,1,.93-.71,3.45,3.45,0,0,1,1.39-.26,3.4,3.4,0,0,1,1.4.26,2.46,2.46,0,0,1,.93.71,3,3,0,0,1,.54,1,5.1,5.1,0,0,1,.18,1.25c0,.23,0,.46,0,.71v.72c0,.24,0,.47,0,.69a5,5,0,0,1-.18,1.24,3.35,3.35,0,0,1-.53,1.05,2.46,2.46,0,0,1-.93.71A3.45,3.45,0,0,1,107.26,239.53Zm0-1a1.58,1.58,0,0,0,1.39-.62,2.86,2.86,0,0,0,.46-1.68c0-.23,0-.46,0-.68v-.66q0-.33,0-.66a2.9,2.9,0,0,0-.46-1.67,1.83,1.83,0,0,0-2.76,0,2.9,2.9,0,0,0-.47,1.67c0,.22,0,.44,0,.66v.66c0,.22,0,.45,0,.68a2.79,2.79,0,0,0,.48,1.68A1.56,1.56,0,0,0,107.26,238.51Z"/><path class="cls-3" d="M212.45,239.55a.27.27,0,0,1-.28-.28v-.38a.6.6,0,0,1,.06-.24,1,1,0,0,1,.24-.29l2.55-2.54c.4-.35.73-.64,1-.88a2.5,2.5,0,0,0,.51-.71,1.65,1.65,0,0,0,.15-.69,1.5,1.5,0,0,0-.39-1.09,1.48,1.48,0,0,0-1.14-.4,1.7,1.7,0,0,0-.83.2,1.4,1.4,0,0,0-.54.54,2.13,2.13,0,0,0-.26.77.29.29,0,0,1-.13.22.35.35,0,0,1-.18.06h-.63a.24.24,0,0,1-.18-.07.24.24,0,0,1-.07-.16,2.8,2.8,0,0,1,.19-.92,2.48,2.48,0,0,1,.54-.83,2.77,2.77,0,0,1,.87-.61,3.09,3.09,0,0,1,1.22-.23,3.16,3.16,0,0,1,1.56.34,2.16,2.16,0,0,1,.89.91,2.66,2.66,0,0,1,.29,1.23,2.54,2.54,0,0,1-.18,1,3.67,3.67,0,0,1-.52.85,6.81,6.81,0,0,1-.85.85l-2.3,2.34h3.74a.28.28,0,0,1,.21.07.26.26,0,0,1,.08.2v.49a.28.28,0,0,1-.08.2.29.29,0,0,1-.21.08Z"/><path class="cls-3" d="M222.43,239.67a3.43,3.43,0,0,1-1.4-.26,2.46,2.46,0,0,1-.93-.71,3,3,0,0,1-.52-1,5,5,0,0,1-.18-1.24c0-.22,0-.45,0-.69s0-.48,0-.72,0-.48,0-.71a4.66,4.66,0,0,1,.18-1.25,3,3,0,0,1,.53-1,2.46,2.46,0,0,1,.93-.71,3.87,3.87,0,0,1,2.79,0,2.46,2.46,0,0,1,.93.71,2.85,2.85,0,0,1,.53,1,4.66,4.66,0,0,1,.19,1.25c0,.23,0,.46,0,.71v.72c0,.24,0,.47,0,.69a4.53,4.53,0,0,1-.19,1.24,3.13,3.13,0,0,1-.52,1,2.46,2.46,0,0,1-.93.71A3.45,3.45,0,0,1,222.43,239.67Zm0-1a1.61,1.61,0,0,0,1.39-.62,2.86,2.86,0,0,0,.46-1.68c0-.24,0-.46,0-.68V235c0-.22,0-.44,0-.66a2.9,2.9,0,0,0-.46-1.67,1.83,1.83,0,0,0-2.76,0,3,3,0,0,0-.48,1.67V235q0,.33,0,.66v.68a2.94,2.94,0,0,0,.48,1.68A1.61,1.61,0,0,0,222.43,238.65Z"/><path class="cls-3" d="M323.21,238.67a4,4,0,0,1-1.32-.19,2.93,2.93,0,0,1-.95-.49,2.18,2.18,0,0,1-.58-.69,1.54,1.54,0,0,1-.21-.77.19.19,0,0,1,.07-.16.28.28,0,0,1,.18-.06H321a.41.41,0,0,1,.19,0,.45.45,0,0,1,.14.21,1.25,1.25,0,0,0,.42.67,1.6,1.6,0,0,0,.68.33,3.48,3.48,0,0,0,.79.09,2.1,2.1,0,0,0,1.34-.4,1.38,1.38,0,0,0,.52-1.16,1.3,1.3,0,0,0-.47-1.12,2.23,2.23,0,0,0-1.3-.33h-1.14a.35.35,0,0,1-.2-.07.28.28,0,0,1-.07-.21V234a.38.38,0,0,1,0-.19l.09-.14,2.33-2.54h-3.54a.27.27,0,0,1-.2-.07.29.29,0,0,1-.08-.21v-.45a.29.29,0,0,1,.08-.21.28.28,0,0,1,.2-.08h4.78a.29.29,0,0,1,.21.08.25.25,0,0,1,.08.21v.43a.24.24,0,0,1,0,.15l-.09.13-2.32,2.58h.2A3.46,3.46,0,0,1,325,234a2,2,0,0,1,.93.78,2.44,2.44,0,0,1,.33,1.32,2.38,2.38,0,0,1-.4,1.37,2.49,2.49,0,0,1-1.09.87A4,4,0,0,1,323.21,238.67Z"/><path class="cls-3" d="M330.65,238.67a3.4,3.4,0,0,1-1.4-.26,2.46,2.46,0,0,1-.93-.71,2.8,2.8,0,0,1-.52-1,5.45,5.45,0,0,1-.19-1.24c0-.22,0-.45,0-.69V234c0-.25,0-.48,0-.71a4.66,4.66,0,0,1,.19-1.25,3,3,0,0,1,.52-1,2.46,2.46,0,0,1,.93-.71,3.46,3.46,0,0,1,1.4-.26,3.38,3.38,0,0,1,1.39.26,2.46,2.46,0,0,1,.93.71,3,3,0,0,1,.54,1,4.66,4.66,0,0,1,.18,1.25c0,.23,0,.46,0,.71s0,.48,0,.72,0,.47,0,.69a4.53,4.53,0,0,1-.18,1.24,3.15,3.15,0,0,1-.53,1,2.42,2.42,0,0,1-.92.71A3.45,3.45,0,0,1,330.65,238.67Zm0-1A1.6,1.6,0,0,0,332,237a2.79,2.79,0,0,0,.46-1.68c0-.24,0-.46,0-.68V234q0-.33,0-.66a2.82,2.82,0,0,0-.46-1.67,1.83,1.83,0,0,0-2.76,0,2.9,2.9,0,0,0-.47,1.67c0,.22,0,.44,0,.66v.66c0,.22,0,.44,0,.68a2.79,2.79,0,0,0,.48,1.68A1.59,1.59,0,0,0,330.65,237.65Z"/><path d="M.13,19.15S5.49,4,9.89,4s11,27.94,22,43.36S58.21,65.66,63.16,93.6s21.41,76.12,21.41,76.12S92,203.06,118,203.06s40.75,4.23,53.93,4.23,53.27,1.93,62.61,1.93h52c15,0,48.49,2.89,48.49,2.89V215H0Z" fill="#f2d794"/></svg>