<svg xmlns="http://www.w3.org/2000/svg" width="215.92" height="215.92" viewBox="0 0 215.92 215.92"><path d="M0,108.776,13.185,76.912,0,45.049,31.864,31.864,45.049,0,76.912,13.185,108.776,0l13.185,31.864,31.864,13.185L140.64,76.912l13.185,31.864-31.864,13.185-13.185,31.864L76.912,140.64,45.049,153.825,31.864,121.961Z" transform="rotate(38 47.307 137.46)" fill="#e0f2ff"/><path d="M63.678,0H28.434a8.837,8.837,0,0,0-8.811,8.811V79.3a8.837,8.837,0,0,0,8.811,8.811H81.3A8.837,8.837,0,0,0,90.112,79.3V26.434L63.678,0M81.3,79.3H28.434V8.811H59.273V30.839H81.3V79.3M10.811,17.622v79.3H81.3v8.811H10.811A8.837,8.837,0,0,1,2,96.923v-79.3Z" transform="translate(77.562 42.108)" fill="#fd9500"/><g transform="rotate(-22 291.095 -10.001)"><ellipse cx="36.715" cy="36.589" rx="36.715" ry="36.589" transform="rotate(9 5.724 72.73)" fill="#5d9cfa"/><path d="M16.147,42.782a18.546,18.546,0,0,1-7.19-1.248,12.942,12.942,0,0,1-4.872-3.446,14.731,14.731,0,0,1-2.852-5.08A23.661,23.661,0,0,1,.1,26.858q-.059-1.6-.089-3.535t0-3.892q.03-1.961.089-3.625a20.768,20.768,0,0,1,1.129-6.15A14.612,14.612,0,0,1,4.174,4.635a13.558,13.558,0,0,1,4.9-3.387A18.2,18.2,0,0,1,16.147,0a18.372,18.372,0,0,1,7.13,1.248,13.558,13.558,0,0,1,4.9,3.387,14.241,14.241,0,0,1,2.912,5.021,21.41,21.41,0,0,1,1.1,6.15q.119,1.664.119,3.625v3.892q0,1.931-.119,3.535a22.1,22.1,0,0,1-1.07,6.15,14.731,14.731,0,0,1-2.852,5.08,12.9,12.9,0,0,1-4.9,3.446A18.773,18.773,0,0,1,16.147,42.782Zm0-6.833q3.862,0,5.675-2.525a11.851,11.851,0,0,0,1.872-6.863q.119-1.723.119-3.476V19.549q0-1.783-.119-3.387a11.92,11.92,0,0,0-1.872-6.8,6.45,6.45,0,0,0-5.675-2.585,6.387,6.387,0,0,0-5.615,2.585,12.239,12.239,0,0,0-1.931,6.8q0,1.6-.03,3.387t0,3.535q.03,1.753.03,3.476a12,12,0,0,0,1.961,6.863A6.459,6.459,0,0,0,16.147,35.949Z" transform="rotate(8 -117.382 220.361)" fill="#fff"/></g></svg>