<svg xmlns="http://www.w3.org/2000/svg" width="235.453" height="144.026" viewBox="0 0 235.453 144.026"><path d="M0,99.679l12.082-29.2L0,41.281,29.2,29.2,41.281,0l29.2,12.082L99.679,0l12.082,29.2,29.2,12.082-12.082,29.2,12.082,29.2-29.2,12.082-12.082,29.2-29.2-12.082-29.2,12.082L29.2,111.762Z" transform="translate(94.493 3.065)" fill="#e0f2ff"/><path d="M63.885,2A50.582,50.582,0,1,1,21.548,80.048l7.992-6.323a40.388,40.388,0,1,0-5.716-26.2H37.785L18.867,66.391,0,47.524H13.606A50.563,50.563,0,0,1,63.885,2" transform="translate(0 9.088)" fill="#5d9cfa"/><path d="M76.859,44.973A10.969,10.969,0,0,1,87.686,55.919v54.849A10.993,10.993,0,0,1,76.74,121.714H10.946A10.993,10.993,0,0,1,0,110.768V55.919A10.969,10.969,0,0,1,10.827,44.973V32.957a33.016,33.016,0,0,1,66.032,0V44.973M43.784,16.657a16.325,16.325,0,0,0-16.3,16.3V44.973H60.2V32.957A16.35,16.35,0,0,0,43.784,16.657Z" transform="matrix(.985 .174 -.174 .985 87.687 0)" fill="#fdaa33"/></svg>