<svg xmlns="http://www.w3.org/2000/svg" width="232.766" height="105.636" viewBox="0 0 232.766 105.636"><g transform="translate(12.918 9.095)" fill="#e0f2ff"><ellipse cx="46.989" cy="46.771" rx="46.989" ry="46.771"/><ellipse cx="46.989" cy="46.771" rx="46.989" ry="46.771"/></g><path d="M4.159,4.159H10.4L14.555,0H27.031l4.159,4.159h6.238a4.159,4.159,0,0,1,4.159,4.159V33.269a4.159,4.159,0,0,1-4.159,4.159H4.159A4.159,4.159,0,0,1,0,33.269V8.317A4.159,4.159,0,0,1,4.159,4.159M20.793,10.4a10.4,10.4,0,1,0,10.4,10.4,10.4,10.4,0,0,0-10.4-10.4m0,4.159a6.238,6.238,0,1,1-6.238,6.238,6.238,6.238,0,0,1,6.238-6.238Z" transform="rotate(-7 314.498 19.236)" fill="#5d9cfa"/><g transform="translate(59.906 10.095)" fill="#e0f2ff"><ellipse cx="46.989" cy="46.771" rx="46.989" ry="46.771"/><ellipse cx="46.989" cy="46.771" rx="46.989" ry="46.771" transform="translate(0 2)"/></g><ellipse cx="52.691" cy="52.494" rx="52.691" ry="52.494" transform="translate(95.317)" fill="#e0f2ff"/><path d="M94.374,3H12.264A10.228,10.228,0,0,0,2,13.264V85.111A10.228,10.228,0,0,0,12.264,95.374H94.374a10.228,10.228,0,0,0,10.264-10.264V13.264A10.228,10.228,0,0,0,94.374,3M17.4,23.528h25.66V54.319H17.4V23.528M89.242,74.847H17.4V64.583H89.242V74.847m0-20.528H53.319V44.055H89.242V54.319m0-20.528H53.319V23.528H89.242Z" transform="rotate(5.13 48.74 686.115)" fill="#fd9500"/><path d="M19.139,54.683a2.734,2.734,0,0,1-2.734-2.734v-8.2H5.468A5.468,5.468,0,0,1,0,38.278V5.468A5.467,5.467,0,0,1,5.468,0H49.215a5.468,5.468,0,0,1,5.468,5.468v32.81a5.468,5.468,0,0,1-5.468,5.468H32.537L22.42,53.891a2.786,2.786,0,0,1-1.914.793H19.139m2.734-16.405V46.7l8.421-8.421h18.92V5.468H5.468v32.81Z" transform="rotate(12.04 -1.193 862.035)" fill="#5d9cfa"/></svg>