<svg xmlns="http://www.w3.org/2000/svg" width="100" height="21.122" viewBox="0 0 100 21.122"><g id="Сгруппировать_2422" data-name="Сгруппировать 2422" transform="translate(-1427.573 -452.92)" fill="#fff"><path id="Контур_3" data-name="Контур 3" d="M1430.771,471.829a4.947,4.947,0,0,1-1.16-3.508v-6.538h-2.038v-2.719h2.038v-4.076h3.567v4.076h3.255v2.719h-3.255v6.085a2.819,2.819,0,0,0,.48,1.852,2.255,2.255,0,0,0,1.756.552,4.009,4.009,0,0,0,1.725-.4v2.719a8.092,8.092,0,0,1-2.97.48A4.415,4.415,0,0,1,1430.771,471.829Z" transform="translate(0 .968)"/><path id="Контур_4" data-name="Контур 4" d="M1436.205,470.458a4.267,4.267,0,0,1-1.558-3.467,4.43,4.43,0,0,1,1.472-3.538,6.12,6.12,0,0,1,4.134-1.275,8.956,8.956,0,0,1,4.442,1.047v-.366a2.415,2.415,0,0,0-.89-2.094,4.938,4.938,0,0,0-2.873-.651,12.8,12.8,0,0,0-2.464.239,9.774,9.774,0,0,0-2.149.667v-2.8a9.335,9.335,0,0,1,2.277-.651,15.594,15.594,0,0,1,2.759-.255q3.538,0,5.236,1.513a5.34,5.34,0,0,1,1.7,4.2v8.294h-3.366V469.99a6.147,6.147,0,0,1-2,1.3,7.253,7.253,0,0,1-2.729.453A6.049,6.049,0,0,1,1436.205,470.458Zm7.019-1.785a3.449,3.449,0,0,0,1.47-1.286v-1.5a6.01,6.01,0,0,0-3.564-1.105q-2.859,0-2.86,2.209a1.878,1.878,0,0,0,.722,1.612,3.431,3.431,0,0,0,2.08.538A4.875,4.875,0,0,0,1443.225,468.674Z" transform="translate(4.049 2.297)"/><path id="Контур_5" data-name="Контур 5" d="M1445.394,452.92h3.564v20.7h-3.564Z" transform="translate(9.654)"/><path id="Контур_6" data-name="Контур 6" d="M1451.669,469.848a6.6,6.6,0,0,1-2.207-5.291,7.153,7.153,0,0,1,1.952-5.293,7.545,7.545,0,0,1,5.576-1.953,8.469,8.469,0,0,1,4.061.906,6.043,6.043,0,0,1,2.533,2.476,7.4,7.4,0,0,1,.849,3.579v1.641h-11.576q.366,3.028,5.264,3.028a16.014,16.014,0,0,0,2.661-.226,11.961,11.961,0,0,0,2.377-.621v2.744a11.565,11.565,0,0,1-2.476.651,17.989,17.989,0,0,1-3.014.255A8.9,8.9,0,0,1,1451.669,469.848Zm9.4-6.368a3.173,3.173,0,0,0-1.146-2.491,4.635,4.635,0,0,0-2.986-.876,4.419,4.419,0,0,0-2.943.906,3.211,3.211,0,0,0-1.132,2.461Z" transform="translate(11.769 2.297)"/><path id="Контур_7" data-name="Контур 7" d="M1460.783,457.735h3.453v1.84a5.891,5.891,0,0,1,2.292-1.712,7.267,7.267,0,0,1,2.8-.55,5.284,5.284,0,0,1,4.1,1.486,5.623,5.623,0,0,1,1.359,3.948v8.576h-3.566v-8.238q0-2.969-2.774-2.97a4.755,4.755,0,0,0-2.292.58,4.885,4.885,0,0,0-1.812,1.739v8.889h-3.566Z" transform="translate(17.869 2.297)"/><path id="Контур_8" data-name="Контур 8" d="M1474.242,471.829a4.946,4.946,0,0,1-1.161-3.508v-6.538h-2.037v-2.719h2.037v-4.076h3.565v4.076h3.257v2.719h-3.257v6.085a2.817,2.817,0,0,0,.483,1.852,2.251,2.251,0,0,0,1.755.552,4.024,4.024,0,0,0,1.726-.4v2.719a8.115,8.115,0,0,1-2.971.48A4.409,4.409,0,0,1,1474.242,471.829Z" transform="translate(23.461 .968)"/><path id="Контур_9" data-name="Контур 9" d="M1479.326,456.919a1.86,1.86,0,0,1-.58-1.4,1.912,1.912,0,0,1,.58-1.415,1.953,1.953,0,0,1,1.429-.574,2,2,0,0,1,1.443.574,1.889,1.889,0,0,1,.594,1.415,1.838,1.838,0,0,1-.594,1.4,2.028,2.028,0,0,1-1.443.56A1.979,1.979,0,0,1,1479.326,456.919Zm-.382,2.912h3.623V473.27h-3.623Z" transform="translate(27.713 .35)"/><path id="Контур_10" data-name="Контур 10" d="M1483.48,457.735h3.453v1.84a5.885,5.885,0,0,1,2.292-1.712,7.266,7.266,0,0,1,2.8-.55,5.285,5.285,0,0,1,4.1,1.486,5.618,5.618,0,0,1,1.36,3.948v8.576h-3.568v-8.238q0-2.969-2.773-2.97a4.756,4.756,0,0,0-2.293.58,4.9,4.9,0,0,0-1.811,1.739v8.889h-3.566Z" transform="translate(30.082 2.297)"/></g></svg>