<svg xmlns="http://www.w3.org/2000/svg" width="180" height="37.687" viewBox="0 0 180 37.687"><g id="Сгруппировать_2160" data-name="Сгруппировать 2160" transform="translate(-1427.573 -452.92)" fill="#fff"><path id="Контур_3" data-name="Контур 3" d="M1433.222,484.731a8.736,8.736,0,0,1-2.049-6.2V466.989h-3.6v-4.8h3.6v-7.2h6.3v7.2h5.749v4.8h-5.749v10.747a4.979,4.979,0,0,0,.847,3.271,3.983,3.983,0,0,0,3.1.975,7.081,7.081,0,0,0,3.046-.7v4.8a14.29,14.29,0,0,1-5.246.847A7.8,7.8,0,0,1,1433.222,484.731Z" transform="translate(0 3.677)"/><path id="Контур_4" data-name="Контур 4" d="M1437.4,480.531a7.537,7.537,0,0,1-2.752-6.123,7.825,7.825,0,0,1,2.6-6.248q2.6-2.249,7.3-2.252a15.819,15.819,0,0,1,7.845,1.849v-.647a4.266,4.266,0,0,0-1.572-3.7q-1.574-1.154-5.073-1.15a22.608,22.608,0,0,0-4.352.422,17.253,17.253,0,0,0-3.8,1.178v-4.949a16.49,16.49,0,0,1,4.021-1.15,27.55,27.55,0,0,1,4.874-.45q6.248,0,9.247,2.671a9.431,9.431,0,0,1,3,7.423v14.649h-5.946V479.7a10.856,10.856,0,0,1-3.527,2.3,12.809,12.809,0,0,1-4.821.8A10.683,10.683,0,0,1,1437.4,480.531Zm12.4-3.152a6.093,6.093,0,0,0,2.6-2.271v-2.649a10.615,10.615,0,0,0-6.3-1.952q-5.049,0-5.052,3.9a3.317,3.317,0,0,0,1.275,2.847,6.061,6.061,0,0,0,3.674.95A8.61,8.61,0,0,0,1449.8,477.379Z" transform="translate(12.57 7.805)"/><path id="Контур_5" data-name="Контур 5" d="M1445.394,452.92h6.3v36.94h-6.3Z" transform="translate(31.668)"/><path id="Контур_6" data-name="Контур 6" d="M1453.36,479.453q-3.9-3.349-3.9-9.344,0-5.9,3.448-9.347t9.848-3.449a14.957,14.957,0,0,1,7.173,1.6,10.673,10.673,0,0,1,4.473,4.374,13.078,13.078,0,0,1,1.5,6.32v2.9h-20.445q.646,5.348,9.3,5.348a28.281,28.281,0,0,0,4.7-.4,21.126,21.126,0,0,0,4.2-1.1V481.2a20.43,20.43,0,0,1-4.374,1.15,31.783,31.783,0,0,1-5.324.45Q1457.258,482.8,1453.36,479.453Zm16.6-11.247a5.6,5.6,0,0,0-2.024-4.4,8.186,8.186,0,0,0-5.274-1.547,7.8,7.8,0,0,0-5.2,1.6,5.672,5.672,0,0,0-2,4.346Z" transform="translate(38.895 7.805)"/><path id="Контур_7" data-name="Контур 7" d="M1460.783,458.059h6.1v3.249a10.4,10.4,0,0,1,4.049-3.024,12.834,12.834,0,0,1,4.949-.972q4.849,0,7.248,2.624a9.931,9.931,0,0,1,2.4,6.973v15.146h-6.3V467.506q0-5.245-4.9-5.246a8.4,8.4,0,0,0-4.048,1.025,8.63,8.63,0,0,0-3.2,3.071v15.7h-6.3Z" transform="translate(59.014 7.805)"/><path id="Контур_8" data-name="Контур 8" d="M1476.692,484.731a8.736,8.736,0,0,1-2.05-6.2V466.989h-3.6v-4.8h3.6v-7.2h6.3v7.2h5.751v4.8h-5.751v10.747a4.974,4.974,0,0,0,.853,3.271,3.976,3.976,0,0,0,3.1.975,7.111,7.111,0,0,0,3.049-.7v4.8a14.335,14.335,0,0,1-5.248.847A7.787,7.787,0,0,1,1476.692,484.731Z" transform="translate(77.246 3.677)"/><path id="Контур_9" data-name="Контур 9" d="M1479.771,459.579a3.338,3.338,0,0,1-1.025-2.5,3.5,3.5,0,0,1,3.549-3.552,3.514,3.514,0,0,1,2.549,1.025,3.391,3.391,0,0,1,1.05,2.527,3.3,3.3,0,0,1-1.05,2.5,3.561,3.561,0,0,1-2.549,1A3.474,3.474,0,0,1,1479.771,459.579Zm-.675,5.2h6.4v24h-6.4Z" transform="translate(90.935 1.086)"/><path id="Контур_10" data-name="Контур 10" d="M1483.48,458.059h6.1v3.249a10.393,10.393,0,0,1,4.049-3.024,12.831,12.831,0,0,1,4.948-.972q4.849,0,7.248,2.624a9.922,9.922,0,0,1,2.4,6.973v15.146h-6.3V467.506q0-5.245-4.9-5.246a8.4,8.4,0,0,0-4.049,1.025,8.653,8.653,0,0,0-3.2,3.071v15.7h-6.3Z" transform="translate(99.347 7.805)"/></g></svg>