<svg width="100" height="18" viewBox="0 0 100 18" fill="none" xmlns="http://www.w3.org/2000/svg"><path d="M8.291.557h.449v1.768L11.445.557c1.374.866 2.321 1.559 2.842 2.08.527.521.872 1.009 1.035 1.465.169.456.254 1.126.254 2.012v6.221L12.568 15c-.801-.325-1.494-.563-2.08-.713s-1.169-.247-1.748-.293v3.818H5.098v-3.994c-.977.059-1.784.205-2.422.439s-1.279.609-1.924 1.123L.439 15c.892-.97 1.66-1.65 2.305-2.041s1.429-.68 2.354-.869c-.007-.885-.12-1.595-.342-2.129-.221-.54-.622-1.029-1.201-1.465-.579-.443-1.318-.785-2.217-1.025v-.41a11.69 11.69 0 0 0 1.23-.693l2.529-1.66v-.684c0-.638-.062-1.104-.186-1.396-.124-.299-.355-.547-.693-.742s-.713-.293-1.123-.293c-.449 0-.951.166-1.504.498l-.254-.303c.456-.423.902-.732 1.338-.928A3.49 3.49 0 0 1 4.141.557c.592 0 1.13.127 1.611.381.488.247.833.56 1.035.938.208.371.319.876.332 1.514l1.172-.791V.557zm.449 5.449c.488.326.911.55 1.27.674a3.59 3.59 0 0 0 1.162.186c.41 0 .797-.062 1.162-.186.371-.124.804-.348 1.299-.674-.006-.56-.091-1.025-.254-1.396s-.511-.771-1.045-1.201c-.527-.43-1.305-.902-2.334-1.416l-1.26.84v3.174zm-.449-2.881l-1.172.781v13.477h1.172V3.125zM5.098 5.254L2.969 6.66c.443.195.82.404 1.133.625.313.215.645.501.996.859V5.254zM8.74 9.551c.521-.286.964-.485 1.328-.596.371-.111.749-.166 1.133-.166s.752.055 1.104.166c.358.104.801.303 1.328.596V6.514c-.54.313-.993.524-1.357.635-.358.104-.749.156-1.172.156-.404 0-.775-.049-1.113-.146s-.755-.29-1.25-.576v2.969zm0 2.539c.768.026 1.523.14 2.266.342.749.195 1.624.531 2.627 1.006v-3.33c-.488-.332-.911-.557-1.269-.674-.358-.124-.745-.186-1.162-.186s-.807.062-1.172.186c-.358.117-.788.342-1.289.674v1.982zm13.076-7.5l2.754 3.213-4.375 3.066v1.777l2.266.898 1.533-1.045.215.293L21.045 15c-.644-.345-1.175-.592-1.592-.742s-1.009-.306-1.777-.469v-.244c.221-.13.368-.29.439-.479.078-.195.117-.612.117-1.25V6.23l1.524-.605 2.061-1.035zm-1.484 1.123l-.137.068v4.424l2.568-1.797-2.432-2.695zm9.395-4.707v.254c-.514.267-.879.596-1.094.986-.208.384-.312.97-.312 1.758v8.682l1.113.83.43-.351.244.351L28.154 15c-.592-.514-1.035-.856-1.328-1.025s-.68-.322-1.162-.459v-.215a1.18 1.18 0 0 0 .42-.42 1.66 1.66 0 0 0 .215-.596c.013-.078.023-.469.029-1.172V4.141c0-.592-.023-1.003-.068-1.23-.046-.234-.137-.456-.273-.664-.137-.215-.368-.452-.693-.713l.156-.195c.592.169 1.123.514 1.592 1.035.488-.514.928-.866 1.318-1.055a3.46 3.46 0 0 1 1.367-.312zm1.142 4.658l2.725-3.369h.283l-.098 2.695h1.963v1.104h-1.963v6.572l1.094.811.625-.488.244.293L33.594 15c-.736-.749-1.569-1.257-2.5-1.523v-.195c.26-.176.433-.358.517-.547.111-.241.166-.589.166-1.045V6.094h-.908v-.43zM40.996 4.59l2.754 3.213-4.375 3.066v1.777l2.266.898 1.533-1.045.215.293L40.225 15c-.645-.345-1.175-.592-1.592-.742s-1.009-.306-1.777-.469v-.244c.221-.13.368-.29.439-.479.078-.195.117-.612.117-1.25V6.23l1.523-.605 2.061-1.035zm-1.484 1.123l-.137.068v4.424l2.568-1.797-2.432-2.695zm9.414-4.707v.254c-.495.326-.827.671-.996 1.035-.169.358-.254.941-.254 1.748v3.369l2.91-2.822 1.982 2.188-2.266 1.982c.514.365.898.762 1.152 1.191.26.423.462 1.048.605 1.875.143.82.257 1.292.342 1.416s.163.185.234.185c.078 0 .293-.133.645-.4l.186.313L51.191 15c-.267-.273-.465-.563-.596-.869s-.228-.752-.293-1.338L47.539 15a6.25 6.25 0 0 0-1.152-.889c-.365-.215-.82-.41-1.367-.586v-.186c.3-.202.492-.41.576-.625.085-.221.127-.771.127-1.65v-7.1c0-.56-.026-.951-.078-1.172-.072-.326-.179-.576-.322-.752-.137-.182-.361-.348-.674-.498l.146-.283c.391.143.684.277.879.4.202.117.449.313.742.586.423-.404.824-.697 1.201-.879.384-.189.82-.309 1.309-.361zm.518 5.195L47.676 7.91v2.607l3.213-2.744-1.445-1.572zm-1.768 4.824v1.689l1.152.801 1.426-1.172c-.169-1.094-.645-1.872-1.426-2.334l-1.152 1.016zM67.217.557h.449v1.768L70.371.557c1.374.866 2.321 1.559 2.842 2.08.527.521.872 1.009 1.035 1.465.169.456.254 1.126.254 2.012v6.221L71.494 15c-.801-.325-1.494-.563-2.08-.713s-1.169-.247-1.748-.293v3.818h-3.643v-3.994c-.976.059-1.784.205-2.422.439s-1.279.609-1.924 1.123L59.365 15c.892-.97 1.66-1.65 2.305-2.041s1.429-.68 2.353-.869c-.006-.885-.12-1.595-.342-2.129-.221-.54-.622-1.029-1.201-1.465-.579-.443-1.318-.785-2.217-1.025v-.41c.462-.228.872-.459 1.23-.693l2.529-1.66v-.684c0-.638-.062-1.104-.185-1.396-.124-.299-.355-.547-.693-.742s-.713-.293-1.123-.293c-.449 0-.951.166-1.504.498l-.254-.303c.456-.423.902-.732 1.338-.928a3.49 3.49 0 0 1 1.465-.303c.593 0 1.13.127 1.611.381.488.247.833.56 1.035.938.208.371.319.876.332 1.514l1.172-.791V.557zm.449 5.449c.488.326.912.55 1.27.674.365.124.752.186 1.162.186s.797-.062 1.162-.186c.371-.124.804-.348 1.299-.674-.007-.56-.091-1.025-.254-1.396s-.511-.771-1.045-1.201c-.527-.43-1.305-.902-2.334-1.416l-1.26.84v3.174zm-.449-2.881l-1.172.781v13.477h1.172V3.125zm-3.193 2.129L61.895 6.66c.443.195.82.404 1.133.625.313.215.645.501.996.859V5.254zm3.643 4.297c.521-.286.964-.485 1.328-.596.371-.111.749-.166 1.133-.166s.752.055 1.104.166c.358.104.801.303 1.328.596V6.514c-.54.313-.993.524-1.357.635-.358.104-.749.156-1.172.156-.404 0-.775-.049-1.113-.146s-.755-.29-1.25-.576v2.969zm0 2.539c.768.026 1.523.14 2.266.342.749.195 1.624.531 2.627 1.006v-3.33c-.488-.332-.912-.557-1.269-.674-.358-.124-.746-.186-1.162-.186s-.807.062-1.172.186c-.358.117-.788.342-1.289.674v1.982zm15.908-6.074v7.305l-2.119.977c-.332.189-.651.423-.957.703-.944-.573-1.725-.97-2.344-1.191-.469-.169-.999-.267-1.592-.293l-.098-.195c.247-.208.404-.397.469-.566.091-.221.137-.596.137-1.123V6.27c1.191-.397 2.21-.957 3.057-1.68.924.612 2.074 1.087 3.447 1.426zm-4.531 6.357l2.549 1.045V7.207l-1.699-.732c-.234-.085-.518-.156-.85-.215v6.113zm11.494-4.16l2.256 1.182v4.111c-.547.052-1.042.185-1.484.4s-.944.579-1.504 1.094c-.482-.287-.902-.485-1.26-.596-.352-.111-.726-.166-1.123-.166-.612 0-1.156.185-1.631.557-.176.137-.303.205-.381.205-.072 0-.143-.036-.215-.107s-.107-.143-.107-.215c0-.078.068-.182.205-.312.078-.078.212-.228.4-.449l.889-1.104 1.26-1.67-2.139-1.152V6.348c.671-.208 1.195-.439 1.572-.693.384-.26.752-.615 1.103-1.064l2.012.742a4.04 4.04 0 0 0 1.045.146c.365 0 .648-.078.85-.234.202-.163.303-.332.303-.508 0-.117-.065-.234-.195-.352-.254-.228-.381-.449-.381-.664 0-.202.055-.361.166-.479a.49.49 0 0 1 .371-.186c.182 0 .345.085.488.254.15.163.225.381.225.654a2.02 2.02 0 0 1-.176.82c-.117.267-.342.612-.674 1.035l-1.875 2.393zm-2.861.674l1.338.693 2.129-2.832c-.436.124-.814.186-1.133.186-.801 0-1.579-.267-2.334-.801v2.754zm1.68.889l-2.354 3.154c.286-.098.553-.169.801-.215s.472-.068.674-.068c.749 0 1.527.247 2.334.742v-2.832l-1.455-.781zm4.892-4.111l2.725-3.369h.283l-.098 2.695h1.963v1.104h-1.963v6.572l1.094.811.625-.488.244.293L96.973 15c-.736-.749-1.569-1.257-2.5-1.523v-.195c.26-.176.433-.358.517-.547.111-.241.166-.589.166-1.045V6.094h-.908v-.43z" fill="#000"/></svg>