<svg xmlns="http://www.w3.org/2000/svg" width="185" height="126" viewBox="0 0 185 126" fill="none"><style>.B{fill:#aeb1b7}.C{fill-rule:evenodd}.D{fill:#196ffd}</style><g filter="url(#A)"><path d="M158.28 75.828c-2.118-3.181-4.905-5.622-7.928-7.935-3.059-2.332-6.19-4.555-9.303-6.833-3.186-2.332-6.353-4.718-9.684-6.851-3.312-2.133-6.805-3.959-10.317-5.73-3.439-1.717-7.113-3.922-11.023-3.904-.85-1.03-2.298-1.392-3.565-.868-1.358.578-2.245 2.151-1.774 3.633.706 2.278 1.9 4.248 3.439 5.947-7.874-2.296-16.109-3.254-24.272-3.904-1.9-.145-3.873-.452-5.774-.38-2.715.108-5.321 1.735-5.34 4.736 0 2.784 2.136 4.483 4.435 5.549l6.172 2.82 6.824 3.109c.688.325 1.394.687 2.118.958-.163.126-.326.271-.489.416-1.195 1.103-1.973 2.675-2.389 4.212-.38 1.374-.652 2.946-.579 4.374.145 2.567 1.882 4.031 4.091 4.971.344.145.688.289 1.032.416-1.231 1.085-2.082 2.549-1.919 4.32.127 1.319.851 2.332 1.864 2.784-.054.741.09 1.5.453 2.223 1.05 2.115 2.95 2.585 4.941 2.458-.036.325-.054.669-.036 1.012.109 1.88.995 3.471 2.208 4.862 1.991 2.278 4.833 4.085 7.62 5.206 1.394.56 2.914.886 4.416.886 1.865 0 4.163-.452 5.213-2.151.326-.543.525-1.121.561-1.736 2.335.344 4.67.452 7.023.434 2.679.705 5.43 1.139 8.163 1.5 1.846.235 3.675.416 5.521.597.959.09 1.955.271 2.896 0 1.574-.47 2.751-1.916 2.769-3.579 0-1.03-.344-1.826-.652-2.784l-.162-.597c0-.072-.019-.127-.037-.199v-.054c0-.47-.018-.922 0-1.392v-.127c.055-.307.109-.615.199-.94.091-.416.218-.831.344-1.247.018-.072.055-.163.073-.235 1.412-1.808 2.769-3.633 4.09-5.495a10.66 10.66 0 0 0 1.141-.524c2.135-1.193 3.547-3.217 4.633-5.35.616.09 1.267-.036 1.846-.398 1.34-.849 2.064-2.766 1.105-4.212h.054zM137.592 88.3l.778.289-.815.687c0-.325 0-.651.018-.976h.019zm-36.11-30.331c-.145-.054-.271-.09-.416-.145l.525.108c-.037 0-.073 0-.109.018v.018zm18.372 33.585c-.598-.38-1.177-.759-1.738-1.193.054.036-.525-.434-.634-.524l-.434-.38c.181-.199.344-.434.471-.687.561-.09 1.122-.38 1.574-.868.344-.38.688-.741 1.068-1.084.652.235 1.376.271 2.027.108l.326 1.808c.398 2.169 3.729 3.073 5.141 1.356.036-.054.072-.09.108-.127v.795c0 1.898 1.828 3.236 3.53 3.037 0 .253 0 .506-.018.759l-2.118.09a69.68 69.68 0 0 1-1.973.072c-2.606-.759-5.104-1.771-7.33-3.145v-.018zM83.961 55.529c-.018.036-.036.054-.072.09-.091-.036-.163-.072-.253-.108.109 0 .199 0 .308.018h.018zm22.897 39.351c-.398-.343-.779-.723-1.122-1.139l-.037-.036c-.018-.036-.036-.09-.072-.145-.018-.036-.127-.289-.199-.416v-.09V93c0-.036.036-.09.036-.127 0 0 .036-.054.072-.127a13.56 13.56 0 0 1 .417-.669 14.72 14.72 0 0 1 .47-.651c0 .018.218-.271.272-.361l.271-.325 1.756-.416c.471.362 1.032.615 1.611.687.109.181.235.362.362.542-1.068.018-2.118.524-2.643 1.5-.416.795-.525 1.771-.217 2.621-.036-.018-.054-.036-.09-.072-.055-.036-.254-.199-.326-.253-.181-.145-.38-.307-.543-.47h-.018z" fill="#fff"/><path d="M140.053 100.357l2.317-7.212 1.719-5.26c.489-1.609 1.539-2.82 2.607-4.067l1.991-2.44 3.077-3.398c.959-.94 2.063-1.699 3.059-2.585 2.19-1.952 4.633-1.717 7.113-.832l4.941 1.934c3.403 1.356 6.553 3.181 9.593 5.188.978.651 2.009 1.229 2.969 1.898.307.217.543.615.651.994.471 1.645.254 3.199-.235 4.862-1.122 3.742-3.131 6.833-5.919 9.562-1.828 1.772-3.764 3.471-5.031 5.766-1.086 1.971-1.376 4.049-1.159 6.273a51.85 51.85 0 0 1 .272 4.754c0 1.211-.887 1.934-2.028 1.536-3.276-1.121-6.552-2.223-9.755-3.543-3.639-1.5-7.114-3.416-10.951-4.446-1.756-.47-3.059-1.645-4.109-3.091-.669-.94-1.466-1.754-2.606-2.061-1.901-.506-3.819-1.048-5.756-1.319-1.231-.163-2.552.307-3.801.198-2.099-.18-4.199-.578-6.299-.903-.977-.163-1.936-.398-2.914-.597-.525-.108-1.068-.163-1.574-.307-.616-.181-.869.018-1.05.614-.398 1.284-.815 2.549-1.303 3.796-.308.759-1.648 1.266-2.589 1.049-1.231-.29-2.498-.506-3.71-.886-1.828-.56-3.602-1.229-5.412-1.862-.833-.307-1.665-.651-2.498-.994-1.158-.488-2.027-1.139-2.262-2.549-.308-1.916-.833-3.778-1.249-5.675-.145-.669.453-1.157 1.195-.94.815.235 1.122.868 1.394 1.609.507 1.338 1.104 2.639 1.719 3.922.145.289.489.56.797.651l7.747 2.313c.235.072.47.072.706.091.778.072 1.176-.199 1.303-1.049.09-.687.38-1.392.742-1.988.38-.615.108-.723-.362-.994-.778-.434-1.575-.868-2.245-1.464-.705-.633-.832-1.681-.47-2.296.525-.868 1.502-1.41 2.461-1.048 1.213.47 2.444 1.048 3.494 1.789 1.611 1.139 3.022 2.368 5.231 2.404 1.611 0 3.203.813 4.832 1.012a21.2 21.2 0 0 0 4.543.036c2.227-.235 4.308.235 6.39.85.832.235 1.647.506 2.353.723l.072-.018zm30.263-10.574c1.629-.036 2.661-1.121 2.444-2.259-.235-1.139-.507-2.278-1.901-2.621-.398-.09-.742-.38-1.122-.578-3.023-1.609-6.009-3.254-9.285-4.356-1.774-.597-2.896.199-4.109 1.085-.181.145-.326.47-.326.705-.036.705.833 1.934 1.539 2.169 1.267.434 2.606.723 3.819 1.283 2.208 1.03 4.326 2.205 6.498 3.308l2.461 1.247-.018.018z" fill="#030303"/><path d="M83.473 62.343l-7.892-1.934-4.199-1.048c-.525-.127-1.158-1.392-1.213-2.241l-.235-3.742c.018-1.374.109-2.747.398-4.085.127-.578.742-1.157 1.285-1.518 1.593-1.03 3.349-1.048 5.213-.723 3.493.633 7.023 1.084 10.534 1.609.887.127 1.792.199 2.679.416 1.394.325 2.751.777 4.145 1.121 1.448.361 2.896.633 4.344.976 1.195.271 2.371.596 3.584.904l.452-4.284.453-3.633c.072-.705.163-1.41.163-2.115.054-2.549 2.624-4.465 4.995-3.109 1.448.831 2.824 1.862 4.326 2.549 1.901.868 3.946 1.41 5.864 2.223 2.317.976 4.616 2.006 6.824 3.163 4.181 2.187 8.326 4.447 12.417 6.779 1.14.651 2.136 1.663 3.059 2.639l8.108 8.676c.362.398.598.922.96 1.32.85.922 1.737 1.808 2.624 2.693 1.032 1.048 2.208 2.025 2.263 3.633 0 .398-.272.976-.579 1.139-.362.181-1.195.199-1.358-.036-1.158-1.573-2.968-2.35-4.308-3.651-2.932-2.838-5.846-5.712-8.615-8.731-2.752-3.019-6.1-5.097-9.666-6.941l-10.914-5.802c-1.14-.578-2.389-.976-3.62-1.374-2.57-.832-5.14-1.627-7.331-3.254-.144-.108-.307-.163-.561-.289-.235 1.229-.488 2.404-.651 3.597-.163 1.32-.145 2.675-.362 3.977-.199 1.103.362 1.536 1.212 1.952l9.793 4.808c.543.271 1.013.633 1.556.922 1.955 1.012 2.407 2.729 2.118 4.7-.272 1.934 0 3.796.434 5.658.579 2.585 1.593 4.989 3.276 7.031.58.723 1.358 1.338 2.154 1.808.905.542 1.394 1.157 1.231 2.061-.163.958-.814 1.537-1.9 1.555-1.684 0-3.077-.705-4.163-1.97-2.715-3.145-4.381-6.778-5.123-10.882-.362-1.988-.543-3.959-.289-5.965.036-.235-.272-.651-.525-.777l-7.657-3.832c-1.484-.723-2.968-1.428-4.488-2.061-.652-.271-1.394-.361-2.082-.524l-9.792-2.314c-1.774-.452-3.62-.361-5.394-.705-2.263-.434-4.507-1.048-6.769-1.482a60.42 60.42 0 0 0-5.43-.777c-.941-.09-1.738.976-1.52 2.097.253 1.265.652 2.495 1.086 3.706.091.253.543.47.851.524l13.81 2.332c.887.163 1.756.452 2.606.723l7.095 2.314c.977.343 1.901.868 1.991 2.097.109 1.247-.742 1.97-1.629 2.513-1.357.813-2.824 1.482-4.253 2.205-2.19 1.121-4.217 2.44-5.81 4.338-.145.163-.163.614-.036.795.833 1.247 1.756 2.422 2.57 3.669 1.195 1.844 2.805 1.916 4.742 1.446 3.059-.759 6.172-1.374 9.267-2.024.489-.108.796-.253.869-.832.108-.94.325-1.88.506-2.82.127-.615-.181-.759-.705-.669l-5.34.832c-.977.127-2.009.235-2.95.036-.507-.108-1.086-.795-1.285-1.338-.145-.38.29-.994.525-1.482.091-.181.38-.289.579-.434l1.665-.108c.235 0 .471-.036.706-.054l2.371-.687.344-.054 4.959-.542c.163.036.344.054.507.09l1.285.542 1.466 1.464.38 1.084c0 .181 0 .362-.018.542v.362.542l-.289 1.103c0 .235-.037.47-.055.705l-.669 3.272a3.75 3.75 0 0 0-.145.253c-.091.217-.163.434-.254.633a.48.48 0 0 0-.09.108c-.109.127-.217.271-.326.398l-1.249.795-2.733.343c-.108 0-.217.018-.344.036l-5.086 1.193c-.108.036-.217.054-.326.09l-3.837.832c-.109 0-.235 0-.344.018-1.701.181-3.348-.145-4.941-.723-2.063-1.374-3.367-3.434-4.887-5.296l-.308-.416c0-.054-.036-.09-.072-.126-.09-.145-.181-.289-.253-.452 0-.054-.018-.09-.054-.109-.091-.307-.127-.633-.272-.922-.543-1.03-.615-2.133-.471-3.272.072-.108.127-.235.199-.343l.163-.38c.054-.018.072-.054.091-.108l.543-.542.543-.542 2.86-2.567c.127-.108.272-.217.398-.325.054 0 .091-.036.127-.072.145-.09.29-.181.453-.271.091-.09.199-.163.29-.253.145-.108.29-.199.416-.307.054 0 .091-.018.109-.072.145-.09.29-.199.434-.289.09-.054.181-.09.271-.145l.489-.163c.145-.109.308-.199.434-.325.272-.253.525-.524.796-.795l-.887-.669-1.14-.271h-.724l-2.19-.651-.434-.163c-1.339-.506-2.661-.976-4.127-.687l-.09.163z" fill="#060707"/><path d="M47.744 90.361c4.706.579 9.086-.669 13.394-2.314.217-.09.453-.127.688-.181-.181.145-.326.343-.543.434-2.697 1.157-5.376 2.386-8.127 3.416-.851.325-1.901.127-2.842.253-2.118.271-4.235.488-6.335.886-2.081.398-4.127.289-6.172-.145-6.371-1.32-12.109-4.085-17.231-7.99-2.154-1.645-3.801-3.922-5.683-5.911-3.33-3.507-5.611-7.7-7.946-11.876-1.575-2.802-2.1-5.802-2.172-8.911-.072-3.434.054-6.869.09-10.285 0-.217-.127-.452-.145-.669-.054-.596-.109-1.211-.072-1.808.018-.524.091-1.084.272-1.573.326-.886.67-1.79 1.14-2.621l5.846-10.357c.091-.163.235-.325.217-.488-.072-1.175.76-1.735 1.52-2.386 1.195-1.048 2.353-2.151 3.529-3.218.398-.343.833-.651 1.249-.976-.706 1.084-1.321 2.223-2.118 3.218-3.656 4.501-5.394 9.761-6.371 15.346-.072.38-.163.741-.235 1.121-.145.235-.344.47-.416.723-.29 1.066-.633 2.133-.796 3.217-.615 3.941-.434 7.917-.271 11.876 0 .289.145.578.217.868.833 3.181 2.154 6.146 3.765 8.984.579 1.012 1.376 1.916 1.828 2.983 1.213 2.856 3.348 4.953 5.502 7.031 1.158 1.121 2.462 2.115 3.747 3.109 2.986 2.314 6.027 4.537 9.665 5.82 1.991.705 3.982 1.301 6.1 1.428l7.312.922c.471.054.941 0 1.412 0l-.018.072z" fill="#040404"/><path d="M97.283 93.127l-3.584-.669c-1.05-.235-1.756-.994-2.118-1.952-.525-1.356-.941-2.766-1.339-4.176-.091-.361.054-.831.199-1.211.199-.524.996-.687 1.466-.253.38.343.67.832.923 1.283l1.52 2.729a1.6 1.6 0 0 0 1.104.615c1.285.036 2.588.108 3.819-.145 1.267-.271 2.443-.94 3.656-1.41l3.222-1.139c.416-.163.778-.434 1.213-.56.959-.289 1.918-.669 2.896-.741.832-.054 1.592.849 1.683 1.627.09.904-.453 1.844-1.285 2.169l-7.783 2.946c-1.81.723-3.657.868-5.611.904l.018-.018z" fill="#080808"/><path d="M138.588 18.618c-.362.506-.634 1.32-1.141 1.518-1.882.687-3.185 2.115-4.633 3.344l-7.041 6.182a10.98 10.98 0 0 1-1.394 1.012c-.489.307-.977.289-1.376-.181-.416-.488-.253-.976.145-1.374l8.073-8.478c1.213-1.229 2.606-2.314 3.964-3.398 1.068-.831 2.208-.723 2.86.199.199.271.289.633.524 1.175h.019z" fill="#070707"/><path d="M120.288 13.973c-.09.217-.217.687-.507 1.066-2.769 3.778-5.104 7.791-6.552 12.274-.072.199-.127.398-.235.596-.29.56-.706.904-1.376.669-.651-.217-.905-.759-.742-1.374.362-1.41.76-2.838 1.231-4.212 1.14-3.272 2.697-6.345 4.543-9.255.38-.615 1.068-1.157 1.738-1.446.941-.398 1.918.434 1.882 1.699l.018-.018z" fill="#090909"/><path d="M98.351 21.438l.814-7.049c.217-1.536.887-2.205 2.009-2.259.869-.036 1.756.651 2.118 1.645.308.868.036 1.5-.688 2.024-.217.163-.434.434-.489.705l-1.393 7.23c-.199 1.283-.543 1.934-1.34 1.88-.67-.054-.977-.705-.959-1.934v-2.241h-.072z" fill="#0a0a0a"/><path d="M141.211 33.133c.236.199.833.47.996.904s0 1.121-.254 1.536c-.343.506-.886.94-1.448 1.175-.416.181-1.104.163-1.484-.09-.344-.217-.561-.832-.561-1.283-.018-.759 1.683-2.241 2.751-2.26v.018z" fill="#0c0c0c"/><path d="M90.767 82.859c1.593.578 3.222.904 4.941.723-.398.108-.814.325-1.213.307-1.303-.072-2.643-.09-3.71-1.03h-.018z" class="B"/><path d="M100.197 82.624l5.086-1.193-3.204.958c-.615.163-1.267.163-1.9.235h.018z" class="B"/><path d="M107.835 69.122l-4.959.542c1.593-.741 3.222-1.066 4.959-.542z" class="B"/><path d="M83.473 62.343c1.466-.289 2.805.181 4.127.687l-1.629-.235c-.29-.018-.579.072-.869.127l-1.629-.578z" class="B"/><path d="M84.414 72.285c-.127 1.139-.072 2.223.471 3.272.145.271.181.615.272.922-.923-1.139-1.177-2.476-1.032-3.886 0-.108.181-.199.29-.289v-.018z" class="B"/><path d="M110.025 79.732l.254-.633-.254.633z" class="B"/><path d="M85.229 76.587l.253.452-.253-.452z" class="B"/><path d="M89.772 67.116l-.453.271.453-.271z" class="B"/><path d="M90.477 66.555l-.416.307.416-.307z" class="B"/><path d="M39.019 89.421c-2.118-.145-4.109-.741-6.1-1.428-3.638-1.283-6.679-3.507-9.665-5.82-1.285-.994-2.588-1.97-3.747-3.109-2.154-2.079-4.29-4.175-5.502-7.032-.453-1.066-1.249-1.97-1.828-2.983-1.629-2.838-2.95-5.82-3.765-8.984-.072-.289-.199-.578-.217-.868-.163-3.959-.344-7.935.272-11.876.163-1.085.507-2.151.796-3.218.072-.253.271-.488.416-.723l-.145 5.116c0 1.464.145 2.928.199 4.392.018.524-.036 1.067 0 1.591.127 1.211.127 2.476.471 3.633.977 3.416 1.864 6.887 3.204 10.177 2.661 6.489 6.878 11.731 13.267 15.003 2.57 1.32 5.068 2.784 7.638 4.049 1.502.741 3.131 1.229 4.688 1.826v.271l.018-.018z" fill="#f6f7fa"/><path d="M39.019 89.421v-.271l8.163.868c.199.018.38.217.561.344h-1.412l-7.312-.922v-.018z" fill="#e2e7ef"/><path d="M170.316 89.783l-2.461-1.247-6.498-3.308c-1.213-.56-2.552-.85-3.819-1.283-.688-.235-1.575-1.464-1.539-2.169 0-.253.145-.578.326-.705 1.231-.886 2.335-1.681 4.109-1.085 3.276 1.103 6.262 2.748 9.285 4.356.38.199.724.488 1.122.578 1.394.344 1.683 1.482 1.901 2.621.235 1.139-.815 2.223-2.444 2.26l.018-.018z" fill="#f8f8f8"/><path d="M57.521 29.786c.869-.557 1.957-.799 3.082-.552.925.203 1.546.701 1.852.984.334.308.574.625.722.836.23.328.571.926.492.795l1.469 2.589c.816 1.543 1.435 3.166 1.836 4.855.525.005 1.057.132 1.554.394a3.39 3.39 0 0 1 1.411 4.581l-.933 1.773-3.04 5.611-.746 1.171a5.21 5.21 0 0 1-.511.601l-.002.002a3.7 3.7 0 0 1-1.503.92c-.499.156-1.255.265-2.102-.011a3.45 3.45 0 0 1-1.787-1.342c-.551-.809-.598-1.624-.608-1.813v-.009l-.004-.376-.1-.082a3.37 3.37 0 0 1-.248-.236 3.45 3.45 0 0 1-.871.404 3.41 3.41 0 0 1-1.841.557c-.946 1.52-2.928 2.051-4.517 1.178-.685-.376-1.188-.954-1.477-1.619l-2.929 3.222c-2.372 2.706-4.515 5.646-6.572 8.727-1.04 1.557-3.147 1.978-4.706.94s-1.981-3.143-.941-4.7c2.152-3.224 4.478-6.425 7.112-9.431 4.1-4.679 8.529-9.008 13.075-13.125l.047-.468c.064-.593.166-1.374.334-2.155.153-.71.422-1.732.95-2.626.269-.456.736-1.105 1.504-1.597zm7.948 21.411s.001-.011.005-.036c-.003.022-.005.036-.005.036z" class="C D"/><path d="M18.403 23.697l4.416-3.109c.561-.416 1.068-.976 1.466-1.555 1.032-1.446 2.606-2.097 4.109-2.802l8.036-3.416c.905-.361 1.919-.669 2.86-.615 1.846.09 3.529-.615 5.285-.832 1.955-.235 3.964-.235 5.937-.127.977.054 1.919.651 2.896.94l9.466 2.639c1.05.307 2.1.759 3.059 1.319l7.475 4.555c.67.434 1.249 1.048 1.846 1.573l4.091 3.669c.199.181.507.38.507.596.145 1.88 1.484 3.199 2.263 4.754l4.706 8.604c.67 1.392 1.267 3.037.525 4.7-.072.181-.054.416-.036.615l.036 3.434-10.534-1.609c-1.864-.325-3.602-.325-5.213.723-.543.343-1.158.94-1.285 1.518-.29 1.319-.38 2.711-.398 4.085-.018 1.247.163 2.495.235 3.742.054.85.688 2.097 1.213 2.241l4.199 1.048 7.892 1.934 1.629.578.778.361c-1.593 2.729-2.914 5.586-4.778 8.026-2.733 3.597-5.683 7.104-8.887 10.285-1.81 1.808-4.308 2.928-6.534 4.302-1.231.759-2.57 1.338-3.873 2.006-.235.054-.453.09-.688.181-4.308 1.645-8.706 2.892-13.394 2.314-.181-.109-.362-.307-.561-.344l-8.163-.868c-1.575-.597-3.186-1.085-4.688-1.826-2.588-1.265-5.086-2.729-7.638-4.049-6.389-3.272-10.607-8.514-13.267-15.003-1.339-3.272-2.226-6.76-3.204-10.177-.326-1.157-.344-2.404-.471-3.633-.054-.524 0-1.067 0-1.591-.072-1.464-.199-2.928-.199-4.392 0-1.699.091-3.416.145-5.115.072-.38.181-.741.235-1.121.977-5.586 2.733-10.846 6.371-15.346.796-.994 1.412-2.133 2.118-3.218h.018zm41.25 8.93c-.579 0-1.339-.253-1.719 0-.887.633-1.901 1.157-2.425 2.259-.887 1.862-1.919 3.669-2.914 5.495l-2.027 3.724c-1.973 3.742-3.711 7.628-6.462 10.9-2.968-2.187-5.919-4.392-8.236-7.538l-1.52.795c-.326-.108-.688-.343-.995-.307-1.52.235-2.679 1.121-3.548 2.314-.724 1.012-1.502 1.916-2.57 2.585-.959.596-1.086 1.229-.851 2.314.362 1.645 1.394 2.802 2.425 4.031 2.208 2.639 4.489 5.188 7.566 6.869.579.325 1.104.741 1.665 1.085 1.683 1.067 3.33 2.169 5.05 3.145 1.52.868 3.439.181 3.892-1.265 1.321.38 2.534-.036 3.294-1.121.416-.597.814-1.193 1.267-1.771l13.485-17.66 2.679-3.597c.561-.777.525-2.043-.145-2.693-2.697-2.603-4.796-5.622-6.462-8.966-.326-.669-.742-.886-1.43-.633l-.018.036z" class="D"/><path d="M52.705 30.016a8.64 8.64 0 0 1 .808.276l5.091 2.194 1.162.26a3.38 3.38 0 0 1 1.841 1.084l.845.359c1.877.794 4.112 1.74 6.068 3.001.53.341.956.707 1.255.971l.268.238.404.348.022.017c.235.184 1.373 1.072 1.537 2.681.146 1.435-.609 2.506-.759 2.719l-.017.025c-1.413 2.066-3.148 4.089-4.719 5.92l-1.836 2.171-.269.327-1.337 1.662c-.263 2.665-.967 5.45-3.137 8.055-2.098 2.518-4.674 4.687-6.92 6.579l-.861.727-1.373 1.18-3.72 3.103c-.498.385-1.44.983-2.711.966-1.515-.021-2.572-.881-3.13-1.7-.482-.708-.655-1.44-.729-1.883l-.068-.574a5.04 5.04 0 0 1-.625.456l-.004.002c-.214.13-1.823 1.106-3.622.075a3.54 3.54 0 0 1-1.348-1.384c-.182-.335-.276-.634-.317-.774-.064-.217-.123-.496-.141-.581l-.005-.022c-.144-.656-.282-1.819-.354-2.448-.946.227-2.411.276-3.683-.983-.544-.538-.839-1.145-1.005-1.651-.219-.082-.44-.189-.659-.326-.993-.623-1.378-1.534-1.51-1.887l-.085-.25a3.41 3.41 0 0 1-1.857.123c-1.686-.357-2.361-1.698-2.559-2.336-.182-.587-.16-1.082-.15-1.248.034-.601.232-1.166.287-1.324l.007-.019c.175-.507.442-1.134.645-1.528.931-1.808 1.766-3.088 2.896-4.662l.961-1.275c.354-.446.959-1.181 1.578-1.688 1.165-.953 2.465-.917 3.191-.77a4.93 4.93 0 0 1 1.442.555l.488.299c.761.227 1.388.186 2.228-.15l.021-.011a4.16 4.16 0 0 1 .96-.36c.465-.109 1.868-.327 3.125.745 1.155.985 1.245 2.284 1.255 2.704.011.473-.066.949-.102 1.165l-.024.138.373-.331 3.783-3.375.649-.583a3.4 3.4 0 0 1 4.793.253 3.38 3.38 0 0 1 .85 2.642l2.048-2.024c.875-.86 1.29-1.221 2.233-1.94l.641-.47.176-.172c.145-.135.574-.528 1.228-.789a3.6 3.6 0 0 1 2.976.136 3.71 3.71 0 0 1 .669.437l2.219-2.657c-1.205-.687-2.501-1.238-3.985-1.869l-1.725-.742-2.008-.9c-1.623-.406-3.325-.937-5.009-1.756-.256-.125-.995-.565-1.448-.885-.111-.078-.349-.249-.581-.468l-.005-.005a3.64 3.64 0 0 1-.67-.853c-.129-.229-.437-.829-.441-1.665-.004-1.059.488-2.092 1.384-2.753.707-.522 1.412-.623 1.688-.652a3.57 3.57 0 0 1 .749.002c.297.032.541.095.664.129zm1.108.713zm11.812 9.636l-.003.004.003-.004zM36.029 65.549l-.017.015.017-.015zm6.881 2.996l-.01.008zM56.7 45.606c-.017.018-.013.012.009-.01l-.009.01zm-22.501 1.599s-.013-.007-.043-.026l.043.026z" class="C D"/><path d="M44.032 33.474a3.38 3.38 0 0 0-1.604-.401c-1.874 0-3.394 1.517-3.394 3.389l-.04 2.449-.019 4.754.039 3.22c-.679.081-1.261.136-2.007.122l-1.159-.022-5.791-.075c-1.874 0-3.394 1.517-3.394 3.389 0 .482.101.941.282 1.356a3.37 3.37 0 0 0-.406 1.609c0 1.872 1.52 3.389 3.394 3.389.692 0 1.366.074 2.257.172l.506.055c2.402.258 4.77.178 6.928.087l.098.829c.077.797.084 1.622.09 2.629v.03l.131 3.215.017.179.173 1.45c.087.537.295 1.707.953 2.693.924 1.385 2.692 1.871 4.169 1.232.459.126.952.156 1.453.073a3.39 3.39 0 0 0 2.79-3.9c-.045-.27-.066-.537-.068-.911l-.116-3.718-.001-.025-.111-3.491-.002-.288 1.423.002c1.712-.008 3.632-.069 5.565-.444 1.141-.221 2.012-.363 2.816-.363 1.874 0 3.394-1.517 3.394-3.389a3.39 3.39 0 0 0-.113-.872c.044-.218.067-.443.067-.674a3.37 3.37 0 0 0-.582-1.899l.01-.261c0-1.872-1.519-3.389-3.394-3.389-1.913 0-4.039.078-6.066.345l-3.513.29-.013-.594-.405-9.288c-.162-1.865-1.808-3.245-3.675-3.083a3.42 3.42 0 0 0-.683.13z" fill="#000" class="C"/><path d="M46.295 31.214a3.38 3.38 0 0 0-1.603-.402c-1.874 0-3.394 1.517-3.394 3.389l-.04 2.449-.019 4.754.039 3.22c-.679.081-1.261.136-2.007.122l-1.159-.022-5.791-.075c-1.874 0-3.394 1.517-3.394 3.389 0 .482.101.941.282 1.356a3.37 3.37 0 0 0-.406 1.609c0 1.872 1.519 3.389 3.394 3.389.692 0 1.366.074 2.258.172l.506.055c2.402.258 4.77.178 6.928.087l.098.829c.077.797.084 1.622.09 2.629v.03l.131 3.215.017.179.173 1.45c.087.537.295 1.707.953 2.693a3.4 3.4 0 0 0 4.169 1.232c.459.126.952.156 1.453.073a3.39 3.39 0 0 0 2.79-3.9c-.045-.27-.066-.537-.068-.911l-.116-3.718-.001-.025-.111-3.491-.002-.288 1.423.002c1.712-.008 3.632-.069 5.565-.444 1.141-.222 2.012-.363 2.816-.363 1.874 0 3.394-1.517 3.394-3.389a3.39 3.39 0 0 0-.113-.872c.044-.218.067-.443.067-.674a3.37 3.37 0 0 0-.582-1.899l.01-.261c0-1.872-1.519-3.389-3.394-3.389-1.913 0-4.039.078-6.066.345l-3.513.29-.013-.594-.405-9.288c-.162-1.865-1.808-3.245-3.675-3.083a3.41 3.41 0 0 0-.683.13z" fill="#fff" class="C"/></g><defs><filter id="A" x="-1" y="0" width="189" height="132" filterUnits="userSpaceOnUse" color-interpolation-filters="sRGB"><feFlood flood-opacity="0" result="A"/><feColorMatrix in="SourceAlpha" values="0 0 0 0 0 0 0 0 0 0 0 0 0 0 0 0 0 0 127 0" result="B"/><feOffset dy="4"/><feGaussianBlur stdDeviation="2"/><feComposite in2="B" operator="out"/><feColorMatrix values="0 0 0 0 0 0 0 0 0 0 0 0 0 0 0 0 0 0 0.25 0"/><feBlend in2="A"/><feBlend in="SourceGraphic"/></filter></defs></svg>