<svg width="198" height="18" viewBox="0 0 198 18" fill="none" xmlns="http://www.w3.org/2000/svg"><path d="M112.046 16.3677C111.105 16.3677 110.279 16.2106 109.567 15.8964C108.869 15.5823 108.284 15.1633 107.814 14.6397C107.357 14.103 107.008 13.5073 106.766 12.8528C106.538 12.1983 106.424 11.5306 106.424 10.8499V10.4768C106.424 9.76989 106.538 9.08917 106.766 8.43462C107.008 7.76698 107.357 7.17789 107.814 6.66735C108.284 6.14371 108.862 5.73135 109.547 5.43026C110.232 5.11608 111.025 4.95898 111.925 4.95898C113.107 4.95898 114.094 5.21426 114.887 5.7248C115.693 6.22226 116.297 6.88335 116.7 7.70808C117.103 8.51971 117.305 9.3968 117.305 10.3393V11.3212H107.613V9.65208H115.552L114.685 10.4768C114.685 9.79608 114.585 9.21353 114.383 8.72917C114.182 8.2448 113.873 7.87171 113.456 7.60989C113.053 7.34808 112.543 7.21717 111.925 7.21717C111.307 7.21717 110.783 7.35462 110.353 7.62953C109.923 7.90444 109.594 8.30371 109.366 8.82735C109.151 9.33789 109.043 9.95317 109.043 10.6732C109.043 11.3408 109.151 11.9364 109.366 12.4601C109.581 12.9706 109.91 13.3764 110.353 13.6775C110.796 13.9655 111.361 14.1095 112.046 14.1095C112.731 14.1095 113.288 13.9786 113.718 13.7168C114.148 13.4419 114.423 13.1081 114.544 12.7153H117.123C116.962 13.4484 116.653 14.0899 116.197 14.6397C115.74 15.1895 115.155 15.615 114.444 15.9161C113.745 16.2172 112.946 16.3677 112.046 16.3677Z" fill="#0B0DE6"/><path d="M97.8142 15.9946L94.3887 5.33203H97.2701L100.555 15.9946H97.8142ZM98.6403 15.9946V13.756H101.602V15.9946H98.6403ZM99.7486 15.9946L102.57 5.33203H105.27L102.308 15.9946H99.7486Z" fill="#0B0DE6"/><path d="M89.588 15.9948V5.33228H92.3889V15.9948H89.588ZM88.0566 7.37446V5.33228H92.3889V7.37446H88.0566ZM90.6157 4.05591C90.0649 4.05591 89.6552 3.91846 89.3865 3.64355C89.1313 3.35555 89.0037 3.00209 89.0037 2.58318C89.0037 2.13809 89.1313 1.77809 89.3865 1.50318C89.6552 1.22828 90.0649 1.09082 90.6157 1.09082C91.1665 1.09082 91.5695 1.22828 91.8247 1.50318C92.0799 1.77809 92.2075 2.13809 92.2075 2.58318C92.2075 3.00209 92.0799 3.35555 91.8247 3.64355C91.5695 3.91846 91.1665 4.05591 90.6157 4.05591Z" fill="#0B0DE6"/><path d="M85.1425 16.1325C84.135 16.1325 83.3021 16.0081 82.6439 15.7594C81.9991 15.4976 81.5155 15.0656 81.1931 14.4634C80.8707 13.8481 80.7095 13.0234 80.7095 11.9892L80.7296 2.32812H83.3491L83.329 12.1659C83.329 12.6896 83.47 13.0954 83.7521 13.3834C84.0476 13.6583 84.4641 13.7958 85.0014 13.7958H86.7142V16.1325H85.1425ZM78.9766 7.3354V5.33249H86.7142V7.3354H78.9766Z" fill="#0B0DE6"/><path d="M72.9448 16.3677C71.9911 16.3677 71.1649 16.2106 70.4664 15.8964C69.7813 15.5823 69.2036 15.1633 68.7335 14.6397C68.2767 14.1161 67.9342 13.527 67.7058 12.8724C67.4775 12.2179 67.3633 11.5503 67.3633 10.8695V10.4964C67.3633 9.77644 67.4775 9.08917 67.7058 8.43462C67.9476 7.76698 68.3036 7.17789 68.7738 6.66735C69.2439 6.14371 69.8216 5.73135 70.5067 5.43026C71.2052 5.11608 72.0112 4.95898 72.9247 4.95898C73.8784 4.95898 74.7314 5.14226 75.4837 5.5088C76.236 5.86226 76.8338 6.35971 77.2771 7.00117C77.7338 7.64262 77.989 8.3888 78.0428 9.23971H75.3225C75.2553 8.68989 75.0135 8.23171 74.5971 7.86517C74.1941 7.49862 73.6366 7.31535 72.9247 7.31535C72.3067 7.31535 71.7896 7.45935 71.3731 7.74735C70.9701 8.03535 70.6679 8.43462 70.4664 8.94517C70.2649 9.44262 70.1641 10.0186 70.1641 10.6732C70.1641 11.3015 70.2582 11.871 70.4462 12.3815C70.6477 12.8921 70.95 13.2913 71.353 13.5793C71.7694 13.8673 72.3 14.0113 72.9448 14.0113C73.4284 14.0113 73.8449 13.9263 74.1941 13.7561C74.5434 13.5859 74.8188 13.3503 75.0203 13.0492C75.2352 12.7481 75.3695 12.4077 75.4233 12.0281H78.1435C78.0898 12.8921 77.8278 13.6513 77.3577 14.3059C76.9009 14.9473 76.2897 15.4513 75.524 15.8179C74.7717 16.1844 73.912 16.3677 72.9448 16.3677Z" fill="#0B0DE6"/><path d="M60.489 16.3677C59.5487 16.3677 58.7225 16.2106 58.0106 15.8964C57.312 15.5823 56.7277 15.1633 56.2575 14.6397C55.8008 14.103 55.4515 13.5073 55.2097 12.8528C54.9814 12.1983 54.8672 11.5306 54.8672 10.8499V10.4768C54.8672 9.76989 54.9814 9.08917 55.2097 8.43462C55.4515 7.76698 55.8008 7.17789 56.2575 6.66735C56.7277 6.14371 57.3053 5.73135 57.9904 5.43026C58.6755 5.11608 59.4681 4.95898 60.3681 4.95898C61.5503 4.95898 62.5376 5.21426 63.3302 5.7248C64.1362 6.22226 64.7407 6.88335 65.1437 7.70808C65.5467 8.51971 65.7482 9.3968 65.7482 10.3393V11.3212H56.056V9.65208H63.9951L63.1287 10.4768C63.1287 9.79608 63.0279 9.21353 62.8264 8.72917C62.6249 8.2448 62.316 7.87171 61.8995 7.60989C61.4965 7.34808 60.9861 7.21717 60.3681 7.21717C59.7502 7.21717 59.2263 7.35462 58.7964 7.62953C58.3666 7.90444 58.0374 8.30371 57.8091 8.82735C57.5941 9.33789 57.4867 9.95317 57.4867 10.6732C57.4867 11.3408 57.5941 11.9364 57.8091 12.4601C58.024 12.9706 58.3531 13.3764 58.7964 13.6775C59.2397 13.9655 59.8039 14.1095 60.489 14.1095C61.1741 14.1095 61.7316 13.9786 62.1615 13.7168C62.5913 13.4419 62.8667 13.1081 62.9876 12.7153H65.5668C65.4056 13.4484 65.0967 14.0899 64.6399 14.6397C64.1832 15.1895 63.5988 15.615 62.8869 15.9161C62.1883 16.2172 61.3891 16.3677 60.489 16.3677Z" fill="#0B0DE6"/><path d="M41.1352 15.9947V4.95907C41.1352 3.74162 41.4778 2.84489 42.1629 2.26889C42.8614 1.6798 43.889 1.38525 45.2458 1.38525H46.2734V3.48634H45.0443C44.6279 3.48634 44.3055 3.59762 44.0771 3.82016C43.8622 4.02962 43.7547 4.33071 43.7547 4.72344V15.9947H41.1352ZM48.2683 15.9947V5.07689C48.2683 3.85943 48.6108 2.96271 49.2959 2.38671C49.9945 1.79762 51.0221 1.50307 52.3789 1.50307H53.7088V3.60416H52.1774C51.761 3.60416 51.4385 3.71544 51.2102 3.93798C50.9953 4.14743 50.8878 4.44853 50.8878 4.84125V15.9947H48.2683ZM39.7852 7.5118V5.50889H53.8901V7.5118H39.7852Z" fill="#0B0DE6"/><path fill-rule="evenodd" clip-rule="evenodd" d="M28.7653 11.8826C28.5643 11.3813 28.4371 10.8328 28.3852 10.2357H38.3261V9.03246C38.3261 7.97821 38.0999 6.98445 37.6469 6.05376C37.2055 5.11444 36.5189 4.35094 35.5931 3.76486C34.6694 3.15466 33.5022 2.85791 32.1076 2.85791C31.0313 2.85791 30.0804 3.04575 29.2611 3.4288C28.4648 3.7932 27.8028 4.2941 27.279 4.93182C26.7599 5.54861 26.3707 6.24433 26.1117 7.01745L26.1105 7.02132C25.8688 7.79069 25.748 8.5835 25.748 9.399V9.81137C25.748 10.612 25.8689 11.3972 26.1104 12.1662L26.1117 12.17C26.3708 12.9431 26.7597 13.646 27.2781 14.2775L27.2799 14.2796C27.8048 14.9031 28.483 15.4032 29.3088 15.7819C30.1442 16.165 31.1264 16.3525 32.2486 16.3525C33.261 16.3525 34.1767 16.188 34.9918 15.8543C35.8072 15.5206 36.4877 15.034 37.029 14.3946C37.5716 13.7537 37.9311 12.9945 38.1102 12.1222L38.1637 11.8612H35.5942L35.5561 12.0333C35.4458 12.5304 35.1126 12.9842 34.5181 13.3897L34.5159 13.3912C33.9531 13.785 33.2037 13.9917 32.2486 13.9917C31.3411 13.9917 30.6124 13.8004 30.0472 13.4338C29.4736 13.0464 29.0468 12.5311 28.7653 11.8826ZM35.625 8.14991H28.5047C28.57 7.85068 28.6568 7.56933 28.7649 7.30559C29.0475 6.65423 29.4602 6.14664 30.0019 5.77538C30.552 5.40898 31.2492 5.21864 32.1076 5.21864C32.939 5.21864 33.6071 5.38798 34.1263 5.71123C34.65 6.03726 35.0448 6.49824 35.3105 7.10241L35.3113 7.10416C35.4524 7.41746 35.5574 7.76573 35.625 8.14991Z" fill="#0B0DE6"/><path fill-rule="evenodd" clip-rule="evenodd" d="M0 3C0 1.34315 1.34315 0 3 0H13.7916C15.4485 0 16.7916 1.34315 16.7916 3V9.27273H7.8361V18H3C1.34315 18 0 16.6569 0 15V3ZM7.8361 18L16.7916 9.27273V12.5455L11.1944 18H7.8361Z" fill="#0B0DE6"/><path d="M193.113 16.3601C192.196 16.3601 191.405 16.2031 190.737 15.889C190.07 15.5749 189.527 15.1626 189.108 14.6522C188.689 14.1287 188.375 13.5463 188.166 12.905C187.969 12.2638 187.871 11.6094 187.871 10.9419V10.5886C187.871 9.90804 187.969 9.24713 188.166 8.60585C188.375 7.96456 188.689 7.38872 189.108 6.87831C189.527 6.35482 190.057 5.94257 190.698 5.64156C191.352 5.32746 192.118 5.17041 192.995 5.17041C194.133 5.17041 195.069 5.41907 195.802 5.91639C196.548 6.40062 197.098 7.02882 197.451 7.80097C197.817 8.57313 198.001 9.39763 198.001 10.2745V11.1186H188.696V9.70518H196.627L196.195 10.4708C196.195 9.72482 196.077 9.08353 195.841 8.54695C195.606 7.99728 195.252 7.57194 194.781 7.27093C194.31 6.96992 193.715 6.81942 192.995 6.81942C192.249 6.81942 191.627 6.98956 191.13 7.32983C190.646 7.6701 190.279 8.1347 190.031 8.72363C189.795 9.31256 189.677 9.99311 189.677 10.7653C189.677 11.5112 189.795 12.1852 190.031 12.7873C190.279 13.3762 190.659 13.8473 191.169 14.2007C191.68 14.541 192.327 14.7111 193.113 14.7111C193.937 14.7111 194.605 14.5279 195.115 14.1614C195.638 13.795 195.953 13.3696 196.057 12.8854H197.824C197.68 13.6052 197.392 14.2269 196.96 14.7504C196.528 15.2739 195.985 15.673 195.331 15.9479C194.677 16.2227 193.937 16.3601 193.113 16.3601Z" fill="#000"/><path d="M169.658 16.0066V5.52357H171.15V10.0191H170.915C170.915 8.99827 171.045 8.1345 171.307 7.42778C171.582 6.70798 171.988 6.15831 172.524 5.77877C173.061 5.39924 173.741 5.20947 174.566 5.20947H174.644C175.469 5.20947 176.15 5.39924 176.686 5.77877C177.236 6.15831 177.642 6.70798 177.903 7.42778C178.165 8.1345 178.296 8.99827 178.296 10.0191H177.746C177.746 8.99827 177.884 8.1345 178.158 7.42778C178.433 6.70798 178.839 6.15831 179.376 5.77877C179.925 5.39924 180.612 5.20947 181.437 5.20947H181.515C182.34 5.20947 183.027 5.39924 183.577 5.77877C184.126 6.15831 184.532 6.70798 184.794 7.42778C185.069 8.1345 185.206 8.99827 185.206 10.0191V16.0066H183.321V9.60683C183.321 8.75615 183.112 8.10178 182.693 7.64372C182.274 7.17258 181.692 6.93701 180.946 6.93701C180.174 6.93701 179.552 7.18567 179.081 7.68299C178.61 8.16722 178.374 8.84776 178.374 9.72461V16.0066H176.49V9.60683C176.49 8.75615 176.28 8.10178 175.862 7.64372C175.443 7.17258 174.86 6.93701 174.114 6.93701C173.342 6.93701 172.721 7.18567 172.25 7.68299C171.778 8.16722 171.543 8.84776 171.543 9.72461V16.0066H169.658Z" fill="#000"/><path d="M160.963 16.3211C159.72 16.3211 158.764 15.9154 158.097 15.104C157.429 14.2926 157.096 13.1212 157.096 11.59V5.50439H158.98V11.963C158.98 12.7875 159.203 13.4353 159.648 13.9065C160.093 14.3645 160.695 14.5936 161.454 14.5936C162.239 14.5936 162.88 14.3449 163.378 13.8476C163.875 13.3372 164.124 12.6436 164.124 11.7667V5.50439H166.008V16.007H164.516V11.5115H164.752C164.752 12.5454 164.614 13.4223 164.34 14.1421C164.065 14.8488 163.652 15.3919 163.103 15.7714C162.566 16.1379 161.879 16.3211 161.042 16.3211H160.963Z" fill="#000"/><path d="M150.241 16.3206C148.867 16.3206 147.8 16.0262 147.041 15.4373C146.295 14.8483 145.909 14.0434 145.883 13.0226H147.65C147.676 13.4283 147.879 13.8144 148.258 14.1809C148.651 14.5342 149.312 14.7109 150.241 14.7109C151.078 14.7109 151.72 14.5473 152.165 14.2201C152.61 13.8799 152.832 13.4676 152.832 12.9834C152.832 12.5515 152.669 12.2178 152.341 11.9822C152.014 11.7335 151.484 11.5699 150.751 11.4914L149.613 11.3736C148.618 11.2689 147.807 10.9745 147.178 10.4902C146.55 9.99291 146.236 9.29928 146.236 8.40933C146.236 7.74188 146.406 7.17258 146.747 6.70143C147.087 6.2172 147.558 5.85075 148.16 5.60209C148.762 5.34035 149.456 5.20947 150.241 5.20947C151.419 5.20947 152.374 5.47122 153.107 5.99471C153.84 6.51821 154.219 7.29691 154.246 8.33081H152.479C152.466 7.91201 152.269 7.55866 151.89 7.27073C151.523 6.96972 150.974 6.81922 150.241 6.81922C149.508 6.81922 148.952 6.96972 148.572 7.27073C148.193 7.57174 148.003 7.95128 148.003 8.40933C148.003 8.80195 148.134 9.11605 148.396 9.35162C148.67 9.5872 149.115 9.7377 149.73 9.80314L150.869 9.92093C151.995 10.0387 152.898 10.3528 153.578 10.8632C154.259 11.3605 154.599 12.0673 154.599 12.9834C154.599 13.6377 154.409 14.2201 154.03 14.7305C153.663 15.2279 153.153 15.6205 152.498 15.9084C151.844 16.1832 151.092 16.3206 150.241 16.3206Z" fill="#000"/><path d="M139.241 16.3601C138.325 16.3601 137.534 16.2031 136.866 15.889C136.199 15.5749 135.656 15.1626 135.237 14.6522C134.818 14.1287 134.504 13.5463 134.294 12.905C134.098 12.2638 134 11.6094 134 10.9419V10.5886C134 9.90804 134.098 9.24713 134.294 8.60585C134.504 7.96456 134.818 7.38872 135.237 6.87831C135.656 6.35482 136.186 5.94257 136.827 5.64156C137.481 5.32746 138.247 5.17041 139.124 5.17041C140.262 5.17041 141.198 5.41907 141.931 5.91639C142.677 6.40062 143.227 7.02882 143.58 7.80097C143.946 8.57313 144.13 9.39763 144.13 10.2745V11.1186H134.825V9.70518H142.755L142.324 10.4708C142.324 9.72482 142.206 9.08353 141.97 8.54695C141.735 7.99728 141.381 7.57194 140.91 7.27093C140.439 6.96992 139.844 6.81942 139.124 6.81942C138.378 6.81942 137.756 6.98956 137.259 7.32983C136.775 7.6701 136.408 8.1347 136.159 8.72363C135.924 9.31256 135.806 9.99311 135.806 10.7653C135.806 11.5112 135.924 12.1852 136.159 12.7873C136.408 13.3762 136.788 13.8473 137.298 14.2007C137.808 14.541 138.456 14.7111 139.241 14.7111C140.066 14.7111 140.733 14.5279 141.244 14.1614C141.767 13.795 142.081 13.3696 142.186 12.8854H143.953C143.809 13.6052 143.521 14.2269 143.089 14.7504C142.657 15.2739 142.114 15.673 141.46 15.9479C140.805 16.2227 140.066 16.3601 139.241 16.3601Z" fill="#000"/><path d="M121.6 16V2H123.491V16H121.6ZM130.303 16L125.633 9.80109H127.852L132.6 16H130.303ZM122.777 10.9646V9.30518H126.559C127.151 9.30518 127.659 9.18438 128.084 8.94278C128.508 8.70118 128.836 8.37057 129.068 7.95095C129.3 7.51862 129.415 7.02906 129.415 6.48229C129.415 5.93551 129.3 5.45232 129.068 5.0327C128.836 4.60036 128.508 4.2634 128.084 4.0218C127.659 3.76748 127.151 3.64033 126.559 3.64033H122.777V2H126.212C127.241 2 128.142 2.15259 128.914 2.45777C129.686 2.76294 130.284 3.23342 130.708 3.86921C131.133 4.505 131.345 5.32516 131.345 6.3297V6.63488C131.345 7.63942 131.127 8.45958 130.689 9.09537C130.265 9.73115 129.666 10.2016 128.894 10.5068C128.135 10.812 127.241 10.9646 126.212 10.9646H122.777Z" fill="#000"/></svg>