<svg width="155" height="19" viewBox="0 0 155 19" fill="none" xmlns="http://www.w3.org/2000/svg"><path d="M44.962 5.66v7.916h1.974c.504-.008 1.001-.116 1.462-.319s.877-.496 1.222-.863c.71-.751 1.098-1.75 1.082-2.783.015-.513-.071-1.024-.255-1.504s-.459-.918-.812-1.291a3.7 3.7 0 0 0-2.699-1.157h-1.973l-.001.001zm1.974-2.482c3.679 0 6.462 2.85 6.462 6.434a6.37 6.37 0 0 1-6.462 6.45h-4.353a.32.32 0 0 1-.121-.026c-.038-.016-.073-.04-.102-.07s-.052-.065-.067-.103-.023-.08-.023-.121V3.511c0-.177.14-.321.312-.321l4.353-.012zM62.88 13.852c1.671.005 3.18-1.023 3.823-2.604a4.31 4.31 0 0 0-.884-4.617c-.568-.592-1.302-.997-2.105-1.163s-1.638-.084-2.394.235c-1.544.652-2.553 2.195-2.556 3.908 0 2.335 1.839 4.229 4.116 4.24zm.001-10.966c3.872 0 6.832 3.052 6.832 6.726s-2.96 6.726-6.833 6.726-6.807-3.037-6.807-6.726 2.961-6.726 6.808-6.726zm16.238 10.966c2.278-.006 4.121-1.902 4.119-4.237s-1.85-4.229-4.127-4.23-4.127 1.891-4.13 4.227c0 1.125.436 2.204 1.212 2.999a4.08 4.08 0 0 0 1.337.917 4.09 4.09 0 0 0 1.589.324zm-.001-10.966c3.86 0 6.82 3.037 6.82 6.726s-2.972 6.726-6.82 6.726-6.832-3.037-6.832-6.726 2.96-6.726 6.832-6.726zM94.966 5.66h-2.783v3.407h2.783a1.61 1.61 0 0 0 1.196-.456 1.69 1.69 0 0 0 .509-1.2c.008-.231-.031-.461-.114-.676s-.209-.412-.37-.578-.348-.291-.559-.376-.436-.125-.663-.118V5.66zm-5.475-2.149c0-.177.141-.321.313-.321h5.24c2.498 0 4.306 1.877 4.306 4.234.019 1.594-.852 3.059-2.242 3.772l2.417 4.381c.033.05.052.109.054.169s-.013.12-.042.173a.31.31 0 0 1-.296.157H97.12c-.059.001-.117-.015-.167-.046s-.091-.075-.117-.128l-2.329-4.336h-2.334v4.163c.001.042-.007.083-.022.122s-.038.074-.067.104-.064.054-.102.07-.079.025-.121.026h-2.043c-.042 0-.083-.009-.121-.026s-.073-.04-.102-.07-.052-.065-.067-.104-.023-.08-.022-.122l-.014-12.219-.001-.001zm16.876 2.209v7.917h1.973c.504-.007 1.001-.115 1.462-.317s.877-.495 1.223-.861c.71-.75 1.099-1.748 1.084-2.781a3.89 3.89 0 0 0-.252-1.506c-.182-.481-.458-.92-.812-1.294-.347-.368-.767-.66-1.232-.859a3.7 3.7 0 0 0-1.472-.298l-1.974-.001zm1.973-2.485a6.36 6.36 0 0 1 6.462 6.444 6.36 6.36 0 0 1-6.462 6.444H104c-.042-.001-.083-.009-.121-.026a.32.32 0 0 1-.102-.07.31.31 0 0 1-.067-.104c-.015-.039-.023-.08-.022-.122V3.572c0-.178.14-.322.312-.322l4.34-.015zm14.671 3.148l-1.527 4.233h3.051l-1.524-4.233zm-2.423 6.626l-.999 2.818c-.02.066-.062.124-.118.164s-.125.06-.194.057h-2.168a.31.31 0 0 1-.285-.135c-.032-.046-.051-.1-.056-.156a.33.33 0 0 1 .029-.164l4.684-12.218a.31.31 0 0 1 .312-.211h2.426c.068-.004.135.015.192.053s.099.094.121.158l4.684 12.218a.33.33 0 0 1 .028.164c-.005.056-.024.11-.056.156s-.074.082-.124.106a.31.31 0 0 1-.161.028h-2.167c-.069.003-.137-.017-.194-.057s-.098-.098-.118-.164l-.999-2.818h-4.837v.001zm11.141-6.351c0-2.023 1.705-3.772 4.398-3.772a5.49 5.49 0 0 1 3.905 1.509c.032.03.058.067.075.107s.027.084.027.128-.009.088-.027.128-.043.077-.075.107l-1.201 1.223a.3.3 0 0 1-.101.069c-.038.016-.079.024-.12.024s-.082-.008-.12-.024-.073-.04-.102-.069c-.565-.53-1.308-.83-2.083-.842-1.077 0-1.873.641-1.873 1.381 0 2.391 6.364 1.012 6.364 5.613-.003 2.332-1.721 4.097-4.759 4.097a6.29 6.29 0 0 1-4.54-1.87c-.032-.03-.058-.067-.075-.107s-.027-.084-.027-.128.009-.088.027-.128.043-.077.075-.107l1.161-1.192a.31.31 0 0 1 .227-.099c.042 0 .084.009.123.026a.31.31 0 0 1 .103.073 3.96 3.96 0 0 0 2.745 1.147c1.346 0 2.233-.737 2.233-1.66 0-2.393-6.362-1.012-6.362-5.614m20.61-3.183V8.33h-5.387V3.495c0-.042-.007-.083-.023-.121a.31.31 0 0 0-.169-.173c-.038-.016-.079-.025-.12-.026h-2.043c-.042.001-.083.009-.121.026a.32.32 0 0 0-.102.07c-.029.03-.051.065-.067.103s-.023.08-.022.121v12.216c0 .177.141.321.312.321h2.043c.171 0 .312-.144.312-.321v-4.912h5.383v4.912c0 .177.141.321.312.321h2.043c.172 0 .312-.144.312-.321V3.495c.001-.042-.007-.083-.023-.121a.31.31 0 0 0-.067-.103c-.029-.03-.063-.053-.101-.07s-.08-.025-.121-.026h-2.043c-.083.002-.162.037-.22.097s-.089.14-.088.223zM30.801 4.805C29.384 2.178 26.611.543 23.595.553H.78C.626.553.475.599.347.685s-.228.207-.288.349a.77.77 0 0 0-.044.447.77.77 0 0 0 .213.395l4.97 4.932a2.35 2.35 0 0 0 1.659.681h16.084c1.146-.012 2.084.896 2.096 2.026s-.907 2.056-2.053 2.067H11.895c-.154 0-.305.046-.433.131s-.229.206-.289.348-.075.297-.045.447.104.288.213.396l4.973 4.936c.442.437 1.038.681 1.659.68h5.015c6.525 0 11.459-6.885 7.814-13.719" fill="#6b6b6c"/></svg>