<svg xmlns="http://www.w3.org/2000/svg" width="169.817" height="93.677" viewBox="0 0 169.817 93.677"><g transform="translate(-861.358 -579.745)"><ellipse cx="41.967" cy="41.669" rx="41.967" ry="41.669" transform="translate(923.164 584.916)" fill="#e0f2ff"/><ellipse cx="33.967" cy="33.669" rx="33.967" ry="33.669" transform="translate(871.806 602.477)" fill="#e0f2ff"/><path d="M40.406,0A20.2,20.2,0,1,1,20.2,20.2,20.2,20.2,0,0,1,40.406,0m20.2,53.234c0,5.354-1.414,17.829-11.061,31.769L45.456,60.608l4.748-9.5a87.228,87.228,0,0,0-9.8-.606,87.228,87.228,0,0,0-9.8.606l4.748,9.5L31.264,85C21.617,71.063,20.2,58.588,20.2,53.234,8.132,56.77,0,63.134,0,70.71l7.125,20.2H74.46l6.352-20.2C80.811,63.134,72.73,56.77,60.608,53.234Z" transform="rotate(-2 17143.978 -25855.082)" fill="#5d9cfa"/><path d="M28.937,0C13.022,0,0,10.359,0,23.15S13.022,46.3,28.937,46.3a36.607,36.607,0,0,0,10.215-1.447,31.636,31.636,0,0,0,18.722,7.234c-6.742-6.742-7.813-11.285-7.958-13.022,4.919-4.138,7.958-9.752,7.958-15.915C57.874,10.359,44.852,0,28.937,0M14.468,26.043V20.256h5.787v5.787H14.468m11.575,0V20.256h5.787v5.787H26.043m11.575,0V20.256h5.787v5.787Z" transform="rotate(5 -6234.487 10207.257)" fill="#fd9500"/><path d="M31.273,23.455h5.212a13.03,13.03,0,0,0-13.03-13.03v5.212a7.818,7.818,0,0,1,7.818,7.818m10.424,0H46.91A23.407,23.407,0,0,0,23.455,0V5.212A18.246,18.246,0,0,1,41.7,23.455M44.3,32.576A29.606,29.606,0,0,1,35,31.091a2.615,2.615,0,0,0-2.658.652l-5.733,5.733A39.344,39.344,0,0,1,9.434,20.3l5.733-5.733a2.615,2.615,0,0,0,.652-2.658,29.606,29.606,0,0,1-1.485-9.3A2.606,2.606,0,0,0,11.727,0H2.606A2.606,2.606,0,0,0,0,2.606a44.3,44.3,0,0,0,44.3,44.3A2.606,2.606,0,0,0,46.91,44.3V35.182A2.606,2.606,0,0,0,44.3,32.576Z" transform="rotate(-90 820.927 -163.339)" fill="#fd9500"/></g></svg>