<svg xmlns="http://www.w3.org/2000/svg" width="215.354" height="215.354" viewBox="0 0 215.354 215.354"><g transform="translate(-723.952 -270.646)"><path d="M0,108.491l13.15-31.78L0,44.931,31.78,31.78,44.931,0l31.78,13.15L108.491,0l13.15,31.78,31.78,13.15-13.15,31.78,13.15,31.78-31.78,13.15-13.15,31.78-31.78-13.15-31.78,13.15-13.15-31.78Z" transform="rotate(38 15.986 1323.083)" fill="#e0f2ff"/><path d="M71.167,66.422H37.956V56.934H71.167v9.489M85.4,47.445H37.956V37.956H85.4v9.489m0-18.978H37.956V18.978H85.4v9.489M9.489,18.978V94.889H85.4v9.489H9.489A9.489,9.489,0,0,1,0,94.889V18.978H9.489M94.889,0a9.489,9.489,0,0,1,9.489,9.489V75.911A9.456,9.456,0,0,1,94.889,85.4H28.467a9.489,9.489,0,0,1-9.489-9.489V9.489A9.456,9.456,0,0,1,28.467,0H94.889M28.467,9.489V75.911H94.889V9.489Z" transform="rotate(-7 3023.153 -5914.489)" fill="#fd9500"/><ellipse cx="36.618" cy="36.494" rx="36.618" ry="36.494" transform="rotate(9 -1822.781 5505.529)" fill="#5d9cfa"/><path d="M16.1,42.67a18.5,18.5,0,0,1-7.171-1.245,12.908,12.908,0,0,1-4.86-3.437A14.692,14.692,0,0,1,1.23,32.921,23.6,23.6,0,0,1,.1,26.787q-.059-1.6-.089-3.526t0-3.882q.03-1.956.089-3.615A20.713,20.713,0,0,1,1.23,9.63,14.574,14.574,0,0,1,4.163,4.623,13.522,13.522,0,0,1,9.053,1.245,18.151,18.151,0,0,1,16.1,0a18.323,18.323,0,0,1,7.112,1.245,13.522,13.522,0,0,1,4.889,3.378,14.2,14.2,0,0,1,2.9,5.008,21.354,21.354,0,0,1,1.1,6.134q.119,1.659.119,3.615v3.882q0,1.926-.119,3.526a22.041,22.041,0,0,1-1.067,6.134,14.692,14.692,0,0,1-2.845,5.067,12.865,12.865,0,0,1-4.889,3.437A18.724,18.724,0,0,1,16.1,42.67Zm0-6.815q3.852,0,5.66-2.519a11.82,11.82,0,0,0,1.867-6.845q.119-1.719.119-3.467V19.5q0-1.778-.119-3.378a11.889,11.889,0,0,0-1.867-6.786A6.433,6.433,0,0,0,16.1,6.756a6.37,6.37,0,0,0-5.6,2.578A12.207,12.207,0,0,0,8.578,16.12q0,1.6-.03,3.378t0,3.526q.03,1.748.03,3.467a11.97,11.97,0,0,0,1.956,6.845A6.443,6.443,0,0,0,16.1,35.855Z" transform="rotate(8 -2226.94 6312.401)" fill="#fff"/></g></svg>