<svg id="viber-icon" xmlns="http://www.w3.org/2000/svg" width="26" height="26" viewBox="0 0 26 26"><rect id="Прямоугольник_631" data-name="Прямоугольник 631" width="26" height="26" rx="6" fill="#7b519d"/><g id="Сгруппировать_2331" data-name="Сгруппировать 2331" transform="translate(5.097 4.936)"><g id="Сгруппировать_2335" data-name="Сгруппировать 2335" fill="#fff" fill-rule="evenodd"><path id="Контур_24" data-name="Контур 24" d="M74.761,67.865c-.5-.4-1.034-.764-1.56-1.133-1.049-.737-2.008-.794-2.791.391a1.221,1.221,0,0,1-1.7.4,7.526,7.526,0,0,1-3.946-3.846,1.481,1.481,0,0,1,.48-2.077,1.473,1.473,0,0,0,.847-1.3,8.809,8.809,0,0,0-2.925-3.99,1.483,1.483,0,0,0-1.016,0,2.867,2.867,0,0,0-1.944,4.075A21.149,21.149,0,0,0,71.927,72.16a5.407,5.407,0,0,0,.835.236,3.808,3.808,0,0,0,3.13-2.382C76.3,68.867,75.44,68.412,74.761,67.865ZM68.619,56.879c4.005.616,5.852,2.52,6.362,6.554.047.373-.091.933.44.944.556.011.422-.542.426-.915a7.614,7.614,0,0,0-7.113-7.451c-.29.042-.891-.2-.928.45C67.781,56.9,68.287,56.828,68.619,56.879Z" transform="translate(-59.923 -56)"/><path id="Контур_25" data-name="Контур 25" d="M267.912,102.849c-.385-.046-.894-.228-.984.307-.094.561.473.5.837.586,2.474.553,3.335,1.453,3.742,3.907.059.358-.059.914.549.822.451-.069.288-.546.325-.825A5.045,5.045,0,0,0,267.912,102.849Z" transform="translate(-258.433 -100.865)"/><path id="Контур_26" data-name="Контур 26" d="M281.73,151.406c-.257.006-.51.034-.6.309-.142.411.157.509.461.557a1.8,1.8,0,0,1,1.65,1.773c.027.275.2.5.467.466.368-.044.4-.371.39-.682a2.673,2.673,0,0,0-2.363-2.424Z" transform="translate(-272.024 -147.495)"/></g></g></svg>