<svg xmlns="http://www.w3.org/2000/svg" xmlns:xlink="http://www.w3.org/1999/xlink" height="675" viewBox="0 0 248 675" width="248"><svg height="18" viewBox="0 0 240 18" width="240" x="4" y="4"><path d="M234.035 15.995V5.509h1.532v4.32h-.081c0-1.532.343-2.651 1.028-3.358.698-.72 1.739-1.08 3.123-1.08H240V7.08h-.686c-1.074 0-1.9.281-2.478.844-.578.55-.866 1.348-.866 2.396v5.675h-1.935zm-7.763.353c-.941 0-1.753-.157-2.439-.471s-1.242-.727-1.672-1.237a5.47 5.47 0 0 1-.967-1.748 6.5 6.5 0 0 1-.302-1.964v-.353c0-.681.1-1.342.302-1.983a5.25 5.25 0 0 1 .967-1.728c.43-.524.974-.936 1.632-1.237.672-.314 1.458-.471 2.358-.471 1.168 0 2.129.249 2.881.746.766.484 1.33 1.113 1.693 1.885a5.58 5.58 0 0 1 .564 2.474v.844h-9.551V9.692h8.14l-.443.766c0-.746-.121-1.388-.363-1.924a2.77 2.77 0 0 0-1.088-1.276c-.484-.301-1.094-.452-1.833-.452-.766 0-1.404.17-1.915.511-.497.34-.873.805-1.128 1.394-.242.589-.363 1.27-.363 2.042 0 .746.121 1.42.363 2.022a3.21 3.21 0 0 0 1.169 1.414c.524.34 1.189.511 1.995.511.846 0 1.531-.183 2.055-.55.537-.366.86-.792.967-1.276h1.814c-.148.72-.444 1.342-.887 1.865a4.28 4.28 0 0 1-1.672 1.198c-.671.275-1.431.412-2.277.412zm-8.884-.235c-.806 0-1.505-.111-2.096-.334a2.65 2.65 0 0 1-1.35-1.139c-.309-.55-.463-1.289-.463-2.219V2.328h1.854v10.329c0 .563.154 1.001.463 1.316.322.301.772.452 1.35.452h1.894v1.689h-1.652zm-5.763-9.19V5.509h7.415v1.414h-7.415zm-2.816 9.19c-.806 0-1.505-.111-2.096-.334a2.65 2.65 0 0 1-1.35-1.139c-.309-.55-.463-1.289-.463-2.219V2.328h1.853v10.329c0 .563.155 1.001.464 1.316.322.301.772.452 1.35.452h1.894v1.689h-1.652zm-5.763-9.19V5.509h7.415v1.414h-7.415zm-6.192 9.425c-.941 0-1.753-.157-2.438-.471s-1.243-.727-1.673-1.237a5.47 5.47 0 0 1-.967-1.748 6.5 6.5 0 0 1-.302-1.964v-.353c0-.681.1-1.342.302-1.983a5.25 5.25 0 0 1 .967-1.728c.43-.524.974-.936 1.632-1.237.672-.314 1.458-.471 2.358-.471 1.168 0 2.129.249 2.881.746.766.484 1.33 1.113 1.693 1.885a5.58 5.58 0 0 1 .564 2.474v.844h-9.551V9.692h8.141l-.444.766c0-.746-.121-1.388-.362-1.924a2.78 2.78 0 0 0-1.089-1.276c-.483-.301-1.094-.452-1.833-.452-.766 0-1.404.17-1.914.511a3.17 3.17 0 0 0-1.129 1.394c-.242.589-.363 1.27-.363 2.042 0 .746.121 1.42.363 2.022a3.21 3.21 0 0 0 1.169 1.414c.524.34 1.189.511 1.995.511.846 0 1.531-.183 2.055-.55.537-.366.86-.792.967-1.276h1.814c-.148.72-.444 1.342-.887 1.865a4.28 4.28 0 0 1-1.672 1.198c-.671.275-1.431.412-2.277.412z"/><path fill-rule="evenodd" d="M184.19 2.075h-1.894v13.975h8.041v-1.716h-6.147V2.075z"/><path d="M172.564 15.995V5.509h1.532v4.32h-.081c0-1.532.343-2.651 1.028-3.358.698-.72 1.74-1.08 3.123-1.08h.363V7.08h-.685c-1.075 0-1.901.281-2.479.844-.577.55-.866 1.348-.866 2.396v5.675h-1.935zm-7.763.353c-.94 0-1.753-.157-2.438-.471s-1.243-.727-1.673-1.237a5.47 5.47 0 0 1-.967-1.748 6.53 6.53 0 0 1-.302-1.964v-.353a6.59 6.59 0 0 1 .302-1.983 5.25 5.25 0 0 1 .967-1.728c.43-.524.974-.936 1.632-1.237.672-.314 1.458-.471 2.358-.471 1.169 0 2.129.249 2.881.746.766.484 1.33 1.113 1.693 1.885a5.58 5.58 0 0 1 .564 2.474v.844h-9.551V9.692h8.141l-.444.766c0-.746-.12-1.388-.362-1.924a2.78 2.78 0 0 0-1.088-1.276c-.483-.301-1.095-.452-1.834-.452-.766 0-1.404.17-1.914.511-.497.34-.873.805-1.129 1.394-.241.589-.362 1.27-.362 2.042 0 .746.121 1.42.362 2.023a3.21 3.21 0 0 0 1.169 1.414c.524.34 1.189.511 1.995.511.846 0 1.531-.183 2.055-.55.538-.366.86-.792.967-1.276h1.814c-.148.72-.443 1.342-.887 1.865a4.28 4.28 0 0 1-1.672 1.198c-.672.275-1.431.412-2.277.412zm-13.336-.353l-3.667-10.486h2.015l3.587 10.486h-1.935zm.484 0v-1.492h2.337v1.492h-2.337zm.927 0l3.123-10.486h1.894l-3.184 10.486h-1.833zm-12.172.353c-.94 0-1.766-.157-2.478-.471s-1.317-.727-1.814-1.237a5.63 5.63 0 0 1-1.108-1.748 5.52 5.52 0 0 1-.363-1.964v-.353c0-.668.128-1.322.383-1.964a5.18 5.18 0 0 1 1.129-1.748 5.32 5.32 0 0 1 1.813-1.237c.712-.314 1.525-.471 2.438-.471s1.726.157 2.438.471c.712.301 1.317.713 1.814 1.237a5.18 5.18 0 0 1 1.128 1.748c.256.641.383 1.296.383 1.964v.353c0 .668-.127 1.322-.383 1.964a5.16 5.16 0 0 1-1.108 1.748c-.484.511-1.081.923-1.793 1.237s-1.538.471-2.479.471zm0-1.689c.806 0 1.491-.17 2.056-.511a3.44 3.44 0 0 0 1.309-1.414c.309-.589.464-1.25.464-1.983 0-.746-.155-1.414-.464-2.003s-.752-1.054-1.33-1.394c-.564-.34-1.242-.511-2.035-.511-.779 0-1.457.17-2.035.511a3.45 3.45 0 0 0-1.33 1.394c-.309.589-.463 1.257-.463 2.003 0 .733.148 1.394.443 1.983a3.63 3.63 0 0 0 1.31 1.414c.577.34 1.269.511 2.075.511z"/><path fill-rule="evenodd" d="M127.376 3.327c-1.036 0-1.958.186-2.763.563-.785.359-1.444.852-1.975 1.479a6.36 6.36 0 0 0-1.2 2.059l-.001.002a7.08 7.08 0 0 0-.383 2.311v.321c0 .778.128 1.549.383 2.31l.001.002c.271.763.671 1.464 1.198 2.103l.001.001c.531.627 1.189 1.127 1.974 1.502l.003.001c.806.361 1.743.539 2.809.539 1.052 0 2.005-.186 2.856-.562l.002-.001c.849-.391 1.542-.931 2.073-1.622.551-.71.857-1.538.921-2.478l.01-.146h-1.967l-.014.121c-.06.524-.261 1.005-.607 1.444l-.001.002c-.33.438-.774.791-1.335 1.057-.542.249-1.186.376-1.938.376-.981 0-1.782-.216-2.411-.64a4.1 4.1 0 0 1-1.433-1.751c-.321-.746-.482-1.552-.482-2.421 0-.885.161-1.683.482-2.397v-.001c.319-.726.789-1.293 1.408-1.705h0c.63-.424 1.424-.64 2.389-.64 1.121 0 1.986.276 2.611.814l.003.002c.648.529 1.039 1.195 1.174 2.002l.019.114h1.966l-.015-.15c-.096-.938-.402-1.756-.919-2.449s-1.194-1.225-2.029-1.601c-.821-.376-1.758-.563-2.81-.563z"/><path d="M112.044 16.368c-.941 0-1.767-.157-2.479-.471-.698-.314-1.283-.733-1.753-1.257a5.88 5.88 0 0 1-1.048-1.787 6.05 6.05 0 0 1-.342-2.003v-.373a6.16 6.16 0 0 1 .342-2.042c.242-.668.591-1.257 1.048-1.767.47-.524 1.048-.936 1.733-1.237.685-.314 1.478-.471 2.378-.471 1.182 0 2.169.255 2.962.766a4.74 4.74 0 0 1 1.813 1.983c.403.812.605 1.689.605 2.631v.982h-9.692v-1.67h7.939l-.867.825c0-.681-.1-1.263-.302-1.748a2.34 2.34 0 0 0-.927-1.119c-.403-.262-.913-.393-1.531-.393s-1.142.137-1.572.412-.759.674-.987 1.198c-.215.511-.323 1.126-.323 1.846 0 .668.108 1.263.323 1.787.215.511.544.916.987 1.217.443.288 1.008.432 1.693.432s1.242-.131 1.672-.393c.43-.275.705-.609.826-1.001h2.58a4.48 4.48 0 0 1-.927 1.924c-.457.55-1.041.975-1.753 1.276-.699.301-1.498.452-2.398.452zm-14.231-.373L94.388 5.332h2.881l3.285 10.663h-2.741zm.826 0v-2.239h2.962v2.239h-2.962zm1.108 0l2.821-10.663h2.7l-2.962 10.663h-2.559zm-10.159 0V5.332h2.801v10.663h-2.801zm-1.531-8.62V5.332h4.332v2.042h-4.332zm2.559-3.319c-.551 0-.961-.137-1.229-.412-.255-.288-.383-.641-.383-1.06 0-.445.128-.805.383-1.08.269-.275.678-.412 1.229-.412s.954.137 1.209.412.383.635.383 1.08c0 .419-.128.772-.383 1.06-.255.275-.658.412-1.209.412zm-5.474 12.076c-1.007 0-1.84-.124-2.499-.373a2.78 2.78 0 0 1-1.451-1.296c-.322-.615-.484-1.44-.484-2.474l.02-9.661h2.62l-.02 9.838c0 .524.141.929.423 1.217.296.275.712.412 1.249.412h1.713v2.337h-1.572zm-6.166-8.797V5.332h7.738v2.003h-7.738zm-6.032 9.033c-.954 0-1.78-.157-2.478-.471-.685-.314-1.263-.733-1.733-1.257a5.34 5.34 0 0 1-1.028-1.767 6.04 6.04 0 0 1-.343-2.003v-.373a6.2 6.2 0 0 1 .343-2.062c.242-.668.598-1.257 1.068-1.767.47-.524 1.048-.936 1.733-1.237.698-.314 1.504-.471 2.418-.471.954 0 1.807.183 2.559.55.752.353 1.35.851 1.793 1.492.457.641.712 1.388.766 2.239h-2.72c-.067-.55-.309-1.008-.725-1.375-.403-.367-.96-.55-1.672-.55-.618 0-1.135.144-1.552.432-.403.288-.705.687-.907 1.198-.201.497-.302 1.073-.302 1.728 0 .628.094 1.198.282 1.708.201.511.504.91.907 1.198.416.288.947.432 1.592.432.484 0 .9-.085 1.249-.255a2.05 2.05 0 0 0 .826-.707 2.28 2.28 0 0 0 .403-1.021h2.72c-.054.864-.316 1.623-.786 2.278-.457.641-1.068 1.146-1.834 1.512-.752.367-1.612.55-2.579.55zm-12.455 0c-.94 0-1.767-.157-2.478-.471-.699-.314-1.283-.733-1.753-1.257a5.88 5.88 0 0 1-1.048-1.787 6.04 6.04 0 0 1-.343-2.003v-.373c0-.707.114-1.388.343-2.042a5.36 5.36 0 0 1 1.048-1.767c.47-.524 1.048-.936 1.733-1.237.685-.314 1.478-.471 2.378-.471 1.182 0 2.169.255 2.962.766.806.497 1.411 1.159 1.813 1.983.403.812.605 1.689.605 2.631v.982h-9.692v-1.67h7.939l-.866.825c0-.681-.101-1.263-.302-1.748s-.51-.857-.927-1.119c-.403-.262-.913-.393-1.531-.393s-1.142.137-1.572.412-.759.674-.987 1.198c-.215.511-.322 1.126-.322 1.846 0 .668.107 1.263.322 1.787.215.511.544.916.987 1.217.443.288 1.008.432 1.693.432s1.243-.131 1.672-.393c.43-.275.705-.609.826-1.001h2.579a4.46 4.46 0 0 1-.927 1.924c-.457.55-1.041.975-1.753 1.276-.699.301-1.498.452-2.398.452zm-19.354-.373V4.959c0-1.217.343-2.114 1.028-2.69.699-.589 1.726-.884 3.083-.884h1.028v2.101h-1.229c-.416 0-.739.111-.967.334-.215.209-.322.511-.322.903v11.271h-2.62zm7.133 0V5.077c0-1.217.342-2.114 1.028-2.69.699-.589 1.726-.884 3.083-.884h1.33v2.101h-1.531c-.416 0-.739.111-.967.334-.215.209-.322.511-.322.903v11.153H48.27zm-8.483-8.483V5.509H53.89v2.003H39.785z"/><path d="M28.764 11.883c-.201-.501-.328-1.05-.38-1.647h9.941V9.033a6.72 6.72 0 0 0-.679-2.979c-.441-.939-1.128-1.703-2.054-2.289-.924-.61-2.091-.907-3.486-.907-1.076 0-2.027.188-2.846.571a5.46 5.46 0 0 0-1.982 1.503 6.34 6.34 0 0 0-1.167 2.086l-.001.004a7.89 7.89 0 0 0-.362 2.378v.412a7.81 7.81 0 0 0 .362 2.355l.001.004a6.6 6.6 0 0 0 1.166 2.108l.002.002c.525.623 1.203 1.124 2.029 1.502.835.383 1.818.571 2.94.571 1.012 0 1.928-.165 2.743-.498s1.496-.82 2.037-1.46.902-1.4 1.081-2.272l.054-.261h-2.569l-.038.172c-.11.497-.444.951-1.038 1.357l-.002.002c-.563.394-1.312.601-2.267.601-.908 0-1.636-.191-2.202-.558a3.52 3.52 0 0 1-1.282-1.551zm6.86-3.733h-7.12c.065-.299.152-.581.26-.844.283-.651.695-1.159 1.237-1.53.55-.366 1.247-.557 2.106-.557.831 0 1.499.169 2.019.493s.918.787 1.184 1.391v.002c.141.313.246.662.314 1.046zM0 3a3 3 0 0 1 3-3h10.792a3 3 0 0 1 3 3v6.273H7.836V18H3a3 3 0 0 1-3-3V3zm7.836 15l8.955-8.727v3.273L11.194 18H7.836z" fill-rule="evenodd"/></svg><svg height="18" viewBox="0 0 240 18" width="240" x="4" y="26" fill="#0b0de6"><path d="M234.035 15.995V5.509h1.532v4.32h-.081c0-1.532.343-2.651 1.028-3.358.698-.72 1.739-1.08 3.123-1.08H240V7.08h-.686c-1.074 0-1.9.281-2.478.844-.578.55-.866 1.348-.866 2.396v5.675h-1.935zm-7.763.353c-.941 0-1.753-.157-2.439-.471s-1.242-.727-1.672-1.237a5.47 5.47 0 0 1-.967-1.748 6.5 6.5 0 0 1-.302-1.964v-.353c0-.681.1-1.342.302-1.983a5.25 5.25 0 0 1 .967-1.728c.43-.524.974-.936 1.632-1.237.672-.314 1.458-.471 2.358-.471 1.168 0 2.129.249 2.881.746.766.484 1.33 1.113 1.693 1.885a5.58 5.58 0 0 1 .564 2.474v.844h-9.551V9.692h8.14l-.443.766c0-.746-.121-1.388-.363-1.924a2.77 2.77 0 0 0-1.088-1.276c-.484-.301-1.094-.452-1.833-.452-.766 0-1.404.17-1.915.511-.497.34-.873.805-1.128 1.394-.242.589-.363 1.27-.363 2.042 0 .746.121 1.42.363 2.022a3.21 3.21 0 0 0 1.169 1.414c.524.34 1.189.511 1.995.511.846 0 1.531-.183 2.055-.55.537-.366.86-.792.967-1.276h1.814c-.148.72-.444 1.342-.887 1.865a4.28 4.28 0 0 1-1.672 1.198c-.671.275-1.431.412-2.277.412zm-8.884-.235c-.806 0-1.505-.111-2.096-.334a2.65 2.65 0 0 1-1.35-1.139c-.309-.55-.463-1.289-.463-2.219V2.328h1.854v10.329c0 .563.154 1.001.463 1.316.322.301.772.452 1.35.452h1.894v1.689h-1.652zm-5.763-9.19V5.509h7.415v1.414h-7.415zm-2.816 9.19c-.806 0-1.505-.111-2.096-.334a2.65 2.65 0 0 1-1.35-1.139c-.309-.55-.463-1.289-.463-2.219V2.328h1.853v10.329c0 .563.155 1.001.464 1.316.322.301.772.452 1.35.452h1.894v1.689h-1.652zm-5.763-9.19V5.509h7.415v1.414h-7.415zm-6.192 9.425c-.941 0-1.753-.157-2.438-.471s-1.243-.727-1.673-1.237a5.47 5.47 0 0 1-.967-1.748 6.5 6.5 0 0 1-.302-1.964v-.353c0-.681.1-1.342.302-1.983a5.25 5.25 0 0 1 .967-1.728c.43-.524.974-.936 1.632-1.237.672-.314 1.458-.471 2.358-.471 1.168 0 2.129.249 2.881.746.766.484 1.33 1.113 1.693 1.885a5.58 5.58 0 0 1 .564 2.474v.844h-9.551V9.692h8.141l-.444.766c0-.746-.121-1.388-.362-1.924a2.78 2.78 0 0 0-1.089-1.276c-.483-.301-1.094-.452-1.833-.452-.766 0-1.404.17-1.914.511a3.17 3.17 0 0 0-1.129 1.394c-.242.589-.363 1.27-.363 2.042 0 .746.121 1.42.363 2.022a3.21 3.21 0 0 0 1.169 1.414c.524.34 1.189.511 1.995.511.846 0 1.531-.183 2.055-.55.537-.366.86-.792.967-1.276h1.814c-.148.72-.444 1.342-.887 1.865a4.28 4.28 0 0 1-1.672 1.198c-.671.275-1.431.412-2.277.412z"/><path fill-rule="evenodd" d="M184.19 2.075h-1.894v13.975h8.041v-1.716h-6.147V2.075z"/><path d="M172.564 15.995V5.509h1.532v4.32h-.081c0-1.532.343-2.651 1.028-3.358.698-.72 1.74-1.08 3.123-1.08h.363V7.08h-.685c-1.075 0-1.901.281-2.479.844-.577.55-.866 1.348-.866 2.396v5.675h-1.935zm-7.763.353c-.94 0-1.753-.157-2.438-.471s-1.243-.727-1.673-1.237a5.47 5.47 0 0 1-.967-1.748 6.53 6.53 0 0 1-.302-1.964v-.353a6.59 6.59 0 0 1 .302-1.983 5.25 5.25 0 0 1 .967-1.728c.43-.524.974-.936 1.632-1.237.672-.314 1.458-.471 2.358-.471 1.169 0 2.129.249 2.881.746.766.484 1.33 1.113 1.693 1.885a5.58 5.58 0 0 1 .564 2.474v.844h-9.551V9.692h8.141l-.444.766c0-.746-.12-1.388-.362-1.924a2.78 2.78 0 0 0-1.088-1.276c-.483-.301-1.095-.452-1.834-.452-.766 0-1.404.17-1.914.511-.497.34-.873.805-1.129 1.394-.241.589-.362 1.27-.362 2.042 0 .746.121 1.42.362 2.023a3.21 3.21 0 0 0 1.169 1.414c.524.34 1.189.511 1.995.511.846 0 1.531-.183 2.055-.55.538-.366.86-.792.967-1.276h1.814c-.148.72-.443 1.342-.887 1.865a4.28 4.28 0 0 1-1.672 1.198c-.672.275-1.431.412-2.277.412zm-13.336-.353l-3.667-10.486h2.015l3.587 10.486h-1.935zm.484 0v-1.492h2.337v1.492h-2.337zm.927 0l3.123-10.486h1.894l-3.184 10.486h-1.833zm-12.172.353c-.94 0-1.766-.157-2.478-.471s-1.317-.727-1.814-1.237a5.63 5.63 0 0 1-1.108-1.748 5.52 5.52 0 0 1-.363-1.964v-.353c0-.668.128-1.322.383-1.964a5.18 5.18 0 0 1 1.129-1.748 5.32 5.32 0 0 1 1.813-1.237c.712-.314 1.525-.471 2.438-.471s1.726.157 2.438.471c.712.301 1.317.713 1.814 1.237a5.18 5.18 0 0 1 1.128 1.748c.256.641.383 1.296.383 1.964v.353c0 .668-.127 1.322-.383 1.964a5.16 5.16 0 0 1-1.108 1.748c-.484.511-1.081.923-1.793 1.237s-1.538.471-2.479.471zm0-1.689c.806 0 1.491-.17 2.056-.511a3.44 3.44 0 0 0 1.309-1.414c.309-.589.464-1.25.464-1.983 0-.746-.155-1.414-.464-2.003s-.752-1.054-1.33-1.394c-.564-.34-1.242-.511-2.035-.511-.779 0-1.457.17-2.035.511a3.45 3.45 0 0 0-1.33 1.394c-.309.589-.463 1.257-.463 2.003 0 .733.148 1.394.443 1.983a3.63 3.63 0 0 0 1.31 1.414c.577.34 1.269.511 2.075.511z"/><path fill-rule="evenodd" d="M127.376 3.327c-1.036 0-1.958.186-2.763.563-.785.359-1.444.852-1.975 1.479a6.36 6.36 0 0 0-1.2 2.059l-.001.002a7.08 7.08 0 0 0-.383 2.311v.321c0 .778.128 1.549.383 2.31l.001.002c.271.763.671 1.464 1.198 2.103l.001.001c.531.627 1.189 1.127 1.974 1.502l.003.001c.806.361 1.743.539 2.809.539 1.052 0 2.005-.186 2.856-.562l.002-.001c.849-.391 1.542-.931 2.073-1.622.551-.71.857-1.538.921-2.478l.01-.146h-1.967l-.014.121c-.06.524-.261 1.005-.607 1.444l-.001.002c-.33.438-.774.791-1.335 1.057-.542.249-1.186.376-1.938.376-.981 0-1.782-.216-2.411-.64a4.1 4.1 0 0 1-1.433-1.751c-.321-.746-.482-1.552-.482-2.421 0-.885.161-1.683.482-2.397v-.001c.319-.726.789-1.293 1.408-1.705h0c.63-.424 1.424-.64 2.389-.64 1.121 0 1.986.276 2.611.814l.003.002c.648.529 1.039 1.195 1.174 2.002l.019.114h1.966l-.015-.15c-.096-.938-.402-1.756-.919-2.449s-1.194-1.225-2.029-1.601c-.821-.376-1.758-.563-2.81-.563z"/><path d="M112.044 16.368c-.941 0-1.767-.157-2.479-.471-.698-.314-1.283-.733-1.753-1.257a5.88 5.88 0 0 1-1.048-1.787 6.05 6.05 0 0 1-.342-2.003v-.373a6.16 6.16 0 0 1 .342-2.042c.242-.668.591-1.257 1.048-1.767.47-.524 1.048-.936 1.733-1.237.685-.314 1.478-.471 2.378-.471 1.182 0 2.169.255 2.962.766a4.74 4.74 0 0 1 1.813 1.983c.403.812.605 1.689.605 2.631v.982h-9.692v-1.67h7.939l-.867.825c0-.681-.1-1.263-.302-1.748a2.34 2.34 0 0 0-.927-1.119c-.403-.262-.913-.393-1.531-.393s-1.142.137-1.572.412-.759.674-.987 1.198c-.215.511-.323 1.126-.323 1.846 0 .668.108 1.263.323 1.787.215.511.544.916.987 1.217.443.288 1.008.432 1.693.432s1.242-.131 1.672-.393c.43-.275.705-.609.826-1.001h2.58a4.48 4.48 0 0 1-.927 1.924c-.457.55-1.041.975-1.753 1.276-.699.301-1.498.452-2.398.452zm-14.231-.373L94.388 5.332h2.881l3.285 10.663h-2.741zm.826 0v-2.239h2.962v2.239h-2.962zm1.108 0l2.821-10.663h2.7l-2.962 10.663h-2.559zm-10.159 0V5.332h2.801v10.663h-2.801zm-1.531-8.62V5.332h4.332v2.042h-4.332zm2.559-3.319c-.551 0-.961-.137-1.229-.412-.255-.288-.383-.641-.383-1.06 0-.445.128-.805.383-1.08.269-.275.678-.412 1.229-.412s.954.137 1.209.412.383.635.383 1.08c0 .419-.128.772-.383 1.06-.255.275-.658.412-1.209.412zm-5.474 12.076c-1.007 0-1.84-.124-2.499-.373a2.78 2.78 0 0 1-1.451-1.296c-.322-.615-.484-1.44-.484-2.474l.02-9.661h2.62l-.02 9.838c0 .524.141.929.423 1.217.296.275.712.412 1.249.412h1.713v2.337h-1.572zm-6.166-8.797V5.332h7.738v2.003h-7.738zm-6.032 9.033c-.954 0-1.78-.157-2.478-.471-.685-.314-1.263-.733-1.733-1.257a5.34 5.34 0 0 1-1.028-1.767 6.04 6.04 0 0 1-.343-2.003v-.373a6.2 6.2 0 0 1 .343-2.062c.242-.668.598-1.257 1.068-1.767.47-.524 1.048-.936 1.733-1.237.698-.314 1.504-.471 2.418-.471.954 0 1.807.183 2.559.55.752.353 1.35.851 1.793 1.492.457.641.712 1.388.766 2.239h-2.72c-.067-.55-.309-1.008-.725-1.375-.403-.367-.96-.55-1.672-.55-.618 0-1.135.144-1.552.432-.403.288-.705.687-.907 1.198-.201.497-.302 1.073-.302 1.728 0 .628.094 1.198.282 1.708.201.511.504.91.907 1.198.416.288.947.432 1.592.432.484 0 .9-.085 1.249-.255a2.05 2.05 0 0 0 .826-.707 2.28 2.28 0 0 0 .403-1.021h2.72c-.054.864-.316 1.623-.786 2.278-.457.641-1.068 1.146-1.834 1.512-.752.367-1.612.55-2.579.55zm-12.455 0c-.94 0-1.767-.157-2.478-.471-.699-.314-1.283-.733-1.753-1.257a5.88 5.88 0 0 1-1.048-1.787 6.04 6.04 0 0 1-.343-2.003v-.373c0-.707.114-1.388.343-2.042a5.36 5.36 0 0 1 1.048-1.767c.47-.524 1.048-.936 1.733-1.237.685-.314 1.478-.471 2.378-.471 1.182 0 2.169.255 2.962.766.806.497 1.411 1.159 1.813 1.983.403.812.605 1.689.605 2.631v.982h-9.692v-1.67h7.939l-.866.825c0-.681-.101-1.263-.302-1.748s-.51-.857-.927-1.119c-.403-.262-.913-.393-1.531-.393s-1.142.137-1.572.412-.759.674-.987 1.198c-.215.511-.322 1.126-.322 1.846 0 .668.107 1.263.322 1.787.215.511.544.916.987 1.217.443.288 1.008.432 1.693.432s1.243-.131 1.672-.393c.43-.275.705-.609.826-1.001h2.579a4.46 4.46 0 0 1-.927 1.924c-.457.55-1.041.975-1.753 1.276-.699.301-1.498.452-2.398.452zm-19.354-.373V4.959c0-1.217.343-2.114 1.028-2.69.699-.589 1.726-.884 3.083-.884h1.028v2.101h-1.229c-.416 0-.739.111-.967.334-.215.209-.322.511-.322.903v11.271h-2.62zm7.133 0V5.077c0-1.217.342-2.114 1.028-2.69.699-.589 1.726-.884 3.083-.884h1.33v2.101h-1.531c-.416 0-.739.111-.967.334-.215.209-.322.511-.322.903v11.153H48.27zm-8.483-8.483V5.509H53.89v2.003H39.785z"/><path d="M28.764 11.883c-.201-.501-.328-1.05-.38-1.647h9.941V9.033a6.72 6.72 0 0 0-.679-2.979c-.441-.939-1.128-1.703-2.054-2.289-.924-.61-2.091-.907-3.486-.907-1.076 0-2.027.188-2.846.571a5.46 5.46 0 0 0-1.982 1.503 6.34 6.34 0 0 0-1.167 2.086l-.001.004a7.89 7.89 0 0 0-.362 2.378v.412a7.81 7.81 0 0 0 .362 2.355l.001.004a6.6 6.6 0 0 0 1.166 2.108l.002.002c.525.623 1.203 1.124 2.029 1.502.835.383 1.818.571 2.94.571 1.012 0 1.928-.165 2.743-.498s1.496-.82 2.037-1.46.902-1.4 1.081-2.272l.054-.261h-2.569l-.038.172c-.11.497-.444.951-1.038 1.357l-.002.002c-.563.394-1.312.601-2.267.601-.908 0-1.636-.191-2.202-.558a3.52 3.52 0 0 1-1.282-1.551zm6.86-3.733h-7.12c.065-.299.152-.581.26-.844.283-.651.695-1.159 1.237-1.53.55-.366 1.247-.557 2.106-.557.831 0 1.499.169 2.019.493s.918.787 1.184 1.391v.002c.141.313.246.662.314 1.046zM0 3a3 3 0 0 1 3-3h10.792a3 3 0 0 1 3 3v6.273H7.836V18H3a3 3 0 0 1-3-3V3zm7.836 15l8.955-8.727v3.273L11.194 18H7.836z" fill-rule="evenodd"/></svg><svg height="18" viewBox="0 0 240 18" width="240" x="4" y="48" fill="none"><g fill="#000"><path d="M234.035 15.995V5.509h1.532v4.32h-.081c0-1.532.343-2.651 1.028-3.358.698-.72 1.739-1.08 3.123-1.08H240V7.08h-.686c-1.074 0-1.9.281-2.478.844-.578.55-.866 1.348-.866 2.396v5.675h-1.935zm-7.763.353c-.941 0-1.753-.157-2.439-.471s-1.242-.727-1.672-1.237a5.47 5.47 0 0 1-.967-1.748 6.5 6.5 0 0 1-.302-1.964v-.353c0-.681.1-1.342.302-1.983a5.25 5.25 0 0 1 .967-1.728c.43-.524.974-.936 1.632-1.237.672-.314 1.458-.471 2.358-.471 1.168 0 2.129.249 2.881.746.766.484 1.33 1.113 1.693 1.885a5.58 5.58 0 0 1 .564 2.474v.844h-9.551V9.692h8.14l-.443.766c0-.746-.121-1.388-.363-1.924a2.77 2.77 0 0 0-1.088-1.276c-.484-.301-1.094-.452-1.833-.452-.766 0-1.404.17-1.915.511-.497.34-.873.805-1.128 1.394-.242.589-.363 1.27-.363 2.042 0 .746.121 1.42.363 2.022a3.21 3.21 0 0 0 1.169 1.414c.524.34 1.189.511 1.995.511.846 0 1.531-.183 2.055-.55.537-.366.86-.792.967-1.276h1.814c-.148.72-.444 1.342-.887 1.865a4.28 4.28 0 0 1-1.672 1.198c-.671.275-1.431.412-2.277.412zm-8.884-.235c-.806 0-1.505-.111-2.096-.334a2.65 2.65 0 0 1-1.35-1.139c-.309-.55-.463-1.289-.463-2.219V2.328h1.854v10.329c0 .563.154 1.001.463 1.316.322.301.772.452 1.35.452h1.894v1.689h-1.652zm-5.763-9.19V5.509h7.415v1.414h-7.415zm-2.816 9.19c-.806 0-1.505-.111-2.096-.334a2.65 2.65 0 0 1-1.35-1.139c-.309-.55-.463-1.289-.463-2.219V2.328h1.853v10.329c0 .563.155 1.001.464 1.316.322.301.772.452 1.35.452h1.894v1.689h-1.652zm-5.763-9.19V5.509h7.415v1.414h-7.415zm-6.192 9.425c-.941 0-1.753-.157-2.438-.471s-1.243-.727-1.673-1.237a5.47 5.47 0 0 1-.967-1.748 6.5 6.5 0 0 1-.302-1.964v-.353c0-.681.1-1.342.302-1.983a5.25 5.25 0 0 1 .967-1.728c.43-.524.974-.936 1.632-1.237.672-.314 1.458-.471 2.358-.471 1.168 0 2.129.249 2.881.746.766.484 1.33 1.113 1.693 1.885a5.58 5.58 0 0 1 .564 2.474v.844h-9.551V9.692h8.141l-.444.766c0-.746-.121-1.388-.362-1.924a2.78 2.78 0 0 0-1.089-1.276c-.483-.301-1.094-.452-1.833-.452-.766 0-1.404.17-1.914.511a3.17 3.17 0 0 0-1.129 1.394c-.242.589-.363 1.27-.363 2.042 0 .746.121 1.42.363 2.022a3.21 3.21 0 0 0 1.169 1.414c.524.34 1.189.511 1.995.511.846 0 1.531-.183 2.055-.55.537-.366.86-.792.967-1.276h1.814c-.148.72-.444 1.342-.887 1.865a4.28 4.28 0 0 1-1.672 1.198c-.671.275-1.431.412-2.277.412z"/><path fill-rule="evenodd" d="M184.19 2.075h-1.894v13.975h8.041v-1.716h-6.147V2.075z"/><path d="M172.564 15.995V5.509h1.532v4.32h-.081c0-1.532.343-2.651 1.028-3.358.698-.72 1.74-1.08 3.123-1.08h.363V7.08h-.685c-1.075 0-1.901.281-2.479.844-.577.55-.866 1.348-.866 2.396v5.675h-1.935zm-7.763.353c-.94 0-1.753-.157-2.438-.471s-1.243-.727-1.673-1.237a5.47 5.47 0 0 1-.967-1.748 6.53 6.53 0 0 1-.302-1.964v-.353a6.59 6.59 0 0 1 .302-1.983 5.25 5.25 0 0 1 .967-1.728c.43-.524.974-.936 1.632-1.237.672-.314 1.458-.471 2.358-.471 1.169 0 2.129.249 2.881.746.766.484 1.33 1.113 1.693 1.885a5.58 5.58 0 0 1 .564 2.474v.844h-9.551V9.692h8.141l-.444.766c0-.746-.12-1.388-.362-1.924a2.78 2.78 0 0 0-1.088-1.276c-.483-.301-1.095-.452-1.834-.452-.766 0-1.404.17-1.914.511-.497.34-.873.805-1.129 1.394-.241.589-.362 1.27-.362 2.042 0 .746.121 1.42.362 2.023a3.21 3.21 0 0 0 1.169 1.414c.524.34 1.189.511 1.995.511.846 0 1.531-.183 2.055-.55.538-.366.86-.792.967-1.276h1.814c-.148.72-.443 1.342-.887 1.865a4.28 4.28 0 0 1-1.672 1.198c-.672.275-1.431.412-2.277.412zm-13.336-.353l-3.667-10.486h2.015l3.587 10.486h-1.935zm.484 0v-1.492h2.337v1.492h-2.337zm.927 0l3.123-10.486h1.894l-3.184 10.486h-1.833zm-12.172.353c-.94 0-1.766-.157-2.478-.471s-1.317-.727-1.814-1.237a5.63 5.63 0 0 1-1.108-1.748 5.52 5.52 0 0 1-.363-1.964v-.353c0-.668.128-1.322.383-1.964a5.18 5.18 0 0 1 1.129-1.748 5.32 5.32 0 0 1 1.813-1.237c.712-.314 1.525-.471 2.438-.471s1.726.157 2.438.471c.712.301 1.317.713 1.814 1.237a5.18 5.18 0 0 1 1.128 1.748c.256.641.383 1.296.383 1.964v.353c0 .668-.127 1.322-.383 1.964a5.16 5.16 0 0 1-1.108 1.748c-.484.511-1.081.923-1.793 1.237s-1.538.471-2.479.471zm0-1.689c.806 0 1.491-.17 2.056-.511a3.44 3.44 0 0 0 1.309-1.414c.309-.589.464-1.25.464-1.983 0-.746-.155-1.414-.464-2.003s-.752-1.054-1.33-1.394c-.564-.34-1.242-.511-2.035-.511-.779 0-1.457.17-2.035.511a3.45 3.45 0 0 0-1.33 1.394c-.309.589-.463 1.257-.463 2.003 0 .733.148 1.394.443 1.983a3.63 3.63 0 0 0 1.31 1.414c.577.34 1.269.511 2.075.511z"/><path fill-rule="evenodd" d="M127.376 3.327c-1.036 0-1.958.186-2.763.563-.785.359-1.444.852-1.975 1.479a6.36 6.36 0 0 0-1.2 2.059l-.001.002a7.08 7.08 0 0 0-.383 2.311v.321c0 .778.128 1.549.383 2.31l.001.002c.271.763.671 1.464 1.198 2.103l.001.001c.531.627 1.189 1.127 1.974 1.502l.003.001c.806.361 1.743.539 2.809.539 1.052 0 2.005-.186 2.856-.562l.002-.001c.849-.391 1.542-.931 2.073-1.622.551-.71.857-1.538.921-2.478l.01-.146h-1.967l-.014.121c-.06.524-.261 1.005-.607 1.444l-.001.002c-.33.438-.774.791-1.335 1.057-.542.249-1.186.376-1.938.376-.981 0-1.782-.216-2.411-.64a4.1 4.1 0 0 1-1.433-1.751c-.321-.746-.482-1.552-.482-2.421 0-.885.161-1.683.482-2.397v-.001c.319-.726.789-1.293 1.408-1.705h0c.63-.424 1.424-.64 2.389-.64 1.121 0 1.986.276 2.611.814l.003.002c.648.529 1.039 1.195 1.174 2.002l.019.114h1.966l-.015-.15c-.096-.938-.402-1.756-.919-2.449s-1.194-1.225-2.029-1.601c-.821-.376-1.758-.563-2.81-.563z"/></g><g fill="#0b0de6"><path d="M112.044 16.368c-.941 0-1.767-.157-2.479-.471-.698-.314-1.283-.733-1.753-1.257a5.88 5.88 0 0 1-1.048-1.787 6.05 6.05 0 0 1-.342-2.003v-.373a6.16 6.16 0 0 1 .342-2.042c.242-.668.591-1.257 1.048-1.767.47-.524 1.048-.936 1.733-1.237.685-.314 1.478-.471 2.378-.471 1.182 0 2.169.255 2.962.766a4.74 4.74 0 0 1 1.813 1.983c.403.812.605 1.689.605 2.631v.982h-9.692v-1.67h7.939l-.867.825c0-.681-.1-1.263-.302-1.748a2.34 2.34 0 0 0-.927-1.119c-.403-.262-.913-.393-1.531-.393s-1.142.137-1.572.412-.759.674-.987 1.198c-.215.511-.323 1.126-.323 1.846 0 .668.108 1.263.323 1.787.215.511.544.916.987 1.217.443.288 1.008.432 1.693.432s1.242-.131 1.672-.393c.43-.275.705-.609.826-1.001h2.58a4.48 4.48 0 0 1-.927 1.924c-.457.55-1.041.975-1.753 1.276-.699.301-1.498.452-2.398.452zm-14.231-.373L94.388 5.332h2.881l3.285 10.663h-2.741zm.826 0v-2.239h2.962v2.239h-2.962zm1.108 0l2.821-10.663h2.7l-2.962 10.663h-2.559zm-10.159 0V5.332h2.801v10.663h-2.801zm-1.531-8.62V5.332h4.332v2.042h-4.332zm2.559-3.319c-.551 0-.961-.137-1.229-.412-.255-.288-.383-.641-.383-1.06 0-.445.128-.805.383-1.08.269-.275.678-.412 1.229-.412s.954.137 1.209.412.383.635.383 1.08c0 .419-.128.772-.383 1.06-.255.275-.658.412-1.209.412zm-5.474 12.076c-1.007 0-1.84-.124-2.499-.373a2.78 2.78 0 0 1-1.451-1.296c-.322-.615-.484-1.44-.484-2.474l.02-9.661h2.62l-.02 9.838c0 .524.141.929.423 1.217.296.275.712.412 1.249.412h1.713v2.337h-1.572zm-6.166-8.797V5.332h7.738v2.003h-7.738zm-6.032 9.033c-.954 0-1.78-.157-2.478-.471-.685-.314-1.263-.733-1.733-1.257a5.34 5.34 0 0 1-1.028-1.767 6.04 6.04 0 0 1-.343-2.003v-.373a6.2 6.2 0 0 1 .343-2.062c.242-.668.598-1.257 1.068-1.767.47-.524 1.048-.936 1.733-1.237.698-.314 1.504-.471 2.418-.471.954 0 1.807.183 2.559.55.752.353 1.35.851 1.793 1.492.457.641.712 1.388.766 2.239h-2.72c-.067-.55-.309-1.008-.725-1.375-.403-.367-.96-.55-1.672-.55-.618 0-1.135.144-1.552.432-.403.288-.705.687-.907 1.198-.201.497-.302 1.073-.302 1.728 0 .628.094 1.198.282 1.708.201.511.504.91.907 1.198.416.288.947.432 1.592.432.484 0 .9-.085 1.249-.255a2.05 2.05 0 0 0 .826-.707 2.28 2.28 0 0 0 .403-1.021h2.72c-.054.864-.316 1.623-.786 2.278-.457.641-1.068 1.146-1.834 1.512-.752.367-1.612.55-2.579.55zm-12.455 0c-.94 0-1.767-.157-2.478-.471-.699-.314-1.283-.733-1.753-1.257a5.88 5.88 0 0 1-1.048-1.787 6.04 6.04 0 0 1-.343-2.003v-.373c0-.707.114-1.388.343-2.042a5.36 5.36 0 0 1 1.048-1.767c.47-.524 1.048-.936 1.733-1.237.685-.314 1.478-.471 2.378-.471 1.182 0 2.169.255 2.962.766.806.497 1.411 1.159 1.813 1.983.403.812.605 1.689.605 2.631v.982h-9.692v-1.67h7.939l-.866.825c0-.681-.101-1.263-.302-1.748s-.51-.857-.927-1.119c-.403-.262-.913-.393-1.531-.393s-1.142.137-1.572.412-.759.674-.987 1.198c-.215.511-.322 1.126-.322 1.846 0 .668.107 1.263.322 1.787.215.511.544.916.987 1.217.443.288 1.008.432 1.693.432s1.243-.131 1.672-.393c.43-.275.705-.609.826-1.001h2.579a4.46 4.46 0 0 1-.927 1.924c-.457.55-1.041.975-1.753 1.276-.699.301-1.498.452-2.398.452zm-19.354-.373V4.959c0-1.217.343-2.114 1.028-2.69.699-.589 1.726-.884 3.083-.884h1.028v2.101h-1.229c-.416 0-.739.111-.967.334-.215.209-.322.511-.322.903v11.271h-2.62zm7.133 0V5.077c0-1.217.342-2.114 1.028-2.69.699-.589 1.726-.884 3.083-.884h1.33v2.101h-1.531c-.416 0-.739.111-.967.334-.215.209-.322.511-.322.903v11.153H48.27zm-8.483-8.483V5.509H53.89v2.003H39.785z"/><path d="M28.764 11.883c-.201-.501-.328-1.05-.38-1.647h9.941V9.033a6.72 6.72 0 0 0-.679-2.979c-.441-.939-1.128-1.703-2.054-2.289-.924-.61-2.091-.907-3.486-.907-1.076 0-2.027.188-2.846.571a5.46 5.46 0 0 0-1.982 1.503 6.34 6.34 0 0 0-1.167 2.086l-.001.004a7.89 7.89 0 0 0-.362 2.378v.412a7.81 7.81 0 0 0 .362 2.355l.001.004a6.6 6.6 0 0 0 1.166 2.108l.002.002c.525.623 1.203 1.124 2.029 1.502.835.383 1.818.571 2.94.571 1.012 0 1.928-.165 2.743-.498s1.496-.82 2.037-1.46.902-1.4 1.081-2.272l.054-.261h-2.569l-.038.172c-.11.497-.444.951-1.038 1.357l-.002.002c-.563.394-1.312.601-2.267.601-.908 0-1.636-.191-2.202-.558a3.52 3.52 0 0 1-1.282-1.551zm6.86-3.733h-7.12c.065-.299.152-.581.26-.844.283-.651.695-1.159 1.237-1.53.55-.366 1.247-.557 2.106-.557.831 0 1.499.169 2.019.493s.918.787 1.184 1.391v.002c.141.313.246.662.314 1.046zM0 3a3 3 0 0 1 3-3h10.792a3 3 0 0 1 3 3v6.273H7.836V18H3a3 3 0 0 1-3-3V3zm7.836 15l8.955-8.727v3.273L11.194 18H7.836z" fill-rule="evenodd"/></g></svg><svg height="18" viewBox="0 0 199 18" width="199" x="4" y="70" fill="none"><path d="M193.441 16.3805C192.523 16.3805 191.73 16.2232 191.062 15.9086C190.393 15.5941 189.849 15.1812 189.43 14.6701C189.011 14.1458 188.696 13.5625 188.486 12.9203C188.29 12.2781 188.191 11.6228 188.191 10.9543V10.6005C188.191 9.91891 188.29 9.25702 188.486 8.6148C188.696 7.97258 189.011 7.39589 189.43 6.88473C189.849 6.36046 190.38 5.94761 191.022 5.64616C191.678 5.3316 192.445 5.17432 193.323 5.17432C194.463 5.17432 195.4 5.42334 196.134 5.92139C196.881 6.40634 197.432 7.03545 197.785 7.80874C198.152 8.58203 198.336 9.40775 198.336 10.2859V11.1313H189.017V9.71576H196.96L196.527 10.4825C196.527 9.73541 196.409 9.09319 196.173 8.55582C195.937 8.00534 195.584 7.57938 195.112 7.27793C194.64 6.97647 194.044 6.82575 193.323 6.82575C192.576 6.82575 191.953 6.99614 191.455 7.33691C190.97 7.67768 190.603 8.14296 190.354 8.73276C190.118 9.32256 190 10.0041 190 10.7774C190 11.5245 190.118 12.1995 190.354 12.8024C190.603 13.3922 190.983 13.864 191.494 14.2179C192.005 14.5586 192.654 14.729 193.441 14.729C194.266 14.729 194.935 14.5455 195.446 14.1786C195.97 13.8116 196.285 13.3856 196.39 12.9007H198.159C198.015 13.6215 197.726 14.2441 197.294 14.7684C196.861 15.2926 196.317 15.6924 195.662 15.9676C195.007 16.2428 194.266 16.3805 193.441 16.3805Z" fill="#000"/><path d="M169.951 16.0263V5.52794H171.445V10.0301H171.209C171.209 9.00774 171.34 8.14271 171.603 7.43495C171.878 6.71409 172.284 6.16361 172.822 5.78352C173.359 5.40342 174.04 5.21338 174.866 5.21338H174.945C175.771 5.21338 176.452 5.40342 176.989 5.78352C177.54 6.16361 177.946 6.71409 178.208 7.43495C178.47 8.14271 178.602 9.00774 178.602 10.0301H178.051C178.051 9.00774 178.189 8.14271 178.464 7.43495C178.739 6.71409 179.145 6.16361 179.683 5.78352C180.233 5.40342 180.921 5.21338 181.747 5.21338H181.826C182.651 5.21338 183.34 5.40342 183.89 5.78352C184.441 6.16361 184.847 6.71409 185.109 7.43495C185.384 8.14271 185.522 9.00774 185.522 10.0301V16.0263H183.634V9.6172C183.634 8.76527 183.425 8.10994 183.005 7.65121C182.586 7.17937 182.003 6.94345 181.256 6.94345C180.482 6.94345 179.86 7.19248 179.388 7.69053C178.916 8.17547 178.68 8.85701 178.68 9.73516V16.0263H176.793V9.6172C176.793 8.76527 176.583 8.10994 176.164 7.65121C175.744 7.17937 175.161 6.94345 174.414 6.94345C173.641 6.94345 173.018 7.19248 172.546 7.69053C172.074 8.17547 171.839 8.85701 171.839 9.73516V16.0263H169.951Z" fill="#000"/><path d="M161.242 16.3414C159.997 16.3414 159.04 15.9351 158.372 15.1225C157.703 14.3099 157.369 13.1368 157.369 11.6034V5.50879H159.256V11.9769C159.256 12.8026 159.479 13.4514 159.925 13.9232C160.371 14.382 160.973 14.6113 161.734 14.6113C162.52 14.6113 163.162 14.3623 163.66 13.8642C164.158 13.3531 164.407 12.6584 164.407 11.7803V5.50879H166.295V16.0268H164.801V11.5247H165.037C165.037 12.5601 164.899 13.4383 164.624 14.1591C164.348 14.8669 163.936 15.4108 163.385 15.7909C162.848 16.1579 162.16 16.3414 161.321 16.3414H161.242Z" fill="#000"/><path d="M150.505 16.3409C149.129 16.3409 148.061 16.046 147.301 15.4562C146.553 14.8664 146.167 14.0603 146.141 13.038H147.91C147.936 13.4443 148.139 13.831 148.519 14.198C148.913 14.5518 149.575 14.7288 150.505 14.7288C151.344 14.7288 151.986 14.5649 152.432 14.2373C152.877 13.8965 153.1 13.4836 153.1 12.9987C153.1 12.5662 152.936 12.232 152.609 11.996C152.281 11.747 151.75 11.5832 151.016 11.5045L149.876 11.3866C148.88 11.2817 148.067 10.9868 147.438 10.5019C146.809 10.0038 146.495 9.30919 146.495 8.41794C146.495 7.74951 146.665 7.17937 147.006 6.70753C147.346 6.22259 147.818 5.8556 148.421 5.60658C149.024 5.34444 149.719 5.21338 150.505 5.21338C151.685 5.21338 152.642 5.47551 153.375 5.99977C154.109 6.52404 154.49 7.30388 154.516 8.3393H152.746C152.733 7.91989 152.537 7.56601 152.157 7.27767C151.79 6.97622 151.239 6.82549 150.505 6.82549C149.771 6.82549 149.214 6.97622 148.834 7.27767C148.454 7.57912 148.264 7.95921 148.264 8.41794C148.264 8.81114 148.395 9.1257 148.657 9.36162C148.932 9.59754 149.378 9.74826 149.994 9.8138L151.134 9.93176C152.261 10.0497 153.166 10.3643 153.847 10.8754C154.529 11.3735 154.87 12.0812 154.87 12.9987C154.87 13.654 154.68 14.2373 154.299 14.7484C153.933 15.2465 153.421 15.6397 152.766 15.928C152.111 16.2033 151.357 16.3409 150.505 16.3409Z" fill="#000"/><path d="M139.489 16.3805C138.572 16.3805 137.779 16.2232 137.111 15.9086C136.442 15.5941 135.898 15.1812 135.479 14.6701C135.059 14.1458 134.745 13.5625 134.535 12.9203C134.339 12.2781 134.24 11.6228 134.24 10.9543V10.6005C134.24 9.91891 134.339 9.25702 134.535 8.6148C134.745 7.97258 135.059 7.39589 135.479 6.88473C135.898 6.36046 136.429 5.94761 137.071 5.64616C137.727 5.3316 138.493 5.17432 139.371 5.17432C140.512 5.17432 141.449 5.42334 142.183 5.92139C142.93 6.40634 143.48 7.03545 143.834 7.80874C144.201 8.58203 144.385 9.40775 144.385 10.2859V11.1313H135.066V9.71576H143.009L142.576 10.4825C142.576 9.73541 142.458 9.09319 142.222 8.55582C141.986 8.00534 141.632 7.57938 141.161 7.27793C140.689 6.97647 140.092 6.82575 139.371 6.82575C138.624 6.82575 138.002 6.99614 137.504 7.33691C137.019 7.67768 136.652 8.14296 136.403 8.73276C136.167 9.32256 136.049 10.0041 136.049 10.7774C136.049 11.5245 136.167 12.1995 136.403 12.8024C136.652 13.3922 137.032 13.864 137.543 14.2179C138.054 14.5586 138.703 14.729 139.489 14.729C140.315 14.729 140.984 14.5455 141.495 14.1786C142.019 13.8116 142.334 13.3856 142.438 12.9007H144.208C144.064 13.6215 143.775 14.2441 143.343 14.7684C142.91 15.2926 142.366 15.6924 141.711 15.9676C141.056 16.2428 140.315 16.3805 139.489 16.3805Z" fill="#000"/><path d="M121.826 16.0166V2.79053H123.725V16.0166H121.826ZM130.563 16.0166L125.875 10.1603H128.103L132.868 16.0166H130.563ZM123.008 11.2595V9.69185H126.805C127.399 9.69185 127.909 9.57773 128.335 9.34948C128.761 9.12124 129.091 8.80891 129.323 8.41249C129.556 8.00406 129.672 7.54157 129.672 7.02502C129.672 6.50847 129.556 6.05199 129.323 5.65557C129.091 5.24713 128.761 4.9288 128.335 4.70055C127.909 4.4603 127.399 4.34017 126.805 4.34017H123.008V2.79053H126.456C127.489 2.79053 128.393 2.93468 129.168 3.22299C129.943 3.51129 130.543 3.95576 130.97 4.5564C131.396 5.15704 131.609 5.93186 131.609 6.88087V7.16917C131.609 8.11818 131.389 8.893 130.95 9.49364C130.524 10.0943 129.924 10.5387 129.149 10.8271C128.387 11.1154 127.489 11.2595 126.456 11.2595H123.008Z" fill="#000"/><path d="M112.048 16.3682C111.107 16.3682 110.281 16.2111 109.569 15.8969C108.871 15.5827 108.286 15.1638 107.816 14.6402C107.359 14.1035 107.01 13.5078 106.768 12.8533C106.54 12.1987 106.426 11.5311 106.426 10.8504V10.4773C106.426 9.77038 106.54 9.08966 106.768 8.43511C107.01 7.76747 107.359 7.17838 107.816 6.66784C108.286 6.1442 108.864 5.73184 109.549 5.43075C110.234 5.11656 111.027 4.95947 111.927 4.95947C113.109 4.95947 114.096 5.21475 114.889 5.72529C115.695 6.22275 116.299 6.88384 116.702 7.70856C117.105 8.5202 117.307 9.39729 117.307 10.3398V11.3217H107.615V9.65256H115.554L114.687 10.4773C114.687 9.79656 114.587 9.21402 114.385 8.72966C114.184 8.24529 113.875 7.8722 113.458 7.61038C113.055 7.34856 112.545 7.21765 111.927 7.21765C111.309 7.21765 110.785 7.35511 110.355 7.63002C109.925 7.90493 109.596 8.3042 109.368 8.82784C109.153 9.33838 109.045 9.95366 109.045 10.6737C109.045 11.3413 109.153 11.9369 109.368 12.4606C109.583 12.9711 109.912 13.3769 110.355 13.678C110.798 13.966 111.363 14.11 112.048 14.11C112.733 14.11 113.29 13.9791 113.72 13.7173C114.15 13.4424 114.425 13.1086 114.546 12.7158H117.125C116.964 13.4489 116.655 14.0904 116.199 14.6402C115.742 15.19 115.157 15.6155 114.445 15.9166C113.747 16.2177 112.948 16.3682 112.048 16.3682Z" fill="#000"/><path d="M97.8161 15.9951L94.3906 5.33252H97.2721L100.557 15.9951H97.8161ZM98.6423 15.9951V13.7565H101.604V15.9951H98.6423ZM99.7505 15.9951L102.572 5.33252H105.272L102.31 15.9951H99.7505Z" fill="#000"/><path d="M89.59 15.9948V5.33228H92.3908V15.9948H89.59ZM88.0586 7.37446V5.33228H92.3908V7.37446H88.0586ZM90.6176 4.05591C90.0669 4.05591 89.6572 3.91846 89.3885 3.64355C89.1333 3.35555 89.0056 3.00209 89.0056 2.58318C89.0056 2.13809 89.1333 1.77809 89.3885 1.50318C89.6572 1.22828 90.0669 1.09082 90.6176 1.09082C91.1684 1.09082 91.5714 1.22828 91.8266 1.50318C92.0819 1.77809 92.2095 2.13809 92.2095 2.58318C92.2095 3.00209 92.0819 3.35555 91.8266 3.64355C91.5714 3.91846 91.1684 4.05591 90.6176 4.05591Z" fill="#000"/><path d="M85.1444 16.1325C84.1369 16.1325 83.304 16.0081 82.6458 15.7594C82.001 15.4976 81.5174 15.0656 81.195 14.4634C80.8726 13.8481 80.7114 13.0234 80.7114 11.9892L80.7316 2.32812H83.3511L83.3309 12.1659C83.3309 12.6896 83.472 13.0954 83.7541 13.3834C84.0496 13.6583 84.466 13.7958 85.0034 13.7958H86.7161V16.1325H85.1444ZM78.9785 7.3354V5.33249H86.7161V7.3354H78.9785Z" fill="#000"/><path d="M72.9468 16.3682C71.993 16.3682 71.1669 16.2111 70.4683 15.8969C69.7832 15.5827 69.2056 15.1638 68.7354 14.6402C68.2787 14.1166 67.9361 13.5275 67.7078 12.8729C67.4794 12.2184 67.3652 11.5507 67.3652 10.87V10.4969C67.3652 9.77693 67.4794 9.08966 67.7078 8.43511C67.9496 7.76747 68.3056 7.17838 68.7757 6.66784C69.2459 6.1442 69.8235 5.73184 70.5086 5.43075C71.2072 5.11656 72.0132 4.95947 72.9266 4.95947C73.8804 4.95947 74.7334 5.14275 75.4857 5.50929C76.2379 5.86275 76.8357 6.3602 77.279 7.00165C77.7357 7.64311 77.991 8.38929 78.0447 9.2402H75.3245C75.2573 8.69038 75.0155 8.2322 74.5991 7.86565C74.1961 7.49911 73.6386 7.31584 72.9266 7.31584C72.3087 7.31584 71.7915 7.45984 71.3751 7.74784C70.9721 8.03584 70.6698 8.43511 70.4683 8.94565C70.2668 9.44311 70.1661 10.0191 70.1661 10.6737C70.1661 11.302 70.2601 11.8715 70.4482 12.382C70.6497 12.8926 70.9519 13.2918 71.3549 13.5798C71.7714 13.8678 72.302 14.0118 72.9468 14.0118C73.4304 14.0118 73.8468 13.9267 74.1961 13.7566C74.5453 13.5864 74.8207 13.3507 75.0222 13.0497C75.2372 12.7486 75.3715 12.4082 75.4252 12.0286H78.1455C78.0917 12.8926 77.8298 13.6518 77.3596 14.3064C76.9029 14.9478 76.2917 15.4518 75.526 15.8184C74.7737 16.1849 73.914 16.3682 72.9468 16.3682Z" fill="#000"/><path d="M60.491 16.3682C59.5507 16.3682 58.7245 16.2111 58.0125 15.8969C57.314 15.5827 56.7297 15.1638 56.2595 14.6402C55.8028 14.1035 55.4535 13.5078 55.2117 12.8533C54.9833 12.1987 54.8691 11.5311 54.8691 10.8504V10.4773C54.8691 9.77038 54.9833 9.08966 55.2117 8.43511C55.4535 7.76747 55.8028 7.17838 56.2595 6.66784C56.7297 6.1442 57.3073 5.73184 57.9924 5.43075C58.6775 5.11656 59.47 4.95947 60.3701 4.95947C61.5522 4.95947 62.5396 5.21475 63.3321 5.72529C64.1381 6.22275 64.7426 6.88384 65.1456 7.70856C65.5486 8.5202 65.7501 9.39729 65.7501 10.3398V11.3217H56.058V9.65256H63.9971L63.1306 10.4773C63.1306 9.79656 63.0299 9.21402 62.8284 8.72966C62.6269 8.24529 62.3179 7.8722 61.9015 7.61038C61.4985 7.34856 60.988 7.21765 60.3701 7.21765C59.7521 7.21765 59.2282 7.35511 58.7984 7.63002C58.3685 7.90493 58.0394 8.3042 57.811 8.82784C57.5961 9.33838 57.4886 9.95366 57.4886 10.6737C57.4886 11.3413 57.5961 11.9369 57.811 12.4606C58.026 12.9711 58.3551 13.3769 58.7984 13.678C59.2417 13.966 59.8059 14.11 60.491 14.11C61.1761 14.11 61.7336 13.9791 62.1634 13.7173C62.5933 13.4424 62.8687 13.1086 62.9896 12.7158H65.5688C65.4076 13.4489 65.0986 14.0904 64.6419 14.6402C64.1851 15.19 63.6008 15.6155 62.8888 15.9166C62.1903 16.2177 61.391 16.3682 60.491 16.3682Z" fill="#000"/><path d="M41.1372 15.9952V4.95956C41.1372 3.74211 41.4797 2.84538 42.1648 2.26938C42.8633 1.68029 43.891 1.38574 45.2477 1.38574H46.2754V3.48683H45.0462C44.6298 3.48683 44.3074 3.59811 44.0791 3.82065C43.8641 4.03011 43.7567 4.3312 43.7567 4.72392V15.9952H41.1372ZM48.2702 15.9952V5.07738C48.2702 3.85992 48.6128 2.9632 49.2979 2.3872C49.9964 1.79811 51.0241 1.50356 52.3808 1.50356H53.7107V3.60465H52.1793C51.7629 3.60465 51.4405 3.71592 51.2121 3.93847C50.9972 4.14792 50.8897 4.44901 50.8897 4.84174V15.9952H48.2702ZM39.7871 7.51229V5.50938H53.8921V7.51229H39.7871Z" fill="#000"/><path fill-rule="evenodd" clip-rule="evenodd" d="M28.7672 11.8831C28.5663 11.3818 28.439 10.8333 28.3872 10.2362H38.3281V9.03294C38.3281 7.9787 38.1019 6.98494 37.6489 6.05424C37.2075 5.11493 36.5209 4.35143 35.5951 3.76535C34.6714 3.15515 33.5042 2.8584 32.1096 2.8584C31.0332 2.8584 30.0824 3.04624 29.2631 3.42929C28.4668 3.79369 27.8048 4.29459 27.281 4.93231C26.7619 5.5491 26.3727 6.24482 26.1136 7.01794L26.1124 7.02181C25.8708 7.79117 25.75 8.58399 25.75 9.39949V9.81185C25.75 10.6125 25.8708 11.3977 26.1124 12.1666L26.1137 12.1705C26.3727 12.9436 26.7617 13.6465 27.2801 14.278L27.2818 14.2801C27.8068 14.9036 28.4849 15.4036 29.3108 15.7824C30.1462 16.1655 31.1284 16.3529 32.2506 16.3529C33.263 16.3529 34.1786 16.1885 34.9937 15.8548C35.8092 15.5211 36.4896 15.0345 37.0309 14.3951C37.5735 13.7542 37.9331 12.995 38.1121 12.1226L38.1657 11.8617H35.5962L35.558 12.0337C35.4477 12.5309 35.1146 12.9847 34.5201 13.3902L34.5179 13.3917C33.955 13.7855 33.2056 13.9922 32.2506 13.9922C31.3431 13.9922 30.6143 13.8009 30.0492 13.4343C29.4755 13.0469 29.0487 12.5316 28.7672 11.8831ZM35.6269 8.1504H28.5067C28.5719 7.85117 28.6588 7.56982 28.7669 7.30608C29.0495 6.65472 29.4622 6.14713 30.0039 5.77587C30.554 5.40947 31.2511 5.21913 32.1096 5.21913C32.9409 5.21913 33.6091 5.38846 34.1283 5.71171C34.6519 6.03775 35.0468 6.49873 35.3125 7.10289L35.3133 7.10465C35.4544 7.41795 35.5594 7.76621 35.6269 8.1504Z" fill="#000"/><path fill-rule="evenodd" clip-rule="evenodd" d="M0 3C0 1.34315 1.34315 0 3 0H13.7916C15.4485 0 16.7916 1.34315 16.7916 3V9.27273H7.8361V18H3C1.34315 18 0 16.6569 0 15V3ZM7.8361 18L16.7916 9.27273V12.5455L11.1944 18H7.8361Z" fill="#000"/></svg><svg height="18" viewBox="0 0 199 18" width="199" x="4" y="92" fill="none"><path d="M193.441 16.3805C192.523 16.3805 191.73 16.2232 191.062 15.9086C190.393 15.5941 189.849 15.1812 189.43 14.6701C189.011 14.1458 188.696 13.5625 188.486 12.9203C188.29 12.2781 188.191 11.6228 188.191 10.9543V10.6005C188.191 9.91891 188.29 9.25702 188.486 8.6148C188.696 7.97258 189.011 7.39589 189.43 6.88473C189.849 6.36046 190.38 5.94761 191.022 5.64616C191.678 5.3316 192.445 5.17432 193.323 5.17432C194.463 5.17432 195.4 5.42334 196.134 5.92139C196.881 6.40634 197.432 7.03545 197.785 7.80874C198.152 8.58203 198.336 9.40775 198.336 10.2859V11.1313H189.017V9.71576H196.96L196.527 10.4825C196.527 9.73541 196.409 9.09319 196.173 8.55582C195.937 8.00534 195.584 7.57938 195.112 7.27793C194.64 6.97647 194.044 6.82575 193.323 6.82575C192.576 6.82575 191.953 6.99614 191.455 7.33691C190.97 7.67768 190.603 8.14296 190.354 8.73276C190.118 9.32256 190 10.0041 190 10.7774C190 11.5245 190.118 12.1995 190.354 12.8024C190.603 13.3922 190.983 13.864 191.494 14.2179C192.005 14.5586 192.654 14.729 193.441 14.729C194.266 14.729 194.935 14.5455 195.446 14.1786C195.97 13.8116 196.285 13.3856 196.39 12.9007H198.159C198.015 13.6215 197.726 14.2441 197.294 14.7684C196.861 15.2926 196.317 15.6924 195.662 15.9676C195.007 16.2428 194.266 16.3805 193.441 16.3805Z" fill="#0B0DE6"/><path d="M169.951 16.0263V5.52794H171.445V10.0301H171.209C171.209 9.00774 171.34 8.14271 171.603 7.43495C171.878 6.71409 172.284 6.16361 172.822 5.78352C173.359 5.40342 174.04 5.21338 174.866 5.21338H174.945C175.771 5.21338 176.452 5.40342 176.989 5.78352C177.54 6.16361 177.946 6.71409 178.208 7.43495C178.47 8.14271 178.602 9.00774 178.602 10.0301H178.051C178.051 9.00774 178.189 8.14271 178.464 7.43495C178.739 6.71409 179.145 6.16361 179.683 5.78352C180.233 5.40342 180.921 5.21338 181.747 5.21338H181.826C182.651 5.21338 183.34 5.40342 183.89 5.78352C184.441 6.16361 184.847 6.71409 185.109 7.43495C185.384 8.14271 185.522 9.00774 185.522 10.0301V16.0263H183.634V9.6172C183.634 8.76527 183.425 8.10994 183.005 7.65121C182.586 7.17937 182.003 6.94345 181.256 6.94345C180.482 6.94345 179.86 7.19248 179.388 7.69053C178.916 8.17547 178.68 8.85701 178.68 9.73516V16.0263H176.793V9.6172C176.793 8.76527 176.583 8.10994 176.164 7.65121C175.744 7.17937 175.161 6.94345 174.414 6.94345C173.641 6.94345 173.018 7.19248 172.546 7.69053C172.074 8.17547 171.839 8.85701 171.839 9.73516V16.0263H169.951Z" fill="#0B0DE6"/><path d="M161.242 16.3414C159.997 16.3414 159.04 15.9351 158.372 15.1225C157.703 14.3099 157.369 13.1368 157.369 11.6034V5.50879H159.256V11.9769C159.256 12.8026 159.479 13.4514 159.925 13.9232C160.371 14.382 160.973 14.6113 161.734 14.6113C162.52 14.6113 163.162 14.3623 163.66 13.8642C164.158 13.3531 164.407 12.6584 164.407 11.7803V5.50879H166.295V16.0268H164.801V11.5247H165.037C165.037 12.5601 164.899 13.4383 164.624 14.1591C164.348 14.8669 163.936 15.4108 163.385 15.7909C162.848 16.1579 162.16 16.3414 161.321 16.3414H161.242Z" fill="#0B0DE6"/><path d="M150.505 16.3409C149.129 16.3409 148.061 16.046 147.301 15.4562C146.553 14.8664 146.167 14.0603 146.141 13.038H147.91C147.936 13.4443 148.139 13.831 148.519 14.198C148.913 14.5518 149.575 14.7288 150.505 14.7288C151.344 14.7288 151.986 14.5649 152.432 14.2373C152.877 13.8965 153.1 13.4836 153.1 12.9987C153.1 12.5662 152.936 12.232 152.609 11.996C152.281 11.747 151.75 11.5832 151.016 11.5045L149.876 11.3866C148.88 11.2817 148.067 10.9868 147.438 10.5019C146.809 10.0038 146.495 9.30919 146.495 8.41794C146.495 7.74951 146.665 7.17937 147.006 6.70753C147.346 6.22259 147.818 5.8556 148.421 5.60658C149.024 5.34444 149.719 5.21338 150.505 5.21338C151.685 5.21338 152.642 5.47551 153.375 5.99977C154.109 6.52404 154.49 7.30388 154.516 8.3393H152.746C152.733 7.91989 152.537 7.56601 152.157 7.27767C151.79 6.97622 151.239 6.82549 150.505 6.82549C149.771 6.82549 149.214 6.97622 148.834 7.27767C148.454 7.57912 148.264 7.95921 148.264 8.41794C148.264 8.81114 148.395 9.1257 148.657 9.36162C148.932 9.59754 149.378 9.74826 149.994 9.8138L151.134 9.93176C152.261 10.0497 153.166 10.3643 153.847 10.8754C154.529 11.3735 154.87 12.0812 154.87 12.9987C154.87 13.654 154.68 14.2373 154.299 14.7484C153.933 15.2465 153.421 15.6397 152.766 15.928C152.111 16.2033 151.357 16.3409 150.505 16.3409Z" fill="#0B0DE6"/><path d="M139.489 16.3805C138.572 16.3805 137.779 16.2232 137.111 15.9086C136.442 15.5941 135.898 15.1812 135.479 14.6701C135.059 14.1458 134.745 13.5625 134.535 12.9203C134.339 12.2781 134.24 11.6228 134.24 10.9543V10.6005C134.24 9.91891 134.339 9.25702 134.535 8.6148C134.745 7.97258 135.059 7.39589 135.479 6.88473C135.898 6.36046 136.429 5.94761 137.071 5.64616C137.727 5.3316 138.493 5.17432 139.371 5.17432C140.512 5.17432 141.449 5.42334 142.183 5.92139C142.93 6.40634 143.48 7.03545 143.834 7.80874C144.201 8.58203 144.385 9.40775 144.385 10.2859V11.1313H135.066V9.71576H143.009L142.576 10.4825C142.576 9.73541 142.458 9.09319 142.222 8.55582C141.986 8.00534 141.632 7.57938 141.161 7.27793C140.689 6.97647 140.092 6.82575 139.371 6.82575C138.624 6.82575 138.002 6.99614 137.504 7.33691C137.019 7.67768 136.652 8.14296 136.403 8.73276C136.167 9.32256 136.049 10.0041 136.049 10.7774C136.049 11.5245 136.167 12.1995 136.403 12.8024C136.652 13.3922 137.032 13.864 137.543 14.2179C138.054 14.5586 138.703 14.729 139.489 14.729C140.315 14.729 140.984 14.5455 141.495 14.1786C142.019 13.8116 142.334 13.3856 142.438 12.9007H144.208C144.064 13.6215 143.775 14.2441 143.343 14.7684C142.91 15.2926 142.366 15.6924 141.711 15.9676C141.056 16.2428 140.315 16.3805 139.489 16.3805Z" fill="#0B0DE6"/><path d="M121.826 16.0166V2.79053H123.725V16.0166H121.826ZM130.563 16.0166L125.875 10.1603H128.103L132.868 16.0166H130.563ZM123.008 11.2595V9.69185H126.805C127.399 9.69185 127.909 9.57773 128.335 9.34948C128.761 9.12124 129.091 8.80891 129.323 8.41249C129.556 8.00406 129.672 7.54157 129.672 7.02502C129.672 6.50847 129.556 6.05199 129.323 5.65557C129.091 5.24713 128.761 4.9288 128.335 4.70055C127.909 4.4603 127.399 4.34017 126.805 4.34017H123.008V2.79053H126.456C127.489 2.79053 128.393 2.93468 129.168 3.22299C129.943 3.51129 130.543 3.95576 130.97 4.5564C131.396 5.15704 131.609 5.93186 131.609 6.88087V7.16917C131.609 8.11818 131.389 8.893 130.95 9.49364C130.524 10.0943 129.924 10.5387 129.149 10.8271C128.387 11.1154 127.489 11.2595 126.456 11.2595H123.008Z" fill="#0B0DE6"/><path d="M112.048 16.3682C111.107 16.3682 110.281 16.2111 109.569 15.8969C108.871 15.5827 108.286 15.1638 107.816 14.6402C107.359 14.1035 107.01 13.5078 106.768 12.8533C106.54 12.1987 106.426 11.5311 106.426 10.8504V10.4773C106.426 9.77038 106.54 9.08966 106.768 8.43511C107.01 7.76747 107.359 7.17838 107.816 6.66784C108.286 6.1442 108.864 5.73184 109.549 5.43075C110.234 5.11656 111.027 4.95947 111.927 4.95947C113.109 4.95947 114.096 5.21475 114.889 5.72529C115.695 6.22275 116.299 6.88384 116.702 7.70856C117.105 8.5202 117.307 9.39729 117.307 10.3398V11.3217H107.615V9.65256H115.554L114.687 10.4773C114.687 9.79656 114.587 9.21402 114.385 8.72966C114.184 8.24529 113.875 7.8722 113.458 7.61038C113.055 7.34856 112.545 7.21765 111.927 7.21765C111.309 7.21765 110.785 7.35511 110.355 7.63002C109.925 7.90493 109.596 8.3042 109.368 8.82784C109.153 9.33838 109.045 9.95366 109.045 10.6737C109.045 11.3413 109.153 11.9369 109.368 12.4606C109.583 12.9711 109.912 13.3769 110.355 13.678C110.798 13.966 111.363 14.11 112.048 14.11C112.733 14.11 113.29 13.9791 113.72 13.7173C114.15 13.4424 114.425 13.1086 114.546 12.7158H117.125C116.964 13.4489 116.655 14.0904 116.199 14.6402C115.742 15.19 115.157 15.6155 114.445 15.9166C113.747 16.2177 112.948 16.3682 112.048 16.3682Z" fill="#0B0DE6"/><path d="M97.8161 15.9951L94.3906 5.33252H97.2721L100.557 15.9951H97.8161ZM98.6423 15.9951V13.7565H101.604V15.9951H98.6423ZM99.7505 15.9951L102.572 5.33252H105.272L102.31 15.9951H99.7505Z" fill="#0B0DE6"/><path d="M89.59 15.9948V5.33228H92.3908V15.9948H89.59ZM88.0586 7.37446V5.33228H92.3908V7.37446H88.0586ZM90.6176 4.05591C90.0669 4.05591 89.6572 3.91846 89.3885 3.64355C89.1333 3.35555 89.0056 3.00209 89.0056 2.58318C89.0056 2.13809 89.1333 1.77809 89.3885 1.50318C89.6572 1.22828 90.0669 1.09082 90.6176 1.09082C91.1684 1.09082 91.5714 1.22828 91.8266 1.50318C92.0819 1.77809 92.2095 2.13809 92.2095 2.58318C92.2095 3.00209 92.0819 3.35555 91.8266 3.64355C91.5714 3.91846 91.1684 4.05591 90.6176 4.05591Z" fill="#0B0DE6"/><path d="M85.1444 16.1325C84.1369 16.1325 83.304 16.0081 82.6458 15.7594C82.001 15.4976 81.5174 15.0656 81.195 14.4634C80.8726 13.8481 80.7114 13.0234 80.7114 11.9892L80.7316 2.32812H83.3511L83.3309 12.1659C83.3309 12.6896 83.472 13.0954 83.7541 13.3834C84.0496 13.6583 84.466 13.7958 85.0034 13.7958H86.7161V16.1325H85.1444ZM78.9785 7.3354V5.33249H86.7161V7.3354H78.9785Z" fill="#0B0DE6"/><path d="M72.9468 16.3682C71.993 16.3682 71.1669 16.2111 70.4683 15.8969C69.7832 15.5827 69.2056 15.1638 68.7354 14.6402C68.2787 14.1166 67.9361 13.5275 67.7078 12.8729C67.4794 12.2184 67.3652 11.5507 67.3652 10.87V10.4969C67.3652 9.77693 67.4794 9.08966 67.7078 8.43511C67.9496 7.76747 68.3056 7.17838 68.7757 6.66784C69.2459 6.1442 69.8235 5.73184 70.5086 5.43075C71.2072 5.11656 72.0132 4.95947 72.9266 4.95947C73.8804 4.95947 74.7334 5.14275 75.4857 5.50929C76.2379 5.86275 76.8357 6.3602 77.279 7.00165C77.7357 7.64311 77.991 8.38929 78.0447 9.2402H75.3245C75.2573 8.69038 75.0155 8.2322 74.5991 7.86565C74.1961 7.49911 73.6386 7.31584 72.9266 7.31584C72.3087 7.31584 71.7915 7.45984 71.3751 7.74784C70.9721 8.03584 70.6698 8.43511 70.4683 8.94565C70.2668 9.44311 70.1661 10.0191 70.1661 10.6737C70.1661 11.302 70.2601 11.8715 70.4482 12.382C70.6497 12.8926 70.9519 13.2918 71.3549 13.5798C71.7714 13.8678 72.302 14.0118 72.9468 14.0118C73.4304 14.0118 73.8468 13.9267 74.1961 13.7566C74.5453 13.5864 74.8207 13.3507 75.0222 13.0497C75.2372 12.7486 75.3715 12.4082 75.4252 12.0286H78.1455C78.0917 12.8926 77.8298 13.6518 77.3596 14.3064C76.9029 14.9478 76.2917 15.4518 75.526 15.8184C74.7737 16.1849 73.914 16.3682 72.9468 16.3682Z" fill="#0B0DE6"/><path d="M60.491 16.3682C59.5507 16.3682 58.7245 16.2111 58.0125 15.8969C57.314 15.5827 56.7297 15.1638 56.2595 14.6402C55.8028 14.1035 55.4535 13.5078 55.2117 12.8533C54.9833 12.1987 54.8691 11.5311 54.8691 10.8504V10.4773C54.8691 9.77038 54.9833 9.08966 55.2117 8.43511C55.4535 7.76747 55.8028 7.17838 56.2595 6.66784C56.7297 6.1442 57.3073 5.73184 57.9924 5.43075C58.6775 5.11656 59.47 4.95947 60.3701 4.95947C61.5522 4.95947 62.5396 5.21475 63.3321 5.72529C64.1381 6.22275 64.7426 6.88384 65.1456 7.70856C65.5486 8.5202 65.7501 9.39729 65.7501 10.3398V11.3217H56.058V9.65256H63.9971L63.1306 10.4773C63.1306 9.79656 63.0299 9.21402 62.8284 8.72966C62.6269 8.24529 62.3179 7.8722 61.9015 7.61038C61.4985 7.34856 60.988 7.21765 60.3701 7.21765C59.7521 7.21765 59.2282 7.35511 58.7984 7.63002C58.3685 7.90493 58.0394 8.3042 57.811 8.82784C57.5961 9.33838 57.4886 9.95366 57.4886 10.6737C57.4886 11.3413 57.5961 11.9369 57.811 12.4606C58.026 12.9711 58.3551 13.3769 58.7984 13.678C59.2417 13.966 59.8059 14.11 60.491 14.11C61.1761 14.11 61.7336 13.9791 62.1634 13.7173C62.5933 13.4424 62.8687 13.1086 62.9896 12.7158H65.5688C65.4076 13.4489 65.0986 14.0904 64.6419 14.6402C64.1851 15.19 63.6008 15.6155 62.8888 15.9166C62.1903 16.2177 61.391 16.3682 60.491 16.3682Z" fill="#0B0DE6"/><path d="M41.1372 15.9952V4.95956C41.1372 3.74211 41.4797 2.84538 42.1648 2.26938C42.8633 1.68029 43.891 1.38574 45.2477 1.38574H46.2754V3.48683H45.0462C44.6298 3.48683 44.3074 3.59811 44.0791 3.82065C43.8641 4.03011 43.7567 4.3312 43.7567 4.72392V15.9952H41.1372ZM48.2702 15.9952V5.07738C48.2702 3.85992 48.6128 2.9632 49.2979 2.3872C49.9964 1.79811 51.0241 1.50356 52.3808 1.50356H53.7107V3.60465H52.1793C51.7629 3.60465 51.4405 3.71592 51.2121 3.93847C50.9972 4.14792 50.8897 4.44901 50.8897 4.84174V15.9952H48.2702ZM39.7871 7.51229V5.50938H53.8921V7.51229H39.7871Z" fill="#0B0DE6"/><path fill-rule="evenodd" clip-rule="evenodd" d="M28.7672 11.8831C28.5663 11.3818 28.439 10.8333 28.3872 10.2362H38.3281V9.03294C38.3281 7.9787 38.1019 6.98494 37.6489 6.05424C37.2075 5.11493 36.5209 4.35143 35.5951 3.76535C34.6714 3.15515 33.5042 2.8584 32.1096 2.8584C31.0332 2.8584 30.0824 3.04624 29.2631 3.42929C28.4668 3.79369 27.8048 4.29459 27.281 4.93231C26.7619 5.5491 26.3727 6.24482 26.1136 7.01794L26.1124 7.02181C25.8708 7.79117 25.75 8.58399 25.75 9.39949V9.81185C25.75 10.6125 25.8708 11.3977 26.1124 12.1666L26.1137 12.1705C26.3727 12.9436 26.7617 13.6465 27.2801 14.278L27.2818 14.2801C27.8068 14.9036 28.4849 15.4036 29.3108 15.7824C30.1462 16.1655 31.1284 16.3529 32.2506 16.3529C33.263 16.3529 34.1786 16.1885 34.9937 15.8548C35.8092 15.5211 36.4896 15.0345 37.0309 14.3951C37.5735 13.7542 37.9331 12.995 38.1121 12.1226L38.1657 11.8617H35.5962L35.558 12.0337C35.4477 12.5309 35.1146 12.9847 34.5201 13.3902L34.5179 13.3917C33.955 13.7855 33.2056 13.9922 32.2506 13.9922C31.3431 13.9922 30.6143 13.8009 30.0492 13.4343C29.4755 13.0469 29.0487 12.5316 28.7672 11.8831ZM35.6269 8.1504H28.5067C28.5719 7.85117 28.6588 7.56982 28.7669 7.30608C29.0495 6.65472 29.4622 6.14713 30.0039 5.77587C30.554 5.40947 31.2511 5.21913 32.1096 5.21913C32.9409 5.21913 33.6091 5.38846 34.1283 5.71171C34.6519 6.03775 35.0468 6.49873 35.3125 7.10289L35.3133 7.10465C35.4544 7.41795 35.5594 7.76621 35.6269 8.1504Z" fill="#0B0DE6"/><path fill-rule="evenodd" clip-rule="evenodd" d="M0 3C0 1.34315 1.34315 0 3 0H13.7916C15.4485 0 16.7916 1.34315 16.7916 3V9.27273H7.8361V18H3C1.34315 18 0 16.6569 0 15V3ZM7.8361 18L16.7916 9.27273V12.5455L11.1944 18H7.8361Z" fill="#0B0DE6"/></svg><svg height="18" viewBox="0 0 199 18" width="199" x="4" y="114" fill="none"><path d="M193.441 16.3805C192.523 16.3805 191.73 16.2232 191.062 15.9086C190.393 15.5941 189.849 15.1812 189.43 14.6701C189.011 14.1458 188.696 13.5625 188.486 12.9203C188.29 12.2781 188.191 11.6228 188.191 10.9543V10.6005C188.191 9.91891 188.29 9.25702 188.486 8.6148C188.696 7.97258 189.011 7.39589 189.43 6.88473C189.849 6.36046 190.38 5.94761 191.022 5.64616C191.678 5.3316 192.445 5.17432 193.323 5.17432C194.463 5.17432 195.4 5.42334 196.134 5.92139C196.881 6.40634 197.432 7.03545 197.785 7.80874C198.152 8.58203 198.336 9.40775 198.336 10.2859V11.1313H189.017V9.71576H196.96L196.527 10.4825C196.527 9.73541 196.409 9.09319 196.173 8.55582C195.937 8.00534 195.584 7.57938 195.112 7.27793C194.64 6.97647 194.044 6.82575 193.323 6.82575C192.576 6.82575 191.953 6.99614 191.455 7.33691C190.97 7.67768 190.603 8.14296 190.354 8.73276C190.118 9.32256 190 10.0041 190 10.7774C190 11.5245 190.118 12.1995 190.354 12.8024C190.603 13.3922 190.983 13.864 191.494 14.2179C192.005 14.5586 192.654 14.729 193.441 14.729C194.266 14.729 194.935 14.5455 195.446 14.1786C195.97 13.8116 196.285 13.3856 196.39 12.9007H198.159C198.015 13.6215 197.726 14.2441 197.294 14.7684C196.861 15.2926 196.317 15.6924 195.662 15.9676C195.007 16.2428 194.266 16.3805 193.441 16.3805Z" fill="#000"/><path d="M169.951 16.0263V5.52794H171.445V10.0301H171.209C171.209 9.00774 171.34 8.14271 171.603 7.43495C171.878 6.71409 172.284 6.16361 172.822 5.78352C173.359 5.40342 174.04 5.21338 174.866 5.21338H174.945C175.771 5.21338 176.452 5.40342 176.989 5.78352C177.54 6.16361 177.946 6.71409 178.208 7.43495C178.47 8.14271 178.602 9.00774 178.602 10.0301H178.051C178.051 9.00774 178.189 8.14271 178.464 7.43495C178.739 6.71409 179.145 6.16361 179.683 5.78352C180.233 5.40342 180.921 5.21338 181.747 5.21338H181.826C182.651 5.21338 183.34 5.40342 183.89 5.78352C184.441 6.16361 184.847 6.71409 185.109 7.43495C185.384 8.14271 185.522 9.00774 185.522 10.0301V16.0263H183.634V9.6172C183.634 8.76527 183.425 8.10994 183.005 7.65121C182.586 7.17937 182.003 6.94345 181.256 6.94345C180.482 6.94345 179.86 7.19248 179.388 7.69053C178.916 8.17547 178.68 8.85701 178.68 9.73516V16.0263H176.793V9.6172C176.793 8.76527 176.583 8.10994 176.164 7.65121C175.744 7.17937 175.161 6.94345 174.414 6.94345C173.641 6.94345 173.018 7.19248 172.546 7.69053C172.074 8.17547 171.839 8.85701 171.839 9.73516V16.0263H169.951Z" fill="#000"/><path d="M161.242 16.3414C159.997 16.3414 159.04 15.9351 158.372 15.1225C157.703 14.3099 157.369 13.1368 157.369 11.6034V5.50879H159.256V11.9769C159.256 12.8026 159.479 13.4514 159.925 13.9232C160.371 14.382 160.973 14.6113 161.734 14.6113C162.52 14.6113 163.162 14.3623 163.66 13.8642C164.158 13.3531 164.407 12.6584 164.407 11.7803V5.50879H166.295V16.0268H164.801V11.5247H165.037C165.037 12.5601 164.899 13.4383 164.624 14.1591C164.348 14.8669 163.936 15.4108 163.385 15.7909C162.848 16.1579 162.16 16.3414 161.321 16.3414H161.242Z" fill="#000"/><path d="M150.505 16.3409C149.129 16.3409 148.061 16.046 147.301 15.4562C146.553 14.8664 146.167 14.0603 146.141 13.038H147.91C147.936 13.4443 148.139 13.831 148.519 14.198C148.913 14.5518 149.575 14.7288 150.505 14.7288C151.344 14.7288 151.986 14.5649 152.432 14.2373C152.877 13.8965 153.1 13.4836 153.1 12.9987C153.1 12.5662 152.936 12.232 152.609 11.996C152.281 11.747 151.75 11.5832 151.016 11.5045L149.876 11.3866C148.88 11.2817 148.067 10.9868 147.438 10.5019C146.809 10.0038 146.495 9.30919 146.495 8.41794C146.495 7.74951 146.665 7.17937 147.006 6.70753C147.346 6.22259 147.818 5.8556 148.421 5.60658C149.024 5.34444 149.719 5.21338 150.505 5.21338C151.685 5.21338 152.642 5.47551 153.375 5.99977C154.109 6.52404 154.49 7.30388 154.516 8.3393H152.746C152.733 7.91989 152.537 7.56601 152.157 7.27767C151.79 6.97622 151.239 6.82549 150.505 6.82549C149.771 6.82549 149.214 6.97622 148.834 7.27767C148.454 7.57912 148.264 7.95921 148.264 8.41794C148.264 8.81114 148.395 9.1257 148.657 9.36162C148.932 9.59754 149.378 9.74826 149.994 9.8138L151.134 9.93176C152.261 10.0497 153.166 10.3643 153.847 10.8754C154.529 11.3735 154.87 12.0812 154.87 12.9987C154.87 13.654 154.68 14.2373 154.299 14.7484C153.933 15.2465 153.421 15.6397 152.766 15.928C152.111 16.2033 151.357 16.3409 150.505 16.3409Z" fill="#000"/><path d="M139.489 16.3805C138.572 16.3805 137.779 16.2232 137.111 15.9086C136.442 15.5941 135.898 15.1812 135.479 14.6701C135.059 14.1458 134.745 13.5625 134.535 12.9203C134.339 12.2781 134.24 11.6228 134.24 10.9543V10.6005C134.24 9.91891 134.339 9.25702 134.535 8.6148C134.745 7.97258 135.059 7.39589 135.479 6.88473C135.898 6.36046 136.429 5.94761 137.071 5.64616C137.727 5.3316 138.493 5.17432 139.371 5.17432C140.512 5.17432 141.449 5.42334 142.183 5.92139C142.93 6.40634 143.48 7.03545 143.834 7.80874C144.201 8.58203 144.385 9.40775 144.385 10.2859V11.1313H135.066V9.71576H143.009L142.576 10.4825C142.576 9.73541 142.458 9.09319 142.222 8.55582C141.986 8.00534 141.632 7.57938 141.161 7.27793C140.689 6.97647 140.092 6.82575 139.371 6.82575C138.624 6.82575 138.002 6.99614 137.504 7.33691C137.019 7.67768 136.652 8.14296 136.403 8.73276C136.167 9.32256 136.049 10.0041 136.049 10.7774C136.049 11.5245 136.167 12.1995 136.403 12.8024C136.652 13.3922 137.032 13.864 137.543 14.2179C138.054 14.5586 138.703 14.729 139.489 14.729C140.315 14.729 140.984 14.5455 141.495 14.1786C142.019 13.8116 142.334 13.3856 142.438 12.9007H144.208C144.064 13.6215 143.775 14.2441 143.343 14.7684C142.91 15.2926 142.366 15.6924 141.711 15.9676C141.056 16.2428 140.315 16.3805 139.489 16.3805Z" fill="#000"/><path d="M121.826 16.0166V2.79053H123.725V16.0166H121.826ZM130.563 16.0166L125.875 10.1603H128.103L132.868 16.0166H130.563ZM123.008 11.2595V9.69185H126.805C127.399 9.69185 127.909 9.57773 128.335 9.34948C128.761 9.12124 129.091 8.80891 129.323 8.41249C129.556 8.00406 129.672 7.54157 129.672 7.02502C129.672 6.50847 129.556 6.05199 129.323 5.65557C129.091 5.24713 128.761 4.9288 128.335 4.70055C127.909 4.4603 127.399 4.34017 126.805 4.34017H123.008V2.79053H126.456C127.489 2.79053 128.393 2.93468 129.168 3.22299C129.943 3.51129 130.543 3.95576 130.97 4.5564C131.396 5.15704 131.609 5.93186 131.609 6.88087V7.16917C131.609 8.11818 131.389 8.893 130.95 9.49364C130.524 10.0943 129.924 10.5387 129.149 10.8271C128.387 11.1154 127.489 11.2595 126.456 11.2595H123.008Z" fill="#000"/><path d="M112.048 16.3682C111.107 16.3682 110.281 16.2111 109.569 15.8969C108.871 15.5827 108.286 15.1638 107.816 14.6402C107.359 14.1035 107.01 13.5078 106.768 12.8533C106.54 12.1987 106.426 11.5311 106.426 10.8504V10.4773C106.426 9.77038 106.54 9.08966 106.768 8.43511C107.01 7.76747 107.359 7.17838 107.816 6.66784C108.286 6.1442 108.864 5.73184 109.549 5.43075C110.234 5.11656 111.027 4.95947 111.927 4.95947C113.109 4.95947 114.096 5.21475 114.889 5.72529C115.695 6.22275 116.299 6.88384 116.702 7.70856C117.105 8.5202 117.307 9.39729 117.307 10.3398V11.3217H107.615V9.65256H115.554L114.687 10.4773C114.687 9.79656 114.587 9.21402 114.385 8.72966C114.184 8.24529 113.875 7.8722 113.458 7.61038C113.055 7.34856 112.545 7.21765 111.927 7.21765C111.309 7.21765 110.785 7.35511 110.355 7.63002C109.925 7.90493 109.596 8.3042 109.368 8.82784C109.153 9.33838 109.045 9.95366 109.045 10.6737C109.045 11.3413 109.153 11.9369 109.368 12.4606C109.583 12.9711 109.912 13.3769 110.355 13.678C110.798 13.966 111.363 14.11 112.048 14.11C112.733 14.11 113.29 13.9791 113.72 13.7173C114.15 13.4424 114.425 13.1086 114.546 12.7158H117.125C116.964 13.4489 116.655 14.0904 116.199 14.6402C115.742 15.19 115.157 15.6155 114.445 15.9166C113.747 16.2177 112.948 16.3682 112.048 16.3682Z" fill="#0B0DE6"/><path d="M97.8161 15.9951L94.3906 5.33252H97.2721L100.557 15.9951H97.8161ZM98.6423 15.9951V13.7565H101.604V15.9951H98.6423ZM99.7505 15.9951L102.572 5.33252H105.272L102.31 15.9951H99.7505Z" fill="#0B0DE6"/><path d="M89.59 15.9948V5.33228H92.3908V15.9948H89.59ZM88.0586 7.37446V5.33228H92.3908V7.37446H88.0586ZM90.6176 4.05591C90.0669 4.05591 89.6572 3.91846 89.3885 3.64355C89.1333 3.35555 89.0056 3.00209 89.0056 2.58318C89.0056 2.13809 89.1333 1.77809 89.3885 1.50318C89.6572 1.22828 90.0669 1.09082 90.6176 1.09082C91.1684 1.09082 91.5714 1.22828 91.8266 1.50318C92.0819 1.77809 92.2095 2.13809 92.2095 2.58318C92.2095 3.00209 92.0819 3.35555 91.8266 3.64355C91.5714 3.91846 91.1684 4.05591 90.6176 4.05591Z" fill="#0B0DE6"/><path d="M85.1444 16.1325C84.1369 16.1325 83.304 16.0081 82.6458 15.7594C82.001 15.4976 81.5174 15.0656 81.195 14.4634C80.8726 13.8481 80.7114 13.0234 80.7114 11.9892L80.7316 2.32812H83.3511L83.3309 12.1659C83.3309 12.6896 83.472 13.0954 83.7541 13.3834C84.0496 13.6583 84.466 13.7958 85.0034 13.7958H86.7161V16.1325H85.1444ZM78.9785 7.3354V5.33249H86.7161V7.3354H78.9785Z" fill="#0B0DE6"/><path d="M72.9468 16.3682C71.993 16.3682 71.1669 16.2111 70.4683 15.8969C69.7832 15.5827 69.2056 15.1638 68.7354 14.6402C68.2787 14.1166 67.9361 13.5275 67.7078 12.8729C67.4794 12.2184 67.3652 11.5507 67.3652 10.87V10.4969C67.3652 9.77693 67.4794 9.08966 67.7078 8.43511C67.9496 7.76747 68.3056 7.17838 68.7757 6.66784C69.2459 6.1442 69.8235 5.73184 70.5086 5.43075C71.2072 5.11656 72.0132 4.95947 72.9266 4.95947C73.8804 4.95947 74.7334 5.14275 75.4857 5.50929C76.2379 5.86275 76.8357 6.3602 77.279 7.00165C77.7357 7.64311 77.991 8.38929 78.0447 9.2402H75.3245C75.2573 8.69038 75.0155 8.2322 74.5991 7.86565C74.1961 7.49911 73.6386 7.31584 72.9266 7.31584C72.3087 7.31584 71.7915 7.45984 71.3751 7.74784C70.9721 8.03584 70.6698 8.43511 70.4683 8.94565C70.2668 9.44311 70.1661 10.0191 70.1661 10.6737C70.1661 11.302 70.2601 11.8715 70.4482 12.382C70.6497 12.8926 70.9519 13.2918 71.3549 13.5798C71.7714 13.8678 72.302 14.0118 72.9468 14.0118C73.4304 14.0118 73.8468 13.9267 74.1961 13.7566C74.5453 13.5864 74.8207 13.3507 75.0222 13.0497C75.2372 12.7486 75.3715 12.4082 75.4252 12.0286H78.1455C78.0917 12.8926 77.8298 13.6518 77.3596 14.3064C76.9029 14.9478 76.2917 15.4518 75.526 15.8184C74.7737 16.1849 73.914 16.3682 72.9468 16.3682Z" fill="#0B0DE6"/><path d="M60.491 16.3682C59.5507 16.3682 58.7245 16.2111 58.0125 15.8969C57.314 15.5827 56.7297 15.1638 56.2595 14.6402C55.8028 14.1035 55.4535 13.5078 55.2117 12.8533C54.9833 12.1987 54.8691 11.5311 54.8691 10.8504V10.4773C54.8691 9.77038 54.9833 9.08966 55.2117 8.43511C55.4535 7.76747 55.8028 7.17838 56.2595 6.66784C56.7297 6.1442 57.3073 5.73184 57.9924 5.43075C58.6775 5.11656 59.47 4.95947 60.3701 4.95947C61.5522 4.95947 62.5396 5.21475 63.3321 5.72529C64.1381 6.22275 64.7426 6.88384 65.1456 7.70856C65.5486 8.5202 65.7501 9.39729 65.7501 10.3398V11.3217H56.058V9.65256H63.9971L63.1306 10.4773C63.1306 9.79656 63.0299 9.21402 62.8284 8.72966C62.6269 8.24529 62.3179 7.8722 61.9015 7.61038C61.4985 7.34856 60.988 7.21765 60.3701 7.21765C59.7521 7.21765 59.2282 7.35511 58.7984 7.63002C58.3685 7.90493 58.0394 8.3042 57.811 8.82784C57.5961 9.33838 57.4886 9.95366 57.4886 10.6737C57.4886 11.3413 57.5961 11.9369 57.811 12.4606C58.026 12.9711 58.3551 13.3769 58.7984 13.678C59.2417 13.966 59.8059 14.11 60.491 14.11C61.1761 14.11 61.7336 13.9791 62.1634 13.7173C62.5933 13.4424 62.8687 13.1086 62.9896 12.7158H65.5688C65.4076 13.4489 65.0986 14.0904 64.6419 14.6402C64.1851 15.19 63.6008 15.6155 62.8888 15.9166C62.1903 16.2177 61.391 16.3682 60.491 16.3682Z" fill="#0B0DE6"/><path d="M41.1372 15.9952V4.95956C41.1372 3.74211 41.4797 2.84538 42.1648 2.26938C42.8633 1.68029 43.891 1.38574 45.2477 1.38574H46.2754V3.48683H45.0462C44.6298 3.48683 44.3074 3.59811 44.0791 3.82065C43.8641 4.03011 43.7567 4.3312 43.7567 4.72392V15.9952H41.1372ZM48.2702 15.9952V5.07738C48.2702 3.85992 48.6128 2.9632 49.2979 2.3872C49.9964 1.79811 51.0241 1.50356 52.3808 1.50356H53.7107V3.60465H52.1793C51.7629 3.60465 51.4405 3.71592 51.2121 3.93847C50.9972 4.14792 50.8897 4.44901 50.8897 4.84174V15.9952H48.2702ZM39.7871 7.51229V5.50938H53.8921V7.51229H39.7871Z" fill="#0B0DE6"/><path fill-rule="evenodd" clip-rule="evenodd" d="M28.7672 11.8831C28.5663 11.3818 28.439 10.8333 28.3872 10.2362H38.3281V9.03294C38.3281 7.9787 38.1019 6.98494 37.6489 6.05424C37.2075 5.11493 36.5209 4.35143 35.5951 3.76535C34.6714 3.15515 33.5042 2.8584 32.1096 2.8584C31.0332 2.8584 30.0824 3.04624 29.2631 3.42929C28.4668 3.79369 27.8048 4.29459 27.281 4.93231C26.7619 5.5491 26.3727 6.24482 26.1136 7.01794L26.1124 7.02181C25.8708 7.79117 25.75 8.58399 25.75 9.39949V9.81185C25.75 10.6125 25.8708 11.3977 26.1124 12.1666L26.1137 12.1705C26.3727 12.9436 26.7617 13.6465 27.2801 14.278L27.2818 14.2801C27.8068 14.9036 28.4849 15.4036 29.3108 15.7824C30.1462 16.1655 31.1284 16.3529 32.2506 16.3529C33.263 16.3529 34.1786 16.1885 34.9937 15.8548C35.8092 15.5211 36.4896 15.0345 37.0309 14.3951C37.5735 13.7542 37.9331 12.995 38.1121 12.1226L38.1657 11.8617H35.5962L35.558 12.0337C35.4477 12.5309 35.1146 12.9847 34.5201 13.3902L34.5179 13.3917C33.955 13.7855 33.2056 13.9922 32.2506 13.9922C31.3431 13.9922 30.6143 13.8009 30.0492 13.4343C29.4755 13.0469 29.0487 12.5316 28.7672 11.8831ZM35.6269 8.1504H28.5067C28.5719 7.85117 28.6588 7.56982 28.7669 7.30608C29.0495 6.65472 29.4622 6.14713 30.0039 5.77587C30.554 5.40947 31.2511 5.21913 32.1096 5.21913C32.9409 5.21913 33.6091 5.38846 34.1283 5.71171C34.6519 6.03775 35.0468 6.49873 35.3125 7.10289L35.3133 7.10465C35.4544 7.41795 35.5594 7.76621 35.6269 8.1504Z" fill="#0B0DE6"/><path fill-rule="evenodd" clip-rule="evenodd" d="M0 3C0 1.34315 1.34315 0 3 0H13.7916C15.4485 0 16.7916 1.34315 16.7916 3V9.27273H7.8361V18H3C1.34315 18 0 16.6569 0 15V3ZM7.8361 18L16.7916 9.27273V12.5455L11.1944 18H7.8361Z" fill="#0B0DE6"/></svg><svg height="28" viewBox="0 0 28 28" width="28" x="4" y="136" fill="none"><path d="M14 0.666687C6.66666 0.666687 0.666656 6.66669 0.666656 14C0.666656 21.3334 6.66666 27.3334 14 27.3334C21.3333 27.3334 27.3333 21.3334 27.3333 14C27.3333 6.66669 21.3333 0.666687 14 0.666687ZM11.3333 20.6667L4.66666 14L6.54666 12.12L11.3333 16.8934L21.4533 6.77335L23.3333 8.66669L11.3333 20.6667Z" fill="#000"/></svg><svg height="24" viewBox="0 0 24 24" width="24" x="4" y="168" fill="none"><path d="M21 6.99984L9 18.9998L3.5 13.4998L4.91 12.0898L9 16.1698L19.59 5.58984L21 6.99984Z" fill="#0B0DE6"/></svg><svg height="24" viewBox="0 0 24 24" width="24" x="4" y="196" fill="none"><path d="M21 7L9 19l-5.5-5.5 1.41-1.41L9 16.17 19.59 5.59 21 7z" fill="#000"/></svg><svg height="24" viewBox="0 0 24 24" width="24" x="4" y="224" fill="none"><path d="M19 6.41L17.59 5L12 10.59L6.41 5L5 6.41L10.59 12L5 17.59L6.41 19L12 13.41L17.59 19L19 17.59L13.41 12L19 6.41Z" fill="#000"/></svg><svg height="24" viewBox="0 0 24 24" width="24" x="4" y="252" fill="none"><path d="M23 12c0-6.075-4.925-11-11-11S1 5.925 1 12c0 5.49 4.023 10.041 9.281 10.866V15.18H7.488V12h2.793V9.577c0-2.757 1.642-4.28 4.155-4.28 1.204 0 2.462.215 2.462.215v2.707h-1.387c-1.367 0-1.793.848-1.793 1.718V12h3.051l-.488 3.18h-2.563v7.687C18.978 22.041 23 17.49 23 12z" fill="#1877f2"/><path d="M16.282 15.18L16.77 12h-3.051V9.937c0-.87.426-1.718 1.793-1.718h1.387V5.512s-1.259-.215-2.462-.215c-2.513 0-4.155 1.523-4.155 4.28V12H7.488v3.18h2.793v7.687c.56.088 1.134.134 1.719.134s1.159-.046 1.719-.134V15.18h2.563z" fill="#fff"/></svg><svg height="24" viewBox="0 0 24 24" width="24" x="4" y="280" fill="none"><path d="M20.71 7.04c.39-.39.39-1.04 0-1.41l-2.34-2.34c-.37-.39-1.02-.39-1.41 0l-1.84 1.83 3.75 3.75M3 17.25V21h3.75L17.81 9.93l-3.75-3.75L3 17.25z" fill="#000"/></svg><svg height="24" viewBox="0 0 24 24" width="24" x="4" y="308" fill="none"><path d="M19 13h-6v6h-2v-6H5v-2h6V5h2v6h6v2z" fill="#67778e"/></svg><svg height="24" viewBox="0 0 24 24" width="24" x="4" y="336" fill="none"><path d="M19 13h-6v6h-2v-6H5v-2h6V5h2v6h6v2z" fill="#000"/></svg><svg height="24" viewBox="0 0 24 24" width="24" x="4" y="364" fill="none"><path d="M12 17.27L18.18 21l-1.64-7.03L22 9.24l-7.19-.62L12 2 9.19 8.62 2 9.24l5.45 4.73L5.82 21 12 17.27z" fill="#fff"/></svg><svg height="22" viewBox="0 0 23 22" width="23" x="4" y="392" fill="none"><g clip-path="url(#A)" fill-rule="evenodd"><path d="M5.241 11c0-.714.119-1.4.331-2.042L1.864 6.127C1.141 7.594.734 9.247.734 11s.407 3.403 1.128 4.87l3.705-2.836c-.21-.64-.327-1.322-.327-2.033z" fill="#fbbc05"/><path d="M11.75 4.5c1.552 0 2.954.55 4.056 1.45l3.204-3.2C17.058 1.05 14.554 0 11.75 0 7.397 0 3.656 2.489 1.864 6.127l3.707 2.831A6.49 6.49 0 0 1 11.75 4.5z" fill="#ea4335"/><path d="M11.75 17.5a6.49 6.49 0 0 1-6.179-4.458l-3.707 2.83A10.98 10.98 0 0 0 11.75 22c2.687 0 5.252-.954 7.177-2.741l-3.519-2.721c-.993.625-2.243.962-3.658.962z" fill="#34a853"/><path d="M22.265 11c0-.65-.1-1.35-.25-2H11.75v4.25h5.908c-.296 1.449-1.099 2.563-2.25 3.288l3.519 2.721c2.022-1.877 3.338-4.673 3.338-8.258z" fill="#4285f4"/></g><defs><clipPath id="A"><path fill="#fff" transform="translate(.5)" d="M0 0h22v22H0z"/></clipPath></defs></svg><svg height="20" viewBox="0 0 20 20" width="20" x="4" y="418" fill="none"><path d="M13.525 15L10 12.875 6.475 15l.933-4.008L4.3 8.3l4.1-.35L10 4.167l1.6 3.775 4.1.35-3.108 2.692.933 4.017zM10 1.667c-4.608 0-8.333 3.75-8.333 8.333 0 2.21.878 4.33 2.441 5.893a8.33 8.33 0 0 0 2.704 1.807c1.011.419 2.095.634 3.189.634 2.21 0 4.33-.878 5.893-2.441S18.333 12.21 18.333 10c0-1.094-.216-2.178-.634-3.189s-1.033-1.93-1.806-2.704S14.2 2.72 13.189 2.301 11.094 1.667 10 1.667z" fill="#67778e"/></svg><svg height="20" viewBox="0 0 20 20" width="20" x="4" y="442" fill="none"><path d="M13.525 15L10 12.875 6.475 15l.933-4.008L4.3 8.3l4.1-.35L10 4.167l1.6 3.775 4.1.35-3.108 2.692.933 4.017zM10 1.667c-4.608 0-8.333 3.75-8.333 8.333 0 2.21.878 4.33 2.441 5.893a8.33 8.33 0 0 0 2.704 1.807c1.011.419 2.095.634 3.189.634 2.21 0 4.33-.878 5.893-2.441S18.333 12.21 18.333 10c0-1.094-.216-2.178-.634-3.189s-1.033-1.93-1.806-2.704S14.2 2.72 13.189 2.301 11.094 1.667 10 1.667z" fill="#ffa800"/></svg><svg height="16" viewBox="0 0 16 16" width="16" x="4" y="466" fill="none"><path d="M8 1.334c-.333 0-.667.127-.94.393L1.727 7.06c-.527.52-.527 1.36 0 1.88l5.333 5.333c.52.527 1.36.527 1.88 0l5.333-5.333c.527-.52.527-1.36 0-1.88L8.94 1.727c-.273-.267-.607-.393-.94-.393zm-.667 3.333h1.333v4H7.333v-4zm0 5.333h1.333v1.333H7.333V10z" fill="#0b0de6"/></svg><svg height="16" viewBox="0 0 16 16" width="16" x="4" y="486" fill="none"><path d="M0 6.92L0 8.92L12 8.92L6.5 14.42L7.92 15.84L15.84 7.92L7.92 0L6.5 1.42L12 6.92L0 6.92Z" fill="#0B0DE6"/></svg><svg height="16" viewBox="0 0 16 16" width="16" x="4" y="506" fill="none"><path d="M0 6.92v2h12l-5.5 5.5 1.42 1.42 7.92-7.92L7.92 0 6.5 1.42l5.5 5.5H0z" fill="#fff"/></svg><svg height="16" viewBox="0 0 16 16" width="16" x="4" y="526" fill="none"><path d="M0 6.92v2h12l-5.5 5.5 1.42 1.42 7.92-7.92L7.92 0 6.5 1.42l5.5 5.5H0z" fill="#67778e"/></svg><svg height="16" viewBox="0 0 16 16" width="16" x="4" y="546" fill="none"><path d="M0 6.92v2h12l-5.5 5.5 1.42 1.42 7.92-7.92L7.92 0 6.5 1.42l5.5 5.5H0z" fill="#000"/></svg><svg height="16" viewBox="0 0 16 16" width="16" x="4" y="566" fill="none"><path d="M13.9999 4.66656L5.99992 12.6666L2.33325 8.9999L3.27325 8.0599L5.99992 10.7799L13.0599 3.72656L13.9999 4.66656Z" fill="#fff"/></svg><svg height="16" viewBox="0 0 16 16" width="16" x="4" y="586" fill="none"><path d="M13.807 4.694c.26-.26.26-.693 0-.94l-1.56-1.56c-.247-.26-.68-.26-.94 0l-1.227 1.22 2.5 2.5M2 11.5V14h2.5l7.373-7.38-2.5-2.5L2 11.5z" fill="#fff"/></svg><svg height="16" viewBox="0 0 16 16" width="16" x="4" y="606" fill="none"><path d="M13.807 4.694c.26-.26.26-.693 0-.94l-1.56-1.56c-.247-.26-.68-.26-.94 0l-1.227 1.22 2.5 2.5M2 11.5V14h2.5l7.373-7.38-2.5-2.5L2 11.5z" fill="#000"/></svg><svg height="13" viewBox="0 0 14 13" width="14" x="4" y="626" fill="none"><path d="M7 10.4479L11.326 13L10.178 8.19L14 4.95368L8.967 4.52947L7 0L5.033 4.52947L0 4.95368L3.815 8.19L2.674 13L7 10.4479Z" fill="#fff"/></svg><svg height="12" viewBox="0 0 12 12" width="12" x="4" y="643" fill="none"><path d="M5.19 12h1.5V3l4.125 4.125L11.88 6.06 5.94.12 0 6.06l1.065 1.065L5.19 3v9z" fill="#000"/></svg><svg height="12" viewBox="0 0 12 12" width="12" x="4" y="659" fill="none"><circle cx="6" cy="6" r="6" fill="#000"/></svg></svg>