<svg xmlns="http://www.w3.org/2000/svg" xmlns:xlink="http://www.w3.org/1999/xlink" xmlns:svgjs="http://svgjs.dev/svgjs" width="300" height="300"><svg xmlns="http://www.w3.org/2000/svg" viewBox="0 0 300 300"><defs><style>.st0{fill:#8080ff}.st2{fill:#ff8155}</style></defs><path fill="#fff" d="M0.15 0.15H299.84999999999997V299.84999999999997H0.15z" id="SvgjsG1003"/><g id="SvgjsG1002"><path d="M374.47,243.37c.39-.22.73-.51,1-.9.43-.6.64-1.32.64-2.19,0-.7-.17-1.38-.52-2.04-.35-.65-.87-1.2-1.58-1.62-.71-.42-1.62-.64-2.72-.64h-6.49v15.6h7.15c1.08,0,1.98-.19,2.71-.58.73-.39,1.28-.93,1.65-1.63.37-.7.56-1.51.56-2.43s-.27-1.71-.8-2.42c-.4-.53-.93-.92-1.6-1.17v.02h0ZM367.57,238.44h3.68c.65,0,1.16.18,1.52.54.36.36.55.81.55,1.35,0,.41-.09.76-.27,1.04-.18.28-.43.5-.74.64-.31.14-.66.22-1.06.22h-3.68v-3.79ZM373.79,248.09c-.22.33-.51.59-.89.78-.38.19-.81.28-1.28.28h-4.05v-4.47h4.12c.51,0,.94.09,1.31.3.37.2.64.47.83.8.19.33.28.7.28,1.12,0,.47-.11.86-.32,1.2v-.02Z"/><path d="M387.43,245.92c0,.7-.08,1.29-.25,1.75-.17.46-.39.83-.67,1.09-.28.26-.59.45-.93.56-.34.11-.69.16-1.03.16-.65,0-1.17-.14-1.55-.4-.38-.27-.67-.61-.86-1.02-.19-.42-.32-.85-.37-1.29-.05-.45-.08-.86-.08-1.22v-5.63h-2.77v6.53c0,.28.02.65.07,1.1.05.45.16.93.32,1.44.17.5.42.98.77,1.43.35.45.82.82,1.41,1.1.59.28,1.34.44,2.25.44,1.15,0,2.12-.23,2.91-.73.42-.26.79-.57,1.1-.92v1.31h2.42v-11.71h-2.75v6.01h.02Z"/><path d="M396.34,235.73h-2.74v2.39h2.74v-2.39Z"/><path d="M396.34,239.91h-2.74v11.7h2.74v-11.7Z"/><path d="M402.71,235.68h-2.74v15.92h2.74v-15.92Z"/><path d="M414.21,240.48s-.08-.06-.12-.09c-.79-.53-1.77-.81-2.94-.81s-2.17.27-3.02.81c-.86.53-1.52,1.27-1.98,2.2-.47.92-.7,1.98-.7,3.17s.23,2.22.69,3.15c.46.93,1.11,1.66,1.96,2.21.85.54,1.83.81,2.96.81,1.2,0,2.2-.27,3.01-.81.17-.11.33-.25.49-.38v.87h2.42v-15.6h-2.76v4.48h0ZM414.24,247.76c-.21.58-.54,1.03-.99,1.35-.45.33-1.04.48-1.78.48s-1.3-.17-1.76-.5c-.46-.34-.81-.8-1.03-1.38-.22-.58-.34-1.23-.34-1.94s.11-1.35.34-1.93c.23-.58.58-1.05,1.06-1.39.48-.34,1.08-.51,1.82-.51s1.27.16,1.71.48c.44.32.76.78.97,1.34.21.57.31,1.24.31,2.01s-.1,1.43-.31,2h0Z"/><path d="M439.62,239.86c-.39.03-.76.09-1.13.21-.37.11-.7.27-1.01.46-.36.21-.66.48-.92.8-.12.14-.22.31-.31.47v-1.88h-2.42v11.7h2.75v-5.95c0-.45.06-.87.17-1.24.11-.39.29-.73.53-1.04.24-.31.55-.55.93-.74.38-.22.81-.34,1.28-.38.47-.04.89,0,1.26.09v-2.44c-.36-.06-.74-.08-1.12-.05h-.01Z"/><path class="st2" d="M427.11,237.33h-1.06v8.76h1.06v-8.76Z"/><path d="M430.1,246.58c-.72-.76-1.69-1.29-2.92-1.59-1.17-.28-2.26-.28-3.29,0-1.02.28-1.91.83-2.65,1.62-.74.79-1.28,1.81-1.61,3.05-.31,1.15-.32,2.22-.05,3.23.27,1.01.8,1.87,1.58,2.58.78.71,1.77,1.22,2.97,1.51,1.15.28,2.27.25,3.37-.09,1.1-.33,2.02-.96,2.75-1.87l-2.42-1.39c-.4.47-.87.77-1.42.93-.55.16-1.15.16-1.8,0-1.01-.25-1.7-.75-2.06-1.51-.28-.59-.35-1.32-.22-2.14l5.97,1.46,1.33.33,1.3.31c.47-1.34.62-2.55.47-3.65-.15-1.1-.58-2.03-1.3-2.79ZM426.69,247.23c.96.23,1.59.68,1.89,1.37.21.48.26,1.1.16,1.86l-5.83-1.42c.3-.62.66-1.1,1.11-1.44.7-.51,1.59-.64,2.68-.37h-.01Z"/><path class="st0" d="M427.99,238.64h-2.76c0-1.45-1.23-2.63-2.76-2.63h-8.27c-1.52,0-2.76,1.17-2.76,2.63h-2.75v-5.26h2.75v.7c.81-.45,1.75-.7,2.76-.7h8.27c1,0,1.95.26,2.76.7.84.46,1.53,1.12,2.02,1.93.47.77.74,1.66.74,2.63h0Z"/><path d="M411.45,233.38v.33l2.76-2.02v1.68h2.75v-2.08l5.21,2.1h.3c.62,0,1.22.11,1.78.3.02,0,.05,0,.07,0-2.9-1.17-5.81-2.35-8.71-3.51h-.23s0,0-.02,0c0,0-.02,0-.03.02l-4.35,3.18h.47,0Z"/><path class="st2" d="M425.57,247.16c-.08-.17-.2-.47-.22-.85-.02-.51.15-.9.24-1.1l.08-.14c.05-.08.1-.15.16-.28.15-.33.22-.68.22-1.06h1.05c0,.53-.1,1.03-.31,1.49-.03.06-.06.14-.09.18-.07.12-.12.21-.13.23-.09.14-.19.44-.2.75,0,.42.15.74.24.89-.35-.04-.7-.08-1.05-.11h.01Z"/><path d="M120.06,127.42s-.56-.45-.87-.65c-5.56-3.77-12.5-5.72-20.76-5.72s-15.3,1.91-21.32,5.72c-6.07,3.77-10.71,8.94-13.98,15.52-3.32,6.53-4.95,14.01-4.95,22.39s1.63,15.67,4.85,22.24c3.26,6.58,7.86,11.75,13.82,15.62,6.02,3.82,12.91,5.72,20.91,5.72,8.47,0,15.51-1.91,21.27-5.72,1.22-.8,2.35-1.76,3.47-2.71v6.13h17.09v-110.11h-19.49v31.63h-.05v-.05ZM120.21,178.83c-1.48,4.12-3.83,7.28-6.99,9.54-3.16,2.31-7.35,3.41-12.55,3.41s-9.18-1.21-12.45-3.56c-3.26-2.41-5.71-5.67-7.29-9.74-1.53-4.12-2.4-8.69-2.4-13.71s.77-9.54,2.4-13.66c1.63-4.12,4.08-7.38,7.5-9.84,3.37-2.41,7.6-3.62,12.86-3.62s8.98,1.15,12.09,3.41c3.11,2.26,5.36,5.47,6.83,9.49,1.48,4.02,2.19,8.79,2.19,14.21s-.71,10.09-2.19,14.11v-.05Z"/><path class="st2" d="M211.12,105.17h-7.5v61.86h7.5v-61.86Z"/><path d="M232.23,170.5c-5.1-5.37-11.94-9.09-20.61-11.25-8.26-2.01-15.97-2.01-23.21,0-7.19,2.01-13.47,5.87-18.72,11.45-5.2,5.57-9.03,12.75-11.38,21.54-2.19,8.08-2.24,15.67-.36,22.8,1.89,7.13,5.66,13.21,11.17,18.23,5.51,5.02,12.5,8.59,20.97,10.69,8.11,1.96,16.02,1.76,23.77-.6,7.75-2.36,14.28-6.78,19.44-13.21l-17.09-9.84c-2.81,3.31-6.12,5.42-10.05,6.58-3.88,1.15-8.11,1.15-12.7,0-7.14-1.76-11.99-5.32-14.54-10.64-1.99-4.17-2.45-9.29-1.53-15.11l42.13,10.29,9.39,2.31,9.18,2.21c3.32-9.44,4.39-18.03,3.32-25.76-1.07-7.78-4.08-14.31-9.18-19.68ZM208.16,175.07c6.78,1.66,11.22,4.82,13.37,9.64,1.48,3.36,1.84,7.78,1.12,13.11l-41.17-10.04c2.14-4.37,4.64-7.78,7.86-10.14,4.95-3.62,11.22-4.52,18.93-2.61h-.05l-.05.05Z"/><path class="st0" d="M217.34,114.46h-19.49c0-10.24-8.67-18.58-19.49-18.58h-58.36c-10.71,0-19.49,8.28-19.49,18.58h-19.44v-37.11h19.44v4.97c5.71-3.16,12.34-4.97,19.49-4.97h58.36c7.04,0,13.77,1.81,19.49,4.97,5.92,3.21,10.81,7.93,14.28,13.61,3.32,5.42,5.2,11.75,5.2,18.58v-.05Z"/><path d="M100.57,77.31v2.36l19.49-14.26v11.85h19.44v-14.71l36.78,14.81h2.14c4.39,0,8.62.8,12.55,2.11.15,0,.36,0,.51.05-20.46-8.28-41.01-16.57-61.47-24.8h-1.63s-.05,0-.15.05c0,0-.15.05-.2.15l-30.71,22.44h3.32l-.05-.05Z"/><path class="st2" d="M200.25,174.56c-.56-1.21-1.43-3.31-1.53-5.98-.15-3.62,1.07-6.38,1.68-7.73l.56-.95c.36-.55.71-1.05,1.12-2.01,1.07-2.31,1.53-4.77,1.53-7.48h7.4c0,3.72-.71,7.28-2.19,10.49-.2.45-.41.95-.61,1.26-.51.85-.87,1.46-.92,1.61-.61,1-1.33,3.11-1.43,5.32,0,2.96,1.07,5.22,1.68,6.28-2.45-.25-4.95-.55-7.4-.8h.1Z"/><path d="M545.94,250.51h-1.44v1.41h1.44v-1.41Z"/><path d="M550.22,245.52c.35-.25.8-.37,1.34-.37.48,0,.9.13,1.28.38.38.25.64.6.82,1.05l1.29-.38c-.2-.7-.61-1.25-1.21-1.65-.61-.4-1.32-.6-2.16-.6-.79,0-1.47.17-2.03.52-.56.35-1,.83-1.3,1.44-.3.62-.46,1.32-.46,2.13,0,.79.16,1.49.45,2.11.3.62.72,1.1,1.28,1.46.56.35,1.24.53,2.04.53s1.52-.19,2.1-.58,1.01-.94,1.28-1.66l-1.32-.34c-.18.44-.44.78-.78,1.01-.34.23-.77.35-1.29.35-.79,0-1.38-.26-1.78-.8-.4-.53-.6-1.22-.61-2.09,0-.56.09-1.06.26-1.49.17-.43.43-.78.79-1.02h.02Z"/><path d="M561.64,244.46c-.57-.35-1.26-.53-2.04-.53s-1.45.17-2.02.51-1.01.83-1.33,1.44c-.31.61-.47,1.33-.47,2.13s.15,1.52.46,2.13c.31.62.74,1.1,1.32,1.45.57.35,1.24.53,2.03.53s1.47-.17,2.04-.52c.57-.35,1.01-.83,1.32-1.44.31-.62.46-1.33.46-2.14s-.15-1.51-.46-2.12c-.3-.61-.74-1.1-1.31-1.44ZM561.42,250.11c-.4.53-1.01.8-1.83.8s-1.4-.26-1.81-.79c-.41-.53-.61-1.22-.61-2.1,0-.56.09-1.06.26-1.49.17-.43.44-.77.8-1.02.35-.24.81-.36,1.37-.36.81,0,1.42.26,1.83.78.4.52.61,1.22.61,2.09s-.2,1.55-.61,2.08Z"/><path d="M575.09,244.69c-.48-.49-1.12-.74-1.95-.74-.53,0-1.01.11-1.42.35-.41.23-.73.54-.98.94-.22-.41-.52-.73-.92-.95-.4-.22-.86-.33-1.4-.33s-1.01.11-1.43.35c-.33.18-.6.43-.82.73v-.87h-1.16v7.76h1.31v-4.93c0-.56.16-1.02.48-1.37.32-.35.73-.52,1.24-.52s.93.17,1.24.51c.31.34.47.8.47,1.39v4.91h1.29v-4.93h0c0-.43.09-.79.25-1.07.17-.28.38-.48.64-.62.26-.14.54-.2.84-.2.51,0,.91.16,1.23.49.32.33.47.78.47,1.36v4.96h1.3v-5.24c0-.83-.23-1.48-.7-1.98v-.02Z"/><path d="M452.63,243.71h-6.82v2.11h6.82v-2.11Z"/><path d="M468.68,244.05c.66-.9.99-1.98.99-3.23,0-.85-.15-1.62-.46-2.32-.3-.7-.76-1.28-1.36-1.75-.6-.47-1.34-.76-2.23-.9-.2-.04-.42-.06-.64-.07-.22,0-.41-.01-.57-.01h-6.47v16.03h2.02v-5.92h4.79l2.93,5.92h2.32l-3.17-6.36c.76-.31,1.37-.76,1.83-1.39h0ZM465.37,243.89c-.17.04-.35.06-.53.08-.19.01-.35.02-.49.02h-4.38v-6.34h4.38c.14,0,.31,0,.49.02.18.01.36.04.53.08.52.12.95.33,1.27.65.33.32.56.68.72,1.11.15.43.23.86.23,1.31s-.08.88-.23,1.31c-.16.43-.4.8-.72,1.11-.32.31-.75.53-1.27.65Z"/><path d="M482.36,246.34h1.05c.06-1.42-.13-2.65-.56-3.68-.43-1.03-1.08-1.83-1.96-2.38-.87-.55-1.92-.83-3.16-.83s-2.22.26-3.11.78c-.88.53-1.57,1.27-2.07,2.23-.49.96-.74,2.1-.74,3.41s.25,2.35.75,3.29,1.2,1.67,2.1,2.19c.9.52,1.95.78,3.16.78s2.26-.29,3.22-.87c.96-.58,1.68-1.4,2.15-2.47l-1.94-.65c-.34.68-.81,1.21-1.41,1.57-.6.36-1.3.55-2.12.55-1.21,0-2.13-.39-2.79-1.17-.56-.67-.87-1.59-.95-2.74h8.37ZM474.04,244.75c.12-.97.43-1.76.92-2.35.65-.79,1.6-1.18,2.85-1.18,1.17,0,2.04.36,2.64,1.1.46.58.75,1.39.86,2.43h-7.27Z"/><path d="M493.75,245.7c-.63-.31-1.48-.6-2.56-.87-.96-.23-1.7-.45-2.2-.63-.51-.18-.85-.38-1.03-.58-.19-.21-.28-.46-.28-.75,0-.51.25-.92.74-1.22.5-.31,1.14-.45,1.94-.42.83.02,1.52.22,2.06.6.53.38.86.88.95,1.52l2.07-.37c-.09-.7-.35-1.32-.8-1.86-.45-.53-1.05-.94-1.78-1.23-.73-.29-1.57-.43-2.5-.43s-1.76.15-2.47.44c-.71.29-1.26.7-1.65,1.23-.4.53-.59,1.15-.59,1.85,0,.58.13,1.07.4,1.47.27.4.71.75,1.33,1.05.62.3,1.47.59,2.56.87,1,.27,1.75.49,2.25.68.5.18.82.38.98.6s.24.48.24.82c0,.58-.24,1.05-.72,1.39-.49.34-1.14.51-1.97.51-.89,0-1.63-.19-2.23-.58-.6-.38-.98-.9-1.15-1.55l-2.07.32c.21,1.13.79,2.01,1.72,2.63.94.63,2.14.94,3.6.94s2.73-.33,3.61-1c.87-.66,1.31-1.57,1.31-2.73,0-.63-.13-1.15-.4-1.57-.27-.43-.71-.8-1.34-1.12Z"/><path d="M506.53,246.1c0,.69-.08,1.29-.25,1.81-.17.52-.39.95-.69,1.29-.3.34-.65.59-1.06.76s-.88.26-1.38.26c-.64,0-1.18-.12-1.61-.37-.43-.24-.77-.58-1.03-1-.26-.43-.43-.9-.54-1.42-.11-.53-.16-1.07-.16-1.64v-6.02h-2.04v6.64c0,.46.04.94.13,1.46.09.52.24,1.02.45,1.52.21.5.51.95.88,1.36.37.41.84.73,1.4.98.56.24,1.24.37,2.04.37,1.05,0,1.97-.23,2.75-.68.54-.31.98-.71,1.34-1.21v1.56h1.81v-12.01h-2.04v6.33h0Z"/><path d="M524.33,239.46c-.82,0-1.55.18-2.2.53-.64.35-1.14.83-1.51,1.45-.33-.63-.81-1.12-1.42-1.47-.61-.34-1.34-.52-2.16-.52s-1.57.18-2.22.53c-.51.28-.93.63-1.27,1.07v-1.29h-1.81v12.02h2.04v-7.63c0-.87.24-1.58.74-2.12.49-.54,1.13-.8,1.93-.8s1.44.26,1.94.79c.48.53.73,1.24.73,2.16v7.61s2,0,2,0v-7.63h.01c0-.68.13-1.23.39-1.66s.59-.75,1-.96c.41-.21.84-.31,1.29-.31.78,0,1.42.26,1.91.76.49.51.73,1.21.73,2.11v7.69s2.01,0,2.01,0v-8.12c.01-1.27-.35-2.3-1.09-3.06-.74-.76-1.74-1.15-3.03-1.15Z"/><path d="M541.16,246.34h1.05c.06-1.42-.13-2.65-.56-3.68-.43-1.03-1.09-1.83-1.96-2.38-.87-.55-1.92-.83-3.16-.83s-2.23.26-3.11.78c-.88.53-1.57,1.27-2.07,2.23-.5.96-.74,2.1-.74,3.41s.25,2.35.75,3.29c.5.94,1.2,1.67,2.1,2.19.9.52,1.95.78,3.16.78s2.26-.29,3.22-.87c.96-.58,1.68-1.4,2.15-2.47l-1.94-.65c-.34.68-.81,1.21-1.41,1.57-.6.36-1.3.55-2.12.55-1.21,0-2.13-.39-2.79-1.17-.56-.67-.87-1.59-.95-2.74h8.37ZM532.83,244.75c.12-.97.43-1.76.92-2.35.65-.79,1.6-1.18,2.85-1.18,1.17,0,2.04.36,2.64,1.1.46.58.75,1.39.86,2.43h-7.27Z"/></g></svg><style>@media (prefers-color-scheme:light){:root{filter:none}}@media (prefers-color-scheme:dark){:root{filter:none}}</style></svg>