<svg xmlns="http://www.w3.org/2000/svg" xmlns:xlink="http://www.w3.org/1999/xlink" height="7555" viewBox="0 0 728 7555" width="728"><svg height="300" viewBox="0 0 720 300" width="720" x="4" y="4"><defs><style>.cls-2{fill:#757575}.cls-3{fill:#e4e4e4}</style></defs><path fill="#fff" d="M0 0H720V300H0z"/><path class="cls-2" d="M7.55,295.66a.3.3,0,0,1-.2-.08.27.27,0,0,1-.07-.2v-6.72l-2,1.54a.25.25,0,0,1-.2.06.29.29,0,0,1-.18-.11l-.31-.4a.29.29,0,0,1-.06-.21.28.28,0,0,1,.12-.18l2.61-2a.43.43,0,0,1,.16-.07h.77a.25.25,0,0,1,.19.07.29.29,0,0,1,.07.2v7.85a.27.27,0,0,1-.07.2.26.26,0,0,1-.19.08Z"/><path class="cls-2" d="M222.1,296.1a.24.24,0,0,1-.27-.27v-6.72l-2,1.53a.25.25,0,0,1-.2.06.24.24,0,0,1-.18-.1l-.31-.4a.3.3,0,0,1-.06-.22.31.31,0,0,1,.12-.18l2.61-2a.31.31,0,0,1,.16-.07l.15,0h.62a.26.26,0,0,1,.19.08.27.27,0,0,1,.07.2v7.85a.29.29,0,0,1-.07.2.25.25,0,0,1-.19.07Z"/><path class="cls-2" d="M227.73,296.22a3.44,3.44,0,0,1-1.4-.25,2.48,2.48,0,0,1-.93-.72,2.91,2.91,0,0,1-.52-1,5.54,5.54,0,0,1-.19-1.25c0-.22,0-.44,0-.68v-.73c0-.24,0-.48,0-.7a4.74,4.74,0,0,1,.19-1.26,2.93,2.93,0,0,1,.53-1,2.31,2.31,0,0,1,.93-.71,3.38,3.38,0,0,1,1.39-.26,3.43,3.43,0,0,1,1.4.26,2.46,2.46,0,0,1,.93.71,3.1,3.1,0,0,1,.53,1,4.74,4.74,0,0,1,.19,1.26c0,.22,0,.46,0,.7s0,.49,0,.73,0,.46,0,.68a4.6,4.6,0,0,1-.19,1.25,3.1,3.1,0,0,1-.53,1,2.37,2.37,0,0,1-.92.72A3.46,3.46,0,0,1,227.73,296.22Zm0-1a1.59,1.59,0,0,0,1.38-.61,2.85,2.85,0,0,0,.47-1.69c0-.23,0-.46,0-.68v-.66c0-.22,0-.44,0-.65a2.84,2.84,0,0,0-.47-1.68,1.83,1.83,0,0,0-2.76,0,3,3,0,0,0-.47,1.68v.65q0,.33,0,.66v.68a3,3,0,0,0,.48,1.69A1.59,1.59,0,0,0,227.73,295.2Z"/><path class="cls-2" d="M463.91,296.24a.24.24,0,0,1-.27-.27v-.39a.6.6,0,0,1,.06-.24,1,1,0,0,1,.24-.29l2.54-2.54c.41-.34.73-.64,1-.88a2.79,2.79,0,0,0,.5-.7,1.73,1.73,0,0,0,.15-.7,1.37,1.37,0,0,0-1.52-1.49,1.67,1.67,0,0,0-.83.2,1.43,1.43,0,0,0-.55.54,2.19,2.19,0,0,0-.26.77.26.26,0,0,1-.12.22.38.38,0,0,1-.19.06H464a.24.24,0,0,1-.18-.07.19.19,0,0,1-.07-.16,2.57,2.57,0,0,1,.19-.92,2.72,2.72,0,0,1,.53-.83,2.64,2.64,0,0,1,.88-.6,2.89,2.89,0,0,1,1.22-.24,3.21,3.21,0,0,1,1.55.34,2.16,2.16,0,0,1,.89.91,2.58,2.58,0,0,1,.29,1.24,2.49,2.49,0,0,1-.18,1,3.19,3.19,0,0,1-.52.85,6.81,6.81,0,0,1-.85.85l-2.3,2.34h3.74a.28.28,0,0,1,.21.07.25.25,0,0,1,.08.21V296a.26.26,0,0,1-.08.2.28.28,0,0,1-.21.07Z"/><path class="cls-2" d="M473.9,296.36a3.41,3.41,0,0,1-1.4-.25,2.48,2.48,0,0,1-.93-.72,2.75,2.75,0,0,1-.52-1,5.54,5.54,0,0,1-.19-1.25c0-.22,0-.44,0-.68v-.73c0-.24,0-.48,0-.7a4.74,4.74,0,0,1,.19-1.26,3.08,3.08,0,0,1,.52-1,2.46,2.46,0,0,1,.93-.71,3.46,3.46,0,0,1,1.4-.26,3.38,3.38,0,0,1,1.39.26,2.46,2.46,0,0,1,.93.71,3.12,3.12,0,0,1,.54,1,4.73,4.73,0,0,1,.18,1.26c0,.22,0,.46,0,.7s0,.48,0,.73,0,.46,0,.68a4.6,4.6,0,0,1-.18,1.25,3.1,3.1,0,0,1-.53,1,2.45,2.45,0,0,1-.92.72A3.46,3.46,0,0,1,473.9,296.36Zm0-1a1.59,1.59,0,0,0,1.38-.61,2.85,2.85,0,0,0,.46-1.69c0-.23,0-.46,0-.68v-.66c0-.22,0-.44,0-.65a2.83,2.83,0,0,0-.46-1.68,1.83,1.83,0,0,0-2.76,0,2.91,2.91,0,0,0-.47,1.68c0,.21,0,.43,0,.65v.66c0,.22,0,.45,0,.68a2.85,2.85,0,0,0,.48,1.69A1.59,1.59,0,0,0,473.9,295.34Z"/><path class="cls-2" d="M706.67,295.36a4.39,4.39,0,0,1-1.32-.18,3,3,0,0,1-1-.5,2.42,2.42,0,0,1-.58-.68,1.81,1.81,0,0,1-.21-.77.21.21,0,0,1,.07-.17.28.28,0,0,1,.18-.06h.59a.38.38,0,0,1,.19.05.36.36,0,0,1,.15.2,1.24,1.24,0,0,0,.41.67,1.66,1.66,0,0,0,.68.33,3.55,3.55,0,0,0,.79.09A2.15,2.15,0,0,0,708,294a1.39,1.39,0,0,0,.52-1.17,1.24,1.24,0,0,0-.47-1.11,2.13,2.13,0,0,0-1.29-.34h-1.14a.27.27,0,0,1-.2-.07.29.29,0,0,1-.08-.21v-.32a.58.58,0,0,1,0-.19l.09-.13,2.33-2.55h-3.54a.24.24,0,0,1-.27-.27v-.46a.26.26,0,0,1,.27-.29h4.79a.27.27,0,0,1,.29.29v.43a.25.25,0,0,1-.05.15.38.38,0,0,1-.09.13l-2.31,2.58h.19a3.69,3.69,0,0,1,1.39.29,2.13,2.13,0,0,1,.92.78,2.44,2.44,0,0,1,.33,1.32,2.29,2.29,0,0,1-.4,1.37,2.44,2.44,0,0,1-1.09.87A3.92,3.92,0,0,1,706.67,295.36Z"/><path class="cls-2" d="M714.11,295.36a3.44,3.44,0,0,1-1.4-.25,2.48,2.48,0,0,1-.93-.72,2.91,2.91,0,0,1-.52-1,5,5,0,0,1-.18-1.25c0-.22,0-.44,0-.68s0-.49,0-.73,0-.48,0-.7a4.36,4.36,0,0,1,.18-1.26,3.1,3.1,0,0,1,.53-1,2.31,2.31,0,0,1,.93-.71,3.87,3.87,0,0,1,2.79,0,2.46,2.46,0,0,1,.93.71,2.93,2.93,0,0,1,.53,1,4.74,4.74,0,0,1,.19,1.26c0,.22,0,.46,0,.7v.73c0,.24,0,.46,0,.68a4.6,4.6,0,0,1-.19,1.25,3.08,3.08,0,0,1-.52,1,2.48,2.48,0,0,1-.93.72A3.46,3.46,0,0,1,714.11,295.36Zm0-1a1.6,1.6,0,0,0,1.39-.61A2.92,2.92,0,0,0,716,292c0-.23,0-.46,0-.68v-.66c0-.22,0-.44,0-.65a2.91,2.91,0,0,0-.46-1.68,1.83,1.83,0,0,0-2.76,0,3,3,0,0,0-.48,1.68v.65q0,.33,0,.66V292a3,3,0,0,0,.48,1.69A1.6,1.6,0,0,0,714.11,294.34Z"/><path class="cls-3" d="M0 65H720V67H0z"/><path class="cls-3" d="M0 15H720V17H0z"/><path class="cls-3" d="M0 115H720V117H0z"/><path class="cls-3" d="M0 165H720V167H0z"/><path class="cls-3" d="M0 215H720V217H0z"/><path class="cls-3" d="M0 265H720V267H0z"/><path d="M.28,25.84S11.8,7.5,21.25,7.5,44.85,41.33,68.46,60s56.65,22.17,67.28,56,46,92.17,46,92.17,16,40.37,71.75,40.37,87.59,5.13,115.92,5.13S483.93,256,504,256H615.78C648,256,720,259.5,720,259.5V263H0Z" fill="#f2d794"/></svg><svg height="300" viewBox="0 0 720 300" width="720" x="4" y="308"><defs><style>.cls-2{fill:#757575}.cls-3{fill:#e4e4e4}</style></defs><path fill="#fff" d="M0 0H720V300H0z"/><path class="cls-2" d="M7.55,295.66a.3.3,0,0,1-.2-.08.27.27,0,0,1-.07-.2v-6.72l-2,1.54a.25.25,0,0,1-.2.06.29.29,0,0,1-.18-.11l-.31-.4a.29.29,0,0,1-.06-.21.28.28,0,0,1,.12-.18l2.61-2a.43.43,0,0,1,.16-.07h.77a.25.25,0,0,1,.19.07.29.29,0,0,1,.07.2v7.85a.27.27,0,0,1-.07.2.26.26,0,0,1-.19.08Z"/><path class="cls-2" d="M222.1,296.1a.24.24,0,0,1-.27-.27v-6.72l-2,1.53a.25.25,0,0,1-.2.06.24.24,0,0,1-.18-.1l-.31-.4a.3.3,0,0,1-.06-.22.31.31,0,0,1,.12-.18l2.61-2a.31.31,0,0,1,.16-.07l.15,0h.62a.26.26,0,0,1,.19.08.27.27,0,0,1,.07.2v7.85a.29.29,0,0,1-.07.2.25.25,0,0,1-.19.07Z"/><path class="cls-2" d="M227.73,296.22a3.44,3.44,0,0,1-1.4-.25,2.48,2.48,0,0,1-.93-.72,2.91,2.91,0,0,1-.52-1,5.54,5.54,0,0,1-.19-1.25c0-.22,0-.44,0-.68v-.73c0-.24,0-.48,0-.7a4.74,4.74,0,0,1,.19-1.26,2.93,2.93,0,0,1,.53-1,2.31,2.31,0,0,1,.93-.71,3.38,3.38,0,0,1,1.39-.26,3.43,3.43,0,0,1,1.4.26,2.46,2.46,0,0,1,.93.71,3.1,3.1,0,0,1,.53,1,4.74,4.74,0,0,1,.19,1.26c0,.22,0,.46,0,.7s0,.49,0,.73,0,.46,0,.68a4.6,4.6,0,0,1-.19,1.25,3.1,3.1,0,0,1-.53,1,2.37,2.37,0,0,1-.92.72A3.46,3.46,0,0,1,227.73,296.22Zm0-1a1.59,1.59,0,0,0,1.38-.61,2.85,2.85,0,0,0,.47-1.69c0-.23,0-.46,0-.68v-.66c0-.22,0-.44,0-.65a2.84,2.84,0,0,0-.47-1.68,1.83,1.83,0,0,0-2.76,0,3,3,0,0,0-.47,1.68v.65q0,.33,0,.66v.68a3,3,0,0,0,.48,1.69A1.59,1.59,0,0,0,227.73,295.2Z"/><path class="cls-2" d="M463.91,296.24a.24.24,0,0,1-.27-.27v-.39a.6.6,0,0,1,.06-.24,1,1,0,0,1,.24-.29l2.54-2.54c.41-.34.73-.64,1-.88a2.79,2.79,0,0,0,.5-.7,1.73,1.73,0,0,0,.15-.7,1.37,1.37,0,0,0-1.52-1.49,1.67,1.67,0,0,0-.83.2,1.43,1.43,0,0,0-.55.54,2.19,2.19,0,0,0-.26.77.26.26,0,0,1-.12.22.38.38,0,0,1-.19.06H464a.24.24,0,0,1-.18-.07.19.19,0,0,1-.07-.16,2.57,2.57,0,0,1,.19-.92,2.72,2.72,0,0,1,.53-.83,2.64,2.64,0,0,1,.88-.6,2.89,2.89,0,0,1,1.22-.24,3.21,3.21,0,0,1,1.55.34,2.16,2.16,0,0,1,.89.91,2.58,2.58,0,0,1,.29,1.24,2.49,2.49,0,0,1-.18,1,3.19,3.19,0,0,1-.52.85,6.81,6.81,0,0,1-.85.85l-2.3,2.34h3.74a.28.28,0,0,1,.21.07.25.25,0,0,1,.08.21V296a.26.26,0,0,1-.08.2.28.28,0,0,1-.21.07Z"/><path class="cls-2" d="M473.9,296.36a3.41,3.41,0,0,1-1.4-.25,2.48,2.48,0,0,1-.93-.72,2.75,2.75,0,0,1-.52-1,5.54,5.54,0,0,1-.19-1.25c0-.22,0-.44,0-.68v-.73c0-.24,0-.48,0-.7a4.74,4.74,0,0,1,.19-1.26,3.08,3.08,0,0,1,.52-1,2.46,2.46,0,0,1,.93-.71,3.46,3.46,0,0,1,1.4-.26,3.38,3.38,0,0,1,1.39.26,2.46,2.46,0,0,1,.93.71,3.12,3.12,0,0,1,.54,1,4.73,4.73,0,0,1,.18,1.26c0,.22,0,.46,0,.7s0,.48,0,.73,0,.46,0,.68a4.6,4.6,0,0,1-.18,1.25,3.1,3.1,0,0,1-.53,1,2.45,2.45,0,0,1-.92.72A3.46,3.46,0,0,1,473.9,296.36Zm0-1a1.59,1.59,0,0,0,1.38-.61,2.85,2.85,0,0,0,.46-1.69c0-.23,0-.46,0-.68v-.66c0-.22,0-.44,0-.65a2.83,2.83,0,0,0-.46-1.68,1.83,1.83,0,0,0-2.76,0,2.91,2.91,0,0,0-.47,1.68c0,.21,0,.43,0,.65v.66c0,.22,0,.45,0,.68a2.85,2.85,0,0,0,.48,1.69A1.59,1.59,0,0,0,473.9,295.34Z"/><path class="cls-2" d="M706.67,295.36a4.39,4.39,0,0,1-1.32-.18,3,3,0,0,1-1-.5,2.42,2.42,0,0,1-.58-.68,1.81,1.81,0,0,1-.21-.77.21.21,0,0,1,.07-.17.28.28,0,0,1,.18-.06h.59a.38.38,0,0,1,.19.05.36.36,0,0,1,.15.2,1.24,1.24,0,0,0,.41.67,1.66,1.66,0,0,0,.68.33,3.55,3.55,0,0,0,.79.09A2.15,2.15,0,0,0,708,294a1.39,1.39,0,0,0,.52-1.17,1.24,1.24,0,0,0-.47-1.11,2.13,2.13,0,0,0-1.29-.34h-1.14a.27.27,0,0,1-.2-.07.29.29,0,0,1-.08-.21v-.32a.58.58,0,0,1,0-.19l.09-.13,2.33-2.55h-3.54a.24.24,0,0,1-.27-.27v-.46a.26.26,0,0,1,.27-.29h4.79a.27.27,0,0,1,.29.29v.43a.25.25,0,0,1-.05.15.38.38,0,0,1-.09.13l-2.31,2.58h.19a3.69,3.69,0,0,1,1.39.29,2.13,2.13,0,0,1,.92.78,2.44,2.44,0,0,1,.33,1.32,2.29,2.29,0,0,1-.4,1.37,2.44,2.44,0,0,1-1.09.87A3.92,3.92,0,0,1,706.67,295.36Z"/><path class="cls-2" d="M714.11,295.36a3.44,3.44,0,0,1-1.4-.25,2.48,2.48,0,0,1-.93-.72,2.91,2.91,0,0,1-.52-1,5,5,0,0,1-.18-1.25c0-.22,0-.44,0-.68s0-.49,0-.73,0-.48,0-.7a4.36,4.36,0,0,1,.18-1.26,3.1,3.1,0,0,1,.53-1,2.31,2.31,0,0,1,.93-.71,3.87,3.87,0,0,1,2.79,0,2.46,2.46,0,0,1,.93.71,2.93,2.93,0,0,1,.53,1,4.74,4.74,0,0,1,.19,1.26c0,.22,0,.46,0,.7v.73c0,.24,0,.46,0,.68a4.6,4.6,0,0,1-.19,1.25,3.08,3.08,0,0,1-.52,1,2.48,2.48,0,0,1-.93.72A3.46,3.46,0,0,1,714.11,295.36Zm0-1a1.6,1.6,0,0,0,1.39-.61A2.92,2.92,0,0,0,716,292c0-.23,0-.46,0-.68v-.66c0-.22,0-.44,0-.65a2.91,2.91,0,0,0-.46-1.68,1.83,1.83,0,0,0-2.76,0,3,3,0,0,0-.48,1.68v.65q0,.33,0,.66V292a3,3,0,0,0,.48,1.69A1.6,1.6,0,0,0,714.11,294.34Z"/><path class="cls-3" d="M0 65H720V67H0z"/><path class="cls-3" d="M0 15H720V17H0z"/><path class="cls-3" d="M0 115H720V117H0z"/><path class="cls-3" d="M0 165H720V167H0z"/><path class="cls-3" d="M0 215H720V217H0z"/><path class="cls-3" d="M0 265H720V267H0z"/><path d="M0,164.86s16.93,6.51,25.25,12c9.08,6,14.13,13,23.22,13,15.15,0,16.16-13,30.3-13s25.24,16,41.4,16,18.49-14,34-14,28.3,12,40.58,12,21.36-11,32.47-11,26.25,13,43.42,13,30.3-16,44.43-16,20.2,11,34.34,11,17.16-5,27.26-5,23.23,14,41.4,14,19.19-8,37.37-8,21.2,7,36.35,7,17.17-10,33.33-10,29.28,16,44.43,16,14.13-7,27.26-7,27.27,16,46.45,16,16.16-10,31.31-10,45.44,20,45.44,20V263H0Z" fill="#8fe7ff"/></svg><svg height="300" viewBox="0 0 720 300" width="720" x="4" y="612"><defs><style>.cls-2{fill:#757575}.cls-3{fill:#e4e4e4}</style></defs><path fill="#fff" d="M0 0H720V300H0z"/><path class="cls-2" d="M7.55,295.66a.3.3,0,0,1-.2-.08.27.27,0,0,1-.07-.2v-6.72l-2,1.54a.25.25,0,0,1-.2.06.29.29,0,0,1-.18-.11l-.31-.4a.29.29,0,0,1-.06-.21.28.28,0,0,1,.12-.18l2.61-2a.43.43,0,0,1,.16-.07h.77a.25.25,0,0,1,.19.07.29.29,0,0,1,.07.2v7.85a.27.27,0,0,1-.07.2.26.26,0,0,1-.19.08Z"/><path class="cls-2" d="M222.1,296.1a.24.24,0,0,1-.27-.27v-6.72l-2,1.53a.25.25,0,0,1-.2.06.24.24,0,0,1-.18-.1l-.31-.4a.3.3,0,0,1-.06-.22.31.31,0,0,1,.12-.18l2.61-2a.31.31,0,0,1,.16-.07l.15,0h.62a.26.26,0,0,1,.19.08.27.27,0,0,1,.07.2v7.85a.29.29,0,0,1-.07.2.25.25,0,0,1-.19.07Z"/><path class="cls-2" d="M227.73,296.22a3.44,3.44,0,0,1-1.4-.25,2.48,2.48,0,0,1-.93-.72,2.91,2.91,0,0,1-.52-1,5.54,5.54,0,0,1-.19-1.25c0-.22,0-.44,0-.68v-.73c0-.24,0-.48,0-.7a4.74,4.74,0,0,1,.19-1.26,2.93,2.93,0,0,1,.53-1,2.31,2.31,0,0,1,.93-.71,3.38,3.38,0,0,1,1.39-.26,3.43,3.43,0,0,1,1.4.26,2.46,2.46,0,0,1,.93.71,3.1,3.1,0,0,1,.53,1,4.74,4.74,0,0,1,.19,1.26c0,.22,0,.46,0,.7s0,.49,0,.73,0,.46,0,.68a4.6,4.6,0,0,1-.19,1.25,3.1,3.1,0,0,1-.53,1,2.37,2.37,0,0,1-.92.72A3.46,3.46,0,0,1,227.73,296.22Zm0-1a1.59,1.59,0,0,0,1.38-.61,2.85,2.85,0,0,0,.47-1.69c0-.23,0-.46,0-.68v-.66c0-.22,0-.44,0-.65a2.84,2.84,0,0,0-.47-1.68,1.83,1.83,0,0,0-2.76,0,3,3,0,0,0-.47,1.68v.65q0,.33,0,.66v.68a3,3,0,0,0,.48,1.69A1.59,1.59,0,0,0,227.73,295.2Z"/><path class="cls-2" d="M463.91,296.24a.24.24,0,0,1-.27-.27v-.39a.6.6,0,0,1,.06-.24,1,1,0,0,1,.24-.29l2.54-2.54c.41-.34.73-.64,1-.88a2.79,2.79,0,0,0,.5-.7,1.73,1.73,0,0,0,.15-.7,1.37,1.37,0,0,0-1.52-1.49,1.67,1.67,0,0,0-.83.2,1.43,1.43,0,0,0-.55.54,2.19,2.19,0,0,0-.26.77.26.26,0,0,1-.12.22.38.38,0,0,1-.19.06H464a.24.24,0,0,1-.18-.07.19.19,0,0,1-.07-.16,2.57,2.57,0,0,1,.19-.92,2.72,2.72,0,0,1,.53-.83,2.64,2.64,0,0,1,.88-.6,2.89,2.89,0,0,1,1.22-.24,3.21,3.21,0,0,1,1.55.34,2.16,2.16,0,0,1,.89.91,2.58,2.58,0,0,1,.29,1.24,2.49,2.49,0,0,1-.18,1,3.19,3.19,0,0,1-.52.85,6.81,6.81,0,0,1-.85.85l-2.3,2.34h3.74a.28.28,0,0,1,.21.07.25.25,0,0,1,.08.21V296a.26.26,0,0,1-.08.2.28.28,0,0,1-.21.07Z"/><path class="cls-2" d="M473.9,296.36a3.41,3.41,0,0,1-1.4-.25,2.48,2.48,0,0,1-.93-.72,2.75,2.75,0,0,1-.52-1,5.54,5.54,0,0,1-.19-1.25c0-.22,0-.44,0-.68v-.73c0-.24,0-.48,0-.7a4.74,4.74,0,0,1,.19-1.26,3.08,3.08,0,0,1,.52-1,2.46,2.46,0,0,1,.93-.71,3.46,3.46,0,0,1,1.4-.26,3.38,3.38,0,0,1,1.39.26,2.46,2.46,0,0,1,.93.71,3.12,3.12,0,0,1,.54,1,4.73,4.73,0,0,1,.18,1.26c0,.22,0,.46,0,.7s0,.48,0,.73,0,.46,0,.68a4.6,4.6,0,0,1-.18,1.25,3.1,3.1,0,0,1-.53,1,2.45,2.45,0,0,1-.92.72A3.46,3.46,0,0,1,473.9,296.36Zm0-1a1.59,1.59,0,0,0,1.38-.61,2.85,2.85,0,0,0,.46-1.69c0-.23,0-.46,0-.68v-.66c0-.22,0-.44,0-.65a2.83,2.83,0,0,0-.46-1.68,1.83,1.83,0,0,0-2.76,0,2.91,2.91,0,0,0-.47,1.68c0,.21,0,.43,0,.65v.66c0,.22,0,.45,0,.68a2.85,2.85,0,0,0,.48,1.69A1.59,1.59,0,0,0,473.9,295.34Z"/><path class="cls-2" d="M706.67,295.36a4.39,4.39,0,0,1-1.32-.18,3,3,0,0,1-1-.5,2.42,2.42,0,0,1-.58-.68,1.81,1.81,0,0,1-.21-.77.21.21,0,0,1,.07-.17.28.28,0,0,1,.18-.06h.59a.38.38,0,0,1,.19.05.36.36,0,0,1,.15.2,1.24,1.24,0,0,0,.41.67,1.66,1.66,0,0,0,.68.33,3.55,3.55,0,0,0,.79.09A2.15,2.15,0,0,0,708,294a1.39,1.39,0,0,0,.52-1.17,1.24,1.24,0,0,0-.47-1.11,2.13,2.13,0,0,0-1.29-.34h-1.14a.27.27,0,0,1-.2-.07.29.29,0,0,1-.08-.21v-.32a.58.58,0,0,1,0-.19l.09-.13,2.33-2.55h-3.54a.24.24,0,0,1-.27-.27v-.46a.26.26,0,0,1,.27-.29h4.79a.27.27,0,0,1,.29.29v.43a.25.25,0,0,1-.05.15.38.38,0,0,1-.09.13l-2.31,2.58h.19a3.69,3.69,0,0,1,1.39.29,2.13,2.13,0,0,1,.92.78,2.44,2.44,0,0,1,.33,1.32,2.29,2.29,0,0,1-.4,1.37,2.44,2.44,0,0,1-1.09.87A3.92,3.92,0,0,1,706.67,295.36Z"/><path class="cls-2" d="M714.11,295.36a3.44,3.44,0,0,1-1.4-.25,2.48,2.48,0,0,1-.93-.72,2.91,2.91,0,0,1-.52-1,5,5,0,0,1-.18-1.25c0-.22,0-.44,0-.68s0-.49,0-.73,0-.48,0-.7a4.36,4.36,0,0,1,.18-1.26,3.1,3.1,0,0,1,.53-1,2.31,2.31,0,0,1,.93-.71,3.87,3.87,0,0,1,2.79,0,2.46,2.46,0,0,1,.93.71,2.93,2.93,0,0,1,.53,1,4.74,4.74,0,0,1,.19,1.26c0,.22,0,.46,0,.7v.73c0,.24,0,.46,0,.68a4.6,4.6,0,0,1-.19,1.25,3.08,3.08,0,0,1-.52,1,2.48,2.48,0,0,1-.93.72A3.46,3.46,0,0,1,714.11,295.36Zm0-1a1.6,1.6,0,0,0,1.39-.61A2.92,2.92,0,0,0,716,292c0-.23,0-.46,0-.68v-.66c0-.22,0-.44,0-.65a2.91,2.91,0,0,0-.46-1.68,1.83,1.83,0,0,0-2.76,0,3,3,0,0,0-.48,1.68v.65q0,.33,0,.66V292a3,3,0,0,0,.48,1.69A1.6,1.6,0,0,0,714.11,294.34Z"/><path class="cls-3" d="M0 65H720V67H0z"/><path class="cls-3" d="M0 15H720V17H0z"/><path class="cls-3" d="M0 115H720V117H0z"/><path class="cls-3" d="M0 165H720V167H0z"/><path class="cls-3" d="M0 215H720V217H0z"/><path class="cls-3" d="M0 265H720V267H0z"/><path d="M0,146.25s21.06-1,33.09,20,14.71,25.19,34.1,27c32.09,3,34.09,15,71.19,14,24.88-.67,50.66,20.87,53,22.85l.38.3c9.82,6.85,22.16,15.06,41.91,16.85,22.06,2,62.17,8,91.25,8,21.06,0,111.31-3,135.38,1,19.88,3.3,75.83,0,84.54,0s73.9,0,87.94,2,87.24,3,87.24,3V263H0Z" fill="#e8daf7"/></svg><svg height="294" viewBox="0 0 385 294" width="384.627" x="4" y="916"><ellipse cx="147.576" cy="147" rx="147.576" ry="147" transform="translate(38.322)" fill="#e0f2ff"/><path d="M180.44,40.1l-80.2,50.122L20.049,40.1V20.049l80.2,50.122,80.2-50.122M180.44,0H20.049A19.98,19.98,0,0,0,0,20.049V140.342a20.049,20.049,0,0,0,20.049,20.049H180.44a20.049,20.049,0,0,0,20.049-20.049V20.049A20.043,20.043,0,0,0,180.44,0Z" transform="rotate(6.02 -450.079 1635.101)" fill="#fdaa33"/><path d="M19.492,66.83H66.83L86.321,38.984,66.83,11.138H19.492L38.984,38.984,19.492,66.83M66.829,77.968H0L25.061,38.984,0,0H66.83a10.823,10.823,0,0,1,9.133,4.789l24.281,34.194L75.963,73.178A10.823,10.823,0,0,1,66.829,77.968Z" transform="rotate(-9 863.154 -564.992)" fill="#5d9cfa"/><path d="M19.492,66.83H66.83L86.321,38.984,66.83,11.138H19.492L38.984,38.984,19.492,66.83M66.829,77.968H0L25.061,38.984,0,0H66.83a10.823,10.823,0,0,1,9.133,4.789l24.281,34.194L75.963,73.178A10.823,10.823,0,0,1,66.829,77.968Z" transform="rotate(-9 913.271 71.876)" fill="#5d9cfa"/><ellipse cx="32.93" cy="32.841" rx="32.93" ry="32.841" transform="translate(318.767 63.389)" fill="#5d9cfa"/><path d="M13.577,17.112a1.293,1.293,0,0,1-1.261-1.261V-8.161l-6.911,5.3a1.1,1.1,0,0,1-.933.252,1.418,1.418,0,0,1-.832-.555L.663-7.052a1.369,1.369,0,0,1-.227-.984,1.128,1.128,0,0,1,.58-.832l11.6-8.979a2.015,2.015,0,0,1,.58-.277,2.4,2.4,0,0,1,.631-.076h6.306a1.229,1.229,0,0,1,.908.353,1.229,1.229,0,0,1,.353.908V15.85a1.253,1.253,0,0,1-.353.883,1.186,1.186,0,0,1-.908.378Z" transform="rotate(6.02 -734.7 3256.468)" fill="#fff"/></svg><svg height="214.227" viewBox="0 0 365 215" width="364.999" x="4" y="1214"><g transform="translate(-814.102 -229)"><ellipse cx="83.875" cy="83.473" rx="83.875" ry="83.473" transform="translate(1011.352 251.976)" fill="#e0f2ff"/><ellipse cx="97.546" cy="97.42" rx="97.546" ry="97.42" transform="translate(913.806 229)" fill="#fdaa33"/><path d="M62.837,115.28H0V49.406H62.837V0l78.546,82.343L62.837,164.685V115.28M78.546,41.171v24.7H15.709V98.811H78.546v24.7l39.273-41.171Z" transform="rotate(-16 1420.71 -2753.858)" fill="#5d9cfa"/></g></svg><svg height="167.578" viewBox="0 0 356 168" width="355.273" x="4" y="1433"><g transform="translate(-526.807 -86)"><path id="license" d="M26.536,42.452A15.918,15.918,0,1,1,42.454,58.37,16.13,16.13,0,0,1,26.536,42.452M42.454,90.207l21.224,5.306V79.17A40.008,40.008,0,0,1,42.454,84.9,40.007,40.007,0,0,1,21.23,79.17V95.513m21.224-84.9a30.669,30.669,0,0,0-22.5,9.232,30.669,30.669,0,0,0-9.339,22.6A30.669,30.669,0,0,0,19.956,64.9a30.669,30.669,0,0,0,22.5,9.392,30.669,30.669,0,0,0,22.5-9.392A30.669,30.669,0,0,0,74.29,42.452a30.669,30.669,0,0,0-9.339-22.6,30.669,30.669,0,0,0-22.5-9.232M84.9,42.452a42.66,42.66,0,0,1-3.024,14.857A41.6,41.6,0,0,1,74.29,70.468v40.963L42.454,100.819,10.618,111.431V70.468A41.918,41.918,0,0,1,.006,42.452,40.75,40.75,0,0,1,12.369,12.526,41.016,41.016,0,0,1,42.454,0,41.016,41.016,0,0,1,72.539,12.526,40.75,40.75,0,0,1,84.9,42.452Z" transform="rotate(-25.97 663.32 -1575.163)" fill="#5d9cfa"/><path id="star-circle" d="M76.076,85.538,53.461,71.906,30.847,85.538l5.988-25.715L16.894,42.555,43.2,40.31,53.461,16.038,63.726,40.256l26.3,2.245L70.088,59.77l5.988,25.768M53.461,0a53.461,53.461,0,1,0,53.461,53.461A53.515,53.515,0,0,0,53.461,0Z" transform="rotate(17 -65.671 1918.577)" fill="#73a9fa"/><path id="tooltip-account" d="M152.82,2H18.758A16.758,16.758,0,0,0,2,18.758V119.3a16.758,16.758,0,0,0,16.758,16.758H52.273l33.516,33.516L119.3,136.062H152.82A16.758,16.758,0,0,0,169.578,119.3V18.758A16.758,16.758,0,0,0,152.82,2M85.789,21.271A22.623,22.623,0,1,1,63.166,43.894,22.529,22.529,0,0,1,85.789,21.271m50.273,89.654H35.516v-7.541c0-16.758,33.516-25.975,50.273-25.975s50.273,9.217,50.273,25.975Z" transform="translate(620.117 84)" fill="#fd9500"/></g></svg><svg height="316.244" viewBox="0 0 347 317" width="346.853" x="4" y="1605"><g transform="translate(-838.523 -210.802)"><ellipse cx="141.183" cy="140.527" rx="141.183" ry="140.527" transform="translate(856.053 245.992)" fill="#e0f2ff"/><g transform="rotate(9 -803.867 6908.043)"><ellipse cx="58.023" cy="57.826" rx="58.023" ry="57.826" fill="#5d9cfa"/><path d="M43.414,26.048V0H26.048V26.048H0V43.414H26.048V69.462H43.414V43.414H69.462V26.048" transform="translate(23.292 23.095)" fill="#fff"/></g><path d="M58.108,116.216h69.729v69.729H162.7V81.351l-69.729-52.3-69.729,52.3V185.945H58.108V116.216M0,209.188V69.729L92.973,0l92.973,69.729V209.188Z" transform="translate(952.501 266.101)" fill="#fdaa33"/><path d="M71.314,3A33.657,33.657,0,1,1,37.657,36.657,33.648,33.648,0,0,1,71.314,3m33.657,88.686c0,8.919-2.356,29.7-18.427,52.926l-6.816-40.641,7.909-15.819a145.319,145.319,0,0,0-16.324-1.01,145.319,145.319,0,0,0-16.324,1.01L62.9,103.971l-6.816,40.641c-16.071-23.223-18.427-44.007-18.427-52.926C17.547,97.576,4,108.178,4,120.8l11.87,33.657H128.047L138.628,120.8C138.628,108.178,125.165,97.576,104.971,91.686Z" transform="rotate(-8 2987.653 -5784.662)" fill="#5d9cfa"/></g></svg><svg height="303.791" viewBox="0 0 347 304" width="346.055" x="4" y="1926"><g transform="translate(-793 -229)"><ellipse cx="121.126" cy="120.713" rx="121.126" ry="120.713" transform="translate(877.776 276)" fill="#e0f2ff"/><ellipse cx="100.114" cy="99.985" rx="100.114" ry="99.985" transform="translate(938.827 229)" fill="#fdaa33"/><path d="M87.623,153.343H0V65.718H87.623V0L197.153,109.53,87.623,219.061V153.343m21.906-98.577V87.624H21.906v43.812h87.623V164.3l54.765-54.765Z" transform="rotate(-30 1036.694 -1308.219)" fill="#5d9cfa"/></g></svg><svg height="338.2" viewBox="0 0 309 339" width="308.3" x="4" y="2234"><g id="Group_2559" transform="translate(-961.708 -2535)"><path d="M6352,2211.9v225.5c-30.4,33-74,53.7-122.5,53.7c-61.1,0-114.5-32.9-143.5-82c-5.6-9.4-10.3-19.5-13.9-30 c-0.1-0.2-0.2-0.4-0.2-0.7c-5.8-16.9-8.9-35-8.9-53.8c0-31.3,8.6-60.5,23.6-85.5c12.8-21.3,30.1-39.4,50.7-53.2 c15.8-10.5,33.5-18.4,52.4-23.1c12.8-3.1,26.1-4.8,39.8-4.8c26,0,50.7,6,72.7,16.7c17.4,8.4,33.1,19.8,46.4,33.5 C6349.7,2209.5,6350.9,2210.7,6352,2211.9z" fill="#fd9500" transform="translate(-5082 382)" id="Mask_Group_6"/><path id="card-account-details-outline" d="M1171.3,2666l-1.5,14.1l56.5,6l1.5-14.1L1171.3,2666z M1174.3,2637.8 l-1.5,14.1l84.8,8.9l1.5-14.1L1174.3,2637.8z M1177.3,2609.5l-1.5,14.1l84.8,9l1.5-14.1L1177.3,2609.5z M1106.6,2602 c-19.5-2.1-37,12.1-39.1,31.6c-2.1,19.5,12.1,37,31.6,39.1s37-12.1,39.1-31.6C1140.3,2621.6,1126.2,2604.1,1106.6,2602z M1097.3,2690.4c-23.5-2.5-71.9,4.4-74.4,27.9l-1.9,17.7l141.3,14.9l1.9-17.7C1166.7,2709.7,1120.8,2692.8,1097.3,2690.4z M1177.3,2609.5l-1.5,14.1l84.8,9l1.5-14.1L1177.3,2609.5z M1174.3,2637.8l-1.5,14.1l84.8,8.9l1.5-14.1L1174.3,2637.8z M1171.3,2666l-1.5,14.1l56.5,6l1.5-14.1L1171.3,2666z M1097.3,2690.4c-23.5-2.5-71.9,4.4-74.4,27.9l-1.9,17.7l141.3,14.9l1.9-17.7 C1166.7,2709.7,1120.8,2692.8,1097.3,2690.4z M1106.6,2602c-19.5-2.1-37,12.1-39.1,31.6c-2.1,19.5,12.1,37,31.6,39.1 s37-12.1,39.1-31.6C1140.3,2621.6,1126.2,2604.1,1106.6,2602z M1106.6,2602c-19.5-2.1-37,12.1-39.1,31.6 c-2.1,19.5,12.1,37,31.6,39.1s37-12.1,39.1-31.6C1140.3,2621.6,1126.2,2604.1,1106.6,2602z M1097.3,2690.4 c-23.5-2.5-71.9,4.4-74.4,27.9l-1.9,17.7l141.3,14.9l1.9-17.7C1166.7,2709.7,1120.8,2692.8,1097.3,2690.4z M1171.3,2666l-1.5,14.1 l56.5,6l1.5-14.1L1171.3,2666z M1174.3,2637.8l-1.5,14.1l84.8,8.9l1.5-14.1L1174.3,2637.8z M1177.3,2609.5l-1.5,14.1l84.8,9 l1.5-14.1L1177.3,2609.5z M1004.6,2621.2l6.1-57.9l44.6,4.7l211.3,22.3l3.4,0.4v-28.6l-49.8-5.3l-112.5-11.9l-94-9.9 c-15.4-1.1-29.1,10-31.2,25.3l-20.9,197.8c-1.1,15.4,10,29.1,25.3,31.2l17.2,1.8l265.5,28c0.2,0,0.3,0,0.5,0v-28.5l-279.9-29.5 l-0.3,0l0.1-0.6L1004.6,2621.2z M1177.3,2609.5l-1.5,14.1l84.8,9l1.5-14.1L1177.3,2609.5z M1174.3,2637.8l-1.5,14.1l84.8,8.9 l1.5-14.1L1174.3,2637.8z M1171.3,2666l-1.5,14.1l56.5,6l1.5-14.1L1171.3,2666z M1097.3,2690.4c-23.5-2.5-71.9,4.4-74.4,27.9 l-1.9,17.7l141.3,14.9l1.9-17.7C1166.7,2709.7,1120.8,2692.8,1097.3,2690.4z M1106.6,2602c-19.5-2.1-37,12.1-39.1,31.6 c-2.1,19.5,12.1,37,31.6,39.1s37-12.1,39.1-31.6C1140.3,2621.6,1126.2,2604.1,1106.6,2602z M1177.3,2609.5l-1.5,14.1l84.8,9 l1.5-14.1L1177.3,2609.5z M1174.3,2637.8l-1.5,14.1l84.8,8.9l1.5-14.1L1174.3,2637.8z M1171.3,2666l-1.5,14.1l56.5,6l1.5-14.1 L1171.3,2666z M1097.3,2690.4c-23.5-2.5-71.9,4.4-74.4,27.9l-1.9,17.7l141.3,14.9l1.9-17.7 C1166.7,2709.7,1120.8,2692.8,1097.3,2690.4z M1106.6,2602c-19.5-2.1-37,12.1-39.1,31.6c-2.1,19.5,12.1,37,31.6,39.1 s37-12.1,39.1-31.6C1140.3,2621.6,1126.2,2604.1,1106.6,2602z" opacity=".8" fill="#fff"/></g></svg><svg height="309.543" viewBox="0 0 325 310" width="324.767" x="4" y="2577"><g transform="translate(-860.609 -210.802)"><ellipse cx="141.183" cy="140.527" rx="141.183" ry="140.527" transform="translate(876.557 235.992)" fill="#e0f2ff"/><g transform="rotate(9 -803.867 6908.043)"><ellipse cx="58.023" cy="57.826" rx="58.023" ry="57.826" fill="#5d9cfa"/><path d="M43.414,26.048V0H26.048V26.048H0V43.414H26.048V69.462H43.414V43.414H69.462V26.048" transform="translate(23.292 23.095)" fill="#fff"/></g><path d="M58.108,116.216h69.729v69.729H162.7V81.351l-69.729-52.3-69.729,52.3V185.945H58.108V116.216M0,209.188V69.729L92.973,0l92.973,69.729V209.188Z" transform="translate(952.501 266.101)" fill="#fdaa33"/><path d="M60.288,94.53C35.048,94.53,0,106.106,0,131.345l4.307,16.081,109.619,1,3.652-16.448c0-25.239-32.052-37.449-57.291-37.449m0-18.906A37.812,37.812,0,1,0,22.476,37.812,37.812,37.812,0,0,0,60.288,75.624Z" transform="rotate(-8 3099.967 -5966.96)" fill="#5d9cfa"/></g></svg><svg height="244.377" viewBox="0 0 321 245" width="320.203" x="4" y="2891"><path d="M0,172.81l20.76-50.621L0,71.568,50.171,50.621,70.931,0,121.1,20.947,171.273,0l20.76,50.621L242.2,71.568l-20.76,50.621L242.2,172.81l-50.171,20.947-20.76,50.621L121.1,223.431,70.931,244.377l-20.76-50.621Z" transform="translate(41.487)" fill="#e0f2ff"/><path d="M32.275,88.5a4.325,4.325,0,0,1-4.325-4.325V71.2H10.65A8.65,8.65,0,0,1,2,62.549V10.65A8.648,8.648,0,0,1,10.65,2h69.2a8.65,8.65,0,0,1,8.65,8.65v51.9a8.65,8.65,0,0,1-8.65,8.65H53.467l-16,16.046A4.407,4.407,0,0,1,34.437,88.5H32.275M36.6,62.549V75.87L49.921,62.549H79.849V10.65H10.65v51.9Z" transform="rotate(9 -3.438 1490.39)" fill="#fd9500"/><path d="M49.968,0C22.486,0,0,17.889,0,39.975S22.486,79.949,49.968,79.949a63.212,63.212,0,0,0,17.639-2.5C82.2,89.943,99.937,89.943,99.937,89.943,88.294,78.3,86.445,70.455,86.2,67.457c8.495-7.145,13.741-16.839,13.741-27.483C99.937,17.889,77.451,0,49.968,0M24.984,44.971V34.978h9.994v9.994H24.984m19.987,0V34.978h9.994v9.994H44.971m19.987,0V34.978h9.994v9.994Z" transform="rotate(1 -11.362 90)" fill="#fd9500"/><path d="M143.393,83.367h-6.781A47.43,47.43,0,0,0,89.148,35.9H82.367V27.292a13.561,13.561,0,1,0-13.561,0V35.9H62.026A47.43,47.43,0,0,0,14.561,83.367H7.781A6.8,6.8,0,0,0,1,90.148V110.49a6.8,6.8,0,0,0,6.781,6.781h6.781v6.781a13.557,13.557,0,0,0,13.561,13.561h94.929a13.514,13.514,0,0,0,13.561-13.561V117.27h6.781a6.8,6.8,0,0,0,6.781-6.781V90.148a6.8,6.8,0,0,0-6.781-6.781M53.075,103.98l-8-8-8,8-8-8,16-16,16,16-8,8m61.026,0-8-8-8,8-8-8,16-16,16,16Z" transform="rotate(6.02 -266.01 923.616)" fill="#5d9cfa"/></svg><svg height="303.332" viewBox="0 0 308 304" width="307.743" x="4" y="3140"><path d="M0,192.477l23.331-56.382L0,79.713,56.382,56.382,79.713,0l56.382,23.331L192.477,0l23.331,56.382,56.382,23.331-23.33,56.382,23.331,56.382-56.382,23.33-23.33,56.382-56.382-23.33L79.713,272.19,56.382,215.808Z" transform="rotate(7 18.791 307.23)" fill="#e0f2ff"/><path d="M94.418,2A74.757,74.757,0,1,1,31.846,117.35l11.812-9.345A59.691,59.691,0,1,0,35.21,69.281H55.843L27.884,97.166,0,69.281H20.11A74.729,74.729,0,0,1,94.418,2" transform="translate(0 25.125)" fill="#5d9cfa"/><path d="M113.594,66.468a16.212,16.212,0,0,1,16,16.177v81.063a16.248,16.248,0,0,1-16.177,16.177H16.177A16.248,16.248,0,0,1,0,163.708V82.646A16.212,16.212,0,0,1,16,66.468V48.708a48.8,48.8,0,0,1,97.592,0v17.76M64.71,24.618a24.127,24.127,0,0,0-24.09,24.09v17.76H88.976V48.708A24.165,24.165,0,0,0,64.71,24.618Z" transform="rotate(10.02 -103.487 674.944)" fill="#fdaa33"/></svg><svg height="241.175" viewBox="0 0 290 242" width="289.086" x="4" y="3448"><ellipse cx="117.576" cy="117.029" rx="117.576" ry="117.029" transform="translate(16.256 7.117)" fill="#e0f2ff"/><path d="M7.412,7.412H18.53L25.941,0H48.177l7.412,7.412H66.707a7.412,7.412,0,0,1,7.412,7.412V59.295a7.412,7.412,0,0,1-7.412,7.412H7.412A7.412,7.412,0,0,1,0,59.295V14.824A7.412,7.412,0,0,1,7.412,7.412M37.059,18.53a18.53,18.53,0,1,0,18.53,18.53,18.53,18.53,0,0,0-18.53-18.53m0,7.412A11.118,11.118,0,1,1,25.941,37.059,11.118,11.118,0,0,1,37.059,25.941Z" transform="rotate(-7 475.565 -2.529)" fill="#5d9cfa"/><path d="M166.639,3H20.293A18.23,18.23,0,0,0,2,21.293V149.346a18.23,18.23,0,0,0,18.293,18.293H166.639a18.23,18.23,0,0,0,18.293-18.293V21.293A18.23,18.23,0,0,0,166.639,3M29.44,39.587H75.173v54.88H29.44V39.587m128.053,91.466H29.44V112.76H157.493v18.293m0-36.587H93.466V76.173h64.026V94.466m0-36.587H93.466V39.587h64.026Z" transform="translate(104.154 -3)" fill="#fd9500"/><path d="M30.59,87.4a4.37,4.37,0,0,1-4.37-4.37V69.921H8.74A8.74,8.74,0,0,1,0,61.181V8.74A8.738,8.738,0,0,1,8.74,0H78.661A8.74,8.74,0,0,1,87.4,8.74v52.44a8.74,8.74,0,0,1-8.74,8.74H52L35.834,86.133A4.453,4.453,0,0,1,32.775,87.4H30.59m4.37-26.22V74.64l13.46-13.46H78.661V8.74H8.74v52.44Z" transform="rotate(-7 1212.113 74.136)" fill="#5d9cfa"/></svg><svg height="253.324" viewBox="0 0 287 254" width="286.904" x="4" y="3694"><g transform="translate(-888.254 -564.172)"><ellipse cx="121.308" cy="120.744" rx="121.308" ry="120.744" transform="translate(900.11 576.008)" fill="#e0f2ff"/><path d="M80.927,0A40.464,40.464,0,1,1,40.464,40.463,40.452,40.452,0,0,1,80.927,0M121.39,106.621c0,10.723-2.832,35.709-22.154,63.629l-8.194-48.86,9.509-19.018a174.705,174.705,0,0,0-19.625-1.214A174.706,174.706,0,0,0,61.3,102.373l9.509,19.018-8.194,48.86C43.3,142.33,40.464,117.344,40.464,106.621,16.287,113.7,0,126.448,0,141.622l14.27,40.464H149.133l12.721-40.464C161.854,126.448,145.669,113.7,121.39,106.621Z" transform="rotate(-2 18233.835 -25133.498)" fill="#5d9cfa"/><path d="M59.071,0c32.489,0,59.071,21.147,59.071,47.257S91.56,94.514,59.071,94.514A74.728,74.728,0,0,1,38.219,91.56C20.97,106.328,0,106.328,0,106.328,13.764,92.564,15.949,83.29,16.245,79.746,6.2,71.3,0,59.839,0,47.257,0,21.147,26.582,0,59.071,0M88.607,53.164V41.35H76.792V53.164H88.607m-23.628,0V41.35H53.164V53.164H64.978m-23.628,0V41.35H29.536V53.164Z" transform="rotate(12.04 -2149.507 5321.568)" fill="#fd9500"/><path d="M57.264,42.948h9.544a23.86,23.86,0,0,0-23.86-23.86v9.544A14.316,14.316,0,0,1,57.264,42.948m19.088,0H85.9A42.86,42.86,0,0,0,42.948,0V9.544a33.41,33.41,0,0,1,33.4,33.4m4.772,16.7a54.212,54.212,0,0,1-17.036-2.72,4.789,4.789,0,0,0-4.867,1.193l-10.5,10.5A72.042,72.042,0,0,1,17.275,37.174l10.5-10.5a4.789,4.789,0,0,0,1.193-4.867,54.212,54.212,0,0,1-2.72-17.036A4.772,4.772,0,0,0,21.474,0H4.772A4.772,4.772,0,0,0,0,4.772,81.124,81.124,0,0,0,81.124,85.9,4.772,4.772,0,0,0,85.9,81.124v-16.7A4.772,4.772,0,0,0,81.124,59.65Z" transform="rotate(-104 860.404 -19.309)" fill="#fd9500"/></g></svg><svg height="190.84" viewBox="0 0 273 191" width="272.485" x="4" y="3952"><g transform="translate(-877.033 -1544.37)"><path id="chat-processing" d="M31.652,0C14.243,0,0,11.331,0,25.322S14.243,50.643,31.652,50.643a40.042,40.042,0,0,0,11.173-1.583A34.6,34.6,0,0,0,63.3,56.974C55.929,49.6,54.758,44.629,54.6,42.73c5.381-4.526,8.7-10.667,8.7-17.409C63.3,11.331,49.061,0,31.652,0M15.826,28.487v-6.33h6.33v6.33h-6.33m12.661,0v-6.33h6.33v6.33h-6.33m12.661,0v-6.33h6.33v6.33Z" transform="rotate(1 -93331.743 51124.347)" fill="#fd9500"/><circle id="Эллипс_86" data-name="Эллипс 86" cx="81.386" cy="81.386" r="81.386" transform="rotate(11 -7546.284 5686.181)" fill="#fff"/><path id="chat-processing-2" data-name="chat-processing" d="M39.483,0C61.2,0,78.965,14.135,78.965,31.586S61.2,63.172,39.483,63.172A49.948,49.948,0,0,1,25.545,61.2,43.166,43.166,0,0,1,0,71.069c9.2-9.2,10.66-15.4,10.858-17.767C4.146,47.655,0,40,0,31.586,0,14.135,17.767,0,39.483,0M59.224,35.534v-7.9h-7.9v7.9h7.9m-15.793,0v-7.9h-7.9v7.9h7.9m-15.793,0v-7.9h-7.9v7.9Z" transform="rotate(11 -7688.713 6358.544)" fill="#fd9500"/><path id="account-heart" d="M74.85,54.971c-14.435,0-42.772,7.146-42.772,21.989V87.954h85.543V76.96c0-14.842-28.336-21.989-42.772-21.989m0-10.994c11.811,0,21.386-9.845,21.386-21.989S86.661,0,74.85,0,53.464,9.845,53.464,21.989,63.039,43.977,74.85,43.977M21.386,60.469,18.178,57.72C7.485,47.275,0,40.679,0,32.433A12.037,12.037,0,0,1,11.762,20.339a12.373,12.373,0,0,1,9.624,4.4,12.373,12.373,0,0,1,9.624-4.4A11.692,11.692,0,0,1,42.772,32.433c0,8.246-7.485,14.842-18.178,25.287Z" transform="rotate(6.02 -14613.761 9825.6)" fill="#73a9fa"/></g></svg><svg height="121.55" viewBox="0 0 264 122" width="264" x="4" y="4147"><g transform="translate(-899 -3725.45)"><path d="M50,0A50,50,0,1,1,0,50,50,50,0,0,1,50,0Z" transform="translate(899 3747)" fill="#fff"/><path d="M71.056,9.507a8.507,8.507,0,0,1,8.507,8.507V77.563a8.507,8.507,0,0,1-8.507,8.507H11.507A8.507,8.507,0,0,1,3,77.563V18.014a8.507,8.507,0,0,1,8.507-8.507h17.78a12.71,12.71,0,0,1,23.99,0h17.78m-29.775,0a4.254,4.254,0,1,0,4.254,4.254,4.254,4.254,0,0,0-4.254-4.254M20.014,26.521V18.014H11.507V77.563H71.056V18.014H62.549v8.507H20.014m21.268,8.507a8.507,8.507,0,1,1-8.507,8.507,8.507,8.507,0,0,1,8.507-8.507M24.268,69.056V64.8c0-4.679,7.614-8.507,17.014-8.507S58.3,60.124,58.3,64.8v4.254Z" transform="translate(911 3739.362)" fill="#498ef4" opacity=".6"/><circle cx="48.5" cy="48.5" r="48.5" transform="translate(1066 3734)" fill="#fff"/><path d="M41.492,2H61.239a9.873,9.873,0,0,1,9.873,9.873v9.873H90.858a9.873,9.873,0,0,1,9.873,9.873v54.3a9.873,9.873,0,0,1-9.873,9.873H11.873A9.87,9.87,0,0,1,2,85.922v-54.3a9.839,9.839,0,0,1,9.873-9.873H31.619V11.873A9.839,9.839,0,0,1,41.492,2M61.239,21.746V11.873H41.492v9.873Z" transform="rotate(14 -14662.13 5922.915)" fill="#5d9cfa"/><path d="M71.733,63.665H67.484l-1.506-1.452a35.014,35.014,0,1,0-3.765,3.765l1.452,1.506v4.249L90.558,98.573l8.014-8.014Zm-32.272,0a24.2,24.2,0,1,1,24.2-24.2A24.171,24.171,0,0,1,39.461,63.665Z" transform="translate(1056.5 3741.772)" fill="#ea8a0d"/></g></svg><svg height="232.9" viewBox="0 0 211 233" width="210.5" x="4" y="4273"><g id="Group_2558" transform="translate(-1062.461 -1201.379)"><path d="M1273,1253.9v144.8c-1.8,1.9-3.6,3.8-5.4,5.6c-19.5,18.6-45.9,30-75.1,30c-58.1,0-105.6-45.5-108.4-102.7 c-0.1-1.8-0.1-3.5-0.1-5.3c0-14.9,3.1-29.2,8.6-42.1c16.5-38.7,55-65.9,99.9-65.9c0.3,0,0.7,0,1,0c16.6,0.1,32.4,4,46.4,10.8 C1252.5,1235.2,1263.7,1243.6,1273,1253.9z" fill="#d0e7fd"/><path id="Icon_material-search" d="M1242.7,1336.2h-11.4l-4-3.9c25.4-29.6,29.1-70.4,12.7-103.2 c-5.1-10.2-12.2-19.7-21.2-27.7h-125.3c-3,2.7-5.8,5.6-8.5,8.7c-30.4,35.4-29.8,86.9-0.7,121.5c3.2,3.8,6.8,7.5,10.8,10.9 c35.2,30.2,87.1,30.2,122.2,0l3.9,4v11.4l46.5,46.4l5.4,5.4v-43.1L1242.7,1336.2z M1156.3,1336.2h-0.2 c-31.5,0-57.7-22.4-63.6-52.1c-0.8-4.1-1.3-8.4-1.3-12.8c0-35.8,29-64.9,64.9-64.9c13.9,0,26.8,4.4,37.3,11.8 c16.7,11.7,27.6,31.1,27.6,53.1C1221.1,1307.1,1192.1,1336.2,1156.3,1336.2z" opacity=".8" fill="#fff"/></g></svg><svg height="217.991" viewBox="0 0 228 218" width="227.607" x="4" y="4510"><g transform="translate(-862.393 -384.009)"><circle cx="98" cy="98" r="98" transform="translate(894 406)" fill="#e0f2ff"/><path d="M117.443,15.305a14.305,14.305,0,0,1,14.305,14.305V129.748a14.305,14.305,0,0,1-14.305,14.305H17.305A14.305,14.305,0,0,1,3,129.748V29.611A14.305,14.305,0,0,1,17.305,15.305H47.2a21.373,21.373,0,0,1,40.341,0h29.9m-50.069,0a7.153,7.153,0,1,0,7.153,7.153,7.153,7.153,0,0,0-7.153-7.153M31.611,43.916V29.611H17.305V129.748H117.443V29.611H103.137V43.916H31.611M67.374,58.221A14.305,14.305,0,1,1,53.069,72.527,14.305,14.305,0,0,1,67.374,58.221M38.763,115.443V108.29c0-7.868,12.8-14.305,28.611-14.305s28.611,6.437,28.611,14.305v7.153Z" transform="matrix(.998 .07 -.07 .998 934.603 382.802)" fill="#5d9cfa"/><path d="M5,0H30a0,0,0,0,1,0,0V20a0,0,0,0,1,0,0H5a5,5,0,0,1-5-5V5A5,5,0,0,1,5,0Z" transform="matrix(.998 -.07 .07 .998 914.169 562.37)" fill="#e52929"/><path d="M5,0H30a0,0,0,0,1,0,0V20a0,0,0,0,1,0,0H5a5,5,0,0,1-5-5V5A5,5,0,0,1,5,0Z" transform="matrix(-.998 .07 -.07 -.998 1056.287 572.46)" fill="#fff"/><path transform="matrix(.998 -.07 .07 .998 951.095 559.78)" fill="#fff" d="M0 0H30V20H0z"/><path transform="matrix(.998 -.07 .07 .998 988.021 557.19)" fill="#fff" d="M0 0H30V20H0z"/><path d="M45.689,45.689H37.151V20.076h8.538M37.151,54.227h8.538v8.538H37.151M57.343,3H25.5L3,25.5V57.343l22.5,22.5H57.343l22.5-22.5V25.5Z" transform="rotate(-13 2542.253 -3528.044)" fill="#fd9500"/></g></svg><svg height="170.255" viewBox="0 0 213 171" width="212.124" x="4" y="4732"><g transform="translate(-395.876 -301.872)"><path d="M0,108.034,13.1,76.388,0,44.741l31.646-13.1L44.741,0,76.388,13.1,108.034,0l13.1,31.646,31.646,13.1-13.1,31.646,13.1,31.646-31.646,13.095-13.095,31.646-31.646-13.1L44.741,152.775l-13.1-31.646Z" transform="rotate(7 -2239.6 3881.67)" fill="#e0f2ff"/><circle cx="65" cy="65" r="65" transform="translate(395.876 314.163)" fill="#fdaa33"/><path d="M80.015,3H34.883L3,34.883V80.015L34.883,111.9H80.015L111.9,80.015V34.883Z" transform="rotate(8 -2082.819 3381.529)" fill="#498ef4"/><path d="M13.408,32.424a1.738,1.738,0,0,1-1.212-.476,1.622,1.622,0,0,1-.52-1.256V27.921A15.027,15.027,0,0,1,13.538,21.9a26.841,26.841,0,0,1,3.551-4.849q2.035-2.208,4.07-4.2a32.252,32.252,0,0,0,3.464-3.94,8.578,8.578,0,0,0,1.689-4.027,5.939,5.939,0,0,0-1-4.243A7.924,7.924,0,0,0,21.938-2a11.2,11.2,0,0,0-4.46-.909A10.649,10.649,0,0,0,10.81-.916q-2.6,1.992-3.551,6.408a2.678,2.678,0,0,1-.866,1.515,2.594,2.594,0,0,1-1.645.476H-2.613a1.832,1.832,0,0,1-1.342-.563,2.048,2.048,0,0,1-.563-1.515,16.709,16.709,0,0,1,1.6-6.711A18.106,18.106,0,0,1,1.5-7.151a21.459,21.459,0,0,1,7.058-4.113,27.716,27.716,0,0,1,9.526-1.515A28.315,28.315,0,0,1,28-11.265a17.432,17.432,0,0,1,6.408,3.94,14.793,14.793,0,0,1,3.421,5.239,14.45,14.45,0,0,1,.953,5.5A14.76,14.76,0,0,1,37.309,9.3a23.243,23.243,0,0,1-3.2,4.806q-1.905,2.208-3.9,4.33A38.754,38.754,0,0,0,26.7,22.725a12.532,12.532,0,0,0-2.035,4.59,15.152,15.152,0,0,0-.26,1.515q-.087.736-.173,1.429a4.388,4.388,0,0,1-.866,1.6,1.9,1.9,0,0,1-1.472.563Zm-.26,16.28a2.07,2.07,0,0,1-2.078-2.078V39.092a2.11,2.11,0,0,1,.606-1.559,2,2,0,0,1,1.472-.606h8.4a2.076,2.076,0,0,1,2.165,2.165v7.534a2,2,0,0,1-.606,1.472,2.11,2.11,0,0,1-1.559.606Z" transform="rotate(8 -2385.318 3650.008)" fill="#fff"/></g></svg><svg height="191.842" viewBox="0 0 206 192" width="205.58" x="4" y="4907"><g id="Group_2560" data-name="Group 2560" transform="translate(-137 -4091)"><circle id="Ellipse_48" data-name="Ellipse 48" cx="92.5" cy="92.5" r="92.5" transform="translate(137 4091)" fill="#fd9500" opacity=".5"/><path id="message-text-outline" d="M152.87,0a16.986,16.986,0,0,1,16.986,16.986V118.9a16.986,16.986,0,0,1-16.986,16.986H33.971L0,169.856V16.986A16.981,16.981,0,0,1,16.986,0H152.87M16.986,16.986v111.85l9.937-9.937H152.87V16.986H16.986M33.971,42.464H135.885V59.45H33.971V42.464m0,33.971h76.435V93.421H33.971Z" transform="rotate(8 -29164.824 3292.354)" fill="#fff"/></g></svg><svg height="163.576" viewBox="0 0 200 164" width="199.146" x="4" y="5103"><g transform="translate(-994.349 -284.103)"><ellipse cx="73.639" cy="73.297" rx="73.639" ry="73.297" transform="translate(1023.994 284.104)" fill="#e0f2ff"/><path d="M53.116,72.086a18.97,18.97,0,1,1,18.97-18.97,18.97,18.97,0,0,1-18.97,18.97M53.116,0A53.116,53.116,0,0,0,0,53.116C0,92.953,53.116,151.76,53.116,151.76s53.116-58.807,53.116-98.644A53.116,53.116,0,0,0,53.116,0Z" transform="rotate(-7 2925.537 -7980.206)" fill="#fd9500"/><path d="M80.015,3H34.883L3,34.883V80.015L34.883,111.9H80.015L111.9,80.015V34.883Z" transform="rotate(6 -2371.825 10480.56)" fill="#498ef4"/><path d="M13.408,32.424a1.738,1.738,0,0,1-1.212-.476,1.622,1.622,0,0,1-.52-1.256V27.921A15.027,15.027,0,0,1,13.538,21.9a26.841,26.841,0,0,1,3.551-4.849q2.035-2.208,4.07-4.2a32.252,32.252,0,0,0,3.464-3.94,8.578,8.578,0,0,0,1.689-4.027,5.939,5.939,0,0,0-1-4.243A7.924,7.924,0,0,0,21.938-2a11.2,11.2,0,0,0-4.46-.909A10.649,10.649,0,0,0,10.81-.916q-2.6,1.992-3.551,6.408a2.678,2.678,0,0,1-.866,1.515,2.594,2.594,0,0,1-1.645.476H-2.613a1.832,1.832,0,0,1-1.342-.563,2.048,2.048,0,0,1-.563-1.515,16.709,16.709,0,0,1,1.6-6.711A18.106,18.106,0,0,1,1.5-7.151a21.459,21.459,0,0,1,7.058-4.113,27.716,27.716,0,0,1,9.526-1.515A28.315,28.315,0,0,1,28-11.265a17.432,17.432,0,0,1,6.408,3.94,14.793,14.793,0,0,1,3.421,5.239,14.45,14.45,0,0,1,.953,5.5A14.76,14.76,0,0,1,37.309,9.3a23.243,23.243,0,0,1-3.2,4.806q-1.905,2.208-3.9,4.33A38.754,38.754,0,0,0,26.7,22.725a12.532,12.532,0,0,0-2.035,4.59,15.152,15.152,0,0,0-.26,1.515q-.087.736-.173,1.429a4.388,4.388,0,0,1-.866,1.6,1.9,1.9,0,0,1-1.472.563Zm-.26,16.28a2.07,2.07,0,0,1-2.078-2.078V39.092a2.11,2.11,0,0,1,.606-1.559,2,2,0,0,1,1.472-.606h8.4a2.076,2.076,0,0,1,2.165,2.165v7.534a2,2,0,0,1-.606,1.472,2.11,2.11,0,0,1-1.559.606Z" transform="rotate(6 -2768.708 10845.387)" fill="#fff"/></g></svg><svg height="167.151" viewBox="0 0 193 168" width="192.486" x="4" y="5271"><g transform="translate(-858 -2978.04)"><ellipse cx="63.312" cy="63.018" rx="63.312" ry="63.018" transform="translate(887.648 2998.598)" fill="#e0f2ff"/><path d="M51.334,69.668A18.334,18.334,0,1,1,69.668,51.334,18.334,18.334,0,0,1,51.334,69.668M51.334,0A51.334,51.334,0,0,0,0,51.334c0,38.5,51.334,95.335,51.334,95.335s51.334-56.835,51.334-95.335A51.334,51.334,0,0,0,51.334,0Z" transform="rotate(14 -11652.528 5354.058)" fill="#fd9500"/><path d="M44.173,0H4.908A4.9,4.9,0,0,0,.025,4.908L0,34.357a4.923,4.923,0,0,0,4.908,4.908H44.173a4.923,4.923,0,0,0,4.908-4.908V4.908A4.923,4.923,0,0,0,44.173,0Zm0,9.816L24.541,22.087,4.908,9.816V4.908l19.633,12.27L44.173,4.908Z" transform="rotate(6.02 -28708.69 11050.33)" fill="#498ef4"/><path d="M12.609,43.23H43.23L55.839,25.217,43.23,7.205H12.609L25.218,25.217,12.609,43.23m30.621,7.2H0L16.211,25.217,0,0H43.23a7,7,0,0,1,5.908,3.1L64.845,25.217,49.138,47.337A7,7,0,0,1,43.23,50.435Z" transform="rotate(-12.04 14993.853 -2539.112)" fill="#498ef4"/></g></svg><svg height="190.767" viewBox="0 0 191 191" width="190.767" x="4" y="5443"><path d="M0,108.034,13.1,76.388,0,44.741l31.646-13.1L44.741,0,76.388,13.1,108.034,0l13.1,31.646,31.646,13.1-13.1,31.646,13.1,31.646-31.646,13.095-13.095,31.646-31.646-13.1L44.741,152.775l-13.1-31.646Z" transform="rotate(-17 149.437 22.334)" fill="#e0f2ff"/><path d="M37.053,98.173a42.558,42.558,0,0,1-16.5-2.863A29.7,29.7,0,0,1,9.374,87.4,33.8,33.8,0,0,1,2.829,75.743,54.3,54.3,0,0,1,.239,61.631Q.1,57.949.034,53.518t0-8.931q.068-4.5.2-8.317A47.656,47.656,0,0,1,2.829,22.157,33.531,33.531,0,0,1,9.579,10.635,31.111,31.111,0,0,1,20.828,2.863,41.76,41.76,0,0,1,37.053,0,42.158,42.158,0,0,1,53.415,2.863a31.111,31.111,0,0,1,11.249,7.772,32.68,32.68,0,0,1,6.681,11.522,49.129,49.129,0,0,1,2.522,14.112q.273,3.818.273,8.317v8.931q0,4.431-.273,8.113a50.71,50.71,0,0,1-2.454,14.112A33.8,33.8,0,0,1,64.869,87.4,29.6,29.6,0,0,1,53.62,95.309,43.078,43.078,0,0,1,37.053,98.173Zm0-15.68q8.863,0,13.022-5.795t4.3-15.749q.273-3.954.273-7.977V44.859q0-4.091-.273-7.772-.136-9.681-4.3-15.612T37.053,15.544q-8.726,0-12.885,5.931T19.737,37.087q0,3.681-.068,7.772t0,8.113q.068,4.022.068,7.977.273,9.954,4.5,15.749T37.053,82.492Z" transform="rotate(-12.04 207.828 -290.735)" fill="#498ef4"/><path d="M53.894,23.507V5L86.281,37.387,53.894,69.774V50.8C30.76,50.8,14.567,58.207,3,74.4,7.627,51.267,21.507,28.134,53.894,23.507Z" transform="rotate(-10.02 462.499 39.163)" fill="#fd9500"/></svg><svg height="175.573" viewBox="0 0 184 176" width="183.146" x="4" y="5638"><g transform="translate(9.577 -9.988)"><path d="M0,103.521,12.548,73.2,0,42.873,30.324,30.324,42.872,0,73.2,12.548,103.521,0l12.548,30.324,30.324,12.548L133.846,73.2l12.548,30.324L116.069,116.07l-12.548,30.324L73.2,133.846,42.872,146.394,30.324,116.07Z" transform="rotate(-13 183.514 63.485)" fill="#e0f2ff"/><path d="M41.926,111.082q-10.954,0-18.668-3.24a33.6,33.6,0,0,1-12.651-8.948A38.248,38.248,0,0,1,3.2,85.7,61.436,61.436,0,0,1,.27,69.735q-.154-4.166-.231-9.18t0-10.105q.077-5.091.231-9.411A53.922,53.922,0,0,1,3.2,25.071a37.94,37.94,0,0,1,7.637-13.037A35.2,35.2,0,0,1,23.566,3.24,47.252,47.252,0,0,1,41.926,0,47.7,47.7,0,0,1,60.439,3.24a35.2,35.2,0,0,1,12.728,8.794,36.977,36.977,0,0,1,7.56,13.037,55.59,55.59,0,0,1,2.854,15.968q.309,4.32.309,9.411V60.555q0,5.014-.309,9.18A57.378,57.378,0,0,1,80.8,85.7,38.248,38.248,0,0,1,73.4,98.894a33.492,33.492,0,0,1-12.728,8.948Q52.88,111.082,41.926,111.082Zm0-17.742q10.028,0,14.734-6.557t4.86-17.819q.309-4.474.309-9.025v-9.18q0-4.628-.309-8.794Q61.365,31.01,56.659,24.3T41.926,17.588q-9.874,0-14.579,6.711T22.332,41.964q0,4.166-.077,8.794t0,9.18q.077,4.551.077,9.025.309,11.262,5.091,17.819T41.926,93.34Z" transform="rotate(12.04 -105.362 129.437)" fill="#498ef4"/><rect width="71" height="22" rx="11" transform="translate(90 114.57)" fill="#88c077"/><rect width="58" height="22" rx="11" transform="translate(90 84.57)" fill="#ec5b73"/><rect width="83.569" height="22.434" rx="11.217" transform="translate(90 54.197)" fill="#ffee6c"/></g></svg><svg height="37.915" viewBox="0 0 180 38" width="180" x="4" y="5818"><g id="Сгруппировать_2521" data-name="Сгруппировать 2521" transform="translate(-1427.573 -452.92)" fill="#fff"><path id="Контур_3" data-name="Контур 3" d="M1433.256,484.911a8.79,8.79,0,0,1-2.062-6.233V467.061h-3.621v-4.831h3.621v-7.242h6.339v7.242h5.783v4.831h-5.783v10.812a5.008,5.008,0,0,0,.853,3.291,4.006,4.006,0,0,0,3.121.981,7.125,7.125,0,0,0,3.065-.7v4.831a14.376,14.376,0,0,1-5.278.852A7.846,7.846,0,0,1,1433.256,484.911Z" transform="translate(0 3.711)"/><path id="Контур_4" data-name="Контур 4" d="M1437.416,480.671a7.582,7.582,0,0,1-2.769-6.16,7.872,7.872,0,0,1,2.615-6.286q2.614-2.263,7.345-2.266a15.911,15.911,0,0,1,7.892,1.861v-.651a4.291,4.291,0,0,0-1.581-3.721q-1.584-1.161-5.1-1.157a22.735,22.735,0,0,0-4.378.425,17.362,17.362,0,0,0-3.82,1.185v-4.979a16.584,16.584,0,0,1,4.045-1.157,27.722,27.722,0,0,1,4.9-.453q6.286,0,9.3,2.688a9.487,9.487,0,0,1,3.018,7.468V482.2H1452.9v-2.366a10.923,10.923,0,0,1-3.548,2.313,12.889,12.889,0,0,1-4.85.8A10.748,10.748,0,0,1,1437.416,480.671Zm12.472-3.171a6.129,6.129,0,0,0,2.612-2.285v-2.665a10.678,10.678,0,0,0-6.333-1.964q-5.08,0-5.082,3.925a3.337,3.337,0,0,0,1.282,2.864,6.1,6.1,0,0,0,3.7.955A8.661,8.661,0,0,0,1449.888,477.5Z" transform="translate(12.689 7.878)"/><path id="Контур_5" data-name="Контур 5" d="M1445.394,452.92h6.333v37.163h-6.333Z" transform="translate(31.657)"/><path id="Контур_6" data-name="Контур 6" d="M1453.383,479.587q-3.922-3.369-3.922-9.4,0-5.935,3.469-9.4t9.907-3.47a15.047,15.047,0,0,1,7.217,1.609,10.735,10.735,0,0,1,4.5,4.4,13.157,13.157,0,0,1,1.509,6.359V472.6H1455.5q.65,5.381,9.354,5.381a28.45,28.45,0,0,0,4.728-.4,21.258,21.258,0,0,0,4.224-1.1v4.875a20.548,20.548,0,0,1-4.4,1.157,31.974,31.974,0,0,1-5.356.453Q1457.306,482.956,1453.383,479.587Zm16.7-11.315a5.638,5.638,0,0,0-2.036-4.425,8.237,8.237,0,0,0-5.306-1.556,7.852,7.852,0,0,0-5.23,1.609,5.707,5.707,0,0,0-2.012,4.372Z" transform="translate(38.832 7.878)"/><path id="Контур_7" data-name="Контур 7" d="M1460.783,458.064h6.135v3.269a10.464,10.464,0,0,1,4.073-3.043,12.91,12.91,0,0,1,4.979-.978q4.878,0,7.292,2.64a9.992,9.992,0,0,1,2.414,7.015V482.2h-6.336V467.568q0-5.276-4.929-5.277a8.451,8.451,0,0,0-4.073,1.031,8.683,8.683,0,0,0-3.219,3.09V482.2h-6.337Z" transform="translate(58.925 7.878)"/><path id="Контур_8" data-name="Контур 8" d="M1476.726,484.911a8.79,8.79,0,0,1-2.062-6.233V467.061h-3.62v-4.831h3.62v-7.242H1481v7.242h5.786v4.831H1481v10.812a5,5,0,0,0,.858,3.291,4,4,0,0,0,3.118.981,7.152,7.152,0,0,0,3.067-.7v4.831a14.421,14.421,0,0,1-5.28.852A7.834,7.834,0,0,1,1476.726,484.911Z" transform="translate(77.171 3.711)"/><path id="Контур_9" data-name="Контур 9" d="M1479.777,459.616a3.359,3.359,0,0,1-1.031-2.512,3.521,3.521,0,0,1,3.571-3.573,3.535,3.535,0,0,1,2.564,1.031,3.411,3.411,0,0,1,1.056,2.542,3.318,3.318,0,0,1-1.056,2.512,3.582,3.582,0,0,1-2.564,1.006A3.5,3.5,0,0,1,1479.777,459.616Zm-.679,5.23h6.438v24.141H1479.1Z" transform="translate(90.899 1.096)"/><path id="Контур_10" data-name="Контур 10" d="M1483.48,458.064h6.136v3.269a10.454,10.454,0,0,1,4.073-3.043,12.912,12.912,0,0,1,4.979-.978q4.878,0,7.292,2.64a9.982,9.982,0,0,1,2.416,7.015V482.2h-6.339V467.568q0-5.276-4.928-5.277a8.453,8.453,0,0,0-4.074,1.031,8.707,8.707,0,0,0-3.218,3.09V482.2h-6.336Z" transform="translate(99.197 7.878)"/></g></svg><svg height="138.613" viewBox="0 0 160 139" width="159.164" x="4" y="5860"><g transform="translate(-611.603 -1210.334)"><ellipse cx="63.596" cy="63.3" rx="63.596" ry="63.3" transform="translate(620.935 1222.348)" fill="#e0f2ff"/><path d="M42.426,0A21.213,21.213,0,1,1,21.213,21.213,21.207,21.207,0,0,1,42.426,0M63.639,55.9c0,5.621-1.485,18.72-11.614,33.357l-4.3-25.615,4.985-9.97a91.59,91.59,0,0,0-10.288-.636,91.591,91.591,0,0,0-10.288.636l4.985,9.97-4.3,25.615C22.7,74.617,21.213,61.518,21.213,55.9,8.538,59.608,0,66.29,0,74.245L7.481,95.458h70.7l6.669-21.213C84.852,66.29,76.367,59.608,63.639,55.9Z" transform="rotate(-6.02 12169.385 -5184.465)" fill="#5d9cfa"/><path d="M30.968,0C48,0,61.936,11.087,61.936,24.774S48,49.549,30.968,49.549A39.176,39.176,0,0,1,20.036,48,33.857,33.857,0,0,1,0,55.742c7.216-7.216,8.361-12.078,8.516-13.936C3.252,37.378,0,31.371,0,24.774,0,11.087,13.936,0,30.968,0M46.452,27.871V21.678H40.258v6.194h6.194m-12.387,0V21.678H27.871v6.194h6.194m-12.387,0V21.678H15.484v6.194Z" transform="rotate(24 -2555.76 2299.134)" fill="#fd9500"/><path d="M21.889,37.8A15.912,15.912,0,1,0,5.978,21.889,15.912,15.912,0,0,0,21.889,37.8m0-35.8A19.889,19.889,0,1,1,2,21.889,19.889,19.889,0,0,1,21.889,2m.994,9.945V22.387l8.95,5.31-1.492,2.446L19.9,23.878V11.945Z" transform="translate(670.475 1208.334)" fill="#5d9cfa"/></g></svg><svg height="153.334" viewBox="0 0 154 154" width="153.334" x="4" y="6003"><g transform="translate(-723.952 -270.646)"><path d="M0,77.247,9.363,54.619,0,31.991l22.628-9.363L31.991,0,54.619,9.363,77.247,0,86.61,22.628l22.628,9.363L99.875,54.619l9.363,22.628L86.61,86.61l-9.363,22.628L54.619,99.875l-22.628,9.363L22.628,86.61Z" transform="rotate(38 2.398 1283.6)" fill="#e0f2ff"/><path d="M51.672,48.293H28.025V41.537H51.672v6.756M61.806,34.781H28.025V28.025H61.806v6.756m0-13.512H28.025V14.512H61.806v6.756M7.756,14.512v54.05h54.05v6.756H7.756A6.756,6.756,0,0,1,1,68.562V14.512H7.756M68.562,1a6.756,6.756,0,0,1,6.756,6.756V55.05a6.733,6.733,0,0,1-6.756,6.756H21.269a6.756,6.756,0,0,1-6.756-6.756V7.756A6.733,6.733,0,0,1,21.269,1H68.562M21.269,7.756V55.05H68.562V7.756Z" transform="rotate(-7 2886.268 -5867.925)" fill="#fd9500"/><ellipse cx="26.073" cy="25.984" rx="26.073" ry="25.984" transform="rotate(9 -1688.778 5283.527)" fill="#5d9cfa"/><path d="M11.467,30.382A13.171,13.171,0,0,1,6.361,29.5,9.191,9.191,0,0,1,2.9,27.048,10.461,10.461,0,0,1,.876,23.44a16.8,16.8,0,0,1-.8-4.367Q.032,17.934.011,16.562t0-2.764q.021-1.392.063-2.574a14.748,14.748,0,0,1,.8-4.367A10.377,10.377,0,0,1,2.964,3.291,9.628,9.628,0,0,1,6.446.886,12.924,12.924,0,0,1,11.467,0a13.047,13.047,0,0,1,5.064.886,9.628,9.628,0,0,1,3.481,2.405,10.113,10.113,0,0,1,2.068,3.566,15.2,15.2,0,0,1,.781,4.367q.084,1.182.084,2.574v2.764q0,1.371-.084,2.511a15.693,15.693,0,0,1-.76,4.367,10.461,10.461,0,0,1-2.025,3.608A9.16,9.16,0,0,1,16.594,29.5,13.331,13.331,0,0,1,11.467,30.382Zm0-4.853a4.623,4.623,0,0,0,4.03-1.793,8.416,8.416,0,0,0,1.329-4.874q.084-1.224.084-2.469V13.883q0-1.266-.084-2.405A8.465,8.465,0,0,0,15.5,6.646a4.581,4.581,0,0,0-4.03-1.836A4.536,4.536,0,0,0,7.479,6.646a8.692,8.692,0,0,0-1.371,4.832q0,1.139-.021,2.405t0,2.511q.021,1.245.021,2.469A8.523,8.523,0,0,0,7.5,23.736,4.587,4.587,0,0,0,11.467,25.529Z" transform="rotate(8 -2038.68 6024.248)" fill="#fff"/></g></svg><svg height="153.334" viewBox="0 0 154 154" width="153.334" x="4" y="6161"><path d="M0,77.247,9.363,54.619,0,31.991l22.628-9.363L31.991,0,54.619,9.363,77.247,0,86.61,22.628l22.628,9.363L99.875,54.619l9.363,22.628L86.61,86.61l-9.363,22.628L54.619,99.875l-22.628,9.363L22.628,86.61Z" transform="rotate(38 33.595 97.617)" fill="#e0f2ff"/><path d="M45.8,0H20.772a6.276,6.276,0,0,0-6.257,6.257V56.315a6.276,6.276,0,0,0,6.257,6.257H58.315a6.276,6.276,0,0,0,6.257-6.257V18.772L45.8,0M58.315,56.315H20.772V6.257h21.9V21.9H58.315V56.315M8.257,12.514V68.829H58.315v6.257H8.257A6.276,6.276,0,0,1,2,68.829V12.514Z" transform="translate(54.5 29.903)" fill="#fd9500"/><g transform="rotate(-22 -241.354 2209.175)"><ellipse cx="26.073" cy="25.984" rx="26.073" ry="25.984" transform="rotate(9 -1688.778 5283.527)" fill="#5d9cfa"/><path d="M11.467,30.382A13.171,13.171,0,0,1,6.361,29.5,9.191,9.191,0,0,1,2.9,27.048,10.461,10.461,0,0,1,.876,23.44a16.8,16.8,0,0,1-.8-4.367Q.032,17.934.011,16.562t0-2.764q.021-1.392.063-2.574a14.748,14.748,0,0,1,.8-4.367A10.377,10.377,0,0,1,2.964,3.291,9.628,9.628,0,0,1,6.446.886,12.924,12.924,0,0,1,11.467,0a13.047,13.047,0,0,1,5.064.886,9.628,9.628,0,0,1,3.481,2.405,10.113,10.113,0,0,1,2.068,3.566,15.2,15.2,0,0,1,.781,4.367q.084,1.182.084,2.574v2.764q0,1.371-.084,2.511a15.693,15.693,0,0,1-.76,4.367,10.461,10.461,0,0,1-2.025,3.608A9.16,9.16,0,0,1,16.594,29.5,13.331,13.331,0,0,1,11.467,30.382Zm0-4.853a4.623,4.623,0,0,0,4.03-1.793,8.416,8.416,0,0,0,1.329-4.874q.084-1.224.084-2.469V13.883q0-1.266-.084-2.405A8.465,8.465,0,0,0,15.5,6.646a4.581,4.581,0,0,0-4.03-1.836A4.536,4.536,0,0,0,7.479,6.646a8.692,8.692,0,0,0-1.371,4.832q0,1.139-.021,2.405t0,2.511q.021,1.245.021,2.469A8.523,8.523,0,0,0,7.5,23.736,4.587,4.587,0,0,0,11.467,25.529Z" transform="rotate(8 -2038.673 6024.248)" fill="#fff"/></g></svg><svg height="132.674" viewBox="0 0 152 133" width="151.598" x="4" y="6319"><g transform="translate(.385 -7.083)"><ellipse cx="66.578" cy="66.337" rx="66.578" ry="66.337" transform="translate(8.437 7.083)" fill="#e0f2ff"/><path d="M40.686,0H6.781A6.772,6.772,0,0,0,.034,6.781L0,61.029,23.733,50.857,47.467,61.029V6.781A6.8,6.8,0,0,0,40.686,0Zm0,50.857L23.733,43.466,6.781,50.857V6.781h33.9Z" transform="rotate(-11 264.63 27.499)" fill="#498ef4"/><path d="M41.025,0H6.837a6.828,6.828,0,0,0-6.8,6.837L0,61.537,23.931,51.281,47.862,61.537V6.837A6.858,6.858,0,0,0,41.025,0Z" transform="rotate(9 -219.771 681.728)" fill="#498ef4"/><path d="M13.974,21.966v7.983L2,17.974,13.974,6v7.983H29.94V6L41.914,17.974,29.94,29.948V21.966Z" transform="translate(53.388 47.695)" fill="#fd9500"/></g></svg><svg height="31.596" viewBox="0 0 150 32" width="150" x="4" y="6456"><g transform="translate(-1427.573 -452.92)" fill="#4c72ef"><path id="Контур_3" data-name="Контур 3" d="M1432.568,481.287a7.724,7.724,0,0,1-1.812-5.478V465.6h-3.183v-4.246h3.183v-6.365h5.571v6.365h5.083V465.6h-5.083v9.5a4.4,4.4,0,0,0,.749,2.893,3.522,3.522,0,0,0,2.743.862,6.263,6.263,0,0,0,2.694-.619v4.245a12.634,12.634,0,0,1-4.639.749A6.9,6.9,0,0,1,1432.568,481.287Z" transform="translate(0 1.284)"/><path id="Контур_4" data-name="Контур 4" d="M1437.081,477.842a6.664,6.664,0,0,1-2.433-5.414,6.919,6.919,0,0,1,2.3-5.525,9.557,9.557,0,0,1,6.455-1.991,13.987,13.987,0,0,1,6.937,1.635v-.572a3.772,3.772,0,0,0-1.39-3.271,7.712,7.712,0,0,0-4.486-1.017,19.986,19.986,0,0,0-3.848.373,15.255,15.255,0,0,0-3.357,1.041v-4.376a14.577,14.577,0,0,1,3.555-1.017,24.365,24.365,0,0,1,4.31-.4q5.525,0,8.177,2.362a8.338,8.338,0,0,1,2.652,6.563V479.19h-5.257v-2.08a9.6,9.6,0,0,1-3.118,2.033,11.326,11.326,0,0,1-4.262.707A9.447,9.447,0,0,1,1437.081,477.842Zm10.962-2.787a5.389,5.389,0,0,0,2.3-2.008V470.7a9.385,9.385,0,0,0-5.566-1.726q-4.464,0-4.467,3.45a2.933,2.933,0,0,0,1.127,2.517,5.359,5.359,0,0,0,3.249.84A7.613,7.613,0,0,0,1448.042,475.055Z" transform="translate(10.296 4.665)"/><path id="Контур_5" data-name="Контур 5" d="M1445.394,452.92h5.566v30.935h-5.566Z" transform="translate(23.72)"/><path id="Контур_6" data-name="Контур 6" d="M1452.908,476.889a10.308,10.308,0,0,1-3.447-8.262,11.169,11.169,0,0,1,3.049-8.265q3.05-3.05,8.707-3.05a13.224,13.224,0,0,1,6.343,1.414,9.435,9.435,0,0,1,3.955,3.867,11.563,11.563,0,0,1,1.326,5.589v2.564h-18.078q.571,4.729,8.221,4.729a25,25,0,0,0,4.155-.354,18.68,18.68,0,0,0,3.712-.97v4.285a18.071,18.071,0,0,1-3.867,1.016,28.106,28.106,0,0,1-4.707.4Q1456.356,479.851,1452.908,476.889Zm14.674-9.945a4.955,4.955,0,0,0-1.79-3.889,7.239,7.239,0,0,0-4.663-1.368,6.9,6.9,0,0,0-4.6,1.414,5.015,5.015,0,0,0-1.768,3.843Z" transform="translate(28.232 4.665)"/><path id="Контур_7" data-name="Контур 7" d="M1460.783,457.973h5.392v2.873a9.2,9.2,0,0,1,3.58-2.674,11.349,11.349,0,0,1,4.376-.859q4.288,0,6.408,2.32a8.781,8.781,0,0,1,2.122,6.166V479.19h-5.569V466.326q0-4.637-4.332-4.638a7.426,7.426,0,0,0-3.579.906,7.629,7.629,0,0,0-2.829,2.716V479.19h-5.569Z" transform="translate(42.896 4.665)"/><path id="Контур_8" data-name="Контур 8" d="M1476.038,481.287a7.725,7.725,0,0,1-1.813-5.478V465.6h-3.182v-4.246h3.182v-6.365h5.567v6.365h5.085V465.6h-5.085v9.5a4.4,4.4,0,0,0,.754,2.893,3.517,3.517,0,0,0,2.74.862,6.288,6.288,0,0,0,2.7-.619v4.245a12.673,12.673,0,0,1-4.641.749A6.885,6.885,0,0,1,1476.038,481.287Z" transform="translate(56.491 1.284)"/><path id="Контур_9" data-name="Контур 9" d="M1479.652,458.583a2.713,2.713,0,0,1-.906-2.085,2.787,2.787,0,0,1,.906-2.111,3.127,3.127,0,0,1,2.232-.856,3.2,3.2,0,0,1,2.254.856,2.756,2.756,0,0,1,.928,2.111,2.683,2.683,0,0,1-.928,2.085,3.251,3.251,0,0,1-2.254.835A3.171,3.171,0,0,1,1479.652,458.583Zm-.6,4.342h5.658v20.041h-5.658Z" transform="translate(66.951 .889)"/><path id="Контур_10" data-name="Контур 10" d="M1483.48,457.973h5.393v2.873a9.189,9.189,0,0,1,3.58-2.674,11.348,11.348,0,0,1,4.376-.859q4.287,0,6.409,2.32a8.773,8.773,0,0,1,2.124,6.166V479.19h-5.572V466.326q0-4.637-4.331-4.638a7.428,7.428,0,0,0-3.581.906,7.652,7.652,0,0,0-2.829,2.716V479.19h-5.569Z" transform="translate(72.212 4.665)"/></g></svg><svg height="31.596" viewBox="0 0 150 32" width="150" x="4" y="6492"><g id="Сгруппировать_2521" data-name="Сгруппировать 2521" transform="translate(-1427.573 -452.92)" fill="#fff"><path id="Контур_3" data-name="Контур 3" d="M1432.309,479.924a7.324,7.324,0,0,1-1.718-5.194v-9.681h-3.018v-4.025h3.018v-6.035h5.282v6.035h4.819v4.025h-4.819v9.01a4.174,4.174,0,0,0,.71,2.743,3.339,3.339,0,0,0,2.6.817,5.938,5.938,0,0,0,2.554-.587v4.025a11.98,11.98,0,0,1-4.4.71A6.538,6.538,0,0,1,1432.309,479.924Z" transform="translate(0 2.748)"/><path id="Контур_4" data-name="Контур 4" d="M1436.954,476.778a6.319,6.319,0,0,1-2.307-5.134,6.56,6.56,0,0,1,2.179-5.238,9.062,9.062,0,0,1,6.121-1.888,13.261,13.261,0,0,1,6.577,1.551v-.542a3.577,3.577,0,0,0-1.318-3.1,7.312,7.312,0,0,0-4.253-.964,18.95,18.95,0,0,0-3.648.354,14.464,14.464,0,0,0-3.183.987v-4.149a13.821,13.821,0,0,1,3.371-.964,23.1,23.1,0,0,1,4.086-.377q5.238,0,7.753,2.24a7.906,7.906,0,0,1,2.515,6.223v12.281h-4.985v-1.972a9.1,9.1,0,0,1-2.957,1.928,10.739,10.739,0,0,1-4.042.671A8.957,8.957,0,0,1,1436.954,476.778Zm10.393-2.642a5.109,5.109,0,0,0,2.176-1.9V470.01a8.9,8.9,0,0,0-5.278-1.637q-4.233,0-4.235,3.271a2.781,2.781,0,0,0,1.069,2.386,5.082,5.082,0,0,0,3.08.8A7.219,7.219,0,0,0,1447.348,474.135Z" transform="translate(9.395 5.833)"/><path id="Контур_5" data-name="Контур 5" d="M1445.394,452.92h5.278v30.969h-5.278Z" transform="translate(23.411)"/><path id="Контур_6" data-name="Контур 6" d="M1452.73,475.874a9.774,9.774,0,0,1-3.268-7.834,10.591,10.591,0,0,1,2.891-7.837q2.892-2.892,8.256-2.892a12.539,12.539,0,0,1,6.014,1.341,8.947,8.947,0,0,1,3.75,3.667,10.965,10.965,0,0,1,1.257,5.3v2.431h-17.14q.542,4.484,7.795,4.484a23.71,23.71,0,0,0,3.94-.335,17.711,17.711,0,0,0,3.52-.92v4.063a17.128,17.128,0,0,1-3.667.964,26.642,26.642,0,0,1-4.463.377Q1456,478.682,1452.73,475.874Zm13.913-9.429a4.7,4.7,0,0,0-1.7-3.688,6.864,6.864,0,0,0-4.422-1.3,6.542,6.542,0,0,0-4.358,1.341,4.755,4.755,0,0,0-1.677,3.643Z" transform="translate(28.712 5.833)"/><path id="Контур_7" data-name="Контур 7" d="M1460.783,457.938h5.113v2.724a8.723,8.723,0,0,1,3.395-2.535,10.759,10.759,0,0,1,4.149-.815q4.065,0,6.076,2.2a8.326,8.326,0,0,1,2.012,5.846v12.7h-5.28v-12.2q0-4.4-4.107-4.4a7.041,7.041,0,0,0-3.394.859,7.234,7.234,0,0,0-2.682,2.575v13.161h-5.281Z" transform="translate(43.569 5.833)"/><path id="Контур_8" data-name="Контур 8" d="M1475.779,479.924a7.325,7.325,0,0,1-1.719-5.194v-9.681h-3.017v-4.025h3.017v-6.035h5.278v6.035h4.822v4.025h-4.822v9.01a4.172,4.172,0,0,0,.715,2.743,3.334,3.334,0,0,0,2.6.817,5.962,5.962,0,0,0,2.556-.587v4.025a12.018,12.018,0,0,1-4.4.71A6.528,6.528,0,0,1,1475.779,479.924Z" transform="translate(57.064 2.748)"/><path id="Контур_9" data-name="Контур 9" d="M1479.605,458.6a2.8,2.8,0,0,1-.859-2.093,2.935,2.935,0,0,1,2.976-2.978,2.946,2.946,0,0,1,2.137.859,2.842,2.842,0,0,1,.88,2.119,2.765,2.765,0,0,1-.88,2.093,2.985,2.985,0,0,1-2.137.838A2.913,2.913,0,0,1,1479.605,458.6Zm-.566,4.358h5.365v20.118h-5.365Z" transform="translate(67.22 .811)"/><path id="Контур_10" data-name="Контур 10" d="M1483.48,457.938h5.113v2.724a8.713,8.713,0,0,1,3.394-2.535,10.758,10.758,0,0,1,4.149-.815q4.065,0,6.077,2.2a8.318,8.318,0,0,1,2.014,5.846v12.7h-5.283v-12.2q0-4.4-4.106-4.4a7.043,7.043,0,0,0-3.395.859,7.254,7.254,0,0,0-2.682,2.575v13.161h-5.28Z" transform="translate(73.346 5.833)"/></g></svg><svg height="120.932" viewBox="0 0 118 121" width="117.633" x="4" y="6528"><g transform="translate(-746 -281)"><path d="M0,77.247,9.363,54.619,0,31.991l22.628-9.363L31.991,0,54.619,9.363,77.247,0,86.61,22.628l22.628,9.363L99.875,54.619l9.363,22.628L86.61,86.61l-9.363,22.628L54.619,99.875l-22.628,9.363L22.628,86.61Z" transform="translate(746 292.694)" fill="#e0f2ff"/><path d="M11.414,3A8.384,8.384,0,0,0,3,11.414V70.308a8.384,8.384,0,0,0,8.414,8.414H70.308a8.384,8.384,0,0,0,8.414-8.414V11.414A8.384,8.384,0,0,0,70.308,3H11.414m0,8.414H70.308V70.308H11.414V11.414m8.414,8.414v8.414H61.895V19.827H19.827m0,16.827v8.414H61.895V36.654H19.827m0,16.827v8.414H49.274V53.481Z" transform="matrix(.998 -.07 .07 .998 748.031 301.228)" fill="#fd9500"/><ellipse cx="26.073" cy="25.984" rx="26.073" ry="25.984" transform="rotate(9 -1379.157 5300.045)" fill="#5d9cfa"/><path d="M11.467,30.382A13.171,13.171,0,0,1,6.361,29.5,9.191,9.191,0,0,1,2.9,27.048,10.461,10.461,0,0,1,.876,23.44a16.8,16.8,0,0,1-.8-4.367Q.032,17.934.011,16.562t0-2.764q.021-1.392.063-2.574a14.748,14.748,0,0,1,.8-4.367A10.377,10.377,0,0,1,2.964,3.291,9.628,9.628,0,0,1,6.446.886,12.924,12.924,0,0,1,11.467,0a13.047,13.047,0,0,1,5.064.886,9.628,9.628,0,0,1,3.481,2.405,10.113,10.113,0,0,1,2.068,3.566,15.2,15.2,0,0,1,.781,4.367q.084,1.182.084,2.574v2.764q0,1.371-.084,2.511a15.693,15.693,0,0,1-.76,4.367,10.461,10.461,0,0,1-2.025,3.608A9.16,9.16,0,0,1,16.594,29.5,13.331,13.331,0,0,1,11.467,30.382Zm0-4.853a4.623,4.623,0,0,0,4.03-1.793,8.416,8.416,0,0,0,1.329-4.874q.084-1.224.084-2.469V13.883q0-1.266-.084-2.405A8.465,8.465,0,0,0,15.5,6.646a4.581,4.581,0,0,0-4.03-1.836A4.536,4.536,0,0,0,7.479,6.646a8.692,8.692,0,0,0-1.371,4.832q0,1.139-.021,2.405t0,2.511q.021,1.245.021,2.469A8.523,8.523,0,0,0,7.5,23.736,4.587,4.587,0,0,0,11.467,25.529Z" transform="rotate(8 -1691.108 6038.708)" fill="#fff"/></g></svg><svg height="114.805" viewBox="0 0 115 115" width="114.805" x="4" y="6653"><path d="M0,77.247,9.363,54.619,0,31.991l22.628-9.363L31.991,0,54.619,9.363,77.247,0,86.61,22.628l22.628,9.363L99.875,54.619l9.363,22.628L86.61,86.61l-9.363,22.628L54.619,99.875l-22.628,9.363L22.628,86.61Z" transform="rotate(93 54.69 57.332)" fill="#e0f2ff"/><path d="M11.342,3A8.34,8.34,0,0,0,3,11.342v58.4a8.342,8.342,0,0,0,8.342,8.342h58.4a8.342,8.342,0,0,0,8.342-8.342v-9.51a8.345,8.345,0,0,0,4.171-7.174V28.027a8.345,8.345,0,0,0-4.171-7.174v-9.51A8.342,8.342,0,0,0,69.738,3h-58.4m0,8.342h58.4v8.342H44.711a8.342,8.342,0,0,0-8.342,8.342V53.053A8.342,8.342,0,0,0,44.711,61.4H69.738v8.342h-58.4v-58.4M44.711,28.027h29.2V53.053h-29.2V28.027m12.513,6.257a6.257,6.257,0,1,0,6.257,6.257A6.257,6.257,0,0,0,57.224,34.283Z" transform="matrix(-.998 -.07 .07 -.998 85.569 103.262)" fill="#fd9500"/><g transform="rotate(2 9733.05 -21066.618)"><ellipse cx="26.073" cy="25.984" rx="26.073" ry="25.984" transform="rotate(9 -1688.778 5283.527)" fill="#5d9cfa"/><path d="M11.467,30.382A13.171,13.171,0,0,1,6.361,29.5,9.191,9.191,0,0,1,2.9,27.048,10.461,10.461,0,0,1,.876,23.44a16.8,16.8,0,0,1-.8-4.367Q.032,17.934.011,16.562t0-2.764q.021-1.392.063-2.574a14.748,14.748,0,0,1,.8-4.367A10.377,10.377,0,0,1,2.964,3.291,9.628,9.628,0,0,1,6.446.886,12.924,12.924,0,0,1,11.467,0a13.047,13.047,0,0,1,5.064.886,9.628,9.628,0,0,1,3.481,2.405,10.113,10.113,0,0,1,2.068,3.566,15.2,15.2,0,0,1,.781,4.367q.084,1.182.084,2.574v2.764q0,1.371-.084,2.511a15.693,15.693,0,0,1-.76,4.367,10.461,10.461,0,0,1-2.025,3.608A9.16,9.16,0,0,1,16.594,29.5,13.331,13.331,0,0,1,11.467,30.382Zm0-4.853a4.623,4.623,0,0,0,4.03-1.793,8.416,8.416,0,0,0,1.329-4.874q.084-1.224.084-2.469V13.883q0-1.266-.084-2.405A8.465,8.465,0,0,0,15.5,6.646a4.581,4.581,0,0,0-4.03-1.836A4.536,4.536,0,0,0,7.479,6.646a8.692,8.692,0,0,0-1.371,4.832q0,1.139-.021,2.405t0,2.511q.021,1.245.021,2.469A8.523,8.523,0,0,0,7.5,23.736,4.587,4.587,0,0,0,11.467,25.529Z" transform="rotate(8 -2038.673 6024.248)" fill="#fff"/></g></svg><svg height="23.17" viewBox="0 0 110 24" width="110" x="4" y="6772"><g id="Сгруппировать_2553" data-name="Сгруппировать 2553" transform="translate(-1427.573 -452.92)" fill="#fff"><path id="Контур_3" data-name="Контур 3" d="M1431.046,473.275a5.371,5.371,0,0,1-1.26-3.809v-7.1h-2.213v-2.952h2.213v-4.425h3.874v4.425h3.534v2.952h-3.534v6.607a3.061,3.061,0,0,0,.521,2.011,2.449,2.449,0,0,0,1.907.6,4.355,4.355,0,0,0,1.873-.43v2.952a8.786,8.786,0,0,1-3.225.521A4.8,4.8,0,0,1,1431.046,473.275Z" transform="translate(0 1.463)"/><path id="Контур_4" data-name="Контур 4" d="M1436.339,471.587a4.634,4.634,0,0,1-1.692-3.765,4.811,4.811,0,0,1,1.6-3.842,6.645,6.645,0,0,1,4.489-1.385,9.724,9.724,0,0,1,4.823,1.137v-.4a2.623,2.623,0,0,0-.966-2.274,5.362,5.362,0,0,0-3.119-.707,13.894,13.894,0,0,0-2.675.26,10.608,10.608,0,0,0-2.334.724V458.3a10.134,10.134,0,0,1,2.472-.707,16.94,16.94,0,0,1,3-.277q3.841,0,5.685,1.642a5.8,5.8,0,0,1,1.844,4.564v9.006H1445.8v-1.446a6.676,6.676,0,0,1-2.168,1.414,7.876,7.876,0,0,1-2.964.492A6.568,6.568,0,0,1,1436.339,471.587Zm7.622-1.938a3.745,3.745,0,0,0,1.6-1.4v-1.629a6.525,6.525,0,0,0-3.87-1.2q-3.1,0-3.106,2.4a2.04,2.04,0,0,0,.784,1.75,3.727,3.727,0,0,0,2.259.584A5.293,5.293,0,0,0,1443.961,469.649Z" transform="translate(5.003 3.107)"/><path id="Контур_5" data-name="Контур 5" d="M1445.394,452.92h3.87v22.711h-3.87Z" transform="translate(12.416)"/><path id="Контур_6" data-name="Контур 6" d="M1451.858,470.924a7.168,7.168,0,0,1-2.4-5.745,7.767,7.767,0,0,1,2.12-5.747,8.192,8.192,0,0,1,6.054-2.12,9.2,9.2,0,0,1,4.41.983,6.561,6.561,0,0,1,2.75,2.689,8.04,8.04,0,0,1,.922,3.886v1.782h-12.57q.4,3.288,5.716,3.288a17.387,17.387,0,0,0,2.889-.246,12.989,12.989,0,0,0,2.581-.674V472a12.557,12.557,0,0,1-2.689.707,19.543,19.543,0,0,1-3.273.277A9.659,9.659,0,0,1,1451.858,470.924Zm10.2-6.915a3.445,3.445,0,0,0-1.244-2.7,5.034,5.034,0,0,0-3.242-.951,4.8,4.8,0,0,0-3.2.983,3.487,3.487,0,0,0-1.229,2.672Z" transform="translate(15.218 3.107)"/><path id="Контур_7" data-name="Контур 7" d="M1460.783,457.771h3.749v2a6.394,6.394,0,0,1,2.489-1.859,7.891,7.891,0,0,1,3.043-.6,5.737,5.737,0,0,1,4.456,1.613,6.106,6.106,0,0,1,1.475,4.287v9.312h-3.872V463.58q0-3.224-3.012-3.225a5.164,5.164,0,0,0-2.489.63,5.306,5.306,0,0,0-1.967,1.888v9.652h-3.872Z" transform="translate(23.095 3.107)"/><path id="Контур_8" data-name="Контур 8" d="M1474.516,473.275a5.372,5.372,0,0,1-1.26-3.809v-7.1h-2.212v-2.952h2.212v-4.425h3.871v4.425h3.536v2.952h-3.536v6.607a3.058,3.058,0,0,0,.524,2.011,2.445,2.445,0,0,0,1.905.6,4.372,4.372,0,0,0,1.875-.43v2.952a8.813,8.813,0,0,1-3.227.521A4.787,4.787,0,0,1,1474.516,473.275Z" transform="translate(30.255 1.463)"/><path id="Контур_9" data-name="Контур 9" d="M1479.376,457.25a2.052,2.052,0,0,1-.63-1.535,2.152,2.152,0,0,1,2.182-2.184,2.16,2.16,0,0,1,1.567.63,2.085,2.085,0,0,1,.645,1.554,2.028,2.028,0,0,1-.645,1.535,2.189,2.189,0,0,1-1.567.615A2.137,2.137,0,0,1,1479.376,457.25Zm-.415,3.2h3.934V475.2h-3.934Z" transform="translate(35.649 .432)"/><path id="Контур_10" data-name="Контур 10" d="M1483.48,457.771h3.75v2a6.389,6.389,0,0,1,2.489-1.859,7.89,7.89,0,0,1,3.043-.6,5.739,5.739,0,0,1,4.456,1.613,6.1,6.1,0,0,1,1.477,4.287v9.312h-3.874V463.58q0-3.224-3.011-3.225a5.165,5.165,0,0,0-2.49.63,5.32,5.32,0,0,0-1.967,1.888v9.652h-3.872Z" transform="translate(38.879 3.107)"/></g></svg><svg height="26" viewBox="0 0 26 26" width="26" x="4" y="6800"><rect width="26" height="26" rx="6" fill="#7b519d"/><g fill="#fff" fill-rule="evenodd"><path d="M74.761,67.865c-.5-.4-1.034-.764-1.56-1.133-1.049-.737-2.008-.794-2.791.391a1.221,1.221,0,0,1-1.7.4,7.526,7.526,0,0,1-3.946-3.846,1.481,1.481,0,0,1,.48-2.077,1.473,1.473,0,0,0,.847-1.3,8.809,8.809,0,0,0-2.925-3.99,1.483,1.483,0,0,0-1.016,0,2.867,2.867,0,0,0-1.944,4.075A21.149,21.149,0,0,0,71.927,72.16a5.407,5.407,0,0,0,.835.236,3.808,3.808,0,0,0,3.13-2.382C76.3,68.867,75.44,68.412,74.761,67.865ZM68.619,56.879c4.005.616,5.852,2.52,6.362,6.554.047.373-.091.933.44.944.556.011.422-.542.426-.915a7.614,7.614,0,0,0-7.113-7.451c-.29.042-.891-.2-.928.45C67.781,56.9,68.287,56.828,68.619,56.879Z" transform="translate(-54.826 -51.064)"/><path d="M267.912,102.849c-.385-.046-.894-.228-.984.307-.094.561.473.5.837.586,2.474.553,3.335,1.453,3.742,3.907.059.358-.059.914.549.822.451-.069.288-.546.325-.825A5.045,5.045,0,0,0,267.912,102.849Z" transform="translate(-253.336 -95.929)"/><path d="M281.73,151.406c-.257.006-.51.034-.6.309-.142.411.157.509.461.557a1.8,1.8,0,0,1,1.65,1.773c.027.275.2.5.467.466.368-.044.4-.371.39-.682a2.673,2.673,0,0,0-2.363-2.424Z" transform="translate(-266.927 -142.559)"/></g></svg><svg height="20.8" viewBox="0 0 26 21" width="26" x="4" y="6830"><path d="M25.4,9.2,15,15.7,4.6,9.2V6.6L15,13.1,25.4,6.6m0-2.6H4.6A2.591,2.591,0,0,0,2,6.6V22.2a2.6,2.6,0,0,0,2.6,2.6H25.4A2.6,2.6,0,0,0,28,22.2V6.6A2.6,2.6,0,0,0,25.4,4Z" transform="translate(-2 -4)" fill="#498ef4"/></svg><svg height="25.941" viewBox="0 0 26 26" width="25.941" x="4" y="6855"><path d="M12.97,25.941A12.97,12.97,0,1,0,0,12.97,12.97,12.97,0,0,0,12.97,25.941Z" fill="#34aadf"/><path d="M87.618,151.338s6.485-2.662,8.734-3.6c.862-.375,3.786-1.574,3.786-1.574s1.35-.525,1.237.75c-.038.525-.337,2.362-.637,4.348-.45,2.812-.937,5.885-.937,5.885s-.075.862-.712,1.012a3.083,3.083,0,0,1-1.874-.675c-.15-.112-2.812-1.8-3.786-2.624a.71.71,0,0,1,.037-1.2c1.35-1.237,2.961-2.774,3.936-3.749.45-.45.9-1.5-.975-.225-2.662,1.837-5.286,3.561-5.286,3.561a2.2,2.2,0,0,1-1.724.037c-1.125-.337-2.437-.787-2.437-.787S86.082,151.938,87.618,151.338Z" transform="translate(-82.22 -138.48)" fill="#fff"/></svg><svg height="24" viewBox="0 0 25 24" width="24.768" x="4" y="6885"><g fill="none"><path d="M14.04,5.5a2.086,2.086,0,0,1,3.941,0l1.6,4.6A2.086,2.086,0,0,0,21.5,11.5l4.864.127a2.086,2.086,0,0,1,1.229,3.73l-3.921,3.058a2.086,2.086,0,0,0-.72,2.229l1.393,4.775a2.086,2.086,0,0,1-3.2,2.293l-3.934-2.755a2.086,2.086,0,0,0-2.393,0L10.88,27.71a2.086,2.086,0,0,1-3.2-2.293l1.393-4.775a2.086,2.086,0,0,0-.72-2.229L4.434,15.355a2.086,2.086,0,0,1,1.229-3.73l4.864-.127a2.086,2.086,0,0,0,1.916-1.4Z" transform="translate(-3.627 -4.096)"/><path d="M 16.01066780090332 7.443426132202148 L 14.80413627624512 10.91713523864746 C 14.18145561218262 12.70990371704102 12.48842620849609 13.94757461547852 10.59126663208008 13.99691390991211 L 6.881782531738281 14.09341621398926 L 9.892206192016602 16.44091415405273 C 11.38295555114746 17.60338401794434 12.00407600402832 19.52712440490723 11.47459602355957 21.34186553955078 L 10.41120338439941 24.98650741577148 L 13.38006591796875 22.90751457214355 C 14.15498542785645 22.36485481262207 15.06462669372559 22.07802581787109 16.01066589355469 22.07802581787109 C 16.95670700073242 22.07802581787109 17.86634635925293 22.36485481262207 18.6412467956543 22.90750503540039 L 21.61012268066406 24.98650169372559 L 20.5467357635498 21.34186553955078 C 20.01725578308105 19.52710342407227 20.63838577270508 17.60336494445801 22.12912559509277 16.44091415405273 L 25.13955307006836 14.09341621398926 L 21.43004608154297 13.99691390991211 C 19.53288650512695 13.94754409790039 17.83986663818359 12.70987510681152 17.21718597412109 10.91713523864746 L 16.01066780090332 7.443426132202148 M 16.01066207885742 4.095651626586914 C 16.83366012573242 4.095651626586914 17.65666198730469 4.562849044799805 17.98120498657227 5.497243881225586 L 19.57879638671875 10.09687423706055 C 19.86371612548828 10.91718482971191 20.62700653076172 11.47517395019531 21.49508666992188 11.49776458740234 L 26.35919570922852 11.62430381774902 C 28.31625556945801 11.67522430419922 29.13151550292969 14.15075492858887 27.58769607543945 15.35462379455566 L 23.66644668579102 18.41237449645996 C 22.99253463745117 18.93787384033203 22.70731544494629 19.82126426696777 22.94667625427246 20.64164352416992 L 24.33994674682617 25.41692352294922 C 24.89186668395996 27.30859375 22.7549934387207 28.84023284912109 21.14086532592773 27.70991516113281 L 17.20722579956055 24.95532417297363 C 16.48883438110352 24.4522533416748 15.53250312805176 24.45225524902344 14.81410598754883 24.95532417297363 L 10.88046646118164 27.70991516113281 C 9.266334533691406 28.84023284912109 7.12945556640625 27.30859565734863 7.681385040283203 25.41692352294922 L 9.074655532836914 20.64164352416992 C 9.314016342163086 19.82126426696777 9.028785705566406 18.93787384033203 8.354885101318359 18.41237449645996 L 4.433635711669922 15.35462379455566 C 2.889806747436523 14.15075492858887 3.705076217651367 11.67522430419922 5.662145614624023 11.62430381774902 L 10.5262451171875 11.49776458740234 C 11.39432525634766 11.47518539428711 12.15761566162109 10.91718482971191 12.44253540039062 10.09687423706055 L 14.04012680053711 5.497243881225586 C 14.36466598510742 4.562849044799805 15.18766403198242 4.095651626586914 16.01066207885742 4.095651626586914 Z" fill="#4b689f" transform="translate(-3.627 -4.096)"/></g></svg><svg height="24" viewBox="0 0 25 24" width="24.768" x="4" y="6913"><g fill="#ffee6c"><path d="M 22.33121681213379 26.84565353393555 C 22.16842651367188 26.84566497802734 22.00917625427246 26.79195404052734 21.85787582397461 26.68600463867188 L 17.92423629760742 23.9314136505127 C 17.36054611206055 23.53667449951172 16.6988353729248 23.32802391052246 16.01066589355469 23.32802391052246 C 15.32250595092773 23.32802391052246 14.66079616546631 23.53667449951172 14.09709548950195 23.9314136505127 L 10.16345596313477 26.68600463867188 C 10.01216602325439 26.79194450378418 9.852895736694336 26.84565353393555 9.690046310424805 26.84565353393555 C 9.429585456848145 26.84565353393555 9.165446281433105 26.70919418334961 9.000705718994141 26.48951530456543 C 8.842995643615723 26.27921485900879 8.802835464477539 26.03613471984863 8.881356239318848 25.76703453063965 L 10.27462577819824 20.99175453186035 C 10.65978622436523 19.67165374755859 10.20796585083008 18.27226448059082 9.12354564666748 17.42664527893066 L 5.202305793762207 14.36889457702637 C 4.783475875854492 14.0422945022583 4.86698579788208 13.6161642074585 4.922336101531982 13.44810485839844 C 4.977675914764404 13.28006458282471 5.163715839385986 12.88770484924316 5.694655895233154 12.87389469146729 L 10.55875587463379 12.74734401702881 C 11.93881607055664 12.71144485473633 13.17037582397461 11.81112480163574 13.62333583831787 10.507004737854 L 15.22092628479004 5.907374382019043 C 15.39701557159424 5.400394439697266 15.83187580108643 5.345664501190186 16.01066589355469 5.345664501190186 C 16.18945503234863 5.345664501190186 16.62431526184082 5.400394439697266 16.80040550231934 5.907374382019043 L 18.39799499511719 10.507004737854 C 18.8509464263916 11.8111047744751 20.08250617980957 12.71142482757568 21.46256637573242 12.74734401702881 L 26.32668495178223 12.87389469146729 C 26.85761642456055 12.88770484924316 27.04366683959961 13.28006458282471 27.09900665283203 13.4481143951416 C 27.15435600280762 13.6161642074585 27.23786544799805 14.0422945022583 26.81903648376465 14.36889457702637 L 22.89778518676758 17.42664527893066 C 21.8133659362793 18.27224540710449 21.36154556274414 19.67164421081543 21.74670600891113 20.99175453186035 L 23.13997650146484 25.76703453063965 C 23.21846580505371 26.03606414794922 23.17830657958984 26.27910423278809 23.02059555053711 26.48941421508789 C 22.85582542419434 26.70914459228516 22.59166526794434 26.84564399719238 22.33121681213379 26.84565353393555 Z" transform="translate(-3.627 -4.096)"/><path d="M 16.01066780090332 7.443426132202148 L 14.80413627624512 10.91713523864746 C 14.18145561218262 12.70990371704102 12.48842620849609 13.94757461547852 10.59126663208008 13.99691390991211 L 6.881782531738281 14.09341621398926 L 9.892206192016602 16.44091415405273 C 11.38295555114746 17.60338401794434 12.00407600402832 19.52712440490723 11.47459602355957 21.34186553955078 L 10.41120338439941 24.98650741577148 L 13.38006591796875 22.90751457214355 C 14.15498542785645 22.36485481262207 15.06462669372559 22.07802581787109 16.01066589355469 22.07802581787109 C 16.95670700073242 22.07802581787109 17.86634635925293 22.36485481262207 18.6412467956543 22.90750503540039 L 21.61012268066406 24.98650169372559 L 20.5467357635498 21.34186553955078 C 20.01725578308105 19.52710342407227 20.63838577270508 17.60336494445801 22.12912559509277 16.44091415405273 L 25.13955307006836 14.09341621398926 L 21.43004608154297 13.99691390991211 C 19.53288650512695 13.94754409790039 17.83986663818359 12.70987510681152 17.21718597412109 10.91713523864746 L 16.01066780090332 7.443426132202148 M 16.01066207885742 4.095651626586914 C 16.83366012573242 4.095651626586914 17.65666198730469 4.562849044799805 17.98120498657227 5.497243881225586 L 19.57879638671875 10.09687423706055 C 19.86371612548828 10.91718482971191 20.62700653076172 11.47517395019531 21.49508666992188 11.49776458740234 L 26.35919570922852 11.62430381774902 C 28.31625556945801 11.67522430419922 29.13151550292969 14.15075492858887 27.58769607543945 15.35462379455566 L 23.66644668579102 18.41237449645996 C 22.99253463745117 18.93787384033203 22.70731544494629 19.82126426696777 22.94667625427246 20.64164352416992 L 24.33994674682617 25.41692352294922 C 24.89186668395996 27.30859375 22.7549934387207 28.84023284912109 21.14086532592773 27.70991516113281 L 17.20722579956055 24.95532417297363 C 16.48883438110352 24.4522533416748 15.53250312805176 24.45225524902344 14.81410598754883 24.95532417297363 L 10.88046646118164 27.70991516113281 C 9.266334533691406 28.84023284912109 7.12945556640625 27.30859565734863 7.681385040283203 25.41692352294922 L 9.074655532836914 20.64164352416992 C 9.314016342163086 19.82126426696777 9.028785705566406 18.93787384033203 8.354885101318359 18.41237449645996 L 4.433635711669922 15.35462379455566 C 2.889806747436523 14.15075492858887 3.705076217651367 11.67522430419922 5.662145614624023 11.62430381774902 L 10.5262451171875 11.49776458740234 C 11.39432525634766 11.47518539428711 12.15761566162109 10.91718482971191 12.44253540039062 10.09687423706055 L 14.04012680053711 5.497243881225586 C 14.36466598510742 4.562849044799805 15.18766403198242 4.095651626586914 16.01066207885742 4.095651626586914 Z" fill="#ffb100" transform="translate(-3.627 -4.096)"/></g></svg><svg height="24" viewBox="0 0 24 24" width="24" x="4" y="6941"><path d="M 10 17 L 5 12 l 1.41 -1.42 L 10 14.17 l 7.59 -7.59 L 19 8 L 10 17 M 10 17" fill="#fff"/></svg><svg height="24" viewBox="0 0 24 24" width="24" x="4" y="6969" fill="none"><path d="M23 12C23 5.92486 18.0751 1 12 1C5.92486 1 1 5.92486 1 12C1 17.4904 5.02256 22.0412 10.2812 22.8664V15.1797H7.48828V12H10.2812V9.57656C10.2812 6.81969 11.9235 5.29688 14.4361 5.29688C15.6396 5.29688 16.8984 5.51172 16.8984 5.51172V8.21875H15.5114C14.1449 8.21875 13.7188 9.06665 13.7188 9.93655V12H16.7695L16.2818 15.1797H13.7188V22.8664C18.9775 22.0412 23 17.4904 23 12Z" fill="#1877F2"/><path d="M16.2818 15.1797L16.7695 12H13.7188V9.93655C13.7188 9.06665 14.1449 8.21875 15.5114 8.21875H16.8984V5.51172C16.8984 5.51172 15.6396 5.29688 14.4361 5.29688C11.9235 5.29688 10.2812 6.81969 10.2812 9.57656V12H7.48828V15.1797H10.2812V22.8664C10.8413 22.9542 11.4153 23 12 23C12.5847 23 13.1587 22.9542 13.7188 22.8664V15.1797H16.2818Z" fill="#fff"/></svg><svg height="24" viewBox="0 0 24 24" width="24" x="4" y="6997" fill="none"><g clip-path="url(#clip0_60_24)" fill-rule="evenodd" clip-rule="evenodd"><path d="M5.74113 12C5.74113 11.2855 5.85973 10.6004 6.07165 9.95791L2.3643 7.12695C1.64174 8.59391 1.23474 10.247 1.23474 12C1.23474 13.7515 1.6414 15.4034 2.36276 16.8695L6.06804 14.0331C5.85818 13.3935 5.74113 12.711 5.74113 12Z" fill="#FBBC05"/><path d="M12.2505 5.50003C13.8027 5.50003 15.2046 6.05003 16.3062 6.94997L19.5106 3.75C17.558 2.04998 15.0544 1 12.2505 1C7.89721 1 4.15583 3.48944 2.36438 7.127L6.07155 9.95795C6.92577 7.36505 9.36072 5.50003 12.2505 5.50003Z" fill="#EA4335"/><path d="M12.2505 18.4999C9.3609 18.4999 6.92594 16.6349 6.07172 14.042L2.36438 16.8724C4.15583 20.5105 7.89721 22.9999 12.2505 22.9999C14.9372 22.9999 17.5024 22.0459 19.4276 20.2584L15.9086 17.5379C14.9157 18.1634 13.6653 18.4999 12.2505 18.4999Z" fill="#34A853"/><path d="M22.7652 12.0001C22.7652 11.35 22.665 10.65 22.5147 10.0001H12.2504V14.2501H18.1587C17.8633 15.6992 17.0593 16.8131 15.9086 17.538L19.4275 20.2585C21.4498 18.3816 22.7652 15.5855 22.7652 12.0001Z" fill="#4285F4"/></g><defs><clipPath id="clip0_60_24"><path fill="#fff" transform="translate(1 1)" d="M0 0H22V22H0z"/></clipPath></defs></svg><svg height="20" viewBox="0 0 20 20" width="20" x="4" y="7025"><g fill="#fff" stroke="#bcbcbc"><circle cx="10" cy="10" r="10" stroke="none"/><circle cx="10" cy="10" r="9.5" fill="none"/></g></svg><svg height="20" viewBox="0 0 20 20" width="20" x="4" y="7049"><path d="M12,20a8,8,0,1,1,8-8,8,8,0,0,1-8,8M12,2A10,10,0,1,0,22,12,10,10,0,0,0,12,2m0,5a5,5,0,1,0,5,5,5,5,0,0,0-5-5Z" transform="translate(-2 -2)" fill="#4c72ef"/></svg><svg height="18.261" viewBox="0 0 18 19" width="18" x="4" y="7073"><g id="skype-3"><path d="M22.827,30.157c-3.678,0-7.857-4.428-7.523-8.1.334-3.509,5.015-6.767,8.484-6.266,3.051.417,5.768,4.261,5.6,7.31C29.222,26.313,26.045,30.157,22.827,30.157Z" transform="translate(-13.575 -13.764)" fill="#fff"/><path d="M22.41,28.452c-.247-.082-.617-.164-.823-.247-.247-.123-.535-.123-1.439-.082a9.265,9.265,0,0,1-1.932-.082,8.687,8.687,0,0,1-6.867-6.249,7.823,7.823,0,0,1-.205-2.426,5.892,5.892,0,0,0-.247-2.385,4.964,4.964,0,0,1,4.687-6.661,5.226,5.226,0,0,1,2.056.452c.329.165.535.205,1.809.205a7.1,7.1,0,0,1,2.179.206,8.684,8.684,0,0,1,5.8,4.687,8.309,8.309,0,0,1,.781,4.6A2.445,2.445,0,0,0,28.33,22a5.039,5.039,0,0,1-1.562,5.469,6.647,6.647,0,0,1-2.1,1.028,5.766,5.766,0,0,1-2.221-.041h-.04ZM21.3,25.286a4.282,4.282,0,0,0,3-2.1,3.163,3.163,0,0,0-.37-3.454c-.658-.74-1.645-1.151-3.988-1.727-1.563-.37-1.933-.535-2.262-.9a.66.66,0,0,1-.082-.946,2.033,2.033,0,0,1,1.686-.7,2.216,2.216,0,0,1,2.426,1.316c.535.823,1.069,1.028,1.769.7.9-.452.822-1.932-.165-2.8a5.248,5.248,0,0,0-3.7-1.11,5.189,5.189,0,0,0-3.865,1.192,2.3,2.3,0,0,0-.781,2.056,2.079,2.079,0,0,0,.822,2.015c.74.7,1.357.946,3.577,1.48,1.563.37,1.974.576,2.344.987a1,1,0,0,1,.247.74.874.874,0,0,1-.37.823,2.792,2.792,0,0,1-2.179.658,2.248,2.248,0,0,1-2.179-1.563c-.411-.781-.74-1.069-1.275-1.069-1.193,0-1.6.987-.987,2.261a4.081,4.081,0,0,0,2.96,2.138,11.855,11.855,0,0,0,3.413,0H21.3Z" transform="translate(-10.589 -10.32)" fill="#00aff0"/></g></svg><svg height="18" viewBox="0 0 24 24" width="18" x="4" y="7096"><path fill="#4B689F" d="M19,6.41L17.59,5L12,10.59L6.41,5L5,6.41L10.59,12L5,17.59L6.41,19L12,13.41L17.59,19L19,17.59L13.41,12L19,6.41Z"/></svg><svg height="18" viewBox="0 0 24 24" width="18" x="4" y="7118"><path fill="#65779B" d="M12,6.5A2.5,2.5 0 0,1 14.5,9A2.5,2.5 0 0,1 12,11.5A2.5,2.5 0 0,1 9.5,9A2.5,2.5 0 0,1 12,6.5M12,2A7,7 0 0,1 19,9C19,14.25 12,22 12,22C12,22 5,14.25 5,9A7,7 0 0,1 12,2M12,4A5,5 0 0,0 7,9C7,10 7,12 12,18.71C17,12 17,10 17,9A5,5 0 0,0 12,4Z"/></svg><svg height="18" viewBox="0 0 18 18" width="18" x="4" y="7140"><path d="M8.12,12.29a15.149,15.149,0,0,0,6.59,6.59l2.2-2.2a.994.994,0,0,1,1.02-.24,11.407,11.407,0,0,0,3.57.57,1,1,0,0,1,1,1V21.5a1,1,0,0,1-1,1,17,17,0,0,1-17-17,1,1,0,0,1,1-1H9a1,1,0,0,1,1,1,11.36,11.36,0,0,0,.57,3.57,1,1,0,0,1-.25,1.02l-2.2,2.2Z" transform="translate(-4.5 -4.5)" fill="#4b689f"/></svg><svg height="14.4" viewBox="0 0 18 15" width="18" x="4" y="7162"><path d="M19.2,6H4.8A1.8,1.8,0,0,0,3.009,7.8L3,18.6a1.805,1.805,0,0,0,1.8,1.8H19.2A1.805,1.805,0,0,0,21,18.6V7.8A1.805,1.805,0,0,0,19.2,6Zm0,3.6L12,14.1,4.8,9.6V7.8L12,12.3l7.2-4.5Z" transform="translate(-3 -6)" fill="#4c72ef"/></svg><svg height="13.41" viewBox="0 0 18 14" width="17.5" x="4" y="7181"><path d="M21,7,9,19,3.5,13.5l1.41-1.41L9,16.17,19.59,5.59Z" transform="translate(-3.5 -5.59)" fill="#5d9cfa"/></svg><svg height="16" viewBox="0 0 24 24" width="16" x="4" y="7199"><path fill="#2CBA19" d="M23,12L20.56,9.22L20.9,5.54L17.29,4.72L15.4,1.54L12,3L8.6,1.54L6.71,4.72L3.1,5.53L3.44,9.21L1,12L3.44,14.78L3.1,18.47L6.71,19.29L8.6,22.47L12,21L15.4,22.46L17.29,19.28L20.9,18.46L20.56,14.78L23,12M10,17L6,13L7.41,11.59L10,14.17L16.59,7.58L18,9L10,17Z"/></svg><svg height="16" viewBox="0 0 24 24" width="16" x="4" y="7219"><path fill="#65779B" d="M10,2V4.26L12,5.59V4H22V19H17V21H24V2H10M7.5,5L0,10V21H15V10L7.5,5M14,6V6.93L15.61,8H16V6H14M18,6V8H20V6H18M7.5,7.5L13,11V19H10V13H5V19H2V11L7.5,7.5M18,10V12H20V10H18M18,14V16H20V14H18Z"/></svg><svg height="16" viewBox="0 0 24 24" width="16" x="4" y="7239"><path fill="#65779B" d="M12,20A8,8 0 0,0 20,12A8,8 0 0,0 12,4A8,8 0 0,0 4,12A8,8 0 0,0 12,20M12,2A10,10 0 0,1 22,12A10,10 0 0,1 12,22C6.47,22 2,17.5 2,12A10,10 0 0,1 12,2M12.5,7V12.25L17,14.92L16.25,16.15L11,13V7H12.5Z"/></svg><svg height="14.4" viewBox="0 0 16 15" width="16" x="4" y="7259"><path d="M10,3C5.6,3,2,5.864,2,9.4a5.774,5.774,0,0,0,2.2,4.4c0,.48-.336,1.736-2.2,3.6a8.827,8.827,0,0,0,5.176-2A10.206,10.206,0,0,0,10,15.8c4.4,0,8-2.864,8-6.4S14.4,3,10,3m0,11.2c-3.536,0-6.4-2.152-6.4-4.8S6.464,4.6,10,4.6s6.4,2.152,6.4,4.8S13.536,14.2,10,14.2Z" transform="translate(-2 -3)" fill="#4b689f"/></svg><svg height="16" viewBox="0 0 10 16" width="9.88" x="4" y="7278"><path d="M8.59,20.107,14.7,14,8.59,7.88,10.47,6l8,8-6.388,6.388L10.47,22Z" transform="translate(-8.59 -6)" fill="#4c72ef"/></svg><svg height="9.545" viewBox="0 0 16 10" width="16" x="4" y="7298"><path d="M8.5,6.75a7.526,7.526,0,0,0-7,4.773,7.52,7.52,0,0,0,14,0A7.526,7.526,0,0,0,8.5,6.75Zm0,7.955a3.182,3.182,0,1,1,3.182-3.182A3.183,3.183,0,0,1,8.5,14.7Zm0-5.091a1.909,1.909,0,1,0,1.909,1.909A1.907,1.907,0,0,0,8.5,9.614Z" transform="translate(-1.5 -6.75)" fill="#4b689f"/></svg><svg height="14" viewBox="0 0 14 14" width="14" x="4" y="7312"><path d="M6.9,16a.7.7,0,0,1-.7-.7V13.2H3.4A1.4,1.4,0,0,1,2,11.8V3.4A1.4,1.4,0,0,1,3.4,2H14.6A1.4,1.4,0,0,1,16,3.4v8.4a1.4,1.4,0,0,1-1.4,1.4H10.33L7.74,15.8a.713.713,0,0,1-.49.2H6.9m.7-4.2v2.156L9.756,11.8H14.6V3.4H3.4v8.4Z" transform="translate(-2 -2)" fill="#4b689f"/></svg><svg height="14" viewBox="0 0 14 14" width="13.618" x="4" y="7330"><path id="Icon_material-settings" data-name="Icon material-settings" d="M15.418,10.686a4.827,4.827,0,0,0,0-1.372l1.477-1.155a.353.353,0,0,0,.084-.448l-1.4-2.422a.352.352,0,0,0-.427-.154l-1.743.7a5.114,5.114,0,0,0-1.183-.686L11.96,3.294A.341.341,0,0,0,11.617,3h-2.8a.341.341,0,0,0-.343.294L8.208,5.149a5.378,5.378,0,0,0-1.183.686l-1.743-.7a.341.341,0,0,0-.427.154l-1.4,2.422a.345.345,0,0,0,.084.448L5.016,9.314A5.551,5.551,0,0,0,4.967,10a5.551,5.551,0,0,0,.049.686L3.539,11.841a.353.353,0,0,0-.084.448l1.4,2.422a.352.352,0,0,0,.427.154l1.743-.7a5.114,5.114,0,0,0,1.183.686l.266,1.855A.341.341,0,0,0,8.817,17h2.8a.341.341,0,0,0,.343-.294l.266-1.855a5.378,5.378,0,0,0,1.183-.686l1.743.7a.341.341,0,0,0,.427-.154l1.4-2.422a.353.353,0,0,0-.084-.448Zm-5.2,1.764A2.45,2.45,0,1,1,12.667,10,2.453,2.453,0,0,1,10.217,12.45Z" transform="translate(-3.406 -3)" fill="#4b689f"/></svg><svg height="14" viewBox="0 0 13 14" width="12.6" x="4" y="7348"><path id="Icon_material-today" data-name="Icon material-today" d="M15.7,2.9H15V1.5H13.6V2.9H8V1.5H6.6V2.9H5.9A1.394,1.394,0,0,0,4.507,4.3L4.5,14.1a1.4,1.4,0,0,0,1.4,1.4h9.8a1.4,1.4,0,0,0,1.4-1.4V4.3A1.4,1.4,0,0,0,15.7,2.9Zm0,11.2H5.9V6.4h9.8ZM7.3,7.8h3.5v3.5H7.3Z" transform="translate(-4.5 -1.5)" fill="#757575"/></svg><svg height="14" viewBox="0 0 13 14" width="12.091" x="4" y="7366"><path id="Icon_material-content-copy" data-name="Icon material-content-copy" d="M11.909,1.5H4.273A1.276,1.276,0,0,0,3,2.773v8.909H4.273V2.773h7.636Zm1.909,2.545h-7A1.276,1.276,0,0,0,5.545,5.318v8.909A1.276,1.276,0,0,0,6.818,15.5h7a1.276,1.276,0,0,0,1.273-1.273V5.318A1.276,1.276,0,0,0,13.818,4.045Zm0,10.182h-7V5.318h7Z" transform="translate(-3 -1.5)" fill="#4b689f"/></svg><svg height="14" viewBox="0 0 12 14" width="11.529" x="4" y="7384"><path d="M19.029,9.441H15.735V4.5H10.794V9.441H7.5l5.765,5.765ZM7.5,16.853V18.5H19.029V16.853Z" transform="translate(-7.5 -4.5)" fill="#4b689f"/></svg><svg height="14" viewBox="0 0 11 14" width="11" x="4" y="7402"><path id="Icon_material-play-arrow" data-name="Icon material-play-arrow" d="M12,7.5v14l11-7Z" transform="translate(-12 -7.5)" fill="#4b689f"/></svg><svg height="8.4" viewBox="0 0 14 9" width="14" x="4" y="7420"><path id="Icon_material-trending-up" data-name="Icon material-trending-up" d="M12.8,9l1.6,1.6-3.416,3.416-2.8-2.8L3,16.413l.987.987,4.2-4.2,2.8,2.8,4.41-4.4L17,13.2V9Z" transform="translate(-3 -9)" fill="#4b689f"/></svg><svg height="10" viewBox="0 0 14 10" width="13.117" x="4" y="7433"><path id="Icon_material-check" data-name="Icon material-check" d="M9.284,16.275l-3.11-3.11L5.115,14.216l4.169,4.169,8.949-8.949L17.181,8.385Z" transform="translate(-5.115 -8.385)" fill="#76c36e"/></svg><svg height="12" viewBox="0 0 12 12" width="12" x="4" y="7447"><path d="M10,7.5V9.1h5.272L6,18.372,7.128,19.5,16.4,10.228V15.5H18v-8Z" transform="translate(-6 -7.5)" fill="#4b689f"/></svg><svg height="12" viewBox="0 0 12 12" width="12" x="4" y="7463"><path d="M9,3a6,6,0,1,0,6,6A6,6,0,0,0,9,3ZM9,13.8A4.8,4.8,0,0,1,4.2,9,4.741,4.741,0,0,1,5.214,6.06l6.726,6.726A4.741,4.741,0,0,1,9,13.8Zm3.786-1.86L6.06,5.214A4.741,4.741,0,0,1,9,4.2,4.8,4.8,0,0,1,13.8,9,4.741,4.741,0,0,1,12.786,11.94Z" transform="translate(-3 -3)" fill="#4b689f"/></svg><svg height="12" viewBox="0 0 12 12" width="12" x="4" y="7479"><path id="Icon_material-edit" data-name="Icon material-edit" d="M4.5,14v2.5H7l7.372-7.372-2.5-2.5ZM16.305,7.191a.664.664,0,0,0,0-.94l-1.56-1.56a.664.664,0,0,0-.94,0l-1.22,1.22,2.5,2.5,1.22-1.22Z" transform="translate(-4.5 -4.496)" fill="#4b689f"/></svg><svg height="12" viewBox="0 0 11 12" width="10.286" x="4" y="7495"><path id="Icon_material-pause" data-name="Icon material-pause" d="M9,19.5h3.429V7.5H9Zm6.857-12v12h3.429V7.5Z" transform="translate(-9 -7.5)" fill="#4b689f"/></svg><svg height="12" viewBox="0 0 10 12" width="9.333" x="4" y="7511"><path id="Icon_material-delete" data-name="Icon material-delete" d="M8.167,15.167A1.337,1.337,0,0,0,9.5,16.5h5.333a1.337,1.337,0,0,0,1.333-1.333v-8h-8Zm8.667-10H14.5L13.833,4.5H10.5l-.667.667H7.5V6.5h9.333Z" transform="translate(-7.5 -4.5)" fill="#4b689f"/></svg><svg height="10" viewBox="0 0 9 10" width="8.571" x="4" y="7527"><path id="Icon_material-pause" data-name="Icon material-pause" d="M9,17.5h2.857V7.5H9Zm5.714-10v10h2.857V7.5Z" transform="translate(-9 -7.5)" fill="#4b689f"/></svg><svg height="10" viewBox="0 0 7 10" width="6.175" x="4" y="7541"><path d="M12.885,17.45,16.7,13.625,12.885,9.8,14.06,8.625l5,5-5,5Z" transform="translate(-12.885 -8.625)" fill="#4b689f"/></svg></svg>