<svg width="240" height="18" viewBox="0 0 240 18" xmlns="http://www.w3.org/2000/svg"><path d="M234.035 15.995V5.509h1.532v4.32h-.081c0-1.532.343-2.651 1.028-3.358.698-.72 1.739-1.08 3.123-1.08H240V7.08h-.686c-1.074 0-1.9.281-2.478.844-.578.55-.866 1.348-.866 2.396v5.675h-1.935zm-7.763.353c-.941 0-1.753-.157-2.439-.471s-1.242-.727-1.672-1.237a5.47 5.47 0 0 1-.967-1.748 6.5 6.5 0 0 1-.302-1.964v-.353c0-.681.1-1.342.302-1.983a5.25 5.25 0 0 1 .967-1.728c.43-.524.974-.936 1.632-1.237.672-.314 1.458-.471 2.358-.471 1.168 0 2.129.249 2.881.746.766.484 1.33 1.113 1.693 1.885a5.58 5.58 0 0 1 .564 2.474v.844h-9.551V9.692h8.14l-.443.766c0-.746-.121-1.388-.363-1.924a2.77 2.77 0 0 0-1.088-1.276c-.484-.301-1.094-.452-1.833-.452-.766 0-1.404.17-1.915.511-.497.34-.873.805-1.128 1.394-.242.589-.363 1.27-.363 2.042 0 .746.121 1.42.363 2.022a3.21 3.21 0 0 0 1.169 1.414c.524.34 1.189.511 1.995.511.846 0 1.531-.183 2.055-.55.537-.366.86-.792.967-1.276h1.814c-.148.72-.444 1.342-.887 1.865a4.28 4.28 0 0 1-1.672 1.198c-.671.275-1.431.412-2.277.412zm-8.884-.235c-.806 0-1.505-.111-2.096-.334a2.65 2.65 0 0 1-1.35-1.139c-.309-.55-.463-1.289-.463-2.219V2.328h1.854v10.329c0 .563.154 1.001.463 1.316.322.301.772.452 1.35.452h1.894v1.689h-1.652zm-5.763-9.19V5.509h7.415v1.414h-7.415zm-2.816 9.19c-.806 0-1.505-.111-2.096-.334a2.65 2.65 0 0 1-1.35-1.139c-.309-.55-.463-1.289-.463-2.219V2.328h1.853v10.329c0 .563.155 1.001.464 1.316.322.301.772.452 1.35.452h1.894v1.689h-1.652zm-5.763-9.19V5.509h7.415v1.414h-7.415zm-6.192 9.425c-.941 0-1.753-.157-2.438-.471s-1.243-.727-1.673-1.237a5.47 5.47 0 0 1-.967-1.748 6.5 6.5 0 0 1-.302-1.964v-.353c0-.681.1-1.342.302-1.983a5.25 5.25 0 0 1 .967-1.728c.43-.524.974-.936 1.632-1.237.672-.314 1.458-.471 2.358-.471 1.168 0 2.129.249 2.881.746.766.484 1.33 1.113 1.693 1.885a5.58 5.58 0 0 1 .564 2.474v.844h-9.551V9.692h8.141l-.444.766c0-.746-.121-1.388-.362-1.924a2.78 2.78 0 0 0-1.089-1.276c-.483-.301-1.094-.452-1.833-.452-.766 0-1.404.17-1.914.511a3.17 3.17 0 0 0-1.129 1.394c-.242.589-.363 1.27-.363 2.042 0 .746.121 1.42.363 2.022a3.21 3.21 0 0 0 1.169 1.414c.524.34 1.189.511 1.995.511.846 0 1.531-.183 2.055-.55.537-.366.86-.792.967-1.276h1.814c-.148.72-.444 1.342-.887 1.865a4.28 4.28 0 0 1-1.672 1.198c-.671.275-1.431.412-2.277.412z"/><path fill-rule="evenodd" d="M184.19 2.075h-1.894v13.975h8.041v-1.716h-6.147V2.075z"/><path d="M172.564 15.995V5.509h1.532v4.32h-.081c0-1.532.343-2.651 1.028-3.358.698-.72 1.74-1.08 3.123-1.08h.363V7.08h-.685c-1.075 0-1.901.281-2.479.844-.577.55-.866 1.348-.866 2.396v5.675h-1.935zm-7.763.353c-.94 0-1.753-.157-2.438-.471s-1.243-.727-1.673-1.237a5.47 5.47 0 0 1-.967-1.748 6.53 6.53 0 0 1-.302-1.964v-.353a6.59 6.59 0 0 1 .302-1.983 5.25 5.25 0 0 1 .967-1.728c.43-.524.974-.936 1.632-1.237.672-.314 1.458-.471 2.358-.471 1.169 0 2.129.249 2.881.746.766.484 1.33 1.113 1.693 1.885a5.58 5.58 0 0 1 .564 2.474v.844h-9.551V9.692h8.141l-.444.766c0-.746-.12-1.388-.362-1.924a2.78 2.78 0 0 0-1.088-1.276c-.483-.301-1.095-.452-1.834-.452-.766 0-1.404.17-1.914.511-.497.34-.873.805-1.129 1.394-.241.589-.362 1.27-.362 2.042 0 .746.121 1.42.362 2.023a3.21 3.21 0 0 0 1.169 1.414c.524.34 1.189.511 1.995.511.846 0 1.531-.183 2.055-.55.538-.366.86-.792.967-1.276h1.814c-.148.72-.443 1.342-.887 1.865a4.28 4.28 0 0 1-1.672 1.198c-.672.275-1.431.412-2.277.412zm-13.336-.353l-3.667-10.486h2.015l3.587 10.486h-1.935zm.484 0v-1.492h2.337v1.492h-2.337zm.927 0l3.123-10.486h1.894l-3.184 10.486h-1.833zm-12.172.353c-.94 0-1.766-.157-2.478-.471s-1.317-.727-1.814-1.237a5.63 5.63 0 0 1-1.108-1.748 5.52 5.52 0 0 1-.363-1.964v-.353c0-.668.128-1.322.383-1.964a5.18 5.18 0 0 1 1.129-1.748 5.32 5.32 0 0 1 1.813-1.237c.712-.314 1.525-.471 2.438-.471s1.726.157 2.438.471c.712.301 1.317.713 1.814 1.237a5.18 5.18 0 0 1 1.128 1.748c.256.641.383 1.296.383 1.964v.353c0 .668-.127 1.322-.383 1.964a5.16 5.16 0 0 1-1.108 1.748c-.484.511-1.081.923-1.793 1.237s-1.538.471-2.479.471zm0-1.689c.806 0 1.491-.17 2.056-.511a3.44 3.44 0 0 0 1.309-1.414c.309-.589.464-1.25.464-1.983 0-.746-.155-1.414-.464-2.003s-.752-1.054-1.33-1.394c-.564-.34-1.242-.511-2.035-.511-.779 0-1.457.17-2.035.511a3.45 3.45 0 0 0-1.33 1.394c-.309.589-.463 1.257-.463 2.003 0 .733.148 1.394.443 1.983a3.63 3.63 0 0 0 1.31 1.414c.577.34 1.269.511 2.075.511z"/><path fill-rule="evenodd" d="M127.376 3.327c-1.036 0-1.958.186-2.763.563-.785.359-1.444.852-1.975 1.479a6.36 6.36 0 0 0-1.2 2.059l-.001.002a7.08 7.08 0 0 0-.383 2.311v.321c0 .778.128 1.549.383 2.31l.001.002c.271.763.671 1.464 1.198 2.103l.001.001c.531.627 1.189 1.127 1.974 1.502l.003.001c.806.361 1.743.539 2.809.539 1.052 0 2.005-.186 2.856-.562l.002-.001c.849-.391 1.542-.931 2.073-1.622.551-.71.857-1.538.921-2.478l.01-.146h-1.967l-.014.121c-.06.524-.261 1.005-.607 1.444l-.001.002c-.33.438-.774.791-1.335 1.057-.542.249-1.186.376-1.938.376-.981 0-1.782-.216-2.411-.64a4.1 4.1 0 0 1-1.433-1.751c-.321-.746-.482-1.552-.482-2.421 0-.885.161-1.683.482-2.397v-.001c.319-.726.789-1.293 1.408-1.705h0c.63-.424 1.424-.64 2.389-.64 1.121 0 1.986.276 2.611.814l.003.002c.648.529 1.039 1.195 1.174 2.002l.019.114h1.966l-.015-.15c-.096-.938-.402-1.756-.919-2.449s-1.194-1.225-2.029-1.601c-.821-.376-1.758-.563-2.81-.563z"/><path d="M112.044 16.368c-.941 0-1.767-.157-2.479-.471-.698-.314-1.283-.733-1.753-1.257a5.88 5.88 0 0 1-1.048-1.787 6.05 6.05 0 0 1-.342-2.003v-.373a6.16 6.16 0 0 1 .342-2.042c.242-.668.591-1.257 1.048-1.767.47-.524 1.048-.936 1.733-1.237.685-.314 1.478-.471 2.378-.471 1.182 0 2.169.255 2.962.766a4.74 4.74 0 0 1 1.813 1.983c.403.812.605 1.689.605 2.631v.982h-9.692v-1.67h7.939l-.867.825c0-.681-.1-1.263-.302-1.748a2.34 2.34 0 0 0-.927-1.119c-.403-.262-.913-.393-1.531-.393s-1.142.137-1.572.412-.759.674-.987 1.198c-.215.511-.323 1.126-.323 1.846 0 .668.108 1.263.323 1.787.215.511.544.916.987 1.217.443.288 1.008.432 1.693.432s1.242-.131 1.672-.393c.43-.275.705-.609.826-1.001h2.58a4.48 4.48 0 0 1-.927 1.924c-.457.55-1.041.975-1.753 1.276-.699.301-1.498.452-2.398.452zm-14.231-.373L94.388 5.332h2.881l3.285 10.663h-2.741zm.826 0v-2.239h2.962v2.239h-2.962zm1.108 0l2.821-10.663h2.7l-2.962 10.663h-2.559zm-10.159 0V5.332h2.801v10.663h-2.801zm-1.531-8.62V5.332h4.332v2.042h-4.332zm2.559-3.319c-.551 0-.961-.137-1.229-.412-.255-.288-.383-.641-.383-1.06 0-.445.128-.805.383-1.08.269-.275.678-.412 1.229-.412s.954.137 1.209.412.383.635.383 1.08c0 .419-.128.772-.383 1.06-.255.275-.658.412-1.209.412zm-5.474 12.076c-1.007 0-1.84-.124-2.499-.373a2.78 2.78 0 0 1-1.451-1.296c-.322-.615-.484-1.44-.484-2.474l.02-9.661h2.62l-.02 9.838c0 .524.141.929.423 1.217.296.275.712.412 1.249.412h1.713v2.337h-1.572zm-6.166-8.797V5.332h7.738v2.003h-7.738zm-6.032 9.033c-.954 0-1.78-.157-2.478-.471-.685-.314-1.263-.733-1.733-1.257a5.34 5.34 0 0 1-1.028-1.767 6.04 6.04 0 0 1-.343-2.003v-.373a6.2 6.2 0 0 1 .343-2.062c.242-.668.598-1.257 1.068-1.767.47-.524 1.048-.936 1.733-1.237.698-.314 1.504-.471 2.418-.471.954 0 1.807.183 2.559.55.752.353 1.35.851 1.793 1.492.457.641.712 1.388.766 2.239h-2.72c-.067-.55-.309-1.008-.725-1.375-.403-.367-.96-.55-1.672-.55-.618 0-1.135.144-1.552.432-.403.288-.705.687-.907 1.198-.201.497-.302 1.073-.302 1.728 0 .628.094 1.198.282 1.708.201.511.504.91.907 1.198.416.288.947.432 1.592.432.484 0 .9-.085 1.249-.255a2.05 2.05 0 0 0 .826-.707 2.28 2.28 0 0 0 .403-1.021h2.72c-.054.864-.316 1.623-.786 2.278-.457.641-1.068 1.146-1.834 1.512-.752.367-1.612.55-2.579.55zm-12.455 0c-.94 0-1.767-.157-2.478-.471-.699-.314-1.283-.733-1.753-1.257a5.88 5.88 0 0 1-1.048-1.787 6.04 6.04 0 0 1-.343-2.003v-.373c0-.707.114-1.388.343-2.042a5.36 5.36 0 0 1 1.048-1.767c.47-.524 1.048-.936 1.733-1.237.685-.314 1.478-.471 2.378-.471 1.182 0 2.169.255 2.962.766.806.497 1.411 1.159 1.813 1.983.403.812.605 1.689.605 2.631v.982h-9.692v-1.67h7.939l-.866.825c0-.681-.101-1.263-.302-1.748s-.51-.857-.927-1.119c-.403-.262-.913-.393-1.531-.393s-1.142.137-1.572.412-.759.674-.987 1.198c-.215.511-.322 1.126-.322 1.846 0 .668.107 1.263.322 1.787.215.511.544.916.987 1.217.443.288 1.008.432 1.693.432s1.243-.131 1.672-.393c.43-.275.705-.609.826-1.001h2.579a4.46 4.46 0 0 1-.927 1.924c-.457.55-1.041.975-1.753 1.276-.699.301-1.498.452-2.398.452zm-19.354-.373V4.959c0-1.217.343-2.114 1.028-2.69.699-.589 1.726-.884 3.083-.884h1.028v2.101h-1.229c-.416 0-.739.111-.967.334-.215.209-.322.511-.322.903v11.271h-2.62zm7.133 0V5.077c0-1.217.342-2.114 1.028-2.69.699-.589 1.726-.884 3.083-.884h1.33v2.101h-1.531c-.416 0-.739.111-.967.334-.215.209-.322.511-.322.903v11.153H48.27zm-8.483-8.483V5.509H53.89v2.003H39.785z"/><path d="M28.764 11.883c-.201-.501-.328-1.05-.38-1.647h9.941V9.033a6.72 6.72 0 0 0-.679-2.979c-.441-.939-1.128-1.703-2.054-2.289-.924-.61-2.091-.907-3.486-.907-1.076 0-2.027.188-2.846.571a5.46 5.46 0 0 0-1.982 1.503 6.34 6.34 0 0 0-1.167 2.086l-.001.004a7.89 7.89 0 0 0-.362 2.378v.412a7.81 7.81 0 0 0 .362 2.355l.001.004a6.6 6.6 0 0 0 1.166 2.108l.002.002c.525.623 1.203 1.124 2.029 1.502.835.383 1.818.571 2.94.571 1.012 0 1.928-.165 2.743-.498s1.496-.82 2.037-1.46.902-1.4 1.081-2.272l.054-.261h-2.569l-.038.172c-.11.497-.444.951-1.038 1.357l-.002.002c-.563.394-1.312.601-2.267.601-.908 0-1.636-.191-2.202-.558a3.52 3.52 0 0 1-1.282-1.551zm6.86-3.733h-7.12c.065-.299.152-.581.26-.844.283-.651.695-1.159 1.237-1.53.55-.366 1.247-.557 2.106-.557.831 0 1.499.169 2.019.493s.918.787 1.184 1.391v.002c.141.313.246.662.314 1.046zM0 3a3 3 0 0 1 3-3h10.792a3 3 0 0 1 3 3v6.273H7.836V18H3a3 3 0 0 1-3-3V3zm7.836 15l8.955-8.727v3.273L11.194 18H7.836z" fill-rule="evenodd"/></svg>