<svg width="176" height="20" viewBox="0 0 176 20" fill="none" xmlns="http://www.w3.org/2000/svg"><path d="M174.164 8.09288C174.922 8.57869 175.358 9.41405 175.47 10.599H172.938C172.902 10.2731 172.81 10.0154 172.662 9.8258C172.384 9.48218 171.91 9.31037 171.24 9.31037C170.689 9.31037 170.295 9.39627 170.058 9.56808C169.827 9.7399 169.712 9.94133 169.712 10.1724C169.712 10.4627 169.836 10.673 170.085 10.8033C170.334 10.9396 171.214 11.1736 172.724 11.5054C173.731 11.7424 174.487 12.1008 174.99 12.5807C175.488 13.0665 175.737 13.6738 175.737 14.4025C175.737 15.3623 175.378 16.1473 174.662 16.7575C173.951 17.3618 172.849 17.664 171.356 17.664C169.833 17.664 168.707 17.344 167.979 16.7042C167.256 16.0584 166.895 15.2379 166.895 14.2425H169.463C169.516 14.6928 169.632 15.0127 169.809 15.2023C170.123 15.54 170.704 15.7089 171.551 15.7089C172.049 15.7089 172.443 15.6348 172.733 15.4867C173.029 15.3386 173.177 15.1164 173.177 14.8202C173.177 14.5358 173.059 14.3196 172.822 14.1714C172.585 14.0233 171.705 13.7686 170.183 13.4072C169.087 13.1347 168.313 12.794 167.863 12.3852C167.413 11.9823 167.188 11.4017 167.188 10.6434C167.188 9.74878 167.537 8.98156 168.236 8.34171C168.941 7.69593 169.931 7.37305 171.205 7.37305C172.413 7.37305 173.4 7.61299 174.164 8.09288Z" fill="#000"/><path d="M161.625 17.593C160.825 17.593 160.182 17.433 159.696 17.1131C159.406 16.9235 159.092 16.5917 158.754 16.1178V17.3353H156.275V4.25391H158.799V8.91059C159.119 8.46032 159.471 8.1167 159.856 7.87972C160.312 7.58349 160.893 7.43538 161.598 7.43538C162.872 7.43538 163.867 7.89453 164.584 8.81283C165.307 9.73113 165.668 10.916 165.668 12.3675C165.668 13.8724 165.313 15.1195 164.602 16.1089C163.891 17.0983 162.899 17.593 161.625 17.593ZM163.011 12.6342C163.011 11.9469 162.922 11.3782 162.744 10.9279C162.407 10.0748 161.785 9.64819 160.878 9.64819C159.96 9.64819 159.329 10.0659 158.985 10.9012C158.808 11.3456 158.719 11.9202 158.719 12.6253C158.719 13.4547 158.902 14.1419 159.27 14.687C159.637 15.2321 160.197 15.5046 160.949 15.5046C161.601 15.5046 162.108 15.2409 162.469 14.7137C162.83 14.1864 163.011 13.4932 163.011 12.6342Z" fill="#000"/><path d="M153.316 8.87531C154.133 9.90025 154.542 11.1118 154.542 12.51C154.542 13.9319 154.133 15.1494 153.316 16.1625C152.498 17.1696 151.257 17.6732 149.592 17.6732C147.927 17.6732 146.686 17.1696 145.868 16.1625C145.051 15.1494 144.642 13.9319 144.642 12.51C144.642 11.1118 145.051 9.90025 145.868 8.87531C146.686 7.85036 147.927 7.33789 149.592 7.33789C151.257 7.33789 152.498 7.85036 153.316 8.87531ZM149.583 9.47961C148.843 9.47961 148.271 9.74325 147.868 10.2705C147.471 10.7919 147.273 11.5384 147.273 12.51C147.273 13.4816 147.471 14.2311 147.868 14.7584C148.271 15.2856 148.843 15.5493 149.583 15.5493C150.324 15.5493 150.892 15.2856 151.289 14.7584C151.686 14.2311 151.885 13.4816 151.885 12.51C151.885 11.5384 151.686 10.7919 151.289 10.2705C150.892 9.74325 150.324 9.47961 149.583 9.47961Z" fill="#000"/><path d="M139.985 13.3986V4.23633H142.722V13.3542C142.722 14.468 142.53 15.3507 142.145 16.0024C141.493 17.1044 140.317 17.6554 138.617 17.6554C136.916 17.6554 135.776 17.211 135.195 16.3224C134.615 15.4278 134.324 14.2103 134.324 12.6699V12.3677H136.91V12.6699C136.934 13.683 137.044 14.3969 137.239 14.8116C137.441 15.2204 137.867 15.4248 138.519 15.4248C139.165 15.4248 139.591 15.1997 139.798 14.7494C139.923 14.4828 139.985 14.0325 139.985 13.3986Z" fill="#000"/><path d="M127.819 9.98625C126.8 9.98625 126.116 10.318 125.767 10.9816C125.571 11.3548 125.473 11.9295 125.473 12.7056V17.3356H122.923V7.64903H125.34V9.33752C125.731 8.69174 126.072 8.25037 126.362 8.01338C126.836 7.61644 127.452 7.41797 128.21 7.41797C128.258 7.41797 128.296 7.42093 128.326 7.42686C128.362 7.42686 128.436 7.42982 128.548 7.43574V10.0307C128.388 10.0129 128.246 10.0011 128.122 9.99514C127.997 9.98921 127.896 9.98625 127.819 9.98625Z" fill="#000"/><path d="M121.11 14.4912C121.045 15.0659 120.745 15.6494 120.212 16.2419C119.383 17.1839 118.222 17.6549 116.729 17.6549C115.496 17.6549 114.409 17.2579 113.467 16.464C112.525 15.6702 112.054 14.3786 112.054 12.5894C112.054 10.9128 112.478 9.62713 113.325 8.73253C114.178 7.83793 115.283 7.39062 116.64 7.39062C117.446 7.39062 118.171 7.5417 118.817 7.84385C119.463 8.146 119.996 8.62293 120.417 9.27463C120.796 9.8493 121.042 10.5158 121.154 11.2742C121.219 11.7185 121.246 12.3583 121.234 13.1937H114.605C114.64 14.1653 114.945 14.8466 115.52 15.2377C115.87 15.4806 116.29 15.602 116.782 15.602C117.303 15.602 117.727 15.4539 118.053 15.1577C118.231 14.9977 118.388 14.7756 118.524 14.4912H121.11ZM118.604 11.523C118.562 10.8535 118.358 10.347 117.991 10.0033C117.629 9.6538 117.179 9.47902 116.64 9.47902C116.053 9.47902 115.597 9.66268 115.271 10.03C114.951 10.3973 114.75 10.895 114.667 11.523H118.604Z" fill="#000"/><path d="M101.736 7.64844H104.58L106.597 14.7934L108.659 7.64844H111.378L107.886 17.335H105.211L101.736 7.64844Z" fill="#000"/><path d="M100.226 7.64876V17.3354H97.6572V7.64876H100.226ZM100.226 4.15625V6.49348H97.6572V4.15625H100.226Z" fill="#000"/><path d="M95.4 9.98625C94.381 9.98625 93.6967 10.318 93.3472 10.9816C93.1517 11.3548 93.0539 11.9295 93.0539 12.7056V17.3356H90.5034V7.64903H92.9206V9.33752C93.3116 8.69174 93.6523 8.25037 93.9426 8.01338C94.4166 7.61644 95.0327 7.41797 95.7911 7.41797C95.8385 7.41797 95.877 7.42093 95.9066 7.42686C95.9421 7.42686 96.0162 7.42982 96.1288 7.43574V10.0307C95.9688 10.0129 95.8266 10.0011 95.7022 9.99514C95.5778 9.98921 95.4771 9.98625 95.4 9.98625Z" fill="#000"/><path d="M83.2251 17.3355H77.582V4.23633H83.2251C84.0368 4.24818 84.7122 4.34297 85.2513 4.52071C86.1696 4.82286 86.9132 5.3768 87.4819 6.18254C87.9381 6.83423 88.2491 7.53925 88.415 8.29759C88.5809 9.05593 88.6639 9.77873 88.6639 10.466C88.6639 12.2078 88.3143 13.683 87.6152 14.8916C86.6673 16.5208 85.2039 17.3355 83.2251 17.3355ZM85.2602 7.57776C84.8396 6.86682 84.0072 6.51135 82.763 6.51135H80.2392V15.0604H82.763C84.0546 15.0604 84.9551 14.4236 85.4646 13.1498C85.7431 12.4507 85.8823 11.6183 85.8823 10.6526C85.8823 9.31957 85.6749 8.29463 85.2602 7.57776Z" fill="#000"/><path d="M59.4087 4.23633H62.3324L65.1762 14.1806L68.0467 4.23633H70.8904L66.4204 17.3355H63.8343L59.4087 4.23633Z" fill="#000"/><path d="M54.2457 17.0153C53.5229 17.4597 52.6342 17.6819 51.5796 17.6819C49.8438 17.6819 48.4219 17.0805 47.314 15.8778C46.1587 14.6692 45.5811 13.0163 45.5811 10.919C45.5811 8.79802 46.1646 7.09768 47.3318 5.81798C48.4989 4.53829 50.0422 3.89844 51.9618 3.89844C53.6266 3.89844 54.9625 4.32204 55.9697 5.16925C56.9828 6.01053 57.5634 7.06214 57.7115 8.32406H55.0188C54.8115 7.42946 54.3049 6.80442 53.4992 6.44895C53.0489 6.25344 52.5483 6.15568 51.9973 6.15568C50.9428 6.15568 50.0748 6.55559 49.3935 7.3554C48.7181 8.14929 48.3804 9.34604 48.3804 10.9457C48.3804 12.5571 48.7477 13.6976 49.4824 14.3671C50.217 15.0366 51.0524 15.3713 51.9884 15.3713C52.9067 15.3713 53.6592 15.1076 54.2457 14.5804C54.8322 14.0472 55.1936 13.351 55.3299 12.492H52.2995V10.3058H57.756V17.3353H55.9431L55.6676 15.7001C55.1403 16.3222 54.6663 16.7606 54.2457 17.0153Z" fill="#000"/><path d="M40.8708 17.3355V11.488H35.752V17.3355H33.0415V4.23633H35.752V9.23071H40.8708V4.23633H43.5901V17.3355H40.8708Z" fill="#000"/><path d="M14.4961 13.0217C12.271 16.8757 8.124 18.6471 5.23349 16.9783C2.34298 15.3095 1.80358 10.8323 4.02869 6.97831C6.25381 3.12429 10.4008 1.35286 13.2913 3.02169C16.1819 4.69053 16.7213 9.16768 14.4961 13.0217Z" fill="#565656"/><path d="M24.4336 13.0217C22.2085 16.8757 18.0615 18.6471 15.171 16.9783C12.2805 15.3095 11.7411 10.8323 13.9662 6.97831C16.1913 3.12429 20.3383 1.35286 23.2288 3.02169C26.1194 4.69053 26.6588 9.16768 24.4336 13.0217Z" fill="#000"/></svg>